<?xml version="1.0" encoding="UTF-8"?><svg xmlns="http://www.w3.org/2000/svg" xmlns:xlink="http://www.w3.org/1999/xlink"     width="2850" height="784.5" viewBox="0 0 2850 784.5"><defs></defs><rect x="13.0" y="192.5" width="12.0" height="3" fill="#35df39" stroke="#03aa10" /><rect x="0.0" y="216.5" width="12.0" height="3" fill="#ff3c3c" stroke="#c71f1f" /><rect x="26.0" y="240.5" width="12.0" height="3" fill="#80c9ff" stroke="#0b6cba" /><rect x="13.0" y="264.5" width="12.0" height="3" fill="#35df39" stroke="#03aa10" /><rect x="0.0" y="289.0" width="12.0" height="3" fill="#ff3c3c" stroke="#c71f1f" /><rect x="13.0" y="313.0" width="12.0" height="3" fill="#35df39" stroke="#03aa10" /><rect x="0.0" y="337.0" width="12.0" height="3" fill="#ff3c3c" stroke="#c71f1f" /><rect x="13.0" y="361.0" width="12.0" height="3" fill="#35df39" stroke="#03aa10" /><rect x="26.0" y="385.0" width="12.0" height="3" fill="#80c9ff" stroke="#0b6cba" /><rect x="39.0" y="409.0" width="12.0" height="3" fill="#fff874" stroke="#eb9c26" /><rect x="52.0" y="433.0" width="12.0" height="3" fill="#ff83f4" stroke="#d002bc" /><rect x="26.0" y="457.0" width="12.0" height="3" fill="#80c9ff" stroke="#0b6cba" /><rect x="52.0" y="481.5" width="12.0" height="3" fill="#ff83f4" stroke="#d002bc" /><rect x="39.0" y="505.5" width="12.0" height="3" fill="#fff874" stroke="#eb9c26" /><rect x="26.0" y="529.5" width="12.0" height="3" fill="#80c9ff" stroke="#0b6cba" /><rect x="153.0" y="0.0" width="12.0" height="3" fill="#fff874" stroke="#eb9c26" /><rect x="127.0" y="24.0" width="12.0" height="3" fill="#35df39" stroke="#03aa10" /><rect x="140.0" y="48.0" width="12.0" height="3" fill="#80c9ff" stroke="#0b6cba" /><rect x="127.0" y="72.0" width="12.0" height="3" fill="#35df39" stroke="#03aa10" /><rect x="114.0" y="96.0" width="12.0" height="3" fill="#ff3c3c" stroke="#c71f1f" /><rect x="127.0" y="120.5" width="12.0" height="3" fill="#35df39" stroke="#03aa10" /><rect x="114.0" y="144.5" width="12.0" height="3" fill="#ff3c3c" stroke="#c71f1f" /><rect x="140.0" y="168.5" width="12.0" height="3" fill="#80c9ff" stroke="#0b6cba" /><rect x="127.0" y="192.5" width="12.0" height="3" fill="#35df39" stroke="#03aa10" /><rect x="114.0" y="216.5" width="12.0" height="3" fill="#ff3c3c" stroke="#c71f1f" /><rect x="127.0" y="240.5" width="12.0" height="3" fill="#35df39" stroke="#03aa10" /><rect x="114.0" y="264.5" width="12.0" height="3" fill="#ff3c3c" stroke="#c71f1f" /><rect x="127.0" y="288.5" width="12.0" height="3" fill="#35df39" stroke="#03aa10" /><rect x="140.0" y="313.0" width="12.0" height="3" fill="#80c9ff" stroke="#0b6cba" /><rect x="153.0" y="337.0" width="12.0" height="3" fill="#fff874" stroke="#eb9c26" /><rect x="166.0" y="361.0" width="12.0" height="3" fill="#ff83f4" stroke="#d002bc" /><rect x="166.0" y="385.0" width="12.0" height="3" fill="#ff83f4" stroke="#d002bc" /><rect x="114" y="385.0" width="64" height="3" fill="#ff72e7" stroke="#7c7c7c" /><rect x="153.0" y="409.0" width="12.0" height="3" fill="#fff874" stroke="#eb9c26" /><rect x="140.0" y="433.0" width="12.0" height="3" fill="#80c9ff" stroke="#0b6cba" /><rect x="140.0" y="445.0" width="12.0" height="3" fill="#80c9ff" stroke="#0b6cba" /><rect x="127.0" y="457.0" width="12.0" height="3" fill="#35df39" stroke="#03aa10" /><rect x="140.0" y="481.5" width="12.0" height="3" fill="#80c9ff" stroke="#0b6cba" /><rect x="267.0" y="0.0" width="12.0" height="3" fill="#fff874" stroke="#eb9c26" /><rect x="267.0" y="12.0" width="12.0" height="3" fill="#fff874" stroke="#eb9c26" /><rect x="254.0" y="24.0" width="12.0" height="3" fill="#80c9ff" stroke="#0b6cba" /><rect x="254.0" y="36.0" width="12.0" height="3" fill="#80c9ff" stroke="#0b6cba" /><rect x="267.0" y="48.0" width="12.0" height="3" fill="#fff874" stroke="#eb9c26" /><rect x="280.0" y="72.0" width="12.0" height="3" fill="#ff83f4" stroke="#d002bc" /><rect x="267.0" y="96.0" width="12.0" height="3" fill="#fff874" stroke="#eb9c26" /><rect x="280.0" y="120.0" width="12.0" height="3" fill="#ff83f4" stroke="#d002bc" /><rect x="228" y="120.0" width="64" height="3" fill="#ff72e7" stroke="#7c7c7c" /><rect x="241.0" y="144.0" width="12.0" height="3" fill="#35df39" stroke="#03aa10" /><rect x="228.0" y="168.5" width="12.0" height="3" fill="#ff3c3c" stroke="#c71f1f" /><rect x="254.0" y="192.5" width="12.0" height="3" fill="#80c9ff" stroke="#0b6cba" /><rect x="241.0" y="216.5" width="12.0" height="3" fill="#35df39" stroke="#03aa10" /><rect x="228.0" y="240.5" width="12.0" height="3" fill="#ff3c3c" stroke="#c71f1f" /><rect x="241.0" y="264.5" width="12.0" height="3" fill="#35df39" stroke="#03aa10" /><rect x="228.0" y="288.5" width="12.0" height="3" fill="#ff3c3c" stroke="#c71f1f" /><rect x="241.0" y="312.5" width="12.0" height="3" fill="#35df39" stroke="#03aa10" /><rect x="254.0" y="336.5" width="12.0" height="3" fill="#80c9ff" stroke="#0b6cba" /><rect x="267.0" y="361.0" width="12.0" height="3" fill="#fff874" stroke="#eb9c26" /><rect x="280.0" y="385.0" width="12.0" height="3" fill="#ff83f4" stroke="#d002bc" /><rect x="254.0" y="409.0" width="12.0" height="3" fill="#80c9ff" stroke="#0b6cba" /><rect x="280.0" y="433.0" width="12.0" height="3" fill="#ff83f4" stroke="#d002bc" /><rect x="267.0" y="457.0" width="12.0" height="3" fill="#fff874" stroke="#eb9c26" /><rect x="254.0" y="481.0" width="12.0" height="3" fill="#80c9ff" stroke="#0b6cba" /><rect x="381.0" y="0.0" width="12.0" height="3" fill="#fff874" stroke="#eb9c26" /><rect x="355.0" y="24.0" width="12.0" height="3" fill="#35df39" stroke="#03aa10" /><rect x="368.0" y="48.5" width="12.0" height="3" fill="#80c9ff" stroke="#0b6cba" /><rect x="355.0" y="72.5" width="12.0" height="3" fill="#35df39" stroke="#03aa10" /><rect x="342.0" y="96.5" width="12.0" height="3" fill="#ff3c3c" stroke="#c71f1f" /><rect x="355.0" y="120.5" width="12.0" height="3" fill="#35df39" stroke="#03aa10" /><rect x="342.0" y="144.5" width="12.0" height="3" fill="#ff3c3c" stroke="#c71f1f" /><rect x="368.0" y="168.5" width="12.0" height="3" fill="#80c9ff" stroke="#0b6cba" /><rect x="355.0" y="192.5" width="12.0" height="3" fill="#35df39" stroke="#03aa10" /><rect x="342.0" y="216.5" width="12.0" height="3" fill="#ff3c3c" stroke="#c71f1f" /><rect x="355.0" y="241.0" width="12.0" height="3" fill="#35df39" stroke="#03aa10" /><rect x="342.0" y="265.0" width="12.0" height="3" fill="#ff3c3c" stroke="#c71f1f" /><rect x="355.0" y="289.0" width="12.0" height="3" fill="#35df39" stroke="#03aa10" /><rect x="368.0" y="313.0" width="12.0" height="3" fill="#80c9ff" stroke="#0b6cba" /><rect x="381.0" y="337.0" width="12.0" height="3" fill="#fff874" stroke="#eb9c26" /><rect x="394.0" y="361.0" width="12.0" height="3" fill="#ff83f4" stroke="#d002bc" /><rect x="394.0" y="385.0" width="12.0" height="3" fill="#ff83f4" stroke="#d002bc" /><rect x="342" y="385.0" width="64" height="3" fill="#ff72e7" stroke="#7c7c7c" /><rect x="381.0" y="409.5" width="12.0" height="3" fill="#fff874" stroke="#eb9c26" /><rect x="368.0" y="433.5" width="12.0" height="3" fill="#80c9ff" stroke="#0b6cba" /><rect x="368.0" y="445.5" width="12.0" height="3" fill="#80c9ff" stroke="#0b6cba" /><rect x="355.0" y="457.5" width="12.0" height="3" fill="#35df39" stroke="#03aa10" /><rect x="368.0" y="481.5" width="12.0" height="3" fill="#80c9ff" stroke="#0b6cba" /><rect x="495.0" y="0.0" width="12.0" height="3" fill="#fff874" stroke="#eb9c26" /><rect x="495.0" y="12.0" width="12.0" height="3" fill="#fff874" stroke="#eb9c26" /><rect x="482.0" y="24.0" width="12.0" height="3" fill="#80c9ff" stroke="#0b6cba" /><rect x="482.0" y="36.0" width="12.0" height="3" fill="#80c9ff" stroke="#0b6cba" /><rect x="495.0" y="48.0" width="12.0" height="3" fill="#fff874" stroke="#eb9c26" /><rect x="508.0" y="72.0" width="12.0" height="3" fill="#ff83f4" stroke="#d002bc" /><rect x="495.0" y="96.5" width="12.0" height="3" fill="#fff874" stroke="#eb9c26" /><rect x="508.0" y="120.5" width="12.0" height="3" fill="#ff83f4" stroke="#d002bc" /><rect x="456" y="120.5" width="64" height="3" fill="#ff72e7" stroke="#7c7c7c" /><rect x="482.0" y="144.5" width="12.0" height="3" fill="#80c9ff" stroke="#0b6cba" /><rect x="469.0" y="168.5" width="12.0" height="3" fill="#35df39" stroke="#03aa10" /><rect x="508.0" y="192.5" width="12.0" height="3" fill="#ff83f4" stroke="#d002bc" /><rect x="495.0" y="216.5" width="12.0" height="3" fill="#fff874" stroke="#eb9c26" /><rect x="495.0" y="228.5" width="12.0" height="3" fill="#fff874" stroke="#eb9c26" /><rect x="482.0" y="240.5" width="12.0" height="3" fill="#80c9ff" stroke="#0b6cba" /><rect x="495.0" y="264.5" width="12.0" height="3" fill="#fff874" stroke="#eb9c26" /><rect x="482.0" y="289.0" width="12.0" height="3" fill="#80c9ff" stroke="#0b6cba" /><rect x="482.0" y="301.0" width="12.0" height="3" fill="#80c9ff" stroke="#0b6cba" /><rect x="469.0" y="313.0" width="12.0" height="3" fill="#35df39" stroke="#03aa10" /><rect x="469.0" y="325.0" width="12.0" height="3" fill="#35df39" stroke="#03aa10" /><rect x="495.0" y="337.0" width="12.0" height="3" fill="#fff874" stroke="#eb9c26" /><rect x="508.0" y="361.0" width="12.0" height="216.5" fill="#ff83f4" stroke="#d002bc" /><rect x="583.0" y="0.0" width="12.0" height="3" fill="#35df39" stroke="#03aa10" /><rect x="596.0" y="0.0" width="12.0" height="3" fill="#80c9ff" stroke="#0b6cba" /><rect x="570.0" y="96.5" width="12.0" height="3" fill="#ff3c3c" stroke="#c71f1f" /><rect x="583.0" y="192.5" width="12.0" height="3" fill="#35df39" stroke="#03aa10" /><rect x="609.0" y="192.5" width="12.0" height="3" fill="#fff874" stroke="#eb9c26" /><rect x="570.0" y="289.0" width="12.0" height="3" fill="#ff3c3c" stroke="#c71f1f" /><rect x="583.0" y="289.0" width="12.0" height="3" fill="#35df39" stroke="#03aa10" /><rect x="583.0" y="385.0" width="12.0" height="3" fill="#35df39" stroke="#03aa10" /><rect x="596.0" y="385.0" width="12.0" height="3" fill="#80c9ff" stroke="#0b6cba" /><rect x="596.0" y="433.0" width="12.0" height="3" fill="#80c9ff" stroke="#0b6cba" /><rect x="583.0" y="481.5" width="12.0" height="288.5" fill="#35df39" stroke="#03aa10" /><rect x="609.0" y="481.5" width="12.0" height="288.5" fill="#fff874" stroke="#eb9c26" /><rect x="710.0" y="0.0" width="12.0" height="3" fill="#80c9ff" stroke="#0b6cba" /><rect x="723.0" y="0.0" width="12.0" height="3" fill="#fff874" stroke="#eb9c26" /><rect x="710.0" y="96.5" width="12.0" height="3" fill="#80c9ff" stroke="#0b6cba" /><rect x="710.0" y="192.5" width="12.0" height="108.45" fill="#80c9ff" stroke="#0b6cba" /><rect x="736.0" y="192.5" width="12.0" height="108.45" fill="#ff83f4" stroke="#d002bc" /><rect x="723.0" y="313.0" width="12.0" height="3" fill="#fff874" stroke="#eb9c26" /><rect x="736.0" y="313.0" width="12.0" height="3" fill="#ff83f4" stroke="#d002bc" /><rect x="723.0" y="349.0" width="12.0" height="3" fill="#fff874" stroke="#eb9c26" /><rect x="697.0" y="385.0" width="12.0" height="385.0" fill="#35df39" stroke="#03aa10" /><rect x="710.0" y="385.0" width="12.0" height="385.0" fill="#80c9ff" stroke="#0b6cba" /><rect x="798.0" y="0.0" width="12.0" height="3" fill="#ff3c3c" stroke="#c71f1f" /><rect x="824.0" y="0.0" width="12.0" height="3" fill="#80c9ff" stroke="#0b6cba" /><rect x="798.0" y="96.5" width="12.0" height="3" fill="#ff3c3c" stroke="#c71f1f" /><rect x="811.0" y="96.5" width="12.0" height="3" fill="#35df39" stroke="#03aa10" /><rect x="811.0" y="192.5" width="12.0" height="3" fill="#35df39" stroke="#03aa10" /><rect x="837.0" y="192.5" width="12.0" height="3" fill="#fff874" stroke="#eb9c26" /><rect x="811.0" y="265.0" width="12.0" height="3" fill="#35df39" stroke="#03aa10" /><rect x="824.0" y="265.0" width="12.0" height="3" fill="#80c9ff" stroke="#0b6cba" /><rect x="798.0" y="337.0" width="12.0" height="3" fill="#ff3c3c" stroke="#c71f1f" /><rect x="811.0" y="385.0" width="12.0" height="3" fill="#35df39" stroke="#03aa10" /><rect x="824.0" y="385.0" width="12.0" height="3" fill="#80c9ff" stroke="#0b6cba" /><rect x="798.0" y="481.5" width="12.0" height="3" fill="#ff3c3c" stroke="#c71f1f" /><rect x="811.0" y="577.5" width="12.0" height="3" fill="#35df39" stroke="#03aa10" /><rect x="837.0" y="577.5" width="12.0" height="3" fill="#fff874" stroke="#eb9c26" /><rect x="811.0" y="650.0" width="12.0" height="3" fill="#35df39" stroke="#03aa10" /><rect x="824.0" y="650.0" width="12.0" height="3" fill="#80c9ff" stroke="#0b6cba" /><rect x="824.0" y="722.0" width="12.0" height="3" fill="#80c9ff" stroke="#0b6cba" /><rect x="837.0" y="722.0" width="12.0" height="3" fill="#fff874" stroke="#eb9c26" /><rect x="964.0" y="0.0" width="12.0" height="3" fill="#ff83f4" stroke="#d002bc" /><rect x="938.0" y="24.5" width="12.0" height="3" fill="#80c9ff" stroke="#0b6cba" /><rect x="951.0" y="48.5" width="12.0" height="3" fill="#fff874" stroke="#eb9c26" /><rect x="938.0" y="72.5" width="12.0" height="3" fill="#80c9ff" stroke="#0b6cba" /><rect x="938.0" y="84.5" width="12.0" height="3" fill="#80c9ff" stroke="#0b6cba" /><rect x="925.0" y="96.5" width="12.0" height="3" fill="#35df39" stroke="#03aa10" /><rect x="938.0" y="120.5" width="12.0" height="3" fill="#80c9ff" stroke="#0b6cba" /><rect x="951.0" y="144.5" width="12.0" height="3" fill="#fff874" stroke="#eb9c26" /><rect x="925.0" y="168.5" width="12.0" height="3" fill="#35df39" stroke="#03aa10" /><rect x="938.0" y="192.5" width="12.0" height="3" fill="#80c9ff" stroke="#0b6cba" /><rect x="925.0" y="217.0" width="12.0" height="3" fill="#35df39" stroke="#03aa10" /><rect x="925.0" y="229.0" width="12.0" height="3" fill="#35df39" stroke="#03aa10" /><rect x="912.0" y="241.0" width="12.0" height="3" fill="#ff3c3c" stroke="#c71f1f" /><rect x="938.0" y="265.0" width="12.0" height="3" fill="#80c9ff" stroke="#0b6cba" /><rect x="951.0" y="289.0" width="12.0" height="3" fill="#fff874" stroke="#eb9c26" /><rect x="925.0" y="313.0" width="12.0" height="3" fill="#35df39" stroke="#03aa10" /><rect x="938.0" y="337.0" width="12.0" height="3" fill="#80c9ff" stroke="#0b6cba" /><rect x="925.0" y="361.0" width="12.0" height="3" fill="#35df39" stroke="#03aa10" /><rect x="925.0" y="373.0" width="12.0" height="3" fill="#35df39" stroke="#03aa10" /><rect x="912.0" y="385.0" width="12.0" height="3" fill="#ff3c3c" stroke="#c71f1f" /><rect x="925.0" y="409.5" width="12.0" height="3" fill="#35df39" stroke="#03aa10" /><rect x="951.0" y="433.5" width="12.0" height="3" fill="#fff874" stroke="#eb9c26" /><rect x="938.0" y="457.5" width="12.0" height="3" fill="#80c9ff" stroke="#0b6cba" /><rect x="964.0" y="481.5" width="12.0" height="3" fill="#ff83f4" stroke="#d002bc" /><rect x="938.0" y="505.5" width="12.0" height="3" fill="#80c9ff" stroke="#0b6cba" /><rect x="938.0" y="517.5" width="12.0" height="3" fill="#80c9ff" stroke="#0b6cba" /><rect x="951.0" y="529.5" width="12.0" height="3" fill="#fff874" stroke="#eb9c26" /><rect x="964.0" y="553.5" width="12.0" height="3" fill="#ff83f4" stroke="#d002bc" /><rect x="1052.0" y="0.0" width="12.0" height="3" fill="#80c9ff" stroke="#0b6cba" /><rect x="1026.0" y="24.5" width="12.0" height="3" fill="#ff3c3c" stroke="#c71f1f" /><rect x="1039.0" y="48.5" width="12.0" height="3" fill="#35df39" stroke="#03aa10" /><rect x="1052.0" y="72.5" width="12.0" height="3" fill="#80c9ff" stroke="#0b6cba" /><rect x="1039.0" y="96.5" width="12.0" height="3" fill="#35df39" stroke="#03aa10" /><rect x="1065.0" y="120.5" width="12.0" height="3" fill="#fff874" stroke="#eb9c26" /><rect x="1078.0" y="144.5" width="12.0" height="3" fill="#ff83f4" stroke="#d002bc" /><rect x="1065.0" y="168.5" width="12.0" height="3" fill="#fff874" stroke="#eb9c26" /><rect x="1065.0" y="180.5" width="12.0" height="3" fill="#fff874" stroke="#eb9c26" /><rect x="1065.0" y="193.0" width="12.0" height="3" fill="#fff874" stroke="#eb9c26" /><rect x="1052.0" y="217.0" width="12.0" height="3" fill="#80c9ff" stroke="#0b6cba" /><rect x="1039.0" y="241.0" width="12.0" height="3" fill="#35df39" stroke="#03aa10" /><rect x="1052.0" y="265.0" width="12.0" height="3" fill="#80c9ff" stroke="#0b6cba" /><rect x="1039.0" y="289.0" width="12.0" height="3" fill="#35df39" stroke="#03aa10" /><rect x="1026.0" y="313.0" width="12.0" height="3" fill="#ff3c3c" stroke="#c71f1f" /><rect x="1039.0" y="337.0" width="12.0" height="3" fill="#35df39" stroke="#03aa10" /><rect x="1052.0" y="361.0" width="12.0" height="3" fill="#80c9ff" stroke="#0b6cba" /><rect x="1039.0" y="385.5" width="12.0" height="3" fill="#35df39" stroke="#03aa10" /><rect x="1065.0" y="385.5" width="12.0" height="3" fill="#fff874" stroke="#eb9c26" /><rect x="1026.0" y="433.5" width="12.0" height="144.5" fill="#ff3c3c" stroke="#c71f1f" /><rect x="1052.0" y="433.5" width="12.0" height="144.5" fill="#80c9ff" stroke="#0b6cba" /><rect x="1153.0" y="0.0" width="12.0" height="3" fill="#35df39" stroke="#03aa10" /><rect x="1140.0" y="24.0" width="12.0" height="3" fill="#ff3c3c" stroke="#c71f1f" /><rect x="1166.0" y="48.0" width="12.0" height="3" fill="#80c9ff" stroke="#0b6cba" /><rect x="1153.0" y="72.0" width="12.0" height="3" fill="#35df39" stroke="#03aa10" /><rect x="1140.0" y="96.0" width="12.0" height="3" fill="#ff3c3c" stroke="#c71f1f" /><rect x="1153.0" y="120.0" width="12.0" height="3" fill="#35df39" stroke="#03aa10" /><rect x="1140.0" y="144.0" width="12.0" height="3" fill="#ff3c3c" stroke="#c71f1f" /><rect x="1153.0" y="168.0" width="12.0" height="3" fill="#35df39" stroke="#03aa10" /><rect x="1166.0" y="192.5" width="12.0" height="3" fill="#80c9ff" stroke="#0b6cba" /><rect x="1179.0" y="216.5" width="12.0" height="3" fill="#fff874" stroke="#eb9c26" /><rect x="1153.0" y="240.5" width="12.0" height="3" fill="#35df39" stroke="#03aa10" /><rect x="1140.0" y="264.5" width="12.0" height="3" fill="#ff3c3c" stroke="#c71f1f" /><rect x="1166.0" y="288.5" width="12.0" height="3" fill="#80c9ff" stroke="#0b6cba" /><rect x="1153.0" y="312.5" width="12.0" height="3" fill="#35df39" stroke="#03aa10" /><rect x="1166.0" y="336.5" width="12.0" height="3" fill="#80c9ff" stroke="#0b6cba" /><rect x="1153.0" y="360.5" width="12.0" height="3" fill="#35df39" stroke="#03aa10" /><rect x="1140.0" y="385.0" width="12.0" height="3" fill="#ff3c3c" stroke="#c71f1f" /><rect x="1153.0" y="409.0" width="12.0" height="3" fill="#35df39" stroke="#03aa10" /><rect x="1166.0" y="433.0" width="12.0" height="3" fill="#80c9ff" stroke="#0b6cba" /><rect x="1179.0" y="457.0" width="12.0" height="3" fill="#fff874" stroke="#eb9c26" /><rect x="1153.0" y="481.0" width="12.0" height="3" fill="#35df39" stroke="#03aa10" /><rect x="1166.0" y="481.0" width="12.0" height="3" fill="#80c9ff" stroke="#0b6cba" /><rect x="1267.0" y="0.0" width="12.0" height="3" fill="#35df39" stroke="#03aa10" /><rect x="1254.0" y="24.5" width="12.0" height="3" fill="#ff3c3c" stroke="#c71f1f" /><rect x="1280.0" y="48.5" width="12.0" height="3" fill="#80c9ff" stroke="#0b6cba" /><rect x="1267.0" y="72.5" width="12.0" height="3" fill="#35df39" stroke="#03aa10" /><rect x="1254.0" y="96.5" width="12.0" height="3" fill="#ff3c3c" stroke="#c71f1f" /><rect x="1267.0" y="120.5" width="12.0" height="3" fill="#35df39" stroke="#03aa10" /><rect x="1254.0" y="144.5" width="12.0" height="3" fill="#ff3c3c" stroke="#c71f1f" /><rect x="1267.0" y="168.5" width="12.0" height="3" fill="#35df39" stroke="#03aa10" /><rect x="1280.0" y="192.5" width="12.0" height="3" fill="#80c9ff" stroke="#0b6cba" /><rect x="1293.0" y="217.0" width="12.0" height="3" fill="#fff874" stroke="#eb9c26" /><rect x="1306.0" y="241.0" width="12.0" height="3" fill="#ff83f4" stroke="#d002bc" /><rect x="1306.0" y="265.0" width="12.0" height="3" fill="#ff83f4" stroke="#d002bc" /><rect x="1254" y="265.0" width="64" height="3" fill="#ff72e7" stroke="#7c7c7c" /><rect x="1306.0" y="289.0" width="12.0" height="3" fill="#ff83f4" stroke="#d002bc" /><rect x="1293.0" y="313.0" width="12.0" height="3" fill="#fff874" stroke="#eb9c26" /><rect x="1293.0" y="325.0" width="12.0" height="3" fill="#fff874" stroke="#eb9c26" /><rect x="1280.0" y="337.0" width="12.0" height="3" fill="#80c9ff" stroke="#0b6cba" /><rect x="1267.0" y="361.0" width="12.0" height="3" fill="#35df39" stroke="#03aa10" /><rect x="1280.0" y="385.0" width="12.0" height="3" fill="#80c9ff" stroke="#0b6cba" /><rect x="1306.0" y="409.5" width="12.0" height="3" fill="#ff83f4" stroke="#d002bc" /><rect x="1293.0" y="433.5" width="12.0" height="3" fill="#fff874" stroke="#eb9c26" /><rect x="1280.0" y="457.5" width="12.0" height="3" fill="#80c9ff" stroke="#0b6cba" /><rect x="1267.0" y="481.5" width="12.0" height="3" fill="#35df39" stroke="#03aa10" /><rect x="1306.0" y="505.5" width="12.0" height="3" fill="#ff83f4" stroke="#d002bc" /><rect x="1254" y="505.5" width="64" height="3" fill="#ff72e7" stroke="#7c7c7c" /><rect x="1381.0" y="0.0" width="12.0" height="3" fill="#35df39" stroke="#03aa10" /><rect x="1368.0" y="24.0" width="12.0" height="3" fill="#ff3c3c" stroke="#c71f1f" /><rect x="1394.0" y="48.0" width="12.0" height="3" fill="#80c9ff" stroke="#0b6cba" /><rect x="1381.0" y="72.5" width="12.0" height="3" fill="#35df39" stroke="#03aa10" /><rect x="1368.0" y="96.5" width="12.0" height="3" fill="#ff3c3c" stroke="#c71f1f" /><rect x="1381.0" y="120.5" width="12.0" height="3" fill="#35df39" stroke="#03aa10" /><rect x="1368.0" y="144.5" width="12.0" height="3" fill="#ff3c3c" stroke="#c71f1f" /><rect x="1381.0" y="168.5" width="12.0" height="3" fill="#35df39" stroke="#03aa10" /><rect x="1394.0" y="192.5" width="12.0" height="3" fill="#80c9ff" stroke="#0b6cba" /><rect x="1407.0" y="216.5" width="12.0" height="3" fill="#fff874" stroke="#eb9c26" /><rect x="1381.0" y="241.0" width="12.0" height="3" fill="#35df39" stroke="#03aa10" /><rect x="1368.0" y="265.0" width="12.0" height="3" fill="#ff3c3c" stroke="#c71f1f" /><rect x="1394.0" y="289.0" width="12.0" height="3" fill="#80c9ff" stroke="#0b6cba" /><rect x="1381.0" y="313.0" width="12.0" height="3" fill="#35df39" stroke="#03aa10" /><rect x="1394.0" y="337.0" width="12.0" height="3" fill="#80c9ff" stroke="#0b6cba" /><rect x="1381.0" y="361.0" width="12.0" height="3" fill="#35df39" stroke="#03aa10" /><rect x="1368.0" y="385.0" width="12.0" height="3" fill="#ff3c3c" stroke="#c71f1f" /><rect x="1381.0" y="409.0" width="12.0" height="3" fill="#35df39" stroke="#03aa10" /><rect x="1394.0" y="433.5" width="12.0" height="3" fill="#80c9ff" stroke="#0b6cba" /><rect x="1407.0" y="457.5" width="12.0" height="3" fill="#fff874" stroke="#eb9c26" /><rect x="1381.0" y="481.5" width="12.0" height="3" fill="#35df39" stroke="#03aa10" /><rect x="1394.0" y="481.5" width="12.0" height="3" fill="#80c9ff" stroke="#0b6cba" /><rect x="1495.0" y="0.0" width="12.0" height="3" fill="#35df39" stroke="#03aa10" /><rect x="1482.0" y="24.0" width="12.0" height="3" fill="#ff3c3c" stroke="#c71f1f" /><rect x="1508.0" y="48.0" width="12.0" height="3" fill="#80c9ff" stroke="#0b6cba" /><rect x="1495.0" y="72.0" width="12.0" height="3" fill="#35df39" stroke="#03aa10" /><rect x="1482.0" y="96.5" width="12.0" height="3" fill="#ff3c3c" stroke="#c71f1f" /><rect x="1495.0" y="120.5" width="12.0" height="3" fill="#35df39" stroke="#03aa10" /><rect x="1482.0" y="144.5" width="12.0" height="3" fill="#ff3c3c" stroke="#c71f1f" /><rect x="1495.0" y="168.5" width="12.0" height="3" fill="#35df39" stroke="#03aa10" /><rect x="1508.0" y="192.5" width="12.0" height="3" fill="#80c9ff" stroke="#0b6cba" /><rect x="1521.0" y="216.5" width="12.0" height="3" fill="#fff874" stroke="#eb9c26" /><rect x="1534.0" y="240.5" width="12.0" height="3" fill="#ff83f4" stroke="#d002bc" /><rect x="1534.0" y="264.5" width="12.0" height="3" fill="#ff83f4" stroke="#d002bc" /><rect x="1482" y="264.5" width="64" height="3" fill="#ff72e7" stroke="#7c7c7c" /><rect x="1534.0" y="289.0" width="12.0" height="3" fill="#ff83f4" stroke="#d002bc" /><rect x="1521.0" y="313.0" width="12.0" height="3" fill="#fff874" stroke="#eb9c26" /><rect x="1521.0" y="325.0" width="12.0" height="3" fill="#fff874" stroke="#eb9c26" /><rect x="1508.0" y="337.0" width="12.0" height="3" fill="#80c9ff" stroke="#0b6cba" /><rect x="1495.0" y="361.0" width="12.0" height="3" fill="#35df39" stroke="#03aa10" /><rect x="1508.0" y="385.0" width="12.0" height="3" fill="#80c9ff" stroke="#0b6cba" /><rect x="1534.0" y="409.0" width="12.0" height="3" fill="#ff83f4" stroke="#d002bc" /><rect x="1521.0" y="433.0" width="12.0" height="3" fill="#fff874" stroke="#eb9c26" /><rect x="1508.0" y="457.0" width="12.0" height="3" fill="#80c9ff" stroke="#0b6cba" /><rect x="1495.0" y="481.5" width="12.0" height="3" fill="#35df39" stroke="#03aa10" /><rect x="1508.0" y="505.5" width="12.0" height="3" fill="#80c9ff" stroke="#0b6cba" /><rect x="1521.0" y="505.5" width="12.0" height="3" fill="#fff874" stroke="#eb9c26" /><rect x="1482.0" y="577.5" width="12.0" height="3" fill="#ff3c3c" stroke="#c71f1f" /><rect x="1609.0" y="0.0" width="12.0" height="130.05" fill="#35df39" stroke="#03aa10" /><rect x="1622.0" y="0.0" width="12.0" height="130.05" fill="#80c9ff" stroke="#0b6cba" /><rect x="1609.0" y="144.5" width="12.0" height="3" fill="#35df39" stroke="#03aa10" /><rect x="1622.0" y="192.5" width="12.0" height="3" fill="#80c9ff" stroke="#0b6cba" /><rect x="1635.0" y="192.5" width="12.0" height="3" fill="#fff874" stroke="#eb9c26" /><rect x="1622.0" y="289.0" width="12.0" height="3" fill="#80c9ff" stroke="#0b6cba" /><rect x="1648.0" y="289.0" width="12.0" height="3" fill="#ff83f4" stroke="#d002bc" /><rect x="1609.0" y="385.0" width="12.0" height="3" fill="#35df39" stroke="#03aa10" /><rect x="1635.0" y="385.0" width="12.0" height="3" fill="#fff874" stroke="#eb9c26" /><rect x="1609.0" y="457.5" width="12.0" height="3" fill="#35df39" stroke="#03aa10" /><rect x="1622.0" y="457.5" width="12.0" height="3" fill="#80c9ff" stroke="#0b6cba" /><rect x="1596.0" y="529.5" width="12.0" height="3" fill="#ff3c3c" stroke="#c71f1f" /><rect x="1609.0" y="529.5" width="12.0" height="3" fill="#35df39" stroke="#03aa10" /><rect x="1609.0" y="577.5" width="12.0" height="3" fill="#35df39" stroke="#03aa10" /><rect x="1622.0" y="577.5" width="12.0" height="3" fill="#80c9ff" stroke="#0b6cba" /><rect x="1596.0" y="674.0" width="12.0" height="3" fill="#ff3c3c" stroke="#c71f1f" /><rect x="1622.0" y="674.0" width="12.0" height="3" fill="#80c9ff" stroke="#0b6cba" /><rect x="1622.0" y="722.0" width="12.0" height="3" fill="#80c9ff" stroke="#0b6cba" /><rect x="1736.0" y="0.0" width="12.0" height="3" fill="#80c9ff" stroke="#0b6cba" /><rect x="1749.0" y="0.0" width="12.0" height="3" fill="#fff874" stroke="#eb9c26" /><rect x="1736.0" y="96.5" width="12.0" height="3" fill="#80c9ff" stroke="#0b6cba" /><rect x="1762.0" y="96.5" width="12.0" height="3" fill="#ff83f4" stroke="#d002bc" /><rect x="1762.0" y="193.0" width="12.0" height="3" fill="#ff83f4" stroke="#d002bc" /><rect x="1749.0" y="265.0" width="12.0" height="3" fill="#fff874" stroke="#eb9c26" /><rect x="1762.0" y="265.0" width="12.0" height="3" fill="#ff83f4" stroke="#d002bc" /><rect x="1736.0" y="337.0" width="12.0" height="3" fill="#80c9ff" stroke="#0b6cba" /><rect x="1749.0" y="337.0" width="12.0" height="3" fill="#fff874" stroke="#eb9c26" /><rect x="1723.0" y="385.5" width="12.0" height="3" fill="#35df39" stroke="#03aa10" /><rect x="1749.0" y="385.5" width="12.0" height="3" fill="#fff874" stroke="#eb9c26" /><rect x="1723.0" y="457.5" width="12.0" height="238.05" fill="#35df39" stroke="#03aa10" /><rect x="1736.0" y="457.5" width="12.0" height="238.05" fill="#80c9ff" stroke="#0b6cba" /><rect x="1710.0" y="722.0" width="12.0" height="3" fill="#ff3c3c" stroke="#c71f1f" /><rect x="1837.0" y="0.0" width="12.0" height="129.6" fill="#35df39" stroke="#03aa10" /><rect x="1850.0" y="0.0" width="12.0" height="129.6" fill="#80c9ff" stroke="#0b6cba" /><rect x="1837.0" y="144.0" width="12.0" height="3" fill="#35df39" stroke="#03aa10" /><rect x="1850.0" y="192.5" width="12.0" height="3" fill="#80c9ff" stroke="#0b6cba" /><rect x="1863.0" y="192.5" width="12.0" height="3" fill="#fff874" stroke="#eb9c26" /><rect x="1850.0" y="288.5" width="12.0" height="3" fill="#80c9ff" stroke="#0b6cba" /><rect x="1876.0" y="288.5" width="12.0" height="3" fill="#ff83f4" stroke="#d002bc" /><rect x="1837.0" y="385.0" width="12.0" height="3" fill="#35df39" stroke="#03aa10" /><rect x="1863.0" y="385.0" width="12.0" height="3" fill="#fff874" stroke="#eb9c26" /><rect x="1837.0" y="457.0" width="12.0" height="3" fill="#35df39" stroke="#03aa10" /><rect x="1850.0" y="457.0" width="12.0" height="3" fill="#80c9ff" stroke="#0b6cba" /><rect x="1824.0" y="529.0" width="12.0" height="3" fill="#ff3c3c" stroke="#c71f1f" /><rect x="1837.0" y="529.0" width="12.0" height="3" fill="#35df39" stroke="#03aa10" /><rect x="1837.0" y="577.5" width="12.0" height="3" fill="#35df39" stroke="#03aa10" /><rect x="1850.0" y="577.5" width="12.0" height="3" fill="#80c9ff" stroke="#0b6cba" /><rect x="1824.0" y="673.5" width="12.0" height="3" fill="#ff3c3c" stroke="#c71f1f" /><rect x="1850.0" y="673.5" width="12.0" height="3" fill="#80c9ff" stroke="#0b6cba" /><rect x="1850.0" y="721.5" width="12.0" height="3" fill="#80c9ff" stroke="#0b6cba" /><rect x="1964.0" y="0.0" width="12.0" height="346.5" fill="#80c9ff" stroke="#0b6cba" /><rect x="1977.0" y="0.0" width="12.0" height="346.5" fill="#fff874" stroke="#eb9c26" /><rect x="1964.0" y="385.0" width="12.0" height="3" fill="#80c9ff" stroke="#0b6cba" /><rect x="1938.0" y="409.0" width="12.0" height="3" fill="#ff3c3c" stroke="#c71f1f" /><rect x="1938.0" y="433.0" width="12.0" height="3" fill="#ff3c3c" stroke="#c71f1f" /><rect x="1951.0" y="457.0" width="12.0" height="3" fill="#35df39" stroke="#03aa10" /><rect x="1938.0" y="481.0" width="12.0" height="3" fill="#ff3c3c" stroke="#c71f1f" /><rect x="1938.0" y="505.0" width="12.0" height="3" fill="#ff3c3c" stroke="#c71f1f" /><rect x="1964.0" y="529.5" width="12.0" height="3" fill="#80c9ff" stroke="#0b6cba" /><rect x="1938.0" y="553.5" width="12.0" height="3" fill="#ff3c3c" stroke="#c71f1f" /><rect x="1938.0" y="577.5" width="12.0" height="3" fill="#ff3c3c" stroke="#c71f1f" /><rect x="1977.0" y="601.5" width="12.0" height="3" fill="#fff874" stroke="#eb9c26" /><rect x="1990.0" y="625.5" width="12.0" height="3" fill="#ff83f4" stroke="#d002bc" /><rect x="1938" y="625.5" width="64" height="3" fill="#ff72e7" stroke="#7c7c7c" /><rect x="1990.0" y="649.5" width="12.0" height="3" fill="#ff83f4" stroke="#d002bc" /><rect x="1938" y="649.5" width="64" height="3" fill="#ff72e7" stroke="#7c7c7c" /><rect x="1990.0" y="673.5" width="12.0" height="3" fill="#ff83f4" stroke="#d002bc" /><rect x="1990.0" y="697.5" width="12.0" height="3" fill="#ff83f4" stroke="#d002bc" /><rect x="1938" y="697.5" width="64" height="3" fill="#ff72e7" stroke="#7c7c7c" /><rect x="1964.0" y="722.0" width="12.0" height="3" fill="#80c9ff" stroke="#0b6cba" /><rect x="1951.0" y="746.0" width="12.0" height="3" fill="#35df39" stroke="#03aa10" /><rect x="2078.0" y="0.0" width="12.0" height="3" fill="#80c9ff" stroke="#0b6cba" /><rect x="2052.0" y="24.0" width="12.0" height="3" fill="#ff3c3c" stroke="#c71f1f" /><rect x="2052.0" y="48.0" width="12.0" height="3" fill="#ff3c3c" stroke="#c71f1f" /><rect x="2065.0" y="72.0" width="12.0" height="3" fill="#35df39" stroke="#03aa10" /><rect x="2052.0" y="96.0" width="12.0" height="3" fill="#ff3c3c" stroke="#c71f1f" /><rect x="2052.0" y="120.0" width="12.0" height="3" fill="#ff3c3c" stroke="#c71f1f" /><rect x="2078.0" y="144.5" width="12.0" height="3" fill="#80c9ff" stroke="#0b6cba" /><rect x="2052.0" y="168.5" width="12.0" height="3" fill="#ff3c3c" stroke="#c71f1f" /><rect x="2052.0" y="192.5" width="12.0" height="3" fill="#ff3c3c" stroke="#c71f1f" /><rect x="2091.0" y="216.5" width="12.0" height="3" fill="#fff874" stroke="#eb9c26" /><rect x="2104.0" y="240.5" width="12.0" height="3" fill="#ff83f4" stroke="#d002bc" /><rect x="2052" y="240.5" width="64" height="3" fill="#ff72e7" stroke="#7c7c7c" /><rect x="2104.0" y="264.5" width="12.0" height="3" fill="#ff83f4" stroke="#d002bc" /><rect x="2052" y="264.5" width="64" height="3" fill="#ff72e7" stroke="#7c7c7c" /><rect x="2078.0" y="288.5" width="12.0" height="3" fill="#80c9ff" stroke="#0b6cba" /><rect x="2052.0" y="312.5" width="12.0" height="3" fill="#ff3c3c" stroke="#c71f1f" /><rect x="2065.0" y="337.0" width="12.0" height="3" fill="#35df39" stroke="#03aa10" /><rect x="2078.0" y="361.0" width="12.0" height="3" fill="#80c9ff" stroke="#0b6cba" /><rect x="2091.0" y="385.0" width="12.0" height="3" fill="#fff874" stroke="#eb9c26" /><rect x="2078.0" y="409.0" width="12.0" height="3" fill="#80c9ff" stroke="#0b6cba" /><rect x="2065.0" y="433.0" width="12.0" height="3" fill="#35df39" stroke="#03aa10" /><rect x="2091.0" y="457.0" width="12.0" height="3" fill="#fff874" stroke="#eb9c26" /><rect x="2078.0" y="481.0" width="12.0" height="3" fill="#80c9ff" stroke="#0b6cba" /><rect x="2065.0" y="505.0" width="12.0" height="3" fill="#35df39" stroke="#03aa10" /><rect x="2052.0" y="529.5" width="12.0" height="3" fill="#ff3c3c" stroke="#c71f1f" /><rect x="2078.0" y="553.5" width="12.0" height="3" fill="#80c9ff" stroke="#0b6cba" /><rect x="2078.0" y="577.5" width="12.0" height="3" fill="#80c9ff" stroke="#0b6cba" /><rect x="2065.0" y="601.5" width="12.0" height="3" fill="#35df39" stroke="#03aa10" /><rect x="2052.0" y="625.5" width="12.0" height="3" fill="#ff3c3c" stroke="#c71f1f" /><rect x="2078.0" y="649.5" width="12.0" height="3" fill="#80c9ff" stroke="#0b6cba" /><rect x="2091.0" y="673.5" width="12.0" height="3" fill="#fff874" stroke="#eb9c26" /><rect x="2078.0" y="698.0" width="12.0" height="3" fill="#80c9ff" stroke="#0b6cba" /><rect x="2065.0" y="722.0" width="12.0" height="3" fill="#35df39" stroke="#03aa10" /><rect x="2091.0" y="746.0" width="12.0" height="3" fill="#fff874" stroke="#eb9c26" /><rect x="2179.0" y="0.0" width="12.0" height="3" fill="#35df39" stroke="#03aa10" /><rect x="2166.0" y="24.0" width="12.0" height="3" fill="#ff3c3c" stroke="#c71f1f" /><rect x="2192.0" y="48.0" width="12.0" height="3" fill="#80c9ff" stroke="#0b6cba" /><rect x="2179.0" y="72.0" width="12.0" height="3" fill="#35df39" stroke="#03aa10" /><rect x="2166.0" y="96.0" width="12.0" height="3" fill="#ff3c3c" stroke="#c71f1f" /><rect x="2179.0" y="120.5" width="12.0" height="3" fill="#35df39" stroke="#03aa10" /><rect x="2166.0" y="144.5" width="12.0" height="3" fill="#ff3c3c" stroke="#c71f1f" /><rect x="2179.0" y="168.5" width="12.0" height="3" fill="#35df39" stroke="#03aa10" /><rect x="2192.0" y="192.5" width="12.0" height="3" fill="#80c9ff" stroke="#0b6cba" /><rect x="2205.0" y="216.5" width="12.0" height="3" fill="#fff874" stroke="#eb9c26" /><rect x="2218.0" y="240.5" width="12.0" height="3" fill="#ff83f4" stroke="#d002bc" /><rect x="2192.0" y="264.5" width="12.0" height="3" fill="#80c9ff" stroke="#0b6cba" /><rect x="2218.0" y="288.5" width="12.0" height="3" fill="#ff83f4" stroke="#d002bc" /><rect x="2205.0" y="313.0" width="12.0" height="3" fill="#fff874" stroke="#eb9c26" /><rect x="2192.0" y="337.0" width="12.0" height="3" fill="#80c9ff" stroke="#0b6cba" /><rect x="2205.0" y="361.0" width="12.0" height="3" fill="#fff874" stroke="#eb9c26" /><rect x="2179.0" y="385.0" width="12.0" height="3" fill="#35df39" stroke="#03aa10" /><rect x="2192.0" y="409.0" width="12.0" height="3" fill="#80c9ff" stroke="#0b6cba" /><rect x="2179.0" y="433.0" width="12.0" height="3" fill="#35df39" stroke="#03aa10" /><rect x="2166.0" y="457.0" width="12.0" height="3" fill="#ff3c3c" stroke="#c71f1f" /><rect x="2293.0" y="0.0" width="12.0" height="3" fill="#35df39" stroke="#03aa10" /><rect x="2280.0" y="24.5" width="12.0" height="3" fill="#ff3c3c" stroke="#c71f1f" /><rect x="2306.0" y="48.5" width="12.0" height="3" fill="#80c9ff" stroke="#0b6cba" /><rect x="2293.0" y="72.5" width="12.0" height="3" fill="#35df39" stroke="#03aa10" /><rect x="2280.0" y="96.5" width="12.0" height="3" fill="#ff3c3c" stroke="#c71f1f" /><rect x="2293.0" y="120.5" width="12.0" height="3" fill="#35df39" stroke="#03aa10" /><rect x="2280.0" y="144.5" width="12.0" height="3" fill="#ff3c3c" stroke="#c71f1f" /><rect x="2293.0" y="168.5" width="12.0" height="3" fill="#35df39" stroke="#03aa10" /><rect x="2306.0" y="192.5" width="12.0" height="3" fill="#80c9ff" stroke="#0b6cba" /><rect x="2319.0" y="217.0" width="12.0" height="3" fill="#fff874" stroke="#eb9c26" /><rect x="2332.0" y="241.0" width="12.0" height="3" fill="#ff83f4" stroke="#d002bc" /><rect x="2332.0" y="265.0" width="12.0" height="3" fill="#ff83f4" stroke="#d002bc" /><rect x="2280" y="265.0" width="64" height="3" fill="#ff72e7" stroke="#7c7c7c" /><rect x="2319.0" y="289.0" width="12.0" height="3" fill="#fff874" stroke="#eb9c26" /><rect x="2306.0" y="313.0" width="12.0" height="3" fill="#80c9ff" stroke="#0b6cba" /><rect x="2306.0" y="325.0" width="12.0" height="3" fill="#80c9ff" stroke="#0b6cba" /><rect x="2293.0" y="337.0" width="12.0" height="3" fill="#35df39" stroke="#03aa10" /><rect x="2306.0" y="361.0" width="12.0" height="3" fill="#80c9ff" stroke="#0b6cba" /><rect x="2319.0" y="385.5" width="12.0" height="3" fill="#fff874" stroke="#eb9c26" /><rect x="2319.0" y="397.5" width="12.0" height="3" fill="#fff874" stroke="#eb9c26" /><rect x="2306.0" y="409.5" width="12.0" height="3" fill="#80c9ff" stroke="#0b6cba" /><rect x="2306.0" y="421.5" width="12.0" height="3" fill="#80c9ff" stroke="#0b6cba" /><rect x="2319.0" y="433.5" width="12.0" height="3" fill="#fff874" stroke="#eb9c26" /><rect x="2332.0" y="457.5" width="12.0" height="3" fill="#ff83f4" stroke="#d002bc" /><rect x="2319.0" y="481.5" width="12.0" height="3" fill="#fff874" stroke="#eb9c26" /><rect x="2332.0" y="505.5" width="12.0" height="3" fill="#ff83f4" stroke="#d002bc" /><rect x="2280" y="505.5" width="64" height="3" fill="#ff72e7" stroke="#7c7c7c" /><rect x="2407.0" y="0.0" width="12.0" height="3" fill="#35df39" stroke="#03aa10" /><rect x="2394.0" y="24.0" width="12.0" height="3" fill="#ff3c3c" stroke="#c71f1f" /><rect x="2420.0" y="48.5" width="12.0" height="3" fill="#80c9ff" stroke="#0b6cba" /><rect x="2407.0" y="72.5" width="12.0" height="3" fill="#35df39" stroke="#03aa10" /><rect x="2394.0" y="96.5" width="12.0" height="3" fill="#ff3c3c" stroke="#c71f1f" /><rect x="2407.0" y="120.5" width="12.0" height="3" fill="#35df39" stroke="#03aa10" /><rect x="2394.0" y="144.5" width="12.0" height="3" fill="#ff3c3c" stroke="#c71f1f" /><rect x="2407.0" y="168.5" width="12.0" height="3" fill="#35df39" stroke="#03aa10" /><rect x="2420.0" y="192.5" width="12.0" height="3" fill="#80c9ff" stroke="#0b6cba" /><rect x="2433.0" y="216.5" width="12.0" height="3" fill="#fff874" stroke="#eb9c26" /><rect x="2446.0" y="241.0" width="12.0" height="3" fill="#ff83f4" stroke="#d002bc" /><rect x="2420.0" y="265.0" width="12.0" height="3" fill="#80c9ff" stroke="#0b6cba" /><rect x="2446.0" y="289.0" width="12.0" height="3" fill="#ff83f4" stroke="#d002bc" /><rect x="2433.0" y="313.0" width="12.0" height="3" fill="#fff874" stroke="#eb9c26" /><rect x="2420.0" y="337.0" width="12.0" height="3" fill="#80c9ff" stroke="#0b6cba" /><rect x="2433.0" y="361.0" width="12.0" height="3" fill="#fff874" stroke="#eb9c26" /><rect x="2407.0" y="385.0" width="12.0" height="3" fill="#35df39" stroke="#03aa10" /><rect x="2420.0" y="409.0" width="12.0" height="3" fill="#80c9ff" stroke="#0b6cba" /><rect x="2407.0" y="433.5" width="12.0" height="3" fill="#35df39" stroke="#03aa10" /><rect x="2394.0" y="457.5" width="12.0" height="3" fill="#ff3c3c" stroke="#c71f1f" /><rect x="2521.0" y="0.0" width="12.0" height="3" fill="#35df39" stroke="#03aa10" /><rect x="2508.0" y="24.0" width="12.0" height="3" fill="#ff3c3c" stroke="#c71f1f" /><rect x="2534.0" y="48.0" width="12.0" height="3" fill="#80c9ff" stroke="#0b6cba" /><rect x="2521.0" y="72.0" width="12.0" height="3" fill="#35df39" stroke="#03aa10" /><rect x="2508.0" y="96.0" width="12.0" height="3" fill="#ff3c3c" stroke="#c71f1f" /><rect x="2521.0" y="120.0" width="12.0" height="3" fill="#35df39" stroke="#03aa10" /><rect x="2508.0" y="144.5" width="12.0" height="3" fill="#ff3c3c" stroke="#c71f1f" /><rect x="2521.0" y="168.5" width="12.0" height="3" fill="#35df39" stroke="#03aa10" /><rect x="2534.0" y="192.5" width="12.0" height="3" fill="#80c9ff" stroke="#0b6cba" /><rect x="2547.0" y="216.5" width="12.0" height="3" fill="#fff874" stroke="#eb9c26" /><rect x="2560.0" y="240.5" width="12.0" height="3" fill="#ff83f4" stroke="#d002bc" /><rect x="2560.0" y="264.5" width="12.0" height="3" fill="#ff83f4" stroke="#d002bc" /><rect x="2508" y="264.5" width="64" height="3" fill="#ff72e7" stroke="#7c7c7c" /><rect x="2547.0" y="288.5" width="12.0" height="3" fill="#fff874" stroke="#eb9c26" /><rect x="2534.0" y="313.0" width="12.0" height="3" fill="#80c9ff" stroke="#0b6cba" /><rect x="2534.0" y="325.0" width="12.0" height="3" fill="#80c9ff" stroke="#0b6cba" /><rect x="2521.0" y="337.0" width="12.0" height="3" fill="#35df39" stroke="#03aa10" /><rect x="2534.0" y="361.0" width="12.0" height="3" fill="#80c9ff" stroke="#0b6cba" /><rect x="2547.0" y="385.0" width="12.0" height="3" fill="#fff874" stroke="#eb9c26" /><rect x="2547.0" y="397.0" width="12.0" height="3" fill="#fff874" stroke="#eb9c26" /><rect x="2534.0" y="409.0" width="12.0" height="3" fill="#80c9ff" stroke="#0b6cba" /><rect x="2534.0" y="421.0" width="12.0" height="3" fill="#80c9ff" stroke="#0b6cba" /><rect x="2547.0" y="433.0" width="12.0" height="3" fill="#fff874" stroke="#eb9c26" /><rect x="2560.0" y="457.0" width="12.0" height="3" fill="#ff83f4" stroke="#d002bc" /><rect x="2547.0" y="481.0" width="12.0" height="3" fill="#fff874" stroke="#eb9c26" /><rect x="2560.0" y="505.5" width="12.0" height="3" fill="#ff83f4" stroke="#d002bc" /><rect x="2508" y="505.5" width="64" height="3" fill="#ff72e7" stroke="#7c7c7c" /><rect x="2648.0" y="0.0" width="12.0" height="3" fill="#80c9ff" stroke="#0b6cba" /><rect x="2635.0" y="24.0" width="12.0" height="3" fill="#35df39" stroke="#03aa10" /><rect x="2674.0" y="48.0" width="12.0" height="3" fill="#ff83f4" stroke="#d002bc" /><rect x="2661.0" y="72.0" width="12.0" height="3" fill="#fff874" stroke="#eb9c26" /><rect x="2661.0" y="84.0" width="12.0" height="3" fill="#fff874" stroke="#eb9c26" /><rect x="2648.0" y="96.0" width="12.0" height="3" fill="#80c9ff" stroke="#0b6cba" /><rect x="2661.0" y="120.0" width="12.0" height="3" fill="#fff874" stroke="#eb9c26" /><rect x="2648.0" y="144.0" width="12.0" height="3" fill="#80c9ff" stroke="#0b6cba" /><rect x="2648.0" y="156.5" width="12.0" height="3" fill="#80c9ff" stroke="#0b6cba" /><rect x="2635.0" y="168.5" width="12.0" height="3" fill="#35df39" stroke="#03aa10" /><rect x="2635.0" y="180.5" width="12.0" height="3" fill="#35df39" stroke="#03aa10" /><rect x="2661.0" y="192.5" width="12.0" height="3" fill="#fff874" stroke="#eb9c26" /><rect x="2674.0" y="216.5" width="12.0" height="3" fill="#ff83f4" stroke="#d002bc" /><rect x="2674.0" y="288.5" width="12.0" height="3" fill="#ff83f4" stroke="#d002bc" /><rect x="2661.0" y="312.5" width="12.0" height="3" fill="#fff874" stroke="#eb9c26" /><rect x="2648.0" y="336.5" width="12.0" height="3" fill="#80c9ff" stroke="#0b6cba" /><rect x="2674.0" y="361.0" width="12.0" height="3" fill="#ff83f4" stroke="#d002bc" /><rect x="2661.0" y="385.0" width="12.0" height="3" fill="#fff874" stroke="#eb9c26" /><rect x="2648.0" y="409.0" width="12.0" height="3" fill="#80c9ff" stroke="#0b6cba" /><rect x="2661.0" y="433.0" width="12.0" height="3" fill="#fff874" stroke="#eb9c26" /><rect x="2648.0" y="457.0" width="12.0" height="3" fill="#80c9ff" stroke="#0b6cba" /><rect x="2661.0" y="481.0" width="12.0" height="3" fill="#fff874" stroke="#eb9c26" /><rect x="2648.0" y="505.0" width="12.0" height="3" fill="#80c9ff" stroke="#0b6cba" /><rect x="2661.0" y="529.0" width="12.0" height="3" fill="#fff874" stroke="#eb9c26" /><rect x="2648.0" y="553.5" width="12.0" height="3" fill="#80c9ff" stroke="#0b6cba" /><rect x="2635.0" y="577.5" width="12.0" height="3" fill="#35df39" stroke="#03aa10" /><rect x="2661.0" y="601.5" width="12.0" height="3" fill="#fff874" stroke="#eb9c26" /><rect x="2648.0" y="625.5" width="12.0" height="3" fill="#80c9ff" stroke="#0b6cba" /><rect x="2635.0" y="649.5" width="12.0" height="3" fill="#35df39" stroke="#03aa10" /><rect x="2648.0" y="673.5" width="12.0" height="3" fill="#80c9ff" stroke="#0b6cba" /><rect x="2661.0" y="673.5" width="12.0" height="3" fill="#fff874" stroke="#eb9c26" /><rect x="2648.0" y="697.5" width="12.0" height="3" fill="#80c9ff" stroke="#0b6cba" /><rect x="2661.0" y="697.5" width="12.0" height="3" fill="#fff874" stroke="#eb9c26" /></svg>