<?xml version="1.0" encoding="UTF-8"?><svg xmlns="http://www.w3.org/2000/svg" xmlns:xlink="http://www.w3.org/1999/xlink"     width="3094" height="1097.0" viewBox="0 0 3094 1097.0"><defs></defs><rect x="0" y="14.5" width="188" height="1082.5" fill="black" /><rect x="0" y="1096.0" width="188" height="1" fill="white" fill-opacity="0.5" /><text x="198" y="1096.0" font-size="14" fill="white" font-family="monospace" dominant-baseline="initial">1</text><rect x="0" y="1028.5" width="188" height="1" fill="white" fill-opacity="0.2" /><rect x="0" y="960.5" width="188" height="1" fill="white" fill-opacity="0.2" /><rect x="0" y="893.0" width="188" height="1" fill="white" fill-opacity="0.2" /><rect x="0" y="825.5" width="188" height="1" fill="white" fill-opacity="0.5" /><text x="198" y="825.5" font-size="14" fill="white" font-family="monospace" dominant-baseline="initial">2</text><rect x="0" y="757.5" width="188" height="1" fill="white" fill-opacity="0.2" /><rect x="0" y="690.0" width="188" height="1" fill="white" fill-opacity="0.2" /><rect x="0" y="622.5" width="188" height="1" fill="white" fill-opacity="0.2" /><rect x="0" y="554.5" width="188" height="1" fill="white" fill-opacity="0.5" /><text x="198" y="554.5" font-size="14" fill="white" font-family="monospace" dominant-baseline="initial">3</text><rect x="0" y="487.0" width="188" height="1" fill="white" fill-opacity="0.2" /><rect x="0" y="419.5" width="188" height="1" fill="white" fill-opacity="0.2" /><rect x="0" y="351.5" width="188" height="1" fill="white" fill-opacity="0.2" /><rect x="0" y="284.0" width="188" height="1" fill="white" fill-opacity="0.5" /><text x="198" y="284.0" font-size="14" fill="white" font-family="monospace" dominant-baseline="initial">4</text><rect x="0" y="216.5" width="188" height="1" fill="white" fill-opacity="0.2" /><rect x="0" y="148.5" width="188" height="1" fill="white" fill-opacity="0.2" /><rect x="0" y="81.0" width="188" height="1" fill="white" fill-opacity="0.2" /><rect x="0" y="13.5" width="188" height="1" fill="white" fill-opacity="0.5" /><text x="198" y="13.5" font-size="14" fill="white" font-family="monospace" dominant-baseline="initial">5</text><rect x="0" y="1096.0" width="188" height="1" fill="aqua" fill-opacity="0.75" /><text x="0" y="1092.0" font-size="14" fill="aqua" fill-opacity="0.75" font-family="monospace">Intro</text><rect x="0" y="1096.0" width="188" height="1" fill="lime" fill-opacity="0.75" /><text x="198" y="1083.0" font-size="14" fill="lime" font-family="monospace" dominant-baseline="initial">133</text><rect x="238" y="14.0" width="188" height="1083.0" fill="black" /><rect x="238" y="1096.0" width="188" height="1" fill="white" fill-opacity="0.5" /><text x="436" y="1096.0" font-size="14" fill="white" font-family="monospace" dominant-baseline="initial">5</text><rect x="238" y="1028.0" width="188" height="1" fill="white" fill-opacity="0.2" /><rect x="238" y="960.5" width="188" height="1" fill="white" fill-opacity="0.2" /><rect x="238" y="893.0" width="188" height="1" fill="white" fill-opacity="0.2" /><rect x="238" y="825.0" width="188" height="1" fill="white" fill-opacity="0.5" /><text x="436" y="825.0" font-size="14" fill="white" font-family="monospace" dominant-baseline="initial">6</text><rect x="238" y="757.5" width="188" height="1" fill="white" fill-opacity="0.2" /><rect x="238" y="690.0" width="188" height="1" fill="white" fill-opacity="0.2" /><rect x="238" y="622.0" width="188" height="1" fill="white" fill-opacity="0.2" /><rect x="238" y="554.5" width="188" height="1" fill="white" fill-opacity="0.5" /><text x="436" y="554.5" font-size="14" fill="white" font-family="monospace" dominant-baseline="initial">7</text><rect x="238" y="487.0" width="188" height="1" fill="white" fill-opacity="0.2" /><rect x="238" y="419.0" width="188" height="1" fill="white" fill-opacity="0.2" /><rect x="238" y="351.5" width="188" height="1" fill="white" fill-opacity="0.2" /><rect x="238" y="284.0" width="188" height="1" fill="white" fill-opacity="0.5" /><text x="436" y="284.0" font-size="14" fill="white" font-family="monospace" dominant-baseline="initial">8</text><rect x="238" y="216.0" width="188" height="1" fill="white" fill-opacity="0.2" /><rect x="238" y="148.5" width="188" height="1" fill="white" fill-opacity="0.2" /><rect x="238" y="81.0" width="188" height="1" fill="white" fill-opacity="0.2" /><rect x="238" y="13.0" width="188" height="1" fill="white" fill-opacity="0.5" /><text x="436" y="13.0" font-size="14" fill="white" font-family="monospace" dominant-baseline="initial">9</text><rect x="238" y="825.05" width="188" height="1" fill="aqua" fill-opacity="0.75" /><text x="238" y="821.05" font-size="14" fill="aqua" fill-opacity="0.75" font-family="monospace">Phrase A</text><rect x="476" y="14.5" width="188" height="1082.5" fill="black" /><rect x="476" y="1096.0" width="188" height="1" fill="white" fill-opacity="0.5" /><text x="674" y="1096.0" font-size="14" fill="white" font-family="monospace" dominant-baseline="initial">9</text><rect x="476" y="1028.5" width="188" height="1" fill="white" fill-opacity="0.2" /><rect x="476" y="961.0" width="188" height="1" fill="white" fill-opacity="0.2" /><rect x="476" y="893.0" width="188" height="1" fill="white" fill-opacity="0.2" /><rect x="476" y="825.5" width="188" height="1" fill="white" fill-opacity="0.5" /><text x="674" y="825.5" font-size="14" fill="white" font-family="monospace" dominant-baseline="initial">10</text><rect x="476" y="757.5" width="188" height="1" fill="white" fill-opacity="0.2" /><rect x="476" y="690.0" width="188" height="1" fill="white" fill-opacity="0.2" /><rect x="476" y="622.5" width="188" height="1" fill="white" fill-opacity="0.2" /><rect x="476" y="554.5" width="188" height="1" fill="white" fill-opacity="0.5" /><text x="674" y="554.5" font-size="14" fill="white" font-family="monospace" dominant-baseline="initial">11</text><rect x="476" y="487.0" width="188" height="1" fill="white" fill-opacity="0.2" /><rect x="476" y="419.5" width="188" height="1" fill="white" fill-opacity="0.2" /><rect x="476" y="351.5" width="188" height="1" fill="white" fill-opacity="0.2" /><rect x="476" y="284.0" width="188" height="1" fill="white" fill-opacity="0.5" /><text x="674" y="284.0" font-size="14" fill="white" font-family="monospace" dominant-baseline="initial">12</text><rect x="476" y="216.5" width="188" height="1" fill="white" fill-opacity="0.2" /><rect x="476" y="148.5" width="188" height="1" fill="white" fill-opacity="0.2" /><rect x="476" y="81.0" width="188" height="1" fill="white" fill-opacity="0.2" /><rect x="476" y="13.5" width="188" height="1" fill="white" fill-opacity="0.5" /><text x="674" y="13.5" font-size="14" fill="white" font-family="monospace" dominant-baseline="initial">13</text><rect x="714" y="14.0" width="188" height="1083.0" fill="black" /><rect x="714" y="1096.0" width="188" height="1" fill="white" fill-opacity="0.5" /><text x="912" y="1096.0" font-size="14" fill="white" font-family="monospace" dominant-baseline="initial">13</text><rect x="714" y="1028.0" width="188" height="1" fill="white" fill-opacity="0.2" /><rect x="714" y="960.5" width="188" height="1" fill="white" fill-opacity="0.2" /><rect x="714" y="893.0" width="188" height="1" fill="white" fill-opacity="0.2" /><rect x="714" y="825.0" width="188" height="1" fill="white" fill-opacity="0.5" /><text x="912" y="825.0" font-size="14" fill="white" font-family="monospace" dominant-baseline="initial">14</text><rect x="714" y="757.5" width="188" height="1" fill="white" fill-opacity="0.2" /><rect x="714" y="690.0" width="188" height="1" fill="white" fill-opacity="0.2" /><rect x="714" y="622.0" width="188" height="1" fill="white" fill-opacity="0.2" /><rect x="714" y="554.5" width="188" height="1" fill="white" fill-opacity="0.5" /><text x="912" y="554.5" font-size="14" fill="white" font-family="monospace" dominant-baseline="initial">15</text><rect x="714" y="487.0" width="188" height="1" fill="white" fill-opacity="0.2" /><rect x="714" y="419.0" width="188" height="1" fill="white" fill-opacity="0.2" /><rect x="714" y="351.5" width="188" height="1" fill="white" fill-opacity="0.2" /><rect x="714" y="284.0" width="188" height="1" fill="white" fill-opacity="0.5" /><text x="912" y="284.0" font-size="14" fill="white" font-family="monospace" dominant-baseline="initial">16</text><rect x="714" y="216.0" width="188" height="1" fill="white" fill-opacity="0.2" /><rect x="714" y="148.5" width="188" height="1" fill="white" fill-opacity="0.2" /><rect x="714" y="81.0" width="188" height="1" fill="white" fill-opacity="0.2" /><rect x="714" y="13.0" width="188" height="1" fill="white" fill-opacity="0.5" /><text x="912" y="13.0" font-size="14" fill="white" font-family="monospace" dominant-baseline="initial">17</text><rect x="714" y="825.1500000000001" width="188" height="1" fill="aqua" fill-opacity="0.75" /><text x="714" y="821.1500000000001" font-size="14" fill="aqua" fill-opacity="0.75" font-family="monospace">Phrase B</text><rect x="952" y="14.5" width="188" height="1082.5" fill="black" /><rect x="952" y="1096.0" width="188" height="1" fill="white" fill-opacity="0.5" /><text x="1150" y="1096.0" font-size="14" fill="white" font-family="monospace" dominant-baseline="initial">17</text><rect x="952" y="1028.5" width="188" height="1" fill="white" fill-opacity="0.2" /><rect x="952" y="961.0" width="188" height="1" fill="white" fill-opacity="0.2" /><rect x="952" y="893.0" width="188" height="1" fill="white" fill-opacity="0.2" /><rect x="952" y="825.5" width="188" height="1" fill="white" fill-opacity="0.5" /><text x="1150" y="825.5" font-size="14" fill="white" font-family="monospace" dominant-baseline="initial">18</text><rect x="952" y="758.0" width="188" height="1" fill="white" fill-opacity="0.2" /><rect x="952" y="690.0" width="188" height="1" fill="white" fill-opacity="0.2" /><rect x="952" y="622.5" width="188" height="1" fill="white" fill-opacity="0.2" /><rect x="952" y="555.0" width="188" height="1" fill="white" fill-opacity="0.5" /><text x="1150" y="555.0" font-size="14" fill="white" font-family="monospace" dominant-baseline="initial">19</text><rect x="952" y="487.0" width="188" height="1" fill="white" fill-opacity="0.2" /><rect x="952" y="419.5" width="188" height="1" fill="white" fill-opacity="0.2" /><rect x="952" y="352.0" width="188" height="1" fill="white" fill-opacity="0.2" /><rect x="952" y="284.0" width="188" height="1" fill="white" fill-opacity="0.5" /><text x="1150" y="284.0" font-size="14" fill="white" font-family="monospace" dominant-baseline="initial">20</text><rect x="952" y="216.5" width="188" height="1" fill="white" fill-opacity="0.2" /><rect x="952" y="149.0" width="188" height="1" fill="white" fill-opacity="0.2" /><rect x="952" y="81.0" width="188" height="1" fill="white" fill-opacity="0.2" /><rect x="952" y="13.5" width="188" height="1" fill="white" fill-opacity="0.5" /><text x="1150" y="13.5" font-size="14" fill="white" font-family="monospace" dominant-baseline="initial">21</text><rect x="952" y="825.4499999999998" width="188" height="1" fill="aqua" fill-opacity="0.75" /><text x="952" y="821.4499999999998" font-size="14" fill="aqua" fill-opacity="0.75" font-family="monospace">Phrase C</text><rect x="1190" y="14.5" width="188" height="1082.5" fill="black" /><rect x="1190" y="1096.0" width="188" height="1" fill="white" fill-opacity="0.5" /><text x="1388" y="1096.0" font-size="14" fill="white" font-family="monospace" dominant-baseline="initial">21</text><rect x="1190" y="1028.5" width="188" height="1" fill="white" fill-opacity="0.2" /><rect x="1190" y="960.5" width="188" height="1" fill="white" fill-opacity="0.2" /><rect x="1190" y="893.0" width="188" height="1" fill="white" fill-opacity="0.2" /><rect x="1190" y="825.5" width="188" height="1" fill="white" fill-opacity="0.5" /><text x="1388" y="825.5" font-size="14" fill="white" font-family="monospace" dominant-baseline="initial">22</text><rect x="1190" y="757.5" width="188" height="1" fill="white" fill-opacity="0.2" /><rect x="1190" y="690.0" width="188" height="1" fill="white" fill-opacity="0.2" /><rect x="1190" y="622.5" width="188" height="1" fill="white" fill-opacity="0.2" /><rect x="1190" y="554.5" width="188" height="1" fill="white" fill-opacity="0.5" /><text x="1388" y="554.5" font-size="14" fill="white" font-family="monospace" dominant-baseline="initial">23</text><rect x="1190" y="487.0" width="188" height="1" fill="white" fill-opacity="0.2" /><rect x="1190" y="419.5" width="188" height="1" fill="white" fill-opacity="0.2" /><rect x="1190" y="351.5" width="188" height="1" fill="white" fill-opacity="0.2" /><rect x="1190" y="284.0" width="188" height="1" fill="white" fill-opacity="0.5" /><text x="1388" y="284.0" font-size="14" fill="white" font-family="monospace" dominant-baseline="initial">24</text><rect x="1190" y="216.5" width="188" height="1" fill="white" fill-opacity="0.2" /><rect x="1190" y="148.5" width="188" height="1" fill="white" fill-opacity="0.2" /><rect x="1190" y="81.0" width="188" height="1" fill="white" fill-opacity="0.2" /><rect x="1190" y="13.5" width="188" height="1" fill="white" fill-opacity="0.5" /><text x="1388" y="13.5" font-size="14" fill="white" font-family="monospace" dominant-baseline="initial">25</text><rect x="1428" y="14.0" width="188" height="1083.0" fill="black" /><rect x="1428" y="1096.0" width="188" height="1" fill="white" fill-opacity="0.5" /><text x="1626" y="1096.0" font-size="14" fill="white" font-family="monospace" dominant-baseline="initial">25</text><rect x="1428" y="1028.0" width="188" height="1" fill="white" fill-opacity="0.2" /><rect x="1428" y="960.5" width="188" height="1" fill="white" fill-opacity="0.2" /><rect x="1428" y="893.0" width="188" height="1" fill="white" fill-opacity="0.2" /><rect x="1428" y="825.0" width="188" height="1" fill="white" fill-opacity="0.5" /><text x="1626" y="825.0" font-size="14" fill="white" font-family="monospace" dominant-baseline="initial">26</text><rect x="1428" y="757.5" width="188" height="1" fill="white" fill-opacity="0.2" /><rect x="1428" y="690.0" width="188" height="1" fill="white" fill-opacity="0.2" /><rect x="1428" y="622.0" width="188" height="1" fill="white" fill-opacity="0.2" /><rect x="1428" y="554.5" width="188" height="1" fill="white" fill-opacity="0.5" /><text x="1626" y="554.5" font-size="14" fill="white" font-family="monospace" dominant-baseline="initial">27</text><rect x="1428" y="486.5" width="188" height="1" fill="white" fill-opacity="0.2" /><rect x="1428" y="419.0" width="188" height="1" fill="white" fill-opacity="0.2" /><rect x="1428" y="351.5" width="188" height="1" fill="white" fill-opacity="0.2" /><rect x="1428" y="283.5" width="188" height="1" fill="white" fill-opacity="0.5" /><text x="1626" y="283.5" font-size="14" fill="white" font-family="monospace" dominant-baseline="initial">28</text><rect x="1428" y="216.0" width="188" height="1" fill="white" fill-opacity="0.2" /><rect x="1428" y="148.5" width="188" height="1" fill="white" fill-opacity="0.2" /><rect x="1428" y="80.5" width="188" height="1" fill="white" fill-opacity="0.2" /><rect x="1428" y="13.0" width="188" height="1" fill="white" fill-opacity="0.5" /><text x="1626" y="13.0" font-size="14" fill="white" font-family="monospace" dominant-baseline="initial">29</text><rect x="1428" y="825.0500000000002" width="188" height="1" fill="aqua" fill-opacity="0.75" /><text x="1428" y="821.0500000000002" font-size="14" fill="aqua" fill-opacity="0.75" font-family="monospace">Special</text><rect x="1666" y="14.5" width="188" height="1082.5" fill="black" /><rect x="1666" y="1096.0" width="188" height="1" fill="white" fill-opacity="0.5" /><text x="1864" y="1096.0" font-size="14" fill="white" font-family="monospace" dominant-baseline="initial">29</text><rect x="1666" y="1028.5" width="188" height="1" fill="white" fill-opacity="0.2" /><rect x="1666" y="960.5" width="188" height="1" fill="white" fill-opacity="0.2" /><rect x="1666" y="893.0" width="188" height="1" fill="white" fill-opacity="0.2" /><rect x="1666" y="825.5" width="188" height="1" fill="white" fill-opacity="0.5" /><text x="1864" y="825.5" font-size="14" fill="white" font-family="monospace" dominant-baseline="initial">30</text><rect x="1666" y="757.5" width="188" height="1" fill="white" fill-opacity="0.2" /><rect x="1666" y="690.0" width="188" height="1" fill="white" fill-opacity="0.2" /><rect x="1666" y="622.5" width="188" height="1" fill="white" fill-opacity="0.2" /><rect x="1666" y="554.5" width="188" height="1" fill="white" fill-opacity="0.5" /><text x="1864" y="554.5" font-size="14" fill="white" font-family="monospace" dominant-baseline="initial">31</text><rect x="1666" y="487.0" width="188" height="1" fill="white" fill-opacity="0.2" /><rect x="1666" y="419.5" width="188" height="1" fill="white" fill-opacity="0.2" /><rect x="1666" y="351.5" width="188" height="1" fill="white" fill-opacity="0.2" /><rect x="1666" y="284.0" width="188" height="1" fill="white" fill-opacity="0.5" /><text x="1864" y="284.0" font-size="14" fill="white" font-family="monospace" dominant-baseline="initial">32</text><rect x="1666" y="216.5" width="188" height="1" fill="white" fill-opacity="0.2" /><rect x="1666" y="148.5" width="188" height="1" fill="white" fill-opacity="0.2" /><rect x="1666" y="81.0" width="188" height="1" fill="white" fill-opacity="0.2" /><rect x="1666" y="13.5" width="188" height="1" fill="white" fill-opacity="0.5" /><text x="1864" y="13.5" font-size="14" fill="white" font-family="monospace" dominant-baseline="initial">33</text><rect x="1904" y="14.0" width="188" height="1083.0" fill="black" /><rect x="1904" y="1096.0" width="188" height="1" fill="white" fill-opacity="0.5" /><text x="2102" y="1096.0" font-size="14" fill="white" font-family="monospace" dominant-baseline="initial">33</text><rect x="1904" y="1028.0" width="188" height="1" fill="white" fill-opacity="0.2" /><rect x="1904" y="960.5" width="188" height="1" fill="white" fill-opacity="0.2" /><rect x="1904" y="893.0" width="188" height="1" fill="white" fill-opacity="0.2" /><rect x="1904" y="825.0" width="188" height="1" fill="white" fill-opacity="0.5" /><text x="2102" y="825.0" font-size="14" fill="white" font-family="monospace" dominant-baseline="initial">34</text><rect x="1904" y="757.5" width="188" height="1" fill="white" fill-opacity="0.2" /><rect x="1904" y="690.0" width="188" height="1" fill="white" fill-opacity="0.2" /><rect x="1904" y="622.0" width="188" height="1" fill="white" fill-opacity="0.2" /><rect x="1904" y="554.5" width="188" height="1" fill="white" fill-opacity="0.5" /><text x="2102" y="554.5" font-size="14" fill="white" font-family="monospace" dominant-baseline="initial">35</text><rect x="1904" y="487.0" width="188" height="1" fill="white" fill-opacity="0.2" /><rect x="1904" y="419.0" width="188" height="1" fill="white" fill-opacity="0.2" /><rect x="1904" y="351.5" width="188" height="1" fill="white" fill-opacity="0.2" /><rect x="1904" y="284.0" width="188" height="1" fill="white" fill-opacity="0.5" /><text x="2102" y="284.0" font-size="14" fill="white" font-family="monospace" dominant-baseline="initial">36</text><rect x="1904" y="216.0" width="188" height="1" fill="white" fill-opacity="0.2" /><rect x="1904" y="148.5" width="188" height="1" fill="white" fill-opacity="0.2" /><rect x="1904" y="81.0" width="188" height="1" fill="white" fill-opacity="0.2" /><rect x="1904" y="13.0" width="188" height="1" fill="white" fill-opacity="0.5" /><text x="2102" y="13.0" font-size="14" fill="white" font-family="monospace" dominant-baseline="initial">37</text><rect x="1904" y="825.1499999999996" width="188" height="1" fill="aqua" fill-opacity="0.75" /><text x="1904" y="821.1499999999996" font-size="14" fill="aqua" fill-opacity="0.75" font-family="monospace">Special</text><rect x="2142" y="14.5" width="188" height="1082.5" fill="black" /><rect x="2142" y="1096.0" width="188" height="1" fill="white" fill-opacity="0.5" /><text x="2340" y="1096.0" font-size="14" fill="white" font-family="monospace" dominant-baseline="initial">37</text><rect x="2142" y="1028.5" width="188" height="1" fill="white" fill-opacity="0.2" /><rect x="2142" y="961.0" width="188" height="1" fill="white" fill-opacity="0.2" /><rect x="2142" y="893.0" width="188" height="1" fill="white" fill-opacity="0.2" /><rect x="2142" y="825.5" width="188" height="1" fill="white" fill-opacity="0.5" /><text x="2340" y="825.5" font-size="14" fill="white" font-family="monospace" dominant-baseline="initial">38</text><rect x="2142" y="758.0" width="188" height="1" fill="white" fill-opacity="0.2" /><rect x="2142" y="690.0" width="188" height="1" fill="white" fill-opacity="0.2" /><rect x="2142" y="622.5" width="188" height="1" fill="white" fill-opacity="0.2" /><rect x="2142" y="555.0" width="188" height="1" fill="white" fill-opacity="0.5" /><text x="2340" y="555.0" font-size="14" fill="white" font-family="monospace" dominant-baseline="initial">39</text><rect x="2142" y="487.0" width="188" height="1" fill="white" fill-opacity="0.2" /><rect x="2142" y="419.5" width="188" height="1" fill="white" fill-opacity="0.2" /><rect x="2142" y="352.0" width="188" height="1" fill="white" fill-opacity="0.2" /><rect x="2142" y="284.0" width="188" height="1" fill="white" fill-opacity="0.5" /><text x="2340" y="284.0" font-size="14" fill="white" font-family="monospace" dominant-baseline="initial">40</text><rect x="2142" y="216.5" width="188" height="1" fill="white" fill-opacity="0.2" /><rect x="2142" y="149.0" width="188" height="1" fill="white" fill-opacity="0.2" /><rect x="2142" y="81.0" width="188" height="1" fill="white" fill-opacity="0.2" /><rect x="2142" y="13.5" width="188" height="1" fill="white" fill-opacity="0.5" /><text x="2340" y="13.5" font-size="14" fill="white" font-family="monospace" dominant-baseline="initial">41</text><rect x="2380" y="14.0" width="188" height="1083.0" fill="black" /><rect x="2380" y="1096.0" width="188" height="1" fill="white" fill-opacity="0.5" /><text x="2578" y="1096.0" font-size="14" fill="white" font-family="monospace" dominant-baseline="initial">41</text><rect x="2380" y="1028.5" width="188" height="1" fill="white" fill-opacity="0.2" /><rect x="2380" y="960.5" width="188" height="1" fill="white" fill-opacity="0.2" /><rect x="2380" y="893.0" width="188" height="1" fill="white" fill-opacity="0.2" /><rect x="2380" y="825.5" width="188" height="1" fill="white" fill-opacity="0.5" /><text x="2578" y="825.5" font-size="14" fill="white" font-family="monospace" dominant-baseline="initial">42</text><rect x="2380" y="757.5" width="188" height="1" fill="white" fill-opacity="0.2" /><rect x="2380" y="690.0" width="188" height="1" fill="white" fill-opacity="0.2" /><rect x="2380" y="622.5" width="188" height="1" fill="white" fill-opacity="0.2" /><rect x="2380" y="554.5" width="188" height="1" fill="white" fill-opacity="0.5" /><text x="2578" y="554.5" font-size="14" fill="white" font-family="monospace" dominant-baseline="initial">43</text><rect x="2380" y="487.0" width="188" height="1" fill="white" fill-opacity="0.2" /><rect x="2380" y="419.5" width="188" height="1" fill="white" fill-opacity="0.2" /><rect x="2380" y="351.5" width="188" height="1" fill="white" fill-opacity="0.2" /><rect x="2380" y="284.0" width="188" height="1" fill="white" fill-opacity="0.5" /><text x="2578" y="284.0" font-size="14" fill="white" font-family="monospace" dominant-baseline="initial">44</text><rect x="2380" y="216.5" width="188" height="1" fill="white" fill-opacity="0.2" /><rect x="2380" y="148.5" width="188" height="1" fill="white" fill-opacity="0.2" /><rect x="2380" y="81.0" width="188" height="1" fill="white" fill-opacity="0.2" /><rect x="2380" y="13.0" width="188" height="1" fill="white" fill-opacity="0.5" /><text x="2578" y="13.0" font-size="14" fill="white" font-family="monospace" dominant-baseline="initial">45</text><rect x="2380" y="825.25" width="188" height="1" fill="aqua" fill-opacity="0.75" /><text x="2380" y="821.25" font-size="14" fill="aqua" fill-opacity="0.75" font-family="monospace">Solo</text><rect x="2618" y="14.5" width="188" height="1082.5" fill="black" /><rect x="2618" y="1096.0" width="188" height="1" fill="white" fill-opacity="0.5" /><text x="2816" y="1096.0" font-size="14" fill="white" font-family="monospace" dominant-baseline="initial">45</text><rect x="2618" y="1028.5" width="188" height="1" fill="white" fill-opacity="0.2" /><rect x="2618" y="961.0" width="188" height="1" fill="white" fill-opacity="0.2" /><rect x="2618" y="893.0" width="188" height="1" fill="white" fill-opacity="0.2" /><rect x="2618" y="825.5" width="188" height="1" fill="white" fill-opacity="0.5" /><text x="2816" y="825.5" font-size="14" fill="white" font-family="monospace" dominant-baseline="initial">46</text><rect x="2618" y="758.0" width="188" height="1" fill="white" fill-opacity="0.2" /><rect x="2618" y="690.0" width="188" height="1" fill="white" fill-opacity="0.2" /><rect x="2618" y="622.5" width="188" height="1" fill="white" fill-opacity="0.2" /><rect x="2618" y="555.0" width="188" height="1" fill="white" fill-opacity="0.5" /><text x="2816" y="555.0" font-size="14" fill="white" font-family="monospace" dominant-baseline="initial">47</text><rect x="2618" y="487.0" width="188" height="1" fill="white" fill-opacity="0.2" /><rect x="2618" y="419.5" width="188" height="1" fill="white" fill-opacity="0.2" /><rect x="2618" y="352.0" width="188" height="1" fill="white" fill-opacity="0.2" /><rect x="2618" y="284.0" width="188" height="1" fill="white" fill-opacity="0.5" /><text x="2816" y="284.0" font-size="14" fill="white" font-family="monospace" dominant-baseline="initial">48</text><rect x="2618" y="216.5" width="188" height="1" fill="white" fill-opacity="0.2" /><rect x="2618" y="149.0" width="188" height="1" fill="white" fill-opacity="0.2" /><rect x="2618" y="81.0" width="188" height="1" fill="white" fill-opacity="0.2" /><rect x="2618" y="13.5" width="188" height="1" fill="white" fill-opacity="0.5" /><text x="2816" y="13.5" font-size="14" fill="white" font-family="monospace" dominant-baseline="initial">49</text><rect x="2856" y="154.0" width="188" height="943.0" fill="black" /><rect x="2856" y="1096.0" width="188" height="1" fill="white" fill-opacity="0.5" /><text x="3054" y="1096.0" font-size="14" fill="white" font-family="monospace" dominant-baseline="initial">49</text><rect x="2856" y="1028.5" width="188" height="1" fill="white" fill-opacity="0.2" /><rect x="2856" y="960.5" width="188" height="1" fill="white" fill-opacity="0.2" /><rect x="2856" y="893.0" width="188" height="1" fill="white" fill-opacity="0.2" /><rect x="2856" y="825.5" width="188" height="1" fill="white" fill-opacity="0.5" /><text x="3054" y="825.5" font-size="14" fill="white" font-family="monospace" dominant-baseline="initial">50</text><rect x="2856" y="757.5" width="188" height="1" fill="white" fill-opacity="0.2" /><rect x="2856" y="690.0" width="188" height="1" fill="white" fill-opacity="0.2" /><rect x="2856" y="622.5" width="188" height="1" fill="white" fill-opacity="0.2" /><rect x="2856" y="554.5" width="188" height="1" fill="white" fill-opacity="0.5" /><text x="3054" y="554.5" font-size="14" fill="white" font-family="monospace" dominant-baseline="initial">51</text><rect x="2856" y="487.0" width="188" height="1" fill="white" fill-opacity="0.2" /><rect x="2856" y="419.5" width="188" height="1" fill="white" fill-opacity="0.2" /><rect x="2856" y="351.5" width="188" height="1" fill="white" fill-opacity="0.2" /><rect x="2856" y="284.0" width="188" height="1" fill="white" fill-opacity="0.5" /><text x="3054" y="284.0" font-size="14" fill="white" font-family="monospace" dominant-baseline="initial">52</text><rect x="2856" y="825.3500000000004" width="188" height="1" fill="aqua" fill-opacity="0.75" /><text x="2856" y="821.3500000000004" font-size="14" fill="aqua" fill-opacity="0.75" font-family="monospace">Outro</text></svg>