<?xml version="1.0" encoding="UTF-8"?><svg xmlns="http://www.w3.org/2000/svg" xmlns:xlink="http://www.w3.org/1999/xlink"     width="1482" height="1097.0" viewBox="0 0 1482 1097.0"><defs></defs><rect x="0" y="0" width="64" height="1082.5" fill="black" /><rect x="0" y="0.0" width="64" height="1" fill="white" fill-opacity="0.5" /><text x="74" y="14.0" font-size="14" fill="white" font-family="monospace" dominant-baseline="ideographic">1</text><rect x="0" y="67.5" width="64" height="1" fill="white" fill-opacity="0.2" /><rect x="0" y="135.5" width="64" height="1" fill="white" fill-opacity="0.2" /><rect x="0" y="203.0" width="64" height="1" fill="white" fill-opacity="0.2" /><rect x="0" y="270.5" width="64" height="1" fill="white" fill-opacity="0.5" /><text x="74" y="284.5" font-size="14" fill="white" font-family="monospace" dominant-baseline="ideographic">2</text><rect x="0" y="338.5" width="64" height="1" fill="white" fill-opacity="0.2" /><rect x="0" y="406.0" width="64" height="1" fill="white" fill-opacity="0.2" /><rect x="0" y="473.5" width="64" height="1" fill="white" fill-opacity="0.2" /><rect x="0" y="541.5" width="64" height="1" fill="white" fill-opacity="0.5" /><text x="74" y="555.5" font-size="14" fill="white" font-family="monospace" dominant-baseline="ideographic">3</text><rect x="0" y="609.0" width="64" height="1" fill="white" fill-opacity="0.2" /><rect x="0" y="676.5" width="64" height="1" fill="white" fill-opacity="0.2" /><rect x="0" y="744.5" width="64" height="1" fill="white" fill-opacity="0.2" /><rect x="0" y="812.0" width="64" height="1" fill="white" fill-opacity="0.5" /><text x="74" y="826.0" font-size="14" fill="white" font-family="monospace" dominant-baseline="ideographic">4</text><rect x="0" y="879.5" width="64" height="1" fill="white" fill-opacity="0.2" /><rect x="0" y="947.5" width="64" height="1" fill="white" fill-opacity="0.2" /><rect x="0" y="1015.0" width="64" height="1" fill="white" fill-opacity="0.2" /><rect x="0" y="1082.5" width="64" height="1" fill="white" fill-opacity="0.5" /><text x="74" y="1096.5" font-size="14" fill="white" font-family="monospace" dominant-baseline="ideographic">5</text><rect x="0" y="0.0" width="64" height="1" fill="aqua" fill-opacity="0.75" /><text x="0" y="14.0" font-size="14" fill="aqua" fill-opacity="0.75" font-family="monospace">Intro</text><rect x="0" y="0.0" width="64" height="1" fill="lime" fill-opacity="0.75" /><text x="74" y="28.0" font-size="14" fill="lime" font-family="monospace" dominant-baseline="ideographic">133</text><rect x="114" y="0" width="64" height="1083.0" fill="black" /><rect x="114" y="0.0" width="64" height="1" fill="white" fill-opacity="0.5" /><text x="188" y="14.0" font-size="14" fill="white" font-family="monospace" dominant-baseline="ideographic">5</text><rect x="114" y="68.0" width="64" height="1" fill="white" fill-opacity="0.2" /><rect x="114" y="135.5" width="64" height="1" fill="white" fill-opacity="0.2" /><rect x="114" y="203.0" width="64" height="1" fill="white" fill-opacity="0.2" /><rect x="114" y="271.0" width="64" height="1" fill="white" fill-opacity="0.5" /><text x="188" y="285.0" font-size="14" fill="white" font-family="monospace" dominant-baseline="ideographic">6</text><rect x="114" y="338.5" width="64" height="1" fill="white" fill-opacity="0.2" /><rect x="114" y="406.0" width="64" height="1" fill="white" fill-opacity="0.2" /><rect x="114" y="474.0" width="64" height="1" fill="white" fill-opacity="0.2" /><rect x="114" y="541.5" width="64" height="1" fill="white" fill-opacity="0.5" /><text x="188" y="555.5" font-size="14" fill="white" font-family="monospace" dominant-baseline="ideographic">7</text><rect x="114" y="609.0" width="64" height="1" fill="white" fill-opacity="0.2" /><rect x="114" y="677.0" width="64" height="1" fill="white" fill-opacity="0.2" /><rect x="114" y="744.5" width="64" height="1" fill="white" fill-opacity="0.2" /><rect x="114" y="812.0" width="64" height="1" fill="white" fill-opacity="0.5" /><text x="188" y="826.0" font-size="14" fill="white" font-family="monospace" dominant-baseline="ideographic">8</text><rect x="114" y="880.0" width="64" height="1" fill="white" fill-opacity="0.2" /><rect x="114" y="947.5" width="64" height="1" fill="white" fill-opacity="0.2" /><rect x="114" y="1015.0" width="64" height="1" fill="white" fill-opacity="0.2" /><rect x="114" y="1083.0" width="64" height="1" fill="white" fill-opacity="0.5" /><text x="188" y="1097.0" font-size="14" fill="white" font-family="monospace" dominant-baseline="ideographic">9</text><rect x="114" y="270.95000000000005" width="64" height="1" fill="aqua" fill-opacity="0.75" /><text x="114" y="284.95000000000005" font-size="14" fill="aqua" fill-opacity="0.75" font-family="monospace">Phrase A</text><rect x="228" y="0" width="64" height="1082.5" fill="black" /><rect x="228" y="0.0" width="64" height="1" fill="white" fill-opacity="0.5" /><text x="302" y="14.0" font-size="14" fill="white" font-family="monospace" dominant-baseline="ideographic">9</text><rect x="228" y="67.5" width="64" height="1" fill="white" fill-opacity="0.2" /><rect x="228" y="135.0" width="64" height="1" fill="white" fill-opacity="0.2" /><rect x="228" y="203.0" width="64" height="1" fill="white" fill-opacity="0.2" /><rect x="228" y="270.5" width="64" height="1" fill="white" fill-opacity="0.5" /><text x="302" y="284.5" font-size="14" fill="white" font-family="monospace" dominant-baseline="ideographic">10</text><rect x="228" y="338.5" width="64" height="1" fill="white" fill-opacity="0.2" /><rect x="228" y="406.0" width="64" height="1" fill="white" fill-opacity="0.2" /><rect x="228" y="473.5" width="64" height="1" fill="white" fill-opacity="0.2" /><rect x="228" y="541.5" width="64" height="1" fill="white" fill-opacity="0.5" /><text x="302" y="555.5" font-size="14" fill="white" font-family="monospace" dominant-baseline="ideographic">11</text><rect x="228" y="609.0" width="64" height="1" fill="white" fill-opacity="0.2" /><rect x="228" y="676.5" width="64" height="1" fill="white" fill-opacity="0.2" /><rect x="228" y="744.5" width="64" height="1" fill="white" fill-opacity="0.2" /><rect x="228" y="812.0" width="64" height="1" fill="white" fill-opacity="0.5" /><text x="302" y="826.0" font-size="14" fill="white" font-family="monospace" dominant-baseline="ideographic">12</text><rect x="228" y="879.5" width="64" height="1" fill="white" fill-opacity="0.2" /><rect x="228" y="947.5" width="64" height="1" fill="white" fill-opacity="0.2" /><rect x="228" y="1015.0" width="64" height="1" fill="white" fill-opacity="0.2" /><rect x="228" y="1082.5" width="64" height="1" fill="white" fill-opacity="0.5" /><text x="302" y="1096.5" font-size="14" fill="white" font-family="monospace" dominant-baseline="ideographic">13</text><rect x="342" y="0" width="64" height="1083.0" fill="black" /><rect x="342" y="0.0" width="64" height="1" fill="white" fill-opacity="0.5" /><text x="416" y="14.0" font-size="14" fill="white" font-family="monospace" dominant-baseline="ideographic">13</text><rect x="342" y="68.0" width="64" height="1" fill="white" fill-opacity="0.2" /><rect x="342" y="135.5" width="64" height="1" fill="white" fill-opacity="0.2" /><rect x="342" y="203.0" width="64" height="1" fill="white" fill-opacity="0.2" /><rect x="342" y="271.0" width="64" height="1" fill="white" fill-opacity="0.5" /><text x="416" y="285.0" font-size="14" fill="white" font-family="monospace" dominant-baseline="ideographic">14</text><rect x="342" y="338.5" width="64" height="1" fill="white" fill-opacity="0.2" /><rect x="342" y="406.0" width="64" height="1" fill="white" fill-opacity="0.2" /><rect x="342" y="474.0" width="64" height="1" fill="white" fill-opacity="0.2" /><rect x="342" y="541.5" width="64" height="1" fill="white" fill-opacity="0.5" /><text x="416" y="555.5" font-size="14" fill="white" font-family="monospace" dominant-baseline="ideographic">15</text><rect x="342" y="609.0" width="64" height="1" fill="white" fill-opacity="0.2" /><rect x="342" y="677.0" width="64" height="1" fill="white" fill-opacity="0.2" /><rect x="342" y="744.5" width="64" height="1" fill="white" fill-opacity="0.2" /><rect x="342" y="812.0" width="64" height="1" fill="white" fill-opacity="0.5" /><text x="416" y="826.0" font-size="14" fill="white" font-family="monospace" dominant-baseline="ideographic">16</text><rect x="342" y="880.0" width="64" height="1" fill="white" fill-opacity="0.2" /><rect x="342" y="947.5" width="64" height="1" fill="white" fill-opacity="0.2" /><rect x="342" y="1015.0" width="64" height="1" fill="white" fill-opacity="0.2" /><rect x="342" y="1083.0" width="64" height="1" fill="white" fill-opacity="0.5" /><text x="416" y="1097.0" font-size="14" fill="white" font-family="monospace" dominant-baseline="ideographic">17</text><rect x="342" y="270.8499999999999" width="64" height="1" fill="aqua" fill-opacity="0.75" /><text x="342" y="284.8499999999999" font-size="14" fill="aqua" fill-opacity="0.75" font-family="monospace">Phrase B</text><rect x="456" y="0" width="64" height="1082.5" fill="black" /><rect x="456" y="0.0" width="64" height="1" fill="white" fill-opacity="0.5" /><text x="530" y="14.0" font-size="14" fill="white" font-family="monospace" dominant-baseline="ideographic">17</text><rect x="456" y="67.5" width="64" height="1" fill="white" fill-opacity="0.2" /><rect x="456" y="135.0" width="64" height="1" fill="white" fill-opacity="0.2" /><rect x="456" y="203.0" width="64" height="1" fill="white" fill-opacity="0.2" /><rect x="456" y="270.5" width="64" height="1" fill="white" fill-opacity="0.5" /><text x="530" y="284.5" font-size="14" fill="white" font-family="monospace" dominant-baseline="ideographic">18</text><rect x="456" y="338.0" width="64" height="1" fill="white" fill-opacity="0.2" /><rect x="456" y="406.0" width="64" height="1" fill="white" fill-opacity="0.2" /><rect x="456" y="473.5" width="64" height="1" fill="white" fill-opacity="0.2" /><rect x="456" y="541.0" width="64" height="1" fill="white" fill-opacity="0.5" /><text x="530" y="555.0" font-size="14" fill="white" font-family="monospace" dominant-baseline="ideographic">19</text><rect x="456" y="609.0" width="64" height="1" fill="white" fill-opacity="0.2" /><rect x="456" y="676.5" width="64" height="1" fill="white" fill-opacity="0.2" /><rect x="456" y="744.0" width="64" height="1" fill="white" fill-opacity="0.2" /><rect x="456" y="812.0" width="64" height="1" fill="white" fill-opacity="0.5" /><text x="530" y="826.0" font-size="14" fill="white" font-family="monospace" dominant-baseline="ideographic">20</text><rect x="456" y="879.5" width="64" height="1" fill="white" fill-opacity="0.2" /><rect x="456" y="947.0" width="64" height="1" fill="white" fill-opacity="0.2" /><rect x="456" y="1015.0" width="64" height="1" fill="white" fill-opacity="0.2" /><rect x="456" y="1082.5" width="64" height="1" fill="white" fill-opacity="0.5" /><text x="530" y="1096.5" font-size="14" fill="white" font-family="monospace" dominant-baseline="ideographic">21</text><rect x="456" y="270.5500000000002" width="64" height="1" fill="aqua" fill-opacity="0.75" /><text x="456" y="284.5500000000002" font-size="14" fill="aqua" fill-opacity="0.75" font-family="monospace">Phrase C</text><rect x="570" y="0" width="64" height="1082.5" fill="black" /><rect x="570" y="0.0" width="64" height="1" fill="white" fill-opacity="0.5" /><text x="644" y="14.0" font-size="14" fill="white" font-family="monospace" dominant-baseline="ideographic">21</text><rect x="570" y="67.5" width="64" height="1" fill="white" fill-opacity="0.2" /><rect x="570" y="135.5" width="64" height="1" fill="white" fill-opacity="0.2" /><rect x="570" y="203.0" width="64" height="1" fill="white" fill-opacity="0.2" /><rect x="570" y="270.5" width="64" height="1" fill="white" fill-opacity="0.5" /><text x="644" y="284.5" font-size="14" fill="white" font-family="monospace" dominant-baseline="ideographic">22</text><rect x="570" y="338.5" width="64" height="1" fill="white" fill-opacity="0.2" /><rect x="570" y="406.0" width="64" height="1" fill="white" fill-opacity="0.2" /><rect x="570" y="473.5" width="64" height="1" fill="white" fill-opacity="0.2" /><rect x="570" y="541.5" width="64" height="1" fill="white" fill-opacity="0.5" /><text x="644" y="555.5" font-size="14" fill="white" font-family="monospace" dominant-baseline="ideographic">23</text><rect x="570" y="609.0" width="64" height="1" fill="white" fill-opacity="0.2" /><rect x="570" y="676.5" width="64" height="1" fill="white" fill-opacity="0.2" /><rect x="570" y="744.5" width="64" height="1" fill="white" fill-opacity="0.2" /><rect x="570" y="812.0" width="64" height="1" fill="white" fill-opacity="0.5" /><text x="644" y="826.0" font-size="14" fill="white" font-family="monospace" dominant-baseline="ideographic">24</text><rect x="570" y="879.5" width="64" height="1" fill="white" fill-opacity="0.2" /><rect x="570" y="947.5" width="64" height="1" fill="white" fill-opacity="0.2" /><rect x="570" y="1015.0" width="64" height="1" fill="white" fill-opacity="0.2" /><rect x="570" y="1082.5" width="64" height="1" fill="white" fill-opacity="0.5" /><text x="644" y="1096.5" font-size="14" fill="white" font-family="monospace" dominant-baseline="ideographic">25</text><rect x="684" y="0" width="64" height="1083.0" fill="black" /><rect x="684" y="0.0" width="64" height="1" fill="white" fill-opacity="0.5" /><text x="758" y="14.0" font-size="14" fill="white" font-family="monospace" dominant-baseline="ideographic">25</text><rect x="684" y="68.0" width="64" height="1" fill="white" fill-opacity="0.2" /><rect x="684" y="135.5" width="64" height="1" fill="white" fill-opacity="0.2" /><rect x="684" y="203.0" width="64" height="1" fill="white" fill-opacity="0.2" /><rect x="684" y="271.0" width="64" height="1" fill="white" fill-opacity="0.5" /><text x="758" y="285.0" font-size="14" fill="white" font-family="monospace" dominant-baseline="ideographic">26</text><rect x="684" y="338.5" width="64" height="1" fill="white" fill-opacity="0.2" /><rect x="684" y="406.0" width="64" height="1" fill="white" fill-opacity="0.2" /><rect x="684" y="474.0" width="64" height="1" fill="white" fill-opacity="0.2" /><rect x="684" y="541.5" width="64" height="1" fill="white" fill-opacity="0.5" /><text x="758" y="555.5" font-size="14" fill="white" font-family="monospace" dominant-baseline="ideographic">27</text><rect x="684" y="609.5" width="64" height="1" fill="white" fill-opacity="0.2" /><rect x="684" y="677.0" width="64" height="1" fill="white" fill-opacity="0.2" /><rect x="684" y="744.5" width="64" height="1" fill="white" fill-opacity="0.2" /><rect x="684" y="812.5" width="64" height="1" fill="white" fill-opacity="0.5" /><text x="758" y="826.5" font-size="14" fill="white" font-family="monospace" dominant-baseline="ideographic">28</text><rect x="684" y="880.0" width="64" height="1" fill="white" fill-opacity="0.2" /><rect x="684" y="947.5" width="64" height="1" fill="white" fill-opacity="0.2" /><rect x="684" y="1015.5" width="64" height="1" fill="white" fill-opacity="0.2" /><rect x="684" y="1083.0" width="64" height="1" fill="white" fill-opacity="0.5" /><text x="758" y="1097.0" font-size="14" fill="white" font-family="monospace" dominant-baseline="ideographic">29</text><rect x="684" y="270.9499999999998" width="64" height="1" fill="aqua" fill-opacity="0.75" /><text x="684" y="284.9499999999998" font-size="14" fill="aqua" fill-opacity="0.75" font-family="monospace">Special</text><rect x="798" y="0" width="64" height="1082.5" fill="black" /><rect x="798" y="0.0" width="64" height="1" fill="white" fill-opacity="0.5" /><text x="872" y="14.0" font-size="14" fill="white" font-family="monospace" dominant-baseline="ideographic">29</text><rect x="798" y="67.5" width="64" height="1" fill="white" fill-opacity="0.2" /><rect x="798" y="135.5" width="64" height="1" fill="white" fill-opacity="0.2" /><rect x="798" y="203.0" width="64" height="1" fill="white" fill-opacity="0.2" /><rect x="798" y="270.5" width="64" height="1" fill="white" fill-opacity="0.5" /><text x="872" y="284.5" font-size="14" fill="white" font-family="monospace" dominant-baseline="ideographic">30</text><rect x="798" y="338.5" width="64" height="1" fill="white" fill-opacity="0.2" /><rect x="798" y="406.0" width="64" height="1" fill="white" fill-opacity="0.2" /><rect x="798" y="473.5" width="64" height="1" fill="white" fill-opacity="0.2" /><rect x="798" y="541.5" width="64" height="1" fill="white" fill-opacity="0.5" /><text x="872" y="555.5" font-size="14" fill="white" font-family="monospace" dominant-baseline="ideographic">31</text><rect x="798" y="609.0" width="64" height="1" fill="white" fill-opacity="0.2" /><rect x="798" y="676.5" width="64" height="1" fill="white" fill-opacity="0.2" /><rect x="798" y="744.5" width="64" height="1" fill="white" fill-opacity="0.2" /><rect x="798" y="812.0" width="64" height="1" fill="white" fill-opacity="0.5" /><text x="872" y="826.0" font-size="14" fill="white" font-family="monospace" dominant-baseline="ideographic">32</text><rect x="798" y="879.5" width="64" height="1" fill="white" fill-opacity="0.2" /><rect x="798" y="947.5" width="64" height="1" fill="white" fill-opacity="0.2" /><rect x="798" y="1015.0" width="64" height="1" fill="white" fill-opacity="0.2" /><rect x="798" y="1082.5" width="64" height="1" fill="white" fill-opacity="0.5" /><text x="872" y="1096.5" font-size="14" fill="white" font-family="monospace" dominant-baseline="ideographic">33</text><rect x="912" y="0" width="64" height="1083.0" fill="black" /><rect x="912" y="0.0" width="64" height="1" fill="white" fill-opacity="0.5" /><text x="986" y="14.0" font-size="14" fill="white" font-family="monospace" dominant-baseline="ideographic">33</text><rect x="912" y="68.0" width="64" height="1" fill="white" fill-opacity="0.2" /><rect x="912" y="135.5" width="64" height="1" fill="white" fill-opacity="0.2" /><rect x="912" y="203.0" width="64" height="1" fill="white" fill-opacity="0.2" /><rect x="912" y="271.0" width="64" height="1" fill="white" fill-opacity="0.5" /><text x="986" y="285.0" font-size="14" fill="white" font-family="monospace" dominant-baseline="ideographic">34</text><rect x="912" y="338.5" width="64" height="1" fill="white" fill-opacity="0.2" /><rect x="912" y="406.0" width="64" height="1" fill="white" fill-opacity="0.2" /><rect x="912" y="474.0" width="64" height="1" fill="white" fill-opacity="0.2" /><rect x="912" y="541.5" width="64" height="1" fill="white" fill-opacity="0.5" /><text x="986" y="555.5" font-size="14" fill="white" font-family="monospace" dominant-baseline="ideographic">35</text><rect x="912" y="609.0" width="64" height="1" fill="white" fill-opacity="0.2" /><rect x="912" y="677.0" width="64" height="1" fill="white" fill-opacity="0.2" /><rect x="912" y="744.5" width="64" height="1" fill="white" fill-opacity="0.2" /><rect x="912" y="812.0" width="64" height="1" fill="white" fill-opacity="0.5" /><text x="986" y="826.0" font-size="14" fill="white" font-family="monospace" dominant-baseline="ideographic">36</text><rect x="912" y="880.0" width="64" height="1" fill="white" fill-opacity="0.2" /><rect x="912" y="947.5" width="64" height="1" fill="white" fill-opacity="0.2" /><rect x="912" y="1015.0" width="64" height="1" fill="white" fill-opacity="0.2" /><rect x="912" y="1083.0" width="64" height="1" fill="white" fill-opacity="0.5" /><text x="986" y="1097.0" font-size="14" fill="white" font-family="monospace" dominant-baseline="ideographic">37</text><rect x="912" y="270.85000000000036" width="64" height="1" fill="aqua" fill-opacity="0.75" /><text x="912" y="284.85000000000036" font-size="14" fill="aqua" fill-opacity="0.75" font-family="monospace">Special</text><rect x="1026" y="0" width="64" height="1082.5" fill="black" /><rect x="1026" y="0.0" width="64" height="1" fill="white" fill-opacity="0.5" /><text x="1100" y="14.0" font-size="14" fill="white" font-family="monospace" dominant-baseline="ideographic">37</text><rect x="1026" y="67.5" width="64" height="1" fill="white" fill-opacity="0.2" /><rect x="1026" y="135.0" width="64" height="1" fill="white" fill-opacity="0.2" /><rect x="1026" y="203.0" width="64" height="1" fill="white" fill-opacity="0.2" /><rect x="1026" y="270.5" width="64" height="1" fill="white" fill-opacity="0.5" /><text x="1100" y="284.5" font-size="14" fill="white" font-family="monospace" dominant-baseline="ideographic">38</text><rect x="1026" y="338.0" width="64" height="1" fill="white" fill-opacity="0.2" /><rect x="1026" y="406.0" width="64" height="1" fill="white" fill-opacity="0.2" /><rect x="1026" y="473.5" width="64" height="1" fill="white" fill-opacity="0.2" /><rect x="1026" y="541.0" width="64" height="1" fill="white" fill-opacity="0.5" /><text x="1100" y="555.0" font-size="14" fill="white" font-family="monospace" dominant-baseline="ideographic">39</text><rect x="1026" y="609.0" width="64" height="1" fill="white" fill-opacity="0.2" /><rect x="1026" y="676.5" width="64" height="1" fill="white" fill-opacity="0.2" /><rect x="1026" y="744.0" width="64" height="1" fill="white" fill-opacity="0.2" /><rect x="1026" y="812.0" width="64" height="1" fill="white" fill-opacity="0.5" /><text x="1100" y="826.0" font-size="14" fill="white" font-family="monospace" dominant-baseline="ideographic">40</text><rect x="1026" y="879.5" width="64" height="1" fill="white" fill-opacity="0.2" /><rect x="1026" y="947.0" width="64" height="1" fill="white" fill-opacity="0.2" /><rect x="1026" y="1015.0" width="64" height="1" fill="white" fill-opacity="0.2" /><rect x="1026" y="1082.5" width="64" height="1" fill="white" fill-opacity="0.5" /><text x="1100" y="1096.5" font-size="14" fill="white" font-family="monospace" dominant-baseline="ideographic">41</text><rect x="1140" y="0" width="64" height="1083.0" fill="black" /><rect x="1140" y="0.0" width="64" height="1" fill="white" fill-opacity="0.5" /><text x="1214" y="14.0" font-size="14" fill="white" font-family="monospace" dominant-baseline="ideographic">41</text><rect x="1140" y="67.5" width="64" height="1" fill="white" fill-opacity="0.2" /><rect x="1140" y="135.5" width="64" height="1" fill="white" fill-opacity="0.2" /><rect x="1140" y="203.0" width="64" height="1" fill="white" fill-opacity="0.2" /><rect x="1140" y="270.5" width="64" height="1" fill="white" fill-opacity="0.5" /><text x="1214" y="284.5" font-size="14" fill="white" font-family="monospace" dominant-baseline="ideographic">42</text><rect x="1140" y="338.5" width="64" height="1" fill="white" fill-opacity="0.2" /><rect x="1140" y="406.0" width="64" height="1" fill="white" fill-opacity="0.2" /><rect x="1140" y="473.5" width="64" height="1" fill="white" fill-opacity="0.2" /><rect x="1140" y="541.5" width="64" height="1" fill="white" fill-opacity="0.5" /><text x="1214" y="555.5" font-size="14" fill="white" font-family="monospace" dominant-baseline="ideographic">43</text><rect x="1140" y="609.0" width="64" height="1" fill="white" fill-opacity="0.2" /><rect x="1140" y="676.5" width="64" height="1" fill="white" fill-opacity="0.2" /><rect x="1140" y="744.5" width="64" height="1" fill="white" fill-opacity="0.2" /><rect x="1140" y="812.0" width="64" height="1" fill="white" fill-opacity="0.5" /><text x="1214" y="826.0" font-size="14" fill="white" font-family="monospace" dominant-baseline="ideographic">44</text><rect x="1140" y="879.5" width="64" height="1" fill="white" fill-opacity="0.2" /><rect x="1140" y="947.5" width="64" height="1" fill="white" fill-opacity="0.2" /><rect x="1140" y="1015.0" width="64" height="1" fill="white" fill-opacity="0.2" /><rect x="1140" y="1083.0" width="64" height="1" fill="white" fill-opacity="0.5" /><text x="1214" y="1097.0" font-size="14" fill="white" font-family="monospace" dominant-baseline="ideographic">45</text><rect x="1140" y="270.75" width="64" height="1" fill="aqua" fill-opacity="0.75" /><text x="1140" y="284.75" font-size="14" fill="aqua" fill-opacity="0.75" font-family="monospace">Solo</text><rect x="1254" y="0" width="64" height="1082.5" fill="black" /><rect x="1254" y="0.0" width="64" height="1" fill="white" fill-opacity="0.5" /><text x="1328" y="14.0" font-size="14" fill="white" font-family="monospace" dominant-baseline="ideographic">45</text><rect x="1254" y="67.5" width="64" height="1" fill="white" fill-opacity="0.2" /><rect x="1254" y="135.0" width="64" height="1" fill="white" fill-opacity="0.2" /><rect x="1254" y="203.0" width="64" height="1" fill="white" fill-opacity="0.2" /><rect x="1254" y="270.5" width="64" height="1" fill="white" fill-opacity="0.5" /><text x="1328" y="284.5" font-size="14" fill="white" font-family="monospace" dominant-baseline="ideographic">46</text><rect x="1254" y="338.0" width="64" height="1" fill="white" fill-opacity="0.2" /><rect x="1254" y="406.0" width="64" height="1" fill="white" fill-opacity="0.2" /><rect x="1254" y="473.5" width="64" height="1" fill="white" fill-opacity="0.2" /><rect x="1254" y="541.0" width="64" height="1" fill="white" fill-opacity="0.5" /><text x="1328" y="555.0" font-size="14" fill="white" font-family="monospace" dominant-baseline="ideographic">47</text><rect x="1254" y="609.0" width="64" height="1" fill="white" fill-opacity="0.2" /><rect x="1254" y="676.5" width="64" height="1" fill="white" fill-opacity="0.2" /><rect x="1254" y="744.0" width="64" height="1" fill="white" fill-opacity="0.2" /><rect x="1254" y="812.0" width="64" height="1" fill="white" fill-opacity="0.5" /><text x="1328" y="826.0" font-size="14" fill="white" font-family="monospace" dominant-baseline="ideographic">48</text><rect x="1254" y="879.5" width="64" height="1" fill="white" fill-opacity="0.2" /><rect x="1254" y="947.0" width="64" height="1" fill="white" fill-opacity="0.2" /><rect x="1254" y="1015.0" width="64" height="1" fill="white" fill-opacity="0.2" /><rect x="1254" y="1082.5" width="64" height="1" fill="white" fill-opacity="0.5" /><text x="1328" y="1096.5" font-size="14" fill="white" font-family="monospace" dominant-baseline="ideographic">49</text><rect x="1368" y="0" width="64" height="943.0" fill="black" /><rect x="1368" y="0.0" width="64" height="1" fill="white" fill-opacity="0.5" /><text x="1442" y="14.0" font-size="14" fill="white" font-family="monospace" dominant-baseline="ideographic">49</text><rect x="1368" y="67.5" width="64" height="1" fill="white" fill-opacity="0.2" /><rect x="1368" y="135.5" width="64" height="1" fill="white" fill-opacity="0.2" /><rect x="1368" y="203.0" width="64" height="1" fill="white" fill-opacity="0.2" /><rect x="1368" y="270.5" width="64" height="1" fill="white" fill-opacity="0.5" /><text x="1442" y="284.5" font-size="14" fill="white" font-family="monospace" dominant-baseline="ideographic">50</text><rect x="1368" y="338.5" width="64" height="1" fill="white" fill-opacity="0.2" /><rect x="1368" y="406.0" width="64" height="1" fill="white" fill-opacity="0.2" /><rect x="1368" y="473.5" width="64" height="1" fill="white" fill-opacity="0.2" /><rect x="1368" y="541.5" width="64" height="1" fill="white" fill-opacity="0.5" /><text x="1442" y="555.5" font-size="14" fill="white" font-family="monospace" dominant-baseline="ideographic">51</text><rect x="1368" y="609.0" width="64" height="1" fill="white" fill-opacity="0.2" /><rect x="1368" y="676.5" width="64" height="1" fill="white" fill-opacity="0.2" /><rect x="1368" y="744.5" width="64" height="1" fill="white" fill-opacity="0.2" /><rect x="1368" y="812.0" width="64" height="1" fill="white" fill-opacity="0.5" /><text x="1442" y="826.0" font-size="14" fill="white" font-family="monospace" dominant-baseline="ideographic">52</text><rect x="1368" y="270.64999999999964" width="64" height="1" fill="aqua" fill-opacity="0.75" /><text x="1368" y="284.64999999999964" font-size="14" fill="aqua" fill-opacity="0.75" font-family="monospace">Outro</text></svg>