<?xml version="1.0" encoding="UTF-8"?><svg xmlns="http://www.w3.org/2000/svg" xmlns:xlink="http://www.w3.org/1999/xlink"     width="1368" height="1405.0" viewBox="0 0 1368 1405.0"><defs></defs><rect x="0" y="0" width="64" height="1391.0" fill="black" /><rect x="0" y="0.0" width="64" height="1" fill="white" fill-opacity="0.5" /><text x="74" y="14.0" font-size="14" fill="white" font-family="monospace" dominant-baseline="ideographic">1</text><rect x="0" y="41.0" width="64" height="1" fill="white" fill-opacity="0.2" /><rect x="0" y="82.0" width="64" height="1" fill="white" fill-opacity="0.2" /><rect x="0" y="122.5" width="64" height="1" fill="white" fill-opacity="0.2" /><rect x="0" y="163.5" width="64" height="1" fill="white" fill-opacity="0.2" /><rect x="0" y="204.5" width="64" height="1" fill="white" fill-opacity="0.2" /><rect x="0" y="245.5" width="64" height="1" fill="white" fill-opacity="0.2" /><rect x="0" y="286.5" width="64" height="1" fill="white" fill-opacity="0.2" /><rect x="0" y="327.5" width="64" height="1" fill="white" fill-opacity="0.2" /><rect x="0" y="347.5" width="64" height="1" fill="white" fill-opacity="0.5" /><text x="74" y="361.5" font-size="14" fill="white" font-family="monospace" dominant-baseline="ideographic">2</text><rect x="0" y="388.5" width="64" height="1" fill="white" fill-opacity="0.2" /><rect x="0" y="429.5" width="64" height="1" fill="white" fill-opacity="0.2" /><rect x="0" y="470.5" width="64" height="1" fill="white" fill-opacity="0.2" /><rect x="0" y="511.5" width="64" height="1" fill="white" fill-opacity="0.2" /><rect x="0" y="552.5" width="64" height="1" fill="white" fill-opacity="0.2" /><rect x="0" y="593.0" width="64" height="1" fill="white" fill-opacity="0.2" /><rect x="0" y="634.0" width="64" height="1" fill="white" fill-opacity="0.2" /><rect x="0" y="675.0" width="64" height="1" fill="white" fill-opacity="0.2" /><rect x="0" y="695.5" width="64" height="1" fill="white" fill-opacity="0.5" /><text x="74" y="709.5" font-size="14" fill="white" font-family="monospace" dominant-baseline="ideographic">3</text><rect x="0" y="736.5" width="64" height="1" fill="white" fill-opacity="0.2" /><rect x="0" y="777.5" width="64" height="1" fill="white" fill-opacity="0.2" /><rect x="0" y="818.0" width="64" height="1" fill="white" fill-opacity="0.2" /><rect x="0" y="859.0" width="64" height="1" fill="white" fill-opacity="0.2" /><rect x="0" y="900.0" width="64" height="1" fill="white" fill-opacity="0.2" /><rect x="0" y="941.0" width="64" height="1" fill="white" fill-opacity="0.2" /><rect x="0" y="982.0" width="64" height="1" fill="white" fill-opacity="0.2" /><rect x="0" y="1022.5" width="64" height="1" fill="white" fill-opacity="0.2" /><rect x="0" y="1043.0" width="64" height="1" fill="white" fill-opacity="0.5" /><text x="74" y="1057.0" font-size="14" fill="white" font-family="monospace" dominant-baseline="ideographic">4</text><rect x="0" y="1084.0" width="64" height="1" fill="white" fill-opacity="0.2" /><rect x="0" y="1125.0" width="64" height="1" fill="white" fill-opacity="0.2" /><rect x="0" y="1166.0" width="64" height="1" fill="white" fill-opacity="0.2" /><rect x="0" y="1207.0" width="64" height="1" fill="white" fill-opacity="0.2" /><rect x="0" y="1247.5" width="64" height="1" fill="white" fill-opacity="0.2" /><rect x="0" y="1288.5" width="64" height="1" fill="white" fill-opacity="0.2" /><rect x="0" y="1329.5" width="64" height="1" fill="white" fill-opacity="0.2" /><rect x="0" y="1370.5" width="64" height="1" fill="white" fill-opacity="0.2" /><rect x="0" y="1391.0" width="64" height="1" fill="white" fill-opacity="0.5" /><text x="74" y="1405.0" font-size="14" fill="white" font-family="monospace" dominant-baseline="ideographic">5</text><rect x="0" y="0.0" width="64" height="1" fill="aqua" fill-opacity="0.75" /><text x="0" y="14.0" font-size="14" fill="aqua" fill-opacity="0.75" font-family="monospace">Intro</text><rect x="0" y="0.0" width="64" height="1" fill="lime" fill-opacity="0.75" /><text x="74" y="28.0" font-size="14" fill="lime" font-family="monospace" dominant-baseline="ideographic">110</text><rect x="114" y="0" width="64" height="1391.0" fill="black" /><rect x="114" y="0.0" width="64" height="1" fill="white" fill-opacity="0.5" /><text x="188" y="14.0" font-size="14" fill="white" font-family="monospace" dominant-baseline="ideographic">5</text><rect x="114" y="41.0" width="64" height="1" fill="white" fill-opacity="0.2" /><rect x="114" y="81.5" width="64" height="1" fill="white" fill-opacity="0.2" /><rect x="114" y="122.5" width="64" height="1" fill="white" fill-opacity="0.2" /><rect x="114" y="163.5" width="64" height="1" fill="white" fill-opacity="0.2" /><rect x="114" y="204.5" width="64" height="1" fill="white" fill-opacity="0.2" /><rect x="114" y="245.5" width="64" height="1" fill="white" fill-opacity="0.2" /><rect x="114" y="286.5" width="64" height="1" fill="white" fill-opacity="0.2" /><rect x="114" y="327.0" width="64" height="1" fill="white" fill-opacity="0.2" /><rect x="114" y="347.5" width="64" height="1" fill="white" fill-opacity="0.5" /><text x="188" y="361.5" font-size="14" fill="white" font-family="monospace" dominant-baseline="ideographic">6</text><rect x="114" y="388.5" width="64" height="1" fill="white" fill-opacity="0.2" /><rect x="114" y="429.5" width="64" height="1" fill="white" fill-opacity="0.2" /><rect x="114" y="470.5" width="64" height="1" fill="white" fill-opacity="0.2" /><rect x="114" y="511.5" width="64" height="1" fill="white" fill-opacity="0.2" /><rect x="114" y="552.0" width="64" height="1" fill="white" fill-opacity="0.2" /><rect x="114" y="593.0" width="64" height="1" fill="white" fill-opacity="0.2" /><rect x="114" y="634.0" width="64" height="1" fill="white" fill-opacity="0.2" /><rect x="114" y="675.0" width="64" height="1" fill="white" fill-opacity="0.2" /><rect x="114" y="695.5" width="64" height="1" fill="white" fill-opacity="0.5" /><text x="188" y="709.5" font-size="14" fill="white" font-family="monospace" dominant-baseline="ideographic">7</text><rect x="114" y="736.5" width="64" height="1" fill="white" fill-opacity="0.2" /><rect x="114" y="777.0" width="64" height="1" fill="white" fill-opacity="0.2" /><rect x="114" y="818.0" width="64" height="1" fill="white" fill-opacity="0.2" /><rect x="114" y="859.0" width="64" height="1" fill="white" fill-opacity="0.2" /><rect x="114" y="900.0" width="64" height="1" fill="white" fill-opacity="0.2" /><rect x="114" y="941.0" width="64" height="1" fill="white" fill-opacity="0.2" /><rect x="114" y="981.5" width="64" height="1" fill="white" fill-opacity="0.2" /><rect x="114" y="1022.5" width="64" height="1" fill="white" fill-opacity="0.2" /><rect x="114" y="1043.0" width="64" height="1" fill="white" fill-opacity="0.5" /><text x="188" y="1057.0" font-size="14" fill="white" font-family="monospace" dominant-baseline="ideographic">8</text><rect x="114" y="1084.0" width="64" height="1" fill="white" fill-opacity="0.2" /><rect x="114" y="1125.0" width="64" height="1" fill="white" fill-opacity="0.2" /><rect x="114" y="1166.0" width="64" height="1" fill="white" fill-opacity="0.2" /><rect x="114" y="1206.5" width="64" height="1" fill="white" fill-opacity="0.2" /><rect x="114" y="1247.5" width="64" height="1" fill="white" fill-opacity="0.2" /><rect x="114" y="1288.5" width="64" height="1" fill="white" fill-opacity="0.2" /><rect x="114" y="1329.5" width="64" height="1" fill="white" fill-opacity="0.2" /><rect x="114" y="1370.5" width="64" height="1" fill="white" fill-opacity="0.2" /><rect x="114" y="1391.0" width="64" height="1" fill="white" fill-opacity="0.5" /><text x="188" y="1405.0" font-size="14" fill="white" font-family="monospace" dominant-baseline="ideographic">9</text><rect x="114" y="347.64999999999986" width="64" height="1" fill="aqua" fill-opacity="0.75" /><text x="114" y="361.64999999999986" font-size="14" fill="aqua" fill-opacity="0.75" font-family="monospace">Phrase A</text><rect x="228" y="0" width="64" height="1390.5" fill="black" /><rect x="228" y="0.0" width="64" height="1" fill="white" fill-opacity="0.5" /><text x="302" y="14.0" font-size="14" fill="white" font-family="monospace" dominant-baseline="ideographic">9</text><rect x="228" y="40.5" width="64" height="1" fill="white" fill-opacity="0.2" /><rect x="228" y="81.5" width="64" height="1" fill="white" fill-opacity="0.2" /><rect x="228" y="122.5" width="64" height="1" fill="white" fill-opacity="0.2" /><rect x="228" y="163.5" width="64" height="1" fill="white" fill-opacity="0.2" /><rect x="228" y="204.5" width="64" height="1" fill="white" fill-opacity="0.2" /><rect x="228" y="245.5" width="64" height="1" fill="white" fill-opacity="0.2" /><rect x="228" y="286.0" width="64" height="1" fill="white" fill-opacity="0.2" /><rect x="228" y="327.0" width="64" height="1" fill="white" fill-opacity="0.2" /><rect x="228" y="347.5" width="64" height="1" fill="white" fill-opacity="0.5" /><text x="302" y="361.5" font-size="14" fill="white" font-family="monospace" dominant-baseline="ideographic">10</text><rect x="228" y="388.5" width="64" height="1" fill="white" fill-opacity="0.2" /><rect x="228" y="429.5" width="64" height="1" fill="white" fill-opacity="0.2" /><rect x="228" y="470.5" width="64" height="1" fill="white" fill-opacity="0.2" /><rect x="228" y="511.0" width="64" height="1" fill="white" fill-opacity="0.2" /><rect x="228" y="552.0" width="64" height="1" fill="white" fill-opacity="0.2" /><rect x="228" y="593.0" width="64" height="1" fill="white" fill-opacity="0.2" /><rect x="228" y="634.0" width="64" height="1" fill="white" fill-opacity="0.2" /><rect x="228" y="675.0" width="64" height="1" fill="white" fill-opacity="0.2" /><rect x="228" y="695.5" width="64" height="1" fill="white" fill-opacity="0.5" /><text x="302" y="709.5" font-size="14" fill="white" font-family="monospace" dominant-baseline="ideographic">11</text><rect x="228" y="736.0" width="64" height="1" fill="white" fill-opacity="0.2" /><rect x="228" y="777.0" width="64" height="1" fill="white" fill-opacity="0.2" /><rect x="228" y="818.0" width="64" height="1" fill="white" fill-opacity="0.2" /><rect x="228" y="859.0" width="64" height="1" fill="white" fill-opacity="0.2" /><rect x="228" y="900.0" width="64" height="1" fill="white" fill-opacity="0.2" /><rect x="228" y="940.5" width="64" height="1" fill="white" fill-opacity="0.2" /><rect x="228" y="981.5" width="64" height="1" fill="white" fill-opacity="0.2" /><rect x="228" y="1022.5" width="64" height="1" fill="white" fill-opacity="0.2" /><rect x="228" y="1043.0" width="64" height="1" fill="white" fill-opacity="0.5" /><text x="302" y="1057.0" font-size="14" fill="white" font-family="monospace" dominant-baseline="ideographic">12</text><rect x="228" y="1084.0" width="64" height="1" fill="white" fill-opacity="0.2" /><rect x="228" y="1125.0" width="64" height="1" fill="white" fill-opacity="0.2" /><rect x="228" y="1165.5" width="64" height="1" fill="white" fill-opacity="0.2" /><rect x="228" y="1206.5" width="64" height="1" fill="white" fill-opacity="0.2" /><rect x="228" y="1247.5" width="64" height="1" fill="white" fill-opacity="0.2" /><rect x="228" y="1288.5" width="64" height="1" fill="white" fill-opacity="0.2" /><rect x="228" y="1329.5" width="64" height="1" fill="white" fill-opacity="0.2" /><rect x="228" y="1370.5" width="64" height="1" fill="white" fill-opacity="0.2" /><rect x="228" y="1390.5" width="64" height="1" fill="white" fill-opacity="0.5" /><text x="302" y="1404.5" font-size="14" fill="white" font-family="monospace" dominant-baseline="ideographic">13</text><rect x="228" y="347.5999999999999" width="64" height="1" fill="aqua" fill-opacity="0.75" /><text x="228" y="361.5999999999999" font-size="14" fill="aqua" fill-opacity="0.75" font-family="monospace">Phrase B</text><rect x="342" y="0" width="64" height="1391.0" fill="black" /><rect x="342" y="0.0" width="64" height="1" fill="white" fill-opacity="0.5" /><text x="416" y="14.0" font-size="14" fill="white" font-family="monospace" dominant-baseline="ideographic">13</text><rect x="342" y="41.0" width="64" height="1" fill="white" fill-opacity="0.2" /><rect x="342" y="82.0" width="64" height="1" fill="white" fill-opacity="0.2" /><rect x="342" y="123.0" width="64" height="1" fill="white" fill-opacity="0.2" /><rect x="342" y="164.0" width="64" height="1" fill="white" fill-opacity="0.2" /><rect x="342" y="205.0" width="64" height="1" fill="white" fill-opacity="0.2" /><rect x="342" y="245.5" width="64" height="1" fill="white" fill-opacity="0.2" /><rect x="342" y="286.5" width="64" height="1" fill="white" fill-opacity="0.2" /><rect x="342" y="327.5" width="64" height="1" fill="white" fill-opacity="0.2" /><rect x="342" y="348.0" width="64" height="1" fill="white" fill-opacity="0.5" /><text x="416" y="362.0" font-size="14" fill="white" font-family="monospace" dominant-baseline="ideographic">14</text><rect x="342" y="389.0" width="64" height="1" fill="white" fill-opacity="0.2" /><rect x="342" y="430.0" width="64" height="1" fill="white" fill-opacity="0.2" /><rect x="342" y="470.5" width="64" height="1" fill="white" fill-opacity="0.2" /><rect x="342" y="511.5" width="64" height="1" fill="white" fill-opacity="0.2" /><rect x="342" y="552.5" width="64" height="1" fill="white" fill-opacity="0.2" /><rect x="342" y="593.5" width="64" height="1" fill="white" fill-opacity="0.2" /><rect x="342" y="634.5" width="64" height="1" fill="white" fill-opacity="0.2" /><rect x="342" y="675.0" width="64" height="1" fill="white" fill-opacity="0.2" /><rect x="342" y="695.5" width="64" height="1" fill="white" fill-opacity="0.5" /><text x="416" y="709.5" font-size="14" fill="white" font-family="monospace" dominant-baseline="ideographic">15</text><rect x="342" y="736.5" width="64" height="1" fill="white" fill-opacity="0.2" /><rect x="342" y="777.5" width="64" height="1" fill="white" fill-opacity="0.2" /><rect x="342" y="818.5" width="64" height="1" fill="white" fill-opacity="0.2" /><rect x="342" y="859.5" width="64" height="1" fill="white" fill-opacity="0.2" /><rect x="342" y="900.0" width="64" height="1" fill="white" fill-opacity="0.2" /><rect x="342" y="941.0" width="64" height="1" fill="white" fill-opacity="0.2" /><rect x="342" y="982.0" width="64" height="1" fill="white" fill-opacity="0.2" /><rect x="342" y="1023.0" width="64" height="1" fill="white" fill-opacity="0.2" /><rect x="342" y="1043.5" width="64" height="1" fill="white" fill-opacity="0.5" /><text x="416" y="1057.5" font-size="14" fill="white" font-family="monospace" dominant-baseline="ideographic">16</text><rect x="342" y="1084.5" width="64" height="1" fill="white" fill-opacity="0.2" /><rect x="342" y="1125.0" width="64" height="1" fill="white" fill-opacity="0.2" /><rect x="342" y="1166.0" width="64" height="1" fill="white" fill-opacity="0.2" /><rect x="342" y="1207.0" width="64" height="1" fill="white" fill-opacity="0.2" /><rect x="342" y="1248.0" width="64" height="1" fill="white" fill-opacity="0.2" /><rect x="342" y="1289.0" width="64" height="1" fill="white" fill-opacity="0.2" /><rect x="342" y="1330.0" width="64" height="1" fill="white" fill-opacity="0.2" /><rect x="342" y="1370.5" width="64" height="1" fill="white" fill-opacity="0.2" /><rect x="342" y="1391.0" width="64" height="1" fill="white" fill-opacity="0.5" /><text x="416" y="1405.0" font-size="14" fill="white" font-family="monospace" dominant-baseline="ideographic">17</text><rect x="342" y="347.89999999999964" width="64" height="1" fill="aqua" fill-opacity="0.75" /><text x="342" y="361.89999999999964" font-size="14" fill="aqua" fill-opacity="0.75" font-family="monospace">Phrase C</text><rect x="456" y="0" width="64" height="1391.0" fill="black" /><rect x="456" y="0.0" width="64" height="1" fill="white" fill-opacity="0.5" /><text x="530" y="14.0" font-size="14" fill="white" font-family="monospace" dominant-baseline="ideographic">17</text><rect x="456" y="41.0" width="64" height="1" fill="white" fill-opacity="0.2" /><rect x="456" y="82.0" width="64" height="1" fill="white" fill-opacity="0.2" /><rect x="456" y="123.0" width="64" height="1" fill="white" fill-opacity="0.2" /><rect x="456" y="164.0" width="64" height="1" fill="white" fill-opacity="0.2" /><rect x="456" y="204.5" width="64" height="1" fill="white" fill-opacity="0.2" /><rect x="456" y="245.5" width="64" height="1" fill="white" fill-opacity="0.2" /><rect x="456" y="286.5" width="64" height="1" fill="white" fill-opacity="0.2" /><rect x="456" y="327.5" width="64" height="1" fill="white" fill-opacity="0.2" /><rect x="456" y="348.0" width="64" height="1" fill="white" fill-opacity="0.5" /><text x="530" y="362.0" font-size="14" fill="white" font-family="monospace" dominant-baseline="ideographic">18</text><rect x="456" y="389.0" width="64" height="1" fill="white" fill-opacity="0.2" /><rect x="456" y="429.5" width="64" height="1" fill="white" fill-opacity="0.2" /><rect x="456" y="470.5" width="64" height="1" fill="white" fill-opacity="0.2" /><rect x="456" y="511.5" width="64" height="1" fill="white" fill-opacity="0.2" /><rect x="456" y="552.5" width="64" height="1" fill="white" fill-opacity="0.2" /><rect x="456" y="593.5" width="64" height="1" fill="white" fill-opacity="0.2" /><rect x="456" y="634.0" width="64" height="1" fill="white" fill-opacity="0.2" /><rect x="456" y="675.0" width="64" height="1" fill="white" fill-opacity="0.2" /><rect x="456" y="695.5" width="64" height="1" fill="white" fill-opacity="0.5" /><text x="530" y="709.5" font-size="14" fill="white" font-family="monospace" dominant-baseline="ideographic">19</text><rect x="456" y="736.5" width="64" height="1" fill="white" fill-opacity="0.2" /><rect x="456" y="777.5" width="64" height="1" fill="white" fill-opacity="0.2" /><rect x="456" y="818.5" width="64" height="1" fill="white" fill-opacity="0.2" /><rect x="456" y="859.0" width="64" height="1" fill="white" fill-opacity="0.2" /><rect x="456" y="900.0" width="64" height="1" fill="white" fill-opacity="0.2" /><rect x="456" y="941.0" width="64" height="1" fill="white" fill-opacity="0.2" /><rect x="456" y="982.0" width="64" height="1" fill="white" fill-opacity="0.2" /><rect x="456" y="1023.0" width="64" height="1" fill="white" fill-opacity="0.2" /><rect x="456" y="1043.5" width="64" height="1" fill="white" fill-opacity="0.5" /><text x="530" y="1057.5" font-size="14" fill="white" font-family="monospace" dominant-baseline="ideographic">20</text><rect x="456" y="1084.0" width="64" height="1" fill="white" fill-opacity="0.2" /><rect x="456" y="1125.0" width="64" height="1" fill="white" fill-opacity="0.2" /><rect x="456" y="1166.0" width="64" height="1" fill="white" fill-opacity="0.2" /><rect x="456" y="1207.0" width="64" height="1" fill="white" fill-opacity="0.2" /><rect x="456" y="1248.0" width="64" height="1" fill="white" fill-opacity="0.2" /><rect x="456" y="1289.0" width="64" height="1" fill="white" fill-opacity="0.2" /><rect x="456" y="1329.5" width="64" height="1" fill="white" fill-opacity="0.2" /><rect x="456" y="1370.5" width="64" height="1" fill="white" fill-opacity="0.2" /><rect x="456" y="1391.0" width="64" height="1" fill="white" fill-opacity="0.5" /><text x="530" y="1405.0" font-size="14" fill="white" font-family="monospace" dominant-baseline="ideographic">21</text><rect x="456" y="347.84999999999945" width="64" height="1" fill="aqua" fill-opacity="0.75" /><text x="456" y="361.84999999999945" font-size="14" fill="aqua" fill-opacity="0.75" font-family="monospace">Phrase B</text><rect x="570" y="0" width="64" height="1391.0" fill="black" /><rect x="570" y="0.0" width="64" height="1" fill="white" fill-opacity="0.5" /><text x="644" y="14.0" font-size="14" fill="white" font-family="monospace" dominant-baseline="ideographic">21</text><rect x="570" y="41.0" width="64" height="1" fill="white" fill-opacity="0.2" /><rect x="570" y="82.0" width="64" height="1" fill="white" fill-opacity="0.2" /><rect x="570" y="123.0" width="64" height="1" fill="white" fill-opacity="0.2" /><rect x="570" y="163.5" width="64" height="1" fill="white" fill-opacity="0.2" /><rect x="570" y="204.5" width="64" height="1" fill="white" fill-opacity="0.2" /><rect x="570" y="245.5" width="64" height="1" fill="white" fill-opacity="0.2" /><rect x="570" y="286.5" width="64" height="1" fill="white" fill-opacity="0.2" /><rect x="570" y="327.5" width="64" height="1" fill="white" fill-opacity="0.2" /><rect x="570" y="348.0" width="64" height="1" fill="white" fill-opacity="0.5" /><text x="644" y="362.0" font-size="14" fill="white" font-family="monospace" dominant-baseline="ideographic">22</text><rect x="570" y="388.5" width="64" height="1" fill="white" fill-opacity="0.2" /><rect x="570" y="429.5" width="64" height="1" fill="white" fill-opacity="0.2" /><rect x="570" y="470.5" width="64" height="1" fill="white" fill-opacity="0.2" /><rect x="570" y="511.5" width="64" height="1" fill="white" fill-opacity="0.2" /><rect x="570" y="552.5" width="64" height="1" fill="white" fill-opacity="0.2" /><rect x="570" y="593.0" width="64" height="1" fill="white" fill-opacity="0.2" /><rect x="570" y="634.0" width="64" height="1" fill="white" fill-opacity="0.2" /><rect x="570" y="675.0" width="64" height="1" fill="white" fill-opacity="0.2" /><rect x="570" y="695.5" width="64" height="1" fill="white" fill-opacity="0.5" /><text x="644" y="709.5" font-size="14" fill="white" font-family="monospace" dominant-baseline="ideographic">23</text><rect x="570" y="736.5" width="64" height="1" fill="white" fill-opacity="0.2" /><rect x="570" y="777.5" width="64" height="1" fill="white" fill-opacity="0.2" /><rect x="570" y="818.0" width="64" height="1" fill="white" fill-opacity="0.2" /><rect x="570" y="859.0" width="64" height="1" fill="white" fill-opacity="0.2" /><rect x="570" y="900.0" width="64" height="1" fill="white" fill-opacity="0.2" /><rect x="570" y="941.0" width="64" height="1" fill="white" fill-opacity="0.2" /><rect x="570" y="982.0" width="64" height="1" fill="white" fill-opacity="0.2" /><rect x="570" y="1023.0" width="64" height="1" fill="white" fill-opacity="0.2" /><rect x="570" y="1043.0" width="64" height="1" fill="white" fill-opacity="0.5" /><text x="644" y="1057.0" font-size="14" fill="white" font-family="monospace" dominant-baseline="ideographic">24</text><rect x="570" y="1084.0" width="64" height="1" fill="white" fill-opacity="0.2" /><rect x="570" y="1125.0" width="64" height="1" fill="white" fill-opacity="0.2" /><rect x="570" y="1166.0" width="64" height="1" fill="white" fill-opacity="0.2" /><rect x="570" y="1207.0" width="64" height="1" fill="white" fill-opacity="0.2" /><rect x="570" y="1248.0" width="64" height="1" fill="white" fill-opacity="0.2" /><rect x="570" y="1288.5" width="64" height="1" fill="white" fill-opacity="0.2" /><rect x="570" y="1329.5" width="64" height="1" fill="white" fill-opacity="0.2" /><rect x="570" y="1370.5" width="64" height="1" fill="white" fill-opacity="0.2" /><rect x="570" y="1391.0" width="64" height="1" fill="white" fill-opacity="0.5" /><text x="644" y="1405.0" font-size="14" fill="white" font-family="monospace" dominant-baseline="ideographic">25</text><rect x="570" y="347.7999999999993" width="64" height="1" fill="aqua" fill-opacity="0.75" /><text x="570" y="361.7999999999993" font-size="14" fill="aqua" fill-opacity="0.75" font-family="monospace">Special</text><rect x="684" y="0" width="64" height="1391.0" fill="black" /><rect x="684" y="0.0" width="64" height="1" fill="white" fill-opacity="0.5" /><text x="758" y="14.0" font-size="14" fill="white" font-family="monospace" dominant-baseline="ideographic">25</text><rect x="684" y="41.0" width="64" height="1" fill="white" fill-opacity="0.2" /><rect x="684" y="82.0" width="64" height="1" fill="white" fill-opacity="0.2" /><rect x="684" y="122.5" width="64" height="1" fill="white" fill-opacity="0.2" /><rect x="684" y="163.5" width="64" height="1" fill="white" fill-opacity="0.2" /><rect x="684" y="204.5" width="64" height="1" fill="white" fill-opacity="0.2" /><rect x="684" y="245.5" width="64" height="1" fill="white" fill-opacity="0.2" /><rect x="684" y="286.5" width="64" height="1" fill="white" fill-opacity="0.2" /><rect x="684" y="327.0" width="64" height="1" fill="white" fill-opacity="0.2" /><rect x="684" y="347.5" width="64" height="1" fill="white" fill-opacity="0.5" /><text x="758" y="361.5" font-size="14" fill="white" font-family="monospace" dominant-baseline="ideographic">26</text><rect x="684" y="388.5" width="64" height="1" fill="white" fill-opacity="0.2" /><rect x="684" y="429.5" width="64" height="1" fill="white" fill-opacity="0.2" /><rect x="684" y="470.5" width="64" height="1" fill="white" fill-opacity="0.2" /><rect x="684" y="511.5" width="64" height="1" fill="white" fill-opacity="0.2" /><rect x="684" y="552.0" width="64" height="1" fill="white" fill-opacity="0.2" /><rect x="684" y="593.0" width="64" height="1" fill="white" fill-opacity="0.2" /><rect x="684" y="634.0" width="64" height="1" fill="white" fill-opacity="0.2" /><rect x="684" y="675.0" width="64" height="1" fill="white" fill-opacity="0.2" /><rect x="684" y="695.5" width="64" height="1" fill="white" fill-opacity="0.5" /><text x="758" y="709.5" font-size="14" fill="white" font-family="monospace" dominant-baseline="ideographic">27</text><rect x="684" y="736.5" width="64" height="1" fill="white" fill-opacity="0.2" /><rect x="684" y="777.0" width="64" height="1" fill="white" fill-opacity="0.2" /><rect x="684" y="818.0" width="64" height="1" fill="white" fill-opacity="0.2" /><rect x="684" y="859.0" width="64" height="1" fill="white" fill-opacity="0.2" /><rect x="684" y="900.0" width="64" height="1" fill="white" fill-opacity="0.2" /><rect x="684" y="941.0" width="64" height="1" fill="white" fill-opacity="0.2" /><rect x="684" y="982.0" width="64" height="1" fill="white" fill-opacity="0.2" /><rect x="684" y="1022.5" width="64" height="1" fill="white" fill-opacity="0.2" /><rect x="684" y="1043.0" width="64" height="1" fill="white" fill-opacity="0.5" /><text x="758" y="1057.0" font-size="14" fill="white" font-family="monospace" dominant-baseline="ideographic">28</text><rect x="684" y="1084.0" width="64" height="1" fill="white" fill-opacity="0.2" /><rect x="684" y="1125.0" width="64" height="1" fill="white" fill-opacity="0.2" /><rect x="684" y="1166.0" width="64" height="1" fill="white" fill-opacity="0.2" /><rect x="684" y="1207.0" width="64" height="1" fill="white" fill-opacity="0.2" /><rect x="684" y="1247.5" width="64" height="1" fill="white" fill-opacity="0.2" /><rect x="684" y="1288.5" width="64" height="1" fill="white" fill-opacity="0.2" /><rect x="684" y="1329.5" width="64" height="1" fill="white" fill-opacity="0.2" /><rect x="684" y="1370.5" width="64" height="1" fill="white" fill-opacity="0.2" /><rect x="684" y="1391.0" width="64" height="1" fill="white" fill-opacity="0.5" /><text x="758" y="1405.0" font-size="14" fill="white" font-family="monospace" dominant-baseline="ideographic">29</text><rect x="798" y="0" width="64" height="1391.0" fill="black" /><rect x="798" y="0.0" width="64" height="1" fill="white" fill-opacity="0.5" /><text x="872" y="14.0" font-size="14" fill="white" font-family="monospace" dominant-baseline="ideographic">29</text><rect x="798" y="41.0" width="64" height="1" fill="white" fill-opacity="0.2" /><rect x="798" y="81.5" width="64" height="1" fill="white" fill-opacity="0.2" /><rect x="798" y="122.5" width="64" height="1" fill="white" fill-opacity="0.2" /><rect x="798" y="163.5" width="64" height="1" fill="white" fill-opacity="0.2" /><rect x="798" y="204.5" width="64" height="1" fill="white" fill-opacity="0.2" /><rect x="798" y="245.5" width="64" height="1" fill="white" fill-opacity="0.2" /><rect x="798" y="286.0" width="64" height="1" fill="white" fill-opacity="0.2" /><rect x="798" y="327.0" width="64" height="1" fill="white" fill-opacity="0.2" /><rect x="798" y="347.5" width="64" height="1" fill="white" fill-opacity="0.5" /><text x="872" y="361.5" font-size="14" fill="white" font-family="monospace" dominant-baseline="ideographic">30</text><rect x="798" y="388.5" width="64" height="1" fill="white" fill-opacity="0.2" /><rect x="798" y="429.5" width="64" height="1" fill="white" fill-opacity="0.2" /><rect x="798" y="470.5" width="64" height="1" fill="white" fill-opacity="0.2" /><rect x="798" y="511.0" width="64" height="1" fill="white" fill-opacity="0.2" /><rect x="798" y="552.0" width="64" height="1" fill="white" fill-opacity="0.2" /><rect x="798" y="593.0" width="64" height="1" fill="white" fill-opacity="0.2" /><rect x="798" y="634.0" width="64" height="1" fill="white" fill-opacity="0.2" /><rect x="798" y="675.0" width="64" height="1" fill="white" fill-opacity="0.2" /><rect x="798" y="695.5" width="64" height="1" fill="white" fill-opacity="0.5" /><text x="872" y="709.5" font-size="14" fill="white" font-family="monospace" dominant-baseline="ideographic">31</text><rect x="798" y="736.0" width="64" height="1" fill="white" fill-opacity="0.2" /><rect x="798" y="777.0" width="64" height="1" fill="white" fill-opacity="0.2" /><rect x="798" y="818.0" width="64" height="1" fill="white" fill-opacity="0.2" /><rect x="798" y="859.0" width="64" height="1" fill="white" fill-opacity="0.2" /><rect x="798" y="900.0" width="64" height="1" fill="white" fill-opacity="0.2" /><rect x="798" y="941.0" width="64" height="1" fill="white" fill-opacity="0.2" /><rect x="798" y="981.5" width="64" height="1" fill="white" fill-opacity="0.2" /><rect x="798" y="1022.5" width="64" height="1" fill="white" fill-opacity="0.2" /><rect x="798" y="1043.0" width="64" height="1" fill="white" fill-opacity="0.5" /><text x="872" y="1057.0" font-size="14" fill="white" font-family="monospace" dominant-baseline="ideographic">32</text><rect x="798" y="1084.0" width="64" height="1" fill="white" fill-opacity="0.2" /><rect x="798" y="1125.0" width="64" height="1" fill="white" fill-opacity="0.2" /><rect x="798" y="1166.0" width="64" height="1" fill="white" fill-opacity="0.2" /><rect x="798" y="1206.5" width="64" height="1" fill="white" fill-opacity="0.2" /><rect x="798" y="1247.5" width="64" height="1" fill="white" fill-opacity="0.2" /><rect x="798" y="1288.5" width="64" height="1" fill="white" fill-opacity="0.2" /><rect x="798" y="1329.5" width="64" height="1" fill="white" fill-opacity="0.2" /><rect x="798" y="1370.5" width="64" height="1" fill="white" fill-opacity="0.2" /><rect x="798" y="1391.0" width="64" height="1" fill="white" fill-opacity="0.5" /><text x="872" y="1405.0" font-size="14" fill="white" font-family="monospace" dominant-baseline="ideographic">33</text><rect x="798" y="1043.1000000000004" width="64" height="1" fill="aqua" fill-opacity="0.75" /><text x="798" y="1057.1000000000004" font-size="14" fill="aqua" fill-opacity="0.75" font-family="monospace">Solo</text><rect x="912" y="0" width="64" height="1390.5" fill="black" /><rect x="912" y="0.0" width="64" height="1" fill="white" fill-opacity="0.5" /><text x="986" y="14.0" font-size="14" fill="white" font-family="monospace" dominant-baseline="ideographic">33</text><rect x="912" y="40.5" width="64" height="1" fill="white" fill-opacity="0.2" /><rect x="912" y="81.5" width="64" height="1" fill="white" fill-opacity="0.2" /><rect x="912" y="122.5" width="64" height="1" fill="white" fill-opacity="0.2" /><rect x="912" y="163.5" width="64" height="1" fill="white" fill-opacity="0.2" /><rect x="912" y="204.5" width="64" height="1" fill="white" fill-opacity="0.2" /><rect x="912" y="245.0" width="64" height="1" fill="white" fill-opacity="0.2" /><rect x="912" y="286.0" width="64" height="1" fill="white" fill-opacity="0.2" /><rect x="912" y="327.0" width="64" height="1" fill="white" fill-opacity="0.2" /><rect x="912" y="347.5" width="64" height="1" fill="white" fill-opacity="0.5" /><text x="986" y="361.5" font-size="14" fill="white" font-family="monospace" dominant-baseline="ideographic">34</text><rect x="912" y="388.5" width="64" height="1" fill="white" fill-opacity="0.2" /><rect x="912" y="429.5" width="64" height="1" fill="white" fill-opacity="0.2" /><rect x="912" y="470.0" width="64" height="1" fill="white" fill-opacity="0.2" /><rect x="912" y="511.0" width="64" height="1" fill="white" fill-opacity="0.2" /><rect x="912" y="552.0" width="64" height="1" fill="white" fill-opacity="0.2" /><rect x="912" y="593.0" width="64" height="1" fill="white" fill-opacity="0.2" /><rect x="912" y="634.0" width="64" height="1" fill="white" fill-opacity="0.2" /><rect x="912" y="675.0" width="64" height="1" fill="white" fill-opacity="0.2" /><rect x="912" y="695.0" width="64" height="1" fill="white" fill-opacity="0.5" /><text x="986" y="709.0" font-size="14" fill="white" font-family="monospace" dominant-baseline="ideographic">35</text><rect x="912" y="736.0" width="64" height="1" fill="white" fill-opacity="0.2" /><rect x="912" y="777.0" width="64" height="1" fill="white" fill-opacity="0.2" /><rect x="912" y="818.0" width="64" height="1" fill="white" fill-opacity="0.2" /><rect x="912" y="859.0" width="64" height="1" fill="white" fill-opacity="0.2" /><rect x="912" y="900.0" width="64" height="1" fill="white" fill-opacity="0.2" /><rect x="912" y="940.5" width="64" height="1" fill="white" fill-opacity="0.2" /><rect x="912" y="981.5" width="64" height="1" fill="white" fill-opacity="0.2" /><rect x="912" y="1022.5" width="64" height="1" fill="white" fill-opacity="0.2" /><rect x="912" y="1043.0" width="64" height="1" fill="white" fill-opacity="0.5" /><text x="986" y="1057.0" font-size="14" fill="white" font-family="monospace" dominant-baseline="ideographic">36</text><rect x="912" y="1084.0" width="64" height="1" fill="white" fill-opacity="0.2" /><rect x="912" y="1125.0" width="64" height="1" fill="white" fill-opacity="0.2" /><rect x="912" y="1165.5" width="64" height="1" fill="white" fill-opacity="0.2" /><rect x="912" y="1206.5" width="64" height="1" fill="white" fill-opacity="0.2" /><rect x="912" y="1247.5" width="64" height="1" fill="white" fill-opacity="0.2" /><rect x="912" y="1288.5" width="64" height="1" fill="white" fill-opacity="0.2" /><rect x="912" y="1329.5" width="64" height="1" fill="white" fill-opacity="0.2" /><rect x="912" y="1370.0" width="64" height="1" fill="white" fill-opacity="0.2" /><rect x="912" y="1390.5" width="64" height="1" fill="white" fill-opacity="0.5" /><text x="986" y="1404.5" font-size="14" fill="white" font-family="monospace" dominant-baseline="ideographic">37</text><rect x="1026" y="0" width="64" height="1391.0" fill="black" /><rect x="1026" y="0.0" width="64" height="1" fill="white" fill-opacity="0.5" /><text x="1100" y="14.0" font-size="14" fill="white" font-family="monospace" dominant-baseline="ideographic">37</text><rect x="1026" y="41.0" width="64" height="1" fill="white" fill-opacity="0.2" /><rect x="1026" y="82.0" width="64" height="1" fill="white" fill-opacity="0.2" /><rect x="1026" y="123.0" width="64" height="1" fill="white" fill-opacity="0.2" /><rect x="1026" y="164.0" width="64" height="1" fill="white" fill-opacity="0.2" /><rect x="1026" y="204.5" width="64" height="1" fill="white" fill-opacity="0.2" /><rect x="1026" y="245.5" width="64" height="1" fill="white" fill-opacity="0.2" /><rect x="1026" y="286.5" width="64" height="1" fill="white" fill-opacity="0.2" /><rect x="1026" y="327.5" width="64" height="1" fill="white" fill-opacity="0.2" /><rect x="1026" y="348.0" width="64" height="1" fill="white" fill-opacity="0.5" /><text x="1100" y="362.0" font-size="14" fill="white" font-family="monospace" dominant-baseline="ideographic">38</text><rect x="1026" y="389.0" width="64" height="1" fill="white" fill-opacity="0.2" /><rect x="1026" y="429.5" width="64" height="1" fill="white" fill-opacity="0.2" /><rect x="1026" y="470.5" width="64" height="1" fill="white" fill-opacity="0.2" /><rect x="1026" y="511.5" width="64" height="1" fill="white" fill-opacity="0.2" /><rect x="1026" y="552.5" width="64" height="1" fill="white" fill-opacity="0.2" /><rect x="1026" y="593.5" width="64" height="1" fill="white" fill-opacity="0.2" /><rect x="1026" y="634.5" width="64" height="1" fill="white" fill-opacity="0.2" /><rect x="1026" y="675.0" width="64" height="1" fill="white" fill-opacity="0.2" /><rect x="1026" y="695.5" width="64" height="1" fill="white" fill-opacity="0.5" /><text x="1100" y="709.5" font-size="14" fill="white" font-family="monospace" dominant-baseline="ideographic">39</text><rect x="1026" y="736.5" width="64" height="1" fill="white" fill-opacity="0.2" /><rect x="1026" y="777.5" width="64" height="1" fill="white" fill-opacity="0.2" /><rect x="1026" y="818.5" width="64" height="1" fill="white" fill-opacity="0.2" /><rect x="1026" y="859.5" width="64" height="1" fill="white" fill-opacity="0.2" /><rect x="1026" y="900.0" width="64" height="1" fill="white" fill-opacity="0.2" /><rect x="1026" y="941.0" width="64" height="1" fill="white" fill-opacity="0.2" /><rect x="1026" y="982.0" width="64" height="1" fill="white" fill-opacity="0.2" /><rect x="1026" y="1023.0" width="64" height="1" fill="white" fill-opacity="0.2" /><rect x="1026" y="1043.5" width="64" height="1" fill="white" fill-opacity="0.5" /><text x="1100" y="1057.5" font-size="14" fill="white" font-family="monospace" dominant-baseline="ideographic">40</text><rect x="1026" y="1084.5" width="64" height="1" fill="white" fill-opacity="0.2" /><rect x="1026" y="1125.0" width="64" height="1" fill="white" fill-opacity="0.2" /><rect x="1026" y="1166.0" width="64" height="1" fill="white" fill-opacity="0.2" /><rect x="1026" y="1207.0" width="64" height="1" fill="white" fill-opacity="0.2" /><rect x="1026" y="1248.0" width="64" height="1" fill="white" fill-opacity="0.2" /><rect x="1026" y="1289.0" width="64" height="1" fill="white" fill-opacity="0.2" /><rect x="1026" y="1329.5" width="64" height="1" fill="white" fill-opacity="0.2" /><rect x="1026" y="1370.5" width="64" height="1" fill="white" fill-opacity="0.2" /><rect x="1026" y="1391.0" width="64" height="1" fill="white" fill-opacity="0.5" /><text x="1100" y="1405.0" font-size="14" fill="white" font-family="monospace" dominant-baseline="ideographic">41</text><rect x="1026" y="1043.3499999999985" width="64" height="1" fill="aqua" fill-opacity="0.75" /><text x="1026" y="1057.3499999999985" font-size="14" fill="aqua" fill-opacity="0.75" font-family="monospace">Special</text><rect x="1140" y="0" width="64" height="1391.0" fill="black" /><rect x="1140" y="0.0" width="64" height="1" fill="white" fill-opacity="0.5" /><text x="1214" y="14.0" font-size="14" fill="white" font-family="monospace" dominant-baseline="ideographic">41</text><rect x="1140" y="41.0" width="64" height="1" fill="white" fill-opacity="0.2" /><rect x="1140" y="82.0" width="64" height="1" fill="white" fill-opacity="0.2" /><rect x="1140" y="123.0" width="64" height="1" fill="white" fill-opacity="0.2" /><rect x="1140" y="163.5" width="64" height="1" fill="white" fill-opacity="0.2" /><rect x="1140" y="204.5" width="64" height="1" fill="white" fill-opacity="0.2" /><rect x="1140" y="245.5" width="64" height="1" fill="white" fill-opacity="0.2" /><rect x="1140" y="286.5" width="64" height="1" fill="white" fill-opacity="0.2" /><rect x="1140" y="327.5" width="64" height="1" fill="white" fill-opacity="0.2" /><rect x="1140" y="348.0" width="64" height="1" fill="white" fill-opacity="0.5" /><text x="1214" y="362.0" font-size="14" fill="white" font-family="monospace" dominant-baseline="ideographic">42</text><rect x="1140" y="388.5" width="64" height="1" fill="white" fill-opacity="0.2" /><rect x="1140" y="429.5" width="64" height="1" fill="white" fill-opacity="0.2" /><rect x="1140" y="470.5" width="64" height="1" fill="white" fill-opacity="0.2" /><rect x="1140" y="511.5" width="64" height="1" fill="white" fill-opacity="0.2" /><rect x="1140" y="552.5" width="64" height="1" fill="white" fill-opacity="0.2" /><rect x="1140" y="593.5" width="64" height="1" fill="white" fill-opacity="0.2" /><rect x="1140" y="634.0" width="64" height="1" fill="white" fill-opacity="0.2" /><rect x="1140" y="675.0" width="64" height="1" fill="white" fill-opacity="0.2" /><rect x="1140" y="695.5" width="64" height="1" fill="white" fill-opacity="0.5" /><text x="1214" y="709.5" font-size="14" fill="white" font-family="monospace" dominant-baseline="ideographic">43</text><rect x="1140" y="736.5" width="64" height="1" fill="white" fill-opacity="0.2" /><rect x="1140" y="777.5" width="64" height="1" fill="white" fill-opacity="0.2" /><rect x="1140" y="818.5" width="64" height="1" fill="white" fill-opacity="0.2" /><rect x="1140" y="859.0" width="64" height="1" fill="white" fill-opacity="0.2" /><rect x="1140" y="900.0" width="64" height="1" fill="white" fill-opacity="0.2" /><rect x="1140" y="941.0" width="64" height="1" fill="white" fill-opacity="0.2" /><rect x="1140" y="982.0" width="64" height="1" fill="white" fill-opacity="0.2" /><rect x="1140" y="1023.0" width="64" height="1" fill="white" fill-opacity="0.2" /><rect x="1140" y="1043.5" width="64" height="1" fill="white" fill-opacity="0.5" /><text x="1214" y="1057.5" font-size="14" fill="white" font-family="monospace" dominant-baseline="ideographic">44</text><rect x="1140" y="1084.0" width="64" height="1" fill="white" fill-opacity="0.2" /><rect x="1140" y="1125.0" width="64" height="1" fill="white" fill-opacity="0.2" /><rect x="1140" y="1166.0" width="64" height="1" fill="white" fill-opacity="0.2" /><rect x="1140" y="1207.0" width="64" height="1" fill="white" fill-opacity="0.2" /><rect x="1140" y="1248.0" width="64" height="1" fill="white" fill-opacity="0.2" /><rect x="1140" y="1288.5" width="64" height="1" fill="white" fill-opacity="0.2" /><rect x="1140" y="1329.5" width="64" height="1" fill="white" fill-opacity="0.2" /><rect x="1140" y="1370.5" width="64" height="1" fill="white" fill-opacity="0.2" /><rect x="1140" y="1391.0" width="64" height="1" fill="white" fill-opacity="0.5" /><text x="1214" y="1405.0" font-size="14" fill="white" font-family="monospace" dominant-baseline="ideographic">45</text><rect x="1254" y="0" width="64" height="790.5" fill="black" /><rect x="1254" y="0.0" width="64" height="1" fill="white" fill-opacity="0.5" /><text x="1328" y="14.0" font-size="14" fill="white" font-family="monospace" dominant-baseline="ideographic">45</text><rect x="1254" y="41.0" width="64" height="1" fill="white" fill-opacity="0.2" /><rect x="1254" y="82.0" width="64" height="1" fill="white" fill-opacity="0.2" /><rect x="1254" y="122.5" width="64" height="1" fill="white" fill-opacity="0.2" /><rect x="1254" y="163.5" width="64" height="1" fill="white" fill-opacity="0.2" /><rect x="1254" y="204.5" width="64" height="1" fill="white" fill-opacity="0.2" /><rect x="1254" y="245.5" width="64" height="1" fill="white" fill-opacity="0.2" /><rect x="1254" y="286.5" width="64" height="1" fill="white" fill-opacity="0.2" /><rect x="1254" y="327.5" width="64" height="1" fill="white" fill-opacity="0.2" /><rect x="1254" y="347.5" width="64" height="1" fill="white" fill-opacity="0.5" /><text x="1328" y="361.5" font-size="14" fill="white" font-family="monospace" dominant-baseline="ideographic">46</text></svg>