<?xml version="1.0" encoding="UTF-8"?><svg xmlns="http://www.w3.org/2000/svg" xmlns:xlink="http://www.w3.org/1999/xlink"     width="1710" height="538352.0" viewBox="0 0 1710 538352.0"><defs></defs><rect x="13.0" y="277.0" width="12.0" height="3" fill="#35df39" stroke="#03aa10" /><rect x="13.0" y="381.0" width="12.0" height="3" fill="#35df39" stroke="#03aa10" /><rect x="0.0" y="519.0" width="12.0" height="3" fill="#ff3c3c" stroke="#c71f1f" /><rect x="13.0" y="554.0" width="12.0" height="3" fill="#35df39" stroke="#03aa10" /><rect x="13.0" y="606.0" width="12.0" height="3" fill="#35df39" stroke="#03aa10" /><rect x="13.0" y="657.5" width="12.0" height="3" fill="#35df39" stroke="#03aa10" /><rect x="26.0" y="657.5" width="12.0" height="3" fill="#80c9ff" stroke="#0b6cba" /><rect x="13.0" y="727.0" width="12.0" height="3" fill="#35df39" stroke="#03aa10" /><rect x="0.0" y="761.5" width="12.0" height="3" fill="#ff3c3c" stroke="#c71f1f" /><rect x="26.0" y="831.0" width="12.0" height="3" fill="#80c9ff" stroke="#0b6cba" /><rect x="39.0" y="831.0" width="12.0" height="3" fill="#fff874" stroke="#eb9c26" /><rect x="26.0" y="934.5" width="12.0" height="3" fill="#80c9ff" stroke="#0b6cba" /><rect x="39.0" y="934.5" width="12.0" height="3" fill="#fff874" stroke="#eb9c26" /><rect x="140.0" y="0.0" width="12.0" height="3" fill="#80c9ff" stroke="#0b6cba" /><rect x="153.0" y="0.0" width="12.0" height="3" fill="#fff874" stroke="#eb9c26" /><rect x="140.0" y="52.0" width="12.0" height="3" fill="#80c9ff" stroke="#0b6cba" /><rect x="153.0" y="104.0" width="12.0" height="3" fill="#fff874" stroke="#eb9c26" /><rect x="166.0" y="104.0" width="12.0" height="3" fill="#ff83f4" stroke="#d002bc" /><rect x="140.0" y="173.5" width="12.0" height="3" fill="#80c9ff" stroke="#0b6cba" /><rect x="153.0" y="173.5" width="12.0" height="3" fill="#fff874" stroke="#eb9c26" /><rect x="140.0" y="208.0" width="12.0" height="3" fill="#80c9ff" stroke="#0b6cba" /><rect x="127.0" y="277.0" width="12.0" height="3" fill="#35df39" stroke="#03aa10" /><rect x="127.0" y="381.0" width="12.0" height="3" fill="#35df39" stroke="#03aa10" /><rect x="114.0" y="519.5" width="12.0" height="3" fill="#ff3c3c" stroke="#c71f1f" /><rect x="127.0" y="554.0" width="12.0" height="3" fill="#35df39" stroke="#03aa10" /><rect x="127.0" y="606.0" width="12.0" height="3" fill="#35df39" stroke="#03aa10" /><rect x="127.0" y="658.0" width="12.0" height="3" fill="#35df39" stroke="#03aa10" /><rect x="140.0" y="658.0" width="12.0" height="3" fill="#80c9ff" stroke="#0b6cba" /><rect x="127.0" y="727.0" width="12.0" height="3" fill="#35df39" stroke="#03aa10" /><rect x="114.0" y="761.5" width="12.0" height="3" fill="#ff3c3c" stroke="#c71f1f" /><rect x="127.0" y="831.0" width="12.0" height="3" fill="#35df39" stroke="#03aa10" /><rect x="140.0" y="831.0" width="12.0" height="3" fill="#80c9ff" stroke="#0b6cba" /><rect x="127.0" y="935.0" width="12.0" height="3" fill="#35df39" stroke="#03aa10" /><rect x="140.0" y="935.0" width="12.0" height="3" fill="#80c9ff" stroke="#0b6cba" /><rect x="267.0" y="0.0" width="12.0" height="3" fill="#fff874" stroke="#eb9c26" /><rect x="267.0" y="52.0" width="12.0" height="3" fill="#fff874" stroke="#eb9c26" /><rect x="280.0" y="52.0" width="12.0" height="3" fill="#ff83f4" stroke="#d002bc" /><rect x="267.0" y="103.5" width="12.0" height="3" fill="#fff874" stroke="#eb9c26" /><rect x="254.0" y="173.0" width="12.0" height="3" fill="#80c9ff" stroke="#0b6cba" /><rect x="254.0" y="207.5" width="12.0" height="3" fill="#80c9ff" stroke="#0b6cba" /><rect x="267.0" y="207.5" width="12.0" height="3" fill="#fff874" stroke="#eb9c26" /><rect x="228.0" y="277.0" width="12.0" height="3" fill="#ff3c3c" stroke="#c71f1f" /><rect x="241.0" y="277.0" width="12.0" height="3" fill="#35df39" stroke="#03aa10" /><rect x="228.0" y="380.5" width="12.0" height="3" fill="#ff3c3c" stroke="#c71f1f" /><rect x="241.0" y="380.5" width="12.0" height="3" fill="#35df39" stroke="#03aa10" /><rect x="228.0" y="450.0" width="12.0" height="3" fill="#ff3c3c" stroke="#c71f1f" /><rect x="228.0" y="484.5" width="12.0" height="3" fill="#ff3c3c" stroke="#c71f1f" /><rect x="241.0" y="484.5" width="12.0" height="3" fill="#35df39" stroke="#03aa10" /><rect x="228.0" y="519.0" width="12.0" height="3" fill="#ff3c3c" stroke="#c71f1f" /><rect x="228.0" y="553.5" width="12.0" height="3" fill="#ff3c3c" stroke="#c71f1f" /><rect x="241.0" y="553.5" width="12.0" height="3" fill="#35df39" stroke="#03aa10" /><rect x="228.0" y="657.5" width="12.0" height="3" fill="#ff3c3c" stroke="#c71f1f" /><rect x="241.0" y="657.5" width="12.0" height="3" fill="#35df39" stroke="#03aa10" /><rect x="228.0" y="727.0" width="12.0" height="3" fill="#ff3c3c" stroke="#c71f1f" /><rect x="228.0" y="761.5" width="12.0" height="3" fill="#ff3c3c" stroke="#c71f1f" /><rect x="241.0" y="761.5" width="12.0" height="3" fill="#35df39" stroke="#03aa10" /><rect x="228.0" y="796.0" width="12.0" height="3" fill="#ff3c3c" stroke="#c71f1f" /><rect x="241.0" y="830.5" width="12.0" height="3" fill="#35df39" stroke="#03aa10" /><rect x="254.0" y="830.5" width="12.0" height="3" fill="#80c9ff" stroke="#0b6cba" /><rect x="241.0" y="934.5" width="12.0" height="3" fill="#35df39" stroke="#03aa10" /><rect x="254.0" y="934.5" width="12.0" height="3" fill="#80c9ff" stroke="#0b6cba" /><rect x="241.0" y="1003.5" width="12.0" height="3" fill="#35df39" stroke="#03aa10" /><rect x="241.0" y="1038.5" width="12.0" height="3" fill="#35df39" stroke="#03aa10" /><rect x="254.0" y="1038.5" width="12.0" height="3" fill="#80c9ff" stroke="#0b6cba" /><rect x="241.0" y="1073.0" width="12.0" height="3" fill="#35df39" stroke="#03aa10" /><rect x="355.0" y="0.0" width="12.0" height="3" fill="#35df39" stroke="#03aa10" /><rect x="368.0" y="0.0" width="12.0" height="3" fill="#80c9ff" stroke="#0b6cba" /><rect x="355.0" y="104.0" width="12.0" height="3" fill="#35df39" stroke="#03aa10" /><rect x="368.0" y="104.0" width="12.0" height="3" fill="#80c9ff" stroke="#0b6cba" /><rect x="355.0" y="173.0" width="12.0" height="3" fill="#35df39" stroke="#03aa10" /><rect x="355.0" y="208.0" width="12.0" height="3" fill="#35df39" stroke="#03aa10" /><rect x="368.0" y="208.0" width="12.0" height="3" fill="#80c9ff" stroke="#0b6cba" /><rect x="394.0" y="242.5" width="12.0" height="3" fill="#ff83f4" stroke="#d002bc" /><rect x="342" y="242.5" width="64" height="3" fill="#ff72e7" stroke="#7c7c7c" /><rect x="342.0" y="277.0" width="12.0" height="3" fill="#ff3c3c" stroke="#c71f1f" /><rect x="355.0" y="277.0" width="12.0" height="3" fill="#35df39" stroke="#03aa10" /><rect x="342.0" y="381.0" width="12.0" height="3" fill="#ff3c3c" stroke="#c71f1f" /><rect x="355.0" y="381.0" width="12.0" height="3" fill="#35df39" stroke="#03aa10" /><rect x="342.0" y="450.0" width="12.0" height="3" fill="#ff3c3c" stroke="#c71f1f" /><rect x="342.0" y="484.5" width="12.0" height="3" fill="#ff3c3c" stroke="#c71f1f" /><rect x="355.0" y="484.5" width="12.0" height="3" fill="#35df39" stroke="#03aa10" /><rect x="342.0" y="519.5" width="12.0" height="3" fill="#ff3c3c" stroke="#c71f1f" /><rect x="342.0" y="554.0" width="12.0" height="3" fill="#ff3c3c" stroke="#c71f1f" /><rect x="355.0" y="554.0" width="12.0" height="3" fill="#35df39" stroke="#03aa10" /><rect x="342.0" y="658.0" width="12.0" height="3" fill="#ff3c3c" stroke="#c71f1f" /><rect x="355.0" y="658.0" width="12.0" height="3" fill="#35df39" stroke="#03aa10" /><rect x="342.0" y="727.0" width="12.0" height="3" fill="#ff3c3c" stroke="#c71f1f" /><rect x="342.0" y="761.5" width="12.0" height="3" fill="#ff3c3c" stroke="#c71f1f" /><rect x="355.0" y="761.5" width="12.0" height="3" fill="#35df39" stroke="#03aa10" /><rect x="342.0" y="796.0" width="12.0" height="3" fill="#ff3c3c" stroke="#c71f1f" /><rect x="355.0" y="831.0" width="12.0" height="3" fill="#35df39" stroke="#03aa10" /><rect x="368.0" y="831.0" width="12.0" height="3" fill="#80c9ff" stroke="#0b6cba" /><rect x="355.0" y="934.5" width="12.0" height="3" fill="#35df39" stroke="#03aa10" /><rect x="368.0" y="934.5" width="12.0" height="3" fill="#80c9ff" stroke="#0b6cba" /><rect x="342.0" y="1004.0" width="12.0" height="3" fill="#ff3c3c" stroke="#c71f1f" /><rect x="355.0" y="1038.5" width="12.0" height="3" fill="#35df39" stroke="#03aa10" /><rect x="368.0" y="1073.0" width="12.0" height="3" fill="#80c9ff" stroke="#0b6cba" /><rect x="495.0" y="207.5" width="12.0" height="3" fill="#fff874" stroke="#eb9c26" /><rect x="456.0" y="276.5" width="12.0" height="3" fill="#ff3c3c" stroke="#c71f1f" /><rect x="456.0" y="328.5" width="12.0" height="3" fill="#ff3c3c" stroke="#c71f1f" /><rect x="482.0" y="328.5" width="12.0" height="3" fill="#80c9ff" stroke="#0b6cba" /><rect x="456.0" y="380.5" width="12.0" height="3" fill="#ff3c3c" stroke="#c71f1f" /><rect x="456.0" y="450.0" width="12.0" height="3" fill="#ff3c3c" stroke="#c71f1f" /><rect x="469.0" y="484.5" width="12.0" height="3" fill="#35df39" stroke="#03aa10" /><rect x="482.0" y="519.0" width="12.0" height="3" fill="#80c9ff" stroke="#0b6cba" /><rect x="456.0" y="553.5" width="12.0" height="3" fill="#ff3c3c" stroke="#c71f1f" /><rect x="456.0" y="605.5" width="12.0" height="3" fill="#ff3c3c" stroke="#c71f1f" /><rect x="482.0" y="605.5" width="12.0" height="3" fill="#80c9ff" stroke="#0b6cba" /><rect x="456.0" y="657.5" width="12.0" height="3" fill="#ff3c3c" stroke="#c71f1f" /><rect x="456.0" y="726.5" width="12.0" height="3" fill="#ff3c3c" stroke="#c71f1f" /><rect x="469.0" y="761.5" width="12.0" height="3" fill="#35df39" stroke="#03aa10" /><rect x="482.0" y="796.0" width="12.0" height="3" fill="#80c9ff" stroke="#0b6cba" /><rect x="482.0" y="830.5" width="12.0" height="3" fill="#80c9ff" stroke="#0b6cba" /><rect x="482.0" y="882.5" width="12.0" height="3" fill="#80c9ff" stroke="#0b6cba" /><rect x="495.0" y="882.5" width="12.0" height="3" fill="#fff874" stroke="#eb9c26" /><rect x="482.0" y="934.5" width="12.0" height="3" fill="#80c9ff" stroke="#0b6cba" /><rect x="456.0" y="1003.5" width="12.0" height="3" fill="#ff3c3c" stroke="#c71f1f" /><rect x="469.0" y="1038.0" width="12.0" height="3" fill="#35df39" stroke="#03aa10" /><rect x="482.0" y="1073.0" width="12.0" height="3" fill="#80c9ff" stroke="#0b6cba" /><rect x="609.0" y="0.0" width="12.0" height="3" fill="#fff874" stroke="#eb9c26" /><rect x="622.0" y="17.5" width="12.0" height="3" fill="#ff83f4" stroke="#d002bc" /><rect x="609.0" y="52.0" width="12.0" height="3" fill="#fff874" stroke="#eb9c26" /><rect x="596.0" y="104.0" width="12.0" height="3" fill="#80c9ff" stroke="#0b6cba" /><rect x="609.0" y="121.0" width="12.0" height="3" fill="#fff874" stroke="#eb9c26" /><rect x="596.0" y="138.5" width="12.0" height="3" fill="#80c9ff" stroke="#0b6cba" /><rect x="583.0" y="155.5" width="12.0" height="3" fill="#35df39" stroke="#03aa10" /><rect x="570.0" y="207.5" width="12.0" height="3" fill="#ff3c3c" stroke="#c71f1f" /><rect x="583.0" y="242.5" width="12.0" height="3" fill="#35df39" stroke="#03aa10" /><rect x="570.0" y="277.0" width="12.0" height="3" fill="#ff3c3c" stroke="#c71f1f" /><rect x="596.0" y="346.0" width="12.0" height="3" fill="#80c9ff" stroke="#0b6cba" /><rect x="583.0" y="380.5" width="12.0" height="3" fill="#35df39" stroke="#03aa10" /><rect x="596.0" y="398.0" width="12.0" height="3" fill="#80c9ff" stroke="#0b6cba" /><rect x="583.0" y="450.0" width="12.0" height="3" fill="#35df39" stroke="#03aa10" /><rect x="596.0" y="484.5" width="12.0" height="3" fill="#80c9ff" stroke="#0b6cba" /><rect x="583.0" y="519.0" width="12.0" height="3" fill="#35df39" stroke="#03aa10" /><rect x="570.0" y="554.0" width="12.0" height="3" fill="#ff3c3c" stroke="#c71f1f" /><rect x="596.0" y="605.5" width="12.0" height="3" fill="#80c9ff" stroke="#0b6cba" /><rect x="583.0" y="657.5" width="12.0" height="3" fill="#35df39" stroke="#03aa10" /><rect x="596.0" y="675.0" width="12.0" height="3" fill="#80c9ff" stroke="#0b6cba" /><rect x="583.0" y="727.0" width="12.0" height="3" fill="#35df39" stroke="#03aa10" /><rect x="596.0" y="761.5" width="12.0" height="3" fill="#80c9ff" stroke="#0b6cba" /><rect x="583.0" y="796.0" width="12.0" height="3" fill="#35df39" stroke="#03aa10" /><rect x="570.0" y="830.5" width="12.0" height="3" fill="#ff3c3c" stroke="#c71f1f" /><rect x="609.0" y="882.5" width="12.0" height="3" fill="#fff874" stroke="#eb9c26" /><rect x="596.0" y="934.5" width="12.0" height="3" fill="#80c9ff" stroke="#0b6cba" /><rect x="609.0" y="952.0" width="12.0" height="3" fill="#fff874" stroke="#eb9c26" /><rect x="622.0" y="986.5" width="12.0" height="3" fill="#ff83f4" stroke="#d002bc" /><rect x="570" y="986.5" width="64" height="3" fill="#ff72e7" stroke="#7c7c7c" /><rect x="609.0" y="1004.0" width="12.0" height="3" fill="#fff874" stroke="#eb9c26" /><rect x="596.0" y="1038.5" width="12.0" height="3" fill="#80c9ff" stroke="#0b6cba" /><rect x="609.0" y="1073.0" width="12.0" height="3" fill="#fff874" stroke="#eb9c26" /><rect x="736.0" y="0.0" width="12.0" height="3" fill="#ff83f4" stroke="#d002bc" /><rect x="723.0" y="35.0" width="12.0" height="3" fill="#fff874" stroke="#eb9c26" /><rect x="710.0" y="69.5" width="12.0" height="3" fill="#80c9ff" stroke="#0b6cba" /><rect x="684.0" y="104.0" width="12.0" height="3" fill="#ff3c3c" stroke="#c71f1f" /><rect x="723.0" y="208.0" width="12.0" height="3" fill="#fff874" stroke="#eb9c26" /><rect x="710.0" y="277.0" width="12.0" height="3" fill="#80c9ff" stroke="#0b6cba" /><rect x="684.0" y="346.5" width="12.0" height="3" fill="#ff3c3c" stroke="#c71f1f" /><rect x="697.0" y="381.0" width="12.0" height="3" fill="#35df39" stroke="#03aa10" /><rect x="710.0" y="415.5" width="12.0" height="3" fill="#80c9ff" stroke="#0b6cba" /><rect x="723.0" y="485.0" width="12.0" height="3" fill="#fff874" stroke="#eb9c26" /><rect x="710.0" y="519.5" width="12.0" height="3" fill="#80c9ff" stroke="#0b6cba" /><rect x="723.0" y="554.0" width="12.0" height="3" fill="#fff874" stroke="#eb9c26" /><rect x="736.0" y="658.0" width="12.0" height="3" fill="#ff83f4" stroke="#d002bc" /><rect x="723.0" y="692.5" width="12.0" height="3" fill="#fff874" stroke="#eb9c26" /><rect x="710.0" y="727.0" width="12.0" height="3" fill="#80c9ff" stroke="#0b6cba" /><rect x="697.0" y="761.5" width="12.0" height="3" fill="#35df39" stroke="#03aa10" /><rect x="697.0" y="831.0" width="12.0" height="3" fill="#35df39" stroke="#03aa10" /><rect x="684.0" y="935.0" width="12.0" height="3" fill="#ff3c3c" stroke="#c71f1f" /><rect x="684.0" y="969.5" width="12.0" height="3" fill="#ff3c3c" stroke="#c71f1f" /><rect x="697.0" y="1004.0" width="12.0" height="3" fill="#35df39" stroke="#03aa10" /><rect x="697.0" y="1038.5" width="12.0" height="3" fill="#35df39" stroke="#03aa10" /><rect x="710.0" y="1038.5" width="12.0" height="3" fill="#80c9ff" stroke="#0b6cba" /><rect x="697.0" y="1073.0" width="12.0" height="3" fill="#35df39" stroke="#03aa10" /><rect x="811.0" y="0.0" width="12.0" height="3" fill="#35df39" stroke="#03aa10" /><rect x="824.0" y="0.0" width="12.0" height="3" fill="#80c9ff" stroke="#0b6cba" /><rect x="837.0" y="103.5" width="12.0" height="3" fill="#fff874" stroke="#eb9c26" /><rect x="824.0" y="138.5" width="12.0" height="3" fill="#80c9ff" stroke="#0b6cba" /><rect x="811.0" y="173.0" width="12.0" height="3" fill="#35df39" stroke="#03aa10" /><rect x="850.0" y="207.5" width="12.0" height="3" fill="#ff83f4" stroke="#d002bc" /><rect x="798" y="207.5" width="64" height="3" fill="#ff72e7" stroke="#7c7c7c" /><rect x="798.0" y="277.0" width="12.0" height="3" fill="#ff3c3c" stroke="#c71f1f" /><rect x="811.0" y="277.0" width="12.0" height="3" fill="#35df39" stroke="#03aa10" /><rect x="798.0" y="380.5" width="12.0" height="3" fill="#ff3c3c" stroke="#c71f1f" /><rect x="811.0" y="380.5" width="12.0" height="3" fill="#35df39" stroke="#03aa10" /><rect x="811.0" y="484.5" width="12.0" height="3" fill="#35df39" stroke="#03aa10" /><rect x="824.0" y="484.5" width="12.0" height="3" fill="#80c9ff" stroke="#0b6cba" /><rect x="824.0" y="657.5" width="12.0" height="3" fill="#80c9ff" stroke="#0b6cba" /><rect x="798.0" y="692.0" width="12.0" height="3" fill="#ff3c3c" stroke="#c71f1f" /><rect x="811.0" y="727.0" width="12.0" height="3" fill="#35df39" stroke="#03aa10" /><rect x="824.0" y="761.5" width="12.0" height="3" fill="#80c9ff" stroke="#0b6cba" /><rect x="837.0" y="796.0" width="12.0" height="3" fill="#fff874" stroke="#eb9c26" /><rect x="850.0" y="830.5" width="12.0" height="3" fill="#ff83f4" stroke="#d002bc" /><rect x="850.0" y="900.0" width="12.0" height="3" fill="#ff83f4" stroke="#d002bc" /><rect x="850.0" y="934.5" width="12.0" height="3" fill="#ff83f4" stroke="#d002bc" /><rect x="850.0" y="969.0" width="12.0" height="3" fill="#ff83f4" stroke="#d002bc" /><rect x="824.0" y="1003.5" width="12.0" height="3" fill="#80c9ff" stroke="#0b6cba" /><rect x="837.0" y="1073.0" width="12.0" height="3" fill="#fff874" stroke="#eb9c26" /><rect x="850.0" y="1073.0" width="12.0" height="3" fill="#ff83f4" stroke="#d002bc" /><rect x="951.0" y="34.5" width="12.0" height="3" fill="#fff874" stroke="#eb9c26" /><rect x="964.0" y="34.5" width="12.0" height="3" fill="#ff83f4" stroke="#d002bc" /><rect x="951.0" y="69.5" width="12.0" height="3" fill="#fff874" stroke="#eb9c26" /><rect x="964.0" y="69.5" width="12.0" height="3" fill="#ff83f4" stroke="#d002bc" /><rect x="912.0" y="242.5" width="12.0" height="3" fill="#ff3c3c" stroke="#c71f1f" /><rect x="912.0" y="311.5" width="12.0" height="3" fill="#ff3c3c" stroke="#c71f1f" /><rect x="925.0" y="311.5" width="12.0" height="3" fill="#35df39" stroke="#03aa10" /><rect x="912.0" y="346.0" width="12.0" height="3" fill="#ff3c3c" stroke="#c71f1f" /><rect x="912.0" y="381.0" width="12.0" height="3" fill="#ff3c3c" stroke="#c71f1f" /><rect x="925.0" y="381.0" width="12.0" height="3" fill="#35df39" stroke="#03aa10" /><rect x="912.0" y="415.5" width="12.0" height="3" fill="#ff3c3c" stroke="#c71f1f" /><rect x="912.0" y="450.0" width="12.0" height="3" fill="#ff3c3c" stroke="#c71f1f" /><rect x="938.0" y="450.0" width="12.0" height="3" fill="#80c9ff" stroke="#0b6cba" /><rect x="912.0" y="484.5" width="12.0" height="3" fill="#ff3c3c" stroke="#c71f1f" /><rect x="912.0" y="519.5" width="12.0" height="3" fill="#ff3c3c" stroke="#c71f1f" /><rect x="938.0" y="519.5" width="12.0" height="3" fill="#80c9ff" stroke="#0b6cba" /><rect x="951.0" y="554.0" width="12.0" height="3" fill="#fff874" stroke="#eb9c26" /><rect x="951.0" y="588.5" width="12.0" height="3" fill="#fff874" stroke="#eb9c26" /><rect x="964.0" y="588.5" width="12.0" height="3" fill="#ff83f4" stroke="#d002bc" /><rect x="951.0" y="623.0" width="12.0" height="3" fill="#fff874" stroke="#eb9c26" /><rect x="951.0" y="657.5" width="12.0" height="3" fill="#fff874" stroke="#eb9c26" /><rect x="964.0" y="657.5" width="12.0" height="3" fill="#ff83f4" stroke="#d002bc" /><rect x="951.0" y="692.5" width="12.0" height="3" fill="#fff874" stroke="#eb9c26" /><rect x="951.0" y="727.0" width="12.0" height="3" fill="#fff874" stroke="#eb9c26" /><rect x="964.0" y="727.0" width="12.0" height="3" fill="#ff83f4" stroke="#d002bc" /><rect x="951.0" y="761.5" width="12.0" height="3" fill="#fff874" stroke="#eb9c26" /><rect x="951.0" y="796.0" width="12.0" height="3" fill="#fff874" stroke="#eb9c26" /><rect x="964.0" y="796.0" width="12.0" height="3" fill="#ff83f4" stroke="#d002bc" /><rect x="912.0" y="831.0" width="12.0" height="3" fill="#ff3c3c" stroke="#c71f1f" /><rect x="912.0" y="865.5" width="12.0" height="3" fill="#ff3c3c" stroke="#c71f1f" /><rect x="925.0" y="865.5" width="12.0" height="3" fill="#35df39" stroke="#03aa10" /><rect x="912.0" y="900.0" width="12.0" height="3" fill="#ff3c3c" stroke="#c71f1f" /><rect x="912.0" y="934.5" width="12.0" height="3" fill="#ff3c3c" stroke="#c71f1f" /><rect x="925.0" y="934.5" width="12.0" height="3" fill="#35df39" stroke="#03aa10" /><rect x="912.0" y="969.5" width="12.0" height="3" fill="#ff3c3c" stroke="#c71f1f" /><rect x="912.0" y="1004.0" width="12.0" height="3" fill="#ff3c3c" stroke="#c71f1f" /><rect x="938.0" y="1004.0" width="12.0" height="3" fill="#80c9ff" stroke="#0b6cba" /><rect x="912.0" y="1038.5" width="12.0" height="3" fill="#ff3c3c" stroke="#c71f1f" /><rect x="912.0" y="1073.0" width="12.0" height="3" fill="#ff3c3c" stroke="#c71f1f" /><rect x="938.0" y="1073.0" width="12.0" height="3" fill="#80c9ff" stroke="#0b6cba" /><rect x="1065.0" y="0.0" width="12.0" height="3" fill="#fff874" stroke="#eb9c26" /><rect x="1065.0" y="35.0" width="12.0" height="3" fill="#fff874" stroke="#eb9c26" /><rect x="1078.0" y="35.0" width="12.0" height="3" fill="#ff83f4" stroke="#d002bc" /><rect x="1065.0" y="69.5" width="12.0" height="3" fill="#fff874" stroke="#eb9c26" /><rect x="1065.0" y="104.0" width="12.0" height="3" fill="#fff874" stroke="#eb9c26" /><rect x="1078.0" y="104.0" width="12.0" height="3" fill="#ff83f4" stroke="#d002bc" /><rect x="1065.0" y="138.5" width="12.0" height="3" fill="#fff874" stroke="#eb9c26" /><rect x="1065.0" y="173.5" width="12.0" height="3" fill="#fff874" stroke="#eb9c26" /><rect x="1078.0" y="173.5" width="12.0" height="3" fill="#ff83f4" stroke="#d002bc" /><rect x="1065.0" y="208.0" width="12.0" height="3" fill="#fff874" stroke="#eb9c26" /><rect x="1065.0" y="242.5" width="12.0" height="3" fill="#fff874" stroke="#eb9c26" /><rect x="1078.0" y="242.5" width="12.0" height="3" fill="#ff83f4" stroke="#d002bc" /><rect x="1039.0" y="277.0" width="12.0" height="3" fill="#35df39" stroke="#03aa10" /><rect x="1052.0" y="312.0" width="12.0" height="3" fill="#80c9ff" stroke="#0b6cba" /><rect x="1039.0" y="346.5" width="12.0" height="3" fill="#35df39" stroke="#03aa10" /><rect x="1026.0" y="381.0" width="12.0" height="3" fill="#ff3c3c" stroke="#c71f1f" /><rect x="1039.0" y="450.0" width="12.0" height="3" fill="#35df39" stroke="#03aa10" /><rect x="1052.0" y="450.0" width="12.0" height="3" fill="#80c9ff" stroke="#0b6cba" /><rect x="1039.0" y="485.0" width="12.0" height="3" fill="#35df39" stroke="#03aa10" /><rect x="1039.0" y="519.5" width="12.0" height="3" fill="#35df39" stroke="#03aa10" /><rect x="1052.0" y="519.5" width="12.0" height="3" fill="#80c9ff" stroke="#0b6cba" /><rect x="1039.0" y="554.0" width="12.0" height="3" fill="#35df39" stroke="#03aa10" /><rect x="1039.0" y="588.5" width="12.0" height="3" fill="#35df39" stroke="#03aa10" /><rect x="1052.0" y="588.5" width="12.0" height="3" fill="#80c9ff" stroke="#0b6cba" /><rect x="1039.0" y="623.5" width="12.0" height="3" fill="#35df39" stroke="#03aa10" /><rect x="1026.0" y="658.0" width="12.0" height="3" fill="#ff3c3c" stroke="#c71f1f" /><rect x="1026.0" y="727.0" width="12.0" height="3" fill="#ff3c3c" stroke="#c71f1f" /><rect x="1052.0" y="727.0" width="12.0" height="3" fill="#80c9ff" stroke="#0b6cba" /><rect x="1026.0" y="762.0" width="12.0" height="3" fill="#ff3c3c" stroke="#c71f1f" /><rect x="1026.0" y="796.5" width="12.0" height="3" fill="#ff3c3c" stroke="#c71f1f" /><rect x="1052.0" y="796.5" width="12.0" height="3" fill="#80c9ff" stroke="#0b6cba" /><rect x="1026.0" y="831.0" width="12.0" height="3" fill="#ff3c3c" stroke="#c71f1f" /><rect x="1039.0" y="831.0" width="12.0" height="3" fill="#35df39" stroke="#03aa10" /><rect x="1026.0" y="865.5" width="12.0" height="3" fill="#ff3c3c" stroke="#c71f1f" /><rect x="1052.0" y="865.5" width="12.0" height="3" fill="#80c9ff" stroke="#0b6cba" /><rect x="1026.0" y="900.0" width="12.0" height="3" fill="#ff3c3c" stroke="#c71f1f" /><rect x="1039.0" y="900.0" width="12.0" height="3" fill="#35df39" stroke="#03aa10" /><rect x="1026.0" y="935.0" width="12.0" height="3" fill="#ff3c3c" stroke="#c71f1f" /><rect x="1052.0" y="935.0" width="12.0" height="3" fill="#80c9ff" stroke="#0b6cba" /><rect x="1065.0" y="1004.0" width="12.0" height="3" fill="#fff874" stroke="#eb9c26" /><rect x="1078.0" y="1038.5" width="12.0" height="3" fill="#ff83f4" stroke="#d002bc" /><rect x="1065.0" y="1073.5" width="12.0" height="3" fill="#fff874" stroke="#eb9c26" /><rect x="1153.0" y="0.0" width="12.0" height="3" fill="#35df39" stroke="#03aa10" /><rect x="1166.0" y="34.5" width="12.0" height="3" fill="#80c9ff" stroke="#0b6cba" /><rect x="1179.0" y="69.0" width="12.0" height="3" fill="#fff874" stroke="#eb9c26" /><rect x="1192.0" y="104.0" width="12.0" height="3" fill="#ff83f4" stroke="#d002bc" /><rect x="1179.0" y="173.0" width="12.0" height="3" fill="#fff874" stroke="#eb9c26" /><rect x="1140.0" y="242.0" width="12.0" height="3" fill="#ff3c3c" stroke="#c71f1f" /><rect x="1140.0" y="311.5" width="12.0" height="3" fill="#ff3c3c" stroke="#c71f1f" /><rect x="1153.0" y="311.5" width="12.0" height="3" fill="#35df39" stroke="#03aa10" /><rect x="1140.0" y="346.0" width="12.0" height="3" fill="#ff3c3c" stroke="#c71f1f" /><rect x="1140.0" y="380.5" width="12.0" height="3" fill="#ff3c3c" stroke="#c71f1f" /><rect x="1153.0" y="380.5" width="12.0" height="3" fill="#35df39" stroke="#03aa10" /><rect x="1140.0" y="415.5" width="12.0" height="3" fill="#ff3c3c" stroke="#c71f1f" /><rect x="1140.0" y="450.0" width="12.0" height="3" fill="#ff3c3c" stroke="#c71f1f" /><rect x="1166.0" y="450.0" width="12.0" height="3" fill="#80c9ff" stroke="#0b6cba" /><rect x="1140.0" y="484.5" width="12.0" height="3" fill="#ff3c3c" stroke="#c71f1f" /><rect x="1140.0" y="519.0" width="12.0" height="3" fill="#ff3c3c" stroke="#c71f1f" /><rect x="1166.0" y="519.0" width="12.0" height="3" fill="#80c9ff" stroke="#0b6cba" /><rect x="1179.0" y="554.0" width="12.0" height="3" fill="#fff874" stroke="#eb9c26" /><rect x="1179.0" y="588.5" width="12.0" height="3" fill="#fff874" stroke="#eb9c26" /><rect x="1192.0" y="588.5" width="12.0" height="3" fill="#ff83f4" stroke="#d002bc" /><rect x="1179.0" y="623.0" width="12.0" height="3" fill="#fff874" stroke="#eb9c26" /><rect x="1179.0" y="657.5" width="12.0" height="3" fill="#fff874" stroke="#eb9c26" /><rect x="1192.0" y="657.5" width="12.0" height="3" fill="#ff83f4" stroke="#d002bc" /><rect x="1179.0" y="692.0" width="12.0" height="3" fill="#fff874" stroke="#eb9c26" /><rect x="1179.0" y="727.0" width="12.0" height="3" fill="#fff874" stroke="#eb9c26" /><rect x="1192.0" y="727.0" width="12.0" height="3" fill="#ff83f4" stroke="#d002bc" /><rect x="1179.0" y="761.5" width="12.0" height="3" fill="#fff874" stroke="#eb9c26" /><rect x="1179.0" y="796.0" width="12.0" height="3" fill="#fff874" stroke="#eb9c26" /><rect x="1192.0" y="796.0" width="12.0" height="3" fill="#ff83f4" stroke="#d002bc" /><rect x="1140.0" y="830.5" width="12.0" height="3" fill="#ff3c3c" stroke="#c71f1f" /><rect x="1140.0" y="865.5" width="12.0" height="3" fill="#ff3c3c" stroke="#c71f1f" /><rect x="1153.0" y="865.5" width="12.0" height="3" fill="#35df39" stroke="#03aa10" /><rect x="1140.0" y="900.0" width="12.0" height="3" fill="#ff3c3c" stroke="#c71f1f" /><rect x="1140.0" y="934.5" width="12.0" height="3" fill="#ff3c3c" stroke="#c71f1f" /><rect x="1153.0" y="934.5" width="12.0" height="3" fill="#35df39" stroke="#03aa10" /><rect x="1140.0" y="969.0" width="12.0" height="3" fill="#ff3c3c" stroke="#c71f1f" /><rect x="1140.0" y="1004.0" width="12.0" height="3" fill="#ff3c3c" stroke="#c71f1f" /><rect x="1166.0" y="1004.0" width="12.0" height="3" fill="#80c9ff" stroke="#0b6cba" /><rect x="1140.0" y="1038.5" width="12.0" height="3" fill="#ff3c3c" stroke="#c71f1f" /><rect x="1140.0" y="1073.0" width="12.0" height="3" fill="#ff3c3c" stroke="#c71f1f" /><rect x="1166.0" y="1073.0" width="12.0" height="3" fill="#80c9ff" stroke="#0b6cba" /><rect x="1293.0" y="0.0" width="12.0" height="3" fill="#fff874" stroke="#eb9c26" /><rect x="1293.0" y="34.5" width="12.0" height="3" fill="#fff874" stroke="#eb9c26" /><rect x="1306.0" y="34.5" width="12.0" height="3" fill="#ff83f4" stroke="#d002bc" /><rect x="1293.0" y="69.5" width="12.0" height="3" fill="#fff874" stroke="#eb9c26" /><rect x="1293.0" y="104.0" width="12.0" height="3" fill="#fff874" stroke="#eb9c26" /><rect x="1306.0" y="104.0" width="12.0" height="3" fill="#ff83f4" stroke="#d002bc" /><rect x="1293.0" y="138.5" width="12.0" height="3" fill="#fff874" stroke="#eb9c26" /><rect x="1293.0" y="173.0" width="12.0" height="3" fill="#fff874" stroke="#eb9c26" /><rect x="1306.0" y="173.0" width="12.0" height="3" fill="#ff83f4" stroke="#d002bc" /><rect x="1293.0" y="208.0" width="12.0" height="3" fill="#fff874" stroke="#eb9c26" /><rect x="1280.0" y="242.5" width="12.0" height="3" fill="#80c9ff" stroke="#0b6cba" /><rect x="1280.0" y="311.5" width="12.0" height="3" fill="#80c9ff" stroke="#0b6cba" /><rect x="1293.0" y="311.5" width="12.0" height="3" fill="#fff874" stroke="#eb9c26" /><rect x="1280.0" y="346.5" width="12.0" height="3" fill="#80c9ff" stroke="#0b6cba" /><rect x="1280.0" y="381.0" width="12.0" height="3" fill="#80c9ff" stroke="#0b6cba" /><rect x="1293.0" y="381.0" width="12.0" height="3" fill="#fff874" stroke="#eb9c26" /><rect x="1267.0" y="415.5" width="12.0" height="3" fill="#35df39" stroke="#03aa10" /><rect x="1267.0" y="450.0" width="12.0" height="3" fill="#35df39" stroke="#03aa10" /><rect x="1280.0" y="450.0" width="12.0" height="3" fill="#80c9ff" stroke="#0b6cba" /><rect x="1267.0" y="484.5" width="12.0" height="3" fill="#35df39" stroke="#03aa10" /><rect x="1254.0" y="519.5" width="12.0" height="3" fill="#ff3c3c" stroke="#c71f1f" /><rect x="1254.0" y="588.5" width="12.0" height="3" fill="#ff3c3c" stroke="#c71f1f" /><rect x="1280.0" y="588.5" width="12.0" height="3" fill="#80c9ff" stroke="#0b6cba" /><rect x="1254.0" y="623.0" width="12.0" height="3" fill="#ff3c3c" stroke="#c71f1f" /><rect x="1254.0" y="658.0" width="12.0" height="3" fill="#ff3c3c" stroke="#c71f1f" /><rect x="1280.0" y="658.0" width="12.0" height="3" fill="#80c9ff" stroke="#0b6cba" /><rect x="1267.0" y="692.5" width="12.0" height="3" fill="#35df39" stroke="#03aa10" /><rect x="1267.0" y="727.0" width="12.0" height="3" fill="#35df39" stroke="#03aa10" /><rect x="1280.0" y="727.0" width="12.0" height="3" fill="#80c9ff" stroke="#0b6cba" /><rect x="1267.0" y="761.5" width="12.0" height="3" fill="#35df39" stroke="#03aa10" /><rect x="1254.0" y="796.5" width="12.0" height="3" fill="#ff3c3c" stroke="#c71f1f" /><rect x="1280.0" y="796.5" width="12.0" height="3" fill="#80c9ff" stroke="#0b6cba" /><rect x="1254.0" y="865.5" width="12.0" height="3" fill="#ff3c3c" stroke="#c71f1f" /><rect x="1280.0" y="865.5" width="12.0" height="3" fill="#80c9ff" stroke="#0b6cba" /><rect x="1267.0" y="900.0" width="12.0" height="3" fill="#35df39" stroke="#03aa10" /><rect x="1280.0" y="900.0" width="12.0" height="3" fill="#80c9ff" stroke="#0b6cba" /><rect x="1267.0" y="934.5" width="12.0" height="3" fill="#35df39" stroke="#03aa10" /><rect x="1280.0" y="934.5" width="12.0" height="3" fill="#80c9ff" stroke="#0b6cba" /><rect x="1293.0" y="969.5" width="12.0" height="3" fill="#fff874" stroke="#eb9c26" /><rect x="1280.0" y="1004.0" width="12.0" height="3" fill="#80c9ff" stroke="#0b6cba" /><rect x="1306.0" y="1038.5" width="12.0" height="3" fill="#ff83f4" stroke="#d002bc" /><rect x="1254" y="1038.5" width="64" height="3" fill="#ff72e7" stroke="#7c7c7c" /><rect x="1254.0" y="1073.0" width="12.0" height="3" fill="#ff3c3c" stroke="#c71f1f" /><rect x="1267.0" y="1073.0" width="12.0" height="3" fill="#35df39" stroke="#03aa10" /><rect x="1368.0" y="34.5" width="12.0" height="3" fill="#ff3c3c" stroke="#c71f1f" /><rect x="1381.0" y="34.5" width="12.0" height="3" fill="#35df39" stroke="#03aa10" /><rect x="1368.0" y="69.0" width="12.0" height="3" fill="#ff3c3c" stroke="#c71f1f" /><rect x="1381.0" y="69.0" width="12.0" height="3" fill="#35df39" stroke="#03aa10" /><rect x="1381.0" y="276.5" width="12.0" height="3" fill="#35df39" stroke="#03aa10" /><rect x="1394.0" y="276.5" width="12.0" height="3" fill="#80c9ff" stroke="#0b6cba" /><rect x="1381.0" y="380.5" width="12.0" height="3" fill="#35df39" stroke="#03aa10" /><rect x="1394.0" y="380.5" width="12.0" height="3" fill="#80c9ff" stroke="#0b6cba" /><rect x="1368.0" y="519.0" width="12.0" height="3" fill="#ff3c3c" stroke="#c71f1f" /><rect x="1381.0" y="553.5" width="12.0" height="3" fill="#35df39" stroke="#03aa10" /><rect x="1394.0" y="605.5" width="12.0" height="3" fill="#80c9ff" stroke="#0b6cba" /><rect x="1394.0" y="657.5" width="12.0" height="3" fill="#80c9ff" stroke="#0b6cba" /><rect x="1407.0" y="657.5" width="12.0" height="3" fill="#fff874" stroke="#eb9c26" /><rect x="1394.0" y="726.5" width="12.0" height="3" fill="#80c9ff" stroke="#0b6cba" /><rect x="1368.0" y="761.5" width="12.0" height="3" fill="#ff3c3c" stroke="#c71f1f" /><rect x="1381.0" y="830.5" width="12.0" height="3" fill="#35df39" stroke="#03aa10" /><rect x="1394.0" y="830.5" width="12.0" height="3" fill="#80c9ff" stroke="#0b6cba" /><rect x="1381.0" y="934.5" width="12.0" height="3" fill="#35df39" stroke="#03aa10" /><rect x="1394.0" y="934.5" width="12.0" height="3" fill="#80c9ff" stroke="#0b6cba" /><rect x="1521.0" y="0.0" width="12.0" height="3" fill="#fff874" stroke="#eb9c26" /><rect x="1508.0" y="52.0" width="12.0" height="3" fill="#80c9ff" stroke="#0b6cba" /><rect x="1534.0" y="104.0" width="12.0" height="3" fill="#ff83f4" stroke="#d002bc" /><rect x="1521.0" y="173.0" width="12.0" height="3" fill="#fff874" stroke="#eb9c26" /><rect x="1508.0" y="207.5" width="12.0" height="3" fill="#80c9ff" stroke="#0b6cba" /><rect x="1495.0" y="277.0" width="12.0" height="3" fill="#35df39" stroke="#03aa10" /><rect x="1508.0" y="277.0" width="12.0" height="3" fill="#80c9ff" stroke="#0b6cba" /><rect x="1495.0" y="381.0" width="12.0" height="3" fill="#35df39" stroke="#03aa10" /><rect x="1508.0" y="381.0" width="12.0" height="3" fill="#80c9ff" stroke="#0b6cba" /><rect x="1482.0" y="519.0" width="12.0" height="3" fill="#ff3c3c" stroke="#c71f1f" /><rect x="1495.0" y="554.0" width="12.0" height="3" fill="#35df39" stroke="#03aa10" /><rect x="1508.0" y="606.0" width="12.0" height="3" fill="#80c9ff" stroke="#0b6cba" /><rect x="1508.0" y="657.5" width="12.0" height="3" fill="#80c9ff" stroke="#0b6cba" /><rect x="1521.0" y="657.5" width="12.0" height="3" fill="#fff874" stroke="#eb9c26" /><rect x="1508.0" y="727.0" width="12.0" height="3" fill="#80c9ff" stroke="#0b6cba" /><rect x="1482.0" y="761.5" width="12.0" height="3" fill="#ff3c3c" stroke="#c71f1f" /><rect x="1508.0" y="831.0" width="12.0" height="3" fill="#80c9ff" stroke="#0b6cba" /><rect x="1521.0" y="831.0" width="12.0" height="3" fill="#fff874" stroke="#eb9c26" /><rect x="1508.0" y="934.5" width="12.0" height="3" fill="#80c9ff" stroke="#0b6cba" /><rect x="1521.0" y="934.5" width="12.0" height="3" fill="#fff874" stroke="#eb9c26" /><rect x="1495.0" y="1073.0" width="12.0" height="3" fill="#35df39" stroke="#03aa10" /><rect x="1622.0" y="0.0" width="12.0" height="3" fill="#80c9ff" stroke="#0b6cba" /><rect x="1635.0" y="52.0" width="12.0" height="3" fill="#fff874" stroke="#eb9c26" /><rect x="1622.0" y="104.0" width="12.0" height="3" fill="#80c9ff" stroke="#0b6cba" /><rect x="1609.0" y="173.5" width="12.0" height="3" fill="#35df39" stroke="#03aa10" /><rect x="1596.0" y="208.0" width="12.0" height="3" fill="#ff3c3c" stroke="#c71f1f" /><rect x="1609.0" y="277.0" width="12.0" height="3" fill="#35df39" stroke="#03aa10" /><rect x="1622.0" y="311.5" width="12.0" height="3" fill="#80c9ff" stroke="#0b6cba" /></svg>