<?xml version="1.0" encoding="UTF-8"?><svg xmlns="http://www.w3.org/2000/svg" xmlns:xlink="http://www.w3.org/1999/xlink"     width="2394" height="805.5" viewBox="0 0 2394 805.5"><defs></defs><rect x="0" y="0" width="64" height="791.0" fill="black" /><rect x="0" y="0.0" width="64" height="1" fill="white" fill-opacity="0.5" /><text x="74" y="14.0" font-size="14" fill="white" font-family="monospace" dominant-baseline="ideographic">1</text><rect x="0" y="49.5" width="64" height="1" fill="white" fill-opacity="0.2" /><rect x="0" y="99.0" width="64" height="1" fill="white" fill-opacity="0.2" /><rect x="0" y="148.5" width="64" height="1" fill="white" fill-opacity="0.2" /><rect x="0" y="198.0" width="64" height="1" fill="white" fill-opacity="0.5" /><text x="74" y="212.0" font-size="14" fill="white" font-family="monospace" dominant-baseline="ideographic">2</text><rect x="0" y="247.5" width="64" height="1" fill="white" fill-opacity="0.2" /><rect x="0" y="296.5" width="64" height="1" fill="white" fill-opacity="0.2" /><rect x="0" y="346.0" width="64" height="1" fill="white" fill-opacity="0.2" /><rect x="0" y="395.5" width="64" height="1" fill="white" fill-opacity="0.5" /><text x="74" y="409.5" font-size="14" fill="white" font-family="monospace" dominant-baseline="ideographic">3</text><rect x="0" y="445.0" width="64" height="1" fill="white" fill-opacity="0.2" /><rect x="0" y="494.5" width="64" height="1" fill="white" fill-opacity="0.2" /><rect x="0" y="544.0" width="64" height="1" fill="white" fill-opacity="0.2" /><rect x="0" y="593.5" width="64" height="1" fill="white" fill-opacity="0.5" /><text x="74" y="607.5" font-size="14" fill="white" font-family="monospace" dominant-baseline="ideographic">4</text><rect x="0" y="643.0" width="64" height="1" fill="white" fill-opacity="0.2" /><rect x="0" y="692.5" width="64" height="1" fill="white" fill-opacity="0.2" /><rect x="0" y="742.0" width="64" height="1" fill="white" fill-opacity="0.2" /><rect x="0" y="791.0" width="64" height="1" fill="white" fill-opacity="0.5" /><text x="74" y="805.0" font-size="14" fill="white" font-family="monospace" dominant-baseline="ideographic">5</text><rect x="0" y="0.0" width="64" height="1" fill="aqua" fill-opacity="0.75" /><text x="0" y="14.0" font-size="14" fill="aqua" fill-opacity="0.75" font-family="monospace">Intro</text><rect x="0" y="0.0" width="64" height="1" fill="lime" fill-opacity="0.75" /><text x="74" y="28.0" font-size="14" fill="lime" font-family="monospace" dominant-baseline="ideographic">182</text><rect x="114" y="0" width="64" height="791.5" fill="black" /><rect x="114" y="0.0" width="64" height="1" fill="white" fill-opacity="0.5" /><text x="188" y="14.0" font-size="14" fill="white" font-family="monospace" dominant-baseline="ideographic">5</text><rect x="114" y="49.5" width="64" height="1" fill="white" fill-opacity="0.2" /><rect x="114" y="99.0" width="64" height="1" fill="white" fill-opacity="0.2" /><rect x="114" y="148.5" width="64" height="1" fill="white" fill-opacity="0.2" /><rect x="114" y="198.0" width="64" height="1" fill="white" fill-opacity="0.5" /><text x="188" y="212.0" font-size="14" fill="white" font-family="monospace" dominant-baseline="ideographic">6</text><rect x="114" y="247.5" width="64" height="1" fill="white" fill-opacity="0.2" /><rect x="114" y="297.0" width="64" height="1" fill="white" fill-opacity="0.2" /><rect x="114" y="346.5" width="64" height="1" fill="white" fill-opacity="0.2" /><rect x="114" y="396.0" width="64" height="1" fill="white" fill-opacity="0.5" /><text x="188" y="410.0" font-size="14" fill="white" font-family="monospace" dominant-baseline="ideographic">7</text><rect x="114" y="445.5" width="64" height="1" fill="white" fill-opacity="0.2" /><rect x="114" y="494.5" width="64" height="1" fill="white" fill-opacity="0.2" /><rect x="114" y="544.0" width="64" height="1" fill="white" fill-opacity="0.2" /><rect x="114" y="593.5" width="64" height="1" fill="white" fill-opacity="0.5" /><text x="188" y="607.5" font-size="14" fill="white" font-family="monospace" dominant-baseline="ideographic">8</text><rect x="114" y="643.0" width="64" height="1" fill="white" fill-opacity="0.2" /><rect x="114" y="692.5" width="64" height="1" fill="white" fill-opacity="0.2" /><rect x="114" y="742.0" width="64" height="1" fill="white" fill-opacity="0.2" /><rect x="114" y="791.5" width="64" height="1" fill="white" fill-opacity="0.5" /><text x="188" y="805.5" font-size="14" fill="white" font-family="monospace" dominant-baseline="ideographic">9</text><rect x="228" y="0" width="64" height="791.0" fill="black" /><rect x="228" y="0.0" width="64" height="1" fill="white" fill-opacity="0.5" /><text x="302" y="14.0" font-size="14" fill="white" font-family="monospace" dominant-baseline="ideographic">9</text><rect x="228" y="49.5" width="64" height="1" fill="white" fill-opacity="0.2" /><rect x="228" y="99.0" width="64" height="1" fill="white" fill-opacity="0.2" /><rect x="228" y="148.5" width="64" height="1" fill="white" fill-opacity="0.2" /><rect x="228" y="197.5" width="64" height="1" fill="white" fill-opacity="0.5" /><text x="302" y="211.5" font-size="14" fill="white" font-family="monospace" dominant-baseline="ideographic">10</text><rect x="228" y="247.0" width="64" height="1" fill="white" fill-opacity="0.2" /><rect x="228" y="296.5" width="64" height="1" fill="white" fill-opacity="0.2" /><rect x="228" y="346.0" width="64" height="1" fill="white" fill-opacity="0.2" /><rect x="228" y="395.5" width="64" height="1" fill="white" fill-opacity="0.5" /><text x="302" y="409.5" font-size="14" fill="white" font-family="monospace" dominant-baseline="ideographic">11</text><rect x="228" y="445.0" width="64" height="1" fill="white" fill-opacity="0.2" /><rect x="228" y="494.5" width="64" height="1" fill="white" fill-opacity="0.2" /><rect x="228" y="544.0" width="64" height="1" fill="white" fill-opacity="0.2" /><rect x="228" y="593.5" width="64" height="1" fill="white" fill-opacity="0.5" /><text x="302" y="607.5" font-size="14" fill="white" font-family="monospace" dominant-baseline="ideographic">12</text><rect x="228" y="643.0" width="64" height="1" fill="white" fill-opacity="0.2" /><rect x="228" y="692.0" width="64" height="1" fill="white" fill-opacity="0.2" /><rect x="228" y="741.5" width="64" height="1" fill="white" fill-opacity="0.2" /><rect x="228" y="791.0" width="64" height="1" fill="white" fill-opacity="0.5" /><text x="302" y="805.0" font-size="14" fill="white" font-family="monospace" dominant-baseline="ideographic">13</text><rect x="228" y="395.54999999999995" width="64" height="1" fill="aqua" fill-opacity="0.75" /><text x="228" y="409.54999999999995" font-size="14" fill="aqua" fill-opacity="0.75" font-family="monospace">Special</text><rect x="342" y="0" width="64" height="791.5" fill="black" /><rect x="342" y="0.0" width="64" height="1" fill="white" fill-opacity="0.5" /><text x="416" y="14.0" font-size="14" fill="white" font-family="monospace" dominant-baseline="ideographic">13</text><rect x="342" y="49.5" width="64" height="1" fill="white" fill-opacity="0.2" /><rect x="342" y="99.0" width="64" height="1" fill="white" fill-opacity="0.2" /><rect x="342" y="148.5" width="64" height="1" fill="white" fill-opacity="0.2" /><rect x="342" y="198.0" width="64" height="1" fill="white" fill-opacity="0.5" /><text x="416" y="212.0" font-size="14" fill="white" font-family="monospace" dominant-baseline="ideographic">14</text><rect x="342" y="247.5" width="64" height="1" fill="white" fill-opacity="0.2" /><rect x="342" y="297.0" width="64" height="1" fill="white" fill-opacity="0.2" /><rect x="342" y="346.5" width="64" height="1" fill="white" fill-opacity="0.2" /><rect x="342" y="395.5" width="64" height="1" fill="white" fill-opacity="0.5" /><text x="416" y="409.5" font-size="14" fill="white" font-family="monospace" dominant-baseline="ideographic">15</text><rect x="342" y="445.0" width="64" height="1" fill="white" fill-opacity="0.2" /><rect x="342" y="494.5" width="64" height="1" fill="white" fill-opacity="0.2" /><rect x="342" y="544.0" width="64" height="1" fill="white" fill-opacity="0.2" /><rect x="342" y="593.5" width="64" height="1" fill="white" fill-opacity="0.5" /><text x="416" y="607.5" font-size="14" fill="white" font-family="monospace" dominant-baseline="ideographic">16</text><rect x="342" y="643.0" width="64" height="1" fill="white" fill-opacity="0.2" /><rect x="342" y="692.5" width="64" height="1" fill="white" fill-opacity="0.2" /><rect x="342" y="742.0" width="64" height="1" fill="white" fill-opacity="0.2" /><rect x="342" y="791.5" width="64" height="1" fill="white" fill-opacity="0.5" /><text x="416" y="805.5" font-size="14" fill="white" font-family="monospace" dominant-baseline="ideographic">17</text><rect x="456" y="0" width="64" height="791.0" fill="black" /><rect x="456" y="0.0" width="64" height="1" fill="white" fill-opacity="0.5" /><text x="530" y="14.0" font-size="14" fill="white" font-family="monospace" dominant-baseline="ideographic">17</text><rect x="456" y="49.5" width="64" height="1" fill="white" fill-opacity="0.2" /><rect x="456" y="98.5" width="64" height="1" fill="white" fill-opacity="0.2" /><rect x="456" y="148.0" width="64" height="1" fill="white" fill-opacity="0.2" /><rect x="456" y="197.5" width="64" height="1" fill="white" fill-opacity="0.5" /><text x="530" y="211.5" font-size="14" fill="white" font-family="monospace" dominant-baseline="ideographic">18</text><rect x="456" y="247.0" width="64" height="1" fill="white" fill-opacity="0.2" /><rect x="456" y="296.5" width="64" height="1" fill="white" fill-opacity="0.2" /><rect x="456" y="346.0" width="64" height="1" fill="white" fill-opacity="0.2" /><rect x="456" y="395.5" width="64" height="1" fill="white" fill-opacity="0.5" /><text x="530" y="409.5" font-size="14" fill="white" font-family="monospace" dominant-baseline="ideographic">19</text><rect x="456" y="445.0" width="64" height="1" fill="white" fill-opacity="0.2" /><rect x="456" y="494.5" width="64" height="1" fill="white" fill-opacity="0.2" /><rect x="456" y="544.0" width="64" height="1" fill="white" fill-opacity="0.2" /><rect x="456" y="593.0" width="64" height="1" fill="white" fill-opacity="0.5" /><text x="530" y="607.0" font-size="14" fill="white" font-family="monospace" dominant-baseline="ideographic">20</text><rect x="456" y="642.5" width="64" height="1" fill="white" fill-opacity="0.2" /><rect x="456" y="692.0" width="64" height="1" fill="white" fill-opacity="0.2" /><rect x="456" y="741.5" width="64" height="1" fill="white" fill-opacity="0.2" /><rect x="456" y="791.0" width="64" height="1" fill="white" fill-opacity="0.5" /><text x="530" y="805.0" font-size="14" fill="white" font-family="monospace" dominant-baseline="ideographic">21</text><rect x="570" y="0" width="64" height="791.0" fill="black" /><rect x="570" y="0.0" width="64" height="1" fill="white" fill-opacity="0.5" /><text x="644" y="14.0" font-size="14" fill="white" font-family="monospace" dominant-baseline="ideographic">21</text><rect x="570" y="49.5" width="64" height="1" fill="white" fill-opacity="0.2" /><rect x="570" y="99.0" width="64" height="1" fill="white" fill-opacity="0.2" /><rect x="570" y="148.5" width="64" height="1" fill="white" fill-opacity="0.2" /><rect x="570" y="198.0" width="64" height="1" fill="white" fill-opacity="0.5" /><text x="644" y="212.0" font-size="14" fill="white" font-family="monospace" dominant-baseline="ideographic">22</text><rect x="570" y="247.5" width="64" height="1" fill="white" fill-opacity="0.2" /><rect x="570" y="296.5" width="64" height="1" fill="white" fill-opacity="0.2" /><rect x="570" y="346.0" width="64" height="1" fill="white" fill-opacity="0.2" /><rect x="570" y="395.5" width="64" height="1" fill="white" fill-opacity="0.5" /><text x="644" y="409.5" font-size="14" fill="white" font-family="monospace" dominant-baseline="ideographic">23</text><rect x="570" y="445.0" width="64" height="1" fill="white" fill-opacity="0.2" /><rect x="570" y="494.5" width="64" height="1" fill="white" fill-opacity="0.2" /><rect x="570" y="544.0" width="64" height="1" fill="white" fill-opacity="0.2" /><rect x="570" y="593.5" width="64" height="1" fill="white" fill-opacity="0.5" /><text x="644" y="607.5" font-size="14" fill="white" font-family="monospace" dominant-baseline="ideographic">24</text><rect x="570" y="643.0" width="64" height="1" fill="white" fill-opacity="0.2" /><rect x="570" y="692.5" width="64" height="1" fill="white" fill-opacity="0.2" /><rect x="570" y="742.0" width="64" height="1" fill="white" fill-opacity="0.2" /><rect x="570" y="791.0" width="64" height="1" fill="white" fill-opacity="0.5" /><text x="644" y="805.0" font-size="14" fill="white" font-family="monospace" dominant-baseline="ideographic">25</text><rect x="684" y="0" width="64" height="791.5" fill="black" /><rect x="684" y="0.0" width="64" height="1" fill="white" fill-opacity="0.5" /><text x="758" y="14.0" font-size="14" fill="white" font-family="monospace" dominant-baseline="ideographic">25</text><rect x="684" y="49.5" width="64" height="1" fill="white" fill-opacity="0.2" /><rect x="684" y="99.0" width="64" height="1" fill="white" fill-opacity="0.2" /><rect x="684" y="148.5" width="64" height="1" fill="white" fill-opacity="0.2" /><rect x="684" y="198.0" width="64" height="1" fill="white" fill-opacity="0.5" /><text x="758" y="212.0" font-size="14" fill="white" font-family="monospace" dominant-baseline="ideographic">26</text><rect x="684" y="247.5" width="64" height="1" fill="white" fill-opacity="0.2" /><rect x="684" y="297.0" width="64" height="1" fill="white" fill-opacity="0.2" /><rect x="684" y="346.5" width="64" height="1" fill="white" fill-opacity="0.2" /><rect x="684" y="396.0" width="64" height="1" fill="white" fill-opacity="0.5" /><text x="758" y="410.0" font-size="14" fill="white" font-family="monospace" dominant-baseline="ideographic">27</text><rect x="684" y="445.5" width="64" height="1" fill="white" fill-opacity="0.2" /><rect x="684" y="495.0" width="64" height="1" fill="white" fill-opacity="0.2" /><rect x="684" y="544.0" width="64" height="1" fill="white" fill-opacity="0.2" /><rect x="684" y="593.5" width="64" height="1" fill="white" fill-opacity="0.5" /><text x="758" y="607.5" font-size="14" fill="white" font-family="monospace" dominant-baseline="ideographic">28</text><rect x="684" y="643.0" width="64" height="1" fill="white" fill-opacity="0.2" /><rect x="684" y="692.5" width="64" height="1" fill="white" fill-opacity="0.2" /><rect x="684" y="742.0" width="64" height="1" fill="white" fill-opacity="0.2" /><rect x="684" y="791.5" width="64" height="1" fill="white" fill-opacity="0.5" /><text x="758" y="805.5" font-size="14" fill="white" font-family="monospace" dominant-baseline="ideographic">29</text><rect x="684" y="593.5999999999995" width="64" height="1" fill="aqua" fill-opacity="0.75" /><text x="684" y="607.5999999999995" font-size="14" fill="aqua" fill-opacity="0.75" font-family="monospace">Phrase B</text><rect x="798" y="0" width="64" height="791.0" fill="black" /><rect x="798" y="0.0" width="64" height="1" fill="white" fill-opacity="0.5" /><text x="872" y="14.0" font-size="14" fill="white" font-family="monospace" dominant-baseline="ideographic">29</text><rect x="798" y="49.5" width="64" height="1" fill="white" fill-opacity="0.2" /><rect x="798" y="99.0" width="64" height="1" fill="white" fill-opacity="0.2" /><rect x="798" y="148.5" width="64" height="1" fill="white" fill-opacity="0.2" /><rect x="798" y="198.0" width="64" height="1" fill="white" fill-opacity="0.5" /><text x="872" y="212.0" font-size="14" fill="white" font-family="monospace" dominant-baseline="ideographic">30</text><rect x="798" y="247.0" width="64" height="1" fill="white" fill-opacity="0.2" /><rect x="798" y="296.5" width="64" height="1" fill="white" fill-opacity="0.2" /><rect x="798" y="346.0" width="64" height="1" fill="white" fill-opacity="0.2" /><rect x="798" y="395.5" width="64" height="1" fill="white" fill-opacity="0.5" /><text x="872" y="409.5" font-size="14" fill="white" font-family="monospace" dominant-baseline="ideographic">31</text><rect x="798" y="445.0" width="64" height="1" fill="white" fill-opacity="0.2" /><rect x="798" y="494.5" width="64" height="1" fill="white" fill-opacity="0.2" /><rect x="798" y="544.0" width="64" height="1" fill="white" fill-opacity="0.2" /><rect x="798" y="593.5" width="64" height="1" fill="white" fill-opacity="0.5" /><text x="872" y="607.5" font-size="14" fill="white" font-family="monospace" dominant-baseline="ideographic">32</text><rect x="798" y="643.0" width="64" height="1" fill="white" fill-opacity="0.2" /><rect x="798" y="692.5" width="64" height="1" fill="white" fill-opacity="0.2" /><rect x="798" y="741.5" width="64" height="1" fill="white" fill-opacity="0.2" /><rect x="798" y="791.0" width="64" height="1" fill="white" fill-opacity="0.5" /><text x="872" y="805.0" font-size="14" fill="white" font-family="monospace" dominant-baseline="ideographic">33</text><rect x="912" y="0" width="64" height="791.5" fill="black" /><rect x="912" y="0.0" width="64" height="1" fill="white" fill-opacity="0.5" /><text x="986" y="14.0" font-size="14" fill="white" font-family="monospace" dominant-baseline="ideographic">33</text><rect x="912" y="49.5" width="64" height="1" fill="white" fill-opacity="0.2" /><rect x="912" y="99.0" width="64" height="1" fill="white" fill-opacity="0.2" /><rect x="912" y="148.5" width="64" height="1" fill="white" fill-opacity="0.2" /><rect x="912" y="198.0" width="64" height="1" fill="white" fill-opacity="0.5" /><text x="986" y="212.0" font-size="14" fill="white" font-family="monospace" dominant-baseline="ideographic">34</text><rect x="912" y="247.5" width="64" height="1" fill="white" fill-opacity="0.2" /><rect x="912" y="297.0" width="64" height="1" fill="white" fill-opacity="0.2" /><rect x="912" y="346.5" width="64" height="1" fill="white" fill-opacity="0.2" /><rect x="912" y="396.0" width="64" height="1" fill="white" fill-opacity="0.5" /><text x="986" y="410.0" font-size="14" fill="white" font-family="monospace" dominant-baseline="ideographic">35</text><rect x="912" y="445.0" width="64" height="1" fill="white" fill-opacity="0.2" /><rect x="912" y="494.5" width="64" height="1" fill="white" fill-opacity="0.2" /><rect x="912" y="544.0" width="64" height="1" fill="white" fill-opacity="0.2" /><rect x="912" y="593.5" width="64" height="1" fill="white" fill-opacity="0.5" /><text x="986" y="607.5" font-size="14" fill="white" font-family="monospace" dominant-baseline="ideographic">36</text><rect x="912" y="643.0" width="64" height="1" fill="white" fill-opacity="0.2" /><rect x="912" y="692.5" width="64" height="1" fill="white" fill-opacity="0.2" /><rect x="912" y="742.0" width="64" height="1" fill="white" fill-opacity="0.2" /><rect x="912" y="791.5" width="64" height="1" fill="white" fill-opacity="0.5" /><text x="986" y="805.5" font-size="14" fill="white" font-family="monospace" dominant-baseline="ideographic">37</text><rect x="912" y="593.5999999999995" width="64" height="1" fill="aqua" fill-opacity="0.75" /><text x="912" y="607.5999999999995" font-size="14" fill="aqua" fill-opacity="0.75" font-family="monospace">Phrase C</text><rect x="1026" y="0" width="64" height="791.0" fill="black" /><rect x="1026" y="0.0" width="64" height="1" fill="white" fill-opacity="0.5" /><text x="1100" y="14.0" font-size="14" fill="white" font-family="monospace" dominant-baseline="ideographic">37</text><rect x="1026" y="49.5" width="64" height="1" fill="white" fill-opacity="0.2" /><rect x="1026" y="99.0" width="64" height="1" fill="white" fill-opacity="0.2" /><rect x="1026" y="148.0" width="64" height="1" fill="white" fill-opacity="0.2" /><rect x="1026" y="197.5" width="64" height="1" fill="white" fill-opacity="0.5" /><text x="1100" y="211.5" font-size="14" fill="white" font-family="monospace" dominant-baseline="ideographic">38</text><rect x="1026" y="247.0" width="64" height="1" fill="white" fill-opacity="0.2" /><rect x="1026" y="296.5" width="64" height="1" fill="white" fill-opacity="0.2" /><rect x="1026" y="346.0" width="64" height="1" fill="white" fill-opacity="0.2" /><rect x="1026" y="395.5" width="64" height="1" fill="white" fill-opacity="0.5" /><text x="1100" y="409.5" font-size="14" fill="white" font-family="monospace" dominant-baseline="ideographic">39</text><rect x="1026" y="445.0" width="64" height="1" fill="white" fill-opacity="0.2" /><rect x="1026" y="494.5" width="64" height="1" fill="white" fill-opacity="0.2" /><rect x="1026" y="544.0" width="64" height="1" fill="white" fill-opacity="0.2" /><rect x="1026" y="593.5" width="64" height="1" fill="white" fill-opacity="0.5" /><text x="1100" y="607.5" font-size="14" fill="white" font-family="monospace" dominant-baseline="ideographic">40</text><rect x="1026" y="642.5" width="64" height="1" fill="white" fill-opacity="0.2" /><rect x="1026" y="692.0" width="64" height="1" fill="white" fill-opacity="0.2" /><rect x="1026" y="741.5" width="64" height="1" fill="white" fill-opacity="0.2" /><rect x="1026" y="791.0" width="64" height="1" fill="white" fill-opacity="0.5" /><text x="1100" y="805.0" font-size="14" fill="white" font-family="monospace" dominant-baseline="ideographic">41</text><rect x="1140" y="0" width="64" height="791.5" fill="black" /><rect x="1140" y="0.0" width="64" height="1" fill="white" fill-opacity="0.5" /><text x="1214" y="14.0" font-size="14" fill="white" font-family="monospace" dominant-baseline="ideographic">41</text><rect x="1140" y="49.5" width="64" height="1" fill="white" fill-opacity="0.2" /><rect x="1140" y="99.0" width="64" height="1" fill="white" fill-opacity="0.2" /><rect x="1140" y="148.5" width="64" height="1" fill="white" fill-opacity="0.2" /><rect x="1140" y="198.0" width="64" height="1" fill="white" fill-opacity="0.5" /><text x="1214" y="212.0" font-size="14" fill="white" font-family="monospace" dominant-baseline="ideographic">42</text><rect x="1140" y="247.5" width="64" height="1" fill="white" fill-opacity="0.2" /><rect x="1140" y="297.0" width="64" height="1" fill="white" fill-opacity="0.2" /><rect x="1140" y="346.0" width="64" height="1" fill="white" fill-opacity="0.2" /><rect x="1140" y="395.5" width="64" height="1" fill="white" fill-opacity="0.5" /><text x="1214" y="409.5" font-size="14" fill="white" font-family="monospace" dominant-baseline="ideographic">43</text><rect x="1140" y="445.0" width="64" height="1" fill="white" fill-opacity="0.2" /><rect x="1140" y="494.5" width="64" height="1" fill="white" fill-opacity="0.2" /><rect x="1140" y="544.0" width="64" height="1" fill="white" fill-opacity="0.2" /><rect x="1140" y="593.5" width="64" height="1" fill="white" fill-opacity="0.5" /><text x="1214" y="607.5" font-size="14" fill="white" font-family="monospace" dominant-baseline="ideographic">44</text><rect x="1140" y="643.0" width="64" height="1" fill="white" fill-opacity="0.2" /><rect x="1140" y="692.5" width="64" height="1" fill="white" fill-opacity="0.2" /><rect x="1140" y="742.0" width="64" height="1" fill="white" fill-opacity="0.2" /><rect x="1140" y="791.5" width="64" height="1" fill="white" fill-opacity="0.5" /><text x="1214" y="805.5" font-size="14" fill="white" font-family="monospace" dominant-baseline="ideographic">45</text><rect x="1254" y="0" width="64" height="782.5" fill="black" /><rect x="1254" y="0.0" width="64" height="1" fill="white" fill-opacity="0.5" /><text x="1328" y="14.0" font-size="14" fill="white" font-family="monospace" dominant-baseline="ideographic">45</text><rect x="1254" y="48.5" width="64" height="1" fill="white" fill-opacity="0.2" /><rect x="1254" y="97.5" width="64" height="1" fill="white" fill-opacity="0.2" /><rect x="1254" y="146.5" width="64" height="1" fill="white" fill-opacity="0.2" /><rect x="1254" y="195.5" width="64" height="1" fill="white" fill-opacity="0.5" /><text x="1328" y="209.5" font-size="14" fill="white" font-family="monospace" dominant-baseline="ideographic">46</text><rect x="1254" y="244.5" width="64" height="1" fill="white" fill-opacity="0.2" /><rect x="1254" y="293.5" width="64" height="1" fill="white" fill-opacity="0.2" /><rect x="1254" y="342.0" width="64" height="1" fill="white" fill-opacity="0.2" /><rect x="1254" y="391.0" width="64" height="1" fill="white" fill-opacity="0.5" /><text x="1328" y="405.0" font-size="14" fill="white" font-family="monospace" dominant-baseline="ideographic">47</text><rect x="1254" y="440.0" width="64" height="1" fill="white" fill-opacity="0.2" /><rect x="1254" y="489.0" width="64" height="1" fill="white" fill-opacity="0.2" /><rect x="1254" y="538.0" width="64" height="1" fill="white" fill-opacity="0.2" /><rect x="1254" y="586.5" width="64" height="1" fill="white" fill-opacity="0.5" /><text x="1328" y="600.5" font-size="14" fill="white" font-family="monospace" dominant-baseline="ideographic">48</text><rect x="1254" y="635.5" width="64" height="1" fill="white" fill-opacity="0.2" /><rect x="1254" y="684.5" width="64" height="1" fill="white" fill-opacity="0.2" /><rect x="1254" y="733.5" width="64" height="1" fill="white" fill-opacity="0.2" /><rect x="1254" y="782.5" width="64" height="1" fill="white" fill-opacity="0.5" /><text x="1328" y="796.5" font-size="14" fill="white" font-family="monospace" dominant-baseline="ideographic">49</text><rect x="1254" y="-0.2000000000007276" width="64" height="1" fill="aqua" fill-opacity="0.75" /><text x="1254" y="13.799999999999272" font-size="14" fill="aqua" fill-opacity="0.75" font-family="monospace">Special</text><rect x="1254" y="0.0" width="64" height="1" fill="lime" fill-opacity="0.75" /><text x="1328" y="28.0" font-size="14" fill="lime" font-family="monospace" dominant-baseline="ideographic">184</text><rect x="1368" y="0" width="64" height="782.5" fill="black" /><rect x="1368" y="0.0" width="64" height="1" fill="white" fill-opacity="0.5" /><text x="1442" y="14.0" font-size="14" fill="white" font-family="monospace" dominant-baseline="ideographic">49</text><rect x="1368" y="49.0" width="64" height="1" fill="white" fill-opacity="0.2" /><rect x="1368" y="97.5" width="64" height="1" fill="white" fill-opacity="0.2" /><rect x="1368" y="146.5" width="64" height="1" fill="white" fill-opacity="0.2" /><rect x="1368" y="195.5" width="64" height="1" fill="white" fill-opacity="0.5" /><text x="1442" y="209.5" font-size="14" fill="white" font-family="monospace" dominant-baseline="ideographic">50</text><rect x="1368" y="244.5" width="64" height="1" fill="white" fill-opacity="0.2" /><rect x="1368" y="293.5" width="64" height="1" fill="white" fill-opacity="0.2" /><rect x="1368" y="342.5" width="64" height="1" fill="white" fill-opacity="0.2" /><rect x="1368" y="391.0" width="64" height="1" fill="white" fill-opacity="0.5" /><text x="1442" y="405.0" font-size="14" fill="white" font-family="monospace" dominant-baseline="ideographic">51</text><rect x="1368" y="440.0" width="64" height="1" fill="white" fill-opacity="0.2" /><rect x="1368" y="489.0" width="64" height="1" fill="white" fill-opacity="0.2" /><rect x="1368" y="538.0" width="64" height="1" fill="white" fill-opacity="0.2" /><rect x="1368" y="587.0" width="64" height="1" fill="white" fill-opacity="0.5" /><text x="1442" y="601.0" font-size="14" fill="white" font-family="monospace" dominant-baseline="ideographic">52</text><rect x="1368" y="636.0" width="64" height="1" fill="white" fill-opacity="0.2" /><rect x="1368" y="684.5" width="64" height="1" fill="white" fill-opacity="0.2" /><rect x="1368" y="733.5" width="64" height="1" fill="white" fill-opacity="0.2" /><rect x="1368" y="782.5" width="64" height="1" fill="white" fill-opacity="0.5" /><text x="1442" y="796.5" font-size="14" fill="white" font-family="monospace" dominant-baseline="ideographic">53</text><rect x="1482" y="0" width="64" height="782.5" fill="black" /><rect x="1482" y="0.0" width="64" height="1" fill="white" fill-opacity="0.5" /><text x="1556" y="14.0" font-size="14" fill="white" font-family="monospace" dominant-baseline="ideographic">53</text><rect x="1482" y="49.0" width="64" height="1" fill="white" fill-opacity="0.2" /><rect x="1482" y="98.0" width="64" height="1" fill="white" fill-opacity="0.2" /><rect x="1482" y="146.5" width="64" height="1" fill="white" fill-opacity="0.2" /><rect x="1482" y="195.5" width="64" height="1" fill="white" fill-opacity="0.5" /><text x="1556" y="209.5" font-size="14" fill="white" font-family="monospace" dominant-baseline="ideographic">54</text><rect x="1482" y="244.5" width="64" height="1" fill="white" fill-opacity="0.2" /><rect x="1482" y="293.5" width="64" height="1" fill="white" fill-opacity="0.2" /><rect x="1482" y="342.5" width="64" height="1" fill="white" fill-opacity="0.2" /><rect x="1482" y="391.5" width="64" height="1" fill="white" fill-opacity="0.5" /><text x="1556" y="405.5" font-size="14" fill="white" font-family="monospace" dominant-baseline="ideographic">55</text><rect x="1482" y="440.0" width="64" height="1" fill="white" fill-opacity="0.2" /><rect x="1482" y="489.0" width="64" height="1" fill="white" fill-opacity="0.2" /><rect x="1482" y="538.0" width="64" height="1" fill="white" fill-opacity="0.2" /><rect x="1482" y="587.0" width="64" height="1" fill="white" fill-opacity="0.5" /><text x="1556" y="601.0" font-size="14" fill="white" font-family="monospace" dominant-baseline="ideographic">56</text><rect x="1482" y="636.0" width="64" height="1" fill="white" fill-opacity="0.2" /><rect x="1482" y="685.0" width="64" height="1" fill="white" fill-opacity="0.2" /><rect x="1482" y="733.5" width="64" height="1" fill="white" fill-opacity="0.2" /><rect x="1482" y="782.5" width="64" height="1" fill="white" fill-opacity="0.5" /><text x="1556" y="796.5" font-size="14" fill="white" font-family="monospace" dominant-baseline="ideographic">57</text><rect x="1596" y="0" width="64" height="782.5" fill="black" /><rect x="1596" y="0.0" width="64" height="1" fill="white" fill-opacity="0.5" /><text x="1670" y="14.0" font-size="14" fill="white" font-family="monospace" dominant-baseline="ideographic">57</text><rect x="1596" y="49.0" width="64" height="1" fill="white" fill-opacity="0.2" /><rect x="1596" y="98.0" width="64" height="1" fill="white" fill-opacity="0.2" /><rect x="1596" y="147.0" width="64" height="1" fill="white" fill-opacity="0.2" /><rect x="1596" y="196.0" width="64" height="1" fill="white" fill-opacity="0.5" /><text x="1670" y="210.0" font-size="14" fill="white" font-family="monospace" dominant-baseline="ideographic">58</text><rect x="1596" y="244.5" width="64" height="1" fill="white" fill-opacity="0.2" /><rect x="1596" y="293.5" width="64" height="1" fill="white" fill-opacity="0.2" /><rect x="1596" y="342.5" width="64" height="1" fill="white" fill-opacity="0.2" /><rect x="1596" y="391.5" width="64" height="1" fill="white" fill-opacity="0.5" /><text x="1670" y="405.5" font-size="14" fill="white" font-family="monospace" dominant-baseline="ideographic">59</text><rect x="1596" y="440.5" width="64" height="1" fill="white" fill-opacity="0.2" /><rect x="1596" y="489.0" width="64" height="1" fill="white" fill-opacity="0.2" /><rect x="1596" y="538.0" width="64" height="1" fill="white" fill-opacity="0.2" /><rect x="1596" y="587.0" width="64" height="1" fill="white" fill-opacity="0.5" /><text x="1670" y="601.0" font-size="14" fill="white" font-family="monospace" dominant-baseline="ideographic">60</text><rect x="1596" y="636.0" width="64" height="1" fill="white" fill-opacity="0.2" /><rect x="1596" y="685.0" width="64" height="1" fill="white" fill-opacity="0.2" /><rect x="1596" y="734.0" width="64" height="1" fill="white" fill-opacity="0.2" /><rect x="1596" y="782.5" width="64" height="1" fill="white" fill-opacity="0.5" /><text x="1670" y="796.5" font-size="14" fill="white" font-family="monospace" dominant-baseline="ideographic">61</text><rect x="1710" y="0" width="64" height="780.5" fill="black" /><rect x="1710" y="0.0" width="64" height="1" fill="white" fill-opacity="0.5" /><text x="1784" y="14.0" font-size="14" fill="white" font-family="monospace" dominant-baseline="ideographic">61</text><rect x="1710" y="49.0" width="64" height="1" fill="white" fill-opacity="0.2" /><rect x="1710" y="98.0" width="64" height="1" fill="white" fill-opacity="0.2" /><rect x="1710" y="147.0" width="64" height="1" fill="white" fill-opacity="0.2" /><rect x="1710" y="196.0" width="64" height="1" fill="white" fill-opacity="0.5" /><text x="1784" y="210.0" font-size="14" fill="white" font-family="monospace" dominant-baseline="ideographic">62</text><rect x="1710" y="245.0" width="64" height="1" fill="white" fill-opacity="0.2" /><rect x="1710" y="293.5" width="64" height="1" fill="white" fill-opacity="0.2" /><rect x="1710" y="342.5" width="64" height="1" fill="white" fill-opacity="0.2" /><rect x="1710" y="391.5" width="64" height="1" fill="white" fill-opacity="0.5" /><text x="1784" y="405.5" font-size="14" fill="white" font-family="monospace" dominant-baseline="ideographic">63</text><rect x="1710" y="440.5" width="64" height="1" fill="white" fill-opacity="0.2" /><rect x="1710" y="489.5" width="64" height="1" fill="white" fill-opacity="0.2" /><rect x="1710" y="538.5" width="64" height="1" fill="white" fill-opacity="0.2" /><rect x="1710" y="587.0" width="64" height="1" fill="white" fill-opacity="0.5" /><text x="1784" y="601.0" font-size="14" fill="white" font-family="monospace" dominant-baseline="ideographic">64</text><rect x="1710" y="635.5" width="64" height="1" fill="white" fill-opacity="0.2" /><rect x="1710" y="684.0" width="64" height="1" fill="white" fill-opacity="0.2" /><rect x="1710" y="732.5" width="64" height="1" fill="white" fill-opacity="0.2" /><rect x="1710" y="780.5" width="64" height="1" fill="white" fill-opacity="0.5" /><text x="1784" y="794.5" font-size="14" fill="white" font-family="monospace" dominant-baseline="ideographic">65</text><rect x="1710" y="587.0999999999985" width="64" height="1" fill="aqua" fill-opacity="0.75" /><text x="1710" y="601.0999999999985" font-size="14" fill="aqua" fill-opacity="0.75" font-family="monospace">Special</text><rect x="1710" y="587.0" width="64" height="1" fill="lime" fill-opacity="0.75" /><text x="1784" y="615.0" font-size="14" fill="lime" font-family="monospace" dominant-baseline="ideographic">186</text><rect x="1824" y="0" width="64" height="774.5" fill="black" /><rect x="1824" y="0.0" width="64" height="1" fill="white" fill-opacity="0.5" /><text x="1898" y="14.0" font-size="14" fill="white" font-family="monospace" dominant-baseline="ideographic">65</text><rect x="1824" y="48.5" width="64" height="1" fill="white" fill-opacity="0.2" /><rect x="1824" y="97.0" width="64" height="1" fill="white" fill-opacity="0.2" /><rect x="1824" y="145.5" width="64" height="1" fill="white" fill-opacity="0.2" /><rect x="1824" y="194.0" width="64" height="1" fill="white" fill-opacity="0.5" /><text x="1898" y="208.0" font-size="14" fill="white" font-family="monospace" dominant-baseline="ideographic">66</text><rect x="1824" y="242.0" width="64" height="1" fill="white" fill-opacity="0.2" /><rect x="1824" y="290.5" width="64" height="1" fill="white" fill-opacity="0.2" /><rect x="1824" y="339.0" width="64" height="1" fill="white" fill-opacity="0.2" /><rect x="1824" y="387.5" width="64" height="1" fill="white" fill-opacity="0.5" /><text x="1898" y="401.5" font-size="14" fill="white" font-family="monospace" dominant-baseline="ideographic">67</text><rect x="1824" y="435.5" width="64" height="1" fill="white" fill-opacity="0.2" /><rect x="1824" y="484.0" width="64" height="1" fill="white" fill-opacity="0.2" /><rect x="1824" y="532.5" width="64" height="1" fill="white" fill-opacity="0.2" /><rect x="1824" y="581.0" width="64" height="1" fill="white" fill-opacity="0.5" /><text x="1898" y="595.0" font-size="14" fill="white" font-family="monospace" dominant-baseline="ideographic">68</text><rect x="1824" y="629.0" width="64" height="1" fill="white" fill-opacity="0.2" /><rect x="1824" y="677.5" width="64" height="1" fill="white" fill-opacity="0.2" /><rect x="1824" y="726.0" width="64" height="1" fill="white" fill-opacity="0.2" /><rect x="1824" y="774.5" width="64" height="1" fill="white" fill-opacity="0.5" /><text x="1898" y="788.5" font-size="14" fill="white" font-family="monospace" dominant-baseline="ideographic">69</text><rect x="1938" y="0" width="64" height="774.0" fill="black" /><rect x="1938" y="0.0" width="64" height="1" fill="white" fill-opacity="0.5" /><text x="2012" y="14.0" font-size="14" fill="white" font-family="monospace" dominant-baseline="ideographic">69</text><rect x="1938" y="48.5" width="64" height="1" fill="white" fill-opacity="0.2" /><rect x="1938" y="96.5" width="64" height="1" fill="white" fill-opacity="0.2" /><rect x="1938" y="145.0" width="64" height="1" fill="white" fill-opacity="0.2" /><rect x="1938" y="193.5" width="64" height="1" fill="white" fill-opacity="0.5" /><text x="2012" y="207.5" font-size="14" fill="white" font-family="monospace" dominant-baseline="ideographic">70</text><rect x="1938" y="242.0" width="64" height="1" fill="white" fill-opacity="0.2" /><rect x="1938" y="290.0" width="64" height="1" fill="white" fill-opacity="0.2" /><rect x="1938" y="338.5" width="64" height="1" fill="white" fill-opacity="0.2" /><rect x="1938" y="387.0" width="64" height="1" fill="white" fill-opacity="0.5" /><text x="2012" y="401.0" font-size="14" fill="white" font-family="monospace" dominant-baseline="ideographic">71</text><rect x="1938" y="435.5" width="64" height="1" fill="white" fill-opacity="0.2" /><rect x="1938" y="484.0" width="64" height="1" fill="white" fill-opacity="0.2" /><rect x="1938" y="532.0" width="64" height="1" fill="white" fill-opacity="0.2" /><rect x="1938" y="580.5" width="64" height="1" fill="white" fill-opacity="0.5" /><text x="2012" y="594.5" font-size="14" fill="white" font-family="monospace" dominant-baseline="ideographic">72</text><rect x="1938" y="629.0" width="64" height="1" fill="white" fill-opacity="0.2" /><rect x="1938" y="677.5" width="64" height="1" fill="white" fill-opacity="0.2" /><rect x="1938" y="725.5" width="64" height="1" fill="white" fill-opacity="0.2" /><rect x="1938" y="774.0" width="64" height="1" fill="white" fill-opacity="0.5" /><text x="2012" y="788.0" font-size="14" fill="white" font-family="monospace" dominant-baseline="ideographic">73</text><rect x="1938" y="580.5499999999993" width="64" height="1" fill="aqua" fill-opacity="0.75" /><text x="1938" y="594.5499999999993" font-size="14" fill="aqua" fill-opacity="0.75" font-family="monospace">Special</text><rect x="2052" y="0" width="64" height="774.5" fill="black" /><rect x="2052" y="0.0" width="64" height="1" fill="white" fill-opacity="0.5" /><text x="2126" y="14.0" font-size="14" fill="white" font-family="monospace" dominant-baseline="ideographic">73</text><rect x="2052" y="48.5" width="64" height="1" fill="white" fill-opacity="0.2" /><rect x="2052" y="97.0" width="64" height="1" fill="white" fill-opacity="0.2" /><rect x="2052" y="145.5" width="64" height="1" fill="white" fill-opacity="0.2" /><rect x="2052" y="193.5" width="64" height="1" fill="white" fill-opacity="0.5" /><text x="2126" y="207.5" font-size="14" fill="white" font-family="monospace" dominant-baseline="ideographic">74</text><rect x="2052" y="242.0" width="64" height="1" fill="white" fill-opacity="0.2" /><rect x="2052" y="290.5" width="64" height="1" fill="white" fill-opacity="0.2" /><rect x="2052" y="339.0" width="64" height="1" fill="white" fill-opacity="0.2" /><rect x="2052" y="387.0" width="64" height="1" fill="white" fill-opacity="0.5" /><text x="2126" y="401.0" font-size="14" fill="white" font-family="monospace" dominant-baseline="ideographic">75</text><rect x="2052" y="435.5" width="64" height="1" fill="white" fill-opacity="0.2" /><rect x="2052" y="484.0" width="64" height="1" fill="white" fill-opacity="0.2" /><rect x="2052" y="532.5" width="64" height="1" fill="white" fill-opacity="0.2" /><rect x="2052" y="580.5" width="64" height="1" fill="white" fill-opacity="0.5" /><text x="2126" y="594.5" font-size="14" fill="white" font-family="monospace" dominant-baseline="ideographic">76</text><rect x="2052" y="629.0" width="64" height="1" fill="white" fill-opacity="0.2" /><rect x="2052" y="677.5" width="64" height="1" fill="white" fill-opacity="0.2" /><rect x="2052" y="726.0" width="64" height="1" fill="white" fill-opacity="0.2" /><rect x="2052" y="774.5" width="64" height="1" fill="white" fill-opacity="0.5" /><text x="2126" y="788.5" font-size="14" fill="white" font-family="monospace" dominant-baseline="ideographic">77</text><rect x="2166" y="0" width="64" height="774.0" fill="black" /><rect x="2166" y="0.0" width="64" height="1" fill="white" fill-opacity="0.5" /><text x="2240" y="14.0" font-size="14" fill="white" font-family="monospace" dominant-baseline="ideographic">77</text><rect x="2166" y="48.0" width="64" height="1" fill="white" fill-opacity="0.2" /><rect x="2166" y="96.5" width="64" height="1" fill="white" fill-opacity="0.2" /><rect x="2166" y="145.0" width="64" height="1" fill="white" fill-opacity="0.2" /><rect x="2166" y="193.5" width="64" height="1" fill="white" fill-opacity="0.5" /><text x="2240" y="207.5" font-size="14" fill="white" font-family="monospace" dominant-baseline="ideographic">78</text><rect x="2166" y="241.5" width="64" height="1" fill="white" fill-opacity="0.2" /><rect x="2166" y="290.0" width="64" height="1" fill="white" fill-opacity="0.2" /><rect x="2166" y="338.5" width="64" height="1" fill="white" fill-opacity="0.2" /><rect x="2166" y="387.0" width="64" height="1" fill="white" fill-opacity="0.5" /><text x="2240" y="401.0" font-size="14" fill="white" font-family="monospace" dominant-baseline="ideographic">79</text><rect x="2166" y="435.5" width="64" height="1" fill="white" fill-opacity="0.2" /><rect x="2166" y="483.5" width="64" height="1" fill="white" fill-opacity="0.2" /><rect x="2166" y="532.0" width="64" height="1" fill="white" fill-opacity="0.2" /><rect x="2166" y="580.5" width="64" height="1" fill="white" fill-opacity="0.5" /><text x="2240" y="594.5" font-size="14" fill="white" font-family="monospace" dominant-baseline="ideographic">80</text><rect x="2166" y="629.0" width="64" height="1" fill="white" fill-opacity="0.2" /><rect x="2166" y="677.0" width="64" height="1" fill="white" fill-opacity="0.2" /><rect x="2166" y="725.5" width="64" height="1" fill="white" fill-opacity="0.2" /><rect x="2166" y="774.0" width="64" height="1" fill="white" fill-opacity="0.5" /><text x="2240" y="788.0" font-size="14" fill="white" font-family="monospace" dominant-baseline="ideographic">81</text><rect x="2280" y="0" width="64" height="486.0" fill="black" /><rect x="2280" y="0.0" width="64" height="1" fill="white" fill-opacity="0.5" /><text x="2354" y="14.0" font-size="14" fill="white" font-family="monospace" dominant-baseline="ideographic">81</text></svg>