<?xml version="1.0" encoding="UTF-8"?><svg xmlns="http://www.w3.org/2000/svg" xmlns:xlink="http://www.w3.org/1999/xlink"     width="1938" height="871.5" viewBox="0 0 1938 871.5"><defs></defs><rect x="52.0" y="214.5" width="12.0" height="3" fill="#ff83f4" stroke="#d002bc" /><rect x="0" y="214.5" width="64" height="3" fill="#ff72e7" stroke="#7c7c7c" /><rect x="0.0" y="241.0" width="12.0" height="3" fill="#ff3c3c" stroke="#c71f1f" /><rect x="0.0" y="268.0" width="12.0" height="3" fill="#ff3c3c" stroke="#c71f1f" /><rect x="0.0" y="294.5" width="12.0" height="3" fill="#ff3c3c" stroke="#c71f1f" /><rect x="0.0" y="348.0" width="12.0" height="3" fill="#ff3c3c" stroke="#c71f1f" /><rect x="0.0" y="375.0" width="12.0" height="3" fill="#ff3c3c" stroke="#c71f1f" /><rect x="0.0" y="428.5" width="12.0" height="3" fill="#ff3c3c" stroke="#c71f1f" /><rect x="13.0" y="428.5" width="12.0" height="3" fill="#35df39" stroke="#03aa10" /><rect x="0.0" y="482.0" width="12.0" height="3" fill="#ff3c3c" stroke="#c71f1f" /><rect x="13.0" y="482.0" width="12.0" height="3" fill="#35df39" stroke="#03aa10" /><rect x="0.0" y="509.0" width="12.0" height="3" fill="#ff3c3c" stroke="#c71f1f" /><rect x="13.0" y="509.0" width="12.0" height="3" fill="#35df39" stroke="#03aa10" /><rect x="13.0" y="562.5" width="12.0" height="3" fill="#35df39" stroke="#03aa10" /><rect x="13.0" y="589.5" width="12.0" height="3" fill="#35df39" stroke="#03aa10" /><rect x="0.0" y="643.0" width="12.0" height="3" fill="#ff3c3c" stroke="#c71f1f" /><rect x="26.0" y="643.0" width="12.0" height="3" fill="#80c9ff" stroke="#0b6cba" /><rect x="0.0" y="696.5" width="12.0" height="3" fill="#ff3c3c" stroke="#c71f1f" /><rect x="26.0" y="696.5" width="12.0" height="3" fill="#80c9ff" stroke="#0b6cba" /><rect x="0.0" y="723.0" width="12.0" height="3" fill="#ff3c3c" stroke="#c71f1f" /><rect x="26.0" y="723.0" width="12.0" height="3" fill="#80c9ff" stroke="#0b6cba" /><rect x="26.0" y="777.0" width="12.0" height="3" fill="#80c9ff" stroke="#0b6cba" /><rect x="26.0" y="803.5" width="12.0" height="3" fill="#80c9ff" stroke="#0b6cba" /><rect x="39.0" y="830.5" width="12.0" height="3" fill="#fff874" stroke="#eb9c26" /><rect x="153.0" y="27.0" width="12.0" height="3" fill="#fff874" stroke="#eb9c26" /><rect x="153.0" y="53.5" width="12.0" height="3" fill="#fff874" stroke="#eb9c26" /><rect x="153.0" y="107.5" width="12.0" height="3" fill="#fff874" stroke="#eb9c26" /><rect x="166.0" y="161.0" width="12.0" height="3" fill="#ff83f4" stroke="#d002bc" /><rect x="166.0" y="214.5" width="12.0" height="3" fill="#ff83f4" stroke="#d002bc" /><rect x="114" y="214.5" width="64" height="3" fill="#ff72e7" stroke="#7c7c7c" /><rect x="114.0" y="241.0" width="12.0" height="3" fill="#ff3c3c" stroke="#c71f1f" /><rect x="114.0" y="268.0" width="12.0" height="3" fill="#ff3c3c" stroke="#c71f1f" /><rect x="114.0" y="295.0" width="12.0" height="3" fill="#ff3c3c" stroke="#c71f1f" /><rect x="114.0" y="348.5" width="12.0" height="3" fill="#ff3c3c" stroke="#c71f1f" /><rect x="114.0" y="375.0" width="12.0" height="3" fill="#ff3c3c" stroke="#c71f1f" /><rect x="114.0" y="428.5" width="12.0" height="3" fill="#ff3c3c" stroke="#c71f1f" /><rect x="127.0" y="428.5" width="12.0" height="3" fill="#35df39" stroke="#03aa10" /><rect x="114.0" y="482.5" width="12.0" height="3" fill="#ff3c3c" stroke="#c71f1f" /><rect x="127.0" y="482.5" width="12.0" height="3" fill="#35df39" stroke="#03aa10" /><rect x="114.0" y="509.0" width="12.0" height="3" fill="#ff3c3c" stroke="#c71f1f" /><rect x="127.0" y="509.0" width="12.0" height="3" fill="#35df39" stroke="#03aa10" /><rect x="127.0" y="562.5" width="12.0" height="3" fill="#35df39" stroke="#03aa10" /><rect x="127.0" y="589.5" width="12.0" height="3" fill="#35df39" stroke="#03aa10" /><rect x="114.0" y="643.0" width="12.0" height="3" fill="#ff3c3c" stroke="#c71f1f" /><rect x="140.0" y="643.0" width="12.0" height="3" fill="#80c9ff" stroke="#0b6cba" /><rect x="114.0" y="696.5" width="12.0" height="3" fill="#ff3c3c" stroke="#c71f1f" /><rect x="140.0" y="696.5" width="12.0" height="3" fill="#80c9ff" stroke="#0b6cba" /><rect x="114.0" y="723.5" width="12.0" height="3" fill="#ff3c3c" stroke="#c71f1f" /><rect x="140.0" y="723.5" width="12.0" height="3" fill="#80c9ff" stroke="#0b6cba" /><rect x="140.0" y="777.0" width="12.0" height="3" fill="#80c9ff" stroke="#0b6cba" /><rect x="140.0" y="803.5" width="12.0" height="3" fill="#80c9ff" stroke="#0b6cba" /><rect x="153.0" y="830.5" width="12.0" height="3" fill="#fff874" stroke="#eb9c26" /><rect x="267.0" y="26.5" width="12.0" height="3" fill="#fff874" stroke="#eb9c26" /><rect x="267.0" y="53.5" width="12.0" height="3" fill="#fff874" stroke="#eb9c26" /><rect x="280.0" y="107.0" width="12.0" height="3" fill="#ff83f4" stroke="#d002bc" /><rect x="267.0" y="133.5" width="12.0" height="3" fill="#fff874" stroke="#eb9c26" /><rect x="280.0" y="160.5" width="12.0" height="3" fill="#ff83f4" stroke="#d002bc" /><rect x="228" y="160.5" width="64" height="3" fill="#ff72e7" stroke="#7c7c7c" /><rect x="228.0" y="214.0" width="12.0" height="3" fill="#ff3c3c" stroke="#c71f1f" /><rect x="241.0" y="214.0" width="12.0" height="3" fill="#35df39" stroke="#03aa10" /><rect x="228.0" y="267.5" width="12.0" height="3" fill="#ff3c3c" stroke="#c71f1f" /><rect x="241.0" y="267.5" width="12.0" height="3" fill="#35df39" stroke="#03aa10" /><rect x="228.0" y="294.5" width="12.0" height="3" fill="#ff3c3c" stroke="#c71f1f" /><rect x="241.0" y="294.5" width="12.0" height="3" fill="#35df39" stroke="#03aa10" /><rect x="228.0" y="321.0" width="12.0" height="3" fill="#ff3c3c" stroke="#c71f1f" /><rect x="228.0" y="348.0" width="12.0" height="3" fill="#ff3c3c" stroke="#c71f1f" /><rect x="228.0" y="375.0" width="12.0" height="3" fill="#ff3c3c" stroke="#c71f1f" /><rect x="228.0" y="401.5" width="12.0" height="3" fill="#ff3c3c" stroke="#c71f1f" /><rect x="241.0" y="401.5" width="12.0" height="3" fill="#35df39" stroke="#03aa10" /><rect x="228.0" y="455.0" width="12.0" height="3" fill="#ff3c3c" stroke="#c71f1f" /><rect x="241.0" y="455.0" width="12.0" height="3" fill="#35df39" stroke="#03aa10" /><rect x="228.0" y="482.0" width="12.0" height="3" fill="#ff3c3c" stroke="#c71f1f" /><rect x="241.0" y="482.0" width="12.0" height="3" fill="#35df39" stroke="#03aa10" /><rect x="228.0" y="508.5" width="12.0" height="3" fill="#ff3c3c" stroke="#c71f1f" /><rect x="241.0" y="508.5" width="12.0" height="3" fill="#35df39" stroke="#03aa10" /><rect x="241.0" y="535.5" width="12.0" height="3" fill="#35df39" stroke="#03aa10" /><rect x="241.0" y="562.5" width="12.0" height="3" fill="#35df39" stroke="#03aa10" /><rect x="241.0" y="589.0" width="12.0" height="3" fill="#35df39" stroke="#03aa10" /><rect x="241.0" y="616.0" width="12.0" height="3" fill="#35df39" stroke="#03aa10" /><rect x="241.0" y="642.5" width="12.0" height="3" fill="#35df39" stroke="#03aa10" /><rect x="254.0" y="642.5" width="12.0" height="3" fill="#80c9ff" stroke="#0b6cba" /><rect x="241.0" y="696.0" width="12.0" height="3" fill="#35df39" stroke="#03aa10" /><rect x="254.0" y="696.0" width="12.0" height="3" fill="#80c9ff" stroke="#0b6cba" /><rect x="241.0" y="723.0" width="12.0" height="3" fill="#35df39" stroke="#03aa10" /><rect x="254.0" y="723.0" width="12.0" height="3" fill="#80c9ff" stroke="#0b6cba" /><rect x="254.0" y="750.0" width="12.0" height="3" fill="#80c9ff" stroke="#0b6cba" /><rect x="254.0" y="776.5" width="12.0" height="3" fill="#80c9ff" stroke="#0b6cba" /><rect x="254.0" y="803.5" width="12.0" height="3" fill="#80c9ff" stroke="#0b6cba" /><rect x="267.0" y="830.0" width="12.0" height="3" fill="#fff874" stroke="#eb9c26" /><rect x="381.0" y="26.5" width="12.0" height="3" fill="#fff874" stroke="#eb9c26" /><rect x="381.0" y="53.5" width="12.0" height="3" fill="#fff874" stroke="#eb9c26" /><rect x="381.0" y="80.5" width="12.0" height="3" fill="#fff874" stroke="#eb9c26" /><rect x="381.0" y="107.0" width="12.0" height="3" fill="#fff874" stroke="#eb9c26" /><rect x="381.0" y="134.0" width="12.0" height="3" fill="#fff874" stroke="#eb9c26" /><rect x="394.0" y="160.5" width="12.0" height="3" fill="#ff83f4" stroke="#d002bc" /><rect x="342.0" y="214.0" width="12.0" height="3" fill="#ff3c3c" stroke="#c71f1f" /><rect x="355.0" y="214.0" width="12.0" height="3" fill="#35df39" stroke="#03aa10" /><rect x="342.0" y="268.0" width="12.0" height="3" fill="#ff3c3c" stroke="#c71f1f" /><rect x="355.0" y="268.0" width="12.0" height="3" fill="#35df39" stroke="#03aa10" /><rect x="342.0" y="294.5" width="12.0" height="3" fill="#ff3c3c" stroke="#c71f1f" /><rect x="355.0" y="294.5" width="12.0" height="3" fill="#35df39" stroke="#03aa10" /><rect x="342.0" y="321.5" width="12.0" height="3" fill="#ff3c3c" stroke="#c71f1f" /><rect x="342.0" y="348.0" width="12.0" height="3" fill="#ff3c3c" stroke="#c71f1f" /><rect x="342.0" y="375.0" width="12.0" height="3" fill="#ff3c3c" stroke="#c71f1f" /><rect x="342.0" y="401.5" width="12.0" height="3" fill="#ff3c3c" stroke="#c71f1f" /><rect x="355.0" y="401.5" width="12.0" height="3" fill="#35df39" stroke="#03aa10" /><rect x="342.0" y="455.5" width="12.0" height="3" fill="#ff3c3c" stroke="#c71f1f" /><rect x="355.0" y="455.5" width="12.0" height="3" fill="#35df39" stroke="#03aa10" /><rect x="342.0" y="482.0" width="12.0" height="3" fill="#ff3c3c" stroke="#c71f1f" /><rect x="355.0" y="482.0" width="12.0" height="3" fill="#35df39" stroke="#03aa10" /><rect x="342.0" y="509.0" width="12.0" height="3" fill="#ff3c3c" stroke="#c71f1f" /><rect x="355.0" y="509.0" width="12.0" height="3" fill="#35df39" stroke="#03aa10" /><rect x="355.0" y="535.5" width="12.0" height="3" fill="#35df39" stroke="#03aa10" /><rect x="355.0" y="562.5" width="12.0" height="3" fill="#35df39" stroke="#03aa10" /><rect x="355.0" y="589.0" width="12.0" height="3" fill="#35df39" stroke="#03aa10" /><rect x="355.0" y="616.0" width="12.0" height="3" fill="#35df39" stroke="#03aa10" /><rect x="355.0" y="643.0" width="12.0" height="3" fill="#35df39" stroke="#03aa10" /><rect x="368.0" y="643.0" width="12.0" height="3" fill="#80c9ff" stroke="#0b6cba" /><rect x="355.0" y="696.5" width="12.0" height="3" fill="#35df39" stroke="#03aa10" /><rect x="368.0" y="696.5" width="12.0" height="3" fill="#80c9ff" stroke="#0b6cba" /><rect x="355.0" y="723.0" width="12.0" height="3" fill="#35df39" stroke="#03aa10" /><rect x="368.0" y="723.0" width="12.0" height="3" fill="#80c9ff" stroke="#0b6cba" /><rect x="368.0" y="750.0" width="12.0" height="3" fill="#80c9ff" stroke="#0b6cba" /><rect x="368.0" y="776.5" width="12.0" height="3" fill="#80c9ff" stroke="#0b6cba" /><rect x="368.0" y="803.5" width="12.0" height="3" fill="#80c9ff" stroke="#0b6cba" /><rect x="381.0" y="830.5" width="12.0" height="3" fill="#fff874" stroke="#eb9c26" /><rect x="495.0" y="27.0" width="12.0" height="3" fill="#fff874" stroke="#eb9c26" /><rect x="482.0" y="53.5" width="12.0" height="3" fill="#80c9ff" stroke="#0b6cba" /><rect x="495.0" y="80.5" width="12.0" height="3" fill="#fff874" stroke="#eb9c26" /><rect x="508.0" y="107.0" width="12.0" height="3" fill="#ff83f4" stroke="#d002bc" /><rect x="495.0" y="134.0" width="12.0" height="3" fill="#fff874" stroke="#eb9c26" /><rect x="508.0" y="161.0" width="12.0" height="3" fill="#ff83f4" stroke="#d002bc" /><rect x="456" y="161.0" width="64" height="3" fill="#ff72e7" stroke="#7c7c7c" /><rect x="456.0" y="214.5" width="12.0" height="3" fill="#ff3c3c" stroke="#c71f1f" /><rect x="482.0" y="214.5" width="12.0" height="3" fill="#80c9ff" stroke="#0b6cba" /><rect x="508.0" y="268.0" width="12.0" height="3" fill="#ff83f4" stroke="#d002bc" /><rect x="456" y="268.0" width="64" height="3" fill="#ff72e7" stroke="#7c7c7c" /><rect x="456.0" y="294.5" width="12.0" height="3" fill="#ff3c3c" stroke="#c71f1f" /><rect x="482.0" y="294.5" width="12.0" height="3" fill="#80c9ff" stroke="#0b6cba" /><rect x="469.0" y="375.0" width="12.0" height="3" fill="#35df39" stroke="#03aa10" /><rect x="469.0" y="428.5" width="12.0" height="3" fill="#35df39" stroke="#03aa10" /><rect x="482.0" y="428.5" width="12.0" height="3" fill="#80c9ff" stroke="#0b6cba" /><rect x="508.0" y="482.0" width="12.0" height="3" fill="#ff83f4" stroke="#d002bc" /><rect x="456" y="482.0" width="64" height="3" fill="#ff72e7" stroke="#7c7c7c" /><rect x="469.0" y="509.0" width="12.0" height="3" fill="#35df39" stroke="#03aa10" /><rect x="482.0" y="509.0" width="12.0" height="3" fill="#80c9ff" stroke="#0b6cba" /><rect x="482.0" y="589.5" width="12.0" height="3" fill="#80c9ff" stroke="#0b6cba" /><rect x="469.0" y="616.0" width="12.0" height="3" fill="#35df39" stroke="#03aa10" /><rect x="456.0" y="643.0" width="12.0" height="3" fill="#ff3c3c" stroke="#c71f1f" /><rect x="469.0" y="643.0" width="12.0" height="3" fill="#35df39" stroke="#03aa10" /><rect x="508.0" y="696.5" width="12.0" height="3" fill="#ff83f4" stroke="#d002bc" /><rect x="456" y="696.5" width="64" height="3" fill="#ff72e7" stroke="#7c7c7c" /><rect x="456.0" y="723.5" width="12.0" height="3" fill="#ff3c3c" stroke="#c71f1f" /><rect x="469.0" y="723.5" width="12.0" height="3" fill="#35df39" stroke="#03aa10" /><rect x="495.0" y="803.5" width="12.0" height="3" fill="#fff874" stroke="#eb9c26" /><rect x="583.0" y="0.0" width="12.0" height="3" fill="#35df39" stroke="#03aa10" /><rect x="596.0" y="0.0" width="12.0" height="3" fill="#80c9ff" stroke="#0b6cba" /><rect x="583.0" y="27.0" width="12.0" height="3" fill="#35df39" stroke="#03aa10" /><rect x="596.0" y="27.0" width="12.0" height="3" fill="#80c9ff" stroke="#0b6cba" /><rect x="583.0" y="80.5" width="12.0" height="3" fill="#35df39" stroke="#03aa10" /><rect x="596.0" y="80.5" width="12.0" height="3" fill="#80c9ff" stroke="#0b6cba" /><rect x="596.0" y="134.0" width="12.0" height="3" fill="#80c9ff" stroke="#0b6cba" /><rect x="583.0" y="161.0" width="12.0" height="3" fill="#35df39" stroke="#03aa10" /><rect x="570.0" y="214.5" width="12.0" height="3" fill="#ff3c3c" stroke="#c71f1f" /><rect x="570.0" y="228.0" width="12.0" height="3" fill="#ff3c3c" stroke="#c71f1f" /><rect x="570.0" y="241.5" width="12.0" height="3" fill="#ff3c3c" stroke="#c71f1f" /><rect x="570.0" y="254.5" width="12.0" height="3" fill="#ff3c3c" stroke="#c71f1f" /><rect x="570.0" y="268.0" width="12.0" height="3" fill="#ff3c3c" stroke="#c71f1f" /><rect x="583.0" y="268.0" width="12.0" height="3" fill="#35df39" stroke="#03aa10" /><rect x="570.0" y="321.5" width="12.0" height="3" fill="#ff3c3c" stroke="#c71f1f" /><rect x="570.0" y="335.0" width="12.0" height="3" fill="#ff3c3c" stroke="#c71f1f" /><rect x="570.0" y="348.5" width="12.0" height="3" fill="#ff3c3c" stroke="#c71f1f" /><rect x="570.0" y="362.0" width="12.0" height="3" fill="#ff3c3c" stroke="#c71f1f" /><rect x="570.0" y="375.0" width="12.0" height="3" fill="#ff3c3c" stroke="#c71f1f" /><rect x="583.0" y="375.0" width="12.0" height="3" fill="#35df39" stroke="#03aa10" /><rect x="596.0" y="429.0" width="12.0" height="3" fill="#80c9ff" stroke="#0b6cba" /><rect x="596.0" y="442.0" width="12.0" height="3" fill="#80c9ff" stroke="#0b6cba" /><rect x="596.0" y="455.5" width="12.0" height="3" fill="#80c9ff" stroke="#0b6cba" /><rect x="596.0" y="469.0" width="12.0" height="3" fill="#80c9ff" stroke="#0b6cba" /><rect x="570.0" y="482.5" width="12.0" height="3" fill="#ff3c3c" stroke="#c71f1f" /><rect x="596.0" y="482.5" width="12.0" height="3" fill="#80c9ff" stroke="#0b6cba" /><rect x="596.0" y="536.0" width="12.0" height="3" fill="#80c9ff" stroke="#0b6cba" /><rect x="596.0" y="549.5" width="12.0" height="3" fill="#80c9ff" stroke="#0b6cba" /><rect x="596.0" y="562.5" width="12.0" height="3" fill="#80c9ff" stroke="#0b6cba" /><rect x="596.0" y="576.0" width="12.0" height="3" fill="#80c9ff" stroke="#0b6cba" /><rect x="570.0" y="589.5" width="12.0" height="3" fill="#ff3c3c" stroke="#c71f1f" /><rect x="596.0" y="589.5" width="12.0" height="3" fill="#80c9ff" stroke="#0b6cba" /><rect x="583.0" y="616.5" width="12.0" height="3" fill="#35df39" stroke="#03aa10" /><rect x="596.0" y="616.5" width="12.0" height="3" fill="#80c9ff" stroke="#0b6cba" /><rect x="583.0" y="670.0" width="12.0" height="3" fill="#35df39" stroke="#03aa10" /><rect x="596.0" y="670.0" width="12.0" height="3" fill="#80c9ff" stroke="#0b6cba" /><rect x="570.0" y="723.5" width="12.0" height="3" fill="#ff3c3c" stroke="#c71f1f" /><rect x="583.0" y="723.5" width="12.0" height="3" fill="#35df39" stroke="#03aa10" /><rect x="583.0" y="750.0" width="12.0" height="3" fill="#35df39" stroke="#03aa10" /><rect x="596.0" y="750.0" width="12.0" height="3" fill="#80c9ff" stroke="#0b6cba" /><rect x="583.0" y="830.5" width="12.0" height="3" fill="#35df39" stroke="#03aa10" /><rect x="609.0" y="830.5" width="12.0" height="3" fill="#fff874" stroke="#eb9c26" /><rect x="697.0" y="26.5" width="12.0" height="3" fill="#35df39" stroke="#03aa10" /><rect x="723.0" y="26.5" width="12.0" height="3" fill="#fff874" stroke="#eb9c26" /><rect x="710.0" y="53.5" width="12.0" height="3" fill="#80c9ff" stroke="#0b6cba" /><rect x="710.0" y="80.0" width="12.0" height="3" fill="#80c9ff" stroke="#0b6cba" /><rect x="684.0" y="107.0" width="12.0" height="3" fill="#ff3c3c" stroke="#c71f1f" /><rect x="697.0" y="107.0" width="12.0" height="3" fill="#35df39" stroke="#03aa10" /><rect x="684.0" y="134.0" width="12.0" height="3" fill="#ff3c3c" stroke="#c71f1f" /><rect x="697.0" y="134.0" width="12.0" height="3" fill="#35df39" stroke="#03aa10" /><rect x="684.0" y="160.5" width="12.0" height="3" fill="#ff3c3c" stroke="#c71f1f" /><rect x="684.0" y="187.5" width="12.0" height="3" fill="#ff3c3c" stroke="#c71f1f" /><rect x="684.0" y="214.0" width="12.0" height="3" fill="#ff3c3c" stroke="#c71f1f" /><rect x="697.0" y="214.0" width="12.0" height="3" fill="#35df39" stroke="#03aa10" /><rect x="736.0" y="267.5" width="12.0" height="3" fill="#ff83f4" stroke="#d002bc" /><rect x="684" y="267.5" width="64" height="3" fill="#ff72e7" stroke="#7c7c7c" /><rect x="684.0" y="294.5" width="12.0" height="3" fill="#ff3c3c" stroke="#c71f1f" /><rect x="697.0" y="294.5" width="12.0" height="3" fill="#35df39" stroke="#03aa10" /><rect x="684.0" y="321.5" width="12.0" height="3" fill="#ff3c3c" stroke="#c71f1f" /><rect x="697.0" y="321.5" width="12.0" height="3" fill="#35df39" stroke="#03aa10" /><rect x="736.0" y="375.0" width="12.0" height="3" fill="#ff83f4" stroke="#d002bc" /><rect x="684" y="375.0" width="64" height="3" fill="#ff72e7" stroke="#7c7c7c" /><rect x="684.0" y="401.5" width="12.0" height="3" fill="#ff3c3c" stroke="#c71f1f" /><rect x="710.0" y="401.5" width="12.0" height="3" fill="#80c9ff" stroke="#0b6cba" /><rect x="684.0" y="455.0" width="12.0" height="3" fill="#ff3c3c" stroke="#c71f1f" /><rect x="710.0" y="455.0" width="12.0" height="3" fill="#80c9ff" stroke="#0b6cba" /><rect x="684.0" y="509.0" width="12.0" height="3" fill="#ff3c3c" stroke="#c71f1f" /><rect x="710.0" y="509.0" width="12.0" height="3" fill="#80c9ff" stroke="#0b6cba" /><rect x="684.0" y="535.5" width="12.0" height="3" fill="#ff3c3c" stroke="#c71f1f" /><rect x="710.0" y="535.5" width="12.0" height="3" fill="#80c9ff" stroke="#0b6cba" /><rect x="736.0" y="589.0" width="12.0" height="3" fill="#ff83f4" stroke="#d002bc" /><rect x="684" y="589.0" width="64" height="3" fill="#ff72e7" stroke="#7c7c7c" /><rect x="736.0" y="616.0" width="12.0" height="3" fill="#ff83f4" stroke="#d002bc" /><rect x="684" y="616.0" width="64" height="3" fill="#ff72e7" stroke="#7c7c7c" /><rect x="697.0" y="642.5" width="12.0" height="3" fill="#35df39" stroke="#03aa10" /><rect x="710.0" y="642.5" width="12.0" height="3" fill="#80c9ff" stroke="#0b6cba" /><rect x="736.0" y="696.5" width="12.0" height="3" fill="#ff83f4" stroke="#d002bc" /><rect x="684" y="696.5" width="64" height="3" fill="#ff72e7" stroke="#7c7c7c" /><rect x="697.0" y="723.0" width="12.0" height="3" fill="#35df39" stroke="#03aa10" /><rect x="710.0" y="723.0" width="12.0" height="3" fill="#80c9ff" stroke="#0b6cba" /><rect x="697.0" y="750.0" width="12.0" height="3" fill="#35df39" stroke="#03aa10" /><rect x="710.0" y="750.0" width="12.0" height="3" fill="#80c9ff" stroke="#0b6cba" /><rect x="736.0" y="803.5" width="12.0" height="3" fill="#ff83f4" stroke="#d002bc" /><rect x="684" y="803.5" width="64" height="3" fill="#ff72e7" stroke="#7c7c7c" /><rect x="697.0" y="830.0" width="12.0" height="3" fill="#35df39" stroke="#03aa10" /><rect x="723.0" y="830.0" width="12.0" height="3" fill="#fff874" stroke="#eb9c26" /><rect x="811.0" y="27.0" width="12.0" height="3" fill="#35df39" stroke="#03aa10" /><rect x="837.0" y="27.0" width="12.0" height="3" fill="#fff874" stroke="#eb9c26" /><rect x="811.0" y="80.5" width="12.0" height="3" fill="#35df39" stroke="#03aa10" /><rect x="837.0" y="80.5" width="12.0" height="3" fill="#fff874" stroke="#eb9c26" /><rect x="811.0" y="107.0" width="12.0" height="3" fill="#35df39" stroke="#03aa10" /><rect x="837.0" y="107.0" width="12.0" height="3" fill="#fff874" stroke="#eb9c26" /><rect x="850.0" y="160.5" width="12.0" height="3" fill="#ff83f4" stroke="#d002bc" /><rect x="798" y="160.5" width="64" height="3" fill="#ff72e7" stroke="#7c7c7c" /><rect x="850.0" y="214.5" width="12.0" height="3" fill="#ff83f4" stroke="#d002bc" /><rect x="850.0" y="268.0" width="12.0" height="3" fill="#ff83f4" stroke="#d002bc" /><rect x="798" y="268.0" width="64" height="3" fill="#ff72e7" stroke="#7c7c7c" /><rect x="850.0" y="294.5" width="12.0" height="3" fill="#ff83f4" stroke="#d002bc" /><rect x="850.0" y="321.5" width="12.0" height="3" fill="#ff83f4" stroke="#d002bc" /><rect x="850.0" y="375.0" width="12.0" height="3" fill="#ff83f4" stroke="#d002bc" /><rect x="798" y="375.0" width="64" height="3" fill="#ff72e7" stroke="#7c7c7c" /><rect x="837.0" y="402.0" width="12.0" height="3" fill="#fff874" stroke="#eb9c26" /><rect x="837.0" y="455.5" width="12.0" height="3" fill="#fff874" stroke="#eb9c26" /><rect x="837.0" y="509.0" width="12.0" height="3" fill="#fff874" stroke="#eb9c26" /><rect x="837.0" y="535.5" width="12.0" height="3" fill="#fff874" stroke="#eb9c26" /><rect x="837.0" y="589.5" width="12.0" height="3" fill="#fff874" stroke="#eb9c26" /><rect x="824.0" y="616.0" width="12.0" height="3" fill="#80c9ff" stroke="#0b6cba" /><rect x="798.0" y="643.0" width="12.0" height="3" fill="#ff3c3c" stroke="#c71f1f" /><rect x="811.0" y="643.0" width="12.0" height="3" fill="#35df39" stroke="#03aa10" /><rect x="798.0" y="669.5" width="12.0" height="3" fill="#ff3c3c" stroke="#c71f1f" /><rect x="811.0" y="669.5" width="12.0" height="3" fill="#35df39" stroke="#03aa10" /><rect x="798.0" y="696.5" width="12.0" height="3" fill="#ff3c3c" stroke="#c71f1f" /><rect x="798.0" y="723.0" width="12.0" height="3" fill="#ff3c3c" stroke="#c71f1f" /><rect x="811.0" y="723.0" width="12.0" height="3" fill="#35df39" stroke="#03aa10" /><rect x="798.0" y="750.0" width="12.0" height="3" fill="#ff3c3c" stroke="#c71f1f" /><rect x="811.0" y="750.0" width="12.0" height="3" fill="#35df39" stroke="#03aa10" /><rect x="798.0" y="777.0" width="12.0" height="3" fill="#ff3c3c" stroke="#c71f1f" /><rect x="798.0" y="803.5" width="12.0" height="3" fill="#ff3c3c" stroke="#c71f1f" /><rect x="811.0" y="803.5" width="12.0" height="3" fill="#35df39" stroke="#03aa10" /><rect x="798.0" y="830.5" width="12.0" height="3" fill="#ff3c3c" stroke="#c71f1f" /><rect x="811.0" y="830.5" width="12.0" height="3" fill="#35df39" stroke="#03aa10" /><rect x="912.0" y="0.0" width="12.0" height="3" fill="#ff3c3c" stroke="#c71f1f" /><rect x="925.0" y="27.0" width="12.0" height="3" fill="#35df39" stroke="#03aa10" /><rect x="925.0" y="53.5" width="12.0" height="3" fill="#35df39" stroke="#03aa10" /><rect x="964.0" y="107.5" width="12.0" height="3" fill="#ff83f4" stroke="#d002bc" /><rect x="951.0" y="134.0" width="12.0" height="3" fill="#fff874" stroke="#eb9c26" /><rect x="964.0" y="161.0" width="12.0" height="3" fill="#ff83f4" stroke="#d002bc" /><rect x="912" y="161.0" width="64" height="3" fill="#ff72e7" stroke="#7c7c7c" /><rect x="912.0" y="214.5" width="12.0" height="3" fill="#ff3c3c" stroke="#c71f1f" /><rect x="925.0" y="214.5" width="12.0" height="3" fill="#35df39" stroke="#03aa10" /><rect x="964.0" y="268.5" width="12.0" height="3" fill="#ff83f4" stroke="#d002bc" /><rect x="912" y="268.5" width="64" height="3" fill="#ff72e7" stroke="#7c7c7c" /><rect x="912.0" y="295.0" width="12.0" height="3" fill="#ff3c3c" stroke="#c71f1f" /><rect x="925.0" y="295.0" width="12.0" height="3" fill="#35df39" stroke="#03aa10" /><rect x="912.0" y="322.0" width="12.0" height="3" fill="#ff3c3c" stroke="#c71f1f" /><rect x="925.0" y="322.0" width="12.0" height="3" fill="#35df39" stroke="#03aa10" /><rect x="964.0" y="375.5" width="12.0" height="3" fill="#ff83f4" stroke="#d002bc" /><rect x="912" y="375.5" width="64" height="3" fill="#ff72e7" stroke="#7c7c7c" /><rect x="912.0" y="402.0" width="12.0" height="3" fill="#ff3c3c" stroke="#c71f1f" /><rect x="938.0" y="402.0" width="12.0" height="3" fill="#80c9ff" stroke="#0b6cba" /><rect x="912.0" y="456.0" width="12.0" height="3" fill="#ff3c3c" stroke="#c71f1f" /><rect x="938.0" y="456.0" width="12.0" height="3" fill="#80c9ff" stroke="#0b6cba" /><rect x="912.0" y="509.5" width="12.0" height="3" fill="#ff3c3c" stroke="#c71f1f" /><rect x="938.0" y="536.0" width="12.0" height="3" fill="#80c9ff" stroke="#0b6cba" /><rect x="912.0" y="589.5" width="12.0" height="3" fill="#ff3c3c" stroke="#c71f1f" /><rect x="925.0" y="616.5" width="12.0" height="3" fill="#35df39" stroke="#03aa10" /><rect x="925.0" y="643.5" width="12.0" height="3" fill="#35df39" stroke="#03aa10" /><rect x="938.0" y="643.5" width="12.0" height="3" fill="#80c9ff" stroke="#0b6cba" /><rect x="964.0" y="697.0" width="12.0" height="3" fill="#ff83f4" stroke="#d002bc" /><rect x="912" y="697.0" width="64" height="3" fill="#ff72e7" stroke="#7c7c7c" /><rect x="925.0" y="723.5" width="12.0" height="3" fill="#35df39" stroke="#03aa10" /><rect x="938.0" y="723.5" width="12.0" height="3" fill="#80c9ff" stroke="#0b6cba" /><rect x="925.0" y="750.5" width="12.0" height="3" fill="#35df39" stroke="#03aa10" /><rect x="938.0" y="750.5" width="12.0" height="3" fill="#80c9ff" stroke="#0b6cba" /><rect x="964.0" y="804.0" width="12.0" height="3" fill="#ff83f4" stroke="#d002bc" /><rect x="912" y="804.0" width="64" height="3" fill="#ff72e7" stroke="#7c7c7c" /><rect x="925.0" y="831.0" width="12.0" height="3" fill="#35df39" stroke="#03aa10" /><rect x="951.0" y="831.0" width="12.0" height="3" fill="#fff874" stroke="#eb9c26" /><rect x="1039.0" y="27.0" width="12.0" height="3" fill="#35df39" stroke="#03aa10" /><rect x="1065.0" y="27.0" width="12.0" height="3" fill="#fff874" stroke="#eb9c26" /><rect x="1026.0" y="80.5" width="12.0" height="3" fill="#ff3c3c" stroke="#c71f1f" /><rect x="1039.0" y="107.0" width="12.0" height="3" fill="#35df39" stroke="#03aa10" /><rect x="1052.0" y="161.0" width="12.0" height="3" fill="#80c9ff" stroke="#0b6cba" /><rect x="1065.0" y="187.5" width="12.0" height="3" fill="#fff874" stroke="#eb9c26" /><rect x="1078.0" y="214.5" width="12.0" height="3" fill="#ff83f4" stroke="#d002bc" /><rect x="1078.0" y="268.0" width="12.0" height="3" fill="#ff83f4" stroke="#d002bc" /><rect x="1026" y="268.0" width="64" height="3" fill="#ff72e7" stroke="#7c7c7c" /><rect x="1078.0" y="294.5" width="12.0" height="3" fill="#ff83f4" stroke="#d002bc" /><rect x="1078.0" y="321.5" width="12.0" height="3" fill="#ff83f4" stroke="#d002bc" /><rect x="1078.0" y="375.0" width="12.0" height="3" fill="#ff83f4" stroke="#d002bc" /><rect x="1026" y="375.0" width="64" height="3" fill="#ff72e7" stroke="#7c7c7c" /><rect x="1065.0" y="402.0" width="12.0" height="3" fill="#fff874" stroke="#eb9c26" /><rect x="1065.0" y="455.5" width="12.0" height="3" fill="#fff874" stroke="#eb9c26" /><rect x="1065.0" y="482.0" width="12.0" height="3" fill="#fff874" stroke="#eb9c26" /><rect x="1039.0" y="509.0" width="12.0" height="3" fill="#35df39" stroke="#03aa10" /><rect x="1065.0" y="536.0" width="12.0" height="3" fill="#fff874" stroke="#eb9c26" /><rect x="1065.0" y="589.0" width="12.0" height="3" fill="#fff874" stroke="#eb9c26" /><rect x="1052.0" y="616.0" width="12.0" height="3" fill="#80c9ff" stroke="#0b6cba" /><rect x="1026.0" y="643.0" width="12.0" height="3" fill="#ff3c3c" stroke="#c71f1f" /><rect x="1039.0" y="643.0" width="12.0" height="3" fill="#35df39" stroke="#03aa10" /><rect x="1026.0" y="669.5" width="12.0" height="3" fill="#ff3c3c" stroke="#c71f1f" /><rect x="1039.0" y="669.5" width="12.0" height="3" fill="#35df39" stroke="#03aa10" /><rect x="1026.0" y="696.5" width="12.0" height="3" fill="#ff3c3c" stroke="#c71f1f" /><rect x="1026.0" y="723.5" width="12.0" height="3" fill="#ff3c3c" stroke="#c71f1f" /><rect x="1039.0" y="723.5" width="12.0" height="3" fill="#35df39" stroke="#03aa10" /><rect x="1026.0" y="750.0" width="12.0" height="3" fill="#ff3c3c" stroke="#c71f1f" /><rect x="1039.0" y="750.0" width="12.0" height="3" fill="#35df39" stroke="#03aa10" /><rect x="1026.0" y="777.0" width="12.0" height="3" fill="#ff3c3c" stroke="#c71f1f" /><rect x="1039.0" y="803.5" width="12.0" height="3" fill="#35df39" stroke="#03aa10" /><rect x="1039.0" y="830.5" width="12.0" height="3" fill="#35df39" stroke="#03aa10" /><rect x="1179.0" y="27.0" width="12.0" height="3" fill="#fff874" stroke="#eb9c26" /><rect x="1179.0" y="53.5" width="12.0" height="3" fill="#fff874" stroke="#eb9c26" /><rect x="1166.0" y="80.5" width="12.0" height="3" fill="#80c9ff" stroke="#0b6cba" /><rect x="1192.0" y="107.0" width="12.0" height="3" fill="#ff83f4" stroke="#d002bc" /><rect x="1179.0" y="134.0" width="12.0" height="3" fill="#fff874" stroke="#eb9c26" /><rect x="1192.0" y="160.5" width="12.0" height="3" fill="#ff83f4" stroke="#d002bc" /><rect x="1140" y="160.5" width="64" height="3" fill="#ff72e7" stroke="#7c7c7c" /><rect x="1140.0" y="214.0" width="12.0" height="3" fill="#ff3c3c" stroke="#c71f1f" /><rect x="1153.0" y="214.0" width="12.0" height="3" fill="#35df39" stroke="#03aa10" /><rect x="1140.0" y="241.0" width="12.0" height="3" fill="#ff3c3c" stroke="#c71f1f" /><rect x="1153.0" y="241.0" width="12.0" height="3" fill="#35df39" stroke="#03aa10" /><rect x="1140.0" y="268.0" width="12.0" height="3" fill="#ff3c3c" stroke="#c71f1f" /><rect x="1140.0" y="294.5" width="12.0" height="3" fill="#ff3c3c" stroke="#c71f1f" /><rect x="1153.0" y="294.5" width="12.0" height="3" fill="#35df39" stroke="#03aa10" /><rect x="1140.0" y="348.0" width="12.0" height="3" fill="#ff3c3c" stroke="#c71f1f" /><rect x="1140.0" y="375.0" width="12.0" height="3" fill="#ff3c3c" stroke="#c71f1f" /><rect x="1153.0" y="375.0" width="12.0" height="3" fill="#35df39" stroke="#03aa10" /><rect x="1140.0" y="455.5" width="12.0" height="3" fill="#ff3c3c" stroke="#c71f1f" /><rect x="1140.0" y="482.0" width="12.0" height="3" fill="#ff3c3c" stroke="#c71f1f" /><rect x="1153.0" y="482.0" width="12.0" height="3" fill="#35df39" stroke="#03aa10" /><rect x="1140.0" y="509.0" width="12.0" height="3" fill="#ff3c3c" stroke="#c71f1f" /><rect x="1140.0" y="535.5" width="12.0" height="3" fill="#ff3c3c" stroke="#c71f1f" /><rect x="1166.0" y="535.5" width="12.0" height="3" fill="#80c9ff" stroke="#0b6cba" /><rect x="1153.0" y="562.5" width="12.0" height="3" fill="#35df39" stroke="#03aa10" /><rect x="1140.0" y="589.0" width="12.0" height="3" fill="#ff3c3c" stroke="#c71f1f" /><rect x="1140.0" y="643.0" width="12.0" height="3" fill="#ff3c3c" stroke="#c71f1f" /><rect x="1153.0" y="643.0" width="12.0" height="3" fill="#35df39" stroke="#03aa10" /><rect x="1140.0" y="669.5" width="12.0" height="3" fill="#ff3c3c" stroke="#c71f1f" /><rect x="1153.0" y="669.5" width="12.0" height="3" fill="#35df39" stroke="#03aa10" /><rect x="1140.0" y="696.5" width="12.0" height="3" fill="#ff3c3c" stroke="#c71f1f" /><rect x="1140.0" y="723.0" width="12.0" height="3" fill="#ff3c3c" stroke="#c71f1f" /><rect x="1153.0" y="723.0" width="12.0" height="3" fill="#35df39" stroke="#03aa10" /><rect x="1140.0" y="776.5" width="12.0" height="3" fill="#ff3c3c" stroke="#c71f1f" /><rect x="1140.0" y="803.5" width="12.0" height="3" fill="#ff3c3c" stroke="#c71f1f" /><rect x="1140.0" y="830.5" width="12.0" height="3" fill="#ff3c3c" stroke="#c71f1f" /><rect x="1153.0" y="830.5" width="12.0" height="3" fill="#35df39" stroke="#03aa10" /><rect x="1254.0" y="27.0" width="12.0" height="3" fill="#ff3c3c" stroke="#c71f1f" /><rect x="1254.0" y="53.5" width="12.0" height="3" fill="#ff3c3c" stroke="#c71f1f" /><rect x="1267.0" y="53.5" width="12.0" height="3" fill="#35df39" stroke="#03aa10" /><rect x="1254.0" y="80.5" width="12.0" height="3" fill="#ff3c3c" stroke="#c71f1f" /><rect x="1254.0" y="107.0" width="12.0" height="3" fill="#ff3c3c" stroke="#c71f1f" /><rect x="1280.0" y="107.0" width="12.0" height="3" fill="#80c9ff" stroke="#0b6cba" /><rect x="1267.0" y="134.0" width="12.0" height="3" fill="#35df39" stroke="#03aa10" /><rect x="1254.0" y="161.0" width="12.0" height="3" fill="#ff3c3c" stroke="#c71f1f" /><rect x="1254.0" y="214.5" width="12.0" height="3" fill="#ff3c3c" stroke="#c71f1f" /><rect x="1267.0" y="214.5" width="12.0" height="3" fill="#35df39" stroke="#03aa10" /><rect x="1254.0" y="268.0" width="12.0" height="3" fill="#ff3c3c" stroke="#c71f1f" /><rect x="1267.0" y="268.0" width="12.0" height="3" fill="#35df39" stroke="#03aa10" /><rect x="1267.0" y="321.5" width="12.0" height="3" fill="#35df39" stroke="#03aa10" /><rect x="1254.0" y="348.5" width="12.0" height="3" fill="#ff3c3c" stroke="#c71f1f" /><rect x="1267.0" y="375.0" width="12.0" height="3" fill="#35df39" stroke="#03aa10" /><rect x="1254.0" y="402.0" width="12.0" height="3" fill="#ff3c3c" stroke="#c71f1f" /><rect x="1254.0" y="428.5" width="12.0" height="3" fill="#ff3c3c" stroke="#c71f1f" /><rect x="1280.0" y="428.5" width="12.0" height="3" fill="#80c9ff" stroke="#0b6cba" /><rect x="1254.0" y="482.0" width="12.0" height="3" fill="#ff3c3c" stroke="#c71f1f" /><rect x="1280.0" y="482.0" width="12.0" height="3" fill="#80c9ff" stroke="#0b6cba" /><rect x="1280.0" y="536.0" width="12.0" height="3" fill="#80c9ff" stroke="#0b6cba" /><rect x="1254.0" y="562.5" width="12.0" height="3" fill="#ff3c3c" stroke="#c71f1f" /><rect x="1280.0" y="589.5" width="12.0" height="3" fill="#80c9ff" stroke="#0b6cba" /><rect x="1254.0" y="616.0" width="12.0" height="3" fill="#ff3c3c" stroke="#c71f1f" /><rect x="1267.0" y="643.0" width="12.0" height="3" fill="#35df39" stroke="#03aa10" /><rect x="1293.0" y="643.0" width="12.0" height="3" fill="#fff874" stroke="#eb9c26" /><rect x="1267.0" y="696.5" width="12.0" height="3" fill="#35df39" stroke="#03aa10" /><rect x="1293.0" y="696.5" width="12.0" height="3" fill="#fff874" stroke="#eb9c26" /><rect x="1293.0" y="750.0" width="12.0" height="3" fill="#fff874" stroke="#eb9c26" /><rect x="1267.0" y="777.0" width="12.0" height="3" fill="#35df39" stroke="#03aa10" /><rect x="1280.0" y="803.5" width="12.0" height="3" fill="#80c9ff" stroke="#0b6cba" /><rect x="1267.0" y="830.5" width="12.0" height="3" fill="#35df39" stroke="#03aa10" /><rect x="1407.0" y="0.0" width="12.0" height="3" fill="#fff874" stroke="#eb9c26" /><rect x="1407.0" y="27.0" width="12.0" height="3" fill="#fff874" stroke="#eb9c26" /><rect x="1407.0" y="54.0" width="12.0" height="3" fill="#fff874" stroke="#eb9c26" /><rect x="1407.0" y="80.5" width="12.0" height="3" fill="#fff874" stroke="#eb9c26" /><rect x="1407.0" y="107.5" width="12.0" height="3" fill="#fff874" stroke="#eb9c26" /><rect x="1381.0" y="134.0" width="12.0" height="3" fill="#35df39" stroke="#03aa10" /><rect x="1394.0" y="161.0" width="12.0" height="3" fill="#80c9ff" stroke="#0b6cba" /><rect x="1407.0" y="187.5" width="12.0" height="3" fill="#fff874" stroke="#eb9c26" /><rect x="1394.0" y="214.5" width="12.0" height="3" fill="#80c9ff" stroke="#0b6cba" /><rect x="1420.0" y="214.5" width="12.0" height="3" fill="#ff83f4" stroke="#d002bc" /><rect x="1394.0" y="268.0" width="12.0" height="3" fill="#80c9ff" stroke="#0b6cba" /><rect x="1420.0" y="268.0" width="12.0" height="3" fill="#ff83f4" stroke="#d002bc" /><rect x="1420.0" y="321.5" width="12.0" height="3" fill="#ff83f4" stroke="#d002bc" /><rect x="1394.0" y="348.5" width="12.0" height="3" fill="#80c9ff" stroke="#0b6cba" /><rect x="1420.0" y="375.0" width="12.0" height="3" fill="#ff83f4" stroke="#d002bc" /><rect x="1394.0" y="402.0" width="12.0" height="3" fill="#80c9ff" stroke="#0b6cba" /><rect x="1381.0" y="429.0" width="12.0" height="3" fill="#35df39" stroke="#03aa10" /><rect x="1407.0" y="429.0" width="12.0" height="3" fill="#fff874" stroke="#eb9c26" /><rect x="1381.0" y="482.5" width="12.0" height="3" fill="#35df39" stroke="#03aa10" /><rect x="1407.0" y="482.5" width="12.0" height="3" fill="#fff874" stroke="#eb9c26" /><rect x="1381.0" y="536.0" width="12.0" height="3" fill="#35df39" stroke="#03aa10" /><rect x="1407.0" y="536.0" width="12.0" height="3" fill="#fff874" stroke="#eb9c26" /><rect x="1381.0" y="562.5" width="12.0" height="3" fill="#35df39" stroke="#03aa10" /><rect x="1407.0" y="589.5" width="12.0" height="3" fill="#fff874" stroke="#eb9c26" /><rect x="1394.0" y="616.5" width="12.0" height="3" fill="#80c9ff" stroke="#0b6cba" /><rect x="1381.0" y="643.0" width="12.0" height="3" fill="#35df39" stroke="#03aa10" /><rect x="1381.0" y="670.0" width="12.0" height="3" fill="#35df39" stroke="#03aa10" /><rect x="1381.0" y="696.5" width="12.0" height="3" fill="#35df39" stroke="#03aa10" /><rect x="1368.0" y="723.5" width="12.0" height="3" fill="#ff3c3c" stroke="#c71f1f" /><rect x="1368.0" y="750.0" width="12.0" height="3" fill="#ff3c3c" stroke="#c71f1f" /><rect x="1368.0" y="777.0" width="12.0" height="3" fill="#ff3c3c" stroke="#c71f1f" /><rect x="1381.0" y="804.0" width="12.0" height="3" fill="#35df39" stroke="#03aa10" /><rect x="1420.0" y="830.5" width="12.0" height="3" fill="#ff83f4" stroke="#d002bc" /><rect x="1368" y="830.5" width="64" height="3" fill="#ff72e7" stroke="#7c7c7c" /><rect x="1508.0" y="26.5" width="12.0" height="3" fill="#80c9ff" stroke="#0b6cba" /><rect x="1508.0" y="53.5" width="12.0" height="3" fill="#80c9ff" stroke="#0b6cba" /><rect x="1534.0" y="107.0" width="12.0" height="3" fill="#ff83f4" stroke="#d002bc" /><rect x="1521.0" y="134.0" width="12.0" height="3" fill="#fff874" stroke="#eb9c26" /><rect x="1534.0" y="160.5" width="12.0" height="3" fill="#ff83f4" stroke="#d002bc" /><rect x="1482" y="160.5" width="64" height="3" fill="#ff72e7" stroke="#7c7c7c" /><rect x="1482.0" y="214.0" width="12.0" height="3" fill="#ff3c3c" stroke="#c71f1f" /><rect x="1495.0" y="214.0" width="12.0" height="3" fill="#35df39" stroke="#03aa10" /><rect x="1534.0" y="267.5" width="12.0" height="3" fill="#ff83f4" stroke="#d002bc" /><rect x="1482" y="267.5" width="64" height="3" fill="#ff72e7" stroke="#7c7c7c" /><rect x="1482.0" y="294.5" width="12.0" height="3" fill="#ff3c3c" stroke="#c71f1f" /><rect x="1495.0" y="294.5" width="12.0" height="3" fill="#35df39" stroke="#03aa10" /><rect x="1482.0" y="321.5" width="12.0" height="3" fill="#ff3c3c" stroke="#c71f1f" /><rect x="1495.0" y="321.5" width="12.0" height="3" fill="#35df39" stroke="#03aa10" /><rect x="1534.0" y="375.0" width="12.0" height="3" fill="#ff83f4" stroke="#d002bc" /><rect x="1482" y="375.0" width="64" height="3" fill="#ff72e7" stroke="#7c7c7c" /><rect x="1482.0" y="401.5" width="12.0" height="3" fill="#ff3c3c" stroke="#c71f1f" /><rect x="1508.0" y="401.5" width="12.0" height="3" fill="#80c9ff" stroke="#0b6cba" /><rect x="1534.0" y="428.5" width="12.0" height="3" fill="#ff83f4" stroke="#d002bc" /><rect x="1482" y="428.5" width="64" height="3" fill="#ff72e7" stroke="#7c7c7c" /><rect x="1482.0" y="455.0" width="12.0" height="3" fill="#ff3c3c" stroke="#c71f1f" /><rect x="1508.0" y="455.0" width="12.0" height="3" fill="#80c9ff" stroke="#0b6cba" /><rect x="1534.0" y="482.0" width="12.0" height="3" fill="#ff83f4" stroke="#d002bc" /><rect x="1482" y="482.0" width="64" height="3" fill="#ff72e7" stroke="#7c7c7c" /><rect x="1482.0" y="509.0" width="12.0" height="3" fill="#ff3c3c" stroke="#c71f1f" /><rect x="1482.0" y="535.5" width="12.0" height="3" fill="#ff3c3c" stroke="#c71f1f" /><rect x="1508.0" y="535.5" width="12.0" height="3" fill="#80c9ff" stroke="#0b6cba" /><rect x="1482.0" y="589.0" width="12.0" height="3" fill="#ff3c3c" stroke="#c71f1f" /><rect x="1495.0" y="616.0" width="12.0" height="3" fill="#35df39" stroke="#03aa10" /><rect x="1495.0" y="642.5" width="12.0" height="3" fill="#35df39" stroke="#03aa10" /><rect x="1508.0" y="642.5" width="12.0" height="3" fill="#80c9ff" stroke="#0b6cba" /><rect x="1534.0" y="696.5" width="12.0" height="3" fill="#ff83f4" stroke="#d002bc" /><rect x="1482" y="696.5" width="64" height="3" fill="#ff72e7" stroke="#7c7c7c" /><rect x="1495.0" y="723.0" width="12.0" height="3" fill="#35df39" stroke="#03aa10" /><rect x="1508.0" y="723.0" width="12.0" height="3" fill="#80c9ff" stroke="#0b6cba" /><rect x="1495.0" y="750.0" width="12.0" height="3" fill="#35df39" stroke="#03aa10" /><rect x="1508.0" y="750.0" width="12.0" height="3" fill="#80c9ff" stroke="#0b6cba" /><rect x="1534.0" y="803.5" width="12.0" height="3" fill="#ff83f4" stroke="#d002bc" /><rect x="1482" y="803.5" width="64" height="3" fill="#ff72e7" stroke="#7c7c7c" /><rect x="1495.0" y="830.0" width="12.0" height="3" fill="#35df39" stroke="#03aa10" /><rect x="1521.0" y="830.0" width="12.0" height="3" fill="#fff874" stroke="#eb9c26" /><rect x="1609.0" y="27.0" width="12.0" height="3" fill="#35df39" stroke="#03aa10" /><rect x="1635.0" y="27.0" width="12.0" height="3" fill="#fff874" stroke="#eb9c26" /><rect x="1622.0" y="80.5" width="12.0" height="3" fill="#80c9ff" stroke="#0b6cba" /><rect x="1609.0" y="107.0" width="12.0" height="3" fill="#35df39" stroke="#03aa10" /><rect x="1635.0" y="107.0" width="12.0" height="3" fill="#fff874" stroke="#eb9c26" /><rect x="1648.0" y="160.5" width="12.0" height="3" fill="#ff83f4" stroke="#d002bc" /><rect x="1596" y="160.5" width="64" height="3" fill="#ff72e7" stroke="#7c7c7c" /><rect x="1648.0" y="214.5" width="12.0" height="3" fill="#ff83f4" stroke="#d002bc" /><rect x="1648.0" y="268.0" width="12.0" height="3" fill="#ff83f4" stroke="#d002bc" /><rect x="1596" y="268.0" width="64" height="3" fill="#ff72e7" stroke="#7c7c7c" /><rect x="1648.0" y="294.5" width="12.0" height="3" fill="#ff83f4" stroke="#d002bc" /><rect x="1648.0" y="321.5" width="12.0" height="3" fill="#ff83f4" stroke="#d002bc" /><rect x="1648.0" y="375.0" width="12.0" height="3" fill="#ff83f4" stroke="#d002bc" /><rect x="1596" y="375.0" width="64" height="3" fill="#ff72e7" stroke="#7c7c7c" /><rect x="1635.0" y="402.0" width="12.0" height="3" fill="#fff874" stroke="#eb9c26" /><rect x="1635.0" y="455.5" width="12.0" height="3" fill="#fff874" stroke="#eb9c26" /><rect x="1609.0" y="509.0" width="12.0" height="3" fill="#35df39" stroke="#03aa10" /><rect x="1635.0" y="535.5" width="12.0" height="3" fill="#fff874" stroke="#eb9c26" /><rect x="1635.0" y="589.5" width="12.0" height="3" fill="#fff874" stroke="#eb9c26" /><rect x="1622.0" y="616.0" width="12.0" height="3" fill="#80c9ff" stroke="#0b6cba" /><rect x="1596.0" y="643.0" width="12.0" height="3" fill="#ff3c3c" stroke="#c71f1f" /><rect x="1609.0" y="643.0" width="12.0" height="3" fill="#35df39" stroke="#03aa10" /><rect x="1609.0" y="669.5" width="12.0" height="3" fill="#35df39" stroke="#03aa10" /><rect x="1609.0" y="683.0" width="12.0" height="3" fill="#35df39" stroke="#03aa10" /><rect x="1609.0" y="696.5" width="12.0" height="3" fill="#35df39" stroke="#03aa10" /><rect x="1596.0" y="723.0" width="12.0" height="3" fill="#ff3c3c" stroke="#c71f1f" /><rect x="1609.0" y="723.0" width="12.0" height="3" fill="#35df39" stroke="#03aa10" /><rect x="1609.0" y="750.0" width="12.0" height="3" fill="#35df39" stroke="#03aa10" /><rect x="1609.0" y="763.5" width="12.0" height="3" fill="#35df39" stroke="#03aa10" /><rect x="1609.0" y="777.0" width="12.0" height="3" fill="#35df39" stroke="#03aa10" /><rect x="1609.0" y="803.5" width="12.0" height="3" fill="#35df39" stroke="#03aa10" /><rect x="1622.0" y="803.5" width="12.0" height="3" fill="#80c9ff" stroke="#0b6cba" /><rect x="1622.0" y="830.5" width="12.0" height="3" fill="#80c9ff" stroke="#0b6cba" /><rect x="1622.0" y="843.5" width="12.0" height="3" fill="#80c9ff" stroke="#0b6cba" /><rect x="1736.0" y="0.0" width="12.0" height="3" fill="#80c9ff" stroke="#0b6cba" /><rect x="1749.0" y="27.0" width="12.0" height="3" fill="#fff874" stroke="#eb9c26" /><rect x="1749.0" y="53.5" width="12.0" height="3" fill="#fff874" stroke="#eb9c26" /><rect x="1749.0" y="67.0" width="12.0" height="3" fill="#fff874" stroke="#eb9c26" /><rect x="1749.0" y="80.5" width="12.0" height="3" fill="#fff874" stroke="#eb9c26" /><rect x="1762.0" y="107.5" width="12.0" height="3" fill="#ff83f4" stroke="#d002bc" /><rect x="1749.0" y="134.0" width="12.0" height="3" fill="#fff874" stroke="#eb9c26" /><rect x="1762.0" y="161.0" width="12.0" height="3" fill="#ff83f4" stroke="#d002bc" /><rect x="1710" y="161.0" width="64" height="3" fill="#ff72e7" stroke="#7c7c7c" /><rect x="1710.0" y="214.5" width="12.0" height="3" fill="#ff3c3c" stroke="#c71f1f" /><rect x="1723.0" y="214.5" width="12.0" height="3" fill="#35df39" stroke="#03aa10" /><rect x="1710.0" y="241.0" width="12.0" height="3" fill="#ff3c3c" stroke="#c71f1f" /><rect x="1723.0" y="241.0" width="12.0" height="3" fill="#35df39" stroke="#03aa10" /><rect x="1710.0" y="268.0" width="12.0" height="3" fill="#ff3c3c" stroke="#c71f1f" /><rect x="1710.0" y="295.0" width="12.0" height="3" fill="#ff3c3c" stroke="#c71f1f" /><rect x="1723.0" y="295.0" width="12.0" height="3" fill="#35df39" stroke="#03aa10" /><rect x="1710.0" y="348.5" width="12.0" height="3" fill="#ff3c3c" stroke="#c71f1f" /><rect x="1710.0" y="375.0" width="12.0" height="3" fill="#ff3c3c" stroke="#c71f1f" /><rect x="1723.0" y="375.0" width="12.0" height="3" fill="#35df39" stroke="#03aa10" /><rect x="1710.0" y="455.5" width="12.0" height="3" fill="#ff3c3c" stroke="#c71f1f" /><rect x="1710.0" y="482.5" width="12.0" height="3" fill="#ff3c3c" stroke="#c71f1f" /><rect x="1723.0" y="482.5" width="12.0" height="3" fill="#35df39" stroke="#03aa10" /><rect x="1710.0" y="509.0" width="12.0" height="3" fill="#ff3c3c" stroke="#c71f1f" /><rect x="1710.0" y="536.0" width="12.0" height="3" fill="#ff3c3c" stroke="#c71f1f" /><rect x="1736.0" y="536.0" width="12.0" height="3" fill="#80c9ff" stroke="#0b6cba" /><rect x="1723.0" y="562.5" width="12.0" height="3" fill="#35df39" stroke="#03aa10" /><rect x="1710.0" y="589.5" width="12.0" height="3" fill="#ff3c3c" stroke="#c71f1f" /><rect x="1710.0" y="643.0" width="12.0" height="3" fill="#ff3c3c" stroke="#c71f1f" /><rect x="1723.0" y="643.0" width="12.0" height="3" fill="#35df39" stroke="#03aa10" /><rect x="1710.0" y="670.0" width="12.0" height="3" fill="#ff3c3c" stroke="#c71f1f" /><rect x="1723.0" y="670.0" width="12.0" height="3" fill="#35df39" stroke="#03aa10" /><rect x="1710.0" y="696.5" width="12.0" height="3" fill="#ff3c3c" stroke="#c71f1f" /><rect x="1710.0" y="723.5" width="12.0" height="3" fill="#ff3c3c" stroke="#c71f1f" /><rect x="1723.0" y="723.5" width="12.0" height="3" fill="#35df39" stroke="#03aa10" /><rect x="1710.0" y="777.0" width="12.0" height="3" fill="#ff3c3c" stroke="#c71f1f" /><rect x="1710.0" y="803.5" width="12.0" height="3" fill="#ff3c3c" stroke="#c71f1f" /><rect x="1710.0" y="830.5" width="12.0" height="3" fill="#ff3c3c" stroke="#c71f1f" /><rect x="1723.0" y="830.5" width="12.0" height="3" fill="#35df39" stroke="#03aa10" /><rect x="1824.0" y="26.5" width="12.0" height="3" fill="#ff3c3c" stroke="#c71f1f" /><rect x="1824.0" y="53.5" width="12.0" height="3" fill="#ff3c3c" stroke="#c71f1f" /><rect x="1837.0" y="53.5" width="12.0" height="3" fill="#35df39" stroke="#03aa10" /><rect x="1824.0" y="80.0" width="12.0" height="3" fill="#ff3c3c" stroke="#c71f1f" /><rect x="1824.0" y="107.0" width="12.0" height="3" fill="#ff3c3c" stroke="#c71f1f" /><rect x="1850.0" y="107.0" width="12.0" height="3" fill="#80c9ff" stroke="#0b6cba" /><rect x="1837.0" y="133.5" width="12.0" height="3" fill="#35df39" stroke="#03aa10" /><rect x="1824.0" y="160.5" width="12.0" height="3" fill="#ff3c3c" stroke="#c71f1f" /><rect x="1824.0" y="214.0" width="12.0" height="3" fill="#ff3c3c" stroke="#c71f1f" /><rect x="1837.0" y="214.0" width="12.0" height="3" fill="#35df39" stroke="#03aa10" /><rect x="1850.0" y="214.0" width="12.0" height="3" fill="#80c9ff" stroke="#0b6cba" /></svg>