<?xml version="1.0" encoding="UTF-8"?><svg xmlns="http://www.w3.org/2000/svg" xmlns:xlink="http://www.w3.org/1999/xlink"     width="4522" height="1117.0" viewBox="0 0 4522 1117.0"><defs></defs><rect x="0" y="188.0" width="188" height="929.0" fill="black" /><rect x="0" y="1116.0" width="188" height="1" fill="white" fill-opacity="0.5" /><text x="198" y="1116.0" font-size="14" fill="white" font-family="monospace" dominant-baseline="initial">1</text><rect x="0" y="1058.0" width="188" height="1" fill="white" fill-opacity="0.2" /><rect x="0" y="1000.0" width="188" height="1" fill="white" fill-opacity="0.2" /><rect x="0" y="942.0" width="188" height="1" fill="white" fill-opacity="0.2" /><rect x="0" y="883.5" width="188" height="1" fill="white" fill-opacity="0.5" /><text x="198" y="883.5" font-size="14" fill="white" font-family="monospace" dominant-baseline="initial">2</text><rect x="0" y="825.5" width="188" height="1" fill="white" fill-opacity="0.2" /><rect x="0" y="767.5" width="188" height="1" fill="white" fill-opacity="0.2" /><rect x="0" y="709.5" width="188" height="1" fill="white" fill-opacity="0.2" /><rect x="0" y="651.5" width="188" height="1" fill="white" fill-opacity="0.5" /><text x="198" y="651.5" font-size="14" fill="white" font-family="monospace" dominant-baseline="initial">3</text><rect x="0" y="593.5" width="188" height="1" fill="white" fill-opacity="0.2" /><rect x="0" y="535.5" width="188" height="1" fill="white" fill-opacity="0.2" /><rect x="0" y="477.5" width="188" height="1" fill="white" fill-opacity="0.2" /><rect x="0" y="419.0" width="188" height="1" fill="white" fill-opacity="0.5" /><text x="198" y="419.0" font-size="14" fill="white" font-family="monospace" dominant-baseline="initial">4</text><rect x="0" y="361.0" width="188" height="1" fill="white" fill-opacity="0.2" /><rect x="0" y="303.0" width="188" height="1" fill="white" fill-opacity="0.2" /><rect x="0" y="245.0" width="188" height="1" fill="white" fill-opacity="0.2" /><rect x="0" y="187.0" width="188" height="1" fill="white" fill-opacity="0.5" /><text x="198" y="187.0" font-size="14" fill="white" font-family="monospace" dominant-baseline="initial">5</text><rect x="0" y="1116.0" width="188" height="1" fill="aqua" fill-opacity="0.75" /><text x="0" y="1112.0" font-size="14" fill="aqua" fill-opacity="0.75" font-family="monospace">Phrase A</text><rect x="0" y="1116.0" width="188" height="1" fill="lime" fill-opacity="0.75" /><text x="198" y="1103.0" font-size="14" fill="lime" font-family="monospace" dominant-baseline="initial">155</text><rect x="238" y="188.0" width="188" height="929.0" fill="black" /><rect x="238" y="1116.0" width="188" height="1" fill="white" fill-opacity="0.5" /><text x="436" y="1116.0" font-size="14" fill="white" font-family="monospace" dominant-baseline="initial">5</text><rect x="238" y="1058.0" width="188" height="1" fill="white" fill-opacity="0.2" /><rect x="238" y="1000.0" width="188" height="1" fill="white" fill-opacity="0.2" /><rect x="238" y="942.0" width="188" height="1" fill="white" fill-opacity="0.2" /><rect x="238" y="883.5" width="188" height="1" fill="white" fill-opacity="0.5" /><text x="436" y="883.5" font-size="14" fill="white" font-family="monospace" dominant-baseline="initial">6</text><rect x="238" y="825.5" width="188" height="1" fill="white" fill-opacity="0.2" /><rect x="238" y="767.5" width="188" height="1" fill="white" fill-opacity="0.2" /><rect x="238" y="709.5" width="188" height="1" fill="white" fill-opacity="0.2" /><rect x="238" y="651.5" width="188" height="1" fill="white" fill-opacity="0.5" /><text x="436" y="651.5" font-size="14" fill="white" font-family="monospace" dominant-baseline="initial">7</text><rect x="238" y="593.5" width="188" height="1" fill="white" fill-opacity="0.2" /><rect x="238" y="535.5" width="188" height="1" fill="white" fill-opacity="0.2" /><rect x="238" y="477.5" width="188" height="1" fill="white" fill-opacity="0.2" /><rect x="238" y="419.0" width="188" height="1" fill="white" fill-opacity="0.5" /><text x="436" y="419.0" font-size="14" fill="white" font-family="monospace" dominant-baseline="initial">8</text><rect x="238" y="361.0" width="188" height="1" fill="white" fill-opacity="0.2" /><rect x="238" y="303.0" width="188" height="1" fill="white" fill-opacity="0.2" /><rect x="238" y="245.0" width="188" height="1" fill="white" fill-opacity="0.2" /><rect x="238" y="187.0" width="188" height="1" fill="white" fill-opacity="0.5" /><text x="436" y="187.0" font-size="14" fill="white" font-family="monospace" dominant-baseline="initial">9</text><rect x="476" y="188.0" width="188" height="929.0" fill="black" /><rect x="476" y="1116.0" width="188" height="1" fill="white" fill-opacity="0.5" /><text x="674" y="1116.0" font-size="14" fill="white" font-family="monospace" dominant-baseline="initial">9</text><rect x="476" y="1058.0" width="188" height="1" fill="white" fill-opacity="0.2" /><rect x="476" y="1000.0" width="188" height="1" fill="white" fill-opacity="0.2" /><rect x="476" y="941.5" width="188" height="1" fill="white" fill-opacity="0.2" /><rect x="476" y="883.5" width="188" height="1" fill="white" fill-opacity="0.5" /><text x="674" y="883.5" font-size="14" fill="white" font-family="monospace" dominant-baseline="initial">10</text><rect x="476" y="825.5" width="188" height="1" fill="white" fill-opacity="0.2" /><rect x="476" y="767.5" width="188" height="1" fill="white" fill-opacity="0.2" /><rect x="476" y="709.5" width="188" height="1" fill="white" fill-opacity="0.2" /><rect x="476" y="651.5" width="188" height="1" fill="white" fill-opacity="0.5" /><text x="674" y="651.5" font-size="14" fill="white" font-family="monospace" dominant-baseline="initial">11</text><rect x="476" y="593.5" width="188" height="1" fill="white" fill-opacity="0.2" /><rect x="476" y="535.5" width="188" height="1" fill="white" fill-opacity="0.2" /><rect x="476" y="477.0" width="188" height="1" fill="white" fill-opacity="0.2" /><rect x="476" y="419.0" width="188" height="1" fill="white" fill-opacity="0.5" /><text x="674" y="419.0" font-size="14" fill="white" font-family="monospace" dominant-baseline="initial">12</text><rect x="476" y="361.0" width="188" height="1" fill="white" fill-opacity="0.2" /><rect x="476" y="303.0" width="188" height="1" fill="white" fill-opacity="0.2" /><rect x="476" y="245.0" width="188" height="1" fill="white" fill-opacity="0.2" /><rect x="476" y="187.0" width="188" height="1" fill="white" fill-opacity="0.5" /><text x="674" y="187.0" font-size="14" fill="white" font-family="monospace" dominant-baseline="initial">13</text><rect x="476" y="883.75" width="188" height="1" fill="aqua" fill-opacity="0.75" /><text x="476" y="879.75" font-size="14" fill="aqua" fill-opacity="0.75" font-family="monospace">Intro</text><rect x="714" y="188.0" width="188" height="929.0" fill="black" /><rect x="714" y="1116.0" width="188" height="1" fill="white" fill-opacity="0.5" /><text x="912" y="1116.0" font-size="14" fill="white" font-family="monospace" dominant-baseline="initial">13</text><rect x="714" y="1058.0" width="188" height="1" fill="white" fill-opacity="0.2" /><rect x="714" y="1000.0" width="188" height="1" fill="white" fill-opacity="0.2" /><rect x="714" y="941.5" width="188" height="1" fill="white" fill-opacity="0.2" /><rect x="714" y="883.5" width="188" height="1" fill="white" fill-opacity="0.5" /><text x="912" y="883.5" font-size="14" fill="white" font-family="monospace" dominant-baseline="initial">14</text><rect x="714" y="825.5" width="188" height="1" fill="white" fill-opacity="0.2" /><rect x="714" y="767.5" width="188" height="1" fill="white" fill-opacity="0.2" /><rect x="714" y="709.5" width="188" height="1" fill="white" fill-opacity="0.2" /><rect x="714" y="651.5" width="188" height="1" fill="white" fill-opacity="0.5" /><text x="912" y="651.5" font-size="14" fill="white" font-family="monospace" dominant-baseline="initial">15</text><rect x="714" y="593.5" width="188" height="1" fill="white" fill-opacity="0.2" /><rect x="714" y="535.5" width="188" height="1" fill="white" fill-opacity="0.2" /><rect x="714" y="477.0" width="188" height="1" fill="white" fill-opacity="0.2" /><rect x="714" y="419.0" width="188" height="1" fill="white" fill-opacity="0.5" /><text x="912" y="419.0" font-size="14" fill="white" font-family="monospace" dominant-baseline="initial">16</text><rect x="714" y="361.0" width="188" height="1" fill="white" fill-opacity="0.2" /><rect x="714" y="303.0" width="188" height="1" fill="white" fill-opacity="0.2" /><rect x="714" y="245.0" width="188" height="1" fill="white" fill-opacity="0.2" /><rect x="714" y="187.0" width="188" height="1" fill="white" fill-opacity="0.5" /><text x="912" y="187.0" font-size="14" fill="white" font-family="monospace" dominant-baseline="initial">17</text><rect x="952" y="188.0" width="188" height="929.0" fill="black" /><rect x="952" y="1116.0" width="188" height="1" fill="white" fill-opacity="0.5" /><text x="1150" y="1116.0" font-size="14" fill="white" font-family="monospace" dominant-baseline="initial">17</text><rect x="952" y="1058.0" width="188" height="1" fill="white" fill-opacity="0.2" /><rect x="952" y="999.5" width="188" height="1" fill="white" fill-opacity="0.2" /><rect x="952" y="941.5" width="188" height="1" fill="white" fill-opacity="0.2" /><rect x="952" y="883.5" width="188" height="1" fill="white" fill-opacity="0.5" /><text x="1150" y="883.5" font-size="14" fill="white" font-family="monospace" dominant-baseline="initial">18</text><rect x="952" y="825.5" width="188" height="1" fill="white" fill-opacity="0.2" /><rect x="952" y="767.5" width="188" height="1" fill="white" fill-opacity="0.2" /><rect x="952" y="709.5" width="188" height="1" fill="white" fill-opacity="0.2" /><rect x="952" y="651.5" width="188" height="1" fill="white" fill-opacity="0.5" /><text x="1150" y="651.5" font-size="14" fill="white" font-family="monospace" dominant-baseline="initial">19</text><rect x="952" y="593.5" width="188" height="1" fill="white" fill-opacity="0.2" /><rect x="952" y="535.0" width="188" height="1" fill="white" fill-opacity="0.2" /><rect x="952" y="477.0" width="188" height="1" fill="white" fill-opacity="0.2" /><rect x="952" y="419.0" width="188" height="1" fill="white" fill-opacity="0.5" /><text x="1150" y="419.0" font-size="14" fill="white" font-family="monospace" dominant-baseline="initial">20</text><rect x="952" y="361.0" width="188" height="1" fill="white" fill-opacity="0.2" /><rect x="952" y="303.0" width="188" height="1" fill="white" fill-opacity="0.2" /><rect x="952" y="245.0" width="188" height="1" fill="white" fill-opacity="0.2" /><rect x="952" y="187.0" width="188" height="1" fill="white" fill-opacity="0.5" /><text x="1150" y="187.0" font-size="14" fill="white" font-family="monospace" dominant-baseline="initial">21</text><rect x="1190" y="188.0" width="188" height="929.0" fill="black" /><rect x="1190" y="1116.0" width="188" height="1" fill="white" fill-opacity="0.5" /><text x="1388" y="1116.0" font-size="14" fill="white" font-family="monospace" dominant-baseline="initial">21</text><rect x="1190" y="1058.0" width="188" height="1" fill="white" fill-opacity="0.2" /><rect x="1190" y="999.5" width="188" height="1" fill="white" fill-opacity="0.2" /><rect x="1190" y="941.5" width="188" height="1" fill="white" fill-opacity="0.2" /><rect x="1190" y="883.5" width="188" height="1" fill="white" fill-opacity="0.5" /><text x="1388" y="883.5" font-size="14" fill="white" font-family="monospace" dominant-baseline="initial">22</text><rect x="1190" y="825.5" width="188" height="1" fill="white" fill-opacity="0.2" /><rect x="1190" y="767.5" width="188" height="1" fill="white" fill-opacity="0.2" /><rect x="1190" y="709.5" width="188" height="1" fill="white" fill-opacity="0.2" /><rect x="1190" y="651.5" width="188" height="1" fill="white" fill-opacity="0.5" /><text x="1388" y="651.5" font-size="14" fill="white" font-family="monospace" dominant-baseline="initial">23</text><rect x="1190" y="593.5" width="188" height="1" fill="white" fill-opacity="0.2" /><rect x="1190" y="535.0" width="188" height="1" fill="white" fill-opacity="0.2" /><rect x="1190" y="477.0" width="188" height="1" fill="white" fill-opacity="0.2" /><rect x="1190" y="419.0" width="188" height="1" fill="white" fill-opacity="0.5" /><text x="1388" y="419.0" font-size="14" fill="white" font-family="monospace" dominant-baseline="initial">24</text><rect x="1190" y="361.0" width="188" height="1" fill="white" fill-opacity="0.2" /><rect x="1190" y="303.0" width="188" height="1" fill="white" fill-opacity="0.2" /><rect x="1190" y="245.0" width="188" height="1" fill="white" fill-opacity="0.2" /><rect x="1190" y="187.0" width="188" height="1" fill="white" fill-opacity="0.5" /><text x="1388" y="187.0" font-size="14" fill="white" font-family="monospace" dominant-baseline="initial">25</text><rect x="1190" y="651.4000000000005" width="188" height="1" fill="aqua" fill-opacity="0.75" /><text x="1190" y="647.4000000000005" font-size="14" fill="aqua" fill-opacity="0.75" font-family="monospace">Phrase B</text><rect x="1428" y="188.0" width="188" height="929.0" fill="black" /><rect x="1428" y="1116.0" width="188" height="1" fill="white" fill-opacity="0.5" /><text x="1626" y="1116.0" font-size="14" fill="white" font-family="monospace" dominant-baseline="initial">25</text><rect x="1428" y="1058.0" width="188" height="1" fill="white" fill-opacity="0.2" /><rect x="1428" y="999.5" width="188" height="1" fill="white" fill-opacity="0.2" /><rect x="1428" y="941.5" width="188" height="1" fill="white" fill-opacity="0.2" /><rect x="1428" y="883.5" width="188" height="1" fill="white" fill-opacity="0.5" /><text x="1626" y="883.5" font-size="14" fill="white" font-family="monospace" dominant-baseline="initial">26</text><rect x="1428" y="825.5" width="188" height="1" fill="white" fill-opacity="0.2" /><rect x="1428" y="767.5" width="188" height="1" fill="white" fill-opacity="0.2" /><rect x="1428" y="709.5" width="188" height="1" fill="white" fill-opacity="0.2" /><rect x="1428" y="651.5" width="188" height="1" fill="white" fill-opacity="0.5" /><text x="1626" y="651.5" font-size="14" fill="white" font-family="monospace" dominant-baseline="initial">27</text><rect x="1428" y="593.0" width="188" height="1" fill="white" fill-opacity="0.2" /><rect x="1428" y="535.0" width="188" height="1" fill="white" fill-opacity="0.2" /><rect x="1428" y="477.0" width="188" height="1" fill="white" fill-opacity="0.2" /><rect x="1428" y="419.0" width="188" height="1" fill="white" fill-opacity="0.5" /><text x="1626" y="419.0" font-size="14" fill="white" font-family="monospace" dominant-baseline="initial">28</text><rect x="1428" y="361.0" width="188" height="1" fill="white" fill-opacity="0.2" /><rect x="1428" y="303.0" width="188" height="1" fill="white" fill-opacity="0.2" /><rect x="1428" y="245.0" width="188" height="1" fill="white" fill-opacity="0.2" /><rect x="1428" y="187.0" width="188" height="1" fill="white" fill-opacity="0.5" /><text x="1626" y="187.0" font-size="14" fill="white" font-family="monospace" dominant-baseline="initial">29</text><rect x="1666" y="188.0" width="188" height="929.0" fill="black" /><rect x="1666" y="1116.0" width="188" height="1" fill="white" fill-opacity="0.5" /><text x="1864" y="1116.0" font-size="14" fill="white" font-family="monospace" dominant-baseline="initial">29</text><rect x="1666" y="1057.5" width="188" height="1" fill="white" fill-opacity="0.2" /><rect x="1666" y="999.5" width="188" height="1" fill="white" fill-opacity="0.2" /><rect x="1666" y="941.5" width="188" height="1" fill="white" fill-opacity="0.2" /><rect x="1666" y="883.5" width="188" height="1" fill="white" fill-opacity="0.5" /><text x="1864" y="883.5" font-size="14" fill="white" font-family="monospace" dominant-baseline="initial">30</text><rect x="1666" y="825.5" width="188" height="1" fill="white" fill-opacity="0.2" /><rect x="1666" y="767.5" width="188" height="1" fill="white" fill-opacity="0.2" /><rect x="1666" y="709.5" width="188" height="1" fill="white" fill-opacity="0.2" /><rect x="1666" y="651.5" width="188" height="1" fill="white" fill-opacity="0.5" /><text x="1864" y="651.5" font-size="14" fill="white" font-family="monospace" dominant-baseline="initial">31</text><rect x="1666" y="593.0" width="188" height="1" fill="white" fill-opacity="0.2" /><rect x="1666" y="535.0" width="188" height="1" fill="white" fill-opacity="0.2" /><rect x="1666" y="477.0" width="188" height="1" fill="white" fill-opacity="0.2" /><rect x="1666" y="419.0" width="188" height="1" fill="white" fill-opacity="0.5" /><text x="1864" y="419.0" font-size="14" fill="white" font-family="monospace" dominant-baseline="initial">32</text><rect x="1666" y="361.0" width="188" height="1" fill="white" fill-opacity="0.2" /><rect x="1666" y="303.0" width="188" height="1" fill="white" fill-opacity="0.2" /><rect x="1666" y="245.0" width="188" height="1" fill="white" fill-opacity="0.2" /><rect x="1666" y="187.0" width="188" height="1" fill="white" fill-opacity="0.5" /><text x="1864" y="187.0" font-size="14" fill="white" font-family="monospace" dominant-baseline="initial">33</text><rect x="1904" y="187.5" width="188" height="929.5" fill="black" /><rect x="1904" y="1116.0" width="188" height="1" fill="white" fill-opacity="0.5" /><text x="2102" y="1116.0" font-size="14" fill="white" font-family="monospace" dominant-baseline="initial">33</text><rect x="1904" y="1057.5" width="188" height="1" fill="white" fill-opacity="0.2" /><rect x="1904" y="999.5" width="188" height="1" fill="white" fill-opacity="0.2" /><rect x="1904" y="941.5" width="188" height="1" fill="white" fill-opacity="0.2" /><rect x="1904" y="883.5" width="188" height="1" fill="white" fill-opacity="0.5" /><text x="2102" y="883.5" font-size="14" fill="white" font-family="monospace" dominant-baseline="initial">34</text><rect x="1904" y="825.5" width="188" height="1" fill="white" fill-opacity="0.2" /><rect x="1904" y="767.5" width="188" height="1" fill="white" fill-opacity="0.2" /><rect x="1904" y="709.5" width="188" height="1" fill="white" fill-opacity="0.2" /><rect x="1904" y="651.0" width="188" height="1" fill="white" fill-opacity="0.5" /><text x="2102" y="651.0" font-size="14" fill="white" font-family="monospace" dominant-baseline="initial">35</text><rect x="1904" y="593.0" width="188" height="1" fill="white" fill-opacity="0.2" /><rect x="1904" y="535.0" width="188" height="1" fill="white" fill-opacity="0.2" /><rect x="1904" y="477.0" width="188" height="1" fill="white" fill-opacity="0.2" /><rect x="1904" y="419.0" width="188" height="1" fill="white" fill-opacity="0.5" /><text x="2102" y="419.0" font-size="14" fill="white" font-family="monospace" dominant-baseline="initial">36</text><rect x="1904" y="361.0" width="188" height="1" fill="white" fill-opacity="0.2" /><rect x="1904" y="303.0" width="188" height="1" fill="white" fill-opacity="0.2" /><rect x="1904" y="245.0" width="188" height="1" fill="white" fill-opacity="0.2" /><rect x="1904" y="186.5" width="188" height="1" fill="white" fill-opacity="0.5" /><text x="2102" y="186.5" font-size="14" fill="white" font-family="monospace" dominant-baseline="initial">37</text><rect x="2142" y="188.0" width="188" height="929.0" fill="black" /><rect x="2142" y="1116.0" width="188" height="1" fill="white" fill-opacity="0.5" /><text x="2340" y="1116.0" font-size="14" fill="white" font-family="monospace" dominant-baseline="initial">37</text><rect x="2142" y="1058.0" width="188" height="1" fill="white" fill-opacity="0.2" /><rect x="2142" y="1000.0" width="188" height="1" fill="white" fill-opacity="0.2" /><rect x="2142" y="942.0" width="188" height="1" fill="white" fill-opacity="0.2" /><rect x="2142" y="884.0" width="188" height="1" fill="white" fill-opacity="0.5" /><text x="2340" y="884.0" font-size="14" fill="white" font-family="monospace" dominant-baseline="initial">38</text><rect x="2142" y="826.0" width="188" height="1" fill="white" fill-opacity="0.2" /><rect x="2142" y="768.0" width="188" height="1" fill="white" fill-opacity="0.2" /><rect x="2142" y="710.0" width="188" height="1" fill="white" fill-opacity="0.2" /><rect x="2142" y="651.5" width="188" height="1" fill="white" fill-opacity="0.5" /><text x="2340" y="651.5" font-size="14" fill="white" font-family="monospace" dominant-baseline="initial">39</text><rect x="2142" y="593.5" width="188" height="1" fill="white" fill-opacity="0.2" /><rect x="2142" y="535.5" width="188" height="1" fill="white" fill-opacity="0.2" /><rect x="2142" y="477.5" width="188" height="1" fill="white" fill-opacity="0.2" /><rect x="2142" y="419.5" width="188" height="1" fill="white" fill-opacity="0.5" /><text x="2340" y="419.5" font-size="14" fill="white" font-family="monospace" dominant-baseline="initial">40</text><rect x="2142" y="361.5" width="188" height="1" fill="white" fill-opacity="0.2" /><rect x="2142" y="303.5" width="188" height="1" fill="white" fill-opacity="0.2" /><rect x="2142" y="245.5" width="188" height="1" fill="white" fill-opacity="0.2" /><rect x="2142" y="187.0" width="188" height="1" fill="white" fill-opacity="0.5" /><text x="2340" y="187.0" font-size="14" fill="white" font-family="monospace" dominant-baseline="initial">41</text><rect x="2142" y="651.6499999999996" width="188" height="1" fill="aqua" fill-opacity="0.75" /><text x="2142" y="647.6499999999996" font-size="14" fill="aqua" fill-opacity="0.75" font-family="monospace">Phrase C</text><rect x="2380" y="188.0" width="188" height="929.0" fill="black" /><rect x="2380" y="1116.0" width="188" height="1" fill="white" fill-opacity="0.5" /><text x="2578" y="1116.0" font-size="14" fill="white" font-family="monospace" dominant-baseline="initial">41</text><rect x="2380" y="1058.0" width="188" height="1" fill="white" fill-opacity="0.2" /><rect x="2380" y="1000.0" width="188" height="1" fill="white" fill-opacity="0.2" /><rect x="2380" y="942.0" width="188" height="1" fill="white" fill-opacity="0.2" /><rect x="2380" y="884.0" width="188" height="1" fill="white" fill-opacity="0.5" /><text x="2578" y="884.0" font-size="14" fill="white" font-family="monospace" dominant-baseline="initial">42</text><rect x="2380" y="826.0" width="188" height="1" fill="white" fill-opacity="0.2" /><rect x="2380" y="768.0" width="188" height="1" fill="white" fill-opacity="0.2" /><rect x="2380" y="709.5" width="188" height="1" fill="white" fill-opacity="0.2" /><rect x="2380" y="651.5" width="188" height="1" fill="white" fill-opacity="0.5" /><text x="2578" y="651.5" font-size="14" fill="white" font-family="monospace" dominant-baseline="initial">43</text><rect x="2380" y="593.5" width="188" height="1" fill="white" fill-opacity="0.2" /><rect x="2380" y="535.5" width="188" height="1" fill="white" fill-opacity="0.2" /><rect x="2380" y="477.5" width="188" height="1" fill="white" fill-opacity="0.2" /><rect x="2380" y="419.5" width="188" height="1" fill="white" fill-opacity="0.5" /><text x="2578" y="419.5" font-size="14" fill="white" font-family="monospace" dominant-baseline="initial">44</text><rect x="2380" y="361.5" width="188" height="1" fill="white" fill-opacity="0.2" /><rect x="2380" y="303.5" width="188" height="1" fill="white" fill-opacity="0.2" /><rect x="2380" y="245.0" width="188" height="1" fill="white" fill-opacity="0.2" /><rect x="2380" y="187.0" width="188" height="1" fill="white" fill-opacity="0.5" /><text x="2578" y="187.0" font-size="14" fill="white" font-family="monospace" dominant-baseline="initial">45</text><rect x="2618" y="188.0" width="188" height="929.0" fill="black" /><rect x="2618" y="1116.0" width="188" height="1" fill="white" fill-opacity="0.5" /><text x="2816" y="1116.0" font-size="14" fill="white" font-family="monospace" dominant-baseline="initial">45</text><rect x="2618" y="1058.0" width="188" height="1" fill="white" fill-opacity="0.2" /><rect x="2618" y="1000.0" width="188" height="1" fill="white" fill-opacity="0.2" /><rect x="2618" y="942.0" width="188" height="1" fill="white" fill-opacity="0.2" /><rect x="2618" y="884.0" width="188" height="1" fill="white" fill-opacity="0.5" /><text x="2816" y="884.0" font-size="14" fill="white" font-family="monospace" dominant-baseline="initial">46</text><rect x="2618" y="826.0" width="188" height="1" fill="white" fill-opacity="0.2" /><rect x="2618" y="768.0" width="188" height="1" fill="white" fill-opacity="0.2" /><rect x="2618" y="709.5" width="188" height="1" fill="white" fill-opacity="0.2" /><rect x="2618" y="651.5" width="188" height="1" fill="white" fill-opacity="0.5" /><text x="2816" y="651.5" font-size="14" fill="white" font-family="monospace" dominant-baseline="initial">47</text><rect x="2618" y="593.5" width="188" height="1" fill="white" fill-opacity="0.2" /><rect x="2618" y="535.5" width="188" height="1" fill="white" fill-opacity="0.2" /><rect x="2618" y="477.5" width="188" height="1" fill="white" fill-opacity="0.2" /><rect x="2618" y="419.5" width="188" height="1" fill="white" fill-opacity="0.5" /><text x="2816" y="419.5" font-size="14" fill="white" font-family="monospace" dominant-baseline="initial">48</text><rect x="2618" y="361.5" width="188" height="1" fill="white" fill-opacity="0.2" /><rect x="2618" y="303.5" width="188" height="1" fill="white" fill-opacity="0.2" /><rect x="2618" y="245.0" width="188" height="1" fill="white" fill-opacity="0.2" /><rect x="2618" y="187.0" width="188" height="1" fill="white" fill-opacity="0.5" /><text x="2816" y="187.0" font-size="14" fill="white" font-family="monospace" dominant-baseline="initial">49</text><rect x="2618" y="651.6000000000004" width="188" height="1" fill="aqua" fill-opacity="0.75" /><text x="2618" y="647.6000000000004" font-size="14" fill="aqua" fill-opacity="0.75" font-family="monospace">Special</text><rect x="2856" y="188.0" width="188" height="929.0" fill="black" /><rect x="2856" y="1116.0" width="188" height="1" fill="white" fill-opacity="0.5" /><text x="3054" y="1116.0" font-size="14" fill="white" font-family="monospace" dominant-baseline="initial">49</text><rect x="2856" y="1058.0" width="188" height="1" fill="white" fill-opacity="0.2" /><rect x="2856" y="1000.0" width="188" height="1" fill="white" fill-opacity="0.2" /><rect x="2856" y="942.0" width="188" height="1" fill="white" fill-opacity="0.2" /><rect x="2856" y="884.0" width="188" height="1" fill="white" fill-opacity="0.5" /><text x="3054" y="884.0" font-size="14" fill="white" font-family="monospace" dominant-baseline="initial">50</text><rect x="2856" y="826.0" width="188" height="1" fill="white" fill-opacity="0.2" /><rect x="2856" y="767.5" width="188" height="1" fill="white" fill-opacity="0.2" /><rect x="2856" y="709.5" width="188" height="1" fill="white" fill-opacity="0.2" /><rect x="2856" y="651.5" width="188" height="1" fill="white" fill-opacity="0.5" /><text x="3054" y="651.5" font-size="14" fill="white" font-family="monospace" dominant-baseline="initial">51</text><rect x="2856" y="593.5" width="188" height="1" fill="white" fill-opacity="0.2" /><rect x="2856" y="535.5" width="188" height="1" fill="white" fill-opacity="0.2" /><rect x="2856" y="477.5" width="188" height="1" fill="white" fill-opacity="0.2" /><rect x="2856" y="419.5" width="188" height="1" fill="white" fill-opacity="0.5" /><text x="3054" y="419.5" font-size="14" fill="white" font-family="monospace" dominant-baseline="initial">52</text><rect x="2856" y="361.5" width="188" height="1" fill="white" fill-opacity="0.2" /><rect x="2856" y="303.0" width="188" height="1" fill="white" fill-opacity="0.2" /><rect x="2856" y="245.0" width="188" height="1" fill="white" fill-opacity="0.2" /><rect x="2856" y="187.0" width="188" height="1" fill="white" fill-opacity="0.5" /><text x="3054" y="187.0" font-size="14" fill="white" font-family="monospace" dominant-baseline="initial">53</text><rect x="3094" y="188.0" width="188" height="929.0" fill="black" /><rect x="3094" y="1116.0" width="188" height="1" fill="white" fill-opacity="0.5" /><text x="3292" y="1116.0" font-size="14" fill="white" font-family="monospace" dominant-baseline="initial">53</text><rect x="3094" y="1058.0" width="188" height="1" fill="white" fill-opacity="0.2" /><rect x="3094" y="1000.0" width="188" height="1" fill="white" fill-opacity="0.2" /><rect x="3094" y="942.0" width="188" height="1" fill="white" fill-opacity="0.2" /><rect x="3094" y="884.0" width="188" height="1" fill="white" fill-opacity="0.5" /><text x="3292" y="884.0" font-size="14" fill="white" font-family="monospace" dominant-baseline="initial">54</text><rect x="3094" y="826.0" width="188" height="1" fill="white" fill-opacity="0.2" /><rect x="3094" y="767.5" width="188" height="1" fill="white" fill-opacity="0.2" /><rect x="3094" y="709.5" width="188" height="1" fill="white" fill-opacity="0.2" /><rect x="3094" y="651.5" width="188" height="1" fill="white" fill-opacity="0.5" /><text x="3292" y="651.5" font-size="14" fill="white" font-family="monospace" dominant-baseline="initial">55</text><rect x="3094" y="593.5" width="188" height="1" fill="white" fill-opacity="0.2" /><rect x="3094" y="535.5" width="188" height="1" fill="white" fill-opacity="0.2" /><rect x="3094" y="477.5" width="188" height="1" fill="white" fill-opacity="0.2" /><rect x="3094" y="419.5" width="188" height="1" fill="white" fill-opacity="0.5" /><text x="3292" y="419.5" font-size="14" fill="white" font-family="monospace" dominant-baseline="initial">56</text><rect x="3094" y="361.5" width="188" height="1" fill="white" fill-opacity="0.2" /><rect x="3094" y="303.0" width="188" height="1" fill="white" fill-opacity="0.2" /><rect x="3094" y="245.0" width="188" height="1" fill="white" fill-opacity="0.2" /><rect x="3094" y="187.0" width="188" height="1" fill="white" fill-opacity="0.5" /><text x="3292" y="187.0" font-size="14" fill="white" font-family="monospace" dominant-baseline="initial">57</text><rect x="3332" y="188.0" width="188" height="929.0" fill="black" /><rect x="3332" y="1116.0" width="188" height="1" fill="white" fill-opacity="0.5" /><text x="3530" y="1116.0" font-size="14" fill="white" font-family="monospace" dominant-baseline="initial">57</text><rect x="3332" y="1058.0" width="188" height="1" fill="white" fill-opacity="0.2" /><rect x="3332" y="1000.0" width="188" height="1" fill="white" fill-opacity="0.2" /><rect x="3332" y="942.0" width="188" height="1" fill="white" fill-opacity="0.2" /><rect x="3332" y="884.0" width="188" height="1" fill="white" fill-opacity="0.5" /><text x="3530" y="884.0" font-size="14" fill="white" font-family="monospace" dominant-baseline="initial">58</text><rect x="3332" y="826.0" width="188" height="1" fill="white" fill-opacity="0.2" /><rect x="3332" y="767.5" width="188" height="1" fill="white" fill-opacity="0.2" /><rect x="3332" y="709.5" width="188" height="1" fill="white" fill-opacity="0.2" /><rect x="3332" y="651.5" width="188" height="1" fill="white" fill-opacity="0.5" /><text x="3530" y="651.5" font-size="14" fill="white" font-family="monospace" dominant-baseline="initial">59</text><rect x="3332" y="593.5" width="188" height="1" fill="white" fill-opacity="0.2" /><rect x="3332" y="535.5" width="188" height="1" fill="white" fill-opacity="0.2" /><rect x="3332" y="477.5" width="188" height="1" fill="white" fill-opacity="0.2" /><rect x="3332" y="419.5" width="188" height="1" fill="white" fill-opacity="0.5" /><text x="3530" y="419.5" font-size="14" fill="white" font-family="monospace" dominant-baseline="initial">60</text><rect x="3332" y="361.0" width="188" height="1" fill="white" fill-opacity="0.2" /><rect x="3332" y="303.0" width="188" height="1" fill="white" fill-opacity="0.2" /><rect x="3332" y="245.0" width="188" height="1" fill="white" fill-opacity="0.2" /><rect x="3332" y="187.0" width="188" height="1" fill="white" fill-opacity="0.5" /><text x="3530" y="187.0" font-size="14" fill="white" font-family="monospace" dominant-baseline="initial">61</text><rect x="3570" y="188.0" width="188" height="929.0" fill="black" /><rect x="3570" y="1116.0" width="188" height="1" fill="white" fill-opacity="0.5" /><text x="3768" y="1116.0" font-size="14" fill="white" font-family="monospace" dominant-baseline="initial">61</text><rect x="3570" y="1058.0" width="188" height="1" fill="white" fill-opacity="0.2" /><rect x="3570" y="1000.0" width="188" height="1" fill="white" fill-opacity="0.2" /><rect x="3570" y="942.0" width="188" height="1" fill="white" fill-opacity="0.2" /><rect x="3570" y="884.0" width="188" height="1" fill="white" fill-opacity="0.5" /><text x="3768" y="884.0" font-size="14" fill="white" font-family="monospace" dominant-baseline="initial">62</text><rect x="3570" y="825.5" width="188" height="1" fill="white" fill-opacity="0.2" /><rect x="3570" y="767.5" width="188" height="1" fill="white" fill-opacity="0.2" /><rect x="3570" y="709.5" width="188" height="1" fill="white" fill-opacity="0.2" /><rect x="3570" y="651.5" width="188" height="1" fill="white" fill-opacity="0.5" /><text x="3768" y="651.5" font-size="14" fill="white" font-family="monospace" dominant-baseline="initial">63</text><rect x="3570" y="593.5" width="188" height="1" fill="white" fill-opacity="0.2" /><rect x="3570" y="535.5" width="188" height="1" fill="white" fill-opacity="0.2" /><rect x="3570" y="477.5" width="188" height="1" fill="white" fill-opacity="0.2" /><rect x="3570" y="419.5" width="188" height="1" fill="white" fill-opacity="0.5" /><text x="3768" y="419.5" font-size="14" fill="white" font-family="monospace" dominant-baseline="initial">64</text><rect x="3570" y="361.0" width="188" height="1" fill="white" fill-opacity="0.2" /><rect x="3570" y="303.0" width="188" height="1" fill="white" fill-opacity="0.2" /><rect x="3570" y="245.0" width="188" height="1" fill="white" fill-opacity="0.2" /><rect x="3570" y="187.0" width="188" height="1" fill="white" fill-opacity="0.5" /><text x="3768" y="187.0" font-size="14" fill="white" font-family="monospace" dominant-baseline="initial">65</text><rect x="3570" y="651.5" width="188" height="1" fill="aqua" fill-opacity="0.75" /><text x="3570" y="647.5" font-size="14" fill="aqua" fill-opacity="0.75" font-family="monospace">Phrase D</text><rect x="3808" y="188.0" width="188" height="929.0" fill="black" /><rect x="3808" y="1116.0" width="188" height="1" fill="white" fill-opacity="0.5" /><text x="4006" y="1116.0" font-size="14" fill="white" font-family="monospace" dominant-baseline="initial">65</text><rect x="3808" y="1058.0" width="188" height="1" fill="white" fill-opacity="0.2" /><rect x="3808" y="1000.0" width="188" height="1" fill="white" fill-opacity="0.2" /><rect x="3808" y="942.0" width="188" height="1" fill="white" fill-opacity="0.2" /><rect x="3808" y="884.0" width="188" height="1" fill="white" fill-opacity="0.5" /><text x="4006" y="884.0" font-size="14" fill="white" font-family="monospace" dominant-baseline="initial">66</text><rect x="3808" y="825.5" width="188" height="1" fill="white" fill-opacity="0.2" /><rect x="3808" y="767.5" width="188" height="1" fill="white" fill-opacity="0.2" /><rect x="3808" y="709.5" width="188" height="1" fill="white" fill-opacity="0.2" /><rect x="3808" y="651.5" width="188" height="1" fill="white" fill-opacity="0.5" /><text x="4006" y="651.5" font-size="14" fill="white" font-family="monospace" dominant-baseline="initial">67</text><rect x="3808" y="593.5" width="188" height="1" fill="white" fill-opacity="0.2" /><rect x="3808" y="535.5" width="188" height="1" fill="white" fill-opacity="0.2" /><rect x="3808" y="477.5" width="188" height="1" fill="white" fill-opacity="0.2" /><rect x="3808" y="419.0" width="188" height="1" fill="white" fill-opacity="0.5" /><text x="4006" y="419.0" font-size="14" fill="white" font-family="monospace" dominant-baseline="initial">68</text><rect x="3808" y="361.0" width="188" height="1" fill="white" fill-opacity="0.2" /><rect x="3808" y="303.0" width="188" height="1" fill="white" fill-opacity="0.2" /><rect x="3808" y="245.0" width="188" height="1" fill="white" fill-opacity="0.2" /><rect x="3808" y="187.0" width="188" height="1" fill="white" fill-opacity="0.5" /><text x="4006" y="187.0" font-size="14" fill="white" font-family="monospace" dominant-baseline="initial">69</text><rect x="4046" y="14.0" width="188" height="1103.0" fill="black" /><rect x="4046" y="1116.0" width="188" height="1" fill="white" fill-opacity="0.5" /><text x="4244" y="1116.0" font-size="14" fill="white" font-family="monospace" dominant-baseline="initial">69</text><rect x="4046" y="1058.0" width="188" height="1" fill="white" fill-opacity="0.2" /><rect x="4046" y="1000.0" width="188" height="1" fill="white" fill-opacity="0.2" /><rect x="4046" y="942.0" width="188" height="1" fill="white" fill-opacity="0.2" /><rect x="4046" y="883.5" width="188" height="1" fill="white" fill-opacity="0.5" /><text x="4244" y="883.5" font-size="14" fill="white" font-family="monospace" dominant-baseline="initial">70</text><rect x="4046" y="825.5" width="188" height="1" fill="white" fill-opacity="0.2" /><rect x="4046" y="767.5" width="188" height="1" fill="white" fill-opacity="0.2" /><rect x="4046" y="709.5" width="188" height="1" fill="white" fill-opacity="0.2" /><rect x="4046" y="651.5" width="188" height="1" fill="white" fill-opacity="0.2" /><rect x="4046" y="593.5" width="188" height="1" fill="white" fill-opacity="0.5" /><text x="4244" y="593.5" font-size="14" fill="white" font-family="monospace" dominant-baseline="initial">71</text><rect x="4046" y="535.5" width="188" height="1" fill="white" fill-opacity="0.2" /><rect x="4046" y="477.5" width="188" height="1" fill="white" fill-opacity="0.2" /><rect x="4046" y="419.0" width="188" height="1" fill="white" fill-opacity="0.2" /><rect x="4046" y="361.0" width="188" height="1" fill="white" fill-opacity="0.2" /><rect x="4046" y="303.0" width="188" height="1" fill="white" fill-opacity="0.5" /><text x="4244" y="303.0" font-size="14" fill="white" font-family="monospace" dominant-baseline="initial">72</text><rect x="4046" y="245.0" width="188" height="1" fill="white" fill-opacity="0.2" /><rect x="4046" y="187.0" width="188" height="1" fill="white" fill-opacity="0.2" /><rect x="4046" y="129.0" width="188" height="1" fill="white" fill-opacity="0.2" /><rect x="4046" y="71.0" width="188" height="1" fill="white" fill-opacity="0.2" /><rect x="4046" y="13.0" width="188" height="1" fill="white" fill-opacity="0.5" /><text x="4244" y="13.0" font-size="14" fill="white" font-family="monospace" dominant-baseline="initial">73</text><rect x="4284" y="820.5" width="188" height="296.5" fill="black" /><rect x="4284" y="1116.0" width="188" height="1" fill="white" fill-opacity="0.5" /><text x="4482" y="1116.0" font-size="14" fill="white" font-family="monospace" dominant-baseline="initial">73</text><rect x="4284" y="1057.5" width="188" height="1" fill="white" fill-opacity="0.2" /><rect x="4284" y="999.5" width="188" height="1" fill="white" fill-opacity="0.2" /><rect x="4284" y="941.5" width="188" height="1" fill="white" fill-opacity="0.2" /><rect x="4284" y="883.5" width="188" height="1" fill="white" fill-opacity="0.2" /><rect x="4284" y="825.5" width="188" height="1" fill="white" fill-opacity="0.5" /><text x="4482" y="825.5" font-size="14" fill="white" font-family="monospace" dominant-baseline="initial">74</text></svg>