<?xml version="1.0" encoding="UTF-8"?><svg xmlns="http://www.w3.org/2000/svg" xmlns:xlink="http://www.w3.org/1999/xlink"     width="4522" height="917.5" viewBox="0 0 4522 917.5"><defs></defs><rect x="0" y="143.5" width="188" height="774.0" fill="black" /><rect x="0" y="916.5" width="188" height="1" fill="white" fill-opacity="0.5" /><text x="198" y="916.5" font-size="14" fill="white" font-family="monospace" dominant-baseline="initial">1</text><rect x="0" y="868.0" width="188" height="1" fill="white" fill-opacity="0.2" /><rect x="0" y="819.5" width="188" height="1" fill="white" fill-opacity="0.2" /><rect x="0" y="771.5" width="188" height="1" fill="white" fill-opacity="0.2" /><rect x="0" y="723.0" width="188" height="1" fill="white" fill-opacity="0.5" /><text x="198" y="723.0" font-size="14" fill="white" font-family="monospace" dominant-baseline="initial">2</text><rect x="0" y="674.5" width="188" height="1" fill="white" fill-opacity="0.2" /><rect x="0" y="626.0" width="188" height="1" fill="white" fill-opacity="0.2" /><rect x="0" y="578.0" width="188" height="1" fill="white" fill-opacity="0.2" /><rect x="0" y="529.5" width="188" height="1" fill="white" fill-opacity="0.5" /><text x="198" y="529.5" font-size="14" fill="white" font-family="monospace" dominant-baseline="initial">3</text><rect x="0" y="481.0" width="188" height="1" fill="white" fill-opacity="0.2" /><rect x="0" y="432.5" width="188" height="1" fill="white" fill-opacity="0.2" /><rect x="0" y="384.0" width="188" height="1" fill="white" fill-opacity="0.2" /><rect x="0" y="336.0" width="188" height="1" fill="white" fill-opacity="0.5" /><text x="198" y="336.0" font-size="14" fill="white" font-family="monospace" dominant-baseline="initial">4</text><rect x="0" y="287.5" width="188" height="1" fill="white" fill-opacity="0.2" /><rect x="0" y="239.0" width="188" height="1" fill="white" fill-opacity="0.2" /><rect x="0" y="190.5" width="188" height="1" fill="white" fill-opacity="0.2" /><rect x="0" y="142.5" width="188" height="1" fill="white" fill-opacity="0.5" /><text x="198" y="142.5" font-size="14" fill="white" font-family="monospace" dominant-baseline="initial">5</text><rect x="0" y="916.5" width="188" height="1" fill="aqua" fill-opacity="0.75" /><text x="0" y="912.5" font-size="14" fill="aqua" fill-opacity="0.75" font-family="monospace">Intro</text><rect x="0" y="916.5" width="188" height="1" fill="lime" fill-opacity="0.75" /><text x="198" y="903.5" font-size="14" fill="lime" font-family="monospace" dominant-baseline="initial">186</text><rect x="238" y="143.0" width="188" height="774.5" fill="black" /><rect x="238" y="916.5" width="188" height="1" fill="white" fill-opacity="0.5" /><text x="436" y="916.5" font-size="14" fill="white" font-family="monospace" dominant-baseline="initial">5</text><rect x="238" y="868.0" width="188" height="1" fill="white" fill-opacity="0.2" /><rect x="238" y="819.5" width="188" height="1" fill="white" fill-opacity="0.2" /><rect x="238" y="771.0" width="188" height="1" fill="white" fill-opacity="0.2" /><rect x="238" y="723.0" width="188" height="1" fill="white" fill-opacity="0.5" /><text x="436" y="723.0" font-size="14" fill="white" font-family="monospace" dominant-baseline="initial">6</text><rect x="238" y="674.5" width="188" height="1" fill="white" fill-opacity="0.2" /><rect x="238" y="626.0" width="188" height="1" fill="white" fill-opacity="0.2" /><rect x="238" y="577.5" width="188" height="1" fill="white" fill-opacity="0.2" /><rect x="238" y="529.0" width="188" height="1" fill="white" fill-opacity="0.5" /><text x="436" y="529.0" font-size="14" fill="white" font-family="monospace" dominant-baseline="initial">7</text><rect x="238" y="481.0" width="188" height="1" fill="white" fill-opacity="0.2" /><rect x="238" y="432.5" width="188" height="1" fill="white" fill-opacity="0.2" /><rect x="238" y="384.0" width="188" height="1" fill="white" fill-opacity="0.2" /><rect x="238" y="335.5" width="188" height="1" fill="white" fill-opacity="0.5" /><text x="436" y="335.5" font-size="14" fill="white" font-family="monospace" dominant-baseline="initial">8</text><rect x="238" y="287.5" width="188" height="1" fill="white" fill-opacity="0.2" /><rect x="238" y="239.0" width="188" height="1" fill="white" fill-opacity="0.2" /><rect x="238" y="190.5" width="188" height="1" fill="white" fill-opacity="0.2" /><rect x="238" y="142.0" width="188" height="1" fill="white" fill-opacity="0.5" /><text x="436" y="142.0" font-size="14" fill="white" font-family="monospace" dominant-baseline="initial">9</text><rect x="476" y="143.5" width="188" height="774.0" fill="black" /><rect x="476" y="916.5" width="188" height="1" fill="white" fill-opacity="0.5" /><text x="674" y="916.5" font-size="14" fill="white" font-family="monospace" dominant-baseline="initial">9</text><rect x="476" y="868.0" width="188" height="1" fill="white" fill-opacity="0.2" /><rect x="476" y="820.0" width="188" height="1" fill="white" fill-opacity="0.2" /><rect x="476" y="771.5" width="188" height="1" fill="white" fill-opacity="0.2" /><rect x="476" y="723.0" width="188" height="1" fill="white" fill-opacity="0.5" /><text x="674" y="723.0" font-size="14" fill="white" font-family="monospace" dominant-baseline="initial">10</text><rect x="476" y="674.5" width="188" height="1" fill="white" fill-opacity="0.2" /><rect x="476" y="626.5" width="188" height="1" fill="white" fill-opacity="0.2" /><rect x="476" y="578.0" width="188" height="1" fill="white" fill-opacity="0.2" /><rect x="476" y="529.5" width="188" height="1" fill="white" fill-opacity="0.5" /><text x="674" y="529.5" font-size="14" fill="white" font-family="monospace" dominant-baseline="initial">11</text><rect x="476" y="481.0" width="188" height="1" fill="white" fill-opacity="0.2" /><rect x="476" y="432.5" width="188" height="1" fill="white" fill-opacity="0.2" /><rect x="476" y="384.5" width="188" height="1" fill="white" fill-opacity="0.2" /><rect x="476" y="336.0" width="188" height="1" fill="white" fill-opacity="0.5" /><text x="674" y="336.0" font-size="14" fill="white" font-family="monospace" dominant-baseline="initial">12</text><rect x="476" y="287.5" width="188" height="1" fill="white" fill-opacity="0.2" /><rect x="476" y="239.0" width="188" height="1" fill="white" fill-opacity="0.2" /><rect x="476" y="191.0" width="188" height="1" fill="white" fill-opacity="0.2" /><rect x="476" y="142.5" width="188" height="1" fill="white" fill-opacity="0.5" /><text x="674" y="142.5" font-size="14" fill="white" font-family="monospace" dominant-baseline="initial">13</text><rect x="476" y="335.9000000000001" width="188" height="1" fill="aqua" fill-opacity="0.75" /><text x="476" y="331.9000000000001" font-size="14" fill="aqua" fill-opacity="0.75" font-family="monospace">Phrase A</text><rect x="714" y="143.0" width="188" height="774.5" fill="black" /><rect x="714" y="916.5" width="188" height="1" fill="white" fill-opacity="0.5" /><text x="912" y="916.5" font-size="14" fill="white" font-family="monospace" dominant-baseline="initial">13</text><rect x="714" y="868.0" width="188" height="1" fill="white" fill-opacity="0.2" /><rect x="714" y="819.5" width="188" height="1" fill="white" fill-opacity="0.2" /><rect x="714" y="771.5" width="188" height="1" fill="white" fill-opacity="0.2" /><rect x="714" y="723.0" width="188" height="1" fill="white" fill-opacity="0.5" /><text x="912" y="723.0" font-size="14" fill="white" font-family="monospace" dominant-baseline="initial">14</text><rect x="714" y="674.5" width="188" height="1" fill="white" fill-opacity="0.2" /><rect x="714" y="626.0" width="188" height="1" fill="white" fill-opacity="0.2" /><rect x="714" y="577.5" width="188" height="1" fill="white" fill-opacity="0.2" /><rect x="714" y="529.5" width="188" height="1" fill="white" fill-opacity="0.5" /><text x="912" y="529.5" font-size="14" fill="white" font-family="monospace" dominant-baseline="initial">15</text><rect x="714" y="481.0" width="188" height="1" fill="white" fill-opacity="0.2" /><rect x="714" y="432.5" width="188" height="1" fill="white" fill-opacity="0.2" /><rect x="714" y="384.0" width="188" height="1" fill="white" fill-opacity="0.2" /><rect x="714" y="336.0" width="188" height="1" fill="white" fill-opacity="0.5" /><text x="912" y="336.0" font-size="14" fill="white" font-family="monospace" dominant-baseline="initial">16</text><rect x="714" y="287.5" width="188" height="1" fill="white" fill-opacity="0.2" /><rect x="714" y="239.0" width="188" height="1" fill="white" fill-opacity="0.2" /><rect x="714" y="190.5" width="188" height="1" fill="white" fill-opacity="0.2" /><rect x="714" y="142.0" width="188" height="1" fill="white" fill-opacity="0.5" /><text x="912" y="142.0" font-size="14" fill="white" font-family="monospace" dominant-baseline="initial">17</text><rect x="952" y="143.5" width="188" height="774.0" fill="black" /><rect x="952" y="916.5" width="188" height="1" fill="white" fill-opacity="0.5" /><text x="1150" y="916.5" font-size="14" fill="white" font-family="monospace" dominant-baseline="initial">17</text><rect x="952" y="868.5" width="188" height="1" fill="white" fill-opacity="0.2" /><rect x="952" y="820.0" width="188" height="1" fill="white" fill-opacity="0.2" /><rect x="952" y="771.5" width="188" height="1" fill="white" fill-opacity="0.2" /><rect x="952" y="723.0" width="188" height="1" fill="white" fill-opacity="0.5" /><text x="1150" y="723.0" font-size="14" fill="white" font-family="monospace" dominant-baseline="initial">18</text><rect x="952" y="675.0" width="188" height="1" fill="white" fill-opacity="0.2" /><rect x="952" y="626.5" width="188" height="1" fill="white" fill-opacity="0.2" /><rect x="952" y="578.0" width="188" height="1" fill="white" fill-opacity="0.2" /><rect x="952" y="529.5" width="188" height="1" fill="white" fill-opacity="0.5" /><text x="1150" y="529.5" font-size="14" fill="white" font-family="monospace" dominant-baseline="initial">19</text><rect x="952" y="481.0" width="188" height="1" fill="white" fill-opacity="0.2" /><rect x="952" y="433.0" width="188" height="1" fill="white" fill-opacity="0.2" /><rect x="952" y="384.5" width="188" height="1" fill="white" fill-opacity="0.2" /><rect x="952" y="336.0" width="188" height="1" fill="white" fill-opacity="0.5" /><text x="1150" y="336.0" font-size="14" fill="white" font-family="monospace" dominant-baseline="initial">20</text><rect x="952" y="287.5" width="188" height="1" fill="white" fill-opacity="0.2" /><rect x="952" y="239.5" width="188" height="1" fill="white" fill-opacity="0.2" /><rect x="952" y="191.0" width="188" height="1" fill="white" fill-opacity="0.2" /><rect x="952" y="142.5" width="188" height="1" fill="white" fill-opacity="0.5" /><text x="1150" y="142.5" font-size="14" fill="white" font-family="monospace" dominant-baseline="initial">21</text><rect x="1190" y="143.5" width="188" height="774.0" fill="black" /><rect x="1190" y="916.5" width="188" height="1" fill="white" fill-opacity="0.5" /><text x="1388" y="916.5" font-size="14" fill="white" font-family="monospace" dominant-baseline="initial">21</text><rect x="1190" y="868.0" width="188" height="1" fill="white" fill-opacity="0.2" /><rect x="1190" y="820.0" width="188" height="1" fill="white" fill-opacity="0.2" /><rect x="1190" y="771.5" width="188" height="1" fill="white" fill-opacity="0.2" /><rect x="1190" y="723.0" width="188" height="1" fill="white" fill-opacity="0.5" /><text x="1388" y="723.0" font-size="14" fill="white" font-family="monospace" dominant-baseline="initial">22</text><rect x="1190" y="674.5" width="188" height="1" fill="white" fill-opacity="0.2" /><rect x="1190" y="626.0" width="188" height="1" fill="white" fill-opacity="0.2" /><rect x="1190" y="578.0" width="188" height="1" fill="white" fill-opacity="0.2" /><rect x="1190" y="529.5" width="188" height="1" fill="white" fill-opacity="0.5" /><text x="1388" y="529.5" font-size="14" fill="white" font-family="monospace" dominant-baseline="initial">23</text><rect x="1190" y="481.0" width="188" height="1" fill="white" fill-opacity="0.2" /><rect x="1190" y="432.5" width="188" height="1" fill="white" fill-opacity="0.2" /><rect x="1190" y="384.5" width="188" height="1" fill="white" fill-opacity="0.2" /><rect x="1190" y="336.0" width="188" height="1" fill="white" fill-opacity="0.5" /><text x="1388" y="336.0" font-size="14" fill="white" font-family="monospace" dominant-baseline="initial">24</text><rect x="1190" y="287.5" width="188" height="1" fill="white" fill-opacity="0.2" /><rect x="1190" y="239.0" width="188" height="1" fill="white" fill-opacity="0.2" /><rect x="1190" y="190.5" width="188" height="1" fill="white" fill-opacity="0.2" /><rect x="1190" y="142.5" width="188" height="1" fill="white" fill-opacity="0.5" /><text x="1388" y="142.5" font-size="14" fill="white" font-family="monospace" dominant-baseline="initial">25</text><rect x="1428" y="143.0" width="188" height="774.5" fill="black" /><rect x="1428" y="916.5" width="188" height="1" fill="white" fill-opacity="0.5" /><text x="1626" y="916.5" font-size="14" fill="white" font-family="monospace" dominant-baseline="initial">25</text><rect x="1428" y="868.0" width="188" height="1" fill="white" fill-opacity="0.2" /><rect x="1428" y="819.5" width="188" height="1" fill="white" fill-opacity="0.2" /><rect x="1428" y="771.0" width="188" height="1" fill="white" fill-opacity="0.2" /><rect x="1428" y="723.0" width="188" height="1" fill="white" fill-opacity="0.5" /><text x="1626" y="723.0" font-size="14" fill="white" font-family="monospace" dominant-baseline="initial">26</text><rect x="1428" y="674.5" width="188" height="1" fill="white" fill-opacity="0.2" /><rect x="1428" y="626.0" width="188" height="1" fill="white" fill-opacity="0.2" /><rect x="1428" y="577.5" width="188" height="1" fill="white" fill-opacity="0.2" /><rect x="1428" y="529.5" width="188" height="1" fill="white" fill-opacity="0.5" /><text x="1626" y="529.5" font-size="14" fill="white" font-family="monospace" dominant-baseline="initial">27</text><rect x="1428" y="481.0" width="188" height="1" fill="white" fill-opacity="0.2" /><rect x="1428" y="432.5" width="188" height="1" fill="white" fill-opacity="0.2" /><rect x="1428" y="384.0" width="188" height="1" fill="white" fill-opacity="0.2" /><rect x="1428" y="335.5" width="188" height="1" fill="white" fill-opacity="0.5" /><text x="1626" y="335.5" font-size="14" fill="white" font-family="monospace" dominant-baseline="initial">28</text><rect x="1428" y="287.5" width="188" height="1" fill="white" fill-opacity="0.2" /><rect x="1428" y="239.0" width="188" height="1" fill="white" fill-opacity="0.2" /><rect x="1428" y="190.5" width="188" height="1" fill="white" fill-opacity="0.2" /><rect x="1428" y="142.0" width="188" height="1" fill="white" fill-opacity="0.5" /><text x="1626" y="142.0" font-size="14" fill="white" font-family="monospace" dominant-baseline="initial">29</text><rect x="1428" y="335.65000000000055" width="188" height="1" fill="aqua" fill-opacity="0.75" /><text x="1428" y="331.65000000000055" font-size="14" fill="aqua" fill-opacity="0.75" font-family="monospace">Phrase B</text><rect x="1666" y="143.5" width="188" height="774.0" fill="black" /><rect x="1666" y="916.5" width="188" height="1" fill="white" fill-opacity="0.5" /><text x="1864" y="916.5" font-size="14" fill="white" font-family="monospace" dominant-baseline="initial">29</text><rect x="1666" y="868.5" width="188" height="1" fill="white" fill-opacity="0.2" /><rect x="1666" y="820.0" width="188" height="1" fill="white" fill-opacity="0.2" /><rect x="1666" y="771.5" width="188" height="1" fill="white" fill-opacity="0.2" /><rect x="1666" y="723.0" width="188" height="1" fill="white" fill-opacity="0.5" /><text x="1864" y="723.0" font-size="14" fill="white" font-family="monospace" dominant-baseline="initial">30</text><rect x="1666" y="674.5" width="188" height="1" fill="white" fill-opacity="0.2" /><rect x="1666" y="626.5" width="188" height="1" fill="white" fill-opacity="0.2" /><rect x="1666" y="578.0" width="188" height="1" fill="white" fill-opacity="0.2" /><rect x="1666" y="529.5" width="188" height="1" fill="white" fill-opacity="0.5" /><text x="1864" y="529.5" font-size="14" fill="white" font-family="monospace" dominant-baseline="initial">31</text><rect x="1666" y="481.0" width="188" height="1" fill="white" fill-opacity="0.2" /><rect x="1666" y="433.0" width="188" height="1" fill="white" fill-opacity="0.2" /><rect x="1666" y="384.5" width="188" height="1" fill="white" fill-opacity="0.2" /><rect x="1666" y="336.0" width="188" height="1" fill="white" fill-opacity="0.5" /><text x="1864" y="336.0" font-size="14" fill="white" font-family="monospace" dominant-baseline="initial">32</text><rect x="1666" y="287.5" width="188" height="1" fill="white" fill-opacity="0.2" /><rect x="1666" y="239.0" width="188" height="1" fill="white" fill-opacity="0.2" /><rect x="1666" y="191.0" width="188" height="1" fill="white" fill-opacity="0.2" /><rect x="1666" y="142.5" width="188" height="1" fill="white" fill-opacity="0.5" /><text x="1864" y="142.5" font-size="14" fill="white" font-family="monospace" dominant-baseline="initial">33</text><rect x="1904" y="143.5" width="188" height="774.0" fill="black" /><rect x="1904" y="916.5" width="188" height="1" fill="white" fill-opacity="0.5" /><text x="2102" y="916.5" font-size="14" fill="white" font-family="monospace" dominant-baseline="initial">33</text><rect x="1904" y="868.0" width="188" height="1" fill="white" fill-opacity="0.2" /><rect x="1904" y="819.5" width="188" height="1" fill="white" fill-opacity="0.2" /><rect x="1904" y="771.5" width="188" height="1" fill="white" fill-opacity="0.2" /><rect x="1904" y="723.0" width="188" height="1" fill="white" fill-opacity="0.5" /><text x="2102" y="723.0" font-size="14" fill="white" font-family="monospace" dominant-baseline="initial">34</text><rect x="1904" y="674.5" width="188" height="1" fill="white" fill-opacity="0.2" /><rect x="1904" y="626.0" width="188" height="1" fill="white" fill-opacity="0.2" /><rect x="1904" y="578.0" width="188" height="1" fill="white" fill-opacity="0.2" /><rect x="1904" y="529.5" width="188" height="1" fill="white" fill-opacity="0.5" /><text x="2102" y="529.5" font-size="14" fill="white" font-family="monospace" dominant-baseline="initial">35</text><rect x="1904" y="481.0" width="188" height="1" fill="white" fill-opacity="0.2" /><rect x="1904" y="432.5" width="188" height="1" fill="white" fill-opacity="0.2" /><rect x="1904" y="384.0" width="188" height="1" fill="white" fill-opacity="0.2" /><rect x="1904" y="336.0" width="188" height="1" fill="white" fill-opacity="0.5" /><text x="2102" y="336.0" font-size="14" fill="white" font-family="monospace" dominant-baseline="initial">36</text><rect x="1904" y="287.5" width="188" height="1" fill="white" fill-opacity="0.2" /><rect x="1904" y="239.0" width="188" height="1" fill="white" fill-opacity="0.2" /><rect x="1904" y="190.5" width="188" height="1" fill="white" fill-opacity="0.2" /><rect x="1904" y="142.5" width="188" height="1" fill="white" fill-opacity="0.5" /><text x="2102" y="142.5" font-size="14" fill="white" font-family="monospace" dominant-baseline="initial">37</text><rect x="1904" y="335.85000000000036" width="188" height="1" fill="aqua" fill-opacity="0.75" /><text x="1904" y="331.85000000000036" font-size="14" fill="aqua" fill-opacity="0.75" font-family="monospace">Special</text><rect x="2142" y="143.0" width="188" height="774.5" fill="black" /><rect x="2142" y="916.5" width="188" height="1" fill="white" fill-opacity="0.5" /><text x="2340" y="916.5" font-size="14" fill="white" font-family="monospace" dominant-baseline="initial">37</text><rect x="2142" y="868.0" width="188" height="1" fill="white" fill-opacity="0.2" /><rect x="2142" y="819.5" width="188" height="1" fill="white" fill-opacity="0.2" /><rect x="2142" y="771.0" width="188" height="1" fill="white" fill-opacity="0.2" /><rect x="2142" y="722.5" width="188" height="1" fill="white" fill-opacity="0.5" /><text x="2340" y="722.5" font-size="14" fill="white" font-family="monospace" dominant-baseline="initial">38</text><rect x="2142" y="674.5" width="188" height="1" fill="white" fill-opacity="0.2" /><rect x="2142" y="626.0" width="188" height="1" fill="white" fill-opacity="0.2" /><rect x="2142" y="577.5" width="188" height="1" fill="white" fill-opacity="0.2" /><rect x="2142" y="529.0" width="188" height="1" fill="white" fill-opacity="0.5" /><text x="2340" y="529.0" font-size="14" fill="white" font-family="monospace" dominant-baseline="initial">39</text><rect x="2142" y="481.0" width="188" height="1" fill="white" fill-opacity="0.2" /><rect x="2142" y="432.5" width="188" height="1" fill="white" fill-opacity="0.2" /><rect x="2142" y="384.0" width="188" height="1" fill="white" fill-opacity="0.2" /><rect x="2142" y="335.5" width="188" height="1" fill="white" fill-opacity="0.5" /><text x="2340" y="335.5" font-size="14" fill="white" font-family="monospace" dominant-baseline="initial">40</text><rect x="2142" y="287.0" width="188" height="1" fill="white" fill-opacity="0.2" /><rect x="2142" y="239.0" width="188" height="1" fill="white" fill-opacity="0.2" /><rect x="2142" y="190.5" width="188" height="1" fill="white" fill-opacity="0.2" /><rect x="2142" y="142.0" width="188" height="1" fill="white" fill-opacity="0.5" /><text x="2340" y="142.0" font-size="14" fill="white" font-family="monospace" dominant-baseline="initial">41</text><rect x="2380" y="143.5" width="188" height="774.0" fill="black" /><rect x="2380" y="916.5" width="188" height="1" fill="white" fill-opacity="0.5" /><text x="2578" y="916.5" font-size="14" fill="white" font-family="monospace" dominant-baseline="initial">41</text><rect x="2380" y="868.0" width="188" height="1" fill="white" fill-opacity="0.2" /><rect x="2380" y="820.0" width="188" height="1" fill="white" fill-opacity="0.2" /><rect x="2380" y="771.5" width="188" height="1" fill="white" fill-opacity="0.2" /><rect x="2380" y="723.0" width="188" height="1" fill="white" fill-opacity="0.5" /><text x="2578" y="723.0" font-size="14" fill="white" font-family="monospace" dominant-baseline="initial">42</text><rect x="2380" y="674.5" width="188" height="1" fill="white" fill-opacity="0.2" /><rect x="2380" y="626.5" width="188" height="1" fill="white" fill-opacity="0.2" /><rect x="2380" y="578.0" width="188" height="1" fill="white" fill-opacity="0.2" /><rect x="2380" y="529.5" width="188" height="1" fill="white" fill-opacity="0.5" /><text x="2578" y="529.5" font-size="14" fill="white" font-family="monospace" dominant-baseline="initial">43</text><rect x="2380" y="481.0" width="188" height="1" fill="white" fill-opacity="0.2" /><rect x="2380" y="432.5" width="188" height="1" fill="white" fill-opacity="0.2" /><rect x="2380" y="384.5" width="188" height="1" fill="white" fill-opacity="0.2" /><rect x="2380" y="336.0" width="188" height="1" fill="white" fill-opacity="0.5" /><text x="2578" y="336.0" font-size="14" fill="white" font-family="monospace" dominant-baseline="initial">44</text><rect x="2380" y="287.5" width="188" height="1" fill="white" fill-opacity="0.2" /><rect x="2380" y="239.0" width="188" height="1" fill="white" fill-opacity="0.2" /><rect x="2380" y="191.0" width="188" height="1" fill="white" fill-opacity="0.2" /><rect x="2380" y="142.5" width="188" height="1" fill="white" fill-opacity="0.5" /><text x="2578" y="142.5" font-size="14" fill="white" font-family="monospace" dominant-baseline="initial">45</text><rect x="2618" y="143.0" width="188" height="774.5" fill="black" /><rect x="2618" y="916.5" width="188" height="1" fill="white" fill-opacity="0.5" /><text x="2816" y="916.5" font-size="14" fill="white" font-family="monospace" dominant-baseline="initial">45</text><rect x="2618" y="868.0" width="188" height="1" fill="white" fill-opacity="0.2" /><rect x="2618" y="819.5" width="188" height="1" fill="white" fill-opacity="0.2" /><rect x="2618" y="771.0" width="188" height="1" fill="white" fill-opacity="0.2" /><rect x="2618" y="723.0" width="188" height="1" fill="white" fill-opacity="0.5" /><text x="2816" y="723.0" font-size="14" fill="white" font-family="monospace" dominant-baseline="initial">46</text><rect x="2618" y="674.5" width="188" height="1" fill="white" fill-opacity="0.2" /><rect x="2618" y="626.0" width="188" height="1" fill="white" fill-opacity="0.2" /><rect x="2618" y="577.5" width="188" height="1" fill="white" fill-opacity="0.2" /><rect x="2618" y="529.5" width="188" height="1" fill="white" fill-opacity="0.5" /><text x="2816" y="529.5" font-size="14" fill="white" font-family="monospace" dominant-baseline="initial">47</text><rect x="2618" y="481.0" width="188" height="1" fill="white" fill-opacity="0.2" /><rect x="2618" y="432.5" width="188" height="1" fill="white" fill-opacity="0.2" /><rect x="2618" y="384.0" width="188" height="1" fill="white" fill-opacity="0.2" /><rect x="2618" y="335.5" width="188" height="1" fill="white" fill-opacity="0.5" /><text x="2816" y="335.5" font-size="14" fill="white" font-family="monospace" dominant-baseline="initial">48</text><rect x="2618" y="287.5" width="188" height="1" fill="white" fill-opacity="0.2" /><rect x="2618" y="239.0" width="188" height="1" fill="white" fill-opacity="0.2" /><rect x="2618" y="190.5" width="188" height="1" fill="white" fill-opacity="0.2" /><rect x="2618" y="142.0" width="188" height="1" fill="white" fill-opacity="0.5" /><text x="2816" y="142.0" font-size="14" fill="white" font-family="monospace" dominant-baseline="initial">49</text><rect x="2856" y="143.5" width="188" height="774.0" fill="black" /><rect x="2856" y="916.5" width="188" height="1" fill="white" fill-opacity="0.5" /><text x="3054" y="916.5" font-size="14" fill="white" font-family="monospace" dominant-baseline="initial">49</text><rect x="2856" y="868.5" width="188" height="1" fill="white" fill-opacity="0.2" /><rect x="2856" y="820.0" width="188" height="1" fill="white" fill-opacity="0.2" /><rect x="2856" y="771.5" width="188" height="1" fill="white" fill-opacity="0.2" /><rect x="2856" y="723.0" width="188" height="1" fill="white" fill-opacity="0.5" /><text x="3054" y="723.0" font-size="14" fill="white" font-family="monospace" dominant-baseline="initial">50</text><rect x="2856" y="675.0" width="188" height="1" fill="white" fill-opacity="0.2" /><rect x="2856" y="626.5" width="188" height="1" fill="white" fill-opacity="0.2" /><rect x="2856" y="578.0" width="188" height="1" fill="white" fill-opacity="0.2" /><rect x="2856" y="529.5" width="188" height="1" fill="white" fill-opacity="0.5" /><text x="3054" y="529.5" font-size="14" fill="white" font-family="monospace" dominant-baseline="initial">51</text><rect x="2856" y="481.0" width="188" height="1" fill="white" fill-opacity="0.2" /><rect x="2856" y="433.0" width="188" height="1" fill="white" fill-opacity="0.2" /><rect x="2856" y="384.5" width="188" height="1" fill="white" fill-opacity="0.2" /><rect x="2856" y="336.0" width="188" height="1" fill="white" fill-opacity="0.5" /><text x="3054" y="336.0" font-size="14" fill="white" font-family="monospace" dominant-baseline="initial">52</text><rect x="2856" y="287.5" width="188" height="1" fill="white" fill-opacity="0.2" /><rect x="2856" y="239.5" width="188" height="1" fill="white" fill-opacity="0.2" /><rect x="2856" y="191.0" width="188" height="1" fill="white" fill-opacity="0.2" /><rect x="2856" y="142.5" width="188" height="1" fill="white" fill-opacity="0.5" /><text x="3054" y="142.5" font-size="14" fill="white" font-family="monospace" dominant-baseline="initial">53</text><rect x="2856" y="336.10000000000036" width="188" height="1" fill="aqua" fill-opacity="0.75" /><text x="2856" y="332.10000000000036" font-size="14" fill="aqua" fill-opacity="0.75" font-family="monospace">Phrase C</text><rect x="3094" y="143.5" width="188" height="774.0" fill="black" /><rect x="3094" y="916.5" width="188" height="1" fill="white" fill-opacity="0.5" /><text x="3292" y="916.5" font-size="14" fill="white" font-family="monospace" dominant-baseline="initial">53</text><rect x="3094" y="868.0" width="188" height="1" fill="white" fill-opacity="0.2" /><rect x="3094" y="819.5" width="188" height="1" fill="white" fill-opacity="0.2" /><rect x="3094" y="771.5" width="188" height="1" fill="white" fill-opacity="0.2" /><rect x="3094" y="723.0" width="188" height="1" fill="white" fill-opacity="0.5" /><text x="3292" y="723.0" font-size="14" fill="white" font-family="monospace" dominant-baseline="initial">54</text><rect x="3094" y="674.5" width="188" height="1" fill="white" fill-opacity="0.2" /><rect x="3094" y="626.0" width="188" height="1" fill="white" fill-opacity="0.2" /><rect x="3094" y="578.0" width="188" height="1" fill="white" fill-opacity="0.2" /><rect x="3094" y="529.5" width="188" height="1" fill="white" fill-opacity="0.5" /><text x="3292" y="529.5" font-size="14" fill="white" font-family="monospace" dominant-baseline="initial">55</text><rect x="3094" y="481.0" width="188" height="1" fill="white" fill-opacity="0.2" /><rect x="3094" y="432.5" width="188" height="1" fill="white" fill-opacity="0.2" /><rect x="3094" y="384.0" width="188" height="1" fill="white" fill-opacity="0.2" /><rect x="3094" y="336.0" width="188" height="1" fill="white" fill-opacity="0.5" /><text x="3292" y="336.0" font-size="14" fill="white" font-family="monospace" dominant-baseline="initial">56</text><rect x="3094" y="287.5" width="188" height="1" fill="white" fill-opacity="0.2" /><rect x="3094" y="239.0" width="188" height="1" fill="white" fill-opacity="0.2" /><rect x="3094" y="190.5" width="188" height="1" fill="white" fill-opacity="0.2" /><rect x="3094" y="142.5" width="188" height="1" fill="white" fill-opacity="0.5" /><text x="3292" y="142.5" font-size="14" fill="white" font-family="monospace" dominant-baseline="initial">57</text><rect x="3332" y="143.0" width="188" height="774.5" fill="black" /><rect x="3332" y="916.5" width="188" height="1" fill="white" fill-opacity="0.5" /><text x="3530" y="916.5" font-size="14" fill="white" font-family="monospace" dominant-baseline="initial">57</text><rect x="3332" y="868.0" width="188" height="1" fill="white" fill-opacity="0.2" /><rect x="3332" y="819.5" width="188" height="1" fill="white" fill-opacity="0.2" /><rect x="3332" y="771.0" width="188" height="1" fill="white" fill-opacity="0.2" /><rect x="3332" y="723.0" width="188" height="1" fill="white" fill-opacity="0.5" /><text x="3530" y="723.0" font-size="14" fill="white" font-family="monospace" dominant-baseline="initial">58</text><rect x="3332" y="674.5" width="188" height="1" fill="white" fill-opacity="0.2" /><rect x="3332" y="626.0" width="188" height="1" fill="white" fill-opacity="0.2" /><rect x="3332" y="577.5" width="188" height="1" fill="white" fill-opacity="0.2" /><rect x="3332" y="529.0" width="188" height="1" fill="white" fill-opacity="0.5" /><text x="3530" y="529.0" font-size="14" fill="white" font-family="monospace" dominant-baseline="initial">59</text><rect x="3332" y="481.0" width="188" height="1" fill="white" fill-opacity="0.2" /><rect x="3332" y="432.5" width="188" height="1" fill="white" fill-opacity="0.2" /><rect x="3332" y="384.0" width="188" height="1" fill="white" fill-opacity="0.2" /><rect x="3332" y="335.5" width="188" height="1" fill="white" fill-opacity="0.5" /><text x="3530" y="335.5" font-size="14" fill="white" font-family="monospace" dominant-baseline="initial">60</text><rect x="3332" y="287.5" width="188" height="1" fill="white" fill-opacity="0.2" /><rect x="3332" y="239.0" width="188" height="1" fill="white" fill-opacity="0.2" /><rect x="3332" y="190.5" width="188" height="1" fill="white" fill-opacity="0.2" /><rect x="3332" y="142.0" width="188" height="1" fill="white" fill-opacity="0.5" /><text x="3530" y="142.0" font-size="14" fill="white" font-family="monospace" dominant-baseline="initial">61</text><rect x="3332" y="335.64999999999964" width="188" height="1" fill="aqua" fill-opacity="0.75" /><text x="3332" y="331.64999999999964" font-size="14" fill="aqua" fill-opacity="0.75" font-family="monospace">Solo</text><rect x="3570" y="143.5" width="188" height="774.0" fill="black" /><rect x="3570" y="916.5" width="188" height="1" fill="white" fill-opacity="0.5" /><text x="3768" y="916.5" font-size="14" fill="white" font-family="monospace" dominant-baseline="initial">61</text><rect x="3570" y="868.0" width="188" height="1" fill="white" fill-opacity="0.2" /><rect x="3570" y="820.0" width="188" height="1" fill="white" fill-opacity="0.2" /><rect x="3570" y="771.5" width="188" height="1" fill="white" fill-opacity="0.2" /><rect x="3570" y="723.0" width="188" height="1" fill="white" fill-opacity="0.5" /><text x="3768" y="723.0" font-size="14" fill="white" font-family="monospace" dominant-baseline="initial">62</text><rect x="3570" y="674.5" width="188" height="1" fill="white" fill-opacity="0.2" /><rect x="3570" y="626.5" width="188" height="1" fill="white" fill-opacity="0.2" /><rect x="3570" y="578.0" width="188" height="1" fill="white" fill-opacity="0.2" /><rect x="3570" y="529.5" width="188" height="1" fill="white" fill-opacity="0.5" /><text x="3768" y="529.5" font-size="14" fill="white" font-family="monospace" dominant-baseline="initial">63</text><rect x="3570" y="481.0" width="188" height="1" fill="white" fill-opacity="0.2" /><rect x="3570" y="432.5" width="188" height="1" fill="white" fill-opacity="0.2" /><rect x="3570" y="384.5" width="188" height="1" fill="white" fill-opacity="0.2" /><rect x="3570" y="336.0" width="188" height="1" fill="white" fill-opacity="0.5" /><text x="3768" y="336.0" font-size="14" fill="white" font-family="monospace" dominant-baseline="initial">64</text><rect x="3570" y="287.5" width="188" height="1" fill="white" fill-opacity="0.2" /><rect x="3570" y="239.0" width="188" height="1" fill="white" fill-opacity="0.2" /><rect x="3570" y="191.0" width="188" height="1" fill="white" fill-opacity="0.2" /><rect x="3570" y="142.5" width="188" height="1" fill="white" fill-opacity="0.5" /><text x="3768" y="142.5" font-size="14" fill="white" font-family="monospace" dominant-baseline="initial">65</text><rect x="3808" y="143.0" width="188" height="774.5" fill="black" /><rect x="3808" y="916.5" width="188" height="1" fill="white" fill-opacity="0.5" /><text x="4006" y="916.5" font-size="14" fill="white" font-family="monospace" dominant-baseline="initial">65</text><rect x="3808" y="868.0" width="188" height="1" fill="white" fill-opacity="0.2" /><rect x="3808" y="819.5" width="188" height="1" fill="white" fill-opacity="0.2" /><rect x="3808" y="771.5" width="188" height="1" fill="white" fill-opacity="0.2" /><rect x="3808" y="723.0" width="188" height="1" fill="white" fill-opacity="0.5" /><text x="4006" y="723.0" font-size="14" fill="white" font-family="monospace" dominant-baseline="initial">66</text><rect x="3808" y="674.5" width="188" height="1" fill="white" fill-opacity="0.2" /><rect x="3808" y="626.0" width="188" height="1" fill="white" fill-opacity="0.2" /><rect x="3808" y="577.5" width="188" height="1" fill="white" fill-opacity="0.2" /><rect x="3808" y="529.5" width="188" height="1" fill="white" fill-opacity="0.5" /><text x="4006" y="529.5" font-size="14" fill="white" font-family="monospace" dominant-baseline="initial">67</text><rect x="3808" y="481.0" width="188" height="1" fill="white" fill-opacity="0.2" /><rect x="3808" y="432.5" width="188" height="1" fill="white" fill-opacity="0.2" /><rect x="3808" y="384.0" width="188" height="1" fill="white" fill-opacity="0.2" /><rect x="3808" y="336.0" width="188" height="1" fill="white" fill-opacity="0.5" /><text x="4006" y="336.0" font-size="14" fill="white" font-family="monospace" dominant-baseline="initial">68</text><rect x="3808" y="287.5" width="188" height="1" fill="white" fill-opacity="0.2" /><rect x="3808" y="239.0" width="188" height="1" fill="white" fill-opacity="0.2" /><rect x="3808" y="190.5" width="188" height="1" fill="white" fill-opacity="0.2" /><rect x="3808" y="142.0" width="188" height="1" fill="white" fill-opacity="0.5" /><text x="4006" y="142.0" font-size="14" fill="white" font-family="monospace" dominant-baseline="initial">69</text><rect x="4046" y="143.5" width="188" height="774.0" fill="black" /><rect x="4046" y="916.5" width="188" height="1" fill="white" fill-opacity="0.5" /><text x="4244" y="916.5" font-size="14" fill="white" font-family="monospace" dominant-baseline="initial">69</text><rect x="4046" y="868.5" width="188" height="1" fill="white" fill-opacity="0.2" /><rect x="4046" y="820.0" width="188" height="1" fill="white" fill-opacity="0.2" /><rect x="4046" y="771.5" width="188" height="1" fill="white" fill-opacity="0.2" /><rect x="4046" y="723.0" width="188" height="1" fill="white" fill-opacity="0.5" /><text x="4244" y="723.0" font-size="14" fill="white" font-family="monospace" dominant-baseline="initial">70</text><rect x="4046" y="675.0" width="188" height="1" fill="white" fill-opacity="0.2" /><rect x="4046" y="626.5" width="188" height="1" fill="white" fill-opacity="0.2" /><rect x="4046" y="578.0" width="188" height="1" fill="white" fill-opacity="0.2" /><rect x="4046" y="529.5" width="188" height="1" fill="white" fill-opacity="0.5" /><text x="4244" y="529.5" font-size="14" fill="white" font-family="monospace" dominant-baseline="initial">71</text><rect x="4046" y="481.5" width="188" height="1" fill="white" fill-opacity="0.2" /><rect x="4046" y="433.0" width="188" height="1" fill="white" fill-opacity="0.2" /><rect x="4046" y="384.5" width="188" height="1" fill="white" fill-opacity="0.2" /><rect x="4046" y="336.0" width="188" height="1" fill="white" fill-opacity="0.5" /><text x="4244" y="336.0" font-size="14" fill="white" font-family="monospace" dominant-baseline="initial">72</text><rect x="4046" y="287.5" width="188" height="1" fill="white" fill-opacity="0.2" /><rect x="4046" y="239.5" width="188" height="1" fill="white" fill-opacity="0.2" /><rect x="4046" y="191.0" width="188" height="1" fill="white" fill-opacity="0.2" /><rect x="4046" y="142.5" width="188" height="1" fill="white" fill-opacity="0.5" /><text x="4244" y="142.5" font-size="14" fill="white" font-family="monospace" dominant-baseline="initial">73</text><rect x="4284" y="14.0" width="188" height="903.5" fill="black" /><rect x="4284" y="916.5" width="188" height="1" fill="white" fill-opacity="0.5" /><text x="4482" y="916.5" font-size="14" fill="white" font-family="monospace" dominant-baseline="initial">73</text><rect x="4284" y="868.0" width="188" height="1" fill="white" fill-opacity="0.2" /><rect x="4284" y="820.0" width="188" height="1" fill="white" fill-opacity="0.2" /><rect x="4284" y="771.5" width="188" height="1" fill="white" fill-opacity="0.2" /><rect x="4284" y="723.0" width="188" height="1" fill="white" fill-opacity="0.5" /><text x="4482" y="723.0" font-size="14" fill="white" font-family="monospace" dominant-baseline="initial">74</text><rect x="4284" y="674.5" width="188" height="1" fill="white" fill-opacity="0.2" /><rect x="4284" y="626.0" width="188" height="1" fill="white" fill-opacity="0.2" /><rect x="4284" y="578.0" width="188" height="1" fill="white" fill-opacity="0.2" /><rect x="4284" y="529.5" width="188" height="1" fill="white" fill-opacity="0.5" /><text x="4482" y="529.5" font-size="14" fill="white" font-family="monospace" dominant-baseline="initial">75</text><rect x="4284" y="481.0" width="188" height="1" fill="white" fill-opacity="0.2" /><rect x="4284" y="432.5" width="188" height="1" fill="white" fill-opacity="0.2" /><rect x="4284" y="384.5" width="188" height="1" fill="white" fill-opacity="0.2" /><rect x="4284" y="336.0" width="188" height="1" fill="white" fill-opacity="0.5" /><text x="4482" y="336.0" font-size="14" fill="white" font-family="monospace" dominant-baseline="initial">76</text></svg>