<?xml version="1.0" encoding="UTF-8"?><svg xmlns="http://www.w3.org/2000/svg" xmlns:xlink="http://www.w3.org/1999/xlink"     width="5474" height="675.0" viewBox="0 0 5474 675.0"><defs></defs><rect x="0" y="14.5" width="188" height="660.5" fill="black" /><rect x="0" y="674.0" width="188" height="1" fill="white" fill-opacity="0.5" /><text x="198" y="674.0" font-size="14" fill="white" font-family="monospace" dominant-baseline="initial">1</text><rect x="0" y="632.5" width="188" height="1" fill="white" fill-opacity="0.2" /><rect x="0" y="591.5" width="188" height="1" fill="white" fill-opacity="0.2" /><rect x="0" y="550.0" width="188" height="1" fill="white" fill-opacity="0.2" /><rect x="0" y="509.0" width="188" height="1" fill="white" fill-opacity="0.5" /><text x="198" y="509.0" font-size="14" fill="white" font-family="monospace" dominant-baseline="initial">2</text><rect x="0" y="467.5" width="188" height="1" fill="white" fill-opacity="0.2" /><rect x="0" y="426.5" width="188" height="1" fill="white" fill-opacity="0.2" /><rect x="0" y="385.0" width="188" height="1" fill="white" fill-opacity="0.2" /><rect x="0" y="343.5" width="188" height="1" fill="white" fill-opacity="0.5" /><text x="198" y="343.5" font-size="14" fill="white" font-family="monospace" dominant-baseline="initial">3</text><rect x="0" y="302.5" width="188" height="1" fill="white" fill-opacity="0.2" /><rect x="0" y="261.0" width="188" height="1" fill="white" fill-opacity="0.2" /><rect x="0" y="220.0" width="188" height="1" fill="white" fill-opacity="0.2" /><rect x="0" y="178.5" width="188" height="1" fill="white" fill-opacity="0.5" /><text x="198" y="178.5" font-size="14" fill="white" font-family="monospace" dominant-baseline="initial">4</text><rect x="0" y="137.5" width="188" height="1" fill="white" fill-opacity="0.2" /><rect x="0" y="96.0" width="188" height="1" fill="white" fill-opacity="0.2" /><rect x="0" y="54.5" width="188" height="1" fill="white" fill-opacity="0.2" /><rect x="0" y="13.5" width="188" height="1" fill="white" fill-opacity="0.5" /><text x="198" y="13.5" font-size="14" fill="white" font-family="monospace" dominant-baseline="initial">5</text><rect x="0" y="674.0" width="188" height="1" fill="aqua" fill-opacity="0.75" /><text x="0" y="670.0" font-size="14" fill="aqua" fill-opacity="0.75" font-family="monospace">Intro</text><rect x="0" y="674.0" width="188" height="1" fill="lime" fill-opacity="0.75" /><text x="198" y="661.0" font-size="14" fill="lime" font-family="monospace" dominant-baseline="initial">218</text><rect x="238" y="14.5" width="188" height="660.5" fill="black" /><rect x="238" y="674.0" width="188" height="1" fill="white" fill-opacity="0.5" /><text x="436" y="674.0" font-size="14" fill="white" font-family="monospace" dominant-baseline="initial">5</text><rect x="238" y="632.5" width="188" height="1" fill="white" fill-opacity="0.2" /><rect x="238" y="591.5" width="188" height="1" fill="white" fill-opacity="0.2" /><rect x="238" y="550.0" width="188" height="1" fill="white" fill-opacity="0.2" /><rect x="238" y="509.0" width="188" height="1" fill="white" fill-opacity="0.5" /><text x="436" y="509.0" font-size="14" fill="white" font-family="monospace" dominant-baseline="initial">6</text><rect x="238" y="467.5" width="188" height="1" fill="white" fill-opacity="0.2" /><rect x="238" y="426.0" width="188" height="1" fill="white" fill-opacity="0.2" /><rect x="238" y="385.0" width="188" height="1" fill="white" fill-opacity="0.2" /><rect x="238" y="343.5" width="188" height="1" fill="white" fill-opacity="0.5" /><text x="436" y="343.5" font-size="14" fill="white" font-family="monospace" dominant-baseline="initial">7</text><rect x="238" y="302.5" width="188" height="1" fill="white" fill-opacity="0.2" /><rect x="238" y="261.0" width="188" height="1" fill="white" fill-opacity="0.2" /><rect x="238" y="220.0" width="188" height="1" fill="white" fill-opacity="0.2" /><rect x="238" y="178.5" width="188" height="1" fill="white" fill-opacity="0.5" /><text x="436" y="178.5" font-size="14" fill="white" font-family="monospace" dominant-baseline="initial">8</text><rect x="238" y="137.5" width="188" height="1" fill="white" fill-opacity="0.2" /><rect x="238" y="96.0" width="188" height="1" fill="white" fill-opacity="0.2" /><rect x="238" y="54.5" width="188" height="1" fill="white" fill-opacity="0.2" /><rect x="238" y="13.5" width="188" height="1" fill="white" fill-opacity="0.5" /><text x="436" y="13.5" font-size="14" fill="white" font-family="monospace" dominant-baseline="initial">9</text><rect x="476" y="14.5" width="188" height="660.5" fill="black" /><rect x="476" y="674.0" width="188" height="1" fill="white" fill-opacity="0.5" /><text x="674" y="674.0" font-size="14" fill="white" font-family="monospace" dominant-baseline="initial">9</text><rect x="476" y="632.5" width="188" height="1" fill="white" fill-opacity="0.2" /><rect x="476" y="591.5" width="188" height="1" fill="white" fill-opacity="0.2" /><rect x="476" y="550.0" width="188" height="1" fill="white" fill-opacity="0.2" /><rect x="476" y="509.0" width="188" height="1" fill="white" fill-opacity="0.5" /><text x="674" y="509.0" font-size="14" fill="white" font-family="monospace" dominant-baseline="initial">10</text><rect x="476" y="467.5" width="188" height="1" fill="white" fill-opacity="0.2" /><rect x="476" y="426.0" width="188" height="1" fill="white" fill-opacity="0.2" /><rect x="476" y="385.0" width="188" height="1" fill="white" fill-opacity="0.2" /><rect x="476" y="343.5" width="188" height="1" fill="white" fill-opacity="0.5" /><text x="674" y="343.5" font-size="14" fill="white" font-family="monospace" dominant-baseline="initial">11</text><rect x="476" y="302.5" width="188" height="1" fill="white" fill-opacity="0.2" /><rect x="476" y="261.0" width="188" height="1" fill="white" fill-opacity="0.2" /><rect x="476" y="220.0" width="188" height="1" fill="white" fill-opacity="0.2" /><rect x="476" y="178.5" width="188" height="1" fill="white" fill-opacity="0.5" /><text x="674" y="178.5" font-size="14" fill="white" font-family="monospace" dominant-baseline="initial">12</text><rect x="476" y="137.0" width="188" height="1" fill="white" fill-opacity="0.2" /><rect x="476" y="96.0" width="188" height="1" fill="white" fill-opacity="0.2" /><rect x="476" y="54.5" width="188" height="1" fill="white" fill-opacity="0.2" /><rect x="476" y="13.5" width="188" height="1" fill="white" fill-opacity="0.5" /><text x="674" y="13.5" font-size="14" fill="white" font-family="monospace" dominant-baseline="initial">13</text><rect x="714" y="14.5" width="188" height="660.5" fill="black" /><rect x="714" y="674.0" width="188" height="1" fill="white" fill-opacity="0.5" /><text x="912" y="674.0" font-size="14" fill="white" font-family="monospace" dominant-baseline="initial">13</text><rect x="714" y="632.5" width="188" height="1" fill="white" fill-opacity="0.2" /><rect x="714" y="591.5" width="188" height="1" fill="white" fill-opacity="0.2" /><rect x="714" y="550.0" width="188" height="1" fill="white" fill-opacity="0.2" /><rect x="714" y="508.5" width="188" height="1" fill="white" fill-opacity="0.5" /><text x="912" y="508.5" font-size="14" fill="white" font-family="monospace" dominant-baseline="initial">14</text><rect x="714" y="467.5" width="188" height="1" fill="white" fill-opacity="0.2" /><rect x="714" y="426.0" width="188" height="1" fill="white" fill-opacity="0.2" /><rect x="714" y="385.0" width="188" height="1" fill="white" fill-opacity="0.2" /><rect x="714" y="343.5" width="188" height="1" fill="white" fill-opacity="0.5" /><text x="912" y="343.5" font-size="14" fill="white" font-family="monospace" dominant-baseline="initial">15</text><rect x="714" y="302.5" width="188" height="1" fill="white" fill-opacity="0.2" /><rect x="714" y="261.0" width="188" height="1" fill="white" fill-opacity="0.2" /><rect x="714" y="219.5" width="188" height="1" fill="white" fill-opacity="0.2" /><rect x="714" y="178.5" width="188" height="1" fill="white" fill-opacity="0.5" /><text x="912" y="178.5" font-size="14" fill="white" font-family="monospace" dominant-baseline="initial">16</text><rect x="714" y="137.0" width="188" height="1" fill="white" fill-opacity="0.2" /><rect x="714" y="96.0" width="188" height="1" fill="white" fill-opacity="0.2" /><rect x="714" y="54.5" width="188" height="1" fill="white" fill-opacity="0.2" /><rect x="714" y="13.5" width="188" height="1" fill="white" fill-opacity="0.5" /><text x="912" y="13.5" font-size="14" fill="white" font-family="monospace" dominant-baseline="initial">17</text><rect x="952" y="14.5" width="188" height="660.5" fill="black" /><rect x="952" y="674.0" width="188" height="1" fill="white" fill-opacity="0.5" /><text x="1150" y="674.0" font-size="14" fill="white" font-family="monospace" dominant-baseline="initial">17</text><rect x="952" y="632.5" width="188" height="1" fill="white" fill-opacity="0.2" /><rect x="952" y="591.0" width="188" height="1" fill="white" fill-opacity="0.2" /><rect x="952" y="550.0" width="188" height="1" fill="white" fill-opacity="0.2" /><rect x="952" y="508.5" width="188" height="1" fill="white" fill-opacity="0.5" /><text x="1150" y="508.5" font-size="14" fill="white" font-family="monospace" dominant-baseline="initial">18</text><rect x="952" y="467.5" width="188" height="1" fill="white" fill-opacity="0.2" /><rect x="952" y="426.0" width="188" height="1" fill="white" fill-opacity="0.2" /><rect x="952" y="385.0" width="188" height="1" fill="white" fill-opacity="0.2" /><rect x="952" y="343.5" width="188" height="1" fill="white" fill-opacity="0.5" /><text x="1150" y="343.5" font-size="14" fill="white" font-family="monospace" dominant-baseline="initial">19</text><rect x="952" y="302.0" width="188" height="1" fill="white" fill-opacity="0.2" /><rect x="952" y="261.0" width="188" height="1" fill="white" fill-opacity="0.2" /><rect x="952" y="219.5" width="188" height="1" fill="white" fill-opacity="0.2" /><rect x="952" y="178.5" width="188" height="1" fill="white" fill-opacity="0.5" /><text x="1150" y="178.5" font-size="14" fill="white" font-family="monospace" dominant-baseline="initial">20</text><rect x="952" y="137.0" width="188" height="1" fill="white" fill-opacity="0.2" /><rect x="952" y="96.0" width="188" height="1" fill="white" fill-opacity="0.2" /><rect x="952" y="54.5" width="188" height="1" fill="white" fill-opacity="0.2" /><rect x="952" y="13.5" width="188" height="1" fill="white" fill-opacity="0.5" /><text x="1150" y="13.5" font-size="14" fill="white" font-family="monospace" dominant-baseline="initial">21</text><rect x="952" y="508.5999999999999" width="188" height="1" fill="aqua" fill-opacity="0.75" /><text x="952" y="504.5999999999999" font-size="14" fill="aqua" fill-opacity="0.75" font-family="monospace">Phrase A</text><rect x="1190" y="14.0" width="188" height="661.0" fill="black" /><rect x="1190" y="674.0" width="188" height="1" fill="white" fill-opacity="0.5" /><text x="1388" y="674.0" font-size="14" fill="white" font-family="monospace" dominant-baseline="initial">21</text><rect x="1190" y="632.5" width="188" height="1" fill="white" fill-opacity="0.2" /><rect x="1190" y="591.0" width="188" height="1" fill="white" fill-opacity="0.2" /><rect x="1190" y="550.0" width="188" height="1" fill="white" fill-opacity="0.2" /><rect x="1190" y="508.5" width="188" height="1" fill="white" fill-opacity="0.5" /><text x="1388" y="508.5" font-size="14" fill="white" font-family="monospace" dominant-baseline="initial">22</text><rect x="1190" y="467.5" width="188" height="1" fill="white" fill-opacity="0.2" /><rect x="1190" y="426.0" width="188" height="1" fill="white" fill-opacity="0.2" /><rect x="1190" y="385.0" width="188" height="1" fill="white" fill-opacity="0.2" /><rect x="1190" y="343.5" width="188" height="1" fill="white" fill-opacity="0.5" /><text x="1388" y="343.5" font-size="14" fill="white" font-family="monospace" dominant-baseline="initial">23</text><rect x="1190" y="302.0" width="188" height="1" fill="white" fill-opacity="0.2" /><rect x="1190" y="261.0" width="188" height="1" fill="white" fill-opacity="0.2" /><rect x="1190" y="219.5" width="188" height="1" fill="white" fill-opacity="0.2" /><rect x="1190" y="178.5" width="188" height="1" fill="white" fill-opacity="0.5" /><text x="1388" y="178.5" font-size="14" fill="white" font-family="monospace" dominant-baseline="initial">24</text><rect x="1190" y="137.0" width="188" height="1" fill="white" fill-opacity="0.2" /><rect x="1190" y="96.0" width="188" height="1" fill="white" fill-opacity="0.2" /><rect x="1190" y="54.5" width="188" height="1" fill="white" fill-opacity="0.2" /><rect x="1190" y="13.0" width="188" height="1" fill="white" fill-opacity="0.5" /><text x="1388" y="13.0" font-size="14" fill="white" font-family="monospace" dominant-baseline="initial">25</text><rect x="1428" y="14.5" width="188" height="660.5" fill="black" /><rect x="1428" y="674.0" width="188" height="1" fill="white" fill-opacity="0.5" /><text x="1626" y="674.0" font-size="14" fill="white" font-family="monospace" dominant-baseline="initial">25</text><rect x="1428" y="633.0" width="188" height="1" fill="white" fill-opacity="0.2" /><rect x="1428" y="591.5" width="188" height="1" fill="white" fill-opacity="0.2" /><rect x="1428" y="550.5" width="188" height="1" fill="white" fill-opacity="0.2" /><rect x="1428" y="509.0" width="188" height="1" fill="white" fill-opacity="0.5" /><text x="1626" y="509.0" font-size="14" fill="white" font-family="monospace" dominant-baseline="initial">26</text><rect x="1428" y="468.0" width="188" height="1" fill="white" fill-opacity="0.2" /><rect x="1428" y="426.5" width="188" height="1" fill="white" fill-opacity="0.2" /><rect x="1428" y="385.0" width="188" height="1" fill="white" fill-opacity="0.2" /><rect x="1428" y="344.0" width="188" height="1" fill="white" fill-opacity="0.5" /><text x="1626" y="344.0" font-size="14" fill="white" font-family="monospace" dominant-baseline="initial">27</text><rect x="1428" y="302.5" width="188" height="1" fill="white" fill-opacity="0.2" /><rect x="1428" y="261.5" width="188" height="1" fill="white" fill-opacity="0.2" /><rect x="1428" y="220.0" width="188" height="1" fill="white" fill-opacity="0.2" /><rect x="1428" y="179.0" width="188" height="1" fill="white" fill-opacity="0.5" /><text x="1626" y="179.0" font-size="14" fill="white" font-family="monospace" dominant-baseline="initial">28</text><rect x="1428" y="137.5" width="188" height="1" fill="white" fill-opacity="0.2" /><rect x="1428" y="96.0" width="188" height="1" fill="white" fill-opacity="0.2" /><rect x="1428" y="55.0" width="188" height="1" fill="white" fill-opacity="0.2" /><rect x="1428" y="13.5" width="188" height="1" fill="white" fill-opacity="0.5" /><text x="1626" y="13.5" font-size="14" fill="white" font-family="monospace" dominant-baseline="initial">29</text><rect x="1666" y="14.5" width="188" height="660.5" fill="black" /><rect x="1666" y="674.0" width="188" height="1" fill="white" fill-opacity="0.5" /><text x="1864" y="674.0" font-size="14" fill="white" font-family="monospace" dominant-baseline="initial">29</text><rect x="1666" y="633.0" width="188" height="1" fill="white" fill-opacity="0.2" /><rect x="1666" y="591.5" width="188" height="1" fill="white" fill-opacity="0.2" /><rect x="1666" y="550.5" width="188" height="1" fill="white" fill-opacity="0.2" /><rect x="1666" y="509.0" width="188" height="1" fill="white" fill-opacity="0.5" /><text x="1864" y="509.0" font-size="14" fill="white" font-family="monospace" dominant-baseline="initial">30</text><rect x="1666" y="467.5" width="188" height="1" fill="white" fill-opacity="0.2" /><rect x="1666" y="426.5" width="188" height="1" fill="white" fill-opacity="0.2" /><rect x="1666" y="385.0" width="188" height="1" fill="white" fill-opacity="0.2" /><rect x="1666" y="344.0" width="188" height="1" fill="white" fill-opacity="0.5" /><text x="1864" y="344.0" font-size="14" fill="white" font-family="monospace" dominant-baseline="initial">31</text><rect x="1666" y="302.5" width="188" height="1" fill="white" fill-opacity="0.2" /><rect x="1666" y="261.5" width="188" height="1" fill="white" fill-opacity="0.2" /><rect x="1666" y="220.0" width="188" height="1" fill="white" fill-opacity="0.2" /><rect x="1666" y="178.5" width="188" height="1" fill="white" fill-opacity="0.5" /><text x="1864" y="178.5" font-size="14" fill="white" font-family="monospace" dominant-baseline="initial">32</text><rect x="1666" y="137.5" width="188" height="1" fill="white" fill-opacity="0.2" /><rect x="1666" y="96.0" width="188" height="1" fill="white" fill-opacity="0.2" /><rect x="1666" y="55.0" width="188" height="1" fill="white" fill-opacity="0.2" /><rect x="1666" y="13.5" width="188" height="1" fill="white" fill-opacity="0.5" /><text x="1864" y="13.5" font-size="14" fill="white" font-family="monospace" dominant-baseline="initial">33</text><rect x="1904" y="14.5" width="188" height="660.5" fill="black" /><rect x="1904" y="674.0" width="188" height="1" fill="white" fill-opacity="0.5" /><text x="2102" y="674.0" font-size="14" fill="white" font-family="monospace" dominant-baseline="initial">33</text><rect x="1904" y="633.0" width="188" height="1" fill="white" fill-opacity="0.2" /><rect x="1904" y="591.5" width="188" height="1" fill="white" fill-opacity="0.2" /><rect x="1904" y="550.5" width="188" height="1" fill="white" fill-opacity="0.2" /><rect x="1904" y="509.0" width="188" height="1" fill="white" fill-opacity="0.5" /><text x="2102" y="509.0" font-size="14" fill="white" font-family="monospace" dominant-baseline="initial">34</text><rect x="1904" y="467.5" width="188" height="1" fill="white" fill-opacity="0.2" /><rect x="1904" y="426.5" width="188" height="1" fill="white" fill-opacity="0.2" /><rect x="1904" y="385.0" width="188" height="1" fill="white" fill-opacity="0.2" /><rect x="1904" y="344.0" width="188" height="1" fill="white" fill-opacity="0.5" /><text x="2102" y="344.0" font-size="14" fill="white" font-family="monospace" dominant-baseline="initial">35</text><rect x="1904" y="302.5" width="188" height="1" fill="white" fill-opacity="0.2" /><rect x="1904" y="261.5" width="188" height="1" fill="white" fill-opacity="0.2" /><rect x="1904" y="220.0" width="188" height="1" fill="white" fill-opacity="0.2" /><rect x="1904" y="178.5" width="188" height="1" fill="white" fill-opacity="0.5" /><text x="2102" y="178.5" font-size="14" fill="white" font-family="monospace" dominant-baseline="initial">36</text><rect x="1904" y="137.5" width="188" height="1" fill="white" fill-opacity="0.2" /><rect x="1904" y="96.0" width="188" height="1" fill="white" fill-opacity="0.2" /><rect x="1904" y="55.0" width="188" height="1" fill="white" fill-opacity="0.2" /><rect x="1904" y="13.5" width="188" height="1" fill="white" fill-opacity="0.5" /><text x="2102" y="13.5" font-size="14" fill="white" font-family="monospace" dominant-baseline="initial">37</text><rect x="1904" y="509.0" width="188" height="1" fill="aqua" fill-opacity="0.75" /><text x="1904" y="505.0" font-size="14" fill="aqua" fill-opacity="0.75" font-family="monospace">Phrase B</text><rect x="2142" y="14.5" width="188" height="660.5" fill="black" /><rect x="2142" y="674.0" width="188" height="1" fill="white" fill-opacity="0.5" /><text x="2340" y="674.0" font-size="14" fill="white" font-family="monospace" dominant-baseline="initial">37</text><rect x="2142" y="633.0" width="188" height="1" fill="white" fill-opacity="0.2" /><rect x="2142" y="591.5" width="188" height="1" fill="white" fill-opacity="0.2" /><rect x="2142" y="550.0" width="188" height="1" fill="white" fill-opacity="0.2" /><rect x="2142" y="509.0" width="188" height="1" fill="white" fill-opacity="0.5" /><text x="2340" y="509.0" font-size="14" fill="white" font-family="monospace" dominant-baseline="initial">38</text><rect x="2142" y="467.5" width="188" height="1" fill="white" fill-opacity="0.2" /><rect x="2142" y="426.5" width="188" height="1" fill="white" fill-opacity="0.2" /><rect x="2142" y="385.0" width="188" height="1" fill="white" fill-opacity="0.2" /><rect x="2142" y="344.0" width="188" height="1" fill="white" fill-opacity="0.5" /><text x="2340" y="344.0" font-size="14" fill="white" font-family="monospace" dominant-baseline="initial">39</text><rect x="2142" y="302.5" width="188" height="1" fill="white" fill-opacity="0.2" /><rect x="2142" y="261.0" width="188" height="1" fill="white" fill-opacity="0.2" /><rect x="2142" y="220.0" width="188" height="1" fill="white" fill-opacity="0.2" /><rect x="2142" y="178.5" width="188" height="1" fill="white" fill-opacity="0.5" /><text x="2340" y="178.5" font-size="14" fill="white" font-family="monospace" dominant-baseline="initial">40</text><rect x="2142" y="137.5" width="188" height="1" fill="white" fill-opacity="0.2" /><rect x="2142" y="96.0" width="188" height="1" fill="white" fill-opacity="0.2" /><rect x="2142" y="55.0" width="188" height="1" fill="white" fill-opacity="0.2" /><rect x="2142" y="13.5" width="188" height="1" fill="white" fill-opacity="0.5" /><text x="2340" y="13.5" font-size="14" fill="white" font-family="monospace" dominant-baseline="initial">41</text><rect x="2380" y="14.5" width="188" height="660.5" fill="black" /><rect x="2380" y="674.0" width="188" height="1" fill="white" fill-opacity="0.5" /><text x="2578" y="674.0" font-size="14" fill="white" font-family="monospace" dominant-baseline="initial">41</text><rect x="2380" y="632.5" width="188" height="1" fill="white" fill-opacity="0.2" /><rect x="2380" y="591.5" width="188" height="1" fill="white" fill-opacity="0.2" /><rect x="2380" y="550.0" width="188" height="1" fill="white" fill-opacity="0.2" /><rect x="2380" y="509.0" width="188" height="1" fill="white" fill-opacity="0.5" /><text x="2578" y="509.0" font-size="14" fill="white" font-family="monospace" dominant-baseline="initial">42</text><rect x="2380" y="467.5" width="188" height="1" fill="white" fill-opacity="0.2" /><rect x="2380" y="426.5" width="188" height="1" fill="white" fill-opacity="0.2" /><rect x="2380" y="385.0" width="188" height="1" fill="white" fill-opacity="0.2" /><rect x="2380" y="343.5" width="188" height="1" fill="white" fill-opacity="0.5" /><text x="2578" y="343.5" font-size="14" fill="white" font-family="monospace" dominant-baseline="initial">43</text><rect x="2380" y="302.5" width="188" height="1" fill="white" fill-opacity="0.2" /><rect x="2380" y="261.0" width="188" height="1" fill="white" fill-opacity="0.2" /><rect x="2380" y="220.0" width="188" height="1" fill="white" fill-opacity="0.2" /><rect x="2380" y="178.5" width="188" height="1" fill="white" fill-opacity="0.5" /><text x="2578" y="178.5" font-size="14" fill="white" font-family="monospace" dominant-baseline="initial">44</text><rect x="2380" y="137.5" width="188" height="1" fill="white" fill-opacity="0.2" /><rect x="2380" y="96.0" width="188" height="1" fill="white" fill-opacity="0.2" /><rect x="2380" y="54.5" width="188" height="1" fill="white" fill-opacity="0.2" /><rect x="2380" y="13.5" width="188" height="1" fill="white" fill-opacity="0.5" /><text x="2578" y="13.5" font-size="14" fill="white" font-family="monospace" dominant-baseline="initial">45</text><rect x="2380" y="178.65000000000055" width="188" height="1" fill="aqua" fill-opacity="0.75" /><text x="2380" y="174.65000000000055" font-size="14" fill="aqua" fill-opacity="0.75" font-family="monospace">Special</text><rect x="2618" y="14.5" width="188" height="660.5" fill="black" /><rect x="2618" y="674.0" width="188" height="1" fill="white" fill-opacity="0.5" /><text x="2816" y="674.0" font-size="14" fill="white" font-family="monospace" dominant-baseline="initial">45</text><rect x="2618" y="632.5" width="188" height="1" fill="white" fill-opacity="0.2" /><rect x="2618" y="591.5" width="188" height="1" fill="white" fill-opacity="0.2" /><rect x="2618" y="550.0" width="188" height="1" fill="white" fill-opacity="0.2" /><rect x="2618" y="509.0" width="188" height="1" fill="white" fill-opacity="0.5" /><text x="2816" y="509.0" font-size="14" fill="white" font-family="monospace" dominant-baseline="initial">46</text><rect x="2618" y="467.5" width="188" height="1" fill="white" fill-opacity="0.2" /><rect x="2618" y="426.0" width="188" height="1" fill="white" fill-opacity="0.2" /><rect x="2618" y="385.0" width="188" height="1" fill="white" fill-opacity="0.2" /><rect x="2618" y="343.5" width="188" height="1" fill="white" fill-opacity="0.5" /><text x="2816" y="343.5" font-size="14" fill="white" font-family="monospace" dominant-baseline="initial">47</text><rect x="2618" y="302.5" width="188" height="1" fill="white" fill-opacity="0.2" /><rect x="2618" y="261.0" width="188" height="1" fill="white" fill-opacity="0.2" /><rect x="2618" y="220.0" width="188" height="1" fill="white" fill-opacity="0.2" /><rect x="2618" y="178.5" width="188" height="1" fill="white" fill-opacity="0.5" /><text x="2816" y="178.5" font-size="14" fill="white" font-family="monospace" dominant-baseline="initial">48</text><rect x="2618" y="137.5" width="188" height="1" fill="white" fill-opacity="0.2" /><rect x="2618" y="96.0" width="188" height="1" fill="white" fill-opacity="0.2" /><rect x="2618" y="54.5" width="188" height="1" fill="white" fill-opacity="0.2" /><rect x="2618" y="13.5" width="188" height="1" fill="white" fill-opacity="0.5" /><text x="2816" y="13.5" font-size="14" fill="white" font-family="monospace" dominant-baseline="initial">49</text><rect x="2856" y="14.5" width="188" height="660.5" fill="black" /><rect x="2856" y="674.0" width="188" height="1" fill="white" fill-opacity="0.5" /><text x="3054" y="674.0" font-size="14" fill="white" font-family="monospace" dominant-baseline="initial">49</text><rect x="2856" y="632.5" width="188" height="1" fill="white" fill-opacity="0.2" /><rect x="2856" y="591.5" width="188" height="1" fill="white" fill-opacity="0.2" /><rect x="2856" y="550.0" width="188" height="1" fill="white" fill-opacity="0.2" /><rect x="2856" y="509.0" width="188" height="1" fill="white" fill-opacity="0.5" /><text x="3054" y="509.0" font-size="14" fill="white" font-family="monospace" dominant-baseline="initial">50</text><rect x="2856" y="467.5" width="188" height="1" fill="white" fill-opacity="0.2" /><rect x="2856" y="426.0" width="188" height="1" fill="white" fill-opacity="0.2" /><rect x="2856" y="385.0" width="188" height="1" fill="white" fill-opacity="0.2" /><rect x="2856" y="343.5" width="188" height="1" fill="white" fill-opacity="0.5" /><text x="3054" y="343.5" font-size="14" fill="white" font-family="monospace" dominant-baseline="initial">51</text><rect x="2856" y="302.5" width="188" height="1" fill="white" fill-opacity="0.2" /><rect x="2856" y="261.0" width="188" height="1" fill="white" fill-opacity="0.2" /><rect x="2856" y="220.0" width="188" height="1" fill="white" fill-opacity="0.2" /><rect x="2856" y="178.5" width="188" height="1" fill="white" fill-opacity="0.5" /><text x="3054" y="178.5" font-size="14" fill="white" font-family="monospace" dominant-baseline="initial">52</text><rect x="2856" y="137.0" width="188" height="1" fill="white" fill-opacity="0.2" /><rect x="2856" y="96.0" width="188" height="1" fill="white" fill-opacity="0.2" /><rect x="2856" y="54.5" width="188" height="1" fill="white" fill-opacity="0.2" /><rect x="2856" y="13.5" width="188" height="1" fill="white" fill-opacity="0.5" /><text x="3054" y="13.5" font-size="14" fill="white" font-family="monospace" dominant-baseline="initial">53</text><rect x="3094" y="14.5" width="188" height="660.5" fill="black" /><rect x="3094" y="674.0" width="188" height="1" fill="white" fill-opacity="0.5" /><text x="3292" y="674.0" font-size="14" fill="white" font-family="monospace" dominant-baseline="initial">53</text><rect x="3094" y="632.5" width="188" height="1" fill="white" fill-opacity="0.2" /><rect x="3094" y="591.5" width="188" height="1" fill="white" fill-opacity="0.2" /><rect x="3094" y="550.0" width="188" height="1" fill="white" fill-opacity="0.2" /><rect x="3094" y="508.5" width="188" height="1" fill="white" fill-opacity="0.5" /><text x="3292" y="508.5" font-size="14" fill="white" font-family="monospace" dominant-baseline="initial">54</text><rect x="3094" y="467.5" width="188" height="1" fill="white" fill-opacity="0.2" /><rect x="3094" y="426.0" width="188" height="1" fill="white" fill-opacity="0.2" /><rect x="3094" y="385.0" width="188" height="1" fill="white" fill-opacity="0.2" /><rect x="3094" y="343.5" width="188" height="1" fill="white" fill-opacity="0.5" /><text x="3292" y="343.5" font-size="14" fill="white" font-family="monospace" dominant-baseline="initial">55</text><rect x="3094" y="302.5" width="188" height="1" fill="white" fill-opacity="0.2" /><rect x="3094" y="261.0" width="188" height="1" fill="white" fill-opacity="0.2" /><rect x="3094" y="219.5" width="188" height="1" fill="white" fill-opacity="0.2" /><rect x="3094" y="178.5" width="188" height="1" fill="white" fill-opacity="0.5" /><text x="3292" y="178.5" font-size="14" fill="white" font-family="monospace" dominant-baseline="initial">56</text><rect x="3094" y="137.0" width="188" height="1" fill="white" fill-opacity="0.2" /><rect x="3094" y="96.0" width="188" height="1" fill="white" fill-opacity="0.2" /><rect x="3094" y="54.5" width="188" height="1" fill="white" fill-opacity="0.2" /><rect x="3094" y="13.5" width="188" height="1" fill="white" fill-opacity="0.5" /><text x="3292" y="13.5" font-size="14" fill="white" font-family="monospace" dominant-baseline="initial">57</text><rect x="3332" y="14.5" width="188" height="660.5" fill="black" /><rect x="3332" y="674.0" width="188" height="1" fill="white" fill-opacity="0.5" /><text x="3530" y="674.0" font-size="14" fill="white" font-family="monospace" dominant-baseline="initial">57</text><rect x="3332" y="632.5" width="188" height="1" fill="white" fill-opacity="0.2" /><rect x="3332" y="591.0" width="188" height="1" fill="white" fill-opacity="0.2" /><rect x="3332" y="550.0" width="188" height="1" fill="white" fill-opacity="0.2" /><rect x="3332" y="508.5" width="188" height="1" fill="white" fill-opacity="0.5" /><text x="3530" y="508.5" font-size="14" fill="white" font-family="monospace" dominant-baseline="initial">58</text><rect x="3332" y="467.5" width="188" height="1" fill="white" fill-opacity="0.2" /><rect x="3332" y="426.0" width="188" height="1" fill="white" fill-opacity="0.2" /><rect x="3332" y="385.0" width="188" height="1" fill="white" fill-opacity="0.2" /><rect x="3332" y="343.5" width="188" height="1" fill="white" fill-opacity="0.5" /><text x="3530" y="343.5" font-size="14" fill="white" font-family="monospace" dominant-baseline="initial">59</text><rect x="3332" y="302.0" width="188" height="1" fill="white" fill-opacity="0.2" /><rect x="3332" y="261.0" width="188" height="1" fill="white" fill-opacity="0.2" /><rect x="3332" y="219.5" width="188" height="1" fill="white" fill-opacity="0.2" /><rect x="3332" y="178.5" width="188" height="1" fill="white" fill-opacity="0.5" /><text x="3530" y="178.5" font-size="14" fill="white" font-family="monospace" dominant-baseline="initial">60</text><rect x="3332" y="137.0" width="188" height="1" fill="white" fill-opacity="0.2" /><rect x="3332" y="96.0" width="188" height="1" fill="white" fill-opacity="0.2" /><rect x="3332" y="54.5" width="188" height="1" fill="white" fill-opacity="0.2" /><rect x="3332" y="13.5" width="188" height="1" fill="white" fill-opacity="0.5" /><text x="3530" y="13.5" font-size="14" fill="white" font-family="monospace" dominant-baseline="initial">61</text><rect x="3570" y="14.0" width="188" height="661.0" fill="black" /><rect x="3570" y="674.0" width="188" height="1" fill="white" fill-opacity="0.5" /><text x="3768" y="674.0" font-size="14" fill="white" font-family="monospace" dominant-baseline="initial">61</text><rect x="3570" y="632.5" width="188" height="1" fill="white" fill-opacity="0.2" /><rect x="3570" y="591.0" width="188" height="1" fill="white" fill-opacity="0.2" /><rect x="3570" y="550.0" width="188" height="1" fill="white" fill-opacity="0.2" /><rect x="3570" y="508.5" width="188" height="1" fill="white" fill-opacity="0.5" /><text x="3768" y="508.5" font-size="14" fill="white" font-family="monospace" dominant-baseline="initial">62</text><rect x="3570" y="467.5" width="188" height="1" fill="white" fill-opacity="0.2" /><rect x="3570" y="426.0" width="188" height="1" fill="white" fill-opacity="0.2" /><rect x="3570" y="385.0" width="188" height="1" fill="white" fill-opacity="0.2" /><rect x="3570" y="343.5" width="188" height="1" fill="white" fill-opacity="0.5" /><text x="3768" y="343.5" font-size="14" fill="white" font-family="monospace" dominant-baseline="initial">63</text><rect x="3570" y="302.0" width="188" height="1" fill="white" fill-opacity="0.2" /><rect x="3570" y="261.0" width="188" height="1" fill="white" fill-opacity="0.2" /><rect x="3570" y="219.5" width="188" height="1" fill="white" fill-opacity="0.2" /><rect x="3570" y="178.5" width="188" height="1" fill="white" fill-opacity="0.5" /><text x="3768" y="178.5" font-size="14" fill="white" font-family="monospace" dominant-baseline="initial">64</text><rect x="3570" y="137.0" width="188" height="1" fill="white" fill-opacity="0.2" /><rect x="3570" y="96.0" width="188" height="1" fill="white" fill-opacity="0.2" /><rect x="3570" y="54.5" width="188" height="1" fill="white" fill-opacity="0.2" /><rect x="3570" y="13.0" width="188" height="1" fill="white" fill-opacity="0.5" /><text x="3768" y="13.0" font-size="14" fill="white" font-family="monospace" dominant-baseline="initial">65</text><rect x="3808" y="14.5" width="188" height="660.5" fill="black" /><rect x="3808" y="674.0" width="188" height="1" fill="white" fill-opacity="0.5" /><text x="4006" y="674.0" font-size="14" fill="white" font-family="monospace" dominant-baseline="initial">65</text><rect x="3808" y="633.0" width="188" height="1" fill="white" fill-opacity="0.2" /><rect x="3808" y="591.5" width="188" height="1" fill="white" fill-opacity="0.2" /><rect x="3808" y="550.5" width="188" height="1" fill="white" fill-opacity="0.2" /><rect x="3808" y="509.0" width="188" height="1" fill="white" fill-opacity="0.5" /><text x="4006" y="509.0" font-size="14" fill="white" font-family="monospace" dominant-baseline="initial">66</text><rect x="3808" y="468.0" width="188" height="1" fill="white" fill-opacity="0.2" /><rect x="3808" y="426.5" width="188" height="1" fill="white" fill-opacity="0.2" /><rect x="3808" y="385.0" width="188" height="1" fill="white" fill-opacity="0.2" /><rect x="3808" y="344.0" width="188" height="1" fill="white" fill-opacity="0.5" /><text x="4006" y="344.0" font-size="14" fill="white" font-family="monospace" dominant-baseline="initial">67</text><rect x="3808" y="302.5" width="188" height="1" fill="white" fill-opacity="0.2" /><rect x="3808" y="261.5" width="188" height="1" fill="white" fill-opacity="0.2" /><rect x="3808" y="220.0" width="188" height="1" fill="white" fill-opacity="0.2" /><rect x="3808" y="179.0" width="188" height="1" fill="white" fill-opacity="0.5" /><text x="4006" y="179.0" font-size="14" fill="white" font-family="monospace" dominant-baseline="initial">68</text><rect x="3808" y="137.5" width="188" height="1" fill="white" fill-opacity="0.2" /><rect x="3808" y="96.0" width="188" height="1" fill="white" fill-opacity="0.2" /><rect x="3808" y="55.0" width="188" height="1" fill="white" fill-opacity="0.2" /><rect x="3808" y="13.5" width="188" height="1" fill="white" fill-opacity="0.5" /><text x="4006" y="13.5" font-size="14" fill="white" font-family="monospace" dominant-baseline="initial">69</text><rect x="4046" y="14.5" width="188" height="660.5" fill="black" /><rect x="4046" y="674.0" width="188" height="1" fill="white" fill-opacity="0.5" /><text x="4244" y="674.0" font-size="14" fill="white" font-family="monospace" dominant-baseline="initial">69</text><rect x="4046" y="633.0" width="188" height="1" fill="white" fill-opacity="0.2" /><rect x="4046" y="591.5" width="188" height="1" fill="white" fill-opacity="0.2" /><rect x="4046" y="550.5" width="188" height="1" fill="white" fill-opacity="0.2" /><rect x="4046" y="509.0" width="188" height="1" fill="white" fill-opacity="0.5" /><text x="4244" y="509.0" font-size="14" fill="white" font-family="monospace" dominant-baseline="initial">70</text><rect x="4046" y="467.5" width="188" height="1" fill="white" fill-opacity="0.2" /><rect x="4046" y="426.5" width="188" height="1" fill="white" fill-opacity="0.2" /><rect x="4046" y="385.0" width="188" height="1" fill="white" fill-opacity="0.2" /><rect x="4046" y="344.0" width="188" height="1" fill="white" fill-opacity="0.5" /><text x="4244" y="344.0" font-size="14" fill="white" font-family="monospace" dominant-baseline="initial">71</text><rect x="4046" y="302.5" width="188" height="1" fill="white" fill-opacity="0.2" /><rect x="4046" y="261.5" width="188" height="1" fill="white" fill-opacity="0.2" /><rect x="4046" y="220.0" width="188" height="1" fill="white" fill-opacity="0.2" /><rect x="4046" y="178.5" width="188" height="1" fill="white" fill-opacity="0.5" /><text x="4244" y="178.5" font-size="14" fill="white" font-family="monospace" dominant-baseline="initial">72</text><rect x="4046" y="137.5" width="188" height="1" fill="white" fill-opacity="0.2" /><rect x="4046" y="96.0" width="188" height="1" fill="white" fill-opacity="0.2" /><rect x="4046" y="55.0" width="188" height="1" fill="white" fill-opacity="0.2" /><rect x="4046" y="13.5" width="188" height="1" fill="white" fill-opacity="0.5" /><text x="4244" y="13.5" font-size="14" fill="white" font-family="monospace" dominant-baseline="initial">73</text><rect x="4284" y="14.5" width="188" height="660.5" fill="black" /><rect x="4284" y="674.0" width="188" height="1" fill="white" fill-opacity="0.5" /><text x="4482" y="674.0" font-size="14" fill="white" font-family="monospace" dominant-baseline="initial">73</text><rect x="4284" y="633.0" width="188" height="1" fill="white" fill-opacity="0.2" /><rect x="4284" y="591.5" width="188" height="1" fill="white" fill-opacity="0.2" /><rect x="4284" y="550.5" width="188" height="1" fill="white" fill-opacity="0.2" /><rect x="4284" y="509.0" width="188" height="1" fill="white" fill-opacity="0.5" /><text x="4482" y="509.0" font-size="14" fill="white" font-family="monospace" dominant-baseline="initial">74</text><rect x="4284" y="467.5" width="188" height="1" fill="white" fill-opacity="0.2" /><rect x="4284" y="426.5" width="188" height="1" fill="white" fill-opacity="0.2" /><rect x="4284" y="385.0" width="188" height="1" fill="white" fill-opacity="0.2" /><rect x="4284" y="344.0" width="188" height="1" fill="white" fill-opacity="0.5" /><text x="4482" y="344.0" font-size="14" fill="white" font-family="monospace" dominant-baseline="initial">75</text><rect x="4284" y="302.5" width="188" height="1" fill="white" fill-opacity="0.2" /><rect x="4284" y="261.5" width="188" height="1" fill="white" fill-opacity="0.2" /><rect x="4284" y="220.0" width="188" height="1" fill="white" fill-opacity="0.2" /><rect x="4284" y="178.5" width="188" height="1" fill="white" fill-opacity="0.5" /><text x="4482" y="178.5" font-size="14" fill="white" font-family="monospace" dominant-baseline="initial">76</text><rect x="4284" y="137.5" width="188" height="1" fill="white" fill-opacity="0.2" /><rect x="4284" y="96.0" width="188" height="1" fill="white" fill-opacity="0.2" /><rect x="4284" y="55.0" width="188" height="1" fill="white" fill-opacity="0.2" /><rect x="4284" y="13.5" width="188" height="1" fill="white" fill-opacity="0.5" /><text x="4482" y="13.5" font-size="14" fill="white" font-family="monospace" dominant-baseline="initial">77</text><rect x="4284" y="508.9500000000007" width="188" height="1" fill="aqua" fill-opacity="0.75" /><text x="4284" y="504.9500000000007" font-size="14" fill="aqua" fill-opacity="0.75" font-family="monospace">Solo</text><rect x="4522" y="14.5" width="188" height="660.5" fill="black" /><rect x="4522" y="674.0" width="188" height="1" fill="white" fill-opacity="0.5" /><text x="4720" y="674.0" font-size="14" fill="white" font-family="monospace" dominant-baseline="initial">77</text><rect x="4522" y="633.0" width="188" height="1" fill="white" fill-opacity="0.2" /><rect x="4522" y="591.5" width="188" height="1" fill="white" fill-opacity="0.2" /><rect x="4522" y="550.0" width="188" height="1" fill="white" fill-opacity="0.2" /><rect x="4522" y="509.0" width="188" height="1" fill="white" fill-opacity="0.5" /><text x="4720" y="509.0" font-size="14" fill="white" font-family="monospace" dominant-baseline="initial">78</text><rect x="4522" y="467.5" width="188" height="1" fill="white" fill-opacity="0.2" /><rect x="4522" y="426.5" width="188" height="1" fill="white" fill-opacity="0.2" /><rect x="4522" y="385.0" width="188" height="1" fill="white" fill-opacity="0.2" /><rect x="4522" y="344.0" width="188" height="1" fill="white" fill-opacity="0.5" /><text x="4720" y="344.0" font-size="14" fill="white" font-family="monospace" dominant-baseline="initial">79</text><rect x="4522" y="302.5" width="188" height="1" fill="white" fill-opacity="0.2" /><rect x="4522" y="261.0" width="188" height="1" fill="white" fill-opacity="0.2" /><rect x="4522" y="220.0" width="188" height="1" fill="white" fill-opacity="0.2" /><rect x="4522" y="178.5" width="188" height="1" fill="white" fill-opacity="0.5" /><text x="4720" y="178.5" font-size="14" fill="white" font-family="monospace" dominant-baseline="initial">80</text><rect x="4522" y="137.5" width="188" height="1" fill="white" fill-opacity="0.2" /><rect x="4522" y="96.0" width="188" height="1" fill="white" fill-opacity="0.2" /><rect x="4522" y="55.0" width="188" height="1" fill="white" fill-opacity="0.2" /><rect x="4522" y="13.5" width="188" height="1" fill="white" fill-opacity="0.5" /><text x="4720" y="13.5" font-size="14" fill="white" font-family="monospace" dominant-baseline="initial">81</text><rect x="4760" y="14.5" width="188" height="660.5" fill="black" /><rect x="4760" y="674.0" width="188" height="1" fill="white" fill-opacity="0.5" /><text x="4958" y="674.0" font-size="14" fill="white" font-family="monospace" dominant-baseline="initial">81</text><rect x="4760" y="632.5" width="188" height="1" fill="white" fill-opacity="0.2" /><rect x="4760" y="591.5" width="188" height="1" fill="white" fill-opacity="0.2" /><rect x="4760" y="550.0" width="188" height="1" fill="white" fill-opacity="0.2" /><rect x="4760" y="509.0" width="188" height="1" fill="white" fill-opacity="0.5" /><text x="4958" y="509.0" font-size="14" fill="white" font-family="monospace" dominant-baseline="initial">82</text><rect x="4760" y="467.5" width="188" height="1" fill="white" fill-opacity="0.2" /><rect x="4760" y="426.5" width="188" height="1" fill="white" fill-opacity="0.2" /><rect x="4760" y="385.0" width="188" height="1" fill="white" fill-opacity="0.2" /><rect x="4760" y="343.5" width="188" height="1" fill="white" fill-opacity="0.5" /><text x="4958" y="343.5" font-size="14" fill="white" font-family="monospace" dominant-baseline="initial">83</text><rect x="4760" y="302.5" width="188" height="1" fill="white" fill-opacity="0.2" /><rect x="4760" y="261.0" width="188" height="1" fill="white" fill-opacity="0.2" /><rect x="4760" y="220.0" width="188" height="1" fill="white" fill-opacity="0.2" /><rect x="4760" y="178.5" width="188" height="1" fill="white" fill-opacity="0.5" /><text x="4958" y="178.5" font-size="14" fill="white" font-family="monospace" dominant-baseline="initial">84</text><rect x="4760" y="137.5" width="188" height="1" fill="white" fill-opacity="0.2" /><rect x="4760" y="96.0" width="188" height="1" fill="white" fill-opacity="0.2" /><rect x="4760" y="54.5" width="188" height="1" fill="white" fill-opacity="0.2" /><rect x="4760" y="13.5" width="188" height="1" fill="white" fill-opacity="0.5" /><text x="4958" y="13.5" font-size="14" fill="white" font-family="monospace" dominant-baseline="initial">85</text><rect x="4998" y="14.5" width="188" height="660.5" fill="black" /><rect x="4998" y="674.0" width="188" height="1" fill="white" fill-opacity="0.5" /><text x="5196" y="674.0" font-size="14" fill="white" font-family="monospace" dominant-baseline="initial">85</text><rect x="4998" y="632.5" width="188" height="1" fill="white" fill-opacity="0.2" /><rect x="4998" y="591.5" width="188" height="1" fill="white" fill-opacity="0.2" /><rect x="4998" y="550.0" width="188" height="1" fill="white" fill-opacity="0.2" /><rect x="4998" y="509.0" width="188" height="1" fill="white" fill-opacity="0.5" /><text x="5196" y="509.0" font-size="14" fill="white" font-family="monospace" dominant-baseline="initial">86</text><rect x="4998" y="467.5" width="188" height="1" fill="white" fill-opacity="0.2" /><rect x="4998" y="426.5" width="188" height="1" fill="white" fill-opacity="0.2" /><rect x="4998" y="385.0" width="188" height="1" fill="white" fill-opacity="0.2" /><rect x="4998" y="343.5" width="188" height="1" fill="white" fill-opacity="0.5" /><text x="5196" y="343.5" font-size="14" fill="white" font-family="monospace" dominant-baseline="initial">87</text><rect x="4998" y="302.5" width="188" height="1" fill="white" fill-opacity="0.2" /><rect x="4998" y="261.0" width="188" height="1" fill="white" fill-opacity="0.2" /><rect x="4998" y="220.0" width="188" height="1" fill="white" fill-opacity="0.2" /><rect x="4998" y="178.5" width="188" height="1" fill="white" fill-opacity="0.5" /><text x="5196" y="178.5" font-size="14" fill="white" font-family="monospace" dominant-baseline="initial">88</text><rect x="4998" y="137.5" width="188" height="1" fill="white" fill-opacity="0.2" /><rect x="4998" y="96.0" width="188" height="1" fill="white" fill-opacity="0.2" /><rect x="4998" y="54.5" width="188" height="1" fill="white" fill-opacity="0.2" /><rect x="4998" y="13.5" width="188" height="1" fill="white" fill-opacity="0.5" /><text x="5196" y="13.5" font-size="14" fill="white" font-family="monospace" dominant-baseline="initial">89</text><rect x="5236" y="36.5" width="188" height="638.5" fill="black" /><rect x="5236" y="674.0" width="188" height="1" fill="white" fill-opacity="0.5" /><text x="5434" y="674.0" font-size="14" fill="white" font-family="monospace" dominant-baseline="initial">89</text><rect x="5236" y="632.5" width="188" height="1" fill="white" fill-opacity="0.2" /><rect x="5236" y="591.5" width="188" height="1" fill="white" fill-opacity="0.2" /><rect x="5236" y="550.0" width="188" height="1" fill="white" fill-opacity="0.2" /><rect x="5236" y="509.0" width="188" height="1" fill="white" fill-opacity="0.5" /><text x="5434" y="509.0" font-size="14" fill="white" font-family="monospace" dominant-baseline="initial">90</text><rect x="5236" y="467.5" width="188" height="1" fill="white" fill-opacity="0.2" /><rect x="5236" y="426.0" width="188" height="1" fill="white" fill-opacity="0.2" /><rect x="5236" y="385.0" width="188" height="1" fill="white" fill-opacity="0.2" /><rect x="5236" y="343.5" width="188" height="1" fill="white" fill-opacity="0.5" /><text x="5434" y="343.5" font-size="14" fill="white" font-family="monospace" dominant-baseline="initial">91</text><rect x="5236" y="302.5" width="188" height="1" fill="white" fill-opacity="0.2" /><rect x="5236" y="261.0" width="188" height="1" fill="white" fill-opacity="0.2" /><rect x="5236" y="220.0" width="188" height="1" fill="white" fill-opacity="0.2" /><rect x="5236" y="178.5" width="188" height="1" fill="white" fill-opacity="0.5" /><text x="5434" y="178.5" font-size="14" fill="white" font-family="monospace" dominant-baseline="initial">92</text></svg>