<?xml version="1.0" encoding="UTF-8"?><svg xmlns="http://www.w3.org/2000/svg" xmlns:xlink="http://www.w3.org/1999/xlink"     width="3094" height="1419.0" viewBox="0 0 3094 1419.0"><defs></defs><rect x="0" y="14.0" width="188" height="1405.0" fill="black" /><rect x="0" y="1418.0" width="188" height="1" fill="white" fill-opacity="0.5" /><text x="198" y="1418.0" font-size="14" fill="white" font-family="monospace" dominant-baseline="initial">1</text><rect x="0" y="1330.0" width="188" height="1" fill="white" fill-opacity="0.2" /><rect x="0" y="1242.5" width="188" height="1" fill="white" fill-opacity="0.2" /><rect x="0" y="1154.5" width="188" height="1" fill="white" fill-opacity="0.2" /><rect x="0" y="1067.0" width="188" height="1" fill="white" fill-opacity="0.5" /><text x="198" y="1067.0" font-size="14" fill="white" font-family="monospace" dominant-baseline="initial">2</text><rect x="0" y="979.0" width="188" height="1" fill="white" fill-opacity="0.2" /><rect x="0" y="891.0" width="188" height="1" fill="white" fill-opacity="0.2" /><rect x="0" y="803.5" width="188" height="1" fill="white" fill-opacity="0.2" /><rect x="0" y="715.5" width="188" height="1" fill="white" fill-opacity="0.5" /><text x="198" y="715.5" font-size="14" fill="white" font-family="monospace" dominant-baseline="initial">3</text><rect x="0" y="628.0" width="188" height="1" fill="white" fill-opacity="0.2" /><rect x="0" y="540.0" width="188" height="1" fill="white" fill-opacity="0.2" /><rect x="0" y="452.0" width="188" height="1" fill="white" fill-opacity="0.2" /><rect x="0" y="364.5" width="188" height="1" fill="white" fill-opacity="0.5" /><text x="198" y="364.5" font-size="14" fill="white" font-family="monospace" dominant-baseline="initial">4</text><rect x="0" y="276.5" width="188" height="1" fill="white" fill-opacity="0.2" /><rect x="0" y="188.5" width="188" height="1" fill="white" fill-opacity="0.2" /><rect x="0" y="101.0" width="188" height="1" fill="white" fill-opacity="0.2" /><rect x="0" y="13.0" width="188" height="1" fill="white" fill-opacity="0.5" /><text x="198" y="13.0" font-size="14" fill="white" font-family="monospace" dominant-baseline="initial">5</text><rect x="0" y="1418.0" width="188" height="1" fill="aqua" fill-opacity="0.75" /><text x="0" y="1414.0" font-size="14" fill="aqua" fill-opacity="0.75" font-family="monospace">Intro</text><rect x="0" y="364.4000000000001" width="188" height="1" fill="aqua" fill-opacity="0.75" /><text x="0" y="360.4000000000001" font-size="14" fill="aqua" fill-opacity="0.75" font-family="monospace">Phrase A</text><rect x="0" y="1418.0" width="188" height="1" fill="lime" fill-opacity="0.75" /><text x="198" y="1405.0" font-size="14" fill="lime" font-family="monospace" dominant-baseline="initial">102.5</text><rect x="238" y="14.0" width="188" height="1405.0" fill="black" /><rect x="238" y="1418.0" width="188" height="1" fill="white" fill-opacity="0.5" /><text x="436" y="1418.0" font-size="14" fill="white" font-family="monospace" dominant-baseline="initial">5</text><rect x="238" y="1330.5" width="188" height="1" fill="white" fill-opacity="0.2" /><rect x="238" y="1242.5" width="188" height="1" fill="white" fill-opacity="0.2" /><rect x="238" y="1154.5" width="188" height="1" fill="white" fill-opacity="0.2" /><rect x="238" y="1067.0" width="188" height="1" fill="white" fill-opacity="0.5" /><text x="436" y="1067.0" font-size="14" fill="white" font-family="monospace" dominant-baseline="initial">6</text><rect x="238" y="979.0" width="188" height="1" fill="white" fill-opacity="0.2" /><rect x="238" y="891.5" width="188" height="1" fill="white" fill-opacity="0.2" /><rect x="238" y="803.5" width="188" height="1" fill="white" fill-opacity="0.2" /><rect x="238" y="715.5" width="188" height="1" fill="white" fill-opacity="0.5" /><text x="436" y="715.5" font-size="14" fill="white" font-family="monospace" dominant-baseline="initial">7</text><rect x="238" y="628.0" width="188" height="1" fill="white" fill-opacity="0.2" /><rect x="238" y="540.0" width="188" height="1" fill="white" fill-opacity="0.2" /><rect x="238" y="452.5" width="188" height="1" fill="white" fill-opacity="0.2" /><rect x="238" y="364.5" width="188" height="1" fill="white" fill-opacity="0.5" /><text x="436" y="364.5" font-size="14" fill="white" font-family="monospace" dominant-baseline="initial">8</text><rect x="238" y="276.5" width="188" height="1" fill="white" fill-opacity="0.2" /><rect x="238" y="189.0" width="188" height="1" fill="white" fill-opacity="0.2" /><rect x="238" y="101.0" width="188" height="1" fill="white" fill-opacity="0.2" /><rect x="238" y="13.0" width="188" height="1" fill="white" fill-opacity="0.5" /><text x="436" y="13.0" font-size="14" fill="white" font-family="monospace" dominant-baseline="initial">9</text><rect x="476" y="14.5" width="188" height="1404.5" fill="black" /><rect x="476" y="1418.0" width="188" height="1" fill="white" fill-opacity="0.5" /><text x="674" y="1418.0" font-size="14" fill="white" font-family="monospace" dominant-baseline="initial">9</text><rect x="476" y="1330.5" width="188" height="1" fill="white" fill-opacity="0.2" /><rect x="476" y="1242.5" width="188" height="1" fill="white" fill-opacity="0.2" /><rect x="476" y="1155.0" width="188" height="1" fill="white" fill-opacity="0.2" /><rect x="476" y="1067.0" width="188" height="1" fill="white" fill-opacity="0.5" /><text x="674" y="1067.0" font-size="14" fill="white" font-family="monospace" dominant-baseline="initial">10</text><rect x="476" y="979.0" width="188" height="1" fill="white" fill-opacity="0.2" /><rect x="476" y="891.5" width="188" height="1" fill="white" fill-opacity="0.2" /><rect x="476" y="803.5" width="188" height="1" fill="white" fill-opacity="0.2" /><rect x="476" y="716.0" width="188" height="1" fill="white" fill-opacity="0.5" /><text x="674" y="716.0" font-size="14" fill="white" font-family="monospace" dominant-baseline="initial">11</text><rect x="476" y="628.0" width="188" height="1" fill="white" fill-opacity="0.2" /><rect x="476" y="540.0" width="188" height="1" fill="white" fill-opacity="0.2" /><rect x="476" y="452.5" width="188" height="1" fill="white" fill-opacity="0.2" /><rect x="476" y="364.5" width="188" height="1" fill="white" fill-opacity="0.5" /><text x="674" y="364.5" font-size="14" fill="white" font-family="monospace" dominant-baseline="initial">12</text><rect x="476" y="277.0" width="188" height="1" fill="white" fill-opacity="0.2" /><rect x="476" y="189.0" width="188" height="1" fill="white" fill-opacity="0.2" /><rect x="476" y="101.0" width="188" height="1" fill="white" fill-opacity="0.2" /><rect x="476" y="13.5" width="188" height="1" fill="white" fill-opacity="0.5" /><text x="674" y="13.5" font-size="14" fill="white" font-family="monospace" dominant-baseline="initial">13</text><rect x="476" y="364.60000000000036" width="188" height="1" fill="aqua" fill-opacity="0.75" /><text x="476" y="360.60000000000036" font-size="14" fill="aqua" fill-opacity="0.75" font-family="monospace">Phrase B</text><rect x="714" y="14.0" width="188" height="1405.0" fill="black" /><rect x="714" y="1418.0" width="188" height="1" fill="white" fill-opacity="0.5" /><text x="912" y="1418.0" font-size="14" fill="white" font-family="monospace" dominant-baseline="initial">13</text><rect x="714" y="1330.0" width="188" height="1" fill="white" fill-opacity="0.2" /><rect x="714" y="1242.5" width="188" height="1" fill="white" fill-opacity="0.2" /><rect x="714" y="1154.5" width="188" height="1" fill="white" fill-opacity="0.2" /><rect x="714" y="1066.5" width="188" height="1" fill="white" fill-opacity="0.5" /><text x="912" y="1066.5" font-size="14" fill="white" font-family="monospace" dominant-baseline="initial">14</text><rect x="714" y="979.0" width="188" height="1" fill="white" fill-opacity="0.2" /><rect x="714" y="891.0" width="188" height="1" fill="white" fill-opacity="0.2" /><rect x="714" y="803.0" width="188" height="1" fill="white" fill-opacity="0.2" /><rect x="714" y="715.5" width="188" height="1" fill="white" fill-opacity="0.5" /><text x="912" y="715.5" font-size="14" fill="white" font-family="monospace" dominant-baseline="initial">15</text><rect x="714" y="627.5" width="188" height="1" fill="white" fill-opacity="0.2" /><rect x="714" y="540.0" width="188" height="1" fill="white" fill-opacity="0.2" /><rect x="714" y="452.0" width="188" height="1" fill="white" fill-opacity="0.2" /><rect x="714" y="364.0" width="188" height="1" fill="white" fill-opacity="0.5" /><text x="912" y="364.0" font-size="14" fill="white" font-family="monospace" dominant-baseline="initial">16</text><rect x="714" y="276.5" width="188" height="1" fill="white" fill-opacity="0.2" /><rect x="714" y="188.5" width="188" height="1" fill="white" fill-opacity="0.2" /><rect x="714" y="101.0" width="188" height="1" fill="white" fill-opacity="0.2" /><rect x="714" y="13.0" width="188" height="1" fill="white" fill-opacity="0.5" /><text x="912" y="13.0" font-size="14" fill="white" font-family="monospace" dominant-baseline="initial">17</text><rect x="952" y="14.0" width="188" height="1405.0" fill="black" /><rect x="952" y="1418.0" width="188" height="1" fill="white" fill-opacity="0.5" /><text x="1150" y="1418.0" font-size="14" fill="white" font-family="monospace" dominant-baseline="initial">17</text><rect x="952" y="1330.0" width="188" height="1" fill="white" fill-opacity="0.2" /><rect x="952" y="1242.5" width="188" height="1" fill="white" fill-opacity="0.2" /><rect x="952" y="1154.5" width="188" height="1" fill="white" fill-opacity="0.2" /><rect x="952" y="1067.0" width="188" height="1" fill="white" fill-opacity="0.5" /><text x="1150" y="1067.0" font-size="14" fill="white" font-family="monospace" dominant-baseline="initial">18</text><rect x="952" y="979.0" width="188" height="1" fill="white" fill-opacity="0.2" /><rect x="952" y="891.0" width="188" height="1" fill="white" fill-opacity="0.2" /><rect x="952" y="803.5" width="188" height="1" fill="white" fill-opacity="0.2" /><rect x="952" y="715.5" width="188" height="1" fill="white" fill-opacity="0.5" /><text x="1150" y="715.5" font-size="14" fill="white" font-family="monospace" dominant-baseline="initial">19</text><rect x="952" y="628.0" width="188" height="1" fill="white" fill-opacity="0.2" /><rect x="952" y="540.0" width="188" height="1" fill="white" fill-opacity="0.2" /><rect x="952" y="452.0" width="188" height="1" fill="white" fill-opacity="0.2" /><rect x="952" y="364.5" width="188" height="1" fill="white" fill-opacity="0.5" /><text x="1150" y="364.5" font-size="14" fill="white" font-family="monospace" dominant-baseline="initial">20</text><rect x="952" y="276.5" width="188" height="1" fill="white" fill-opacity="0.2" /><rect x="952" y="188.5" width="188" height="1" fill="white" fill-opacity="0.2" /><rect x="952" y="101.0" width="188" height="1" fill="white" fill-opacity="0.2" /><rect x="952" y="13.0" width="188" height="1" fill="white" fill-opacity="0.5" /><text x="1150" y="13.0" font-size="14" fill="white" font-family="monospace" dominant-baseline="initial">21</text><rect x="952" y="364.3000000000002" width="188" height="1" fill="aqua" fill-opacity="0.75" /><text x="952" y="360.3000000000002" font-size="14" fill="aqua" fill-opacity="0.75" font-family="monospace">Phrase C</text><rect x="1190" y="14.0" width="188" height="1405.0" fill="black" /><rect x="1190" y="1418.0" width="188" height="1" fill="white" fill-opacity="0.5" /><text x="1388" y="1418.0" font-size="14" fill="white" font-family="monospace" dominant-baseline="initial">21</text><rect x="1190" y="1330.5" width="188" height="1" fill="white" fill-opacity="0.2" /><rect x="1190" y="1242.5" width="188" height="1" fill="white" fill-opacity="0.2" /><rect x="1190" y="1154.5" width="188" height="1" fill="white" fill-opacity="0.2" /><rect x="1190" y="1067.0" width="188" height="1" fill="white" fill-opacity="0.5" /><text x="1388" y="1067.0" font-size="14" fill="white" font-family="monospace" dominant-baseline="initial">22</text><rect x="1190" y="979.0" width="188" height="1" fill="white" fill-opacity="0.2" /><rect x="1190" y="891.5" width="188" height="1" fill="white" fill-opacity="0.2" /><rect x="1190" y="803.5" width="188" height="1" fill="white" fill-opacity="0.2" /><rect x="1190" y="715.5" width="188" height="1" fill="white" fill-opacity="0.5" /><text x="1388" y="715.5" font-size="14" fill="white" font-family="monospace" dominant-baseline="initial">23</text><rect x="1190" y="628.0" width="188" height="1" fill="white" fill-opacity="0.2" /><rect x="1190" y="540.0" width="188" height="1" fill="white" fill-opacity="0.2" /><rect x="1190" y="452.5" width="188" height="1" fill="white" fill-opacity="0.2" /><rect x="1190" y="364.5" width="188" height="1" fill="white" fill-opacity="0.5" /><text x="1388" y="364.5" font-size="14" fill="white" font-family="monospace" dominant-baseline="initial">24</text><rect x="1190" y="276.5" width="188" height="1" fill="white" fill-opacity="0.2" /><rect x="1190" y="189.0" width="188" height="1" fill="white" fill-opacity="0.2" /><rect x="1190" y="101.0" width="188" height="1" fill="white" fill-opacity="0.2" /><rect x="1190" y="13.0" width="188" height="1" fill="white" fill-opacity="0.5" /><text x="1388" y="13.0" font-size="14" fill="white" font-family="monospace" dominant-baseline="initial">25</text><rect x="1428" y="14.5" width="188" height="1404.5" fill="black" /><rect x="1428" y="1418.0" width="188" height="1" fill="white" fill-opacity="0.5" /><text x="1626" y="1418.0" font-size="14" fill="white" font-family="monospace" dominant-baseline="initial">25</text><rect x="1428" y="1330.5" width="188" height="1" fill="white" fill-opacity="0.2" /><rect x="1428" y="1242.5" width="188" height="1" fill="white" fill-opacity="0.2" /><rect x="1428" y="1155.0" width="188" height="1" fill="white" fill-opacity="0.2" /><rect x="1428" y="1067.0" width="188" height="1" fill="white" fill-opacity="0.5" /><text x="1626" y="1067.0" font-size="14" fill="white" font-family="monospace" dominant-baseline="initial">26</text><rect x="1428" y="979.0" width="188" height="1" fill="white" fill-opacity="0.2" /><rect x="1428" y="891.5" width="188" height="1" fill="white" fill-opacity="0.2" /><rect x="1428" y="803.5" width="188" height="1" fill="white" fill-opacity="0.2" /><rect x="1428" y="716.0" width="188" height="1" fill="white" fill-opacity="0.5" /><text x="1626" y="716.0" font-size="14" fill="white" font-family="monospace" dominant-baseline="initial">27</text><rect x="1428" y="628.0" width="188" height="1" fill="white" fill-opacity="0.2" /><rect x="1428" y="540.0" width="188" height="1" fill="white" fill-opacity="0.2" /><rect x="1428" y="452.5" width="188" height="1" fill="white" fill-opacity="0.2" /><rect x="1428" y="364.5" width="188" height="1" fill="white" fill-opacity="0.5" /><text x="1626" y="364.5" font-size="14" fill="white" font-family="monospace" dominant-baseline="initial">28</text><rect x="1428" y="277.0" width="188" height="1" fill="white" fill-opacity="0.2" /><rect x="1428" y="189.0" width="188" height="1" fill="white" fill-opacity="0.2" /><rect x="1428" y="101.0" width="188" height="1" fill="white" fill-opacity="0.2" /><rect x="1428" y="13.5" width="188" height="1" fill="white" fill-opacity="0.5" /><text x="1626" y="13.5" font-size="14" fill="white" font-family="monospace" dominant-baseline="initial">29</text><rect x="1428" y="364.64999999999964" width="188" height="1" fill="aqua" fill-opacity="0.75" /><text x="1428" y="360.64999999999964" font-size="14" fill="aqua" fill-opacity="0.75" font-family="monospace">Phrase B</text><rect x="1666" y="14.0" width="188" height="1405.0" fill="black" /><rect x="1666" y="1418.0" width="188" height="1" fill="white" fill-opacity="0.5" /><text x="1864" y="1418.0" font-size="14" fill="white" font-family="monospace" dominant-baseline="initial">29</text><rect x="1666" y="1330.0" width="188" height="1" fill="white" fill-opacity="0.2" /><rect x="1666" y="1242.5" width="188" height="1" fill="white" fill-opacity="0.2" /><rect x="1666" y="1154.5" width="188" height="1" fill="white" fill-opacity="0.2" /><rect x="1666" y="1066.5" width="188" height="1" fill="white" fill-opacity="0.5" /><text x="1864" y="1066.5" font-size="14" fill="white" font-family="monospace" dominant-baseline="initial">30</text><rect x="1666" y="979.0" width="188" height="1" fill="white" fill-opacity="0.2" /><rect x="1666" y="891.0" width="188" height="1" fill="white" fill-opacity="0.2" /><rect x="1666" y="803.0" width="188" height="1" fill="white" fill-opacity="0.2" /><rect x="1666" y="715.5" width="188" height="1" fill="white" fill-opacity="0.5" /><text x="1864" y="715.5" font-size="14" fill="white" font-family="monospace" dominant-baseline="initial">31</text><rect x="1666" y="627.5" width="188" height="1" fill="white" fill-opacity="0.2" /><rect x="1666" y="540.0" width="188" height="1" fill="white" fill-opacity="0.2" /><rect x="1666" y="452.0" width="188" height="1" fill="white" fill-opacity="0.2" /><rect x="1666" y="364.0" width="188" height="1" fill="white" fill-opacity="0.5" /><text x="1864" y="364.0" font-size="14" fill="white" font-family="monospace" dominant-baseline="initial">32</text><rect x="1666" y="276.5" width="188" height="1" fill="white" fill-opacity="0.2" /><rect x="1666" y="188.5" width="188" height="1" fill="white" fill-opacity="0.2" /><rect x="1666" y="101.0" width="188" height="1" fill="white" fill-opacity="0.2" /><rect x="1666" y="13.0" width="188" height="1" fill="white" fill-opacity="0.5" /><text x="1864" y="13.0" font-size="14" fill="white" font-family="monospace" dominant-baseline="initial">33</text><rect x="1904" y="14.0" width="188" height="1405.0" fill="black" /><rect x="1904" y="1418.0" width="188" height="1" fill="white" fill-opacity="0.5" /><text x="2102" y="1418.0" font-size="14" fill="white" font-family="monospace" dominant-baseline="initial">33</text><rect x="1904" y="1330.0" width="188" height="1" fill="white" fill-opacity="0.2" /><rect x="1904" y="1242.5" width="188" height="1" fill="white" fill-opacity="0.2" /><rect x="1904" y="1154.5" width="188" height="1" fill="white" fill-opacity="0.2" /><rect x="1904" y="1067.0" width="188" height="1" fill="white" fill-opacity="0.5" /><text x="2102" y="1067.0" font-size="14" fill="white" font-family="monospace" dominant-baseline="initial">34</text><rect x="1904" y="979.0" width="188" height="1" fill="white" fill-opacity="0.2" /><rect x="1904" y="891.0" width="188" height="1" fill="white" fill-opacity="0.2" /><rect x="1904" y="803.5" width="188" height="1" fill="white" fill-opacity="0.2" /><rect x="1904" y="715.5" width="188" height="1" fill="white" fill-opacity="0.5" /><text x="2102" y="715.5" font-size="14" fill="white" font-family="monospace" dominant-baseline="initial">35</text><rect x="1904" y="627.5" width="188" height="1" fill="white" fill-opacity="0.2" /><rect x="1904" y="540.0" width="188" height="1" fill="white" fill-opacity="0.2" /><rect x="1904" y="452.0" width="188" height="1" fill="white" fill-opacity="0.2" /><rect x="1904" y="364.5" width="188" height="1" fill="white" fill-opacity="0.5" /><text x="2102" y="364.5" font-size="14" fill="white" font-family="monospace" dominant-baseline="initial">36</text><rect x="1904" y="276.5" width="188" height="1" fill="white" fill-opacity="0.2" /><rect x="1904" y="188.5" width="188" height="1" fill="white" fill-opacity="0.2" /><rect x="1904" y="101.0" width="188" height="1" fill="white" fill-opacity="0.2" /><rect x="1904" y="13.0" width="188" height="1" fill="white" fill-opacity="0.5" /><text x="2102" y="13.0" font-size="14" fill="white" font-family="monospace" dominant-baseline="initial">37</text><rect x="1904" y="364.35000000000036" width="188" height="1" fill="aqua" fill-opacity="0.75" /><text x="1904" y="360.35000000000036" font-size="14" fill="aqua" fill-opacity="0.75" font-family="monospace">Special</text><rect x="2142" y="14.0" width="188" height="1405.0" fill="black" /><rect x="2142" y="1418.0" width="188" height="1" fill="white" fill-opacity="0.5" /><text x="2340" y="1418.0" font-size="14" fill="white" font-family="monospace" dominant-baseline="initial">37</text><rect x="2142" y="1330.5" width="188" height="1" fill="white" fill-opacity="0.2" /><rect x="2142" y="1242.5" width="188" height="1" fill="white" fill-opacity="0.2" /><rect x="2142" y="1154.5" width="188" height="1" fill="white" fill-opacity="0.2" /><rect x="2142" y="1067.0" width="188" height="1" fill="white" fill-opacity="0.5" /><text x="2340" y="1067.0" font-size="14" fill="white" font-family="monospace" dominant-baseline="initial">38</text><rect x="2142" y="979.0" width="188" height="1" fill="white" fill-opacity="0.2" /><rect x="2142" y="891.5" width="188" height="1" fill="white" fill-opacity="0.2" /><rect x="2142" y="803.5" width="188" height="1" fill="white" fill-opacity="0.2" /><rect x="2142" y="715.5" width="188" height="1" fill="white" fill-opacity="0.5" /><text x="2340" y="715.5" font-size="14" fill="white" font-family="monospace" dominant-baseline="initial">39</text><rect x="2142" y="628.0" width="188" height="1" fill="white" fill-opacity="0.2" /><rect x="2142" y="540.0" width="188" height="1" fill="white" fill-opacity="0.2" /><rect x="2142" y="452.5" width="188" height="1" fill="white" fill-opacity="0.2" /><rect x="2142" y="364.5" width="188" height="1" fill="white" fill-opacity="0.5" /><text x="2340" y="364.5" font-size="14" fill="white" font-family="monospace" dominant-baseline="initial">40</text><rect x="2142" y="276.5" width="188" height="1" fill="white" fill-opacity="0.2" /><rect x="2142" y="189.0" width="188" height="1" fill="white" fill-opacity="0.2" /><rect x="2142" y="101.0" width="188" height="1" fill="white" fill-opacity="0.2" /><rect x="2142" y="13.0" width="188" height="1" fill="white" fill-opacity="0.5" /><text x="2340" y="13.0" font-size="14" fill="white" font-family="monospace" dominant-baseline="initial">41</text><rect x="2380" y="14.5" width="188" height="1404.5" fill="black" /><rect x="2380" y="1418.0" width="188" height="1" fill="white" fill-opacity="0.5" /><text x="2578" y="1418.0" font-size="14" fill="white" font-family="monospace" dominant-baseline="initial">41</text><rect x="2380" y="1330.5" width="188" height="1" fill="white" fill-opacity="0.2" /><rect x="2380" y="1242.5" width="188" height="1" fill="white" fill-opacity="0.2" /><rect x="2380" y="1155.0" width="188" height="1" fill="white" fill-opacity="0.2" /><rect x="2380" y="1067.0" width="188" height="1" fill="white" fill-opacity="0.5" /><text x="2578" y="1067.0" font-size="14" fill="white" font-family="monospace" dominant-baseline="initial">42</text><rect x="2380" y="979.0" width="188" height="1" fill="white" fill-opacity="0.2" /><rect x="2380" y="891.5" width="188" height="1" fill="white" fill-opacity="0.2" /><rect x="2380" y="803.5" width="188" height="1" fill="white" fill-opacity="0.2" /><rect x="2380" y="716.0" width="188" height="1" fill="white" fill-opacity="0.5" /><text x="2578" y="716.0" font-size="14" fill="white" font-family="monospace" dominant-baseline="initial">43</text><rect x="2380" y="628.0" width="188" height="1" fill="white" fill-opacity="0.2" /><rect x="2380" y="540.0" width="188" height="1" fill="white" fill-opacity="0.2" /><rect x="2380" y="452.5" width="188" height="1" fill="white" fill-opacity="0.2" /><rect x="2380" y="364.5" width="188" height="1" fill="white" fill-opacity="0.5" /><text x="2578" y="364.5" font-size="14" fill="white" font-family="monospace" dominant-baseline="initial">44</text><rect x="2380" y="277.0" width="188" height="1" fill="white" fill-opacity="0.2" /><rect x="2380" y="189.0" width="188" height="1" fill="white" fill-opacity="0.2" /><rect x="2380" y="101.0" width="188" height="1" fill="white" fill-opacity="0.2" /><rect x="2380" y="13.5" width="188" height="1" fill="white" fill-opacity="0.5" /><text x="2578" y="13.5" font-size="14" fill="white" font-family="monospace" dominant-baseline="initial">45</text><rect x="2380" y="364.5500000000011" width="188" height="1" fill="aqua" fill-opacity="0.75" /><text x="2380" y="360.5500000000011" font-size="14" fill="aqua" fill-opacity="0.75" font-family="monospace">Outro</text><rect x="2618" y="14.0" width="188" height="1405.0" fill="black" /><rect x="2618" y="1418.0" width="188" height="1" fill="white" fill-opacity="0.5" /><text x="2816" y="1418.0" font-size="14" fill="white" font-family="monospace" dominant-baseline="initial">45</text><rect x="2618" y="1330.0" width="188" height="1" fill="white" fill-opacity="0.2" /><rect x="2618" y="1242.5" width="188" height="1" fill="white" fill-opacity="0.2" /><rect x="2618" y="1154.5" width="188" height="1" fill="white" fill-opacity="0.2" /><rect x="2618" y="1066.5" width="188" height="1" fill="white" fill-opacity="0.5" /><text x="2816" y="1066.5" font-size="14" fill="white" font-family="monospace" dominant-baseline="initial">46</text><rect x="2618" y="979.0" width="188" height="1" fill="white" fill-opacity="0.2" /><rect x="2618" y="891.0" width="188" height="1" fill="white" fill-opacity="0.2" /><rect x="2618" y="803.0" width="188" height="1" fill="white" fill-opacity="0.2" /><rect x="2618" y="715.5" width="188" height="1" fill="white" fill-opacity="0.5" /><text x="2816" y="715.5" font-size="14" fill="white" font-family="monospace" dominant-baseline="initial">47</text><rect x="2618" y="627.5" width="188" height="1" fill="white" fill-opacity="0.2" /><rect x="2618" y="540.0" width="188" height="1" fill="white" fill-opacity="0.2" /><rect x="2618" y="452.0" width="188" height="1" fill="white" fill-opacity="0.2" /><rect x="2618" y="364.0" width="188" height="1" fill="white" fill-opacity="0.5" /><text x="2816" y="364.0" font-size="14" fill="white" font-family="monospace" dominant-baseline="initial">48</text><rect x="2618" y="276.5" width="188" height="1" fill="white" fill-opacity="0.2" /><rect x="2618" y="188.5" width="188" height="1" fill="white" fill-opacity="0.2" /><rect x="2618" y="101.0" width="188" height="1" fill="white" fill-opacity="0.2" /><rect x="2618" y="13.0" width="188" height="1" fill="white" fill-opacity="0.5" /><text x="2816" y="13.0" font-size="14" fill="white" font-family="monospace" dominant-baseline="initial">49</text><rect x="2856" y="146.5" width="188" height="1272.5" fill="black" /><rect x="2856" y="1418.0" width="188" height="1" fill="white" fill-opacity="0.5" /><text x="3054" y="1418.0" font-size="14" fill="white" font-family="monospace" dominant-baseline="initial">49</text><rect x="2856" y="1330.0" width="188" height="1" fill="white" fill-opacity="0.2" /><rect x="2856" y="1242.5" width="188" height="1" fill="white" fill-opacity="0.2" /><rect x="2856" y="1154.5" width="188" height="1" fill="white" fill-opacity="0.2" /><rect x="2856" y="1067.0" width="188" height="1" fill="white" fill-opacity="0.5" /><text x="3054" y="1067.0" font-size="14" fill="white" font-family="monospace" dominant-baseline="initial">50</text><rect x="2856" y="979.0" width="188" height="1" fill="white" fill-opacity="0.2" /><rect x="2856" y="891.0" width="188" height="1" fill="white" fill-opacity="0.2" /><rect x="2856" y="803.5" width="188" height="1" fill="white" fill-opacity="0.2" /><rect x="2856" y="715.5" width="188" height="1" fill="white" fill-opacity="0.5" /><text x="3054" y="715.5" font-size="14" fill="white" font-family="monospace" dominant-baseline="initial">51</text><rect x="2856" y="627.5" width="188" height="1" fill="white" fill-opacity="0.2" /><rect x="2856" y="540.0" width="188" height="1" fill="white" fill-opacity="0.2" /><rect x="2856" y="452.0" width="188" height="1" fill="white" fill-opacity="0.2" /><rect x="2856" y="364.5" width="188" height="1" fill="white" fill-opacity="0.5" /><text x="3054" y="364.5" font-size="14" fill="white" font-family="monospace" dominant-baseline="initial">52</text></svg>