<?xml version="1.0" encoding="UTF-8"?><svg xmlns="http://www.w3.org/2000/svg" xmlns:xlink="http://www.w3.org/1999/xlink"     width="2964" height="914.0" viewBox="0 0 2964 914.0"><defs></defs><rect x="0" y="0" width="64" height="857.0" fill="black" /><rect x="0" y="0.0" width="64" height="1" fill="white" fill-opacity="0.5" /><text x="74" y="14.0" font-size="14" fill="white" font-family="monospace" dominant-baseline="ideographic">1</text><rect x="0" y="53.5" width="64" height="1" fill="white" fill-opacity="0.2" /><rect x="0" y="107.0" width="64" height="1" fill="white" fill-opacity="0.2" /><rect x="0" y="160.5" width="64" height="1" fill="white" fill-opacity="0.2" /><rect x="0" y="214.5" width="64" height="1" fill="white" fill-opacity="0.5" /><text x="74" y="228.5" font-size="14" fill="white" font-family="monospace" dominant-baseline="ideographic">2</text><rect x="0" y="268.0" width="64" height="1" fill="white" fill-opacity="0.2" /><rect x="0" y="321.5" width="64" height="1" fill="white" fill-opacity="0.2" /><rect x="0" y="375.0" width="64" height="1" fill="white" fill-opacity="0.2" /><rect x="0" y="428.5" width="64" height="1" fill="white" fill-opacity="0.5" /><text x="74" y="442.5" font-size="14" fill="white" font-family="monospace" dominant-baseline="ideographic">3</text><rect x="0" y="482.0" width="64" height="1" fill="white" fill-opacity="0.2" /><rect x="0" y="535.5" width="64" height="1" fill="white" fill-opacity="0.2" /><rect x="0" y="589.5" width="64" height="1" fill="white" fill-opacity="0.2" /><rect x="0" y="643.0" width="64" height="1" fill="white" fill-opacity="0.5" /><text x="74" y="657.0" font-size="14" fill="white" font-family="monospace" dominant-baseline="ideographic">4</text><rect x="0" y="696.5" width="64" height="1" fill="white" fill-opacity="0.2" /><rect x="0" y="750.0" width="64" height="1" fill="white" fill-opacity="0.2" /><rect x="0" y="803.5" width="64" height="1" fill="white" fill-opacity="0.2" /><rect x="0" y="857.0" width="64" height="1" fill="white" fill-opacity="0.5" /><text x="74" y="871.0" font-size="14" fill="white" font-family="monospace" dominant-baseline="ideographic">5</text><rect x="0" y="0.0" width="64" height="1" fill="aqua" fill-opacity="0.75" /><text x="0" y="14.0" font-size="14" fill="aqua" fill-opacity="0.75" font-family="monospace">Intro</text><rect x="0" y="0.0" width="64" height="1" fill="lime" fill-opacity="0.75" /><text x="74" y="28.0" font-size="14" fill="lime" font-family="monospace" dominant-baseline="ideographic">168</text><rect x="114" y="0" width="64" height="806.0" fill="black" /><rect x="114" y="0.0" width="64" height="1" fill="white" fill-opacity="0.5" /><text x="188" y="14.0" font-size="14" fill="white" font-family="monospace" dominant-baseline="ideographic">5</text><rect x="114" y="53.5" width="64" height="1" fill="white" fill-opacity="0.2" /><rect x="114" y="107.5" width="64" height="1" fill="white" fill-opacity="0.2" /><rect x="114" y="161.0" width="64" height="1" fill="white" fill-opacity="0.2" /><rect x="114" y="214.5" width="64" height="1" fill="white" fill-opacity="0.5" /><text x="188" y="228.5" font-size="14" fill="white" font-family="monospace" dominant-baseline="ideographic">6</text><rect x="114" y="274.5" width="64" height="1" fill="white" fill-opacity="0.2" /><rect x="114" y="334.5" width="64" height="1" fill="white" fill-opacity="0.2" /><rect x="114" y="463.0" width="64" height="1" fill="white" fill-opacity="0.2" /><rect x="114" y="591.5" width="64" height="1" fill="white" fill-opacity="0.5" /><text x="188" y="605.5" font-size="14" fill="white" font-family="monospace" dominant-baseline="ideographic">7</text><rect x="114" y="645.0" width="64" height="1" fill="white" fill-opacity="0.2" /><rect x="114" y="698.5" width="64" height="1" fill="white" fill-opacity="0.5" /><text x="188" y="712.5" font-size="14" fill="white" font-family="monospace" dominant-baseline="ideographic">8</text><rect x="114" y="752.5" width="64" height="1" fill="white" fill-opacity="0.2" /><rect x="114" y="806.0" width="64" height="1" fill="white" fill-opacity="0.5" /><text x="188" y="820.0" font-size="14" fill="white" font-family="monospace" dominant-baseline="ideographic">9</text><rect x="114" y="591.55" width="64" height="1" fill="aqua" fill-opacity="0.75" /><text x="114" y="605.55" font-size="14" fill="aqua" fill-opacity="0.75" font-family="monospace">Phrase A</text><rect x="114" y="214.5" width="64" height="1" fill="lime" fill-opacity="0.75" /><text x="188" y="242.5" font-size="14" fill="lime" font-family="monospace" dominant-baseline="ideographic">150</text><rect x="114" y="334.5" width="64" height="1" fill="lime" fill-opacity="0.75" /><text x="188" y="348.5" font-size="14" fill="lime" font-family="monospace" dominant-baseline="ideographic">70</text><rect x="114" y="591.5" width="64" height="1" fill="lime" fill-opacity="0.75" /><text x="188" y="619.5" font-size="14" fill="lime" font-family="monospace" dominant-baseline="ideographic">168</text><rect x="228" y="0" width="64" height="428.5" fill="black" /><rect x="228" y="0.0" width="64" height="1" fill="white" fill-opacity="0.5" /><text x="302" y="14.0" font-size="14" fill="white" font-family="monospace" dominant-baseline="ideographic">9</text><rect x="228" y="53.5" width="64" height="1" fill="white" fill-opacity="0.2" /><rect x="228" y="107.0" width="64" height="1" fill="white" fill-opacity="0.5" /><text x="302" y="121.0" font-size="14" fill="white" font-family="monospace" dominant-baseline="ideographic">10</text><rect x="228" y="160.5" width="64" height="1" fill="white" fill-opacity="0.2" /><rect x="228" y="214.0" width="64" height="1" fill="white" fill-opacity="0.5" /><text x="302" y="228.0" font-size="14" fill="white" font-family="monospace" dominant-baseline="ideographic">11</text><rect x="228" y="267.5" width="64" height="1" fill="white" fill-opacity="0.2" /><rect x="228" y="321.5" width="64" height="1" fill="white" fill-opacity="0.5" /><text x="302" y="335.5" font-size="14" fill="white" font-family="monospace" dominant-baseline="ideographic">12</text><rect x="228" y="375.0" width="64" height="1" fill="white" fill-opacity="0.2" /><rect x="228" y="428.5" width="64" height="1" fill="white" fill-opacity="0.5" /><text x="302" y="442.5" font-size="14" fill="white" font-family="monospace" dominant-baseline="ideographic">13</text><rect x="342" y="0" width="64" height="482.0" fill="black" /><rect x="342" y="0.0" width="64" height="1" fill="white" fill-opacity="0.5" /><text x="416" y="14.0" font-size="14" fill="white" font-family="monospace" dominant-baseline="ideographic">13</text><rect x="342" y="53.5" width="64" height="1" fill="white" fill-opacity="0.2" /><rect x="342" y="107.0" width="64" height="1" fill="white" fill-opacity="0.5" /><text x="416" y="121.0" font-size="14" fill="white" font-family="monospace" dominant-baseline="ideographic">14</text><rect x="342" y="160.5" width="64" height="1" fill="white" fill-opacity="0.2" /><rect x="342" y="214.0" width="64" height="1" fill="white" fill-opacity="0.5" /><text x="416" y="228.0" font-size="14" fill="white" font-family="monospace" dominant-baseline="ideographic">15</text><rect x="342" y="268.0" width="64" height="1" fill="white" fill-opacity="0.2" /><rect x="342" y="321.5" width="64" height="1" fill="white" fill-opacity="0.5" /><text x="416" y="335.5" font-size="14" fill="white" font-family="monospace" dominant-baseline="ideographic">16</text><rect x="342" y="375.0" width="64" height="1" fill="white" fill-opacity="0.2" /><rect x="342" y="428.5" width="64" height="1" fill="white" fill-opacity="0.2" /><rect x="342" y="482.0" width="64" height="1" fill="white" fill-opacity="0.5" /><text x="416" y="496.0" font-size="14" fill="white" font-family="monospace" dominant-baseline="ideographic">17</text><rect x="456" y="0" width="64" height="696.5" fill="black" /><rect x="456" y="0.0" width="64" height="1" fill="white" fill-opacity="0.5" /><text x="530" y="14.0" font-size="14" fill="white" font-family="monospace" dominant-baseline="ideographic">17</text><rect x="456" y="53.5" width="64" height="1" fill="white" fill-opacity="0.2" /><rect x="456" y="107.0" width="64" height="1" fill="white" fill-opacity="0.2" /><rect x="456" y="161.0" width="64" height="1" fill="white" fill-opacity="0.5" /><text x="530" y="175.0" font-size="14" fill="white" font-family="monospace" dominant-baseline="ideographic">18</text><rect x="456" y="214.5" width="64" height="1" fill="white" fill-opacity="0.2" /><rect x="456" y="268.0" width="64" height="1" fill="white" fill-opacity="0.2" /><rect x="456" y="321.5" width="64" height="1" fill="white" fill-opacity="0.2" /><rect x="456" y="375.0" width="64" height="1" fill="white" fill-opacity="0.5" /><text x="530" y="389.0" font-size="14" fill="white" font-family="monospace" dominant-baseline="ideographic">19</text><rect x="456" y="428.5" width="64" height="1" fill="white" fill-opacity="0.2" /><rect x="456" y="482.0" width="64" height="1" fill="white" fill-opacity="0.2" /><rect x="456" y="536.0" width="64" height="1" fill="white" fill-opacity="0.2" /><rect x="456" y="589.5" width="64" height="1" fill="white" fill-opacity="0.5" /><text x="530" y="603.5" font-size="14" fill="white" font-family="monospace" dominant-baseline="ideographic">20</text><rect x="456" y="643.0" width="64" height="1" fill="white" fill-opacity="0.2" /><rect x="456" y="696.5" width="64" height="1" fill="white" fill-opacity="0.5" /><text x="530" y="710.5" font-size="14" fill="white" font-family="monospace" dominant-baseline="ideographic">21</text><rect x="456" y="589.3999999999996" width="64" height="1" fill="aqua" fill-opacity="0.75" /><text x="456" y="603.3999999999996" font-size="14" fill="aqua" fill-opacity="0.75" font-family="monospace">Phrase B</text><rect x="570" y="0" width="64" height="428.5" fill="black" /><rect x="570" y="0.0" width="64" height="1" fill="white" fill-opacity="0.5" /><text x="644" y="14.0" font-size="14" fill="white" font-family="monospace" dominant-baseline="ideographic">21</text><rect x="570" y="53.5" width="64" height="1" fill="white" fill-opacity="0.2" /><rect x="570" y="107.0" width="64" height="1" fill="white" fill-opacity="0.5" /><text x="644" y="121.0" font-size="14" fill="white" font-family="monospace" dominant-baseline="ideographic">22</text><rect x="570" y="160.5" width="64" height="1" fill="white" fill-opacity="0.2" /><rect x="570" y="214.5" width="64" height="1" fill="white" fill-opacity="0.5" /><text x="644" y="228.5" font-size="14" fill="white" font-family="monospace" dominant-baseline="ideographic">23</text><rect x="570" y="268.0" width="64" height="1" fill="white" fill-opacity="0.2" /><rect x="570" y="321.5" width="64" height="1" fill="white" fill-opacity="0.5" /><text x="644" y="335.5" font-size="14" fill="white" font-family="monospace" dominant-baseline="ideographic">24</text><rect x="570" y="375.0" width="64" height="1" fill="white" fill-opacity="0.2" /><rect x="570" y="428.5" width="64" height="1" fill="white" fill-opacity="0.5" /><text x="644" y="442.5" font-size="14" fill="white" font-family="monospace" dominant-baseline="ideographic">25</text><rect x="684" y="0" width="64" height="428.5" fill="black" /><rect x="684" y="0.0" width="64" height="1" fill="white" fill-opacity="0.5" /><text x="758" y="14.0" font-size="14" fill="white" font-family="monospace" dominant-baseline="ideographic">25</text><rect x="684" y="53.5" width="64" height="1" fill="white" fill-opacity="0.2" /><rect x="684" y="107.0" width="64" height="1" fill="white" fill-opacity="0.5" /><text x="758" y="121.0" font-size="14" fill="white" font-family="monospace" dominant-baseline="ideographic">26</text><rect x="684" y="161.0" width="64" height="1" fill="white" fill-opacity="0.2" /><rect x="684" y="214.5" width="64" height="1" fill="white" fill-opacity="0.5" /><text x="758" y="228.5" font-size="14" fill="white" font-family="monospace" dominant-baseline="ideographic">27</text><rect x="684" y="268.0" width="64" height="1" fill="white" fill-opacity="0.2" /><rect x="684" y="321.5" width="64" height="1" fill="white" fill-opacity="0.5" /><text x="758" y="335.5" font-size="14" fill="white" font-family="monospace" dominant-baseline="ideographic">28</text><rect x="684" y="375.0" width="64" height="1" fill="white" fill-opacity="0.2" /><rect x="684" y="428.5" width="64" height="1" fill="white" fill-opacity="0.5" /><text x="758" y="442.5" font-size="14" fill="white" font-family="monospace" dominant-baseline="ideographic">29</text><rect x="798" y="0" width="64" height="482.5" fill="black" /><rect x="798" y="0.0" width="64" height="1" fill="white" fill-opacity="0.5" /><text x="872" y="14.0" font-size="14" fill="white" font-family="monospace" dominant-baseline="ideographic">29</text><rect x="798" y="53.5" width="64" height="1" fill="white" fill-opacity="0.2" /><rect x="798" y="107.5" width="64" height="1" fill="white" fill-opacity="0.5" /><text x="872" y="121.5" font-size="14" fill="white" font-family="monospace" dominant-baseline="ideographic">30</text><rect x="798" y="161.0" width="64" height="1" fill="white" fill-opacity="0.2" /><rect x="798" y="214.5" width="64" height="1" fill="white" fill-opacity="0.5" /><text x="872" y="228.5" font-size="14" fill="white" font-family="monospace" dominant-baseline="ideographic">31</text><rect x="798" y="268.0" width="64" height="1" fill="white" fill-opacity="0.2" /><rect x="798" y="321.5" width="64" height="1" fill="white" fill-opacity="0.5" /><text x="872" y="335.5" font-size="14" fill="white" font-family="monospace" dominant-baseline="ideographic">32</text><rect x="798" y="375.0" width="64" height="1" fill="white" fill-opacity="0.2" /><rect x="798" y="428.5" width="64" height="1" fill="white" fill-opacity="0.2" /><rect x="798" y="482.5" width="64" height="1" fill="white" fill-opacity="0.5" /><text x="872" y="496.5" font-size="14" fill="white" font-family="monospace" dominant-baseline="ideographic">33</text><rect x="912" y="0" width="64" height="642.5" fill="black" /><rect x="912" y="0.0" width="64" height="1" fill="white" fill-opacity="0.5" /><text x="986" y="14.0" font-size="14" fill="white" font-family="monospace" dominant-baseline="ideographic">33</text><rect x="912" y="53.5" width="64" height="1" fill="white" fill-opacity="0.2" /><rect x="912" y="107.0" width="64" height="1" fill="white" fill-opacity="0.2" /><rect x="912" y="160.5" width="64" height="1" fill="white" fill-opacity="0.5" /><text x="986" y="174.5" font-size="14" fill="white" font-family="monospace" dominant-baseline="ideographic">34</text><rect x="912" y="214.0" width="64" height="1" fill="white" fill-opacity="0.2" /><rect x="912" y="267.5" width="64" height="1" fill="white" fill-opacity="0.2" /><rect x="912" y="321.0" width="64" height="1" fill="white" fill-opacity="0.5" /><text x="986" y="335.0" font-size="14" fill="white" font-family="monospace" dominant-baseline="ideographic">35</text><rect x="912" y="375.0" width="64" height="1" fill="white" fill-opacity="0.2" /><rect x="912" y="428.5" width="64" height="1" fill="white" fill-opacity="0.2" /><rect x="912" y="482.0" width="64" height="1" fill="white" fill-opacity="0.5" /><text x="986" y="496.0" font-size="14" fill="white" font-family="monospace" dominant-baseline="ideographic">36</text><rect x="912" y="535.5" width="64" height="1" fill="white" fill-opacity="0.2" /><rect x="912" y="589.0" width="64" height="1" fill="white" fill-opacity="0.2" /><rect x="912" y="642.5" width="64" height="1" fill="white" fill-opacity="0.5" /><text x="986" y="656.5" font-size="14" fill="white" font-family="monospace" dominant-baseline="ideographic">37</text><rect x="1026" y="0" width="64" height="536.0" fill="black" /><rect x="1026" y="0.0" width="64" height="1" fill="white" fill-opacity="0.5" /><text x="1100" y="14.0" font-size="14" fill="white" font-family="monospace" dominant-baseline="ideographic">37</text><rect x="1026" y="53.5" width="64" height="1" fill="white" fill-opacity="0.2" /><rect x="1026" y="107.5" width="64" height="1" fill="white" fill-opacity="0.2" /><rect x="1026" y="161.0" width="64" height="1" fill="white" fill-opacity="0.5" /><text x="1100" y="175.0" font-size="14" fill="white" font-family="monospace" dominant-baseline="ideographic">38</text><rect x="1026" y="214.5" width="64" height="1" fill="white" fill-opacity="0.2" /><rect x="1026" y="268.0" width="64" height="1" fill="white" fill-opacity="0.2" /><rect x="1026" y="321.5" width="64" height="1" fill="white" fill-opacity="0.5" /><text x="1100" y="335.5" font-size="14" fill="white" font-family="monospace" dominant-baseline="ideographic">39</text><rect x="1026" y="375.0" width="64" height="1" fill="white" fill-opacity="0.2" /><rect x="1026" y="428.5" width="64" height="1" fill="white" fill-opacity="0.5" /><text x="1100" y="442.5" font-size="14" fill="white" font-family="monospace" dominant-baseline="ideographic">40</text><rect x="1026" y="482.5" width="64" height="1" fill="white" fill-opacity="0.2" /><rect x="1026" y="536.0" width="64" height="1" fill="white" fill-opacity="0.5" /><text x="1100" y="550.0" font-size="14" fill="white" font-family="monospace" dominant-baseline="ideographic">41</text><rect x="1026" y="428.64999999999964" width="64" height="1" fill="aqua" fill-opacity="0.75" /><text x="1026" y="442.64999999999964" font-size="14" fill="aqua" fill-opacity="0.75" font-family="monospace">Phrase C</text><rect x="1140" y="0" width="64" height="482.0" fill="black" /><rect x="1140" y="0.0" width="64" height="1" fill="white" fill-opacity="0.5" /><text x="1214" y="14.0" font-size="14" fill="white" font-family="monospace" dominant-baseline="ideographic">41</text><rect x="1140" y="53.5" width="64" height="1" fill="white" fill-opacity="0.2" /><rect x="1140" y="107.0" width="64" height="1" fill="white" fill-opacity="0.5" /><text x="1214" y="121.0" font-size="14" fill="white" font-family="monospace" dominant-baseline="ideographic">42</text><rect x="1140" y="160.5" width="64" height="1" fill="white" fill-opacity="0.2" /><rect x="1140" y="214.0" width="64" height="1" fill="white" fill-opacity="0.5" /><text x="1214" y="228.0" font-size="14" fill="white" font-family="monospace" dominant-baseline="ideographic">43</text><rect x="1140" y="267.5" width="64" height="1" fill="white" fill-opacity="0.2" /><rect x="1140" y="321.5" width="64" height="1" fill="white" fill-opacity="0.5" /><text x="1214" y="335.5" font-size="14" fill="white" font-family="monospace" dominant-baseline="ideographic">44</text><rect x="1140" y="375.0" width="64" height="1" fill="white" fill-opacity="0.2" /><rect x="1140" y="428.5" width="64" height="1" fill="white" fill-opacity="0.2" /><rect x="1140" y="482.0" width="64" height="1" fill="white" fill-opacity="0.5" /><text x="1214" y="496.0" font-size="14" fill="white" font-family="monospace" dominant-baseline="ideographic">45</text><rect x="1254" y="0" width="64" height="696.5" fill="black" /><rect x="1254" y="0.0" width="64" height="1" fill="white" fill-opacity="0.5" /><text x="1328" y="14.0" font-size="14" fill="white" font-family="monospace" dominant-baseline="ideographic">45</text><rect x="1254" y="53.5" width="64" height="1" fill="white" fill-opacity="0.2" /><rect x="1254" y="107.0" width="64" height="1" fill="white" fill-opacity="0.2" /><rect x="1254" y="160.5" width="64" height="1" fill="white" fill-opacity="0.2" /><rect x="1254" y="214.5" width="64" height="1" fill="white" fill-opacity="0.5" /><text x="1328" y="228.5" font-size="14" fill="white" font-family="monospace" dominant-baseline="ideographic">46</text><rect x="1254" y="268.0" width="64" height="1" fill="white" fill-opacity="0.2" /><rect x="1254" y="321.5" width="64" height="1" fill="white" fill-opacity="0.2" /><rect x="1254" y="375.0" width="64" height="1" fill="white" fill-opacity="0.2" /><rect x="1254" y="428.5" width="64" height="1" fill="white" fill-opacity="0.2" /><rect x="1254" y="482.0" width="64" height="1" fill="white" fill-opacity="0.5" /><text x="1328" y="496.0" font-size="14" fill="white" font-family="monospace" dominant-baseline="ideographic">47</text><rect x="1254" y="535.5" width="64" height="1" fill="white" fill-opacity="0.2" /><rect x="1254" y="589.5" width="64" height="1" fill="white" fill-opacity="0.5" /><text x="1328" y="603.5" font-size="14" fill="white" font-family="monospace" dominant-baseline="ideographic">48</text><rect x="1254" y="643.0" width="64" height="1" fill="white" fill-opacity="0.2" /><rect x="1254" y="696.5" width="64" height="1" fill="white" fill-opacity="0.5" /><text x="1328" y="710.5" font-size="14" fill="white" font-family="monospace" dominant-baseline="ideographic">49</text><rect x="1368" y="0" width="64" height="750.0" fill="black" /><rect x="1368" y="0.0" width="64" height="1" fill="white" fill-opacity="0.5" /><text x="1442" y="14.0" font-size="14" fill="white" font-family="monospace" dominant-baseline="ideographic">49</text><rect x="1368" y="53.5" width="64" height="1" fill="white" fill-opacity="0.2" /><rect x="1368" y="107.0" width="64" height="1" fill="white" fill-opacity="0.5" /><text x="1442" y="121.0" font-size="14" fill="white" font-family="monospace" dominant-baseline="ideographic">50</text><rect x="1368" y="160.5" width="64" height="1" fill="white" fill-opacity="0.2" /><rect x="1368" y="214.0" width="64" height="1" fill="white" fill-opacity="0.2" /><rect x="1368" y="268.0" width="64" height="1" fill="white" fill-opacity="0.2" /><rect x="1368" y="321.5" width="64" height="1" fill="white" fill-opacity="0.5" /><text x="1442" y="335.5" font-size="14" fill="white" font-family="monospace" dominant-baseline="ideographic">51</text><rect x="1368" y="375.0" width="64" height="1" fill="white" fill-opacity="0.2" /><rect x="1368" y="428.5" width="64" height="1" fill="white" fill-opacity="0.2" /><rect x="1368" y="482.0" width="64" height="1" fill="white" fill-opacity="0.2" /><rect x="1368" y="535.5" width="64" height="1" fill="white" fill-opacity="0.5" /><text x="1442" y="549.5" font-size="14" fill="white" font-family="monospace" dominant-baseline="ideographic">52</text><rect x="1368" y="589.0" width="64" height="1" fill="white" fill-opacity="0.2" /><rect x="1368" y="643.0" width="64" height="1" fill="white" fill-opacity="0.2" /><rect x="1368" y="696.5" width="64" height="1" fill="white" fill-opacity="0.2" /><rect x="1368" y="750.0" width="64" height="1" fill="white" fill-opacity="0.5" /><text x="1442" y="764.0" font-size="14" fill="white" font-family="monospace" dominant-baseline="ideographic">53</text><rect x="1482" y="0" width="64" height="643.0" fill="black" /><rect x="1482" y="0.0" width="64" height="1" fill="white" fill-opacity="0.5" /><text x="1556" y="14.0" font-size="14" fill="white" font-family="monospace" dominant-baseline="ideographic">53</text><rect x="1482" y="53.5" width="64" height="1" fill="white" fill-opacity="0.2" /><rect x="1482" y="107.0" width="64" height="1" fill="white" fill-opacity="0.2" /><rect x="1482" y="160.5" width="64" height="1" fill="white" fill-opacity="0.5" /><text x="1556" y="174.5" font-size="14" fill="white" font-family="monospace" dominant-baseline="ideographic">54</text><rect x="1482" y="214.0" width="64" height="1" fill="white" fill-opacity="0.2" /><rect x="1482" y="268.0" width="64" height="1" fill="white" fill-opacity="0.2" /><rect x="1482" y="321.5" width="64" height="1" fill="white" fill-opacity="0.5" /><text x="1556" y="335.5" font-size="14" fill="white" font-family="monospace" dominant-baseline="ideographic">55</text><rect x="1482" y="375.0" width="64" height="1" fill="white" fill-opacity="0.2" /><rect x="1482" y="428.5" width="64" height="1" fill="white" fill-opacity="0.2" /><rect x="1482" y="482.0" width="64" height="1" fill="white" fill-opacity="0.5" /><text x="1556" y="496.0" font-size="14" fill="white" font-family="monospace" dominant-baseline="ideographic">56</text><rect x="1482" y="535.5" width="64" height="1" fill="white" fill-opacity="0.2" /><rect x="1482" y="589.0" width="64" height="1" fill="white" fill-opacity="0.2" /><rect x="1482" y="643.0" width="64" height="1" fill="white" fill-opacity="0.5" /><text x="1556" y="657.0" font-size="14" fill="white" font-family="monospace" dominant-baseline="ideographic">57</text><rect x="1482" y="-0.0500000000001819" width="64" height="1" fill="aqua" fill-opacity="0.75" /><text x="1482" y="13.949999999999818" font-size="14" fill="aqua" fill-opacity="0.75" font-family="monospace">Special</text><rect x="1596" y="0" width="64" height="642.5" fill="black" /><rect x="1596" y="0.0" width="64" height="1" fill="white" fill-opacity="0.5" /><text x="1670" y="14.0" font-size="14" fill="white" font-family="monospace" dominant-baseline="ideographic">57</text><rect x="1596" y="53.5" width="64" height="1" fill="white" fill-opacity="0.2" /><rect x="1596" y="107.0" width="64" height="1" fill="white" fill-opacity="0.2" /><rect x="1596" y="160.5" width="64" height="1" fill="white" fill-opacity="0.5" /><text x="1670" y="174.5" font-size="14" fill="white" font-family="monospace" dominant-baseline="ideographic">58</text><rect x="1596" y="214.0" width="64" height="1" fill="white" fill-opacity="0.2" /><rect x="1596" y="267.5" width="64" height="1" fill="white" fill-opacity="0.2" /><rect x="1596" y="321.0" width="64" height="1" fill="white" fill-opacity="0.5" /><text x="1670" y="335.0" font-size="14" fill="white" font-family="monospace" dominant-baseline="ideographic">59</text><rect x="1596" y="375.0" width="64" height="1" fill="white" fill-opacity="0.2" /><rect x="1596" y="428.5" width="64" height="1" fill="white" fill-opacity="0.2" /><rect x="1596" y="482.0" width="64" height="1" fill="white" fill-opacity="0.5" /><text x="1670" y="496.0" font-size="14" fill="white" font-family="monospace" dominant-baseline="ideographic">60</text><rect x="1596" y="535.5" width="64" height="1" fill="white" fill-opacity="0.2" /><rect x="1596" y="589.0" width="64" height="1" fill="white" fill-opacity="0.2" /><rect x="1596" y="642.5" width="64" height="1" fill="white" fill-opacity="0.5" /><text x="1670" y="656.5" font-size="14" fill="white" font-family="monospace" dominant-baseline="ideographic">61</text><rect x="1710" y="0" width="64" height="857.5" fill="black" /><rect x="1710" y="0.0" width="64" height="1" fill="white" fill-opacity="0.5" /><text x="1784" y="14.0" font-size="14" fill="white" font-family="monospace" dominant-baseline="ideographic">61</text><rect x="1710" y="53.5" width="64" height="1" fill="white" fill-opacity="0.2" /><rect x="1710" y="107.5" width="64" height="1" fill="white" fill-opacity="0.2" /><rect x="1710" y="161.0" width="64" height="1" fill="white" fill-opacity="0.2" /><rect x="1710" y="214.5" width="64" height="1" fill="white" fill-opacity="0.5" /><text x="1784" y="228.5" font-size="14" fill="white" font-family="monospace" dominant-baseline="ideographic">62</text><rect x="1710" y="268.0" width="64" height="1" fill="white" fill-opacity="0.2" /><rect x="1710" y="321.5" width="64" height="1" fill="white" fill-opacity="0.2" /><rect x="1710" y="375.0" width="64" height="1" fill="white" fill-opacity="0.2" /><rect x="1710" y="428.5" width="64" height="1" fill="white" fill-opacity="0.5" /><text x="1784" y="442.5" font-size="14" fill="white" font-family="monospace" dominant-baseline="ideographic">63</text><rect x="1710" y="482.5" width="64" height="1" fill="white" fill-opacity="0.2" /><rect x="1710" y="536.0" width="64" height="1" fill="white" fill-opacity="0.2" /><rect x="1710" y="589.5" width="64" height="1" fill="white" fill-opacity="0.2" /><rect x="1710" y="643.0" width="64" height="1" fill="white" fill-opacity="0.5" /><text x="1784" y="657.0" font-size="14" fill="white" font-family="monospace" dominant-baseline="ideographic">64</text><rect x="1710" y="696.5" width="64" height="1" fill="white" fill-opacity="0.2" /><rect x="1710" y="750.0" width="64" height="1" fill="white" fill-opacity="0.2" /><rect x="1710" y="803.5" width="64" height="1" fill="white" fill-opacity="0.2" /><rect x="1710" y="857.5" width="64" height="1" fill="white" fill-opacity="0.5" /><text x="1784" y="871.5" font-size="14" fill="white" font-family="monospace" dominant-baseline="ideographic">65</text><rect x="1710" y="0.1000000000003638" width="64" height="1" fill="aqua" fill-opacity="0.75" /><text x="1710" y="14.100000000000364" font-size="14" fill="aqua" fill-opacity="0.75" font-family="monospace">Phrase D</text><rect x="1824" y="0" width="64" height="857.0" fill="black" /><rect x="1824" y="0.0" width="64" height="1" fill="white" fill-opacity="0.5" /><text x="1898" y="14.0" font-size="14" fill="white" font-family="monospace" dominant-baseline="ideographic">65</text><rect x="1824" y="53.5" width="64" height="1" fill="white" fill-opacity="0.2" /><rect x="1824" y="107.0" width="64" height="1" fill="white" fill-opacity="0.2" /><rect x="1824" y="160.5" width="64" height="1" fill="white" fill-opacity="0.2" /><rect x="1824" y="214.0" width="64" height="1" fill="white" fill-opacity="0.5" /><text x="1898" y="228.0" font-size="14" fill="white" font-family="monospace" dominant-baseline="ideographic">66</text><rect x="1824" y="267.5" width="64" height="1" fill="white" fill-opacity="0.2" /><rect x="1824" y="321.0" width="64" height="1" fill="white" fill-opacity="0.2" /><rect x="1824" y="375.0" width="64" height="1" fill="white" fill-opacity="0.2" /><rect x="1824" y="428.5" width="64" height="1" fill="white" fill-opacity="0.5" /><text x="1898" y="442.5" font-size="14" fill="white" font-family="monospace" dominant-baseline="ideographic">67</text><rect x="1824" y="482.0" width="64" height="1" fill="white" fill-opacity="0.2" /><rect x="1824" y="535.5" width="64" height="1" fill="white" fill-opacity="0.2" /><rect x="1824" y="589.0" width="64" height="1" fill="white" fill-opacity="0.2" /><rect x="1824" y="642.5" width="64" height="1" fill="white" fill-opacity="0.5" /><text x="1898" y="656.5" font-size="14" fill="white" font-family="monospace" dominant-baseline="ideographic">68</text><rect x="1824" y="696.0" width="64" height="1" fill="white" fill-opacity="0.2" /><rect x="1824" y="750.0" width="64" height="1" fill="white" fill-opacity="0.2" /><rect x="1824" y="803.5" width="64" height="1" fill="white" fill-opacity="0.2" /><rect x="1824" y="857.0" width="64" height="1" fill="white" fill-opacity="0.5" /><text x="1898" y="871.0" font-size="14" fill="white" font-family="monospace" dominant-baseline="ideographic">69</text><rect x="1938" y="0" width="64" height="722.0" fill="black" /><rect x="1938" y="0.0" width="64" height="1" fill="white" fill-opacity="0.5" /><text x="2012" y="14.0" font-size="14" fill="white" font-family="monospace" dominant-baseline="ideographic">69</text><rect x="1938" y="60.0" width="64" height="1" fill="white" fill-opacity="0.2" /><rect x="1938" y="120.0" width="64" height="1" fill="white" fill-opacity="0.2" /><rect x="1938" y="180.0" width="64" height="1" fill="white" fill-opacity="0.2" /><rect x="1938" y="240.0" width="64" height="1" fill="white" fill-opacity="0.5" /><text x="2012" y="254.0" font-size="14" fill="white" font-family="monospace" dominant-baseline="ideographic">70</text><rect x="1938" y="293.5" width="64" height="1" fill="white" fill-opacity="0.2" /><rect x="1938" y="347.0" width="64" height="1" fill="white" fill-opacity="0.2" /><rect x="1938" y="400.5" width="64" height="1" fill="white" fill-opacity="0.5" /><text x="2012" y="414.5" font-size="14" fill="white" font-family="monospace" dominant-baseline="ideographic">71</text><rect x="1938" y="454.0" width="64" height="1" fill="white" fill-opacity="0.2" /><rect x="1938" y="508.0" width="64" height="1" fill="white" fill-opacity="0.2" /><rect x="1938" y="561.5" width="64" height="1" fill="white" fill-opacity="0.5" /><text x="2012" y="575.5" font-size="14" fill="white" font-family="monospace" dominant-baseline="ideographic">72</text><rect x="1938" y="615.0" width="64" height="1" fill="white" fill-opacity="0.2" /><rect x="1938" y="668.5" width="64" height="1" fill="white" fill-opacity="0.2" /><rect x="1938" y="722.0" width="64" height="1" fill="white" fill-opacity="0.5" /><text x="2012" y="736.0" font-size="14" fill="white" font-family="monospace" dominant-baseline="ideographic">73</text><rect x="1938" y="239.9499999999989" width="64" height="1" fill="aqua" fill-opacity="0.75" /><text x="1938" y="253.9499999999989" font-size="14" fill="aqua" fill-opacity="0.75" font-family="monospace">Special</text><rect x="1938" y="0.0" width="64" height="1" fill="lime" fill-opacity="0.75" /><text x="2012" y="28.0" font-size="14" fill="lime" font-family="monospace" dominant-baseline="ideographic">150</text><rect x="1938" y="240.0" width="64" height="1" fill="lime" fill-opacity="0.75" /><text x="2012" y="268.0" font-size="14" fill="lime" font-family="monospace" dominant-baseline="ideographic">168</text><rect x="2052" y="0" width="64" height="643.0" fill="black" /><rect x="2052" y="0.0" width="64" height="1" fill="white" fill-opacity="0.5" /><text x="2126" y="14.0" font-size="14" fill="white" font-family="monospace" dominant-baseline="ideographic">73</text><rect x="2052" y="53.5" width="64" height="1" fill="white" fill-opacity="0.2" /><rect x="2052" y="107.0" width="64" height="1" fill="white" fill-opacity="0.2" /><rect x="2052" y="161.0" width="64" height="1" fill="white" fill-opacity="0.5" /><text x="2126" y="175.0" font-size="14" fill="white" font-family="monospace" dominant-baseline="ideographic">74</text><rect x="2052" y="214.5" width="64" height="1" fill="white" fill-opacity="0.2" /><rect x="2052" y="268.0" width="64" height="1" fill="white" fill-opacity="0.2" /><rect x="2052" y="321.5" width="64" height="1" fill="white" fill-opacity="0.5" /><text x="2126" y="335.5" font-size="14" fill="white" font-family="monospace" dominant-baseline="ideographic">75</text><rect x="2052" y="375.0" width="64" height="1" fill="white" fill-opacity="0.2" /><rect x="2052" y="428.5" width="64" height="1" fill="white" fill-opacity="0.2" /><rect x="2052" y="482.0" width="64" height="1" fill="white" fill-opacity="0.5" /><text x="2126" y="496.0" font-size="14" fill="white" font-family="monospace" dominant-baseline="ideographic">76</text><rect x="2052" y="536.0" width="64" height="1" fill="white" fill-opacity="0.2" /><rect x="2052" y="589.5" width="64" height="1" fill="white" fill-opacity="0.2" /><rect x="2052" y="643.0" width="64" height="1" fill="white" fill-opacity="0.5" /><text x="2126" y="657.0" font-size="14" fill="white" font-family="monospace" dominant-baseline="ideographic">77</text><rect x="2166" y="0" width="64" height="643.0" fill="black" /><rect x="2166" y="0.0" width="64" height="1" fill="white" fill-opacity="0.5" /><text x="2240" y="14.0" font-size="14" fill="white" font-family="monospace" dominant-baseline="ideographic">77</text><rect x="2166" y="53.5" width="64" height="1" fill="white" fill-opacity="0.2" /><rect x="2166" y="107.0" width="64" height="1" fill="white" fill-opacity="0.2" /><rect x="2166" y="160.5" width="64" height="1" fill="white" fill-opacity="0.5" /><text x="2240" y="174.5" font-size="14" fill="white" font-family="monospace" dominant-baseline="ideographic">78</text><rect x="2166" y="214.0" width="64" height="1" fill="white" fill-opacity="0.2" /><rect x="2166" y="268.0" width="64" height="1" fill="white" fill-opacity="0.2" /><rect x="2166" y="321.5" width="64" height="1" fill="white" fill-opacity="0.5" /><text x="2240" y="335.5" font-size="14" fill="white" font-family="monospace" dominant-baseline="ideographic">79</text><rect x="2166" y="375.0" width="64" height="1" fill="white" fill-opacity="0.2" /><rect x="2166" y="428.5" width="64" height="1" fill="white" fill-opacity="0.2" /><rect x="2166" y="482.0" width="64" height="1" fill="white" fill-opacity="0.5" /><text x="2240" y="496.0" font-size="14" fill="white" font-family="monospace" dominant-baseline="ideographic">80</text><rect x="2166" y="535.5" width="64" height="1" fill="white" fill-opacity="0.2" /><rect x="2166" y="589.0" width="64" height="1" fill="white" fill-opacity="0.2" /><rect x="2166" y="643.0" width="64" height="1" fill="white" fill-opacity="0.5" /><text x="2240" y="657.0" font-size="14" fill="white" font-family="monospace" dominant-baseline="ideographic">81</text><rect x="2280" y="0" width="64" height="642.5" fill="black" /><rect x="2280" y="0.0" width="64" height="1" fill="white" fill-opacity="0.5" /><text x="2354" y="14.0" font-size="14" fill="white" font-family="monospace" dominant-baseline="ideographic">81</text><rect x="2280" y="53.5" width="64" height="1" fill="white" fill-opacity="0.2" /><rect x="2280" y="107.0" width="64" height="1" fill="white" fill-opacity="0.2" /><rect x="2280" y="160.5" width="64" height="1" fill="white" fill-opacity="0.5" /><text x="2354" y="174.5" font-size="14" fill="white" font-family="monospace" dominant-baseline="ideographic">82</text><rect x="2280" y="214.0" width="64" height="1" fill="white" fill-opacity="0.2" /><rect x="2280" y="267.5" width="64" height="1" fill="white" fill-opacity="0.2" /><rect x="2280" y="321.0" width="64" height="1" fill="white" fill-opacity="0.5" /><text x="2354" y="335.0" font-size="14" fill="white" font-family="monospace" dominant-baseline="ideographic">83</text><rect x="2280" y="375.0" width="64" height="1" fill="white" fill-opacity="0.2" /><rect x="2280" y="428.5" width="64" height="1" fill="white" fill-opacity="0.2" /><rect x="2280" y="482.0" width="64" height="1" fill="white" fill-opacity="0.5" /><text x="2354" y="496.0" font-size="14" fill="white" font-family="monospace" dominant-baseline="ideographic">84</text><rect x="2280" y="535.5" width="64" height="1" fill="white" fill-opacity="0.2" /><rect x="2280" y="589.0" width="64" height="1" fill="white" fill-opacity="0.2" /><rect x="2280" y="642.5" width="64" height="1" fill="white" fill-opacity="0.5" /><text x="2354" y="656.5" font-size="14" fill="white" font-family="monospace" dominant-baseline="ideographic">85</text><rect x="2394" y="0" width="64" height="643.0" fill="black" /><rect x="2394" y="0.0" width="64" height="1" fill="white" fill-opacity="0.5" /><text x="2468" y="14.0" font-size="14" fill="white" font-family="monospace" dominant-baseline="ideographic">85</text><rect x="2394" y="53.5" width="64" height="1" fill="white" fill-opacity="0.2" /><rect x="2394" y="107.5" width="64" height="1" fill="white" fill-opacity="0.2" /><rect x="2394" y="161.0" width="64" height="1" fill="white" fill-opacity="0.5" /><text x="2468" y="175.0" font-size="14" fill="white" font-family="monospace" dominant-baseline="ideographic">86</text><rect x="2394" y="214.5" width="64" height="1" fill="white" fill-opacity="0.2" /><rect x="2394" y="268.0" width="64" height="1" fill="white" fill-opacity="0.2" /><rect x="2394" y="321.5" width="64" height="1" fill="white" fill-opacity="0.5" /><text x="2468" y="335.5" font-size="14" fill="white" font-family="monospace" dominant-baseline="ideographic">87</text><rect x="2394" y="375.0" width="64" height="1" fill="white" fill-opacity="0.2" /><rect x="2394" y="428.5" width="64" height="1" fill="white" fill-opacity="0.2" /><rect x="2394" y="482.5" width="64" height="1" fill="white" fill-opacity="0.5" /><text x="2468" y="496.5" font-size="14" fill="white" font-family="monospace" dominant-baseline="ideographic">88</text><rect x="2394" y="536.0" width="64" height="1" fill="white" fill-opacity="0.2" /><rect x="2394" y="589.5" width="64" height="1" fill="white" fill-opacity="0.2" /><rect x="2394" y="643.0" width="64" height="1" fill="white" fill-opacity="0.5" /><text x="2468" y="657.0" font-size="14" fill="white" font-family="monospace" dominant-baseline="ideographic">89</text><rect x="2394" y="160.89999999999964" width="64" height="1" fill="aqua" fill-opacity="0.75" /><text x="2394" y="174.89999999999964" font-size="14" fill="aqua" fill-opacity="0.75" font-family="monospace">Special</text><rect x="2508" y="0" width="64" height="643.0" fill="black" /><rect x="2508" y="0.0" width="64" height="1" fill="white" fill-opacity="0.5" /><text x="2582" y="14.0" font-size="14" fill="white" font-family="monospace" dominant-baseline="ideographic">89</text><rect x="2508" y="53.5" width="64" height="1" fill="white" fill-opacity="0.2" /><rect x="2508" y="107.0" width="64" height="1" fill="white" fill-opacity="0.2" /><rect x="2508" y="160.5" width="64" height="1" fill="white" fill-opacity="0.5" /><text x="2582" y="174.5" font-size="14" fill="white" font-family="monospace" dominant-baseline="ideographic">90</text><rect x="2508" y="214.5" width="64" height="1" fill="white" fill-opacity="0.2" /><rect x="2508" y="268.0" width="64" height="1" fill="white" fill-opacity="0.2" /><rect x="2508" y="321.5" width="64" height="1" fill="white" fill-opacity="0.5" /><text x="2582" y="335.5" font-size="14" fill="white" font-family="monospace" dominant-baseline="ideographic">91</text><rect x="2508" y="375.0" width="64" height="1" fill="white" fill-opacity="0.2" /><rect x="2508" y="428.5" width="64" height="1" fill="white" fill-opacity="0.2" /><rect x="2508" y="482.0" width="64" height="1" fill="white" fill-opacity="0.5" /><text x="2582" y="496.0" font-size="14" fill="white" font-family="monospace" dominant-baseline="ideographic">92</text><rect x="2508" y="535.5" width="64" height="1" fill="white" fill-opacity="0.2" /><rect x="2508" y="589.5" width="64" height="1" fill="white" fill-opacity="0.2" /><rect x="2508" y="643.0" width="64" height="1" fill="white" fill-opacity="0.5" /><text x="2582" y="657.0" font-size="14" fill="white" font-family="monospace" dominant-baseline="ideographic">93</text><rect x="2622" y="0" width="64" height="814.0" fill="black" /><rect x="2622" y="0.0" width="64" height="1" fill="white" fill-opacity="0.5" /><text x="2696" y="14.0" font-size="14" fill="white" font-family="monospace" dominant-baseline="ideographic">93</text><rect x="2622" y="53.5" width="64" height="1" fill="white" fill-opacity="0.2" /><rect x="2622" y="107.0" width="64" height="1" fill="white" fill-opacity="0.2" /><rect x="2622" y="160.5" width="64" height="1" fill="white" fill-opacity="0.5" /><text x="2696" y="174.5" font-size="14" fill="white" font-family="monospace" dominant-baseline="ideographic">94</text><rect x="2622" y="214.0" width="64" height="1" fill="white" fill-opacity="0.2" /><rect x="2622" y="267.5" width="64" height="1" fill="white" fill-opacity="0.2" /><rect x="2622" y="321.5" width="64" height="1" fill="white" fill-opacity="0.2" /><rect x="2622" y="375.0" width="64" height="1" fill="white" fill-opacity="0.5" /><text x="2696" y="389.0" font-size="14" fill="white" font-family="monospace" dominant-baseline="ideographic">95</text><rect x="2622" y="428.5" width="64" height="1" fill="white" fill-opacity="0.2" /><rect x="2622" y="482.0" width="64" height="1" fill="white" fill-opacity="0.2" /><rect x="2622" y="535.5" width="64" height="1" fill="white" fill-opacity="0.2" /><rect x="2622" y="589.0" width="64" height="1" fill="white" fill-opacity="0.5" /><text x="2696" y="603.0" font-size="14" fill="white" font-family="monospace" dominant-baseline="ideographic">96</text><rect x="2622" y="645.5" width="64" height="1" fill="white" fill-opacity="0.2" /><rect x="2622" y="701.5" width="64" height="1" fill="white" fill-opacity="0.2" /><rect x="2622" y="758.0" width="64" height="1" fill="white" fill-opacity="0.2" /><rect x="2622" y="814.0" width="64" height="1" fill="white" fill-opacity="0.5" /><text x="2696" y="828.0" font-size="14" fill="white" font-family="monospace" dominant-baseline="ideographic">97</text><rect x="2622" y="374.75" width="64" height="1" fill="aqua" fill-opacity="0.75" /><text x="2622" y="388.75" font-size="14" fill="aqua" fill-opacity="0.75" font-family="monospace">Outro</text><rect x="2622" y="589.0" width="64" height="1" fill="lime" fill-opacity="0.75" /><text x="2696" y="617.0" font-size="14" fill="lime" font-family="monospace" dominant-baseline="ideographic">160</text><rect x="2736" y="0" width="64" height="900.0" fill="black" /><rect x="2736" y="0.0" width="64" height="1" fill="white" fill-opacity="0.5" /><text x="2810" y="14.0" font-size="14" fill="white" font-family="monospace" dominant-baseline="ideographic">97</text><rect x="2736" y="56.5" width="64" height="1" fill="white" fill-opacity="0.2" /><rect x="2736" y="112.5" width="64" height="1" fill="white" fill-opacity="0.2" /><rect x="2736" y="169.0" width="64" height="1" fill="white" fill-opacity="0.2" /><rect x="2736" y="225.0" width="64" height="1" fill="white" fill-opacity="0.5" /><text x="2810" y="239.0" font-size="14" fill="white" font-family="monospace" dominant-baseline="ideographic">98</text><rect x="2736" y="281.5" width="64" height="1" fill="white" fill-opacity="0.2" /><rect x="2736" y="337.5" width="64" height="1" fill="white" fill-opacity="0.2" /><rect x="2736" y="394.0" width="64" height="1" fill="white" fill-opacity="0.2" /><rect x="2736" y="450.0" width="64" height="1" fill="white" fill-opacity="0.5" /><text x="2810" y="464.0" font-size="14" fill="white" font-family="monospace" dominant-baseline="ideographic">99</text><rect x="2736" y="506.5" width="64" height="1" fill="white" fill-opacity="0.2" /><rect x="2736" y="562.5" width="64" height="1" fill="white" fill-opacity="0.2" /><rect x="2736" y="619.0" width="64" height="1" fill="white" fill-opacity="0.2" /><rect x="2736" y="675.0" width="64" height="1" fill="white" fill-opacity="0.5" /><text x="2810" y="689.0" font-size="14" fill="white" font-family="monospace" dominant-baseline="ideographic">100</text><rect x="2736" y="731.5" width="64" height="1" fill="white" fill-opacity="0.2" /><rect x="2736" y="787.5" width="64" height="1" fill="white" fill-opacity="0.2" /><rect x="2736" y="844.0" width="64" height="1" fill="white" fill-opacity="0.2" /><rect x="2736" y="900.0" width="64" height="1" fill="white" fill-opacity="0.5" /><text x="2810" y="914.0" font-size="14" fill="white" font-family="monospace" dominant-baseline="ideographic">101</text><rect x="2850" y="0" width="64" height="206.5" fill="black" /><rect x="2850" y="0.0" width="64" height="1" fill="white" fill-opacity="0.5" /><text x="2924" y="14.0" font-size="14" fill="white" font-family="monospace" dominant-baseline="ideographic">101</text></svg>