<?xml version="1.0" encoding="UTF-8"?><svg xmlns="http://www.w3.org/2000/svg" xmlns:xlink="http://www.w3.org/1999/xlink"     width="5712" height="713.5" viewBox="0 0 5712 713.5"><defs></defs><rect x="0" y="14.5" width="188" height="699.0" fill="black" /><rect x="0" y="712.5" width="188" height="1" fill="white" fill-opacity="0.5" /><text x="198" y="712.5" font-size="14" fill="white" font-family="monospace" dominant-baseline="initial">1</text><rect x="0" y="669.0" width="188" height="1" fill="white" fill-opacity="0.2" /><rect x="0" y="625.0" width="188" height="1" fill="white" fill-opacity="0.2" /><rect x="0" y="581.5" width="188" height="1" fill="white" fill-opacity="0.2" /><rect x="0" y="537.5" width="188" height="1" fill="white" fill-opacity="0.5" /><text x="198" y="537.5" font-size="14" fill="white" font-family="monospace" dominant-baseline="initial">2</text><rect x="0" y="494.0" width="188" height="1" fill="white" fill-opacity="0.2" /><rect x="0" y="450.5" width="188" height="1" fill="white" fill-opacity="0.2" /><rect x="0" y="406.5" width="188" height="1" fill="white" fill-opacity="0.2" /><rect x="0" y="363.0" width="188" height="1" fill="white" fill-opacity="0.5" /><text x="198" y="363.0" font-size="14" fill="white" font-family="monospace" dominant-baseline="initial">3</text><rect x="0" y="319.5" width="188" height="1" fill="white" fill-opacity="0.2" /><rect x="0" y="275.5" width="188" height="1" fill="white" fill-opacity="0.2" /><rect x="0" y="232.0" width="188" height="1" fill="white" fill-opacity="0.2" /><rect x="0" y="188.0" width="188" height="1" fill="white" fill-opacity="0.5" /><text x="198" y="188.0" font-size="14" fill="white" font-family="monospace" dominant-baseline="initial">4</text><rect x="0" y="144.5" width="188" height="1" fill="white" fill-opacity="0.2" /><rect x="0" y="101.0" width="188" height="1" fill="white" fill-opacity="0.2" /><rect x="0" y="57.0" width="188" height="1" fill="white" fill-opacity="0.2" /><rect x="0" y="13.5" width="188" height="1" fill="white" fill-opacity="0.5" /><text x="198" y="13.5" font-size="14" fill="white" font-family="monospace" dominant-baseline="initial">5</text><rect x="0" y="712.5" width="188" height="1" fill="aqua" fill-opacity="0.75" /><text x="0" y="708.5" font-size="14" fill="aqua" fill-opacity="0.75" font-family="monospace">Intro</text><rect x="0" y="712.5" width="188" height="1" fill="lime" fill-opacity="0.75" /><text x="198" y="699.5" font-size="14" fill="lime" font-family="monospace" dominant-baseline="initial">206</text><rect x="238" y="14.5" width="188" height="699.0" fill="black" /><rect x="238" y="712.5" width="188" height="1" fill="white" fill-opacity="0.5" /><text x="436" y="712.5" font-size="14" fill="white" font-family="monospace" dominant-baseline="initial">5</text><rect x="238" y="669.0" width="188" height="1" fill="white" fill-opacity="0.2" /><rect x="238" y="625.0" width="188" height="1" fill="white" fill-opacity="0.2" /><rect x="238" y="581.5" width="188" height="1" fill="white" fill-opacity="0.2" /><rect x="238" y="537.5" width="188" height="1" fill="white" fill-opacity="0.5" /><text x="436" y="537.5" font-size="14" fill="white" font-family="monospace" dominant-baseline="initial">6</text><rect x="238" y="494.0" width="188" height="1" fill="white" fill-opacity="0.2" /><rect x="238" y="450.5" width="188" height="1" fill="white" fill-opacity="0.2" /><rect x="238" y="406.5" width="188" height="1" fill="white" fill-opacity="0.2" /><rect x="238" y="363.0" width="188" height="1" fill="white" fill-opacity="0.5" /><text x="436" y="363.0" font-size="14" fill="white" font-family="monospace" dominant-baseline="initial">7</text><rect x="238" y="319.5" width="188" height="1" fill="white" fill-opacity="0.2" /><rect x="238" y="275.5" width="188" height="1" fill="white" fill-opacity="0.2" /><rect x="238" y="232.0" width="188" height="1" fill="white" fill-opacity="0.2" /><rect x="238" y="188.0" width="188" height="1" fill="white" fill-opacity="0.5" /><text x="436" y="188.0" font-size="14" fill="white" font-family="monospace" dominant-baseline="initial">8</text><rect x="238" y="144.5" width="188" height="1" fill="white" fill-opacity="0.2" /><rect x="238" y="101.0" width="188" height="1" fill="white" fill-opacity="0.2" /><rect x="238" y="57.0" width="188" height="1" fill="white" fill-opacity="0.2" /><rect x="238" y="13.5" width="188" height="1" fill="white" fill-opacity="0.5" /><text x="436" y="13.5" font-size="14" fill="white" font-family="monospace" dominant-baseline="initial">9</text><rect x="238" y="363.0" width="188" height="1" fill="aqua" fill-opacity="0.75" /><text x="238" y="359.0" font-size="14" fill="aqua" fill-opacity="0.75" font-family="monospace">Phrase A</text><rect x="476" y="14.5" width="188" height="699.0" fill="black" /><rect x="476" y="712.5" width="188" height="1" fill="white" fill-opacity="0.5" /><text x="674" y="712.5" font-size="14" fill="white" font-family="monospace" dominant-baseline="initial">9</text><rect x="476" y="669.0" width="188" height="1" fill="white" fill-opacity="0.2" /><rect x="476" y="625.0" width="188" height="1" fill="white" fill-opacity="0.2" /><rect x="476" y="581.5" width="188" height="1" fill="white" fill-opacity="0.2" /><rect x="476" y="537.5" width="188" height="1" fill="white" fill-opacity="0.5" /><text x="674" y="537.5" font-size="14" fill="white" font-family="monospace" dominant-baseline="initial">10</text><rect x="476" y="494.0" width="188" height="1" fill="white" fill-opacity="0.2" /><rect x="476" y="450.5" width="188" height="1" fill="white" fill-opacity="0.2" /><rect x="476" y="406.5" width="188" height="1" fill="white" fill-opacity="0.2" /><rect x="476" y="363.0" width="188" height="1" fill="white" fill-opacity="0.5" /><text x="674" y="363.0" font-size="14" fill="white" font-family="monospace" dominant-baseline="initial">11</text><rect x="476" y="319.0" width="188" height="1" fill="white" fill-opacity="0.2" /><rect x="476" y="275.5" width="188" height="1" fill="white" fill-opacity="0.2" /><rect x="476" y="232.0" width="188" height="1" fill="white" fill-opacity="0.2" /><rect x="476" y="188.0" width="188" height="1" fill="white" fill-opacity="0.5" /><text x="674" y="188.0" font-size="14" fill="white" font-family="monospace" dominant-baseline="initial">12</text><rect x="476" y="144.5" width="188" height="1" fill="white" fill-opacity="0.2" /><rect x="476" y="101.0" width="188" height="1" fill="white" fill-opacity="0.2" /><rect x="476" y="57.0" width="188" height="1" fill="white" fill-opacity="0.2" /><rect x="476" y="13.5" width="188" height="1" fill="white" fill-opacity="0.5" /><text x="674" y="13.5" font-size="14" fill="white" font-family="monospace" dominant-baseline="initial">13</text><rect x="714" y="14.5" width="188" height="699.0" fill="black" /><rect x="714" y="712.5" width="188" height="1" fill="white" fill-opacity="0.5" /><text x="912" y="712.5" font-size="14" fill="white" font-family="monospace" dominant-baseline="initial">13</text><rect x="714" y="668.5" width="188" height="1" fill="white" fill-opacity="0.2" /><rect x="714" y="625.0" width="188" height="1" fill="white" fill-opacity="0.2" /><rect x="714" y="581.5" width="188" height="1" fill="white" fill-opacity="0.2" /><rect x="714" y="537.5" width="188" height="1" fill="white" fill-opacity="0.5" /><text x="912" y="537.5" font-size="14" fill="white" font-family="monospace" dominant-baseline="initial">14</text><rect x="714" y="494.0" width="188" height="1" fill="white" fill-opacity="0.2" /><rect x="714" y="450.5" width="188" height="1" fill="white" fill-opacity="0.2" /><rect x="714" y="406.5" width="188" height="1" fill="white" fill-opacity="0.2" /><rect x="714" y="363.0" width="188" height="1" fill="white" fill-opacity="0.5" /><text x="912" y="363.0" font-size="14" fill="white" font-family="monospace" dominant-baseline="initial">15</text><rect x="714" y="319.0" width="188" height="1" fill="white" fill-opacity="0.2" /><rect x="714" y="275.5" width="188" height="1" fill="white" fill-opacity="0.2" /><rect x="714" y="232.0" width="188" height="1" fill="white" fill-opacity="0.2" /><rect x="714" y="188.0" width="188" height="1" fill="white" fill-opacity="0.5" /><text x="912" y="188.0" font-size="14" fill="white" font-family="monospace" dominant-baseline="initial">16</text><rect x="714" y="144.5" width="188" height="1" fill="white" fill-opacity="0.2" /><rect x="714" y="101.0" width="188" height="1" fill="white" fill-opacity="0.2" /><rect x="714" y="57.0" width="188" height="1" fill="white" fill-opacity="0.2" /><rect x="714" y="13.5" width="188" height="1" fill="white" fill-opacity="0.5" /><text x="912" y="13.5" font-size="14" fill="white" font-family="monospace" dominant-baseline="initial">17</text><rect x="714" y="362.8499999999999" width="188" height="1" fill="aqua" fill-opacity="0.75" /><text x="714" y="358.8499999999999" font-size="14" fill="aqua" fill-opacity="0.75" font-family="monospace">Phrase A</text><rect x="952" y="14.5" width="188" height="699.0" fill="black" /><rect x="952" y="712.5" width="188" height="1" fill="white" fill-opacity="0.5" /><text x="1150" y="712.5" font-size="14" fill="white" font-family="monospace" dominant-baseline="initial">17</text><rect x="952" y="668.5" width="188" height="1" fill="white" fill-opacity="0.2" /><rect x="952" y="625.0" width="188" height="1" fill="white" fill-opacity="0.2" /><rect x="952" y="581.5" width="188" height="1" fill="white" fill-opacity="0.2" /><rect x="952" y="537.5" width="188" height="1" fill="white" fill-opacity="0.5" /><text x="1150" y="537.5" font-size="14" fill="white" font-family="monospace" dominant-baseline="initial">18</text><rect x="952" y="494.0" width="188" height="1" fill="white" fill-opacity="0.2" /><rect x="952" y="450.0" width="188" height="1" fill="white" fill-opacity="0.2" /><rect x="952" y="406.5" width="188" height="1" fill="white" fill-opacity="0.2" /><rect x="952" y="363.0" width="188" height="1" fill="white" fill-opacity="0.5" /><text x="1150" y="363.0" font-size="14" fill="white" font-family="monospace" dominant-baseline="initial">19</text><rect x="952" y="319.0" width="188" height="1" fill="white" fill-opacity="0.2" /><rect x="952" y="275.5" width="188" height="1" fill="white" fill-opacity="0.2" /><rect x="952" y="232.0" width="188" height="1" fill="white" fill-opacity="0.2" /><rect x="952" y="188.0" width="188" height="1" fill="white" fill-opacity="0.5" /><text x="1150" y="188.0" font-size="14" fill="white" font-family="monospace" dominant-baseline="initial">20</text><rect x="952" y="144.5" width="188" height="1" fill="white" fill-opacity="0.2" /><rect x="952" y="100.5" width="188" height="1" fill="white" fill-opacity="0.2" /><rect x="952" y="57.0" width="188" height="1" fill="white" fill-opacity="0.2" /><rect x="952" y="13.5" width="188" height="1" fill="white" fill-opacity="0.5" /><text x="1150" y="13.5" font-size="14" fill="white" font-family="monospace" dominant-baseline="initial">21</text><rect x="1190" y="14.5" width="188" height="699.0" fill="black" /><rect x="1190" y="712.5" width="188" height="1" fill="white" fill-opacity="0.5" /><text x="1388" y="712.5" font-size="14" fill="white" font-family="monospace" dominant-baseline="initial">21</text><rect x="1190" y="668.5" width="188" height="1" fill="white" fill-opacity="0.2" /><rect x="1190" y="625.0" width="188" height="1" fill="white" fill-opacity="0.2" /><rect x="1190" y="581.5" width="188" height="1" fill="white" fill-opacity="0.2" /><rect x="1190" y="537.5" width="188" height="1" fill="white" fill-opacity="0.5" /><text x="1388" y="537.5" font-size="14" fill="white" font-family="monospace" dominant-baseline="initial">22</text><rect x="1190" y="494.0" width="188" height="1" fill="white" fill-opacity="0.2" /><rect x="1190" y="450.0" width="188" height="1" fill="white" fill-opacity="0.2" /><rect x="1190" y="406.5" width="188" height="1" fill="white" fill-opacity="0.2" /><rect x="1190" y="363.0" width="188" height="1" fill="white" fill-opacity="0.5" /><text x="1388" y="363.0" font-size="14" fill="white" font-family="monospace" dominant-baseline="initial">23</text><rect x="1190" y="319.0" width="188" height="1" fill="white" fill-opacity="0.2" /><rect x="1190" y="275.5" width="188" height="1" fill="white" fill-opacity="0.2" /><rect x="1190" y="232.0" width="188" height="1" fill="white" fill-opacity="0.2" /><rect x="1190" y="188.0" width="188" height="1" fill="white" fill-opacity="0.5" /><text x="1388" y="188.0" font-size="14" fill="white" font-family="monospace" dominant-baseline="initial">24</text><rect x="1190" y="144.5" width="188" height="1" fill="white" fill-opacity="0.2" /><rect x="1190" y="100.5" width="188" height="1" fill="white" fill-opacity="0.2" /><rect x="1190" y="57.0" width="188" height="1" fill="white" fill-opacity="0.2" /><rect x="1190" y="13.5" width="188" height="1" fill="white" fill-opacity="0.5" /><text x="1388" y="13.5" font-size="14" fill="white" font-family="monospace" dominant-baseline="initial">25</text><rect x="1428" y="14.5" width="188" height="699.0" fill="black" /><rect x="1428" y="712.5" width="188" height="1" fill="white" fill-opacity="0.5" /><text x="1626" y="712.5" font-size="14" fill="white" font-family="monospace" dominant-baseline="initial">25</text><rect x="1428" y="668.5" width="188" height="1" fill="white" fill-opacity="0.2" /><rect x="1428" y="625.0" width="188" height="1" fill="white" fill-opacity="0.2" /><rect x="1428" y="581.5" width="188" height="1" fill="white" fill-opacity="0.2" /><rect x="1428" y="537.5" width="188" height="1" fill="white" fill-opacity="0.5" /><text x="1626" y="537.5" font-size="14" fill="white" font-family="monospace" dominant-baseline="initial">26</text><rect x="1428" y="494.0" width="188" height="1" fill="white" fill-opacity="0.2" /><rect x="1428" y="450.0" width="188" height="1" fill="white" fill-opacity="0.2" /><rect x="1428" y="406.5" width="188" height="1" fill="white" fill-opacity="0.2" /><rect x="1428" y="363.0" width="188" height="1" fill="white" fill-opacity="0.5" /><text x="1626" y="363.0" font-size="14" fill="white" font-family="monospace" dominant-baseline="initial">27</text><rect x="1428" y="319.0" width="188" height="1" fill="white" fill-opacity="0.2" /><rect x="1428" y="275.5" width="188" height="1" fill="white" fill-opacity="0.2" /><rect x="1428" y="231.5" width="188" height="1" fill="white" fill-opacity="0.2" /><rect x="1428" y="188.0" width="188" height="1" fill="white" fill-opacity="0.5" /><text x="1626" y="188.0" font-size="14" fill="white" font-family="monospace" dominant-baseline="initial">28</text><rect x="1428" y="144.5" width="188" height="1" fill="white" fill-opacity="0.2" /><rect x="1428" y="100.5" width="188" height="1" fill="white" fill-opacity="0.2" /><rect x="1428" y="57.0" width="188" height="1" fill="white" fill-opacity="0.2" /><rect x="1428" y="13.5" width="188" height="1" fill="white" fill-opacity="0.5" /><text x="1626" y="13.5" font-size="14" fill="white" font-family="monospace" dominant-baseline="initial">29</text><rect x="1428" y="712.3500000000004" width="188" height="1" fill="aqua" fill-opacity="0.75" /><text x="1428" y="708.3500000000004" font-size="14" fill="aqua" fill-opacity="0.75" font-family="monospace">Phrase B</text><rect x="1666" y="14.5" width="188" height="699.0" fill="black" /><rect x="1666" y="712.5" width="188" height="1" fill="white" fill-opacity="0.5" /><text x="1864" y="712.5" font-size="14" fill="white" font-family="monospace" dominant-baseline="initial">29</text><rect x="1666" y="668.5" width="188" height="1" fill="white" fill-opacity="0.2" /><rect x="1666" y="625.0" width="188" height="1" fill="white" fill-opacity="0.2" /><rect x="1666" y="581.0" width="188" height="1" fill="white" fill-opacity="0.2" /><rect x="1666" y="537.5" width="188" height="1" fill="white" fill-opacity="0.5" /><text x="1864" y="537.5" font-size="14" fill="white" font-family="monospace" dominant-baseline="initial">30</text><rect x="1666" y="494.0" width="188" height="1" fill="white" fill-opacity="0.2" /><rect x="1666" y="450.0" width="188" height="1" fill="white" fill-opacity="0.2" /><rect x="1666" y="406.5" width="188" height="1" fill="white" fill-opacity="0.2" /><rect x="1666" y="363.0" width="188" height="1" fill="white" fill-opacity="0.5" /><text x="1864" y="363.0" font-size="14" fill="white" font-family="monospace" dominant-baseline="initial">31</text><rect x="1666" y="319.0" width="188" height="1" fill="white" fill-opacity="0.2" /><rect x="1666" y="275.5" width="188" height="1" fill="white" fill-opacity="0.2" /><rect x="1666" y="231.5" width="188" height="1" fill="white" fill-opacity="0.2" /><rect x="1666" y="188.0" width="188" height="1" fill="white" fill-opacity="0.5" /><text x="1864" y="188.0" font-size="14" fill="white" font-family="monospace" dominant-baseline="initial">32</text><rect x="1666" y="144.5" width="188" height="1" fill="white" fill-opacity="0.2" /><rect x="1666" y="100.5" width="188" height="1" fill="white" fill-opacity="0.2" /><rect x="1666" y="57.0" width="188" height="1" fill="white" fill-opacity="0.2" /><rect x="1666" y="13.5" width="188" height="1" fill="white" fill-opacity="0.5" /><text x="1864" y="13.5" font-size="14" fill="white" font-family="monospace" dominant-baseline="initial">33</text><rect x="1904" y="14.0" width="188" height="699.5" fill="black" /><rect x="1904" y="712.5" width="188" height="1" fill="white" fill-opacity="0.5" /><text x="2102" y="712.5" font-size="14" fill="white" font-family="monospace" dominant-baseline="initial">33</text><rect x="1904" y="668.5" width="188" height="1" fill="white" fill-opacity="0.2" /><rect x="1904" y="625.0" width="188" height="1" fill="white" fill-opacity="0.2" /><rect x="1904" y="581.0" width="188" height="1" fill="white" fill-opacity="0.2" /><rect x="1904" y="537.5" width="188" height="1" fill="white" fill-opacity="0.5" /><text x="2102" y="537.5" font-size="14" fill="white" font-family="monospace" dominant-baseline="initial">34</text><rect x="1904" y="494.0" width="188" height="1" fill="white" fill-opacity="0.2" /><rect x="1904" y="450.0" width="188" height="1" fill="white" fill-opacity="0.2" /><rect x="1904" y="406.5" width="188" height="1" fill="white" fill-opacity="0.2" /><rect x="1904" y="363.0" width="188" height="1" fill="white" fill-opacity="0.5" /><text x="2102" y="363.0" font-size="14" fill="white" font-family="monospace" dominant-baseline="initial">35</text><rect x="1904" y="319.0" width="188" height="1" fill="white" fill-opacity="0.2" /><rect x="1904" y="275.5" width="188" height="1" fill="white" fill-opacity="0.2" /><rect x="1904" y="231.5" width="188" height="1" fill="white" fill-opacity="0.2" /><rect x="1904" y="188.0" width="188" height="1" fill="white" fill-opacity="0.5" /><text x="2102" y="188.0" font-size="14" fill="white" font-family="monospace" dominant-baseline="initial">36</text><rect x="1904" y="144.5" width="188" height="1" fill="white" fill-opacity="0.2" /><rect x="1904" y="100.5" width="188" height="1" fill="white" fill-opacity="0.2" /><rect x="1904" y="57.0" width="188" height="1" fill="white" fill-opacity="0.2" /><rect x="1904" y="13.0" width="188" height="1" fill="white" fill-opacity="0.5" /><text x="2102" y="13.0" font-size="14" fill="white" font-family="monospace" dominant-baseline="initial">37</text><rect x="1904" y="712.1999999999998" width="188" height="1" fill="aqua" fill-opacity="0.75" /><text x="1904" y="708.1999999999998" font-size="14" fill="aqua" fill-opacity="0.75" font-family="monospace">Phrase B</text><rect x="2142" y="14.5" width="188" height="699.0" fill="black" /><rect x="2142" y="712.5" width="188" height="1" fill="white" fill-opacity="0.5" /><text x="2340" y="712.5" font-size="14" fill="white" font-family="monospace" dominant-baseline="initial">37</text><rect x="2142" y="669.0" width="188" height="1" fill="white" fill-opacity="0.2" /><rect x="2142" y="625.5" width="188" height="1" fill="white" fill-opacity="0.2" /><rect x="2142" y="581.5" width="188" height="1" fill="white" fill-opacity="0.2" /><rect x="2142" y="538.0" width="188" height="1" fill="white" fill-opacity="0.5" /><text x="2340" y="538.0" font-size="14" fill="white" font-family="monospace" dominant-baseline="initial">38</text><rect x="2142" y="494.5" width="188" height="1" fill="white" fill-opacity="0.2" /><rect x="2142" y="450.5" width="188" height="1" fill="white" fill-opacity="0.2" /><rect x="2142" y="407.0" width="188" height="1" fill="white" fill-opacity="0.2" /><rect x="2142" y="363.0" width="188" height="1" fill="white" fill-opacity="0.5" /><text x="2340" y="363.0" font-size="14" fill="white" font-family="monospace" dominant-baseline="initial">39</text><rect x="2142" y="319.5" width="188" height="1" fill="white" fill-opacity="0.2" /><rect x="2142" y="276.0" width="188" height="1" fill="white" fill-opacity="0.2" /><rect x="2142" y="232.0" width="188" height="1" fill="white" fill-opacity="0.2" /><rect x="2142" y="188.5" width="188" height="1" fill="white" fill-opacity="0.5" /><text x="2340" y="188.5" font-size="14" fill="white" font-family="monospace" dominant-baseline="initial">40</text><rect x="2142" y="145.0" width="188" height="1" fill="white" fill-opacity="0.2" /><rect x="2142" y="101.0" width="188" height="1" fill="white" fill-opacity="0.2" /><rect x="2142" y="57.5" width="188" height="1" fill="white" fill-opacity="0.2" /><rect x="2142" y="13.5" width="188" height="1" fill="white" fill-opacity="0.5" /><text x="2340" y="13.5" font-size="14" fill="white" font-family="monospace" dominant-baseline="initial">41</text><rect x="2380" y="14.5" width="188" height="699.0" fill="black" /><rect x="2380" y="712.5" width="188" height="1" fill="white" fill-opacity="0.5" /><text x="2578" y="712.5" font-size="14" fill="white" font-family="monospace" dominant-baseline="initial">41</text><rect x="2380" y="669.0" width="188" height="1" fill="white" fill-opacity="0.2" /><rect x="2380" y="625.5" width="188" height="1" fill="white" fill-opacity="0.2" /><rect x="2380" y="581.5" width="188" height="1" fill="white" fill-opacity="0.2" /><rect x="2380" y="538.0" width="188" height="1" fill="white" fill-opacity="0.5" /><text x="2578" y="538.0" font-size="14" fill="white" font-family="monospace" dominant-baseline="initial">42</text><rect x="2380" y="494.5" width="188" height="1" fill="white" fill-opacity="0.2" /><rect x="2380" y="450.5" width="188" height="1" fill="white" fill-opacity="0.2" /><rect x="2380" y="407.0" width="188" height="1" fill="white" fill-opacity="0.2" /><rect x="2380" y="363.0" width="188" height="1" fill="white" fill-opacity="0.5" /><text x="2578" y="363.0" font-size="14" fill="white" font-family="monospace" dominant-baseline="initial">43</text><rect x="2380" y="319.5" width="188" height="1" fill="white" fill-opacity="0.2" /><rect x="2380" y="276.0" width="188" height="1" fill="white" fill-opacity="0.2" /><rect x="2380" y="232.0" width="188" height="1" fill="white" fill-opacity="0.2" /><rect x="2380" y="188.5" width="188" height="1" fill="white" fill-opacity="0.5" /><text x="2578" y="188.5" font-size="14" fill="white" font-family="monospace" dominant-baseline="initial">44</text><rect x="2380" y="145.0" width="188" height="1" fill="white" fill-opacity="0.2" /><rect x="2380" y="101.0" width="188" height="1" fill="white" fill-opacity="0.2" /><rect x="2380" y="57.5" width="188" height="1" fill="white" fill-opacity="0.2" /><rect x="2380" y="13.5" width="188" height="1" fill="white" fill-opacity="0.5" /><text x="2578" y="13.5" font-size="14" fill="white" font-family="monospace" dominant-baseline="initial">45</text><rect x="2380" y="712.7000000000007" width="188" height="1" fill="aqua" fill-opacity="0.75" /><text x="2380" y="708.7000000000007" font-size="14" fill="aqua" fill-opacity="0.75" font-family="monospace">Phrase C</text><rect x="2618" y="14.5" width="188" height="699.0" fill="black" /><rect x="2618" y="712.5" width="188" height="1" fill="white" fill-opacity="0.5" /><text x="2816" y="712.5" font-size="14" fill="white" font-family="monospace" dominant-baseline="initial">45</text><rect x="2618" y="669.0" width="188" height="1" fill="white" fill-opacity="0.2" /><rect x="2618" y="625.5" width="188" height="1" fill="white" fill-opacity="0.2" /><rect x="2618" y="581.5" width="188" height="1" fill="white" fill-opacity="0.2" /><rect x="2618" y="538.0" width="188" height="1" fill="white" fill-opacity="0.5" /><text x="2816" y="538.0" font-size="14" fill="white" font-family="monospace" dominant-baseline="initial">46</text><rect x="2618" y="494.0" width="188" height="1" fill="white" fill-opacity="0.2" /><rect x="2618" y="450.5" width="188" height="1" fill="white" fill-opacity="0.2" /><rect x="2618" y="407.0" width="188" height="1" fill="white" fill-opacity="0.2" /><rect x="2618" y="363.0" width="188" height="1" fill="white" fill-opacity="0.5" /><text x="2816" y="363.0" font-size="14" fill="white" font-family="monospace" dominant-baseline="initial">47</text><rect x="2618" y="319.5" width="188" height="1" fill="white" fill-opacity="0.2" /><rect x="2618" y="276.0" width="188" height="1" fill="white" fill-opacity="0.2" /><rect x="2618" y="232.0" width="188" height="1" fill="white" fill-opacity="0.2" /><rect x="2618" y="188.5" width="188" height="1" fill="white" fill-opacity="0.5" /><text x="2816" y="188.5" font-size="14" fill="white" font-family="monospace" dominant-baseline="initial">48</text><rect x="2618" y="144.5" width="188" height="1" fill="white" fill-opacity="0.2" /><rect x="2618" y="101.0" width="188" height="1" fill="white" fill-opacity="0.2" /><rect x="2618" y="57.5" width="188" height="1" fill="white" fill-opacity="0.2" /><rect x="2618" y="13.5" width="188" height="1" fill="white" fill-opacity="0.5" /><text x="2816" y="13.5" font-size="14" fill="white" font-family="monospace" dominant-baseline="initial">49</text><rect x="2856" y="14.5" width="188" height="699.0" fill="black" /><rect x="2856" y="712.5" width="188" height="1" fill="white" fill-opacity="0.5" /><text x="3054" y="712.5" font-size="14" fill="white" font-family="monospace" dominant-baseline="initial">49</text><rect x="2856" y="669.0" width="188" height="1" fill="white" fill-opacity="0.2" /><rect x="2856" y="625.5" width="188" height="1" fill="white" fill-opacity="0.2" /><rect x="2856" y="581.5" width="188" height="1" fill="white" fill-opacity="0.2" /><rect x="2856" y="538.0" width="188" height="1" fill="white" fill-opacity="0.5" /><text x="3054" y="538.0" font-size="14" fill="white" font-family="monospace" dominant-baseline="initial">50</text><rect x="2856" y="494.0" width="188" height="1" fill="white" fill-opacity="0.2" /><rect x="2856" y="450.5" width="188" height="1" fill="white" fill-opacity="0.2" /><rect x="2856" y="407.0" width="188" height="1" fill="white" fill-opacity="0.2" /><rect x="2856" y="363.0" width="188" height="1" fill="white" fill-opacity="0.5" /><text x="3054" y="363.0" font-size="14" fill="white" font-family="monospace" dominant-baseline="initial">51</text><rect x="2856" y="319.5" width="188" height="1" fill="white" fill-opacity="0.2" /><rect x="2856" y="276.0" width="188" height="1" fill="white" fill-opacity="0.2" /><rect x="2856" y="232.0" width="188" height="1" fill="white" fill-opacity="0.2" /><rect x="2856" y="188.5" width="188" height="1" fill="white" fill-opacity="0.5" /><text x="3054" y="188.5" font-size="14" fill="white" font-family="monospace" dominant-baseline="initial">52</text><rect x="2856" y="144.5" width="188" height="1" fill="white" fill-opacity="0.2" /><rect x="2856" y="101.0" width="188" height="1" fill="white" fill-opacity="0.2" /><rect x="2856" y="57.5" width="188" height="1" fill="white" fill-opacity="0.2" /><rect x="2856" y="13.5" width="188" height="1" fill="white" fill-opacity="0.5" /><text x="3054" y="13.5" font-size="14" fill="white" font-family="monospace" dominant-baseline="initial">53</text><rect x="3094" y="14.5" width="188" height="699.0" fill="black" /><rect x="3094" y="712.5" width="188" height="1" fill="white" fill-opacity="0.5" /><text x="3292" y="712.5" font-size="14" fill="white" font-family="monospace" dominant-baseline="initial">53</text><rect x="3094" y="669.0" width="188" height="1" fill="white" fill-opacity="0.2" /><rect x="3094" y="625.0" width="188" height="1" fill="white" fill-opacity="0.2" /><rect x="3094" y="581.5" width="188" height="1" fill="white" fill-opacity="0.2" /><rect x="3094" y="538.0" width="188" height="1" fill="white" fill-opacity="0.5" /><text x="3292" y="538.0" font-size="14" fill="white" font-family="monospace" dominant-baseline="initial">54</text><rect x="3094" y="494.0" width="188" height="1" fill="white" fill-opacity="0.2" /><rect x="3094" y="450.5" width="188" height="1" fill="white" fill-opacity="0.2" /><rect x="3094" y="407.0" width="188" height="1" fill="white" fill-opacity="0.2" /><rect x="3094" y="363.0" width="188" height="1" fill="white" fill-opacity="0.5" /><text x="3292" y="363.0" font-size="14" fill="white" font-family="monospace" dominant-baseline="initial">55</text><rect x="3094" y="319.5" width="188" height="1" fill="white" fill-opacity="0.2" /><rect x="3094" y="275.5" width="188" height="1" fill="white" fill-opacity="0.2" /><rect x="3094" y="232.0" width="188" height="1" fill="white" fill-opacity="0.2" /><rect x="3094" y="188.5" width="188" height="1" fill="white" fill-opacity="0.5" /><text x="3292" y="188.5" font-size="14" fill="white" font-family="monospace" dominant-baseline="initial">56</text><rect x="3094" y="144.5" width="188" height="1" fill="white" fill-opacity="0.2" /><rect x="3094" y="101.0" width="188" height="1" fill="white" fill-opacity="0.2" /><rect x="3094" y="57.5" width="188" height="1" fill="white" fill-opacity="0.2" /><rect x="3094" y="13.5" width="188" height="1" fill="white" fill-opacity="0.5" /><text x="3292" y="13.5" font-size="14" fill="white" font-family="monospace" dominant-baseline="initial">57</text><rect x="3094" y="712.7000000000007" width="188" height="1" fill="aqua" fill-opacity="0.75" /><text x="3094" y="708.7000000000007" font-size="14" fill="aqua" fill-opacity="0.75" font-family="monospace">Special</text><rect x="3332" y="14.5" width="188" height="699.0" fill="black" /><rect x="3332" y="712.5" width="188" height="1" fill="white" fill-opacity="0.5" /><text x="3530" y="712.5" font-size="14" fill="white" font-family="monospace" dominant-baseline="initial">57</text><rect x="3332" y="669.0" width="188" height="1" fill="white" fill-opacity="0.2" /><rect x="3332" y="625.0" width="188" height="1" fill="white" fill-opacity="0.2" /><rect x="3332" y="581.5" width="188" height="1" fill="white" fill-opacity="0.2" /><rect x="3332" y="538.0" width="188" height="1" fill="white" fill-opacity="0.5" /><text x="3530" y="538.0" font-size="14" fill="white" font-family="monospace" dominant-baseline="initial">58</text><rect x="3332" y="494.0" width="188" height="1" fill="white" fill-opacity="0.2" /><rect x="3332" y="450.5" width="188" height="1" fill="white" fill-opacity="0.2" /><rect x="3332" y="407.0" width="188" height="1" fill="white" fill-opacity="0.2" /><rect x="3332" y="363.0" width="188" height="1" fill="white" fill-opacity="0.5" /><text x="3530" y="363.0" font-size="14" fill="white" font-family="monospace" dominant-baseline="initial">59</text><rect x="3332" y="319.5" width="188" height="1" fill="white" fill-opacity="0.2" /><rect x="3332" y="275.5" width="188" height="1" fill="white" fill-opacity="0.2" /><rect x="3332" y="232.0" width="188" height="1" fill="white" fill-opacity="0.2" /><rect x="3332" y="188.5" width="188" height="1" fill="white" fill-opacity="0.5" /><text x="3530" y="188.5" font-size="14" fill="white" font-family="monospace" dominant-baseline="initial">60</text><rect x="3332" y="144.5" width="188" height="1" fill="white" fill-opacity="0.2" /><rect x="3332" y="101.0" width="188" height="1" fill="white" fill-opacity="0.2" /><rect x="3332" y="57.5" width="188" height="1" fill="white" fill-opacity="0.2" /><rect x="3332" y="13.5" width="188" height="1" fill="white" fill-opacity="0.5" /><text x="3530" y="13.5" font-size="14" fill="white" font-family="monospace" dominant-baseline="initial">61</text><rect x="3570" y="14.5" width="188" height="699.0" fill="black" /><rect x="3570" y="712.5" width="188" height="1" fill="white" fill-opacity="0.5" /><text x="3768" y="712.5" font-size="14" fill="white" font-family="monospace" dominant-baseline="initial">61</text><rect x="3570" y="669.0" width="188" height="1" fill="white" fill-opacity="0.2" /><rect x="3570" y="625.0" width="188" height="1" fill="white" fill-opacity="0.2" /><rect x="3570" y="581.5" width="188" height="1" fill="white" fill-opacity="0.2" /><rect x="3570" y="538.0" width="188" height="1" fill="white" fill-opacity="0.5" /><text x="3768" y="538.0" font-size="14" fill="white" font-family="monospace" dominant-baseline="initial">62</text><rect x="3570" y="494.0" width="188" height="1" fill="white" fill-opacity="0.2" /><rect x="3570" y="450.5" width="188" height="1" fill="white" fill-opacity="0.2" /><rect x="3570" y="406.5" width="188" height="1" fill="white" fill-opacity="0.2" /><rect x="3570" y="363.0" width="188" height="1" fill="white" fill-opacity="0.5" /><text x="3768" y="363.0" font-size="14" fill="white" font-family="monospace" dominant-baseline="initial">63</text><rect x="3570" y="319.5" width="188" height="1" fill="white" fill-opacity="0.2" /><rect x="3570" y="275.5" width="188" height="1" fill="white" fill-opacity="0.2" /><rect x="3570" y="232.0" width="188" height="1" fill="white" fill-opacity="0.2" /><rect x="3570" y="188.5" width="188" height="1" fill="white" fill-opacity="0.5" /><text x="3768" y="188.5" font-size="14" fill="white" font-family="monospace" dominant-baseline="initial">64</text><rect x="3570" y="144.5" width="188" height="1" fill="white" fill-opacity="0.2" /><rect x="3570" y="101.0" width="188" height="1" fill="white" fill-opacity="0.2" /><rect x="3570" y="57.0" width="188" height="1" fill="white" fill-opacity="0.2" /><rect x="3570" y="13.5" width="188" height="1" fill="white" fill-opacity="0.5" /><text x="3768" y="13.5" font-size="14" fill="white" font-family="monospace" dominant-baseline="initial">65</text><rect x="3808" y="14.5" width="188" height="699.0" fill="black" /><rect x="3808" y="712.5" width="188" height="1" fill="white" fill-opacity="0.5" /><text x="4006" y="712.5" font-size="14" fill="white" font-family="monospace" dominant-baseline="initial">65</text><rect x="3808" y="669.0" width="188" height="1" fill="white" fill-opacity="0.2" /><rect x="3808" y="625.0" width="188" height="1" fill="white" fill-opacity="0.2" /><rect x="3808" y="581.5" width="188" height="1" fill="white" fill-opacity="0.2" /><rect x="3808" y="538.0" width="188" height="1" fill="white" fill-opacity="0.5" /><text x="4006" y="538.0" font-size="14" fill="white" font-family="monospace" dominant-baseline="initial">66</text><rect x="3808" y="494.0" width="188" height="1" fill="white" fill-opacity="0.2" /><rect x="3808" y="450.5" width="188" height="1" fill="white" fill-opacity="0.2" /><rect x="3808" y="406.5" width="188" height="1" fill="white" fill-opacity="0.2" /><rect x="3808" y="363.0" width="188" height="1" fill="white" fill-opacity="0.5" /><text x="4006" y="363.0" font-size="14" fill="white" font-family="monospace" dominant-baseline="initial">67</text><rect x="3808" y="319.5" width="188" height="1" fill="white" fill-opacity="0.2" /><rect x="3808" y="275.5" width="188" height="1" fill="white" fill-opacity="0.2" /><rect x="3808" y="232.0" width="188" height="1" fill="white" fill-opacity="0.2" /><rect x="3808" y="188.5" width="188" height="1" fill="white" fill-opacity="0.5" /><text x="4006" y="188.5" font-size="14" fill="white" font-family="monospace" dominant-baseline="initial">68</text><rect x="3808" y="144.5" width="188" height="1" fill="white" fill-opacity="0.2" /><rect x="3808" y="101.0" width="188" height="1" fill="white" fill-opacity="0.2" /><rect x="3808" y="57.0" width="188" height="1" fill="white" fill-opacity="0.2" /><rect x="3808" y="13.5" width="188" height="1" fill="white" fill-opacity="0.5" /><text x="4006" y="13.5" font-size="14" fill="white" font-family="monospace" dominant-baseline="initial">69</text><rect x="4046" y="14.5" width="188" height="699.0" fill="black" /><rect x="4046" y="712.5" width="188" height="1" fill="white" fill-opacity="0.5" /><text x="4244" y="712.5" font-size="14" fill="white" font-family="monospace" dominant-baseline="initial">69</text><rect x="4046" y="669.0" width="188" height="1" fill="white" fill-opacity="0.2" /><rect x="4046" y="625.0" width="188" height="1" fill="white" fill-opacity="0.2" /><rect x="4046" y="581.5" width="188" height="1" fill="white" fill-opacity="0.2" /><rect x="4046" y="538.0" width="188" height="1" fill="white" fill-opacity="0.5" /><text x="4244" y="538.0" font-size="14" fill="white" font-family="monospace" dominant-baseline="initial">70</text><rect x="4046" y="494.0" width="188" height="1" fill="white" fill-opacity="0.2" /><rect x="4046" y="450.5" width="188" height="1" fill="white" fill-opacity="0.2" /><rect x="4046" y="406.5" width="188" height="1" fill="white" fill-opacity="0.2" /><rect x="4046" y="363.0" width="188" height="1" fill="white" fill-opacity="0.5" /><text x="4244" y="363.0" font-size="14" fill="white" font-family="monospace" dominant-baseline="initial">71</text><rect x="4046" y="319.5" width="188" height="1" fill="white" fill-opacity="0.2" /><rect x="4046" y="275.5" width="188" height="1" fill="white" fill-opacity="0.2" /><rect x="4046" y="232.0" width="188" height="1" fill="white" fill-opacity="0.2" /><rect x="4046" y="188.0" width="188" height="1" fill="white" fill-opacity="0.5" /><text x="4244" y="188.0" font-size="14" fill="white" font-family="monospace" dominant-baseline="initial">72</text><rect x="4046" y="144.5" width="188" height="1" fill="white" fill-opacity="0.2" /><rect x="4046" y="101.0" width="188" height="1" fill="white" fill-opacity="0.2" /><rect x="4046" y="57.0" width="188" height="1" fill="white" fill-opacity="0.2" /><rect x="4046" y="13.5" width="188" height="1" fill="white" fill-opacity="0.5" /><text x="4244" y="13.5" font-size="14" fill="white" font-family="monospace" dominant-baseline="initial">73</text><rect x="4284" y="14.5" width="188" height="699.0" fill="black" /><rect x="4284" y="712.5" width="188" height="1" fill="white" fill-opacity="0.5" /><text x="4482" y="712.5" font-size="14" fill="white" font-family="monospace" dominant-baseline="initial">73</text><rect x="4284" y="669.0" width="188" height="1" fill="white" fill-opacity="0.2" /><rect x="4284" y="625.0" width="188" height="1" fill="white" fill-opacity="0.2" /><rect x="4284" y="581.5" width="188" height="1" fill="white" fill-opacity="0.2" /><rect x="4284" y="537.5" width="188" height="1" fill="white" fill-opacity="0.5" /><text x="4482" y="537.5" font-size="14" fill="white" font-family="monospace" dominant-baseline="initial">74</text><rect x="4284" y="494.0" width="188" height="1" fill="white" fill-opacity="0.2" /><rect x="4284" y="450.5" width="188" height="1" fill="white" fill-opacity="0.2" /><rect x="4284" y="406.5" width="188" height="1" fill="white" fill-opacity="0.2" /><rect x="4284" y="363.0" width="188" height="1" fill="white" fill-opacity="0.5" /><text x="4482" y="363.0" font-size="14" fill="white" font-family="monospace" dominant-baseline="initial">75</text><rect x="4284" y="319.5" width="188" height="1" fill="white" fill-opacity="0.2" /><rect x="4284" y="275.5" width="188" height="1" fill="white" fill-opacity="0.2" /><rect x="4284" y="232.0" width="188" height="1" fill="white" fill-opacity="0.2" /><rect x="4284" y="188.0" width="188" height="1" fill="white" fill-opacity="0.5" /><text x="4482" y="188.0" font-size="14" fill="white" font-family="monospace" dominant-baseline="initial">76</text><rect x="4284" y="144.5" width="188" height="1" fill="white" fill-opacity="0.2" /><rect x="4284" y="101.0" width="188" height="1" fill="white" fill-opacity="0.2" /><rect x="4284" y="57.0" width="188" height="1" fill="white" fill-opacity="0.2" /><rect x="4284" y="13.5" width="188" height="1" fill="white" fill-opacity="0.5" /><text x="4482" y="13.5" font-size="14" fill="white" font-family="monospace" dominant-baseline="initial">77</text><rect x="4284" y="712.5500000000011" width="188" height="1" fill="aqua" fill-opacity="0.75" /><text x="4284" y="708.5500000000011" font-size="14" fill="aqua" fill-opacity="0.75" font-family="monospace">Solo</text><rect x="4522" y="14.5" width="188" height="699.0" fill="black" /><rect x="4522" y="712.5" width="188" height="1" fill="white" fill-opacity="0.5" /><text x="4720" y="712.5" font-size="14" fill="white" font-family="monospace" dominant-baseline="initial">77</text><rect x="4522" y="669.0" width="188" height="1" fill="white" fill-opacity="0.2" /><rect x="4522" y="625.0" width="188" height="1" fill="white" fill-opacity="0.2" /><rect x="4522" y="581.5" width="188" height="1" fill="white" fill-opacity="0.2" /><rect x="4522" y="537.5" width="188" height="1" fill="white" fill-opacity="0.5" /><text x="4720" y="537.5" font-size="14" fill="white" font-family="monospace" dominant-baseline="initial">78</text><rect x="4522" y="494.0" width="188" height="1" fill="white" fill-opacity="0.2" /><rect x="4522" y="450.5" width="188" height="1" fill="white" fill-opacity="0.2" /><rect x="4522" y="406.5" width="188" height="1" fill="white" fill-opacity="0.2" /><rect x="4522" y="363.0" width="188" height="1" fill="white" fill-opacity="0.5" /><text x="4720" y="363.0" font-size="14" fill="white" font-family="monospace" dominant-baseline="initial">79</text><rect x="4522" y="319.0" width="188" height="1" fill="white" fill-opacity="0.2" /><rect x="4522" y="275.5" width="188" height="1" fill="white" fill-opacity="0.2" /><rect x="4522" y="232.0" width="188" height="1" fill="white" fill-opacity="0.2" /><rect x="4522" y="188.0" width="188" height="1" fill="white" fill-opacity="0.5" /><text x="4720" y="188.0" font-size="14" fill="white" font-family="monospace" dominant-baseline="initial">80</text><rect x="4522" y="144.5" width="188" height="1" fill="white" fill-opacity="0.2" /><rect x="4522" y="101.0" width="188" height="1" fill="white" fill-opacity="0.2" /><rect x="4522" y="57.0" width="188" height="1" fill="white" fill-opacity="0.2" /><rect x="4522" y="13.5" width="188" height="1" fill="white" fill-opacity="0.5" /><text x="4720" y="13.5" font-size="14" fill="white" font-family="monospace" dominant-baseline="initial">81</text><rect x="4760" y="14.5" width="188" height="699.0" fill="black" /><rect x="4760" y="712.5" width="188" height="1" fill="white" fill-opacity="0.5" /><text x="4958" y="712.5" font-size="14" fill="white" font-family="monospace" dominant-baseline="initial">81</text><rect x="4760" y="668.5" width="188" height="1" fill="white" fill-opacity="0.2" /><rect x="4760" y="625.0" width="188" height="1" fill="white" fill-opacity="0.2" /><rect x="4760" y="581.5" width="188" height="1" fill="white" fill-opacity="0.2" /><rect x="4760" y="537.5" width="188" height="1" fill="white" fill-opacity="0.5" /><text x="4958" y="537.5" font-size="14" fill="white" font-family="monospace" dominant-baseline="initial">82</text><rect x="4760" y="494.0" width="188" height="1" fill="white" fill-opacity="0.2" /><rect x="4760" y="450.5" width="188" height="1" fill="white" fill-opacity="0.2" /><rect x="4760" y="406.5" width="188" height="1" fill="white" fill-opacity="0.2" /><rect x="4760" y="363.0" width="188" height="1" fill="white" fill-opacity="0.5" /><text x="4958" y="363.0" font-size="14" fill="white" font-family="monospace" dominant-baseline="initial">83</text><rect x="4760" y="319.0" width="188" height="1" fill="white" fill-opacity="0.2" /><rect x="4760" y="275.5" width="188" height="1" fill="white" fill-opacity="0.2" /><rect x="4760" y="232.0" width="188" height="1" fill="white" fill-opacity="0.2" /><rect x="4760" y="188.0" width="188" height="1" fill="white" fill-opacity="0.5" /><text x="4958" y="188.0" font-size="14" fill="white" font-family="monospace" dominant-baseline="initial">84</text><rect x="4760" y="144.5" width="188" height="1" fill="white" fill-opacity="0.2" /><rect x="4760" y="101.0" width="188" height="1" fill="white" fill-opacity="0.2" /><rect x="4760" y="57.0" width="188" height="1" fill="white" fill-opacity="0.2" /><rect x="4760" y="13.5" width="188" height="1" fill="white" fill-opacity="0.5" /><text x="4958" y="13.5" font-size="14" fill="white" font-family="monospace" dominant-baseline="initial">85</text><rect x="4998" y="14.5" width="188" height="699.0" fill="black" /><rect x="4998" y="712.5" width="188" height="1" fill="white" fill-opacity="0.5" /><text x="5196" y="712.5" font-size="14" fill="white" font-family="monospace" dominant-baseline="initial">85</text><rect x="4998" y="668.5" width="188" height="1" fill="white" fill-opacity="0.2" /><rect x="4998" y="625.0" width="188" height="1" fill="white" fill-opacity="0.2" /><rect x="4998" y="581.5" width="188" height="1" fill="white" fill-opacity="0.2" /><rect x="4998" y="537.5" width="188" height="1" fill="white" fill-opacity="0.5" /><text x="5196" y="537.5" font-size="14" fill="white" font-family="monospace" dominant-baseline="initial">86</text><rect x="4998" y="494.0" width="188" height="1" fill="white" fill-opacity="0.2" /><rect x="4998" y="450.5" width="188" height="1" fill="white" fill-opacity="0.2" /><rect x="4998" y="406.5" width="188" height="1" fill="white" fill-opacity="0.2" /><rect x="4998" y="363.0" width="188" height="1" fill="white" fill-opacity="0.5" /><text x="5196" y="363.0" font-size="14" fill="white" font-family="monospace" dominant-baseline="initial">87</text><rect x="4998" y="319.0" width="188" height="1" fill="white" fill-opacity="0.2" /><rect x="4998" y="275.5" width="188" height="1" fill="white" fill-opacity="0.2" /><rect x="4998" y="232.0" width="188" height="1" fill="white" fill-opacity="0.2" /><rect x="4998" y="188.0" width="188" height="1" fill="white" fill-opacity="0.5" /><text x="5196" y="188.0" font-size="14" fill="white" font-family="monospace" dominant-baseline="initial">88</text><rect x="4998" y="144.5" width="188" height="1" fill="white" fill-opacity="0.2" /><rect x="4998" y="100.5" width="188" height="1" fill="white" fill-opacity="0.2" /><rect x="4998" y="57.0" width="188" height="1" fill="white" fill-opacity="0.2" /><rect x="4998" y="13.5" width="188" height="1" fill="white" fill-opacity="0.5" /><text x="5196" y="13.5" font-size="14" fill="white" font-family="monospace" dominant-baseline="initial">89</text><rect x="4998" y="712.4000000000015" width="188" height="1" fill="aqua" fill-opacity="0.75" /><text x="4998" y="708.4000000000015" font-size="14" fill="aqua" fill-opacity="0.75" font-family="monospace">Solo</text><rect x="5236" y="14.5" width="188" height="699.0" fill="black" /><rect x="5236" y="712.5" width="188" height="1" fill="white" fill-opacity="0.5" /><text x="5434" y="712.5" font-size="14" fill="white" font-family="monospace" dominant-baseline="initial">89</text><rect x="5236" y="668.5" width="188" height="1" fill="white" fill-opacity="0.2" /><rect x="5236" y="625.0" width="188" height="1" fill="white" fill-opacity="0.2" /><rect x="5236" y="581.5" width="188" height="1" fill="white" fill-opacity="0.2" /><rect x="5236" y="537.5" width="188" height="1" fill="white" fill-opacity="0.5" /><text x="5434" y="537.5" font-size="14" fill="white" font-family="monospace" dominant-baseline="initial">90</text><rect x="5236" y="494.0" width="188" height="1" fill="white" fill-opacity="0.2" /><rect x="5236" y="450.0" width="188" height="1" fill="white" fill-opacity="0.2" /><rect x="5236" y="406.5" width="188" height="1" fill="white" fill-opacity="0.2" /><rect x="5236" y="363.0" width="188" height="1" fill="white" fill-opacity="0.5" /><text x="5434" y="363.0" font-size="14" fill="white" font-family="monospace" dominant-baseline="initial">91</text><rect x="5236" y="319.0" width="188" height="1" fill="white" fill-opacity="0.2" /><rect x="5236" y="275.5" width="188" height="1" fill="white" fill-opacity="0.2" /><rect x="5236" y="232.0" width="188" height="1" fill="white" fill-opacity="0.2" /><rect x="5236" y="188.0" width="188" height="1" fill="white" fill-opacity="0.5" /><text x="5434" y="188.0" font-size="14" fill="white" font-family="monospace" dominant-baseline="initial">92</text><rect x="5236" y="144.5" width="188" height="1" fill="white" fill-opacity="0.2" /><rect x="5236" y="100.5" width="188" height="1" fill="white" fill-opacity="0.2" /><rect x="5236" y="57.0" width="188" height="1" fill="white" fill-opacity="0.2" /><rect x="5236" y="13.5" width="188" height="1" fill="white" fill-opacity="0.5" /><text x="5434" y="13.5" font-size="14" fill="white" font-family="monospace" dominant-baseline="initial">93</text><rect x="5474" y="239.5" width="188" height="474.0" fill="black" /><rect x="5474" y="712.5" width="188" height="1" fill="white" fill-opacity="0.5" /><text x="5672" y="712.5" font-size="14" fill="white" font-family="monospace" dominant-baseline="initial">93</text><rect x="5474" y="668.5" width="188" height="1" fill="white" fill-opacity="0.2" /><rect x="5474" y="625.0" width="188" height="1" fill="white" fill-opacity="0.2" /><rect x="5474" y="581.5" width="188" height="1" fill="white" fill-opacity="0.2" /><rect x="5474" y="537.5" width="188" height="1" fill="white" fill-opacity="0.5" /><text x="5672" y="537.5" font-size="14" fill="white" font-family="monospace" dominant-baseline="initial">94</text><rect x="5474" y="494.0" width="188" height="1" fill="white" fill-opacity="0.2" /><rect x="5474" y="450.0" width="188" height="1" fill="white" fill-opacity="0.2" /><rect x="5474" y="406.5" width="188" height="1" fill="white" fill-opacity="0.2" /><rect x="5474" y="363.0" width="188" height="1" fill="white" fill-opacity="0.5" /><text x="5672" y="363.0" font-size="14" fill="white" font-family="monospace" dominant-baseline="initial">95</text></svg>