<?xml version="1.0" encoding="UTF-8"?><svg xmlns="http://www.w3.org/2000/svg" xmlns:xlink="http://www.w3.org/1999/xlink"     width="2850" height="734.0" viewBox="0 0 2850 734.0"><defs></defs><rect x="0" y="0" width="64" height="720.0" fill="black" /><rect x="0" y="0.0" width="64" height="1" fill="white" fill-opacity="0.5" /><text x="74" y="14.0" font-size="14" fill="white" font-family="monospace" dominant-baseline="ideographic">1</text><rect x="0" y="60.0" width="64" height="1" fill="white" fill-opacity="0.2" /><rect x="0" y="120.0" width="64" height="1" fill="white" fill-opacity="0.2" /><rect x="0" y="180.0" width="64" height="1" fill="white" fill-opacity="0.5" /><text x="74" y="194.0" font-size="14" fill="white" font-family="monospace" dominant-baseline="ideographic">2</text><rect x="0" y="240.0" width="64" height="1" fill="white" fill-opacity="0.2" /><rect x="0" y="300.0" width="64" height="1" fill="white" fill-opacity="0.2" /><rect x="0" y="360.0" width="64" height="1" fill="white" fill-opacity="0.5" /><text x="74" y="374.0" font-size="14" fill="white" font-family="monospace" dominant-baseline="ideographic">3</text><rect x="0" y="420.0" width="64" height="1" fill="white" fill-opacity="0.2" /><rect x="0" y="480.0" width="64" height="1" fill="white" fill-opacity="0.2" /><rect x="0" y="540.0" width="64" height="1" fill="white" fill-opacity="0.5" /><text x="74" y="554.0" font-size="14" fill="white" font-family="monospace" dominant-baseline="ideographic">4</text><rect x="0" y="600.0" width="64" height="1" fill="white" fill-opacity="0.2" /><rect x="0" y="660.0" width="64" height="1" fill="white" fill-opacity="0.2" /><rect x="0" y="720.0" width="64" height="1" fill="white" fill-opacity="0.5" /><text x="74" y="734.0" font-size="14" fill="white" font-family="monospace" dominant-baseline="ideographic">5</text><rect x="0" y="0.0" width="64" height="1" fill="aqua" fill-opacity="0.75" /><text x="0" y="14.0" font-size="14" fill="aqua" fill-opacity="0.75" font-family="monospace">Special</text><rect x="0" y="0.0" width="64" height="1" fill="lime" fill-opacity="0.75" /><text x="74" y="28.0" font-size="14" fill="lime" font-family="monospace" dominant-baseline="ideographic">150</text><rect x="114" y="0" width="64" height="720.0" fill="black" /><rect x="114" y="0.0" width="64" height="1" fill="white" fill-opacity="0.5" /><text x="188" y="14.0" font-size="14" fill="white" font-family="monospace" dominant-baseline="ideographic">5</text><rect x="114" y="60.0" width="64" height="1" fill="white" fill-opacity="0.2" /><rect x="114" y="120.0" width="64" height="1" fill="white" fill-opacity="0.2" /><rect x="114" y="180.0" width="64" height="1" fill="white" fill-opacity="0.5" /><text x="188" y="194.0" font-size="14" fill="white" font-family="monospace" dominant-baseline="ideographic">6</text><rect x="114" y="240.0" width="64" height="1" fill="white" fill-opacity="0.2" /><rect x="114" y="300.0" width="64" height="1" fill="white" fill-opacity="0.2" /><rect x="114" y="360.0" width="64" height="1" fill="white" fill-opacity="0.5" /><text x="188" y="374.0" font-size="14" fill="white" font-family="monospace" dominant-baseline="ideographic">7</text><rect x="114" y="420.0" width="64" height="1" fill="white" fill-opacity="0.2" /><rect x="114" y="480.0" width="64" height="1" fill="white" fill-opacity="0.2" /><rect x="114" y="540.0" width="64" height="1" fill="white" fill-opacity="0.5" /><text x="188" y="554.0" font-size="14" fill="white" font-family="monospace" dominant-baseline="ideographic">8</text><rect x="114" y="600.0" width="64" height="1" fill="white" fill-opacity="0.2" /><rect x="114" y="660.0" width="64" height="1" fill="white" fill-opacity="0.2" /><rect x="114" y="720.0" width="64" height="1" fill="white" fill-opacity="0.5" /><text x="188" y="734.0" font-size="14" fill="white" font-family="monospace" dominant-baseline="ideographic">9</text><rect x="228" y="0" width="64" height="720.0" fill="black" /><rect x="228" y="0.0" width="64" height="1" fill="white" fill-opacity="0.5" /><text x="302" y="14.0" font-size="14" fill="white" font-family="monospace" dominant-baseline="ideographic">9</text><rect x="228" y="60.0" width="64" height="1" fill="white" fill-opacity="0.2" /><rect x="228" y="120.0" width="64" height="1" fill="white" fill-opacity="0.2" /><rect x="228" y="180.0" width="64" height="1" fill="white" fill-opacity="0.5" /><text x="302" y="194.0" font-size="14" fill="white" font-family="monospace" dominant-baseline="ideographic">10</text><rect x="228" y="240.0" width="64" height="1" fill="white" fill-opacity="0.2" /><rect x="228" y="300.0" width="64" height="1" fill="white" fill-opacity="0.2" /><rect x="228" y="360.0" width="64" height="1" fill="white" fill-opacity="0.5" /><text x="302" y="374.0" font-size="14" fill="white" font-family="monospace" dominant-baseline="ideographic">11</text><rect x="228" y="420.0" width="64" height="1" fill="white" fill-opacity="0.2" /><rect x="228" y="480.0" width="64" height="1" fill="white" fill-opacity="0.2" /><rect x="228" y="540.0" width="64" height="1" fill="white" fill-opacity="0.5" /><text x="302" y="554.0" font-size="14" fill="white" font-family="monospace" dominant-baseline="ideographic">12</text><rect x="228" y="600.0" width="64" height="1" fill="white" fill-opacity="0.2" /><rect x="228" y="660.0" width="64" height="1" fill="white" fill-opacity="0.2" /><rect x="228" y="720.0" width="64" height="1" fill="white" fill-opacity="0.5" /><text x="302" y="734.0" font-size="14" fill="white" font-family="monospace" dominant-baseline="ideographic">13</text><rect x="228" y="360.0" width="64" height="1" fill="aqua" fill-opacity="0.75" /><text x="228" y="374.0" font-size="14" fill="aqua" fill-opacity="0.75" font-family="monospace">Intro</text><rect x="342" y="0" width="64" height="720.0" fill="black" /><rect x="342" y="0.0" width="64" height="1" fill="white" fill-opacity="0.5" /><text x="416" y="14.0" font-size="14" fill="white" font-family="monospace" dominant-baseline="ideographic">13</text><rect x="342" y="60.0" width="64" height="1" fill="white" fill-opacity="0.2" /><rect x="342" y="120.0" width="64" height="1" fill="white" fill-opacity="0.2" /><rect x="342" y="180.0" width="64" height="1" fill="white" fill-opacity="0.5" /><text x="416" y="194.0" font-size="14" fill="white" font-family="monospace" dominant-baseline="ideographic">14</text><rect x="342" y="240.0" width="64" height="1" fill="white" fill-opacity="0.2" /><rect x="342" y="300.0" width="64" height="1" fill="white" fill-opacity="0.2" /><rect x="342" y="360.0" width="64" height="1" fill="white" fill-opacity="0.5" /><text x="416" y="374.0" font-size="14" fill="white" font-family="monospace" dominant-baseline="ideographic">15</text><rect x="342" y="420.0" width="64" height="1" fill="white" fill-opacity="0.2" /><rect x="342" y="480.0" width="64" height="1" fill="white" fill-opacity="0.2" /><rect x="342" y="540.0" width="64" height="1" fill="white" fill-opacity="0.5" /><text x="416" y="554.0" font-size="14" fill="white" font-family="monospace" dominant-baseline="ideographic">16</text><rect x="342" y="600.0" width="64" height="1" fill="white" fill-opacity="0.2" /><rect x="342" y="660.0" width="64" height="1" fill="white" fill-opacity="0.2" /><rect x="342" y="720.0" width="64" height="1" fill="white" fill-opacity="0.5" /><text x="416" y="734.0" font-size="14" fill="white" font-family="monospace" dominant-baseline="ideographic">17</text><rect x="456" y="0" width="64" height="720.0" fill="black" /><rect x="456" y="0.0" width="64" height="1" fill="white" fill-opacity="0.5" /><text x="530" y="14.0" font-size="14" fill="white" font-family="monospace" dominant-baseline="ideographic">17</text><rect x="456" y="60.0" width="64" height="1" fill="white" fill-opacity="0.2" /><rect x="456" y="120.0" width="64" height="1" fill="white" fill-opacity="0.2" /><rect x="456" y="180.0" width="64" height="1" fill="white" fill-opacity="0.5" /><text x="530" y="194.0" font-size="14" fill="white" font-family="monospace" dominant-baseline="ideographic">18</text><rect x="456" y="240.0" width="64" height="1" fill="white" fill-opacity="0.2" /><rect x="456" y="300.0" width="64" height="1" fill="white" fill-opacity="0.2" /><rect x="456" y="360.0" width="64" height="1" fill="white" fill-opacity="0.5" /><text x="530" y="374.0" font-size="14" fill="white" font-family="monospace" dominant-baseline="ideographic">19</text><rect x="456" y="420.0" width="64" height="1" fill="white" fill-opacity="0.2" /><rect x="456" y="480.0" width="64" height="1" fill="white" fill-opacity="0.2" /><rect x="456" y="540.0" width="64" height="1" fill="white" fill-opacity="0.5" /><text x="530" y="554.0" font-size="14" fill="white" font-family="monospace" dominant-baseline="ideographic">20</text><rect x="456" y="600.0" width="64" height="1" fill="white" fill-opacity="0.2" /><rect x="456" y="660.0" width="64" height="1" fill="white" fill-opacity="0.2" /><rect x="456" y="720.0" width="64" height="1" fill="white" fill-opacity="0.5" /><text x="530" y="734.0" font-size="14" fill="white" font-family="monospace" dominant-baseline="ideographic">21</text><rect x="570" y="0" width="64" height="720.0" fill="black" /><rect x="570" y="0.0" width="64" height="1" fill="white" fill-opacity="0.5" /><text x="644" y="14.0" font-size="14" fill="white" font-family="monospace" dominant-baseline="ideographic">21</text><rect x="570" y="60.0" width="64" height="1" fill="white" fill-opacity="0.2" /><rect x="570" y="120.0" width="64" height="1" fill="white" fill-opacity="0.2" /><rect x="570" y="180.0" width="64" height="1" fill="white" fill-opacity="0.5" /><text x="644" y="194.0" font-size="14" fill="white" font-family="monospace" dominant-baseline="ideographic">22</text><rect x="570" y="240.0" width="64" height="1" fill="white" fill-opacity="0.2" /><rect x="570" y="300.0" width="64" height="1" fill="white" fill-opacity="0.2" /><rect x="570" y="360.0" width="64" height="1" fill="white" fill-opacity="0.5" /><text x="644" y="374.0" font-size="14" fill="white" font-family="monospace" dominant-baseline="ideographic">23</text><rect x="570" y="420.0" width="64" height="1" fill="white" fill-opacity="0.2" /><rect x="570" y="480.0" width="64" height="1" fill="white" fill-opacity="0.2" /><rect x="570" y="540.0" width="64" height="1" fill="white" fill-opacity="0.5" /><text x="644" y="554.0" font-size="14" fill="white" font-family="monospace" dominant-baseline="ideographic">24</text><rect x="570" y="600.0" width="64" height="1" fill="white" fill-opacity="0.2" /><rect x="570" y="660.0" width="64" height="1" fill="white" fill-opacity="0.2" /><rect x="570" y="720.0" width="64" height="1" fill="white" fill-opacity="0.5" /><text x="644" y="734.0" font-size="14" fill="white" font-family="monospace" dominant-baseline="ideographic">25</text><rect x="684" y="0" width="64" height="720.0" fill="black" /><rect x="684" y="0.0" width="64" height="1" fill="white" fill-opacity="0.5" /><text x="758" y="14.0" font-size="14" fill="white" font-family="monospace" dominant-baseline="ideographic">25</text><rect x="684" y="60.0" width="64" height="1" fill="white" fill-opacity="0.2" /><rect x="684" y="120.0" width="64" height="1" fill="white" fill-opacity="0.2" /><rect x="684" y="180.0" width="64" height="1" fill="white" fill-opacity="0.5" /><text x="758" y="194.0" font-size="14" fill="white" font-family="monospace" dominant-baseline="ideographic">26</text><rect x="684" y="240.0" width="64" height="1" fill="white" fill-opacity="0.2" /><rect x="684" y="300.0" width="64" height="1" fill="white" fill-opacity="0.2" /><rect x="684" y="360.0" width="64" height="1" fill="white" fill-opacity="0.5" /><text x="758" y="374.0" font-size="14" fill="white" font-family="monospace" dominant-baseline="ideographic">27</text><rect x="684" y="420.0" width="64" height="1" fill="white" fill-opacity="0.2" /><rect x="684" y="480.0" width="64" height="1" fill="white" fill-opacity="0.2" /><rect x="684" y="540.0" width="64" height="1" fill="white" fill-opacity="0.5" /><text x="758" y="554.0" font-size="14" fill="white" font-family="monospace" dominant-baseline="ideographic">28</text><rect x="684" y="600.0" width="64" height="1" fill="white" fill-opacity="0.2" /><rect x="684" y="660.0" width="64" height="1" fill="white" fill-opacity="0.2" /><rect x="684" y="720.0" width="64" height="1" fill="white" fill-opacity="0.5" /><text x="758" y="734.0" font-size="14" fill="white" font-family="monospace" dominant-baseline="ideographic">29</text><rect x="684" y="360.0" width="64" height="1" fill="aqua" fill-opacity="0.75" /><text x="684" y="374.0" font-size="14" fill="aqua" fill-opacity="0.75" font-family="monospace">Phrase A</text><rect x="798" y="0" width="64" height="720.0" fill="black" /><rect x="798" y="0.0" width="64" height="1" fill="white" fill-opacity="0.5" /><text x="872" y="14.0" font-size="14" fill="white" font-family="monospace" dominant-baseline="ideographic">29</text><rect x="798" y="60.0" width="64" height="1" fill="white" fill-opacity="0.2" /><rect x="798" y="120.0" width="64" height="1" fill="white" fill-opacity="0.2" /><rect x="798" y="180.0" width="64" height="1" fill="white" fill-opacity="0.5" /><text x="872" y="194.0" font-size="14" fill="white" font-family="monospace" dominant-baseline="ideographic">30</text><rect x="798" y="240.0" width="64" height="1" fill="white" fill-opacity="0.2" /><rect x="798" y="300.0" width="64" height="1" fill="white" fill-opacity="0.2" /><rect x="798" y="360.0" width="64" height="1" fill="white" fill-opacity="0.5" /><text x="872" y="374.0" font-size="14" fill="white" font-family="monospace" dominant-baseline="ideographic">31</text><rect x="798" y="420.0" width="64" height="1" fill="white" fill-opacity="0.2" /><rect x="798" y="480.0" width="64" height="1" fill="white" fill-opacity="0.2" /><rect x="798" y="540.0" width="64" height="1" fill="white" fill-opacity="0.5" /><text x="872" y="554.0" font-size="14" fill="white" font-family="monospace" dominant-baseline="ideographic">32</text><rect x="798" y="600.0" width="64" height="1" fill="white" fill-opacity="0.2" /><rect x="798" y="660.0" width="64" height="1" fill="white" fill-opacity="0.2" /><rect x="798" y="720.0" width="64" height="1" fill="white" fill-opacity="0.5" /><text x="872" y="734.0" font-size="14" fill="white" font-family="monospace" dominant-baseline="ideographic">33</text><rect x="912" y="0" width="64" height="720.0" fill="black" /><rect x="912" y="0.0" width="64" height="1" fill="white" fill-opacity="0.5" /><text x="986" y="14.0" font-size="14" fill="white" font-family="monospace" dominant-baseline="ideographic">33</text><rect x="912" y="60.0" width="64" height="1" fill="white" fill-opacity="0.2" /><rect x="912" y="120.0" width="64" height="1" fill="white" fill-opacity="0.2" /><rect x="912" y="180.0" width="64" height="1" fill="white" fill-opacity="0.5" /><text x="986" y="194.0" font-size="14" fill="white" font-family="monospace" dominant-baseline="ideographic">34</text><rect x="912" y="240.0" width="64" height="1" fill="white" fill-opacity="0.2" /><rect x="912" y="300.0" width="64" height="1" fill="white" fill-opacity="0.2" /><rect x="912" y="360.0" width="64" height="1" fill="white" fill-opacity="0.5" /><text x="986" y="374.0" font-size="14" fill="white" font-family="monospace" dominant-baseline="ideographic">35</text><rect x="912" y="420.0" width="64" height="1" fill="white" fill-opacity="0.2" /><rect x="912" y="480.0" width="64" height="1" fill="white" fill-opacity="0.2" /><rect x="912" y="540.0" width="64" height="1" fill="white" fill-opacity="0.5" /><text x="986" y="554.0" font-size="14" fill="white" font-family="monospace" dominant-baseline="ideographic">36</text><rect x="912" y="600.0" width="64" height="1" fill="white" fill-opacity="0.2" /><rect x="912" y="660.0" width="64" height="1" fill="white" fill-opacity="0.2" /><rect x="912" y="720.0" width="64" height="1" fill="white" fill-opacity="0.5" /><text x="986" y="734.0" font-size="14" fill="white" font-family="monospace" dominant-baseline="ideographic">37</text><rect x="1026" y="0" width="64" height="720.0" fill="black" /><rect x="1026" y="0.0" width="64" height="1" fill="white" fill-opacity="0.5" /><text x="1100" y="14.0" font-size="14" fill="white" font-family="monospace" dominant-baseline="ideographic">37</text><rect x="1026" y="60.0" width="64" height="1" fill="white" fill-opacity="0.2" /><rect x="1026" y="120.0" width="64" height="1" fill="white" fill-opacity="0.2" /><rect x="1026" y="180.0" width="64" height="1" fill="white" fill-opacity="0.5" /><text x="1100" y="194.0" font-size="14" fill="white" font-family="monospace" dominant-baseline="ideographic">38</text><rect x="1026" y="240.0" width="64" height="1" fill="white" fill-opacity="0.2" /><rect x="1026" y="300.0" width="64" height="1" fill="white" fill-opacity="0.2" /><rect x="1026" y="360.0" width="64" height="1" fill="white" fill-opacity="0.5" /><text x="1100" y="374.0" font-size="14" fill="white" font-family="monospace" dominant-baseline="ideographic">39</text><rect x="1026" y="420.0" width="64" height="1" fill="white" fill-opacity="0.2" /><rect x="1026" y="480.0" width="64" height="1" fill="white" fill-opacity="0.2" /><rect x="1026" y="540.0" width="64" height="1" fill="white" fill-opacity="0.5" /><text x="1100" y="554.0" font-size="14" fill="white" font-family="monospace" dominant-baseline="ideographic">40</text><rect x="1026" y="600.0" width="64" height="1" fill="white" fill-opacity="0.2" /><rect x="1026" y="660.0" width="64" height="1" fill="white" fill-opacity="0.2" /><rect x="1026" y="720.0" width="64" height="1" fill="white" fill-opacity="0.5" /><text x="1100" y="734.0" font-size="14" fill="white" font-family="monospace" dominant-baseline="ideographic">41</text><rect x="1140" y="0" width="64" height="720.0" fill="black" /><rect x="1140" y="0.0" width="64" height="1" fill="white" fill-opacity="0.5" /><text x="1214" y="14.0" font-size="14" fill="white" font-family="monospace" dominant-baseline="ideographic">41</text><rect x="1140" y="60.0" width="64" height="1" fill="white" fill-opacity="0.2" /><rect x="1140" y="120.0" width="64" height="1" fill="white" fill-opacity="0.2" /><rect x="1140" y="180.0" width="64" height="1" fill="white" fill-opacity="0.5" /><text x="1214" y="194.0" font-size="14" fill="white" font-family="monospace" dominant-baseline="ideographic">42</text><rect x="1140" y="240.0" width="64" height="1" fill="white" fill-opacity="0.2" /><rect x="1140" y="300.0" width="64" height="1" fill="white" fill-opacity="0.2" /><rect x="1140" y="360.0" width="64" height="1" fill="white" fill-opacity="0.5" /><text x="1214" y="374.0" font-size="14" fill="white" font-family="monospace" dominant-baseline="ideographic">43</text><rect x="1140" y="420.0" width="64" height="1" fill="white" fill-opacity="0.2" /><rect x="1140" y="480.0" width="64" height="1" fill="white" fill-opacity="0.2" /><rect x="1140" y="540.0" width="64" height="1" fill="white" fill-opacity="0.5" /><text x="1214" y="554.0" font-size="14" fill="white" font-family="monospace" dominant-baseline="ideographic">44</text><rect x="1140" y="600.0" width="64" height="1" fill="white" fill-opacity="0.2" /><rect x="1140" y="660.0" width="64" height="1" fill="white" fill-opacity="0.2" /><rect x="1140" y="720.0" width="64" height="1" fill="white" fill-opacity="0.5" /><text x="1214" y="734.0" font-size="14" fill="white" font-family="monospace" dominant-baseline="ideographic">45</text><rect x="1140" y="360.0" width="64" height="1" fill="aqua" fill-opacity="0.75" /><text x="1140" y="374.0" font-size="14" fill="aqua" fill-opacity="0.75" font-family="monospace">Phrase B</text><rect x="1254" y="0" width="64" height="720.0" fill="black" /><rect x="1254" y="0.0" width="64" height="1" fill="white" fill-opacity="0.5" /><text x="1328" y="14.0" font-size="14" fill="white" font-family="monospace" dominant-baseline="ideographic">45</text><rect x="1254" y="60.0" width="64" height="1" fill="white" fill-opacity="0.2" /><rect x="1254" y="120.0" width="64" height="1" fill="white" fill-opacity="0.2" /><rect x="1254" y="180.0" width="64" height="1" fill="white" fill-opacity="0.5" /><text x="1328" y="194.0" font-size="14" fill="white" font-family="monospace" dominant-baseline="ideographic">46</text><rect x="1254" y="240.0" width="64" height="1" fill="white" fill-opacity="0.2" /><rect x="1254" y="300.0" width="64" height="1" fill="white" fill-opacity="0.2" /><rect x="1254" y="360.0" width="64" height="1" fill="white" fill-opacity="0.5" /><text x="1328" y="374.0" font-size="14" fill="white" font-family="monospace" dominant-baseline="ideographic">47</text><rect x="1254" y="420.0" width="64" height="1" fill="white" fill-opacity="0.2" /><rect x="1254" y="480.0" width="64" height="1" fill="white" fill-opacity="0.2" /><rect x="1254" y="540.0" width="64" height="1" fill="white" fill-opacity="0.5" /><text x="1328" y="554.0" font-size="14" fill="white" font-family="monospace" dominant-baseline="ideographic">48</text><rect x="1254" y="600.0" width="64" height="1" fill="white" fill-opacity="0.2" /><rect x="1254" y="660.0" width="64" height="1" fill="white" fill-opacity="0.2" /><rect x="1254" y="720.0" width="64" height="1" fill="white" fill-opacity="0.5" /><text x="1328" y="734.0" font-size="14" fill="white" font-family="monospace" dominant-baseline="ideographic">49</text><rect x="1368" y="0" width="64" height="720.0" fill="black" /><rect x="1368" y="0.0" width="64" height="1" fill="white" fill-opacity="0.5" /><text x="1442" y="14.0" font-size="14" fill="white" font-family="monospace" dominant-baseline="ideographic">49</text><rect x="1368" y="60.0" width="64" height="1" fill="white" fill-opacity="0.2" /><rect x="1368" y="120.0" width="64" height="1" fill="white" fill-opacity="0.2" /><rect x="1368" y="180.0" width="64" height="1" fill="white" fill-opacity="0.5" /><text x="1442" y="194.0" font-size="14" fill="white" font-family="monospace" dominant-baseline="ideographic">50</text><rect x="1368" y="240.0" width="64" height="1" fill="white" fill-opacity="0.2" /><rect x="1368" y="300.0" width="64" height="1" fill="white" fill-opacity="0.2" /><rect x="1368" y="360.0" width="64" height="1" fill="white" fill-opacity="0.5" /><text x="1442" y="374.0" font-size="14" fill="white" font-family="monospace" dominant-baseline="ideographic">51</text><rect x="1368" y="420.0" width="64" height="1" fill="white" fill-opacity="0.2" /><rect x="1368" y="480.0" width="64" height="1" fill="white" fill-opacity="0.2" /><rect x="1368" y="540.0" width="64" height="1" fill="white" fill-opacity="0.5" /><text x="1442" y="554.0" font-size="14" fill="white" font-family="monospace" dominant-baseline="ideographic">52</text><rect x="1368" y="600.0" width="64" height="1" fill="white" fill-opacity="0.2" /><rect x="1368" y="660.0" width="64" height="1" fill="white" fill-opacity="0.2" /><rect x="1368" y="720.0" width="64" height="1" fill="white" fill-opacity="0.5" /><text x="1442" y="734.0" font-size="14" fill="white" font-family="monospace" dominant-baseline="ideographic">53</text><rect x="1482" y="0" width="64" height="720.0" fill="black" /><rect x="1482" y="0.0" width="64" height="1" fill="white" fill-opacity="0.5" /><text x="1556" y="14.0" font-size="14" fill="white" font-family="monospace" dominant-baseline="ideographic">53</text><rect x="1482" y="60.0" width="64" height="1" fill="white" fill-opacity="0.2" /><rect x="1482" y="120.0" width="64" height="1" fill="white" fill-opacity="0.2" /><rect x="1482" y="180.0" width="64" height="1" fill="white" fill-opacity="0.5" /><text x="1556" y="194.0" font-size="14" fill="white" font-family="monospace" dominant-baseline="ideographic">54</text><rect x="1482" y="240.0" width="64" height="1" fill="white" fill-opacity="0.2" /><rect x="1482" y="300.0" width="64" height="1" fill="white" fill-opacity="0.2" /><rect x="1482" y="360.0" width="64" height="1" fill="white" fill-opacity="0.5" /><text x="1556" y="374.0" font-size="14" fill="white" font-family="monospace" dominant-baseline="ideographic">55</text><rect x="1482" y="420.0" width="64" height="1" fill="white" fill-opacity="0.2" /><rect x="1482" y="480.0" width="64" height="1" fill="white" fill-opacity="0.2" /><rect x="1482" y="540.0" width="64" height="1" fill="white" fill-opacity="0.5" /><text x="1556" y="554.0" font-size="14" fill="white" font-family="monospace" dominant-baseline="ideographic">56</text><rect x="1482" y="600.0" width="64" height="1" fill="white" fill-opacity="0.2" /><rect x="1482" y="660.0" width="64" height="1" fill="white" fill-opacity="0.2" /><rect x="1482" y="720.0" width="64" height="1" fill="white" fill-opacity="0.5" /><text x="1556" y="734.0" font-size="14" fill="white" font-family="monospace" dominant-baseline="ideographic">57</text><rect x="1482" y="360.0" width="64" height="1" fill="aqua" fill-opacity="0.75" /><text x="1482" y="374.0" font-size="14" fill="aqua" fill-opacity="0.75" font-family="monospace">Special</text><rect x="1596" y="0" width="64" height="720.0" fill="black" /><rect x="1596" y="0.0" width="64" height="1" fill="white" fill-opacity="0.5" /><text x="1670" y="14.0" font-size="14" fill="white" font-family="monospace" dominant-baseline="ideographic">57</text><rect x="1596" y="60.0" width="64" height="1" fill="white" fill-opacity="0.2" /><rect x="1596" y="120.0" width="64" height="1" fill="white" fill-opacity="0.2" /><rect x="1596" y="180.0" width="64" height="1" fill="white" fill-opacity="0.5" /><text x="1670" y="194.0" font-size="14" fill="white" font-family="monospace" dominant-baseline="ideographic">58</text><rect x="1596" y="240.0" width="64" height="1" fill="white" fill-opacity="0.2" /><rect x="1596" y="300.0" width="64" height="1" fill="white" fill-opacity="0.2" /><rect x="1596" y="360.0" width="64" height="1" fill="white" fill-opacity="0.5" /><text x="1670" y="374.0" font-size="14" fill="white" font-family="monospace" dominant-baseline="ideographic">59</text><rect x="1596" y="420.0" width="64" height="1" fill="white" fill-opacity="0.2" /><rect x="1596" y="480.0" width="64" height="1" fill="white" fill-opacity="0.2" /><rect x="1596" y="540.0" width="64" height="1" fill="white" fill-opacity="0.5" /><text x="1670" y="554.0" font-size="14" fill="white" font-family="monospace" dominant-baseline="ideographic">60</text><rect x="1596" y="600.0" width="64" height="1" fill="white" fill-opacity="0.2" /><rect x="1596" y="660.0" width="64" height="1" fill="white" fill-opacity="0.2" /><rect x="1596" y="720.0" width="64" height="1" fill="white" fill-opacity="0.5" /><text x="1670" y="734.0" font-size="14" fill="white" font-family="monospace" dominant-baseline="ideographic">61</text><rect x="1710" y="0" width="64" height="720.0" fill="black" /><rect x="1710" y="0.0" width="64" height="1" fill="white" fill-opacity="0.5" /><text x="1784" y="14.0" font-size="14" fill="white" font-family="monospace" dominant-baseline="ideographic">61</text><rect x="1710" y="60.0" width="64" height="1" fill="white" fill-opacity="0.2" /><rect x="1710" y="120.0" width="64" height="1" fill="white" fill-opacity="0.2" /><rect x="1710" y="180.0" width="64" height="1" fill="white" fill-opacity="0.5" /><text x="1784" y="194.0" font-size="14" fill="white" font-family="monospace" dominant-baseline="ideographic">62</text><rect x="1710" y="240.0" width="64" height="1" fill="white" fill-opacity="0.2" /><rect x="1710" y="300.0" width="64" height="1" fill="white" fill-opacity="0.2" /><rect x="1710" y="360.0" width="64" height="1" fill="white" fill-opacity="0.5" /><text x="1784" y="374.0" font-size="14" fill="white" font-family="monospace" dominant-baseline="ideographic">63</text><rect x="1710" y="420.0" width="64" height="1" fill="white" fill-opacity="0.2" /><rect x="1710" y="480.0" width="64" height="1" fill="white" fill-opacity="0.2" /><rect x="1710" y="540.0" width="64" height="1" fill="white" fill-opacity="0.5" /><text x="1784" y="554.0" font-size="14" fill="white" font-family="monospace" dominant-baseline="ideographic">64</text><rect x="1710" y="600.0" width="64" height="1" fill="white" fill-opacity="0.2" /><rect x="1710" y="660.0" width="64" height="1" fill="white" fill-opacity="0.2" /><rect x="1710" y="720.0" width="64" height="1" fill="white" fill-opacity="0.5" /><text x="1784" y="734.0" font-size="14" fill="white" font-family="monospace" dominant-baseline="ideographic">65</text><rect x="1824" y="0" width="64" height="720.0" fill="black" /><rect x="1824" y="0.0" width="64" height="1" fill="white" fill-opacity="0.5" /><text x="1898" y="14.0" font-size="14" fill="white" font-family="monospace" dominant-baseline="ideographic">65</text><rect x="1824" y="60.0" width="64" height="1" fill="white" fill-opacity="0.2" /><rect x="1824" y="120.0" width="64" height="1" fill="white" fill-opacity="0.2" /><rect x="1824" y="180.0" width="64" height="1" fill="white" fill-opacity="0.5" /><text x="1898" y="194.0" font-size="14" fill="white" font-family="monospace" dominant-baseline="ideographic">66</text><rect x="1824" y="240.0" width="64" height="1" fill="white" fill-opacity="0.2" /><rect x="1824" y="300.0" width="64" height="1" fill="white" fill-opacity="0.2" /><rect x="1824" y="360.0" width="64" height="1" fill="white" fill-opacity="0.5" /><text x="1898" y="374.0" font-size="14" fill="white" font-family="monospace" dominant-baseline="ideographic">67</text><rect x="1824" y="420.0" width="64" height="1" fill="white" fill-opacity="0.2" /><rect x="1824" y="480.0" width="64" height="1" fill="white" fill-opacity="0.2" /><rect x="1824" y="540.0" width="64" height="1" fill="white" fill-opacity="0.5" /><text x="1898" y="554.0" font-size="14" fill="white" font-family="monospace" dominant-baseline="ideographic">68</text><rect x="1824" y="600.0" width="64" height="1" fill="white" fill-opacity="0.2" /><rect x="1824" y="660.0" width="64" height="1" fill="white" fill-opacity="0.2" /><rect x="1824" y="720.0" width="64" height="1" fill="white" fill-opacity="0.5" /><text x="1898" y="734.0" font-size="14" fill="white" font-family="monospace" dominant-baseline="ideographic">69</text><rect x="1938" y="0" width="64" height="720.0" fill="black" /><rect x="1938" y="0.0" width="64" height="1" fill="white" fill-opacity="0.5" /><text x="2012" y="14.0" font-size="14" fill="white" font-family="monospace" dominant-baseline="ideographic">69</text><rect x="1938" y="60.0" width="64" height="1" fill="white" fill-opacity="0.2" /><rect x="1938" y="120.0" width="64" height="1" fill="white" fill-opacity="0.2" /><rect x="1938" y="180.0" width="64" height="1" fill="white" fill-opacity="0.5" /><text x="2012" y="194.0" font-size="14" fill="white" font-family="monospace" dominant-baseline="ideographic">70</text><rect x="1938" y="240.0" width="64" height="1" fill="white" fill-opacity="0.2" /><rect x="1938" y="300.0" width="64" height="1" fill="white" fill-opacity="0.2" /><rect x="1938" y="360.0" width="64" height="1" fill="white" fill-opacity="0.5" /><text x="2012" y="374.0" font-size="14" fill="white" font-family="monospace" dominant-baseline="ideographic">71</text><rect x="1938" y="420.0" width="64" height="1" fill="white" fill-opacity="0.2" /><rect x="1938" y="480.0" width="64" height="1" fill="white" fill-opacity="0.2" /><rect x="1938" y="540.0" width="64" height="1" fill="white" fill-opacity="0.5" /><text x="2012" y="554.0" font-size="14" fill="white" font-family="monospace" dominant-baseline="ideographic">72</text><rect x="1938" y="600.0" width="64" height="1" fill="white" fill-opacity="0.2" /><rect x="1938" y="660.0" width="64" height="1" fill="white" fill-opacity="0.2" /><rect x="1938" y="720.0" width="64" height="1" fill="white" fill-opacity="0.5" /><text x="2012" y="734.0" font-size="14" fill="white" font-family="monospace" dominant-baseline="ideographic">73</text><rect x="1938" y="360.0" width="64" height="1" fill="aqua" fill-opacity="0.75" /><text x="1938" y="374.0" font-size="14" fill="aqua" fill-opacity="0.75" font-family="monospace">Intro</text><rect x="2052" y="0" width="64" height="720.0" fill="black" /><rect x="2052" y="0.0" width="64" height="1" fill="white" fill-opacity="0.5" /><text x="2126" y="14.0" font-size="14" fill="white" font-family="monospace" dominant-baseline="ideographic">73</text><rect x="2052" y="60.0" width="64" height="1" fill="white" fill-opacity="0.2" /><rect x="2052" y="120.0" width="64" height="1" fill="white" fill-opacity="0.2" /><rect x="2052" y="180.0" width="64" height="1" fill="white" fill-opacity="0.5" /><text x="2126" y="194.0" font-size="14" fill="white" font-family="monospace" dominant-baseline="ideographic">74</text><rect x="2052" y="240.0" width="64" height="1" fill="white" fill-opacity="0.2" /><rect x="2052" y="300.0" width="64" height="1" fill="white" fill-opacity="0.2" /><rect x="2052" y="360.0" width="64" height="1" fill="white" fill-opacity="0.5" /><text x="2126" y="374.0" font-size="14" fill="white" font-family="monospace" dominant-baseline="ideographic">75</text><rect x="2052" y="420.0" width="64" height="1" fill="white" fill-opacity="0.2" /><rect x="2052" y="480.0" width="64" height="1" fill="white" fill-opacity="0.2" /><rect x="2052" y="540.0" width="64" height="1" fill="white" fill-opacity="0.5" /><text x="2126" y="554.0" font-size="14" fill="white" font-family="monospace" dominant-baseline="ideographic">76</text><rect x="2052" y="600.0" width="64" height="1" fill="white" fill-opacity="0.2" /><rect x="2052" y="660.0" width="64" height="1" fill="white" fill-opacity="0.2" /><rect x="2052" y="720.0" width="64" height="1" fill="white" fill-opacity="0.5" /><text x="2126" y="734.0" font-size="14" fill="white" font-family="monospace" dominant-baseline="ideographic">77</text><rect x="2166" y="0" width="64" height="720.0" fill="black" /><rect x="2166" y="0.0" width="64" height="1" fill="white" fill-opacity="0.5" /><text x="2240" y="14.0" font-size="14" fill="white" font-family="monospace" dominant-baseline="ideographic">77</text><rect x="2166" y="60.0" width="64" height="1" fill="white" fill-opacity="0.2" /><rect x="2166" y="120.0" width="64" height="1" fill="white" fill-opacity="0.2" /><rect x="2166" y="180.0" width="64" height="1" fill="white" fill-opacity="0.5" /><text x="2240" y="194.0" font-size="14" fill="white" font-family="monospace" dominant-baseline="ideographic">78</text><rect x="2166" y="240.0" width="64" height="1" fill="white" fill-opacity="0.2" /><rect x="2166" y="300.0" width="64" height="1" fill="white" fill-opacity="0.2" /><rect x="2166" y="360.0" width="64" height="1" fill="white" fill-opacity="0.5" /><text x="2240" y="374.0" font-size="14" fill="white" font-family="monospace" dominant-baseline="ideographic">79</text><rect x="2166" y="420.0" width="64" height="1" fill="white" fill-opacity="0.2" /><rect x="2166" y="480.0" width="64" height="1" fill="white" fill-opacity="0.2" /><rect x="2166" y="540.0" width="64" height="1" fill="white" fill-opacity="0.5" /><text x="2240" y="554.0" font-size="14" fill="white" font-family="monospace" dominant-baseline="ideographic">80</text><rect x="2166" y="600.0" width="64" height="1" fill="white" fill-opacity="0.2" /><rect x="2166" y="660.0" width="64" height="1" fill="white" fill-opacity="0.2" /><rect x="2166" y="720.0" width="64" height="1" fill="white" fill-opacity="0.5" /><text x="2240" y="734.0" font-size="14" fill="white" font-family="monospace" dominant-baseline="ideographic">81</text><rect x="2166" y="360.0" width="64" height="1" fill="aqua" fill-opacity="0.75" /><text x="2166" y="374.0" font-size="14" fill="aqua" fill-opacity="0.75" font-family="monospace">Special</text><rect x="2280" y="0" width="64" height="720.0" fill="black" /><rect x="2280" y="0.0" width="64" height="1" fill="white" fill-opacity="0.5" /><text x="2354" y="14.0" font-size="14" fill="white" font-family="monospace" dominant-baseline="ideographic">81</text><rect x="2280" y="60.0" width="64" height="1" fill="white" fill-opacity="0.2" /><rect x="2280" y="120.0" width="64" height="1" fill="white" fill-opacity="0.2" /><rect x="2280" y="180.0" width="64" height="1" fill="white" fill-opacity="0.5" /><text x="2354" y="194.0" font-size="14" fill="white" font-family="monospace" dominant-baseline="ideographic">82</text><rect x="2280" y="240.0" width="64" height="1" fill="white" fill-opacity="0.2" /><rect x="2280" y="300.0" width="64" height="1" fill="white" fill-opacity="0.2" /><rect x="2280" y="360.0" width="64" height="1" fill="white" fill-opacity="0.5" /><text x="2354" y="374.0" font-size="14" fill="white" font-family="monospace" dominant-baseline="ideographic">83</text><rect x="2280" y="420.0" width="64" height="1" fill="white" fill-opacity="0.2" /><rect x="2280" y="480.0" width="64" height="1" fill="white" fill-opacity="0.2" /><rect x="2280" y="540.0" width="64" height="1" fill="white" fill-opacity="0.5" /><text x="2354" y="554.0" font-size="14" fill="white" font-family="monospace" dominant-baseline="ideographic">84</text><rect x="2280" y="600.0" width="64" height="1" fill="white" fill-opacity="0.2" /><rect x="2280" y="660.0" width="64" height="1" fill="white" fill-opacity="0.2" /><rect x="2280" y="720.0" width="64" height="1" fill="white" fill-opacity="0.5" /><text x="2354" y="734.0" font-size="14" fill="white" font-family="monospace" dominant-baseline="ideographic">85</text><rect x="2394" y="0" width="64" height="720.0" fill="black" /><rect x="2394" y="0.0" width="64" height="1" fill="white" fill-opacity="0.5" /><text x="2468" y="14.0" font-size="14" fill="white" font-family="monospace" dominant-baseline="ideographic">85</text><rect x="2394" y="60.0" width="64" height="1" fill="white" fill-opacity="0.2" /><rect x="2394" y="120.0" width="64" height="1" fill="white" fill-opacity="0.2" /><rect x="2394" y="180.0" width="64" height="1" fill="white" fill-opacity="0.5" /><text x="2468" y="194.0" font-size="14" fill="white" font-family="monospace" dominant-baseline="ideographic">86</text><rect x="2394" y="240.0" width="64" height="1" fill="white" fill-opacity="0.2" /><rect x="2394" y="300.0" width="64" height="1" fill="white" fill-opacity="0.2" /><rect x="2394" y="360.0" width="64" height="1" fill="white" fill-opacity="0.5" /><text x="2468" y="374.0" font-size="14" fill="white" font-family="monospace" dominant-baseline="ideographic">87</text><rect x="2394" y="420.0" width="64" height="1" fill="white" fill-opacity="0.2" /><rect x="2394" y="480.0" width="64" height="1" fill="white" fill-opacity="0.2" /><rect x="2394" y="540.0" width="64" height="1" fill="white" fill-opacity="0.5" /><text x="2468" y="554.0" font-size="14" fill="white" font-family="monospace" dominant-baseline="ideographic">88</text><rect x="2394" y="600.0" width="64" height="1" fill="white" fill-opacity="0.2" /><rect x="2394" y="660.0" width="64" height="1" fill="white" fill-opacity="0.2" /><rect x="2394" y="720.0" width="64" height="1" fill="white" fill-opacity="0.5" /><text x="2468" y="734.0" font-size="14" fill="white" font-family="monospace" dominant-baseline="ideographic">89</text><rect x="2508" y="0" width="64" height="720.0" fill="black" /><rect x="2508" y="0.0" width="64" height="1" fill="white" fill-opacity="0.5" /><text x="2582" y="14.0" font-size="14" fill="white" font-family="monospace" dominant-baseline="ideographic">89</text><rect x="2508" y="60.0" width="64" height="1" fill="white" fill-opacity="0.2" /><rect x="2508" y="120.0" width="64" height="1" fill="white" fill-opacity="0.2" /><rect x="2508" y="180.0" width="64" height="1" fill="white" fill-opacity="0.5" /><text x="2582" y="194.0" font-size="14" fill="white" font-family="monospace" dominant-baseline="ideographic">90</text><rect x="2508" y="240.0" width="64" height="1" fill="white" fill-opacity="0.2" /><rect x="2508" y="300.0" width="64" height="1" fill="white" fill-opacity="0.2" /><rect x="2508" y="360.0" width="64" height="1" fill="white" fill-opacity="0.5" /><text x="2582" y="374.0" font-size="14" fill="white" font-family="monospace" dominant-baseline="ideographic">91</text><rect x="2508" y="420.0" width="64" height="1" fill="white" fill-opacity="0.2" /><rect x="2508" y="480.0" width="64" height="1" fill="white" fill-opacity="0.2" /><rect x="2508" y="540.0" width="64" height="1" fill="white" fill-opacity="0.5" /><text x="2582" y="554.0" font-size="14" fill="white" font-family="monospace" dominant-baseline="ideographic">92</text><rect x="2508" y="600.0" width="64" height="1" fill="white" fill-opacity="0.2" /><rect x="2508" y="660.0" width="64" height="1" fill="white" fill-opacity="0.2" /><rect x="2508" y="720.0" width="64" height="1" fill="white" fill-opacity="0.5" /><text x="2582" y="734.0" font-size="14" fill="white" font-family="monospace" dominant-baseline="ideographic">93</text><rect x="2622" y="0" width="64" height="720.0" fill="black" /><rect x="2622" y="0.0" width="64" height="1" fill="white" fill-opacity="0.5" /><text x="2696" y="14.0" font-size="14" fill="white" font-family="monospace" dominant-baseline="ideographic">93</text><rect x="2622" y="60.0" width="64" height="1" fill="white" fill-opacity="0.2" /><rect x="2622" y="120.0" width="64" height="1" fill="white" fill-opacity="0.2" /><rect x="2622" y="180.0" width="64" height="1" fill="white" fill-opacity="0.5" /><text x="2696" y="194.0" font-size="14" fill="white" font-family="monospace" dominant-baseline="ideographic">94</text><rect x="2622" y="240.0" width="64" height="1" fill="white" fill-opacity="0.2" /><rect x="2622" y="300.0" width="64" height="1" fill="white" fill-opacity="0.2" /><rect x="2622" y="360.0" width="64" height="1" fill="white" fill-opacity="0.5" /><text x="2696" y="374.0" font-size="14" fill="white" font-family="monospace" dominant-baseline="ideographic">95</text><rect x="2622" y="420.0" width="64" height="1" fill="white" fill-opacity="0.2" /><rect x="2622" y="480.0" width="64" height="1" fill="white" fill-opacity="0.2" /><rect x="2622" y="540.0" width="64" height="1" fill="white" fill-opacity="0.5" /><text x="2696" y="554.0" font-size="14" fill="white" font-family="monospace" dominant-baseline="ideographic">96</text><rect x="2622" y="600.0" width="64" height="1" fill="white" fill-opacity="0.2" /><rect x="2622" y="660.0" width="64" height="1" fill="white" fill-opacity="0.2" /><rect x="2622" y="720.0" width="64" height="1" fill="white" fill-opacity="0.5" /><text x="2696" y="734.0" font-size="14" fill="white" font-family="monospace" dominant-baseline="ideographic">97</text><rect x="2622" y="0.0" width="64" height="1" fill="aqua" fill-opacity="0.75" /><text x="2622" y="14.0" font-size="14" fill="aqua" fill-opacity="0.75" font-family="monospace">Outro</text><rect x="2736" y="0" width="64" height="558.0" fill="black" /><rect x="2736" y="0.0" width="64" height="1" fill="white" fill-opacity="0.5" /><text x="2810" y="14.0" font-size="14" fill="white" font-family="monospace" dominant-baseline="ideographic">97</text><rect x="2736" y="60.0" width="64" height="1" fill="white" fill-opacity="0.2" /><rect x="2736" y="120.0" width="64" height="1" fill="white" fill-opacity="0.2" /><rect x="2736" y="180.0" width="64" height="1" fill="white" fill-opacity="0.5" /><text x="2810" y="194.0" font-size="14" fill="white" font-family="monospace" dominant-baseline="ideographic">98</text></svg>