<?xml version="1.0" encoding="UTF-8"?><svg xmlns="http://www.w3.org/2000/svg" xmlns:xlink="http://www.w3.org/1999/xlink"     width="3990" height="717.5" viewBox="0 0 3990 717.5"><defs></defs><rect x="0.0" y="211.0" width="12.0" height="3" fill="#ff3c3c" stroke="#c71f1f" /><rect x="13.0" y="211.0" width="12.0" height="3" fill="#35df39" stroke="#03aa10" /><rect x="13.0" y="316.5" width="12.0" height="3" fill="#35df39" stroke="#03aa10" /><rect x="26.0" y="316.5" width="12.0" height="3" fill="#80c9ff" stroke="#0b6cba" /><rect x="140.0" y="0.0" width="12.0" height="3" fill="#80c9ff" stroke="#0b6cba" /><rect x="153.0" y="0.0" width="12.0" height="3" fill="#fff874" stroke="#eb9c26" /><rect x="153.0" y="105.5" width="12.0" height="3" fill="#fff874" stroke="#eb9c26" /><rect x="127.0" y="140.5" width="12.0" height="3" fill="#35df39" stroke="#03aa10" /><rect x="140.0" y="175.5" width="12.0" height="3" fill="#80c9ff" stroke="#0b6cba" /><rect x="114.0" y="210.5" width="12.0" height="3" fill="#ff3c3c" stroke="#c71f1f" /><rect x="127.0" y="210.5" width="12.0" height="3" fill="#35df39" stroke="#03aa10" /><rect x="140.0" y="245.5" width="12.0" height="3" fill="#80c9ff" stroke="#0b6cba" /><rect x="127.0" y="281.0" width="12.0" height="3" fill="#35df39" stroke="#03aa10" /><rect x="127.0" y="316.0" width="12.0" height="3" fill="#35df39" stroke="#03aa10" /><rect x="140.0" y="316.0" width="12.0" height="3" fill="#80c9ff" stroke="#0b6cba" /><rect x="153.0" y="351.0" width="12.0" height="3" fill="#fff874" stroke="#eb9c26" /><rect x="140.0" y="386.0" width="12.0" height="3" fill="#80c9ff" stroke="#0b6cba" /><rect x="114.0" y="421.5" width="12.0" height="3" fill="#ff3c3c" stroke="#c71f1f" /><rect x="140.0" y="421.5" width="12.0" height="3" fill="#80c9ff" stroke="#0b6cba" /><rect x="228.0" y="34.5" width="12.0" height="3" fill="#ff3c3c" stroke="#c71f1f" /><rect x="241.0" y="69.5" width="12.0" height="3" fill="#35df39" stroke="#03aa10" /><rect x="241.0" y="104.5" width="12.0" height="3" fill="#35df39" stroke="#03aa10" /><rect x="254.0" y="104.5" width="12.0" height="3" fill="#80c9ff" stroke="#0b6cba" /><rect x="254.0" y="140.0" width="12.0" height="3" fill="#80c9ff" stroke="#0b6cba" /><rect x="254.0" y="157.5" width="12.0" height="3" fill="#80c9ff" stroke="#0b6cba" /><rect x="267.0" y="175.0" width="12.0" height="3" fill="#fff874" stroke="#eb9c26" /><rect x="267.0" y="192.5" width="12.0" height="3" fill="#fff874" stroke="#eb9c26" /><rect x="254.0" y="210.0" width="12.0" height="3" fill="#80c9ff" stroke="#0b6cba" /><rect x="241.0" y="245.0" width="12.0" height="3" fill="#35df39" stroke="#03aa10" /><rect x="254.0" y="280.5" width="12.0" height="3" fill="#80c9ff" stroke="#0b6cba" /><rect x="241.0" y="315.5" width="12.0" height="3" fill="#35df39" stroke="#03aa10" /><rect x="241.0" y="350.5" width="12.0" height="3" fill="#35df39" stroke="#03aa10" /><rect x="228.0" y="385.5" width="12.0" height="3" fill="#ff3c3c" stroke="#c71f1f" /><rect x="241.0" y="403.0" width="12.0" height="3" fill="#35df39" stroke="#03aa10" /><rect x="228.0" y="420.5" width="12.0" height="3" fill="#ff3c3c" stroke="#c71f1f" /><rect x="254.0" y="420.5" width="12.0" height="3" fill="#80c9ff" stroke="#0b6cba" /><rect x="355.0" y="34.5" width="12.0" height="3" fill="#35df39" stroke="#03aa10" /><rect x="342.0" y="69.5" width="12.0" height="3" fill="#ff3c3c" stroke="#c71f1f" /><rect x="342.0" y="104.5" width="12.0" height="3" fill="#ff3c3c" stroke="#c71f1f" /><rect x="355.0" y="104.5" width="12.0" height="3" fill="#35df39" stroke="#03aa10" /><rect x="394.0" y="139.5" width="12.0" height="3" fill="#ff83f4" stroke="#d002bc" /><rect x="342" y="139.5" width="64" height="3" fill="#ff72e7" stroke="#7c7c7c" /><rect x="368.0" y="175.0" width="12.0" height="3" fill="#80c9ff" stroke="#0b6cba" /><rect x="355.0" y="192.5" width="12.0" height="3" fill="#35df39" stroke="#03aa10" /><rect x="342.0" y="210.0" width="12.0" height="3" fill="#ff3c3c" stroke="#c71f1f" /><rect x="355.0" y="227.5" width="12.0" height="3" fill="#35df39" stroke="#03aa10" /><rect x="342.0" y="262.5" width="12.0" height="3" fill="#ff3c3c" stroke="#c71f1f" /><rect x="355.0" y="280.0" width="12.0" height="3" fill="#35df39" stroke="#03aa10" /><rect x="342.0" y="315.0" width="12.0" height="3" fill="#ff3c3c" stroke="#c71f1f" /><rect x="342.0" y="350.5" width="12.0" height="3" fill="#ff3c3c" stroke="#c71f1f" /><rect x="342.0" y="385.5" width="12.0" height="3" fill="#ff3c3c" stroke="#c71f1f" /><rect x="355.0" y="403.0" width="12.0" height="3" fill="#35df39" stroke="#03aa10" /><rect x="342.0" y="438.0" width="12.0" height="3" fill="#ff3c3c" stroke="#c71f1f" /><rect x="355.0" y="455.5" width="12.0" height="3" fill="#35df39" stroke="#03aa10" /><rect x="368.0" y="491.0" width="12.0" height="3" fill="#80c9ff" stroke="#0b6cba" /><rect x="355.0" y="526.0" width="12.0" height="3" fill="#35df39" stroke="#03aa10" /><rect x="342.0" y="561.0" width="12.0" height="3" fill="#ff3c3c" stroke="#c71f1f" /><rect x="469.0" y="16.0" width="12.0" height="3" fill="#35df39" stroke="#03aa10" /><rect x="456.0" y="51.0" width="12.0" height="3" fill="#ff3c3c" stroke="#c71f1f" /><rect x="469.0" y="68.5" width="12.0" height="3" fill="#35df39" stroke="#03aa10" /><rect x="456.0" y="104.0" width="12.0" height="3" fill="#ff3c3c" stroke="#c71f1f" /><rect x="482.0" y="139.0" width="12.0" height="3" fill="#80c9ff" stroke="#0b6cba" /><rect x="456.0" y="174.0" width="12.0" height="3" fill="#ff3c3c" stroke="#c71f1f" /><rect x="469.0" y="191.5" width="12.0" height="3" fill="#35df39" stroke="#03aa10" /><rect x="456.0" y="226.5" width="12.0" height="3" fill="#ff3c3c" stroke="#c71f1f" /><rect x="469.0" y="244.0" width="12.0" height="3" fill="#35df39" stroke="#03aa10" /><rect x="456.0" y="279.5" width="12.0" height="3" fill="#ff3c3c" stroke="#c71f1f" /><rect x="469.0" y="314.5" width="12.0" height="3" fill="#35df39" stroke="#03aa10" /><rect x="482.0" y="314.5" width="12.0" height="3" fill="#80c9ff" stroke="#0b6cba" /><rect x="456.0" y="349.5" width="12.0" height="3" fill="#ff3c3c" stroke="#c71f1f" /><rect x="469.0" y="367.0" width="12.0" height="3" fill="#35df39" stroke="#03aa10" /><rect x="456.0" y="402.5" width="12.0" height="3" fill="#ff3c3c" stroke="#c71f1f" /><rect x="469.0" y="420.0" width="12.0" height="3" fill="#35df39" stroke="#03aa10" /><rect x="456.0" y="455.0" width="12.0" height="3" fill="#ff3c3c" stroke="#c71f1f" /><rect x="456.0" y="490.0" width="12.0" height="3" fill="#ff3c3c" stroke="#c71f1f" /><rect x="456.0" y="525.0" width="12.0" height="3" fill="#ff3c3c" stroke="#c71f1f" /><rect x="469.0" y="542.5" width="12.0" height="3" fill="#35df39" stroke="#03aa10" /><rect x="456.0" y="578.0" width="12.0" height="3" fill="#ff3c3c" stroke="#c71f1f" /><rect x="469.0" y="595.5" width="12.0" height="3" fill="#35df39" stroke="#03aa10" /><rect x="482.0" y="630.5" width="12.0" height="3" fill="#80c9ff" stroke="#0b6cba" /><rect x="469.0" y="665.5" width="12.0" height="3" fill="#35df39" stroke="#03aa10" /><rect x="469.0" y="701.0" width="12.0" height="3" fill="#35df39" stroke="#03aa10" /><rect x="596.0" y="15.0" width="12.0" height="3" fill="#80c9ff" stroke="#0b6cba" /><rect x="583.0" y="50.0" width="12.0" height="3" fill="#35df39" stroke="#03aa10" /><rect x="596.0" y="67.5" width="12.0" height="3" fill="#80c9ff" stroke="#0b6cba" /><rect x="609.0" y="102.5" width="12.0" height="3" fill="#fff874" stroke="#eb9c26" /><rect x="596.0" y="137.5" width="12.0" height="3" fill="#80c9ff" stroke="#0b6cba" /><rect x="570.0" y="173.0" width="12.0" height="3" fill="#ff3c3c" stroke="#c71f1f" /><rect x="583.0" y="190.5" width="12.0" height="3" fill="#35df39" stroke="#03aa10" /><rect x="570.0" y="225.5" width="12.0" height="3" fill="#ff3c3c" stroke="#c71f1f" /><rect x="583.0" y="243.0" width="12.0" height="3" fill="#35df39" stroke="#03aa10" /><rect x="596.0" y="278.0" width="12.0" height="3" fill="#80c9ff" stroke="#0b6cba" /><rect x="583.0" y="313.0" width="12.0" height="3" fill="#35df39" stroke="#03aa10" /><rect x="570.0" y="351.5" width="12.0" height="3" fill="#ff3c3c" stroke="#c71f1f" /><rect x="583.0" y="351.5" width="12.0" height="3" fill="#35df39" stroke="#03aa10" /><rect x="583.0" y="457.0" width="12.0" height="3" fill="#35df39" stroke="#03aa10" /><rect x="596.0" y="457.0" width="12.0" height="3" fill="#80c9ff" stroke="#0b6cba" /><rect x="684.0" y="0.0" width="12.0" height="3" fill="#ff3c3c" stroke="#c71f1f" /><rect x="710.0" y="0.0" width="12.0" height="3" fill="#80c9ff" stroke="#0b6cba" /><rect x="710.0" y="105.0" width="12.0" height="3" fill="#80c9ff" stroke="#0b6cba" /><rect x="723.0" y="140.5" width="12.0" height="3" fill="#fff874" stroke="#eb9c26" /><rect x="710.0" y="175.5" width="12.0" height="3" fill="#80c9ff" stroke="#0b6cba" /><rect x="697.0" y="210.5" width="12.0" height="3" fill="#35df39" stroke="#03aa10" /><rect x="723.0" y="210.5" width="12.0" height="3" fill="#fff874" stroke="#eb9c26" /><rect x="697.0" y="316.0" width="12.0" height="3" fill="#35df39" stroke="#03aa10" /><rect x="710.0" y="316.0" width="12.0" height="3" fill="#80c9ff" stroke="#0b6cba" /><rect x="684.0" y="351.5" width="12.0" height="3" fill="#ff3c3c" stroke="#c71f1f" /><rect x="710.0" y="386.5" width="12.0" height="3" fill="#80c9ff" stroke="#0b6cba" /><rect x="798.0" y="0.0" width="12.0" height="3" fill="#ff3c3c" stroke="#c71f1f" /><rect x="811.0" y="0.0" width="12.0" height="3" fill="#35df39" stroke="#03aa10" /><rect x="811.0" y="70.5" width="12.0" height="3" fill="#35df39" stroke="#03aa10" /><rect x="824.0" y="105.5" width="12.0" height="3" fill="#80c9ff" stroke="#0b6cba" /><rect x="811.0" y="141.0" width="12.0" height="3" fill="#35df39" stroke="#03aa10" /><rect x="824.0" y="176.0" width="12.0" height="3" fill="#80c9ff" stroke="#0b6cba" /><rect x="824.0" y="211.0" width="12.0" height="3" fill="#80c9ff" stroke="#0b6cba" /><rect x="837.0" y="211.0" width="12.0" height="3" fill="#fff874" stroke="#eb9c26" /><rect x="811.0" y="316.5" width="12.0" height="3" fill="#35df39" stroke="#03aa10" /><rect x="824.0" y="316.5" width="12.0" height="3" fill="#80c9ff" stroke="#0b6cba" /><rect x="912.0" y="0.0" width="12.0" height="3" fill="#ff3c3c" stroke="#c71f1f" /><rect x="925.0" y="0.0" width="12.0" height="3" fill="#35df39" stroke="#03aa10" /><rect x="912.0" y="105.5" width="12.0" height="3" fill="#ff3c3c" stroke="#c71f1f" /><rect x="938.0" y="105.5" width="12.0" height="3" fill="#80c9ff" stroke="#0b6cba" /><rect x="912.0" y="140.5" width="12.0" height="3" fill="#ff3c3c" stroke="#c71f1f" /><rect x="925.0" y="140.5" width="12.0" height="3" fill="#35df39" stroke="#03aa10" /><rect x="912.0" y="176.0" width="12.0" height="3" fill="#ff3c3c" stroke="#c71f1f" /><rect x="938.0" y="211.0" width="12.0" height="3" fill="#80c9ff" stroke="#0b6cba" /><rect x="912.0" y="246.0" width="12.0" height="3" fill="#ff3c3c" stroke="#c71f1f" /><rect x="912.0" y="281.5" width="12.0" height="3" fill="#ff3c3c" stroke="#c71f1f" /><rect x="925.0" y="316.5" width="12.0" height="3" fill="#35df39" stroke="#03aa10" /><rect x="912.0" y="351.5" width="12.0" height="3" fill="#ff3c3c" stroke="#c71f1f" /><rect x="912.0" y="386.5" width="12.0" height="3" fill="#ff3c3c" stroke="#c71f1f" /><rect x="1065.0" y="0.0" width="12.0" height="3" fill="#fff874" stroke="#eb9c26" /><rect x="1039.0" y="35.0" width="12.0" height="3" fill="#35df39" stroke="#03aa10" /><rect x="1039.0" y="70.0" width="12.0" height="3" fill="#35df39" stroke="#03aa10" /><rect x="1052.0" y="105.5" width="12.0" height="3" fill="#80c9ff" stroke="#0b6cba" /><rect x="1039.0" y="140.5" width="12.0" height="3" fill="#35df39" stroke="#03aa10" /><rect x="1039.0" y="175.5" width="12.0" height="3" fill="#35df39" stroke="#03aa10" /><rect x="1026.0" y="211.0" width="12.0" height="3" fill="#ff3c3c" stroke="#c71f1f" /><rect x="1039.0" y="211.0" width="12.0" height="3" fill="#35df39" stroke="#03aa10" /><rect x="1039.0" y="316.5" width="12.0" height="3" fill="#35df39" stroke="#03aa10" /><rect x="1052.0" y="316.5" width="12.0" height="3" fill="#80c9ff" stroke="#0b6cba" /><rect x="1140.0" y="0.0" width="12.0" height="3" fill="#ff3c3c" stroke="#c71f1f" /><rect x="1166.0" y="0.0" width="12.0" height="3" fill="#80c9ff" stroke="#0b6cba" /><rect x="1166.0" y="105.0" width="12.0" height="3" fill="#80c9ff" stroke="#0b6cba" /><rect x="1179.0" y="140.5" width="12.0" height="3" fill="#fff874" stroke="#eb9c26" /><rect x="1166.0" y="175.5" width="12.0" height="3" fill="#80c9ff" stroke="#0b6cba" /><rect x="1153.0" y="210.5" width="12.0" height="3" fill="#35df39" stroke="#03aa10" /><rect x="1179.0" y="210.5" width="12.0" height="3" fill="#fff874" stroke="#eb9c26" /><rect x="1153.0" y="316.0" width="12.0" height="3" fill="#35df39" stroke="#03aa10" /><rect x="1166.0" y="316.0" width="12.0" height="3" fill="#80c9ff" stroke="#0b6cba" /><rect x="1140.0" y="351.5" width="12.0" height="3" fill="#ff3c3c" stroke="#c71f1f" /><rect x="1166.0" y="386.5" width="12.0" height="3" fill="#80c9ff" stroke="#0b6cba" /><rect x="1254.0" y="0.0" width="12.0" height="3" fill="#ff3c3c" stroke="#c71f1f" /><rect x="1267.0" y="0.0" width="12.0" height="3" fill="#35df39" stroke="#03aa10" /><rect x="1267.0" y="70.5" width="12.0" height="3" fill="#35df39" stroke="#03aa10" /><rect x="1280.0" y="105.5" width="12.0" height="3" fill="#80c9ff" stroke="#0b6cba" /><rect x="1267.0" y="141.0" width="12.0" height="3" fill="#35df39" stroke="#03aa10" /><rect x="1280.0" y="176.0" width="12.0" height="3" fill="#80c9ff" stroke="#0b6cba" /><rect x="1280.0" y="211.0" width="12.0" height="3" fill="#80c9ff" stroke="#0b6cba" /><rect x="1293.0" y="211.0" width="12.0" height="3" fill="#fff874" stroke="#eb9c26" /><rect x="1267.0" y="246.0" width="12.0" height="3" fill="#35df39" stroke="#03aa10" /><rect x="1280.0" y="281.5" width="12.0" height="3" fill="#80c9ff" stroke="#0b6cba" /><rect x="1293.0" y="316.5" width="12.0" height="3" fill="#fff874" stroke="#eb9c26" /><rect x="1280.0" y="387.0" width="12.0" height="3" fill="#80c9ff" stroke="#0b6cba" /><rect x="1368.0" y="0.0" width="12.0" height="3" fill="#ff3c3c" stroke="#c71f1f" /><rect x="1381.0" y="0.0" width="12.0" height="3" fill="#35df39" stroke="#03aa10" /><rect x="1407.0" y="35.0" width="12.0" height="3" fill="#fff874" stroke="#eb9c26" /><rect x="1394.0" y="70.5" width="12.0" height="3" fill="#80c9ff" stroke="#0b6cba" /><rect x="1381.0" y="105.5" width="12.0" height="3" fill="#35df39" stroke="#03aa10" /><rect x="1394.0" y="105.5" width="12.0" height="3" fill="#80c9ff" stroke="#0b6cba" /><rect x="1381.0" y="140.5" width="12.0" height="3" fill="#35df39" stroke="#03aa10" /><rect x="1368.0" y="176.0" width="12.0" height="3" fill="#ff3c3c" stroke="#c71f1f" /><rect x="1381.0" y="211.0" width="12.0" height="3" fill="#35df39" stroke="#03aa10" /><rect x="1381.0" y="263.5" width="12.0" height="3" fill="#35df39" stroke="#03aa10" /><rect x="1381.0" y="281.5" width="12.0" height="3" fill="#35df39" stroke="#03aa10" /><rect x="1381.0" y="316.5" width="12.0" height="3" fill="#35df39" stroke="#03aa10" /><rect x="1394.0" y="316.5" width="12.0" height="3" fill="#80c9ff" stroke="#0b6cba" /><rect x="1381.0" y="369.0" width="12.0" height="3" fill="#35df39" stroke="#03aa10" /><rect x="1394.0" y="369.0" width="12.0" height="3" fill="#80c9ff" stroke="#0b6cba" /><rect x="1381.0" y="386.5" width="12.0" height="3" fill="#35df39" stroke="#03aa10" /><rect x="1394.0" y="386.5" width="12.0" height="3" fill="#80c9ff" stroke="#0b6cba" /><rect x="1508.0" y="0.0" width="12.0" height="3" fill="#80c9ff" stroke="#0b6cba" /><rect x="1508.0" y="52.5" width="12.0" height="3" fill="#80c9ff" stroke="#0b6cba" /><rect x="1508.0" y="70.0" width="12.0" height="3" fill="#80c9ff" stroke="#0b6cba" /><rect x="1495.0" y="105.5" width="12.0" height="3" fill="#35df39" stroke="#03aa10" /><rect x="1508.0" y="105.5" width="12.0" height="3" fill="#80c9ff" stroke="#0b6cba" /><rect x="1482.0" y="140.5" width="12.0" height="3" fill="#ff3c3c" stroke="#c71f1f" /><rect x="1495.0" y="158.0" width="12.0" height="3" fill="#35df39" stroke="#03aa10" /><rect x="1508.0" y="175.5" width="12.0" height="3" fill="#80c9ff" stroke="#0b6cba" /><rect x="1495.0" y="193.0" width="12.0" height="3" fill="#35df39" stroke="#03aa10" /><rect x="1508.0" y="211.0" width="12.0" height="3" fill="#80c9ff" stroke="#0b6cba" /><rect x="1508.0" y="246.0" width="12.0" height="3" fill="#80c9ff" stroke="#0b6cba" /><rect x="1508.0" y="263.5" width="12.0" height="3" fill="#80c9ff" stroke="#0b6cba" /><rect x="1508.0" y="281.0" width="12.0" height="3" fill="#80c9ff" stroke="#0b6cba" /><rect x="1508.0" y="316.5" width="12.0" height="3" fill="#80c9ff" stroke="#0b6cba" /><rect x="1521.0" y="316.5" width="12.0" height="3" fill="#fff874" stroke="#eb9c26" /><rect x="1508.0" y="351.5" width="12.0" height="3" fill="#80c9ff" stroke="#0b6cba" /><rect x="1521.0" y="351.5" width="12.0" height="3" fill="#fff874" stroke="#eb9c26" /><rect x="1508.0" y="369.0" width="12.0" height="3" fill="#80c9ff" stroke="#0b6cba" /><rect x="1521.0" y="369.0" width="12.0" height="3" fill="#fff874" stroke="#eb9c26" /><rect x="1508.0" y="386.5" width="12.0" height="3" fill="#80c9ff" stroke="#0b6cba" /><rect x="1521.0" y="386.5" width="12.0" height="3" fill="#fff874" stroke="#eb9c26" /><rect x="1635.0" y="0.0" width="12.0" height="3" fill="#fff874" stroke="#eb9c26" /><rect x="1635.0" y="35.0" width="12.0" height="3" fill="#fff874" stroke="#eb9c26" /><rect x="1635.0" y="52.5" width="12.0" height="3" fill="#fff874" stroke="#eb9c26" /><rect x="1635.0" y="70.0" width="12.0" height="3" fill="#fff874" stroke="#eb9c26" /><rect x="1635.0" y="105.0" width="12.0" height="3" fill="#fff874" stroke="#eb9c26" /><rect x="1648.0" y="105.0" width="12.0" height="3" fill="#ff83f4" stroke="#d002bc" /><rect x="1635.0" y="140.5" width="12.0" height="3" fill="#fff874" stroke="#eb9c26" /><rect x="1648.0" y="140.5" width="12.0" height="3" fill="#ff83f4" stroke="#d002bc" /><rect x="1635.0" y="175.5" width="12.0" height="3" fill="#fff874" stroke="#eb9c26" /><rect x="1648.0" y="175.5" width="12.0" height="3" fill="#ff83f4" stroke="#d002bc" /><rect x="1635.0" y="210.5" width="12.0" height="3" fill="#fff874" stroke="#eb9c26" /><rect x="1609.0" y="228.5" width="12.0" height="3" fill="#35df39" stroke="#03aa10" /><rect x="1609.0" y="263.5" width="12.0" height="3" fill="#35df39" stroke="#03aa10" /><rect x="1609.0" y="298.5" width="12.0" height="3" fill="#35df39" stroke="#03aa10" /><rect x="1609.0" y="316.0" width="12.0" height="3" fill="#35df39" stroke="#03aa10" /><rect x="1609.0" y="333.5" width="12.0" height="3" fill="#35df39" stroke="#03aa10" /><rect x="1622.0" y="351.5" width="12.0" height="3" fill="#80c9ff" stroke="#0b6cba" /><rect x="1622.0" y="369.0" width="12.0" height="3" fill="#80c9ff" stroke="#0b6cba" /><rect x="1635.0" y="386.5" width="12.0" height="3" fill="#fff874" stroke="#eb9c26" /><rect x="1736.0" y="0.0" width="12.0" height="3" fill="#80c9ff" stroke="#0b6cba" /><rect x="1736.0" y="17.5" width="12.0" height="3" fill="#80c9ff" stroke="#0b6cba" /><rect x="1710.0" y="35.5" width="12.0" height="3" fill="#ff3c3c" stroke="#c71f1f" /><rect x="1710.0" y="53.0" width="12.0" height="3" fill="#ff3c3c" stroke="#c71f1f" /><rect x="1723.0" y="70.5" width="12.0" height="3" fill="#35df39" stroke="#03aa10" /><rect x="1723.0" y="88.0" width="12.0" height="3" fill="#35df39" stroke="#03aa10" /><rect x="1710.0" y="105.5" width="12.0" height="3" fill="#ff3c3c" stroke="#c71f1f" /><rect x="1762.0" y="211.0" width="12.0" height="94.95" fill="#ff83f4" stroke="#d002bc" /><rect x="1749.0" y="316.5" width="12.0" height="3" fill="#fff874" stroke="#eb9c26" /><rect x="1736.0" y="387.0" width="12.0" height="94.95" fill="#80c9ff" stroke="#0b6cba" /><rect x="1749.0" y="387.0" width="12.0" height="94.95" fill="#fff874" stroke="#eb9c26" /><rect x="1723.0" y="492.5" width="12.0" height="3" fill="#35df39" stroke="#03aa10" /><rect x="1736.0" y="492.5" width="12.0" height="3" fill="#80c9ff" stroke="#0b6cba" /><rect x="1824.0" y="0.0" width="12.0" height="3" fill="#ff3c3c" stroke="#c71f1f" /><rect x="1837.0" y="35.5" width="12.0" height="3" fill="#35df39" stroke="#03aa10" /><rect x="1863.0" y="70.5" width="12.0" height="3" fill="#fff874" stroke="#eb9c26" /><rect x="1850.0" y="105.5" width="12.0" height="3" fill="#80c9ff" stroke="#0b6cba" /><rect x="1837.0" y="141.0" width="12.0" height="3" fill="#35df39" stroke="#03aa10" /><rect x="1824.0" y="176.0" width="12.0" height="3" fill="#ff3c3c" stroke="#c71f1f" /><rect x="1824.0" y="211.0" width="12.0" height="3" fill="#ff3c3c" stroke="#c71f1f" /><rect x="1837.0" y="211.0" width="12.0" height="3" fill="#35df39" stroke="#03aa10" /><rect x="1837.0" y="246.0" width="12.0" height="3" fill="#35df39" stroke="#03aa10" /><rect x="1850.0" y="246.0" width="12.0" height="3" fill="#80c9ff" stroke="#0b6cba" /><rect x="1850.0" y="281.5" width="12.0" height="3" fill="#80c9ff" stroke="#0b6cba" /><rect x="1837.0" y="316.5" width="12.0" height="3" fill="#35df39" stroke="#03aa10" /><rect x="1850.0" y="351.5" width="12.0" height="3" fill="#80c9ff" stroke="#0b6cba" /><rect x="1863.0" y="351.5" width="12.0" height="3" fill="#fff874" stroke="#eb9c26" /><rect x="1964.0" y="0.0" width="12.0" height="3" fill="#80c9ff" stroke="#0b6cba" /><rect x="1964.0" y="52.5" width="12.0" height="3" fill="#80c9ff" stroke="#0b6cba" /><rect x="1964.0" y="70.5" width="12.0" height="3" fill="#80c9ff" stroke="#0b6cba" /><rect x="1951.0" y="105.5" width="12.0" height="3" fill="#35df39" stroke="#03aa10" /><rect x="1964.0" y="105.5" width="12.0" height="3" fill="#80c9ff" stroke="#0b6cba" /><rect x="1951.0" y="140.5" width="12.0" height="3" fill="#35df39" stroke="#03aa10" /><rect x="1964.0" y="140.5" width="12.0" height="3" fill="#80c9ff" stroke="#0b6cba" /><rect x="1951.0" y="176.0" width="12.0" height="3" fill="#35df39" stroke="#03aa10" /><rect x="1951.0" y="228.5" width="12.0" height="3" fill="#35df39" stroke="#03aa10" /><rect x="1951.0" y="246.0" width="12.0" height="3" fill="#35df39" stroke="#03aa10" /><rect x="1938.0" y="281.5" width="12.0" height="3" fill="#ff3c3c" stroke="#c71f1f" /><rect x="1951.0" y="281.5" width="12.0" height="3" fill="#35df39" stroke="#03aa10" /><rect x="1938.0" y="316.5" width="12.0" height="3" fill="#ff3c3c" stroke="#c71f1f" /><rect x="1951.0" y="316.5" width="12.0" height="3" fill="#35df39" stroke="#03aa10" /><rect x="1938.0" y="351.5" width="12.0" height="3" fill="#ff3c3c" stroke="#c71f1f" /><rect x="1951.0" y="386.5" width="12.0" height="3" fill="#35df39" stroke="#03aa10" /><rect x="1977.0" y="422.0" width="12.0" height="3" fill="#fff874" stroke="#eb9c26" /><rect x="1964.0" y="457.0" width="12.0" height="3" fill="#80c9ff" stroke="#0b6cba" /><rect x="1951.0" y="492.0" width="12.0" height="3" fill="#35df39" stroke="#03aa10" /><rect x="1938.0" y="527.5" width="12.0" height="3" fill="#ff3c3c" stroke="#c71f1f" /><rect x="2052.0" y="0.0" width="12.0" height="3" fill="#ff3c3c" stroke="#c71f1f" /><rect x="2065.0" y="0.0" width="12.0" height="3" fill="#35df39" stroke="#03aa10" /><rect x="2052.0" y="35.0" width="12.0" height="3" fill="#ff3c3c" stroke="#c71f1f" /><rect x="2078.0" y="35.0" width="12.0" height="3" fill="#80c9ff" stroke="#0b6cba" /><rect x="2078.0" y="70.5" width="12.0" height="3" fill="#80c9ff" stroke="#0b6cba" /><rect x="2065.0" y="105.5" width="12.0" height="3" fill="#35df39" stroke="#03aa10" /><rect x="2091.0" y="140.5" width="12.0" height="3" fill="#fff874" stroke="#eb9c26" /><rect x="2078.0" y="176.0" width="12.0" height="3" fill="#80c9ff" stroke="#0b6cba" /><rect x="2065.0" y="211.0" width="12.0" height="3" fill="#35df39" stroke="#03aa10" /><rect x="2078.0" y="211.0" width="12.0" height="3" fill="#80c9ff" stroke="#0b6cba" /><rect x="2065.0" y="263.5" width="12.0" height="3" fill="#35df39" stroke="#03aa10" /><rect x="2078.0" y="263.5" width="12.0" height="3" fill="#80c9ff" stroke="#0b6cba" /><rect x="2065.0" y="281.5" width="12.0" height="3" fill="#35df39" stroke="#03aa10" /><rect x="2078.0" y="281.5" width="12.0" height="3" fill="#80c9ff" stroke="#0b6cba" /><rect x="2078.0" y="316.5" width="12.0" height="3" fill="#80c9ff" stroke="#0b6cba" /><rect x="2078.0" y="351.5" width="12.0" height="3" fill="#80c9ff" stroke="#0b6cba" /><rect x="2065.0" y="386.5" width="12.0" height="3" fill="#35df39" stroke="#03aa10" /><rect x="2166.0" y="0.0" width="12.0" height="3" fill="#ff3c3c" stroke="#c71f1f" /><rect x="2179.0" y="0.0" width="12.0" height="3" fill="#35df39" stroke="#03aa10" /><rect x="2166.0" y="52.5" width="12.0" height="3" fill="#ff3c3c" stroke="#c71f1f" /><rect x="2179.0" y="52.5" width="12.0" height="3" fill="#35df39" stroke="#03aa10" /><rect x="2166.0" y="70.0" width="12.0" height="3" fill="#ff3c3c" stroke="#c71f1f" /><rect x="2179.0" y="70.0" width="12.0" height="3" fill="#35df39" stroke="#03aa10" /><rect x="2166.0" y="105.5" width="12.0" height="3" fill="#ff3c3c" stroke="#c71f1f" /><rect x="2179.0" y="140.5" width="12.0" height="3" fill="#35df39" stroke="#03aa10" /><rect x="2166.0" y="175.5" width="12.0" height="3" fill="#ff3c3c" stroke="#c71f1f" /><rect x="2166.0" y="211.0" width="12.0" height="3" fill="#ff3c3c" stroke="#c71f1f" /><rect x="2192.0" y="211.0" width="12.0" height="3" fill="#80c9ff" stroke="#0b6cba" /><rect x="2166.0" y="263.5" width="12.0" height="3" fill="#ff3c3c" stroke="#c71f1f" /><rect x="2179.0" y="316.5" width="12.0" height="3" fill="#35df39" stroke="#03aa10" /><rect x="2192.0" y="316.5" width="12.0" height="3" fill="#80c9ff" stroke="#0b6cba" /><rect x="2205.0" y="369.0" width="12.0" height="3" fill="#fff874" stroke="#eb9c26" /><rect x="2306.0" y="0.0" width="12.0" height="3" fill="#80c9ff" stroke="#0b6cba" /><rect x="2319.0" y="0.0" width="12.0" height="3" fill="#fff874" stroke="#eb9c26" /><rect x="2306.0" y="17.5" width="12.0" height="3" fill="#80c9ff" stroke="#0b6cba" /><rect x="2319.0" y="17.5" width="12.0" height="3" fill="#fff874" stroke="#eb9c26" /><rect x="2306.0" y="52.5" width="12.0" height="3" fill="#80c9ff" stroke="#0b6cba" /><rect x="2319.0" y="52.5" width="12.0" height="3" fill="#fff874" stroke="#eb9c26" /><rect x="2306.0" y="70.0" width="12.0" height="3" fill="#80c9ff" stroke="#0b6cba" /><rect x="2319.0" y="70.0" width="12.0" height="3" fill="#fff874" stroke="#eb9c26" /><rect x="2293.0" y="105.0" width="12.0" height="3" fill="#35df39" stroke="#03aa10" /><rect x="2280.0" y="140.5" width="12.0" height="3" fill="#ff3c3c" stroke="#c71f1f" /><rect x="2293.0" y="175.5" width="12.0" height="3" fill="#35df39" stroke="#03aa10" /><rect x="2293.0" y="210.5" width="12.0" height="3" fill="#35df39" stroke="#03aa10" /><rect x="2306.0" y="210.5" width="12.0" height="3" fill="#80c9ff" stroke="#0b6cba" /><rect x="2306.0" y="263.5" width="12.0" height="3" fill="#80c9ff" stroke="#0b6cba" /><rect x="2319.0" y="263.5" width="12.0" height="3" fill="#fff874" stroke="#eb9c26" /><rect x="2280.0" y="316.0" width="12.0" height="3" fill="#ff3c3c" stroke="#c71f1f" /><rect x="2293.0" y="316.0" width="12.0" height="3" fill="#35df39" stroke="#03aa10" /><rect x="2306.0" y="369.0" width="12.0" height="3" fill="#80c9ff" stroke="#0b6cba" /><rect x="2319.0" y="369.0" width="12.0" height="3" fill="#fff874" stroke="#eb9c26" /><rect x="2394.0" y="0.0" width="12.0" height="3" fill="#ff3c3c" stroke="#c71f1f" /><rect x="2420.0" y="0.0" width="12.0" height="3" fill="#80c9ff" stroke="#0b6cba" /><rect x="2407.0" y="35.5" width="12.0" height="3" fill="#35df39" stroke="#03aa10" /><rect x="2433.0" y="70.5" width="12.0" height="3" fill="#fff874" stroke="#eb9c26" /><rect x="2446.0" y="105.5" width="12.0" height="3" fill="#ff83f4" stroke="#d002bc" /><rect x="2446.0" y="123.0" width="12.0" height="3" fill="#ff83f4" stroke="#d002bc" /><rect x="2420.0" y="141.0" width="12.0" height="3" fill="#80c9ff" stroke="#0b6cba" /><rect x="2420.0" y="158.5" width="12.0" height="3" fill="#80c9ff" stroke="#0b6cba" /><rect x="2433.0" y="176.0" width="12.0" height="3" fill="#fff874" stroke="#eb9c26" /><rect x="2433.0" y="193.5" width="12.0" height="3" fill="#fff874" stroke="#eb9c26" /><rect x="2407.0" y="211.0" width="12.0" height="3" fill="#35df39" stroke="#03aa10" /><rect x="2433.0" y="246.0" width="12.0" height="3" fill="#fff874" stroke="#eb9c26" /><rect x="2407.0" y="281.5" width="12.0" height="3" fill="#35df39" stroke="#03aa10" /><rect x="2420.0" y="281.5" width="12.0" height="3" fill="#80c9ff" stroke="#0b6cba" /><rect x="2420.0" y="316.5" width="12.0" height="3" fill="#80c9ff" stroke="#0b6cba" /><rect x="2446.0" y="351.5" width="12.0" height="3" fill="#ff83f4" stroke="#d002bc" /><rect x="2420.0" y="387.0" width="12.0" height="3" fill="#80c9ff" stroke="#0b6cba" /><rect x="2433.0" y="387.0" width="12.0" height="3" fill="#fff874" stroke="#eb9c26" /><rect x="2508.0" y="0.0" width="12.0" height="3" fill="#ff3c3c" stroke="#c71f1f" /><rect x="2534.0" y="35.0" width="12.0" height="3" fill="#80c9ff" stroke="#0b6cba" /><rect x="2508.0" y="70.5" width="12.0" height="3" fill="#ff3c3c" stroke="#c71f1f" /><rect x="2521.0" y="70.5" width="12.0" height="3" fill="#35df39" stroke="#03aa10" /><rect x="2521.0" y="105.5" width="12.0" height="3" fill="#35df39" stroke="#03aa10" /><rect x="2534.0" y="105.5" width="12.0" height="3" fill="#80c9ff" stroke="#0b6cba" /><rect x="2521.0" y="211.0" width="12.0" height="211.0" fill="#35df39" stroke="#03aa10" /><rect x="2547.0" y="211.0" width="12.0" height="211.0" fill="#fff874" stroke="#eb9c26" /><rect x="2622.0" y="0.0" width="12.0" height="189.9" fill="#ff3c3c" stroke="#c71f1f" /><rect x="2648.0" y="0.0" width="12.0" height="189.9" fill="#80c9ff" stroke="#0b6cba" /><rect x="2661.0" y="211.0" width="12.0" height="3" fill="#fff874" stroke="#eb9c26" /><rect x="2648.0" y="246.0" width="12.0" height="3" fill="#80c9ff" stroke="#0b6cba" /><rect x="2635.0" y="281.0" width="12.0" height="3" fill="#35df39" stroke="#03aa10" /><rect x="2622.0" y="316.5" width="12.0" height="3" fill="#ff3c3c" stroke="#c71f1f" /><rect x="2635.0" y="351.5" width="12.0" height="3" fill="#35df39" stroke="#03aa10" /><rect x="2648.0" y="386.5" width="12.0" height="3" fill="#80c9ff" stroke="#0b6cba" /><rect x="2762.0" y="0.0" width="12.0" height="3" fill="#80c9ff" stroke="#0b6cba" /><rect x="2775.0" y="0.0" width="12.0" height="3" fill="#fff874" stroke="#eb9c26" /><rect x="2788.0" y="105.0" width="12.0" height="3" fill="#ff83f4" stroke="#d002bc" /><rect x="2775.0" y="123.0" width="12.0" height="3" fill="#fff874" stroke="#eb9c26" /><rect x="2788.0" y="140.5" width="12.0" height="3" fill="#ff83f4" stroke="#d002bc" /><rect x="2762.0" y="175.5" width="12.0" height="3" fill="#80c9ff" stroke="#0b6cba" /><rect x="2749.0" y="210.5" width="12.0" height="3" fill="#35df39" stroke="#03aa10" /><rect x="2749.0" y="263.5" width="12.0" height="3" fill="#35df39" stroke="#03aa10" /><rect x="2749.0" y="281.0" width="12.0" height="3" fill="#35df39" stroke="#03aa10" /><rect x="2749.0" y="316.0" width="12.0" height="3" fill="#35df39" stroke="#03aa10" /><rect x="2762.0" y="316.0" width="12.0" height="3" fill="#80c9ff" stroke="#0b6cba" /><rect x="2749.0" y="369.0" width="12.0" height="3" fill="#35df39" stroke="#03aa10" /><rect x="2762.0" y="369.0" width="12.0" height="3" fill="#80c9ff" stroke="#0b6cba" /><rect x="2749.0" y="386.5" width="12.0" height="3" fill="#35df39" stroke="#03aa10" /><rect x="2762.0" y="386.5" width="12.0" height="3" fill="#80c9ff" stroke="#0b6cba" /><rect x="2876.0" y="0.0" width="12.0" height="3" fill="#80c9ff" stroke="#0b6cba" /><rect x="2876.0" y="35.5" width="12.0" height="3" fill="#80c9ff" stroke="#0b6cba" /><rect x="2876.0" y="70.5" width="12.0" height="3" fill="#80c9ff" stroke="#0b6cba" /><rect x="2863.0" y="105.5" width="12.0" height="3" fill="#35df39" stroke="#03aa10" /><rect x="2876.0" y="105.5" width="12.0" height="3" fill="#80c9ff" stroke="#0b6cba" /><rect x="2850.0" y="141.0" width="12.0" height="3" fill="#ff3c3c" stroke="#c71f1f" /><rect x="2863.0" y="158.5" width="12.0" height="3" fill="#35df39" stroke="#03aa10" /><rect x="2876.0" y="176.0" width="12.0" height="3" fill="#80c9ff" stroke="#0b6cba" /><rect x="2863.0" y="193.5" width="12.0" height="3" fill="#35df39" stroke="#03aa10" /><rect x="2876.0" y="211.0" width="12.0" height="3" fill="#80c9ff" stroke="#0b6cba" /><rect x="2876.0" y="246.0" width="12.0" height="3" fill="#80c9ff" stroke="#0b6cba" /><rect x="2876.0" y="264.0" width="12.0" height="3" fill="#80c9ff" stroke="#0b6cba" /><rect x="2876.0" y="281.5" width="12.0" height="3" fill="#80c9ff" stroke="#0b6cba" /><rect x="2876.0" y="316.5" width="12.0" height="3" fill="#80c9ff" stroke="#0b6cba" /><rect x="2889.0" y="316.5" width="12.0" height="3" fill="#fff874" stroke="#eb9c26" /><rect x="2876.0" y="351.5" width="12.0" height="3" fill="#80c9ff" stroke="#0b6cba" /><rect x="2889.0" y="351.5" width="12.0" height="3" fill="#fff874" stroke="#eb9c26" /><rect x="2876.0" y="369.5" width="12.0" height="3" fill="#80c9ff" stroke="#0b6cba" /><rect x="2889.0" y="369.5" width="12.0" height="3" fill="#fff874" stroke="#eb9c26" /><rect x="2876.0" y="387.0" width="12.0" height="3" fill="#80c9ff" stroke="#0b6cba" /><rect x="2889.0" y="387.0" width="12.0" height="3" fill="#fff874" stroke="#eb9c26" /><rect x="3003.0" y="0.0" width="12.0" height="3" fill="#fff874" stroke="#eb9c26" /><rect x="3003.0" y="35.0" width="12.0" height="3" fill="#fff874" stroke="#eb9c26" /><rect x="3003.0" y="52.5" width="12.0" height="3" fill="#fff874" stroke="#eb9c26" /><rect x="3003.0" y="70.5" width="12.0" height="3" fill="#fff874" stroke="#eb9c26" /><rect x="3003.0" y="105.5" width="12.0" height="3" fill="#fff874" stroke="#eb9c26" /><rect x="3016.0" y="105.5" width="12.0" height="3" fill="#ff83f4" stroke="#d002bc" /><rect x="2990.0" y="140.5" width="12.0" height="3" fill="#80c9ff" stroke="#0b6cba" /><rect x="3003.0" y="176.0" width="12.0" height="3" fill="#fff874" stroke="#eb9c26" /><rect x="3016.0" y="176.0" width="12.0" height="3" fill="#ff83f4" stroke="#d002bc" /><rect x="2990.0" y="316.5" width="12.0" height="3" fill="#80c9ff" stroke="#0b6cba" /><rect x="2990.0" y="369.0" width="12.0" height="3" fill="#80c9ff" stroke="#0b6cba" /><rect x="2990.0" y="386.5" width="12.0" height="3" fill="#80c9ff" stroke="#0b6cba" /><rect x="2977.0" y="422.0" width="12.0" height="3" fill="#35df39" stroke="#03aa10" /><rect x="2990.0" y="422.0" width="12.0" height="3" fill="#80c9ff" stroke="#0b6cba" /><rect x="2977.0" y="457.0" width="12.0" height="3" fill="#35df39" stroke="#03aa10" /><rect x="2990.0" y="457.0" width="12.0" height="3" fill="#80c9ff" stroke="#0b6cba" /><rect x="3091.0" y="0.0" width="12.0" height="3" fill="#35df39" stroke="#03aa10" /><rect x="3091.0" y="53.0" width="12.0" height="3" fill="#35df39" stroke="#03aa10" /><rect x="3091.0" y="70.5" width="12.0" height="3" fill="#35df39" stroke="#03aa10" /><rect x="3078.0" y="105.5" width="12.0" height="3" fill="#ff3c3c" stroke="#c71f1f" /><rect x="3091.0" y="105.5" width="12.0" height="3" fill="#35df39" stroke="#03aa10" /><rect x="3078.0" y="141.0" width="12.0" height="3" fill="#ff3c3c" stroke="#c71f1f" /><rect x="3091.0" y="141.0" width="12.0" height="3" fill="#35df39" stroke="#03aa10" /><rect x="3078.0" y="176.0" width="12.0" height="3" fill="#ff3c3c" stroke="#c71f1f" /><rect x="3091.0" y="211.0" width="12.0" height="3" fill="#35df39" stroke="#03aa10" /><rect x="3117.0" y="246.5" width="12.0" height="3" fill="#fff874" stroke="#eb9c26" /><rect x="3104.0" y="281.5" width="12.0" height="3" fill="#80c9ff" stroke="#0b6cba" /><rect x="3091.0" y="316.5" width="12.0" height="3" fill="#35df39" stroke="#03aa10" /><rect x="3078.0" y="352.0" width="12.0" height="3" fill="#ff3c3c" stroke="#c71f1f" /><rect x="3078.0" y="387.0" width="12.0" height="3" fill="#ff3c3c" stroke="#c71f1f" /><rect x="3091.0" y="387.0" width="12.0" height="3" fill="#35df39" stroke="#03aa10" /><rect x="3078.0" y="422.0" width="12.0" height="3" fill="#ff3c3c" stroke="#c71f1f" /><rect x="3104.0" y="422.0" width="12.0" height="3" fill="#80c9ff" stroke="#0b6cba" /><rect x="3104.0" y="457.0" width="12.0" height="3" fill="#80c9ff" stroke="#0b6cba" /><rect x="3205.0" y="0.0" width="12.0" height="3" fill="#35df39" stroke="#03aa10" /><rect x="3231.0" y="35.0" width="12.0" height="3" fill="#fff874" stroke="#eb9c26" /><rect x="3218.0" y="70.0" width="12.0" height="3" fill="#80c9ff" stroke="#0b6cba" /><rect x="3205.0" y="105.5" width="12.0" height="3" fill="#35df39" stroke="#03aa10" /><rect x="3218.0" y="105.5" width="12.0" height="3" fill="#80c9ff" stroke="#0b6cba" /><rect x="3205.0" y="123.0" width="12.0" height="3" fill="#35df39" stroke="#03aa10" /><rect x="3218.0" y="123.0" width="12.0" height="3" fill="#80c9ff" stroke="#0b6cba" /><rect x="3205.0" y="158.0" width="12.0" height="3" fill="#35df39" stroke="#03aa10" /><rect x="3218.0" y="158.0" width="12.0" height="3" fill="#80c9ff" stroke="#0b6cba" /><rect x="3205.0" y="175.5" width="12.0" height="3" fill="#35df39" stroke="#03aa10" /><rect x="3218.0" y="175.5" width="12.0" height="3" fill="#80c9ff" stroke="#0b6cba" /><rect x="3218.0" y="211.0" width="12.0" height="3" fill="#80c9ff" stroke="#0b6cba" /><rect x="3218.0" y="246.0" width="12.0" height="3" fill="#80c9ff" stroke="#0b6cba" /><rect x="3205.0" y="281.0" width="12.0" height="3" fill="#35df39" stroke="#03aa10" /><rect x="3192.0" y="316.5" width="12.0" height="3" fill="#ff3c3c" stroke="#c71f1f" /><rect x="3205.0" y="316.5" width="12.0" height="3" fill="#35df39" stroke="#03aa10" /><rect x="3205.0" y="334.0" width="12.0" height="3" fill="#35df39" stroke="#03aa10" /><rect x="3205.0" y="369.0" width="12.0" height="3" fill="#35df39" stroke="#03aa10" /><rect x="3192.0" y="386.5" width="12.0" height="3" fill="#ff3c3c" stroke="#c71f1f" /><rect x="3306.0" y="0.0" width="12.0" height="3" fill="#ff3c3c" stroke="#c71f1f" /><rect x="3319.0" y="35.0" width="12.0" height="3" fill="#35df39" stroke="#03aa10" /><rect x="3332.0" y="70.0" width="12.0" height="3" fill="#80c9ff" stroke="#0b6cba" /><rect x="3319.0" y="105.0" width="12.0" height="3" fill="#35df39" stroke="#03aa10" /><rect x="3332.0" y="105.0" width="12.0" height="3" fill="#80c9ff" stroke="#0b6cba" /><rect x="3319.0" y="123.0" width="12.0" height="3" fill="#35df39" stroke="#03aa10" /><rect x="3332.0" y="123.0" width="12.0" height="3" fill="#80c9ff" stroke="#0b6cba" /><rect x="3319.0" y="158.0" width="12.0" height="3" fill="#35df39" stroke="#03aa10" /><rect x="3332.0" y="158.0" width="12.0" height="3" fill="#80c9ff" stroke="#0b6cba" /><rect x="3319.0" y="175.5" width="12.0" height="3" fill="#35df39" stroke="#03aa10" /><rect x="3332.0" y="175.5" width="12.0" height="3" fill="#80c9ff" stroke="#0b6cba" /><rect x="3319.0" y="193.0" width="12.0" height="3" fill="#35df39" stroke="#03aa10" /><rect x="3332.0" y="210.5" width="12.0" height="3" fill="#80c9ff" stroke="#0b6cba" /><rect x="3306.0" y="246.0" width="12.0" height="3" fill="#ff3c3c" stroke="#c71f1f" /><rect x="3332.0" y="281.0" width="12.0" height="3" fill="#80c9ff" stroke="#0b6cba" /><rect x="3319.0" y="316.0" width="12.0" height="3" fill="#35df39" stroke="#03aa10" /><rect x="3345.0" y="333.5" width="12.0" height="3" fill="#fff874" stroke="#eb9c26" /><rect x="3345.0" y="369.0" width="12.0" height="3" fill="#fff874" stroke="#eb9c26" /><rect x="3332.0" y="386.5" width="12.0" height="3" fill="#80c9ff" stroke="#0b6cba" /><rect x="3433.0" y="0.0" width="12.0" height="3" fill="#35df39" stroke="#03aa10" /><rect x="3446.0" y="0.0" width="12.0" height="3" fill="#80c9ff" stroke="#0b6cba" /><rect x="3459.0" y="35.5" width="12.0" height="3" fill="#fff874" stroke="#eb9c26" /><rect x="3472.0" y="70.5" width="12.0" height="3" fill="#ff83f4" stroke="#d002bc" /><rect x="3446.0" y="105.5" width="12.0" height="3" fill="#80c9ff" stroke="#0b6cba" /><rect x="3459.0" y="141.0" width="12.0" height="3" fill="#fff874" stroke="#eb9c26" /><rect x="3472.0" y="176.0" width="12.0" height="3" fill="#ff83f4" stroke="#d002bc" /><rect x="3459.0" y="211.0" width="12.0" height="3" fill="#fff874" stroke="#eb9c26" /><rect x="3446.0" y="246.0" width="12.0" height="3" fill="#80c9ff" stroke="#0b6cba" /><rect x="3433.0" y="281.5" width="12.0" height="3" fill="#35df39" stroke="#03aa10" /><rect x="3420.0" y="316.5" width="12.0" height="3" fill="#ff3c3c" stroke="#c71f1f" /><rect x="3446.0" y="351.5" width="12.0" height="3" fill="#80c9ff" stroke="#0b6cba" /><rect x="3420.0" y="387.0" width="12.0" height="3" fill="#ff3c3c" stroke="#c71f1f" /><rect x="3433.0" y="404.5" width="12.0" height="3" fill="#35df39" stroke="#03aa10" /><rect x="3560.0" y="0.0" width="12.0" height="3" fill="#80c9ff" stroke="#0b6cba" /><rect x="3560.0" y="17.5" width="12.0" height="3" fill="#80c9ff" stroke="#0b6cba" /><rect x="3573.0" y="35.0" width="12.0" height="3" fill="#fff874" stroke="#eb9c26" /><rect x="3573.0" y="52.5" width="12.0" height="3" fill="#fff874" stroke="#eb9c26" /><rect x="3560.0" y="70.5" width="12.0" height="3" fill="#80c9ff" stroke="#0b6cba" /><rect x="3560.0" y="88.0" width="12.0" height="3" fill="#80c9ff" stroke="#0b6cba" /><rect x="3573.0" y="105.5" width="12.0" height="3" fill="#fff874" stroke="#eb9c26" /><rect x="3573.0" y="140.5" width="12.0" height="3" fill="#fff874" stroke="#eb9c26" /><rect x="3586.0" y="158.0" width="12.0" height="3" fill="#ff83f4" stroke="#d002bc" /><rect x="3586.0" y="193.5" width="12.0" height="3" fill="#ff83f4" stroke="#d002bc" /><rect x="3560.0" y="211.0" width="12.0" height="3" fill="#80c9ff" stroke="#0b6cba" /><rect x="3560.0" y="246.0" width="12.0" height="3" fill="#80c9ff" stroke="#0b6cba" /><rect x="3586.0" y="263.5" width="12.0" height="3" fill="#ff83f4" stroke="#d002bc" /><rect x="3586.0" y="299.0" width="12.0" height="3" fill="#ff83f4" stroke="#d002bc" /><rect x="3547.0" y="316.5" width="12.0" height="3" fill="#35df39" stroke="#03aa10" /><rect x="3547.0" y="351.5" width="12.0" height="3" fill="#35df39" stroke="#03aa10" /><rect x="3573.0" y="369.0" width="12.0" height="3" fill="#fff874" stroke="#eb9c26" /><rect x="3700.0" y="0.0" width="12.0" height="3" fill="#ff83f4" stroke="#d002bc" /><rect x="3700.0" y="17.5" width="12.0" height="3" fill="#ff83f4" stroke="#d002bc" /><rect x="3674.0" y="35.0" width="12.0" height="3" fill="#80c9ff" stroke="#0b6cba" /><rect x="3674.0" y="52.5" width="12.0" height="3" fill="#80c9ff" stroke="#0b6cba" /><rect x="3687.0" y="70.0" width="12.0" height="3" fill="#fff874" stroke="#eb9c26" /><rect x="3687.0" y="88.0" width="12.0" height="3" fill="#fff874" stroke="#eb9c26" /><rect x="3674.0" y="105.5" width="12.0" height="3" fill="#80c9ff" stroke="#0b6cba" /><rect x="3687.0" y="140.5" width="12.0" height="3" fill="#fff874" stroke="#eb9c26" /><rect x="3661.0" y="175.5" width="12.0" height="3" fill="#35df39" stroke="#03aa10" /><rect x="3674.0" y="211.0" width="12.0" height="3" fill="#80c9ff" stroke="#0b6cba" /><rect x="3700.0" y="246.0" width="12.0" height="3" fill="#ff83f4" stroke="#d002bc" /><rect x="3687.0" y="281.0" width="12.0" height="3" fill="#fff874" stroke="#eb9c26" /><rect x="3661.0" y="316.5" width="12.0" height="3" fill="#35df39" stroke="#03aa10" /><rect x="3674.0" y="351.5" width="12.0" height="3" fill="#80c9ff" stroke="#0b6cba" /><rect x="3661.0" y="386.5" width="12.0" height="3" fill="#35df39" stroke="#03aa10" /><rect x="3762.0" y="0.0" width="12.0" height="3" fill="#ff3c3c" stroke="#c71f1f" /><rect x="3788.0" y="105.0" width="12.0" height="3" fill="#80c9ff" stroke="#0b6cba" /><rect x="3801.0" y="140.5" width="12.0" height="3" fill="#fff874" stroke="#eb9c26" /><rect x="3788.0" y="175.5" width="12.0" height="3" fill="#80c9ff" stroke="#0b6cba" /><rect x="3775.0" y="210.5" width="12.0" height="3" fill="#35df39" stroke="#03aa10" /><rect x="3762.0" y="247.5" width="12.0" height="3" fill="#ff3c3c" stroke="#c71f1f" /><rect x="3788.0" y="284.0" width="12.0" height="3" fill="#80c9ff" stroke="#0b6cba" /><rect x="3801.0" y="320.5" width="12.0" height="3" fill="#fff874" stroke="#eb9c26" /><rect x="3788.0" y="362.0" width="12.0" height="3" fill="#80c9ff" stroke="#0b6cba" /><rect x="3762.0" y="404.0" width="12.0" height="3" fill="#ff3c3c" stroke="#c71f1f" /><rect x="3876.0" y="0.0" width="12.0" height="3" fill="#ff3c3c" stroke="#c71f1f" /><rect x="3889.0" y="0.0" width="12.0" height="3" fill="#35df39" stroke="#03aa10" /></svg>