<?xml version="1.0" encoding="UTF-8"?><svg xmlns="http://www.w3.org/2000/svg" xmlns:xlink="http://www.w3.org/1999/xlink"     width="1482" height="1185.0" viewBox="0 0 1482 1185.0"><defs></defs><rect x="0" y="0" width="64" height="1170.5" fill="black" /><rect x="0" y="0.0" width="64" height="1" fill="white" fill-opacity="0.5" /><text x="74" y="14.0" font-size="14" fill="white" font-family="monospace" dominant-baseline="ideographic">1</text><rect x="0" y="73.0" width="64" height="1" fill="white" fill-opacity="0.2" /><rect x="0" y="146.5" width="64" height="1" fill="white" fill-opacity="0.2" /><rect x="0" y="219.5" width="64" height="1" fill="white" fill-opacity="0.2" /><rect x="0" y="292.5" width="64" height="1" fill="white" fill-opacity="0.5" /><text x="74" y="306.5" font-size="14" fill="white" font-family="monospace" dominant-baseline="ideographic">2</text><rect x="0" y="366.0" width="64" height="1" fill="white" fill-opacity="0.2" /><rect x="0" y="439.0" width="64" height="1" fill="white" fill-opacity="0.2" /><rect x="0" y="512.0" width="64" height="1" fill="white" fill-opacity="0.2" /><rect x="0" y="585.5" width="64" height="1" fill="white" fill-opacity="0.5" /><text x="74" y="599.5" font-size="14" fill="white" font-family="monospace" dominant-baseline="ideographic">3</text><rect x="0" y="658.5" width="64" height="1" fill="white" fill-opacity="0.2" /><rect x="0" y="731.5" width="64" height="1" fill="white" fill-opacity="0.2" /><rect x="0" y="805.0" width="64" height="1" fill="white" fill-opacity="0.2" /><rect x="0" y="878.0" width="64" height="1" fill="white" fill-opacity="0.5" /><text x="74" y="892.0" font-size="14" fill="white" font-family="monospace" dominant-baseline="ideographic">4</text><rect x="0" y="951.0" width="64" height="1" fill="white" fill-opacity="0.2" /><rect x="0" y="1024.5" width="64" height="1" fill="white" fill-opacity="0.2" /><rect x="0" y="1097.5" width="64" height="1" fill="white" fill-opacity="0.2" /><rect x="0" y="1170.5" width="64" height="1" fill="white" fill-opacity="0.5" /><text x="74" y="1184.5" font-size="14" fill="white" font-family="monospace" dominant-baseline="ideographic">5</text><rect x="0" y="0.0" width="64" height="1" fill="aqua" fill-opacity="0.75" /><text x="0" y="14.0" font-size="14" fill="aqua" fill-opacity="0.75" font-family="monospace">Intro</text><rect x="0" y="878.0999999999999" width="64" height="1" fill="aqua" fill-opacity="0.75" /><text x="0" y="892.0999999999999" font-size="14" fill="aqua" fill-opacity="0.75" font-family="monospace">Phrase A</text><rect x="0" y="0.0" width="64" height="1" fill="lime" fill-opacity="0.75" /><text x="74" y="28.0" font-size="14" fill="lime" font-family="monospace" dominant-baseline="ideographic">123</text><rect x="114" y="0" width="64" height="1171.0" fill="black" /><rect x="114" y="0.0" width="64" height="1" fill="white" fill-opacity="0.5" /><text x="188" y="14.0" font-size="14" fill="white" font-family="monospace" dominant-baseline="ideographic">5</text><rect x="114" y="73.5" width="64" height="1" fill="white" fill-opacity="0.2" /><rect x="114" y="146.5" width="64" height="1" fill="white" fill-opacity="0.2" /><rect x="114" y="219.5" width="64" height="1" fill="white" fill-opacity="0.2" /><rect x="114" y="293.0" width="64" height="1" fill="white" fill-opacity="0.5" /><text x="188" y="307.0" font-size="14" fill="white" font-family="monospace" dominant-baseline="ideographic">6</text><rect x="114" y="366.0" width="64" height="1" fill="white" fill-opacity="0.2" /><rect x="114" y="439.5" width="64" height="1" fill="white" fill-opacity="0.2" /><rect x="114" y="512.5" width="64" height="1" fill="white" fill-opacity="0.2" /><rect x="114" y="585.5" width="64" height="1" fill="white" fill-opacity="0.5" /><text x="188" y="599.5" font-size="14" fill="white" font-family="monospace" dominant-baseline="ideographic">7</text><rect x="114" y="659.0" width="64" height="1" fill="white" fill-opacity="0.2" /><rect x="114" y="732.0" width="64" height="1" fill="white" fill-opacity="0.2" /><rect x="114" y="805.0" width="64" height="1" fill="white" fill-opacity="0.2" /><rect x="114" y="878.5" width="64" height="1" fill="white" fill-opacity="0.5" /><text x="188" y="892.5" font-size="14" fill="white" font-family="monospace" dominant-baseline="ideographic">8</text><rect x="114" y="951.5" width="64" height="1" fill="white" fill-opacity="0.2" /><rect x="114" y="1024.5" width="64" height="1" fill="white" fill-opacity="0.2" /><rect x="114" y="1098.0" width="64" height="1" fill="white" fill-opacity="0.2" /><rect x="114" y="1171.0" width="64" height="1" fill="white" fill-opacity="0.5" /><text x="188" y="1185.0" font-size="14" fill="white" font-family="monospace" dominant-baseline="ideographic">9</text><rect x="228" y="0" width="64" height="1170.5" fill="black" /><rect x="228" y="0.0" width="64" height="1" fill="white" fill-opacity="0.5" /><text x="302" y="14.0" font-size="14" fill="white" font-family="monospace" dominant-baseline="ideographic">9</text><rect x="228" y="73.0" width="64" height="1" fill="white" fill-opacity="0.2" /><rect x="228" y="146.5" width="64" height="1" fill="white" fill-opacity="0.2" /><rect x="228" y="219.5" width="64" height="1" fill="white" fill-opacity="0.2" /><rect x="228" y="292.5" width="64" height="1" fill="white" fill-opacity="0.5" /><text x="302" y="306.5" font-size="14" fill="white" font-family="monospace" dominant-baseline="ideographic">10</text><rect x="228" y="366.0" width="64" height="1" fill="white" fill-opacity="0.2" /><rect x="228" y="439.0" width="64" height="1" fill="white" fill-opacity="0.2" /><rect x="228" y="512.0" width="64" height="1" fill="white" fill-opacity="0.2" /><rect x="228" y="585.5" width="64" height="1" fill="white" fill-opacity="0.5" /><text x="302" y="599.5" font-size="14" fill="white" font-family="monospace" dominant-baseline="ideographic">11</text><rect x="228" y="658.5" width="64" height="1" fill="white" fill-opacity="0.2" /><rect x="228" y="731.5" width="64" height="1" fill="white" fill-opacity="0.2" /><rect x="228" y="805.0" width="64" height="1" fill="white" fill-opacity="0.2" /><rect x="228" y="878.0" width="64" height="1" fill="white" fill-opacity="0.5" /><text x="302" y="892.0" font-size="14" fill="white" font-family="monospace" dominant-baseline="ideographic">12</text><rect x="228" y="951.0" width="64" height="1" fill="white" fill-opacity="0.2" /><rect x="228" y="1024.5" width="64" height="1" fill="white" fill-opacity="0.2" /><rect x="228" y="1097.5" width="64" height="1" fill="white" fill-opacity="0.2" /><rect x="228" y="1170.5" width="64" height="1" fill="white" fill-opacity="0.5" /><text x="302" y="1184.5" font-size="14" fill="white" font-family="monospace" dominant-baseline="ideographic">13</text><rect x="228" y="877.9499999999998" width="64" height="1" fill="aqua" fill-opacity="0.75" /><text x="228" y="891.9499999999998" font-size="14" fill="aqua" fill-opacity="0.75" font-family="monospace">Phrase A</text><rect x="342" y="0" width="64" height="1171.0" fill="black" /><rect x="342" y="0.0" width="64" height="1" fill="white" fill-opacity="0.5" /><text x="416" y="14.0" font-size="14" fill="white" font-family="monospace" dominant-baseline="ideographic">13</text><rect x="342" y="73.5" width="64" height="1" fill="white" fill-opacity="0.2" /><rect x="342" y="146.5" width="64" height="1" fill="white" fill-opacity="0.2" /><rect x="342" y="219.5" width="64" height="1" fill="white" fill-opacity="0.2" /><rect x="342" y="293.0" width="64" height="1" fill="white" fill-opacity="0.5" /><text x="416" y="307.0" font-size="14" fill="white" font-family="monospace" dominant-baseline="ideographic">14</text><rect x="342" y="366.0" width="64" height="1" fill="white" fill-opacity="0.2" /><rect x="342" y="439.0" width="64" height="1" fill="white" fill-opacity="0.2" /><rect x="342" y="512.5" width="64" height="1" fill="white" fill-opacity="0.2" /><rect x="342" y="585.5" width="64" height="1" fill="white" fill-opacity="0.5" /><text x="416" y="599.5" font-size="14" fill="white" font-family="monospace" dominant-baseline="ideographic">15</text><rect x="342" y="658.5" width="64" height="1" fill="white" fill-opacity="0.2" /><rect x="342" y="732.0" width="64" height="1" fill="white" fill-opacity="0.2" /><rect x="342" y="805.0" width="64" height="1" fill="white" fill-opacity="0.2" /><rect x="342" y="878.0" width="64" height="1" fill="white" fill-opacity="0.5" /><text x="416" y="892.0" font-size="14" fill="white" font-family="monospace" dominant-baseline="ideographic">16</text><rect x="342" y="951.5" width="64" height="1" fill="white" fill-opacity="0.2" /><rect x="342" y="1024.5" width="64" height="1" fill="white" fill-opacity="0.2" /><rect x="342" y="1097.5" width="64" height="1" fill="white" fill-opacity="0.2" /><rect x="342" y="1171.0" width="64" height="1" fill="white" fill-opacity="0.5" /><text x="416" y="1185.0" font-size="14" fill="white" font-family="monospace" dominant-baseline="ideographic">17</text><rect x="456" y="0" width="64" height="1170.5" fill="black" /><rect x="456" y="0.0" width="64" height="1" fill="white" fill-opacity="0.5" /><text x="530" y="14.0" font-size="14" fill="white" font-family="monospace" dominant-baseline="ideographic">17</text><rect x="456" y="73.0" width="64" height="1" fill="white" fill-opacity="0.2" /><rect x="456" y="146.5" width="64" height="1" fill="white" fill-opacity="0.2" /><rect x="456" y="219.5" width="64" height="1" fill="white" fill-opacity="0.2" /><rect x="456" y="292.5" width="64" height="1" fill="white" fill-opacity="0.5" /><text x="530" y="306.5" font-size="14" fill="white" font-family="monospace" dominant-baseline="ideographic">18</text><rect x="456" y="366.0" width="64" height="1" fill="white" fill-opacity="0.2" /><rect x="456" y="439.0" width="64" height="1" fill="white" fill-opacity="0.2" /><rect x="456" y="512.0" width="64" height="1" fill="white" fill-opacity="0.2" /><rect x="456" y="585.5" width="64" height="1" fill="white" fill-opacity="0.5" /><text x="530" y="599.5" font-size="14" fill="white" font-family="monospace" dominant-baseline="ideographic">19</text><rect x="456" y="658.5" width="64" height="1" fill="white" fill-opacity="0.2" /><rect x="456" y="731.5" width="64" height="1" fill="white" fill-opacity="0.2" /><rect x="456" y="805.0" width="64" height="1" fill="white" fill-opacity="0.2" /><rect x="456" y="878.0" width="64" height="1" fill="white" fill-opacity="0.5" /><text x="530" y="892.0" font-size="14" fill="white" font-family="monospace" dominant-baseline="ideographic">20</text><rect x="456" y="951.0" width="64" height="1" fill="white" fill-opacity="0.2" /><rect x="456" y="1024.5" width="64" height="1" fill="white" fill-opacity="0.2" /><rect x="456" y="1097.5" width="64" height="1" fill="white" fill-opacity="0.2" /><rect x="456" y="1170.5" width="64" height="1" fill="white" fill-opacity="0.5" /><text x="530" y="1184.5" font-size="14" fill="white" font-family="monospace" dominant-baseline="ideographic">21</text><rect x="456" y="877.9499999999998" width="64" height="1" fill="aqua" fill-opacity="0.75" /><text x="456" y="891.9499999999998" font-size="14" fill="aqua" fill-opacity="0.75" font-family="monospace">Special</text><rect x="570" y="0" width="64" height="1171.0" fill="black" /><rect x="570" y="0.0" width="64" height="1" fill="white" fill-opacity="0.5" /><text x="644" y="14.0" font-size="14" fill="white" font-family="monospace" dominant-baseline="ideographic">21</text><rect x="570" y="73.5" width="64" height="1" fill="white" fill-opacity="0.2" /><rect x="570" y="146.5" width="64" height="1" fill="white" fill-opacity="0.2" /><rect x="570" y="219.5" width="64" height="1" fill="white" fill-opacity="0.2" /><rect x="570" y="293.0" width="64" height="1" fill="white" fill-opacity="0.5" /><text x="644" y="307.0" font-size="14" fill="white" font-family="monospace" dominant-baseline="ideographic">22</text><rect x="570" y="366.0" width="64" height="1" fill="white" fill-opacity="0.2" /><rect x="570" y="439.0" width="64" height="1" fill="white" fill-opacity="0.2" /><rect x="570" y="512.5" width="64" height="1" fill="white" fill-opacity="0.2" /><rect x="570" y="585.5" width="64" height="1" fill="white" fill-opacity="0.5" /><text x="644" y="599.5" font-size="14" fill="white" font-family="monospace" dominant-baseline="ideographic">23</text><rect x="570" y="658.5" width="64" height="1" fill="white" fill-opacity="0.2" /><rect x="570" y="732.0" width="64" height="1" fill="white" fill-opacity="0.2" /><rect x="570" y="805.0" width="64" height="1" fill="white" fill-opacity="0.2" /><rect x="570" y="878.0" width="64" height="1" fill="white" fill-opacity="0.5" /><text x="644" y="892.0" font-size="14" fill="white" font-family="monospace" dominant-baseline="ideographic">24</text><rect x="570" y="951.5" width="64" height="1" fill="white" fill-opacity="0.2" /><rect x="570" y="1024.5" width="64" height="1" fill="white" fill-opacity="0.2" /><rect x="570" y="1097.5" width="64" height="1" fill="white" fill-opacity="0.2" /><rect x="570" y="1171.0" width="64" height="1" fill="white" fill-opacity="0.5" /><text x="644" y="1185.0" font-size="14" fill="white" font-family="monospace" dominant-baseline="ideographic">25</text><rect x="684" y="0" width="64" height="1170.5" fill="black" /><rect x="684" y="0.0" width="64" height="1" fill="white" fill-opacity="0.5" /><text x="758" y="14.0" font-size="14" fill="white" font-family="monospace" dominant-baseline="ideographic">25</text><rect x="684" y="73.0" width="64" height="1" fill="white" fill-opacity="0.2" /><rect x="684" y="146.0" width="64" height="1" fill="white" fill-opacity="0.2" /><rect x="684" y="219.5" width="64" height="1" fill="white" fill-opacity="0.2" /><rect x="684" y="292.5" width="64" height="1" fill="white" fill-opacity="0.5" /><text x="758" y="306.5" font-size="14" fill="white" font-family="monospace" dominant-baseline="ideographic">26</text><rect x="684" y="365.5" width="64" height="1" fill="white" fill-opacity="0.2" /><rect x="684" y="439.0" width="64" height="1" fill="white" fill-opacity="0.2" /><rect x="684" y="512.0" width="64" height="1" fill="white" fill-opacity="0.2" /><rect x="684" y="585.0" width="64" height="1" fill="white" fill-opacity="0.5" /><text x="758" y="599.0" font-size="14" fill="white" font-family="monospace" dominant-baseline="ideographic">27</text><rect x="684" y="658.5" width="64" height="1" fill="white" fill-opacity="0.2" /><rect x="684" y="731.5" width="64" height="1" fill="white" fill-opacity="0.2" /><rect x="684" y="805.0" width="64" height="1" fill="white" fill-opacity="0.2" /><rect x="684" y="878.0" width="64" height="1" fill="white" fill-opacity="0.5" /><text x="758" y="892.0" font-size="14" fill="white" font-family="monospace" dominant-baseline="ideographic">28</text><rect x="684" y="951.0" width="64" height="1" fill="white" fill-opacity="0.2" /><rect x="684" y="1024.5" width="64" height="1" fill="white" fill-opacity="0.2" /><rect x="684" y="1097.5" width="64" height="1" fill="white" fill-opacity="0.2" /><rect x="684" y="1170.5" width="64" height="1" fill="white" fill-opacity="0.5" /><text x="758" y="1184.5" font-size="14" fill="white" font-family="monospace" dominant-baseline="ideographic">29</text><rect x="798" y="0" width="64" height="1171.0" fill="black" /><rect x="798" y="0.0" width="64" height="1" fill="white" fill-opacity="0.5" /><text x="872" y="14.0" font-size="14" fill="white" font-family="monospace" dominant-baseline="ideographic">29</text><rect x="798" y="73.5" width="64" height="1" fill="white" fill-opacity="0.2" /><rect x="798" y="146.5" width="64" height="1" fill="white" fill-opacity="0.2" /><rect x="798" y="219.5" width="64" height="1" fill="white" fill-opacity="0.2" /><rect x="798" y="293.0" width="64" height="1" fill="white" fill-opacity="0.5" /><text x="872" y="307.0" font-size="14" fill="white" font-family="monospace" dominant-baseline="ideographic">30</text><rect x="798" y="366.0" width="64" height="1" fill="white" fill-opacity="0.2" /><rect x="798" y="439.0" width="64" height="1" fill="white" fill-opacity="0.2" /><rect x="798" y="512.5" width="64" height="1" fill="white" fill-opacity="0.2" /><rect x="798" y="585.5" width="64" height="1" fill="white" fill-opacity="0.5" /><text x="872" y="599.5" font-size="14" fill="white" font-family="monospace" dominant-baseline="ideographic">31</text><rect x="798" y="658.5" width="64" height="1" fill="white" fill-opacity="0.2" /><rect x="798" y="732.0" width="64" height="1" fill="white" fill-opacity="0.2" /><rect x="798" y="805.0" width="64" height="1" fill="white" fill-opacity="0.2" /><rect x="798" y="878.0" width="64" height="1" fill="white" fill-opacity="0.5" /><text x="872" y="892.0" font-size="14" fill="white" font-family="monospace" dominant-baseline="ideographic">32</text><rect x="798" y="951.5" width="64" height="1" fill="white" fill-opacity="0.2" /><rect x="798" y="1024.5" width="64" height="1" fill="white" fill-opacity="0.2" /><rect x="798" y="1097.5" width="64" height="1" fill="white" fill-opacity="0.2" /><rect x="798" y="1171.0" width="64" height="1" fill="white" fill-opacity="0.5" /><text x="872" y="1185.0" font-size="14" fill="white" font-family="monospace" dominant-baseline="ideographic">33</text><rect x="912" y="0" width="64" height="1170.5" fill="black" /><rect x="912" y="0.0" width="64" height="1" fill="white" fill-opacity="0.5" /><text x="986" y="14.0" font-size="14" fill="white" font-family="monospace" dominant-baseline="ideographic">33</text><rect x="912" y="73.0" width="64" height="1" fill="white" fill-opacity="0.2" /><rect x="912" y="146.0" width="64" height="1" fill="white" fill-opacity="0.2" /><rect x="912" y="219.5" width="64" height="1" fill="white" fill-opacity="0.2" /><rect x="912" y="292.5" width="64" height="1" fill="white" fill-opacity="0.5" /><text x="986" y="306.5" font-size="14" fill="white" font-family="monospace" dominant-baseline="ideographic">34</text><rect x="912" y="365.5" width="64" height="1" fill="white" fill-opacity="0.2" /><rect x="912" y="439.0" width="64" height="1" fill="white" fill-opacity="0.2" /><rect x="912" y="512.0" width="64" height="1" fill="white" fill-opacity="0.2" /><rect x="912" y="585.0" width="64" height="1" fill="white" fill-opacity="0.5" /><text x="986" y="599.0" font-size="14" fill="white" font-family="monospace" dominant-baseline="ideographic">35</text><rect x="912" y="658.5" width="64" height="1" fill="white" fill-opacity="0.2" /><rect x="912" y="731.5" width="64" height="1" fill="white" fill-opacity="0.2" /><rect x="912" y="804.5" width="64" height="1" fill="white" fill-opacity="0.2" /><rect x="912" y="878.0" width="64" height="1" fill="white" fill-opacity="0.5" /><text x="986" y="892.0" font-size="14" fill="white" font-family="monospace" dominant-baseline="ideographic">36</text><rect x="912" y="951.0" width="64" height="1" fill="white" fill-opacity="0.2" /><rect x="912" y="1024.0" width="64" height="1" fill="white" fill-opacity="0.2" /><rect x="912" y="1097.5" width="64" height="1" fill="white" fill-opacity="0.2" /><rect x="912" y="1170.5" width="64" height="1" fill="white" fill-opacity="0.5" /><text x="986" y="1184.5" font-size="14" fill="white" font-family="monospace" dominant-baseline="ideographic">37</text><rect x="912" y="877.9499999999989" width="64" height="1" fill="aqua" fill-opacity="0.75" /><text x="912" y="891.9499999999989" font-size="14" fill="aqua" fill-opacity="0.75" font-family="monospace">Intro</text><rect x="1026" y="0" width="64" height="1171.0" fill="black" /><rect x="1026" y="0.0" width="64" height="1" fill="white" fill-opacity="0.5" /><text x="1100" y="14.0" font-size="14" fill="white" font-family="monospace" dominant-baseline="ideographic">37</text><rect x="1026" y="73.0" width="64" height="1" fill="white" fill-opacity="0.2" /><rect x="1026" y="146.5" width="64" height="1" fill="white" fill-opacity="0.2" /><rect x="1026" y="219.5" width="64" height="1" fill="white" fill-opacity="0.2" /><rect x="1026" y="292.5" width="64" height="1" fill="white" fill-opacity="0.5" /><text x="1100" y="306.5" font-size="14" fill="white" font-family="monospace" dominant-baseline="ideographic">38</text><rect x="1026" y="366.0" width="64" height="1" fill="white" fill-opacity="0.2" /><rect x="1026" y="439.0" width="64" height="1" fill="white" fill-opacity="0.2" /><rect x="1026" y="512.5" width="64" height="1" fill="white" fill-opacity="0.2" /><rect x="1026" y="585.5" width="64" height="1" fill="white" fill-opacity="0.5" /><text x="1100" y="599.5" font-size="14" fill="white" font-family="monospace" dominant-baseline="ideographic">39</text><rect x="1026" y="658.5" width="64" height="1" fill="white" fill-opacity="0.2" /><rect x="1026" y="732.0" width="64" height="1" fill="white" fill-opacity="0.2" /><rect x="1026" y="805.0" width="64" height="1" fill="white" fill-opacity="0.2" /><rect x="1026" y="878.0" width="64" height="1" fill="white" fill-opacity="0.5" /><text x="1100" y="892.0" font-size="14" fill="white" font-family="monospace" dominant-baseline="ideographic">40</text><rect x="1026" y="951.5" width="64" height="1" fill="white" fill-opacity="0.2" /><rect x="1026" y="1024.5" width="64" height="1" fill="white" fill-opacity="0.2" /><rect x="1026" y="1097.5" width="64" height="1" fill="white" fill-opacity="0.2" /><rect x="1026" y="1171.0" width="64" height="1" fill="white" fill-opacity="0.5" /><text x="1100" y="1185.0" font-size="14" fill="white" font-family="monospace" dominant-baseline="ideographic">41</text><rect x="1026" y="292.75" width="64" height="1" fill="aqua" fill-opacity="0.75" /><text x="1026" y="306.75" font-size="14" fill="aqua" fill-opacity="0.75" font-family="monospace">Special</text><rect x="1140" y="0" width="64" height="1170.5" fill="black" /><rect x="1140" y="0.0" width="64" height="1" fill="white" fill-opacity="0.5" /><text x="1214" y="14.0" font-size="14" fill="white" font-family="monospace" dominant-baseline="ideographic">41</text><rect x="1140" y="73.0" width="64" height="1" fill="white" fill-opacity="0.2" /><rect x="1140" y="146.0" width="64" height="1" fill="white" fill-opacity="0.2" /><rect x="1140" y="219.5" width="64" height="1" fill="white" fill-opacity="0.2" /><rect x="1140" y="292.5" width="64" height="1" fill="white" fill-opacity="0.5" /><text x="1214" y="306.5" font-size="14" fill="white" font-family="monospace" dominant-baseline="ideographic">42</text><rect x="1140" y="365.5" width="64" height="1" fill="white" fill-opacity="0.2" /><rect x="1140" y="439.0" width="64" height="1" fill="white" fill-opacity="0.2" /><rect x="1140" y="512.0" width="64" height="1" fill="white" fill-opacity="0.2" /><rect x="1140" y="585.0" width="64" height="1" fill="white" fill-opacity="0.5" /><text x="1214" y="599.0" font-size="14" fill="white" font-family="monospace" dominant-baseline="ideographic">43</text><rect x="1140" y="658.5" width="64" height="1" fill="white" fill-opacity="0.2" /><rect x="1140" y="731.5" width="64" height="1" fill="white" fill-opacity="0.2" /><rect x="1140" y="804.5" width="64" height="1" fill="white" fill-opacity="0.2" /><rect x="1140" y="878.0" width="64" height="1" fill="white" fill-opacity="0.5" /><text x="1214" y="892.0" font-size="14" fill="white" font-family="monospace" dominant-baseline="ideographic">44</text><rect x="1140" y="951.0" width="64" height="1" fill="white" fill-opacity="0.2" /><rect x="1140" y="1024.0" width="64" height="1" fill="white" fill-opacity="0.2" /><rect x="1140" y="1097.5" width="64" height="1" fill="white" fill-opacity="0.2" /><rect x="1140" y="1170.5" width="64" height="1" fill="white" fill-opacity="0.5" /><text x="1214" y="1184.5" font-size="14" fill="white" font-family="monospace" dominant-baseline="ideographic">45</text><rect x="1254" y="0" width="64" height="1171.0" fill="black" /><rect x="1254" y="0.0" width="64" height="1" fill="white" fill-opacity="0.5" /><text x="1328" y="14.0" font-size="14" fill="white" font-family="monospace" dominant-baseline="ideographic">45</text><rect x="1254" y="73.0" width="64" height="1" fill="white" fill-opacity="0.2" /><rect x="1254" y="146.5" width="64" height="1" fill="white" fill-opacity="0.2" /><rect x="1254" y="219.5" width="64" height="1" fill="white" fill-opacity="0.2" /><rect x="1254" y="292.5" width="64" height="1" fill="white" fill-opacity="0.5" /><text x="1328" y="306.5" font-size="14" fill="white" font-family="monospace" dominant-baseline="ideographic">46</text><rect x="1254" y="366.0" width="64" height="1" fill="white" fill-opacity="0.2" /><rect x="1254" y="439.0" width="64" height="1" fill="white" fill-opacity="0.2" /><rect x="1254" y="512.0" width="64" height="1" fill="white" fill-opacity="0.2" /><rect x="1254" y="585.5" width="64" height="1" fill="white" fill-opacity="0.5" /><text x="1328" y="599.5" font-size="14" fill="white" font-family="monospace" dominant-baseline="ideographic">47</text><rect x="1254" y="658.5" width="64" height="1" fill="white" fill-opacity="0.2" /><rect x="1254" y="731.5" width="64" height="1" fill="white" fill-opacity="0.2" /><rect x="1254" y="805.0" width="64" height="1" fill="white" fill-opacity="0.2" /><rect x="1254" y="878.0" width="64" height="1" fill="white" fill-opacity="0.5" /><text x="1328" y="892.0" font-size="14" fill="white" font-family="monospace" dominant-baseline="ideographic">48</text><rect x="1254" y="951.0" width="64" height="1" fill="white" fill-opacity="0.2" /><rect x="1254" y="1024.5" width="64" height="1" fill="white" fill-opacity="0.2" /><rect x="1254" y="1097.5" width="64" height="1" fill="white" fill-opacity="0.2" /><rect x="1254" y="1171.0" width="64" height="1" fill="white" fill-opacity="0.5" /><text x="1328" y="1185.0" font-size="14" fill="white" font-family="monospace" dominant-baseline="ideographic">49</text><rect x="1254" y="0.09999999999854481" width="64" height="1" fill="aqua" fill-opacity="0.75" /><text x="1254" y="14.099999999998545" font-size="14" fill="aqua" fill-opacity="0.75" font-family="monospace">Outro</text><rect x="1368" y="0" width="64" height="141.0" fill="black" /><rect x="1368" y="0.0" width="64" height="1" fill="white" fill-opacity="0.5" /><text x="1442" y="14.0" font-size="14" fill="white" font-family="monospace" dominant-baseline="ideographic">49</text></svg>