<?xml version="1.0" encoding="UTF-8"?><svg xmlns="http://www.w3.org/2000/svg" xmlns:xlink="http://www.w3.org/1999/xlink"     width="2964" height="670.0" viewBox="0 0 2964 670.0"><defs></defs><rect x="26.0" y="332.0" width="12.0" height="3" fill="#80c9ff" stroke="#0b6cba" /><rect x="52.0" y="383.0" width="12.0" height="3" fill="#ff83f4" stroke="#d002bc" /><rect x="26.0" y="421.5" width="12.0" height="3" fill="#80c9ff" stroke="#0b6cba" /><rect x="13.0" y="459.5" width="12.0" height="3" fill="#35df39" stroke="#03aa10" /><rect x="13.0" y="498.0" width="12.0" height="3" fill="#35df39" stroke="#03aa10" /><rect x="39.0" y="536.0" width="12.0" height="3" fill="#fff874" stroke="#eb9c26" /><rect x="13.0" y="561.5" width="12.0" height="3" fill="#35df39" stroke="#03aa10" /><rect x="114.0" y="25.5" width="12.0" height="3" fill="#ff3c3c" stroke="#c71f1f" /><rect x="140.0" y="76.5" width="12.0" height="3" fill="#80c9ff" stroke="#0b6cba" /><rect x="114.0" y="114.5" width="12.0" height="3" fill="#ff3c3c" stroke="#c71f1f" /><rect x="114.0" y="153.0" width="12.0" height="3" fill="#ff3c3c" stroke="#c71f1f" /><rect x="127.0" y="153.0" width="12.0" height="3" fill="#35df39" stroke="#03aa10" /><rect x="114.0" y="191.5" width="12.0" height="3" fill="#ff3c3c" stroke="#c71f1f" /><rect x="114.0" y="229.5" width="12.0" height="3" fill="#ff3c3c" stroke="#c71f1f" /><rect x="127.0" y="229.5" width="12.0" height="3" fill="#35df39" stroke="#03aa10" /><rect x="114.0" y="255.0" width="12.0" height="3" fill="#ff3c3c" stroke="#c71f1f" /><rect x="127.0" y="255.0" width="12.0" height="3" fill="#35df39" stroke="#03aa10" /><rect x="140.0" y="331.5" width="12.0" height="3" fill="#80c9ff" stroke="#0b6cba" /><rect x="166.0" y="382.5" width="12.0" height="3" fill="#ff83f4" stroke="#d002bc" /><rect x="140.0" y="421.0" width="12.0" height="3" fill="#80c9ff" stroke="#0b6cba" /><rect x="127.0" y="459.5" width="12.0" height="3" fill="#35df39" stroke="#03aa10" /><rect x="140.0" y="459.5" width="12.0" height="3" fill="#80c9ff" stroke="#0b6cba" /><rect x="127.0" y="497.5" width="12.0" height="3" fill="#35df39" stroke="#03aa10" /><rect x="127.0" y="536.0" width="12.0" height="3" fill="#35df39" stroke="#03aa10" /><rect x="140.0" y="536.0" width="12.0" height="3" fill="#80c9ff" stroke="#0b6cba" /><rect x="127.0" y="561.5" width="12.0" height="3" fill="#35df39" stroke="#03aa10" /><rect x="140.0" y="561.5" width="12.0" height="3" fill="#80c9ff" stroke="#0b6cba" /><rect x="114.0" y="600.0" width="12.0" height="3" fill="#ff3c3c" stroke="#c71f1f" /><rect x="140.0" y="600.0" width="12.0" height="3" fill="#80c9ff" stroke="#0b6cba" /><rect x="228.0" y="153.0" width="12.0" height="3" fill="#ff3c3c" stroke="#c71f1f" /><rect x="254.0" y="153.0" width="12.0" height="3" fill="#80c9ff" stroke="#0b6cba" /><rect x="228.0" y="191.5" width="12.0" height="3" fill="#ff3c3c" stroke="#c71f1f" /><rect x="241.0" y="191.5" width="12.0" height="3" fill="#35df39" stroke="#03aa10" /><rect x="254.0" y="306.5" width="12.0" height="3" fill="#80c9ff" stroke="#0b6cba" /><rect x="267.0" y="306.5" width="12.0" height="3" fill="#fff874" stroke="#eb9c26" /><rect x="241.0" y="383.0" width="12.0" height="3" fill="#35df39" stroke="#03aa10" /><rect x="254.0" y="383.0" width="12.0" height="3" fill="#80c9ff" stroke="#0b6cba" /><rect x="228.0" y="443.5" width="12.0" height="3" fill="#ff3c3c" stroke="#c71f1f" /><rect x="241.0" y="443.5" width="12.0" height="3" fill="#35df39" stroke="#03aa10" /><rect x="241.0" y="482.0" width="12.0" height="3" fill="#35df39" stroke="#03aa10" /><rect x="228.0" y="498.0" width="12.0" height="3" fill="#ff3c3c" stroke="#c71f1f" /><rect x="241.0" y="536.0" width="12.0" height="3" fill="#35df39" stroke="#03aa10" /><rect x="254.0" y="574.5" width="12.0" height="3" fill="#80c9ff" stroke="#0b6cba" /><rect x="368.0" y="0.0" width="12.0" height="3" fill="#80c9ff" stroke="#0b6cba" /><rect x="381.0" y="0.0" width="12.0" height="3" fill="#fff874" stroke="#eb9c26" /><rect x="355.0" y="76.5" width="12.0" height="3" fill="#35df39" stroke="#03aa10" /><rect x="368.0" y="76.5" width="12.0" height="3" fill="#80c9ff" stroke="#0b6cba" /><rect x="368.0" y="137.0" width="12.0" height="3" fill="#80c9ff" stroke="#0b6cba" /><rect x="381.0" y="137.0" width="12.0" height="3" fill="#fff874" stroke="#eb9c26" /><rect x="381.0" y="175.5" width="12.0" height="3" fill="#fff874" stroke="#eb9c26" /><rect x="368.0" y="191.5" width="12.0" height="3" fill="#80c9ff" stroke="#0b6cba" /><rect x="381.0" y="229.5" width="12.0" height="3" fill="#fff874" stroke="#eb9c26" /><rect x="394.0" y="268.0" width="12.0" height="3" fill="#ff83f4" stroke="#d002bc" /><rect x="368.0" y="306.0" width="12.0" height="3" fill="#80c9ff" stroke="#0b6cba" /><rect x="381.0" y="306.0" width="12.0" height="3" fill="#fff874" stroke="#eb9c26" /><rect x="355.0" y="383.0" width="12.0" height="3" fill="#35df39" stroke="#03aa10" /><rect x="368.0" y="383.0" width="12.0" height="3" fill="#80c9ff" stroke="#0b6cba" /><rect x="342.0" y="443.5" width="12.0" height="3" fill="#ff3c3c" stroke="#c71f1f" /><rect x="355.0" y="443.5" width="12.0" height="3" fill="#35df39" stroke="#03aa10" /><rect x="355.0" y="481.5" width="12.0" height="3" fill="#35df39" stroke="#03aa10" /><rect x="342.0" y="497.5" width="12.0" height="3" fill="#ff3c3c" stroke="#c71f1f" /><rect x="355.0" y="536.0" width="12.0" height="3" fill="#35df39" stroke="#03aa10" /><rect x="368.0" y="536.0" width="12.0" height="3" fill="#80c9ff" stroke="#0b6cba" /><rect x="355.0" y="574.5" width="12.0" height="3" fill="#35df39" stroke="#03aa10" /><rect x="456.0" y="0.0" width="12.0" height="3" fill="#ff3c3c" stroke="#c71f1f" /><rect x="482.0" y="0.0" width="12.0" height="3" fill="#80c9ff" stroke="#0b6cba" /><rect x="482.0" y="76.5" width="12.0" height="3" fill="#80c9ff" stroke="#0b6cba" /><rect x="495.0" y="76.5" width="12.0" height="3" fill="#fff874" stroke="#eb9c26" /><rect x="469.0" y="137.5" width="12.0" height="3" fill="#35df39" stroke="#03aa10" /><rect x="482.0" y="137.5" width="12.0" height="3" fill="#80c9ff" stroke="#0b6cba" /><rect x="482.0" y="175.5" width="12.0" height="3" fill="#80c9ff" stroke="#0b6cba" /><rect x="469.0" y="191.5" width="12.0" height="3" fill="#35df39" stroke="#03aa10" /><rect x="456.0" y="230.0" width="12.0" height="3" fill="#ff3c3c" stroke="#c71f1f" /><rect x="482.0" y="230.0" width="12.0" height="3" fill="#80c9ff" stroke="#0b6cba" /><rect x="482.0" y="268.0" width="12.0" height="3" fill="#80c9ff" stroke="#0b6cba" /><rect x="456.0" y="306.5" width="12.0" height="3" fill="#ff3c3c" stroke="#c71f1f" /><rect x="469.0" y="306.5" width="12.0" height="3" fill="#35df39" stroke="#03aa10" /><rect x="469.0" y="383.0" width="12.0" height="3" fill="#35df39" stroke="#03aa10" /><rect x="482.0" y="383.0" width="12.0" height="3" fill="#80c9ff" stroke="#0b6cba" /><rect x="482.0" y="443.5" width="12.0" height="3" fill="#80c9ff" stroke="#0b6cba" /><rect x="495.0" y="443.5" width="12.0" height="3" fill="#fff874" stroke="#eb9c26" /><rect x="482.0" y="482.0" width="12.0" height="3" fill="#80c9ff" stroke="#0b6cba" /><rect x="495.0" y="482.0" width="12.0" height="3" fill="#fff874" stroke="#eb9c26" /><rect x="469.0" y="498.0" width="12.0" height="3" fill="#35df39" stroke="#03aa10" /><rect x="508.0" y="536.0" width="12.0" height="3" fill="#ff83f4" stroke="#d002bc" /><rect x="495.0" y="574.5" width="12.0" height="3" fill="#fff874" stroke="#eb9c26" /><rect x="583.0" y="0.0" width="12.0" height="3" fill="#35df39" stroke="#03aa10" /><rect x="596.0" y="0.0" width="12.0" height="3" fill="#80c9ff" stroke="#0b6cba" /><rect x="570.0" y="76.5" width="12.0" height="3" fill="#ff3c3c" stroke="#c71f1f" /><rect x="583.0" y="76.5" width="12.0" height="3" fill="#35df39" stroke="#03aa10" /><rect x="570.0" y="137.0" width="12.0" height="3" fill="#ff3c3c" stroke="#c71f1f" /><rect x="596.0" y="137.0" width="12.0" height="3" fill="#80c9ff" stroke="#0b6cba" /><rect x="596.0" y="175.5" width="12.0" height="3" fill="#80c9ff" stroke="#0b6cba" /><rect x="570.0" y="191.5" width="12.0" height="3" fill="#ff3c3c" stroke="#c71f1f" /><rect x="583.0" y="229.5" width="12.0" height="3" fill="#35df39" stroke="#03aa10" /><rect x="596.0" y="229.5" width="12.0" height="3" fill="#80c9ff" stroke="#0b6cba" /><rect x="570.0" y="268.0" width="12.0" height="3" fill="#ff3c3c" stroke="#c71f1f" /><rect x="596.0" y="268.0" width="12.0" height="3" fill="#80c9ff" stroke="#0b6cba" /><rect x="570.0" y="306.0" width="12.0" height="3" fill="#ff3c3c" stroke="#c71f1f" /><rect x="583.0" y="306.0" width="12.0" height="3" fill="#35df39" stroke="#03aa10" /><rect x="570.0" y="383.0" width="12.0" height="3" fill="#ff3c3c" stroke="#c71f1f" /><rect x="596.0" y="383.0" width="12.0" height="3" fill="#80c9ff" stroke="#0b6cba" /><rect x="570.0" y="443.5" width="12.0" height="3" fill="#ff3c3c" stroke="#c71f1f" /><rect x="583.0" y="443.5" width="12.0" height="3" fill="#35df39" stroke="#03aa10" /><rect x="570.0" y="481.5" width="12.0" height="3" fill="#ff3c3c" stroke="#c71f1f" /><rect x="583.0" y="497.5" width="12.0" height="3" fill="#35df39" stroke="#03aa10" /><rect x="583.0" y="536.0" width="12.0" height="3" fill="#35df39" stroke="#03aa10" /><rect x="596.0" y="536.0" width="12.0" height="3" fill="#80c9ff" stroke="#0b6cba" /><rect x="609.0" y="574.5" width="12.0" height="3" fill="#fff874" stroke="#eb9c26" /><rect x="723.0" y="0.0" width="12.0" height="3" fill="#fff874" stroke="#eb9c26" /><rect x="736.0" y="0.0" width="12.0" height="3" fill="#ff83f4" stroke="#d002bc" /><rect x="710.0" y="76.5" width="12.0" height="3" fill="#80c9ff" stroke="#0b6cba" /><rect x="710.0" y="137.5" width="12.0" height="3" fill="#80c9ff" stroke="#0b6cba" /><rect x="736.0" y="137.5" width="12.0" height="3" fill="#ff83f4" stroke="#d002bc" /><rect x="710.0" y="191.5" width="12.0" height="3" fill="#80c9ff" stroke="#0b6cba" /><rect x="723.0" y="191.5" width="12.0" height="3" fill="#fff874" stroke="#eb9c26" /><rect x="736.0" y="191.5" width="12.0" height="3" fill="#ff83f4" stroke="#d002bc" /><rect x="710.0" y="306.5" width="12.0" height="3" fill="#80c9ff" stroke="#0b6cba" /><rect x="723.0" y="306.5" width="12.0" height="3" fill="#fff874" stroke="#eb9c26" /><rect x="697.0" y="383.0" width="12.0" height="3" fill="#35df39" stroke="#03aa10" /><rect x="710.0" y="383.0" width="12.0" height="3" fill="#80c9ff" stroke="#0b6cba" /><rect x="684.0" y="443.5" width="12.0" height="3" fill="#ff3c3c" stroke="#c71f1f" /><rect x="697.0" y="443.5" width="12.0" height="3" fill="#35df39" stroke="#03aa10" /><rect x="697.0" y="482.0" width="12.0" height="3" fill="#35df39" stroke="#03aa10" /><rect x="684.0" y="498.0" width="12.0" height="3" fill="#ff3c3c" stroke="#c71f1f" /><rect x="697.0" y="536.5" width="12.0" height="3" fill="#35df39" stroke="#03aa10" /><rect x="710.0" y="574.5" width="12.0" height="3" fill="#80c9ff" stroke="#0b6cba" /><rect x="824.0" y="0.0" width="12.0" height="3" fill="#80c9ff" stroke="#0b6cba" /><rect x="837.0" y="0.0" width="12.0" height="3" fill="#fff874" stroke="#eb9c26" /><rect x="811.0" y="76.5" width="12.0" height="3" fill="#35df39" stroke="#03aa10" /><rect x="824.0" y="76.5" width="12.0" height="3" fill="#80c9ff" stroke="#0b6cba" /><rect x="824.0" y="137.0" width="12.0" height="3" fill="#80c9ff" stroke="#0b6cba" /><rect x="837.0" y="137.0" width="12.0" height="3" fill="#fff874" stroke="#eb9c26" /><rect x="837.0" y="175.5" width="12.0" height="3" fill="#fff874" stroke="#eb9c26" /><rect x="824.0" y="191.5" width="12.0" height="3" fill="#80c9ff" stroke="#0b6cba" /><rect x="837.0" y="229.5" width="12.0" height="3" fill="#fff874" stroke="#eb9c26" /><rect x="824.0" y="268.0" width="12.0" height="3" fill="#80c9ff" stroke="#0b6cba" /><rect x="824.0" y="306.0" width="12.0" height="3" fill="#80c9ff" stroke="#0b6cba" /><rect x="837.0" y="306.0" width="12.0" height="3" fill="#fff874" stroke="#eb9c26" /><rect x="811.0" y="383.0" width="12.0" height="3" fill="#35df39" stroke="#03aa10" /><rect x="824.0" y="383.0" width="12.0" height="3" fill="#80c9ff" stroke="#0b6cba" /><rect x="798.0" y="443.5" width="12.0" height="3" fill="#ff3c3c" stroke="#c71f1f" /><rect x="811.0" y="443.5" width="12.0" height="3" fill="#35df39" stroke="#03aa10" /><rect x="811.0" y="482.0" width="12.0" height="3" fill="#35df39" stroke="#03aa10" /><rect x="824.0" y="497.5" width="12.0" height="3" fill="#80c9ff" stroke="#0b6cba" /><rect x="837.0" y="536.0" width="12.0" height="3" fill="#fff874" stroke="#eb9c26" /><rect x="850.0" y="536.0" width="12.0" height="3" fill="#ff83f4" stroke="#d002bc" /><rect x="837.0" y="574.5" width="12.0" height="3" fill="#fff874" stroke="#eb9c26" /><rect x="938.0" y="0.0" width="12.0" height="3" fill="#80c9ff" stroke="#0b6cba" /><rect x="951.0" y="0.0" width="12.0" height="3" fill="#fff874" stroke="#eb9c26" /><rect x="925.0" y="76.5" width="12.0" height="3" fill="#35df39" stroke="#03aa10" /><rect x="938.0" y="76.5" width="12.0" height="3" fill="#80c9ff" stroke="#0b6cba" /><rect x="925.0" y="115.0" width="12.0" height="3" fill="#35df39" stroke="#03aa10" /><rect x="912.0" y="153.5" width="12.0" height="3" fill="#ff3c3c" stroke="#c71f1f" /><rect x="938.0" y="217.0" width="12.0" height="3" fill="#80c9ff" stroke="#0b6cba" /><rect x="951.0" y="217.0" width="12.0" height="3" fill="#fff874" stroke="#eb9c26" /><rect x="925.0" y="255.5" width="12.0" height="3" fill="#35df39" stroke="#03aa10" /><rect x="912.0" y="268.0" width="12.0" height="3" fill="#ff3c3c" stroke="#c71f1f" /><rect x="925.0" y="268.0" width="12.0" height="3" fill="#35df39" stroke="#03aa10" /><rect x="938.0" y="306.5" width="12.0" height="137.70000000000002" fill="#80c9ff" stroke="#0b6cba" /><rect x="951.0" y="306.5" width="12.0" height="137.70000000000002" fill="#fff874" stroke="#eb9c26" /><rect x="925.0" y="459.5" width="12.0" height="153.5" fill="#35df39" stroke="#03aa10" /><rect x="938.0" y="459.5" width="12.0" height="153.5" fill="#80c9ff" stroke="#0b6cba" /><rect x="1026.0" y="0.0" width="12.0" height="137.70000000000002" fill="#ff3c3c" stroke="#c71f1f" /><rect x="1052.0" y="0.0" width="12.0" height="137.70000000000002" fill="#80c9ff" stroke="#0b6cba" /><rect x="1026.0" y="153.0" width="12.0" height="3" fill="#ff3c3c" stroke="#c71f1f" /><rect x="1039.0" y="153.0" width="12.0" height="3" fill="#35df39" stroke="#03aa10" /><rect x="1026.0" y="229.5" width="12.0" height="3" fill="#ff3c3c" stroke="#c71f1f" /><rect x="1052.0" y="306.5" width="12.0" height="3" fill="#80c9ff" stroke="#0b6cba" /><rect x="1078.0" y="306.5" width="12.0" height="3" fill="#ff83f4" stroke="#d002bc" /><rect x="1039.0" y="383.0" width="12.0" height="3" fill="#35df39" stroke="#03aa10" /><rect x="1065.0" y="383.0" width="12.0" height="3" fill="#fff874" stroke="#eb9c26" /><rect x="1052.0" y="446.5" width="12.0" height="3" fill="#80c9ff" stroke="#0b6cba" /><rect x="1065.0" y="446.5" width="12.0" height="3" fill="#fff874" stroke="#eb9c26" /><rect x="1065.0" y="485.0" width="12.0" height="3" fill="#fff874" stroke="#eb9c26" /><rect x="1052.0" y="498.0" width="12.0" height="3" fill="#80c9ff" stroke="#0b6cba" /><rect x="1052.0" y="536.0" width="12.0" height="3" fill="#80c9ff" stroke="#0b6cba" /><rect x="1065.0" y="536.0" width="12.0" height="3" fill="#fff874" stroke="#eb9c26" /><rect x="1052.0" y="574.5" width="12.0" height="3" fill="#80c9ff" stroke="#0b6cba" /><rect x="1153.0" y="0.0" width="12.0" height="3" fill="#35df39" stroke="#03aa10" /><rect x="1166.0" y="0.0" width="12.0" height="3" fill="#80c9ff" stroke="#0b6cba" /><rect x="1140.0" y="64.0" width="12.0" height="3" fill="#ff3c3c" stroke="#c71f1f" /><rect x="1153.0" y="64.0" width="12.0" height="3" fill="#35df39" stroke="#03aa10" /><rect x="1140.0" y="115.0" width="12.0" height="171.9" fill="#ff3c3c" stroke="#c71f1f" /><rect x="1153.0" y="115.0" width="12.0" height="171.9" fill="#35df39" stroke="#03aa10" /><rect x="1166.0" y="115.0" width="12.0" height="171.9" fill="#80c9ff" stroke="#0b6cba" /><rect x="1140.0" y="345.0" width="12.0" height="3" fill="#ff3c3c" stroke="#c71f1f" /><rect x="1153.0" y="345.0" width="12.0" height="3" fill="#35df39" stroke="#03aa10" /><rect x="1140.0" y="421.5" width="12.0" height="3" fill="#ff3c3c" stroke="#c71f1f" /><rect x="1140.0" y="498.0" width="12.0" height="3" fill="#ff3c3c" stroke="#c71f1f" /><rect x="1166.0" y="498.0" width="12.0" height="3" fill="#80c9ff" stroke="#0b6cba" /><rect x="1192.0" y="574.5" width="12.0" height="3" fill="#ff83f4" stroke="#d002bc" /><rect x="1140" y="574.5" width="64" height="3" fill="#ff72e7" stroke="#7c7c7c" /><rect x="1254.0" y="38.0" width="12.0" height="3" fill="#ff3c3c" stroke="#c71f1f" /><rect x="1267.0" y="38.0" width="12.0" height="3" fill="#35df39" stroke="#03aa10" /><rect x="1254.0" y="115.0" width="12.0" height="3" fill="#ff3c3c" stroke="#c71f1f" /><rect x="1254.0" y="191.5" width="12.0" height="3" fill="#ff3c3c" stroke="#c71f1f" /><rect x="1280.0" y="191.5" width="12.0" height="3" fill="#80c9ff" stroke="#0b6cba" /><rect x="1306.0" y="268.0" width="12.0" height="3" fill="#ff83f4" stroke="#d002bc" /><rect x="1254" y="268.0" width="64" height="3" fill="#ff72e7" stroke="#7c7c7c" /><rect x="1254.0" y="306.5" width="12.0" height="3" fill="#ff3c3c" stroke="#c71f1f" /><rect x="1267.0" y="306.5" width="12.0" height="3" fill="#35df39" stroke="#03aa10" /><rect x="1254.0" y="344.5" width="12.0" height="3" fill="#ff3c3c" stroke="#c71f1f" /><rect x="1267.0" y="383.0" width="12.0" height="3" fill="#35df39" stroke="#03aa10" /><rect x="1280.0" y="383.0" width="12.0" height="3" fill="#80c9ff" stroke="#0b6cba" /><rect x="1254.0" y="421.0" width="12.0" height="3" fill="#ff3c3c" stroke="#c71f1f" /><rect x="1267.0" y="421.0" width="12.0" height="3" fill="#35df39" stroke="#03aa10" /><rect x="1267.0" y="459.5" width="12.0" height="3" fill="#35df39" stroke="#03aa10" /><rect x="1280.0" y="498.0" width="12.0" height="3" fill="#80c9ff" stroke="#0b6cba" /><rect x="1267.0" y="536.0" width="12.0" height="3" fill="#35df39" stroke="#03aa10" /><rect x="1280.0" y="536.0" width="12.0" height="3" fill="#80c9ff" stroke="#0b6cba" /><rect x="1293.0" y="574.5" width="12.0" height="3" fill="#fff874" stroke="#eb9c26" /><rect x="1394.0" y="0.0" width="12.0" height="3" fill="#80c9ff" stroke="#0b6cba" /><rect x="1407.0" y="0.0" width="12.0" height="3" fill="#fff874" stroke="#eb9c26" /><rect x="1394.0" y="38.5" width="12.0" height="3" fill="#80c9ff" stroke="#0b6cba" /><rect x="1368.0" y="77.0" width="12.0" height="3" fill="#ff3c3c" stroke="#c71f1f" /><rect x="1381.0" y="77.0" width="12.0" height="3" fill="#35df39" stroke="#03aa10" /><rect x="1381.0" y="115.0" width="12.0" height="3" fill="#35df39" stroke="#03aa10" /><rect x="1394.0" y="115.0" width="12.0" height="3" fill="#80c9ff" stroke="#0b6cba" /><rect x="1394.0" y="153.5" width="12.0" height="3" fill="#80c9ff" stroke="#0b6cba" /><rect x="1407.0" y="153.5" width="12.0" height="3" fill="#fff874" stroke="#eb9c26" /><rect x="1420.0" y="191.5" width="12.0" height="3" fill="#ff83f4" stroke="#d002bc" /><rect x="1368" y="191.5" width="64" height="3" fill="#ff72e7" stroke="#7c7c7c" /><rect x="1394.0" y="230.0" width="12.0" height="3" fill="#80c9ff" stroke="#0b6cba" /><rect x="1407.0" y="268.5" width="12.0" height="3" fill="#fff874" stroke="#eb9c26" /><rect x="1420.0" y="306.5" width="12.0" height="3" fill="#ff83f4" stroke="#d002bc" /><rect x="1394.0" y="345.0" width="12.0" height="3" fill="#80c9ff" stroke="#0b6cba" /><rect x="1407.0" y="383.0" width="12.0" height="3" fill="#fff874" stroke="#eb9c26" /><rect x="1420.0" y="383.0" width="12.0" height="3" fill="#ff83f4" stroke="#d002bc" /><rect x="1407.0" y="421.5" width="12.0" height="3" fill="#fff874" stroke="#eb9c26" /><rect x="1420.0" y="421.5" width="12.0" height="3" fill="#ff83f4" stroke="#d002bc" /><rect x="1407.0" y="460.0" width="12.0" height="3" fill="#fff874" stroke="#eb9c26" /><rect x="1394.0" y="498.0" width="12.0" height="3" fill="#80c9ff" stroke="#0b6cba" /><rect x="1420.0" y="536.5" width="12.0" height="3" fill="#ff83f4" stroke="#d002bc" /><rect x="1368" y="536.5" width="64" height="3" fill="#ff72e7" stroke="#7c7c7c" /><rect x="1394.0" y="574.5" width="12.0" height="3" fill="#80c9ff" stroke="#0b6cba" /><rect x="1482.0" y="0.0" width="12.0" height="3" fill="#ff3c3c" stroke="#c71f1f" /><rect x="1495.0" y="0.0" width="12.0" height="3" fill="#35df39" stroke="#03aa10" /><rect x="1508.0" y="38.5" width="12.0" height="3" fill="#80c9ff" stroke="#0b6cba" /><rect x="1521.0" y="38.5" width="12.0" height="3" fill="#fff874" stroke="#eb9c26" /><rect x="1508.0" y="76.5" width="12.0" height="3" fill="#80c9ff" stroke="#0b6cba" /><rect x="1508.0" y="115.0" width="12.0" height="3" fill="#80c9ff" stroke="#0b6cba" /><rect x="1482.0" y="153.0" width="12.0" height="3" fill="#ff3c3c" stroke="#c71f1f" /><rect x="1495.0" y="153.0" width="12.0" height="3" fill="#35df39" stroke="#03aa10" /><rect x="1495.0" y="191.5" width="12.0" height="3" fill="#35df39" stroke="#03aa10" /><rect x="1508.0" y="191.5" width="12.0" height="3" fill="#80c9ff" stroke="#0b6cba" /><rect x="1495.0" y="229.5" width="12.0" height="3" fill="#35df39" stroke="#03aa10" /><rect x="1495.0" y="268.0" width="12.0" height="3" fill="#35df39" stroke="#03aa10" /><rect x="1482.0" y="306.5" width="12.0" height="3" fill="#ff3c3c" stroke="#c71f1f" /><rect x="1482.0" y="344.5" width="12.0" height="3" fill="#ff3c3c" stroke="#c71f1f" /><rect x="1495.0" y="344.5" width="12.0" height="3" fill="#35df39" stroke="#03aa10" /><rect x="1482.0" y="383.0" width="12.0" height="3" fill="#ff3c3c" stroke="#c71f1f" /><rect x="1508.0" y="383.0" width="12.0" height="3" fill="#80c9ff" stroke="#0b6cba" /><rect x="1482.0" y="421.0" width="12.0" height="3" fill="#ff3c3c" stroke="#c71f1f" /><rect x="1495.0" y="421.0" width="12.0" height="3" fill="#35df39" stroke="#03aa10" /><rect x="1482.0" y="459.5" width="12.0" height="3" fill="#ff3c3c" stroke="#c71f1f" /><rect x="1482.0" y="498.0" width="12.0" height="3" fill="#ff3c3c" stroke="#c71f1f" /><rect x="1495.0" y="498.0" width="12.0" height="3" fill="#35df39" stroke="#03aa10" /><rect x="1482.0" y="536.0" width="12.0" height="3" fill="#ff3c3c" stroke="#c71f1f" /><rect x="1508.0" y="536.0" width="12.0" height="3" fill="#80c9ff" stroke="#0b6cba" /><rect x="1495.0" y="574.5" width="12.0" height="3" fill="#35df39" stroke="#03aa10" /><rect x="1521.0" y="574.5" width="12.0" height="3" fill="#fff874" stroke="#eb9c26" /><rect x="1622.0" y="0.0" width="12.0" height="3" fill="#80c9ff" stroke="#0b6cba" /><rect x="1635.0" y="0.0" width="12.0" height="3" fill="#fff874" stroke="#eb9c26" /><rect x="1622.0" y="64.0" width="12.0" height="3" fill="#80c9ff" stroke="#0b6cba" /><rect x="1635.0" y="64.0" width="12.0" height="3" fill="#fff874" stroke="#eb9c26" /><rect x="1609.0" y="115.0" width="12.0" height="3" fill="#35df39" stroke="#03aa10" /><rect x="1635.0" y="115.0" width="12.0" height="3" fill="#fff874" stroke="#eb9c26" /><rect x="1609.0" y="179.0" width="12.0" height="114.75" fill="#35df39" stroke="#03aa10" /><rect x="1622.0" y="179.0" width="12.0" height="114.75" fill="#80c9ff" stroke="#0b6cba" /><rect x="1635.0" y="179.0" width="12.0" height="114.75" fill="#fff874" stroke="#eb9c26" /><rect x="1622.0" y="306.5" width="12.0" height="138.15" fill="#80c9ff" stroke="#0b6cba" /><rect x="1648.0" y="306.5" width="12.0" height="138.15" fill="#ff83f4" stroke="#d002bc" /><rect x="1622.0" y="460.0" width="12.0" height="3" fill="#80c9ff" stroke="#0b6cba" /><rect x="1635.0" y="460.0" width="12.0" height="3" fill="#fff874" stroke="#eb9c26" /><rect x="1648.0" y="460.0" width="12.0" height="3" fill="#ff83f4" stroke="#d002bc" /><rect x="1710.0" y="0.0" width="12.0" height="3" fill="#ff3c3c" stroke="#c71f1f" /><rect x="1723.0" y="38.5" width="12.0" height="3" fill="#35df39" stroke="#03aa10" /><rect x="1736.0" y="76.5" width="12.0" height="3" fill="#80c9ff" stroke="#0b6cba" /><rect x="1749.0" y="115.0" width="12.0" height="3" fill="#fff874" stroke="#eb9c26" /><rect x="1723.0" y="153.0" width="12.0" height="3" fill="#35df39" stroke="#03aa10" /><rect x="1736.0" y="191.5" width="12.0" height="3" fill="#80c9ff" stroke="#0b6cba" /><rect x="1749.0" y="230.0" width="12.0" height="3" fill="#fff874" stroke="#eb9c26" /><rect x="1762.0" y="268.0" width="12.0" height="3" fill="#ff83f4" stroke="#d002bc" /><rect x="1749.0" y="306.5" width="12.0" height="3" fill="#fff874" stroke="#eb9c26" /><rect x="1736.0" y="344.5" width="12.0" height="3" fill="#80c9ff" stroke="#0b6cba" /><rect x="1749.0" y="383.0" width="12.0" height="3" fill="#fff874" stroke="#eb9c26" /><rect x="1749.0" y="421.5" width="12.0" height="3" fill="#fff874" stroke="#eb9c26" /><rect x="1736.0" y="459.5" width="12.0" height="3" fill="#80c9ff" stroke="#0b6cba" /><rect x="1762.0" y="498.0" width="12.0" height="3" fill="#ff83f4" stroke="#d002bc" /><rect x="1749.0" y="536.0" width="12.0" height="3" fill="#fff874" stroke="#eb9c26" /><rect x="1736.0" y="574.5" width="12.0" height="3" fill="#80c9ff" stroke="#0b6cba" /><rect x="1824.0" y="0.0" width="12.0" height="3" fill="#ff3c3c" stroke="#c71f1f" /><rect x="1837.0" y="38.5" width="12.0" height="3" fill="#35df39" stroke="#03aa10" /><rect x="1850.0" y="77.0" width="12.0" height="3" fill="#80c9ff" stroke="#0b6cba" /><rect x="1863.0" y="115.0" width="12.0" height="3" fill="#fff874" stroke="#eb9c26" /><rect x="1876.0" y="153.5" width="12.0" height="3" fill="#ff83f4" stroke="#d002bc" /><rect x="1876.0" y="191.5" width="12.0" height="3" fill="#ff83f4" stroke="#d002bc" /><rect x="1863.0" y="230.0" width="12.0" height="3" fill="#fff874" stroke="#eb9c26" /><rect x="1863.0" y="268.5" width="12.0" height="3" fill="#fff874" stroke="#eb9c26" /><rect x="1850.0" y="306.5" width="12.0" height="3" fill="#80c9ff" stroke="#0b6cba" /><rect x="1863.0" y="306.5" width="12.0" height="3" fill="#fff874" stroke="#eb9c26" /><rect x="1850.0" y="345.0" width="12.0" height="3" fill="#80c9ff" stroke="#0b6cba" /><rect x="1863.0" y="383.0" width="12.0" height="3" fill="#fff874" stroke="#eb9c26" /><rect x="1876.0" y="383.0" width="12.0" height="3" fill="#ff83f4" stroke="#d002bc" /><rect x="1876.0" y="421.5" width="12.0" height="3" fill="#ff83f4" stroke="#d002bc" /><rect x="1863.0" y="460.0" width="12.0" height="3" fill="#fff874" stroke="#eb9c26" /><rect x="1850.0" y="498.0" width="12.0" height="3" fill="#80c9ff" stroke="#0b6cba" /><rect x="1837.0" y="536.5" width="12.0" height="3" fill="#35df39" stroke="#03aa10" /><rect x="1824.0" y="574.5" width="12.0" height="3" fill="#ff3c3c" stroke="#c71f1f" /><rect x="1938.0" y="0.0" width="12.0" height="3" fill="#ff3c3c" stroke="#c71f1f" /><rect x="1951.0" y="0.0" width="12.0" height="3" fill="#35df39" stroke="#03aa10" /><rect x="1951.0" y="38.5" width="12.0" height="3" fill="#35df39" stroke="#03aa10" /><rect x="1964.0" y="76.5" width="12.0" height="3" fill="#80c9ff" stroke="#0b6cba" /><rect x="1964.0" y="115.0" width="12.0" height="3" fill="#80c9ff" stroke="#0b6cba" /><rect x="1977.0" y="115.0" width="12.0" height="3" fill="#fff874" stroke="#eb9c26" /><rect x="1951.0" y="153.0" width="12.0" height="3" fill="#35df39" stroke="#03aa10" /><rect x="1964.0" y="153.0" width="12.0" height="3" fill="#80c9ff" stroke="#0b6cba" /><rect x="1964.0" y="191.5" width="12.0" height="3" fill="#80c9ff" stroke="#0b6cba" /><rect x="1977.0" y="230.0" width="12.0" height="3" fill="#fff874" stroke="#eb9c26" /><rect x="1951.0" y="268.0" width="12.0" height="3" fill="#35df39" stroke="#03aa10" /><rect x="1964.0" y="268.0" width="12.0" height="3" fill="#80c9ff" stroke="#0b6cba" /><rect x="1938.0" y="306.5" width="12.0" height="3" fill="#ff3c3c" stroke="#c71f1f" /><rect x="1951.0" y="306.5" width="12.0" height="3" fill="#35df39" stroke="#03aa10" /><rect x="1951.0" y="344.5" width="12.0" height="3" fill="#35df39" stroke="#03aa10" /><rect x="1964.0" y="344.5" width="12.0" height="3" fill="#80c9ff" stroke="#0b6cba" /><rect x="1938.0" y="383.0" width="12.0" height="3" fill="#ff3c3c" stroke="#c71f1f" /><rect x="1964.0" y="383.0" width="12.0" height="3" fill="#80c9ff" stroke="#0b6cba" /><rect x="1964.0" y="421.5" width="12.0" height="3" fill="#80c9ff" stroke="#0b6cba" /><rect x="1938.0" y="459.5" width="12.0" height="3" fill="#ff3c3c" stroke="#c71f1f" /><rect x="1951.0" y="498.0" width="12.0" height="3" fill="#35df39" stroke="#03aa10" /><rect x="1951.0" y="536.0" width="12.0" height="3" fill="#35df39" stroke="#03aa10" /><rect x="1964.0" y="536.0" width="12.0" height="3" fill="#80c9ff" stroke="#0b6cba" /><rect x="1977.0" y="574.5" width="12.0" height="3" fill="#fff874" stroke="#eb9c26" /><rect x="2104.0" y="0.0" width="12.0" height="3" fill="#ff83f4" stroke="#d002bc" /><rect x="2104.0" y="25.5" width="12.0" height="3" fill="#ff83f4" stroke="#d002bc" /><rect x="2052" y="25.5" width="64" height="3" fill="#ff72e7" stroke="#7c7c7c" /><rect x="2065.0" y="38.0" width="12.0" height="3" fill="#35df39" stroke="#03aa10" /><rect x="2078.0" y="76.5" width="12.0" height="3" fill="#80c9ff" stroke="#0b6cba" /><rect x="2091.0" y="114.5" width="12.0" height="3" fill="#fff874" stroke="#eb9c26" /><rect x="2104.0" y="153.0" width="12.0" height="3" fill="#ff83f4" stroke="#d002bc" /><rect x="2065.0" y="191.5" width="12.0" height="3" fill="#35df39" stroke="#03aa10" /><rect x="2078.0" y="229.5" width="12.0" height="3" fill="#80c9ff" stroke="#0b6cba" /><rect x="2091.0" y="268.0" width="12.0" height="3" fill="#fff874" stroke="#eb9c26" /><rect x="2104.0" y="306.0" width="12.0" height="3" fill="#ff83f4" stroke="#d002bc" /><rect x="2104.0" y="344.5" width="12.0" height="3" fill="#ff83f4" stroke="#d002bc" /><rect x="2052" y="344.5" width="64" height="3" fill="#ff72e7" stroke="#7c7c7c" /><rect x="2052.0" y="383.0" width="12.0" height="3" fill="#ff3c3c" stroke="#c71f1f" /><rect x="2065.0" y="421.0" width="12.0" height="3" fill="#35df39" stroke="#03aa10" /><rect x="2078.0" y="421.0" width="12.0" height="3" fill="#80c9ff" stroke="#0b6cba" /><rect x="2065.0" y="459.5" width="12.0" height="3" fill="#35df39" stroke="#03aa10" /><rect x="2091.0" y="459.5" width="12.0" height="3" fill="#fff874" stroke="#eb9c26" /><rect x="2052.0" y="497.5" width="12.0" height="3" fill="#ff3c3c" stroke="#c71f1f" /><rect x="2065.0" y="497.5" width="12.0" height="3" fill="#35df39" stroke="#03aa10" /><rect x="2078.0" y="497.5" width="12.0" height="3" fill="#80c9ff" stroke="#0b6cba" /><rect x="2179.0" y="0.0" width="12.0" height="3" fill="#35df39" stroke="#03aa10" /><rect x="2192.0" y="0.0" width="12.0" height="3" fill="#80c9ff" stroke="#0b6cba" /><rect x="2166.0" y="76.5" width="12.0" height="3" fill="#ff3c3c" stroke="#c71f1f" /><rect x="2179.0" y="76.5" width="12.0" height="3" fill="#35df39" stroke="#03aa10" /><rect x="2166.0" y="140.5" width="12.0" height="149.4" fill="#ff3c3c" stroke="#c71f1f" /><rect x="2192.0" y="140.5" width="12.0" height="149.4" fill="#80c9ff" stroke="#0b6cba" /><rect x="2192.0" y="306.5" width="12.0" height="3" fill="#80c9ff" stroke="#0b6cba" /><rect x="2205.0" y="306.5" width="12.0" height="3" fill="#fff874" stroke="#eb9c26" /><rect x="2192.0" y="344.5" width="12.0" height="3" fill="#80c9ff" stroke="#0b6cba" /><rect x="2192.0" y="383.0" width="12.0" height="3" fill="#80c9ff" stroke="#0b6cba" /><rect x="2205.0" y="383.0" width="12.0" height="3" fill="#fff874" stroke="#eb9c26" /><rect x="2205.0" y="408.5" width="12.0" height="3" fill="#fff874" stroke="#eb9c26" /><rect x="2179.0" y="447.0" width="12.0" height="166.0" fill="#35df39" stroke="#03aa10" /><rect x="2192.0" y="447.0" width="12.0" height="166.0" fill="#80c9ff" stroke="#0b6cba" /><rect x="2293.0" y="0.0" width="12.0" height="3" fill="#35df39" stroke="#03aa10" /><rect x="2306.0" y="0.0" width="12.0" height="3" fill="#80c9ff" stroke="#0b6cba" /><rect x="2280.0" y="76.5" width="12.0" height="3" fill="#ff3c3c" stroke="#c71f1f" /><rect x="2293.0" y="76.5" width="12.0" height="3" fill="#35df39" stroke="#03aa10" /><rect x="2280.0" y="140.0" width="12.0" height="149.4" fill="#ff3c3c" stroke="#c71f1f" /><rect x="2306.0" y="140.0" width="12.0" height="149.4" fill="#80c9ff" stroke="#0b6cba" /><rect x="2293.0" y="306.0" width="12.0" height="3" fill="#35df39" stroke="#03aa10" /><rect x="2306.0" y="306.0" width="12.0" height="3" fill="#80c9ff" stroke="#0b6cba" /><rect x="2293.0" y="344.5" width="12.0" height="3" fill="#35df39" stroke="#03aa10" /><rect x="2293.0" y="383.0" width="12.0" height="3" fill="#35df39" stroke="#03aa10" /><rect x="2306.0" y="383.0" width="12.0" height="3" fill="#80c9ff" stroke="#0b6cba" /><rect x="2306.0" y="408.5" width="12.0" height="3" fill="#80c9ff" stroke="#0b6cba" /><rect x="2306.0" y="446.5" width="12.0" height="3" fill="#80c9ff" stroke="#0b6cba" /><rect x="2319.0" y="446.5" width="12.0" height="3" fill="#fff874" stroke="#eb9c26" /><rect x="2306.0" y="497.5" width="12.0" height="3" fill="#80c9ff" stroke="#0b6cba" /><rect x="2280.0" y="536.0" width="12.0" height="3" fill="#ff3c3c" stroke="#c71f1f" /><rect x="2293.0" y="536.0" width="12.0" height="3" fill="#35df39" stroke="#03aa10" /><rect x="2280.0" y="574.5" width="12.0" height="3" fill="#ff3c3c" stroke="#c71f1f" /><rect x="2394.0" y="0.0" width="12.0" height="3" fill="#ff3c3c" stroke="#c71f1f" /><rect x="2407.0" y="0.0" width="12.0" height="3" fill="#35df39" stroke="#03aa10" /><rect x="2407.0" y="38.5" width="12.0" height="3" fill="#35df39" stroke="#03aa10" /><rect x="2407.0" y="76.5" width="12.0" height="3" fill="#35df39" stroke="#03aa10" /><rect x="2420.0" y="76.5" width="12.0" height="3" fill="#80c9ff" stroke="#0b6cba" /><rect x="2433.0" y="115.0" width="12.0" height="3" fill="#fff874" stroke="#eb9c26" /><rect x="2407.0" y="153.5" width="12.0" height="3" fill="#35df39" stroke="#03aa10" /><rect x="2433.0" y="153.5" width="12.0" height="3" fill="#fff874" stroke="#eb9c26" /><rect x="2420.0" y="191.5" width="12.0" height="3" fill="#80c9ff" stroke="#0b6cba" /><rect x="2433.0" y="230.0" width="12.0" height="3" fill="#fff874" stroke="#eb9c26" /><rect x="2407.0" y="268.0" width="12.0" height="3" fill="#35df39" stroke="#03aa10" /><rect x="2394.0" y="306.5" width="12.0" height="3" fill="#ff3c3c" stroke="#c71f1f" /><rect x="2407.0" y="306.5" width="12.0" height="3" fill="#35df39" stroke="#03aa10" /><rect x="2407.0" y="345.0" width="12.0" height="3" fill="#35df39" stroke="#03aa10" /><rect x="2407.0" y="383.0" width="12.0" height="3" fill="#35df39" stroke="#03aa10" /><rect x="2420.0" y="383.0" width="12.0" height="3" fill="#80c9ff" stroke="#0b6cba" /><rect x="2433.0" y="421.5" width="12.0" height="3" fill="#fff874" stroke="#eb9c26" /><rect x="2420.0" y="459.5" width="12.0" height="3" fill="#80c9ff" stroke="#0b6cba" /><rect x="2446.0" y="498.0" width="12.0" height="3" fill="#ff83f4" stroke="#d002bc" /><rect x="2420.0" y="536.0" width="12.0" height="3" fill="#80c9ff" stroke="#0b6cba" /><rect x="2446.0" y="574.5" width="12.0" height="3" fill="#ff83f4" stroke="#d002bc" /><rect x="2394" y="574.5" width="64" height="3" fill="#ff72e7" stroke="#7c7c7c" /><rect x="2508.0" y="0.0" width="12.0" height="3" fill="#ff3c3c" stroke="#c71f1f" /><rect x="2521.0" y="0.0" width="12.0" height="3" fill="#35df39" stroke="#03aa10" /><rect x="2508.0" y="38.0" width="12.0" height="3" fill="#ff3c3c" stroke="#c71f1f" /><rect x="2521.0" y="76.5" width="12.0" height="3" fill="#35df39" stroke="#03aa10" /><rect x="2534.0" y="76.5" width="12.0" height="3" fill="#80c9ff" stroke="#0b6cba" /><rect x="2521.0" y="114.5" width="12.0" height="3" fill="#35df39" stroke="#03aa10" /><rect x="2534.0" y="153.0" width="12.0" height="3" fill="#80c9ff" stroke="#0b6cba" /><rect x="2547.0" y="153.0" width="12.0" height="3" fill="#fff874" stroke="#eb9c26" /><rect x="2534.0" y="191.5" width="12.0" height="3" fill="#80c9ff" stroke="#0b6cba" /><rect x="2521.0" y="229.5" width="12.0" height="3" fill="#35df39" stroke="#03aa10" /><rect x="2534.0" y="229.5" width="12.0" height="3" fill="#80c9ff" stroke="#0b6cba" /><rect x="2521.0" y="268.0" width="12.0" height="3" fill="#35df39" stroke="#03aa10" /><rect x="2534.0" y="306.0" width="12.0" height="3" fill="#80c9ff" stroke="#0b6cba" /><rect x="2547.0" y="306.0" width="12.0" height="3" fill="#fff874" stroke="#eb9c26" /><rect x="2560.0" y="344.5" width="12.0" height="3" fill="#ff83f4" stroke="#d002bc" /><rect x="2508" y="344.5" width="64" height="3" fill="#ff72e7" stroke="#7c7c7c" /><rect x="2521.0" y="383.0" width="12.0" height="3" fill="#35df39" stroke="#03aa10" /><rect x="2534.0" y="383.0" width="12.0" height="3" fill="#80c9ff" stroke="#0b6cba" /><rect x="2508.0" y="421.0" width="12.0" height="3" fill="#ff3c3c" stroke="#c71f1f" /><rect x="2521.0" y="421.0" width="12.0" height="3" fill="#35df39" stroke="#03aa10" /><rect x="2508.0" y="459.5" width="12.0" height="3" fill="#ff3c3c" stroke="#c71f1f" /><rect x="2508.0" y="478.5" width="12.0" height="3" fill="#ff3c3c" stroke="#c71f1f" /><rect x="2508.0" y="497.5" width="12.0" height="3" fill="#ff3c3c" stroke="#c71f1f" /><rect x="2521.0" y="497.5" width="12.0" height="3" fill="#35df39" stroke="#03aa10" /><rect x="2534.0" y="536.0" width="12.0" height="3" fill="#80c9ff" stroke="#0b6cba" /><rect x="2547.0" y="574.5" width="12.0" height="3" fill="#fff874" stroke="#eb9c26" /><rect x="2648.0" y="0.0" width="12.0" height="3" fill="#80c9ff" stroke="#0b6cba" /><rect x="2661.0" y="0.0" width="12.0" height="3" fill="#fff874" stroke="#eb9c26" /><rect x="2674.0" y="38.5" width="12.0" height="3" fill="#ff83f4" stroke="#d002bc" /><rect x="2622" y="38.5" width="64" height="3" fill="#ff72e7" stroke="#7c7c7c" /><rect x="2622.0" y="76.5" width="12.0" height="3" fill="#ff3c3c" stroke="#c71f1f" /><rect x="2622.0" y="115.0" width="12.0" height="3" fill="#ff3c3c" stroke="#c71f1f" /><rect x="2635.0" y="115.0" width="12.0" height="3" fill="#35df39" stroke="#03aa10" /><rect x="2648.0" y="153.5" width="12.0" height="3" fill="#80c9ff" stroke="#0b6cba" /><rect x="2661.0" y="191.5" width="12.0" height="3" fill="#fff874" stroke="#eb9c26" /><rect x="2635.0" y="230.0" width="12.0" height="3" fill="#35df39" stroke="#03aa10" /><rect x="2648.0" y="230.0" width="12.0" height="3" fill="#80c9ff" stroke="#0b6cba" /><rect x="2635.0" y="268.0" width="12.0" height="3" fill="#35df39" stroke="#03aa10" /><rect x="2622.0" y="293.5" width="12.0" height="3" fill="#ff3c3c" stroke="#c71f1f" /><rect x="2648.0" y="293.5" width="12.0" height="3" fill="#80c9ff" stroke="#0b6cba" /><rect x="2622.0" y="447.0" width="12.0" height="3" fill="#ff3c3c" stroke="#c71f1f" /><rect x="2635.0" y="447.0" width="12.0" height="3" fill="#35df39" stroke="#03aa10" /><rect x="2648.0" y="447.0" width="12.0" height="3" fill="#80c9ff" stroke="#0b6cba" /><rect x="2762.0" y="25.5" width="12.0" height="3" fill="#80c9ff" stroke="#0b6cba" /><rect x="2788.0" y="76.5" width="12.0" height="3" fill="#ff83f4" stroke="#d002bc" /><rect x="2762.0" y="115.0" width="12.0" height="3" fill="#80c9ff" stroke="#0b6cba" /><rect x="2749.0" y="153.0" width="12.0" height="3" fill="#35df39" stroke="#03aa10" /><rect x="2749.0" y="191.5" width="12.0" height="3" fill="#35df39" stroke="#03aa10" /><rect x="2775.0" y="229.5" width="12.0" height="3" fill="#fff874" stroke="#eb9c26" /><rect x="2749.0" y="255.0" width="12.0" height="3" fill="#35df39" stroke="#03aa10" /><rect x="2736.0" y="332.0" width="12.0" height="3" fill="#ff3c3c" stroke="#c71f1f" /><rect x="2762.0" y="383.0" width="12.0" height="3" fill="#80c9ff" stroke="#0b6cba" /><rect x="2736.0" y="421.0" width="12.0" height="3" fill="#ff3c3c" stroke="#c71f1f" /><rect x="2736.0" y="459.5" width="12.0" height="3" fill="#ff3c3c" stroke="#c71f1f" /><rect x="2749.0" y="459.5" width="12.0" height="3" fill="#35df39" stroke="#03aa10" /><rect x="2736.0" y="497.5" width="12.0" height="3" fill="#ff3c3c" stroke="#c71f1f" /><rect x="2736.0" y="536.0" width="12.0" height="3" fill="#ff3c3c" stroke="#c71f1f" /><rect x="2749.0" y="536.0" width="12.0" height="3" fill="#35df39" stroke="#03aa10" /><rect x="2736.0" y="561.5" width="12.0" height="3" fill="#ff3c3c" stroke="#c71f1f" /><rect x="2749.0" y="561.5" width="12.0" height="3" fill="#35df39" stroke="#03aa10" /><rect x="2876.0" y="25.5" width="12.0" height="3" fill="#80c9ff" stroke="#0b6cba" /><rect x="2902.0" y="76.5" width="12.0" height="3" fill="#ff83f4" stroke="#d002bc" /><rect x="2876.0" y="115.0" width="12.0" height="3" fill="#80c9ff" stroke="#0b6cba" /><rect x="2863.0" y="153.5" width="12.0" height="3" fill="#35df39" stroke="#03aa10" /><rect x="2876.0" y="153.5" width="12.0" height="3" fill="#80c9ff" stroke="#0b6cba" /><rect x="2863.0" y="191.5" width="12.0" height="3" fill="#35df39" stroke="#03aa10" /><rect x="2863.0" y="230.0" width="12.0" height="3" fill="#35df39" stroke="#03aa10" /><rect x="2876.0" y="230.0" width="12.0" height="3" fill="#80c9ff" stroke="#0b6cba" /><rect x="2863.0" y="255.5" width="12.0" height="3" fill="#35df39" stroke="#03aa10" /><rect x="2876.0" y="255.5" width="12.0" height="3" fill="#80c9ff" stroke="#0b6cba" /><rect x="2850.0" y="294.0" width="12.0" height="3" fill="#ff3c3c" stroke="#c71f1f" /><rect x="2876.0" y="294.0" width="12.0" height="3" fill="#80c9ff" stroke="#0b6cba" /></svg>