<?xml version="1.0" encoding="UTF-8"?><svg xmlns="http://www.w3.org/2000/svg" xmlns:xlink="http://www.w3.org/1999/xlink"     width="3808" height="1192.5" viewBox="0 0 3808 1192.5"><defs></defs><rect x="0" y="164.0" width="188" height="1028.5" fill="black" /><rect x="0" y="1191.5" width="188" height="1" fill="white" fill-opacity="0.5" /><text x="198" y="1191.5" font-size="14" fill="white" font-family="monospace" dominant-baseline="initial">1</text><rect x="0" y="1127.0" width="188" height="1" fill="white" fill-opacity="0.2" /><rect x="0" y="1063.0" width="188" height="1" fill="white" fill-opacity="0.2" /><rect x="0" y="998.5" width="188" height="1" fill="white" fill-opacity="0.2" /><rect x="0" y="934.5" width="188" height="1" fill="white" fill-opacity="0.5" /><text x="198" y="934.5" font-size="14" fill="white" font-family="monospace" dominant-baseline="initial">2</text><rect x="0" y="870.0" width="188" height="1" fill="white" fill-opacity="0.2" /><rect x="0" y="806.0" width="188" height="1" fill="white" fill-opacity="0.2" /><rect x="0" y="741.5" width="188" height="1" fill="white" fill-opacity="0.2" /><rect x="0" y="677.0" width="188" height="1" fill="white" fill-opacity="0.5" /><text x="198" y="677.0" font-size="14" fill="white" font-family="monospace" dominant-baseline="initial">3</text><rect x="0" y="613.0" width="188" height="1" fill="white" fill-opacity="0.2" /><rect x="0" y="548.5" width="188" height="1" fill="white" fill-opacity="0.2" /><rect x="0" y="484.5" width="188" height="1" fill="white" fill-opacity="0.2" /><rect x="0" y="420.0" width="188" height="1" fill="white" fill-opacity="0.5" /><text x="198" y="420.0" font-size="14" fill="white" font-family="monospace" dominant-baseline="initial">4</text><rect x="0" y="356.0" width="188" height="1" fill="white" fill-opacity="0.2" /><rect x="0" y="291.5" width="188" height="1" fill="white" fill-opacity="0.2" /><rect x="0" y="227.0" width="188" height="1" fill="white" fill-opacity="0.2" /><rect x="0" y="163.0" width="188" height="1" fill="white" fill-opacity="0.5" /><text x="198" y="163.0" font-size="14" fill="white" font-family="monospace" dominant-baseline="initial">5</text><rect x="0" y="1191.5" width="188" height="1" fill="aqua" fill-opacity="0.75" /><text x="0" y="1187.5" font-size="14" fill="aqua" fill-opacity="0.75" font-family="monospace">Intro</text><rect x="0" y="420.05000000000007" width="188" height="1" fill="aqua" fill-opacity="0.75" /><text x="0" y="416.05000000000007" font-size="14" fill="aqua" fill-opacity="0.75" font-family="monospace">Phrase A</text><rect x="0" y="1191.5" width="188" height="1" fill="lime" fill-opacity="0.75" /><text x="198" y="1178.5" font-size="14" fill="lime" font-family="monospace" dominant-baseline="initial">140</text><rect x="238" y="164.0" width="188" height="1028.5" fill="black" /><rect x="238" y="1191.5" width="188" height="1" fill="white" fill-opacity="0.5" /><text x="436" y="1191.5" font-size="14" fill="white" font-family="monospace" dominant-baseline="initial">5</text><rect x="238" y="1127.0" width="188" height="1" fill="white" fill-opacity="0.2" /><rect x="238" y="1063.0" width="188" height="1" fill="white" fill-opacity="0.2" /><rect x="238" y="998.5" width="188" height="1" fill="white" fill-opacity="0.2" /><rect x="238" y="934.5" width="188" height="1" fill="white" fill-opacity="0.5" /><text x="436" y="934.5" font-size="14" fill="white" font-family="monospace" dominant-baseline="initial">6</text><rect x="238" y="870.0" width="188" height="1" fill="white" fill-opacity="0.2" /><rect x="238" y="805.5" width="188" height="1" fill="white" fill-opacity="0.2" /><rect x="238" y="741.5" width="188" height="1" fill="white" fill-opacity="0.2" /><rect x="238" y="677.0" width="188" height="1" fill="white" fill-opacity="0.5" /><text x="436" y="677.0" font-size="14" fill="white" font-family="monospace" dominant-baseline="initial">7</text><rect x="238" y="613.0" width="188" height="1" fill="white" fill-opacity="0.2" /><rect x="238" y="548.5" width="188" height="1" fill="white" fill-opacity="0.2" /><rect x="238" y="484.5" width="188" height="1" fill="white" fill-opacity="0.2" /><rect x="238" y="420.0" width="188" height="1" fill="white" fill-opacity="0.5" /><text x="436" y="420.0" font-size="14" fill="white" font-family="monospace" dominant-baseline="initial">8</text><rect x="238" y="355.5" width="188" height="1" fill="white" fill-opacity="0.2" /><rect x="238" y="291.5" width="188" height="1" fill="white" fill-opacity="0.2" /><rect x="238" y="227.0" width="188" height="1" fill="white" fill-opacity="0.2" /><rect x="238" y="163.0" width="188" height="1" fill="white" fill-opacity="0.5" /><text x="436" y="163.0" font-size="14" fill="white" font-family="monospace" dominant-baseline="initial">9</text><rect x="476" y="164.0" width="188" height="1028.5" fill="black" /><rect x="476" y="1191.5" width="188" height="1" fill="white" fill-opacity="0.5" /><text x="674" y="1191.5" font-size="14" fill="white" font-family="monospace" dominant-baseline="initial">9</text><rect x="476" y="1127.0" width="188" height="1" fill="white" fill-opacity="0.2" /><rect x="476" y="1063.0" width="188" height="1" fill="white" fill-opacity="0.2" /><rect x="476" y="998.5" width="188" height="1" fill="white" fill-opacity="0.2" /><rect x="476" y="934.0" width="188" height="1" fill="white" fill-opacity="0.5" /><text x="674" y="934.0" font-size="14" fill="white" font-family="monospace" dominant-baseline="initial">10</text><rect x="476" y="870.0" width="188" height="1" fill="white" fill-opacity="0.2" /><rect x="476" y="805.5" width="188" height="1" fill="white" fill-opacity="0.2" /><rect x="476" y="741.5" width="188" height="1" fill="white" fill-opacity="0.2" /><rect x="476" y="677.0" width="188" height="1" fill="white" fill-opacity="0.5" /><text x="674" y="677.0" font-size="14" fill="white" font-family="monospace" dominant-baseline="initial">11</text><rect x="476" y="613.0" width="188" height="1" fill="white" fill-opacity="0.2" /><rect x="476" y="548.5" width="188" height="1" fill="white" fill-opacity="0.2" /><rect x="476" y="484.0" width="188" height="1" fill="white" fill-opacity="0.2" /><rect x="476" y="420.0" width="188" height="1" fill="white" fill-opacity="0.5" /><text x="674" y="420.0" font-size="14" fill="white" font-family="monospace" dominant-baseline="initial">12</text><rect x="476" y="355.5" width="188" height="1" fill="white" fill-opacity="0.2" /><rect x="476" y="291.5" width="188" height="1" fill="white" fill-opacity="0.2" /><rect x="476" y="227.0" width="188" height="1" fill="white" fill-opacity="0.2" /><rect x="476" y="163.0" width="188" height="1" fill="white" fill-opacity="0.5" /><text x="674" y="163.0" font-size="14" fill="white" font-family="monospace" dominant-baseline="initial">13</text><rect x="476" y="419.9500000000003" width="188" height="1" fill="aqua" fill-opacity="0.75" /><text x="476" y="415.9500000000003" font-size="14" fill="aqua" fill-opacity="0.75" font-family="monospace">Phrase B</text><rect x="714" y="163.5" width="188" height="1029.0" fill="black" /><rect x="714" y="1191.5" width="188" height="1" fill="white" fill-opacity="0.5" /><text x="912" y="1191.5" font-size="14" fill="white" font-family="monospace" dominant-baseline="initial">13</text><rect x="714" y="1127.0" width="188" height="1" fill="white" fill-opacity="0.2" /><rect x="714" y="1062.5" width="188" height="1" fill="white" fill-opacity="0.2" /><rect x="714" y="998.5" width="188" height="1" fill="white" fill-opacity="0.2" /><rect x="714" y="934.0" width="188" height="1" fill="white" fill-opacity="0.5" /><text x="912" y="934.0" font-size="14" fill="white" font-family="monospace" dominant-baseline="initial">14</text><rect x="714" y="870.0" width="188" height="1" fill="white" fill-opacity="0.2" /><rect x="714" y="805.5" width="188" height="1" fill="white" fill-opacity="0.2" /><rect x="714" y="741.5" width="188" height="1" fill="white" fill-opacity="0.2" /><rect x="714" y="677.0" width="188" height="1" fill="white" fill-opacity="0.5" /><text x="912" y="677.0" font-size="14" fill="white" font-family="monospace" dominant-baseline="initial">15</text><rect x="714" y="612.5" width="188" height="1" fill="white" fill-opacity="0.2" /><rect x="714" y="548.5" width="188" height="1" fill="white" fill-opacity="0.2" /><rect x="714" y="484.0" width="188" height="1" fill="white" fill-opacity="0.2" /><rect x="714" y="420.0" width="188" height="1" fill="white" fill-opacity="0.5" /><text x="912" y="420.0" font-size="14" fill="white" font-family="monospace" dominant-baseline="initial">16</text><rect x="714" y="355.5" width="188" height="1" fill="white" fill-opacity="0.2" /><rect x="714" y="291.5" width="188" height="1" fill="white" fill-opacity="0.2" /><rect x="714" y="227.0" width="188" height="1" fill="white" fill-opacity="0.2" /><rect x="714" y="162.5" width="188" height="1" fill="white" fill-opacity="0.5" /><text x="912" y="162.5" font-size="14" fill="white" font-family="monospace" dominant-baseline="initial">17</text><rect x="952" y="164.0" width="188" height="1028.5" fill="black" /><rect x="952" y="1191.5" width="188" height="1" fill="white" fill-opacity="0.5" /><text x="1150" y="1191.5" font-size="14" fill="white" font-family="monospace" dominant-baseline="initial">17</text><rect x="952" y="1127.5" width="188" height="1" fill="white" fill-opacity="0.2" /><rect x="952" y="1063.0" width="188" height="1" fill="white" fill-opacity="0.2" /><rect x="952" y="999.0" width="188" height="1" fill="white" fill-opacity="0.2" /><rect x="952" y="934.5" width="188" height="1" fill="white" fill-opacity="0.5" /><text x="1150" y="934.5" font-size="14" fill="white" font-family="monospace" dominant-baseline="initial">18</text><rect x="952" y="870.5" width="188" height="1" fill="white" fill-opacity="0.2" /><rect x="952" y="806.0" width="188" height="1" fill="white" fill-opacity="0.2" /><rect x="952" y="741.5" width="188" height="1" fill="white" fill-opacity="0.2" /><rect x="952" y="677.5" width="188" height="1" fill="white" fill-opacity="0.5" /><text x="1150" y="677.5" font-size="14" fill="white" font-family="monospace" dominant-baseline="initial">19</text><rect x="952" y="613.0" width="188" height="1" fill="white" fill-opacity="0.2" /><rect x="952" y="549.0" width="188" height="1" fill="white" fill-opacity="0.2" /><rect x="952" y="484.5" width="188" height="1" fill="white" fill-opacity="0.2" /><rect x="952" y="420.5" width="188" height="1" fill="white" fill-opacity="0.5" /><text x="1150" y="420.5" font-size="14" fill="white" font-family="monospace" dominant-baseline="initial">20</text><rect x="952" y="356.0" width="188" height="1" fill="white" fill-opacity="0.2" /><rect x="952" y="291.5" width="188" height="1" fill="white" fill-opacity="0.2" /><rect x="952" y="227.5" width="188" height="1" fill="white" fill-opacity="0.2" /><rect x="952" y="163.0" width="188" height="1" fill="white" fill-opacity="0.5" /><text x="1150" y="163.0" font-size="14" fill="white" font-family="monospace" dominant-baseline="initial">21</text><rect x="952" y="420.35000000000036" width="188" height="1" fill="aqua" fill-opacity="0.75" /><text x="952" y="416.35000000000036" font-size="14" fill="aqua" fill-opacity="0.75" font-family="monospace">Phrase C</text><rect x="1190" y="164.0" width="188" height="1028.5" fill="black" /><rect x="1190" y="1191.5" width="188" height="1" fill="white" fill-opacity="0.5" /><text x="1388" y="1191.5" font-size="14" fill="white" font-family="monospace" dominant-baseline="initial">21</text><rect x="1190" y="1127.5" width="188" height="1" fill="white" fill-opacity="0.2" /><rect x="1190" y="1063.0" width="188" height="1" fill="white" fill-opacity="0.2" /><rect x="1190" y="999.0" width="188" height="1" fill="white" fill-opacity="0.2" /><rect x="1190" y="934.5" width="188" height="1" fill="white" fill-opacity="0.5" /><text x="1388" y="934.5" font-size="14" fill="white" font-family="monospace" dominant-baseline="initial">22</text><rect x="1190" y="870.0" width="188" height="1" fill="white" fill-opacity="0.2" /><rect x="1190" y="806.0" width="188" height="1" fill="white" fill-opacity="0.2" /><rect x="1190" y="741.5" width="188" height="1" fill="white" fill-opacity="0.2" /><rect x="1190" y="677.5" width="188" height="1" fill="white" fill-opacity="0.5" /><text x="1388" y="677.5" font-size="14" fill="white" font-family="monospace" dominant-baseline="initial">23</text><rect x="1190" y="613.0" width="188" height="1" fill="white" fill-opacity="0.2" /><rect x="1190" y="549.0" width="188" height="1" fill="white" fill-opacity="0.2" /><rect x="1190" y="484.5" width="188" height="1" fill="white" fill-opacity="0.2" /><rect x="1190" y="420.0" width="188" height="1" fill="white" fill-opacity="0.5" /><text x="1388" y="420.0" font-size="14" fill="white" font-family="monospace" dominant-baseline="initial">24</text><rect x="1190" y="356.0" width="188" height="1" fill="white" fill-opacity="0.2" /><rect x="1190" y="291.5" width="188" height="1" fill="white" fill-opacity="0.2" /><rect x="1190" y="227.5" width="188" height="1" fill="white" fill-opacity="0.2" /><rect x="1190" y="163.0" width="188" height="1" fill="white" fill-opacity="0.5" /><text x="1388" y="163.0" font-size="14" fill="white" font-family="monospace" dominant-baseline="initial">25</text><rect x="1428" y="164.0" width="188" height="1028.5" fill="black" /><rect x="1428" y="1191.5" width="188" height="1" fill="white" fill-opacity="0.5" /><text x="1626" y="1191.5" font-size="14" fill="white" font-family="monospace" dominant-baseline="initial">25</text><rect x="1428" y="1127.5" width="188" height="1" fill="white" fill-opacity="0.2" /><rect x="1428" y="1063.0" width="188" height="1" fill="white" fill-opacity="0.2" /><rect x="1428" y="998.5" width="188" height="1" fill="white" fill-opacity="0.2" /><rect x="1428" y="934.5" width="188" height="1" fill="white" fill-opacity="0.5" /><text x="1626" y="934.5" font-size="14" fill="white" font-family="monospace" dominant-baseline="initial">26</text><rect x="1428" y="870.0" width="188" height="1" fill="white" fill-opacity="0.2" /><rect x="1428" y="806.0" width="188" height="1" fill="white" fill-opacity="0.2" /><rect x="1428" y="741.5" width="188" height="1" fill="white" fill-opacity="0.2" /><rect x="1428" y="677.5" width="188" height="1" fill="white" fill-opacity="0.5" /><text x="1626" y="677.5" font-size="14" fill="white" font-family="monospace" dominant-baseline="initial">27</text><rect x="1428" y="613.0" width="188" height="1" fill="white" fill-opacity="0.2" /><rect x="1428" y="548.5" width="188" height="1" fill="white" fill-opacity="0.2" /><rect x="1428" y="484.5" width="188" height="1" fill="white" fill-opacity="0.2" /><rect x="1428" y="420.0" width="188" height="1" fill="white" fill-opacity="0.5" /><text x="1626" y="420.0" font-size="14" fill="white" font-family="monospace" dominant-baseline="initial">28</text><rect x="1428" y="356.0" width="188" height="1" fill="white" fill-opacity="0.2" /><rect x="1428" y="291.5" width="188" height="1" fill="white" fill-opacity="0.2" /><rect x="1428" y="227.5" width="188" height="1" fill="white" fill-opacity="0.2" /><rect x="1428" y="163.0" width="188" height="1" fill="white" fill-opacity="0.5" /><text x="1626" y="163.0" font-size="14" fill="white" font-family="monospace" dominant-baseline="initial">29</text><rect x="1428" y="420.10000000000036" width="188" height="1" fill="aqua" fill-opacity="0.75" /><text x="1428" y="416.10000000000036" font-size="14" fill="aqua" fill-opacity="0.75" font-family="monospace">Phrase D</text><rect x="1666" y="164.0" width="188" height="1028.5" fill="black" /><rect x="1666" y="1191.5" width="188" height="1" fill="white" fill-opacity="0.5" /><text x="1864" y="1191.5" font-size="14" fill="white" font-family="monospace" dominant-baseline="initial">29</text><rect x="1666" y="1127.0" width="188" height="1" fill="white" fill-opacity="0.2" /><rect x="1666" y="1063.0" width="188" height="1" fill="white" fill-opacity="0.2" /><rect x="1666" y="998.5" width="188" height="1" fill="white" fill-opacity="0.2" /><rect x="1666" y="934.5" width="188" height="1" fill="white" fill-opacity="0.5" /><text x="1864" y="934.5" font-size="14" fill="white" font-family="monospace" dominant-baseline="initial">30</text><rect x="1666" y="870.0" width="188" height="1" fill="white" fill-opacity="0.2" /><rect x="1666" y="806.0" width="188" height="1" fill="white" fill-opacity="0.2" /><rect x="1666" y="741.5" width="188" height="1" fill="white" fill-opacity="0.2" /><rect x="1666" y="677.0" width="188" height="1" fill="white" fill-opacity="0.5" /><text x="1864" y="677.0" font-size="14" fill="white" font-family="monospace" dominant-baseline="initial">31</text><rect x="1666" y="613.0" width="188" height="1" fill="white" fill-opacity="0.2" /><rect x="1666" y="548.5" width="188" height="1" fill="white" fill-opacity="0.2" /><rect x="1666" y="484.5" width="188" height="1" fill="white" fill-opacity="0.2" /><rect x="1666" y="420.0" width="188" height="1" fill="white" fill-opacity="0.5" /><text x="1864" y="420.0" font-size="14" fill="white" font-family="monospace" dominant-baseline="initial">32</text><rect x="1666" y="356.0" width="188" height="1" fill="white" fill-opacity="0.2" /><rect x="1666" y="291.5" width="188" height="1" fill="white" fill-opacity="0.2" /><rect x="1666" y="227.0" width="188" height="1" fill="white" fill-opacity="0.2" /><rect x="1666" y="163.0" width="188" height="1" fill="white" fill-opacity="0.5" /><text x="1864" y="163.0" font-size="14" fill="white" font-family="monospace" dominant-baseline="initial">33</text><rect x="1904" y="164.0" width="188" height="1028.5" fill="black" /><rect x="1904" y="1191.5" width="188" height="1" fill="white" fill-opacity="0.5" /><text x="2102" y="1191.5" font-size="14" fill="white" font-family="monospace" dominant-baseline="initial">33</text><rect x="1904" y="1127.0" width="188" height="1" fill="white" fill-opacity="0.2" /><rect x="1904" y="1063.0" width="188" height="1" fill="white" fill-opacity="0.2" /><rect x="1904" y="998.5" width="188" height="1" fill="white" fill-opacity="0.2" /><rect x="1904" y="934.5" width="188" height="1" fill="white" fill-opacity="0.5" /><text x="2102" y="934.5" font-size="14" fill="white" font-family="monospace" dominant-baseline="initial">34</text><rect x="1904" y="870.0" width="188" height="1" fill="white" fill-opacity="0.2" /><rect x="1904" y="805.5" width="188" height="1" fill="white" fill-opacity="0.2" /><rect x="1904" y="741.5" width="188" height="1" fill="white" fill-opacity="0.2" /><rect x="1904" y="677.0" width="188" height="1" fill="white" fill-opacity="0.5" /><text x="2102" y="677.0" font-size="14" fill="white" font-family="monospace" dominant-baseline="initial">35</text><rect x="1904" y="613.0" width="188" height="1" fill="white" fill-opacity="0.2" /><rect x="1904" y="548.5" width="188" height="1" fill="white" fill-opacity="0.2" /><rect x="1904" y="484.5" width="188" height="1" fill="white" fill-opacity="0.2" /><rect x="1904" y="420.0" width="188" height="1" fill="white" fill-opacity="0.5" /><text x="2102" y="420.0" font-size="14" fill="white" font-family="monospace" dominant-baseline="initial">36</text><rect x="1904" y="355.5" width="188" height="1" fill="white" fill-opacity="0.2" /><rect x="1904" y="291.5" width="188" height="1" fill="white" fill-opacity="0.2" /><rect x="1904" y="227.0" width="188" height="1" fill="white" fill-opacity="0.2" /><rect x="1904" y="163.0" width="188" height="1" fill="white" fill-opacity="0.5" /><text x="2102" y="163.0" font-size="14" fill="white" font-family="monospace" dominant-baseline="initial">37</text><rect x="1904" y="420.0" width="188" height="1" fill="aqua" fill-opacity="0.75" /><text x="1904" y="416.0" font-size="14" fill="aqua" fill-opacity="0.75" font-family="monospace">Special</text><rect x="2142" y="164.0" width="188" height="1028.5" fill="black" /><rect x="2142" y="1191.5" width="188" height="1" fill="white" fill-opacity="0.5" /><text x="2340" y="1191.5" font-size="14" fill="white" font-family="monospace" dominant-baseline="initial">37</text><rect x="2142" y="1127.0" width="188" height="1" fill="white" fill-opacity="0.2" /><rect x="2142" y="1063.0" width="188" height="1" fill="white" fill-opacity="0.2" /><rect x="2142" y="998.5" width="188" height="1" fill="white" fill-opacity="0.2" /><rect x="2142" y="934.0" width="188" height="1" fill="white" fill-opacity="0.5" /><text x="2340" y="934.0" font-size="14" fill="white" font-family="monospace" dominant-baseline="initial">38</text><rect x="2142" y="870.0" width="188" height="1" fill="white" fill-opacity="0.2" /><rect x="2142" y="805.5" width="188" height="1" fill="white" fill-opacity="0.2" /><rect x="2142" y="741.5" width="188" height="1" fill="white" fill-opacity="0.2" /><rect x="2142" y="677.0" width="188" height="1" fill="white" fill-opacity="0.5" /><text x="2340" y="677.0" font-size="14" fill="white" font-family="monospace" dominant-baseline="initial">39</text><rect x="2142" y="613.0" width="188" height="1" fill="white" fill-opacity="0.2" /><rect x="2142" y="548.5" width="188" height="1" fill="white" fill-opacity="0.2" /><rect x="2142" y="484.0" width="188" height="1" fill="white" fill-opacity="0.2" /><rect x="2142" y="420.0" width="188" height="1" fill="white" fill-opacity="0.5" /><text x="2340" y="420.0" font-size="14" fill="white" font-family="monospace" dominant-baseline="initial">40</text><rect x="2142" y="355.5" width="188" height="1" fill="white" fill-opacity="0.2" /><rect x="2142" y="291.5" width="188" height="1" fill="white" fill-opacity="0.2" /><rect x="2142" y="227.0" width="188" height="1" fill="white" fill-opacity="0.2" /><rect x="2142" y="163.0" width="188" height="1" fill="white" fill-opacity="0.5" /><text x="2340" y="163.0" font-size="14" fill="white" font-family="monospace" dominant-baseline="initial">41</text><rect x="2380" y="163.5" width="188" height="1029.0" fill="black" /><rect x="2380" y="1191.5" width="188" height="1" fill="white" fill-opacity="0.5" /><text x="2578" y="1191.5" font-size="14" fill="white" font-family="monospace" dominant-baseline="initial">41</text><rect x="2380" y="1127.0" width="188" height="1" fill="white" fill-opacity="0.2" /><rect x="2380" y="1062.5" width="188" height="1" fill="white" fill-opacity="0.2" /><rect x="2380" y="998.5" width="188" height="1" fill="white" fill-opacity="0.2" /><rect x="2380" y="934.0" width="188" height="1" fill="white" fill-opacity="0.5" /><text x="2578" y="934.0" font-size="14" fill="white" font-family="monospace" dominant-baseline="initial">42</text><rect x="2380" y="870.0" width="188" height="1" fill="white" fill-opacity="0.2" /><rect x="2380" y="805.5" width="188" height="1" fill="white" fill-opacity="0.2" /><rect x="2380" y="741.5" width="188" height="1" fill="white" fill-opacity="0.2" /><rect x="2380" y="677.0" width="188" height="1" fill="white" fill-opacity="0.5" /><text x="2578" y="677.0" font-size="14" fill="white" font-family="monospace" dominant-baseline="initial">43</text><rect x="2380" y="612.5" width="188" height="1" fill="white" fill-opacity="0.2" /><rect x="2380" y="548.5" width="188" height="1" fill="white" fill-opacity="0.2" /><rect x="2380" y="484.0" width="188" height="1" fill="white" fill-opacity="0.2" /><rect x="2380" y="420.0" width="188" height="1" fill="white" fill-opacity="0.5" /><text x="2578" y="420.0" font-size="14" fill="white" font-family="monospace" dominant-baseline="initial">44</text><rect x="2380" y="355.5" width="188" height="1" fill="white" fill-opacity="0.2" /><rect x="2380" y="291.5" width="188" height="1" fill="white" fill-opacity="0.2" /><rect x="2380" y="227.0" width="188" height="1" fill="white" fill-opacity="0.2" /><rect x="2380" y="162.5" width="188" height="1" fill="white" fill-opacity="0.5" /><text x="2578" y="162.5" font-size="14" fill="white" font-family="monospace" dominant-baseline="initial">45</text><rect x="2380" y="419.89999999999964" width="188" height="1" fill="aqua" fill-opacity="0.75" /><text x="2380" y="415.89999999999964" font-size="14" fill="aqua" fill-opacity="0.75" font-family="monospace">Special</text><rect x="2618" y="164.0" width="188" height="1028.5" fill="black" /><rect x="2618" y="1191.5" width="188" height="1" fill="white" fill-opacity="0.5" /><text x="2816" y="1191.5" font-size="14" fill="white" font-family="monospace" dominant-baseline="initial">45</text><rect x="2618" y="1127.5" width="188" height="1" fill="white" fill-opacity="0.2" /><rect x="2618" y="1063.0" width="188" height="1" fill="white" fill-opacity="0.2" /><rect x="2618" y="999.0" width="188" height="1" fill="white" fill-opacity="0.2" /><rect x="2618" y="934.5" width="188" height="1" fill="white" fill-opacity="0.5" /><text x="2816" y="934.5" font-size="14" fill="white" font-family="monospace" dominant-baseline="initial">46</text><rect x="2618" y="870.5" width="188" height="1" fill="white" fill-opacity="0.2" /><rect x="2618" y="806.0" width="188" height="1" fill="white" fill-opacity="0.2" /><rect x="2618" y="741.5" width="188" height="1" fill="white" fill-opacity="0.2" /><rect x="2618" y="677.5" width="188" height="1" fill="white" fill-opacity="0.5" /><text x="2816" y="677.5" font-size="14" fill="white" font-family="monospace" dominant-baseline="initial">47</text><rect x="2618" y="613.0" width="188" height="1" fill="white" fill-opacity="0.2" /><rect x="2618" y="549.0" width="188" height="1" fill="white" fill-opacity="0.2" /><rect x="2618" y="484.5" width="188" height="1" fill="white" fill-opacity="0.2" /><rect x="2618" y="420.5" width="188" height="1" fill="white" fill-opacity="0.5" /><text x="2816" y="420.5" font-size="14" fill="white" font-family="monospace" dominant-baseline="initial">48</text><rect x="2618" y="356.0" width="188" height="1" fill="white" fill-opacity="0.2" /><rect x="2618" y="291.5" width="188" height="1" fill="white" fill-opacity="0.2" /><rect x="2618" y="227.5" width="188" height="1" fill="white" fill-opacity="0.2" /><rect x="2618" y="163.0" width="188" height="1" fill="white" fill-opacity="0.5" /><text x="2816" y="163.0" font-size="14" fill="white" font-family="monospace" dominant-baseline="initial">49</text><rect x="2856" y="164.0" width="188" height="1028.5" fill="black" /><rect x="2856" y="1191.5" width="188" height="1" fill="white" fill-opacity="0.5" /><text x="3054" y="1191.5" font-size="14" fill="white" font-family="monospace" dominant-baseline="initial">49</text><rect x="2856" y="1127.5" width="188" height="1" fill="white" fill-opacity="0.2" /><rect x="2856" y="1063.0" width="188" height="1" fill="white" fill-opacity="0.2" /><rect x="2856" y="999.0" width="188" height="1" fill="white" fill-opacity="0.2" /><rect x="2856" y="934.5" width="188" height="1" fill="white" fill-opacity="0.5" /><text x="3054" y="934.5" font-size="14" fill="white" font-family="monospace" dominant-baseline="initial">50</text><rect x="2856" y="870.0" width="188" height="1" fill="white" fill-opacity="0.2" /><rect x="2856" y="806.0" width="188" height="1" fill="white" fill-opacity="0.2" /><rect x="2856" y="741.5" width="188" height="1" fill="white" fill-opacity="0.2" /><rect x="2856" y="677.5" width="188" height="1" fill="white" fill-opacity="0.5" /><text x="3054" y="677.5" font-size="14" fill="white" font-family="monospace" dominant-baseline="initial">51</text><rect x="2856" y="613.0" width="188" height="1" fill="white" fill-opacity="0.2" /><rect x="2856" y="549.0" width="188" height="1" fill="white" fill-opacity="0.2" /><rect x="2856" y="484.5" width="188" height="1" fill="white" fill-opacity="0.2" /><rect x="2856" y="420.0" width="188" height="1" fill="white" fill-opacity="0.5" /><text x="3054" y="420.0" font-size="14" fill="white" font-family="monospace" dominant-baseline="initial">52</text><rect x="2856" y="356.0" width="188" height="1" fill="white" fill-opacity="0.2" /><rect x="2856" y="291.5" width="188" height="1" fill="white" fill-opacity="0.2" /><rect x="2856" y="227.5" width="188" height="1" fill="white" fill-opacity="0.2" /><rect x="2856" y="163.0" width="188" height="1" fill="white" fill-opacity="0.5" /><text x="3054" y="163.0" font-size="14" fill="white" font-family="monospace" dominant-baseline="initial">53</text><rect x="2856" y="420.3000000000011" width="188" height="1" fill="aqua" fill-opacity="0.75" /><text x="2856" y="416.3000000000011" font-size="14" fill="aqua" fill-opacity="0.75" font-family="monospace">Special</text><rect x="3094" y="164.0" width="188" height="1028.5" fill="black" /><rect x="3094" y="1191.5" width="188" height="1" fill="white" fill-opacity="0.5" /><text x="3292" y="1191.5" font-size="14" fill="white" font-family="monospace" dominant-baseline="initial">53</text><rect x="3094" y="1127.5" width="188" height="1" fill="white" fill-opacity="0.2" /><rect x="3094" y="1063.0" width="188" height="1" fill="white" fill-opacity="0.2" /><rect x="3094" y="998.5" width="188" height="1" fill="white" fill-opacity="0.2" /><rect x="3094" y="934.5" width="188" height="1" fill="white" fill-opacity="0.5" /><text x="3292" y="934.5" font-size="14" fill="white" font-family="monospace" dominant-baseline="initial">54</text><rect x="3094" y="870.0" width="188" height="1" fill="white" fill-opacity="0.2" /><rect x="3094" y="806.0" width="188" height="1" fill="white" fill-opacity="0.2" /><rect x="3094" y="741.5" width="188" height="1" fill="white" fill-opacity="0.2" /><rect x="3094" y="677.5" width="188" height="1" fill="white" fill-opacity="0.5" /><text x="3292" y="677.5" font-size="14" fill="white" font-family="monospace" dominant-baseline="initial">55</text><rect x="3094" y="613.0" width="188" height="1" fill="white" fill-opacity="0.2" /><rect x="3094" y="548.5" width="188" height="1" fill="white" fill-opacity="0.2" /><rect x="3094" y="484.5" width="188" height="1" fill="white" fill-opacity="0.2" /><rect x="3094" y="420.0" width="188" height="1" fill="white" fill-opacity="0.5" /><text x="3292" y="420.0" font-size="14" fill="white" font-family="monospace" dominant-baseline="initial">56</text><rect x="3094" y="356.0" width="188" height="1" fill="white" fill-opacity="0.2" /><rect x="3094" y="291.5" width="188" height="1" fill="white" fill-opacity="0.2" /><rect x="3094" y="227.5" width="188" height="1" fill="white" fill-opacity="0.2" /><rect x="3094" y="163.0" width="188" height="1" fill="white" fill-opacity="0.5" /><text x="3292" y="163.0" font-size="14" fill="white" font-family="monospace" dominant-baseline="initial">57</text><rect x="3332" y="164.0" width="188" height="1028.5" fill="black" /><rect x="3332" y="1191.5" width="188" height="1" fill="white" fill-opacity="0.5" /><text x="3530" y="1191.5" font-size="14" fill="white" font-family="monospace" dominant-baseline="initial">57</text><rect x="3332" y="1127.0" width="188" height="1" fill="white" fill-opacity="0.2" /><rect x="3332" y="1063.0" width="188" height="1" fill="white" fill-opacity="0.2" /><rect x="3332" y="998.5" width="188" height="1" fill="white" fill-opacity="0.2" /><rect x="3332" y="934.5" width="188" height="1" fill="white" fill-opacity="0.5" /><text x="3530" y="934.5" font-size="14" fill="white" font-family="monospace" dominant-baseline="initial">58</text><rect x="3332" y="870.0" width="188" height="1" fill="white" fill-opacity="0.2" /><rect x="3332" y="806.0" width="188" height="1" fill="white" fill-opacity="0.2" /><rect x="3332" y="741.5" width="188" height="1" fill="white" fill-opacity="0.2" /><rect x="3332" y="677.0" width="188" height="1" fill="white" fill-opacity="0.5" /><text x="3530" y="677.0" font-size="14" fill="white" font-family="monospace" dominant-baseline="initial">59</text><rect x="3332" y="613.0" width="188" height="1" fill="white" fill-opacity="0.2" /><rect x="3332" y="548.5" width="188" height="1" fill="white" fill-opacity="0.2" /><rect x="3332" y="484.5" width="188" height="1" fill="white" fill-opacity="0.2" /><rect x="3332" y="420.0" width="188" height="1" fill="white" fill-opacity="0.5" /><text x="3530" y="420.0" font-size="14" fill="white" font-family="monospace" dominant-baseline="initial">60</text><rect x="3332" y="356.0" width="188" height="1" fill="white" fill-opacity="0.2" /><rect x="3332" y="291.5" width="188" height="1" fill="white" fill-opacity="0.2" /><rect x="3332" y="227.0" width="188" height="1" fill="white" fill-opacity="0.2" /><rect x="3332" y="163.0" width="188" height="1" fill="white" fill-opacity="0.5" /><text x="3530" y="163.0" font-size="14" fill="white" font-family="monospace" dominant-baseline="initial">61</text><rect x="3570" y="14.0" width="188" height="1178.5" fill="black" /><rect x="3570" y="1191.5" width="188" height="1" fill="white" fill-opacity="0.5" /><text x="3768" y="1191.5" font-size="14" fill="white" font-family="monospace" dominant-baseline="initial">61</text><rect x="3570" y="1127.0" width="188" height="1" fill="white" fill-opacity="0.2" /><rect x="3570" y="1063.0" width="188" height="1" fill="white" fill-opacity="0.2" /><rect x="3570" y="998.5" width="188" height="1" fill="white" fill-opacity="0.2" /><rect x="3570" y="934.5" width="188" height="1" fill="white" fill-opacity="0.5" /><text x="3768" y="934.5" font-size="14" fill="white" font-family="monospace" dominant-baseline="initial">62</text><rect x="3570" y="870.0" width="188" height="1" fill="white" fill-opacity="0.2" /><rect x="3570" y="805.5" width="188" height="1" fill="white" fill-opacity="0.2" /><rect x="3570" y="741.5" width="188" height="1" fill="white" fill-opacity="0.2" /><rect x="3570" y="677.0" width="188" height="1" fill="white" fill-opacity="0.5" /><text x="3768" y="677.0" font-size="14" fill="white" font-family="monospace" dominant-baseline="initial">63</text><rect x="3570" y="613.0" width="188" height="1" fill="white" fill-opacity="0.2" /><rect x="3570" y="548.5" width="188" height="1" fill="white" fill-opacity="0.2" /><rect x="3570" y="484.5" width="188" height="1" fill="white" fill-opacity="0.2" /><rect x="3570" y="420.0" width="188" height="1" fill="white" fill-opacity="0.5" /><text x="3768" y="420.0" font-size="14" fill="white" font-family="monospace" dominant-baseline="initial">64</text></svg>