<?xml version="1.0" encoding="UTF-8"?><svg xmlns="http://www.w3.org/2000/svg" xmlns:xlink="http://www.w3.org/1999/xlink"     width="1938" height="2464.0" viewBox="0 0 1938 2464.0"><defs></defs><rect x="13.0" y="551.0" width="12.0" height="3" fill="#35df39" stroke="#03aa10" /><rect x="26.0" y="551.0" width="12.0" height="3" fill="#80c9ff" stroke="#0b6cba" /><rect x="0.0" y="583.0" width="12.0" height="3" fill="#ff3c3c" stroke="#c71f1f" /><rect x="13.0" y="583.0" width="12.0" height="3" fill="#35df39" stroke="#03aa10" /><rect x="0.0" y="633.0" width="12.0" height="3" fill="#ff3c3c" stroke="#c71f1f" /><rect x="0.0" y="650.0" width="12.0" height="3" fill="#ff3c3c" stroke="#c71f1f" /><rect x="0.0" y="683.0" width="12.0" height="3" fill="#ff3c3c" stroke="#c71f1f" /><rect x="0.0" y="699.5" width="12.0" height="3" fill="#ff3c3c" stroke="#c71f1f" /><rect x="0.0" y="733.0" width="12.0" height="3" fill="#ff3c3c" stroke="#c71f1f" /><rect x="0.0" y="748.5" width="12.0" height="3" fill="#ff3c3c" stroke="#c71f1f" /><rect x="0.0" y="783.0" width="12.0" height="3" fill="#ff3c3c" stroke="#c71f1f" /><rect x="0.0" y="799.5" width="12.0" height="3" fill="#ff3c3c" stroke="#c71f1f" /><rect x="114.0" y="33.0" width="12.0" height="3" fill="#ff3c3c" stroke="#c71f1f" /><rect x="114.0" y="49.5" width="12.0" height="3" fill="#ff3c3c" stroke="#c71f1f" /><rect x="114.0" y="83.0" width="12.0" height="3" fill="#ff3c3c" stroke="#c71f1f" /><rect x="114.0" y="99.5" width="12.0" height="3" fill="#ff3c3c" stroke="#c71f1f" /><rect x="114.0" y="132.5" width="12.0" height="3" fill="#ff3c3c" stroke="#c71f1f" /><rect x="114.0" y="149.5" width="12.0" height="3" fill="#ff3c3c" stroke="#c71f1f" /><rect x="127.0" y="149.5" width="12.0" height="3" fill="#35df39" stroke="#03aa10" /><rect x="114.0" y="182.5" width="12.0" height="3" fill="#ff3c3c" stroke="#c71f1f" /><rect x="127.0" y="182.5" width="12.0" height="3" fill="#35df39" stroke="#03aa10" /><rect x="166.0" y="232.5" width="12.0" height="3" fill="#ff83f4" stroke="#d002bc" /><rect x="114" y="232.5" width="64" height="3" fill="#ff72e7" stroke="#7c7c7c" /><rect x="127.0" y="249.5" width="12.0" height="3" fill="#35df39" stroke="#03aa10" /><rect x="166.0" y="282.5" width="12.0" height="3" fill="#ff83f4" stroke="#d002bc" /><rect x="114" y="282.5" width="64" height="3" fill="#ff72e7" stroke="#7c7c7c" /><rect x="127.0" y="299.0" width="12.0" height="3" fill="#35df39" stroke="#03aa10" /><rect x="166.0" y="332.5" width="12.0" height="3" fill="#ff83f4" stroke="#d002bc" /><rect x="114" y="332.5" width="64" height="3" fill="#ff72e7" stroke="#7c7c7c" /><rect x="127.0" y="349.0" width="12.0" height="3" fill="#35df39" stroke="#03aa10" /><rect x="140.0" y="382.5" width="12.0" height="3" fill="#80c9ff" stroke="#0b6cba" /><rect x="140.0" y="432.5" width="12.0" height="3" fill="#80c9ff" stroke="#0b6cba" /><rect x="127.0" y="449.0" width="12.0" height="3" fill="#35df39" stroke="#03aa10" /><rect x="127.0" y="482.5" width="12.0" height="3" fill="#35df39" stroke="#03aa10" /><rect x="114.0" y="499.0" width="12.0" height="3" fill="#ff3c3c" stroke="#c71f1f" /><rect x="166.0" y="549.0" width="12.0" height="3" fill="#ff83f4" stroke="#d002bc" /><rect x="114" y="549.0" width="64" height="3" fill="#ff72e7" stroke="#7c7c7c" /><rect x="114.0" y="582.5" width="12.0" height="3" fill="#ff3c3c" stroke="#c71f1f" /><rect x="127.0" y="582.5" width="12.0" height="3" fill="#35df39" stroke="#03aa10" /><rect x="114.0" y="632.5" width="12.0" height="3" fill="#ff3c3c" stroke="#c71f1f" /><rect x="114.0" y="649.0" width="12.0" height="3" fill="#ff3c3c" stroke="#c71f1f" /><rect x="114.0" y="682.5" width="12.0" height="3" fill="#ff3c3c" stroke="#c71f1f" /><rect x="114.0" y="699.0" width="12.0" height="3" fill="#ff3c3c" stroke="#c71f1f" /><rect x="114.0" y="732.5" width="12.0" height="3" fill="#ff3c3c" stroke="#c71f1f" /><rect x="114.0" y="749.0" width="12.0" height="3" fill="#ff3c3c" stroke="#c71f1f" /><rect x="114.0" y="782.5" width="12.0" height="3" fill="#ff3c3c" stroke="#c71f1f" /><rect x="114.0" y="799.0" width="12.0" height="3" fill="#ff3c3c" stroke="#c71f1f" /><rect x="228.0" y="32.5" width="12.0" height="3" fill="#ff3c3c" stroke="#c71f1f" /><rect x="228.0" y="49.0" width="12.0" height="3" fill="#ff3c3c" stroke="#c71f1f" /><rect x="228.0" y="82.5" width="12.0" height="3" fill="#ff3c3c" stroke="#c71f1f" /><rect x="228.0" y="99.0" width="12.0" height="3" fill="#ff3c3c" stroke="#c71f1f" /><rect x="228.0" y="132.5" width="12.0" height="3" fill="#ff3c3c" stroke="#c71f1f" /><rect x="228.0" y="149.0" width="12.0" height="3" fill="#ff3c3c" stroke="#c71f1f" /><rect x="241.0" y="149.0" width="12.0" height="3" fill="#35df39" stroke="#03aa10" /><rect x="228.0" y="182.5" width="12.0" height="3" fill="#ff3c3c" stroke="#c71f1f" /><rect x="241.0" y="182.5" width="12.0" height="3" fill="#35df39" stroke="#03aa10" /><rect x="280.0" y="232.5" width="12.0" height="3" fill="#ff83f4" stroke="#d002bc" /><rect x="228" y="232.5" width="64" height="3" fill="#ff72e7" stroke="#7c7c7c" /><rect x="241.0" y="249.0" width="12.0" height="3" fill="#35df39" stroke="#03aa10" /><rect x="280.0" y="282.5" width="12.0" height="3" fill="#ff83f4" stroke="#d002bc" /><rect x="228" y="282.5" width="64" height="3" fill="#ff72e7" stroke="#7c7c7c" /><rect x="241.0" y="299.0" width="12.0" height="3" fill="#35df39" stroke="#03aa10" /><rect x="280.0" y="332.5" width="12.0" height="3" fill="#ff83f4" stroke="#d002bc" /><rect x="228" y="332.5" width="64" height="3" fill="#ff72e7" stroke="#7c7c7c" /><rect x="241.0" y="349.0" width="12.0" height="3" fill="#35df39" stroke="#03aa10" /><rect x="254.0" y="382.0" width="12.0" height="3" fill="#80c9ff" stroke="#0b6cba" /><rect x="267.0" y="382.0" width="12.0" height="3" fill="#fff874" stroke="#eb9c26" /><rect x="280.0" y="432.0" width="12.0" height="3" fill="#ff83f4" stroke="#d002bc" /><rect x="228" y="432.0" width="64" height="3" fill="#ff72e7" stroke="#7c7c7c" /><rect x="267.0" y="449.0" width="12.0" height="3" fill="#fff874" stroke="#eb9c26" /><rect x="280.0" y="482.0" width="12.0" height="3" fill="#ff83f4" stroke="#d002bc" /><rect x="228" y="482.0" width="64" height="3" fill="#ff72e7" stroke="#7c7c7c" /><rect x="267.0" y="499.0" width="12.0" height="3" fill="#fff874" stroke="#eb9c26" /><rect x="228.0" y="583.5" width="12.0" height="3" fill="#ff3c3c" stroke="#c71f1f" /><rect x="254.0" y="583.5" width="12.0" height="3" fill="#80c9ff" stroke="#0b6cba" /><rect x="228.0" y="633.5" width="12.0" height="3" fill="#ff3c3c" stroke="#c71f1f" /><rect x="254.0" y="633.5" width="12.0" height="3" fill="#80c9ff" stroke="#0b6cba" /><rect x="241.0" y="650.0" width="12.0" height="3" fill="#35df39" stroke="#03aa10" /><rect x="241.0" y="683.0" width="12.0" height="3" fill="#35df39" stroke="#03aa10" /><rect x="254.0" y="700.0" width="12.0" height="3" fill="#80c9ff" stroke="#0b6cba" /><rect x="267.0" y="733.0" width="12.0" height="3" fill="#fff874" stroke="#eb9c26" /><rect x="241.0" y="750.0" width="12.0" height="3" fill="#35df39" stroke="#03aa10" /><rect x="254.0" y="783.0" width="12.0" height="3" fill="#80c9ff" stroke="#0b6cba" /><rect x="381.0" y="0.0" width="12.0" height="3" fill="#fff874" stroke="#eb9c26" /><rect x="368.0" y="33.0" width="12.0" height="3" fill="#80c9ff" stroke="#0b6cba" /><rect x="368.0" y="50.0" width="12.0" height="3" fill="#80c9ff" stroke="#0b6cba" /><rect x="355.0" y="100.0" width="12.0" height="3" fill="#35df39" stroke="#03aa10" /><rect x="368.0" y="100.0" width="12.0" height="3" fill="#80c9ff" stroke="#0b6cba" /><rect x="342.0" y="133.0" width="12.0" height="3" fill="#ff3c3c" stroke="#c71f1f" /><rect x="355.0" y="133.0" width="12.0" height="3" fill="#35df39" stroke="#03aa10" /><rect x="355.0" y="183.0" width="12.0" height="3" fill="#35df39" stroke="#03aa10" /><rect x="381.0" y="183.0" width="12.0" height="3" fill="#fff874" stroke="#eb9c26" /><rect x="355.0" y="233.0" width="12.0" height="3" fill="#35df39" stroke="#03aa10" /><rect x="381.0" y="233.0" width="12.0" height="3" fill="#fff874" stroke="#eb9c26" /><rect x="342.0" y="249.5" width="12.0" height="3" fill="#ff3c3c" stroke="#c71f1f" /><rect x="342.0" y="283.0" width="12.0" height="3" fill="#ff3c3c" stroke="#c71f1f" /><rect x="355.0" y="299.5" width="12.0" height="3" fill="#35df39" stroke="#03aa10" /><rect x="368.0" y="333.0" width="12.0" height="3" fill="#80c9ff" stroke="#0b6cba" /><rect x="342.0" y="349.5" width="12.0" height="3" fill="#ff3c3c" stroke="#c71f1f" /><rect x="355.0" y="383.0" width="12.0" height="3" fill="#35df39" stroke="#03aa10" /><rect x="368.0" y="383.0" width="12.0" height="3" fill="#80c9ff" stroke="#0b6cba" /><rect x="368.0" y="433.0" width="12.0" height="3" fill="#80c9ff" stroke="#0b6cba" /><rect x="355.0" y="449.5" width="12.0" height="3" fill="#35df39" stroke="#03aa10" /><rect x="342.0" y="499.5" width="12.0" height="3" fill="#ff3c3c" stroke="#c71f1f" /><rect x="355.0" y="499.5" width="12.0" height="3" fill="#35df39" stroke="#03aa10" /><rect x="355.0" y="549.5" width="12.0" height="3" fill="#35df39" stroke="#03aa10" /><rect x="368.0" y="549.5" width="12.0" height="3" fill="#80c9ff" stroke="#0b6cba" /><rect x="342.0" y="583.0" width="12.0" height="3" fill="#ff3c3c" stroke="#c71f1f" /><rect x="368.0" y="583.0" width="12.0" height="3" fill="#80c9ff" stroke="#0b6cba" /><rect x="342.0" y="633.0" width="12.0" height="3" fill="#ff3c3c" stroke="#c71f1f" /><rect x="368.0" y="633.0" width="12.0" height="3" fill="#80c9ff" stroke="#0b6cba" /><rect x="355.0" y="649.5" width="12.0" height="3" fill="#35df39" stroke="#03aa10" /><rect x="355.0" y="683.0" width="12.0" height="3" fill="#35df39" stroke="#03aa10" /><rect x="368.0" y="699.5" width="12.0" height="3" fill="#80c9ff" stroke="#0b6cba" /><rect x="381.0" y="699.5" width="12.0" height="3" fill="#fff874" stroke="#eb9c26" /><rect x="355.0" y="749.5" width="12.0" height="3" fill="#35df39" stroke="#03aa10" /><rect x="368.0" y="782.5" width="12.0" height="3" fill="#80c9ff" stroke="#0b6cba" /><rect x="381.0" y="782.5" width="12.0" height="3" fill="#fff874" stroke="#eb9c26" /><rect x="482.0" y="32.5" width="12.0" height="3" fill="#80c9ff" stroke="#0b6cba" /><rect x="482.0" y="49.5" width="12.0" height="3" fill="#80c9ff" stroke="#0b6cba" /><rect x="469.0" y="99.5" width="12.0" height="3" fill="#35df39" stroke="#03aa10" /><rect x="482.0" y="99.5" width="12.0" height="3" fill="#80c9ff" stroke="#0b6cba" /><rect x="456.0" y="132.5" width="12.0" height="3" fill="#ff3c3c" stroke="#c71f1f" /><rect x="469.0" y="132.5" width="12.0" height="3" fill="#35df39" stroke="#03aa10" /><rect x="469.0" y="182.5" width="12.0" height="3" fill="#35df39" stroke="#03aa10" /><rect x="495.0" y="182.5" width="12.0" height="3" fill="#fff874" stroke="#eb9c26" /><rect x="456.0" y="249.5" width="12.0" height="3" fill="#ff3c3c" stroke="#c71f1f" /><rect x="456.0" y="282.5" width="12.0" height="3" fill="#ff3c3c" stroke="#c71f1f" /><rect x="469.0" y="299.5" width="12.0" height="3" fill="#35df39" stroke="#03aa10" /><rect x="482.0" y="332.5" width="12.0" height="3" fill="#80c9ff" stroke="#0b6cba" /><rect x="456.0" y="349.5" width="12.0" height="3" fill="#ff3c3c" stroke="#c71f1f" /><rect x="469.0" y="349.5" width="12.0" height="3" fill="#35df39" stroke="#03aa10" /><rect x="469.0" y="382.5" width="12.0" height="3" fill="#35df39" stroke="#03aa10" /><rect x="482.0" y="399.0" width="12.0" height="3" fill="#80c9ff" stroke="#0b6cba" /><rect x="482.0" y="432.5" width="12.0" height="3" fill="#80c9ff" stroke="#0b6cba" /><rect x="469.0" y="449.0" width="12.0" height="3" fill="#35df39" stroke="#03aa10" /><rect x="469.0" y="482.5" width="12.0" height="3" fill="#35df39" stroke="#03aa10" /><rect x="482.0" y="499.0" width="12.0" height="3" fill="#80c9ff" stroke="#0b6cba" /><rect x="495.0" y="532.5" width="12.0" height="3" fill="#fff874" stroke="#eb9c26" /><rect x="456.0" y="582.5" width="12.0" height="3" fill="#ff3c3c" stroke="#c71f1f" /><rect x="482.0" y="582.5" width="12.0" height="3" fill="#80c9ff" stroke="#0b6cba" /><rect x="456.0" y="633.5" width="12.0" height="3" fill="#ff3c3c" stroke="#c71f1f" /><rect x="482.0" y="633.5" width="12.0" height="3" fill="#80c9ff" stroke="#0b6cba" /><rect x="469.0" y="649.0" width="12.0" height="3" fill="#35df39" stroke="#03aa10" /><rect x="469.0" y="682.0" width="12.0" height="3" fill="#35df39" stroke="#03aa10" /><rect x="482.0" y="699.0" width="12.0" height="3" fill="#80c9ff" stroke="#0b6cba" /><rect x="495.0" y="732.0" width="12.0" height="3" fill="#fff874" stroke="#eb9c26" /><rect x="469.0" y="749.0" width="12.0" height="3" fill="#35df39" stroke="#03aa10" /><rect x="482.0" y="782.0" width="12.0" height="3" fill="#80c9ff" stroke="#0b6cba" /><rect x="609.0" y="0.0" width="12.0" height="3" fill="#fff874" stroke="#eb9c26" /><rect x="596.0" y="33.5" width="12.0" height="3" fill="#80c9ff" stroke="#0b6cba" /><rect x="596.0" y="50.0" width="12.0" height="3" fill="#80c9ff" stroke="#0b6cba" /><rect x="583.0" y="100.0" width="12.0" height="3" fill="#35df39" stroke="#03aa10" /><rect x="596.0" y="100.0" width="12.0" height="3" fill="#80c9ff" stroke="#0b6cba" /><rect x="570.0" y="133.0" width="12.0" height="3" fill="#ff3c3c" stroke="#c71f1f" /><rect x="583.0" y="133.0" width="12.0" height="3" fill="#35df39" stroke="#03aa10" /><rect x="583.0" y="183.0" width="12.0" height="3" fill="#35df39" stroke="#03aa10" /><rect x="609.0" y="183.0" width="12.0" height="3" fill="#fff874" stroke="#eb9c26" /><rect x="583.0" y="233.0" width="12.0" height="3" fill="#35df39" stroke="#03aa10" /><rect x="609.0" y="233.0" width="12.0" height="3" fill="#fff874" stroke="#eb9c26" /><rect x="570.0" y="250.0" width="12.0" height="3" fill="#ff3c3c" stroke="#c71f1f" /><rect x="570.0" y="283.0" width="12.0" height="3" fill="#ff3c3c" stroke="#c71f1f" /><rect x="583.0" y="298.0" width="12.0" height="3" fill="#35df39" stroke="#03aa10" /><rect x="596.0" y="333.0" width="12.0" height="3" fill="#80c9ff" stroke="#0b6cba" /><rect x="570.0" y="349.5" width="12.0" height="3" fill="#ff3c3c" stroke="#c71f1f" /><rect x="583.0" y="383.0" width="12.0" height="3" fill="#35df39" stroke="#03aa10" /><rect x="596.0" y="399.5" width="12.0" height="3" fill="#80c9ff" stroke="#0b6cba" /><rect x="596.0" y="433.0" width="12.0" height="3" fill="#80c9ff" stroke="#0b6cba" /><rect x="583.0" y="449.5" width="12.0" height="3" fill="#35df39" stroke="#03aa10" /><rect x="583.0" y="483.0" width="12.0" height="3" fill="#35df39" stroke="#03aa10" /><rect x="570.0" y="499.5" width="12.0" height="3" fill="#ff3c3c" stroke="#c71f1f" /><rect x="583.0" y="499.5" width="12.0" height="3" fill="#35df39" stroke="#03aa10" /><rect x="583.0" y="533.0" width="12.0" height="3" fill="#35df39" stroke="#03aa10" /><rect x="596.0" y="533.0" width="12.0" height="3" fill="#80c9ff" stroke="#0b6cba" /><rect x="570.0" y="583.0" width="12.0" height="3" fill="#ff3c3c" stroke="#c71f1f" /><rect x="596.0" y="583.0" width="12.0" height="3" fill="#80c9ff" stroke="#0b6cba" /><rect x="570.0" y="633.0" width="12.0" height="3" fill="#ff3c3c" stroke="#c71f1f" /><rect x="596.0" y="633.0" width="12.0" height="3" fill="#80c9ff" stroke="#0b6cba" /><rect x="583.0" y="649.5" width="12.0" height="3" fill="#35df39" stroke="#03aa10" /><rect x="583.0" y="683.0" width="12.0" height="3" fill="#35df39" stroke="#03aa10" /><rect x="596.0" y="699.5" width="12.0" height="3" fill="#80c9ff" stroke="#0b6cba" /><rect x="609.0" y="732.5" width="12.0" height="3" fill="#fff874" stroke="#eb9c26" /><rect x="583.0" y="749.5" width="12.0" height="3" fill="#35df39" stroke="#03aa10" /><rect x="596.0" y="782.5" width="12.0" height="3" fill="#80c9ff" stroke="#0b6cba" /><rect x="609.0" y="799.5" width="12.0" height="3" fill="#fff874" stroke="#eb9c26" /><rect x="710.0" y="32.5" width="12.0" height="3" fill="#80c9ff" stroke="#0b6cba" /><rect x="710.0" y="49.5" width="12.0" height="3" fill="#80c9ff" stroke="#0b6cba" /><rect x="697.0" y="99.0" width="12.0" height="3" fill="#35df39" stroke="#03aa10" /><rect x="710.0" y="99.0" width="12.0" height="3" fill="#80c9ff" stroke="#0b6cba" /><rect x="684.0" y="132.5" width="12.0" height="3" fill="#ff3c3c" stroke="#c71f1f" /><rect x="697.0" y="132.5" width="12.0" height="3" fill="#35df39" stroke="#03aa10" /><rect x="697.0" y="182.5" width="12.0" height="3" fill="#35df39" stroke="#03aa10" /><rect x="723.0" y="182.5" width="12.0" height="3" fill="#fff874" stroke="#eb9c26" /><rect x="697.0" y="232.5" width="12.0" height="3" fill="#35df39" stroke="#03aa10" /><rect x="723.0" y="232.5" width="12.0" height="3" fill="#fff874" stroke="#eb9c26" /><rect x="684.0" y="249.0" width="12.0" height="3" fill="#ff3c3c" stroke="#c71f1f" /><rect x="684.0" y="282.5" width="12.0" height="3" fill="#ff3c3c" stroke="#c71f1f" /><rect x="697.0" y="299.0" width="12.0" height="3" fill="#35df39" stroke="#03aa10" /><rect x="710.0" y="332.0" width="12.0" height="3" fill="#80c9ff" stroke="#0b6cba" /><rect x="684.0" y="349.0" width="12.0" height="3" fill="#ff3c3c" stroke="#c71f1f" /><rect x="697.0" y="349.0" width="12.0" height="3" fill="#35df39" stroke="#03aa10" /><rect x="697.0" y="382.0" width="12.0" height="3" fill="#35df39" stroke="#03aa10" /><rect x="710.0" y="399.0" width="12.0" height="3" fill="#80c9ff" stroke="#0b6cba" /><rect x="710.0" y="432.0" width="12.0" height="3" fill="#80c9ff" stroke="#0b6cba" /><rect x="697.0" y="449.0" width="12.0" height="3" fill="#35df39" stroke="#03aa10" /><rect x="684.0" y="498.5" width="12.0" height="3" fill="#ff3c3c" stroke="#c71f1f" /><rect x="697.0" y="498.5" width="12.0" height="3" fill="#35df39" stroke="#03aa10" /><rect x="697.0" y="548.5" width="12.0" height="3" fill="#35df39" stroke="#03aa10" /><rect x="710.0" y="548.5" width="12.0" height="3" fill="#80c9ff" stroke="#0b6cba" /><rect x="684.0" y="583.5" width="12.0" height="3" fill="#ff3c3c" stroke="#c71f1f" /><rect x="710.0" y="633.5" width="12.0" height="3" fill="#80c9ff" stroke="#0b6cba" /><rect x="697.0" y="650.0" width="12.0" height="3" fill="#35df39" stroke="#03aa10" /><rect x="710.0" y="650.0" width="12.0" height="3" fill="#80c9ff" stroke="#0b6cba" /><rect x="710.0" y="700.0" width="12.0" height="3" fill="#80c9ff" stroke="#0b6cba" /><rect x="723.0" y="700.0" width="12.0" height="3" fill="#fff874" stroke="#eb9c26" /><rect x="736.0" y="750.0" width="12.0" height="3" fill="#ff83f4" stroke="#d002bc" /><rect x="684" y="750.0" width="64" height="3" fill="#ff72e7" stroke="#7c7c7c" /><rect x="710.0" y="783.0" width="12.0" height="3" fill="#80c9ff" stroke="#0b6cba" /><rect x="837.0" y="33.0" width="12.0" height="3" fill="#fff874" stroke="#eb9c26" /><rect x="824.0" y="50.0" width="12.0" height="3" fill="#80c9ff" stroke="#0b6cba" /><rect x="824.0" y="83.0" width="12.0" height="3" fill="#80c9ff" stroke="#0b6cba" /><rect x="824.0" y="100.0" width="12.0" height="3" fill="#80c9ff" stroke="#0b6cba" /><rect x="811.0" y="133.0" width="12.0" height="3" fill="#35df39" stroke="#03aa10" /><rect x="798.0" y="183.0" width="12.0" height="3" fill="#ff3c3c" stroke="#c71f1f" /><rect x="824.0" y="233.0" width="12.0" height="3" fill="#80c9ff" stroke="#0b6cba" /><rect x="798.0" y="249.5" width="12.0" height="3" fill="#ff3c3c" stroke="#c71f1f" /><rect x="811.0" y="249.5" width="12.0" height="3" fill="#35df39" stroke="#03aa10" /><rect x="811.0" y="299.5" width="12.0" height="3" fill="#35df39" stroke="#03aa10" /><rect x="824.0" y="299.5" width="12.0" height="3" fill="#80c9ff" stroke="#0b6cba" /><rect x="798.0" y="349.5" width="12.0" height="3" fill="#ff3c3c" stroke="#c71f1f" /><rect x="811.0" y="383.0" width="12.0" height="3" fill="#35df39" stroke="#03aa10" /><rect x="811.0" y="433.0" width="12.0" height="3" fill="#35df39" stroke="#03aa10" /><rect x="811.0" y="449.5" width="12.0" height="3" fill="#35df39" stroke="#03aa10" /><rect x="811.0" y="483.0" width="12.0" height="3" fill="#35df39" stroke="#03aa10" /><rect x="798.0" y="499.5" width="12.0" height="3" fill="#ff3c3c" stroke="#c71f1f" /><rect x="811.0" y="499.5" width="12.0" height="3" fill="#35df39" stroke="#03aa10" /><rect x="811.0" y="533.0" width="12.0" height="3" fill="#35df39" stroke="#03aa10" /><rect x="824.0" y="533.0" width="12.0" height="3" fill="#80c9ff" stroke="#0b6cba" /><rect x="798.0" y="582.5" width="12.0" height="3" fill="#ff3c3c" stroke="#c71f1f" /><rect x="824.0" y="632.5" width="12.0" height="3" fill="#80c9ff" stroke="#0b6cba" /><rect x="811.0" y="649.5" width="12.0" height="3" fill="#35df39" stroke="#03aa10" /><rect x="824.0" y="649.5" width="12.0" height="3" fill="#80c9ff" stroke="#0b6cba" /><rect x="824.0" y="699.5" width="12.0" height="3" fill="#80c9ff" stroke="#0b6cba" /><rect x="837.0" y="699.5" width="12.0" height="3" fill="#fff874" stroke="#eb9c26" /><rect x="850.0" y="749.5" width="12.0" height="3" fill="#ff83f4" stroke="#d002bc" /><rect x="798" y="749.5" width="64" height="3" fill="#ff72e7" stroke="#7c7c7c" /><rect x="824.0" y="782.5" width="12.0" height="3" fill="#80c9ff" stroke="#0b6cba" /><rect x="951.0" y="32.5" width="12.0" height="3" fill="#fff874" stroke="#eb9c26" /><rect x="938.0" y="49.5" width="12.0" height="3" fill="#80c9ff" stroke="#0b6cba" /><rect x="938.0" y="82.5" width="12.0" height="3" fill="#80c9ff" stroke="#0b6cba" /><rect x="938.0" y="99.5" width="12.0" height="3" fill="#80c9ff" stroke="#0b6cba" /><rect x="925.0" y="132.5" width="12.0" height="3" fill="#35df39" stroke="#03aa10" /><rect x="912.0" y="182.5" width="12.0" height="3" fill="#ff3c3c" stroke="#c71f1f" /><rect x="938.0" y="232.5" width="12.0" height="3" fill="#80c9ff" stroke="#0b6cba" /><rect x="912.0" y="249.0" width="12.0" height="3" fill="#ff3c3c" stroke="#c71f1f" /><rect x="925.0" y="249.0" width="12.0" height="3" fill="#35df39" stroke="#03aa10" /><rect x="925.0" y="299.0" width="12.0" height="3" fill="#35df39" stroke="#03aa10" /><rect x="938.0" y="299.0" width="12.0" height="3" fill="#80c9ff" stroke="#0b6cba" /><rect x="964.0" y="349.0" width="12.0" height="3" fill="#ff83f4" stroke="#d002bc" /><rect x="912" y="349.0" width="64" height="3" fill="#ff72e7" stroke="#7c7c7c" /><rect x="925.0" y="382.5" width="12.0" height="3" fill="#35df39" stroke="#03aa10" /><rect x="951.0" y="382.5" width="12.0" height="3" fill="#fff874" stroke="#eb9c26" /><rect x="912.0" y="490.5" width="12.0" height="3" fill="#ff3c3c" stroke="#c71f1f" /><rect x="938.0" y="490.5" width="12.0" height="3" fill="#80c9ff" stroke="#0b6cba" /><rect x="925.0" y="583.5" width="12.0" height="3" fill="#35df39" stroke="#03aa10" /><rect x="938.0" y="583.5" width="12.0" height="3" fill="#80c9ff" stroke="#0b6cba" /><rect x="951.0" y="633.5" width="12.0" height="3" fill="#fff874" stroke="#eb9c26" /><rect x="925.0" y="650.0" width="12.0" height="3" fill="#35df39" stroke="#03aa10" /><rect x="938.0" y="650.0" width="12.0" height="3" fill="#80c9ff" stroke="#0b6cba" /><rect x="925.0" y="683.0" width="12.0" height="3" fill="#35df39" stroke="#03aa10" /><rect x="938.0" y="683.0" width="12.0" height="3" fill="#80c9ff" stroke="#0b6cba" /><rect x="925.0" y="700.0" width="12.0" height="3" fill="#35df39" stroke="#03aa10" /><rect x="938.0" y="700.0" width="12.0" height="3" fill="#80c9ff" stroke="#0b6cba" /><rect x="925.0" y="733.0" width="12.0" height="3" fill="#35df39" stroke="#03aa10" /><rect x="938.0" y="733.0" width="12.0" height="3" fill="#80c9ff" stroke="#0b6cba" /><rect x="925.0" y="750.0" width="12.0" height="3" fill="#35df39" stroke="#03aa10" /><rect x="938.0" y="750.0" width="12.0" height="3" fill="#80c9ff" stroke="#0b6cba" /><rect x="925.0" y="783.0" width="12.0" height="3" fill="#35df39" stroke="#03aa10" /><rect x="938.0" y="783.0" width="12.0" height="3" fill="#80c9ff" stroke="#0b6cba" /><rect x="1039.0" y="0.0" width="12.0" height="3" fill="#35df39" stroke="#03aa10" /><rect x="1052.0" y="0.0" width="12.0" height="3" fill="#80c9ff" stroke="#0b6cba" /><rect x="1039.0" y="33.0" width="12.0" height="3" fill="#35df39" stroke="#03aa10" /><rect x="1052.0" y="33.0" width="12.0" height="3" fill="#80c9ff" stroke="#0b6cba" /><rect x="1039.0" y="50.0" width="12.0" height="3" fill="#35df39" stroke="#03aa10" /><rect x="1052.0" y="50.0" width="12.0" height="3" fill="#80c9ff" stroke="#0b6cba" /><rect x="1039.0" y="83.0" width="12.0" height="3" fill="#35df39" stroke="#03aa10" /><rect x="1052.0" y="83.0" width="12.0" height="3" fill="#80c9ff" stroke="#0b6cba" /><rect x="1039.0" y="100.0" width="12.0" height="3" fill="#35df39" stroke="#03aa10" /><rect x="1039.0" y="116.5" width="12.0" height="3" fill="#35df39" stroke="#03aa10" /><rect x="1039.0" y="133.0" width="12.0" height="3" fill="#35df39" stroke="#03aa10" /><rect x="1052.0" y="150.0" width="12.0" height="3" fill="#80c9ff" stroke="#0b6cba" /><rect x="1065.0" y="183.0" width="12.0" height="3" fill="#fff874" stroke="#eb9c26" /><rect x="1065.0" y="233.0" width="12.0" height="3" fill="#fff874" stroke="#eb9c26" /><rect x="1052.0" y="250.0" width="12.0" height="3" fill="#80c9ff" stroke="#0b6cba" /><rect x="1078.0" y="283.0" width="12.0" height="3" fill="#ff83f4" stroke="#d002bc" /><rect x="1026" y="283.0" width="64" height="3" fill="#ff72e7" stroke="#7c7c7c" /><rect x="1039.0" y="299.5" width="12.0" height="3" fill="#35df39" stroke="#03aa10" /><rect x="1078.0" y="333.0" width="12.0" height="3" fill="#ff83f4" stroke="#d002bc" /><rect x="1026" y="333.0" width="64" height="3" fill="#ff72e7" stroke="#7c7c7c" /><rect x="1039.0" y="349.5" width="12.0" height="3" fill="#35df39" stroke="#03aa10" /><rect x="1052.0" y="383.0" width="12.0" height="3" fill="#80c9ff" stroke="#0b6cba" /><rect x="1065.0" y="433.0" width="12.0" height="3" fill="#fff874" stroke="#eb9c26" /><rect x="1052.0" y="449.5" width="12.0" height="3" fill="#80c9ff" stroke="#0b6cba" /><rect x="1039.0" y="483.0" width="12.0" height="3" fill="#35df39" stroke="#03aa10" /><rect x="1052.0" y="533.0" width="12.0" height="3" fill="#80c9ff" stroke="#0b6cba" /><rect x="1039.0" y="549.5" width="12.0" height="3" fill="#35df39" stroke="#03aa10" /><rect x="1026.0" y="583.0" width="12.0" height="3" fill="#ff3c3c" stroke="#c71f1f" /><rect x="1039.0" y="583.0" width="12.0" height="3" fill="#35df39" stroke="#03aa10" /><rect x="1052.0" y="633.0" width="12.0" height="3" fill="#80c9ff" stroke="#0b6cba" /><rect x="1026.0" y="649.5" width="12.0" height="3" fill="#ff3c3c" stroke="#c71f1f" /><rect x="1039.0" y="649.5" width="12.0" height="3" fill="#35df39" stroke="#03aa10" /><rect x="1026.0" y="683.0" width="12.0" height="3" fill="#ff3c3c" stroke="#c71f1f" /><rect x="1039.0" y="683.0" width="12.0" height="3" fill="#35df39" stroke="#03aa10" /><rect x="1026.0" y="699.5" width="12.0" height="3" fill="#ff3c3c" stroke="#c71f1f" /><rect x="1039.0" y="699.5" width="12.0" height="3" fill="#35df39" stroke="#03aa10" /><rect x="1026.0" y="733.0" width="12.0" height="3" fill="#ff3c3c" stroke="#c71f1f" /><rect x="1039.0" y="733.0" width="12.0" height="3" fill="#35df39" stroke="#03aa10" /><rect x="1026.0" y="749.5" width="12.0" height="3" fill="#ff3c3c" stroke="#c71f1f" /><rect x="1039.0" y="749.5" width="12.0" height="3" fill="#35df39" stroke="#03aa10" /><rect x="1026.0" y="782.5" width="12.0" height="3" fill="#ff3c3c" stroke="#c71f1f" /><rect x="1039.0" y="782.5" width="12.0" height="3" fill="#35df39" stroke="#03aa10" /><rect x="1026.0" y="799.5" width="12.0" height="3" fill="#ff3c3c" stroke="#c71f1f" /><rect x="1039.0" y="799.5" width="12.0" height="3" fill="#35df39" stroke="#03aa10" /><rect x="1140.0" y="32.5" width="12.0" height="3" fill="#ff3c3c" stroke="#c71f1f" /><rect x="1153.0" y="32.5" width="12.0" height="3" fill="#35df39" stroke="#03aa10" /><rect x="1140.0" y="49.5" width="12.0" height="3" fill="#ff3c3c" stroke="#c71f1f" /><rect x="1153.0" y="49.5" width="12.0" height="3" fill="#35df39" stroke="#03aa10" /><rect x="1140.0" y="82.5" width="12.0" height="3" fill="#ff3c3c" stroke="#c71f1f" /><rect x="1153.0" y="82.5" width="12.0" height="3" fill="#35df39" stroke="#03aa10" /><rect x="1140.0" y="99.5" width="12.0" height="3" fill="#ff3c3c" stroke="#c71f1f" /><rect x="1153.0" y="99.5" width="12.0" height="3" fill="#35df39" stroke="#03aa10" /><rect x="1140.0" y="132.5" width="12.0" height="3" fill="#ff3c3c" stroke="#c71f1f" /><rect x="1140.0" y="149.5" width="12.0" height="3" fill="#ff3c3c" stroke="#c71f1f" /><rect x="1153.0" y="182.5" width="12.0" height="3" fill="#35df39" stroke="#03aa10" /><rect x="1166.0" y="182.5" width="12.0" height="3" fill="#80c9ff" stroke="#0b6cba" /><rect x="1179.0" y="232.5" width="12.0" height="3" fill="#fff874" stroke="#eb9c26" /><rect x="1153.0" y="249.0" width="12.0" height="3" fill="#35df39" stroke="#03aa10" /><rect x="1166.0" y="249.0" width="12.0" height="3" fill="#80c9ff" stroke="#0b6cba" /><rect x="1153.0" y="282.5" width="12.0" height="3" fill="#35df39" stroke="#03aa10" /><rect x="1166.0" y="282.5" width="12.0" height="3" fill="#80c9ff" stroke="#0b6cba" /><rect x="1153.0" y="299.0" width="12.0" height="3" fill="#35df39" stroke="#03aa10" /><rect x="1166.0" y="299.0" width="12.0" height="3" fill="#80c9ff" stroke="#0b6cba" /><rect x="1153.0" y="332.5" width="12.0" height="3" fill="#35df39" stroke="#03aa10" /><rect x="1166.0" y="332.5" width="12.0" height="3" fill="#80c9ff" stroke="#0b6cba" /><rect x="1140.0" y="349.0" width="12.0" height="3" fill="#ff3c3c" stroke="#c71f1f" /><rect x="1140.0" y="383.5" width="12.0" height="3" fill="#ff3c3c" stroke="#c71f1f" /><rect x="1166.0" y="383.5" width="12.0" height="3" fill="#80c9ff" stroke="#0b6cba" /><rect x="1166.0" y="433.5" width="12.0" height="3" fill="#80c9ff" stroke="#0b6cba" /><rect x="1140.0" y="450.0" width="12.0" height="3" fill="#ff3c3c" stroke="#c71f1f" /><rect x="1166.0" y="450.0" width="12.0" height="3" fill="#80c9ff" stroke="#0b6cba" /><rect x="1153.0" y="483.0" width="12.0" height="3" fill="#35df39" stroke="#03aa10" /><rect x="1179.0" y="483.0" width="12.0" height="3" fill="#fff874" stroke="#eb9c26" /><rect x="1179.0" y="533.0" width="12.0" height="3" fill="#fff874" stroke="#eb9c26" /><rect x="1153.0" y="550.0" width="12.0" height="3" fill="#35df39" stroke="#03aa10" /><rect x="1179.0" y="550.0" width="12.0" height="3" fill="#fff874" stroke="#eb9c26" /><rect x="1153.0" y="583.0" width="12.0" height="3" fill="#35df39" stroke="#03aa10" /><rect x="1166.0" y="583.0" width="12.0" height="3" fill="#80c9ff" stroke="#0b6cba" /><rect x="1179.0" y="633.0" width="12.0" height="3" fill="#fff874" stroke="#eb9c26" /><rect x="1153.0" y="650.0" width="12.0" height="3" fill="#35df39" stroke="#03aa10" /><rect x="1166.0" y="650.0" width="12.0" height="3" fill="#80c9ff" stroke="#0b6cba" /><rect x="1153.0" y="683.0" width="12.0" height="3" fill="#35df39" stroke="#03aa10" /><rect x="1166.0" y="683.0" width="12.0" height="3" fill="#80c9ff" stroke="#0b6cba" /><rect x="1153.0" y="700.0" width="12.0" height="3" fill="#35df39" stroke="#03aa10" /><rect x="1166.0" y="700.0" width="12.0" height="3" fill="#80c9ff" stroke="#0b6cba" /><rect x="1153.0" y="733.0" width="12.0" height="3" fill="#35df39" stroke="#03aa10" /><rect x="1166.0" y="733.0" width="12.0" height="3" fill="#80c9ff" stroke="#0b6cba" /><rect x="1153.0" y="750.0" width="12.0" height="3" fill="#35df39" stroke="#03aa10" /><rect x="1166.0" y="750.0" width="12.0" height="3" fill="#80c9ff" stroke="#0b6cba" /><rect x="1153.0" y="783.0" width="12.0" height="3" fill="#35df39" stroke="#03aa10" /><rect x="1166.0" y="783.0" width="12.0" height="3" fill="#80c9ff" stroke="#0b6cba" /><rect x="1153.0" y="799.5" width="12.0" height="3" fill="#35df39" stroke="#03aa10" /><rect x="1166.0" y="799.5" width="12.0" height="3" fill="#80c9ff" stroke="#0b6cba" /><rect x="1267.0" y="33.0" width="12.0" height="3" fill="#35df39" stroke="#03aa10" /><rect x="1280.0" y="33.0" width="12.0" height="3" fill="#80c9ff" stroke="#0b6cba" /><rect x="1267.0" y="49.5" width="12.0" height="3" fill="#35df39" stroke="#03aa10" /><rect x="1280.0" y="49.5" width="12.0" height="3" fill="#80c9ff" stroke="#0b6cba" /><rect x="1267.0" y="83.0" width="12.0" height="3" fill="#35df39" stroke="#03aa10" /><rect x="1280.0" y="83.0" width="12.0" height="3" fill="#80c9ff" stroke="#0b6cba" /><rect x="1254.0" y="99.5" width="12.0" height="3" fill="#ff3c3c" stroke="#c71f1f" /><rect x="1267.0" y="133.0" width="12.0" height="3" fill="#35df39" stroke="#03aa10" /><rect x="1280.0" y="149.5" width="12.0" height="3" fill="#80c9ff" stroke="#0b6cba" /><rect x="1293.0" y="183.0" width="12.0" height="3" fill="#fff874" stroke="#eb9c26" /><rect x="1293.0" y="233.0" width="12.0" height="3" fill="#fff874" stroke="#eb9c26" /><rect x="1280.0" y="249.5" width="12.0" height="3" fill="#80c9ff" stroke="#0b6cba" /><rect x="1306.0" y="283.0" width="12.0" height="3" fill="#ff83f4" stroke="#d002bc" /><rect x="1254" y="283.0" width="64" height="3" fill="#ff72e7" stroke="#7c7c7c" /><rect x="1267.0" y="299.5" width="12.0" height="3" fill="#35df39" stroke="#03aa10" /><rect x="1280.0" y="349.5" width="12.0" height="3" fill="#80c9ff" stroke="#0b6cba" /><rect x="1267.0" y="382.5" width="12.0" height="3" fill="#35df39" stroke="#03aa10" /><rect x="1306.0" y="432.5" width="12.0" height="3" fill="#ff83f4" stroke="#d002bc" /><rect x="1254" y="432.5" width="64" height="3" fill="#ff72e7" stroke="#7c7c7c" /><rect x="1267.0" y="449.5" width="12.0" height="3" fill="#35df39" stroke="#03aa10" /><rect x="1280.0" y="449.5" width="12.0" height="3" fill="#80c9ff" stroke="#0b6cba" /><rect x="1254.0" y="482.5" width="12.0" height="3" fill="#ff3c3c" stroke="#c71f1f" /><rect x="1267.0" y="482.5" width="12.0" height="3" fill="#35df39" stroke="#03aa10" /><rect x="1280.0" y="549.0" width="12.0" height="3" fill="#80c9ff" stroke="#0b6cba" /><rect x="1254.0" y="582.5" width="12.0" height="3" fill="#ff3c3c" stroke="#c71f1f" /><rect x="1267.0" y="582.5" width="12.0" height="3" fill="#35df39" stroke="#03aa10" /><rect x="1280.0" y="632.5" width="12.0" height="3" fill="#80c9ff" stroke="#0b6cba" /><rect x="1254.0" y="649.0" width="12.0" height="3" fill="#ff3c3c" stroke="#c71f1f" /><rect x="1267.0" y="649.0" width="12.0" height="3" fill="#35df39" stroke="#03aa10" /><rect x="1254.0" y="682.5" width="12.0" height="3" fill="#ff3c3c" stroke="#c71f1f" /><rect x="1267.0" y="682.5" width="12.0" height="3" fill="#35df39" stroke="#03aa10" /><rect x="1254.0" y="699.0" width="12.0" height="3" fill="#ff3c3c" stroke="#c71f1f" /><rect x="1267.0" y="699.0" width="12.0" height="3" fill="#35df39" stroke="#03aa10" /><rect x="1254.0" y="732.5" width="12.0" height="3" fill="#ff3c3c" stroke="#c71f1f" /><rect x="1267.0" y="732.5" width="12.0" height="3" fill="#35df39" stroke="#03aa10" /><rect x="1254.0" y="749.0" width="12.0" height="3" fill="#ff3c3c" stroke="#c71f1f" /><rect x="1267.0" y="749.0" width="12.0" height="3" fill="#35df39" stroke="#03aa10" /><rect x="1254.0" y="782.5" width="12.0" height="3" fill="#ff3c3c" stroke="#c71f1f" /><rect x="1267.0" y="782.5" width="12.0" height="3" fill="#35df39" stroke="#03aa10" /><rect x="1254.0" y="799.0" width="12.0" height="3" fill="#ff3c3c" stroke="#c71f1f" /><rect x="1267.0" y="799.0" width="12.0" height="3" fill="#35df39" stroke="#03aa10" /><rect x="1368.0" y="32.5" width="12.0" height="3" fill="#ff3c3c" stroke="#c71f1f" /><rect x="1381.0" y="32.5" width="12.0" height="3" fill="#35df39" stroke="#03aa10" /><rect x="1368.0" y="49.0" width="12.0" height="3" fill="#ff3c3c" stroke="#c71f1f" /><rect x="1381.0" y="49.0" width="12.0" height="3" fill="#35df39" stroke="#03aa10" /><rect x="1368.0" y="82.5" width="12.0" height="3" fill="#ff3c3c" stroke="#c71f1f" /><rect x="1381.0" y="82.5" width="12.0" height="3" fill="#35df39" stroke="#03aa10" /><rect x="1368.0" y="99.0" width="12.0" height="3" fill="#ff3c3c" stroke="#c71f1f" /><rect x="1381.0" y="99.0" width="12.0" height="3" fill="#35df39" stroke="#03aa10" /><rect x="1394.0" y="132.5" width="12.0" height="3" fill="#80c9ff" stroke="#0b6cba" /><rect x="1368.0" y="149.0" width="12.0" height="3" fill="#ff3c3c" stroke="#c71f1f" /><rect x="1381.0" y="182.5" width="12.0" height="3" fill="#35df39" stroke="#03aa10" /><rect x="1394.0" y="182.5" width="12.0" height="3" fill="#80c9ff" stroke="#0b6cba" /><rect x="1407.0" y="232.5" width="12.0" height="3" fill="#fff874" stroke="#eb9c26" /><rect x="1381.0" y="249.0" width="12.0" height="3" fill="#35df39" stroke="#03aa10" /><rect x="1381.0" y="299.0" width="12.0" height="3" fill="#35df39" stroke="#03aa10" /><rect x="1394.0" y="299.0" width="12.0" height="3" fill="#80c9ff" stroke="#0b6cba" /><rect x="1407.0" y="332.5" width="12.0" height="3" fill="#fff874" stroke="#eb9c26" /><rect x="1381.0" y="349.0" width="12.0" height="3" fill="#35df39" stroke="#03aa10" /><rect x="1394.0" y="382.0" width="12.0" height="3" fill="#80c9ff" stroke="#0b6cba" /><rect x="1407.0" y="432.0" width="12.0" height="3" fill="#fff874" stroke="#eb9c26" /><rect x="1394.0" y="449.0" width="12.0" height="3" fill="#80c9ff" stroke="#0b6cba" /><rect x="1381.0" y="482.0" width="12.0" height="3" fill="#35df39" stroke="#03aa10" /><rect x="1394.0" y="482.0" width="12.0" height="3" fill="#80c9ff" stroke="#0b6cba" /><rect x="1394.0" y="532.0" width="12.0" height="3" fill="#80c9ff" stroke="#0b6cba" /><rect x="1407.0" y="532.0" width="12.0" height="3" fill="#fff874" stroke="#eb9c26" /><rect x="1407.0" y="583.5" width="12.0" height="3" fill="#fff874" stroke="#eb9c26" /><rect x="1420.0" y="650.0" width="12.0" height="3" fill="#ff83f4" stroke="#d002bc" /><rect x="1420.0" y="683.0" width="12.0" height="3" fill="#ff83f4" stroke="#d002bc" /><rect x="1368" y="683.0" width="64" height="3" fill="#ff72e7" stroke="#7c7c7c" /><rect x="1407.0" y="700.0" width="12.0" height="3" fill="#fff874" stroke="#eb9c26" /><rect x="1420.0" y="750.0" width="12.0" height="3" fill="#ff83f4" stroke="#d002bc" /><rect x="1394.0" y="783.0" width="12.0" height="3" fill="#80c9ff" stroke="#0b6cba" /><rect x="1521.0" y="49.5" width="12.0" height="3" fill="#fff874" stroke="#eb9c26" /><rect x="1534.0" y="83.0" width="12.0" height="3" fill="#ff83f4" stroke="#d002bc" /><rect x="1482" y="83.0" width="64" height="3" fill="#ff72e7" stroke="#7c7c7c" /><rect x="1495.0" y="99.5" width="12.0" height="3" fill="#35df39" stroke="#03aa10" /><rect x="1508.0" y="149.5" width="12.0" height="3" fill="#80c9ff" stroke="#0b6cba" /><rect x="1482.0" y="183.0" width="12.0" height="3" fill="#ff3c3c" stroke="#c71f1f" /><rect x="1508.0" y="249.5" width="12.0" height="3" fill="#80c9ff" stroke="#0b6cba" /><rect x="1534.0" y="283.0" width="12.0" height="3" fill="#ff83f4" stroke="#d002bc" /><rect x="1482" y="283.0" width="64" height="3" fill="#ff72e7" stroke="#7c7c7c" /><rect x="1482.0" y="299.5" width="12.0" height="3" fill="#ff3c3c" stroke="#c71f1f" /><rect x="1495.0" y="299.5" width="12.0" height="3" fill="#35df39" stroke="#03aa10" /><rect x="1495.0" y="349.5" width="12.0" height="3" fill="#35df39" stroke="#03aa10" /><rect x="1508.0" y="349.5" width="12.0" height="3" fill="#80c9ff" stroke="#0b6cba" /><rect x="1482.0" y="382.5" width="12.0" height="3" fill="#ff3c3c" stroke="#c71f1f" /><rect x="1495.0" y="449.5" width="12.0" height="3" fill="#35df39" stroke="#03aa10" /><rect x="1482.0" y="482.5" width="12.0" height="3" fill="#ff3c3c" stroke="#c71f1f" /><rect x="1495.0" y="482.5" width="12.0" height="3" fill="#35df39" stroke="#03aa10" /><rect x="1482.0" y="549.5" width="12.0" height="3" fill="#ff3c3c" stroke="#c71f1f" /><rect x="1495.0" y="582.5" width="12.0" height="3" fill="#35df39" stroke="#03aa10" /><rect x="1508.0" y="582.5" width="12.0" height="3" fill="#80c9ff" stroke="#0b6cba" /><rect x="1521.0" y="632.5" width="12.0" height="3" fill="#fff874" stroke="#eb9c26" /><rect x="1495.0" y="649.0" width="12.0" height="3" fill="#35df39" stroke="#03aa10" /><rect x="1508.0" y="649.0" width="12.0" height="3" fill="#80c9ff" stroke="#0b6cba" /><rect x="1495.0" y="682.5" width="12.0" height="3" fill="#35df39" stroke="#03aa10" /><rect x="1508.0" y="682.5" width="12.0" height="3" fill="#80c9ff" stroke="#0b6cba" /><rect x="1495.0" y="699.0" width="12.0" height="3" fill="#35df39" stroke="#03aa10" /><rect x="1508.0" y="699.0" width="12.0" height="3" fill="#80c9ff" stroke="#0b6cba" /><rect x="1495.0" y="732.5" width="12.0" height="3" fill="#35df39" stroke="#03aa10" /><rect x="1508.0" y="732.5" width="12.0" height="3" fill="#80c9ff" stroke="#0b6cba" /><rect x="1495.0" y="749.0" width="12.0" height="3" fill="#35df39" stroke="#03aa10" /><rect x="1508.0" y="749.0" width="12.0" height="3" fill="#80c9ff" stroke="#0b6cba" /><rect x="1495.0" y="782.5" width="12.0" height="3" fill="#35df39" stroke="#03aa10" /><rect x="1508.0" y="782.5" width="12.0" height="3" fill="#80c9ff" stroke="#0b6cba" /><rect x="1495.0" y="799.0" width="12.0" height="3" fill="#35df39" stroke="#03aa10" /><rect x="1508.0" y="799.0" width="12.0" height="3" fill="#80c9ff" stroke="#0b6cba" /><rect x="1609.0" y="32.5" width="12.0" height="3" fill="#35df39" stroke="#03aa10" /><rect x="1622.0" y="32.5" width="12.0" height="3" fill="#80c9ff" stroke="#0b6cba" /><rect x="1609.0" y="49.0" width="12.0" height="3" fill="#35df39" stroke="#03aa10" /><rect x="1622.0" y="49.0" width="12.0" height="3" fill="#80c9ff" stroke="#0b6cba" /><rect x="1609.0" y="82.5" width="12.0" height="3" fill="#35df39" stroke="#03aa10" /><rect x="1622.0" y="82.5" width="12.0" height="3" fill="#80c9ff" stroke="#0b6cba" /><rect x="1609.0" y="99.0" width="12.0" height="3" fill="#35df39" stroke="#03aa10" /><rect x="1622.0" y="99.0" width="12.0" height="3" fill="#80c9ff" stroke="#0b6cba" /><rect x="1635.0" y="132.5" width="12.0" height="3" fill="#fff874" stroke="#eb9c26" /><rect x="1648.0" y="149.0" width="12.0" height="3" fill="#ff83f4" stroke="#d002bc" /><rect x="1596" y="149.0" width="64" height="3" fill="#ff72e7" stroke="#7c7c7c" /><rect x="1596.0" y="182.5" width="12.0" height="3" fill="#ff3c3c" stroke="#c71f1f" /><rect x="1622.0" y="232.0" width="12.0" height="3" fill="#80c9ff" stroke="#0b6cba" /><rect x="1596.0" y="249.0" width="12.0" height="3" fill="#ff3c3c" stroke="#c71f1f" /><rect x="1609.0" y="282.0" width="12.0" height="3" fill="#35df39" stroke="#03aa10" /><rect x="1635.0" y="332.0" width="12.0" height="3" fill="#fff874" stroke="#eb9c26" /><rect x="1609.0" y="348.5" width="12.0" height="3" fill="#35df39" stroke="#03aa10" /><rect x="1622.0" y="382.0" width="12.0" height="3" fill="#80c9ff" stroke="#0b6cba" /><rect x="1635.0" y="432.0" width="12.0" height="3" fill="#fff874" stroke="#eb9c26" /><rect x="1622.0" y="448.5" width="12.0" height="3" fill="#80c9ff" stroke="#0b6cba" /><rect x="1635.0" y="498.5" width="12.0" height="3" fill="#fff874" stroke="#eb9c26" /><rect x="1609.0" y="532.0" width="12.0" height="3" fill="#35df39" stroke="#03aa10" /><rect x="1622.0" y="532.0" width="12.0" height="3" fill="#80c9ff" stroke="#0b6cba" /><rect x="1622.0" y="583.5" width="12.0" height="3" fill="#80c9ff" stroke="#0b6cba" /><rect x="1648.0" y="633.5" width="12.0" height="3" fill="#ff83f4" stroke="#d002bc" /><rect x="1648.0" y="650.0" width="12.0" height="3" fill="#ff83f4" stroke="#d002bc" /><rect x="1596" y="650.0" width="64" height="3" fill="#ff72e7" stroke="#7c7c7c" /><rect x="1635.0" y="683.5" width="12.0" height="3" fill="#fff874" stroke="#eb9c26" /><rect x="1648.0" y="700.0" width="12.0" height="3" fill="#ff83f4" stroke="#d002bc" /><rect x="1596" y="700.0" width="64" height="3" fill="#ff72e7" stroke="#7c7c7c" /><rect x="1622.0" y="733.5" width="12.0" height="3" fill="#80c9ff" stroke="#0b6cba" /><rect x="1648.0" y="750.0" width="12.0" height="3" fill="#ff83f4" stroke="#d002bc" /><rect x="1596" y="750.0" width="64" height="3" fill="#ff72e7" stroke="#7c7c7c" /><rect x="1609.0" y="783.5" width="12.0" height="3" fill="#35df39" stroke="#03aa10" /><rect x="1762.0" y="0.0" width="12.0" height="3" fill="#ff83f4" stroke="#d002bc" /><rect x="1710" y="0.0" width="64" height="3" fill="#ff72e7" stroke="#7c7c7c" /><rect x="1749.0" y="33.0" width="12.0" height="3" fill="#fff874" stroke="#eb9c26" /><rect x="1762.0" y="50.0" width="12.0" height="3" fill="#ff83f4" stroke="#d002bc" /><rect x="1736.0" y="83.0" width="12.0" height="3" fill="#80c9ff" stroke="#0b6cba" /><rect x="1749.0" y="100.0" width="12.0" height="3" fill="#fff874" stroke="#eb9c26" /><rect x="1723.0" y="150.0" width="12.0" height="3" fill="#35df39" stroke="#03aa10" /><rect x="1736.0" y="166.5" width="12.0" height="3" fill="#80c9ff" stroke="#0b6cba" /><rect x="1749.0" y="183.0" width="12.0" height="3" fill="#fff874" stroke="#eb9c26" /><rect x="1736.0" y="249.5" width="12.0" height="3" fill="#80c9ff" stroke="#0b6cba" /><rect x="1710.0" y="299.5" width="12.0" height="3" fill="#ff3c3c" stroke="#c71f1f" /><rect x="1710.0" y="316.5" width="12.0" height="3" fill="#ff3c3c" stroke="#c71f1f" /><rect x="1710.0" y="333.0" width="12.0" height="3" fill="#ff3c3c" stroke="#c71f1f" /><rect x="1723.0" y="349.5" width="12.0" height="3" fill="#35df39" stroke="#03aa10" /><rect x="1723.0" y="366.0" width="12.0" height="3" fill="#35df39" stroke="#03aa10" /><rect x="1736.0" y="383.0" width="12.0" height="3" fill="#80c9ff" stroke="#0b6cba" /><rect x="1723.0" y="433.0" width="12.0" height="3" fill="#35df39" stroke="#03aa10" /><rect x="1749.0" y="433.0" width="12.0" height="3" fill="#fff874" stroke="#eb9c26" /><rect x="1736.0" y="474.5" width="12.0" height="3" fill="#80c9ff" stroke="#0b6cba" /><rect x="1710.0" y="533.0" width="12.0" height="3" fill="#ff3c3c" stroke="#c71f1f" /><rect x="1736.0" y="533.0" width="12.0" height="3" fill="#80c9ff" stroke="#0b6cba" /><rect x="1723.0" y="582.5" width="12.0" height="3" fill="#35df39" stroke="#03aa10" /><rect x="1736.0" y="582.5" width="12.0" height="3" fill="#80c9ff" stroke="#0b6cba" /><rect x="1749.0" y="632.5" width="12.0" height="3" fill="#fff874" stroke="#eb9c26" /><rect x="1723.0" y="649.5" width="12.0" height="3" fill="#35df39" stroke="#03aa10" /><rect x="1736.0" y="649.5" width="12.0" height="3" fill="#80c9ff" stroke="#0b6cba" /><rect x="1723.0" y="682.5" width="12.0" height="3" fill="#35df39" stroke="#03aa10" /><rect x="1736.0" y="682.5" width="12.0" height="3" fill="#80c9ff" stroke="#0b6cba" /><rect x="1723.0" y="699.5" width="12.0" height="3" fill="#35df39" stroke="#03aa10" /><rect x="1736.0" y="699.5" width="12.0" height="3" fill="#80c9ff" stroke="#0b6cba" /><rect x="1723.0" y="732.5" width="12.0" height="3" fill="#35df39" stroke="#03aa10" /><rect x="1736.0" y="732.5" width="12.0" height="3" fill="#80c9ff" stroke="#0b6cba" /><rect x="1723.0" y="749.0" width="12.0" height="3" fill="#35df39" stroke="#03aa10" /><rect x="1736.0" y="749.0" width="12.0" height="3" fill="#80c9ff" stroke="#0b6cba" /><rect x="1723.0" y="782.5" width="12.0" height="3" fill="#35df39" stroke="#03aa10" /><rect x="1736.0" y="782.5" width="12.0" height="3" fill="#80c9ff" stroke="#0b6cba" /><rect x="1723.0" y="799.0" width="12.0" height="3" fill="#35df39" stroke="#03aa10" /><rect x="1736.0" y="799.0" width="12.0" height="3" fill="#80c9ff" stroke="#0b6cba" /><rect x="1863.0" y="32.5" width="12.0" height="3" fill="#fff874" stroke="#eb9c26" /><rect x="1837.0" y="49.0" width="12.0" height="3" fill="#35df39" stroke="#03aa10" /><rect x="1850.0" y="49.0" width="12.0" height="3" fill="#80c9ff" stroke="#0b6cba" /><rect x="1876.0" y="82.5" width="12.0" height="3" fill="#ff83f4" stroke="#d002bc" /><rect x="1824" y="82.5" width="64" height="3" fill="#ff72e7" stroke="#7c7c7c" /><rect x="1863.0" y="99.0" width="12.0" height="3" fill="#fff874" stroke="#eb9c26" /><rect x="1850.0" y="132.0" width="12.0" height="3" fill="#80c9ff" stroke="#0b6cba" /><rect x="1837.0" y="148.5" width="12.0" height="3" fill="#35df39" stroke="#03aa10" /><rect x="1824.0" y="182.0" width="12.0" height="3" fill="#ff3c3c" stroke="#c71f1f" /><rect x="1850.0" y="232.0" width="12.0" height="3" fill="#80c9ff" stroke="#0b6cba" /><rect x="1824.0" y="248.5" width="12.0" height="3" fill="#ff3c3c" stroke="#c71f1f" /><rect x="1837.0" y="282.0" width="12.0" height="3" fill="#35df39" stroke="#03aa10" /><rect x="1863.0" y="332.0" width="12.0" height="3" fill="#fff874" stroke="#eb9c26" /><rect x="1837.0" y="348.5" width="12.0" height="3" fill="#35df39" stroke="#03aa10" /><rect x="1837.0" y="382.0" width="12.0" height="3" fill="#35df39" stroke="#03aa10" /><rect x="1850.0" y="382.0" width="12.0" height="3" fill="#80c9ff" stroke="#0b6cba" /><rect x="1850.0" y="432.0" width="12.0" height="3" fill="#80c9ff" stroke="#0b6cba" /><rect x="1863.0" y="432.0" width="12.0" height="3" fill="#fff874" stroke="#eb9c26" /><rect x="1863.0" y="482.0" width="12.0" height="3" fill="#fff874" stroke="#eb9c26" /><rect x="1876.0" y="482.0" width="12.0" height="3" fill="#ff83f4" stroke="#d002bc" /></svg>