<?xml version="1.0" encoding="UTF-8"?><svg xmlns="http://www.w3.org/2000/svg" xmlns:xlink="http://www.w3.org/1999/xlink"     width="1824" height="1416.5" viewBox="0 0 1824 1416.5"><defs></defs><rect x="0" y="0" width="64" height="889.0" fill="black" /><rect x="0" y="0.0" width="64" height="1" fill="white" fill-opacity="0.5" /><text x="74" y="14.0" font-size="14" fill="white" font-family="monospace" dominant-baseline="ideographic">1</text><rect x="0" y="55.5" width="64" height="1" fill="white" fill-opacity="0.2" /><rect x="0" y="111.0" width="64" height="1" fill="white" fill-opacity="0.2" /><rect x="0" y="166.5" width="64" height="1" fill="white" fill-opacity="0.2" /><rect x="0" y="222.0" width="64" height="1" fill="white" fill-opacity="0.5" /><text x="74" y="236.0" font-size="14" fill="white" font-family="monospace" dominant-baseline="ideographic">2</text><rect x="0" y="278.0" width="64" height="1" fill="white" fill-opacity="0.2" /><rect x="0" y="333.5" width="64" height="1" fill="white" fill-opacity="0.2" /><rect x="0" y="389.0" width="64" height="1" fill="white" fill-opacity="0.2" /><rect x="0" y="444.5" width="64" height="1" fill="white" fill-opacity="0.5" /><text x="74" y="458.5" font-size="14" fill="white" font-family="monospace" dominant-baseline="ideographic">3</text><rect x="0" y="500.0" width="64" height="1" fill="white" fill-opacity="0.2" /><rect x="0" y="555.5" width="64" height="1" fill="white" fill-opacity="0.2" /><rect x="0" y="611.0" width="64" height="1" fill="white" fill-opacity="0.2" /><rect x="0" y="666.5" width="64" height="1" fill="white" fill-opacity="0.5" /><text x="74" y="680.5" font-size="14" fill="white" font-family="monospace" dominant-baseline="ideographic">4</text><rect x="0" y="722.0" width="64" height="1" fill="white" fill-opacity="0.2" /><rect x="0" y="778.0" width="64" height="1" fill="white" fill-opacity="0.2" /><rect x="0" y="833.5" width="64" height="1" fill="white" fill-opacity="0.2" /><rect x="0" y="889.0" width="64" height="1" fill="white" fill-opacity="0.5" /><text x="74" y="903.0" font-size="14" fill="white" font-family="monospace" dominant-baseline="ideographic">5</text><rect x="0" y="0.0" width="64" height="1" fill="aqua" fill-opacity="0.75" /><text x="0" y="14.0" font-size="14" fill="aqua" fill-opacity="0.75" font-family="monospace">Intro</text><rect x="0" y="0.0" width="64" height="1" fill="lime" fill-opacity="0.75" /><text x="74" y="28.0" font-size="14" fill="lime" font-family="monospace" dominant-baseline="ideographic">162</text><rect x="114" y="0" width="64" height="889.0" fill="black" /><rect x="114" y="0.0" width="64" height="1" fill="white" fill-opacity="0.5" /><text x="188" y="14.0" font-size="14" fill="white" font-family="monospace" dominant-baseline="ideographic">5</text><rect x="114" y="55.5" width="64" height="1" fill="white" fill-opacity="0.2" /><rect x="114" y="111.0" width="64" height="1" fill="white" fill-opacity="0.2" /><rect x="114" y="166.5" width="64" height="1" fill="white" fill-opacity="0.2" /><rect x="114" y="222.0" width="64" height="1" fill="white" fill-opacity="0.5" /><text x="188" y="236.0" font-size="14" fill="white" font-family="monospace" dominant-baseline="ideographic">6</text><rect x="114" y="277.5" width="64" height="1" fill="white" fill-opacity="0.2" /><rect x="114" y="333.0" width="64" height="1" fill="white" fill-opacity="0.2" /><rect x="114" y="389.0" width="64" height="1" fill="white" fill-opacity="0.2" /><rect x="114" y="444.5" width="64" height="1" fill="white" fill-opacity="0.5" /><text x="188" y="458.5" font-size="14" fill="white" font-family="monospace" dominant-baseline="ideographic">7</text><rect x="114" y="500.0" width="64" height="1" fill="white" fill-opacity="0.2" /><rect x="114" y="555.5" width="64" height="1" fill="white" fill-opacity="0.2" /><rect x="114" y="611.0" width="64" height="1" fill="white" fill-opacity="0.2" /><rect x="114" y="666.5" width="64" height="1" fill="white" fill-opacity="0.5" /><text x="188" y="680.5" font-size="14" fill="white" font-family="monospace" dominant-baseline="ideographic">8</text><rect x="114" y="722.0" width="64" height="1" fill="white" fill-opacity="0.2" /><rect x="114" y="777.5" width="64" height="1" fill="white" fill-opacity="0.2" /><rect x="114" y="833.0" width="64" height="1" fill="white" fill-opacity="0.2" /><rect x="114" y="889.0" width="64" height="1" fill="white" fill-opacity="0.5" /><text x="188" y="903.0" font-size="14" fill="white" font-family="monospace" dominant-baseline="ideographic">9</text><rect x="114" y="444.3499999999999" width="64" height="1" fill="aqua" fill-opacity="0.75" /><text x="114" y="458.3499999999999" font-size="14" fill="aqua" fill-opacity="0.75" font-family="monospace">Phrase A</text><rect x="228" y="0" width="64" height="888.5" fill="black" /><rect x="228" y="0.0" width="64" height="1" fill="white" fill-opacity="0.5" /><text x="302" y="14.0" font-size="14" fill="white" font-family="monospace" dominant-baseline="ideographic">9</text><rect x="228" y="55.5" width="64" height="1" fill="white" fill-opacity="0.2" /><rect x="228" y="111.0" width="64" height="1" fill="white" fill-opacity="0.2" /><rect x="228" y="166.5" width="64" height="1" fill="white" fill-opacity="0.2" /><rect x="228" y="222.0" width="64" height="1" fill="white" fill-opacity="0.5" /><text x="302" y="236.0" font-size="14" fill="white" font-family="monospace" dominant-baseline="ideographic">10</text><rect x="228" y="277.5" width="64" height="1" fill="white" fill-opacity="0.2" /><rect x="228" y="333.0" width="64" height="1" fill="white" fill-opacity="0.2" /><rect x="228" y="388.5" width="64" height="1" fill="white" fill-opacity="0.2" /><rect x="228" y="444.0" width="64" height="1" fill="white" fill-opacity="0.5" /><text x="302" y="458.0" font-size="14" fill="white" font-family="monospace" dominant-baseline="ideographic">11</text><rect x="228" y="500.0" width="64" height="1" fill="white" fill-opacity="0.2" /><rect x="228" y="555.5" width="64" height="1" fill="white" fill-opacity="0.2" /><rect x="228" y="611.0" width="64" height="1" fill="white" fill-opacity="0.2" /><rect x="228" y="666.5" width="64" height="1" fill="white" fill-opacity="0.5" /><text x="302" y="680.5" font-size="14" fill="white" font-family="monospace" dominant-baseline="ideographic">12</text><rect x="228" y="722.0" width="64" height="1" fill="white" fill-opacity="0.2" /><rect x="228" y="777.5" width="64" height="1" fill="white" fill-opacity="0.2" /><rect x="228" y="833.0" width="64" height="1" fill="white" fill-opacity="0.2" /><rect x="228" y="888.5" width="64" height="1" fill="white" fill-opacity="0.5" /><text x="302" y="902.5" font-size="14" fill="white" font-family="monospace" dominant-baseline="ideographic">13</text><rect x="342" y="0" width="64" height="889.0" fill="black" /><rect x="342" y="0.0" width="64" height="1" fill="white" fill-opacity="0.5" /><text x="416" y="14.0" font-size="14" fill="white" font-family="monospace" dominant-baseline="ideographic">13</text><rect x="342" y="55.5" width="64" height="1" fill="white" fill-opacity="0.2" /><rect x="342" y="111.5" width="64" height="1" fill="white" fill-opacity="0.2" /><rect x="342" y="167.0" width="64" height="1" fill="white" fill-opacity="0.2" /><rect x="342" y="222.5" width="64" height="1" fill="white" fill-opacity="0.5" /><text x="416" y="236.5" font-size="14" fill="white" font-family="monospace" dominant-baseline="ideographic">14</text><rect x="342" y="278.0" width="64" height="1" fill="white" fill-opacity="0.2" /><rect x="342" y="333.5" width="64" height="1" fill="white" fill-opacity="0.2" /><rect x="342" y="389.0" width="64" height="1" fill="white" fill-opacity="0.2" /><rect x="342" y="444.5" width="64" height="1" fill="white" fill-opacity="0.5" /><text x="416" y="458.5" font-size="14" fill="white" font-family="monospace" dominant-baseline="ideographic">15</text><rect x="342" y="500.0" width="64" height="1" fill="white" fill-opacity="0.2" /><rect x="342" y="555.5" width="64" height="1" fill="white" fill-opacity="0.2" /><rect x="342" y="611.5" width="64" height="1" fill="white" fill-opacity="0.2" /><rect x="342" y="667.0" width="64" height="1" fill="white" fill-opacity="0.5" /><text x="416" y="681.0" font-size="14" fill="white" font-family="monospace" dominant-baseline="ideographic">16</text><rect x="342" y="722.5" width="64" height="1" fill="white" fill-opacity="0.2" /><rect x="342" y="778.0" width="64" height="1" fill="white" fill-opacity="0.2" /><rect x="342" y="833.5" width="64" height="1" fill="white" fill-opacity="0.2" /><rect x="342" y="889.0" width="64" height="1" fill="white" fill-opacity="0.5" /><text x="416" y="903.0" font-size="14" fill="white" font-family="monospace" dominant-baseline="ideographic">17</text><rect x="342" y="444.64999999999964" width="64" height="1" fill="aqua" fill-opacity="0.75" /><text x="342" y="458.64999999999964" font-size="14" fill="aqua" fill-opacity="0.75" font-family="monospace">Phrase B</text><rect x="456" y="0" width="64" height="889.0" fill="black" /><rect x="456" y="0.0" width="64" height="1" fill="white" fill-opacity="0.5" /><text x="530" y="14.0" font-size="14" fill="white" font-family="monospace" dominant-baseline="ideographic">17</text><rect x="456" y="55.5" width="64" height="1" fill="white" fill-opacity="0.2" /><rect x="456" y="111.0" width="64" height="1" fill="white" fill-opacity="0.2" /><rect x="456" y="166.5" width="64" height="1" fill="white" fill-opacity="0.2" /><rect x="456" y="222.5" width="64" height="1" fill="white" fill-opacity="0.5" /><text x="530" y="236.5" font-size="14" fill="white" font-family="monospace" dominant-baseline="ideographic">18</text><rect x="456" y="278.0" width="64" height="1" fill="white" fill-opacity="0.2" /><rect x="456" y="333.5" width="64" height="1" fill="white" fill-opacity="0.2" /><rect x="456" y="389.0" width="64" height="1" fill="white" fill-opacity="0.2" /><rect x="456" y="444.5" width="64" height="1" fill="white" fill-opacity="0.5" /><text x="530" y="458.5" font-size="14" fill="white" font-family="monospace" dominant-baseline="ideographic">19</text><rect x="456" y="500.0" width="64" height="1" fill="white" fill-opacity="0.2" /><rect x="456" y="555.5" width="64" height="1" fill="white" fill-opacity="0.2" /><rect x="456" y="611.0" width="64" height="1" fill="white" fill-opacity="0.2" /><rect x="456" y="666.5" width="64" height="1" fill="white" fill-opacity="0.5" /><text x="530" y="680.5" font-size="14" fill="white" font-family="monospace" dominant-baseline="ideographic">20</text><rect x="456" y="722.5" width="64" height="1" fill="white" fill-opacity="0.2" /><rect x="456" y="778.0" width="64" height="1" fill="white" fill-opacity="0.2" /><rect x="456" y="833.5" width="64" height="1" fill="white" fill-opacity="0.2" /><rect x="456" y="889.0" width="64" height="1" fill="white" fill-opacity="0.5" /><text x="530" y="903.0" font-size="14" fill="white" font-family="monospace" dominant-baseline="ideographic">21</text><rect x="570" y="0" width="64" height="889.0" fill="black" /><rect x="570" y="0.0" width="64" height="1" fill="white" fill-opacity="0.5" /><text x="644" y="14.0" font-size="14" fill="white" font-family="monospace" dominant-baseline="ideographic">21</text><rect x="570" y="55.5" width="64" height="1" fill="white" fill-opacity="0.2" /><rect x="570" y="111.0" width="64" height="1" fill="white" fill-opacity="0.2" /><rect x="570" y="166.5" width="64" height="1" fill="white" fill-opacity="0.2" /><rect x="570" y="222.0" width="64" height="1" fill="white" fill-opacity="0.5" /><text x="644" y="236.0" font-size="14" fill="white" font-family="monospace" dominant-baseline="ideographic">22</text><rect x="570" y="277.5" width="64" height="1" fill="white" fill-opacity="0.2" /><rect x="570" y="333.5" width="64" height="1" fill="white" fill-opacity="0.2" /><rect x="570" y="389.0" width="64" height="1" fill="white" fill-opacity="0.2" /><rect x="570" y="444.5" width="64" height="1" fill="white" fill-opacity="0.5" /><text x="644" y="458.5" font-size="14" fill="white" font-family="monospace" dominant-baseline="ideographic">23</text><rect x="570" y="500.0" width="64" height="1" fill="white" fill-opacity="0.2" /><rect x="570" y="555.5" width="64" height="1" fill="white" fill-opacity="0.2" /><rect x="570" y="611.0" width="64" height="1" fill="white" fill-opacity="0.2" /><rect x="570" y="666.5" width="64" height="1" fill="white" fill-opacity="0.5" /><text x="644" y="680.5" font-size="14" fill="white" font-family="monospace" dominant-baseline="ideographic">24</text><rect x="570" y="722.0" width="64" height="1" fill="white" fill-opacity="0.2" /><rect x="570" y="777.5" width="64" height="1" fill="white" fill-opacity="0.2" /><rect x="570" y="833.5" width="64" height="1" fill="white" fill-opacity="0.2" /><rect x="570" y="889.0" width="64" height="1" fill="white" fill-opacity="0.5" /><text x="644" y="903.0" font-size="14" fill="white" font-family="monospace" dominant-baseline="ideographic">25</text><rect x="570" y="444.4499999999998" width="64" height="1" fill="aqua" fill-opacity="0.75" /><text x="570" y="458.4499999999998" font-size="14" fill="aqua" fill-opacity="0.75" font-family="monospace">Special</text><rect x="684" y="0" width="64" height="888.5" fill="black" /><rect x="684" y="0.0" width="64" height="1" fill="white" fill-opacity="0.5" /><text x="758" y="14.0" font-size="14" fill="white" font-family="monospace" dominant-baseline="ideographic">25</text><rect x="684" y="55.5" width="64" height="1" fill="white" fill-opacity="0.2" /><rect x="684" y="111.0" width="64" height="1" fill="white" fill-opacity="0.2" /><rect x="684" y="166.5" width="64" height="1" fill="white" fill-opacity="0.2" /><rect x="684" y="222.0" width="64" height="1" fill="white" fill-opacity="0.5" /><text x="758" y="236.0" font-size="14" fill="white" font-family="monospace" dominant-baseline="ideographic">26</text><rect x="684" y="277.5" width="64" height="1" fill="white" fill-opacity="0.2" /><rect x="684" y="333.0" width="64" height="1" fill="white" fill-opacity="0.2" /><rect x="684" y="388.5" width="64" height="1" fill="white" fill-opacity="0.2" /><rect x="684" y="444.5" width="64" height="1" fill="white" fill-opacity="0.5" /><text x="758" y="458.5" font-size="14" fill="white" font-family="monospace" dominant-baseline="ideographic">27</text><rect x="684" y="500.0" width="64" height="1" fill="white" fill-opacity="0.2" /><rect x="684" y="555.5" width="64" height="1" fill="white" fill-opacity="0.2" /><rect x="684" y="611.0" width="64" height="1" fill="white" fill-opacity="0.2" /><rect x="684" y="666.5" width="64" height="1" fill="white" fill-opacity="0.5" /><text x="758" y="680.5" font-size="14" fill="white" font-family="monospace" dominant-baseline="ideographic">28</text><rect x="684" y="722.0" width="64" height="1" fill="white" fill-opacity="0.2" /><rect x="684" y="777.5" width="64" height="1" fill="white" fill-opacity="0.2" /><rect x="684" y="833.0" width="64" height="1" fill="white" fill-opacity="0.2" /><rect x="684" y="888.5" width="64" height="1" fill="white" fill-opacity="0.5" /><text x="758" y="902.5" font-size="14" fill="white" font-family="monospace" dominant-baseline="ideographic">29</text><rect x="798" y="0" width="64" height="1146.0" fill="black" /><rect x="798" y="0.0" width="64" height="1" fill="white" fill-opacity="0.5" /><text x="872" y="14.0" font-size="14" fill="white" font-family="monospace" dominant-baseline="ideographic">29</text><rect x="798" y="56.0" width="64" height="1" fill="white" fill-opacity="0.2" /><rect x="798" y="111.5" width="64" height="1" fill="white" fill-opacity="0.2" /><rect x="798" y="167.0" width="64" height="1" fill="white" fill-opacity="0.2" /><rect x="798" y="222.5" width="64" height="1" fill="white" fill-opacity="0.5" /><text x="872" y="236.5" font-size="14" fill="white" font-family="monospace" dominant-baseline="ideographic">30</text><rect x="798" y="278.0" width="64" height="1" fill="white" fill-opacity="0.2" /><rect x="798" y="333.5" width="64" height="1" fill="white" fill-opacity="0.2" /><rect x="798" y="389.0" width="64" height="1" fill="white" fill-opacity="0.2" /><rect x="798" y="444.5" width="64" height="1" fill="white" fill-opacity="0.5" /><text x="872" y="458.5" font-size="14" fill="white" font-family="monospace" dominant-baseline="ideographic">31</text><rect x="798" y="503.0" width="64" height="1" fill="white" fill-opacity="0.2" /><rect x="798" y="561.5" width="64" height="1" fill="white" fill-opacity="0.2" /><rect x="798" y="620.0" width="64" height="1" fill="white" fill-opacity="0.2" /><rect x="798" y="678.5" width="64" height="1" fill="white" fill-opacity="0.2" /><rect x="798" y="737.0" width="64" height="1" fill="white" fill-opacity="0.2" /><rect x="798" y="795.5" width="64" height="1" fill="white" fill-opacity="0.5" /><text x="872" y="809.5" font-size="14" fill="white" font-family="monospace" dominant-baseline="ideographic">32</text><rect x="798" y="854.0" width="64" height="1" fill="white" fill-opacity="0.2" /><rect x="798" y="912.0" width="64" height="1" fill="white" fill-opacity="0.2" /><rect x="798" y="970.5" width="64" height="1" fill="white" fill-opacity="0.2" /><rect x="798" y="1029.0" width="64" height="1" fill="white" fill-opacity="0.2" /><rect x="798" y="1087.5" width="64" height="1" fill="white" fill-opacity="0.2" /><rect x="798" y="1146.0" width="64" height="1" fill="white" fill-opacity="0.5" /><text x="872" y="1160.0" font-size="14" fill="white" font-family="monospace" dominant-baseline="ideographic">33</text><rect x="798" y="444.59999999999945" width="64" height="1" fill="aqua" fill-opacity="0.75" /><text x="798" y="458.59999999999945" font-size="14" fill="aqua" fill-opacity="0.75" font-family="monospace">Phrase C</text><rect x="798" y="444.5" width="64" height="1" fill="lime" fill-opacity="0.75" /><text x="872" y="472.5" font-size="14" fill="lime" font-family="monospace" dominant-baseline="ideographic">154</text><rect x="912" y="0" width="64" height="1402.5" fill="black" /><rect x="912" y="0.0" width="64" height="1" fill="white" fill-opacity="0.5" /><text x="986" y="14.0" font-size="14" fill="white" font-family="monospace" dominant-baseline="ideographic">33</text><rect x="912" y="58.5" width="64" height="1" fill="white" fill-opacity="0.2" /><rect x="912" y="117.0" width="64" height="1" fill="white" fill-opacity="0.2" /><rect x="912" y="175.5" width="64" height="1" fill="white" fill-opacity="0.2" /><rect x="912" y="233.5" width="64" height="1" fill="white" fill-opacity="0.2" /><rect x="912" y="292.0" width="64" height="1" fill="white" fill-opacity="0.2" /><rect x="912" y="350.5" width="64" height="1" fill="white" fill-opacity="0.5" /><text x="986" y="364.5" font-size="14" fill="white" font-family="monospace" dominant-baseline="ideographic">34</text><rect x="912" y="409.0" width="64" height="1" fill="white" fill-opacity="0.2" /><rect x="912" y="467.5" width="64" height="1" fill="white" fill-opacity="0.2" /><rect x="912" y="526.0" width="64" height="1" fill="white" fill-opacity="0.2" /><rect x="912" y="584.5" width="64" height="1" fill="white" fill-opacity="0.2" /><rect x="912" y="643.0" width="64" height="1" fill="white" fill-opacity="0.2" /><rect x="912" y="701.5" width="64" height="1" fill="white" fill-opacity="0.5" /><text x="986" y="715.5" font-size="14" fill="white" font-family="monospace" dominant-baseline="ideographic">35</text><rect x="912" y="759.5" width="64" height="1" fill="white" fill-opacity="0.2" /><rect x="912" y="818.0" width="64" height="1" fill="white" fill-opacity="0.2" /><rect x="912" y="876.5" width="64" height="1" fill="white" fill-opacity="0.2" /><rect x="912" y="935.0" width="64" height="1" fill="white" fill-opacity="0.2" /><rect x="912" y="993.5" width="64" height="1" fill="white" fill-opacity="0.2" /><rect x="912" y="1052.0" width="64" height="1" fill="white" fill-opacity="0.5" /><text x="986" y="1066.0" font-size="14" fill="white" font-family="monospace" dominant-baseline="ideographic">36</text><rect x="912" y="1110.5" width="64" height="1" fill="white" fill-opacity="0.2" /><rect x="912" y="1169.0" width="64" height="1" fill="white" fill-opacity="0.2" /><rect x="912" y="1227.0" width="64" height="1" fill="white" fill-opacity="0.2" /><rect x="912" y="1285.5" width="64" height="1" fill="white" fill-opacity="0.2" /><rect x="912" y="1344.0" width="64" height="1" fill="white" fill-opacity="0.2" /><rect x="912" y="1402.5" width="64" height="1" fill="white" fill-opacity="0.5" /><text x="986" y="1416.5" font-size="14" fill="white" font-family="monospace" dominant-baseline="ideographic">37</text><rect x="1026" y="0" width="64" height="1151.5" fill="black" /><rect x="1026" y="0.0" width="64" height="1" fill="white" fill-opacity="0.5" /><text x="1100" y="14.0" font-size="14" fill="white" font-family="monospace" dominant-baseline="ideographic">37</text><rect x="1026" y="58.5" width="64" height="1" fill="white" fill-opacity="0.2" /><rect x="1026" y="117.0" width="64" height="1" fill="white" fill-opacity="0.2" /><rect x="1026" y="175.5" width="64" height="1" fill="white" fill-opacity="0.2" /><rect x="1026" y="234.0" width="64" height="1" fill="white" fill-opacity="0.2" /><rect x="1026" y="292.5" width="64" height="1" fill="white" fill-opacity="0.2" /><rect x="1026" y="350.5" width="64" height="1" fill="white" fill-opacity="0.5" /><text x="1100" y="364.5" font-size="14" fill="white" font-family="monospace" dominant-baseline="ideographic">38</text><rect x="1026" y="409.0" width="64" height="1" fill="white" fill-opacity="0.2" /><rect x="1026" y="467.5" width="64" height="1" fill="white" fill-opacity="0.2" /><rect x="1026" y="526.0" width="64" height="1" fill="white" fill-opacity="0.2" /><rect x="1026" y="584.5" width="64" height="1" fill="white" fill-opacity="0.2" /><rect x="1026" y="643.0" width="64" height="1" fill="white" fill-opacity="0.2" /><rect x="1026" y="701.5" width="64" height="1" fill="white" fill-opacity="0.5" /><text x="1100" y="715.5" font-size="14" fill="white" font-family="monospace" dominant-baseline="ideographic">39</text><rect x="1026" y="757.5" width="64" height="1" fill="white" fill-opacity="0.2" /><rect x="1026" y="814.0" width="64" height="1" fill="white" fill-opacity="0.2" /><rect x="1026" y="870.0" width="64" height="1" fill="white" fill-opacity="0.2" /><rect x="1026" y="926.5" width="64" height="1" fill="white" fill-opacity="0.5" /><text x="1100" y="940.5" font-size="14" fill="white" font-family="monospace" dominant-baseline="ideographic">40</text><rect x="1026" y="982.5" width="64" height="1" fill="white" fill-opacity="0.2" /><rect x="1026" y="1039.0" width="64" height="1" fill="white" fill-opacity="0.2" /><rect x="1026" y="1095.0" width="64" height="1" fill="white" fill-opacity="0.2" /><rect x="1026" y="1151.5" width="64" height="1" fill="white" fill-opacity="0.5" /><text x="1100" y="1165.5" font-size="14" fill="white" font-family="monospace" dominant-baseline="ideographic">41</text><rect x="1026" y="701.3999999999996" width="64" height="1" fill="aqua" fill-opacity="0.75" /><text x="1026" y="715.3999999999996" font-size="14" fill="aqua" fill-opacity="0.75" font-family="monospace">Special</text><rect x="1026" y="701.5" width="64" height="1" fill="lime" fill-opacity="0.75" /><text x="1100" y="729.5" font-size="14" fill="lime" font-family="monospace" dominant-baseline="ideographic">160</text><rect x="1140" y="0" width="64" height="900.0" fill="black" /><rect x="1140" y="0.0" width="64" height="1" fill="white" fill-opacity="0.5" /><text x="1214" y="14.0" font-size="14" fill="white" font-family="monospace" dominant-baseline="ideographic">41</text><rect x="1140" y="56.0" width="64" height="1" fill="white" fill-opacity="0.2" /><rect x="1140" y="112.5" width="64" height="1" fill="white" fill-opacity="0.2" /><rect x="1140" y="168.5" width="64" height="1" fill="white" fill-opacity="0.2" /><rect x="1140" y="225.0" width="64" height="1" fill="white" fill-opacity="0.5" /><text x="1214" y="239.0" font-size="14" fill="white" font-family="monospace" dominant-baseline="ideographic">42</text><rect x="1140" y="281.0" width="64" height="1" fill="white" fill-opacity="0.2" /><rect x="1140" y="337.5" width="64" height="1" fill="white" fill-opacity="0.2" /><rect x="1140" y="393.5" width="64" height="1" fill="white" fill-opacity="0.2" /><rect x="1140" y="450.0" width="64" height="1" fill="white" fill-opacity="0.5" /><text x="1214" y="464.0" font-size="14" fill="white" font-family="monospace" dominant-baseline="ideographic">43</text><rect x="1140" y="506.0" width="64" height="1" fill="white" fill-opacity="0.2" /><rect x="1140" y="562.5" width="64" height="1" fill="white" fill-opacity="0.2" /><rect x="1140" y="618.5" width="64" height="1" fill="white" fill-opacity="0.2" /><rect x="1140" y="675.0" width="64" height="1" fill="white" fill-opacity="0.5" /><text x="1214" y="689.0" font-size="14" fill="white" font-family="monospace" dominant-baseline="ideographic">44</text><rect x="1140" y="731.0" width="64" height="1" fill="white" fill-opacity="0.2" /><rect x="1140" y="787.5" width="64" height="1" fill="white" fill-opacity="0.2" /><rect x="1140" y="843.5" width="64" height="1" fill="white" fill-opacity="0.2" /><rect x="1140" y="900.0" width="64" height="1" fill="white" fill-opacity="0.5" /><text x="1214" y="914.0" font-size="14" fill="white" font-family="monospace" dominant-baseline="ideographic">45</text><rect x="1254" y="0" width="64" height="900.0" fill="black" /><rect x="1254" y="0.0" width="64" height="1" fill="white" fill-opacity="0.5" /><text x="1328" y="14.0" font-size="14" fill="white" font-family="monospace" dominant-baseline="ideographic">45</text><rect x="1254" y="56.0" width="64" height="1" fill="white" fill-opacity="0.2" /><rect x="1254" y="112.5" width="64" height="1" fill="white" fill-opacity="0.2" /><rect x="1254" y="168.5" width="64" height="1" fill="white" fill-opacity="0.2" /><rect x="1254" y="225.0" width="64" height="1" fill="white" fill-opacity="0.5" /><text x="1328" y="239.0" font-size="14" fill="white" font-family="monospace" dominant-baseline="ideographic">46</text><rect x="1254" y="281.0" width="64" height="1" fill="white" fill-opacity="0.2" /><rect x="1254" y="337.5" width="64" height="1" fill="white" fill-opacity="0.2" /><rect x="1254" y="393.5" width="64" height="1" fill="white" fill-opacity="0.2" /><rect x="1254" y="450.0" width="64" height="1" fill="white" fill-opacity="0.5" /><text x="1328" y="464.0" font-size="14" fill="white" font-family="monospace" dominant-baseline="ideographic">47</text><rect x="1254" y="506.0" width="64" height="1" fill="white" fill-opacity="0.2" /><rect x="1254" y="562.5" width="64" height="1" fill="white" fill-opacity="0.2" /><rect x="1254" y="618.5" width="64" height="1" fill="white" fill-opacity="0.2" /><rect x="1254" y="675.0" width="64" height="1" fill="white" fill-opacity="0.5" /><text x="1328" y="689.0" font-size="14" fill="white" font-family="monospace" dominant-baseline="ideographic">48</text><rect x="1254" y="731.0" width="64" height="1" fill="white" fill-opacity="0.2" /><rect x="1254" y="787.5" width="64" height="1" fill="white" fill-opacity="0.2" /><rect x="1254" y="843.5" width="64" height="1" fill="white" fill-opacity="0.2" /><rect x="1254" y="900.0" width="64" height="1" fill="white" fill-opacity="0.5" /><text x="1328" y="914.0" font-size="14" fill="white" font-family="monospace" dominant-baseline="ideographic">49</text><rect x="1254" y="449.89999999999964" width="64" height="1" fill="aqua" fill-opacity="0.75" /><text x="1254" y="463.89999999999964" font-size="14" fill="aqua" fill-opacity="0.75" font-family="monospace">Special</text><rect x="1368" y="0" width="64" height="900.0" fill="black" /><rect x="1368" y="0.0" width="64" height="1" fill="white" fill-opacity="0.5" /><text x="1442" y="14.0" font-size="14" fill="white" font-family="monospace" dominant-baseline="ideographic">49</text><rect x="1368" y="56.0" width="64" height="1" fill="white" fill-opacity="0.2" /><rect x="1368" y="112.5" width="64" height="1" fill="white" fill-opacity="0.2" /><rect x="1368" y="168.5" width="64" height="1" fill="white" fill-opacity="0.2" /><rect x="1368" y="225.0" width="64" height="1" fill="white" fill-opacity="0.5" /><text x="1442" y="239.0" font-size="14" fill="white" font-family="monospace" dominant-baseline="ideographic">50</text><rect x="1368" y="281.0" width="64" height="1" fill="white" fill-opacity="0.2" /><rect x="1368" y="337.5" width="64" height="1" fill="white" fill-opacity="0.2" /><rect x="1368" y="393.5" width="64" height="1" fill="white" fill-opacity="0.2" /><rect x="1368" y="450.0" width="64" height="1" fill="white" fill-opacity="0.5" /><text x="1442" y="464.0" font-size="14" fill="white" font-family="monospace" dominant-baseline="ideographic">51</text><rect x="1368" y="506.0" width="64" height="1" fill="white" fill-opacity="0.2" /><rect x="1368" y="562.5" width="64" height="1" fill="white" fill-opacity="0.2" /><rect x="1368" y="618.5" width="64" height="1" fill="white" fill-opacity="0.2" /><rect x="1368" y="675.0" width="64" height="1" fill="white" fill-opacity="0.5" /><text x="1442" y="689.0" font-size="14" fill="white" font-family="monospace" dominant-baseline="ideographic">52</text><rect x="1368" y="731.0" width="64" height="1" fill="white" fill-opacity="0.2" /><rect x="1368" y="787.5" width="64" height="1" fill="white" fill-opacity="0.2" /><rect x="1368" y="843.5" width="64" height="1" fill="white" fill-opacity="0.2" /><rect x="1368" y="900.0" width="64" height="1" fill="white" fill-opacity="0.5" /><text x="1442" y="914.0" font-size="14" fill="white" font-family="monospace" dominant-baseline="ideographic">53</text><rect x="1482" y="0" width="64" height="1239.5" fill="black" /><rect x="1482" y="0.0" width="64" height="1" fill="white" fill-opacity="0.5" /><text x="1556" y="14.0" font-size="14" fill="white" font-family="monospace" dominant-baseline="ideographic">53</text><rect x="1482" y="58.5" width="64" height="1" fill="white" fill-opacity="0.2" /><rect x="1482" y="116.5" width="64" height="1" fill="white" fill-opacity="0.2" /><rect x="1482" y="176.5" width="64" height="1" fill="white" fill-opacity="0.2" /><rect x="1482" y="239.0" width="64" height="1" fill="white" fill-opacity="0.5" /><text x="1556" y="253.0" font-size="14" fill="white" font-family="monospace" dominant-baseline="ideographic">54</text><rect x="1482" y="305.0" width="64" height="1" fill="white" fill-opacity="0.2" /><rect x="1482" y="377.5" width="64" height="1" fill="white" fill-opacity="0.2" /><rect x="1482" y="461.0" width="64" height="1" fill="white" fill-opacity="0.2" /><rect x="1482" y="547.5" width="64" height="1" fill="white" fill-opacity="0.5" /><text x="1556" y="561.5" font-size="14" fill="white" font-family="monospace" dominant-baseline="ideographic">55</text><rect x="1482" y="634.0" width="64" height="1" fill="white" fill-opacity="0.2" /><rect x="1482" y="720.5" width="64" height="1" fill="white" fill-opacity="0.2" /><rect x="1482" y="807.0" width="64" height="1" fill="white" fill-opacity="0.2" /><rect x="1482" y="893.5" width="64" height="1" fill="white" fill-opacity="0.5" /><text x="1556" y="907.5" font-size="14" fill="white" font-family="monospace" dominant-baseline="ideographic">56</text><rect x="1482" y="980.0" width="64" height="1" fill="white" fill-opacity="0.2" /><rect x="1482" y="1066.5" width="64" height="1" fill="white" fill-opacity="0.2" /><rect x="1482" y="1153.0" width="64" height="1" fill="white" fill-opacity="0.2" /><rect x="1482" y="1239.5" width="64" height="1" fill="white" fill-opacity="0.5" /><text x="1556" y="1253.5" font-size="14" fill="white" font-family="monospace" dominant-baseline="ideographic">57</text><rect x="1482" y="547.3999999999996" width="64" height="1" fill="aqua" fill-opacity="0.75" /><text x="1482" y="561.3999999999996" font-size="14" fill="aqua" fill-opacity="0.75" font-family="monospace">Outro</text><rect x="1482" y="0.0" width="64" height="1" fill="lime" fill-opacity="0.75" /><text x="1556" y="28.0" font-size="14" fill="lime" font-family="monospace" dominant-baseline="ideographic">154</text><rect x="1482" y="116.5" width="64" height="1" fill="lime" fill-opacity="0.75" /><text x="1556" y="130.5" font-size="14" fill="lime" font-family="monospace" dominant-baseline="ideographic">150</text><rect x="1482" y="176.5" width="64" height="1" fill="lime" fill-opacity="0.75" /><text x="1556" y="190.5" font-size="14" fill="lime" font-family="monospace" dominant-baseline="ideographic">145</text><rect x="1482" y="239.0" width="64" height="1" fill="lime" fill-opacity="0.75" /><text x="1556" y="267.0" font-size="14" fill="lime" font-family="monospace" dominant-baseline="ideographic">136</text><rect x="1482" y="305.0" width="64" height="1" fill="lime" fill-opacity="0.75" /><text x="1556" y="319.0" font-size="14" fill="lime" font-family="monospace" dominant-baseline="ideographic">124</text><rect x="1482" y="377.5" width="64" height="1" fill="lime" fill-opacity="0.75" /><text x="1556" y="391.5" font-size="14" fill="lime" font-family="monospace" dominant-baseline="ideographic">108</text><rect x="1482" y="461.0" width="64" height="1" fill="lime" fill-opacity="0.75" /><text x="1556" y="475.0" font-size="14" fill="lime" font-family="monospace" dominant-baseline="ideographic">104</text><rect x="1596" y="0" width="64" height="1267.0" fill="black" /><rect x="1596" y="0.0" width="64" height="1" fill="white" fill-opacity="0.5" /><text x="1670" y="14.0" font-size="14" fill="white" font-family="monospace" dominant-baseline="ideographic">57</text><rect x="1596" y="87.0" width="64" height="1" fill="white" fill-opacity="0.2" /><rect x="1596" y="173.5" width="64" height="1" fill="white" fill-opacity="0.2" /><rect x="1596" y="260.0" width="64" height="1" fill="white" fill-opacity="0.2" /><rect x="1596" y="346.5" width="64" height="1" fill="white" fill-opacity="0.5" /><text x="1670" y="360.5" font-size="14" fill="white" font-family="monospace" dominant-baseline="ideographic">58</text><rect x="1596" y="434.5" width="64" height="1" fill="white" fill-opacity="0.2" /><rect x="1596" y="523.0" width="64" height="1" fill="white" fill-opacity="0.2" /><rect x="1596" y="611.0" width="64" height="1" fill="white" fill-opacity="0.2" /><rect x="1596" y="699.5" width="64" height="1" fill="white" fill-opacity="0.5" /><text x="1670" y="713.5" font-size="14" fill="white" font-family="monospace" dominant-baseline="ideographic">59</text><rect x="1596" y="787.5" width="64" height="1" fill="white" fill-opacity="0.2" /><rect x="1596" y="876.0" width="64" height="1" fill="white" fill-opacity="0.2" /><rect x="1596" y="973.5" width="64" height="1" fill="white" fill-opacity="0.2" /><rect x="1596" y="1071.5" width="64" height="1" fill="white" fill-opacity="0.5" /><text x="1670" y="1085.5" font-size="14" fill="white" font-family="monospace" dominant-baseline="ideographic">60</text><rect x="1596" y="1169.5" width="64" height="1" fill="white" fill-opacity="0.2" /><rect x="1596" y="1267.0" width="64" height="1" fill="white" fill-opacity="0.5" /><text x="1670" y="1281.0" font-size="14" fill="white" font-family="monospace" dominant-baseline="ideographic">61</text><rect x="1596" y="346.5" width="64" height="1" fill="lime" fill-opacity="0.75" /><text x="1670" y="374.5" font-size="14" fill="lime" font-family="monospace" dominant-baseline="ideographic">102</text><rect x="1596" y="876.0" width="64" height="1" fill="lime" fill-opacity="0.75" /><text x="1670" y="890.0" font-size="14" fill="lime" font-family="monospace" dominant-baseline="ideographic">92</text><rect x="1710" y="0" width="64" height="649.0" fill="black" /><rect x="1710" y="0.0" width="64" height="1" fill="white" fill-opacity="0.5" /><text x="1784" y="14.0" font-size="14" fill="white" font-family="monospace" dominant-baseline="ideographic">61</text><rect x="1710" y="98.0" width="64" height="1" fill="white" fill-opacity="0.2" /><rect x="1710" y="196.0" width="64" height="1" fill="white" fill-opacity="0.2" /><rect x="1710" y="293.5" width="64" height="1" fill="white" fill-opacity="0.2" /><rect x="1710" y="391.5" width="64" height="1" fill="white" fill-opacity="0.5" /><text x="1784" y="405.5" font-size="14" fill="white" font-family="monospace" dominant-baseline="ideographic">62</text></svg>