<?xml version="1.0" encoding="UTF-8"?><svg xmlns="http://www.w3.org/2000/svg" xmlns:xlink="http://www.w3.org/1999/xlink"     width="4998" height="1383.5" viewBox="0 0 4998 1383.5"><defs></defs><rect x="0" y="601.0" width="188" height="782.5" fill="black" /><rect x="0" y="1382.5" width="188" height="1" fill="white" fill-opacity="0.5" /><text x="198" y="1382.5" font-size="14" fill="white" font-family="monospace" dominant-baseline="initial">1</text><rect x="0" y="1333.5" width="188" height="1" fill="white" fill-opacity="0.2" /><rect x="0" y="1284.5" width="188" height="1" fill="white" fill-opacity="0.2" /><rect x="0" y="1236.0" width="188" height="1" fill="white" fill-opacity="0.2" /><rect x="0" y="1187.0" width="188" height="1" fill="white" fill-opacity="0.5" /><text x="198" y="1187.0" font-size="14" fill="white" font-family="monospace" dominant-baseline="initial">2</text><rect x="0" y="1138.0" width="188" height="1" fill="white" fill-opacity="0.2" /><rect x="0" y="1089.0" width="188" height="1" fill="white" fill-opacity="0.2" /><rect x="0" y="1040.0" width="188" height="1" fill="white" fill-opacity="0.2" /><rect x="0" y="991.0" width="188" height="1" fill="white" fill-opacity="0.5" /><text x="198" y="991.0" font-size="14" fill="white" font-family="monospace" dominant-baseline="initial">3</text><rect x="0" y="942.5" width="188" height="1" fill="white" fill-opacity="0.2" /><rect x="0" y="893.5" width="188" height="1" fill="white" fill-opacity="0.2" /><rect x="0" y="844.5" width="188" height="1" fill="white" fill-opacity="0.2" /><rect x="0" y="795.5" width="188" height="1" fill="white" fill-opacity="0.5" /><text x="198" y="795.5" font-size="14" fill="white" font-family="monospace" dominant-baseline="initial">4</text><rect x="0" y="746.5" width="188" height="1" fill="white" fill-opacity="0.2" /><rect x="0" y="697.5" width="188" height="1" fill="white" fill-opacity="0.2" /><rect x="0" y="649.0" width="188" height="1" fill="white" fill-opacity="0.2" /><rect x="0" y="600.0" width="188" height="1" fill="white" fill-opacity="0.5" /><text x="198" y="600.0" font-size="14" fill="white" font-family="monospace" dominant-baseline="initial">5</text><rect x="0" y="1382.5" width="188" height="1" fill="aqua" fill-opacity="0.75" /><text x="0" y="1378.5" font-size="14" fill="aqua" fill-opacity="0.75" font-family="monospace">Intro</text><rect x="0" y="1382.5" width="188" height="1" fill="lime" fill-opacity="0.75" /><text x="198" y="1369.5" font-size="14" fill="lime" font-family="monospace" dominant-baseline="initial">184</text><rect x="238" y="601.0" width="188" height="782.5" fill="black" /><rect x="238" y="1382.5" width="188" height="1" fill="white" fill-opacity="0.5" /><text x="436" y="1382.5" font-size="14" fill="white" font-family="monospace" dominant-baseline="initial">5</text><rect x="238" y="1333.5" width="188" height="1" fill="white" fill-opacity="0.2" /><rect x="238" y="1284.5" width="188" height="1" fill="white" fill-opacity="0.2" /><rect x="238" y="1235.5" width="188" height="1" fill="white" fill-opacity="0.2" /><rect x="238" y="1186.5" width="188" height="1" fill="white" fill-opacity="0.5" /><text x="436" y="1186.5" font-size="14" fill="white" font-family="monospace" dominant-baseline="initial">6</text><rect x="238" y="1138.0" width="188" height="1" fill="white" fill-opacity="0.2" /><rect x="238" y="1089.0" width="188" height="1" fill="white" fill-opacity="0.2" /><rect x="238" y="1040.0" width="188" height="1" fill="white" fill-opacity="0.2" /><rect x="238" y="991.0" width="188" height="1" fill="white" fill-opacity="0.5" /><text x="436" y="991.0" font-size="14" fill="white" font-family="monospace" dominant-baseline="initial">7</text><rect x="238" y="942.0" width="188" height="1" fill="white" fill-opacity="0.2" /><rect x="238" y="893.5" width="188" height="1" fill="white" fill-opacity="0.2" /><rect x="238" y="844.5" width="188" height="1" fill="white" fill-opacity="0.2" /><rect x="238" y="795.5" width="188" height="1" fill="white" fill-opacity="0.5" /><text x="436" y="795.5" font-size="14" fill="white" font-family="monospace" dominant-baseline="initial">8</text><rect x="238" y="746.5" width="188" height="1" fill="white" fill-opacity="0.2" /><rect x="238" y="697.5" width="188" height="1" fill="white" fill-opacity="0.2" /><rect x="238" y="648.5" width="188" height="1" fill="white" fill-opacity="0.2" /><rect x="238" y="600.0" width="188" height="1" fill="white" fill-opacity="0.5" /><text x="436" y="600.0" font-size="14" fill="white" font-family="monospace" dominant-baseline="initial">9</text><rect x="476" y="552.0" width="188" height="831.5" fill="black" /><rect x="476" y="1382.5" width="188" height="1" fill="white" fill-opacity="0.5" /><text x="674" y="1382.5" font-size="14" fill="white" font-family="monospace" dominant-baseline="initial">9</text><rect x="476" y="1333.5" width="188" height="1" fill="white" fill-opacity="0.2" /><rect x="476" y="1284.5" width="188" height="1" fill="white" fill-opacity="0.2" /><rect x="476" y="1235.5" width="188" height="1" fill="white" fill-opacity="0.2" /><rect x="476" y="1186.5" width="188" height="1" fill="white" fill-opacity="0.5" /><text x="674" y="1186.5" font-size="14" fill="white" font-family="monospace" dominant-baseline="initial">10</text><rect x="476" y="1137.5" width="188" height="1" fill="white" fill-opacity="0.2" /><rect x="476" y="1089.0" width="188" height="1" fill="white" fill-opacity="0.2" /><rect x="476" y="1040.0" width="188" height="1" fill="white" fill-opacity="0.2" /><rect x="476" y="991.0" width="188" height="1" fill="white" fill-opacity="0.2" /><rect x="476" y="942.0" width="188" height="1" fill="white" fill-opacity="0.5" /><text x="674" y="942.0" font-size="14" fill="white" font-family="monospace" dominant-baseline="initial">11</text><rect x="476" y="893.0" width="188" height="1" fill="white" fill-opacity="0.2" /><rect x="476" y="844.0" width="188" height="1" fill="white" fill-opacity="0.2" /><rect x="476" y="795.5" width="188" height="1" fill="white" fill-opacity="0.2" /><rect x="476" y="746.5" width="188" height="1" fill="white" fill-opacity="0.5" /><text x="674" y="746.5" font-size="14" fill="white" font-family="monospace" dominant-baseline="initial">12</text><rect x="476" y="697.5" width="188" height="1" fill="white" fill-opacity="0.2" /><rect x="476" y="648.5" width="188" height="1" fill="white" fill-opacity="0.2" /><rect x="476" y="599.5" width="188" height="1" fill="white" fill-opacity="0.2" /><rect x="476" y="551.0" width="188" height="1" fill="white" fill-opacity="0.5" /><text x="674" y="551.0" font-size="14" fill="white" font-family="monospace" dominant-baseline="initial">13</text><rect x="714" y="600.5" width="188" height="783.0" fill="black" /><rect x="714" y="1382.5" width="188" height="1" fill="white" fill-opacity="0.5" /><text x="912" y="1382.5" font-size="14" fill="white" font-family="monospace" dominant-baseline="initial">13</text><rect x="714" y="1333.5" width="188" height="1" fill="white" fill-opacity="0.2" /><rect x="714" y="1284.5" width="188" height="1" fill="white" fill-opacity="0.2" /><rect x="714" y="1235.5" width="188" height="1" fill="white" fill-opacity="0.2" /><rect x="714" y="1186.5" width="188" height="1" fill="white" fill-opacity="0.5" /><text x="912" y="1186.5" font-size="14" fill="white" font-family="monospace" dominant-baseline="initial">14</text><rect x="714" y="1137.5" width="188" height="1" fill="white" fill-opacity="0.2" /><rect x="714" y="1089.0" width="188" height="1" fill="white" fill-opacity="0.2" /><rect x="714" y="1040.0" width="188" height="1" fill="white" fill-opacity="0.2" /><rect x="714" y="991.0" width="188" height="1" fill="white" fill-opacity="0.5" /><text x="912" y="991.0" font-size="14" fill="white" font-family="monospace" dominant-baseline="initial">15</text><rect x="714" y="942.0" width="188" height="1" fill="white" fill-opacity="0.2" /><rect x="714" y="893.0" width="188" height="1" fill="white" fill-opacity="0.2" /><rect x="714" y="844.0" width="188" height="1" fill="white" fill-opacity="0.2" /><rect x="714" y="795.5" width="188" height="1" fill="white" fill-opacity="0.5" /><text x="912" y="795.5" font-size="14" fill="white" font-family="monospace" dominant-baseline="initial">16</text><rect x="714" y="746.5" width="188" height="1" fill="white" fill-opacity="0.2" /><rect x="714" y="697.5" width="188" height="1" fill="white" fill-opacity="0.2" /><rect x="714" y="648.5" width="188" height="1" fill="white" fill-opacity="0.2" /><rect x="714" y="599.5" width="188" height="1" fill="white" fill-opacity="0.5" /><text x="912" y="599.5" font-size="14" fill="white" font-family="monospace" dominant-baseline="initial">17</text><rect x="714" y="1382.3000000000002" width="188" height="1" fill="aqua" fill-opacity="0.75" /><text x="714" y="1378.3000000000002" font-size="14" fill="aqua" fill-opacity="0.75" font-family="monospace">Phrase A</text><rect x="952" y="601.0" width="188" height="782.5" fill="black" /><rect x="952" y="1382.5" width="188" height="1" fill="white" fill-opacity="0.5" /><text x="1150" y="1382.5" font-size="14" fill="white" font-family="monospace" dominant-baseline="initial">17</text><rect x="952" y="1333.5" width="188" height="1" fill="white" fill-opacity="0.2" /><rect x="952" y="1285.0" width="188" height="1" fill="white" fill-opacity="0.2" /><rect x="952" y="1236.0" width="188" height="1" fill="white" fill-opacity="0.2" /><rect x="952" y="1187.0" width="188" height="1" fill="white" fill-opacity="0.5" /><text x="1150" y="1187.0" font-size="14" fill="white" font-family="monospace" dominant-baseline="initial">18</text><rect x="952" y="1138.0" width="188" height="1" fill="white" fill-opacity="0.2" /><rect x="952" y="1089.0" width="188" height="1" fill="white" fill-opacity="0.2" /><rect x="952" y="1040.5" width="188" height="1" fill="white" fill-opacity="0.2" /><rect x="952" y="991.5" width="188" height="1" fill="white" fill-opacity="0.5" /><text x="1150" y="991.5" font-size="14" fill="white" font-family="monospace" dominant-baseline="initial">19</text><rect x="952" y="942.5" width="188" height="1" fill="white" fill-opacity="0.2" /><rect x="952" y="893.5" width="188" height="1" fill="white" fill-opacity="0.2" /><rect x="952" y="844.5" width="188" height="1" fill="white" fill-opacity="0.2" /><rect x="952" y="795.5" width="188" height="1" fill="white" fill-opacity="0.5" /><text x="1150" y="795.5" font-size="14" fill="white" font-family="monospace" dominant-baseline="initial">20</text><rect x="952" y="747.0" width="188" height="1" fill="white" fill-opacity="0.2" /><rect x="952" y="698.0" width="188" height="1" fill="white" fill-opacity="0.2" /><rect x="952" y="649.0" width="188" height="1" fill="white" fill-opacity="0.2" /><rect x="952" y="600.0" width="188" height="1" fill="white" fill-opacity="0.5" /><text x="1150" y="600.0" font-size="14" fill="white" font-family="monospace" dominant-baseline="initial">21</text><rect x="1190" y="601.0" width="188" height="782.5" fill="black" /><rect x="1190" y="1382.5" width="188" height="1" fill="white" fill-opacity="0.5" /><text x="1388" y="1382.5" font-size="14" fill="white" font-family="monospace" dominant-baseline="initial">21</text><rect x="1190" y="1333.5" width="188" height="1" fill="white" fill-opacity="0.2" /><rect x="1190" y="1284.5" width="188" height="1" fill="white" fill-opacity="0.2" /><rect x="1190" y="1236.0" width="188" height="1" fill="white" fill-opacity="0.2" /><rect x="1190" y="1187.0" width="188" height="1" fill="white" fill-opacity="0.5" /><text x="1388" y="1187.0" font-size="14" fill="white" font-family="monospace" dominant-baseline="initial">22</text><rect x="1190" y="1138.0" width="188" height="1" fill="white" fill-opacity="0.2" /><rect x="1190" y="1089.0" width="188" height="1" fill="white" fill-opacity="0.2" /><rect x="1190" y="1040.0" width="188" height="1" fill="white" fill-opacity="0.2" /><rect x="1190" y="991.5" width="188" height="1" fill="white" fill-opacity="0.5" /><text x="1388" y="991.5" font-size="14" fill="white" font-family="monospace" dominant-baseline="initial">23</text><rect x="1190" y="942.5" width="188" height="1" fill="white" fill-opacity="0.2" /><rect x="1190" y="893.5" width="188" height="1" fill="white" fill-opacity="0.2" /><rect x="1190" y="844.5" width="188" height="1" fill="white" fill-opacity="0.2" /><rect x="1190" y="795.5" width="188" height="1" fill="white" fill-opacity="0.5" /><text x="1388" y="795.5" font-size="14" fill="white" font-family="monospace" dominant-baseline="initial">24</text><rect x="1190" y="746.5" width="188" height="1" fill="white" fill-opacity="0.2" /><rect x="1190" y="698.0" width="188" height="1" fill="white" fill-opacity="0.2" /><rect x="1190" y="649.0" width="188" height="1" fill="white" fill-opacity="0.2" /><rect x="1190" y="600.0" width="188" height="1" fill="white" fill-opacity="0.5" /><text x="1388" y="600.0" font-size="14" fill="white" font-family="monospace" dominant-baseline="initial">25</text><rect x="1190" y="1382.5500000000002" width="188" height="1" fill="aqua" fill-opacity="0.75" /><text x="1190" y="1378.5500000000002" font-size="14" fill="aqua" fill-opacity="0.75" font-family="monospace">Solo</text><rect x="1428" y="601.0" width="188" height="782.5" fill="black" /><rect x="1428" y="1382.5" width="188" height="1" fill="white" fill-opacity="0.5" /><text x="1626" y="1382.5" font-size="14" fill="white" font-family="monospace" dominant-baseline="initial">25</text><rect x="1428" y="1333.5" width="188" height="1" fill="white" fill-opacity="0.2" /><rect x="1428" y="1284.5" width="188" height="1" fill="white" fill-opacity="0.2" /><rect x="1428" y="1235.5" width="188" height="1" fill="white" fill-opacity="0.2" /><rect x="1428" y="1187.0" width="188" height="1" fill="white" fill-opacity="0.5" /><text x="1626" y="1187.0" font-size="14" fill="white" font-family="monospace" dominant-baseline="initial">26</text><rect x="1428" y="1138.0" width="188" height="1" fill="white" fill-opacity="0.2" /><rect x="1428" y="1089.0" width="188" height="1" fill="white" fill-opacity="0.2" /><rect x="1428" y="1040.0" width="188" height="1" fill="white" fill-opacity="0.2" /><rect x="1428" y="991.0" width="188" height="1" fill="white" fill-opacity="0.5" /><text x="1626" y="991.0" font-size="14" fill="white" font-family="monospace" dominant-baseline="initial">27</text><rect x="1428" y="942.0" width="188" height="1" fill="white" fill-opacity="0.2" /><rect x="1428" y="893.5" width="188" height="1" fill="white" fill-opacity="0.2" /><rect x="1428" y="844.5" width="188" height="1" fill="white" fill-opacity="0.2" /><rect x="1428" y="795.5" width="188" height="1" fill="white" fill-opacity="0.5" /><text x="1626" y="795.5" font-size="14" fill="white" font-family="monospace" dominant-baseline="initial">28</text><rect x="1428" y="746.5" width="188" height="1" fill="white" fill-opacity="0.2" /><rect x="1428" y="697.5" width="188" height="1" fill="white" fill-opacity="0.2" /><rect x="1428" y="649.0" width="188" height="1" fill="white" fill-opacity="0.2" /><rect x="1428" y="600.0" width="188" height="1" fill="white" fill-opacity="0.5" /><text x="1626" y="600.0" font-size="14" fill="white" font-family="monospace" dominant-baseline="initial">29</text><rect x="1428" y="1382.5" width="188" height="1" fill="aqua" fill-opacity="0.75" /><text x="1428" y="1378.5" font-size="14" fill="aqua" fill-opacity="0.75" font-family="monospace">Phrase A</text><rect x="1666" y="600.5" width="188" height="783.0" fill="black" /><rect x="1666" y="1382.5" width="188" height="1" fill="white" fill-opacity="0.5" /><text x="1864" y="1382.5" font-size="14" fill="white" font-family="monospace" dominant-baseline="initial">29</text><rect x="1666" y="1333.5" width="188" height="1" fill="white" fill-opacity="0.2" /><rect x="1666" y="1284.5" width="188" height="1" fill="white" fill-opacity="0.2" /><rect x="1666" y="1235.5" width="188" height="1" fill="white" fill-opacity="0.2" /><rect x="1666" y="1186.5" width="188" height="1" fill="white" fill-opacity="0.5" /><text x="1864" y="1186.5" font-size="14" fill="white" font-family="monospace" dominant-baseline="initial">30</text><rect x="1666" y="1138.0" width="188" height="1" fill="white" fill-opacity="0.2" /><rect x="1666" y="1089.0" width="188" height="1" fill="white" fill-opacity="0.2" /><rect x="1666" y="1040.0" width="188" height="1" fill="white" fill-opacity="0.2" /><rect x="1666" y="991.0" width="188" height="1" fill="white" fill-opacity="0.5" /><text x="1864" y="991.0" font-size="14" fill="white" font-family="monospace" dominant-baseline="initial">31</text><rect x="1666" y="942.0" width="188" height="1" fill="white" fill-opacity="0.2" /><rect x="1666" y="893.0" width="188" height="1" fill="white" fill-opacity="0.2" /><rect x="1666" y="844.5" width="188" height="1" fill="white" fill-opacity="0.2" /><rect x="1666" y="795.5" width="188" height="1" fill="white" fill-opacity="0.5" /><text x="1864" y="795.5" font-size="14" fill="white" font-family="monospace" dominant-baseline="initial">32</text><rect x="1666" y="746.5" width="188" height="1" fill="white" fill-opacity="0.2" /><rect x="1666" y="697.5" width="188" height="1" fill="white" fill-opacity="0.2" /><rect x="1666" y="648.5" width="188" height="1" fill="white" fill-opacity="0.2" /><rect x="1666" y="599.5" width="188" height="1" fill="white" fill-opacity="0.5" /><text x="1864" y="599.5" font-size="14" fill="white" font-family="monospace" dominant-baseline="initial">33</text><rect x="1904" y="14.0" width="188" height="1369.5" fill="black" /><rect x="1904" y="1382.5" width="188" height="1" fill="white" fill-opacity="0.5" /><text x="2102" y="1382.5" font-size="14" fill="white" font-family="monospace" dominant-baseline="initial">33</text><rect x="1904" y="1334.0" width="188" height="1" fill="white" fill-opacity="0.2" /><rect x="1904" y="1285.0" width="188" height="1" fill="white" fill-opacity="0.2" /><rect x="1904" y="1236.0" width="188" height="1" fill="white" fill-opacity="0.2" /><rect x="1904" y="1187.0" width="188" height="1" fill="white" fill-opacity="0.2" /><rect x="1904" y="1138.0" width="188" height="1" fill="white" fill-opacity="0.2" /><rect x="1904" y="1089.5" width="188" height="1" fill="white" fill-opacity="0.2" /><rect x="1904" y="1040.5" width="188" height="1" fill="white" fill-opacity="0.5" /><text x="2102" y="1040.5" font-size="14" fill="white" font-family="monospace" dominant-baseline="initial">34</text><rect x="1904" y="991.5" width="188" height="1" fill="white" fill-opacity="0.2" /><rect x="1904" y="942.5" width="188" height="1" fill="white" fill-opacity="0.2" /><rect x="1904" y="893.5" width="188" height="1" fill="white" fill-opacity="0.2" /><rect x="1904" y="844.5" width="188" height="1" fill="white" fill-opacity="0.2" /><rect x="1904" y="796.0" width="188" height="1" fill="white" fill-opacity="0.2" /><rect x="1904" y="747.0" width="188" height="1" fill="white" fill-opacity="0.2" /><rect x="1904" y="698.0" width="188" height="1" fill="white" fill-opacity="0.5" /><text x="2102" y="698.0" font-size="14" fill="white" font-family="monospace" dominant-baseline="initial">35</text><rect x="1904" y="649.0" width="188" height="1" fill="white" fill-opacity="0.2" /><rect x="1904" y="600.0" width="188" height="1" fill="white" fill-opacity="0.2" /><rect x="1904" y="551.0" width="188" height="1" fill="white" fill-opacity="0.2" /><rect x="1904" y="502.5" width="188" height="1" fill="white" fill-opacity="0.2" /><rect x="1904" y="453.5" width="188" height="1" fill="white" fill-opacity="0.2" /><rect x="1904" y="404.5" width="188" height="1" fill="white" fill-opacity="0.2" /><rect x="1904" y="355.5" width="188" height="1" fill="white" fill-opacity="0.5" /><text x="2102" y="355.5" font-size="14" fill="white" font-family="monospace" dominant-baseline="initial">36</text><rect x="1904" y="306.5" width="188" height="1" fill="white" fill-opacity="0.2" /><rect x="1904" y="257.5" width="188" height="1" fill="white" fill-opacity="0.2" /><rect x="1904" y="209.0" width="188" height="1" fill="white" fill-opacity="0.2" /><rect x="1904" y="160.0" width="188" height="1" fill="white" fill-opacity="0.2" /><rect x="1904" y="111.0" width="188" height="1" fill="white" fill-opacity="0.2" /><rect x="1904" y="62.0" width="188" height="1" fill="white" fill-opacity="0.2" /><rect x="1904" y="13.0" width="188" height="1" fill="white" fill-opacity="0.5" /><text x="2102" y="13.0" font-size="14" fill="white" font-family="monospace" dominant-baseline="initial">37</text><rect x="1904" y="1382.75" width="188" height="1" fill="aqua" fill-opacity="0.75" /><text x="1904" y="1378.75" font-size="14" fill="aqua" fill-opacity="0.75" font-family="monospace">Solo</text><rect x="2142" y="14.0" width="188" height="1369.5" fill="black" /><rect x="2142" y="1382.5" width="188" height="1" fill="white" fill-opacity="0.5" /><text x="2340" y="1382.5" font-size="14" fill="white" font-family="monospace" dominant-baseline="initial">37</text><rect x="2142" y="1334.0" width="188" height="1" fill="white" fill-opacity="0.2" /><rect x="2142" y="1285.0" width="188" height="1" fill="white" fill-opacity="0.2" /><rect x="2142" y="1236.0" width="188" height="1" fill="white" fill-opacity="0.2" /><rect x="2142" y="1187.0" width="188" height="1" fill="white" fill-opacity="0.2" /><rect x="2142" y="1138.0" width="188" height="1" fill="white" fill-opacity="0.2" /><rect x="2142" y="1089.0" width="188" height="1" fill="white" fill-opacity="0.2" /><rect x="2142" y="1040.5" width="188" height="1" fill="white" fill-opacity="0.5" /><text x="2340" y="1040.5" font-size="14" fill="white" font-family="monospace" dominant-baseline="initial">38</text><rect x="2142" y="991.5" width="188" height="1" fill="white" fill-opacity="0.2" /><rect x="2142" y="942.5" width="188" height="1" fill="white" fill-opacity="0.2" /><rect x="2142" y="893.5" width="188" height="1" fill="white" fill-opacity="0.2" /><rect x="2142" y="844.5" width="188" height="1" fill="white" fill-opacity="0.2" /><rect x="2142" y="795.5" width="188" height="1" fill="white" fill-opacity="0.2" /><rect x="2142" y="747.0" width="188" height="1" fill="white" fill-opacity="0.2" /><rect x="2142" y="698.0" width="188" height="1" fill="white" fill-opacity="0.5" /><text x="2340" y="698.0" font-size="14" fill="white" font-family="monospace" dominant-baseline="initial">39</text><rect x="2142" y="649.0" width="188" height="1" fill="white" fill-opacity="0.2" /><rect x="2142" y="600.0" width="188" height="1" fill="white" fill-opacity="0.2" /><rect x="2142" y="551.0" width="188" height="1" fill="white" fill-opacity="0.2" /><rect x="2142" y="502.0" width="188" height="1" fill="white" fill-opacity="0.2" /><rect x="2142" y="453.5" width="188" height="1" fill="white" fill-opacity="0.2" /><rect x="2142" y="404.5" width="188" height="1" fill="white" fill-opacity="0.2" /><rect x="2142" y="355.5" width="188" height="1" fill="white" fill-opacity="0.5" /><text x="2340" y="355.5" font-size="14" fill="white" font-family="monospace" dominant-baseline="initial">40</text><rect x="2142" y="306.5" width="188" height="1" fill="white" fill-opacity="0.2" /><rect x="2142" y="257.5" width="188" height="1" fill="white" fill-opacity="0.2" /><rect x="2142" y="209.0" width="188" height="1" fill="white" fill-opacity="0.2" /><rect x="2142" y="160.0" width="188" height="1" fill="white" fill-opacity="0.2" /><rect x="2142" y="111.0" width="188" height="1" fill="white" fill-opacity="0.2" /><rect x="2142" y="62.0" width="188" height="1" fill="white" fill-opacity="0.2" /><rect x="2142" y="13.0" width="188" height="1" fill="white" fill-opacity="0.5" /><text x="2340" y="13.0" font-size="14" fill="white" font-family="monospace" dominant-baseline="initial">41</text><rect x="2142" y="1382.6000000000004" width="188" height="1" fill="aqua" fill-opacity="0.75" /><text x="2142" y="1378.6000000000004" font-size="14" fill="aqua" fill-opacity="0.75" font-family="monospace">Phrase B</text><rect x="2380" y="14.0" width="188" height="1369.5" fill="black" /><rect x="2380" y="1382.5" width="188" height="1" fill="white" fill-opacity="0.5" /><text x="2578" y="1382.5" font-size="14" fill="white" font-family="monospace" dominant-baseline="initial">41</text><rect x="2380" y="1333.5" width="188" height="1" fill="white" fill-opacity="0.2" /><rect x="2380" y="1285.0" width="188" height="1" fill="white" fill-opacity="0.2" /><rect x="2380" y="1236.0" width="188" height="1" fill="white" fill-opacity="0.2" /><rect x="2380" y="1187.0" width="188" height="1" fill="white" fill-opacity="0.2" /><rect x="2380" y="1138.0" width="188" height="1" fill="white" fill-opacity="0.2" /><rect x="2380" y="1089.0" width="188" height="1" fill="white" fill-opacity="0.2" /><rect x="2380" y="1040.0" width="188" height="1" fill="white" fill-opacity="0.5" /><text x="2578" y="1040.0" font-size="14" fill="white" font-family="monospace" dominant-baseline="initial">42</text><rect x="2380" y="991.5" width="188" height="1" fill="white" fill-opacity="0.2" /><rect x="2380" y="942.5" width="188" height="1" fill="white" fill-opacity="0.2" /><rect x="2380" y="893.5" width="188" height="1" fill="white" fill-opacity="0.2" /><rect x="2380" y="844.5" width="188" height="1" fill="white" fill-opacity="0.2" /><rect x="2380" y="795.5" width="188" height="1" fill="white" fill-opacity="0.2" /><rect x="2380" y="746.5" width="188" height="1" fill="white" fill-opacity="0.2" /><rect x="2380" y="698.0" width="188" height="1" fill="white" fill-opacity="0.5" /><text x="2578" y="698.0" font-size="14" fill="white" font-family="monospace" dominant-baseline="initial">43</text><rect x="2380" y="649.0" width="188" height="1" fill="white" fill-opacity="0.2" /><rect x="2380" y="600.0" width="188" height="1" fill="white" fill-opacity="0.2" /><rect x="2380" y="551.0" width="188" height="1" fill="white" fill-opacity="0.2" /><rect x="2380" y="502.0" width="188" height="1" fill="white" fill-opacity="0.2" /><rect x="2380" y="453.5" width="188" height="1" fill="white" fill-opacity="0.2" /><rect x="2380" y="404.5" width="188" height="1" fill="white" fill-opacity="0.2" /><rect x="2380" y="355.5" width="188" height="1" fill="white" fill-opacity="0.5" /><text x="2578" y="355.5" font-size="14" fill="white" font-family="monospace" dominant-baseline="initial">44</text><rect x="2380" y="306.5" width="188" height="1" fill="white" fill-opacity="0.2" /><rect x="2380" y="257.5" width="188" height="1" fill="white" fill-opacity="0.2" /><rect x="2380" y="208.5" width="188" height="1" fill="white" fill-opacity="0.2" /><rect x="2380" y="160.0" width="188" height="1" fill="white" fill-opacity="0.2" /><rect x="2380" y="111.0" width="188" height="1" fill="white" fill-opacity="0.2" /><rect x="2380" y="62.0" width="188" height="1" fill="white" fill-opacity="0.2" /><rect x="2380" y="13.0" width="188" height="1" fill="white" fill-opacity="0.5" /><text x="2578" y="13.0" font-size="14" fill="white" font-family="monospace" dominant-baseline="initial">45</text><rect x="2618" y="601.0" width="188" height="782.5" fill="black" /><rect x="2618" y="1382.5" width="188" height="1" fill="white" fill-opacity="0.5" /><text x="2816" y="1382.5" font-size="14" fill="white" font-family="monospace" dominant-baseline="initial">45</text><rect x="2618" y="1333.5" width="188" height="1" fill="white" fill-opacity="0.2" /><rect x="2618" y="1284.5" width="188" height="1" fill="white" fill-opacity="0.2" /><rect x="2618" y="1236.0" width="188" height="1" fill="white" fill-opacity="0.2" /><rect x="2618" y="1187.0" width="188" height="1" fill="white" fill-opacity="0.5" /><text x="2816" y="1187.0" font-size="14" fill="white" font-family="monospace" dominant-baseline="initial">46</text><rect x="2618" y="1138.0" width="188" height="1" fill="white" fill-opacity="0.2" /><rect x="2618" y="1089.0" width="188" height="1" fill="white" fill-opacity="0.2" /><rect x="2618" y="1040.0" width="188" height="1" fill="white" fill-opacity="0.2" /><rect x="2618" y="991.0" width="188" height="1" fill="white" fill-opacity="0.5" /><text x="2816" y="991.0" font-size="14" fill="white" font-family="monospace" dominant-baseline="initial">47</text><rect x="2618" y="942.5" width="188" height="1" fill="white" fill-opacity="0.2" /><rect x="2618" y="893.5" width="188" height="1" fill="white" fill-opacity="0.2" /><rect x="2618" y="844.5" width="188" height="1" fill="white" fill-opacity="0.2" /><rect x="2618" y="795.5" width="188" height="1" fill="white" fill-opacity="0.5" /><text x="2816" y="795.5" font-size="14" fill="white" font-family="monospace" dominant-baseline="initial">48</text><rect x="2618" y="746.5" width="188" height="1" fill="white" fill-opacity="0.2" /><rect x="2618" y="698.0" width="188" height="1" fill="white" fill-opacity="0.2" /><rect x="2618" y="649.0" width="188" height="1" fill="white" fill-opacity="0.2" /><rect x="2618" y="600.0" width="188" height="1" fill="white" fill-opacity="0.5" /><text x="2816" y="600.0" font-size="14" fill="white" font-family="monospace" dominant-baseline="initial">49</text><rect x="2618" y="1382.6000000000004" width="188" height="1" fill="aqua" fill-opacity="0.75" /><text x="2618" y="1378.6000000000004" font-size="14" fill="aqua" fill-opacity="0.75" font-family="monospace">Special</text><rect x="2856" y="601.0" width="188" height="782.5" fill="black" /><rect x="2856" y="1382.5" width="188" height="1" fill="white" fill-opacity="0.5" /><text x="3054" y="1382.5" font-size="14" fill="white" font-family="monospace" dominant-baseline="initial">49</text><rect x="2856" y="1333.5" width="188" height="1" fill="white" fill-opacity="0.2" /><rect x="2856" y="1284.5" width="188" height="1" fill="white" fill-opacity="0.2" /><rect x="2856" y="1235.5" width="188" height="1" fill="white" fill-opacity="0.2" /><rect x="2856" y="1187.0" width="188" height="1" fill="white" fill-opacity="0.5" /><text x="3054" y="1187.0" font-size="14" fill="white" font-family="monospace" dominant-baseline="initial">50</text><rect x="2856" y="1138.0" width="188" height="1" fill="white" fill-opacity="0.2" /><rect x="2856" y="1089.0" width="188" height="1" fill="white" fill-opacity="0.2" /><rect x="2856" y="1040.0" width="188" height="1" fill="white" fill-opacity="0.2" /><rect x="2856" y="991.0" width="188" height="1" fill="white" fill-opacity="0.5" /><text x="3054" y="991.0" font-size="14" fill="white" font-family="monospace" dominant-baseline="initial">51</text><rect x="2856" y="942.0" width="188" height="1" fill="white" fill-opacity="0.2" /><rect x="2856" y="893.5" width="188" height="1" fill="white" fill-opacity="0.2" /><rect x="2856" y="844.5" width="188" height="1" fill="white" fill-opacity="0.2" /><rect x="2856" y="795.5" width="188" height="1" fill="white" fill-opacity="0.5" /><text x="3054" y="795.5" font-size="14" fill="white" font-family="monospace" dominant-baseline="initial">52</text><rect x="2856" y="746.5" width="188" height="1" fill="white" fill-opacity="0.2" /><rect x="2856" y="697.5" width="188" height="1" fill="white" fill-opacity="0.2" /><rect x="2856" y="649.0" width="188" height="1" fill="white" fill-opacity="0.2" /><rect x="2856" y="600.0" width="188" height="1" fill="white" fill-opacity="0.5" /><text x="3054" y="600.0" font-size="14" fill="white" font-family="monospace" dominant-baseline="initial">53</text><rect x="3094" y="600.5" width="188" height="783.0" fill="black" /><rect x="3094" y="1382.5" width="188" height="1" fill="white" fill-opacity="0.5" /><text x="3292" y="1382.5" font-size="14" fill="white" font-family="monospace" dominant-baseline="initial">53</text><rect x="3094" y="1333.5" width="188" height="1" fill="white" fill-opacity="0.2" /><rect x="3094" y="1284.5" width="188" height="1" fill="white" fill-opacity="0.2" /><rect x="3094" y="1235.5" width="188" height="1" fill="white" fill-opacity="0.2" /><rect x="3094" y="1186.5" width="188" height="1" fill="white" fill-opacity="0.5" /><text x="3292" y="1186.5" font-size="14" fill="white" font-family="monospace" dominant-baseline="initial">54</text><rect x="3094" y="1138.0" width="188" height="1" fill="white" fill-opacity="0.2" /><rect x="3094" y="1089.0" width="188" height="1" fill="white" fill-opacity="0.2" /><rect x="3094" y="1040.0" width="188" height="1" fill="white" fill-opacity="0.2" /><rect x="3094" y="991.0" width="188" height="1" fill="white" fill-opacity="0.5" /><text x="3292" y="991.0" font-size="14" fill="white" font-family="monospace" dominant-baseline="initial">55</text><rect x="3094" y="942.0" width="188" height="1" fill="white" fill-opacity="0.2" /><rect x="3094" y="893.0" width="188" height="1" fill="white" fill-opacity="0.2" /><rect x="3094" y="844.5" width="188" height="1" fill="white" fill-opacity="0.2" /><rect x="3094" y="795.5" width="188" height="1" fill="white" fill-opacity="0.5" /><text x="3292" y="795.5" font-size="14" fill="white" font-family="monospace" dominant-baseline="initial">56</text><rect x="3094" y="746.5" width="188" height="1" fill="white" fill-opacity="0.2" /><rect x="3094" y="697.5" width="188" height="1" fill="white" fill-opacity="0.2" /><rect x="3094" y="648.5" width="188" height="1" fill="white" fill-opacity="0.2" /><rect x="3094" y="599.5" width="188" height="1" fill="white" fill-opacity="0.5" /><text x="3292" y="599.5" font-size="14" fill="white" font-family="monospace" dominant-baseline="initial">57</text><rect x="3332" y="601.0" width="188" height="782.5" fill="black" /><rect x="3332" y="1382.5" width="188" height="1" fill="white" fill-opacity="0.5" /><text x="3530" y="1382.5" font-size="14" fill="white" font-family="monospace" dominant-baseline="initial">57</text><rect x="3332" y="1334.0" width="188" height="1" fill="white" fill-opacity="0.2" /><rect x="3332" y="1285.0" width="188" height="1" fill="white" fill-opacity="0.2" /><rect x="3332" y="1236.0" width="188" height="1" fill="white" fill-opacity="0.2" /><rect x="3332" y="1187.0" width="188" height="1" fill="white" fill-opacity="0.5" /><text x="3530" y="1187.0" font-size="14" fill="white" font-family="monospace" dominant-baseline="initial">58</text><rect x="3332" y="1138.0" width="188" height="1" fill="white" fill-opacity="0.2" /><rect x="3332" y="1089.5" width="188" height="1" fill="white" fill-opacity="0.2" /><rect x="3332" y="1040.5" width="188" height="1" fill="white" fill-opacity="0.2" /><rect x="3332" y="991.5" width="188" height="1" fill="white" fill-opacity="0.5" /><text x="3530" y="991.5" font-size="14" fill="white" font-family="monospace" dominant-baseline="initial">59</text><rect x="3332" y="942.5" width="188" height="1" fill="white" fill-opacity="0.2" /><rect x="3332" y="893.5" width="188" height="1" fill="white" fill-opacity="0.2" /><rect x="3332" y="844.5" width="188" height="1" fill="white" fill-opacity="0.2" /><rect x="3332" y="796.0" width="188" height="1" fill="white" fill-opacity="0.5" /><text x="3530" y="796.0" font-size="14" fill="white" font-family="monospace" dominant-baseline="initial">60</text><rect x="3332" y="747.0" width="188" height="1" fill="white" fill-opacity="0.2" /><rect x="3332" y="698.0" width="188" height="1" fill="white" fill-opacity="0.2" /><rect x="3332" y="649.0" width="188" height="1" fill="white" fill-opacity="0.2" /><rect x="3332" y="600.0" width="188" height="1" fill="white" fill-opacity="0.5" /><text x="3530" y="600.0" font-size="14" fill="white" font-family="monospace" dominant-baseline="initial">61</text><rect x="3570" y="601.0" width="188" height="782.5" fill="black" /><rect x="3570" y="1382.5" width="188" height="1" fill="white" fill-opacity="0.5" /><text x="3768" y="1382.5" font-size="14" fill="white" font-family="monospace" dominant-baseline="initial">61</text><rect x="3570" y="1333.5" width="188" height="1" fill="white" fill-opacity="0.2" /><rect x="3570" y="1285.0" width="188" height="1" fill="white" fill-opacity="0.2" /><rect x="3570" y="1236.0" width="188" height="1" fill="white" fill-opacity="0.2" /><rect x="3570" y="1187.0" width="188" height="1" fill="white" fill-opacity="0.5" /><text x="3768" y="1187.0" font-size="14" fill="white" font-family="monospace" dominant-baseline="initial">62</text><rect x="3570" y="1138.0" width="188" height="1" fill="white" fill-opacity="0.2" /><rect x="3570" y="1089.0" width="188" height="1" fill="white" fill-opacity="0.2" /><rect x="3570" y="1040.0" width="188" height="1" fill="white" fill-opacity="0.2" /><rect x="3570" y="991.5" width="188" height="1" fill="white" fill-opacity="0.5" /><text x="3768" y="991.5" font-size="14" fill="white" font-family="monospace" dominant-baseline="initial">63</text><rect x="3570" y="942.5" width="188" height="1" fill="white" fill-opacity="0.2" /><rect x="3570" y="893.5" width="188" height="1" fill="white" fill-opacity="0.2" /><rect x="3570" y="844.5" width="188" height="1" fill="white" fill-opacity="0.2" /><rect x="3570" y="795.5" width="188" height="1" fill="white" fill-opacity="0.5" /><text x="3768" y="795.5" font-size="14" fill="white" font-family="monospace" dominant-baseline="initial">64</text><rect x="3570" y="747.0" width="188" height="1" fill="white" fill-opacity="0.2" /><rect x="3570" y="698.0" width="188" height="1" fill="white" fill-opacity="0.2" /><rect x="3570" y="649.0" width="188" height="1" fill="white" fill-opacity="0.2" /><rect x="3570" y="600.0" width="188" height="1" fill="white" fill-opacity="0.5" /><text x="3768" y="600.0" font-size="14" fill="white" font-family="monospace" dominant-baseline="initial">65</text><rect x="3570" y="1187.0" width="188" height="1" fill="aqua" fill-opacity="0.75" /><text x="3570" y="1183.0" font-size="14" fill="aqua" fill-opacity="0.75" font-family="monospace">Solo</text><rect x="3808" y="601.0" width="188" height="782.5" fill="black" /><rect x="3808" y="1382.5" width="188" height="1" fill="white" fill-opacity="0.5" /><text x="4006" y="1382.5" font-size="14" fill="white" font-family="monospace" dominant-baseline="initial">65</text><rect x="3808" y="1333.5" width="188" height="1" fill="white" fill-opacity="0.2" /><rect x="3808" y="1284.5" width="188" height="1" fill="white" fill-opacity="0.2" /><rect x="3808" y="1236.0" width="188" height="1" fill="white" fill-opacity="0.2" /><rect x="3808" y="1187.0" width="188" height="1" fill="white" fill-opacity="0.5" /><text x="4006" y="1187.0" font-size="14" fill="white" font-family="monospace" dominant-baseline="initial">66</text><rect x="3808" y="1138.0" width="188" height="1" fill="white" fill-opacity="0.2" /><rect x="3808" y="1089.0" width="188" height="1" fill="white" fill-opacity="0.2" /><rect x="3808" y="1040.0" width="188" height="1" fill="white" fill-opacity="0.2" /><rect x="3808" y="991.0" width="188" height="1" fill="white" fill-opacity="0.5" /><text x="4006" y="991.0" font-size="14" fill="white" font-family="monospace" dominant-baseline="initial">67</text><rect x="3808" y="942.5" width="188" height="1" fill="white" fill-opacity="0.2" /><rect x="3808" y="893.5" width="188" height="1" fill="white" fill-opacity="0.2" /><rect x="3808" y="844.5" width="188" height="1" fill="white" fill-opacity="0.2" /><rect x="3808" y="795.5" width="188" height="1" fill="white" fill-opacity="0.5" /><text x="4006" y="795.5" font-size="14" fill="white" font-family="monospace" dominant-baseline="initial">68</text><rect x="3808" y="746.5" width="188" height="1" fill="white" fill-opacity="0.2" /><rect x="3808" y="697.5" width="188" height="1" fill="white" fill-opacity="0.2" /><rect x="3808" y="649.0" width="188" height="1" fill="white" fill-opacity="0.2" /><rect x="3808" y="600.0" width="188" height="1" fill="white" fill-opacity="0.5" /><text x="4006" y="600.0" font-size="14" fill="white" font-family="monospace" dominant-baseline="initial">69</text><rect x="4046" y="601.0" width="188" height="782.5" fill="black" /><rect x="4046" y="1382.5" width="188" height="1" fill="white" fill-opacity="0.5" /><text x="4244" y="1382.5" font-size="14" fill="white" font-family="monospace" dominant-baseline="initial">69</text><rect x="4046" y="1333.5" width="188" height="1" fill="white" fill-opacity="0.2" /><rect x="4046" y="1284.5" width="188" height="1" fill="white" fill-opacity="0.2" /><rect x="4046" y="1235.5" width="188" height="1" fill="white" fill-opacity="0.2" /><rect x="4046" y="1187.0" width="188" height="1" fill="white" fill-opacity="0.5" /><text x="4244" y="1187.0" font-size="14" fill="white" font-family="monospace" dominant-baseline="initial">70</text><rect x="4046" y="1138.0" width="188" height="1" fill="white" fill-opacity="0.2" /><rect x="4046" y="1089.0" width="188" height="1" fill="white" fill-opacity="0.2" /><rect x="4046" y="1040.0" width="188" height="1" fill="white" fill-opacity="0.2" /><rect x="4046" y="991.0" width="188" height="1" fill="white" fill-opacity="0.5" /><text x="4244" y="991.0" font-size="14" fill="white" font-family="monospace" dominant-baseline="initial">71</text><rect x="4046" y="942.0" width="188" height="1" fill="white" fill-opacity="0.2" /><rect x="4046" y="893.5" width="188" height="1" fill="white" fill-opacity="0.2" /><rect x="4046" y="844.5" width="188" height="1" fill="white" fill-opacity="0.2" /><rect x="4046" y="795.5" width="188" height="1" fill="white" fill-opacity="0.5" /><text x="4244" y="795.5" font-size="14" fill="white" font-family="monospace" dominant-baseline="initial">72</text><rect x="4046" y="746.5" width="188" height="1" fill="white" fill-opacity="0.2" /><rect x="4046" y="697.5" width="188" height="1" fill="white" fill-opacity="0.2" /><rect x="4046" y="648.5" width="188" height="1" fill="white" fill-opacity="0.2" /><rect x="4046" y="600.0" width="188" height="1" fill="white" fill-opacity="0.5" /><text x="4244" y="600.0" font-size="14" fill="white" font-family="monospace" dominant-baseline="initial">73</text><rect x="4284" y="600.5" width="188" height="783.0" fill="black" /><rect x="4284" y="1382.5" width="188" height="1" fill="white" fill-opacity="0.5" /><text x="4482" y="1382.5" font-size="14" fill="white" font-family="monospace" dominant-baseline="initial">73</text><rect x="4284" y="1333.5" width="188" height="1" fill="white" fill-opacity="0.2" /><rect x="4284" y="1284.5" width="188" height="1" fill="white" fill-opacity="0.2" /><rect x="4284" y="1235.5" width="188" height="1" fill="white" fill-opacity="0.2" /><rect x="4284" y="1186.5" width="188" height="1" fill="white" fill-opacity="0.5" /><text x="4482" y="1186.5" font-size="14" fill="white" font-family="monospace" dominant-baseline="initial">74</text><rect x="4284" y="1137.5" width="188" height="1" fill="white" fill-opacity="0.2" /><rect x="4284" y="1089.0" width="188" height="1" fill="white" fill-opacity="0.2" /><rect x="4284" y="1040.0" width="188" height="1" fill="white" fill-opacity="0.2" /><rect x="4284" y="991.0" width="188" height="1" fill="white" fill-opacity="0.5" /><text x="4482" y="991.0" font-size="14" fill="white" font-family="monospace" dominant-baseline="initial">75</text><rect x="4284" y="942.0" width="188" height="1" fill="white" fill-opacity="0.2" /><rect x="4284" y="893.0" width="188" height="1" fill="white" fill-opacity="0.2" /><rect x="4284" y="844.5" width="188" height="1" fill="white" fill-opacity="0.2" /><rect x="4284" y="795.5" width="188" height="1" fill="white" fill-opacity="0.5" /><text x="4482" y="795.5" font-size="14" fill="white" font-family="monospace" dominant-baseline="initial">76</text><rect x="4284" y="746.5" width="188" height="1" fill="white" fill-opacity="0.2" /><rect x="4284" y="697.5" width="188" height="1" fill="white" fill-opacity="0.2" /><rect x="4284" y="648.5" width="188" height="1" fill="white" fill-opacity="0.2" /><rect x="4284" y="599.5" width="188" height="1" fill="white" fill-opacity="0.5" /><text x="4482" y="599.5" font-size="14" fill="white" font-family="monospace" dominant-baseline="initial">77</text><rect x="4522" y="601.0" width="188" height="782.5" fill="black" /><rect x="4522" y="1382.5" width="188" height="1" fill="white" fill-opacity="0.5" /><text x="4720" y="1382.5" font-size="14" fill="white" font-family="monospace" dominant-baseline="initial">77</text><rect x="4522" y="1334.0" width="188" height="1" fill="white" fill-opacity="0.2" /><rect x="4522" y="1285.0" width="188" height="1" fill="white" fill-opacity="0.2" /><rect x="4522" y="1236.0" width="188" height="1" fill="white" fill-opacity="0.2" /><rect x="4522" y="1187.0" width="188" height="1" fill="white" fill-opacity="0.5" /><text x="4720" y="1187.0" font-size="14" fill="white" font-family="monospace" dominant-baseline="initial">78</text><rect x="4522" y="1138.0" width="188" height="1" fill="white" fill-opacity="0.2" /><rect x="4522" y="1089.0" width="188" height="1" fill="white" fill-opacity="0.2" /><rect x="4522" y="1040.5" width="188" height="1" fill="white" fill-opacity="0.2" /><rect x="4522" y="991.5" width="188" height="1" fill="white" fill-opacity="0.5" /><text x="4720" y="991.5" font-size="14" fill="white" font-family="monospace" dominant-baseline="initial">79</text><rect x="4522" y="942.5" width="188" height="1" fill="white" fill-opacity="0.2" /><rect x="4522" y="893.5" width="188" height="1" fill="white" fill-opacity="0.2" /><rect x="4522" y="844.5" width="188" height="1" fill="white" fill-opacity="0.2" /><rect x="4522" y="795.5" width="188" height="1" fill="white" fill-opacity="0.5" /><text x="4720" y="795.5" font-size="14" fill="white" font-family="monospace" dominant-baseline="initial">80</text><rect x="4522" y="747.0" width="188" height="1" fill="white" fill-opacity="0.2" /><rect x="4522" y="698.0" width="188" height="1" fill="white" fill-opacity="0.2" /><rect x="4522" y="649.0" width="188" height="1" fill="white" fill-opacity="0.2" /><rect x="4522" y="600.0" width="188" height="1" fill="white" fill-opacity="0.5" /><text x="4720" y="600.0" font-size="14" fill="white" font-family="monospace" dominant-baseline="initial">81</text><rect x="4760" y="1021.5" width="188" height="362.0" fill="black" /><rect x="4760" y="1382.5" width="188" height="1" fill="white" fill-opacity="0.5" /><text x="4958" y="1382.5" font-size="14" fill="white" font-family="monospace" dominant-baseline="initial">81</text></svg>