<?xml version="1.0" encoding="UTF-8"?><svg xmlns="http://www.w3.org/2000/svg" xmlns:xlink="http://www.w3.org/1999/xlink"     width="2394" height="1383.5" viewBox="0 0 2394 1383.5"><defs></defs><rect x="26.0" y="464.5" width="12.0" height="3" fill="#80c9ff" stroke="#0b6cba" /><rect x="39.0" y="464.5" width="12.0" height="3" fill="#fff874" stroke="#eb9c26" /><rect x="39.0" y="513.5" width="12.0" height="3" fill="#fff874" stroke="#eb9c26" /><rect x="39.0" y="562.5" width="12.0" height="220.0" fill="#fff874" stroke="#eb9c26" /><rect x="52.0" y="562.5" width="12.0" height="220.0" fill="#ff83f4" stroke="#d002bc" /><rect x="140.0" y="0.0" width="12.0" height="286.2" fill="#80c9ff" stroke="#0b6cba" /><rect x="153.0" y="0.0" width="12.0" height="286.2" fill="#fff874" stroke="#eb9c26" /><rect x="114.0" y="318.0" width="12.0" height="3" fill="#ff3c3c" stroke="#c71f1f" /><rect x="127.0" y="367.0" width="12.0" height="175.95000000000002" fill="#35df39" stroke="#03aa10" /><rect x="140.0" y="367.0" width="12.0" height="175.95000000000002" fill="#80c9ff" stroke="#0b6cba" /><rect x="127.0" y="562.5" width="12.0" height="110.25" fill="#35df39" stroke="#03aa10" /><rect x="140.0" y="562.5" width="12.0" height="110.25" fill="#80c9ff" stroke="#0b6cba" /><rect x="114.0" y="685.0" width="12.0" height="3" fill="#ff3c3c" stroke="#c71f1f" /><rect x="114.0" y="701.0" width="12.0" height="3" fill="#ff3c3c" stroke="#c71f1f" /><rect x="127.0" y="717.5" width="12.0" height="3" fill="#35df39" stroke="#03aa10" /><rect x="140.0" y="734.0" width="12.0" height="3" fill="#80c9ff" stroke="#0b6cba" /><rect x="140.0" y="750.0" width="12.0" height="3" fill="#80c9ff" stroke="#0b6cba" /><rect x="140.0" y="766.5" width="12.0" height="3" fill="#80c9ff" stroke="#0b6cba" /><rect x="241.0" y="0.0" width="12.0" height="3" fill="#35df39" stroke="#03aa10" /><rect x="241.0" y="16.5" width="12.0" height="3" fill="#35df39" stroke="#03aa10" /><rect x="241.0" y="33.0" width="12.0" height="3" fill="#35df39" stroke="#03aa10" /><rect x="267.0" y="49.0" width="12.0" height="3" fill="#fff874" stroke="#eb9c26" /><rect x="267.0" y="65.5" width="12.0" height="3" fill="#fff874" stroke="#eb9c26" /><rect x="267.0" y="81.5" width="12.0" height="3" fill="#fff874" stroke="#eb9c26" /><rect x="254.0" y="98.0" width="12.0" height="3" fill="#80c9ff" stroke="#0b6cba" /><rect x="254.0" y="114.5" width="12.0" height="3" fill="#80c9ff" stroke="#0b6cba" /><rect x="267.0" y="130.5" width="12.0" height="3" fill="#fff874" stroke="#eb9c26" /><rect x="267.0" y="179.5" width="12.0" height="3" fill="#fff874" stroke="#eb9c26" /><rect x="280.0" y="196.0" width="12.0" height="3" fill="#ff83f4" stroke="#d002bc" /><rect x="280.0" y="212.0" width="12.0" height="3" fill="#ff83f4" stroke="#d002bc" /><rect x="254.0" y="228.5" width="12.0" height="3" fill="#80c9ff" stroke="#0b6cba" /><rect x="254.0" y="245.0" width="12.0" height="3" fill="#80c9ff" stroke="#0b6cba" /><rect x="267.0" y="261.0" width="12.0" height="3" fill="#fff874" stroke="#eb9c26" /><rect x="267.0" y="277.5" width="12.0" height="3" fill="#fff874" stroke="#eb9c26" /><rect x="241.0" y="293.5" width="12.0" height="3" fill="#35df39" stroke="#03aa10" /><rect x="241.0" y="310.0" width="12.0" height="3" fill="#35df39" stroke="#03aa10" /><rect x="254.0" y="326.5" width="12.0" height="3" fill="#80c9ff" stroke="#0b6cba" /><rect x="254.0" y="342.5" width="12.0" height="3" fill="#80c9ff" stroke="#0b6cba" /><rect x="267.0" y="359.0" width="12.0" height="3" fill="#fff874" stroke="#eb9c26" /><rect x="267.0" y="375.0" width="12.0" height="3" fill="#fff874" stroke="#eb9c26" /><rect x="254.0" y="391.5" width="12.0" height="3" fill="#80c9ff" stroke="#0b6cba" /><rect x="254.0" y="408.0" width="12.0" height="3" fill="#80c9ff" stroke="#0b6cba" /><rect x="280.0" y="424.0" width="12.0" height="3" fill="#ff83f4" stroke="#d002bc" /><rect x="342.0" y="24.5" width="12.0" height="3" fill="#ff3c3c" stroke="#c71f1f" /><rect x="355.0" y="49.0" width="12.0" height="3" fill="#35df39" stroke="#03aa10" /><rect x="368.0" y="73.5" width="12.0" height="3" fill="#80c9ff" stroke="#0b6cba" /><rect x="368.0" y="98.0" width="12.0" height="3" fill="#80c9ff" stroke="#0b6cba" /><rect x="381.0" y="122.5" width="12.0" height="3" fill="#fff874" stroke="#eb9c26" /><rect x="394.0" y="147.0" width="12.0" height="3" fill="#ff83f4" stroke="#d002bc" /><rect x="381.0" y="171.5" width="12.0" height="3" fill="#fff874" stroke="#eb9c26" /><rect x="368.0" y="220.5" width="12.0" height="3" fill="#80c9ff" stroke="#0b6cba" /><rect x="355.0" y="245.0" width="12.0" height="3" fill="#35df39" stroke="#03aa10" /><rect x="355.0" y="318.0" width="12.0" height="3" fill="#35df39" stroke="#03aa10" /><rect x="355.0" y="342.5" width="12.0" height="3" fill="#35df39" stroke="#03aa10" /><rect x="368.0" y="367.0" width="12.0" height="3" fill="#80c9ff" stroke="#0b6cba" /><rect x="342.0" y="416.0" width="12.0" height="3" fill="#ff3c3c" stroke="#c71f1f" /><rect x="342.0" y="440.5" width="12.0" height="3" fill="#ff3c3c" stroke="#c71f1f" /><rect x="355.0" y="465.0" width="12.0" height="3" fill="#35df39" stroke="#03aa10" /><rect x="368.0" y="489.5" width="12.0" height="3" fill="#80c9ff" stroke="#0b6cba" /><rect x="381.0" y="514.0" width="12.0" height="3" fill="#fff874" stroke="#eb9c26" /><rect x="368.0" y="538.5" width="12.0" height="3" fill="#80c9ff" stroke="#0b6cba" /><rect x="355.0" y="562.5" width="12.0" height="3" fill="#35df39" stroke="#03aa10" /><rect x="342.0" y="611.5" width="12.0" height="171.5" fill="#ff3c3c" stroke="#c71f1f" /><rect x="456.0" y="24.5" width="12.0" height="3" fill="#ff3c3c" stroke="#c71f1f" /><rect x="469.0" y="49.0" width="12.0" height="3" fill="#35df39" stroke="#03aa10" /><rect x="482.0" y="73.0" width="12.0" height="3" fill="#80c9ff" stroke="#0b6cba" /><rect x="482.0" y="97.5" width="12.0" height="3" fill="#80c9ff" stroke="#0b6cba" /><rect x="495.0" y="122.0" width="12.0" height="3" fill="#fff874" stroke="#eb9c26" /><rect x="508.0" y="146.5" width="12.0" height="3" fill="#ff83f4" stroke="#d002bc" /><rect x="495.0" y="171.0" width="12.0" height="3" fill="#fff874" stroke="#eb9c26" /><rect x="508.0" y="220.0" width="12.0" height="3" fill="#ff83f4" stroke="#d002bc" /><rect x="495.0" y="244.5" width="12.0" height="3" fill="#fff874" stroke="#eb9c26" /><rect x="508.0" y="269.0" width="12.0" height="3" fill="#ff83f4" stroke="#d002bc" /><rect x="508.0" y="342.0" width="12.0" height="3" fill="#ff83f4" stroke="#d002bc" /><rect x="508.0" y="366.5" width="12.0" height="3" fill="#ff83f4" stroke="#d002bc" /><rect x="495.0" y="391.0" width="12.0" height="3" fill="#fff874" stroke="#eb9c26" /><rect x="495.0" y="415.5" width="12.0" height="3" fill="#fff874" stroke="#eb9c26" /><rect x="482.0" y="440.0" width="12.0" height="3" fill="#80c9ff" stroke="#0b6cba" /><rect x="469.0" y="464.5" width="12.0" height="3" fill="#35df39" stroke="#03aa10" /><rect x="482.0" y="513.5" width="12.0" height="3" fill="#80c9ff" stroke="#0b6cba" /><rect x="469.0" y="538.0" width="12.0" height="3" fill="#35df39" stroke="#03aa10" /><rect x="469.0" y="562.5" width="12.0" height="3" fill="#35df39" stroke="#03aa10" /><rect x="456.0" y="0.0" width="12.0" height="2.75625" fill="#ff3c3c" stroke="#c71f1f" /><rect x="456.0" y="611.0" width="12.0" height="171.5" fill="#ff3c3c" stroke="#c71f1f" /><rect x="570.0" y="0.0" width="12.0" height="3" fill="#ff3c3c" stroke="#c71f1f" /><rect x="570.0" y="12.0" width="12.0" height="3" fill="#ff3c3c" stroke="#c71f1f" /><rect x="570.0" y="24.5" width="12.0" height="3" fill="#ff3c3c" stroke="#c71f1f" /><rect x="570.0" y="36.5" width="12.0" height="3" fill="#ff3c3c" stroke="#c71f1f" /><rect x="583.0" y="49.0" width="12.0" height="3" fill="#35df39" stroke="#03aa10" /><rect x="583.0" y="61.0" width="12.0" height="3" fill="#35df39" stroke="#03aa10" /><rect x="583.0" y="73.5" width="12.0" height="3" fill="#35df39" stroke="#03aa10" /><rect x="583.0" y="85.5" width="12.0" height="3" fill="#35df39" stroke="#03aa10" /><rect x="596.0" y="98.0" width="12.0" height="3" fill="#80c9ff" stroke="#0b6cba" /><rect x="596.0" y="110.0" width="12.0" height="3" fill="#80c9ff" stroke="#0b6cba" /><rect x="596.0" y="122.0" width="12.0" height="3" fill="#80c9ff" stroke="#0b6cba" /><rect x="596.0" y="134.5" width="12.0" height="3" fill="#80c9ff" stroke="#0b6cba" /><rect x="583.0" y="146.5" width="12.0" height="3" fill="#35df39" stroke="#03aa10" /><rect x="583.0" y="159.0" width="12.0" height="3" fill="#35df39" stroke="#03aa10" /><rect x="583.0" y="171.0" width="12.0" height="3" fill="#35df39" stroke="#03aa10" /><rect x="596.0" y="195.5" width="12.0" height="3" fill="#80c9ff" stroke="#0b6cba" /><rect x="583.0" y="232.5" width="12.0" height="3" fill="#35df39" stroke="#03aa10" /><rect x="583.0" y="244.5" width="12.0" height="3" fill="#35df39" stroke="#03aa10" /><rect x="570.0" y="269.0" width="12.0" height="3" fill="#ff3c3c" stroke="#c71f1f" /><rect x="596.0" y="342.5" width="12.0" height="3" fill="#80c9ff" stroke="#0b6cba" /><rect x="609.0" y="342.5" width="12.0" height="3" fill="#fff874" stroke="#eb9c26" /><rect x="609.0" y="440.0" width="12.0" height="3" fill="#fff874" stroke="#eb9c26" /><rect x="609.0" y="452.5" width="12.0" height="3" fill="#fff874" stroke="#eb9c26" /><rect x="609.0" y="464.5" width="12.0" height="3" fill="#fff874" stroke="#eb9c26" /><rect x="596.0" y="489.0" width="12.0" height="3" fill="#80c9ff" stroke="#0b6cba" /><rect x="596.0" y="501.5" width="12.0" height="3" fill="#80c9ff" stroke="#0b6cba" /><rect x="596.0" y="513.5" width="12.0" height="3" fill="#80c9ff" stroke="#0b6cba" /><rect x="583.0" y="538.0" width="12.0" height="3" fill="#35df39" stroke="#03aa10" /><rect x="583.0" y="550.0" width="12.0" height="3" fill="#35df39" stroke="#03aa10" /><rect x="583.0" y="562.5" width="12.0" height="3" fill="#35df39" stroke="#03aa10" /><rect x="570.0" y="587.0" width="12.0" height="3" fill="#ff3c3c" stroke="#c71f1f" /><rect x="570.0" y="599.0" width="12.0" height="3" fill="#ff3c3c" stroke="#c71f1f" /><rect x="570.0" y="611.5" width="12.0" height="3" fill="#ff3c3c" stroke="#c71f1f" /><rect x="570.0" y="623.5" width="12.0" height="3" fill="#ff3c3c" stroke="#c71f1f" /><rect x="596.0" y="636.0" width="12.0" height="3" fill="#80c9ff" stroke="#0b6cba" /><rect x="596.0" y="648.0" width="12.0" height="3" fill="#80c9ff" stroke="#0b6cba" /><rect x="596.0" y="660.5" width="12.0" height="3" fill="#80c9ff" stroke="#0b6cba" /><rect x="596.0" y="672.5" width="12.0" height="3" fill="#80c9ff" stroke="#0b6cba" /><rect x="583.0" y="684.5" width="12.0" height="3" fill="#35df39" stroke="#03aa10" /><rect x="583.0" y="697.0" width="12.0" height="3" fill="#35df39" stroke="#03aa10" /><rect x="583.0" y="709.0" width="12.0" height="3" fill="#35df39" stroke="#03aa10" /><rect x="583.0" y="721.5" width="12.0" height="3" fill="#35df39" stroke="#03aa10" /><rect x="570.0" y="733.5" width="12.0" height="3" fill="#ff3c3c" stroke="#c71f1f" /><rect x="684.0" y="24.5" width="12.0" height="3" fill="#ff3c3c" stroke="#c71f1f" /><rect x="697.0" y="49.0" width="12.0" height="3" fill="#35df39" stroke="#03aa10" /><rect x="710.0" y="73.5" width="12.0" height="3" fill="#80c9ff" stroke="#0b6cba" /><rect x="710.0" y="98.0" width="12.0" height="3" fill="#80c9ff" stroke="#0b6cba" /><rect x="723.0" y="122.5" width="12.0" height="3" fill="#fff874" stroke="#eb9c26" /><rect x="736.0" y="147.0" width="12.0" height="3" fill="#ff83f4" stroke="#d002bc" /><rect x="723.0" y="171.0" width="12.0" height="3" fill="#fff874" stroke="#eb9c26" /><rect x="710.0" y="220.0" width="12.0" height="3" fill="#80c9ff" stroke="#0b6cba" /><rect x="697.0" y="244.5" width="12.0" height="3" fill="#35df39" stroke="#03aa10" /><rect x="697.0" y="318.0" width="12.0" height="3" fill="#35df39" stroke="#03aa10" /><rect x="697.0" y="342.5" width="12.0" height="3" fill="#35df39" stroke="#03aa10" /><rect x="710.0" y="367.0" width="12.0" height="3" fill="#80c9ff" stroke="#0b6cba" /><rect x="684.0" y="416.0" width="12.0" height="3" fill="#ff3c3c" stroke="#c71f1f" /><rect x="684.0" y="440.5" width="12.0" height="3" fill="#ff3c3c" stroke="#c71f1f" /><rect x="697.0" y="464.5" width="12.0" height="3" fill="#35df39" stroke="#03aa10" /><rect x="710.0" y="489.0" width="12.0" height="3" fill="#80c9ff" stroke="#0b6cba" /><rect x="723.0" y="513.5" width="12.0" height="3" fill="#fff874" stroke="#eb9c26" /><rect x="710.0" y="538.0" width="12.0" height="3" fill="#80c9ff" stroke="#0b6cba" /><rect x="697.0" y="562.5" width="12.0" height="3" fill="#35df39" stroke="#03aa10" /><rect x="684.0" y="611.5" width="12.0" height="3" fill="#ff3c3c" stroke="#c71f1f" /><rect x="697.0" y="660.5" width="12.0" height="3" fill="#35df39" stroke="#03aa10" /><rect x="697.0" y="672.5" width="12.0" height="3" fill="#35df39" stroke="#03aa10" /><rect x="697.0" y="685.0" width="12.0" height="3" fill="#35df39" stroke="#03aa10" /><rect x="710.0" y="709.5" width="12.0" height="3" fill="#80c9ff" stroke="#0b6cba" /><rect x="710.0" y="721.5" width="12.0" height="3" fill="#80c9ff" stroke="#0b6cba" /><rect x="798.0" y="24.5" width="12.0" height="3" fill="#ff3c3c" stroke="#c71f1f" /><rect x="811.0" y="49.0" width="12.0" height="3" fill="#35df39" stroke="#03aa10" /><rect x="824.0" y="73.5" width="12.0" height="3" fill="#80c9ff" stroke="#0b6cba" /><rect x="824.0" y="98.0" width="12.0" height="3" fill="#80c9ff" stroke="#0b6cba" /><rect x="837.0" y="122.5" width="12.0" height="3" fill="#fff874" stroke="#eb9c26" /><rect x="850.0" y="147.0" width="12.0" height="3" fill="#ff83f4" stroke="#d002bc" /><rect x="837.0" y="171.5" width="12.0" height="3" fill="#fff874" stroke="#eb9c26" /><rect x="850.0" y="220.5" width="12.0" height="3" fill="#ff83f4" stroke="#d002bc" /><rect x="837.0" y="244.5" width="12.0" height="3" fill="#fff874" stroke="#eb9c26" /><rect x="850.0" y="269.0" width="12.0" height="3" fill="#ff83f4" stroke="#d002bc" /><rect x="850.0" y="342.5" width="12.0" height="3" fill="#ff83f4" stroke="#d002bc" /><rect x="850.0" y="367.0" width="12.0" height="3" fill="#ff83f4" stroke="#d002bc" /><rect x="837.0" y="391.5" width="12.0" height="3" fill="#fff874" stroke="#eb9c26" /><rect x="837.0" y="416.0" width="12.0" height="3" fill="#fff874" stroke="#eb9c26" /><rect x="824.0" y="440.5" width="12.0" height="3" fill="#80c9ff" stroke="#0b6cba" /><rect x="811.0" y="465.0" width="12.0" height="3" fill="#35df39" stroke="#03aa10" /><rect x="824.0" y="513.5" width="12.0" height="3" fill="#80c9ff" stroke="#0b6cba" /><rect x="811.0" y="538.0" width="12.0" height="3" fill="#35df39" stroke="#03aa10" /><rect x="811.0" y="562.5" width="12.0" height="3" fill="#35df39" stroke="#03aa10" /><rect x="798.0" y="611.5" width="12.0" height="171.5" fill="#ff3c3c" stroke="#c71f1f" /><rect x="912.0" y="0.0" width="12.0" height="3" fill="#ff3c3c" stroke="#c71f1f" /><rect x="925.0" y="0.0" width="12.0" height="3" fill="#35df39" stroke="#03aa10" /><rect x="912.0" y="48.5" width="12.0" height="3" fill="#ff3c3c" stroke="#c71f1f" /><rect x="925.0" y="48.5" width="12.0" height="3" fill="#35df39" stroke="#03aa10" /><rect x="912.0" y="122.0" width="12.0" height="3" fill="#ff3c3c" stroke="#c71f1f" /><rect x="912.0" y="171.0" width="12.0" height="3" fill="#ff3c3c" stroke="#c71f1f" /><rect x="912.0" y="269.0" width="12.0" height="3" fill="#ff3c3c" stroke="#c71f1f" /><rect x="938.0" y="269.0" width="12.0" height="3" fill="#80c9ff" stroke="#0b6cba" /><rect x="925.0" y="342.0" width="12.0" height="3" fill="#35df39" stroke="#03aa10" /><rect x="938.0" y="342.0" width="12.0" height="3" fill="#80c9ff" stroke="#0b6cba" /><rect x="925.0" y="391.0" width="12.0" height="3" fill="#35df39" stroke="#03aa10" /><rect x="938.0" y="391.0" width="12.0" height="3" fill="#80c9ff" stroke="#0b6cba" /><rect x="925.0" y="464.5" width="12.0" height="3" fill="#35df39" stroke="#03aa10" /><rect x="925.0" y="513.5" width="12.0" height="3" fill="#35df39" stroke="#03aa10" /><rect x="925.0" y="611.0" width="12.0" height="3" fill="#35df39" stroke="#03aa10" /><rect x="951.0" y="611.0" width="12.0" height="3" fill="#fff874" stroke="#eb9c26" /><rect x="938.0" y="684.5" width="12.0" height="3" fill="#80c9ff" stroke="#0b6cba" /><rect x="951.0" y="684.5" width="12.0" height="3" fill="#fff874" stroke="#eb9c26" /><rect x="938.0" y="733.5" width="12.0" height="3" fill="#80c9ff" stroke="#0b6cba" /><rect x="951.0" y="733.5" width="12.0" height="3" fill="#fff874" stroke="#eb9c26" /><rect x="938.0" y="807.0" width="12.0" height="3" fill="#80c9ff" stroke="#0b6cba" /><rect x="938.0" y="855.5" width="12.0" height="3" fill="#80c9ff" stroke="#0b6cba" /><rect x="938.0" y="953.5" width="12.0" height="3" fill="#80c9ff" stroke="#0b6cba" /><rect x="964.0" y="953.5" width="12.0" height="3" fill="#ff83f4" stroke="#d002bc" /><rect x="925.0" y="1027.0" width="12.0" height="3" fill="#35df39" stroke="#03aa10" /><rect x="938.0" y="1027.0" width="12.0" height="3" fill="#80c9ff" stroke="#0b6cba" /><rect x="925.0" y="1076.0" width="12.0" height="3" fill="#35df39" stroke="#03aa10" /><rect x="938.0" y="1076.0" width="12.0" height="3" fill="#80c9ff" stroke="#0b6cba" /><rect x="925.0" y="1149.0" width="12.0" height="3" fill="#35df39" stroke="#03aa10" /><rect x="938.0" y="1198.0" width="12.0" height="3" fill="#80c9ff" stroke="#0b6cba" /><rect x="951.0" y="1198.0" width="12.0" height="3" fill="#fff874" stroke="#eb9c26" /><rect x="912.0" y="1296.0" width="12.0" height="3" fill="#ff3c3c" stroke="#c71f1f" /><rect x="938.0" y="1296.0" width="12.0" height="3" fill="#80c9ff" stroke="#0b6cba" /><rect x="1026.0" y="0.0" width="12.0" height="3" fill="#ff3c3c" stroke="#c71f1f" /><rect x="1039.0" y="48.5" width="12.0" height="3" fill="#35df39" stroke="#03aa10" /><rect x="1039.0" y="73.0" width="12.0" height="3" fill="#35df39" stroke="#03aa10" /><rect x="1052.0" y="122.0" width="12.0" height="3" fill="#80c9ff" stroke="#0b6cba" /><rect x="1065.0" y="171.0" width="12.0" height="3" fill="#fff874" stroke="#eb9c26" /><rect x="1065.0" y="293.5" width="12.0" height="3" fill="#fff874" stroke="#eb9c26" /><rect x="1065.0" y="318.0" width="12.0" height="3" fill="#fff874" stroke="#eb9c26" /><rect x="1052.0" y="342.0" width="12.0" height="3" fill="#80c9ff" stroke="#0b6cba" /><rect x="1039.0" y="391.0" width="12.0" height="3" fill="#35df39" stroke="#03aa10" /><rect x="1052.0" y="415.5" width="12.0" height="3" fill="#80c9ff" stroke="#0b6cba" /><rect x="1039.0" y="464.5" width="12.0" height="3" fill="#35df39" stroke="#03aa10" /><rect x="1039.0" y="489.0" width="12.0" height="3" fill="#35df39" stroke="#03aa10" /><rect x="1026.0" y="513.5" width="12.0" height="3" fill="#ff3c3c" stroke="#c71f1f" /><rect x="1039.0" y="587.0" width="12.0" height="3" fill="#35df39" stroke="#03aa10" /><rect x="1026.0" y="611.0" width="12.0" height="3" fill="#ff3c3c" stroke="#c71f1f" /><rect x="1039.0" y="684.5" width="12.0" height="3" fill="#35df39" stroke="#03aa10" /><rect x="1052.0" y="684.5" width="12.0" height="3" fill="#80c9ff" stroke="#0b6cba" /><rect x="1065.0" y="758.0" width="12.0" height="3" fill="#fff874" stroke="#eb9c26" /><rect x="1065.0" y="770.0" width="12.0" height="3" fill="#fff874" stroke="#eb9c26" /><rect x="1065.0" y="782.5" width="12.0" height="3" fill="#fff874" stroke="#eb9c26" /><rect x="1052.0" y="807.0" width="12.0" height="3" fill="#80c9ff" stroke="#0b6cba" /><rect x="1052.0" y="819.0" width="12.0" height="3" fill="#80c9ff" stroke="#0b6cba" /><rect x="1052.0" y="831.5" width="12.0" height="3" fill="#80c9ff" stroke="#0b6cba" /><rect x="1039.0" y="904.5" width="12.0" height="3" fill="#35df39" stroke="#03aa10" /><rect x="1039.0" y="917.0" width="12.0" height="3" fill="#35df39" stroke="#03aa10" /><rect x="1039.0" y="929.0" width="12.0" height="3" fill="#35df39" stroke="#03aa10" /><rect x="1052.0" y="953.5" width="12.0" height="3" fill="#80c9ff" stroke="#0b6cba" /><rect x="1052.0" y="978.0" width="12.0" height="3" fill="#80c9ff" stroke="#0b6cba" /><rect x="1026.0" y="1002.5" width="12.0" height="3" fill="#ff3c3c" stroke="#c71f1f" /><rect x="1039.0" y="1027.0" width="12.0" height="3" fill="#35df39" stroke="#03aa10" /><rect x="1026.0" y="1051.5" width="12.0" height="3" fill="#ff3c3c" stroke="#c71f1f" /><rect x="1026.0" y="1063.5" width="12.0" height="3" fill="#ff3c3c" stroke="#c71f1f" /><rect x="1039.0" y="1076.0" width="12.0" height="3" fill="#35df39" stroke="#03aa10" /><rect x="1039.0" y="1088.0" width="12.0" height="3" fill="#35df39" stroke="#03aa10" /><rect x="1039.0" y="1100.5" width="12.0" height="3" fill="#35df39" stroke="#03aa10" /><rect x="1039.0" y="1112.5" width="12.0" height="3" fill="#35df39" stroke="#03aa10" /><rect x="1052.0" y="1125.0" width="12.0" height="3" fill="#80c9ff" stroke="#0b6cba" /><rect x="1052.0" y="1137.0" width="12.0" height="3" fill="#80c9ff" stroke="#0b6cba" /><rect x="1052.0" y="1149.5" width="12.0" height="3" fill="#80c9ff" stroke="#0b6cba" /><rect x="1052.0" y="1161.5" width="12.0" height="3" fill="#80c9ff" stroke="#0b6cba" /><rect x="1039.0" y="1173.5" width="12.0" height="3" fill="#35df39" stroke="#03aa10" /><rect x="1039.0" y="1186.0" width="12.0" height="3" fill="#35df39" stroke="#03aa10" /><rect x="1039.0" y="1198.0" width="12.0" height="3" fill="#35df39" stroke="#03aa10" /><rect x="1039.0" y="1210.5" width="12.0" height="3" fill="#35df39" stroke="#03aa10" /><rect x="1065.0" y="1222.5" width="12.0" height="3" fill="#fff874" stroke="#eb9c26" /><rect x="1065.0" y="1235.0" width="12.0" height="3" fill="#fff874" stroke="#eb9c26" /><rect x="1065.0" y="1247.0" width="12.0" height="3" fill="#fff874" stroke="#eb9c26" /><rect x="1065.0" y="1259.5" width="12.0" height="3" fill="#fff874" stroke="#eb9c26" /><rect x="1078.0" y="1271.5" width="12.0" height="3" fill="#ff83f4" stroke="#d002bc" /><rect x="1179.0" y="49.0" width="12.0" height="3" fill="#fff874" stroke="#eb9c26" /><rect x="1192.0" y="97.5" width="12.0" height="3" fill="#ff83f4" stroke="#d002bc" /><rect x="1179.0" y="122.0" width="12.0" height="3" fill="#fff874" stroke="#eb9c26" /><rect x="1166.0" y="171.0" width="12.0" height="3" fill="#80c9ff" stroke="#0b6cba" /><rect x="1153.0" y="220.0" width="12.0" height="3" fill="#35df39" stroke="#03aa10" /><rect x="1153.0" y="293.5" width="12.0" height="3" fill="#35df39" stroke="#03aa10" /><rect x="1179.0" y="318.0" width="12.0" height="3" fill="#fff874" stroke="#eb9c26" /><rect x="1166.0" y="342.5" width="12.0" height="3" fill="#80c9ff" stroke="#0b6cba" /><rect x="1153.0" y="391.0" width="12.0" height="3" fill="#35df39" stroke="#03aa10" /><rect x="1140.0" y="415.5" width="12.0" height="3" fill="#ff3c3c" stroke="#c71f1f" /><rect x="1166.0" y="464.5" width="12.0" height="3" fill="#80c9ff" stroke="#0b6cba" /><rect x="1166.0" y="477.0" width="12.0" height="3" fill="#80c9ff" stroke="#0b6cba" /><rect x="1166.0" y="489.0" width="12.0" height="3" fill="#80c9ff" stroke="#0b6cba" /><rect x="1153.0" y="513.5" width="12.0" height="3" fill="#35df39" stroke="#03aa10" /><rect x="1140.0" y="562.5" width="12.0" height="3" fill="#ff3c3c" stroke="#c71f1f" /><rect x="1140.0" y="684.5" width="12.0" height="3" fill="#ff3c3c" stroke="#c71f1f" /><rect x="1166.0" y="684.5" width="12.0" height="3" fill="#80c9ff" stroke="#0b6cba" /><rect x="1153.0" y="758.0" width="12.0" height="3" fill="#35df39" stroke="#03aa10" /><rect x="1179.0" y="758.0" width="12.0" height="3" fill="#fff874" stroke="#eb9c26" /><rect x="1166.0" y="856.0" width="12.0" height="3" fill="#80c9ff" stroke="#0b6cba" /><rect x="1179.0" y="856.0" width="12.0" height="3" fill="#fff874" stroke="#eb9c26" /><rect x="1179.0" y="953.5" width="12.0" height="3" fill="#fff874" stroke="#eb9c26" /><rect x="1179.0" y="1027.0" width="12.0" height="342.5" fill="#fff874" stroke="#eb9c26" /><rect x="1192.0" y="1027.0" width="12.0" height="342.5" fill="#ff83f4" stroke="#d002bc" /><rect x="1254.0" y="24.5" width="12.0" height="3" fill="#ff3c3c" stroke="#c71f1f" /><rect x="1267.0" y="49.0" width="12.0" height="3" fill="#35df39" stroke="#03aa10" /><rect x="1280.0" y="73.5" width="12.0" height="3" fill="#80c9ff" stroke="#0b6cba" /><rect x="1267.0" y="122.0" width="12.0" height="3" fill="#35df39" stroke="#03aa10" /><rect x="1280.0" y="146.5" width="12.0" height="3" fill="#80c9ff" stroke="#0b6cba" /><rect x="1293.0" y="171.0" width="12.0" height="110.25" fill="#fff874" stroke="#eb9c26" /><rect x="1267.0" y="293.5" width="12.0" height="3" fill="#35df39" stroke="#03aa10" /><rect x="1280.0" y="318.0" width="12.0" height="3" fill="#80c9ff" stroke="#0b6cba" /><rect x="1293.0" y="342.5" width="12.0" height="3" fill="#fff874" stroke="#eb9c26" /><rect x="1267.0" y="367.0" width="12.0" height="3" fill="#35df39" stroke="#03aa10" /><rect x="1254.0" y="440.0" width="12.0" height="3" fill="#ff3c3c" stroke="#c71f1f" /><rect x="1254.0" y="464.5" width="12.0" height="3" fill="#ff3c3c" stroke="#c71f1f" /><rect x="1267.0" y="513.5" width="12.0" height="3" fill="#35df39" stroke="#03aa10" /><rect x="1254.0" y="562.5" width="12.0" height="3" fill="#ff3c3c" stroke="#c71f1f" /><rect x="1267.0" y="562.5" width="12.0" height="3" fill="#35df39" stroke="#03aa10" /><rect x="1280.0" y="660.5" width="12.0" height="3" fill="#80c9ff" stroke="#0b6cba" /><rect x="1293.0" y="660.5" width="12.0" height="3" fill="#fff874" stroke="#eb9c26" /><rect x="1280.0" y="709.0" width="12.0" height="3" fill="#80c9ff" stroke="#0b6cba" /><rect x="1267.0" y="733.5" width="12.0" height="3" fill="#35df39" stroke="#03aa10" /><rect x="1267.0" y="758.0" width="12.0" height="3" fill="#35df39" stroke="#03aa10" /><rect x="1293.0" y="0.0" width="12.0" height="1.4720027247956402" fill="#fff874" stroke="#eb9c26" /><rect x="1306.0" y="0.0" width="12.0" height="1.4720027247956402" fill="#ff83f4" stroke="#d002bc" /><rect x="1368.0" y="0.0" width="12.0" height="3" fill="#ff3c3c" stroke="#c71f1f" /><rect x="1381.0" y="49.0" width="12.0" height="3" fill="#35df39" stroke="#03aa10" /><rect x="1394.0" y="73.5" width="12.0" height="3" fill="#80c9ff" stroke="#0b6cba" /><rect x="1407.0" y="122.5" width="12.0" height="3" fill="#fff874" stroke="#eb9c26" /><rect x="1394.0" y="171.0" width="12.0" height="3" fill="#80c9ff" stroke="#0b6cba" /><rect x="1407.0" y="171.0" width="12.0" height="3" fill="#fff874" stroke="#eb9c26" /><rect x="1394.0" y="244.5" width="12.0" height="3" fill="#80c9ff" stroke="#0b6cba" /><rect x="1394.0" y="269.0" width="12.0" height="3" fill="#80c9ff" stroke="#0b6cba" /><rect x="1381.0" y="391.5" width="12.0" height="3" fill="#35df39" stroke="#03aa10" /><rect x="1394.0" y="440.5" width="12.0" height="3" fill="#80c9ff" stroke="#0b6cba" /><rect x="1407.0" y="464.5" width="12.0" height="3" fill="#fff874" stroke="#eb9c26" /><rect x="1381.0" y="513.5" width="12.0" height="3" fill="#35df39" stroke="#03aa10" /><rect x="1394.0" y="562.5" width="12.0" height="3" fill="#80c9ff" stroke="#0b6cba" /><rect x="1407.0" y="562.5" width="12.0" height="3" fill="#fff874" stroke="#eb9c26" /><rect x="1381.0" y="660.5" width="12.0" height="122.0" fill="#35df39" stroke="#03aa10" /><rect x="1394.0" y="660.5" width="12.0" height="122.0" fill="#80c9ff" stroke="#0b6cba" /><rect x="1495.0" y="24.5" width="12.0" height="3" fill="#35df39" stroke="#03aa10" /><rect x="1508.0" y="49.0" width="12.0" height="3" fill="#80c9ff" stroke="#0b6cba" /><rect x="1521.0" y="73.5" width="12.0" height="3" fill="#fff874" stroke="#eb9c26" /><rect x="1508.0" y="122.5" width="12.0" height="3" fill="#80c9ff" stroke="#0b6cba" /><rect x="1521.0" y="147.0" width="12.0" height="3" fill="#fff874" stroke="#eb9c26" /><rect x="1534.0" y="171.5" width="12.0" height="109.8" fill="#ff83f4" stroke="#d002bc" /><rect x="1508.0" y="293.5" width="12.0" height="3" fill="#80c9ff" stroke="#0b6cba" /><rect x="1521.0" y="318.0" width="12.0" height="3" fill="#fff874" stroke="#eb9c26" /><rect x="1534.0" y="342.5" width="12.0" height="3" fill="#ff83f4" stroke="#d002bc" /><rect x="1508.0" y="367.0" width="12.0" height="3" fill="#80c9ff" stroke="#0b6cba" /><rect x="1495.0" y="440.5" width="12.0" height="3" fill="#35df39" stroke="#03aa10" /><rect x="1495.0" y="465.0" width="12.0" height="3" fill="#35df39" stroke="#03aa10" /><rect x="1508.0" y="513.5" width="12.0" height="3" fill="#80c9ff" stroke="#0b6cba" /><rect x="1495.0" y="562.5" width="12.0" height="3" fill="#35df39" stroke="#03aa10" /><rect x="1508.0" y="562.5" width="12.0" height="3" fill="#80c9ff" stroke="#0b6cba" /><rect x="1521.0" y="660.5" width="12.0" height="3" fill="#fff874" stroke="#eb9c26" /><rect x="1534.0" y="660.5" width="12.0" height="3" fill="#ff83f4" stroke="#d002bc" /><rect x="1521.0" y="709.5" width="12.0" height="3" fill="#fff874" stroke="#eb9c26" /><rect x="1508.0" y="734.0" width="12.0" height="3" fill="#80c9ff" stroke="#0b6cba" /><rect x="1508.0" y="758.5" width="12.0" height="3" fill="#80c9ff" stroke="#0b6cba" /><rect x="1495.0" y="0.0" width="12.0" height="3.6875426621160408" fill="#35df39" stroke="#03aa10" /><rect x="1508.0" y="0.0" width="12.0" height="3.6875426621160408" fill="#80c9ff" stroke="#0b6cba" /><rect x="1609.0" y="0.0" width="12.0" height="3" fill="#35df39" stroke="#03aa10" /><rect x="1622.0" y="48.5" width="12.0" height="3" fill="#80c9ff" stroke="#0b6cba" /><rect x="1635.0" y="73.0" width="12.0" height="3" fill="#fff874" stroke="#eb9c26" /><rect x="1648.0" y="122.0" width="12.0" height="3" fill="#ff83f4" stroke="#d002bc" /><rect x="1635.0" y="171.0" width="12.0" height="3" fill="#fff874" stroke="#eb9c26" /><rect x="1648.0" y="171.0" width="12.0" height="3" fill="#ff83f4" stroke="#d002bc" /><rect x="1635.0" y="244.5" width="12.0" height="3" fill="#fff874" stroke="#eb9c26" /><rect x="1635.0" y="269.0" width="12.0" height="3" fill="#fff874" stroke="#eb9c26" /><rect x="1622.0" y="391.0" width="12.0" height="3" fill="#80c9ff" stroke="#0b6cba" /><rect x="1635.0" y="440.0" width="12.0" height="3" fill="#fff874" stroke="#eb9c26" /><rect x="1648.0" y="464.5" width="12.0" height="3" fill="#ff83f4" stroke="#d002bc" /><rect x="1622.0" y="513.5" width="12.0" height="3" fill="#80c9ff" stroke="#0b6cba" /><rect x="1635.0" y="562.5" width="12.0" height="3" fill="#fff874" stroke="#eb9c26" /><rect x="1648.0" y="562.5" width="12.0" height="3" fill="#ff83f4" stroke="#d002bc" /><rect x="1635.0" y="635.5" width="12.0" height="3" fill="#fff874" stroke="#eb9c26" /><rect x="1609.0" y="684.5" width="12.0" height="3" fill="#35df39" stroke="#03aa10" /><rect x="1622.0" y="684.5" width="12.0" height="3" fill="#80c9ff" stroke="#0b6cba" /><rect x="1635.0" y="733.5" width="12.0" height="3" fill="#fff874" stroke="#eb9c26" /><rect x="1622.0" y="758.0" width="12.0" height="3" fill="#80c9ff" stroke="#0b6cba" /><rect x="1762.0" y="269.0" width="12.0" height="3" fill="#ff83f4" stroke="#d002bc" /><rect x="1762.0" y="281.0" width="12.0" height="3" fill="#ff83f4" stroke="#d002bc" /><rect x="1762.0" y="293.5" width="12.0" height="3" fill="#ff83f4" stroke="#d002bc" /><rect x="1749.0" y="366.5" width="12.0" height="3" fill="#fff874" stroke="#eb9c26" /><rect x="1749.0" y="379.0" width="12.0" height="3" fill="#fff874" stroke="#eb9c26" /><rect x="1749.0" y="391.0" width="12.0" height="3" fill="#fff874" stroke="#eb9c26" /><rect x="1762.0" y="440.0" width="12.0" height="3" fill="#ff83f4" stroke="#d002bc" /><rect x="1749.0" y="464.5" width="12.0" height="3" fill="#fff874" stroke="#eb9c26" /><rect x="1736.0" y="538.0" width="12.0" height="3" fill="#80c9ff" stroke="#0b6cba" /><rect x="1749.0" y="562.5" width="12.0" height="3" fill="#fff874" stroke="#eb9c26" /><rect x="1749.0" y="660.0" width="12.0" height="3" fill="#fff874" stroke="#eb9c26" /><rect x="1749.0" y="684.5" width="12.0" height="3" fill="#fff874" stroke="#eb9c26" /><rect x="1762.0" y="709.0" width="12.0" height="3" fill="#ff83f4" stroke="#d002bc" /><rect x="1762.0" y="733.5" width="12.0" height="3" fill="#ff83f4" stroke="#d002bc" /><rect x="1749.0" y="758.0" width="12.0" height="3" fill="#fff874" stroke="#eb9c26" /><rect x="1850.0" y="24.5" width="12.0" height="3" fill="#80c9ff" stroke="#0b6cba" /><rect x="1863.0" y="122.5" width="12.0" height="3" fill="#fff874" stroke="#eb9c26" /><rect x="1850.0" y="171.0" width="12.0" height="3" fill="#80c9ff" stroke="#0b6cba" /><rect x="1850.0" y="195.5" width="12.0" height="3" fill="#80c9ff" stroke="#0b6cba" /><rect x="1850.0" y="208.0" width="12.0" height="3" fill="#80c9ff" stroke="#0b6cba" /><rect x="1850.0" y="220.0" width="12.0" height="3" fill="#80c9ff" stroke="#0b6cba" /><rect x="1850.0" y="232.5" width="12.0" height="3" fill="#80c9ff" stroke="#0b6cba" /><rect x="1863.0" y="244.5" width="12.0" height="3" fill="#fff874" stroke="#eb9c26" /><rect x="1863.0" y="257.0" width="12.0" height="3" fill="#fff874" stroke="#eb9c26" /><rect x="1863.0" y="269.0" width="12.0" height="3" fill="#fff874" stroke="#eb9c26" /><rect x="1863.0" y="281.0" width="12.0" height="3" fill="#fff874" stroke="#eb9c26" /><rect x="1850.0" y="293.5" width="12.0" height="3" fill="#80c9ff" stroke="#0b6cba" /><rect x="1850.0" y="305.5" width="12.0" height="3" fill="#80c9ff" stroke="#0b6cba" /><rect x="1850.0" y="318.0" width="12.0" height="3" fill="#80c9ff" stroke="#0b6cba" /><rect x="1850.0" y="330.0" width="12.0" height="3" fill="#80c9ff" stroke="#0b6cba" /><rect x="1837.0" y="342.5" width="12.0" height="3" fill="#35df39" stroke="#03aa10" /><rect x="1837.0" y="354.5" width="12.0" height="3" fill="#35df39" stroke="#03aa10" /><rect x="1837.0" y="367.0" width="12.0" height="3" fill="#35df39" stroke="#03aa10" /><rect x="1837.0" y="379.0" width="12.0" height="3" fill="#35df39" stroke="#03aa10" /><rect x="1850.0" y="391.5" width="12.0" height="3" fill="#80c9ff" stroke="#0b6cba" /><rect x="1850.0" y="403.5" width="12.0" height="3" fill="#80c9ff" stroke="#0b6cba" /><rect x="1850.0" y="415.5" width="12.0" height="3" fill="#80c9ff" stroke="#0b6cba" /><rect x="1850.0" y="428.0" width="12.0" height="3" fill="#80c9ff" stroke="#0b6cba" /><rect x="1824.0" y="440.0" width="12.0" height="3" fill="#ff3c3c" stroke="#c71f1f" /><rect x="1824.0" y="452.5" width="12.0" height="3" fill="#ff3c3c" stroke="#c71f1f" /><rect x="1824.0" y="464.5" width="12.0" height="3" fill="#ff3c3c" stroke="#c71f1f" /><rect x="1824.0" y="477.0" width="12.0" height="3" fill="#ff3c3c" stroke="#c71f1f" /><rect x="1837.0" y="489.0" width="12.0" height="3" fill="#35df39" stroke="#03aa10" /><rect x="1837.0" y="501.5" width="12.0" height="3" fill="#35df39" stroke="#03aa10" /><rect x="1837.0" y="513.5" width="12.0" height="3" fill="#35df39" stroke="#03aa10" /><rect x="1837.0" y="526.0" width="12.0" height="3" fill="#35df39" stroke="#03aa10" /><rect x="1837.0" y="538.0" width="12.0" height="3" fill="#35df39" stroke="#03aa10" /><rect x="1850.0" y="587.0" width="12.0" height="3" fill="#80c9ff" stroke="#0b6cba" /><rect x="1850.0" y="599.0" width="12.0" height="3" fill="#80c9ff" stroke="#0b6cba" /><rect x="1850.0" y="611.5" width="12.0" height="3" fill="#80c9ff" stroke="#0b6cba" /><rect x="1824.0" y="636.0" width="12.0" height="3" fill="#ff3c3c" stroke="#c71f1f" /><rect x="1824.0" y="648.0" width="12.0" height="3" fill="#ff3c3c" stroke="#c71f1f" /><rect x="1824.0" y="660.5" width="12.0" height="3" fill="#ff3c3c" stroke="#c71f1f" /><rect x="1837.0" y="685.0" width="12.0" height="3" fill="#35df39" stroke="#03aa10" /><rect x="1837.0" y="697.0" width="12.0" height="3" fill="#35df39" stroke="#03aa10" /><rect x="1837.0" y="709.0" width="12.0" height="3" fill="#35df39" stroke="#03aa10" /><rect x="1850.0" y="733.5" width="12.0" height="3" fill="#80c9ff" stroke="#0b6cba" /><rect x="1850.0" y="746.0" width="12.0" height="3" fill="#80c9ff" stroke="#0b6cba" /><rect x="1850.0" y="758.0" width="12.0" height="3" fill="#80c9ff" stroke="#0b6cba" /><rect x="1977.0" y="0.0" width="12.0" height="3" fill="#fff874" stroke="#eb9c26" /><rect x="1964.0" y="24.5" width="12.0" height="3" fill="#80c9ff" stroke="#0b6cba" /><rect x="1964.0" y="37.0" width="12.0" height="3" fill="#80c9ff" stroke="#0b6cba" /><rect x="1964.0" y="49.0" width="12.0" height="3" fill="#80c9ff" stroke="#0b6cba" /><rect x="1964.0" y="61.0" width="12.0" height="3" fill="#80c9ff" stroke="#0b6cba" /><rect x="1977.0" y="73.5" width="12.0" height="3" fill="#fff874" stroke="#eb9c26" /><rect x="1977.0" y="85.5" width="12.0" height="3" fill="#fff874" stroke="#eb9c26" /><rect x="1977.0" y="98.0" width="12.0" height="3" fill="#fff874" stroke="#eb9c26" /><rect x="1964.0" y="147.0" width="12.0" height="3" fill="#80c9ff" stroke="#0b6cba" /><rect x="1951.0" y="195.5" width="12.0" height="3" fill="#35df39" stroke="#03aa10" /><rect x="1964.0" y="195.5" width="12.0" height="3" fill="#80c9ff" stroke="#0b6cba" /><rect x="2078.0" y="0.0" width="12.0" height="3" fill="#80c9ff" stroke="#0b6cba" /><rect x="2052.0" y="73.5" width="12.0" height="3" fill="#ff3c3c" stroke="#c71f1f" /><rect x="2065.0" y="73.5" width="12.0" height="3" fill="#35df39" stroke="#03aa10" /><rect x="2065.0" y="147.0" width="12.0" height="3" fill="#35df39" stroke="#03aa10" /><rect x="2078.0" y="196.0" width="12.0" height="3" fill="#80c9ff" stroke="#0b6cba" /><rect x="2052.0" y="245.0" width="12.0" height="3" fill="#ff3c3c" stroke="#c71f1f" /><rect x="2078.0" y="245.0" width="12.0" height="3" fill="#80c9ff" stroke="#0b6cba" /><rect x="2065.0" y="318.0" width="12.0" height="3" fill="#35df39" stroke="#03aa10" /><rect x="2091.0" y="391.5" width="12.0" height="3" fill="#fff874" stroke="#eb9c26" /><rect x="2065.0" y="440.5" width="12.0" height="3" fill="#35df39" stroke="#03aa10" /><rect x="2078.0" y="440.5" width="12.0" height="3" fill="#80c9ff" stroke="#0b6cba" /><rect x="2052.0" y="489.5" width="12.0" height="3" fill="#ff3c3c" stroke="#c71f1f" /><rect x="2052.0" y="505.5" width="12.0" height="3" fill="#ff3c3c" stroke="#c71f1f" /><rect x="2065.0" y="522.0" width="12.0" height="3" fill="#35df39" stroke="#03aa10" /><rect x="2078.0" y="538.0" width="12.0" height="3" fill="#80c9ff" stroke="#0b6cba" /><rect x="2078.0" y="554.5" width="12.0" height="3" fill="#80c9ff" stroke="#0b6cba" /><rect x="2078.0" y="571.0" width="12.0" height="3" fill="#80c9ff" stroke="#0b6cba" /><rect x="2065.0" y="587.0" width="12.0" height="3" fill="#35df39" stroke="#03aa10" /><rect x="2065.0" y="603.5" width="12.0" height="3" fill="#35df39" stroke="#03aa10" /><rect x="2065.0" y="620.0" width="12.0" height="3" fill="#35df39" stroke="#03aa10" /><rect x="2091.0" y="636.0" width="12.0" height="3" fill="#fff874" stroke="#eb9c26" /><rect x="2091.0" y="652.5" width="12.0" height="3" fill="#fff874" stroke="#eb9c26" /><rect x="2091.0" y="668.5" width="12.0" height="3" fill="#fff874" stroke="#eb9c26" /><rect x="2078.0" y="685.0" width="12.0" height="3" fill="#80c9ff" stroke="#0b6cba" /><rect x="2078.0" y="701.5" width="12.0" height="3" fill="#80c9ff" stroke="#0b6cba" /><rect x="2091.0" y="717.5" width="12.0" height="3" fill="#fff874" stroke="#eb9c26" /><rect x="2091.0" y="766.5" width="12.0" height="3" fill="#fff874" stroke="#eb9c26" /><rect x="2218.0" y="0.0" width="12.0" height="3" fill="#ff83f4" stroke="#d002bc" /><rect x="2218.0" y="16.0" width="12.0" height="3" fill="#ff83f4" stroke="#d002bc" /><rect x="2192.0" y="32.5" width="12.0" height="3" fill="#80c9ff" stroke="#0b6cba" /><rect x="2192.0" y="48.5" width="12.0" height="3" fill="#80c9ff" stroke="#0b6cba" /><rect x="2205.0" y="65.0" width="12.0" height="3" fill="#fff874" stroke="#eb9c26" /><rect x="2205.0" y="81.5" width="12.0" height="3" fill="#fff874" stroke="#eb9c26" /><rect x="2179.0" y="97.5" width="12.0" height="3" fill="#35df39" stroke="#03aa10" /><rect x="2179.0" y="114.0" width="12.0" height="3" fill="#35df39" stroke="#03aa10" /><rect x="2192.0" y="130.0" width="12.0" height="3" fill="#80c9ff" stroke="#0b6cba" /><rect x="2192.0" y="146.5" width="12.0" height="3" fill="#80c9ff" stroke="#0b6cba" /><rect x="2205.0" y="163.0" width="12.0" height="3" fill="#fff874" stroke="#eb9c26" /><rect x="2205.0" y="179.0" width="12.0" height="3" fill="#fff874" stroke="#eb9c26" /><rect x="2218.0" y="195.5" width="12.0" height="3" fill="#ff83f4" stroke="#d002bc" /><rect x="2218.0" y="212.0" width="12.0" height="3" fill="#ff83f4" stroke="#d002bc" /><rect x="2192.0" y="228.0" width="12.0" height="3" fill="#80c9ff" stroke="#0b6cba" /><rect x="2192.0" y="244.5" width="12.0" height="3" fill="#80c9ff" stroke="#0b6cba" /><rect x="2205.0" y="260.5" width="12.0" height="3" fill="#fff874" stroke="#eb9c26" /><rect x="2205.0" y="277.0" width="12.0" height="3" fill="#fff874" stroke="#eb9c26" /><rect x="2179.0" y="293.5" width="12.0" height="3" fill="#35df39" stroke="#03aa10" /><rect x="2179.0" y="309.5" width="12.0" height="3" fill="#35df39" stroke="#03aa10" /><rect x="2192.0" y="326.0" width="12.0" height="3" fill="#80c9ff" stroke="#0b6cba" /><rect x="2192.0" y="342.0" width="12.0" height="3" fill="#80c9ff" stroke="#0b6cba" /><rect x="2205.0" y="358.5" width="12.0" height="3" fill="#fff874" stroke="#eb9c26" /><rect x="2205.0" y="375.0" width="12.0" height="3" fill="#fff874" stroke="#eb9c26" /><rect x="2205.0" y="489.0" width="12.0" height="293.5" fill="#fff874" stroke="#eb9c26" /><rect x="2218.0" y="489.0" width="12.0" height="293.5" fill="#ff83f4" stroke="#d002bc" /><rect x="2319.0" y="85.5" width="12.0" height="3" fill="#fff874" stroke="#eb9c26" /><rect x="2319.0" y="0.0" width="12.0" height="17.3594327176781" fill="#fff874" stroke="#eb9c26" /><rect x="2332.0" y="0.0" width="12.0" height="17.3594327176781" fill="#ff83f4" stroke="#d002bc" /></svg>