<?xml version="1.0" encoding="UTF-8"?><svg xmlns="http://www.w3.org/2000/svg" xmlns:xlink="http://www.w3.org/1999/xlink"     width="3570" height="1065.5" viewBox="0 0 3570 1065.5"><defs></defs><rect x="0" y="14.5" width="188" height="1051.0" fill="black" /><rect x="0" y="1064.5" width="188" height="1" fill="white" fill-opacity="0.5" /><text x="198" y="1064.5" font-size="14" fill="white" font-family="monospace" dominant-baseline="initial">1</text><rect x="0" y="999.0" width="188" height="1" fill="white" fill-opacity="0.2" /><rect x="0" y="933.0" width="188" height="1" fill="white" fill-opacity="0.2" /><rect x="0" y="867.5" width="188" height="1" fill="white" fill-opacity="0.2" /><rect x="0" y="801.5" width="188" height="1" fill="white" fill-opacity="0.5" /><text x="198" y="801.5" font-size="14" fill="white" font-family="monospace" dominant-baseline="initial">2</text><rect x="0" y="736.0" width="188" height="1" fill="white" fill-opacity="0.2" /><rect x="0" y="670.5" width="188" height="1" fill="white" fill-opacity="0.2" /><rect x="0" y="604.5" width="188" height="1" fill="white" fill-opacity="0.2" /><rect x="0" y="539.0" width="188" height="1" fill="white" fill-opacity="0.5" /><text x="198" y="539.0" font-size="14" fill="white" font-family="monospace" dominant-baseline="initial">3</text><rect x="0" y="473.5" width="188" height="1" fill="white" fill-opacity="0.2" /><rect x="0" y="407.5" width="188" height="1" fill="white" fill-opacity="0.2" /><rect x="0" y="342.0" width="188" height="1" fill="white" fill-opacity="0.2" /><rect x="0" y="276.0" width="188" height="1" fill="white" fill-opacity="0.5" /><text x="198" y="276.0" font-size="14" fill="white" font-family="monospace" dominant-baseline="initial">4</text><rect x="0" y="210.5" width="188" height="1" fill="white" fill-opacity="0.2" /><rect x="0" y="145.0" width="188" height="1" fill="white" fill-opacity="0.2" /><rect x="0" y="79.0" width="188" height="1" fill="white" fill-opacity="0.2" /><rect x="0" y="13.5" width="188" height="1" fill="white" fill-opacity="0.5" /><text x="198" y="13.5" font-size="14" fill="white" font-family="monospace" dominant-baseline="initial">5</text><rect x="0" y="1064.5" width="188" height="1" fill="aqua" fill-opacity="0.75" /><text x="0" y="1060.5" font-size="14" fill="aqua" fill-opacity="0.75" font-family="monospace">Phrase A</text><rect x="0" y="1064.5" width="188" height="1" fill="lime" fill-opacity="0.75" /><text x="198" y="1051.5" font-size="14" fill="lime" font-family="monospace" dominant-baseline="initial">137</text><rect x="238" y="14.5" width="188" height="1051.0" fill="black" /><rect x="238" y="1064.5" width="188" height="1" fill="white" fill-opacity="0.5" /><text x="436" y="1064.5" font-size="14" fill="white" font-family="monospace" dominant-baseline="initial">5</text><rect x="238" y="998.5" width="188" height="1" fill="white" fill-opacity="0.2" /><rect x="238" y="933.0" width="188" height="1" fill="white" fill-opacity="0.2" /><rect x="238" y="867.5" width="188" height="1" fill="white" fill-opacity="0.2" /><rect x="238" y="801.5" width="188" height="1" fill="white" fill-opacity="0.5" /><text x="436" y="801.5" font-size="14" fill="white" font-family="monospace" dominant-baseline="initial">6</text><rect x="238" y="736.0" width="188" height="1" fill="white" fill-opacity="0.2" /><rect x="238" y="670.0" width="188" height="1" fill="white" fill-opacity="0.2" /><rect x="238" y="604.5" width="188" height="1" fill="white" fill-opacity="0.2" /><rect x="238" y="539.0" width="188" height="1" fill="white" fill-opacity="0.5" /><text x="436" y="539.0" font-size="14" fill="white" font-family="monospace" dominant-baseline="initial">7</text><rect x="238" y="473.0" width="188" height="1" fill="white" fill-opacity="0.2" /><rect x="238" y="407.5" width="188" height="1" fill="white" fill-opacity="0.2" /><rect x="238" y="342.0" width="188" height="1" fill="white" fill-opacity="0.2" /><rect x="238" y="276.0" width="188" height="1" fill="white" fill-opacity="0.5" /><text x="436" y="276.0" font-size="14" fill="white" font-family="monospace" dominant-baseline="initial">8</text><rect x="238" y="210.5" width="188" height="1" fill="white" fill-opacity="0.2" /><rect x="238" y="144.5" width="188" height="1" fill="white" fill-opacity="0.2" /><rect x="238" y="79.0" width="188" height="1" fill="white" fill-opacity="0.2" /><rect x="238" y="13.5" width="188" height="1" fill="white" fill-opacity="0.5" /><text x="436" y="13.5" font-size="14" fill="white" font-family="monospace" dominant-baseline="initial">9</text><rect x="238" y="801.6500000000001" width="188" height="1" fill="aqua" fill-opacity="0.75" /><text x="238" y="797.6500000000001" font-size="14" fill="aqua" fill-opacity="0.75" font-family="monospace">Phrase B</text><rect x="476" y="14.0" width="188" height="1051.5" fill="black" /><rect x="476" y="1064.5" width="188" height="1" fill="white" fill-opacity="0.5" /><text x="674" y="1064.5" font-size="14" fill="white" font-family="monospace" dominant-baseline="initial">9</text><rect x="476" y="998.5" width="188" height="1" fill="white" fill-opacity="0.2" /><rect x="476" y="933.0" width="188" height="1" fill="white" fill-opacity="0.2" /><rect x="476" y="867.0" width="188" height="1" fill="white" fill-opacity="0.2" /><rect x="476" y="801.5" width="188" height="1" fill="white" fill-opacity="0.5" /><text x="674" y="801.5" font-size="14" fill="white" font-family="monospace" dominant-baseline="initial">10</text><rect x="476" y="736.0" width="188" height="1" fill="white" fill-opacity="0.2" /><rect x="476" y="670.0" width="188" height="1" fill="white" fill-opacity="0.2" /><rect x="476" y="604.5" width="188" height="1" fill="white" fill-opacity="0.2" /><rect x="476" y="539.0" width="188" height="1" fill="white" fill-opacity="0.5" /><text x="674" y="539.0" font-size="14" fill="white" font-family="monospace" dominant-baseline="initial">11</text><rect x="476" y="473.0" width="188" height="1" fill="white" fill-opacity="0.2" /><rect x="476" y="407.5" width="188" height="1" fill="white" fill-opacity="0.2" /><rect x="476" y="341.5" width="188" height="1" fill="white" fill-opacity="0.2" /><rect x="476" y="276.0" width="188" height="1" fill="white" fill-opacity="0.5" /><text x="674" y="276.0" font-size="14" fill="white" font-family="monospace" dominant-baseline="initial">12</text><rect x="476" y="210.5" width="188" height="1" fill="white" fill-opacity="0.2" /><rect x="476" y="144.5" width="188" height="1" fill="white" fill-opacity="0.2" /><rect x="476" y="79.0" width="188" height="1" fill="white" fill-opacity="0.2" /><rect x="476" y="13.0" width="188" height="1" fill="white" fill-opacity="0.5" /><text x="674" y="13.0" font-size="14" fill="white" font-family="monospace" dominant-baseline="initial">13</text><rect x="714" y="146.0" width="188" height="919.5" fill="black" /><rect x="714" y="1064.5" width="188" height="1" fill="white" fill-opacity="0.5" /><text x="912" y="1064.5" font-size="14" fill="white" font-family="monospace" dominant-baseline="initial">13</text><rect x="714" y="999.0" width="188" height="1" fill="white" fill-opacity="0.2" /><rect x="714" y="933.5" width="188" height="1" fill="white" fill-opacity="0.2" /><rect x="714" y="867.5" width="188" height="1" fill="white" fill-opacity="0.2" /><rect x="714" y="802.0" width="188" height="1" fill="white" fill-opacity="0.5" /><text x="912" y="802.0" font-size="14" fill="white" font-family="monospace" dominant-baseline="initial">14</text><rect x="714" y="736.0" width="188" height="1" fill="white" fill-opacity="0.2" /><rect x="714" y="670.5" width="188" height="1" fill="white" fill-opacity="0.2" /><rect x="714" y="605.0" width="188" height="1" fill="white" fill-opacity="0.5" /><text x="912" y="605.0" font-size="14" fill="white" font-family="monospace" dominant-baseline="initial">15</text><rect x="714" y="539.0" width="188" height="1" fill="white" fill-opacity="0.2" /><rect x="714" y="473.5" width="188" height="1" fill="white" fill-opacity="0.2" /><rect x="714" y="408.0" width="188" height="1" fill="white" fill-opacity="0.5" /><text x="912" y="408.0" font-size="14" fill="white" font-family="monospace" dominant-baseline="initial">16</text><rect x="714" y="342.0" width="188" height="1" fill="white" fill-opacity="0.2" /><rect x="714" y="276.5" width="188" height="1" fill="white" fill-opacity="0.2" /><rect x="714" y="210.5" width="188" height="1" fill="white" fill-opacity="0.2" /><rect x="714" y="145.0" width="188" height="1" fill="white" fill-opacity="0.5" /><text x="912" y="145.0" font-size="14" fill="white" font-family="monospace" dominant-baseline="initial">17</text><rect x="714" y="801.9000000000001" width="188" height="1" fill="aqua" fill-opacity="0.75" /><text x="714" y="797.9000000000001" font-size="14" fill="aqua" fill-opacity="0.75" font-family="monospace">Phrase C</text><rect x="952" y="14.5" width="188" height="1051.0" fill="black" /><rect x="952" y="1064.5" width="188" height="1" fill="white" fill-opacity="0.5" /><text x="1150" y="1064.5" font-size="14" fill="white" font-family="monospace" dominant-baseline="initial">17</text><rect x="952" y="999.0" width="188" height="1" fill="white" fill-opacity="0.2" /><rect x="952" y="933.0" width="188" height="1" fill="white" fill-opacity="0.2" /><rect x="952" y="867.5" width="188" height="1" fill="white" fill-opacity="0.2" /><rect x="952" y="801.5" width="188" height="1" fill="white" fill-opacity="0.5" /><text x="1150" y="801.5" font-size="14" fill="white" font-family="monospace" dominant-baseline="initial">18</text><rect x="952" y="736.0" width="188" height="1" fill="white" fill-opacity="0.2" /><rect x="952" y="670.5" width="188" height="1" fill="white" fill-opacity="0.2" /><rect x="952" y="604.5" width="188" height="1" fill="white" fill-opacity="0.2" /><rect x="952" y="539.0" width="188" height="1" fill="white" fill-opacity="0.5" /><text x="1150" y="539.0" font-size="14" fill="white" font-family="monospace" dominant-baseline="initial">19</text><rect x="952" y="473.5" width="188" height="1" fill="white" fill-opacity="0.2" /><rect x="952" y="407.5" width="188" height="1" fill="white" fill-opacity="0.2" /><rect x="952" y="342.0" width="188" height="1" fill="white" fill-opacity="0.2" /><rect x="952" y="276.0" width="188" height="1" fill="white" fill-opacity="0.5" /><text x="1150" y="276.0" font-size="14" fill="white" font-family="monospace" dominant-baseline="initial">20</text><rect x="952" y="210.5" width="188" height="1" fill="white" fill-opacity="0.2" /><rect x="952" y="145.0" width="188" height="1" fill="white" fill-opacity="0.2" /><rect x="952" y="79.0" width="188" height="1" fill="white" fill-opacity="0.2" /><rect x="952" y="13.5" width="188" height="1" fill="white" fill-opacity="0.5" /><text x="1150" y="13.5" font-size="14" fill="white" font-family="monospace" dominant-baseline="initial">21</text><rect x="952" y="1064.5500000000002" width="188" height="1" fill="aqua" fill-opacity="0.75" /><text x="952" y="1060.5500000000002" font-size="14" fill="aqua" fill-opacity="0.75" font-family="monospace">Phrase A</text><rect x="1190" y="14.5" width="188" height="1051.0" fill="black" /><rect x="1190" y="1064.5" width="188" height="1" fill="white" fill-opacity="0.5" /><text x="1388" y="1064.5" font-size="14" fill="white" font-family="monospace" dominant-baseline="initial">21</text><rect x="1190" y="998.5" width="188" height="1" fill="white" fill-opacity="0.2" /><rect x="1190" y="933.0" width="188" height="1" fill="white" fill-opacity="0.2" /><rect x="1190" y="867.5" width="188" height="1" fill="white" fill-opacity="0.2" /><rect x="1190" y="801.5" width="188" height="1" fill="white" fill-opacity="0.5" /><text x="1388" y="801.5" font-size="14" fill="white" font-family="monospace" dominant-baseline="initial">22</text><rect x="1190" y="736.0" width="188" height="1" fill="white" fill-opacity="0.2" /><rect x="1190" y="670.5" width="188" height="1" fill="white" fill-opacity="0.2" /><rect x="1190" y="604.5" width="188" height="1" fill="white" fill-opacity="0.2" /><rect x="1190" y="539.0" width="188" height="1" fill="white" fill-opacity="0.5" /><text x="1388" y="539.0" font-size="14" fill="white" font-family="monospace" dominant-baseline="initial">23</text><rect x="1190" y="473.0" width="188" height="1" fill="white" fill-opacity="0.2" /><rect x="1190" y="407.5" width="188" height="1" fill="white" fill-opacity="0.2" /><rect x="1190" y="342.0" width="188" height="1" fill="white" fill-opacity="0.2" /><rect x="1190" y="276.0" width="188" height="1" fill="white" fill-opacity="0.5" /><text x="1388" y="276.0" font-size="14" fill="white" font-family="monospace" dominant-baseline="initial">24</text><rect x="1190" y="210.5" width="188" height="1" fill="white" fill-opacity="0.2" /><rect x="1190" y="144.5" width="188" height="1" fill="white" fill-opacity="0.2" /><rect x="1190" y="79.0" width="188" height="1" fill="white" fill-opacity="0.2" /><rect x="1190" y="13.5" width="188" height="1" fill="white" fill-opacity="0.5" /><text x="1388" y="13.5" font-size="14" fill="white" font-family="monospace" dominant-baseline="initial">25</text><rect x="1428" y="14.0" width="188" height="1051.5" fill="black" /><rect x="1428" y="1064.5" width="188" height="1" fill="white" fill-opacity="0.5" /><text x="1626" y="1064.5" font-size="14" fill="white" font-family="monospace" dominant-baseline="initial">25</text><rect x="1428" y="998.5" width="188" height="1" fill="white" fill-opacity="0.2" /><rect x="1428" y="933.0" width="188" height="1" fill="white" fill-opacity="0.2" /><rect x="1428" y="867.0" width="188" height="1" fill="white" fill-opacity="0.2" /><rect x="1428" y="801.5" width="188" height="1" fill="white" fill-opacity="0.5" /><text x="1626" y="801.5" font-size="14" fill="white" font-family="monospace" dominant-baseline="initial">26</text><rect x="1428" y="736.0" width="188" height="1" fill="white" fill-opacity="0.2" /><rect x="1428" y="670.0" width="188" height="1" fill="white" fill-opacity="0.2" /><rect x="1428" y="604.5" width="188" height="1" fill="white" fill-opacity="0.2" /><rect x="1428" y="539.0" width="188" height="1" fill="white" fill-opacity="0.5" /><text x="1626" y="539.0" font-size="14" fill="white" font-family="monospace" dominant-baseline="initial">27</text><rect x="1428" y="473.0" width="188" height="1" fill="white" fill-opacity="0.2" /><rect x="1428" y="407.5" width="188" height="1" fill="white" fill-opacity="0.2" /><rect x="1428" y="341.5" width="188" height="1" fill="white" fill-opacity="0.2" /><rect x="1428" y="276.0" width="188" height="1" fill="white" fill-opacity="0.5" /><text x="1626" y="276.0" font-size="14" fill="white" font-family="monospace" dominant-baseline="initial">28</text><rect x="1428" y="210.5" width="188" height="1" fill="white" fill-opacity="0.2" /><rect x="1428" y="144.5" width="188" height="1" fill="white" fill-opacity="0.2" /><rect x="1428" y="79.0" width="188" height="1" fill="white" fill-opacity="0.2" /><rect x="1428" y="13.0" width="188" height="1" fill="white" fill-opacity="0.5" /><text x="1626" y="13.0" font-size="14" fill="white" font-family="monospace" dominant-baseline="initial">29</text><rect x="1428" y="276.0500000000002" width="188" height="1" fill="aqua" fill-opacity="0.75" /><text x="1428" y="272.0500000000002" font-size="14" fill="aqua" fill-opacity="0.75" font-family="monospace">Phrase D</text><rect x="1666" y="14.5" width="188" height="1051.0" fill="black" /><rect x="1666" y="1064.5" width="188" height="1" fill="white" fill-opacity="0.5" /><text x="1864" y="1064.5" font-size="14" fill="white" font-family="monospace" dominant-baseline="initial">29</text><rect x="1666" y="999.0" width="188" height="1" fill="white" fill-opacity="0.2" /><rect x="1666" y="933.5" width="188" height="1" fill="white" fill-opacity="0.2" /><rect x="1666" y="867.5" width="188" height="1" fill="white" fill-opacity="0.2" /><rect x="1666" y="802.0" width="188" height="1" fill="white" fill-opacity="0.5" /><text x="1864" y="802.0" font-size="14" fill="white" font-family="monospace" dominant-baseline="initial">30</text><rect x="1666" y="736.5" width="188" height="1" fill="white" fill-opacity="0.2" /><rect x="1666" y="670.5" width="188" height="1" fill="white" fill-opacity="0.2" /><rect x="1666" y="605.0" width="188" height="1" fill="white" fill-opacity="0.2" /><rect x="1666" y="539.0" width="188" height="1" fill="white" fill-opacity="0.5" /><text x="1864" y="539.0" font-size="14" fill="white" font-family="monospace" dominant-baseline="initial">31</text><rect x="1666" y="473.5" width="188" height="1" fill="white" fill-opacity="0.2" /><rect x="1666" y="408.0" width="188" height="1" fill="white" fill-opacity="0.2" /><rect x="1666" y="342.0" width="188" height="1" fill="white" fill-opacity="0.2" /><rect x="1666" y="276.5" width="188" height="1" fill="white" fill-opacity="0.5" /><text x="1864" y="276.5" font-size="14" fill="white" font-family="monospace" dominant-baseline="initial">32</text><rect x="1666" y="210.5" width="188" height="1" fill="white" fill-opacity="0.2" /><rect x="1666" y="145.0" width="188" height="1" fill="white" fill-opacity="0.2" /><rect x="1666" y="79.5" width="188" height="1" fill="white" fill-opacity="0.2" /><rect x="1666" y="13.5" width="188" height="1" fill="white" fill-opacity="0.5" /><text x="1864" y="13.5" font-size="14" fill="white" font-family="monospace" dominant-baseline="initial">33</text><rect x="1904" y="14.5" width="188" height="1051.0" fill="black" /><rect x="1904" y="1064.5" width="188" height="1" fill="white" fill-opacity="0.5" /><text x="2102" y="1064.5" font-size="14" fill="white" font-family="monospace" dominant-baseline="initial">33</text><rect x="1904" y="999.0" width="188" height="1" fill="white" fill-opacity="0.2" /><rect x="1904" y="933.0" width="188" height="1" fill="white" fill-opacity="0.2" /><rect x="1904" y="867.5" width="188" height="1" fill="white" fill-opacity="0.2" /><rect x="1904" y="802.0" width="188" height="1" fill="white" fill-opacity="0.5" /><text x="2102" y="802.0" font-size="14" fill="white" font-family="monospace" dominant-baseline="initial">34</text><rect x="1904" y="736.0" width="188" height="1" fill="white" fill-opacity="0.2" /><rect x="1904" y="670.5" width="188" height="1" fill="white" fill-opacity="0.2" /><rect x="1904" y="605.0" width="188" height="1" fill="white" fill-opacity="0.2" /><rect x="1904" y="539.0" width="188" height="1" fill="white" fill-opacity="0.5" /><text x="2102" y="539.0" font-size="14" fill="white" font-family="monospace" dominant-baseline="initial">35</text><rect x="1904" y="473.5" width="188" height="1" fill="white" fill-opacity="0.2" /><rect x="1904" y="407.5" width="188" height="1" fill="white" fill-opacity="0.2" /><rect x="1904" y="342.0" width="188" height="1" fill="white" fill-opacity="0.2" /><rect x="1904" y="276.5" width="188" height="1" fill="white" fill-opacity="0.5" /><text x="2102" y="276.5" font-size="14" fill="white" font-family="monospace" dominant-baseline="initial">36</text><rect x="1904" y="210.5" width="188" height="1" fill="white" fill-opacity="0.2" /><rect x="1904" y="145.0" width="188" height="1" fill="white" fill-opacity="0.2" /><rect x="1904" y="79.0" width="188" height="1" fill="white" fill-opacity="0.2" /><rect x="1904" y="13.5" width="188" height="1" fill="white" fill-opacity="0.5" /><text x="2102" y="13.5" font-size="14" fill="white" font-family="monospace" dominant-baseline="initial">37</text><rect x="2142" y="14.5" width="188" height="1051.0" fill="black" /><rect x="2142" y="1064.5" width="188" height="1" fill="white" fill-opacity="0.5" /><text x="2340" y="1064.5" font-size="14" fill="white" font-family="monospace" dominant-baseline="initial">37</text><rect x="2142" y="999.0" width="188" height="1" fill="white" fill-opacity="0.2" /><rect x="2142" y="933.0" width="188" height="1" fill="white" fill-opacity="0.2" /><rect x="2142" y="867.5" width="188" height="1" fill="white" fill-opacity="0.2" /><rect x="2142" y="802.0" width="188" height="1" fill="white" fill-opacity="0.5" /><text x="2340" y="802.0" font-size="14" fill="white" font-family="monospace" dominant-baseline="initial">38</text><rect x="2142" y="736.0" width="188" height="1" fill="white" fill-opacity="0.2" /><rect x="2142" y="670.5" width="188" height="1" fill="white" fill-opacity="0.2" /><rect x="2142" y="604.5" width="188" height="1" fill="white" fill-opacity="0.2" /><rect x="2142" y="539.0" width="188" height="1" fill="white" fill-opacity="0.5" /><text x="2340" y="539.0" font-size="14" fill="white" font-family="monospace" dominant-baseline="initial">39</text><rect x="2142" y="473.5" width="188" height="1" fill="white" fill-opacity="0.2" /><rect x="2142" y="407.5" width="188" height="1" fill="white" fill-opacity="0.2" /><rect x="2142" y="342.0" width="188" height="1" fill="white" fill-opacity="0.2" /><rect x="2142" y="276.0" width="188" height="1" fill="white" fill-opacity="0.5" /><text x="2340" y="276.0" font-size="14" fill="white" font-family="monospace" dominant-baseline="initial">40</text><rect x="2142" y="210.5" width="188" height="1" fill="white" fill-opacity="0.2" /><rect x="2142" y="145.0" width="188" height="1" fill="white" fill-opacity="0.2" /><rect x="2142" y="79.0" width="188" height="1" fill="white" fill-opacity="0.2" /><rect x="2142" y="13.5" width="188" height="1" fill="white" fill-opacity="0.5" /><text x="2340" y="13.5" font-size="14" fill="white" font-family="monospace" dominant-baseline="initial">41</text><rect x="2142" y="276.25" width="188" height="1" fill="aqua" fill-opacity="0.75" /><text x="2142" y="272.25" font-size="14" fill="aqua" fill-opacity="0.75" font-family="monospace">Special</text><rect x="2380" y="14.5" width="188" height="1051.0" fill="black" /><rect x="2380" y="1064.5" width="188" height="1" fill="white" fill-opacity="0.5" /><text x="2578" y="1064.5" font-size="14" fill="white" font-family="monospace" dominant-baseline="initial">41</text><rect x="2380" y="998.5" width="188" height="1" fill="white" fill-opacity="0.2" /><rect x="2380" y="933.0" width="188" height="1" fill="white" fill-opacity="0.2" /><rect x="2380" y="867.5" width="188" height="1" fill="white" fill-opacity="0.2" /><rect x="2380" y="801.5" width="188" height="1" fill="white" fill-opacity="0.5" /><text x="2578" y="801.5" font-size="14" fill="white" font-family="monospace" dominant-baseline="initial">42</text><rect x="2380" y="736.0" width="188" height="1" fill="white" fill-opacity="0.2" /><rect x="2380" y="670.5" width="188" height="1" fill="white" fill-opacity="0.2" /><rect x="2380" y="604.5" width="188" height="1" fill="white" fill-opacity="0.2" /><rect x="2380" y="539.0" width="188" height="1" fill="white" fill-opacity="0.5" /><text x="2578" y="539.0" font-size="14" fill="white" font-family="monospace" dominant-baseline="initial">43</text><rect x="2380" y="473.0" width="188" height="1" fill="white" fill-opacity="0.2" /><rect x="2380" y="407.5" width="188" height="1" fill="white" fill-opacity="0.2" /><rect x="2380" y="342.0" width="188" height="1" fill="white" fill-opacity="0.2" /><rect x="2380" y="276.0" width="188" height="1" fill="white" fill-opacity="0.5" /><text x="2578" y="276.0" font-size="14" fill="white" font-family="monospace" dominant-baseline="initial">44</text><rect x="2380" y="210.5" width="188" height="1" fill="white" fill-opacity="0.2" /><rect x="2380" y="144.5" width="188" height="1" fill="white" fill-opacity="0.2" /><rect x="2380" y="79.0" width="188" height="1" fill="white" fill-opacity="0.2" /><rect x="2380" y="13.5" width="188" height="1" fill="white" fill-opacity="0.5" /><text x="2578" y="13.5" font-size="14" fill="white" font-family="monospace" dominant-baseline="initial">45</text><rect x="2618" y="14.5" width="188" height="1051.0" fill="black" /><rect x="2618" y="1064.5" width="188" height="1" fill="white" fill-opacity="0.5" /><text x="2816" y="1064.5" font-size="14" fill="white" font-family="monospace" dominant-baseline="initial">45</text><rect x="2618" y="998.5" width="188" height="1" fill="white" fill-opacity="0.2" /><rect x="2618" y="933.0" width="188" height="1" fill="white" fill-opacity="0.2" /><rect x="2618" y="867.5" width="188" height="1" fill="white" fill-opacity="0.2" /><rect x="2618" y="801.5" width="188" height="1" fill="white" fill-opacity="0.5" /><text x="2816" y="801.5" font-size="14" fill="white" font-family="monospace" dominant-baseline="initial">46</text><rect x="2618" y="736.0" width="188" height="1" fill="white" fill-opacity="0.2" /><rect x="2618" y="670.0" width="188" height="1" fill="white" fill-opacity="0.2" /><rect x="2618" y="604.5" width="188" height="1" fill="white" fill-opacity="0.2" /><rect x="2618" y="539.0" width="188" height="1" fill="white" fill-opacity="0.5" /><text x="2816" y="539.0" font-size="14" fill="white" font-family="monospace" dominant-baseline="initial">47</text><rect x="2618" y="473.0" width="188" height="1" fill="white" fill-opacity="0.2" /><rect x="2618" y="407.5" width="188" height="1" fill="white" fill-opacity="0.2" /><rect x="2618" y="341.5" width="188" height="1" fill="white" fill-opacity="0.2" /><rect x="2618" y="276.0" width="188" height="1" fill="white" fill-opacity="0.5" /><text x="2816" y="276.0" font-size="14" fill="white" font-family="monospace" dominant-baseline="initial">48</text><rect x="2618" y="210.5" width="188" height="1" fill="white" fill-opacity="0.2" /><rect x="2618" y="144.5" width="188" height="1" fill="white" fill-opacity="0.2" /><rect x="2618" y="79.0" width="188" height="1" fill="white" fill-opacity="0.2" /><rect x="2618" y="13.5" width="188" height="1" fill="white" fill-opacity="0.5" /><text x="2816" y="13.5" font-size="14" fill="white" font-family="monospace" dominant-baseline="initial">49</text><rect x="2856" y="14.0" width="188" height="1051.5" fill="black" /><rect x="2856" y="1064.5" width="188" height="1" fill="white" fill-opacity="0.5" /><text x="3054" y="1064.5" font-size="14" fill="white" font-family="monospace" dominant-baseline="initial">49</text><rect x="2856" y="998.5" width="188" height="1" fill="white" fill-opacity="0.2" /><rect x="2856" y="933.0" width="188" height="1" fill="white" fill-opacity="0.2" /><rect x="2856" y="867.0" width="188" height="1" fill="white" fill-opacity="0.2" /><rect x="2856" y="801.5" width="188" height="1" fill="white" fill-opacity="0.5" /><text x="3054" y="801.5" font-size="14" fill="white" font-family="monospace" dominant-baseline="initial">50</text><rect x="2856" y="736.0" width="188" height="1" fill="white" fill-opacity="0.2" /><rect x="2856" y="670.0" width="188" height="1" fill="white" fill-opacity="0.2" /><rect x="2856" y="604.5" width="188" height="1" fill="white" fill-opacity="0.2" /><rect x="2856" y="538.5" width="188" height="1" fill="white" fill-opacity="0.5" /><text x="3054" y="538.5" font-size="14" fill="white" font-family="monospace" dominant-baseline="initial">51</text><rect x="2856" y="473.0" width="188" height="1" fill="white" fill-opacity="0.2" /><rect x="2856" y="407.5" width="188" height="1" fill="white" fill-opacity="0.2" /><rect x="2856" y="341.5" width="188" height="1" fill="white" fill-opacity="0.2" /><rect x="2856" y="276.0" width="188" height="1" fill="white" fill-opacity="0.5" /><text x="3054" y="276.0" font-size="14" fill="white" font-family="monospace" dominant-baseline="initial">52</text><rect x="2856" y="210.0" width="188" height="1" fill="white" fill-opacity="0.2" /><rect x="2856" y="144.5" width="188" height="1" fill="white" fill-opacity="0.2" /><rect x="2856" y="79.0" width="188" height="1" fill="white" fill-opacity="0.2" /><rect x="2856" y="13.0" width="188" height="1" fill="white" fill-opacity="0.5" /><text x="3054" y="13.0" font-size="14" fill="white" font-family="monospace" dominant-baseline="initial">53</text><rect x="3094" y="14.5" width="188" height="1051.0" fill="black" /><rect x="3094" y="1064.5" width="188" height="1" fill="white" fill-opacity="0.5" /><text x="3292" y="1064.5" font-size="14" fill="white" font-family="monospace" dominant-baseline="initial">53</text><rect x="3094" y="999.0" width="188" height="1" fill="white" fill-opacity="0.2" /><rect x="3094" y="933.5" width="188" height="1" fill="white" fill-opacity="0.2" /><rect x="3094" y="867.5" width="188" height="1" fill="white" fill-opacity="0.2" /><rect x="3094" y="802.0" width="188" height="1" fill="white" fill-opacity="0.5" /><text x="3292" y="802.0" font-size="14" fill="white" font-family="monospace" dominant-baseline="initial">54</text><rect x="3094" y="736.0" width="188" height="1" fill="white" fill-opacity="0.2" /><rect x="3094" y="670.5" width="188" height="1" fill="white" fill-opacity="0.2" /><rect x="3094" y="605.0" width="188" height="1" fill="white" fill-opacity="0.2" /><rect x="3094" y="539.0" width="188" height="1" fill="white" fill-opacity="0.5" /><text x="3292" y="539.0" font-size="14" fill="white" font-family="monospace" dominant-baseline="initial">55</text><rect x="3094" y="473.5" width="188" height="1" fill="white" fill-opacity="0.2" /><rect x="3094" y="407.5" width="188" height="1" fill="white" fill-opacity="0.2" /><rect x="3094" y="342.0" width="188" height="1" fill="white" fill-opacity="0.2" /><rect x="3094" y="276.5" width="188" height="1" fill="white" fill-opacity="0.5" /><text x="3292" y="276.5" font-size="14" fill="white" font-family="monospace" dominant-baseline="initial">56</text><rect x="3094" y="210.5" width="188" height="1" fill="white" fill-opacity="0.2" /><rect x="3094" y="145.0" width="188" height="1" fill="white" fill-opacity="0.2" /><rect x="3094" y="79.5" width="188" height="1" fill="white" fill-opacity="0.2" /><rect x="3094" y="13.5" width="188" height="1" fill="white" fill-opacity="0.5" /><text x="3292" y="13.5" font-size="14" fill="white" font-family="monospace" dominant-baseline="initial">57</text><rect x="3094" y="276.40000000000146" width="188" height="1" fill="aqua" fill-opacity="0.75" /><text x="3094" y="272.40000000000146" font-size="14" fill="aqua" fill-opacity="0.75" font-family="monospace">Phrase E</text><rect x="3332" y="576.5" width="188" height="489.0" fill="black" /><rect x="3332" y="1064.5" width="188" height="1" fill="white" fill-opacity="0.5" /><text x="3530" y="1064.5" font-size="14" fill="white" font-family="monospace" dominant-baseline="initial">57</text><rect x="3332" y="999.0" width="188" height="1" fill="white" fill-opacity="0.2" /><rect x="3332" y="933.0" width="188" height="1" fill="white" fill-opacity="0.2" /><rect x="3332" y="867.5" width="188" height="1" fill="white" fill-opacity="0.2" /><rect x="3332" y="802.0" width="188" height="1" fill="white" fill-opacity="0.5" /><text x="3530" y="802.0" font-size="14" fill="white" font-family="monospace" dominant-baseline="initial">58</text></svg>