<?xml version="1.0" encoding="UTF-8"?><svg xmlns="http://www.w3.org/2000/svg" xmlns:xlink="http://www.w3.org/1999/xlink"     width="1824" height="987.0" viewBox="0 0 1824 987.0"><defs></defs><rect x="114.0" y="243.0" width="12.0" height="3" fill="#ff3c3c" stroke="#c71f1f" /><rect x="114.0" y="258.5" width="12.0" height="3" fill="#ff3c3c" stroke="#c71f1f" /><rect x="127.0" y="289.0" width="12.0" height="3" fill="#35df39" stroke="#03aa10" /><rect x="114.0" y="304.0" width="12.0" height="3" fill="#ff3c3c" stroke="#c71f1f" /><rect x="127.0" y="319.0" width="12.0" height="3" fill="#35df39" stroke="#03aa10" /><rect x="127.0" y="349.5" width="12.0" height="3" fill="#35df39" stroke="#03aa10" /><rect x="127.0" y="380.0" width="12.0" height="3" fill="#35df39" stroke="#03aa10" /><rect x="114.0" y="395.0" width="12.0" height="3" fill="#ff3c3c" stroke="#c71f1f" /><rect x="127.0" y="410.5" width="12.0" height="3" fill="#35df39" stroke="#03aa10" /><rect x="127.0" y="441.0" width="12.0" height="3" fill="#35df39" stroke="#03aa10" /><rect x="166.0" y="456.0" width="12.0" height="3" fill="#ff83f4" stroke="#d002bc" /><rect x="114" y="456.0" width="64" height="3" fill="#ff72e7" stroke="#7c7c7c" /><rect x="166.0" y="471.5" width="12.0" height="3" fill="#ff83f4" stroke="#d002bc" /><rect x="114" y="471.5" width="64" height="3" fill="#ff72e7" stroke="#7c7c7c" /><rect x="114.0" y="486.5" width="12.0" height="3" fill="#ff3c3c" stroke="#c71f1f" /><rect x="114.0" y="501.5" width="12.0" height="3" fill="#ff3c3c" stroke="#c71f1f" /><rect x="127.0" y="532.0" width="12.0" height="3" fill="#35df39" stroke="#03aa10" /><rect x="114.0" y="547.5" width="12.0" height="3" fill="#ff3c3c" stroke="#c71f1f" /><rect x="127.0" y="562.5" width="12.0" height="3" fill="#35df39" stroke="#03aa10" /><rect x="127.0" y="593.0" width="12.0" height="3" fill="#35df39" stroke="#03aa10" /><rect x="127.0" y="623.5" width="12.0" height="3" fill="#35df39" stroke="#03aa10" /><rect x="114.0" y="638.5" width="12.0" height="3" fill="#ff3c3c" stroke="#c71f1f" /><rect x="127.0" y="653.5" width="12.0" height="3" fill="#35df39" stroke="#03aa10" /><rect x="127.0" y="684.0" width="12.0" height="3" fill="#35df39" stroke="#03aa10" /><rect x="166.0" y="699.5" width="12.0" height="3" fill="#ff83f4" stroke="#d002bc" /><rect x="114" y="699.5" width="64" height="3" fill="#ff72e7" stroke="#7c7c7c" /><rect x="166.0" y="714.5" width="12.0" height="3" fill="#ff83f4" stroke="#d002bc" /><rect x="114" y="714.5" width="64" height="3" fill="#ff72e7" stroke="#7c7c7c" /><rect x="114.0" y="729.5" width="12.0" height="3" fill="#ff3c3c" stroke="#c71f1f" /><rect x="114.0" y="745.0" width="12.0" height="3" fill="#ff3c3c" stroke="#c71f1f" /><rect x="127.0" y="775.5" width="12.0" height="3" fill="#35df39" stroke="#03aa10" /><rect x="114.0" y="790.5" width="12.0" height="3" fill="#ff3c3c" stroke="#c71f1f" /><rect x="127.0" y="805.5" width="12.0" height="3" fill="#35df39" stroke="#03aa10" /><rect x="127.0" y="836.0" width="12.0" height="3" fill="#35df39" stroke="#03aa10" /><rect x="127.0" y="866.5" width="12.0" height="3" fill="#35df39" stroke="#03aa10" /><rect x="114.0" y="881.5" width="12.0" height="3" fill="#ff3c3c" stroke="#c71f1f" /><rect x="127.0" y="897.0" width="12.0" height="3" fill="#35df39" stroke="#03aa10" /><rect x="127.0" y="927.5" width="12.0" height="3" fill="#35df39" stroke="#03aa10" /><rect x="166.0" y="942.5" width="12.0" height="3" fill="#ff83f4" stroke="#d002bc" /><rect x="114" y="942.5" width="64" height="3" fill="#ff72e7" stroke="#7c7c7c" /><rect x="166.0" y="957.5" width="12.0" height="3" fill="#ff83f4" stroke="#d002bc" /><rect x="114" y="957.5" width="64" height="3" fill="#ff72e7" stroke="#7c7c7c" /><rect x="228.0" y="0.0" width="12.0" height="3" fill="#ff3c3c" stroke="#c71f1f" /><rect x="228.0" y="15.0" width="12.0" height="3" fill="#ff3c3c" stroke="#c71f1f" /><rect x="241.0" y="45.5" width="12.0" height="3" fill="#35df39" stroke="#03aa10" /><rect x="228.0" y="61.0" width="12.0" height="3" fill="#ff3c3c" stroke="#c71f1f" /><rect x="241.0" y="76.0" width="12.0" height="3" fill="#35df39" stroke="#03aa10" /><rect x="241.0" y="106.5" width="12.0" height="3" fill="#35df39" stroke="#03aa10" /><rect x="241.0" y="137.0" width="12.0" height="3" fill="#35df39" stroke="#03aa10" /><rect x="228.0" y="152.0" width="12.0" height="3" fill="#ff3c3c" stroke="#c71f1f" /><rect x="241.0" y="167.0" width="12.0" height="3" fill="#35df39" stroke="#03aa10" /><rect x="241.0" y="197.5" width="12.0" height="3" fill="#35df39" stroke="#03aa10" /><rect x="228.0" y="213.0" width="12.0" height="3" fill="#ff3c3c" stroke="#c71f1f" /><rect x="254.0" y="228.0" width="12.0" height="3" fill="#80c9ff" stroke="#0b6cba" /><rect x="228.0" y="243.0" width="12.0" height="3" fill="#ff3c3c" stroke="#c71f1f" /><rect x="228.0" y="258.5" width="12.0" height="3" fill="#ff3c3c" stroke="#c71f1f" /><rect x="241.0" y="289.0" width="12.0" height="3" fill="#35df39" stroke="#03aa10" /><rect x="228.0" y="304.0" width="12.0" height="3" fill="#ff3c3c" stroke="#c71f1f" /><rect x="241.0" y="319.0" width="12.0" height="3" fill="#35df39" stroke="#03aa10" /><rect x="241.0" y="349.5" width="12.0" height="3" fill="#35df39" stroke="#03aa10" /><rect x="241.0" y="380.0" width="12.0" height="3" fill="#35df39" stroke="#03aa10" /><rect x="228.0" y="395.0" width="12.0" height="3" fill="#ff3c3c" stroke="#c71f1f" /><rect x="241.0" y="410.5" width="12.0" height="3" fill="#35df39" stroke="#03aa10" /><rect x="241.0" y="441.0" width="12.0" height="3" fill="#35df39" stroke="#03aa10" /><rect x="280.0" y="456.0" width="12.0" height="3" fill="#ff83f4" stroke="#d002bc" /><rect x="228" y="456.0" width="64" height="3" fill="#ff72e7" stroke="#7c7c7c" /><rect x="280.0" y="471.0" width="12.0" height="3" fill="#ff83f4" stroke="#d002bc" /><rect x="228" y="471.0" width="64" height="3" fill="#ff72e7" stroke="#7c7c7c" /><rect x="228.0" y="486.5" width="12.0" height="3" fill="#ff3c3c" stroke="#c71f1f" /><rect x="228.0" y="501.5" width="12.0" height="3" fill="#ff3c3c" stroke="#c71f1f" /><rect x="241.0" y="532.0" width="12.0" height="3" fill="#35df39" stroke="#03aa10" /><rect x="228.0" y="547.0" width="12.0" height="3" fill="#ff3c3c" stroke="#c71f1f" /><rect x="241.0" y="562.5" width="12.0" height="3" fill="#35df39" stroke="#03aa10" /><rect x="254.0" y="593.0" width="12.0" height="3" fill="#80c9ff" stroke="#0b6cba" /><rect x="241.0" y="623.5" width="12.0" height="3" fill="#35df39" stroke="#03aa10" /><rect x="228.0" y="638.5" width="12.0" height="3" fill="#ff3c3c" stroke="#c71f1f" /><rect x="241.0" y="653.5" width="12.0" height="3" fill="#35df39" stroke="#03aa10" /><rect x="241.0" y="684.0" width="12.0" height="3" fill="#35df39" stroke="#03aa10" /><rect x="228.0" y="699.5" width="12.0" height="3" fill="#ff3c3c" stroke="#c71f1f" /><rect x="254.0" y="714.5" width="12.0" height="3" fill="#80c9ff" stroke="#0b6cba" /><rect x="228.0" y="729.5" width="12.0" height="3" fill="#ff3c3c" stroke="#c71f1f" /><rect x="228.0" y="745.0" width="12.0" height="3" fill="#ff3c3c" stroke="#c71f1f" /><rect x="241.0" y="775.5" width="12.0" height="3" fill="#35df39" stroke="#03aa10" /><rect x="228.0" y="790.5" width="12.0" height="3" fill="#ff3c3c" stroke="#c71f1f" /><rect x="241.0" y="805.5" width="12.0" height="3" fill="#35df39" stroke="#03aa10" /><rect x="241.0" y="836.0" width="12.0" height="3" fill="#35df39" stroke="#03aa10" /><rect x="241.0" y="866.5" width="12.0" height="3" fill="#35df39" stroke="#03aa10" /><rect x="228.0" y="881.5" width="12.0" height="3" fill="#ff3c3c" stroke="#c71f1f" /><rect x="241.0" y="897.0" width="12.0" height="3" fill="#35df39" stroke="#03aa10" /><rect x="241.0" y="927.5" width="12.0" height="3" fill="#35df39" stroke="#03aa10" /><rect x="280.0" y="942.5" width="12.0" height="3" fill="#ff83f4" stroke="#d002bc" /><rect x="228" y="942.5" width="64" height="3" fill="#ff72e7" stroke="#7c7c7c" /><rect x="280.0" y="957.5" width="12.0" height="3" fill="#ff83f4" stroke="#d002bc" /><rect x="228" y="957.5" width="64" height="3" fill="#ff72e7" stroke="#7c7c7c" /><rect x="342.0" y="0.0" width="12.0" height="3" fill="#ff3c3c" stroke="#c71f1f" /><rect x="342.0" y="15.0" width="12.0" height="3" fill="#ff3c3c" stroke="#c71f1f" /><rect x="355.0" y="45.5" width="12.0" height="3" fill="#35df39" stroke="#03aa10" /><rect x="342.0" y="60.5" width="12.0" height="3" fill="#ff3c3c" stroke="#c71f1f" /><rect x="355.0" y="76.0" width="12.0" height="3" fill="#35df39" stroke="#03aa10" /><rect x="342.0" y="106.5" width="12.0" height="3" fill="#ff3c3c" stroke="#c71f1f" /><rect x="355.0" y="136.5" width="12.0" height="3" fill="#35df39" stroke="#03aa10" /><rect x="342.0" y="152.0" width="12.0" height="3" fill="#ff3c3c" stroke="#c71f1f" /><rect x="355.0" y="167.0" width="12.0" height="3" fill="#35df39" stroke="#03aa10" /><rect x="355.0" y="243.0" width="12.0" height="3" fill="#35df39" stroke="#03aa10" /><rect x="368.0" y="273.5" width="12.0" height="3" fill="#80c9ff" stroke="#0b6cba" /><rect x="368.0" y="289.0" width="12.0" height="3" fill="#80c9ff" stroke="#0b6cba" /><rect x="342.0" y="319.0" width="12.0" height="3" fill="#ff3c3c" stroke="#c71f1f" /><rect x="355.0" y="349.5" width="12.0" height="3" fill="#35df39" stroke="#03aa10" /><rect x="355.0" y="380.0" width="12.0" height="3" fill="#35df39" stroke="#03aa10" /><rect x="355.0" y="395.0" width="12.0" height="3" fill="#35df39" stroke="#03aa10" /><rect x="355.0" y="410.5" width="12.0" height="3" fill="#35df39" stroke="#03aa10" /><rect x="368.0" y="441.0" width="12.0" height="3" fill="#80c9ff" stroke="#0b6cba" /><rect x="355.0" y="456.0" width="12.0" height="3" fill="#35df39" stroke="#03aa10" /><rect x="355.0" y="471.0" width="12.0" height="3" fill="#35df39" stroke="#03aa10" /><rect x="368.0" y="486.5" width="12.0" height="3" fill="#80c9ff" stroke="#0b6cba" /><rect x="368.0" y="517.0" width="12.0" height="3" fill="#80c9ff" stroke="#0b6cba" /><rect x="355.0" y="532.0" width="12.0" height="3" fill="#35df39" stroke="#03aa10" /><rect x="355.0" y="547.0" width="12.0" height="3" fill="#35df39" stroke="#03aa10" /><rect x="368.0" y="562.5" width="12.0" height="3" fill="#80c9ff" stroke="#0b6cba" /><rect x="381.0" y="593.0" width="12.0" height="3" fill="#fff874" stroke="#eb9c26" /><rect x="368.0" y="623.0" width="12.0" height="3" fill="#80c9ff" stroke="#0b6cba" /><rect x="355.0" y="638.5" width="12.0" height="3" fill="#35df39" stroke="#03aa10" /><rect x="368.0" y="653.5" width="12.0" height="3" fill="#80c9ff" stroke="#0b6cba" /><rect x="368.0" y="684.0" width="12.0" height="3" fill="#80c9ff" stroke="#0b6cba" /><rect x="355.0" y="699.0" width="12.0" height="3" fill="#35df39" stroke="#03aa10" /><rect x="368.0" y="714.5" width="12.0" height="3" fill="#80c9ff" stroke="#0b6cba" /><rect x="355.0" y="729.5" width="12.0" height="3" fill="#35df39" stroke="#03aa10" /><rect x="368.0" y="760.0" width="12.0" height="3" fill="#80c9ff" stroke="#0b6cba" /><rect x="355.0" y="775.5" width="12.0" height="3" fill="#35df39" stroke="#03aa10" /><rect x="368.0" y="790.5" width="12.0" height="3" fill="#80c9ff" stroke="#0b6cba" /><rect x="368.0" y="836.0" width="12.0" height="3" fill="#80c9ff" stroke="#0b6cba" /><rect x="355.0" y="866.5" width="12.0" height="3" fill="#35df39" stroke="#03aa10" /><rect x="355.0" y="881.5" width="12.0" height="3" fill="#35df39" stroke="#03aa10" /><rect x="368.0" y="897.0" width="12.0" height="3" fill="#80c9ff" stroke="#0b6cba" /><rect x="381.0" y="927.5" width="12.0" height="3" fill="#fff874" stroke="#eb9c26" /><rect x="355.0" y="942.5" width="12.0" height="3" fill="#35df39" stroke="#03aa10" /><rect x="355.0" y="957.5" width="12.0" height="3" fill="#35df39" stroke="#03aa10" /><rect x="469.0" y="0.0" width="12.0" height="3" fill="#35df39" stroke="#03aa10" /><rect x="482.0" y="15.0" width="12.0" height="3" fill="#80c9ff" stroke="#0b6cba" /><rect x="469.0" y="45.5" width="12.0" height="3" fill="#35df39" stroke="#03aa10" /><rect x="469.0" y="60.5" width="12.0" height="3" fill="#35df39" stroke="#03aa10" /><rect x="482.0" y="76.0" width="12.0" height="3" fill="#80c9ff" stroke="#0b6cba" /><rect x="469.0" y="106.5" width="12.0" height="3" fill="#35df39" stroke="#03aa10" /><rect x="482.0" y="136.5" width="12.0" height="3" fill="#80c9ff" stroke="#0b6cba" /><rect x="469.0" y="152.0" width="12.0" height="3" fill="#35df39" stroke="#03aa10" /><rect x="482.0" y="167.0" width="12.0" height="3" fill="#80c9ff" stroke="#0b6cba" /><rect x="482.0" y="197.5" width="12.0" height="3" fill="#80c9ff" stroke="#0b6cba" /><rect x="482.0" y="212.5" width="12.0" height="3" fill="#80c9ff" stroke="#0b6cba" /><rect x="495.0" y="228.0" width="12.0" height="3" fill="#fff874" stroke="#eb9c26" /><rect x="482.0" y="243.0" width="12.0" height="3" fill="#80c9ff" stroke="#0b6cba" /><rect x="482.0" y="273.5" width="12.0" height="3" fill="#80c9ff" stroke="#0b6cba" /><rect x="469.0" y="288.5" width="12.0" height="3" fill="#35df39" stroke="#03aa10" /><rect x="469.0" y="319.0" width="12.0" height="3" fill="#35df39" stroke="#03aa10" /><rect x="482.0" y="349.5" width="12.0" height="3" fill="#80c9ff" stroke="#0b6cba" /><rect x="482.0" y="380.0" width="12.0" height="3" fill="#80c9ff" stroke="#0b6cba" /><rect x="469.0" y="395.0" width="12.0" height="3" fill="#35df39" stroke="#03aa10" /><rect x="482.0" y="410.5" width="12.0" height="3" fill="#80c9ff" stroke="#0b6cba" /><rect x="482.0" y="441.0" width="12.0" height="3" fill="#80c9ff" stroke="#0b6cba" /><rect x="469.0" y="456.0" width="12.0" height="3" fill="#35df39" stroke="#03aa10" /><rect x="482.0" y="471.0" width="12.0" height="3" fill="#80c9ff" stroke="#0b6cba" /><rect x="469.0" y="486.5" width="12.0" height="3" fill="#35df39" stroke="#03aa10" /><rect x="469.0" y="517.0" width="12.0" height="3" fill="#35df39" stroke="#03aa10" /><rect x="469.0" y="532.0" width="12.0" height="3" fill="#35df39" stroke="#03aa10" /><rect x="482.0" y="547.0" width="12.0" height="3" fill="#80c9ff" stroke="#0b6cba" /><rect x="482.0" y="562.5" width="12.0" height="3" fill="#80c9ff" stroke="#0b6cba" /><rect x="495.0" y="593.0" width="12.0" height="3" fill="#fff874" stroke="#eb9c26" /><rect x="482.0" y="623.0" width="12.0" height="3" fill="#80c9ff" stroke="#0b6cba" /><rect x="469.0" y="638.5" width="12.0" height="3" fill="#35df39" stroke="#03aa10" /><rect x="482.0" y="653.5" width="12.0" height="3" fill="#80c9ff" stroke="#0b6cba" /><rect x="482.0" y="684.0" width="12.0" height="3" fill="#80c9ff" stroke="#0b6cba" /><rect x="469.0" y="699.0" width="12.0" height="3" fill="#35df39" stroke="#03aa10" /><rect x="482.0" y="714.5" width="12.0" height="3" fill="#80c9ff" stroke="#0b6cba" /><rect x="469.0" y="729.5" width="12.0" height="3" fill="#35df39" stroke="#03aa10" /><rect x="482.0" y="760.0" width="12.0" height="3" fill="#80c9ff" stroke="#0b6cba" /><rect x="456.0" y="775.0" width="12.0" height="3" fill="#ff3c3c" stroke="#c71f1f" /><rect x="469.0" y="790.5" width="12.0" height="3" fill="#35df39" stroke="#03aa10" /><rect x="482.0" y="836.0" width="12.0" height="3" fill="#80c9ff" stroke="#0b6cba" /><rect x="469.0" y="866.5" width="12.0" height="3" fill="#35df39" stroke="#03aa10" /><rect x="469.0" y="881.5" width="12.0" height="3" fill="#35df39" stroke="#03aa10" /><rect x="482.0" y="897.0" width="12.0" height="3" fill="#80c9ff" stroke="#0b6cba" /><rect x="495.0" y="927.5" width="12.0" height="3" fill="#fff874" stroke="#eb9c26" /><rect x="508.0" y="942.5" width="12.0" height="3" fill="#ff83f4" stroke="#d002bc" /><rect x="456" y="942.5" width="64" height="3" fill="#ff72e7" stroke="#7c7c7c" /><rect x="508.0" y="957.5" width="12.0" height="3" fill="#ff83f4" stroke="#d002bc" /><rect x="456" y="957.5" width="64" height="3" fill="#ff72e7" stroke="#7c7c7c" /><rect x="622.0" y="0.0" width="12.0" height="3" fill="#ff83f4" stroke="#d002bc" /><rect x="570" y="0.0" width="64" height="3" fill="#ff72e7" stroke="#7c7c7c" /><rect x="596.0" y="15.0" width="12.0" height="3" fill="#80c9ff" stroke="#0b6cba" /><rect x="609.0" y="45.5" width="12.0" height="3" fill="#fff874" stroke="#eb9c26" /><rect x="596.0" y="60.5" width="12.0" height="3" fill="#80c9ff" stroke="#0b6cba" /><rect x="596.0" y="76.0" width="12.0" height="3" fill="#80c9ff" stroke="#0b6cba" /><rect x="609.0" y="106.5" width="12.0" height="3" fill="#fff874" stroke="#eb9c26" /><rect x="596.0" y="136.5" width="12.0" height="3" fill="#80c9ff" stroke="#0b6cba" /><rect x="583.0" y="152.0" width="12.0" height="3" fill="#35df39" stroke="#03aa10" /><rect x="596.0" y="167.0" width="12.0" height="3" fill="#80c9ff" stroke="#0b6cba" /><rect x="596.0" y="197.5" width="12.0" height="3" fill="#80c9ff" stroke="#0b6cba" /><rect x="583.0" y="212.5" width="12.0" height="3" fill="#35df39" stroke="#03aa10" /><rect x="596.0" y="228.0" width="12.0" height="3" fill="#80c9ff" stroke="#0b6cba" /><rect x="570.0" y="243.0" width="12.0" height="3" fill="#ff3c3c" stroke="#c71f1f" /><rect x="583.0" y="273.5" width="12.0" height="3" fill="#35df39" stroke="#03aa10" /><rect x="570.0" y="288.5" width="12.0" height="3" fill="#ff3c3c" stroke="#c71f1f" /><rect x="570.0" y="319.0" width="12.0" height="3" fill="#ff3c3c" stroke="#c71f1f" /><rect x="583.0" y="349.5" width="12.0" height="3" fill="#35df39" stroke="#03aa10" /><rect x="583.0" y="380.0" width="12.0" height="3" fill="#35df39" stroke="#03aa10" /><rect x="570.0" y="395.0" width="12.0" height="3" fill="#ff3c3c" stroke="#c71f1f" /><rect x="583.0" y="410.5" width="12.0" height="3" fill="#35df39" stroke="#03aa10" /><rect x="583.0" y="440.5" width="12.0" height="3" fill="#35df39" stroke="#03aa10" /><rect x="570.0" y="456.0" width="12.0" height="3" fill="#ff3c3c" stroke="#c71f1f" /><rect x="570.0" y="471.0" width="12.0" height="3" fill="#ff3c3c" stroke="#c71f1f" /><rect x="583.0" y="486.5" width="12.0" height="3" fill="#35df39" stroke="#03aa10" /><rect x="596.0" y="517.0" width="12.0" height="3" fill="#80c9ff" stroke="#0b6cba" /><rect x="583.0" y="532.0" width="12.0" height="3" fill="#35df39" stroke="#03aa10" /><rect x="583.0" y="547.0" width="12.0" height="3" fill="#35df39" stroke="#03aa10" /><rect x="596.0" y="562.5" width="12.0" height="3" fill="#80c9ff" stroke="#0b6cba" /><rect x="609.0" y="593.0" width="12.0" height="3" fill="#fff874" stroke="#eb9c26" /><rect x="596.0" y="623.0" width="12.0" height="3" fill="#80c9ff" stroke="#0b6cba" /><rect x="583.0" y="638.5" width="12.0" height="3" fill="#35df39" stroke="#03aa10" /><rect x="596.0" y="653.5" width="12.0" height="3" fill="#80c9ff" stroke="#0b6cba" /><rect x="596.0" y="684.0" width="12.0" height="3" fill="#80c9ff" stroke="#0b6cba" /><rect x="583.0" y="699.0" width="12.0" height="3" fill="#35df39" stroke="#03aa10" /><rect x="596.0" y="714.5" width="12.0" height="3" fill="#80c9ff" stroke="#0b6cba" /><rect x="570.0" y="729.5" width="12.0" height="3" fill="#ff3c3c" stroke="#c71f1f" /><rect x="583.0" y="760.0" width="12.0" height="3" fill="#35df39" stroke="#03aa10" /><rect x="570.0" y="775.0" width="12.0" height="3" fill="#ff3c3c" stroke="#c71f1f" /><rect x="583.0" y="790.5" width="12.0" height="3" fill="#35df39" stroke="#03aa10" /><rect x="583.0" y="836.0" width="12.0" height="3" fill="#35df39" stroke="#03aa10" /><rect x="583.0" y="866.5" width="12.0" height="3" fill="#35df39" stroke="#03aa10" /><rect x="570.0" y="881.5" width="12.0" height="3" fill="#ff3c3c" stroke="#c71f1f" /><rect x="583.0" y="897.0" width="12.0" height="3" fill="#35df39" stroke="#03aa10" /><rect x="583.0" y="927.0" width="12.0" height="3" fill="#35df39" stroke="#03aa10" /><rect x="570.0" y="942.5" width="12.0" height="3" fill="#ff3c3c" stroke="#c71f1f" /><rect x="570.0" y="957.5" width="12.0" height="3" fill="#ff3c3c" stroke="#c71f1f" /><rect x="697.0" y="0.0" width="12.0" height="3" fill="#35df39" stroke="#03aa10" /><rect x="710.0" y="15.0" width="12.0" height="3" fill="#80c9ff" stroke="#0b6cba" /><rect x="697.0" y="45.5" width="12.0" height="3" fill="#35df39" stroke="#03aa10" /><rect x="697.0" y="60.5" width="12.0" height="3" fill="#35df39" stroke="#03aa10" /><rect x="710.0" y="76.0" width="12.0" height="3" fill="#80c9ff" stroke="#0b6cba" /><rect x="684.0" y="106.5" width="12.0" height="3" fill="#ff3c3c" stroke="#c71f1f" /><rect x="710.0" y="136.5" width="12.0" height="3" fill="#80c9ff" stroke="#0b6cba" /><rect x="697.0" y="152.0" width="12.0" height="3" fill="#35df39" stroke="#03aa10" /><rect x="710.0" y="167.0" width="12.0" height="3" fill="#80c9ff" stroke="#0b6cba" /><rect x="710.0" y="197.5" width="12.0" height="3" fill="#80c9ff" stroke="#0b6cba" /><rect x="697.0" y="212.5" width="12.0" height="3" fill="#35df39" stroke="#03aa10" /><rect x="710.0" y="228.0" width="12.0" height="3" fill="#80c9ff" stroke="#0b6cba" /><rect x="684.0" y="243.0" width="12.0" height="3" fill="#ff3c3c" stroke="#c71f1f" /><rect x="697.0" y="273.5" width="12.0" height="3" fill="#35df39" stroke="#03aa10" /><rect x="684.0" y="288.5" width="12.0" height="3" fill="#ff3c3c" stroke="#c71f1f" /><rect x="684.0" y="319.0" width="12.0" height="3" fill="#ff3c3c" stroke="#c71f1f" /><rect x="697.0" y="349.5" width="12.0" height="3" fill="#35df39" stroke="#03aa10" /><rect x="697.0" y="380.0" width="12.0" height="3" fill="#35df39" stroke="#03aa10" /><rect x="684.0" y="395.0" width="12.0" height="3" fill="#ff3c3c" stroke="#c71f1f" /><rect x="697.0" y="410.5" width="12.0" height="3" fill="#35df39" stroke="#03aa10" /><rect x="697.0" y="440.5" width="12.0" height="3" fill="#35df39" stroke="#03aa10" /><rect x="684.0" y="456.0" width="12.0" height="3" fill="#ff3c3c" stroke="#c71f1f" /><rect x="684.0" y="471.0" width="12.0" height="3" fill="#ff3c3c" stroke="#c71f1f" /><rect x="697.0" y="486.5" width="12.0" height="3" fill="#35df39" stroke="#03aa10" /><rect x="710.0" y="516.5" width="12.0" height="3" fill="#80c9ff" stroke="#0b6cba" /><rect x="697.0" y="532.0" width="12.0" height="3" fill="#35df39" stroke="#03aa10" /><rect x="697.0" y="547.0" width="12.0" height="3" fill="#35df39" stroke="#03aa10" /><rect x="710.0" y="562.5" width="12.0" height="3" fill="#80c9ff" stroke="#0b6cba" /><rect x="723.0" y="592.5" width="12.0" height="3" fill="#fff874" stroke="#eb9c26" /><rect x="710.0" y="623.0" width="12.0" height="3" fill="#80c9ff" stroke="#0b6cba" /><rect x="697.0" y="638.5" width="12.0" height="3" fill="#35df39" stroke="#03aa10" /><rect x="710.0" y="653.5" width="12.0" height="3" fill="#80c9ff" stroke="#0b6cba" /><rect x="710.0" y="684.0" width="12.0" height="3" fill="#80c9ff" stroke="#0b6cba" /><rect x="697.0" y="699.0" width="12.0" height="3" fill="#35df39" stroke="#03aa10" /><rect x="710.0" y="714.5" width="12.0" height="3" fill="#80c9ff" stroke="#0b6cba" /><rect x="684.0" y="729.5" width="12.0" height="3" fill="#ff3c3c" stroke="#c71f1f" /><rect x="697.0" y="760.0" width="12.0" height="3" fill="#35df39" stroke="#03aa10" /><rect x="684.0" y="775.0" width="12.0" height="3" fill="#ff3c3c" stroke="#c71f1f" /><rect x="697.0" y="790.5" width="12.0" height="3" fill="#35df39" stroke="#03aa10" /><rect x="697.0" y="836.0" width="12.0" height="3" fill="#35df39" stroke="#03aa10" /><rect x="684.0" y="866.5" width="12.0" height="3" fill="#ff3c3c" stroke="#c71f1f" /><rect x="684.0" y="881.5" width="12.0" height="3" fill="#ff3c3c" stroke="#c71f1f" /><rect x="697.0" y="897.0" width="12.0" height="3" fill="#35df39" stroke="#03aa10" /><rect x="710.0" y="927.0" width="12.0" height="3" fill="#80c9ff" stroke="#0b6cba" /><rect x="684.0" y="942.5" width="12.0" height="3" fill="#ff3c3c" stroke="#c71f1f" /><rect x="684.0" y="957.5" width="12.0" height="3" fill="#ff3c3c" stroke="#c71f1f" /><rect x="811.0" y="0.0" width="12.0" height="3" fill="#35df39" stroke="#03aa10" /><rect x="824.0" y="15.0" width="12.0" height="3" fill="#80c9ff" stroke="#0b6cba" /><rect x="811.0" y="45.5" width="12.0" height="3" fill="#35df39" stroke="#03aa10" /><rect x="811.0" y="60.5" width="12.0" height="3" fill="#35df39" stroke="#03aa10" /><rect x="824.0" y="76.0" width="12.0" height="3" fill="#80c9ff" stroke="#0b6cba" /><rect x="798.0" y="106.0" width="12.0" height="3" fill="#ff3c3c" stroke="#c71f1f" /><rect x="824.0" y="136.5" width="12.0" height="3" fill="#80c9ff" stroke="#0b6cba" /><rect x="811.0" y="152.0" width="12.0" height="3" fill="#35df39" stroke="#03aa10" /><rect x="824.0" y="167.0" width="12.0" height="3" fill="#80c9ff" stroke="#0b6cba" /><rect x="824.0" y="197.5" width="12.0" height="3" fill="#80c9ff" stroke="#0b6cba" /><rect x="837.0" y="212.5" width="12.0" height="3" fill="#fff874" stroke="#eb9c26" /><rect x="850.0" y="228.0" width="12.0" height="3" fill="#ff83f4" stroke="#d002bc" /><rect x="925.0" y="729.5" width="12.0" height="3" fill="#35df39" stroke="#03aa10" /><rect x="925.0" y="790.5" width="12.0" height="3" fill="#35df39" stroke="#03aa10" /><rect x="912.0" y="851.0" width="12.0" height="3" fill="#ff3c3c" stroke="#c71f1f" /><rect x="925.0" y="881.5" width="12.0" height="81.9" fill="#35df39" stroke="#03aa10" /><rect x="1078.0" y="0.0" width="12.0" height="3" fill="#ff83f4" stroke="#d002bc" /><rect x="1026" y="0.0" width="64" height="3" fill="#ff72e7" stroke="#7c7c7c" /><rect x="1078.0" y="10.5" width="12.0" height="3" fill="#ff83f4" stroke="#d002bc" /><rect x="1026" y="10.5" width="64" height="3" fill="#ff72e7" stroke="#7c7c7c" /><rect x="1078.0" y="20.5" width="12.0" height="3" fill="#ff83f4" stroke="#d002bc" /><rect x="1026" y="20.5" width="64" height="3" fill="#ff72e7" stroke="#7c7c7c" /><rect x="1078.0" y="30.5" width="12.0" height="3" fill="#ff83f4" stroke="#d002bc" /><rect x="1026" y="30.5" width="64" height="3" fill="#ff72e7" stroke="#7c7c7c" /><rect x="1078.0" y="41.0" width="12.0" height="3" fill="#ff83f4" stroke="#d002bc" /><rect x="1078.0" y="51.0" width="12.0" height="3" fill="#ff83f4" stroke="#d002bc" /><rect x="1078.0" y="61.0" width="12.0" height="3" fill="#ff83f4" stroke="#d002bc" /><rect x="1078.0" y="71.0" width="12.0" height="3" fill="#ff83f4" stroke="#d002bc" /><rect x="1065.0" y="81.5" width="12.0" height="3" fill="#fff874" stroke="#eb9c26" /><rect x="1065.0" y="91.5" width="12.0" height="3" fill="#fff874" stroke="#eb9c26" /><rect x="1065.0" y="101.5" width="12.0" height="3" fill="#fff874" stroke="#eb9c26" /><rect x="1065.0" y="111.5" width="12.0" height="3" fill="#fff874" stroke="#eb9c26" /><rect x="1052.0" y="122.0" width="12.0" height="3" fill="#80c9ff" stroke="#0b6cba" /><rect x="1052.0" y="132.0" width="12.0" height="3" fill="#80c9ff" stroke="#0b6cba" /><rect x="1052.0" y="142.0" width="12.0" height="3" fill="#80c9ff" stroke="#0b6cba" /><rect x="1052.0" y="152.5" width="12.0" height="3" fill="#80c9ff" stroke="#0b6cba" /><rect x="1039.0" y="162.5" width="12.0" height="3" fill="#35df39" stroke="#03aa10" /><rect x="1039.0" y="172.5" width="12.0" height="3" fill="#35df39" stroke="#03aa10" /><rect x="1039.0" y="182.5" width="12.0" height="3" fill="#35df39" stroke="#03aa10" /><rect x="1039.0" y="193.0" width="12.0" height="3" fill="#35df39" stroke="#03aa10" /><rect x="1026.0" y="203.0" width="12.0" height="3" fill="#ff3c3c" stroke="#c71f1f" /><rect x="1026.0" y="213.0" width="12.0" height="3" fill="#ff3c3c" stroke="#c71f1f" /><rect x="1026.0" y="223.0" width="12.0" height="3" fill="#ff3c3c" stroke="#c71f1f" /><rect x="1026.0" y="233.5" width="12.0" height="3" fill="#ff3c3c" stroke="#c71f1f" /><rect x="1026.0" y="243.5" width="12.0" height="3" fill="#ff3c3c" stroke="#c71f1f" /><rect x="1039.0" y="243.5" width="12.0" height="3" fill="#35df39" stroke="#03aa10" /><rect x="1153.0" y="243.5" width="12.0" height="3" fill="#35df39" stroke="#03aa10" /><rect x="1166.0" y="243.5" width="12.0" height="3" fill="#80c9ff" stroke="#0b6cba" /><rect x="1153.0" y="304.5" width="12.0" height="3" fill="#35df39" stroke="#03aa10" /><rect x="1166.0" y="304.5" width="12.0" height="3" fill="#80c9ff" stroke="#0b6cba" /><rect x="1153.0" y="334.5" width="12.0" height="3" fill="#35df39" stroke="#03aa10" /><rect x="1166.0" y="334.5" width="12.0" height="3" fill="#80c9ff" stroke="#0b6cba" /><rect x="1153.0" y="365.0" width="12.0" height="3" fill="#35df39" stroke="#03aa10" /><rect x="1166.0" y="365.0" width="12.0" height="3" fill="#80c9ff" stroke="#0b6cba" /><rect x="1179.0" y="395.5" width="12.0" height="3" fill="#fff874" stroke="#eb9c26" /><rect x="1153.0" y="426.0" width="12.0" height="3" fill="#35df39" stroke="#03aa10" /><rect x="1166.0" y="426.0" width="12.0" height="3" fill="#80c9ff" stroke="#0b6cba" /><rect x="1153.0" y="456.5" width="12.0" height="3" fill="#35df39" stroke="#03aa10" /><rect x="1166.0" y="517.0" width="12.0" height="3" fill="#80c9ff" stroke="#0b6cba" /><rect x="1179.0" y="517.0" width="12.0" height="3" fill="#fff874" stroke="#eb9c26" /><rect x="1153.0" y="547.5" width="12.0" height="3" fill="#35df39" stroke="#03aa10" /><rect x="1140.0" y="578.0" width="12.0" height="3" fill="#ff3c3c" stroke="#c71f1f" /><rect x="1153.0" y="578.0" width="12.0" height="3" fill="#35df39" stroke="#03aa10" /><rect x="1179.0" y="638.5" width="12.0" height="3" fill="#fff874" stroke="#eb9c26" /><rect x="1153.0" y="669.0" width="12.0" height="3" fill="#35df39" stroke="#03aa10" /><rect x="1179.0" y="699.5" width="12.0" height="3" fill="#fff874" stroke="#eb9c26" /><rect x="1179.0" y="714.5" width="12.0" height="3" fill="#fff874" stroke="#eb9c26" /><rect x="1166.0" y="730.0" width="12.0" height="3" fill="#80c9ff" stroke="#0b6cba" /><rect x="1179.0" y="730.0" width="12.0" height="3" fill="#fff874" stroke="#eb9c26" /><rect x="1166.0" y="791.0" width="12.0" height="3" fill="#80c9ff" stroke="#0b6cba" /><rect x="1179.0" y="791.0" width="12.0" height="3" fill="#fff874" stroke="#eb9c26" /><rect x="1166.0" y="821.0" width="12.0" height="3" fill="#80c9ff" stroke="#0b6cba" /><rect x="1179.0" y="821.0" width="12.0" height="3" fill="#fff874" stroke="#eb9c26" /><rect x="1166.0" y="851.5" width="12.0" height="3" fill="#80c9ff" stroke="#0b6cba" /><rect x="1179.0" y="851.5" width="12.0" height="3" fill="#fff874" stroke="#eb9c26" /><rect x="1192.0" y="882.0" width="12.0" height="3" fill="#ff83f4" stroke="#d002bc" /><rect x="1166.0" y="912.5" width="12.0" height="3" fill="#80c9ff" stroke="#0b6cba" /><rect x="1179.0" y="912.5" width="12.0" height="3" fill="#fff874" stroke="#eb9c26" /><rect x="1153.0" y="943.0" width="12.0" height="3" fill="#35df39" stroke="#03aa10" /><rect x="1166.0" y="943.0" width="12.0" height="3" fill="#80c9ff" stroke="#0b6cba" /><rect x="1280.0" y="30.5" width="12.0" height="3" fill="#80c9ff" stroke="#0b6cba" /><rect x="1267.0" y="61.0" width="12.0" height="3" fill="#35df39" stroke="#03aa10" /><rect x="1280.0" y="91.5" width="12.0" height="3" fill="#80c9ff" stroke="#0b6cba" /><rect x="1293.0" y="152.0" width="12.0" height="3" fill="#fff874" stroke="#eb9c26" /><rect x="1280.0" y="182.5" width="12.0" height="3" fill="#80c9ff" stroke="#0b6cba" /><rect x="1293.0" y="213.0" width="12.0" height="3" fill="#fff874" stroke="#eb9c26" /><rect x="1293.0" y="228.0" width="12.0" height="3" fill="#fff874" stroke="#eb9c26" /><rect x="1267.0" y="243.5" width="12.0" height="3" fill="#35df39" stroke="#03aa10" /><rect x="1280.0" y="243.5" width="12.0" height="3" fill="#80c9ff" stroke="#0b6cba" /><rect x="1267.0" y="304.0" width="12.0" height="3" fill="#35df39" stroke="#03aa10" /><rect x="1280.0" y="304.0" width="12.0" height="3" fill="#80c9ff" stroke="#0b6cba" /><rect x="1267.0" y="334.5" width="12.0" height="3" fill="#35df39" stroke="#03aa10" /><rect x="1280.0" y="334.5" width="12.0" height="3" fill="#80c9ff" stroke="#0b6cba" /><rect x="1267.0" y="365.0" width="12.0" height="3" fill="#35df39" stroke="#03aa10" /><rect x="1280.0" y="365.0" width="12.0" height="3" fill="#80c9ff" stroke="#0b6cba" /><rect x="1293.0" y="395.5" width="12.0" height="3" fill="#fff874" stroke="#eb9c26" /><rect x="1267.0" y="426.0" width="12.0" height="3" fill="#35df39" stroke="#03aa10" /><rect x="1280.0" y="426.0" width="12.0" height="3" fill="#80c9ff" stroke="#0b6cba" /><rect x="1280.0" y="456.5" width="12.0" height="3" fill="#80c9ff" stroke="#0b6cba" /><rect x="1280.0" y="517.0" width="12.0" height="3" fill="#80c9ff" stroke="#0b6cba" /><rect x="1280.0" y="547.5" width="12.0" height="3" fill="#80c9ff" stroke="#0b6cba" /><rect x="1293.0" y="578.0" width="12.0" height="3" fill="#fff874" stroke="#eb9c26" /><rect x="1267.0" y="638.5" width="12.0" height="3" fill="#35df39" stroke="#03aa10" /><rect x="1280.0" y="669.0" width="12.0" height="3" fill="#80c9ff" stroke="#0b6cba" /><rect x="1280.0" y="699.5" width="12.0" height="3" fill="#80c9ff" stroke="#0b6cba" /><rect x="1280.0" y="714.5" width="12.0" height="3" fill="#80c9ff" stroke="#0b6cba" /><rect x="1267.0" y="730.0" width="12.0" height="3" fill="#35df39" stroke="#03aa10" /><rect x="1280.0" y="730.0" width="12.0" height="3" fill="#80c9ff" stroke="#0b6cba" /><rect x="1267.0" y="790.5" width="12.0" height="3" fill="#35df39" stroke="#03aa10" /><rect x="1280.0" y="790.5" width="12.0" height="3" fill="#80c9ff" stroke="#0b6cba" /><rect x="1267.0" y="821.0" width="12.0" height="3" fill="#35df39" stroke="#03aa10" /><rect x="1280.0" y="821.0" width="12.0" height="3" fill="#80c9ff" stroke="#0b6cba" /><rect x="1267.0" y="851.5" width="12.0" height="3" fill="#35df39" stroke="#03aa10" /><rect x="1280.0" y="851.5" width="12.0" height="3" fill="#80c9ff" stroke="#0b6cba" /><rect x="1293.0" y="882.0" width="12.0" height="3" fill="#fff874" stroke="#eb9c26" /><rect x="1267.0" y="912.5" width="12.0" height="3" fill="#35df39" stroke="#03aa10" /><rect x="1280.0" y="912.5" width="12.0" height="3" fill="#80c9ff" stroke="#0b6cba" /><rect x="1254.0" y="943.0" width="12.0" height="3" fill="#ff3c3c" stroke="#c71f1f" /><rect x="1267.0" y="943.0" width="12.0" height="3" fill="#35df39" stroke="#03aa10" /><rect x="1394.0" y="30.5" width="12.0" height="3" fill="#80c9ff" stroke="#0b6cba" /><rect x="1368.0" y="61.0" width="12.0" height="3" fill="#ff3c3c" stroke="#c71f1f" /><rect x="1381.0" y="91.5" width="12.0" height="3" fill="#35df39" stroke="#03aa10" /><rect x="1394.0" y="152.0" width="12.0" height="3" fill="#80c9ff" stroke="#0b6cba" /><rect x="1394.0" y="182.5" width="12.0" height="3" fill="#80c9ff" stroke="#0b6cba" /><rect x="1394.0" y="198.0" width="12.0" height="3" fill="#80c9ff" stroke="#0b6cba" /><rect x="1381.0" y="213.0" width="12.0" height="3" fill="#35df39" stroke="#03aa10" /><rect x="1381.0" y="228.0" width="12.0" height="3" fill="#35df39" stroke="#03aa10" /><rect x="1368.0" y="243.5" width="12.0" height="3" fill="#ff3c3c" stroke="#c71f1f" /><rect x="1381.0" y="243.5" width="12.0" height="3" fill="#35df39" stroke="#03aa10" /><rect x="1368.0" y="304.0" width="12.0" height="3" fill="#ff3c3c" stroke="#c71f1f" /><rect x="1381.0" y="304.0" width="12.0" height="3" fill="#35df39" stroke="#03aa10" /><rect x="1368.0" y="334.5" width="12.0" height="3" fill="#ff3c3c" stroke="#c71f1f" /><rect x="1381.0" y="334.5" width="12.0" height="3" fill="#35df39" stroke="#03aa10" /><rect x="1368.0" y="365.0" width="12.0" height="3" fill="#ff3c3c" stroke="#c71f1f" /><rect x="1381.0" y="365.0" width="12.0" height="3" fill="#35df39" stroke="#03aa10" /><rect x="1394.0" y="395.5" width="12.0" height="3" fill="#80c9ff" stroke="#0b6cba" /><rect x="1368.0" y="426.0" width="12.0" height="3" fill="#ff3c3c" stroke="#c71f1f" /><rect x="1381.0" y="426.0" width="12.0" height="3" fill="#35df39" stroke="#03aa10" /><rect x="1420.0" y="456.0" width="12.0" height="3" fill="#ff83f4" stroke="#d002bc" /><rect x="1368" y="456.0" width="64" height="3" fill="#ff72e7" stroke="#7c7c7c" /><rect x="1381.0" y="517.0" width="12.0" height="3" fill="#35df39" stroke="#03aa10" /><rect x="1394.0" y="517.0" width="12.0" height="3" fill="#80c9ff" stroke="#0b6cba" /><rect x="1368.0" y="547.5" width="12.0" height="3" fill="#ff3c3c" stroke="#c71f1f" /><rect x="1381.0" y="578.0" width="12.0" height="3" fill="#35df39" stroke="#03aa10" /><rect x="1394.0" y="638.5" width="12.0" height="3" fill="#80c9ff" stroke="#0b6cba" /><rect x="1381.0" y="669.0" width="12.0" height="3" fill="#35df39" stroke="#03aa10" /><rect x="1394.0" y="699.5" width="12.0" height="3" fill="#80c9ff" stroke="#0b6cba" /><rect x="1394.0" y="714.5" width="12.0" height="3" fill="#80c9ff" stroke="#0b6cba" /><rect x="1394.0" y="730.0" width="12.0" height="3" fill="#80c9ff" stroke="#0b6cba" /><rect x="1407.0" y="730.0" width="12.0" height="3" fill="#fff874" stroke="#eb9c26" /><rect x="1394.0" y="790.5" width="12.0" height="3" fill="#80c9ff" stroke="#0b6cba" /><rect x="1407.0" y="790.5" width="12.0" height="3" fill="#fff874" stroke="#eb9c26" /><rect x="1394.0" y="821.0" width="12.0" height="3" fill="#80c9ff" stroke="#0b6cba" /><rect x="1407.0" y="821.0" width="12.0" height="3" fill="#fff874" stroke="#eb9c26" /><rect x="1394.0" y="851.5" width="12.0" height="3" fill="#80c9ff" stroke="#0b6cba" /><rect x="1407.0" y="851.5" width="12.0" height="3" fill="#fff874" stroke="#eb9c26" /><rect x="1407.0" y="882.0" width="12.0" height="3" fill="#fff874" stroke="#eb9c26" /><rect x="1420.0" y="882.0" width="12.0" height="3" fill="#ff83f4" stroke="#d002bc" /><rect x="1394.0" y="912.5" width="12.0" height="3" fill="#80c9ff" stroke="#0b6cba" /><rect x="1407.0" y="912.5" width="12.0" height="3" fill="#fff874" stroke="#eb9c26" /><rect x="1420.0" y="942.5" width="12.0" height="3" fill="#ff83f4" stroke="#d002bc" /><rect x="1368" y="942.5" width="64" height="3" fill="#ff72e7" stroke="#7c7c7c" /><rect x="1495.0" y="30.5" width="12.0" height="3" fill="#35df39" stroke="#03aa10" /><rect x="1482.0" y="61.0" width="12.0" height="3" fill="#ff3c3c" stroke="#c71f1f" /><rect x="1495.0" y="91.5" width="12.0" height="3" fill="#35df39" stroke="#03aa10" /><rect x="1508.0" y="91.5" width="12.0" height="3" fill="#80c9ff" stroke="#0b6cba" /><rect x="1521.0" y="152.0" width="12.0" height="3" fill="#fff874" stroke="#eb9c26" /><rect x="1495.0" y="182.5" width="12.0" height="3" fill="#35df39" stroke="#03aa10" /><rect x="1508.0" y="182.5" width="12.0" height="3" fill="#80c9ff" stroke="#0b6cba" /><rect x="1508.0" y="213.0" width="12.0" height="3" fill="#80c9ff" stroke="#0b6cba" /><rect x="1508.0" y="228.0" width="12.0" height="3" fill="#80c9ff" stroke="#0b6cba" /><rect x="1482.0" y="243.5" width="12.0" height="3" fill="#ff3c3c" stroke="#c71f1f" /><rect x="1495.0" y="243.5" width="12.0" height="3" fill="#35df39" stroke="#03aa10" /><rect x="1482.0" y="304.0" width="12.0" height="3" fill="#ff3c3c" stroke="#c71f1f" /><rect x="1482.0" y="334.5" width="12.0" height="3" fill="#ff3c3c" stroke="#c71f1f" /><rect x="1521.0" y="365.0" width="12.0" height="3" fill="#fff874" stroke="#eb9c26" /><rect x="1521.0" y="380.0" width="12.0" height="3" fill="#fff874" stroke="#eb9c26" /><rect x="1508.0" y="395.5" width="12.0" height="3" fill="#80c9ff" stroke="#0b6cba" /><rect x="1495.0" y="426.0" width="12.0" height="3" fill="#35df39" stroke="#03aa10" /><rect x="1482.0" y="456.0" width="12.0" height="3" fill="#ff3c3c" stroke="#c71f1f" /><rect x="1495.0" y="456.0" width="12.0" height="3" fill="#35df39" stroke="#03aa10" /><rect x="1482.0" y="517.0" width="12.0" height="3" fill="#ff3c3c" stroke="#c71f1f" /><rect x="1482.0" y="547.5" width="12.0" height="3" fill="#ff3c3c" stroke="#c71f1f" /><rect x="1508.0" y="578.0" width="12.0" height="3" fill="#80c9ff" stroke="#0b6cba" /><rect x="1482.0" y="638.5" width="12.0" height="3" fill="#ff3c3c" stroke="#c71f1f" /><rect x="1508.0" y="669.0" width="12.0" height="3" fill="#80c9ff" stroke="#0b6cba" /><rect x="1482.0" y="699.5" width="12.0" height="3" fill="#ff3c3c" stroke="#c71f1f" /><rect x="1482.0" y="714.5" width="12.0" height="3" fill="#ff3c3c" stroke="#c71f1f" /><rect x="1482.0" y="730.0" width="12.0" height="3" fill="#ff3c3c" stroke="#c71f1f" /><rect x="1495.0" y="730.0" width="12.0" height="3" fill="#35df39" stroke="#03aa10" /><rect x="1495.0" y="790.5" width="12.0" height="3" fill="#35df39" stroke="#03aa10" /><rect x="1495.0" y="821.0" width="12.0" height="3" fill="#35df39" stroke="#03aa10" /><rect x="1495.0" y="851.5" width="12.0" height="3" fill="#35df39" stroke="#03aa10" /><rect x="1508.0" y="882.0" width="12.0" height="3" fill="#80c9ff" stroke="#0b6cba" /><rect x="1495.0" y="912.5" width="12.0" height="3" fill="#35df39" stroke="#03aa10" /><rect x="1482.0" y="942.5" width="12.0" height="3" fill="#ff3c3c" stroke="#c71f1f" /><rect x="1495.0" y="942.5" width="12.0" height="3" fill="#35df39" stroke="#03aa10" /><rect x="1609.0" y="30.5" width="12.0" height="3" fill="#35df39" stroke="#03aa10" /><rect x="1596.0" y="61.0" width="12.0" height="3" fill="#ff3c3c" stroke="#c71f1f" /><rect x="1622.0" y="91.5" width="12.0" height="3" fill="#80c9ff" stroke="#0b6cba" /><rect x="1622.0" y="152.0" width="12.0" height="3" fill="#80c9ff" stroke="#0b6cba" /><rect x="1635.0" y="152.0" width="12.0" height="3" fill="#fff874" stroke="#eb9c26" /><rect x="1648.0" y="182.5" width="12.0" height="3" fill="#ff83f4" stroke="#d002bc" /><rect x="1635.0" y="197.5" width="12.0" height="3" fill="#fff874" stroke="#eb9c26" /><rect x="1622.0" y="213.0" width="12.0" height="3" fill="#80c9ff" stroke="#0b6cba" /><rect x="1609.0" y="228.0" width="12.0" height="3" fill="#35df39" stroke="#03aa10" /><rect x="1723.0" y="182.5" width="12.0" height="3" fill="#35df39" stroke="#03aa10" /><rect x="1736.0" y="182.5" width="12.0" height="3" fill="#80c9ff" stroke="#0b6cba" /></svg>