<?xml version="1.0" encoding="UTF-8"?><svg xmlns="http://www.w3.org/2000/svg" xmlns:xlink="http://www.w3.org/1999/xlink"     width="4522" height="813.5" viewBox="0 0 4522 813.5"><defs></defs><rect x="0" y="79.0" width="188" height="734.5" fill="black" /><rect x="0" y="812.5" width="188" height="1" fill="white" fill-opacity="0.5" /><text x="198" y="812.5" font-size="14" fill="white" font-family="monospace" dominant-baseline="initial">1</text><rect x="0" y="766.5" width="188" height="1" fill="white" fill-opacity="0.2" /><rect x="0" y="720.5" width="188" height="1" fill="white" fill-opacity="0.2" /><rect x="0" y="674.5" width="188" height="1" fill="white" fill-opacity="0.2" /><rect x="0" y="629.0" width="188" height="1" fill="white" fill-opacity="0.5" /><text x="198" y="629.0" font-size="14" fill="white" font-family="monospace" dominant-baseline="initial">2</text><rect x="0" y="583.0" width="188" height="1" fill="white" fill-opacity="0.2" /><rect x="0" y="537.0" width="188" height="1" fill="white" fill-opacity="0.2" /><rect x="0" y="491.0" width="188" height="1" fill="white" fill-opacity="0.2" /><rect x="0" y="445.0" width="188" height="1" fill="white" fill-opacity="0.5" /><text x="198" y="445.0" font-size="14" fill="white" font-family="monospace" dominant-baseline="initial">3</text><rect x="0" y="399.0" width="188" height="1" fill="white" fill-opacity="0.2" /><rect x="0" y="353.5" width="188" height="1" fill="white" fill-opacity="0.2" /><rect x="0" y="307.5" width="188" height="1" fill="white" fill-opacity="0.2" /><rect x="0" y="261.5" width="188" height="1" fill="white" fill-opacity="0.5" /><text x="198" y="261.5" font-size="14" fill="white" font-family="monospace" dominant-baseline="initial">4</text><rect x="0" y="215.5" width="188" height="1" fill="white" fill-opacity="0.2" /><rect x="0" y="169.5" width="188" height="1" fill="white" fill-opacity="0.2" /><rect x="0" y="123.5" width="188" height="1" fill="white" fill-opacity="0.2" /><rect x="0" y="78.0" width="188" height="1" fill="white" fill-opacity="0.5" /><text x="198" y="78.0" font-size="14" fill="white" font-family="monospace" dominant-baseline="initial">5</text><rect x="0" y="812.5" width="188" height="1" fill="aqua" fill-opacity="0.75" /><text x="0" y="808.5" font-size="14" fill="aqua" fill-opacity="0.75" font-family="monospace">Intro</text><rect x="0" y="812.5" width="188" height="1" fill="lime" fill-opacity="0.75" /><text x="198" y="799.5" font-size="14" fill="lime" font-family="monospace" dominant-baseline="initial">196</text><rect x="238" y="78.5" width="188" height="735.0" fill="black" /><rect x="238" y="812.5" width="188" height="1" fill="white" fill-opacity="0.5" /><text x="436" y="812.5" font-size="14" fill="white" font-family="monospace" dominant-baseline="initial">5</text><rect x="238" y="766.5" width="188" height="1" fill="white" fill-opacity="0.2" /><rect x="238" y="720.5" width="188" height="1" fill="white" fill-opacity="0.2" /><rect x="238" y="674.5" width="188" height="1" fill="white" fill-opacity="0.2" /><rect x="238" y="628.5" width="188" height="1" fill="white" fill-opacity="0.5" /><text x="436" y="628.5" font-size="14" fill="white" font-family="monospace" dominant-baseline="initial">6</text><rect x="238" y="582.5" width="188" height="1" fill="white" fill-opacity="0.2" /><rect x="238" y="537.0" width="188" height="1" fill="white" fill-opacity="0.2" /><rect x="238" y="491.0" width="188" height="1" fill="white" fill-opacity="0.2" /><rect x="238" y="445.0" width="188" height="1" fill="white" fill-opacity="0.5" /><text x="436" y="445.0" font-size="14" fill="white" font-family="monospace" dominant-baseline="initial">7</text><rect x="238" y="399.0" width="188" height="1" fill="white" fill-opacity="0.2" /><rect x="238" y="353.0" width="188" height="1" fill="white" fill-opacity="0.2" /><rect x="238" y="307.0" width="188" height="1" fill="white" fill-opacity="0.2" /><rect x="238" y="261.5" width="188" height="1" fill="white" fill-opacity="0.5" /><text x="436" y="261.5" font-size="14" fill="white" font-family="monospace" dominant-baseline="initial">8</text><rect x="238" y="215.5" width="188" height="1" fill="white" fill-opacity="0.2" /><rect x="238" y="169.5" width="188" height="1" fill="white" fill-opacity="0.2" /><rect x="238" y="123.5" width="188" height="1" fill="white" fill-opacity="0.2" /><rect x="238" y="77.5" width="188" height="1" fill="white" fill-opacity="0.5" /><text x="436" y="77.5" font-size="14" fill="white" font-family="monospace" dominant-baseline="initial">9</text><rect x="476" y="79.0" width="188" height="734.5" fill="black" /><rect x="476" y="812.5" width="188" height="1" fill="white" fill-opacity="0.5" /><text x="674" y="812.5" font-size="14" fill="white" font-family="monospace" dominant-baseline="initial">9</text><rect x="476" y="766.5" width="188" height="1" fill="white" fill-opacity="0.2" /><rect x="476" y="721.0" width="188" height="1" fill="white" fill-opacity="0.2" /><rect x="476" y="675.0" width="188" height="1" fill="white" fill-opacity="0.2" /><rect x="476" y="629.0" width="188" height="1" fill="white" fill-opacity="0.5" /><text x="674" y="629.0" font-size="14" fill="white" font-family="monospace" dominant-baseline="initial">10</text><rect x="476" y="583.0" width="188" height="1" fill="white" fill-opacity="0.2" /><rect x="476" y="537.0" width="188" height="1" fill="white" fill-opacity="0.2" /><rect x="476" y="491.0" width="188" height="1" fill="white" fill-opacity="0.2" /><rect x="476" y="445.5" width="188" height="1" fill="white" fill-opacity="0.5" /><text x="674" y="445.5" font-size="14" fill="white" font-family="monospace" dominant-baseline="initial">11</text><rect x="476" y="399.5" width="188" height="1" fill="white" fill-opacity="0.2" /><rect x="476" y="353.5" width="188" height="1" fill="white" fill-opacity="0.2" /><rect x="476" y="307.5" width="188" height="1" fill="white" fill-opacity="0.2" /><rect x="476" y="261.5" width="188" height="1" fill="white" fill-opacity="0.5" /><text x="674" y="261.5" font-size="14" fill="white" font-family="monospace" dominant-baseline="initial">12</text><rect x="476" y="215.5" width="188" height="1" fill="white" fill-opacity="0.2" /><rect x="476" y="170.0" width="188" height="1" fill="white" fill-opacity="0.2" /><rect x="476" y="124.0" width="188" height="1" fill="white" fill-opacity="0.2" /><rect x="476" y="78.0" width="188" height="1" fill="white" fill-opacity="0.5" /><text x="674" y="78.0" font-size="14" fill="white" font-family="monospace" dominant-baseline="initial">13</text><rect x="476" y="629.0" width="188" height="1" fill="aqua" fill-opacity="0.75" /><text x="476" y="625.0" font-size="14" fill="aqua" fill-opacity="0.75" font-family="monospace">Special</text><rect x="714" y="78.5" width="188" height="735.0" fill="black" /><rect x="714" y="812.5" width="188" height="1" fill="white" fill-opacity="0.5" /><text x="912" y="812.5" font-size="14" fill="white" font-family="monospace" dominant-baseline="initial">13</text><rect x="714" y="766.5" width="188" height="1" fill="white" fill-opacity="0.2" /><rect x="714" y="720.5" width="188" height="1" fill="white" fill-opacity="0.2" /><rect x="714" y="674.5" width="188" height="1" fill="white" fill-opacity="0.2" /><rect x="714" y="628.5" width="188" height="1" fill="white" fill-opacity="0.5" /><text x="912" y="628.5" font-size="14" fill="white" font-family="monospace" dominant-baseline="initial">14</text><rect x="714" y="583.0" width="188" height="1" fill="white" fill-opacity="0.2" /><rect x="714" y="537.0" width="188" height="1" fill="white" fill-opacity="0.2" /><rect x="714" y="491.0" width="188" height="1" fill="white" fill-opacity="0.2" /><rect x="714" y="445.0" width="188" height="1" fill="white" fill-opacity="0.5" /><text x="912" y="445.0" font-size="14" fill="white" font-family="monospace" dominant-baseline="initial">15</text><rect x="714" y="399.0" width="188" height="1" fill="white" fill-opacity="0.2" /><rect x="714" y="353.0" width="188" height="1" fill="white" fill-opacity="0.2" /><rect x="714" y="307.5" width="188" height="1" fill="white" fill-opacity="0.2" /><rect x="714" y="261.5" width="188" height="1" fill="white" fill-opacity="0.5" /><text x="912" y="261.5" font-size="14" fill="white" font-family="monospace" dominant-baseline="initial">16</text><rect x="714" y="215.5" width="188" height="1" fill="white" fill-opacity="0.2" /><rect x="714" y="169.5" width="188" height="1" fill="white" fill-opacity="0.2" /><rect x="714" y="123.5" width="188" height="1" fill="white" fill-opacity="0.2" /><rect x="714" y="77.5" width="188" height="1" fill="white" fill-opacity="0.5" /><text x="912" y="77.5" font-size="14" fill="white" font-family="monospace" dominant-baseline="initial">17</text><rect x="952" y="79.0" width="188" height="734.5" fill="black" /><rect x="952" y="812.5" width="188" height="1" fill="white" fill-opacity="0.5" /><text x="1150" y="812.5" font-size="14" fill="white" font-family="monospace" dominant-baseline="initial">17</text><rect x="952" y="767.0" width="188" height="1" fill="white" fill-opacity="0.2" /><rect x="952" y="721.0" width="188" height="1" fill="white" fill-opacity="0.2" /><rect x="952" y="675.0" width="188" height="1" fill="white" fill-opacity="0.2" /><rect x="952" y="629.0" width="188" height="1" fill="white" fill-opacity="0.5" /><text x="1150" y="629.0" font-size="14" fill="white" font-family="monospace" dominant-baseline="initial">18</text><rect x="952" y="583.0" width="188" height="1" fill="white" fill-opacity="0.2" /><rect x="952" y="537.0" width="188" height="1" fill="white" fill-opacity="0.2" /><rect x="952" y="491.5" width="188" height="1" fill="white" fill-opacity="0.2" /><rect x="952" y="445.5" width="188" height="1" fill="white" fill-opacity="0.5" /><text x="1150" y="445.5" font-size="14" fill="white" font-family="monospace" dominant-baseline="initial">19</text><rect x="952" y="399.5" width="188" height="1" fill="white" fill-opacity="0.2" /><rect x="952" y="353.5" width="188" height="1" fill="white" fill-opacity="0.2" /><rect x="952" y="307.5" width="188" height="1" fill="white" fill-opacity="0.2" /><rect x="952" y="261.5" width="188" height="1" fill="white" fill-opacity="0.5" /><text x="1150" y="261.5" font-size="14" fill="white" font-family="monospace" dominant-baseline="initial">20</text><rect x="952" y="216.0" width="188" height="1" fill="white" fill-opacity="0.2" /><rect x="952" y="170.0" width="188" height="1" fill="white" fill-opacity="0.2" /><rect x="952" y="124.0" width="188" height="1" fill="white" fill-opacity="0.2" /><rect x="952" y="78.0" width="188" height="1" fill="white" fill-opacity="0.5" /><text x="1150" y="78.0" font-size="14" fill="white" font-family="monospace" dominant-baseline="initial">21</text><rect x="952" y="629.1000000000004" width="188" height="1" fill="aqua" fill-opacity="0.75" /><text x="952" y="625.1000000000004" font-size="14" fill="aqua" fill-opacity="0.75" font-family="monospace">Phrase B</text><rect x="1190" y="79.0" width="188" height="734.5" fill="black" /><rect x="1190" y="812.5" width="188" height="1" fill="white" fill-opacity="0.5" /><text x="1388" y="812.5" font-size="14" fill="white" font-family="monospace" dominant-baseline="initial">21</text><rect x="1190" y="766.5" width="188" height="1" fill="white" fill-opacity="0.2" /><rect x="1190" y="720.5" width="188" height="1" fill="white" fill-opacity="0.2" /><rect x="1190" y="675.0" width="188" height="1" fill="white" fill-opacity="0.2" /><rect x="1190" y="629.0" width="188" height="1" fill="white" fill-opacity="0.5" /><text x="1388" y="629.0" font-size="14" fill="white" font-family="monospace" dominant-baseline="initial">22</text><rect x="1190" y="583.0" width="188" height="1" fill="white" fill-opacity="0.2" /><rect x="1190" y="537.0" width="188" height="1" fill="white" fill-opacity="0.2" /><rect x="1190" y="491.0" width="188" height="1" fill="white" fill-opacity="0.2" /><rect x="1190" y="445.0" width="188" height="1" fill="white" fill-opacity="0.5" /><text x="1388" y="445.0" font-size="14" fill="white" font-family="monospace" dominant-baseline="initial">23</text><rect x="1190" y="399.5" width="188" height="1" fill="white" fill-opacity="0.2" /><rect x="1190" y="353.5" width="188" height="1" fill="white" fill-opacity="0.2" /><rect x="1190" y="307.5" width="188" height="1" fill="white" fill-opacity="0.2" /><rect x="1190" y="261.5" width="188" height="1" fill="white" fill-opacity="0.5" /><text x="1388" y="261.5" font-size="14" fill="white" font-family="monospace" dominant-baseline="initial">24</text><rect x="1190" y="215.5" width="188" height="1" fill="white" fill-opacity="0.2" /><rect x="1190" y="169.5" width="188" height="1" fill="white" fill-opacity="0.2" /><rect x="1190" y="124.0" width="188" height="1" fill="white" fill-opacity="0.2" /><rect x="1190" y="78.0" width="188" height="1" fill="white" fill-opacity="0.5" /><text x="1388" y="78.0" font-size="14" fill="white" font-family="monospace" dominant-baseline="initial">25</text><rect x="1428" y="78.5" width="188" height="735.0" fill="black" /><rect x="1428" y="812.5" width="188" height="1" fill="white" fill-opacity="0.5" /><text x="1626" y="812.5" font-size="14" fill="white" font-family="monospace" dominant-baseline="initial">25</text><rect x="1428" y="766.5" width="188" height="1" fill="white" fill-opacity="0.2" /><rect x="1428" y="720.5" width="188" height="1" fill="white" fill-opacity="0.2" /><rect x="1428" y="674.5" width="188" height="1" fill="white" fill-opacity="0.2" /><rect x="1428" y="628.5" width="188" height="1" fill="white" fill-opacity="0.5" /><text x="1626" y="628.5" font-size="14" fill="white" font-family="monospace" dominant-baseline="initial">26</text><rect x="1428" y="583.0" width="188" height="1" fill="white" fill-opacity="0.2" /><rect x="1428" y="537.0" width="188" height="1" fill="white" fill-opacity="0.2" /><rect x="1428" y="491.0" width="188" height="1" fill="white" fill-opacity="0.2" /><rect x="1428" y="445.0" width="188" height="1" fill="white" fill-opacity="0.5" /><text x="1626" y="445.0" font-size="14" fill="white" font-family="monospace" dominant-baseline="initial">27</text><rect x="1428" y="399.0" width="188" height="1" fill="white" fill-opacity="0.2" /><rect x="1428" y="353.0" width="188" height="1" fill="white" fill-opacity="0.2" /><rect x="1428" y="307.0" width="188" height="1" fill="white" fill-opacity="0.2" /><rect x="1428" y="261.5" width="188" height="1" fill="white" fill-opacity="0.5" /><text x="1626" y="261.5" font-size="14" fill="white" font-family="monospace" dominant-baseline="initial">28</text><rect x="1428" y="215.5" width="188" height="1" fill="white" fill-opacity="0.2" /><rect x="1428" y="169.5" width="188" height="1" fill="white" fill-opacity="0.2" /><rect x="1428" y="123.5" width="188" height="1" fill="white" fill-opacity="0.2" /><rect x="1428" y="77.5" width="188" height="1" fill="white" fill-opacity="0.5" /><text x="1626" y="77.5" font-size="14" fill="white" font-family="monospace" dominant-baseline="initial">29</text><rect x="1428" y="628.6999999999998" width="188" height="1" fill="aqua" fill-opacity="0.75" /><text x="1428" y="624.6999999999998" font-size="14" fill="aqua" fill-opacity="0.75" font-family="monospace">Special</text><rect x="1666" y="79.0" width="188" height="734.5" fill="black" /><rect x="1666" y="812.5" width="188" height="1" fill="white" fill-opacity="0.5" /><text x="1864" y="812.5" font-size="14" fill="white" font-family="monospace" dominant-baseline="initial">29</text><rect x="1666" y="766.5" width="188" height="1" fill="white" fill-opacity="0.2" /><rect x="1666" y="721.0" width="188" height="1" fill="white" fill-opacity="0.2" /><rect x="1666" y="675.0" width="188" height="1" fill="white" fill-opacity="0.2" /><rect x="1666" y="629.0" width="188" height="1" fill="white" fill-opacity="0.5" /><text x="1864" y="629.0" font-size="14" fill="white" font-family="monospace" dominant-baseline="initial">30</text><rect x="1666" y="583.0" width="188" height="1" fill="white" fill-opacity="0.2" /><rect x="1666" y="537.0" width="188" height="1" fill="white" fill-opacity="0.2" /><rect x="1666" y="491.0" width="188" height="1" fill="white" fill-opacity="0.2" /><rect x="1666" y="445.5" width="188" height="1" fill="white" fill-opacity="0.5" /><text x="1864" y="445.5" font-size="14" fill="white" font-family="monospace" dominant-baseline="initial">31</text><rect x="1666" y="399.5" width="188" height="1" fill="white" fill-opacity="0.2" /><rect x="1666" y="353.5" width="188" height="1" fill="white" fill-opacity="0.2" /><rect x="1666" y="307.5" width="188" height="1" fill="white" fill-opacity="0.2" /><rect x="1666" y="261.5" width="188" height="1" fill="white" fill-opacity="0.5" /><text x="1864" y="261.5" font-size="14" fill="white" font-family="monospace" dominant-baseline="initial">32</text><rect x="1666" y="215.5" width="188" height="1" fill="white" fill-opacity="0.2" /><rect x="1666" y="170.0" width="188" height="1" fill="white" fill-opacity="0.2" /><rect x="1666" y="124.0" width="188" height="1" fill="white" fill-opacity="0.2" /><rect x="1666" y="78.0" width="188" height="1" fill="white" fill-opacity="0.5" /><text x="1864" y="78.0" font-size="14" fill="white" font-family="monospace" dominant-baseline="initial">33</text><rect x="1904" y="79.0" width="188" height="734.5" fill="black" /><rect x="1904" y="812.5" width="188" height="1" fill="white" fill-opacity="0.5" /><text x="2102" y="812.5" font-size="14" fill="white" font-family="monospace" dominant-baseline="initial">33</text><rect x="1904" y="766.5" width="188" height="1" fill="white" fill-opacity="0.2" /><rect x="1904" y="720.5" width="188" height="1" fill="white" fill-opacity="0.2" /><rect x="1904" y="674.5" width="188" height="1" fill="white" fill-opacity="0.2" /><rect x="1904" y="629.0" width="188" height="1" fill="white" fill-opacity="0.5" /><text x="2102" y="629.0" font-size="14" fill="white" font-family="monospace" dominant-baseline="initial">34</text><rect x="1904" y="583.0" width="188" height="1" fill="white" fill-opacity="0.2" /><rect x="1904" y="537.0" width="188" height="1" fill="white" fill-opacity="0.2" /><rect x="1904" y="491.0" width="188" height="1" fill="white" fill-opacity="0.2" /><rect x="1904" y="445.0" width="188" height="1" fill="white" fill-opacity="0.5" /><text x="2102" y="445.0" font-size="14" fill="white" font-family="monospace" dominant-baseline="initial">35</text><rect x="1904" y="399.0" width="188" height="1" fill="white" fill-opacity="0.2" /><rect x="1904" y="353.5" width="188" height="1" fill="white" fill-opacity="0.2" /><rect x="1904" y="307.5" width="188" height="1" fill="white" fill-opacity="0.2" /><rect x="1904" y="261.5" width="188" height="1" fill="white" fill-opacity="0.5" /><text x="2102" y="261.5" font-size="14" fill="white" font-family="monospace" dominant-baseline="initial">36</text><rect x="1904" y="215.5" width="188" height="1" fill="white" fill-opacity="0.2" /><rect x="1904" y="169.5" width="188" height="1" fill="white" fill-opacity="0.2" /><rect x="1904" y="123.5" width="188" height="1" fill="white" fill-opacity="0.2" /><rect x="1904" y="78.0" width="188" height="1" fill="white" fill-opacity="0.5" /><text x="2102" y="78.0" font-size="14" fill="white" font-family="monospace" dominant-baseline="initial">37</text><rect x="1904" y="628.8000000000002" width="188" height="1" fill="aqua" fill-opacity="0.75" /><text x="1904" y="624.8000000000002" font-size="14" fill="aqua" fill-opacity="0.75" font-family="monospace">Phrase C</text><rect x="2142" y="78.5" width="188" height="735.0" fill="black" /><rect x="2142" y="812.5" width="188" height="1" fill="white" fill-opacity="0.5" /><text x="2340" y="812.5" font-size="14" fill="white" font-family="monospace" dominant-baseline="initial">37</text><rect x="2142" y="766.5" width="188" height="1" fill="white" fill-opacity="0.2" /><rect x="2142" y="720.5" width="188" height="1" fill="white" fill-opacity="0.2" /><rect x="2142" y="674.5" width="188" height="1" fill="white" fill-opacity="0.2" /><rect x="2142" y="628.5" width="188" height="1" fill="white" fill-opacity="0.5" /><text x="2340" y="628.5" font-size="14" fill="white" font-family="monospace" dominant-baseline="initial">38</text><rect x="2142" y="582.5" width="188" height="1" fill="white" fill-opacity="0.2" /><rect x="2142" y="537.0" width="188" height="1" fill="white" fill-opacity="0.2" /><rect x="2142" y="491.0" width="188" height="1" fill="white" fill-opacity="0.2" /><rect x="2142" y="445.0" width="188" height="1" fill="white" fill-opacity="0.5" /><text x="2340" y="445.0" font-size="14" fill="white" font-family="monospace" dominant-baseline="initial">39</text><rect x="2142" y="399.0" width="188" height="1" fill="white" fill-opacity="0.2" /><rect x="2142" y="353.0" width="188" height="1" fill="white" fill-opacity="0.2" /><rect x="2142" y="307.0" width="188" height="1" fill="white" fill-opacity="0.2" /><rect x="2142" y="261.0" width="188" height="1" fill="white" fill-opacity="0.5" /><text x="2340" y="261.0" font-size="14" fill="white" font-family="monospace" dominant-baseline="initial">40</text><rect x="2142" y="215.5" width="188" height="1" fill="white" fill-opacity="0.2" /><rect x="2142" y="169.5" width="188" height="1" fill="white" fill-opacity="0.2" /><rect x="2142" y="123.5" width="188" height="1" fill="white" fill-opacity="0.2" /><rect x="2142" y="77.5" width="188" height="1" fill="white" fill-opacity="0.5" /><text x="2340" y="77.5" font-size="14" fill="white" font-family="monospace" dominant-baseline="initial">41</text><rect x="2380" y="79.0" width="188" height="734.5" fill="black" /><rect x="2380" y="812.5" width="188" height="1" fill="white" fill-opacity="0.5" /><text x="2578" y="812.5" font-size="14" fill="white" font-family="monospace" dominant-baseline="initial">41</text><rect x="2380" y="766.5" width="188" height="1" fill="white" fill-opacity="0.2" /><rect x="2380" y="720.5" width="188" height="1" fill="white" fill-opacity="0.2" /><rect x="2380" y="675.0" width="188" height="1" fill="white" fill-opacity="0.2" /><rect x="2380" y="629.0" width="188" height="1" fill="white" fill-opacity="0.5" /><text x="2578" y="629.0" font-size="14" fill="white" font-family="monospace" dominant-baseline="initial">42</text><rect x="2380" y="583.0" width="188" height="1" fill="white" fill-opacity="0.2" /><rect x="2380" y="537.0" width="188" height="1" fill="white" fill-opacity="0.2" /><rect x="2380" y="491.0" width="188" height="1" fill="white" fill-opacity="0.2" /><rect x="2380" y="445.0" width="188" height="1" fill="white" fill-opacity="0.5" /><text x="2578" y="445.0" font-size="14" fill="white" font-family="monospace" dominant-baseline="initial">43</text><rect x="2380" y="399.5" width="188" height="1" fill="white" fill-opacity="0.2" /><rect x="2380" y="353.5" width="188" height="1" fill="white" fill-opacity="0.2" /><rect x="2380" y="307.5" width="188" height="1" fill="white" fill-opacity="0.2" /><rect x="2380" y="261.5" width="188" height="1" fill="white" fill-opacity="0.5" /><text x="2578" y="261.5" font-size="14" fill="white" font-family="monospace" dominant-baseline="initial">44</text><rect x="2380" y="215.5" width="188" height="1" fill="white" fill-opacity="0.2" /><rect x="2380" y="169.5" width="188" height="1" fill="white" fill-opacity="0.2" /><rect x="2380" y="124.0" width="188" height="1" fill="white" fill-opacity="0.2" /><rect x="2380" y="78.0" width="188" height="1" fill="white" fill-opacity="0.5" /><text x="2578" y="78.0" font-size="14" fill="white" font-family="monospace" dominant-baseline="initial">45</text><rect x="2380" y="628.9000000000005" width="188" height="1" fill="aqua" fill-opacity="0.75" /><text x="2380" y="624.9000000000005" font-size="14" fill="aqua" fill-opacity="0.75" font-family="monospace">Solo</text><rect x="2618" y="78.5" width="188" height="735.0" fill="black" /><rect x="2618" y="812.5" width="188" height="1" fill="white" fill-opacity="0.5" /><text x="2816" y="812.5" font-size="14" fill="white" font-family="monospace" dominant-baseline="initial">45</text><rect x="2618" y="766.5" width="188" height="1" fill="white" fill-opacity="0.2" /><rect x="2618" y="720.5" width="188" height="1" fill="white" fill-opacity="0.2" /><rect x="2618" y="674.5" width="188" height="1" fill="white" fill-opacity="0.2" /><rect x="2618" y="628.5" width="188" height="1" fill="white" fill-opacity="0.5" /><text x="2816" y="628.5" font-size="14" fill="white" font-family="monospace" dominant-baseline="initial">46</text><rect x="2618" y="583.0" width="188" height="1" fill="white" fill-opacity="0.2" /><rect x="2618" y="537.0" width="188" height="1" fill="white" fill-opacity="0.2" /><rect x="2618" y="491.0" width="188" height="1" fill="white" fill-opacity="0.2" /><rect x="2618" y="445.0" width="188" height="1" fill="white" fill-opacity="0.5" /><text x="2816" y="445.0" font-size="14" fill="white" font-family="monospace" dominant-baseline="initial">47</text><rect x="2618" y="399.0" width="188" height="1" fill="white" fill-opacity="0.2" /><rect x="2618" y="353.0" width="188" height="1" fill="white" fill-opacity="0.2" /><rect x="2618" y="307.5" width="188" height="1" fill="white" fill-opacity="0.2" /><rect x="2618" y="261.5" width="188" height="1" fill="white" fill-opacity="0.5" /><text x="2816" y="261.5" font-size="14" fill="white" font-family="monospace" dominant-baseline="initial">48</text><rect x="2618" y="215.5" width="188" height="1" fill="white" fill-opacity="0.2" /><rect x="2618" y="169.5" width="188" height="1" fill="white" fill-opacity="0.2" /><rect x="2618" y="123.5" width="188" height="1" fill="white" fill-opacity="0.2" /><rect x="2618" y="77.5" width="188" height="1" fill="white" fill-opacity="0.5" /><text x="2816" y="77.5" font-size="14" fill="white" font-family="monospace" dominant-baseline="initial">49</text><rect x="2856" y="79.0" width="188" height="734.5" fill="black" /><rect x="2856" y="812.5" width="188" height="1" fill="white" fill-opacity="0.5" /><text x="3054" y="812.5" font-size="14" fill="white" font-family="monospace" dominant-baseline="initial">49</text><rect x="2856" y="767.0" width="188" height="1" fill="white" fill-opacity="0.2" /><rect x="2856" y="721.0" width="188" height="1" fill="white" fill-opacity="0.2" /><rect x="2856" y="675.0" width="188" height="1" fill="white" fill-opacity="0.2" /><rect x="2856" y="629.0" width="188" height="1" fill="white" fill-opacity="0.5" /><text x="3054" y="629.0" font-size="14" fill="white" font-family="monospace" dominant-baseline="initial">50</text><rect x="2856" y="583.0" width="188" height="1" fill="white" fill-opacity="0.2" /><rect x="2856" y="537.0" width="188" height="1" fill="white" fill-opacity="0.2" /><rect x="2856" y="491.5" width="188" height="1" fill="white" fill-opacity="0.2" /><rect x="2856" y="445.5" width="188" height="1" fill="white" fill-opacity="0.5" /><text x="3054" y="445.5" font-size="14" fill="white" font-family="monospace" dominant-baseline="initial">51</text><rect x="2856" y="399.5" width="188" height="1" fill="white" fill-opacity="0.2" /><rect x="2856" y="353.5" width="188" height="1" fill="white" fill-opacity="0.2" /><rect x="2856" y="307.5" width="188" height="1" fill="white" fill-opacity="0.2" /><rect x="2856" y="261.5" width="188" height="1" fill="white" fill-opacity="0.5" /><text x="3054" y="261.5" font-size="14" fill="white" font-family="monospace" dominant-baseline="initial">52</text><rect x="2856" y="215.5" width="188" height="1" fill="white" fill-opacity="0.2" /><rect x="2856" y="170.0" width="188" height="1" fill="white" fill-opacity="0.2" /><rect x="2856" y="124.0" width="188" height="1" fill="white" fill-opacity="0.2" /><rect x="2856" y="78.0" width="188" height="1" fill="white" fill-opacity="0.5" /><text x="3054" y="78.0" font-size="14" fill="white" font-family="monospace" dominant-baseline="initial">53</text><rect x="3094" y="79.0" width="188" height="734.5" fill="black" /><rect x="3094" y="812.5" width="188" height="1" fill="white" fill-opacity="0.5" /><text x="3292" y="812.5" font-size="14" fill="white" font-family="monospace" dominant-baseline="initial">53</text><rect x="3094" y="766.5" width="188" height="1" fill="white" fill-opacity="0.2" /><rect x="3094" y="720.5" width="188" height="1" fill="white" fill-opacity="0.2" /><rect x="3094" y="674.5" width="188" height="1" fill="white" fill-opacity="0.2" /><rect x="3094" y="629.0" width="188" height="1" fill="white" fill-opacity="0.5" /><text x="3292" y="629.0" font-size="14" fill="white" font-family="monospace" dominant-baseline="initial">54</text><rect x="3094" y="583.0" width="188" height="1" fill="white" fill-opacity="0.2" /><rect x="3094" y="537.0" width="188" height="1" fill="white" fill-opacity="0.2" /><rect x="3094" y="491.0" width="188" height="1" fill="white" fill-opacity="0.2" /><rect x="3094" y="445.0" width="188" height="1" fill="white" fill-opacity="0.5" /><text x="3292" y="445.0" font-size="14" fill="white" font-family="monospace" dominant-baseline="initial">55</text><rect x="3094" y="399.0" width="188" height="1" fill="white" fill-opacity="0.2" /><rect x="3094" y="353.5" width="188" height="1" fill="white" fill-opacity="0.2" /><rect x="3094" y="307.5" width="188" height="1" fill="white" fill-opacity="0.2" /><rect x="3094" y="261.5" width="188" height="1" fill="white" fill-opacity="0.5" /><text x="3292" y="261.5" font-size="14" fill="white" font-family="monospace" dominant-baseline="initial">56</text><rect x="3094" y="215.5" width="188" height="1" fill="white" fill-opacity="0.2" /><rect x="3094" y="169.5" width="188" height="1" fill="white" fill-opacity="0.2" /><rect x="3094" y="123.5" width="188" height="1" fill="white" fill-opacity="0.2" /><rect x="3094" y="78.0" width="188" height="1" fill="white" fill-opacity="0.5" /><text x="3292" y="78.0" font-size="14" fill="white" font-family="monospace" dominant-baseline="initial">57</text><rect x="3332" y="78.5" width="188" height="735.0" fill="black" /><rect x="3332" y="812.5" width="188" height="1" fill="white" fill-opacity="0.5" /><text x="3530" y="812.5" font-size="14" fill="white" font-family="monospace" dominant-baseline="initial">57</text><rect x="3332" y="766.5" width="188" height="1" fill="white" fill-opacity="0.2" /><rect x="3332" y="720.5" width="188" height="1" fill="white" fill-opacity="0.2" /><rect x="3332" y="674.5" width="188" height="1" fill="white" fill-opacity="0.2" /><rect x="3332" y="628.5" width="188" height="1" fill="white" fill-opacity="0.5" /><text x="3530" y="628.5" font-size="14" fill="white" font-family="monospace" dominant-baseline="initial">58</text><rect x="3332" y="582.5" width="188" height="1" fill="white" fill-opacity="0.2" /><rect x="3332" y="537.0" width="188" height="1" fill="white" fill-opacity="0.2" /><rect x="3332" y="491.0" width="188" height="1" fill="white" fill-opacity="0.2" /><rect x="3332" y="445.0" width="188" height="1" fill="white" fill-opacity="0.5" /><text x="3530" y="445.0" font-size="14" fill="white" font-family="monospace" dominant-baseline="initial">59</text><rect x="3332" y="399.0" width="188" height="1" fill="white" fill-opacity="0.2" /><rect x="3332" y="353.0" width="188" height="1" fill="white" fill-opacity="0.2" /><rect x="3332" y="307.0" width="188" height="1" fill="white" fill-opacity="0.2" /><rect x="3332" y="261.5" width="188" height="1" fill="white" fill-opacity="0.5" /><text x="3530" y="261.5" font-size="14" fill="white" font-family="monospace" dominant-baseline="initial">60</text><rect x="3332" y="215.5" width="188" height="1" fill="white" fill-opacity="0.2" /><rect x="3332" y="169.5" width="188" height="1" fill="white" fill-opacity="0.2" /><rect x="3332" y="123.5" width="188" height="1" fill="white" fill-opacity="0.2" /><rect x="3332" y="77.5" width="188" height="1" fill="white" fill-opacity="0.5" /><text x="3530" y="77.5" font-size="14" fill="white" font-family="monospace" dominant-baseline="initial">61</text><rect x="3332" y="628.6000000000004" width="188" height="1" fill="aqua" fill-opacity="0.75" /><text x="3332" y="624.6000000000004" font-size="14" fill="aqua" fill-opacity="0.75" font-family="monospace">Phrase B</text><rect x="3570" y="79.0" width="188" height="734.5" fill="black" /><rect x="3570" y="812.5" width="188" height="1" fill="white" fill-opacity="0.5" /><text x="3768" y="812.5" font-size="14" fill="white" font-family="monospace" dominant-baseline="initial">61</text><rect x="3570" y="766.5" width="188" height="1" fill="white" fill-opacity="0.2" /><rect x="3570" y="721.0" width="188" height="1" fill="white" fill-opacity="0.2" /><rect x="3570" y="675.0" width="188" height="1" fill="white" fill-opacity="0.2" /><rect x="3570" y="629.0" width="188" height="1" fill="white" fill-opacity="0.5" /><text x="3768" y="629.0" font-size="14" fill="white" font-family="monospace" dominant-baseline="initial">62</text><rect x="3570" y="583.0" width="188" height="1" fill="white" fill-opacity="0.2" /><rect x="3570" y="537.0" width="188" height="1" fill="white" fill-opacity="0.2" /><rect x="3570" y="491.0" width="188" height="1" fill="white" fill-opacity="0.2" /><rect x="3570" y="445.5" width="188" height="1" fill="white" fill-opacity="0.5" /><text x="3768" y="445.5" font-size="14" fill="white" font-family="monospace" dominant-baseline="initial">63</text><rect x="3570" y="399.5" width="188" height="1" fill="white" fill-opacity="0.2" /><rect x="3570" y="353.5" width="188" height="1" fill="white" fill-opacity="0.2" /><rect x="3570" y="307.5" width="188" height="1" fill="white" fill-opacity="0.2" /><rect x="3570" y="261.5" width="188" height="1" fill="white" fill-opacity="0.5" /><text x="3768" y="261.5" font-size="14" fill="white" font-family="monospace" dominant-baseline="initial">64</text><rect x="3570" y="215.5" width="188" height="1" fill="white" fill-opacity="0.2" /><rect x="3570" y="170.0" width="188" height="1" fill="white" fill-opacity="0.2" /><rect x="3570" y="124.0" width="188" height="1" fill="white" fill-opacity="0.2" /><rect x="3570" y="78.0" width="188" height="1" fill="white" fill-opacity="0.5" /><text x="3768" y="78.0" font-size="14" fill="white" font-family="monospace" dominant-baseline="initial">65</text><rect x="3808" y="78.5" width="188" height="735.0" fill="black" /><rect x="3808" y="812.5" width="188" height="1" fill="white" fill-opacity="0.5" /><text x="4006" y="812.5" font-size="14" fill="white" font-family="monospace" dominant-baseline="initial">65</text><rect x="3808" y="766.5" width="188" height="1" fill="white" fill-opacity="0.2" /><rect x="3808" y="720.5" width="188" height="1" fill="white" fill-opacity="0.2" /><rect x="3808" y="674.5" width="188" height="1" fill="white" fill-opacity="0.2" /><rect x="3808" y="628.5" width="188" height="1" fill="white" fill-opacity="0.5" /><text x="4006" y="628.5" font-size="14" fill="white" font-family="monospace" dominant-baseline="initial">66</text><rect x="3808" y="583.0" width="188" height="1" fill="white" fill-opacity="0.2" /><rect x="3808" y="537.0" width="188" height="1" fill="white" fill-opacity="0.2" /><rect x="3808" y="491.0" width="188" height="1" fill="white" fill-opacity="0.2" /><rect x="3808" y="445.0" width="188" height="1" fill="white" fill-opacity="0.5" /><text x="4006" y="445.0" font-size="14" fill="white" font-family="monospace" dominant-baseline="initial">67</text><rect x="3808" y="399.0" width="188" height="1" fill="white" fill-opacity="0.2" /><rect x="3808" y="353.0" width="188" height="1" fill="white" fill-opacity="0.2" /><rect x="3808" y="307.5" width="188" height="1" fill="white" fill-opacity="0.2" /><rect x="3808" y="261.5" width="188" height="1" fill="white" fill-opacity="0.5" /><text x="4006" y="261.5" font-size="14" fill="white" font-family="monospace" dominant-baseline="initial">68</text><rect x="3808" y="215.5" width="188" height="1" fill="white" fill-opacity="0.2" /><rect x="3808" y="169.5" width="188" height="1" fill="white" fill-opacity="0.2" /><rect x="3808" y="123.5" width="188" height="1" fill="white" fill-opacity="0.2" /><rect x="3808" y="77.5" width="188" height="1" fill="white" fill-opacity="0.5" /><text x="4006" y="77.5" font-size="14" fill="white" font-family="monospace" dominant-baseline="initial">69</text><rect x="3808" y="628.7000000000007" width="188" height="1" fill="aqua" fill-opacity="0.75" /><text x="3808" y="624.7000000000007" font-size="14" fill="aqua" fill-opacity="0.75" font-family="monospace">Special</text><rect x="4046" y="79.0" width="188" height="734.5" fill="black" /><rect x="4046" y="812.5" width="188" height="1" fill="white" fill-opacity="0.5" /><text x="4244" y="812.5" font-size="14" fill="white" font-family="monospace" dominant-baseline="initial">69</text><rect x="4046" y="767.0" width="188" height="1" fill="white" fill-opacity="0.2" /><rect x="4046" y="721.0" width="188" height="1" fill="white" fill-opacity="0.2" /><rect x="4046" y="675.0" width="188" height="1" fill="white" fill-opacity="0.2" /><rect x="4046" y="629.0" width="188" height="1" fill="white" fill-opacity="0.5" /><text x="4244" y="629.0" font-size="14" fill="white" font-family="monospace" dominant-baseline="initial">70</text><rect x="4046" y="583.0" width="188" height="1" fill="white" fill-opacity="0.2" /><rect x="4046" y="537.0" width="188" height="1" fill="white" fill-opacity="0.2" /><rect x="4046" y="491.5" width="188" height="1" fill="white" fill-opacity="0.2" /><rect x="4046" y="445.5" width="188" height="1" fill="white" fill-opacity="0.5" /><text x="4244" y="445.5" font-size="14" fill="white" font-family="monospace" dominant-baseline="initial">71</text><rect x="4046" y="399.5" width="188" height="1" fill="white" fill-opacity="0.2" /><rect x="4046" y="353.5" width="188" height="1" fill="white" fill-opacity="0.2" /><rect x="4046" y="307.5" width="188" height="1" fill="white" fill-opacity="0.2" /><rect x="4046" y="261.5" width="188" height="1" fill="white" fill-opacity="0.5" /><text x="4244" y="261.5" font-size="14" fill="white" font-family="monospace" dominant-baseline="initial">72</text><rect x="4046" y="216.0" width="188" height="1" fill="white" fill-opacity="0.2" /><rect x="4046" y="170.0" width="188" height="1" fill="white" fill-opacity="0.2" /><rect x="4046" y="124.0" width="188" height="1" fill="white" fill-opacity="0.2" /><rect x="4046" y="78.0" width="188" height="1" fill="white" fill-opacity="0.5" /><text x="4244" y="78.0" font-size="14" fill="white" font-family="monospace" dominant-baseline="initial">73</text><rect x="4284" y="14.0" width="188" height="799.5" fill="black" /><rect x="4284" y="812.5" width="188" height="1" fill="white" fill-opacity="0.5" /><text x="4482" y="812.5" font-size="14" fill="white" font-family="monospace" dominant-baseline="initial">73</text><rect x="4284" y="766.5" width="188" height="1" fill="white" fill-opacity="0.2" /><rect x="4284" y="720.5" width="188" height="1" fill="white" fill-opacity="0.2" /><rect x="4284" y="675.0" width="188" height="1" fill="white" fill-opacity="0.2" /><rect x="4284" y="629.0" width="188" height="1" fill="white" fill-opacity="0.5" /><text x="4482" y="629.0" font-size="14" fill="white" font-family="monospace" dominant-baseline="initial">74</text><rect x="4284" y="583.0" width="188" height="1" fill="white" fill-opacity="0.2" /><rect x="4284" y="537.0" width="188" height="1" fill="white" fill-opacity="0.2" /><rect x="4284" y="491.0" width="188" height="1" fill="white" fill-opacity="0.2" /><rect x="4284" y="445.0" width="188" height="1" fill="white" fill-opacity="0.5" /><text x="4482" y="445.0" font-size="14" fill="white" font-family="monospace" dominant-baseline="initial">75</text></svg>