<?xml version="1.0" encoding="UTF-8"?><svg xmlns="http://www.w3.org/2000/svg" xmlns:xlink="http://www.w3.org/1999/xlink"     width="4998" height="850.5" viewBox="0 0 4998 850.5"><defs></defs><rect x="0" y="92.5" width="188" height="758.0" fill="black" /><rect x="0" y="849.5" width="188" height="1" fill="white" fill-opacity="0.5" /><text x="198" y="849.5" font-size="14" fill="white" font-family="monospace" dominant-baseline="initial">1</text><rect x="0" y="802.0" width="188" height="1" fill="white" fill-opacity="0.2" /><rect x="0" y="755.0" width="188" height="1" fill="white" fill-opacity="0.2" /><rect x="0" y="707.5" width="188" height="1" fill="white" fill-opacity="0.2" /><rect x="0" y="660.0" width="188" height="1" fill="white" fill-opacity="0.5" /><text x="198" y="660.0" font-size="14" fill="white" font-family="monospace" dominant-baseline="initial">2</text><rect x="0" y="612.5" width="188" height="1" fill="white" fill-opacity="0.2" /><rect x="0" y="565.5" width="188" height="1" fill="white" fill-opacity="0.2" /><rect x="0" y="518.0" width="188" height="1" fill="white" fill-opacity="0.2" /><rect x="0" y="470.5" width="188" height="1" fill="white" fill-opacity="0.5" /><text x="198" y="470.5" font-size="14" fill="white" font-family="monospace" dominant-baseline="initial">3</text><rect x="0" y="423.0" width="188" height="1" fill="white" fill-opacity="0.2" /><rect x="0" y="376.0" width="188" height="1" fill="white" fill-opacity="0.2" /><rect x="0" y="328.5" width="188" height="1" fill="white" fill-opacity="0.2" /><rect x="0" y="281.0" width="188" height="1" fill="white" fill-opacity="0.5" /><text x="198" y="281.0" font-size="14" fill="white" font-family="monospace" dominant-baseline="initial">4</text><rect x="0" y="233.5" width="188" height="1" fill="white" fill-opacity="0.2" /><rect x="0" y="186.5" width="188" height="1" fill="white" fill-opacity="0.2" /><rect x="0" y="139.0" width="188" height="1" fill="white" fill-opacity="0.2" /><rect x="0" y="91.5" width="188" height="1" fill="white" fill-opacity="0.5" /><text x="198" y="91.5" font-size="14" fill="white" font-family="monospace" dominant-baseline="initial">5</text><rect x="0" y="849.5" width="188" height="1" fill="aqua" fill-opacity="0.75" /><text x="0" y="845.5" font-size="14" fill="aqua" fill-opacity="0.75" font-family="monospace">Phrase A</text><rect x="0" y="849.5" width="188" height="1" fill="lime" fill-opacity="0.75" /><text x="198" y="836.5" font-size="14" fill="lime" font-family="monospace" dominant-baseline="initial">190</text><rect x="238" y="92.5" width="188" height="758.0" fill="black" /><rect x="238" y="849.5" width="188" height="1" fill="white" fill-opacity="0.5" /><text x="436" y="849.5" font-size="14" fill="white" font-family="monospace" dominant-baseline="initial">5</text><rect x="238" y="802.0" width="188" height="1" fill="white" fill-opacity="0.2" /><rect x="238" y="755.0" width="188" height="1" fill="white" fill-opacity="0.2" /><rect x="238" y="707.5" width="188" height="1" fill="white" fill-opacity="0.2" /><rect x="238" y="660.0" width="188" height="1" fill="white" fill-opacity="0.5" /><text x="436" y="660.0" font-size="14" fill="white" font-family="monospace" dominant-baseline="initial">6</text><rect x="238" y="613.0" width="188" height="1" fill="white" fill-opacity="0.2" /><rect x="238" y="565.5" width="188" height="1" fill="white" fill-opacity="0.2" /><rect x="238" y="518.0" width="188" height="1" fill="white" fill-opacity="0.2" /><rect x="238" y="470.5" width="188" height="1" fill="white" fill-opacity="0.5" /><text x="436" y="470.5" font-size="14" fill="white" font-family="monospace" dominant-baseline="initial">7</text><rect x="238" y="423.5" width="188" height="1" fill="white" fill-opacity="0.2" /><rect x="238" y="376.0" width="188" height="1" fill="white" fill-opacity="0.2" /><rect x="238" y="328.5" width="188" height="1" fill="white" fill-opacity="0.2" /><rect x="238" y="281.0" width="188" height="1" fill="white" fill-opacity="0.5" /><text x="436" y="281.0" font-size="14" fill="white" font-family="monospace" dominant-baseline="initial">8</text><rect x="238" y="234.0" width="188" height="1" fill="white" fill-opacity="0.2" /><rect x="238" y="186.5" width="188" height="1" fill="white" fill-opacity="0.2" /><rect x="238" y="139.0" width="188" height="1" fill="white" fill-opacity="0.2" /><rect x="238" y="91.5" width="188" height="1" fill="white" fill-opacity="0.5" /><text x="436" y="91.5" font-size="14" fill="white" font-family="monospace" dominant-baseline="initial">9</text><rect x="476" y="93.0" width="188" height="757.5" fill="black" /><rect x="476" y="849.5" width="188" height="1" fill="white" fill-opacity="0.5" /><text x="674" y="849.5" font-size="14" fill="white" font-family="monospace" dominant-baseline="initial">9</text><rect x="476" y="802.5" width="188" height="1" fill="white" fill-opacity="0.2" /><rect x="476" y="755.0" width="188" height="1" fill="white" fill-opacity="0.2" /><rect x="476" y="707.5" width="188" height="1" fill="white" fill-opacity="0.2" /><rect x="476" y="660.0" width="188" height="1" fill="white" fill-opacity="0.5" /><text x="674" y="660.0" font-size="14" fill="white" font-family="monospace" dominant-baseline="initial">10</text><rect x="476" y="613.0" width="188" height="1" fill="white" fill-opacity="0.2" /><rect x="476" y="565.5" width="188" height="1" fill="white" fill-opacity="0.2" /><rect x="476" y="518.0" width="188" height="1" fill="white" fill-opacity="0.2" /><rect x="476" y="471.0" width="188" height="1" fill="white" fill-opacity="0.5" /><text x="674" y="471.0" font-size="14" fill="white" font-family="monospace" dominant-baseline="initial">11</text><rect x="476" y="423.5" width="188" height="1" fill="white" fill-opacity="0.2" /><rect x="476" y="376.0" width="188" height="1" fill="white" fill-opacity="0.2" /><rect x="476" y="328.5" width="188" height="1" fill="white" fill-opacity="0.2" /><rect x="476" y="281.5" width="188" height="1" fill="white" fill-opacity="0.5" /><text x="674" y="281.5" font-size="14" fill="white" font-family="monospace" dominant-baseline="initial">12</text><rect x="476" y="234.0" width="188" height="1" fill="white" fill-opacity="0.2" /><rect x="476" y="186.5" width="188" height="1" fill="white" fill-opacity="0.2" /><rect x="476" y="139.0" width="188" height="1" fill="white" fill-opacity="0.2" /><rect x="476" y="92.0" width="188" height="1" fill="white" fill-opacity="0.5" /><text x="674" y="92.0" font-size="14" fill="white" font-family="monospace" dominant-baseline="initial">13</text><rect x="476" y="281.25" width="188" height="1" fill="aqua" fill-opacity="0.75" /><text x="476" y="277.25" font-size="14" fill="aqua" fill-opacity="0.75" font-family="monospace">Phrase B</text><rect x="714" y="92.5" width="188" height="758.0" fill="black" /><rect x="714" y="849.5" width="188" height="1" fill="white" fill-opacity="0.5" /><text x="912" y="849.5" font-size="14" fill="white" font-family="monospace" dominant-baseline="initial">13</text><rect x="714" y="802.0" width="188" height="1" fill="white" fill-opacity="0.2" /><rect x="714" y="754.5" width="188" height="1" fill="white" fill-opacity="0.2" /><rect x="714" y="707.0" width="188" height="1" fill="white" fill-opacity="0.2" /><rect x="714" y="660.0" width="188" height="1" fill="white" fill-opacity="0.5" /><text x="912" y="660.0" font-size="14" fill="white" font-family="monospace" dominant-baseline="initial">14</text><rect x="714" y="612.5" width="188" height="1" fill="white" fill-opacity="0.2" /><rect x="714" y="565.0" width="188" height="1" fill="white" fill-opacity="0.2" /><rect x="714" y="517.5" width="188" height="1" fill="white" fill-opacity="0.2" /><rect x="714" y="470.5" width="188" height="1" fill="white" fill-opacity="0.5" /><text x="912" y="470.5" font-size="14" fill="white" font-family="monospace" dominant-baseline="initial">15</text><rect x="714" y="423.0" width="188" height="1" fill="white" fill-opacity="0.2" /><rect x="714" y="375.5" width="188" height="1" fill="white" fill-opacity="0.2" /><rect x="714" y="328.5" width="188" height="1" fill="white" fill-opacity="0.2" /><rect x="714" y="281.0" width="188" height="1" fill="white" fill-opacity="0.5" /><text x="912" y="281.0" font-size="14" fill="white" font-family="monospace" dominant-baseline="initial">16</text><rect x="714" y="233.5" width="188" height="1" fill="white" fill-opacity="0.2" /><rect x="714" y="186.0" width="188" height="1" fill="white" fill-opacity="0.2" /><rect x="714" y="139.0" width="188" height="1" fill="white" fill-opacity="0.2" /><rect x="714" y="91.5" width="188" height="1" fill="white" fill-opacity="0.5" /><text x="912" y="91.5" font-size="14" fill="white" font-family="monospace" dominant-baseline="initial">17</text><rect x="952" y="92.5" width="188" height="758.0" fill="black" /><rect x="952" y="849.5" width="188" height="1" fill="white" fill-opacity="0.5" /><text x="1150" y="849.5" font-size="14" fill="white" font-family="monospace" dominant-baseline="initial">17</text><rect x="952" y="802.0" width="188" height="1" fill="white" fill-opacity="0.2" /><rect x="952" y="754.5" width="188" height="1" fill="white" fill-opacity="0.2" /><rect x="952" y="707.5" width="188" height="1" fill="white" fill-opacity="0.2" /><rect x="952" y="660.0" width="188" height="1" fill="white" fill-opacity="0.5" /><text x="1150" y="660.0" font-size="14" fill="white" font-family="monospace" dominant-baseline="initial">18</text><rect x="952" y="612.5" width="188" height="1" fill="white" fill-opacity="0.2" /><rect x="952" y="565.0" width="188" height="1" fill="white" fill-opacity="0.2" /><rect x="952" y="518.0" width="188" height="1" fill="white" fill-opacity="0.2" /><rect x="952" y="470.5" width="188" height="1" fill="white" fill-opacity="0.5" /><text x="1150" y="470.5" font-size="14" fill="white" font-family="monospace" dominant-baseline="initial">19</text><rect x="952" y="423.0" width="188" height="1" fill="white" fill-opacity="0.2" /><rect x="952" y="375.5" width="188" height="1" fill="white" fill-opacity="0.2" /><rect x="952" y="328.5" width="188" height="1" fill="white" fill-opacity="0.2" /><rect x="952" y="281.0" width="188" height="1" fill="white" fill-opacity="0.5" /><text x="1150" y="281.0" font-size="14" fill="white" font-family="monospace" dominant-baseline="initial">20</text><rect x="952" y="233.5" width="188" height="1" fill="white" fill-opacity="0.2" /><rect x="952" y="186.5" width="188" height="1" fill="white" fill-opacity="0.2" /><rect x="952" y="139.0" width="188" height="1" fill="white" fill-opacity="0.2" /><rect x="952" y="91.5" width="188" height="1" fill="white" fill-opacity="0.5" /><text x="1150" y="91.5" font-size="14" fill="white" font-family="monospace" dominant-baseline="initial">21</text><rect x="1190" y="92.5" width="188" height="758.0" fill="black" /><rect x="1190" y="849.5" width="188" height="1" fill="white" fill-opacity="0.5" /><text x="1388" y="849.5" font-size="14" fill="white" font-family="monospace" dominant-baseline="initial">21</text><rect x="1190" y="802.0" width="188" height="1" fill="white" fill-opacity="0.2" /><rect x="1190" y="755.0" width="188" height="1" fill="white" fill-opacity="0.2" /><rect x="1190" y="707.5" width="188" height="1" fill="white" fill-opacity="0.2" /><rect x="1190" y="660.0" width="188" height="1" fill="white" fill-opacity="0.5" /><text x="1388" y="660.0" font-size="14" fill="white" font-family="monospace" dominant-baseline="initial">22</text><rect x="1190" y="612.5" width="188" height="1" fill="white" fill-opacity="0.2" /><rect x="1190" y="565.5" width="188" height="1" fill="white" fill-opacity="0.2" /><rect x="1190" y="518.0" width="188" height="1" fill="white" fill-opacity="0.2" /><rect x="1190" y="470.5" width="188" height="1" fill="white" fill-opacity="0.5" /><text x="1388" y="470.5" font-size="14" fill="white" font-family="monospace" dominant-baseline="initial">23</text><rect x="1190" y="423.0" width="188" height="1" fill="white" fill-opacity="0.2" /><rect x="1190" y="376.0" width="188" height="1" fill="white" fill-opacity="0.2" /><rect x="1190" y="328.5" width="188" height="1" fill="white" fill-opacity="0.2" /><rect x="1190" y="281.0" width="188" height="1" fill="white" fill-opacity="0.5" /><text x="1388" y="281.0" font-size="14" fill="white" font-family="monospace" dominant-baseline="initial">24</text><rect x="1190" y="233.5" width="188" height="1" fill="white" fill-opacity="0.2" /><rect x="1190" y="186.5" width="188" height="1" fill="white" fill-opacity="0.2" /><rect x="1190" y="139.0" width="188" height="1" fill="white" fill-opacity="0.2" /><rect x="1190" y="91.5" width="188" height="1" fill="white" fill-opacity="0.5" /><text x="1388" y="91.5" font-size="14" fill="white" font-family="monospace" dominant-baseline="initial">25</text><rect x="1428" y="92.5" width="188" height="758.0" fill="black" /><rect x="1428" y="849.5" width="188" height="1" fill="white" fill-opacity="0.5" /><text x="1626" y="849.5" font-size="14" fill="white" font-family="monospace" dominant-baseline="initial">25</text><rect x="1428" y="802.5" width="188" height="1" fill="white" fill-opacity="0.2" /><rect x="1428" y="755.0" width="188" height="1" fill="white" fill-opacity="0.2" /><rect x="1428" y="707.5" width="188" height="1" fill="white" fill-opacity="0.2" /><rect x="1428" y="660.0" width="188" height="1" fill="white" fill-opacity="0.5" /><text x="1626" y="660.0" font-size="14" fill="white" font-family="monospace" dominant-baseline="initial">26</text><rect x="1428" y="613.0" width="188" height="1" fill="white" fill-opacity="0.2" /><rect x="1428" y="565.5" width="188" height="1" fill="white" fill-opacity="0.2" /><rect x="1428" y="518.0" width="188" height="1" fill="white" fill-opacity="0.2" /><rect x="1428" y="470.5" width="188" height="1" fill="white" fill-opacity="0.5" /><text x="1626" y="470.5" font-size="14" fill="white" font-family="monospace" dominant-baseline="initial">27</text><rect x="1428" y="423.5" width="188" height="1" fill="white" fill-opacity="0.2" /><rect x="1428" y="376.0" width="188" height="1" fill="white" fill-opacity="0.2" /><rect x="1428" y="328.5" width="188" height="1" fill="white" fill-opacity="0.2" /><rect x="1428" y="281.0" width="188" height="1" fill="white" fill-opacity="0.5" /><text x="1626" y="281.0" font-size="14" fill="white" font-family="monospace" dominant-baseline="initial">28</text><rect x="1428" y="234.0" width="188" height="1" fill="white" fill-opacity="0.2" /><rect x="1428" y="186.5" width="188" height="1" fill="white" fill-opacity="0.2" /><rect x="1428" y="139.0" width="188" height="1" fill="white" fill-opacity="0.2" /><rect x="1428" y="91.5" width="188" height="1" fill="white" fill-opacity="0.5" /><text x="1626" y="91.5" font-size="14" fill="white" font-family="monospace" dominant-baseline="initial">29</text><rect x="1428" y="281.25" width="188" height="1" fill="aqua" fill-opacity="0.75" /><text x="1428" y="277.25" font-size="14" fill="aqua" fill-opacity="0.75" font-family="monospace">Phrase B</text><rect x="1666" y="93.0" width="188" height="757.5" fill="black" /><rect x="1666" y="849.5" width="188" height="1" fill="white" fill-opacity="0.5" /><text x="1864" y="849.5" font-size="14" fill="white" font-family="monospace" dominant-baseline="initial">29</text><rect x="1666" y="802.5" width="188" height="1" fill="white" fill-opacity="0.2" /><rect x="1666" y="755.0" width="188" height="1" fill="white" fill-opacity="0.2" /><rect x="1666" y="707.5" width="188" height="1" fill="white" fill-opacity="0.2" /><rect x="1666" y="660.5" width="188" height="1" fill="white" fill-opacity="0.5" /><text x="1864" y="660.5" font-size="14" fill="white" font-family="monospace" dominant-baseline="initial">30</text><rect x="1666" y="613.0" width="188" height="1" fill="white" fill-opacity="0.2" /><rect x="1666" y="565.5" width="188" height="1" fill="white" fill-opacity="0.2" /><rect x="1666" y="518.0" width="188" height="1" fill="white" fill-opacity="0.2" /><rect x="1666" y="471.0" width="188" height="1" fill="white" fill-opacity="0.5" /><text x="1864" y="471.0" font-size="14" fill="white" font-family="monospace" dominant-baseline="initial">31</text><rect x="1666" y="423.5" width="188" height="1" fill="white" fill-opacity="0.2" /><rect x="1666" y="376.0" width="188" height="1" fill="white" fill-opacity="0.2" /><rect x="1666" y="328.5" width="188" height="1" fill="white" fill-opacity="0.2" /><rect x="1666" y="281.5" width="188" height="1" fill="white" fill-opacity="0.5" /><text x="1864" y="281.5" font-size="14" fill="white" font-family="monospace" dominant-baseline="initial">32</text><rect x="1666" y="234.0" width="188" height="1" fill="white" fill-opacity="0.2" /><rect x="1666" y="186.5" width="188" height="1" fill="white" fill-opacity="0.2" /><rect x="1666" y="139.0" width="188" height="1" fill="white" fill-opacity="0.2" /><rect x="1666" y="92.0" width="188" height="1" fill="white" fill-opacity="0.5" /><text x="1864" y="92.0" font-size="14" fill="white" font-family="monospace" dominant-baseline="initial">33</text><rect x="1904" y="92.5" width="188" height="758.0" fill="black" /><rect x="1904" y="849.5" width="188" height="1" fill="white" fill-opacity="0.5" /><text x="2102" y="849.5" font-size="14" fill="white" font-family="monospace" dominant-baseline="initial">33</text><rect x="1904" y="802.0" width="188" height="1" fill="white" fill-opacity="0.2" /><rect x="1904" y="754.5" width="188" height="1" fill="white" fill-opacity="0.2" /><rect x="1904" y="707.0" width="188" height="1" fill="white" fill-opacity="0.2" /><rect x="1904" y="660.0" width="188" height="1" fill="white" fill-opacity="0.5" /><text x="2102" y="660.0" font-size="14" fill="white" font-family="monospace" dominant-baseline="initial">34</text><rect x="1904" y="612.5" width="188" height="1" fill="white" fill-opacity="0.2" /><rect x="1904" y="565.0" width="188" height="1" fill="white" fill-opacity="0.2" /><rect x="1904" y="518.0" width="188" height="1" fill="white" fill-opacity="0.2" /><rect x="1904" y="470.5" width="188" height="1" fill="white" fill-opacity="0.5" /><text x="2102" y="470.5" font-size="14" fill="white" font-family="monospace" dominant-baseline="initial">35</text><rect x="1904" y="423.0" width="188" height="1" fill="white" fill-opacity="0.2" /><rect x="1904" y="375.5" width="188" height="1" fill="white" fill-opacity="0.2" /><rect x="1904" y="328.5" width="188" height="1" fill="white" fill-opacity="0.2" /><rect x="1904" y="281.0" width="188" height="1" fill="white" fill-opacity="0.5" /><text x="2102" y="281.0" font-size="14" fill="white" font-family="monospace" dominant-baseline="initial">36</text><rect x="1904" y="233.5" width="188" height="1" fill="white" fill-opacity="0.2" /><rect x="1904" y="186.0" width="188" height="1" fill="white" fill-opacity="0.2" /><rect x="1904" y="139.0" width="188" height="1" fill="white" fill-opacity="0.2" /><rect x="1904" y="91.5" width="188" height="1" fill="white" fill-opacity="0.5" /><text x="2102" y="91.5" font-size="14" fill="white" font-family="monospace" dominant-baseline="initial">37</text><rect x="1904" y="281.0" width="188" height="1" fill="aqua" fill-opacity="0.75" /><text x="1904" y="277.0" font-size="14" fill="aqua" fill-opacity="0.75" font-family="monospace">Special</text><rect x="2142" y="92.5" width="188" height="758.0" fill="black" /><rect x="2142" y="849.5" width="188" height="1" fill="white" fill-opacity="0.5" /><text x="2340" y="849.5" font-size="14" fill="white" font-family="monospace" dominant-baseline="initial">37</text><rect x="2142" y="802.0" width="188" height="1" fill="white" fill-opacity="0.2" /><rect x="2142" y="754.5" width="188" height="1" fill="white" fill-opacity="0.2" /><rect x="2142" y="707.5" width="188" height="1" fill="white" fill-opacity="0.2" /><rect x="2142" y="660.0" width="188" height="1" fill="white" fill-opacity="0.5" /><text x="2340" y="660.0" font-size="14" fill="white" font-family="monospace" dominant-baseline="initial">38</text><rect x="2142" y="612.5" width="188" height="1" fill="white" fill-opacity="0.2" /><rect x="2142" y="565.0" width="188" height="1" fill="white" fill-opacity="0.2" /><rect x="2142" y="518.0" width="188" height="1" fill="white" fill-opacity="0.2" /><rect x="2142" y="470.5" width="188" height="1" fill="white" fill-opacity="0.5" /><text x="2340" y="470.5" font-size="14" fill="white" font-family="monospace" dominant-baseline="initial">39</text><rect x="2142" y="423.0" width="188" height="1" fill="white" fill-opacity="0.2" /><rect x="2142" y="376.0" width="188" height="1" fill="white" fill-opacity="0.2" /><rect x="2142" y="328.5" width="188" height="1" fill="white" fill-opacity="0.2" /><rect x="2142" y="281.0" width="188" height="1" fill="white" fill-opacity="0.5" /><text x="2340" y="281.0" font-size="14" fill="white" font-family="monospace" dominant-baseline="initial">40</text><rect x="2142" y="233.5" width="188" height="1" fill="white" fill-opacity="0.2" /><rect x="2142" y="186.5" width="188" height="1" fill="white" fill-opacity="0.2" /><rect x="2142" y="139.0" width="188" height="1" fill="white" fill-opacity="0.2" /><rect x="2142" y="91.5" width="188" height="1" fill="white" fill-opacity="0.5" /><text x="2340" y="91.5" font-size="14" fill="white" font-family="monospace" dominant-baseline="initial">41</text><rect x="2380" y="92.5" width="188" height="758.0" fill="black" /><rect x="2380" y="849.5" width="188" height="1" fill="white" fill-opacity="0.5" /><text x="2578" y="849.5" font-size="14" fill="white" font-family="monospace" dominant-baseline="initial">41</text><rect x="2380" y="802.0" width="188" height="1" fill="white" fill-opacity="0.2" /><rect x="2380" y="755.0" width="188" height="1" fill="white" fill-opacity="0.2" /><rect x="2380" y="707.5" width="188" height="1" fill="white" fill-opacity="0.2" /><rect x="2380" y="660.0" width="188" height="1" fill="white" fill-opacity="0.5" /><text x="2578" y="660.0" font-size="14" fill="white" font-family="monospace" dominant-baseline="initial">42</text><rect x="2380" y="612.5" width="188" height="1" fill="white" fill-opacity="0.2" /><rect x="2380" y="565.5" width="188" height="1" fill="white" fill-opacity="0.2" /><rect x="2380" y="518.0" width="188" height="1" fill="white" fill-opacity="0.2" /><rect x="2380" y="470.5" width="188" height="1" fill="white" fill-opacity="0.5" /><text x="2578" y="470.5" font-size="14" fill="white" font-family="monospace" dominant-baseline="initial">43</text><rect x="2380" y="423.0" width="188" height="1" fill="white" fill-opacity="0.2" /><rect x="2380" y="376.0" width="188" height="1" fill="white" fill-opacity="0.2" /><rect x="2380" y="328.5" width="188" height="1" fill="white" fill-opacity="0.2" /><rect x="2380" y="281.0" width="188" height="1" fill="white" fill-opacity="0.5" /><text x="2578" y="281.0" font-size="14" fill="white" font-family="monospace" dominant-baseline="initial">44</text><rect x="2380" y="234.0" width="188" height="1" fill="white" fill-opacity="0.2" /><rect x="2380" y="186.5" width="188" height="1" fill="white" fill-opacity="0.2" /><rect x="2380" y="139.0" width="188" height="1" fill="white" fill-opacity="0.2" /><rect x="2380" y="91.5" width="188" height="1" fill="white" fill-opacity="0.5" /><text x="2578" y="91.5" font-size="14" fill="white" font-family="monospace" dominant-baseline="initial">45</text><rect x="2618" y="93.0" width="188" height="757.5" fill="black" /><rect x="2618" y="849.5" width="188" height="1" fill="white" fill-opacity="0.5" /><text x="2816" y="849.5" font-size="14" fill="white" font-family="monospace" dominant-baseline="initial">45</text><rect x="2618" y="802.5" width="188" height="1" fill="white" fill-opacity="0.2" /><rect x="2618" y="755.0" width="188" height="1" fill="white" fill-opacity="0.2" /><rect x="2618" y="707.5" width="188" height="1" fill="white" fill-opacity="0.2" /><rect x="2618" y="660.0" width="188" height="1" fill="white" fill-opacity="0.5" /><text x="2816" y="660.0" font-size="14" fill="white" font-family="monospace" dominant-baseline="initial">46</text><rect x="2618" y="613.0" width="188" height="1" fill="white" fill-opacity="0.2" /><rect x="2618" y="565.5" width="188" height="1" fill="white" fill-opacity="0.2" /><rect x="2618" y="518.0" width="188" height="1" fill="white" fill-opacity="0.2" /><rect x="2618" y="470.5" width="188" height="1" fill="white" fill-opacity="0.5" /><text x="2816" y="470.5" font-size="14" fill="white" font-family="monospace" dominant-baseline="initial">47</text><rect x="2618" y="423.5" width="188" height="1" fill="white" fill-opacity="0.2" /><rect x="2618" y="376.0" width="188" height="1" fill="white" fill-opacity="0.2" /><rect x="2618" y="328.5" width="188" height="1" fill="white" fill-opacity="0.2" /><rect x="2618" y="281.5" width="188" height="1" fill="white" fill-opacity="0.5" /><text x="2816" y="281.5" font-size="14" fill="white" font-family="monospace" dominant-baseline="initial">48</text><rect x="2618" y="234.0" width="188" height="1" fill="white" fill-opacity="0.2" /><rect x="2618" y="186.5" width="188" height="1" fill="white" fill-opacity="0.2" /><rect x="2618" y="139.0" width="188" height="1" fill="white" fill-opacity="0.2" /><rect x="2618" y="92.0" width="188" height="1" fill="white" fill-opacity="0.5" /><text x="2816" y="92.0" font-size="14" fill="white" font-family="monospace" dominant-baseline="initial">49</text><rect x="2618" y="849.6499999999996" width="188" height="1" fill="aqua" fill-opacity="0.75" /><text x="2618" y="845.6499999999996" font-size="14" fill="aqua" fill-opacity="0.75" font-family="monospace">Solo</text><rect x="2856" y="92.5" width="188" height="758.0" fill="black" /><rect x="2856" y="849.5" width="188" height="1" fill="white" fill-opacity="0.5" /><text x="3054" y="849.5" font-size="14" fill="white" font-family="monospace" dominant-baseline="initial">49</text><rect x="2856" y="802.0" width="188" height="1" fill="white" fill-opacity="0.2" /><rect x="2856" y="754.5" width="188" height="1" fill="white" fill-opacity="0.2" /><rect x="2856" y="707.0" width="188" height="1" fill="white" fill-opacity="0.2" /><rect x="2856" y="660.0" width="188" height="1" fill="white" fill-opacity="0.5" /><text x="3054" y="660.0" font-size="14" fill="white" font-family="monospace" dominant-baseline="initial">50</text><rect x="2856" y="612.5" width="188" height="1" fill="white" fill-opacity="0.2" /><rect x="2856" y="565.0" width="188" height="1" fill="white" fill-opacity="0.2" /><rect x="2856" y="517.5" width="188" height="1" fill="white" fill-opacity="0.2" /><rect x="2856" y="470.5" width="188" height="1" fill="white" fill-opacity="0.5" /><text x="3054" y="470.5" font-size="14" fill="white" font-family="monospace" dominant-baseline="initial">51</text><rect x="2856" y="423.0" width="188" height="1" fill="white" fill-opacity="0.2" /><rect x="2856" y="375.5" width="188" height="1" fill="white" fill-opacity="0.2" /><rect x="2856" y="328.0" width="188" height="1" fill="white" fill-opacity="0.2" /><rect x="2856" y="281.0" width="188" height="1" fill="white" fill-opacity="0.5" /><text x="3054" y="281.0" font-size="14" fill="white" font-family="monospace" dominant-baseline="initial">52</text><rect x="2856" y="233.5" width="188" height="1" fill="white" fill-opacity="0.2" /><rect x="2856" y="186.0" width="188" height="1" fill="white" fill-opacity="0.2" /><rect x="2856" y="139.0" width="188" height="1" fill="white" fill-opacity="0.2" /><rect x="2856" y="91.5" width="188" height="1" fill="white" fill-opacity="0.5" /><text x="3054" y="91.5" font-size="14" fill="white" font-family="monospace" dominant-baseline="initial">53</text><rect x="3094" y="92.5" width="188" height="758.0" fill="black" /><rect x="3094" y="849.5" width="188" height="1" fill="white" fill-opacity="0.5" /><text x="3292" y="849.5" font-size="14" fill="white" font-family="monospace" dominant-baseline="initial">53</text><rect x="3094" y="802.0" width="188" height="1" fill="white" fill-opacity="0.2" /><rect x="3094" y="754.5" width="188" height="1" fill="white" fill-opacity="0.2" /><rect x="3094" y="707.5" width="188" height="1" fill="white" fill-opacity="0.2" /><rect x="3094" y="660.0" width="188" height="1" fill="white" fill-opacity="0.5" /><text x="3292" y="660.0" font-size="14" fill="white" font-family="monospace" dominant-baseline="initial">54</text><rect x="3094" y="612.5" width="188" height="1" fill="white" fill-opacity="0.2" /><rect x="3094" y="565.0" width="188" height="1" fill="white" fill-opacity="0.2" /><rect x="3094" y="518.0" width="188" height="1" fill="white" fill-opacity="0.2" /><rect x="3094" y="470.5" width="188" height="1" fill="white" fill-opacity="0.5" /><text x="3292" y="470.5" font-size="14" fill="white" font-family="monospace" dominant-baseline="initial">55</text><rect x="3094" y="423.0" width="188" height="1" fill="white" fill-opacity="0.2" /><rect x="3094" y="375.5" width="188" height="1" fill="white" fill-opacity="0.2" /><rect x="3094" y="328.5" width="188" height="1" fill="white" fill-opacity="0.2" /><rect x="3094" y="281.0" width="188" height="1" fill="white" fill-opacity="0.5" /><text x="3292" y="281.0" font-size="14" fill="white" font-family="monospace" dominant-baseline="initial">56</text><rect x="3094" y="233.5" width="188" height="1" fill="white" fill-opacity="0.2" /><rect x="3094" y="186.0" width="188" height="1" fill="white" fill-opacity="0.2" /><rect x="3094" y="139.0" width="188" height="1" fill="white" fill-opacity="0.2" /><rect x="3094" y="91.5" width="188" height="1" fill="white" fill-opacity="0.5" /><text x="3292" y="91.5" font-size="14" fill="white" font-family="monospace" dominant-baseline="initial">57</text><rect x="3332" y="92.5" width="188" height="758.0" fill="black" /><rect x="3332" y="849.5" width="188" height="1" fill="white" fill-opacity="0.5" /><text x="3530" y="849.5" font-size="14" fill="white" font-family="monospace" dominant-baseline="initial">57</text><rect x="3332" y="802.0" width="188" height="1" fill="white" fill-opacity="0.2" /><rect x="3332" y="755.0" width="188" height="1" fill="white" fill-opacity="0.2" /><rect x="3332" y="707.5" width="188" height="1" fill="white" fill-opacity="0.2" /><rect x="3332" y="660.0" width="188" height="1" fill="white" fill-opacity="0.5" /><text x="3530" y="660.0" font-size="14" fill="white" font-family="monospace" dominant-baseline="initial">58</text><rect x="3332" y="612.5" width="188" height="1" fill="white" fill-opacity="0.2" /><rect x="3332" y="565.5" width="188" height="1" fill="white" fill-opacity="0.2" /><rect x="3332" y="518.0" width="188" height="1" fill="white" fill-opacity="0.2" /><rect x="3332" y="470.5" width="188" height="1" fill="white" fill-opacity="0.5" /><text x="3530" y="470.5" font-size="14" fill="white" font-family="monospace" dominant-baseline="initial">59</text><rect x="3332" y="423.0" width="188" height="1" fill="white" fill-opacity="0.2" /><rect x="3332" y="376.0" width="188" height="1" fill="white" fill-opacity="0.2" /><rect x="3332" y="328.5" width="188" height="1" fill="white" fill-opacity="0.2" /><rect x="3332" y="281.0" width="188" height="1" fill="white" fill-opacity="0.5" /><text x="3530" y="281.0" font-size="14" fill="white" font-family="monospace" dominant-baseline="initial">60</text><rect x="3332" y="233.5" width="188" height="1" fill="white" fill-opacity="0.2" /><rect x="3332" y="186.5" width="188" height="1" fill="white" fill-opacity="0.2" /><rect x="3332" y="139.0" width="188" height="1" fill="white" fill-opacity="0.2" /><rect x="3332" y="91.5" width="188" height="1" fill="white" fill-opacity="0.5" /><text x="3530" y="91.5" font-size="14" fill="white" font-family="monospace" dominant-baseline="initial">61</text><rect x="3570" y="92.5" width="188" height="758.0" fill="black" /><rect x="3570" y="849.5" width="188" height="1" fill="white" fill-opacity="0.5" /><text x="3768" y="849.5" font-size="14" fill="white" font-family="monospace" dominant-baseline="initial">61</text><rect x="3570" y="802.0" width="188" height="1" fill="white" fill-opacity="0.2" /><rect x="3570" y="755.0" width="188" height="1" fill="white" fill-opacity="0.2" /><rect x="3570" y="707.5" width="188" height="1" fill="white" fill-opacity="0.2" /><rect x="3570" y="660.0" width="188" height="1" fill="white" fill-opacity="0.5" /><text x="3768" y="660.0" font-size="14" fill="white" font-family="monospace" dominant-baseline="initial">62</text><rect x="3570" y="613.0" width="188" height="1" fill="white" fill-opacity="0.2" /><rect x="3570" y="565.5" width="188" height="1" fill="white" fill-opacity="0.2" /><rect x="3570" y="518.0" width="188" height="1" fill="white" fill-opacity="0.2" /><rect x="3570" y="470.5" width="188" height="1" fill="white" fill-opacity="0.5" /><text x="3768" y="470.5" font-size="14" fill="white" font-family="monospace" dominant-baseline="initial">63</text><rect x="3570" y="423.5" width="188" height="1" fill="white" fill-opacity="0.2" /><rect x="3570" y="376.0" width="188" height="1" fill="white" fill-opacity="0.2" /><rect x="3570" y="328.5" width="188" height="1" fill="white" fill-opacity="0.2" /><rect x="3570" y="281.0" width="188" height="1" fill="white" fill-opacity="0.5" /><text x="3768" y="281.0" font-size="14" fill="white" font-family="monospace" dominant-baseline="initial">64</text><rect x="3570" y="234.0" width="188" height="1" fill="white" fill-opacity="0.2" /><rect x="3570" y="186.5" width="188" height="1" fill="white" fill-opacity="0.2" /><rect x="3570" y="139.0" width="188" height="1" fill="white" fill-opacity="0.2" /><rect x="3570" y="91.5" width="188" height="1" fill="white" fill-opacity="0.5" /><text x="3768" y="91.5" font-size="14" fill="white" font-family="monospace" dominant-baseline="initial">65</text><rect x="3570" y="470.60000000000036" width="188" height="1" fill="aqua" fill-opacity="0.75" /><text x="3570" y="466.60000000000036" font-size="14" fill="aqua" fill-opacity="0.75" font-family="monospace">Phrase B</text><rect x="3808" y="93.0" width="188" height="757.5" fill="black" /><rect x="3808" y="849.5" width="188" height="1" fill="white" fill-opacity="0.5" /><text x="4006" y="849.5" font-size="14" fill="white" font-family="monospace" dominant-baseline="initial">65</text><rect x="3808" y="802.5" width="188" height="1" fill="white" fill-opacity="0.2" /><rect x="3808" y="755.0" width="188" height="1" fill="white" fill-opacity="0.2" /><rect x="3808" y="707.5" width="188" height="1" fill="white" fill-opacity="0.2" /><rect x="3808" y="660.0" width="188" height="1" fill="white" fill-opacity="0.5" /><text x="4006" y="660.0" font-size="14" fill="white" font-family="monospace" dominant-baseline="initial">66</text><rect x="3808" y="613.0" width="188" height="1" fill="white" fill-opacity="0.2" /><rect x="3808" y="565.5" width="188" height="1" fill="white" fill-opacity="0.2" /><rect x="3808" y="518.0" width="188" height="1" fill="white" fill-opacity="0.2" /><rect x="3808" y="471.0" width="188" height="1" fill="white" fill-opacity="0.5" /><text x="4006" y="471.0" font-size="14" fill="white" font-family="monospace" dominant-baseline="initial">67</text><rect x="3808" y="423.5" width="188" height="1" fill="white" fill-opacity="0.2" /><rect x="3808" y="376.0" width="188" height="1" fill="white" fill-opacity="0.2" /><rect x="3808" y="328.5" width="188" height="1" fill="white" fill-opacity="0.2" /><rect x="3808" y="281.5" width="188" height="1" fill="white" fill-opacity="0.5" /><text x="4006" y="281.5" font-size="14" fill="white" font-family="monospace" dominant-baseline="initial">68</text><rect x="3808" y="234.0" width="188" height="1" fill="white" fill-opacity="0.2" /><rect x="3808" y="186.5" width="188" height="1" fill="white" fill-opacity="0.2" /><rect x="3808" y="139.0" width="188" height="1" fill="white" fill-opacity="0.2" /><rect x="3808" y="92.0" width="188" height="1" fill="white" fill-opacity="0.5" /><text x="4006" y="92.0" font-size="14" fill="white" font-family="monospace" dominant-baseline="initial">69</text><rect x="4046" y="92.5" width="188" height="758.0" fill="black" /><rect x="4046" y="849.5" width="188" height="1" fill="white" fill-opacity="0.5" /><text x="4244" y="849.5" font-size="14" fill="white" font-family="monospace" dominant-baseline="initial">69</text><rect x="4046" y="802.0" width="188" height="1" fill="white" fill-opacity="0.2" /><rect x="4046" y="754.5" width="188" height="1" fill="white" fill-opacity="0.2" /><rect x="4046" y="707.0" width="188" height="1" fill="white" fill-opacity="0.2" /><rect x="4046" y="660.0" width="188" height="1" fill="white" fill-opacity="0.5" /><text x="4244" y="660.0" font-size="14" fill="white" font-family="monospace" dominant-baseline="initial">70</text><rect x="4046" y="612.5" width="188" height="1" fill="white" fill-opacity="0.2" /><rect x="4046" y="565.0" width="188" height="1" fill="white" fill-opacity="0.2" /><rect x="4046" y="517.5" width="188" height="1" fill="white" fill-opacity="0.2" /><rect x="4046" y="470.5" width="188" height="1" fill="white" fill-opacity="0.5" /><text x="4244" y="470.5" font-size="14" fill="white" font-family="monospace" dominant-baseline="initial">71</text><rect x="4046" y="423.0" width="188" height="1" fill="white" fill-opacity="0.2" /><rect x="4046" y="375.5" width="188" height="1" fill="white" fill-opacity="0.2" /><rect x="4046" y="328.5" width="188" height="1" fill="white" fill-opacity="0.2" /><rect x="4046" y="281.0" width="188" height="1" fill="white" fill-opacity="0.5" /><text x="4244" y="281.0" font-size="14" fill="white" font-family="monospace" dominant-baseline="initial">72</text><rect x="4046" y="233.5" width="188" height="1" fill="white" fill-opacity="0.2" /><rect x="4046" y="186.0" width="188" height="1" fill="white" fill-opacity="0.2" /><rect x="4046" y="139.0" width="188" height="1" fill="white" fill-opacity="0.2" /><rect x="4046" y="91.5" width="188" height="1" fill="white" fill-opacity="0.5" /><text x="4244" y="91.5" font-size="14" fill="white" font-family="monospace" dominant-baseline="initial">73</text><rect x="4046" y="470.35000000000036" width="188" height="1" fill="aqua" fill-opacity="0.75" /><text x="4046" y="466.35000000000036" font-size="14" fill="aqua" fill-opacity="0.75" font-family="monospace">Special</text><rect x="4284" y="92.5" width="188" height="758.0" fill="black" /><rect x="4284" y="849.5" width="188" height="1" fill="white" fill-opacity="0.5" /><text x="4482" y="849.5" font-size="14" fill="white" font-family="monospace" dominant-baseline="initial">73</text><rect x="4284" y="802.0" width="188" height="1" fill="white" fill-opacity="0.2" /><rect x="4284" y="754.5" width="188" height="1" fill="white" fill-opacity="0.2" /><rect x="4284" y="707.5" width="188" height="1" fill="white" fill-opacity="0.2" /><rect x="4284" y="660.0" width="188" height="1" fill="white" fill-opacity="0.5" /><text x="4482" y="660.0" font-size="14" fill="white" font-family="monospace" dominant-baseline="initial">74</text><rect x="4284" y="612.5" width="188" height="1" fill="white" fill-opacity="0.2" /><rect x="4284" y="565.0" width="188" height="1" fill="white" fill-opacity="0.2" /><rect x="4284" y="518.0" width="188" height="1" fill="white" fill-opacity="0.2" /><rect x="4284" y="470.5" width="188" height="1" fill="white" fill-opacity="0.5" /><text x="4482" y="470.5" font-size="14" fill="white" font-family="monospace" dominant-baseline="initial">75</text><rect x="4284" y="423.0" width="188" height="1" fill="white" fill-opacity="0.2" /><rect x="4284" y="375.5" width="188" height="1" fill="white" fill-opacity="0.2" /><rect x="4284" y="328.5" width="188" height="1" fill="white" fill-opacity="0.2" /><rect x="4284" y="281.0" width="188" height="1" fill="white" fill-opacity="0.5" /><text x="4482" y="281.0" font-size="14" fill="white" font-family="monospace" dominant-baseline="initial">76</text><rect x="4284" y="233.5" width="188" height="1" fill="white" fill-opacity="0.2" /><rect x="4284" y="186.5" width="188" height="1" fill="white" fill-opacity="0.2" /><rect x="4284" y="139.0" width="188" height="1" fill="white" fill-opacity="0.2" /><rect x="4284" y="91.5" width="188" height="1" fill="white" fill-opacity="0.5" /><text x="4482" y="91.5" font-size="14" fill="white" font-family="monospace" dominant-baseline="initial">77</text><rect x="4522" y="92.5" width="188" height="758.0" fill="black" /><rect x="4522" y="849.5" width="188" height="1" fill="white" fill-opacity="0.5" /><text x="4720" y="849.5" font-size="14" fill="white" font-family="monospace" dominant-baseline="initial">77</text><rect x="4522" y="802.0" width="188" height="1" fill="white" fill-opacity="0.2" /><rect x="4522" y="755.0" width="188" height="1" fill="white" fill-opacity="0.2" /><rect x="4522" y="707.5" width="188" height="1" fill="white" fill-opacity="0.2" /><rect x="4522" y="660.0" width="188" height="1" fill="white" fill-opacity="0.5" /><text x="4720" y="660.0" font-size="14" fill="white" font-family="monospace" dominant-baseline="initial">78</text><rect x="4522" y="612.5" width="188" height="1" fill="white" fill-opacity="0.2" /><rect x="4522" y="565.5" width="188" height="1" fill="white" fill-opacity="0.2" /><rect x="4522" y="518.0" width="188" height="1" fill="white" fill-opacity="0.2" /><rect x="4522" y="470.5" width="188" height="1" fill="white" fill-opacity="0.5" /><text x="4720" y="470.5" font-size="14" fill="white" font-family="monospace" dominant-baseline="initial">79</text><rect x="4522" y="423.0" width="188" height="1" fill="white" fill-opacity="0.2" /><rect x="4522" y="376.0" width="188" height="1" fill="white" fill-opacity="0.2" /><rect x="4522" y="328.5" width="188" height="1" fill="white" fill-opacity="0.2" /><rect x="4522" y="281.0" width="188" height="1" fill="white" fill-opacity="0.5" /><text x="4720" y="281.0" font-size="14" fill="white" font-family="monospace" dominant-baseline="initial">80</text><rect x="4522" y="233.5" width="188" height="1" fill="white" fill-opacity="0.2" /><rect x="4522" y="186.5" width="188" height="1" fill="white" fill-opacity="0.2" /><rect x="4522" y="139.0" width="188" height="1" fill="white" fill-opacity="0.2" /><rect x="4522" y="91.5" width="188" height="1" fill="white" fill-opacity="0.5" /><text x="4720" y="91.5" font-size="14" fill="white" font-family="monospace" dominant-baseline="initial">81</text><rect x="4760" y="14.0" width="188" height="836.5" fill="black" /><rect x="4760" y="849.5" width="188" height="1" fill="white" fill-opacity="0.5" /><text x="4958" y="849.5" font-size="14" fill="white" font-family="monospace" dominant-baseline="initial">81</text><rect x="4760" y="802.5" width="188" height="1" fill="white" fill-opacity="0.2" /><rect x="4760" y="755.0" width="188" height="1" fill="white" fill-opacity="0.2" /><rect x="4760" y="707.5" width="188" height="1" fill="white" fill-opacity="0.2" /><rect x="4760" y="660.0" width="188" height="1" fill="white" fill-opacity="0.5" /><text x="4958" y="660.0" font-size="14" fill="white" font-family="monospace" dominant-baseline="initial">82</text><rect x="4760" y="613.0" width="188" height="1" fill="white" fill-opacity="0.2" /><rect x="4760" y="565.5" width="188" height="1" fill="white" fill-opacity="0.2" /><rect x="4760" y="518.0" width="188" height="1" fill="white" fill-opacity="0.2" /><rect x="4760" y="470.5" width="188" height="1" fill="white" fill-opacity="0.5" /><text x="4958" y="470.5" font-size="14" fill="white" font-family="monospace" dominant-baseline="initial">83</text><rect x="4760" y="423.5" width="188" height="1" fill="white" fill-opacity="0.2" /><rect x="4760" y="376.0" width="188" height="1" fill="white" fill-opacity="0.2" /><rect x="4760" y="328.5" width="188" height="1" fill="white" fill-opacity="0.2" /><rect x="4760" y="281.0" width="188" height="1" fill="white" fill-opacity="0.5" /><text x="4958" y="281.0" font-size="14" fill="white" font-family="monospace" dominant-baseline="initial">84</text></svg>