<?xml version="1.0" encoding="UTF-8"?><svg xmlns="http://www.w3.org/2000/svg" xmlns:xlink="http://www.w3.org/1999/xlink"     width="2856" height="1523.0" viewBox="0 0 2856 1523.0"><defs></defs><rect x="0" y="83.0" width="188" height="1440.0" fill="black" /><rect x="0" y="1522.0" width="188" height="1" fill="white" fill-opacity="0.5" /><text x="198" y="1522.0" font-size="14" fill="white" font-family="monospace" dominant-baseline="initial">1</text><rect x="0" y="1432.0" width="188" height="1" fill="white" fill-opacity="0.2" /><rect x="0" y="1342.0" width="188" height="1" fill="white" fill-opacity="0.2" /><rect x="0" y="1252.0" width="188" height="1" fill="white" fill-opacity="0.2" /><rect x="0" y="1162.0" width="188" height="1" fill="white" fill-opacity="0.5" /><text x="198" y="1162.0" font-size="14" fill="white" font-family="monospace" dominant-baseline="initial">2</text><rect x="0" y="1072.0" width="188" height="1" fill="white" fill-opacity="0.2" /><rect x="0" y="982.0" width="188" height="1" fill="white" fill-opacity="0.2" /><rect x="0" y="892.0" width="188" height="1" fill="white" fill-opacity="0.2" /><rect x="0" y="802.0" width="188" height="1" fill="white" fill-opacity="0.5" /><text x="198" y="802.0" font-size="14" fill="white" font-family="monospace" dominant-baseline="initial">3</text><rect x="0" y="712.0" width="188" height="1" fill="white" fill-opacity="0.2" /><rect x="0" y="622.0" width="188" height="1" fill="white" fill-opacity="0.2" /><rect x="0" y="532.0" width="188" height="1" fill="white" fill-opacity="0.2" /><rect x="0" y="442.0" width="188" height="1" fill="white" fill-opacity="0.5" /><text x="198" y="442.0" font-size="14" fill="white" font-family="monospace" dominant-baseline="initial">4</text><rect x="0" y="352.0" width="188" height="1" fill="white" fill-opacity="0.2" /><rect x="0" y="262.0" width="188" height="1" fill="white" fill-opacity="0.2" /><rect x="0" y="172.0" width="188" height="1" fill="white" fill-opacity="0.2" /><rect x="0" y="82.0" width="188" height="1" fill="white" fill-opacity="0.5" /><text x="198" y="82.0" font-size="14" fill="white" font-family="monospace" dominant-baseline="initial">5</text><rect x="0" y="1522.0" width="188" height="1" fill="aqua" fill-opacity="0.75" /><text x="0" y="1518.0" font-size="14" fill="aqua" fill-opacity="0.75" font-family="monospace">Intro</text><rect x="0" y="1522.0" width="188" height="1" fill="lime" fill-opacity="0.75" /><text x="198" y="1509.0" font-size="14" fill="lime" font-family="monospace" dominant-baseline="initial">100</text><rect x="238" y="83.0" width="188" height="1440.0" fill="black" /><rect x="238" y="1522.0" width="188" height="1" fill="white" fill-opacity="0.5" /><text x="436" y="1522.0" font-size="14" fill="white" font-family="monospace" dominant-baseline="initial">5</text><rect x="238" y="1432.0" width="188" height="1" fill="white" fill-opacity="0.2" /><rect x="238" y="1342.0" width="188" height="1" fill="white" fill-opacity="0.2" /><rect x="238" y="1252.0" width="188" height="1" fill="white" fill-opacity="0.2" /><rect x="238" y="1162.0" width="188" height="1" fill="white" fill-opacity="0.5" /><text x="436" y="1162.0" font-size="14" fill="white" font-family="monospace" dominant-baseline="initial">6</text><rect x="238" y="1072.0" width="188" height="1" fill="white" fill-opacity="0.2" /><rect x="238" y="982.0" width="188" height="1" fill="white" fill-opacity="0.2" /><rect x="238" y="892.0" width="188" height="1" fill="white" fill-opacity="0.2" /><rect x="238" y="802.0" width="188" height="1" fill="white" fill-opacity="0.5" /><text x="436" y="802.0" font-size="14" fill="white" font-family="monospace" dominant-baseline="initial">7</text><rect x="238" y="712.0" width="188" height="1" fill="white" fill-opacity="0.2" /><rect x="238" y="622.0" width="188" height="1" fill="white" fill-opacity="0.2" /><rect x="238" y="532.0" width="188" height="1" fill="white" fill-opacity="0.2" /><rect x="238" y="442.0" width="188" height="1" fill="white" fill-opacity="0.5" /><text x="436" y="442.0" font-size="14" fill="white" font-family="monospace" dominant-baseline="initial">8</text><rect x="238" y="352.0" width="188" height="1" fill="white" fill-opacity="0.2" /><rect x="238" y="262.0" width="188" height="1" fill="white" fill-opacity="0.2" /><rect x="238" y="172.0" width="188" height="1" fill="white" fill-opacity="0.2" /><rect x="238" y="82.0" width="188" height="1" fill="white" fill-opacity="0.5" /><text x="436" y="82.0" font-size="14" fill="white" font-family="monospace" dominant-baseline="initial">9</text><rect x="476" y="83.0" width="188" height="1440.0" fill="black" /><rect x="476" y="1522.0" width="188" height="1" fill="white" fill-opacity="0.5" /><text x="674" y="1522.0" font-size="14" fill="white" font-family="monospace" dominant-baseline="initial">9</text><rect x="476" y="1432.0" width="188" height="1" fill="white" fill-opacity="0.2" /><rect x="476" y="1342.0" width="188" height="1" fill="white" fill-opacity="0.2" /><rect x="476" y="1252.0" width="188" height="1" fill="white" fill-opacity="0.2" /><rect x="476" y="1162.0" width="188" height="1" fill="white" fill-opacity="0.5" /><text x="674" y="1162.0" font-size="14" fill="white" font-family="monospace" dominant-baseline="initial">10</text><rect x="476" y="1072.0" width="188" height="1" fill="white" fill-opacity="0.2" /><rect x="476" y="982.0" width="188" height="1" fill="white" fill-opacity="0.2" /><rect x="476" y="892.0" width="188" height="1" fill="white" fill-opacity="0.2" /><rect x="476" y="802.0" width="188" height="1" fill="white" fill-opacity="0.5" /><text x="674" y="802.0" font-size="14" fill="white" font-family="monospace" dominant-baseline="initial">11</text><rect x="476" y="712.0" width="188" height="1" fill="white" fill-opacity="0.2" /><rect x="476" y="622.0" width="188" height="1" fill="white" fill-opacity="0.2" /><rect x="476" y="532.0" width="188" height="1" fill="white" fill-opacity="0.2" /><rect x="476" y="442.0" width="188" height="1" fill="white" fill-opacity="0.5" /><text x="674" y="442.0" font-size="14" fill="white" font-family="monospace" dominant-baseline="initial">12</text><rect x="476" y="352.0" width="188" height="1" fill="white" fill-opacity="0.2" /><rect x="476" y="262.0" width="188" height="1" fill="white" fill-opacity="0.2" /><rect x="476" y="172.0" width="188" height="1" fill="white" fill-opacity="0.2" /><rect x="476" y="82.0" width="188" height="1" fill="white" fill-opacity="0.5" /><text x="674" y="82.0" font-size="14" fill="white" font-family="monospace" dominant-baseline="initial">13</text><rect x="476" y="1162.0" width="188" height="1" fill="aqua" fill-opacity="0.75" /><text x="476" y="1158.0" font-size="14" fill="aqua" fill-opacity="0.75" font-family="monospace">Phrase A</text><rect x="714" y="83.0" width="188" height="1440.0" fill="black" /><rect x="714" y="1522.0" width="188" height="1" fill="white" fill-opacity="0.5" /><text x="912" y="1522.0" font-size="14" fill="white" font-family="monospace" dominant-baseline="initial">13</text><rect x="714" y="1432.0" width="188" height="1" fill="white" fill-opacity="0.2" /><rect x="714" y="1342.0" width="188" height="1" fill="white" fill-opacity="0.2" /><rect x="714" y="1252.0" width="188" height="1" fill="white" fill-opacity="0.2" /><rect x="714" y="1162.0" width="188" height="1" fill="white" fill-opacity="0.5" /><text x="912" y="1162.0" font-size="14" fill="white" font-family="monospace" dominant-baseline="initial">14</text><rect x="714" y="1072.0" width="188" height="1" fill="white" fill-opacity="0.2" /><rect x="714" y="982.0" width="188" height="1" fill="white" fill-opacity="0.2" /><rect x="714" y="892.0" width="188" height="1" fill="white" fill-opacity="0.2" /><rect x="714" y="802.0" width="188" height="1" fill="white" fill-opacity="0.5" /><text x="912" y="802.0" font-size="14" fill="white" font-family="monospace" dominant-baseline="initial">15</text><rect x="714" y="712.0" width="188" height="1" fill="white" fill-opacity="0.2" /><rect x="714" y="622.0" width="188" height="1" fill="white" fill-opacity="0.2" /><rect x="714" y="532.0" width="188" height="1" fill="white" fill-opacity="0.2" /><rect x="714" y="442.0" width="188" height="1" fill="white" fill-opacity="0.5" /><text x="912" y="442.0" font-size="14" fill="white" font-family="monospace" dominant-baseline="initial">16</text><rect x="714" y="352.0" width="188" height="1" fill="white" fill-opacity="0.2" /><rect x="714" y="262.0" width="188" height="1" fill="white" fill-opacity="0.2" /><rect x="714" y="172.0" width="188" height="1" fill="white" fill-opacity="0.2" /><rect x="714" y="82.0" width="188" height="1" fill="white" fill-opacity="0.5" /><text x="912" y="82.0" font-size="14" fill="white" font-family="monospace" dominant-baseline="initial">17</text><rect x="952" y="83.0" width="188" height="1440.0" fill="black" /><rect x="952" y="1522.0" width="188" height="1" fill="white" fill-opacity="0.5" /><text x="1150" y="1522.0" font-size="14" fill="white" font-family="monospace" dominant-baseline="initial">17</text><rect x="952" y="1432.0" width="188" height="1" fill="white" fill-opacity="0.2" /><rect x="952" y="1342.0" width="188" height="1" fill="white" fill-opacity="0.2" /><rect x="952" y="1252.0" width="188" height="1" fill="white" fill-opacity="0.2" /><rect x="952" y="1162.0" width="188" height="1" fill="white" fill-opacity="0.5" /><text x="1150" y="1162.0" font-size="14" fill="white" font-family="monospace" dominant-baseline="initial">18</text><rect x="952" y="1072.0" width="188" height="1" fill="white" fill-opacity="0.2" /><rect x="952" y="982.0" width="188" height="1" fill="white" fill-opacity="0.2" /><rect x="952" y="892.0" width="188" height="1" fill="white" fill-opacity="0.2" /><rect x="952" y="802.0" width="188" height="1" fill="white" fill-opacity="0.5" /><text x="1150" y="802.0" font-size="14" fill="white" font-family="monospace" dominant-baseline="initial">19</text><rect x="952" y="712.0" width="188" height="1" fill="white" fill-opacity="0.2" /><rect x="952" y="622.0" width="188" height="1" fill="white" fill-opacity="0.2" /><rect x="952" y="532.0" width="188" height="1" fill="white" fill-opacity="0.2" /><rect x="952" y="442.0" width="188" height="1" fill="white" fill-opacity="0.5" /><text x="1150" y="442.0" font-size="14" fill="white" font-family="monospace" dominant-baseline="initial">20</text><rect x="952" y="352.0" width="188" height="1" fill="white" fill-opacity="0.2" /><rect x="952" y="262.0" width="188" height="1" fill="white" fill-opacity="0.2" /><rect x="952" y="172.0" width="188" height="1" fill="white" fill-opacity="0.2" /><rect x="952" y="82.0" width="188" height="1" fill="white" fill-opacity="0.5" /><text x="1150" y="82.0" font-size="14" fill="white" font-family="monospace" dominant-baseline="initial">21</text><rect x="952" y="1162.0" width="188" height="1" fill="aqua" fill-opacity="0.75" /><text x="952" y="1158.0" font-size="14" fill="aqua" fill-opacity="0.75" font-family="monospace">Phrase B</text><rect x="1190" y="83.0" width="188" height="1440.0" fill="black" /><rect x="1190" y="1522.0" width="188" height="1" fill="white" fill-opacity="0.5" /><text x="1388" y="1522.0" font-size="14" fill="white" font-family="monospace" dominant-baseline="initial">21</text><rect x="1190" y="1432.0" width="188" height="1" fill="white" fill-opacity="0.2" /><rect x="1190" y="1342.0" width="188" height="1" fill="white" fill-opacity="0.2" /><rect x="1190" y="1252.0" width="188" height="1" fill="white" fill-opacity="0.2" /><rect x="1190" y="1162.0" width="188" height="1" fill="white" fill-opacity="0.5" /><text x="1388" y="1162.0" font-size="14" fill="white" font-family="monospace" dominant-baseline="initial">22</text><rect x="1190" y="1072.0" width="188" height="1" fill="white" fill-opacity="0.2" /><rect x="1190" y="982.0" width="188" height="1" fill="white" fill-opacity="0.2" /><rect x="1190" y="892.0" width="188" height="1" fill="white" fill-opacity="0.2" /><rect x="1190" y="802.0" width="188" height="1" fill="white" fill-opacity="0.5" /><text x="1388" y="802.0" font-size="14" fill="white" font-family="monospace" dominant-baseline="initial">23</text><rect x="1190" y="712.0" width="188" height="1" fill="white" fill-opacity="0.2" /><rect x="1190" y="622.0" width="188" height="1" fill="white" fill-opacity="0.2" /><rect x="1190" y="532.0" width="188" height="1" fill="white" fill-opacity="0.2" /><rect x="1190" y="442.0" width="188" height="1" fill="white" fill-opacity="0.5" /><text x="1388" y="442.0" font-size="14" fill="white" font-family="monospace" dominant-baseline="initial">24</text><rect x="1190" y="352.0" width="188" height="1" fill="white" fill-opacity="0.2" /><rect x="1190" y="262.0" width="188" height="1" fill="white" fill-opacity="0.2" /><rect x="1190" y="172.0" width="188" height="1" fill="white" fill-opacity="0.2" /><rect x="1190" y="82.0" width="188" height="1" fill="white" fill-opacity="0.5" /><text x="1388" y="82.0" font-size="14" fill="white" font-family="monospace" dominant-baseline="initial">25</text><rect x="1428" y="83.0" width="188" height="1440.0" fill="black" /><rect x="1428" y="1522.0" width="188" height="1" fill="white" fill-opacity="0.5" /><text x="1626" y="1522.0" font-size="14" fill="white" font-family="monospace" dominant-baseline="initial">25</text><rect x="1428" y="1432.0" width="188" height="1" fill="white" fill-opacity="0.2" /><rect x="1428" y="1342.0" width="188" height="1" fill="white" fill-opacity="0.2" /><rect x="1428" y="1252.0" width="188" height="1" fill="white" fill-opacity="0.2" /><rect x="1428" y="1162.0" width="188" height="1" fill="white" fill-opacity="0.5" /><text x="1626" y="1162.0" font-size="14" fill="white" font-family="monospace" dominant-baseline="initial">26</text><rect x="1428" y="1072.0" width="188" height="1" fill="white" fill-opacity="0.2" /><rect x="1428" y="982.0" width="188" height="1" fill="white" fill-opacity="0.2" /><rect x="1428" y="892.0" width="188" height="1" fill="white" fill-opacity="0.2" /><rect x="1428" y="802.0" width="188" height="1" fill="white" fill-opacity="0.5" /><text x="1626" y="802.0" font-size="14" fill="white" font-family="monospace" dominant-baseline="initial">27</text><rect x="1428" y="712.0" width="188" height="1" fill="white" fill-opacity="0.2" /><rect x="1428" y="622.0" width="188" height="1" fill="white" fill-opacity="0.2" /><rect x="1428" y="532.0" width="188" height="1" fill="white" fill-opacity="0.2" /><rect x="1428" y="442.0" width="188" height="1" fill="white" fill-opacity="0.5" /><text x="1626" y="442.0" font-size="14" fill="white" font-family="monospace" dominant-baseline="initial">28</text><rect x="1428" y="352.0" width="188" height="1" fill="white" fill-opacity="0.2" /><rect x="1428" y="262.0" width="188" height="1" fill="white" fill-opacity="0.2" /><rect x="1428" y="172.0" width="188" height="1" fill="white" fill-opacity="0.2" /><rect x="1428" y="82.0" width="188" height="1" fill="white" fill-opacity="0.5" /><text x="1626" y="82.0" font-size="14" fill="white" font-family="monospace" dominant-baseline="initial">29</text><rect x="1428" y="1162.0" width="188" height="1" fill="aqua" fill-opacity="0.75" /><text x="1428" y="1158.0" font-size="14" fill="aqua" fill-opacity="0.75" font-family="monospace">Phrase C</text><rect x="1666" y="83.0" width="188" height="1440.0" fill="black" /><rect x="1666" y="1522.0" width="188" height="1" fill="white" fill-opacity="0.5" /><text x="1864" y="1522.0" font-size="14" fill="white" font-family="monospace" dominant-baseline="initial">29</text><rect x="1666" y="1432.0" width="188" height="1" fill="white" fill-opacity="0.2" /><rect x="1666" y="1342.0" width="188" height="1" fill="white" fill-opacity="0.2" /><rect x="1666" y="1252.0" width="188" height="1" fill="white" fill-opacity="0.2" /><rect x="1666" y="1162.0" width="188" height="1" fill="white" fill-opacity="0.5" /><text x="1864" y="1162.0" font-size="14" fill="white" font-family="monospace" dominant-baseline="initial">30</text><rect x="1666" y="1072.0" width="188" height="1" fill="white" fill-opacity="0.2" /><rect x="1666" y="982.0" width="188" height="1" fill="white" fill-opacity="0.2" /><rect x="1666" y="892.0" width="188" height="1" fill="white" fill-opacity="0.2" /><rect x="1666" y="802.0" width="188" height="1" fill="white" fill-opacity="0.5" /><text x="1864" y="802.0" font-size="14" fill="white" font-family="monospace" dominant-baseline="initial">31</text><rect x="1666" y="712.0" width="188" height="1" fill="white" fill-opacity="0.2" /><rect x="1666" y="622.0" width="188" height="1" fill="white" fill-opacity="0.2" /><rect x="1666" y="532.0" width="188" height="1" fill="white" fill-opacity="0.2" /><rect x="1666" y="442.0" width="188" height="1" fill="white" fill-opacity="0.5" /><text x="1864" y="442.0" font-size="14" fill="white" font-family="monospace" dominant-baseline="initial">32</text><rect x="1666" y="352.0" width="188" height="1" fill="white" fill-opacity="0.2" /><rect x="1666" y="262.0" width="188" height="1" fill="white" fill-opacity="0.2" /><rect x="1666" y="172.0" width="188" height="1" fill="white" fill-opacity="0.2" /><rect x="1666" y="82.0" width="188" height="1" fill="white" fill-opacity="0.5" /><text x="1864" y="82.0" font-size="14" fill="white" font-family="monospace" dominant-baseline="initial">33</text><rect x="1904" y="83.0" width="188" height="1440.0" fill="black" /><rect x="1904" y="1522.0" width="188" height="1" fill="white" fill-opacity="0.5" /><text x="2102" y="1522.0" font-size="14" fill="white" font-family="monospace" dominant-baseline="initial">33</text><rect x="1904" y="1432.0" width="188" height="1" fill="white" fill-opacity="0.2" /><rect x="1904" y="1342.0" width="188" height="1" fill="white" fill-opacity="0.2" /><rect x="1904" y="1252.0" width="188" height="1" fill="white" fill-opacity="0.2" /><rect x="1904" y="1162.0" width="188" height="1" fill="white" fill-opacity="0.5" /><text x="2102" y="1162.0" font-size="14" fill="white" font-family="monospace" dominant-baseline="initial">34</text><rect x="1904" y="1072.0" width="188" height="1" fill="white" fill-opacity="0.2" /><rect x="1904" y="982.0" width="188" height="1" fill="white" fill-opacity="0.2" /><rect x="1904" y="892.0" width="188" height="1" fill="white" fill-opacity="0.2" /><rect x="1904" y="802.0" width="188" height="1" fill="white" fill-opacity="0.5" /><text x="2102" y="802.0" font-size="14" fill="white" font-family="monospace" dominant-baseline="initial">35</text><rect x="1904" y="712.0" width="188" height="1" fill="white" fill-opacity="0.2" /><rect x="1904" y="622.0" width="188" height="1" fill="white" fill-opacity="0.2" /><rect x="1904" y="532.0" width="188" height="1" fill="white" fill-opacity="0.2" /><rect x="1904" y="442.0" width="188" height="1" fill="white" fill-opacity="0.5" /><text x="2102" y="442.0" font-size="14" fill="white" font-family="monospace" dominant-baseline="initial">36</text><rect x="1904" y="352.0" width="188" height="1" fill="white" fill-opacity="0.2" /><rect x="1904" y="262.0" width="188" height="1" fill="white" fill-opacity="0.2" /><rect x="1904" y="172.0" width="188" height="1" fill="white" fill-opacity="0.2" /><rect x="1904" y="82.0" width="188" height="1" fill="white" fill-opacity="0.5" /><text x="2102" y="82.0" font-size="14" fill="white" font-family="monospace" dominant-baseline="initial">37</text><rect x="1904" y="1162.0" width="188" height="1" fill="aqua" fill-opacity="0.75" /><text x="1904" y="1158.0" font-size="14" fill="aqua" fill-opacity="0.75" font-family="monospace">Special</text><rect x="2142" y="83.0" width="188" height="1440.0" fill="black" /><rect x="2142" y="1522.0" width="188" height="1" fill="white" fill-opacity="0.5" /><text x="2340" y="1522.0" font-size="14" fill="white" font-family="monospace" dominant-baseline="initial">37</text><rect x="2142" y="1432.0" width="188" height="1" fill="white" fill-opacity="0.2" /><rect x="2142" y="1342.0" width="188" height="1" fill="white" fill-opacity="0.2" /><rect x="2142" y="1252.0" width="188" height="1" fill="white" fill-opacity="0.2" /><rect x="2142" y="1162.0" width="188" height="1" fill="white" fill-opacity="0.5" /><text x="2340" y="1162.0" font-size="14" fill="white" font-family="monospace" dominant-baseline="initial">38</text><rect x="2142" y="1072.0" width="188" height="1" fill="white" fill-opacity="0.2" /><rect x="2142" y="982.0" width="188" height="1" fill="white" fill-opacity="0.2" /><rect x="2142" y="892.0" width="188" height="1" fill="white" fill-opacity="0.2" /><rect x="2142" y="802.0" width="188" height="1" fill="white" fill-opacity="0.5" /><text x="2340" y="802.0" font-size="14" fill="white" font-family="monospace" dominant-baseline="initial">39</text><rect x="2142" y="712.0" width="188" height="1" fill="white" fill-opacity="0.2" /><rect x="2142" y="622.0" width="188" height="1" fill="white" fill-opacity="0.2" /><rect x="2142" y="532.0" width="188" height="1" fill="white" fill-opacity="0.2" /><rect x="2142" y="442.0" width="188" height="1" fill="white" fill-opacity="0.5" /><text x="2340" y="442.0" font-size="14" fill="white" font-family="monospace" dominant-baseline="initial">40</text><rect x="2142" y="352.0" width="188" height="1" fill="white" fill-opacity="0.2" /><rect x="2142" y="262.0" width="188" height="1" fill="white" fill-opacity="0.2" /><rect x="2142" y="172.0" width="188" height="1" fill="white" fill-opacity="0.2" /><rect x="2142" y="82.0" width="188" height="1" fill="white" fill-opacity="0.5" /><text x="2340" y="82.0" font-size="14" fill="white" font-family="monospace" dominant-baseline="initial">41</text><rect x="2380" y="14.0" width="188" height="1509.0" fill="black" /><rect x="2380" y="1522.0" width="188" height="1" fill="white" fill-opacity="0.5" /><text x="2578" y="1522.0" font-size="14" fill="white" font-family="monospace" dominant-baseline="initial">41</text><rect x="2380" y="1432.0" width="188" height="1" fill="white" fill-opacity="0.2" /><rect x="2380" y="1342.0" width="188" height="1" fill="white" fill-opacity="0.2" /><rect x="2380" y="1252.0" width="188" height="1" fill="white" fill-opacity="0.2" /><rect x="2380" y="1162.0" width="188" height="1" fill="white" fill-opacity="0.5" /><text x="2578" y="1162.0" font-size="14" fill="white" font-family="monospace" dominant-baseline="initial">42</text><rect x="2380" y="1067.5" width="188" height="1" fill="white" fill-opacity="0.2" /><rect x="2380" y="972.5" width="188" height="1" fill="white" fill-opacity="0.2" /><rect x="2380" y="878.0" width="188" height="1" fill="white" fill-opacity="0.2" /><rect x="2380" y="783.0" width="188" height="1" fill="white" fill-opacity="0.5" /><text x="2578" y="783.0" font-size="14" fill="white" font-family="monospace" dominant-baseline="initial">43</text><rect x="2380" y="688.5" width="188" height="1" fill="white" fill-opacity="0.2" /><rect x="2380" y="593.5" width="188" height="1" fill="white" fill-opacity="0.2" /><rect x="2380" y="499.0" width="188" height="1" fill="white" fill-opacity="0.2" /><rect x="2380" y="404.0" width="188" height="1" fill="white" fill-opacity="0.5" /><text x="2578" y="404.0" font-size="14" fill="white" font-family="monospace" dominant-baseline="initial">44</text><rect x="2380" y="306.5" width="188" height="1" fill="white" fill-opacity="0.2" /><rect x="2380" y="208.5" width="188" height="1" fill="white" fill-opacity="0.2" /><rect x="2380" y="110.5" width="188" height="1" fill="white" fill-opacity="0.2" /><rect x="2380" y="13.0" width="188" height="1" fill="white" fill-opacity="0.5" /><text x="2578" y="13.0" font-size="14" fill="white" font-family="monospace" dominant-baseline="initial">45</text><rect x="2380" y="1162.0" width="188" height="1" fill="aqua" fill-opacity="0.75" /><text x="2380" y="1158.0" font-size="14" fill="aqua" fill-opacity="0.75" font-family="monospace">Phrase D</text><rect x="2380" y="1162.0" width="188" height="1" fill="lime" fill-opacity="0.75" /><text x="2578" y="1149.0" font-size="14" fill="lime" font-family="monospace" dominant-baseline="initial">95</text><rect x="2380" y="404.0" width="188" height="1" fill="lime" fill-opacity="0.75" /><text x="2578" y="391.0" font-size="14" fill="lime" font-family="monospace" dominant-baseline="initial">92</text><rect x="2618" y="776.5" width="188" height="746.5" fill="black" /><rect x="2618" y="1522.0" width="188" height="1" fill="white" fill-opacity="0.5" /><text x="2816" y="1522.0" font-size="14" fill="white" font-family="monospace" dominant-baseline="initial">45</text><rect x="2618" y="1424.0" width="188" height="1" fill="white" fill-opacity="0.2" /><rect x="2618" y="1326.0" width="188" height="1" fill="white" fill-opacity="0.2" /><rect x="2618" y="1228.5" width="188" height="1" fill="white" fill-opacity="0.2" /><rect x="2618" y="1130.5" width="188" height="1" fill="white" fill-opacity="0.5" /><text x="2816" y="1130.5" font-size="14" fill="white" font-family="monospace" dominant-baseline="initial">46</text></svg>