<?xml version="1.0" encoding="UTF-8"?><svg xmlns="http://www.w3.org/2000/svg" xmlns:xlink="http://www.w3.org/1999/xlink"     width="4522" height="1127.5" viewBox="0 0 4522 1127.5"><defs></defs><rect x="0" y="107.0" width="188" height="1020.5" fill="black" /><rect x="0" y="1126.5" width="188" height="1" fill="white" fill-opacity="0.5" /><text x="198" y="1126.5" font-size="14" fill="white" font-family="monospace" dominant-baseline="initial">1</text><rect x="0" y="1080.0" width="188" height="1" fill="white" fill-opacity="0.2" /><rect x="0" y="1033.5" width="188" height="1" fill="white" fill-opacity="0.2" /><rect x="0" y="987.5" width="188" height="1" fill="white" fill-opacity="0.2" /><rect x="0" y="941.0" width="188" height="1" fill="white" fill-opacity="0.5" /><text x="198" y="941.0" font-size="14" fill="white" font-family="monospace" dominant-baseline="initial">2</text><rect x="0" y="894.5" width="188" height="1" fill="white" fill-opacity="0.2" /><rect x="0" y="848.0" width="188" height="1" fill="white" fill-opacity="0.2" /><rect x="0" y="802.0" width="188" height="1" fill="white" fill-opacity="0.2" /><rect x="0" y="755.5" width="188" height="1" fill="white" fill-opacity="0.2" /><rect x="0" y="709.0" width="188" height="1" fill="white" fill-opacity="0.2" /><rect x="0" y="662.5" width="188" height="1" fill="white" fill-opacity="0.5" /><text x="198" y="662.5" font-size="14" fill="white" font-family="monospace" dominant-baseline="initial">3</text><rect x="0" y="616.0" width="188" height="1" fill="white" fill-opacity="0.2" /><rect x="0" y="570.0" width="188" height="1" fill="white" fill-opacity="0.2" /><rect x="0" y="523.5" width="188" height="1" fill="white" fill-opacity="0.2" /><rect x="0" y="477.0" width="188" height="1" fill="white" fill-opacity="0.2" /><rect x="0" y="430.5" width="188" height="1" fill="white" fill-opacity="0.2" /><rect x="0" y="384.0" width="188" height="1" fill="white" fill-opacity="0.5" /><text x="198" y="384.0" font-size="14" fill="white" font-family="monospace" dominant-baseline="initial">4</text><rect x="0" y="338.0" width="188" height="1" fill="white" fill-opacity="0.2" /><rect x="0" y="291.5" width="188" height="1" fill="white" fill-opacity="0.2" /><rect x="0" y="245.0" width="188" height="1" fill="white" fill-opacity="0.2" /><rect x="0" y="198.5" width="188" height="1" fill="white" fill-opacity="0.2" /><rect x="0" y="152.5" width="188" height="1" fill="white" fill-opacity="0.2" /><rect x="0" y="106.0" width="188" height="1" fill="white" fill-opacity="0.5" /><text x="198" y="106.0" font-size="14" fill="white" font-family="monospace" dominant-baseline="initial">5</text><rect x="0" y="1126.5" width="188" height="1" fill="aqua" fill-opacity="0.75" /><text x="0" y="1122.5" font-size="14" fill="aqua" fill-opacity="0.75" font-family="monospace">Phrase A</text><rect x="0" y="1126.5" width="188" height="1" fill="lime" fill-opacity="0.75" /><text x="198" y="1113.5" font-size="14" fill="lime" font-family="monospace" dominant-baseline="initial">194</text><rect x="238" y="14.0" width="188" height="1113.5" fill="black" /><rect x="238" y="1126.5" width="188" height="1" fill="white" fill-opacity="0.5" /><text x="436" y="1126.5" font-size="14" fill="white" font-family="monospace" dominant-baseline="initial">5</text><rect x="238" y="1080.0" width="188" height="1" fill="white" fill-opacity="0.2" /><rect x="238" y="1033.5" width="188" height="1" fill="white" fill-opacity="0.2" /><rect x="238" y="987.0" width="188" height="1" fill="white" fill-opacity="0.2" /><rect x="238" y="941.0" width="188" height="1" fill="white" fill-opacity="0.2" /><rect x="238" y="894.5" width="188" height="1" fill="white" fill-opacity="0.2" /><rect x="238" y="848.0" width="188" height="1" fill="white" fill-opacity="0.5" /><text x="436" y="848.0" font-size="14" fill="white" font-family="monospace" dominant-baseline="initial">6</text><rect x="238" y="801.5" width="188" height="1" fill="white" fill-opacity="0.2" /><rect x="238" y="755.0" width="188" height="1" fill="white" fill-opacity="0.2" /><rect x="238" y="709.0" width="188" height="1" fill="white" fill-opacity="0.2" /><rect x="238" y="662.5" width="188" height="1" fill="white" fill-opacity="0.2" /><rect x="238" y="616.0" width="188" height="1" fill="white" fill-opacity="0.2" /><rect x="238" y="569.5" width="188" height="1" fill="white" fill-opacity="0.5" /><text x="436" y="569.5" font-size="14" fill="white" font-family="monospace" dominant-baseline="initial">7</text><rect x="238" y="523.5" width="188" height="1" fill="white" fill-opacity="0.2" /><rect x="238" y="477.0" width="188" height="1" fill="white" fill-opacity="0.2" /><rect x="238" y="430.5" width="188" height="1" fill="white" fill-opacity="0.2" /><rect x="238" y="384.0" width="188" height="1" fill="white" fill-opacity="0.2" /><rect x="238" y="337.5" width="188" height="1" fill="white" fill-opacity="0.2" /><rect x="238" y="291.5" width="188" height="1" fill="white" fill-opacity="0.5" /><text x="436" y="291.5" font-size="14" fill="white" font-family="monospace" dominant-baseline="initial">8</text><rect x="238" y="245.0" width="188" height="1" fill="white" fill-opacity="0.2" /><rect x="238" y="198.5" width="188" height="1" fill="white" fill-opacity="0.2" /><rect x="238" y="152.0" width="188" height="1" fill="white" fill-opacity="0.2" /><rect x="238" y="106.0" width="188" height="1" fill="white" fill-opacity="0.2" /><rect x="238" y="59.5" width="188" height="1" fill="white" fill-opacity="0.2" /><rect x="238" y="13.0" width="188" height="1" fill="white" fill-opacity="0.5" /><text x="436" y="13.0" font-size="14" fill="white" font-family="monospace" dominant-baseline="initial">9</text><rect x="476" y="14.0" width="188" height="1113.5" fill="black" /><rect x="476" y="1126.5" width="188" height="1" fill="white" fill-opacity="0.5" /><text x="674" y="1126.5" font-size="14" fill="white" font-family="monospace" dominant-baseline="initial">9</text><rect x="476" y="1080.0" width="188" height="1" fill="white" fill-opacity="0.2" /><rect x="476" y="1033.5" width="188" height="1" fill="white" fill-opacity="0.2" /><rect x="476" y="987.5" width="188" height="1" fill="white" fill-opacity="0.2" /><rect x="476" y="941.0" width="188" height="1" fill="white" fill-opacity="0.2" /><rect x="476" y="894.5" width="188" height="1" fill="white" fill-opacity="0.2" /><rect x="476" y="848.0" width="188" height="1" fill="white" fill-opacity="0.5" /><text x="674" y="848.0" font-size="14" fill="white" font-family="monospace" dominant-baseline="initial">10</text><rect x="476" y="801.5" width="188" height="1" fill="white" fill-opacity="0.2" /><rect x="476" y="755.5" width="188" height="1" fill="white" fill-opacity="0.2" /><rect x="476" y="709.0" width="188" height="1" fill="white" fill-opacity="0.2" /><rect x="476" y="662.5" width="188" height="1" fill="white" fill-opacity="0.2" /><rect x="476" y="616.0" width="188" height="1" fill="white" fill-opacity="0.2" /><rect x="476" y="570.0" width="188" height="1" fill="white" fill-opacity="0.5" /><text x="674" y="570.0" font-size="14" fill="white" font-family="monospace" dominant-baseline="initial">11</text><rect x="476" y="523.5" width="188" height="1" fill="white" fill-opacity="0.2" /><rect x="476" y="477.0" width="188" height="1" fill="white" fill-opacity="0.2" /><rect x="476" y="430.5" width="188" height="1" fill="white" fill-opacity="0.2" /><rect x="476" y="384.0" width="188" height="1" fill="white" fill-opacity="0.2" /><rect x="476" y="338.0" width="188" height="1" fill="white" fill-opacity="0.2" /><rect x="476" y="291.5" width="188" height="1" fill="white" fill-opacity="0.5" /><text x="674" y="291.5" font-size="14" fill="white" font-family="monospace" dominant-baseline="initial">12</text><rect x="476" y="245.0" width="188" height="1" fill="white" fill-opacity="0.2" /><rect x="476" y="198.5" width="188" height="1" fill="white" fill-opacity="0.2" /><rect x="476" y="152.5" width="188" height="1" fill="white" fill-opacity="0.2" /><rect x="476" y="106.0" width="188" height="1" fill="white" fill-opacity="0.2" /><rect x="476" y="59.5" width="188" height="1" fill="white" fill-opacity="0.2" /><rect x="476" y="13.0" width="188" height="1" fill="white" fill-opacity="0.5" /><text x="674" y="13.0" font-size="14" fill="white" font-family="monospace" dominant-baseline="initial">13</text><rect x="476" y="848.2000000000003" width="188" height="1" fill="aqua" fill-opacity="0.75" /><text x="476" y="844.2000000000003" font-size="14" fill="aqua" fill-opacity="0.75" font-family="monospace">Phrase B</text><rect x="714" y="14.0" width="188" height="1113.5" fill="black" /><rect x="714" y="1126.5" width="188" height="1" fill="white" fill-opacity="0.5" /><text x="912" y="1126.5" font-size="14" fill="white" font-family="monospace" dominant-baseline="initial">13</text><rect x="714" y="1080.0" width="188" height="1" fill="white" fill-opacity="0.2" /><rect x="714" y="1034.0" width="188" height="1" fill="white" fill-opacity="0.2" /><rect x="714" y="987.5" width="188" height="1" fill="white" fill-opacity="0.2" /><rect x="714" y="941.0" width="188" height="1" fill="white" fill-opacity="0.2" /><rect x="714" y="894.5" width="188" height="1" fill="white" fill-opacity="0.2" /><rect x="714" y="848.0" width="188" height="1" fill="white" fill-opacity="0.5" /><text x="912" y="848.0" font-size="14" fill="white" font-family="monospace" dominant-baseline="initial">14</text><rect x="714" y="802.0" width="188" height="1" fill="white" fill-opacity="0.2" /><rect x="714" y="755.5" width="188" height="1" fill="white" fill-opacity="0.2" /><rect x="714" y="709.0" width="188" height="1" fill="white" fill-opacity="0.2" /><rect x="714" y="662.5" width="188" height="1" fill="white" fill-opacity="0.2" /><rect x="714" y="616.5" width="188" height="1" fill="white" fill-opacity="0.2" /><rect x="714" y="570.0" width="188" height="1" fill="white" fill-opacity="0.5" /><text x="912" y="570.0" font-size="14" fill="white" font-family="monospace" dominant-baseline="initial">15</text><rect x="714" y="523.5" width="188" height="1" fill="white" fill-opacity="0.2" /><rect x="714" y="477.0" width="188" height="1" fill="white" fill-opacity="0.2" /><rect x="714" y="430.5" width="188" height="1" fill="white" fill-opacity="0.2" /><rect x="714" y="384.5" width="188" height="1" fill="white" fill-opacity="0.2" /><rect x="714" y="338.0" width="188" height="1" fill="white" fill-opacity="0.2" /><rect x="714" y="291.5" width="188" height="1" fill="white" fill-opacity="0.5" /><text x="912" y="291.5" font-size="14" fill="white" font-family="monospace" dominant-baseline="initial">16</text><rect x="714" y="245.0" width="188" height="1" fill="white" fill-opacity="0.2" /><rect x="714" y="198.5" width="188" height="1" fill="white" fill-opacity="0.2" /><rect x="714" y="152.5" width="188" height="1" fill="white" fill-opacity="0.2" /><rect x="714" y="106.0" width="188" height="1" fill="white" fill-opacity="0.2" /><rect x="714" y="59.5" width="188" height="1" fill="white" fill-opacity="0.2" /><rect x="714" y="13.0" width="188" height="1" fill="white" fill-opacity="0.5" /><text x="912" y="13.0" font-size="14" fill="white" font-family="monospace" dominant-baseline="initial">17</text><rect x="952" y="292.5" width="188" height="835.0" fill="black" /><rect x="952" y="1126.5" width="188" height="1" fill="white" fill-opacity="0.5" /><text x="1150" y="1126.5" font-size="14" fill="white" font-family="monospace" dominant-baseline="initial">17</text><rect x="952" y="1080.5" width="188" height="1" fill="white" fill-opacity="0.2" /><rect x="952" y="1034.0" width="188" height="1" fill="white" fill-opacity="0.2" /><rect x="952" y="987.5" width="188" height="1" fill="white" fill-opacity="0.2" /><rect x="952" y="941.0" width="188" height="1" fill="white" fill-opacity="0.2" /><rect x="952" y="894.5" width="188" height="1" fill="white" fill-opacity="0.2" /><rect x="952" y="848.5" width="188" height="1" fill="white" fill-opacity="0.5" /><text x="1150" y="848.5" font-size="14" fill="white" font-family="monospace" dominant-baseline="initial">18</text><rect x="952" y="802.0" width="188" height="1" fill="white" fill-opacity="0.2" /><rect x="952" y="755.5" width="188" height="1" fill="white" fill-opacity="0.2" /><rect x="952" y="709.0" width="188" height="1" fill="white" fill-opacity="0.2" /><rect x="952" y="663.0" width="188" height="1" fill="white" fill-opacity="0.5" /><text x="1150" y="663.0" font-size="14" fill="white" font-family="monospace" dominant-baseline="initial">19</text><rect x="952" y="616.5" width="188" height="1" fill="white" fill-opacity="0.2" /><rect x="952" y="570.0" width="188" height="1" fill="white" fill-opacity="0.2" /><rect x="952" y="523.5" width="188" height="1" fill="white" fill-opacity="0.2" /><rect x="952" y="477.0" width="188" height="1" fill="white" fill-opacity="0.5" /><text x="1150" y="477.0" font-size="14" fill="white" font-family="monospace" dominant-baseline="initial">20</text><rect x="952" y="431.0" width="188" height="1" fill="white" fill-opacity="0.2" /><rect x="952" y="384.5" width="188" height="1" fill="white" fill-opacity="0.2" /><rect x="952" y="338.0" width="188" height="1" fill="white" fill-opacity="0.2" /><rect x="952" y="291.5" width="188" height="1" fill="white" fill-opacity="0.5" /><text x="1150" y="291.5" font-size="14" fill="white" font-family="monospace" dominant-baseline="initial">21</text><rect x="952" y="848.3000000000002" width="188" height="1" fill="aqua" fill-opacity="0.75" /><text x="952" y="844.3000000000002" font-size="14" fill="aqua" fill-opacity="0.75" font-family="monospace">Phrase C</text><rect x="1190" y="385.5" width="188" height="742.0" fill="black" /><rect x="1190" y="1126.5" width="188" height="1" fill="white" fill-opacity="0.5" /><text x="1388" y="1126.5" font-size="14" fill="white" font-family="monospace" dominant-baseline="initial">21</text><rect x="1190" y="1080.0" width="188" height="1" fill="white" fill-opacity="0.2" /><rect x="1190" y="1034.0" width="188" height="1" fill="white" fill-opacity="0.2" /><rect x="1190" y="987.5" width="188" height="1" fill="white" fill-opacity="0.2" /><rect x="1190" y="941.0" width="188" height="1" fill="white" fill-opacity="0.5" /><text x="1388" y="941.0" font-size="14" fill="white" font-family="monospace" dominant-baseline="initial">22</text><rect x="1190" y="894.5" width="188" height="1" fill="white" fill-opacity="0.2" /><rect x="1190" y="848.5" width="188" height="1" fill="white" fill-opacity="0.2" /><rect x="1190" y="802.0" width="188" height="1" fill="white" fill-opacity="0.2" /><rect x="1190" y="755.5" width="188" height="1" fill="white" fill-opacity="0.5" /><text x="1388" y="755.5" font-size="14" fill="white" font-family="monospace" dominant-baseline="initial">23</text><rect x="1190" y="709.0" width="188" height="1" fill="white" fill-opacity="0.2" /><rect x="1190" y="662.5" width="188" height="1" fill="white" fill-opacity="0.2" /><rect x="1190" y="616.5" width="188" height="1" fill="white" fill-opacity="0.2" /><rect x="1190" y="570.0" width="188" height="1" fill="white" fill-opacity="0.5" /><text x="1388" y="570.0" font-size="14" fill="white" font-family="monospace" dominant-baseline="initial">24</text><rect x="1190" y="523.5" width="188" height="1" fill="white" fill-opacity="0.2" /><rect x="1190" y="477.0" width="188" height="1" fill="white" fill-opacity="0.2" /><rect x="1190" y="431.0" width="188" height="1" fill="white" fill-opacity="0.2" /><rect x="1190" y="384.5" width="188" height="1" fill="white" fill-opacity="0.5" /><text x="1388" y="384.5" font-size="14" fill="white" font-family="monospace" dominant-baseline="initial">25</text><rect x="1190" y="941.1000000000004" width="188" height="1" fill="aqua" fill-opacity="0.75" /><text x="1190" y="937.1000000000004" font-size="14" fill="aqua" fill-opacity="0.75" font-family="monospace">Phrase D</text><rect x="1428" y="385.0" width="188" height="742.5" fill="black" /><rect x="1428" y="1126.5" width="188" height="1" fill="white" fill-opacity="0.5" /><text x="1626" y="1126.5" font-size="14" fill="white" font-family="monospace" dominant-baseline="initial">25</text><rect x="1428" y="1080.0" width="188" height="1" fill="white" fill-opacity="0.2" /><rect x="1428" y="1033.5" width="188" height="1" fill="white" fill-opacity="0.2" /><rect x="1428" y="987.0" width="188" height="1" fill="white" fill-opacity="0.2" /><rect x="1428" y="941.0" width="188" height="1" fill="white" fill-opacity="0.5" /><text x="1626" y="941.0" font-size="14" fill="white" font-family="monospace" dominant-baseline="initial">26</text><rect x="1428" y="894.5" width="188" height="1" fill="white" fill-opacity="0.2" /><rect x="1428" y="848.0" width="188" height="1" fill="white" fill-opacity="0.2" /><rect x="1428" y="801.5" width="188" height="1" fill="white" fill-opacity="0.2" /><rect x="1428" y="755.0" width="188" height="1" fill="white" fill-opacity="0.5" /><text x="1626" y="755.0" font-size="14" fill="white" font-family="monospace" dominant-baseline="initial">27</text><rect x="1428" y="709.0" width="188" height="1" fill="white" fill-opacity="0.2" /><rect x="1428" y="662.5" width="188" height="1" fill="white" fill-opacity="0.2" /><rect x="1428" y="616.0" width="188" height="1" fill="white" fill-opacity="0.2" /><rect x="1428" y="569.5" width="188" height="1" fill="white" fill-opacity="0.5" /><text x="1626" y="569.5" font-size="14" fill="white" font-family="monospace" dominant-baseline="initial">28</text><rect x="1428" y="523.5" width="188" height="1" fill="white" fill-opacity="0.2" /><rect x="1428" y="477.0" width="188" height="1" fill="white" fill-opacity="0.2" /><rect x="1428" y="430.5" width="188" height="1" fill="white" fill-opacity="0.2" /><rect x="1428" y="384.0" width="188" height="1" fill="white" fill-opacity="0.5" /><text x="1626" y="384.0" font-size="14" fill="white" font-family="monospace" dominant-baseline="initial">29</text><rect x="1666" y="385.5" width="188" height="742.0" fill="black" /><rect x="1666" y="1126.5" width="188" height="1" fill="white" fill-opacity="0.5" /><text x="1864" y="1126.5" font-size="14" fill="white" font-family="monospace" dominant-baseline="initial">29</text><rect x="1666" y="1080.0" width="188" height="1" fill="white" fill-opacity="0.2" /><rect x="1666" y="1034.0" width="188" height="1" fill="white" fill-opacity="0.2" /><rect x="1666" y="987.5" width="188" height="1" fill="white" fill-opacity="0.2" /><rect x="1666" y="941.0" width="188" height="1" fill="white" fill-opacity="0.5" /><text x="1864" y="941.0" font-size="14" fill="white" font-family="monospace" dominant-baseline="initial">30</text><rect x="1666" y="894.5" width="188" height="1" fill="white" fill-opacity="0.2" /><rect x="1666" y="848.0" width="188" height="1" fill="white" fill-opacity="0.2" /><rect x="1666" y="802.0" width="188" height="1" fill="white" fill-opacity="0.2" /><rect x="1666" y="755.5" width="188" height="1" fill="white" fill-opacity="0.5" /><text x="1864" y="755.5" font-size="14" fill="white" font-family="monospace" dominant-baseline="initial">31</text><rect x="1666" y="709.0" width="188" height="1" fill="white" fill-opacity="0.2" /><rect x="1666" y="662.5" width="188" height="1" fill="white" fill-opacity="0.2" /><rect x="1666" y="616.5" width="188" height="1" fill="white" fill-opacity="0.2" /><rect x="1666" y="570.0" width="188" height="1" fill="white" fill-opacity="0.5" /><text x="1864" y="570.0" font-size="14" fill="white" font-family="monospace" dominant-baseline="initial">32</text><rect x="1666" y="523.5" width="188" height="1" fill="white" fill-opacity="0.2" /><rect x="1666" y="477.0" width="188" height="1" fill="white" fill-opacity="0.2" /><rect x="1666" y="430.5" width="188" height="1" fill="white" fill-opacity="0.2" /><rect x="1666" y="384.5" width="188" height="1" fill="white" fill-opacity="0.5" /><text x="1864" y="384.5" font-size="14" fill="white" font-family="monospace" dominant-baseline="initial">33</text><rect x="1904" y="385.0" width="188" height="742.5" fill="black" /><rect x="1904" y="1126.5" width="188" height="1" fill="white" fill-opacity="0.5" /><text x="2102" y="1126.5" font-size="14" fill="white" font-family="monospace" dominant-baseline="initial">33</text><rect x="1904" y="1080.0" width="188" height="1" fill="white" fill-opacity="0.2" /><rect x="1904" y="1033.5" width="188" height="1" fill="white" fill-opacity="0.2" /><rect x="1904" y="987.0" width="188" height="1" fill="white" fill-opacity="0.2" /><rect x="1904" y="941.0" width="188" height="1" fill="white" fill-opacity="0.5" /><text x="2102" y="941.0" font-size="14" fill="white" font-family="monospace" dominant-baseline="initial">34</text><rect x="1904" y="894.5" width="188" height="1" fill="white" fill-opacity="0.2" /><rect x="1904" y="848.0" width="188" height="1" fill="white" fill-opacity="0.2" /><rect x="1904" y="801.5" width="188" height="1" fill="white" fill-opacity="0.2" /><rect x="1904" y="755.0" width="188" height="1" fill="white" fill-opacity="0.5" /><text x="2102" y="755.0" font-size="14" fill="white" font-family="monospace" dominant-baseline="initial">35</text><rect x="1904" y="709.0" width="188" height="1" fill="white" fill-opacity="0.2" /><rect x="1904" y="662.5" width="188" height="1" fill="white" fill-opacity="0.2" /><rect x="1904" y="616.0" width="188" height="1" fill="white" fill-opacity="0.2" /><rect x="1904" y="569.5" width="188" height="1" fill="white" fill-opacity="0.5" /><text x="2102" y="569.5" font-size="14" fill="white" font-family="monospace" dominant-baseline="initial">36</text><rect x="1904" y="523.0" width="188" height="1" fill="white" fill-opacity="0.2" /><rect x="1904" y="477.0" width="188" height="1" fill="white" fill-opacity="0.2" /><rect x="1904" y="430.5" width="188" height="1" fill="white" fill-opacity="0.2" /><rect x="1904" y="384.0" width="188" height="1" fill="white" fill-opacity="0.5" /><text x="2102" y="384.0" font-size="14" fill="white" font-family="monospace" dominant-baseline="initial">37</text><rect x="2142" y="385.5" width="188" height="742.0" fill="black" /><rect x="2142" y="1126.5" width="188" height="1" fill="white" fill-opacity="0.5" /><text x="2340" y="1126.5" font-size="14" fill="white" font-family="monospace" dominant-baseline="initial">37</text><rect x="2142" y="1080.0" width="188" height="1" fill="white" fill-opacity="0.2" /><rect x="2142" y="1034.0" width="188" height="1" fill="white" fill-opacity="0.2" /><rect x="2142" y="987.5" width="188" height="1" fill="white" fill-opacity="0.2" /><rect x="2142" y="941.0" width="188" height="1" fill="white" fill-opacity="0.5" /><text x="2340" y="941.0" font-size="14" fill="white" font-family="monospace" dominant-baseline="initial">38</text><rect x="2142" y="894.5" width="188" height="1" fill="white" fill-opacity="0.2" /><rect x="2142" y="848.0" width="188" height="1" fill="white" fill-opacity="0.2" /><rect x="2142" y="802.0" width="188" height="1" fill="white" fill-opacity="0.2" /><rect x="2142" y="755.5" width="188" height="1" fill="white" fill-opacity="0.5" /><text x="2340" y="755.5" font-size="14" fill="white" font-family="monospace" dominant-baseline="initial">39</text><rect x="2142" y="709.0" width="188" height="1" fill="white" fill-opacity="0.2" /><rect x="2142" y="662.5" width="188" height="1" fill="white" fill-opacity="0.2" /><rect x="2142" y="616.5" width="188" height="1" fill="white" fill-opacity="0.2" /><rect x="2142" y="570.0" width="188" height="1" fill="white" fill-opacity="0.5" /><text x="2340" y="570.0" font-size="14" fill="white" font-family="monospace" dominant-baseline="initial">40</text><rect x="2142" y="523.5" width="188" height="1" fill="white" fill-opacity="0.2" /><rect x="2142" y="477.0" width="188" height="1" fill="white" fill-opacity="0.2" /><rect x="2142" y="430.5" width="188" height="1" fill="white" fill-opacity="0.2" /><rect x="2142" y="384.5" width="188" height="1" fill="white" fill-opacity="0.5" /><text x="2340" y="384.5" font-size="14" fill="white" font-family="monospace" dominant-baseline="initial">41</text><rect x="2142" y="941.0" width="188" height="1" fill="aqua" fill-opacity="0.75" /><text x="2142" y="937.0" font-size="14" fill="aqua" fill-opacity="0.75" font-family="monospace">Phrase E</text><rect x="2380" y="385.0" width="188" height="742.5" fill="black" /><rect x="2380" y="1126.5" width="188" height="1" fill="white" fill-opacity="0.5" /><text x="2578" y="1126.5" font-size="14" fill="white" font-family="monospace" dominant-baseline="initial">41</text><rect x="2380" y="1080.0" width="188" height="1" fill="white" fill-opacity="0.2" /><rect x="2380" y="1033.5" width="188" height="1" fill="white" fill-opacity="0.2" /><rect x="2380" y="987.0" width="188" height="1" fill="white" fill-opacity="0.2" /><rect x="2380" y="940.5" width="188" height="1" fill="white" fill-opacity="0.5" /><text x="2578" y="940.5" font-size="14" fill="white" font-family="monospace" dominant-baseline="initial">42</text><rect x="2380" y="894.5" width="188" height="1" fill="white" fill-opacity="0.2" /><rect x="2380" y="848.0" width="188" height="1" fill="white" fill-opacity="0.2" /><rect x="2380" y="801.5" width="188" height="1" fill="white" fill-opacity="0.2" /><rect x="2380" y="755.0" width="188" height="1" fill="white" fill-opacity="0.5" /><text x="2578" y="755.0" font-size="14" fill="white" font-family="monospace" dominant-baseline="initial">43</text><rect x="2380" y="709.0" width="188" height="1" fill="white" fill-opacity="0.2" /><rect x="2380" y="662.5" width="188" height="1" fill="white" fill-opacity="0.2" /><rect x="2380" y="616.0" width="188" height="1" fill="white" fill-opacity="0.2" /><rect x="2380" y="569.5" width="188" height="1" fill="white" fill-opacity="0.5" /><text x="2578" y="569.5" font-size="14" fill="white" font-family="monospace" dominant-baseline="initial">44</text><rect x="2380" y="523.0" width="188" height="1" fill="white" fill-opacity="0.2" /><rect x="2380" y="477.0" width="188" height="1" fill="white" fill-opacity="0.2" /><rect x="2380" y="430.5" width="188" height="1" fill="white" fill-opacity="0.2" /><rect x="2380" y="384.0" width="188" height="1" fill="white" fill-opacity="0.5" /><text x="2578" y="384.0" font-size="14" fill="white" font-family="monospace" dominant-baseline="initial">45</text><rect x="2618" y="385.5" width="188" height="742.0" fill="black" /><rect x="2618" y="1126.5" width="188" height="1" fill="white" fill-opacity="0.5" /><text x="2816" y="1126.5" font-size="14" fill="white" font-family="monospace" dominant-baseline="initial">45</text><rect x="2618" y="1080.0" width="188" height="1" fill="white" fill-opacity="0.2" /><rect x="2618" y="1033.5" width="188" height="1" fill="white" fill-opacity="0.2" /><rect x="2618" y="987.5" width="188" height="1" fill="white" fill-opacity="0.2" /><rect x="2618" y="941.0" width="188" height="1" fill="white" fill-opacity="0.5" /><text x="2816" y="941.0" font-size="14" fill="white" font-family="monospace" dominant-baseline="initial">46</text><rect x="2618" y="894.5" width="188" height="1" fill="white" fill-opacity="0.2" /><rect x="2618" y="848.0" width="188" height="1" fill="white" fill-opacity="0.2" /><rect x="2618" y="802.0" width="188" height="1" fill="white" fill-opacity="0.2" /><rect x="2618" y="755.5" width="188" height="1" fill="white" fill-opacity="0.5" /><text x="2816" y="755.5" font-size="14" fill="white" font-family="monospace" dominant-baseline="initial">47</text><rect x="2618" y="709.0" width="188" height="1" fill="white" fill-opacity="0.2" /><rect x="2618" y="662.5" width="188" height="1" fill="white" fill-opacity="0.2" /><rect x="2618" y="616.0" width="188" height="1" fill="white" fill-opacity="0.2" /><rect x="2618" y="570.0" width="188" height="1" fill="white" fill-opacity="0.5" /><text x="2816" y="570.0" font-size="14" fill="white" font-family="monospace" dominant-baseline="initial">48</text><rect x="2618" y="523.5" width="188" height="1" fill="white" fill-opacity="0.2" /><rect x="2618" y="477.0" width="188" height="1" fill="white" fill-opacity="0.2" /><rect x="2618" y="430.5" width="188" height="1" fill="white" fill-opacity="0.2" /><rect x="2618" y="384.5" width="188" height="1" fill="white" fill-opacity="0.5" /><text x="2816" y="384.5" font-size="14" fill="white" font-family="monospace" dominant-baseline="initial">49</text><rect x="2618" y="569.8500000000004" width="188" height="1" fill="aqua" fill-opacity="0.75" /><text x="2618" y="565.8500000000004" font-size="14" fill="aqua" fill-opacity="0.75" font-family="monospace">Special</text><rect x="2856" y="385.0" width="188" height="742.5" fill="black" /><rect x="2856" y="1126.5" width="188" height="1" fill="white" fill-opacity="0.5" /><text x="3054" y="1126.5" font-size="14" fill="white" font-family="monospace" dominant-baseline="initial">49</text><rect x="2856" y="1080.0" width="188" height="1" fill="white" fill-opacity="0.2" /><rect x="2856" y="1033.5" width="188" height="1" fill="white" fill-opacity="0.2" /><rect x="2856" y="987.0" width="188" height="1" fill="white" fill-opacity="0.2" /><rect x="2856" y="940.5" width="188" height="1" fill="white" fill-opacity="0.5" /><text x="3054" y="940.5" font-size="14" fill="white" font-family="monospace" dominant-baseline="initial">50</text><rect x="2856" y="894.5" width="188" height="1" fill="white" fill-opacity="0.2" /><rect x="2856" y="848.0" width="188" height="1" fill="white" fill-opacity="0.2" /><rect x="2856" y="801.5" width="188" height="1" fill="white" fill-opacity="0.2" /><rect x="2856" y="755.0" width="188" height="1" fill="white" fill-opacity="0.5" /><text x="3054" y="755.0" font-size="14" fill="white" font-family="monospace" dominant-baseline="initial">51</text><rect x="2856" y="708.5" width="188" height="1" fill="white" fill-opacity="0.2" /><rect x="2856" y="662.5" width="188" height="1" fill="white" fill-opacity="0.2" /><rect x="2856" y="616.0" width="188" height="1" fill="white" fill-opacity="0.2" /><rect x="2856" y="569.5" width="188" height="1" fill="white" fill-opacity="0.5" /><text x="3054" y="569.5" font-size="14" fill="white" font-family="monospace" dominant-baseline="initial">52</text><rect x="2856" y="523.0" width="188" height="1" fill="white" fill-opacity="0.2" /><rect x="2856" y="477.0" width="188" height="1" fill="white" fill-opacity="0.2" /><rect x="2856" y="430.5" width="188" height="1" fill="white" fill-opacity="0.2" /><rect x="2856" y="384.0" width="188" height="1" fill="white" fill-opacity="0.5" /><text x="3054" y="384.0" font-size="14" fill="white" font-family="monospace" dominant-baseline="initial">53</text><rect x="3094" y="385.0" width="188" height="742.5" fill="black" /><rect x="3094" y="1126.5" width="188" height="1" fill="white" fill-opacity="0.5" /><text x="3292" y="1126.5" font-size="14" fill="white" font-family="monospace" dominant-baseline="initial">53</text><rect x="3094" y="1080.0" width="188" height="1" fill="white" fill-opacity="0.2" /><rect x="3094" y="1033.5" width="188" height="1" fill="white" fill-opacity="0.2" /><rect x="3094" y="987.5" width="188" height="1" fill="white" fill-opacity="0.2" /><rect x="3094" y="941.0" width="188" height="1" fill="white" fill-opacity="0.5" /><text x="3292" y="941.0" font-size="14" fill="white" font-family="monospace" dominant-baseline="initial">54</text><rect x="3094" y="894.5" width="188" height="1" fill="white" fill-opacity="0.2" /><rect x="3094" y="848.0" width="188" height="1" fill="white" fill-opacity="0.2" /><rect x="3094" y="802.0" width="188" height="1" fill="white" fill-opacity="0.2" /><rect x="3094" y="755.5" width="188" height="1" fill="white" fill-opacity="0.5" /><text x="3292" y="755.5" font-size="14" fill="white" font-family="monospace" dominant-baseline="initial">55</text><rect x="3094" y="709.0" width="188" height="1" fill="white" fill-opacity="0.2" /><rect x="3094" y="662.5" width="188" height="1" fill="white" fill-opacity="0.2" /><rect x="3094" y="616.0" width="188" height="1" fill="white" fill-opacity="0.2" /><rect x="3094" y="570.0" width="188" height="1" fill="white" fill-opacity="0.5" /><text x="3292" y="570.0" font-size="14" fill="white" font-family="monospace" dominant-baseline="initial">56</text><rect x="3094" y="523.5" width="188" height="1" fill="white" fill-opacity="0.2" /><rect x="3094" y="477.0" width="188" height="1" fill="white" fill-opacity="0.2" /><rect x="3094" y="430.5" width="188" height="1" fill="white" fill-opacity="0.2" /><rect x="3094" y="384.0" width="188" height="1" fill="white" fill-opacity="0.5" /><text x="3292" y="384.0" font-size="14" fill="white" font-family="monospace" dominant-baseline="initial">57</text><rect x="3332" y="292.5" width="188" height="835.0" fill="black" /><rect x="3332" y="1126.5" width="188" height="1" fill="white" fill-opacity="0.5" /><text x="3530" y="1126.5" font-size="14" fill="white" font-family="monospace" dominant-baseline="initial">57</text><rect x="3332" y="1080.5" width="188" height="1" fill="white" fill-opacity="0.2" /><rect x="3332" y="1034.0" width="188" height="1" fill="white" fill-opacity="0.2" /><rect x="3332" y="987.5" width="188" height="1" fill="white" fill-opacity="0.2" /><rect x="3332" y="941.0" width="188" height="1" fill="white" fill-opacity="0.5" /><text x="3530" y="941.0" font-size="14" fill="white" font-family="monospace" dominant-baseline="initial">58</text><rect x="3332" y="895.0" width="188" height="1" fill="white" fill-opacity="0.2" /><rect x="3332" y="848.5" width="188" height="1" fill="white" fill-opacity="0.2" /><rect x="3332" y="802.0" width="188" height="1" fill="white" fill-opacity="0.2" /><rect x="3332" y="755.5" width="188" height="1" fill="white" fill-opacity="0.5" /><text x="3530" y="755.5" font-size="14" fill="white" font-family="monospace" dominant-baseline="initial">59</text><rect x="3332" y="709.0" width="188" height="1" fill="white" fill-opacity="0.2" /><rect x="3332" y="663.0" width="188" height="1" fill="white" fill-opacity="0.2" /><rect x="3332" y="616.5" width="188" height="1" fill="white" fill-opacity="0.2" /><rect x="3332" y="570.0" width="188" height="1" fill="white" fill-opacity="0.5" /><text x="3530" y="570.0" font-size="14" fill="white" font-family="monospace" dominant-baseline="initial">60</text><rect x="3332" y="523.5" width="188" height="1" fill="white" fill-opacity="0.2" /><rect x="3332" y="477.0" width="188" height="1" fill="white" fill-opacity="0.2" /><rect x="3332" y="431.0" width="188" height="1" fill="white" fill-opacity="0.2" /><rect x="3332" y="384.5" width="188" height="1" fill="white" fill-opacity="0.2" /><rect x="3332" y="338.0" width="188" height="1" fill="white" fill-opacity="0.2" /><rect x="3332" y="291.5" width="188" height="1" fill="white" fill-opacity="0.5" /><text x="3530" y="291.5" font-size="14" fill="white" font-family="monospace" dominant-baseline="initial">61</text><rect x="3332" y="569.9500000000007" width="188" height="1" fill="aqua" fill-opacity="0.75" /><text x="3332" y="565.9500000000007" font-size="14" fill="aqua" fill-opacity="0.75" font-family="monospace">Phrase A</text><rect x="3570" y="14.5" width="188" height="1113.0" fill="black" /><rect x="3570" y="1126.5" width="188" height="1" fill="white" fill-opacity="0.5" /><text x="3768" y="1126.5" font-size="14" fill="white" font-family="monospace" dominant-baseline="initial">61</text><rect x="3570" y="1080.5" width="188" height="1" fill="white" fill-opacity="0.2" /><rect x="3570" y="1034.0" width="188" height="1" fill="white" fill-opacity="0.2" /><rect x="3570" y="987.5" width="188" height="1" fill="white" fill-opacity="0.2" /><rect x="3570" y="941.0" width="188" height="1" fill="white" fill-opacity="0.2" /><rect x="3570" y="894.5" width="188" height="1" fill="white" fill-opacity="0.2" /><rect x="3570" y="848.5" width="188" height="1" fill="white" fill-opacity="0.5" /><text x="3768" y="848.5" font-size="14" fill="white" font-family="monospace" dominant-baseline="initial">62</text><rect x="3570" y="802.0" width="188" height="1" fill="white" fill-opacity="0.2" /><rect x="3570" y="755.5" width="188" height="1" fill="white" fill-opacity="0.2" /><rect x="3570" y="709.0" width="188" height="1" fill="white" fill-opacity="0.2" /><rect x="3570" y="663.0" width="188" height="1" fill="white" fill-opacity="0.2" /><rect x="3570" y="616.5" width="188" height="1" fill="white" fill-opacity="0.2" /><rect x="3570" y="570.0" width="188" height="1" fill="white" fill-opacity="0.5" /><text x="3768" y="570.0" font-size="14" fill="white" font-family="monospace" dominant-baseline="initial">63</text><rect x="3570" y="523.5" width="188" height="1" fill="white" fill-opacity="0.2" /><rect x="3570" y="477.0" width="188" height="1" fill="white" fill-opacity="0.2" /><rect x="3570" y="431.0" width="188" height="1" fill="white" fill-opacity="0.2" /><rect x="3570" y="384.5" width="188" height="1" fill="white" fill-opacity="0.2" /><rect x="3570" y="338.0" width="188" height="1" fill="white" fill-opacity="0.2" /><rect x="3570" y="291.5" width="188" height="1" fill="white" fill-opacity="0.5" /><text x="3768" y="291.5" font-size="14" fill="white" font-family="monospace" dominant-baseline="initial">64</text><rect x="3570" y="245.0" width="188" height="1" fill="white" fill-opacity="0.2" /><rect x="3570" y="199.0" width="188" height="1" fill="white" fill-opacity="0.2" /><rect x="3570" y="152.5" width="188" height="1" fill="white" fill-opacity="0.2" /><rect x="3570" y="106.0" width="188" height="1" fill="white" fill-opacity="0.2" /><rect x="3570" y="59.5" width="188" height="1" fill="white" fill-opacity="0.2" /><rect x="3570" y="13.5" width="188" height="1" fill="white" fill-opacity="0.5" /><text x="3768" y="13.5" font-size="14" fill="white" font-family="monospace" dominant-baseline="initial">65</text><rect x="3808" y="106.5" width="188" height="1021.0" fill="black" /><rect x="3808" y="1126.5" width="188" height="1" fill="white" fill-opacity="0.5" /><text x="4006" y="1126.5" font-size="14" fill="white" font-family="monospace" dominant-baseline="initial">65</text><rect x="3808" y="1080.0" width="188" height="1" fill="white" fill-opacity="0.2" /><rect x="3808" y="1033.5" width="188" height="1" fill="white" fill-opacity="0.2" /><rect x="3808" y="987.0" width="188" height="1" fill="white" fill-opacity="0.2" /><rect x="3808" y="940.5" width="188" height="1" fill="white" fill-opacity="0.2" /><rect x="3808" y="894.5" width="188" height="1" fill="white" fill-opacity="0.2" /><rect x="3808" y="848.0" width="188" height="1" fill="white" fill-opacity="0.5" /><text x="4006" y="848.0" font-size="14" fill="white" font-family="monospace" dominant-baseline="initial">66</text><rect x="3808" y="801.5" width="188" height="1" fill="white" fill-opacity="0.2" /><rect x="3808" y="755.0" width="188" height="1" fill="white" fill-opacity="0.2" /><rect x="3808" y="708.5" width="188" height="1" fill="white" fill-opacity="0.2" /><rect x="3808" y="662.5" width="188" height="1" fill="white" fill-opacity="0.2" /><rect x="3808" y="616.0" width="188" height="1" fill="white" fill-opacity="0.2" /><rect x="3808" y="569.5" width="188" height="1" fill="white" fill-opacity="0.5" /><text x="4006" y="569.5" font-size="14" fill="white" font-family="monospace" dominant-baseline="initial">67</text><rect x="3808" y="523.0" width="188" height="1" fill="white" fill-opacity="0.2" /><rect x="3808" y="477.0" width="188" height="1" fill="white" fill-opacity="0.2" /><rect x="3808" y="430.5" width="188" height="1" fill="white" fill-opacity="0.2" /><rect x="3808" y="384.0" width="188" height="1" fill="white" fill-opacity="0.2" /><rect x="3808" y="337.5" width="188" height="1" fill="white" fill-opacity="0.2" /><rect x="3808" y="291.0" width="188" height="1" fill="white" fill-opacity="0.5" /><text x="4006" y="291.0" font-size="14" fill="white" font-family="monospace" dominant-baseline="initial">68</text><rect x="3808" y="245.0" width="188" height="1" fill="white" fill-opacity="0.2" /><rect x="3808" y="198.5" width="188" height="1" fill="white" fill-opacity="0.2" /><rect x="3808" y="152.0" width="188" height="1" fill="white" fill-opacity="0.2" /><rect x="3808" y="105.5" width="188" height="1" fill="white" fill-opacity="0.5" /><text x="4006" y="105.5" font-size="14" fill="white" font-family="monospace" dominant-baseline="initial">69</text><rect x="3808" y="291.2000000000007" width="188" height="1" fill="aqua" fill-opacity="0.75" /><text x="3808" y="287.2000000000007" font-size="14" fill="aqua" fill-opacity="0.75" font-family="monospace">Phrase C</text><rect x="4046" y="385.5" width="188" height="742.0" fill="black" /><rect x="4046" y="1126.5" width="188" height="1" fill="white" fill-opacity="0.5" /><text x="4244" y="1126.5" font-size="14" fill="white" font-family="monospace" dominant-baseline="initial">69</text><rect x="4046" y="1080.5" width="188" height="1" fill="white" fill-opacity="0.2" /><rect x="4046" y="1034.0" width="188" height="1" fill="white" fill-opacity="0.2" /><rect x="4046" y="987.5" width="188" height="1" fill="white" fill-opacity="0.2" /><rect x="4046" y="941.0" width="188" height="1" fill="white" fill-opacity="0.5" /><text x="4244" y="941.0" font-size="14" fill="white" font-family="monospace" dominant-baseline="initial">70</text><rect x="4046" y="894.5" width="188" height="1" fill="white" fill-opacity="0.2" /><rect x="4046" y="848.5" width="188" height="1" fill="white" fill-opacity="0.2" /><rect x="4046" y="802.0" width="188" height="1" fill="white" fill-opacity="0.2" /><rect x="4046" y="755.5" width="188" height="1" fill="white" fill-opacity="0.5" /><text x="4244" y="755.5" font-size="14" fill="white" font-family="monospace" dominant-baseline="initial">71</text><rect x="4046" y="709.0" width="188" height="1" fill="white" fill-opacity="0.2" /><rect x="4046" y="662.5" width="188" height="1" fill="white" fill-opacity="0.2" /><rect x="4046" y="616.5" width="188" height="1" fill="white" fill-opacity="0.2" /><rect x="4046" y="570.0" width="188" height="1" fill="white" fill-opacity="0.5" /><text x="4244" y="570.0" font-size="14" fill="white" font-family="monospace" dominant-baseline="initial">72</text><rect x="4046" y="523.5" width="188" height="1" fill="white" fill-opacity="0.2" /><rect x="4046" y="477.0" width="188" height="1" fill="white" fill-opacity="0.2" /><rect x="4046" y="431.0" width="188" height="1" fill="white" fill-opacity="0.2" /><rect x="4046" y="384.5" width="188" height="1" fill="white" fill-opacity="0.5" /><text x="4244" y="384.5" font-size="14" fill="white" font-family="monospace" dominant-baseline="initial">73</text><rect x="4284" y="475.0" width="188" height="652.5" fill="black" /><rect x="4284" y="1126.5" width="188" height="1" fill="white" fill-opacity="0.5" /><text x="4482" y="1126.5" font-size="14" fill="white" font-family="monospace" dominant-baseline="initial">73</text><rect x="4284" y="1080.0" width="188" height="1" fill="white" fill-opacity="0.2" /><rect x="4284" y="1033.5" width="188" height="1" fill="white" fill-opacity="0.2" /><rect x="4284" y="987.0" width="188" height="1" fill="white" fill-opacity="0.2" /><rect x="4284" y="941.0" width="188" height="1" fill="white" fill-opacity="0.5" /><text x="4482" y="941.0" font-size="14" fill="white" font-family="monospace" dominant-baseline="initial">74</text><rect x="4284" y="894.5" width="188" height="1" fill="white" fill-opacity="0.2" /><rect x="4284" y="848.0" width="188" height="1" fill="white" fill-opacity="0.2" /><rect x="4284" y="801.5" width="188" height="1" fill="white" fill-opacity="0.2" /><rect x="4284" y="755.5" width="188" height="1" fill="white" fill-opacity="0.5" /><text x="4482" y="755.5" font-size="14" fill="white" font-family="monospace" dominant-baseline="initial">75</text><rect x="4284" y="709.0" width="188" height="1" fill="white" fill-opacity="0.2" /><rect x="4284" y="662.5" width="188" height="1" fill="white" fill-opacity="0.2" /><rect x="4284" y="616.0" width="188" height="1" fill="white" fill-opacity="0.2" /><rect x="4284" y="569.5" width="188" height="1" fill="white" fill-opacity="0.5" /><text x="4482" y="569.5" font-size="14" fill="white" font-family="monospace" dominant-baseline="initial">76</text></svg>