<?xml version="1.0" encoding="UTF-8"?><svg xmlns="http://www.w3.org/2000/svg" xmlns:xlink="http://www.w3.org/1999/xlink"     width="2166" height="1127.5" viewBox="0 0 2166 1127.5"><defs></defs><rect x="0" y="0" width="64" height="1020.5" fill="black" /><rect x="0" y="0.0" width="64" height="1" fill="white" fill-opacity="0.5" /><text x="74" y="14.0" font-size="14" fill="white" font-family="monospace" dominant-baseline="ideographic">1</text><rect x="0" y="46.5" width="64" height="1" fill="white" fill-opacity="0.2" /><rect x="0" y="93.0" width="64" height="1" fill="white" fill-opacity="0.2" /><rect x="0" y="139.0" width="64" height="1" fill="white" fill-opacity="0.2" /><rect x="0" y="185.5" width="64" height="1" fill="white" fill-opacity="0.5" /><text x="74" y="199.5" font-size="14" fill="white" font-family="monospace" dominant-baseline="ideographic">2</text><rect x="0" y="232.0" width="64" height="1" fill="white" fill-opacity="0.2" /><rect x="0" y="278.5" width="64" height="1" fill="white" fill-opacity="0.2" /><rect x="0" y="324.5" width="64" height="1" fill="white" fill-opacity="0.2" /><rect x="0" y="371.0" width="64" height="1" fill="white" fill-opacity="0.2" /><rect x="0" y="417.5" width="64" height="1" fill="white" fill-opacity="0.2" /><rect x="0" y="464.0" width="64" height="1" fill="white" fill-opacity="0.5" /><text x="74" y="478.0" font-size="14" fill="white" font-family="monospace" dominant-baseline="ideographic">3</text><rect x="0" y="510.5" width="64" height="1" fill="white" fill-opacity="0.2" /><rect x="0" y="556.5" width="64" height="1" fill="white" fill-opacity="0.2" /><rect x="0" y="603.0" width="64" height="1" fill="white" fill-opacity="0.2" /><rect x="0" y="649.5" width="64" height="1" fill="white" fill-opacity="0.2" /><rect x="0" y="696.0" width="64" height="1" fill="white" fill-opacity="0.2" /><rect x="0" y="742.5" width="64" height="1" fill="white" fill-opacity="0.5" /><text x="74" y="756.5" font-size="14" fill="white" font-family="monospace" dominant-baseline="ideographic">4</text><rect x="0" y="788.5" width="64" height="1" fill="white" fill-opacity="0.2" /><rect x="0" y="835.0" width="64" height="1" fill="white" fill-opacity="0.2" /><rect x="0" y="881.5" width="64" height="1" fill="white" fill-opacity="0.2" /><rect x="0" y="928.0" width="64" height="1" fill="white" fill-opacity="0.2" /><rect x="0" y="974.0" width="64" height="1" fill="white" fill-opacity="0.2" /><rect x="0" y="1020.5" width="64" height="1" fill="white" fill-opacity="0.5" /><text x="74" y="1034.5" font-size="14" fill="white" font-family="monospace" dominant-baseline="ideographic">5</text><rect x="0" y="0.0" width="64" height="1" fill="aqua" fill-opacity="0.75" /><text x="0" y="14.0" font-size="14" fill="aqua" fill-opacity="0.75" font-family="monospace">Phrase A</text><rect x="0" y="0.0" width="64" height="1" fill="lime" fill-opacity="0.75" /><text x="74" y="28.0" font-size="14" fill="lime" font-family="monospace" dominant-baseline="ideographic">194</text><rect x="114" y="0" width="64" height="1113.5" fill="black" /><rect x="114" y="0.0" width="64" height="1" fill="white" fill-opacity="0.5" /><text x="188" y="14.0" font-size="14" fill="white" font-family="monospace" dominant-baseline="ideographic">5</text><rect x="114" y="46.5" width="64" height="1" fill="white" fill-opacity="0.2" /><rect x="114" y="93.0" width="64" height="1" fill="white" fill-opacity="0.2" /><rect x="114" y="139.5" width="64" height="1" fill="white" fill-opacity="0.2" /><rect x="114" y="185.5" width="64" height="1" fill="white" fill-opacity="0.2" /><rect x="114" y="232.0" width="64" height="1" fill="white" fill-opacity="0.2" /><rect x="114" y="278.5" width="64" height="1" fill="white" fill-opacity="0.5" /><text x="188" y="292.5" font-size="14" fill="white" font-family="monospace" dominant-baseline="ideographic">6</text><rect x="114" y="325.0" width="64" height="1" fill="white" fill-opacity="0.2" /><rect x="114" y="371.5" width="64" height="1" fill="white" fill-opacity="0.2" /><rect x="114" y="417.5" width="64" height="1" fill="white" fill-opacity="0.2" /><rect x="114" y="464.0" width="64" height="1" fill="white" fill-opacity="0.2" /><rect x="114" y="510.5" width="64" height="1" fill="white" fill-opacity="0.2" /><rect x="114" y="557.0" width="64" height="1" fill="white" fill-opacity="0.5" /><text x="188" y="571.0" font-size="14" fill="white" font-family="monospace" dominant-baseline="ideographic">7</text><rect x="114" y="603.0" width="64" height="1" fill="white" fill-opacity="0.2" /><rect x="114" y="649.5" width="64" height="1" fill="white" fill-opacity="0.2" /><rect x="114" y="696.0" width="64" height="1" fill="white" fill-opacity="0.2" /><rect x="114" y="742.5" width="64" height="1" fill="white" fill-opacity="0.2" /><rect x="114" y="789.0" width="64" height="1" fill="white" fill-opacity="0.2" /><rect x="114" y="835.0" width="64" height="1" fill="white" fill-opacity="0.5" /><text x="188" y="849.0" font-size="14" fill="white" font-family="monospace" dominant-baseline="ideographic">8</text><rect x="114" y="881.5" width="64" height="1" fill="white" fill-opacity="0.2" /><rect x="114" y="928.0" width="64" height="1" fill="white" fill-opacity="0.2" /><rect x="114" y="974.5" width="64" height="1" fill="white" fill-opacity="0.2" /><rect x="114" y="1020.5" width="64" height="1" fill="white" fill-opacity="0.2" /><rect x="114" y="1067.0" width="64" height="1" fill="white" fill-opacity="0.2" /><rect x="114" y="1113.5" width="64" height="1" fill="white" fill-opacity="0.5" /><text x="188" y="1127.5" font-size="14" fill="white" font-family="monospace" dominant-baseline="ideographic">9</text><rect x="228" y="0" width="64" height="1113.5" fill="black" /><rect x="228" y="0.0" width="64" height="1" fill="white" fill-opacity="0.5" /><text x="302" y="14.0" font-size="14" fill="white" font-family="monospace" dominant-baseline="ideographic">9</text><rect x="228" y="46.5" width="64" height="1" fill="white" fill-opacity="0.2" /><rect x="228" y="93.0" width="64" height="1" fill="white" fill-opacity="0.2" /><rect x="228" y="139.0" width="64" height="1" fill="white" fill-opacity="0.2" /><rect x="228" y="185.5" width="64" height="1" fill="white" fill-opacity="0.2" /><rect x="228" y="232.0" width="64" height="1" fill="white" fill-opacity="0.2" /><rect x="228" y="278.5" width="64" height="1" fill="white" fill-opacity="0.5" /><text x="302" y="292.5" font-size="14" fill="white" font-family="monospace" dominant-baseline="ideographic">10</text><rect x="228" y="325.0" width="64" height="1" fill="white" fill-opacity="0.2" /><rect x="228" y="371.0" width="64" height="1" fill="white" fill-opacity="0.2" /><rect x="228" y="417.5" width="64" height="1" fill="white" fill-opacity="0.2" /><rect x="228" y="464.0" width="64" height="1" fill="white" fill-opacity="0.2" /><rect x="228" y="510.5" width="64" height="1" fill="white" fill-opacity="0.2" /><rect x="228" y="556.5" width="64" height="1" fill="white" fill-opacity="0.5" /><text x="302" y="570.5" font-size="14" fill="white" font-family="monospace" dominant-baseline="ideographic">11</text><rect x="228" y="603.0" width="64" height="1" fill="white" fill-opacity="0.2" /><rect x="228" y="649.5" width="64" height="1" fill="white" fill-opacity="0.2" /><rect x="228" y="696.0" width="64" height="1" fill="white" fill-opacity="0.2" /><rect x="228" y="742.5" width="64" height="1" fill="white" fill-opacity="0.2" /><rect x="228" y="788.5" width="64" height="1" fill="white" fill-opacity="0.2" /><rect x="228" y="835.0" width="64" height="1" fill="white" fill-opacity="0.5" /><text x="302" y="849.0" font-size="14" fill="white" font-family="monospace" dominant-baseline="ideographic">12</text><rect x="228" y="881.5" width="64" height="1" fill="white" fill-opacity="0.2" /><rect x="228" y="928.0" width="64" height="1" fill="white" fill-opacity="0.2" /><rect x="228" y="974.0" width="64" height="1" fill="white" fill-opacity="0.2" /><rect x="228" y="1020.5" width="64" height="1" fill="white" fill-opacity="0.2" /><rect x="228" y="1067.0" width="64" height="1" fill="white" fill-opacity="0.2" /><rect x="228" y="1113.5" width="64" height="1" fill="white" fill-opacity="0.5" /><text x="302" y="1127.5" font-size="14" fill="white" font-family="monospace" dominant-baseline="ideographic">13</text><rect x="228" y="278.2999999999997" width="64" height="1" fill="aqua" fill-opacity="0.75" /><text x="228" y="292.2999999999997" font-size="14" fill="aqua" fill-opacity="0.75" font-family="monospace">Phrase B</text><rect x="342" y="0" width="64" height="1113.5" fill="black" /><rect x="342" y="0.0" width="64" height="1" fill="white" fill-opacity="0.5" /><text x="416" y="14.0" font-size="14" fill="white" font-family="monospace" dominant-baseline="ideographic">13</text><rect x="342" y="46.5" width="64" height="1" fill="white" fill-opacity="0.2" /><rect x="342" y="92.5" width="64" height="1" fill="white" fill-opacity="0.2" /><rect x="342" y="139.0" width="64" height="1" fill="white" fill-opacity="0.2" /><rect x="342" y="185.5" width="64" height="1" fill="white" fill-opacity="0.2" /><rect x="342" y="232.0" width="64" height="1" fill="white" fill-opacity="0.2" /><rect x="342" y="278.5" width="64" height="1" fill="white" fill-opacity="0.5" /><text x="416" y="292.5" font-size="14" fill="white" font-family="monospace" dominant-baseline="ideographic">14</text><rect x="342" y="324.5" width="64" height="1" fill="white" fill-opacity="0.2" /><rect x="342" y="371.0" width="64" height="1" fill="white" fill-opacity="0.2" /><rect x="342" y="417.5" width="64" height="1" fill="white" fill-opacity="0.2" /><rect x="342" y="464.0" width="64" height="1" fill="white" fill-opacity="0.2" /><rect x="342" y="510.0" width="64" height="1" fill="white" fill-opacity="0.2" /><rect x="342" y="556.5" width="64" height="1" fill="white" fill-opacity="0.5" /><text x="416" y="570.5" font-size="14" fill="white" font-family="monospace" dominant-baseline="ideographic">15</text><rect x="342" y="603.0" width="64" height="1" fill="white" fill-opacity="0.2" /><rect x="342" y="649.5" width="64" height="1" fill="white" fill-opacity="0.2" /><rect x="342" y="696.0" width="64" height="1" fill="white" fill-opacity="0.2" /><rect x="342" y="742.0" width="64" height="1" fill="white" fill-opacity="0.2" /><rect x="342" y="788.5" width="64" height="1" fill="white" fill-opacity="0.2" /><rect x="342" y="835.0" width="64" height="1" fill="white" fill-opacity="0.5" /><text x="416" y="849.0" font-size="14" fill="white" font-family="monospace" dominant-baseline="ideographic">16</text><rect x="342" y="881.5" width="64" height="1" fill="white" fill-opacity="0.2" /><rect x="342" y="928.0" width="64" height="1" fill="white" fill-opacity="0.2" /><rect x="342" y="974.0" width="64" height="1" fill="white" fill-opacity="0.2" /><rect x="342" y="1020.5" width="64" height="1" fill="white" fill-opacity="0.2" /><rect x="342" y="1067.0" width="64" height="1" fill="white" fill-opacity="0.2" /><rect x="342" y="1113.5" width="64" height="1" fill="white" fill-opacity="0.5" /><text x="416" y="1127.5" font-size="14" fill="white" font-family="monospace" dominant-baseline="ideographic">17</text><rect x="456" y="0" width="64" height="835.0" fill="black" /><rect x="456" y="0.0" width="64" height="1" fill="white" fill-opacity="0.5" /><text x="530" y="14.0" font-size="14" fill="white" font-family="monospace" dominant-baseline="ideographic">17</text><rect x="456" y="46.0" width="64" height="1" fill="white" fill-opacity="0.2" /><rect x="456" y="92.5" width="64" height="1" fill="white" fill-opacity="0.2" /><rect x="456" y="139.0" width="64" height="1" fill="white" fill-opacity="0.2" /><rect x="456" y="185.5" width="64" height="1" fill="white" fill-opacity="0.2" /><rect x="456" y="232.0" width="64" height="1" fill="white" fill-opacity="0.2" /><rect x="456" y="278.0" width="64" height="1" fill="white" fill-opacity="0.5" /><text x="530" y="292.0" font-size="14" fill="white" font-family="monospace" dominant-baseline="ideographic">18</text><rect x="456" y="324.5" width="64" height="1" fill="white" fill-opacity="0.2" /><rect x="456" y="371.0" width="64" height="1" fill="white" fill-opacity="0.2" /><rect x="456" y="417.5" width="64" height="1" fill="white" fill-opacity="0.2" /><rect x="456" y="463.5" width="64" height="1" fill="white" fill-opacity="0.5" /><text x="530" y="477.5" font-size="14" fill="white" font-family="monospace" dominant-baseline="ideographic">19</text><rect x="456" y="510.0" width="64" height="1" fill="white" fill-opacity="0.2" /><rect x="456" y="556.5" width="64" height="1" fill="white" fill-opacity="0.2" /><rect x="456" y="603.0" width="64" height="1" fill="white" fill-opacity="0.2" /><rect x="456" y="649.5" width="64" height="1" fill="white" fill-opacity="0.5" /><text x="530" y="663.5" font-size="14" fill="white" font-family="monospace" dominant-baseline="ideographic">20</text><rect x="456" y="695.5" width="64" height="1" fill="white" fill-opacity="0.2" /><rect x="456" y="742.0" width="64" height="1" fill="white" fill-opacity="0.2" /><rect x="456" y="788.5" width="64" height="1" fill="white" fill-opacity="0.2" /><rect x="456" y="835.0" width="64" height="1" fill="white" fill-opacity="0.5" /><text x="530" y="849.0" font-size="14" fill="white" font-family="monospace" dominant-baseline="ideographic">21</text><rect x="456" y="278.1999999999998" width="64" height="1" fill="aqua" fill-opacity="0.75" /><text x="456" y="292.1999999999998" font-size="14" fill="aqua" fill-opacity="0.75" font-family="monospace">Phrase C</text><rect x="570" y="0" width="64" height="742.0" fill="black" /><rect x="570" y="0.0" width="64" height="1" fill="white" fill-opacity="0.5" /><text x="644" y="14.0" font-size="14" fill="white" font-family="monospace" dominant-baseline="ideographic">21</text><rect x="570" y="46.5" width="64" height="1" fill="white" fill-opacity="0.2" /><rect x="570" y="92.5" width="64" height="1" fill="white" fill-opacity="0.2" /><rect x="570" y="139.0" width="64" height="1" fill="white" fill-opacity="0.2" /><rect x="570" y="185.5" width="64" height="1" fill="white" fill-opacity="0.5" /><text x="644" y="199.5" font-size="14" fill="white" font-family="monospace" dominant-baseline="ideographic">22</text><rect x="570" y="232.0" width="64" height="1" fill="white" fill-opacity="0.2" /><rect x="570" y="278.0" width="64" height="1" fill="white" fill-opacity="0.2" /><rect x="570" y="324.5" width="64" height="1" fill="white" fill-opacity="0.2" /><rect x="570" y="371.0" width="64" height="1" fill="white" fill-opacity="0.5" /><text x="644" y="385.0" font-size="14" fill="white" font-family="monospace" dominant-baseline="ideographic">23</text><rect x="570" y="417.5" width="64" height="1" fill="white" fill-opacity="0.2" /><rect x="570" y="464.0" width="64" height="1" fill="white" fill-opacity="0.2" /><rect x="570" y="510.0" width="64" height="1" fill="white" fill-opacity="0.2" /><rect x="570" y="556.5" width="64" height="1" fill="white" fill-opacity="0.5" /><text x="644" y="570.5" font-size="14" fill="white" font-family="monospace" dominant-baseline="ideographic">24</text><rect x="570" y="603.0" width="64" height="1" fill="white" fill-opacity="0.2" /><rect x="570" y="649.5" width="64" height="1" fill="white" fill-opacity="0.2" /><rect x="570" y="695.5" width="64" height="1" fill="white" fill-opacity="0.2" /><rect x="570" y="742.0" width="64" height="1" fill="white" fill-opacity="0.5" /><text x="644" y="756.0" font-size="14" fill="white" font-family="monospace" dominant-baseline="ideographic">25</text><rect x="570" y="185.39999999999964" width="64" height="1" fill="aqua" fill-opacity="0.75" /><text x="570" y="199.39999999999964" font-size="14" fill="aqua" fill-opacity="0.75" font-family="monospace">Phrase D</text><rect x="684" y="0" width="64" height="742.5" fill="black" /><rect x="684" y="0.0" width="64" height="1" fill="white" fill-opacity="0.5" /><text x="758" y="14.0" font-size="14" fill="white" font-family="monospace" dominant-baseline="ideographic">25</text><rect x="684" y="46.5" width="64" height="1" fill="white" fill-opacity="0.2" /><rect x="684" y="93.0" width="64" height="1" fill="white" fill-opacity="0.2" /><rect x="684" y="139.5" width="64" height="1" fill="white" fill-opacity="0.2" /><rect x="684" y="185.5" width="64" height="1" fill="white" fill-opacity="0.5" /><text x="758" y="199.5" font-size="14" fill="white" font-family="monospace" dominant-baseline="ideographic">26</text><rect x="684" y="232.0" width="64" height="1" fill="white" fill-opacity="0.2" /><rect x="684" y="278.5" width="64" height="1" fill="white" fill-opacity="0.2" /><rect x="684" y="325.0" width="64" height="1" fill="white" fill-opacity="0.2" /><rect x="684" y="371.5" width="64" height="1" fill="white" fill-opacity="0.5" /><text x="758" y="385.5" font-size="14" fill="white" font-family="monospace" dominant-baseline="ideographic">27</text><rect x="684" y="417.5" width="64" height="1" fill="white" fill-opacity="0.2" /><rect x="684" y="464.0" width="64" height="1" fill="white" fill-opacity="0.2" /><rect x="684" y="510.5" width="64" height="1" fill="white" fill-opacity="0.2" /><rect x="684" y="557.0" width="64" height="1" fill="white" fill-opacity="0.5" /><text x="758" y="571.0" font-size="14" fill="white" font-family="monospace" dominant-baseline="ideographic">28</text><rect x="684" y="603.0" width="64" height="1" fill="white" fill-opacity="0.2" /><rect x="684" y="649.5" width="64" height="1" fill="white" fill-opacity="0.2" /><rect x="684" y="696.0" width="64" height="1" fill="white" fill-opacity="0.2" /><rect x="684" y="742.5" width="64" height="1" fill="white" fill-opacity="0.5" /><text x="758" y="756.5" font-size="14" fill="white" font-family="monospace" dominant-baseline="ideographic">29</text><rect x="798" y="0" width="64" height="742.0" fill="black" /><rect x="798" y="0.0" width="64" height="1" fill="white" fill-opacity="0.5" /><text x="872" y="14.0" font-size="14" fill="white" font-family="monospace" dominant-baseline="ideographic">29</text><rect x="798" y="46.5" width="64" height="1" fill="white" fill-opacity="0.2" /><rect x="798" y="92.5" width="64" height="1" fill="white" fill-opacity="0.2" /><rect x="798" y="139.0" width="64" height="1" fill="white" fill-opacity="0.2" /><rect x="798" y="185.5" width="64" height="1" fill="white" fill-opacity="0.5" /><text x="872" y="199.5" font-size="14" fill="white" font-family="monospace" dominant-baseline="ideographic">30</text><rect x="798" y="232.0" width="64" height="1" fill="white" fill-opacity="0.2" /><rect x="798" y="278.5" width="64" height="1" fill="white" fill-opacity="0.2" /><rect x="798" y="324.5" width="64" height="1" fill="white" fill-opacity="0.2" /><rect x="798" y="371.0" width="64" height="1" fill="white" fill-opacity="0.5" /><text x="872" y="385.0" font-size="14" fill="white" font-family="monospace" dominant-baseline="ideographic">31</text><rect x="798" y="417.5" width="64" height="1" fill="white" fill-opacity="0.2" /><rect x="798" y="464.0" width="64" height="1" fill="white" fill-opacity="0.2" /><rect x="798" y="510.0" width="64" height="1" fill="white" fill-opacity="0.2" /><rect x="798" y="556.5" width="64" height="1" fill="white" fill-opacity="0.5" /><text x="872" y="570.5" font-size="14" fill="white" font-family="monospace" dominant-baseline="ideographic">32</text><rect x="798" y="603.0" width="64" height="1" fill="white" fill-opacity="0.2" /><rect x="798" y="649.5" width="64" height="1" fill="white" fill-opacity="0.2" /><rect x="798" y="696.0" width="64" height="1" fill="white" fill-opacity="0.2" /><rect x="798" y="742.0" width="64" height="1" fill="white" fill-opacity="0.5" /><text x="872" y="756.0" font-size="14" fill="white" font-family="monospace" dominant-baseline="ideographic">33</text><rect x="912" y="0" width="64" height="742.5" fill="black" /><rect x="912" y="0.0" width="64" height="1" fill="white" fill-opacity="0.5" /><text x="986" y="14.0" font-size="14" fill="white" font-family="monospace" dominant-baseline="ideographic">33</text><rect x="912" y="46.5" width="64" height="1" fill="white" fill-opacity="0.2" /><rect x="912" y="93.0" width="64" height="1" fill="white" fill-opacity="0.2" /><rect x="912" y="139.5" width="64" height="1" fill="white" fill-opacity="0.2" /><rect x="912" y="185.5" width="64" height="1" fill="white" fill-opacity="0.5" /><text x="986" y="199.5" font-size="14" fill="white" font-family="monospace" dominant-baseline="ideographic">34</text><rect x="912" y="232.0" width="64" height="1" fill="white" fill-opacity="0.2" /><rect x="912" y="278.5" width="64" height="1" fill="white" fill-opacity="0.2" /><rect x="912" y="325.0" width="64" height="1" fill="white" fill-opacity="0.2" /><rect x="912" y="371.5" width="64" height="1" fill="white" fill-opacity="0.5" /><text x="986" y="385.5" font-size="14" fill="white" font-family="monospace" dominant-baseline="ideographic">35</text><rect x="912" y="417.5" width="64" height="1" fill="white" fill-opacity="0.2" /><rect x="912" y="464.0" width="64" height="1" fill="white" fill-opacity="0.2" /><rect x="912" y="510.5" width="64" height="1" fill="white" fill-opacity="0.2" /><rect x="912" y="557.0" width="64" height="1" fill="white" fill-opacity="0.5" /><text x="986" y="571.0" font-size="14" fill="white" font-family="monospace" dominant-baseline="ideographic">36</text><rect x="912" y="603.5" width="64" height="1" fill="white" fill-opacity="0.2" /><rect x="912" y="649.5" width="64" height="1" fill="white" fill-opacity="0.2" /><rect x="912" y="696.0" width="64" height="1" fill="white" fill-opacity="0.2" /><rect x="912" y="742.5" width="64" height="1" fill="white" fill-opacity="0.5" /><text x="986" y="756.5" font-size="14" fill="white" font-family="monospace" dominant-baseline="ideographic">37</text><rect x="1026" y="0" width="64" height="742.0" fill="black" /><rect x="1026" y="0.0" width="64" height="1" fill="white" fill-opacity="0.5" /><text x="1100" y="14.0" font-size="14" fill="white" font-family="monospace" dominant-baseline="ideographic">37</text><rect x="1026" y="46.5" width="64" height="1" fill="white" fill-opacity="0.2" /><rect x="1026" y="92.5" width="64" height="1" fill="white" fill-opacity="0.2" /><rect x="1026" y="139.0" width="64" height="1" fill="white" fill-opacity="0.2" /><rect x="1026" y="185.5" width="64" height="1" fill="white" fill-opacity="0.5" /><text x="1100" y="199.5" font-size="14" fill="white" font-family="monospace" dominant-baseline="ideographic">38</text><rect x="1026" y="232.0" width="64" height="1" fill="white" fill-opacity="0.2" /><rect x="1026" y="278.5" width="64" height="1" fill="white" fill-opacity="0.2" /><rect x="1026" y="324.5" width="64" height="1" fill="white" fill-opacity="0.2" /><rect x="1026" y="371.0" width="64" height="1" fill="white" fill-opacity="0.5" /><text x="1100" y="385.0" font-size="14" fill="white" font-family="monospace" dominant-baseline="ideographic">39</text><rect x="1026" y="417.5" width="64" height="1" fill="white" fill-opacity="0.2" /><rect x="1026" y="464.0" width="64" height="1" fill="white" fill-opacity="0.2" /><rect x="1026" y="510.0" width="64" height="1" fill="white" fill-opacity="0.2" /><rect x="1026" y="556.5" width="64" height="1" fill="white" fill-opacity="0.5" /><text x="1100" y="570.5" font-size="14" fill="white" font-family="monospace" dominant-baseline="ideographic">40</text><rect x="1026" y="603.0" width="64" height="1" fill="white" fill-opacity="0.2" /><rect x="1026" y="649.5" width="64" height="1" fill="white" fill-opacity="0.2" /><rect x="1026" y="696.0" width="64" height="1" fill="white" fill-opacity="0.2" /><rect x="1026" y="742.0" width="64" height="1" fill="white" fill-opacity="0.5" /><text x="1100" y="756.0" font-size="14" fill="white" font-family="monospace" dominant-baseline="ideographic">41</text><rect x="1026" y="185.5" width="64" height="1" fill="aqua" fill-opacity="0.75" /><text x="1026" y="199.5" font-size="14" fill="aqua" fill-opacity="0.75" font-family="monospace">Phrase E</text><rect x="1140" y="0" width="64" height="742.5" fill="black" /><rect x="1140" y="0.0" width="64" height="1" fill="white" fill-opacity="0.5" /><text x="1214" y="14.0" font-size="14" fill="white" font-family="monospace" dominant-baseline="ideographic">41</text><rect x="1140" y="46.5" width="64" height="1" fill="white" fill-opacity="0.2" /><rect x="1140" y="93.0" width="64" height="1" fill="white" fill-opacity="0.2" /><rect x="1140" y="139.5" width="64" height="1" fill="white" fill-opacity="0.2" /><rect x="1140" y="186.0" width="64" height="1" fill="white" fill-opacity="0.5" /><text x="1214" y="200.0" font-size="14" fill="white" font-family="monospace" dominant-baseline="ideographic">42</text><rect x="1140" y="232.0" width="64" height="1" fill="white" fill-opacity="0.2" /><rect x="1140" y="278.5" width="64" height="1" fill="white" fill-opacity="0.2" /><rect x="1140" y="325.0" width="64" height="1" fill="white" fill-opacity="0.2" /><rect x="1140" y="371.5" width="64" height="1" fill="white" fill-opacity="0.5" /><text x="1214" y="385.5" font-size="14" fill="white" font-family="monospace" dominant-baseline="ideographic">43</text><rect x="1140" y="417.5" width="64" height="1" fill="white" fill-opacity="0.2" /><rect x="1140" y="464.0" width="64" height="1" fill="white" fill-opacity="0.2" /><rect x="1140" y="510.5" width="64" height="1" fill="white" fill-opacity="0.2" /><rect x="1140" y="557.0" width="64" height="1" fill="white" fill-opacity="0.5" /><text x="1214" y="571.0" font-size="14" fill="white" font-family="monospace" dominant-baseline="ideographic">44</text><rect x="1140" y="603.5" width="64" height="1" fill="white" fill-opacity="0.2" /><rect x="1140" y="649.5" width="64" height="1" fill="white" fill-opacity="0.2" /><rect x="1140" y="696.0" width="64" height="1" fill="white" fill-opacity="0.2" /><rect x="1140" y="742.5" width="64" height="1" fill="white" fill-opacity="0.5" /><text x="1214" y="756.5" font-size="14" fill="white" font-family="monospace" dominant-baseline="ideographic">45</text><rect x="1254" y="0" width="64" height="742.0" fill="black" /><rect x="1254" y="0.0" width="64" height="1" fill="white" fill-opacity="0.5" /><text x="1328" y="14.0" font-size="14" fill="white" font-family="monospace" dominant-baseline="ideographic">45</text><rect x="1254" y="46.5" width="64" height="1" fill="white" fill-opacity="0.2" /><rect x="1254" y="93.0" width="64" height="1" fill="white" fill-opacity="0.2" /><rect x="1254" y="139.0" width="64" height="1" fill="white" fill-opacity="0.2" /><rect x="1254" y="185.5" width="64" height="1" fill="white" fill-opacity="0.5" /><text x="1328" y="199.5" font-size="14" fill="white" font-family="monospace" dominant-baseline="ideographic">46</text><rect x="1254" y="232.0" width="64" height="1" fill="white" fill-opacity="0.2" /><rect x="1254" y="278.5" width="64" height="1" fill="white" fill-opacity="0.2" /><rect x="1254" y="324.5" width="64" height="1" fill="white" fill-opacity="0.2" /><rect x="1254" y="371.0" width="64" height="1" fill="white" fill-opacity="0.5" /><text x="1328" y="385.0" font-size="14" fill="white" font-family="monospace" dominant-baseline="ideographic">47</text><rect x="1254" y="417.5" width="64" height="1" fill="white" fill-opacity="0.2" /><rect x="1254" y="464.0" width="64" height="1" fill="white" fill-opacity="0.2" /><rect x="1254" y="510.5" width="64" height="1" fill="white" fill-opacity="0.2" /><rect x="1254" y="556.5" width="64" height="1" fill="white" fill-opacity="0.5" /><text x="1328" y="570.5" font-size="14" fill="white" font-family="monospace" dominant-baseline="ideographic">48</text><rect x="1254" y="603.0" width="64" height="1" fill="white" fill-opacity="0.2" /><rect x="1254" y="649.5" width="64" height="1" fill="white" fill-opacity="0.2" /><rect x="1254" y="696.0" width="64" height="1" fill="white" fill-opacity="0.2" /><rect x="1254" y="742.0" width="64" height="1" fill="white" fill-opacity="0.5" /><text x="1328" y="756.0" font-size="14" fill="white" font-family="monospace" dominant-baseline="ideographic">49</text><rect x="1254" y="556.6499999999996" width="64" height="1" fill="aqua" fill-opacity="0.75" /><text x="1254" y="570.6499999999996" font-size="14" fill="aqua" fill-opacity="0.75" font-family="monospace">Special</text><rect x="1368" y="0" width="64" height="742.5" fill="black" /><rect x="1368" y="0.0" width="64" height="1" fill="white" fill-opacity="0.5" /><text x="1442" y="14.0" font-size="14" fill="white" font-family="monospace" dominant-baseline="ideographic">49</text><rect x="1368" y="46.5" width="64" height="1" fill="white" fill-opacity="0.2" /><rect x="1368" y="93.0" width="64" height="1" fill="white" fill-opacity="0.2" /><rect x="1368" y="139.5" width="64" height="1" fill="white" fill-opacity="0.2" /><rect x="1368" y="186.0" width="64" height="1" fill="white" fill-opacity="0.5" /><text x="1442" y="200.0" font-size="14" fill="white" font-family="monospace" dominant-baseline="ideographic">50</text><rect x="1368" y="232.0" width="64" height="1" fill="white" fill-opacity="0.2" /><rect x="1368" y="278.5" width="64" height="1" fill="white" fill-opacity="0.2" /><rect x="1368" y="325.0" width="64" height="1" fill="white" fill-opacity="0.2" /><rect x="1368" y="371.5" width="64" height="1" fill="white" fill-opacity="0.5" /><text x="1442" y="385.5" font-size="14" fill="white" font-family="monospace" dominant-baseline="ideographic">51</text><rect x="1368" y="418.0" width="64" height="1" fill="white" fill-opacity="0.2" /><rect x="1368" y="464.0" width="64" height="1" fill="white" fill-opacity="0.2" /><rect x="1368" y="510.5" width="64" height="1" fill="white" fill-opacity="0.2" /><rect x="1368" y="557.0" width="64" height="1" fill="white" fill-opacity="0.5" /><text x="1442" y="571.0" font-size="14" fill="white" font-family="monospace" dominant-baseline="ideographic">52</text><rect x="1368" y="603.5" width="64" height="1" fill="white" fill-opacity="0.2" /><rect x="1368" y="649.5" width="64" height="1" fill="white" fill-opacity="0.2" /><rect x="1368" y="696.0" width="64" height="1" fill="white" fill-opacity="0.2" /><rect x="1368" y="742.5" width="64" height="1" fill="white" fill-opacity="0.5" /><text x="1442" y="756.5" font-size="14" fill="white" font-family="monospace" dominant-baseline="ideographic">53</text><rect x="1482" y="0" width="64" height="742.5" fill="black" /><rect x="1482" y="0.0" width="64" height="1" fill="white" fill-opacity="0.5" /><text x="1556" y="14.0" font-size="14" fill="white" font-family="monospace" dominant-baseline="ideographic">53</text><rect x="1482" y="46.5" width="64" height="1" fill="white" fill-opacity="0.2" /><rect x="1482" y="93.0" width="64" height="1" fill="white" fill-opacity="0.2" /><rect x="1482" y="139.0" width="64" height="1" fill="white" fill-opacity="0.2" /><rect x="1482" y="185.5" width="64" height="1" fill="white" fill-opacity="0.5" /><text x="1556" y="199.5" font-size="14" fill="white" font-family="monospace" dominant-baseline="ideographic">54</text><rect x="1482" y="232.0" width="64" height="1" fill="white" fill-opacity="0.2" /><rect x="1482" y="278.5" width="64" height="1" fill="white" fill-opacity="0.2" /><rect x="1482" y="324.5" width="64" height="1" fill="white" fill-opacity="0.2" /><rect x="1482" y="371.0" width="64" height="1" fill="white" fill-opacity="0.5" /><text x="1556" y="385.0" font-size="14" fill="white" font-family="monospace" dominant-baseline="ideographic">55</text><rect x="1482" y="417.5" width="64" height="1" fill="white" fill-opacity="0.2" /><rect x="1482" y="464.0" width="64" height="1" fill="white" fill-opacity="0.2" /><rect x="1482" y="510.5" width="64" height="1" fill="white" fill-opacity="0.2" /><rect x="1482" y="556.5" width="64" height="1" fill="white" fill-opacity="0.5" /><text x="1556" y="570.5" font-size="14" fill="white" font-family="monospace" dominant-baseline="ideographic">56</text><rect x="1482" y="603.0" width="64" height="1" fill="white" fill-opacity="0.2" /><rect x="1482" y="649.5" width="64" height="1" fill="white" fill-opacity="0.2" /><rect x="1482" y="696.0" width="64" height="1" fill="white" fill-opacity="0.2" /><rect x="1482" y="742.5" width="64" height="1" fill="white" fill-opacity="0.5" /><text x="1556" y="756.5" font-size="14" fill="white" font-family="monospace" dominant-baseline="ideographic">57</text><rect x="1596" y="0" width="64" height="835.0" fill="black" /><rect x="1596" y="0.0" width="64" height="1" fill="white" fill-opacity="0.5" /><text x="1670" y="14.0" font-size="14" fill="white" font-family="monospace" dominant-baseline="ideographic">57</text><rect x="1596" y="46.0" width="64" height="1" fill="white" fill-opacity="0.2" /><rect x="1596" y="92.5" width="64" height="1" fill="white" fill-opacity="0.2" /><rect x="1596" y="139.0" width="64" height="1" fill="white" fill-opacity="0.2" /><rect x="1596" y="185.5" width="64" height="1" fill="white" fill-opacity="0.5" /><text x="1670" y="199.5" font-size="14" fill="white" font-family="monospace" dominant-baseline="ideographic">58</text><rect x="1596" y="231.5" width="64" height="1" fill="white" fill-opacity="0.2" /><rect x="1596" y="278.0" width="64" height="1" fill="white" fill-opacity="0.2" /><rect x="1596" y="324.5" width="64" height="1" fill="white" fill-opacity="0.2" /><rect x="1596" y="371.0" width="64" height="1" fill="white" fill-opacity="0.5" /><text x="1670" y="385.0" font-size="14" fill="white" font-family="monospace" dominant-baseline="ideographic">59</text><rect x="1596" y="417.5" width="64" height="1" fill="white" fill-opacity="0.2" /><rect x="1596" y="463.5" width="64" height="1" fill="white" fill-opacity="0.2" /><rect x="1596" y="510.0" width="64" height="1" fill="white" fill-opacity="0.2" /><rect x="1596" y="556.5" width="64" height="1" fill="white" fill-opacity="0.5" /><text x="1670" y="570.5" font-size="14" fill="white" font-family="monospace" dominant-baseline="ideographic">60</text><rect x="1596" y="603.0" width="64" height="1" fill="white" fill-opacity="0.2" /><rect x="1596" y="649.5" width="64" height="1" fill="white" fill-opacity="0.2" /><rect x="1596" y="695.5" width="64" height="1" fill="white" fill-opacity="0.2" /><rect x="1596" y="742.0" width="64" height="1" fill="white" fill-opacity="0.2" /><rect x="1596" y="788.5" width="64" height="1" fill="white" fill-opacity="0.2" /><rect x="1596" y="835.0" width="64" height="1" fill="white" fill-opacity="0.5" /><text x="1670" y="849.0" font-size="14" fill="white" font-family="monospace" dominant-baseline="ideographic">61</text><rect x="1596" y="556.5499999999993" width="64" height="1" fill="aqua" fill-opacity="0.75" /><text x="1596" y="570.5499999999993" font-size="14" fill="aqua" fill-opacity="0.75" font-family="monospace">Phrase A</text><rect x="1710" y="0" width="64" height="1113.0" fill="black" /><rect x="1710" y="0.0" width="64" height="1" fill="white" fill-opacity="0.5" /><text x="1784" y="14.0" font-size="14" fill="white" font-family="monospace" dominant-baseline="ideographic">61</text><rect x="1710" y="46.0" width="64" height="1" fill="white" fill-opacity="0.2" /><rect x="1710" y="92.5" width="64" height="1" fill="white" fill-opacity="0.2" /><rect x="1710" y="139.0" width="64" height="1" fill="white" fill-opacity="0.2" /><rect x="1710" y="185.5" width="64" height="1" fill="white" fill-opacity="0.2" /><rect x="1710" y="232.0" width="64" height="1" fill="white" fill-opacity="0.2" /><rect x="1710" y="278.0" width="64" height="1" fill="white" fill-opacity="0.5" /><text x="1784" y="292.0" font-size="14" fill="white" font-family="monospace" dominant-baseline="ideographic">62</text><rect x="1710" y="324.5" width="64" height="1" fill="white" fill-opacity="0.2" /><rect x="1710" y="371.0" width="64" height="1" fill="white" fill-opacity="0.2" /><rect x="1710" y="417.5" width="64" height="1" fill="white" fill-opacity="0.2" /><rect x="1710" y="463.5" width="64" height="1" fill="white" fill-opacity="0.2" /><rect x="1710" y="510.0" width="64" height="1" fill="white" fill-opacity="0.2" /><rect x="1710" y="556.5" width="64" height="1" fill="white" fill-opacity="0.5" /><text x="1784" y="570.5" font-size="14" fill="white" font-family="monospace" dominant-baseline="ideographic">63</text><rect x="1710" y="603.0" width="64" height="1" fill="white" fill-opacity="0.2" /><rect x="1710" y="649.5" width="64" height="1" fill="white" fill-opacity="0.2" /><rect x="1710" y="695.5" width="64" height="1" fill="white" fill-opacity="0.2" /><rect x="1710" y="742.0" width="64" height="1" fill="white" fill-opacity="0.2" /><rect x="1710" y="788.5" width="64" height="1" fill="white" fill-opacity="0.2" /><rect x="1710" y="835.0" width="64" height="1" fill="white" fill-opacity="0.5" /><text x="1784" y="849.0" font-size="14" fill="white" font-family="monospace" dominant-baseline="ideographic">64</text><rect x="1710" y="881.5" width="64" height="1" fill="white" fill-opacity="0.2" /><rect x="1710" y="927.5" width="64" height="1" fill="white" fill-opacity="0.2" /><rect x="1710" y="974.0" width="64" height="1" fill="white" fill-opacity="0.2" /><rect x="1710" y="1020.5" width="64" height="1" fill="white" fill-opacity="0.2" /><rect x="1710" y="1067.0" width="64" height="1" fill="white" fill-opacity="0.2" /><rect x="1710" y="1113.0" width="64" height="1" fill="white" fill-opacity="0.5" /><text x="1784" y="1127.0" font-size="14" fill="white" font-family="monospace" dominant-baseline="ideographic">65</text><rect x="1824" y="0" width="64" height="1021.0" fill="black" /><rect x="1824" y="0.0" width="64" height="1" fill="white" fill-opacity="0.5" /><text x="1898" y="14.0" font-size="14" fill="white" font-family="monospace" dominant-baseline="ideographic">65</text><rect x="1824" y="46.5" width="64" height="1" fill="white" fill-opacity="0.2" /><rect x="1824" y="93.0" width="64" height="1" fill="white" fill-opacity="0.2" /><rect x="1824" y="139.5" width="64" height="1" fill="white" fill-opacity="0.2" /><rect x="1824" y="186.0" width="64" height="1" fill="white" fill-opacity="0.2" /><rect x="1824" y="232.0" width="64" height="1" fill="white" fill-opacity="0.2" /><rect x="1824" y="278.5" width="64" height="1" fill="white" fill-opacity="0.5" /><text x="1898" y="292.5" font-size="14" fill="white" font-family="monospace" dominant-baseline="ideographic">66</text><rect x="1824" y="325.0" width="64" height="1" fill="white" fill-opacity="0.2" /><rect x="1824" y="371.5" width="64" height="1" fill="white" fill-opacity="0.2" /><rect x="1824" y="418.0" width="64" height="1" fill="white" fill-opacity="0.2" /><rect x="1824" y="464.0" width="64" height="1" fill="white" fill-opacity="0.2" /><rect x="1824" y="510.5" width="64" height="1" fill="white" fill-opacity="0.2" /><rect x="1824" y="557.0" width="64" height="1" fill="white" fill-opacity="0.5" /><text x="1898" y="571.0" font-size="14" fill="white" font-family="monospace" dominant-baseline="ideographic">67</text><rect x="1824" y="603.5" width="64" height="1" fill="white" fill-opacity="0.2" /><rect x="1824" y="649.5" width="64" height="1" fill="white" fill-opacity="0.2" /><rect x="1824" y="696.0" width="64" height="1" fill="white" fill-opacity="0.2" /><rect x="1824" y="742.5" width="64" height="1" fill="white" fill-opacity="0.2" /><rect x="1824" y="789.0" width="64" height="1" fill="white" fill-opacity="0.2" /><rect x="1824" y="835.5" width="64" height="1" fill="white" fill-opacity="0.5" /><text x="1898" y="849.5" font-size="14" fill="white" font-family="monospace" dominant-baseline="ideographic">68</text><rect x="1824" y="881.5" width="64" height="1" fill="white" fill-opacity="0.2" /><rect x="1824" y="928.0" width="64" height="1" fill="white" fill-opacity="0.2" /><rect x="1824" y="974.5" width="64" height="1" fill="white" fill-opacity="0.2" /><rect x="1824" y="1021.0" width="64" height="1" fill="white" fill-opacity="0.5" /><text x="1898" y="1035.0" font-size="14" fill="white" font-family="monospace" dominant-baseline="ideographic">69</text><rect x="1824" y="835.2999999999993" width="64" height="1" fill="aqua" fill-opacity="0.75" /><text x="1824" y="849.2999999999993" font-size="14" fill="aqua" fill-opacity="0.75" font-family="monospace">Phrase C</text><rect x="1938" y="0" width="64" height="742.0" fill="black" /><rect x="1938" y="0.0" width="64" height="1" fill="white" fill-opacity="0.5" /><text x="2012" y="14.0" font-size="14" fill="white" font-family="monospace" dominant-baseline="ideographic">69</text><rect x="1938" y="46.0" width="64" height="1" fill="white" fill-opacity="0.2" /><rect x="1938" y="92.5" width="64" height="1" fill="white" fill-opacity="0.2" /><rect x="1938" y="139.0" width="64" height="1" fill="white" fill-opacity="0.2" /><rect x="1938" y="185.5" width="64" height="1" fill="white" fill-opacity="0.5" /><text x="2012" y="199.5" font-size="14" fill="white" font-family="monospace" dominant-baseline="ideographic">70</text><rect x="1938" y="232.0" width="64" height="1" fill="white" fill-opacity="0.2" /><rect x="1938" y="278.0" width="64" height="1" fill="white" fill-opacity="0.2" /><rect x="1938" y="324.5" width="64" height="1" fill="white" fill-opacity="0.2" /><rect x="1938" y="371.0" width="64" height="1" fill="white" fill-opacity="0.5" /><text x="2012" y="385.0" font-size="14" fill="white" font-family="monospace" dominant-baseline="ideographic">71</text><rect x="1938" y="417.5" width="64" height="1" fill="white" fill-opacity="0.2" /><rect x="1938" y="464.0" width="64" height="1" fill="white" fill-opacity="0.2" /><rect x="1938" y="510.0" width="64" height="1" fill="white" fill-opacity="0.2" /><rect x="1938" y="556.5" width="64" height="1" fill="white" fill-opacity="0.5" /><text x="2012" y="570.5" font-size="14" fill="white" font-family="monospace" dominant-baseline="ideographic">72</text><rect x="1938" y="603.0" width="64" height="1" fill="white" fill-opacity="0.2" /><rect x="1938" y="649.5" width="64" height="1" fill="white" fill-opacity="0.2" /><rect x="1938" y="695.5" width="64" height="1" fill="white" fill-opacity="0.2" /><rect x="1938" y="742.0" width="64" height="1" fill="white" fill-opacity="0.5" /><text x="2012" y="756.0" font-size="14" fill="white" font-family="monospace" dominant-baseline="ideographic">73</text><rect x="2052" y="0" width="64" height="652.5" fill="black" /><rect x="2052" y="0.0" width="64" height="1" fill="white" fill-opacity="0.5" /><text x="2126" y="14.0" font-size="14" fill="white" font-family="monospace" dominant-baseline="ideographic">73</text><rect x="2052" y="46.5" width="64" height="1" fill="white" fill-opacity="0.2" /><rect x="2052" y="93.0" width="64" height="1" fill="white" fill-opacity="0.2" /><rect x="2052" y="139.5" width="64" height="1" fill="white" fill-opacity="0.2" /><rect x="2052" y="185.5" width="64" height="1" fill="white" fill-opacity="0.5" /><text x="2126" y="199.5" font-size="14" fill="white" font-family="monospace" dominant-baseline="ideographic">74</text><rect x="2052" y="232.0" width="64" height="1" fill="white" fill-opacity="0.2" /><rect x="2052" y="278.5" width="64" height="1" fill="white" fill-opacity="0.2" /><rect x="2052" y="325.0" width="64" height="1" fill="white" fill-opacity="0.2" /><rect x="2052" y="371.0" width="64" height="1" fill="white" fill-opacity="0.5" /><text x="2126" y="385.0" font-size="14" fill="white" font-family="monospace" dominant-baseline="ideographic">75</text><rect x="2052" y="417.5" width="64" height="1" fill="white" fill-opacity="0.2" /><rect x="2052" y="464.0" width="64" height="1" fill="white" fill-opacity="0.2" /><rect x="2052" y="510.5" width="64" height="1" fill="white" fill-opacity="0.2" /><rect x="2052" y="557.0" width="64" height="1" fill="white" fill-opacity="0.5" /><text x="2126" y="571.0" font-size="14" fill="white" font-family="monospace" dominant-baseline="ideographic">76</text></svg>