<?xml version="1.0" encoding="UTF-8"?><svg xmlns="http://www.w3.org/2000/svg" xmlns:xlink="http://www.w3.org/1999/xlink"     width="4522" height="997.0" viewBox="0 0 4522 997.0"><defs></defs><rect x="0" y="37.0" width="188" height="960.0" fill="black" /><rect x="0" y="996.0" width="188" height="1" fill="white" fill-opacity="0.5" /><text x="198" y="996.0" font-size="14" fill="white" font-family="monospace" dominant-baseline="initial">1</text><rect x="0" y="936.0" width="188" height="1" fill="white" fill-opacity="0.2" /><rect x="0" y="876.0" width="188" height="1" fill="white" fill-opacity="0.2" /><rect x="0" y="816.0" width="188" height="1" fill="white" fill-opacity="0.2" /><rect x="0" y="756.0" width="188" height="1" fill="white" fill-opacity="0.5" /><text x="198" y="756.0" font-size="14" fill="white" font-family="monospace" dominant-baseline="initial">2</text><rect x="0" y="696.0" width="188" height="1" fill="white" fill-opacity="0.2" /><rect x="0" y="636.0" width="188" height="1" fill="white" fill-opacity="0.2" /><rect x="0" y="576.0" width="188" height="1" fill="white" fill-opacity="0.2" /><rect x="0" y="516.0" width="188" height="1" fill="white" fill-opacity="0.5" /><text x="198" y="516.0" font-size="14" fill="white" font-family="monospace" dominant-baseline="initial">3</text><rect x="0" y="456.0" width="188" height="1" fill="white" fill-opacity="0.2" /><rect x="0" y="396.0" width="188" height="1" fill="white" fill-opacity="0.2" /><rect x="0" y="336.0" width="188" height="1" fill="white" fill-opacity="0.2" /><rect x="0" y="276.0" width="188" height="1" fill="white" fill-opacity="0.5" /><text x="198" y="276.0" font-size="14" fill="white" font-family="monospace" dominant-baseline="initial">4</text><rect x="0" y="216.0" width="188" height="1" fill="white" fill-opacity="0.2" /><rect x="0" y="156.0" width="188" height="1" fill="white" fill-opacity="0.2" /><rect x="0" y="96.0" width="188" height="1" fill="white" fill-opacity="0.2" /><rect x="0" y="36.0" width="188" height="1" fill="white" fill-opacity="0.5" /><text x="198" y="36.0" font-size="14" fill="white" font-family="monospace" dominant-baseline="initial">5</text><rect x="0" y="996.0" width="188" height="1" fill="aqua" fill-opacity="0.75" /><text x="0" y="992.0" font-size="14" fill="aqua" fill-opacity="0.75" font-family="monospace">Intro</text><rect x="0" y="996.0" width="188" height="1" fill="lime" fill-opacity="0.75" /><text x="198" y="983.0" font-size="14" fill="lime" font-family="monospace" dominant-baseline="initial">150</text><rect x="238" y="37.0" width="188" height="960.0" fill="black" /><rect x="238" y="996.0" width="188" height="1" fill="white" fill-opacity="0.5" /><text x="436" y="996.0" font-size="14" fill="white" font-family="monospace" dominant-baseline="initial">5</text><rect x="238" y="936.0" width="188" height="1" fill="white" fill-opacity="0.2" /><rect x="238" y="876.0" width="188" height="1" fill="white" fill-opacity="0.2" /><rect x="238" y="816.0" width="188" height="1" fill="white" fill-opacity="0.2" /><rect x="238" y="756.0" width="188" height="1" fill="white" fill-opacity="0.5" /><text x="436" y="756.0" font-size="14" fill="white" font-family="monospace" dominant-baseline="initial">6</text><rect x="238" y="696.0" width="188" height="1" fill="white" fill-opacity="0.2" /><rect x="238" y="636.0" width="188" height="1" fill="white" fill-opacity="0.2" /><rect x="238" y="576.0" width="188" height="1" fill="white" fill-opacity="0.2" /><rect x="238" y="516.0" width="188" height="1" fill="white" fill-opacity="0.5" /><text x="436" y="516.0" font-size="14" fill="white" font-family="monospace" dominant-baseline="initial">7</text><rect x="238" y="456.0" width="188" height="1" fill="white" fill-opacity="0.2" /><rect x="238" y="396.0" width="188" height="1" fill="white" fill-opacity="0.2" /><rect x="238" y="336.0" width="188" height="1" fill="white" fill-opacity="0.2" /><rect x="238" y="276.0" width="188" height="1" fill="white" fill-opacity="0.5" /><text x="436" y="276.0" font-size="14" fill="white" font-family="monospace" dominant-baseline="initial">8</text><rect x="238" y="216.0" width="188" height="1" fill="white" fill-opacity="0.2" /><rect x="238" y="156.0" width="188" height="1" fill="white" fill-opacity="0.2" /><rect x="238" y="96.0" width="188" height="1" fill="white" fill-opacity="0.2" /><rect x="238" y="36.0" width="188" height="1" fill="white" fill-opacity="0.5" /><text x="436" y="36.0" font-size="14" fill="white" font-family="monospace" dominant-baseline="initial">9</text><rect x="476" y="37.0" width="188" height="960.0" fill="black" /><rect x="476" y="996.0" width="188" height="1" fill="white" fill-opacity="0.5" /><text x="674" y="996.0" font-size="14" fill="white" font-family="monospace" dominant-baseline="initial">9</text><rect x="476" y="936.0" width="188" height="1" fill="white" fill-opacity="0.2" /><rect x="476" y="876.0" width="188" height="1" fill="white" fill-opacity="0.2" /><rect x="476" y="816.0" width="188" height="1" fill="white" fill-opacity="0.2" /><rect x="476" y="756.0" width="188" height="1" fill="white" fill-opacity="0.5" /><text x="674" y="756.0" font-size="14" fill="white" font-family="monospace" dominant-baseline="initial">10</text><rect x="476" y="696.0" width="188" height="1" fill="white" fill-opacity="0.2" /><rect x="476" y="636.0" width="188" height="1" fill="white" fill-opacity="0.2" /><rect x="476" y="576.0" width="188" height="1" fill="white" fill-opacity="0.2" /><rect x="476" y="516.0" width="188" height="1" fill="white" fill-opacity="0.5" /><text x="674" y="516.0" font-size="14" fill="white" font-family="monospace" dominant-baseline="initial">11</text><rect x="476" y="456.0" width="188" height="1" fill="white" fill-opacity="0.2" /><rect x="476" y="396.0" width="188" height="1" fill="white" fill-opacity="0.2" /><rect x="476" y="336.0" width="188" height="1" fill="white" fill-opacity="0.2" /><rect x="476" y="276.0" width="188" height="1" fill="white" fill-opacity="0.5" /><text x="674" y="276.0" font-size="14" fill="white" font-family="monospace" dominant-baseline="initial">12</text><rect x="476" y="216.0" width="188" height="1" fill="white" fill-opacity="0.2" /><rect x="476" y="156.0" width="188" height="1" fill="white" fill-opacity="0.2" /><rect x="476" y="96.0" width="188" height="1" fill="white" fill-opacity="0.2" /><rect x="476" y="36.0" width="188" height="1" fill="white" fill-opacity="0.5" /><text x="674" y="36.0" font-size="14" fill="white" font-family="monospace" dominant-baseline="initial">13</text><rect x="714" y="37.0" width="188" height="960.0" fill="black" /><rect x="714" y="996.0" width="188" height="1" fill="white" fill-opacity="0.5" /><text x="912" y="996.0" font-size="14" fill="white" font-family="monospace" dominant-baseline="initial">13</text><rect x="714" y="936.0" width="188" height="1" fill="white" fill-opacity="0.2" /><rect x="714" y="876.0" width="188" height="1" fill="white" fill-opacity="0.2" /><rect x="714" y="816.0" width="188" height="1" fill="white" fill-opacity="0.2" /><rect x="714" y="756.0" width="188" height="1" fill="white" fill-opacity="0.5" /><text x="912" y="756.0" font-size="14" fill="white" font-family="monospace" dominant-baseline="initial">14</text><rect x="714" y="696.0" width="188" height="1" fill="white" fill-opacity="0.2" /><rect x="714" y="636.0" width="188" height="1" fill="white" fill-opacity="0.2" /><rect x="714" y="576.0" width="188" height="1" fill="white" fill-opacity="0.2" /><rect x="714" y="516.0" width="188" height="1" fill="white" fill-opacity="0.5" /><text x="912" y="516.0" font-size="14" fill="white" font-family="monospace" dominant-baseline="initial">15</text><rect x="714" y="456.0" width="188" height="1" fill="white" fill-opacity="0.2" /><rect x="714" y="396.0" width="188" height="1" fill="white" fill-opacity="0.2" /><rect x="714" y="336.0" width="188" height="1" fill="white" fill-opacity="0.2" /><rect x="714" y="276.0" width="188" height="1" fill="white" fill-opacity="0.5" /><text x="912" y="276.0" font-size="14" fill="white" font-family="monospace" dominant-baseline="initial">16</text><rect x="714" y="216.0" width="188" height="1" fill="white" fill-opacity="0.2" /><rect x="714" y="156.0" width="188" height="1" fill="white" fill-opacity="0.2" /><rect x="714" y="96.0" width="188" height="1" fill="white" fill-opacity="0.2" /><rect x="714" y="36.0" width="188" height="1" fill="white" fill-opacity="0.5" /><text x="912" y="36.0" font-size="14" fill="white" font-family="monospace" dominant-baseline="initial">17</text><rect x="714" y="516.0" width="188" height="1" fill="aqua" fill-opacity="0.75" /><text x="714" y="512.0" font-size="14" fill="aqua" fill-opacity="0.75" font-family="monospace">Phrase A</text><rect x="952" y="37.0" width="188" height="960.0" fill="black" /><rect x="952" y="996.0" width="188" height="1" fill="white" fill-opacity="0.5" /><text x="1150" y="996.0" font-size="14" fill="white" font-family="monospace" dominant-baseline="initial">17</text><rect x="952" y="936.0" width="188" height="1" fill="white" fill-opacity="0.2" /><rect x="952" y="876.0" width="188" height="1" fill="white" fill-opacity="0.2" /><rect x="952" y="816.0" width="188" height="1" fill="white" fill-opacity="0.2" /><rect x="952" y="756.0" width="188" height="1" fill="white" fill-opacity="0.5" /><text x="1150" y="756.0" font-size="14" fill="white" font-family="monospace" dominant-baseline="initial">18</text><rect x="952" y="696.0" width="188" height="1" fill="white" fill-opacity="0.2" /><rect x="952" y="636.0" width="188" height="1" fill="white" fill-opacity="0.2" /><rect x="952" y="576.0" width="188" height="1" fill="white" fill-opacity="0.2" /><rect x="952" y="516.0" width="188" height="1" fill="white" fill-opacity="0.5" /><text x="1150" y="516.0" font-size="14" fill="white" font-family="monospace" dominant-baseline="initial">19</text><rect x="952" y="456.0" width="188" height="1" fill="white" fill-opacity="0.2" /><rect x="952" y="396.0" width="188" height="1" fill="white" fill-opacity="0.2" /><rect x="952" y="336.0" width="188" height="1" fill="white" fill-opacity="0.2" /><rect x="952" y="276.0" width="188" height="1" fill="white" fill-opacity="0.5" /><text x="1150" y="276.0" font-size="14" fill="white" font-family="monospace" dominant-baseline="initial">20</text><rect x="952" y="216.0" width="188" height="1" fill="white" fill-opacity="0.2" /><rect x="952" y="156.0" width="188" height="1" fill="white" fill-opacity="0.2" /><rect x="952" y="96.0" width="188" height="1" fill="white" fill-opacity="0.2" /><rect x="952" y="36.0" width="188" height="1" fill="white" fill-opacity="0.5" /><text x="1150" y="36.0" font-size="14" fill="white" font-family="monospace" dominant-baseline="initial">21</text><rect x="1190" y="37.0" width="188" height="960.0" fill="black" /><rect x="1190" y="996.0" width="188" height="1" fill="white" fill-opacity="0.5" /><text x="1388" y="996.0" font-size="14" fill="white" font-family="monospace" dominant-baseline="initial">21</text><rect x="1190" y="936.0" width="188" height="1" fill="white" fill-opacity="0.2" /><rect x="1190" y="876.0" width="188" height="1" fill="white" fill-opacity="0.2" /><rect x="1190" y="816.0" width="188" height="1" fill="white" fill-opacity="0.2" /><rect x="1190" y="756.0" width="188" height="1" fill="white" fill-opacity="0.5" /><text x="1388" y="756.0" font-size="14" fill="white" font-family="monospace" dominant-baseline="initial">22</text><rect x="1190" y="696.0" width="188" height="1" fill="white" fill-opacity="0.2" /><rect x="1190" y="636.0" width="188" height="1" fill="white" fill-opacity="0.2" /><rect x="1190" y="576.0" width="188" height="1" fill="white" fill-opacity="0.2" /><rect x="1190" y="516.0" width="188" height="1" fill="white" fill-opacity="0.5" /><text x="1388" y="516.0" font-size="14" fill="white" font-family="monospace" dominant-baseline="initial">23</text><rect x="1190" y="456.0" width="188" height="1" fill="white" fill-opacity="0.2" /><rect x="1190" y="396.0" width="188" height="1" fill="white" fill-opacity="0.2" /><rect x="1190" y="336.0" width="188" height="1" fill="white" fill-opacity="0.2" /><rect x="1190" y="276.0" width="188" height="1" fill="white" fill-opacity="0.5" /><text x="1388" y="276.0" font-size="14" fill="white" font-family="monospace" dominant-baseline="initial">24</text><rect x="1190" y="216.0" width="188" height="1" fill="white" fill-opacity="0.2" /><rect x="1190" y="156.0" width="188" height="1" fill="white" fill-opacity="0.2" /><rect x="1190" y="96.0" width="188" height="1" fill="white" fill-opacity="0.2" /><rect x="1190" y="36.0" width="188" height="1" fill="white" fill-opacity="0.5" /><text x="1388" y="36.0" font-size="14" fill="white" font-family="monospace" dominant-baseline="initial">25</text><rect x="1428" y="37.0" width="188" height="960.0" fill="black" /><rect x="1428" y="996.0" width="188" height="1" fill="white" fill-opacity="0.5" /><text x="1626" y="996.0" font-size="14" fill="white" font-family="monospace" dominant-baseline="initial">25</text><rect x="1428" y="936.0" width="188" height="1" fill="white" fill-opacity="0.2" /><rect x="1428" y="876.0" width="188" height="1" fill="white" fill-opacity="0.2" /><rect x="1428" y="816.0" width="188" height="1" fill="white" fill-opacity="0.2" /><rect x="1428" y="756.0" width="188" height="1" fill="white" fill-opacity="0.5" /><text x="1626" y="756.0" font-size="14" fill="white" font-family="monospace" dominant-baseline="initial">26</text><rect x="1428" y="696.0" width="188" height="1" fill="white" fill-opacity="0.2" /><rect x="1428" y="636.0" width="188" height="1" fill="white" fill-opacity="0.2" /><rect x="1428" y="576.0" width="188" height="1" fill="white" fill-opacity="0.2" /><rect x="1428" y="516.0" width="188" height="1" fill="white" fill-opacity="0.5" /><text x="1626" y="516.0" font-size="14" fill="white" font-family="monospace" dominant-baseline="initial">27</text><rect x="1428" y="456.0" width="188" height="1" fill="white" fill-opacity="0.2" /><rect x="1428" y="396.0" width="188" height="1" fill="white" fill-opacity="0.2" /><rect x="1428" y="336.0" width="188" height="1" fill="white" fill-opacity="0.2" /><rect x="1428" y="276.0" width="188" height="1" fill="white" fill-opacity="0.5" /><text x="1626" y="276.0" font-size="14" fill="white" font-family="monospace" dominant-baseline="initial">28</text><rect x="1428" y="216.0" width="188" height="1" fill="white" fill-opacity="0.2" /><rect x="1428" y="156.0" width="188" height="1" fill="white" fill-opacity="0.2" /><rect x="1428" y="96.0" width="188" height="1" fill="white" fill-opacity="0.2" /><rect x="1428" y="36.0" width="188" height="1" fill="white" fill-opacity="0.5" /><text x="1626" y="36.0" font-size="14" fill="white" font-family="monospace" dominant-baseline="initial">29</text><rect x="1666" y="37.0" width="188" height="960.0" fill="black" /><rect x="1666" y="996.0" width="188" height="1" fill="white" fill-opacity="0.5" /><text x="1864" y="996.0" font-size="14" fill="white" font-family="monospace" dominant-baseline="initial">29</text><rect x="1666" y="936.0" width="188" height="1" fill="white" fill-opacity="0.2" /><rect x="1666" y="876.0" width="188" height="1" fill="white" fill-opacity="0.2" /><rect x="1666" y="816.0" width="188" height="1" fill="white" fill-opacity="0.2" /><rect x="1666" y="756.0" width="188" height="1" fill="white" fill-opacity="0.5" /><text x="1864" y="756.0" font-size="14" fill="white" font-family="monospace" dominant-baseline="initial">30</text><rect x="1666" y="696.0" width="188" height="1" fill="white" fill-opacity="0.2" /><rect x="1666" y="636.0" width="188" height="1" fill="white" fill-opacity="0.2" /><rect x="1666" y="576.0" width="188" height="1" fill="white" fill-opacity="0.2" /><rect x="1666" y="516.0" width="188" height="1" fill="white" fill-opacity="0.5" /><text x="1864" y="516.0" font-size="14" fill="white" font-family="monospace" dominant-baseline="initial">31</text><rect x="1666" y="456.0" width="188" height="1" fill="white" fill-opacity="0.2" /><rect x="1666" y="396.0" width="188" height="1" fill="white" fill-opacity="0.2" /><rect x="1666" y="336.0" width="188" height="1" fill="white" fill-opacity="0.2" /><rect x="1666" y="276.0" width="188" height="1" fill="white" fill-opacity="0.5" /><text x="1864" y="276.0" font-size="14" fill="white" font-family="monospace" dominant-baseline="initial">32</text><rect x="1666" y="216.0" width="188" height="1" fill="white" fill-opacity="0.2" /><rect x="1666" y="156.0" width="188" height="1" fill="white" fill-opacity="0.2" /><rect x="1666" y="96.0" width="188" height="1" fill="white" fill-opacity="0.2" /><rect x="1666" y="36.0" width="188" height="1" fill="white" fill-opacity="0.5" /><text x="1864" y="36.0" font-size="14" fill="white" font-family="monospace" dominant-baseline="initial">33</text><rect x="1666" y="516.0" width="188" height="1" fill="aqua" fill-opacity="0.75" /><text x="1666" y="512.0" font-size="14" fill="aqua" fill-opacity="0.75" font-family="monospace">Phrase B</text><rect x="1904" y="37.0" width="188" height="960.0" fill="black" /><rect x="1904" y="996.0" width="188" height="1" fill="white" fill-opacity="0.5" /><text x="2102" y="996.0" font-size="14" fill="white" font-family="monospace" dominant-baseline="initial">33</text><rect x="1904" y="936.0" width="188" height="1" fill="white" fill-opacity="0.2" /><rect x="1904" y="876.0" width="188" height="1" fill="white" fill-opacity="0.2" /><rect x="1904" y="816.0" width="188" height="1" fill="white" fill-opacity="0.2" /><rect x="1904" y="756.0" width="188" height="1" fill="white" fill-opacity="0.5" /><text x="2102" y="756.0" font-size="14" fill="white" font-family="monospace" dominant-baseline="initial">34</text><rect x="1904" y="696.0" width="188" height="1" fill="white" fill-opacity="0.2" /><rect x="1904" y="636.0" width="188" height="1" fill="white" fill-opacity="0.2" /><rect x="1904" y="576.0" width="188" height="1" fill="white" fill-opacity="0.2" /><rect x="1904" y="516.0" width="188" height="1" fill="white" fill-opacity="0.5" /><text x="2102" y="516.0" font-size="14" fill="white" font-family="monospace" dominant-baseline="initial">35</text><rect x="1904" y="456.0" width="188" height="1" fill="white" fill-opacity="0.2" /><rect x="1904" y="396.0" width="188" height="1" fill="white" fill-opacity="0.2" /><rect x="1904" y="336.0" width="188" height="1" fill="white" fill-opacity="0.2" /><rect x="1904" y="276.0" width="188" height="1" fill="white" fill-opacity="0.5" /><text x="2102" y="276.0" font-size="14" fill="white" font-family="monospace" dominant-baseline="initial">36</text><rect x="1904" y="216.0" width="188" height="1" fill="white" fill-opacity="0.2" /><rect x="1904" y="156.0" width="188" height="1" fill="white" fill-opacity="0.2" /><rect x="1904" y="96.0" width="188" height="1" fill="white" fill-opacity="0.2" /><rect x="1904" y="36.0" width="188" height="1" fill="white" fill-opacity="0.5" /><text x="2102" y="36.0" font-size="14" fill="white" font-family="monospace" dominant-baseline="initial">37</text><rect x="2142" y="37.0" width="188" height="960.0" fill="black" /><rect x="2142" y="996.0" width="188" height="1" fill="white" fill-opacity="0.5" /><text x="2340" y="996.0" font-size="14" fill="white" font-family="monospace" dominant-baseline="initial">37</text><rect x="2142" y="936.0" width="188" height="1" fill="white" fill-opacity="0.2" /><rect x="2142" y="876.0" width="188" height="1" fill="white" fill-opacity="0.2" /><rect x="2142" y="816.0" width="188" height="1" fill="white" fill-opacity="0.2" /><rect x="2142" y="756.0" width="188" height="1" fill="white" fill-opacity="0.5" /><text x="2340" y="756.0" font-size="14" fill="white" font-family="monospace" dominant-baseline="initial">38</text><rect x="2142" y="696.0" width="188" height="1" fill="white" fill-opacity="0.2" /><rect x="2142" y="636.0" width="188" height="1" fill="white" fill-opacity="0.2" /><rect x="2142" y="576.0" width="188" height="1" fill="white" fill-opacity="0.2" /><rect x="2142" y="516.0" width="188" height="1" fill="white" fill-opacity="0.5" /><text x="2340" y="516.0" font-size="14" fill="white" font-family="monospace" dominant-baseline="initial">39</text><rect x="2142" y="456.0" width="188" height="1" fill="white" fill-opacity="0.2" /><rect x="2142" y="396.0" width="188" height="1" fill="white" fill-opacity="0.2" /><rect x="2142" y="336.0" width="188" height="1" fill="white" fill-opacity="0.2" /><rect x="2142" y="276.0" width="188" height="1" fill="white" fill-opacity="0.5" /><text x="2340" y="276.0" font-size="14" fill="white" font-family="monospace" dominant-baseline="initial">40</text><rect x="2142" y="216.0" width="188" height="1" fill="white" fill-opacity="0.2" /><rect x="2142" y="156.0" width="188" height="1" fill="white" fill-opacity="0.2" /><rect x="2142" y="96.0" width="188" height="1" fill="white" fill-opacity="0.2" /><rect x="2142" y="36.0" width="188" height="1" fill="white" fill-opacity="0.5" /><text x="2340" y="36.0" font-size="14" fill="white" font-family="monospace" dominant-baseline="initial">41</text><rect x="2142" y="276.0" width="188" height="1" fill="aqua" fill-opacity="0.75" /><text x="2142" y="272.0" font-size="14" fill="aqua" fill-opacity="0.75" font-family="monospace">Special</text><rect x="2380" y="37.0" width="188" height="960.0" fill="black" /><rect x="2380" y="996.0" width="188" height="1" fill="white" fill-opacity="0.5" /><text x="2578" y="996.0" font-size="14" fill="white" font-family="monospace" dominant-baseline="initial">41</text><rect x="2380" y="936.0" width="188" height="1" fill="white" fill-opacity="0.2" /><rect x="2380" y="876.0" width="188" height="1" fill="white" fill-opacity="0.2" /><rect x="2380" y="816.0" width="188" height="1" fill="white" fill-opacity="0.2" /><rect x="2380" y="756.0" width="188" height="1" fill="white" fill-opacity="0.5" /><text x="2578" y="756.0" font-size="14" fill="white" font-family="monospace" dominant-baseline="initial">42</text><rect x="2380" y="696.0" width="188" height="1" fill="white" fill-opacity="0.2" /><rect x="2380" y="636.0" width="188" height="1" fill="white" fill-opacity="0.2" /><rect x="2380" y="576.0" width="188" height="1" fill="white" fill-opacity="0.2" /><rect x="2380" y="516.0" width="188" height="1" fill="white" fill-opacity="0.5" /><text x="2578" y="516.0" font-size="14" fill="white" font-family="monospace" dominant-baseline="initial">43</text><rect x="2380" y="456.0" width="188" height="1" fill="white" fill-opacity="0.2" /><rect x="2380" y="396.0" width="188" height="1" fill="white" fill-opacity="0.2" /><rect x="2380" y="336.0" width="188" height="1" fill="white" fill-opacity="0.2" /><rect x="2380" y="276.0" width="188" height="1" fill="white" fill-opacity="0.5" /><text x="2578" y="276.0" font-size="14" fill="white" font-family="monospace" dominant-baseline="initial">44</text><rect x="2380" y="216.0" width="188" height="1" fill="white" fill-opacity="0.2" /><rect x="2380" y="156.0" width="188" height="1" fill="white" fill-opacity="0.2" /><rect x="2380" y="96.0" width="188" height="1" fill="white" fill-opacity="0.2" /><rect x="2380" y="36.0" width="188" height="1" fill="white" fill-opacity="0.5" /><text x="2578" y="36.0" font-size="14" fill="white" font-family="monospace" dominant-baseline="initial">45</text><rect x="2618" y="37.0" width="188" height="960.0" fill="black" /><rect x="2618" y="996.0" width="188" height="1" fill="white" fill-opacity="0.5" /><text x="2816" y="996.0" font-size="14" fill="white" font-family="monospace" dominant-baseline="initial">45</text><rect x="2618" y="936.0" width="188" height="1" fill="white" fill-opacity="0.2" /><rect x="2618" y="876.0" width="188" height="1" fill="white" fill-opacity="0.2" /><rect x="2618" y="816.0" width="188" height="1" fill="white" fill-opacity="0.2" /><rect x="2618" y="756.0" width="188" height="1" fill="white" fill-opacity="0.5" /><text x="2816" y="756.0" font-size="14" fill="white" font-family="monospace" dominant-baseline="initial">46</text><rect x="2618" y="696.0" width="188" height="1" fill="white" fill-opacity="0.2" /><rect x="2618" y="636.0" width="188" height="1" fill="white" fill-opacity="0.2" /><rect x="2618" y="576.0" width="188" height="1" fill="white" fill-opacity="0.2" /><rect x="2618" y="516.0" width="188" height="1" fill="white" fill-opacity="0.5" /><text x="2816" y="516.0" font-size="14" fill="white" font-family="monospace" dominant-baseline="initial">47</text><rect x="2618" y="456.0" width="188" height="1" fill="white" fill-opacity="0.2" /><rect x="2618" y="396.0" width="188" height="1" fill="white" fill-opacity="0.2" /><rect x="2618" y="336.0" width="188" height="1" fill="white" fill-opacity="0.2" /><rect x="2618" y="276.0" width="188" height="1" fill="white" fill-opacity="0.5" /><text x="2816" y="276.0" font-size="14" fill="white" font-family="monospace" dominant-baseline="initial">48</text><rect x="2618" y="216.0" width="188" height="1" fill="white" fill-opacity="0.2" /><rect x="2618" y="156.0" width="188" height="1" fill="white" fill-opacity="0.2" /><rect x="2618" y="96.0" width="188" height="1" fill="white" fill-opacity="0.2" /><rect x="2618" y="36.0" width="188" height="1" fill="white" fill-opacity="0.5" /><text x="2816" y="36.0" font-size="14" fill="white" font-family="monospace" dominant-baseline="initial">49</text><rect x="2856" y="37.0" width="188" height="960.0" fill="black" /><rect x="2856" y="996.0" width="188" height="1" fill="white" fill-opacity="0.5" /><text x="3054" y="996.0" font-size="14" fill="white" font-family="monospace" dominant-baseline="initial">49</text><rect x="2856" y="936.0" width="188" height="1" fill="white" fill-opacity="0.2" /><rect x="2856" y="876.0" width="188" height="1" fill="white" fill-opacity="0.2" /><rect x="2856" y="816.0" width="188" height="1" fill="white" fill-opacity="0.2" /><rect x="2856" y="756.0" width="188" height="1" fill="white" fill-opacity="0.5" /><text x="3054" y="756.0" font-size="14" fill="white" font-family="monospace" dominant-baseline="initial">50</text><rect x="2856" y="696.0" width="188" height="1" fill="white" fill-opacity="0.2" /><rect x="2856" y="636.0" width="188" height="1" fill="white" fill-opacity="0.2" /><rect x="2856" y="576.0" width="188" height="1" fill="white" fill-opacity="0.2" /><rect x="2856" y="516.0" width="188" height="1" fill="white" fill-opacity="0.5" /><text x="3054" y="516.0" font-size="14" fill="white" font-family="monospace" dominant-baseline="initial">51</text><rect x="2856" y="456.0" width="188" height="1" fill="white" fill-opacity="0.2" /><rect x="2856" y="396.0" width="188" height="1" fill="white" fill-opacity="0.2" /><rect x="2856" y="336.0" width="188" height="1" fill="white" fill-opacity="0.2" /><rect x="2856" y="276.0" width="188" height="1" fill="white" fill-opacity="0.5" /><text x="3054" y="276.0" font-size="14" fill="white" font-family="monospace" dominant-baseline="initial">52</text><rect x="2856" y="216.0" width="188" height="1" fill="white" fill-opacity="0.2" /><rect x="2856" y="156.0" width="188" height="1" fill="white" fill-opacity="0.2" /><rect x="2856" y="96.0" width="188" height="1" fill="white" fill-opacity="0.2" /><rect x="2856" y="36.0" width="188" height="1" fill="white" fill-opacity="0.5" /><text x="3054" y="36.0" font-size="14" fill="white" font-family="monospace" dominant-baseline="initial">53</text><rect x="3094" y="37.0" width="188" height="960.0" fill="black" /><rect x="3094" y="996.0" width="188" height="1" fill="white" fill-opacity="0.5" /><text x="3292" y="996.0" font-size="14" fill="white" font-family="monospace" dominant-baseline="initial">53</text><rect x="3094" y="936.0" width="188" height="1" fill="white" fill-opacity="0.2" /><rect x="3094" y="876.0" width="188" height="1" fill="white" fill-opacity="0.2" /><rect x="3094" y="816.0" width="188" height="1" fill="white" fill-opacity="0.2" /><rect x="3094" y="756.0" width="188" height="1" fill="white" fill-opacity="0.5" /><text x="3292" y="756.0" font-size="14" fill="white" font-family="monospace" dominant-baseline="initial">54</text><rect x="3094" y="696.0" width="188" height="1" fill="white" fill-opacity="0.2" /><rect x="3094" y="636.0" width="188" height="1" fill="white" fill-opacity="0.2" /><rect x="3094" y="576.0" width="188" height="1" fill="white" fill-opacity="0.2" /><rect x="3094" y="516.0" width="188" height="1" fill="white" fill-opacity="0.5" /><text x="3292" y="516.0" font-size="14" fill="white" font-family="monospace" dominant-baseline="initial">55</text><rect x="3094" y="456.0" width="188" height="1" fill="white" fill-opacity="0.2" /><rect x="3094" y="396.0" width="188" height="1" fill="white" fill-opacity="0.2" /><rect x="3094" y="336.0" width="188" height="1" fill="white" fill-opacity="0.2" /><rect x="3094" y="276.0" width="188" height="1" fill="white" fill-opacity="0.5" /><text x="3292" y="276.0" font-size="14" fill="white" font-family="monospace" dominant-baseline="initial">56</text><rect x="3094" y="216.0" width="188" height="1" fill="white" fill-opacity="0.2" /><rect x="3094" y="156.0" width="188" height="1" fill="white" fill-opacity="0.2" /><rect x="3094" y="96.0" width="188" height="1" fill="white" fill-opacity="0.2" /><rect x="3094" y="36.0" width="188" height="1" fill="white" fill-opacity="0.5" /><text x="3292" y="36.0" font-size="14" fill="white" font-family="monospace" dominant-baseline="initial">57</text><rect x="3094" y="276.0" width="188" height="1" fill="aqua" fill-opacity="0.75" /><text x="3094" y="272.0" font-size="14" fill="aqua" fill-opacity="0.75" font-family="monospace">Phrase C</text><rect x="3332" y="37.0" width="188" height="960.0" fill="black" /><rect x="3332" y="996.0" width="188" height="1" fill="white" fill-opacity="0.5" /><text x="3530" y="996.0" font-size="14" fill="white" font-family="monospace" dominant-baseline="initial">57</text><rect x="3332" y="936.0" width="188" height="1" fill="white" fill-opacity="0.2" /><rect x="3332" y="876.0" width="188" height="1" fill="white" fill-opacity="0.2" /><rect x="3332" y="816.0" width="188" height="1" fill="white" fill-opacity="0.2" /><rect x="3332" y="756.0" width="188" height="1" fill="white" fill-opacity="0.5" /><text x="3530" y="756.0" font-size="14" fill="white" font-family="monospace" dominant-baseline="initial">58</text><rect x="3332" y="696.0" width="188" height="1" fill="white" fill-opacity="0.2" /><rect x="3332" y="636.0" width="188" height="1" fill="white" fill-opacity="0.2" /><rect x="3332" y="576.0" width="188" height="1" fill="white" fill-opacity="0.2" /><rect x="3332" y="516.0" width="188" height="1" fill="white" fill-opacity="0.5" /><text x="3530" y="516.0" font-size="14" fill="white" font-family="monospace" dominant-baseline="initial">59</text><rect x="3332" y="456.0" width="188" height="1" fill="white" fill-opacity="0.2" /><rect x="3332" y="396.0" width="188" height="1" fill="white" fill-opacity="0.2" /><rect x="3332" y="336.0" width="188" height="1" fill="white" fill-opacity="0.2" /><rect x="3332" y="276.0" width="188" height="1" fill="white" fill-opacity="0.5" /><text x="3530" y="276.0" font-size="14" fill="white" font-family="monospace" dominant-baseline="initial">60</text><rect x="3332" y="216.0" width="188" height="1" fill="white" fill-opacity="0.2" /><rect x="3332" y="156.0" width="188" height="1" fill="white" fill-opacity="0.2" /><rect x="3332" y="96.0" width="188" height="1" fill="white" fill-opacity="0.2" /><rect x="3332" y="36.0" width="188" height="1" fill="white" fill-opacity="0.5" /><text x="3530" y="36.0" font-size="14" fill="white" font-family="monospace" dominant-baseline="initial">61</text><rect x="3570" y="37.0" width="188" height="960.0" fill="black" /><rect x="3570" y="996.0" width="188" height="1" fill="white" fill-opacity="0.5" /><text x="3768" y="996.0" font-size="14" fill="white" font-family="monospace" dominant-baseline="initial">61</text><rect x="3570" y="936.0" width="188" height="1" fill="white" fill-opacity="0.2" /><rect x="3570" y="876.0" width="188" height="1" fill="white" fill-opacity="0.2" /><rect x="3570" y="816.0" width="188" height="1" fill="white" fill-opacity="0.2" /><rect x="3570" y="756.0" width="188" height="1" fill="white" fill-opacity="0.5" /><text x="3768" y="756.0" font-size="14" fill="white" font-family="monospace" dominant-baseline="initial">62</text><rect x="3570" y="696.0" width="188" height="1" fill="white" fill-opacity="0.2" /><rect x="3570" y="636.0" width="188" height="1" fill="white" fill-opacity="0.2" /><rect x="3570" y="576.0" width="188" height="1" fill="white" fill-opacity="0.2" /><rect x="3570" y="516.0" width="188" height="1" fill="white" fill-opacity="0.5" /><text x="3768" y="516.0" font-size="14" fill="white" font-family="monospace" dominant-baseline="initial">63</text><rect x="3570" y="456.0" width="188" height="1" fill="white" fill-opacity="0.2" /><rect x="3570" y="396.0" width="188" height="1" fill="white" fill-opacity="0.2" /><rect x="3570" y="336.0" width="188" height="1" fill="white" fill-opacity="0.2" /><rect x="3570" y="276.0" width="188" height="1" fill="white" fill-opacity="0.5" /><text x="3768" y="276.0" font-size="14" fill="white" font-family="monospace" dominant-baseline="initial">64</text><rect x="3570" y="216.0" width="188" height="1" fill="white" fill-opacity="0.2" /><rect x="3570" y="156.0" width="188" height="1" fill="white" fill-opacity="0.2" /><rect x="3570" y="96.0" width="188" height="1" fill="white" fill-opacity="0.2" /><rect x="3570" y="36.0" width="188" height="1" fill="white" fill-opacity="0.5" /><text x="3768" y="36.0" font-size="14" fill="white" font-family="monospace" dominant-baseline="initial">65</text><rect x="3570" y="276.0" width="188" height="1" fill="aqua" fill-opacity="0.75" /><text x="3570" y="272.0" font-size="14" fill="aqua" fill-opacity="0.75" font-family="monospace">Special</text><rect x="3808" y="37.0" width="188" height="960.0" fill="black" /><rect x="3808" y="996.0" width="188" height="1" fill="white" fill-opacity="0.5" /><text x="4006" y="996.0" font-size="14" fill="white" font-family="monospace" dominant-baseline="initial">65</text><rect x="3808" y="936.0" width="188" height="1" fill="white" fill-opacity="0.2" /><rect x="3808" y="876.0" width="188" height="1" fill="white" fill-opacity="0.2" /><rect x="3808" y="816.0" width="188" height="1" fill="white" fill-opacity="0.2" /><rect x="3808" y="756.0" width="188" height="1" fill="white" fill-opacity="0.5" /><text x="4006" y="756.0" font-size="14" fill="white" font-family="monospace" dominant-baseline="initial">66</text><rect x="3808" y="696.0" width="188" height="1" fill="white" fill-opacity="0.2" /><rect x="3808" y="636.0" width="188" height="1" fill="white" fill-opacity="0.2" /><rect x="3808" y="576.0" width="188" height="1" fill="white" fill-opacity="0.2" /><rect x="3808" y="516.0" width="188" height="1" fill="white" fill-opacity="0.5" /><text x="4006" y="516.0" font-size="14" fill="white" font-family="monospace" dominant-baseline="initial">67</text><rect x="3808" y="456.0" width="188" height="1" fill="white" fill-opacity="0.2" /><rect x="3808" y="396.0" width="188" height="1" fill="white" fill-opacity="0.2" /><rect x="3808" y="336.0" width="188" height="1" fill="white" fill-opacity="0.2" /><rect x="3808" y="276.0" width="188" height="1" fill="white" fill-opacity="0.5" /><text x="4006" y="276.0" font-size="14" fill="white" font-family="monospace" dominant-baseline="initial">68</text><rect x="3808" y="216.0" width="188" height="1" fill="white" fill-opacity="0.2" /><rect x="3808" y="156.0" width="188" height="1" fill="white" fill-opacity="0.2" /><rect x="3808" y="96.0" width="188" height="1" fill="white" fill-opacity="0.2" /><rect x="3808" y="36.0" width="188" height="1" fill="white" fill-opacity="0.5" /><text x="4006" y="36.0" font-size="14" fill="white" font-family="monospace" dominant-baseline="initial">69</text><rect x="4046" y="37.0" width="188" height="960.0" fill="black" /><rect x="4046" y="996.0" width="188" height="1" fill="white" fill-opacity="0.5" /><text x="4244" y="996.0" font-size="14" fill="white" font-family="monospace" dominant-baseline="initial">69</text><rect x="4046" y="936.0" width="188" height="1" fill="white" fill-opacity="0.2" /><rect x="4046" y="876.0" width="188" height="1" fill="white" fill-opacity="0.2" /><rect x="4046" y="816.0" width="188" height="1" fill="white" fill-opacity="0.2" /><rect x="4046" y="756.0" width="188" height="1" fill="white" fill-opacity="0.5" /><text x="4244" y="756.0" font-size="14" fill="white" font-family="monospace" dominant-baseline="initial">70</text><rect x="4046" y="696.0" width="188" height="1" fill="white" fill-opacity="0.2" /><rect x="4046" y="636.0" width="188" height="1" fill="white" fill-opacity="0.2" /><rect x="4046" y="576.0" width="188" height="1" fill="white" fill-opacity="0.2" /><rect x="4046" y="516.0" width="188" height="1" fill="white" fill-opacity="0.5" /><text x="4244" y="516.0" font-size="14" fill="white" font-family="monospace" dominant-baseline="initial">71</text><rect x="4046" y="456.0" width="188" height="1" fill="white" fill-opacity="0.2" /><rect x="4046" y="396.0" width="188" height="1" fill="white" fill-opacity="0.2" /><rect x="4046" y="336.0" width="188" height="1" fill="white" fill-opacity="0.2" /><rect x="4046" y="276.0" width="188" height="1" fill="white" fill-opacity="0.5" /><text x="4244" y="276.0" font-size="14" fill="white" font-family="monospace" dominant-baseline="initial">72</text><rect x="4046" y="216.0" width="188" height="1" fill="white" fill-opacity="0.2" /><rect x="4046" y="156.0" width="188" height="1" fill="white" fill-opacity="0.2" /><rect x="4046" y="96.0" width="188" height="1" fill="white" fill-opacity="0.2" /><rect x="4046" y="36.0" width="188" height="1" fill="white" fill-opacity="0.5" /><text x="4244" y="36.0" font-size="14" fill="white" font-family="monospace" dominant-baseline="initial">73</text><rect x="4284" y="14.0" width="188" height="983.0" fill="black" /><rect x="4284" y="996.0" width="188" height="1" fill="white" fill-opacity="0.5" /><text x="4482" y="996.0" font-size="14" fill="white" font-family="monospace" dominant-baseline="initial">73</text></svg>