<?xml version="1.0" encoding="UTF-8"?><svg xmlns="http://www.w3.org/2000/svg" xmlns:xlink="http://www.w3.org/1999/xlink"     width="3192" height="1064.0" viewBox="0 0 3192 1064.0"><defs></defs><rect x="267.0" y="375.0" width="12.0" height="135.0" fill="#fff874" stroke="#eb9c26" /><rect x="280.0" y="375.0" width="12.0" height="135.0" fill="#ff83f4" stroke="#d002bc" /><rect x="254.0" y="525.0" width="12.0" height="150.0" fill="#80c9ff" stroke="#0b6cba" /><rect x="280.0" y="525.0" width="12.0" height="150.0" fill="#ff83f4" stroke="#d002bc" /><rect x="368.0" y="0.0" width="12.0" height="90.0" fill="#80c9ff" stroke="#0b6cba" /><rect x="381.0" y="0.0" width="12.0" height="90.0" fill="#fff874" stroke="#eb9c26" /><rect x="355.0" y="100.0" width="12.0" height="3" fill="#35df39" stroke="#03aa10" /><rect x="368.0" y="116.5" width="12.0" height="3" fill="#80c9ff" stroke="#0b6cba" /><rect x="355.0" y="133.5" width="12.0" height="3" fill="#35df39" stroke="#03aa10" /><rect x="342.0" y="150.0" width="12.0" height="3" fill="#ff3c3c" stroke="#c71f1f" /><rect x="342.0" y="166.5" width="12.0" height="3" fill="#ff3c3c" stroke="#c71f1f" /><rect x="342.0" y="183.5" width="12.0" height="3" fill="#ff3c3c" stroke="#c71f1f" /><rect x="355.0" y="200.0" width="12.0" height="3" fill="#35df39" stroke="#03aa10" /><rect x="342.0" y="216.5" width="12.0" height="3" fill="#ff3c3c" stroke="#c71f1f" /><rect x="355.0" y="233.5" width="12.0" height="3" fill="#35df39" stroke="#03aa10" /><rect x="368.0" y="250.0" width="12.0" height="3" fill="#80c9ff" stroke="#0b6cba" /><rect x="355.0" y="300.0" width="12.0" height="135.0" fill="#35df39" stroke="#03aa10" /><rect x="381.0" y="300.0" width="12.0" height="135.0" fill="#fff874" stroke="#eb9c26" /><rect x="355.0" y="450.0" width="12.0" height="150.0" fill="#35df39" stroke="#03aa10" /><rect x="368.0" y="450.0" width="12.0" height="150.0" fill="#80c9ff" stroke="#0b6cba" /><rect x="456.0" y="0.0" width="12.0" height="135.0" fill="#ff3c3c" stroke="#c71f1f" /><rect x="482.0" y="0.0" width="12.0" height="135.0" fill="#80c9ff" stroke="#0b6cba" /><rect x="469.0" y="150.0" width="12.0" height="3" fill="#35df39" stroke="#03aa10" /><rect x="482.0" y="166.5" width="12.0" height="3" fill="#80c9ff" stroke="#0b6cba" /><rect x="495.0" y="183.5" width="12.0" height="3" fill="#fff874" stroke="#eb9c26" /><rect x="482.0" y="200.0" width="12.0" height="3" fill="#80c9ff" stroke="#0b6cba" /><rect x="495.0" y="216.5" width="12.0" height="3" fill="#fff874" stroke="#eb9c26" /><rect x="482.0" y="233.5" width="12.0" height="3" fill="#80c9ff" stroke="#0b6cba" /><rect x="469.0" y="250.0" width="12.0" height="3" fill="#35df39" stroke="#03aa10" /><rect x="469.0" y="266.5" width="12.0" height="3" fill="#35df39" stroke="#03aa10" /><rect x="508.0" y="283.5" width="12.0" height="3" fill="#ff83f4" stroke="#d002bc" /><rect x="456" y="283.5" width="64" height="3" fill="#ff72e7" stroke="#7c7c7c" /><rect x="469.0" y="300.0" width="12.0" height="3" fill="#35df39" stroke="#03aa10" /><rect x="482.0" y="300.0" width="12.0" height="3" fill="#80c9ff" stroke="#0b6cba" /><rect x="456.0" y="350.0" width="12.0" height="3" fill="#ff3c3c" stroke="#c71f1f" /><rect x="482.0" y="400.0" width="12.0" height="3" fill="#80c9ff" stroke="#0b6cba" /><rect x="456.0" y="450.0" width="12.0" height="3" fill="#ff3c3c" stroke="#c71f1f" /><rect x="469.0" y="450.0" width="12.0" height="3" fill="#35df39" stroke="#03aa10" /><rect x="469.0" y="500.0" width="12.0" height="3" fill="#35df39" stroke="#03aa10" /><rect x="482.0" y="550.0" width="12.0" height="3" fill="#80c9ff" stroke="#0b6cba" /><rect x="570.0" y="0.0" width="12.0" height="3" fill="#ff3c3c" stroke="#c71f1f" /><rect x="596.0" y="0.0" width="12.0" height="3" fill="#80c9ff" stroke="#0b6cba" /><rect x="583.0" y="50.0" width="12.0" height="3" fill="#35df39" stroke="#03aa10" /><rect x="609.0" y="100.0" width="12.0" height="3" fill="#fff874" stroke="#eb9c26" /><rect x="583.0" y="150.0" width="12.0" height="3" fill="#35df39" stroke="#03aa10" /><rect x="596.0" y="150.0" width="12.0" height="3" fill="#80c9ff" stroke="#0b6cba" /><rect x="596.0" y="200.0" width="12.0" height="3" fill="#80c9ff" stroke="#0b6cba" /><rect x="609.0" y="250.0" width="12.0" height="3" fill="#fff874" stroke="#eb9c26" /><rect x="570.0" y="300.0" width="12.0" height="3" fill="#ff3c3c" stroke="#c71f1f" /><rect x="583.0" y="300.0" width="12.0" height="3" fill="#35df39" stroke="#03aa10" /><rect x="570.0" y="350.0" width="12.0" height="3" fill="#ff3c3c" stroke="#c71f1f" /><rect x="596.0" y="400.0" width="12.0" height="3" fill="#80c9ff" stroke="#0b6cba" /><rect x="583.0" y="450.0" width="12.0" height="3" fill="#35df39" stroke="#03aa10" /><rect x="596.0" y="450.0" width="12.0" height="3" fill="#80c9ff" stroke="#0b6cba" /><rect x="583.0" y="500.0" width="12.0" height="3" fill="#35df39" stroke="#03aa10" /><rect x="609.0" y="550.0" width="12.0" height="3" fill="#fff874" stroke="#eb9c26" /><rect x="697.0" y="0.0" width="12.0" height="135.0" fill="#35df39" stroke="#03aa10" /><rect x="710.0" y="0.0" width="12.0" height="135.0" fill="#80c9ff" stroke="#0b6cba" /><rect x="723.0" y="0.0" width="12.0" height="135.0" fill="#fff874" stroke="#eb9c26" /><rect x="684.0" y="150.0" width="12.0" height="135.0" fill="#ff3c3c" stroke="#c71f1f" /><rect x="710.0" y="150.0" width="12.0" height="135.0" fill="#80c9ff" stroke="#0b6cba" /><rect x="697.0" y="300.0" width="12.0" height="135.0" fill="#35df39" stroke="#03aa10" /><rect x="710.0" y="300.0" width="12.0" height="135.0" fill="#80c9ff" stroke="#0b6cba" /><rect x="723.0" y="450.0" width="12.0" height="3" fill="#fff874" stroke="#eb9c26" /><rect x="736.0" y="466.5" width="12.0" height="3" fill="#ff83f4" stroke="#d002bc" /><rect x="723.0" y="483.5" width="12.0" height="3" fill="#fff874" stroke="#eb9c26" /><rect x="710.0" y="500.0" width="12.0" height="3" fill="#80c9ff" stroke="#0b6cba" /><rect x="723.0" y="516.5" width="12.0" height="3" fill="#fff874" stroke="#eb9c26" /><rect x="710.0" y="533.5" width="12.0" height="3" fill="#80c9ff" stroke="#0b6cba" /><rect x="697.0" y="550.0" width="12.0" height="3" fill="#35df39" stroke="#03aa10" /><rect x="710.0" y="566.5" width="12.0" height="3" fill="#80c9ff" stroke="#0b6cba" /><rect x="697.0" y="583.5" width="12.0" height="3" fill="#35df39" stroke="#03aa10" /><rect x="798.0" y="0.0" width="12.0" height="3" fill="#ff3c3c" stroke="#c71f1f" /><rect x="824.0" y="50.0" width="12.0" height="3" fill="#80c9ff" stroke="#0b6cba" /><rect x="837.0" y="50.0" width="12.0" height="3" fill="#fff874" stroke="#eb9c26" /><rect x="811.0" y="125.0" width="12.0" height="3" fill="#35df39" stroke="#03aa10" /><rect x="837.0" y="150.0" width="12.0" height="90.0" fill="#fff874" stroke="#eb9c26" /><rect x="850.0" y="150.0" width="12.0" height="90.0" fill="#ff83f4" stroke="#d002bc" /><rect x="837.0" y="250.0" width="12.0" height="3" fill="#fff874" stroke="#eb9c26" /><rect x="837.0" y="262.5" width="12.0" height="3" fill="#fff874" stroke="#eb9c26" /><rect x="824.0" y="275.0" width="12.0" height="3" fill="#80c9ff" stroke="#0b6cba" /><rect x="824.0" y="287.5" width="12.0" height="3" fill="#80c9ff" stroke="#0b6cba" /><rect x="811.0" y="300.0" width="12.0" height="3" fill="#35df39" stroke="#03aa10" /><rect x="811.0" y="312.5" width="12.0" height="3" fill="#35df39" stroke="#03aa10" /><rect x="811.0" y="325.0" width="12.0" height="3" fill="#35df39" stroke="#03aa10" /><rect x="811.0" y="337.5" width="12.0" height="3" fill="#35df39" stroke="#03aa10" /><rect x="798.0" y="350.0" width="12.0" height="3" fill="#ff3c3c" stroke="#c71f1f" /><rect x="798.0" y="362.5" width="12.0" height="3" fill="#ff3c3c" stroke="#c71f1f" /><rect x="798.0" y="375.0" width="12.0" height="3" fill="#ff3c3c" stroke="#c71f1f" /><rect x="798.0" y="387.5" width="12.0" height="3" fill="#ff3c3c" stroke="#c71f1f" /><rect x="811.0" y="400.0" width="12.0" height="3" fill="#35df39" stroke="#03aa10" /><rect x="811.0" y="412.5" width="12.0" height="3" fill="#35df39" stroke="#03aa10" /><rect x="824.0" y="425.0" width="12.0" height="3" fill="#80c9ff" stroke="#0b6cba" /><rect x="824.0" y="437.5" width="12.0" height="3" fill="#80c9ff" stroke="#0b6cba" /><rect x="811.0" y="450.0" width="12.0" height="3" fill="#35df39" stroke="#03aa10" /><rect x="811.0" y="500.0" width="12.0" height="3" fill="#35df39" stroke="#03aa10" /><rect x="824.0" y="516.5" width="12.0" height="3" fill="#80c9ff" stroke="#0b6cba" /><rect x="811.0" y="533.5" width="12.0" height="3" fill="#35df39" stroke="#03aa10" /><rect x="798.0" y="550.0" width="12.0" height="3" fill="#ff3c3c" stroke="#c71f1f" /><rect x="811.0" y="566.5" width="12.0" height="3" fill="#35df39" stroke="#03aa10" /><rect x="798.0" y="583.5" width="12.0" height="3" fill="#ff3c3c" stroke="#c71f1f" /><rect x="912.0" y="0.0" width="12.0" height="3" fill="#ff3c3c" stroke="#c71f1f" /><rect x="925.0" y="0.0" width="12.0" height="3" fill="#35df39" stroke="#03aa10" /><rect x="925.0" y="50.0" width="12.0" height="3" fill="#35df39" stroke="#03aa10" /><rect x="925.0" y="66.5" width="12.0" height="3" fill="#35df39" stroke="#03aa10" /><rect x="925.0" y="83.5" width="12.0" height="3" fill="#35df39" stroke="#03aa10" /><rect x="938.0" y="100.0" width="12.0" height="3" fill="#80c9ff" stroke="#0b6cba" /><rect x="938.0" y="116.5" width="12.0" height="3" fill="#80c9ff" stroke="#0b6cba" /><rect x="938.0" y="133.5" width="12.0" height="3" fill="#80c9ff" stroke="#0b6cba" /><rect x="912.0" y="150.0" width="12.0" height="3" fill="#ff3c3c" stroke="#c71f1f" /><rect x="912.0" y="166.5" width="12.0" height="3" fill="#ff3c3c" stroke="#c71f1f" /><rect x="912.0" y="183.5" width="12.0" height="3" fill="#ff3c3c" stroke="#c71f1f" /><rect x="925.0" y="200.0" width="12.0" height="3" fill="#35df39" stroke="#03aa10" /><rect x="925.0" y="216.5" width="12.0" height="3" fill="#35df39" stroke="#03aa10" /><rect x="925.0" y="233.5" width="12.0" height="3" fill="#35df39" stroke="#03aa10" /><rect x="912.0" y="250.0" width="12.0" height="3" fill="#ff3c3c" stroke="#c71f1f" /><rect x="912.0" y="266.5" width="12.0" height="3" fill="#ff3c3c" stroke="#c71f1f" /><rect x="912.0" y="283.5" width="12.0" height="3" fill="#ff3c3c" stroke="#c71f1f" /><rect x="938.0" y="300.0" width="12.0" height="3" fill="#80c9ff" stroke="#0b6cba" /><rect x="938.0" y="316.5" width="12.0" height="3" fill="#80c9ff" stroke="#0b6cba" /><rect x="938.0" y="333.5" width="12.0" height="3" fill="#80c9ff" stroke="#0b6cba" /><rect x="912.0" y="350.0" width="12.0" height="3" fill="#ff3c3c" stroke="#c71f1f" /><rect x="912.0" y="366.5" width="12.0" height="3" fill="#ff3c3c" stroke="#c71f1f" /><rect x="925.0" y="383.5" width="12.0" height="3" fill="#35df39" stroke="#03aa10" /><rect x="925.0" y="400.0" width="12.0" height="3" fill="#35df39" stroke="#03aa10" /><rect x="938.0" y="416.5" width="12.0" height="3" fill="#80c9ff" stroke="#0b6cba" /><rect x="938.0" y="433.5" width="12.0" height="3" fill="#80c9ff" stroke="#0b6cba" /><rect x="925.0" y="450.0" width="12.0" height="3" fill="#35df39" stroke="#03aa10" /><rect x="925.0" y="466.5" width="12.0" height="3" fill="#35df39" stroke="#03aa10" /><rect x="938.0" y="483.5" width="12.0" height="3" fill="#80c9ff" stroke="#0b6cba" /><rect x="938.0" y="500.0" width="12.0" height="3" fill="#80c9ff" stroke="#0b6cba" /><rect x="951.0" y="516.5" width="12.0" height="3" fill="#fff874" stroke="#eb9c26" /><rect x="951.0" y="533.5" width="12.0" height="3" fill="#fff874" stroke="#eb9c26" /><rect x="951.0" y="550.0" width="12.0" height="3" fill="#fff874" stroke="#eb9c26" /><rect x="938.0" y="566.5" width="12.0" height="3" fill="#80c9ff" stroke="#0b6cba" /><rect x="951.0" y="583.5" width="12.0" height="3" fill="#fff874" stroke="#eb9c26" /><rect x="1078.0" y="0.0" width="12.0" height="90.0" fill="#ff83f4" stroke="#d002bc" /><rect x="1065.0" y="100.0" width="12.0" height="3" fill="#fff874" stroke="#eb9c26" /><rect x="1078.0" y="116.5" width="12.0" height="3" fill="#ff83f4" stroke="#d002bc" /><rect x="1065.0" y="133.5" width="12.0" height="3" fill="#fff874" stroke="#eb9c26" /><rect x="1052.0" y="150.0" width="12.0" height="90.0" fill="#80c9ff" stroke="#0b6cba" /><rect x="1052.0" y="250.0" width="12.0" height="3" fill="#80c9ff" stroke="#0b6cba" /><rect x="1065.0" y="266.5" width="12.0" height="3" fill="#fff874" stroke="#eb9c26" /><rect x="1052.0" y="283.5" width="12.0" height="3" fill="#80c9ff" stroke="#0b6cba" /><rect x="1039.0" y="300.0" width="12.0" height="3" fill="#35df39" stroke="#03aa10" /><rect x="1026.0" y="350.0" width="12.0" height="3" fill="#ff3c3c" stroke="#c71f1f" /><rect x="1039.0" y="366.5" width="12.0" height="3" fill="#35df39" stroke="#03aa10" /><rect x="1026.0" y="383.5" width="12.0" height="3" fill="#ff3c3c" stroke="#c71f1f" /><rect x="1078.0" y="400.0" width="12.0" height="3" fill="#ff83f4" stroke="#d002bc" /><rect x="1026" y="400.0" width="64" height="3" fill="#ff72e7" stroke="#7c7c7c" /><rect x="1026.0" y="416.5" width="12.0" height="3" fill="#ff3c3c" stroke="#c71f1f" /><rect x="1039.0" y="433.5" width="12.0" height="3" fill="#35df39" stroke="#03aa10" /><rect x="1052.0" y="450.0" width="12.0" height="3" fill="#80c9ff" stroke="#0b6cba" /><rect x="1039.0" y="466.5" width="12.0" height="3" fill="#35df39" stroke="#03aa10" /><rect x="1065.0" y="483.5" width="12.0" height="3" fill="#fff874" stroke="#eb9c26" /><rect x="1039.0" y="500.0" width="12.0" height="3" fill="#35df39" stroke="#03aa10" /><rect x="1065.0" y="516.5" width="12.0" height="3" fill="#fff874" stroke="#eb9c26" /><rect x="1039.0" y="533.5" width="12.0" height="3" fill="#35df39" stroke="#03aa10" /><rect x="1065.0" y="550.0" width="12.0" height="3" fill="#fff874" stroke="#eb9c26" /><rect x="1052.0" y="566.5" width="12.0" height="3" fill="#80c9ff" stroke="#0b6cba" /><rect x="1039.0" y="583.5" width="12.0" height="3" fill="#35df39" stroke="#03aa10" /><rect x="1166.0" y="0.0" width="12.0" height="90.0" fill="#80c9ff" stroke="#0b6cba" /><rect x="1179.0" y="0.0" width="12.0" height="90.0" fill="#fff874" stroke="#eb9c26" /><rect x="1166.0" y="100.0" width="12.0" height="3" fill="#80c9ff" stroke="#0b6cba" /><rect x="1179.0" y="116.5" width="12.0" height="3" fill="#fff874" stroke="#eb9c26" /><rect x="1166.0" y="133.5" width="12.0" height="3" fill="#80c9ff" stroke="#0b6cba" /><rect x="1153.0" y="150.0" width="12.0" height="135.0" fill="#35df39" stroke="#03aa10" /><rect x="1140.0" y="300.0" width="12.0" height="3" fill="#ff3c3c" stroke="#c71f1f" /><rect x="1140.0" y="312.5" width="12.0" height="3" fill="#ff3c3c" stroke="#c71f1f" /><rect x="1140.0" y="325.0" width="12.0" height="3" fill="#ff3c3c" stroke="#c71f1f" /><rect x="1140.0" y="337.5" width="12.0" height="3" fill="#ff3c3c" stroke="#c71f1f" /><rect x="1153.0" y="350.0" width="12.0" height="3" fill="#35df39" stroke="#03aa10" /><rect x="1153.0" y="362.5" width="12.0" height="3" fill="#35df39" stroke="#03aa10" /><rect x="1153.0" y="375.0" width="12.0" height="3" fill="#35df39" stroke="#03aa10" /><rect x="1153.0" y="387.5" width="12.0" height="3" fill="#35df39" stroke="#03aa10" /><rect x="1166.0" y="400.0" width="12.0" height="3" fill="#80c9ff" stroke="#0b6cba" /><rect x="1166.0" y="412.5" width="12.0" height="3" fill="#80c9ff" stroke="#0b6cba" /><rect x="1166.0" y="425.0" width="12.0" height="3" fill="#80c9ff" stroke="#0b6cba" /><rect x="1166.0" y="437.5" width="12.0" height="3" fill="#80c9ff" stroke="#0b6cba" /><rect x="1153.0" y="450.0" width="12.0" height="3" fill="#35df39" stroke="#03aa10" /><rect x="1153.0" y="462.5" width="12.0" height="3" fill="#35df39" stroke="#03aa10" /><rect x="1153.0" y="475.0" width="12.0" height="3" fill="#35df39" stroke="#03aa10" /><rect x="1153.0" y="487.5" width="12.0" height="3" fill="#35df39" stroke="#03aa10" /><rect x="1179.0" y="500.0" width="12.0" height="3" fill="#fff874" stroke="#eb9c26" /><rect x="1179.0" y="512.5" width="12.0" height="3" fill="#fff874" stroke="#eb9c26" /><rect x="1179.0" y="525.0" width="12.0" height="3" fill="#fff874" stroke="#eb9c26" /><rect x="1179.0" y="537.5" width="12.0" height="3" fill="#fff874" stroke="#eb9c26" /><rect x="1166.0" y="550.0" width="12.0" height="3" fill="#80c9ff" stroke="#0b6cba" /><rect x="1166.0" y="562.5" width="12.0" height="3" fill="#80c9ff" stroke="#0b6cba" /><rect x="1153.0" y="575.0" width="12.0" height="3" fill="#35df39" stroke="#03aa10" /><rect x="1153.0" y="587.5" width="12.0" height="3" fill="#35df39" stroke="#03aa10" /><rect x="1280.0" y="0.0" width="12.0" height="135.0" fill="#80c9ff" stroke="#0b6cba" /><rect x="1280.0" y="150.0" width="12.0" height="135.0" fill="#80c9ff" stroke="#0b6cba" /><rect x="1306.0" y="150.0" width="12.0" height="135.0" fill="#ff83f4" stroke="#d002bc" /><rect x="1280.0" y="300.0" width="12.0" height="90.0" fill="#80c9ff" stroke="#0b6cba" /><rect x="1293.0" y="300.0" width="12.0" height="90.0" fill="#fff874" stroke="#eb9c26" /><rect x="1267.0" y="400.0" width="12.0" height="3" fill="#35df39" stroke="#03aa10" /><rect x="1280.0" y="416.5" width="12.0" height="3" fill="#80c9ff" stroke="#0b6cba" /><rect x="1267.0" y="433.5" width="12.0" height="3" fill="#35df39" stroke="#03aa10" /><rect x="1254.0" y="450.0" width="12.0" height="3" fill="#ff3c3c" stroke="#c71f1f" /><rect x="1254.0" y="466.5" width="12.0" height="3" fill="#ff3c3c" stroke="#c71f1f" /><rect x="1254.0" y="483.5" width="12.0" height="3" fill="#ff3c3c" stroke="#c71f1f" /><rect x="1267.0" y="500.0" width="12.0" height="3" fill="#35df39" stroke="#03aa10" /><rect x="1254.0" y="516.5" width="12.0" height="3" fill="#ff3c3c" stroke="#c71f1f" /><rect x="1267.0" y="533.5" width="12.0" height="3" fill="#35df39" stroke="#03aa10" /><rect x="1280.0" y="550.0" width="12.0" height="3" fill="#80c9ff" stroke="#0b6cba" /><rect x="1381.0" y="0.0" width="12.0" height="135.0" fill="#35df39" stroke="#03aa10" /><rect x="1407.0" y="0.0" width="12.0" height="135.0" fill="#fff874" stroke="#eb9c26" /><rect x="1381.0" y="150.0" width="12.0" height="135.0" fill="#35df39" stroke="#03aa10" /><rect x="1394.0" y="150.0" width="12.0" height="135.0" fill="#80c9ff" stroke="#0b6cba" /><rect x="1368.0" y="300.0" width="12.0" height="135.0" fill="#ff3c3c" stroke="#c71f1f" /><rect x="1394.0" y="300.0" width="12.0" height="135.0" fill="#80c9ff" stroke="#0b6cba" /><rect x="1381.0" y="450.0" width="12.0" height="3" fill="#35df39" stroke="#03aa10" /><rect x="1394.0" y="466.5" width="12.0" height="3" fill="#80c9ff" stroke="#0b6cba" /><rect x="1407.0" y="483.5" width="12.0" height="3" fill="#fff874" stroke="#eb9c26" /><rect x="1394.0" y="500.0" width="12.0" height="3" fill="#80c9ff" stroke="#0b6cba" /><rect x="1407.0" y="516.5" width="12.0" height="3" fill="#fff874" stroke="#eb9c26" /><rect x="1394.0" y="533.5" width="12.0" height="3" fill="#80c9ff" stroke="#0b6cba" /><rect x="1381.0" y="550.0" width="12.0" height="3" fill="#35df39" stroke="#03aa10" /><rect x="1381.0" y="566.5" width="12.0" height="3" fill="#35df39" stroke="#03aa10" /><rect x="1420.0" y="583.5" width="12.0" height="3" fill="#ff83f4" stroke="#d002bc" /><rect x="1368" y="583.5" width="64" height="3" fill="#ff72e7" stroke="#7c7c7c" /><rect x="1495.0" y="0.0" width="12.0" height="3" fill="#35df39" stroke="#03aa10" /><rect x="1508.0" y="0.0" width="12.0" height="3" fill="#80c9ff" stroke="#0b6cba" /><rect x="1482.0" y="50.0" width="12.0" height="3" fill="#ff3c3c" stroke="#c71f1f" /><rect x="1508.0" y="100.0" width="12.0" height="3" fill="#80c9ff" stroke="#0b6cba" /><rect x="1482.0" y="150.0" width="12.0" height="3" fill="#ff3c3c" stroke="#c71f1f" /><rect x="1495.0" y="150.0" width="12.0" height="3" fill="#35df39" stroke="#03aa10" /><rect x="1495.0" y="200.0" width="12.0" height="3" fill="#35df39" stroke="#03aa10" /><rect x="1508.0" y="250.0" width="12.0" height="3" fill="#80c9ff" stroke="#0b6cba" /><rect x="1482.0" y="300.0" width="12.0" height="3" fill="#ff3c3c" stroke="#c71f1f" /><rect x="1508.0" y="300.0" width="12.0" height="3" fill="#80c9ff" stroke="#0b6cba" /><rect x="1495.0" y="350.0" width="12.0" height="3" fill="#35df39" stroke="#03aa10" /><rect x="1521.0" y="400.0" width="12.0" height="3" fill="#fff874" stroke="#eb9c26" /><rect x="1495.0" y="450.0" width="12.0" height="3" fill="#35df39" stroke="#03aa10" /><rect x="1508.0" y="450.0" width="12.0" height="3" fill="#80c9ff" stroke="#0b6cba" /><rect x="1508.0" y="500.0" width="12.0" height="3" fill="#80c9ff" stroke="#0b6cba" /><rect x="1521.0" y="550.0" width="12.0" height="3" fill="#fff874" stroke="#eb9c26" /><rect x="1596.0" y="0.0" width="12.0" height="3" fill="#ff3c3c" stroke="#c71f1f" /><rect x="1609.0" y="0.0" width="12.0" height="3" fill="#35df39" stroke="#03aa10" /><rect x="1596.0" y="50.0" width="12.0" height="3" fill="#ff3c3c" stroke="#c71f1f" /><rect x="1622.0" y="100.0" width="12.0" height="3" fill="#80c9ff" stroke="#0b6cba" /><rect x="1609.0" y="150.0" width="12.0" height="3" fill="#35df39" stroke="#03aa10" /><rect x="1622.0" y="150.0" width="12.0" height="3" fill="#80c9ff" stroke="#0b6cba" /><rect x="1609.0" y="200.0" width="12.0" height="3" fill="#35df39" stroke="#03aa10" /><rect x="1635.0" y="250.0" width="12.0" height="3" fill="#fff874" stroke="#eb9c26" /><rect x="1609.0" y="300.0" width="12.0" height="135.0" fill="#35df39" stroke="#03aa10" /><rect x="1622.0" y="300.0" width="12.0" height="135.0" fill="#80c9ff" stroke="#0b6cba" /><rect x="1635.0" y="300.0" width="12.0" height="135.0" fill="#fff874" stroke="#eb9c26" /><rect x="1596.0" y="450.0" width="12.0" height="150.0" fill="#ff3c3c" stroke="#c71f1f" /><rect x="1622.0" y="450.0" width="12.0" height="150.0" fill="#80c9ff" stroke="#0b6cba" /><rect x="1723.0" y="0.0" width="12.0" height="135.0" fill="#35df39" stroke="#03aa10" /><rect x="1736.0" y="0.0" width="12.0" height="135.0" fill="#80c9ff" stroke="#0b6cba" /><rect x="1710.0" y="150.0" width="12.0" height="135.0" fill="#ff3c3c" stroke="#c71f1f" /><rect x="1723.0" y="150.0" width="12.0" height="135.0" fill="#35df39" stroke="#03aa10" /><rect x="1736.0" y="150.0" width="12.0" height="135.0" fill="#80c9ff" stroke="#0b6cba" /><rect x="1710.0" y="300.0" width="12.0" height="3" fill="#ff3c3c" stroke="#c71f1f" /><rect x="1723.0" y="300.0" width="12.0" height="3" fill="#35df39" stroke="#03aa10" /><rect x="1710.0" y="316.5" width="12.0" height="3" fill="#ff3c3c" stroke="#c71f1f" /><rect x="1723.0" y="316.5" width="12.0" height="3" fill="#35df39" stroke="#03aa10" /><rect x="1710.0" y="333.5" width="12.0" height="3" fill="#ff3c3c" stroke="#c71f1f" /><rect x="1723.0" y="333.5" width="12.0" height="3" fill="#35df39" stroke="#03aa10" /><rect x="1736.0" y="350.0" width="12.0" height="3" fill="#80c9ff" stroke="#0b6cba" /><rect x="1723.0" y="366.5" width="12.0" height="3" fill="#35df39" stroke="#03aa10" /><rect x="1710.0" y="383.5" width="12.0" height="3" fill="#ff3c3c" stroke="#c71f1f" /><rect x="1723.0" y="400.0" width="12.0" height="3" fill="#35df39" stroke="#03aa10" /><rect x="1736.0" y="400.0" width="12.0" height="3" fill="#80c9ff" stroke="#0b6cba" /><rect x="1710.0" y="450.0" width="12.0" height="3" fill="#ff3c3c" stroke="#c71f1f" /><rect x="1723.0" y="450.0" width="12.0" height="3" fill="#35df39" stroke="#03aa10" /><rect x="1710.0" y="466.5" width="12.0" height="3" fill="#ff3c3c" stroke="#c71f1f" /><rect x="1723.0" y="466.5" width="12.0" height="3" fill="#35df39" stroke="#03aa10" /><rect x="1710.0" y="483.5" width="12.0" height="3" fill="#ff3c3c" stroke="#c71f1f" /><rect x="1723.0" y="483.5" width="12.0" height="3" fill="#35df39" stroke="#03aa10" /><rect x="1736.0" y="500.0" width="12.0" height="3" fill="#80c9ff" stroke="#0b6cba" /><rect x="1723.0" y="516.5" width="12.0" height="3" fill="#35df39" stroke="#03aa10" /><rect x="1710.0" y="533.5" width="12.0" height="3" fill="#ff3c3c" stroke="#c71f1f" /><rect x="1723.0" y="550.0" width="12.0" height="3" fill="#35df39" stroke="#03aa10" /><rect x="1736.0" y="550.0" width="12.0" height="3" fill="#80c9ff" stroke="#0b6cba" /><rect x="1824.0" y="0.0" width="12.0" height="3" fill="#ff3c3c" stroke="#c71f1f" /><rect x="1837.0" y="0.0" width="12.0" height="3" fill="#35df39" stroke="#03aa10" /><rect x="1824.0" y="16.5" width="12.0" height="3" fill="#ff3c3c" stroke="#c71f1f" /><rect x="1837.0" y="16.5" width="12.0" height="3" fill="#35df39" stroke="#03aa10" /><rect x="1824.0" y="33.5" width="12.0" height="3" fill="#ff3c3c" stroke="#c71f1f" /><rect x="1837.0" y="33.5" width="12.0" height="3" fill="#35df39" stroke="#03aa10" /><rect x="1850.0" y="50.0" width="12.0" height="3" fill="#80c9ff" stroke="#0b6cba" /><rect x="1837.0" y="66.5" width="12.0" height="3" fill="#35df39" stroke="#03aa10" /><rect x="1824.0" y="83.5" width="12.0" height="3" fill="#ff3c3c" stroke="#c71f1f" /><rect x="1824.0" y="100.0" width="12.0" height="3" fill="#ff3c3c" stroke="#c71f1f" /><rect x="1837.0" y="100.0" width="12.0" height="3" fill="#35df39" stroke="#03aa10" /><rect x="1824.0" y="150.0" width="12.0" height="3" fill="#ff3c3c" stroke="#c71f1f" /><rect x="1837.0" y="166.5" width="12.0" height="3" fill="#35df39" stroke="#03aa10" /><rect x="1850.0" y="183.5" width="12.0" height="3" fill="#80c9ff" stroke="#0b6cba" /><rect x="1824.0" y="200.0" width="12.0" height="3" fill="#ff3c3c" stroke="#c71f1f" /><rect x="1850.0" y="216.5" width="12.0" height="3" fill="#80c9ff" stroke="#0b6cba" /><rect x="1837.0" y="233.5" width="12.0" height="3" fill="#35df39" stroke="#03aa10" /><rect x="1850.0" y="250.0" width="12.0" height="3" fill="#80c9ff" stroke="#0b6cba" /><rect x="1837.0" y="266.5" width="12.0" height="3" fill="#35df39" stroke="#03aa10" /><rect x="1824.0" y="283.5" width="12.0" height="3" fill="#ff3c3c" stroke="#c71f1f" /><rect x="1824.0" y="300.0" width="12.0" height="3" fill="#ff3c3c" stroke="#c71f1f" /><rect x="1837.0" y="300.0" width="12.0" height="3" fill="#35df39" stroke="#03aa10" /><rect x="1824.0" y="350.0" width="12.0" height="3" fill="#ff3c3c" stroke="#c71f1f" /><rect x="1824.0" y="362.5" width="12.0" height="3" fill="#ff3c3c" stroke="#c71f1f" /><rect x="1824.0" y="375.0" width="12.0" height="3" fill="#ff3c3c" stroke="#c71f1f" /><rect x="1824.0" y="387.5" width="12.0" height="3" fill="#ff3c3c" stroke="#c71f1f" /><rect x="1837.0" y="400.0" width="12.0" height="3" fill="#35df39" stroke="#03aa10" /><rect x="1837.0" y="412.5" width="12.0" height="3" fill="#35df39" stroke="#03aa10" /><rect x="1837.0" y="425.0" width="12.0" height="3" fill="#35df39" stroke="#03aa10" /><rect x="1837.0" y="437.5" width="12.0" height="3" fill="#35df39" stroke="#03aa10" /><rect x="1824.0" y="450.0" width="12.0" height="3" fill="#ff3c3c" stroke="#c71f1f" /><rect x="1824.0" y="462.5" width="12.0" height="3" fill="#ff3c3c" stroke="#c71f1f" /><rect x="1824.0" y="475.0" width="12.0" height="3" fill="#ff3c3c" stroke="#c71f1f" /><rect x="1824.0" y="487.5" width="12.0" height="3" fill="#ff3c3c" stroke="#c71f1f" /><rect x="1850.0" y="500.0" width="12.0" height="3" fill="#80c9ff" stroke="#0b6cba" /><rect x="1850.0" y="512.5" width="12.0" height="3" fill="#80c9ff" stroke="#0b6cba" /><rect x="1850.0" y="525.0" width="12.0" height="3" fill="#80c9ff" stroke="#0b6cba" /><rect x="1850.0" y="537.5" width="12.0" height="3" fill="#80c9ff" stroke="#0b6cba" /><rect x="1837.0" y="550.0" width="12.0" height="3" fill="#35df39" stroke="#03aa10" /><rect x="1837.0" y="562.5" width="12.0" height="3" fill="#35df39" stroke="#03aa10" /><rect x="1837.0" y="575.0" width="12.0" height="3" fill="#35df39" stroke="#03aa10" /><rect x="1837.0" y="587.5" width="12.0" height="3" fill="#35df39" stroke="#03aa10" /><rect x="1964.0" y="0.0" width="12.0" height="3" fill="#80c9ff" stroke="#0b6cba" /><rect x="1964.0" y="12.5" width="12.0" height="3" fill="#80c9ff" stroke="#0b6cba" /><rect x="1964.0" y="25.0" width="12.0" height="3" fill="#80c9ff" stroke="#0b6cba" /><rect x="1964.0" y="37.5" width="12.0" height="3" fill="#80c9ff" stroke="#0b6cba" /><rect x="1977.0" y="50.0" width="12.0" height="3" fill="#fff874" stroke="#eb9c26" /><rect x="1977.0" y="62.5" width="12.0" height="3" fill="#fff874" stroke="#eb9c26" /><rect x="1977.0" y="75.0" width="12.0" height="3" fill="#fff874" stroke="#eb9c26" /><rect x="1977.0" y="87.5" width="12.0" height="3" fill="#fff874" stroke="#eb9c26" /><rect x="1964.0" y="100.0" width="12.0" height="3" fill="#80c9ff" stroke="#0b6cba" /><rect x="1964.0" y="112.5" width="12.0" height="3" fill="#80c9ff" stroke="#0b6cba" /><rect x="1951.0" y="125.0" width="12.0" height="3" fill="#35df39" stroke="#03aa10" /><rect x="1951.0" y="137.5" width="12.0" height="3" fill="#35df39" stroke="#03aa10" /><rect x="1964.0" y="150.0" width="12.0" height="3" fill="#80c9ff" stroke="#0b6cba" /><rect x="1977.0" y="200.0" width="12.0" height="90.0" fill="#fff874" stroke="#eb9c26" /><rect x="1990.0" y="200.0" width="12.0" height="90.0" fill="#ff83f4" stroke="#d002bc" /><rect x="1951.0" y="300.0" width="12.0" height="3" fill="#35df39" stroke="#03aa10" /><rect x="1964.0" y="300.0" width="12.0" height="3" fill="#80c9ff" stroke="#0b6cba" /><rect x="1951.0" y="333.5" width="12.0" height="3" fill="#35df39" stroke="#03aa10" /><rect x="1964.0" y="333.5" width="12.0" height="3" fill="#80c9ff" stroke="#0b6cba" /><rect x="1977.0" y="350.0" width="12.0" height="3" fill="#fff874" stroke="#eb9c26" /><rect x="1964.0" y="366.5" width="12.0" height="3" fill="#80c9ff" stroke="#0b6cba" /><rect x="1951.0" y="383.5" width="12.0" height="3" fill="#35df39" stroke="#03aa10" /><rect x="1964.0" y="400.0" width="12.0" height="3" fill="#80c9ff" stroke="#0b6cba" /><rect x="1964.0" y="416.5" width="12.0" height="3" fill="#80c9ff" stroke="#0b6cba" /><rect x="1977.0" y="433.5" width="12.0" height="3" fill="#fff874" stroke="#eb9c26" /><rect x="1951.0" y="450.0" width="12.0" height="3" fill="#35df39" stroke="#03aa10" /><rect x="1951.0" y="483.5" width="12.0" height="3" fill="#35df39" stroke="#03aa10" /><rect x="1964.0" y="500.0" width="12.0" height="3" fill="#80c9ff" stroke="#0b6cba" /><rect x="1951.0" y="533.5" width="12.0" height="3" fill="#35df39" stroke="#03aa10" /><rect x="1977.0" y="550.0" width="12.0" height="3" fill="#fff874" stroke="#eb9c26" /><rect x="2052.0" y="0.0" width="12.0" height="3" fill="#ff3c3c" stroke="#c71f1f" /><rect x="2065.0" y="0.0" width="12.0" height="3" fill="#35df39" stroke="#03aa10" /><rect x="2052.0" y="33.5" width="12.0" height="3" fill="#ff3c3c" stroke="#c71f1f" /><rect x="2065.0" y="33.5" width="12.0" height="3" fill="#35df39" stroke="#03aa10" /><rect x="2078.0" y="50.0" width="12.0" height="3" fill="#80c9ff" stroke="#0b6cba" /><rect x="2065.0" y="66.5" width="12.0" height="3" fill="#35df39" stroke="#03aa10" /><rect x="2052.0" y="83.5" width="12.0" height="3" fill="#ff3c3c" stroke="#c71f1f" /><rect x="2065.0" y="100.0" width="12.0" height="3" fill="#35df39" stroke="#03aa10" /><rect x="2065.0" y="116.5" width="12.0" height="3" fill="#35df39" stroke="#03aa10" /><rect x="2078.0" y="133.5" width="12.0" height="3" fill="#80c9ff" stroke="#0b6cba" /><rect x="2078.0" y="150.0" width="12.0" height="3" fill="#80c9ff" stroke="#0b6cba" /><rect x="2091.0" y="150.0" width="12.0" height="3" fill="#fff874" stroke="#eb9c26" /><rect x="2065.0" y="200.0" width="12.0" height="3" fill="#35df39" stroke="#03aa10" /><rect x="2078.0" y="200.0" width="12.0" height="3" fill="#80c9ff" stroke="#0b6cba" /><rect x="2052.0" y="250.0" width="12.0" height="3" fill="#ff3c3c" stroke="#c71f1f" /><rect x="2065.0" y="250.0" width="12.0" height="3" fill="#35df39" stroke="#03aa10" /><rect x="2052.0" y="300.0" width="12.0" height="3" fill="#ff3c3c" stroke="#c71f1f" /><rect x="2065.0" y="300.0" width="12.0" height="3" fill="#35df39" stroke="#03aa10" /><rect x="2078.0" y="300.0" width="12.0" height="3" fill="#80c9ff" stroke="#0b6cba" /><rect x="2052.0" y="350.0" width="12.0" height="3" fill="#ff3c3c" stroke="#c71f1f" /><rect x="2052.0" y="362.5" width="12.0" height="3" fill="#ff3c3c" stroke="#c71f1f" /><rect x="2052.0" y="375.0" width="12.0" height="3" fill="#ff3c3c" stroke="#c71f1f" /><rect x="2052.0" y="387.5" width="12.0" height="3" fill="#ff3c3c" stroke="#c71f1f" /><rect x="2065.0" y="400.0" width="12.0" height="3" fill="#35df39" stroke="#03aa10" /><rect x="2065.0" y="412.5" width="12.0" height="3" fill="#35df39" stroke="#03aa10" /><rect x="2078.0" y="425.0" width="12.0" height="3" fill="#80c9ff" stroke="#0b6cba" /><rect x="2078.0" y="437.5" width="12.0" height="3" fill="#80c9ff" stroke="#0b6cba" /><rect x="2091.0" y="450.0" width="12.0" height="3" fill="#fff874" stroke="#eb9c26" /><rect x="2091.0" y="462.5" width="12.0" height="3" fill="#fff874" stroke="#eb9c26" /><rect x="2091.0" y="475.0" width="12.0" height="3" fill="#fff874" stroke="#eb9c26" /><rect x="2091.0" y="487.5" width="12.0" height="3" fill="#fff874" stroke="#eb9c26" /><rect x="2078.0" y="500.0" width="12.0" height="3" fill="#80c9ff" stroke="#0b6cba" /><rect x="2078.0" y="512.5" width="12.0" height="3" fill="#80c9ff" stroke="#0b6cba" /><rect x="2078.0" y="525.0" width="12.0" height="3" fill="#80c9ff" stroke="#0b6cba" /><rect x="2078.0" y="537.5" width="12.0" height="3" fill="#80c9ff" stroke="#0b6cba" /><rect x="2065.0" y="550.0" width="12.0" height="3" fill="#35df39" stroke="#03aa10" /><rect x="2065.0" y="562.5" width="12.0" height="3" fill="#35df39" stroke="#03aa10" /><rect x="2065.0" y="575.0" width="12.0" height="3" fill="#35df39" stroke="#03aa10" /><rect x="2065.0" y="587.5" width="12.0" height="3" fill="#35df39" stroke="#03aa10" /><rect x="2192.0" y="0.0" width="12.0" height="3" fill="#80c9ff" stroke="#0b6cba" /><rect x="2166.0" y="25.0" width="12.0" height="3" fill="#ff3c3c" stroke="#c71f1f" /><rect x="2166.0" y="50.0" width="12.0" height="3" fill="#ff3c3c" stroke="#c71f1f" /><rect x="2179.0" y="50.0" width="12.0" height="3" fill="#35df39" stroke="#03aa10" /><rect x="2179.0" y="75.0" width="12.0" height="3" fill="#35df39" stroke="#03aa10" /><rect x="2179.0" y="100.0" width="12.0" height="3" fill="#35df39" stroke="#03aa10" /><rect x="2192.0" y="100.0" width="12.0" height="3" fill="#80c9ff" stroke="#0b6cba" /><rect x="2192.0" y="125.0" width="12.0" height="3" fill="#80c9ff" stroke="#0b6cba" /><rect x="2192.0" y="150.0" width="12.0" height="3" fill="#80c9ff" stroke="#0b6cba" /><rect x="2205.0" y="150.0" width="12.0" height="3" fill="#fff874" stroke="#eb9c26" /><rect x="2192.0" y="200.0" width="12.0" height="90.0" fill="#80c9ff" stroke="#0b6cba" /><rect x="2218.0" y="200.0" width="12.0" height="90.0" fill="#ff83f4" stroke="#d002bc" /><rect x="2166.0" y="300.0" width="12.0" height="3" fill="#ff3c3c" stroke="#c71f1f" /><rect x="2179.0" y="300.0" width="12.0" height="3" fill="#35df39" stroke="#03aa10" /><rect x="2166.0" y="333.5" width="12.0" height="3" fill="#ff3c3c" stroke="#c71f1f" /><rect x="2179.0" y="333.5" width="12.0" height="3" fill="#35df39" stroke="#03aa10" /><rect x="2192.0" y="350.0" width="12.0" height="3" fill="#80c9ff" stroke="#0b6cba" /><rect x="2179.0" y="366.5" width="12.0" height="3" fill="#35df39" stroke="#03aa10" /><rect x="2166.0" y="383.5" width="12.0" height="3" fill="#ff3c3c" stroke="#c71f1f" /><rect x="2179.0" y="400.0" width="12.0" height="3" fill="#35df39" stroke="#03aa10" /><rect x="2179.0" y="416.5" width="12.0" height="3" fill="#35df39" stroke="#03aa10" /><rect x="2192.0" y="433.5" width="12.0" height="3" fill="#80c9ff" stroke="#0b6cba" /><rect x="2205.0" y="450.0" width="12.0" height="3" fill="#fff874" stroke="#eb9c26" /><rect x="2205.0" y="466.5" width="12.0" height="3" fill="#fff874" stroke="#eb9c26" /><rect x="2192.0" y="483.5" width="12.0" height="3" fill="#80c9ff" stroke="#0b6cba" /><rect x="2205.0" y="500.0" width="12.0" height="3" fill="#fff874" stroke="#eb9c26" /><rect x="2205.0" y="516.5" width="12.0" height="3" fill="#fff874" stroke="#eb9c26" /><rect x="2218.0" y="533.5" width="12.0" height="3" fill="#ff83f4" stroke="#d002bc" /><rect x="2205.0" y="550.0" width="12.0" height="3" fill="#fff874" stroke="#eb9c26" /><rect x="2280.0" y="0.0" width="12.0" height="3" fill="#ff3c3c" stroke="#c71f1f" /><rect x="2306.0" y="0.0" width="12.0" height="3" fill="#80c9ff" stroke="#0b6cba" /><rect x="2280.0" y="33.5" width="12.0" height="3" fill="#ff3c3c" stroke="#c71f1f" /><rect x="2306.0" y="33.5" width="12.0" height="3" fill="#80c9ff" stroke="#0b6cba" /><rect x="2306.0" y="50.0" width="12.0" height="3" fill="#80c9ff" stroke="#0b6cba" /><rect x="2293.0" y="66.5" width="12.0" height="3" fill="#35df39" stroke="#03aa10" /><rect x="2280.0" y="83.5" width="12.0" height="3" fill="#ff3c3c" stroke="#c71f1f" /><rect x="2293.0" y="100.0" width="12.0" height="3" fill="#35df39" stroke="#03aa10" /><rect x="2293.0" y="116.5" width="12.0" height="3" fill="#35df39" stroke="#03aa10" /><rect x="2306.0" y="133.5" width="12.0" height="3" fill="#80c9ff" stroke="#0b6cba" /><rect x="2319.0" y="150.0" width="12.0" height="3" fill="#fff874" stroke="#eb9c26" /><rect x="2319.0" y="166.5" width="12.0" height="3" fill="#fff874" stroke="#eb9c26" /><rect x="2306.0" y="183.5" width="12.0" height="3" fill="#80c9ff" stroke="#0b6cba" /><rect x="2293.0" y="200.0" width="12.0" height="3" fill="#35df39" stroke="#03aa10" /><rect x="2306.0" y="216.5" width="12.0" height="3" fill="#80c9ff" stroke="#0b6cba" /><rect x="2319.0" y="233.5" width="12.0" height="3" fill="#fff874" stroke="#eb9c26" /><rect x="2306.0" y="250.0" width="12.0" height="3" fill="#80c9ff" stroke="#0b6cba" /><rect x="2293.0" y="300.0" width="12.0" height="3" fill="#35df39" stroke="#03aa10" /><rect x="2306.0" y="300.0" width="12.0" height="3" fill="#80c9ff" stroke="#0b6cba" /><rect x="2280.0" y="350.0" width="12.0" height="3" fill="#ff3c3c" stroke="#c71f1f" /><rect x="2280.0" y="383.5" width="12.0" height="3" fill="#ff3c3c" stroke="#c71f1f" /><rect x="2280.0" y="400.0" width="12.0" height="3" fill="#ff3c3c" stroke="#c71f1f" /><rect x="2280.0" y="433.5" width="12.0" height="3" fill="#ff3c3c" stroke="#c71f1f" /><rect x="2280.0" y="450.0" width="12.0" height="3" fill="#ff3c3c" stroke="#c71f1f" /><rect x="2293.0" y="450.0" width="12.0" height="3" fill="#35df39" stroke="#03aa10" /><rect x="2280.0" y="500.0" width="12.0" height="3" fill="#ff3c3c" stroke="#c71f1f" /><rect x="2280.0" y="533.5" width="12.0" height="3" fill="#ff3c3c" stroke="#c71f1f" /><rect x="2280.0" y="550.0" width="12.0" height="3" fill="#ff3c3c" stroke="#c71f1f" /><rect x="2280.0" y="583.5" width="12.0" height="3" fill="#ff3c3c" stroke="#c71f1f" /><rect x="2394.0" y="0.0" width="12.0" height="3" fill="#ff3c3c" stroke="#c71f1f" /><rect x="2407.0" y="0.0" width="12.0" height="3" fill="#35df39" stroke="#03aa10" /><rect x="2420.0" y="0.0" width="12.0" height="3" fill="#80c9ff" stroke="#0b6cba" /><rect x="2394.0" y="50.0" width="12.0" height="3" fill="#ff3c3c" stroke="#c71f1f" /><rect x="2394.0" y="83.5" width="12.0" height="3" fill="#ff3c3c" stroke="#c71f1f" /><rect x="2394.0" y="100.0" width="12.0" height="3" fill="#ff3c3c" stroke="#c71f1f" /><rect x="2394.0" y="133.5" width="12.0" height="3" fill="#ff3c3c" stroke="#c71f1f" /><rect x="2394.0" y="150.0" width="12.0" height="3" fill="#ff3c3c" stroke="#c71f1f" /><rect x="2394.0" y="183.5" width="12.0" height="3" fill="#ff3c3c" stroke="#c71f1f" /><rect x="2394.0" y="200.0" width="12.0" height="3" fill="#ff3c3c" stroke="#c71f1f" /><rect x="2394.0" y="233.5" width="12.0" height="3" fill="#ff3c3c" stroke="#c71f1f" /><rect x="2394.0" y="250.0" width="12.0" height="3" fill="#ff3c3c" stroke="#c71f1f" /><rect x="2407.0" y="250.0" width="12.0" height="3" fill="#35df39" stroke="#03aa10" /><rect x="2394.0" y="300.0" width="12.0" height="135.0" fill="#ff3c3c" stroke="#c71f1f" /><rect x="2420.0" y="300.0" width="12.0" height="135.0" fill="#80c9ff" stroke="#0b6cba" /><rect x="2394.0" y="450.0" width="12.0" height="150.0" fill="#ff3c3c" stroke="#c71f1f" /><rect x="2407.0" y="450.0" width="12.0" height="150.0" fill="#35df39" stroke="#03aa10" /><rect x="2508.0" y="0.0" width="12.0" height="600.0" fill="#ff3c3c" stroke="#c71f1f" /><rect x="2521.0" y="0.0" width="12.0" height="600.0" fill="#35df39" stroke="#03aa10" /><rect x="2534.0" y="0.0" width="12.0" height="600.0" fill="#80c9ff" stroke="#0b6cba" /><rect x="2902.0" y="0.0" width="12.0" height="3" fill="#ff83f4" stroke="#d002bc" /><rect x="2850" y="0.0" width="64" height="3" fill="#ff72e7" stroke="#7c7c7c" /><rect x="2850.0" y="150.0" width="12.0" height="3" fill="#ff3c3c" stroke="#c71f1f" /><rect x="2863.0" y="150.0" width="12.0" height="3" fill="#35df39" stroke="#03aa10" /><rect x="2850.0" y="200.0" width="12.0" height="3" fill="#ff3c3c" stroke="#c71f1f" /><rect x="2850.0" y="233.5" width="12.0" height="3" fill="#ff3c3c" stroke="#c71f1f" /><rect x="2850.0" y="250.0" width="12.0" height="3" fill="#ff3c3c" stroke="#c71f1f" /><rect x="2850.0" y="283.5" width="12.0" height="3" fill="#ff3c3c" stroke="#c71f1f" /><rect x="2850.0" y="300.0" width="12.0" height="3" fill="#ff3c3c" stroke="#c71f1f" /><rect x="2863.0" y="300.0" width="12.0" height="3" fill="#35df39" stroke="#03aa10" /><rect x="2850.0" y="333.5" width="12.0" height="3" fill="#ff3c3c" stroke="#c71f1f" /><rect x="2863.0" y="333.5" width="12.0" height="3" fill="#35df39" stroke="#03aa10" /><rect x="2850.0" y="350.0" width="12.0" height="3" fill="#ff3c3c" stroke="#c71f1f" /><rect x="2863.0" y="366.5" width="12.0" height="3" fill="#35df39" stroke="#03aa10" /><rect x="2876.0" y="383.5" width="12.0" height="3" fill="#80c9ff" stroke="#0b6cba" /><rect x="2889.0" y="400.0" width="12.0" height="3" fill="#fff874" stroke="#eb9c26" /><rect x="2876.0" y="416.5" width="12.0" height="3" fill="#80c9ff" stroke="#0b6cba" /><rect x="2863.0" y="433.5" width="12.0" height="3" fill="#35df39" stroke="#03aa10" /><rect x="2850.0" y="450.0" width="12.0" height="3" fill="#ff3c3c" stroke="#c71f1f" /><rect x="2863.0" y="450.0" width="12.0" height="3" fill="#35df39" stroke="#03aa10" /><rect x="2850.0" y="500.0" width="12.0" height="3" fill="#ff3c3c" stroke="#c71f1f" /><rect x="2850.0" y="533.5" width="12.0" height="3" fill="#ff3c3c" stroke="#c71f1f" /><rect x="2850.0" y="550.0" width="12.0" height="3" fill="#ff3c3c" stroke="#c71f1f" /><rect x="2850.0" y="583.5" width="12.0" height="3" fill="#ff3c3c" stroke="#c71f1f" /><rect x="2964.0" y="0.0" width="12.0" height="3" fill="#ff3c3c" stroke="#c71f1f" /><rect x="2977.0" y="0.0" width="12.0" height="3" fill="#35df39" stroke="#03aa10" /><rect x="2964.0" y="33.5" width="12.0" height="3" fill="#ff3c3c" stroke="#c71f1f" /><rect x="2977.0" y="33.5" width="12.0" height="3" fill="#35df39" stroke="#03aa10" /><rect x="2964.0" y="50.0" width="12.0" height="3" fill="#ff3c3c" stroke="#c71f1f" /><rect x="2977.0" y="66.5" width="12.0" height="3" fill="#35df39" stroke="#03aa10" /><rect x="2990.0" y="83.5" width="12.0" height="3" fill="#80c9ff" stroke="#0b6cba" /><rect x="3003.0" y="100.0" width="12.0" height="3" fill="#fff874" stroke="#eb9c26" /><rect x="2990.0" y="116.5" width="12.0" height="3" fill="#80c9ff" stroke="#0b6cba" /><rect x="2977.0" y="133.5" width="12.0" height="3" fill="#35df39" stroke="#03aa10" /><rect x="2964.0" y="150.0" width="12.0" height="3" fill="#ff3c3c" stroke="#c71f1f" /><rect x="2977.0" y="150.0" width="12.0" height="3" fill="#35df39" stroke="#03aa10" /><rect x="2990.0" y="350.0" width="12.0" height="3" fill="#80c9ff" stroke="#0b6cba" /><rect x="3003.0" y="350.0" width="12.0" height="3" fill="#fff874" stroke="#eb9c26" /><rect x="2977.0" y="400.0" width="12.0" height="3" fill="#35df39" stroke="#03aa10" /><rect x="2990.0" y="400.0" width="12.0" height="3" fill="#80c9ff" stroke="#0b6cba" /><rect x="2964.0" y="450.0" width="12.0" height="3" fill="#ff3c3c" stroke="#c71f1f" /><rect x="2977.0" y="450.0" width="12.0" height="3" fill="#35df39" stroke="#03aa10" /></svg>