<?xml version="1.0" encoding="UTF-8"?><svg xmlns="http://www.w3.org/2000/svg" xmlns:xlink="http://www.w3.org/1999/xlink"     width="1596" height="1311.5" viewBox="0 0 1596 1311.5"><defs></defs><rect x="13.0" y="324.5" width="12.0" height="3" fill="#35df39" stroke="#03aa10" /><rect x="13.0" y="365.0" width="12.0" height="3" fill="#35df39" stroke="#03aa10" /><rect x="13.0" y="405.5" width="12.0" height="3" fill="#35df39" stroke="#03aa10" /><rect x="13.0" y="473.0" width="12.0" height="3" fill="#35df39" stroke="#03aa10" /><rect x="13.0" y="513.5" width="12.0" height="3" fill="#35df39" stroke="#03aa10" /><rect x="13.0" y="554.0" width="12.0" height="3" fill="#35df39" stroke="#03aa10" /><rect x="13.0" y="567.5" width="12.0" height="3" fill="#35df39" stroke="#03aa10" /><rect x="13.0" y="648.5" width="12.0" height="3" fill="#35df39" stroke="#03aa10" /><rect x="13.0" y="689.0" width="12.0" height="3" fill="#35df39" stroke="#03aa10" /><rect x="13.0" y="729.5" width="12.0" height="3" fill="#35df39" stroke="#03aa10" /><rect x="13.0" y="797.5" width="12.0" height="3" fill="#35df39" stroke="#03aa10" /><rect x="13.0" y="838.0" width="12.0" height="3" fill="#35df39" stroke="#03aa10" /><rect x="13.0" y="878.5" width="12.0" height="3" fill="#35df39" stroke="#03aa10" /><rect x="13.0" y="892.0" width="12.0" height="3" fill="#35df39" stroke="#03aa10" /><rect x="39.0" y="932.5" width="12.0" height="3" fill="#fff874" stroke="#eb9c26" /><rect x="52.0" y="973.0" width="12.0" height="3" fill="#ff83f4" stroke="#d002bc" /><rect x="52.0" y="1013.5" width="12.0" height="3" fill="#ff83f4" stroke="#d002bc" /><rect x="52.0" y="1054.0" width="12.0" height="3" fill="#ff83f4" stroke="#d002bc" /><rect x="52.0" y="1121.5" width="12.0" height="3" fill="#ff83f4" stroke="#d002bc" /><rect x="52.0" y="1162.0" width="12.0" height="3" fill="#ff83f4" stroke="#d002bc" /><rect x="52.0" y="1202.5" width="12.0" height="3" fill="#ff83f4" stroke="#d002bc" /><rect x="52.0" y="1216.0" width="12.0" height="3" fill="#ff83f4" stroke="#d002bc" /><rect x="52.0" y="1284.0" width="12.0" height="3" fill="#ff83f4" stroke="#d002bc" /><rect x="166.0" y="0.0" width="12.0" height="3" fill="#ff83f4" stroke="#d002bc" /><rect x="166.0" y="40.5" width="12.0" height="3" fill="#ff83f4" stroke="#d002bc" /><rect x="166.0" y="81.0" width="12.0" height="3" fill="#ff83f4" stroke="#d002bc" /><rect x="166.0" y="148.5" width="12.0" height="3" fill="#ff83f4" stroke="#d002bc" /><rect x="166.0" y="189.0" width="12.0" height="3" fill="#ff83f4" stroke="#d002bc" /><rect x="166.0" y="229.5" width="12.0" height="3" fill="#ff83f4" stroke="#d002bc" /><rect x="166.0" y="243.0" width="12.0" height="3" fill="#ff83f4" stroke="#d002bc" /><rect x="140.0" y="270.0" width="12.0" height="3" fill="#80c9ff" stroke="#0b6cba" /><rect x="153.0" y="283.5" width="12.0" height="3" fill="#fff874" stroke="#eb9c26" /><rect x="140.0" y="310.5" width="12.0" height="3" fill="#80c9ff" stroke="#0b6cba" /><rect x="127.0" y="324.0" width="12.0" height="3" fill="#35df39" stroke="#03aa10" /><rect x="127.0" y="364.5" width="12.0" height="3" fill="#35df39" stroke="#03aa10" /><rect x="127.0" y="405.0" width="12.0" height="3" fill="#35df39" stroke="#03aa10" /><rect x="127.0" y="473.0" width="12.0" height="3" fill="#35df39" stroke="#03aa10" /><rect x="127.0" y="513.5" width="12.0" height="3" fill="#35df39" stroke="#03aa10" /><rect x="127.0" y="554.0" width="12.0" height="3" fill="#35df39" stroke="#03aa10" /><rect x="127.0" y="567.5" width="12.0" height="3" fill="#35df39" stroke="#03aa10" /><rect x="127.0" y="635.0" width="12.0" height="3" fill="#35df39" stroke="#03aa10" /><rect x="127.0" y="648.5" width="12.0" height="3" fill="#35df39" stroke="#03aa10" /><rect x="127.0" y="689.0" width="12.0" height="3" fill="#35df39" stroke="#03aa10" /><rect x="127.0" y="729.5" width="12.0" height="3" fill="#35df39" stroke="#03aa10" /><rect x="127.0" y="797.0" width="12.0" height="3" fill="#35df39" stroke="#03aa10" /><rect x="127.0" y="837.5" width="12.0" height="3" fill="#35df39" stroke="#03aa10" /><rect x="127.0" y="878.0" width="12.0" height="3" fill="#35df39" stroke="#03aa10" /><rect x="127.0" y="891.5" width="12.0" height="3" fill="#35df39" stroke="#03aa10" /><rect x="127.0" y="959.5" width="12.0" height="3" fill="#35df39" stroke="#03aa10" /><rect x="166.0" y="973.0" width="12.0" height="3" fill="#ff83f4" stroke="#d002bc" /><rect x="166.0" y="1094.5" width="12.0" height="3" fill="#ff83f4" stroke="#d002bc" /><rect x="166.0" y="1121.5" width="12.0" height="3" fill="#ff83f4" stroke="#d002bc" /><rect x="166.0" y="1135.0" width="12.0" height="3" fill="#ff83f4" stroke="#d002bc" /><rect x="166.0" y="1256.5" width="12.0" height="3" fill="#ff83f4" stroke="#d002bc" /><rect x="280.0" y="81.0" width="12.0" height="3" fill="#ff83f4" stroke="#d002bc" /><rect x="280.0" y="108.0" width="12.0" height="3" fill="#ff83f4" stroke="#d002bc" /><rect x="280.0" y="121.5" width="12.0" height="3" fill="#ff83f4" stroke="#d002bc" /><rect x="241.0" y="324.5" width="12.0" height="3" fill="#35df39" stroke="#03aa10" /><rect x="241.0" y="365.0" width="12.0" height="3" fill="#35df39" stroke="#03aa10" /><rect x="241.0" y="405.5" width="12.0" height="3" fill="#35df39" stroke="#03aa10" /><rect x="241.0" y="473.0" width="12.0" height="3" fill="#35df39" stroke="#03aa10" /><rect x="241.0" y="513.5" width="12.0" height="3" fill="#35df39" stroke="#03aa10" /><rect x="241.0" y="554.0" width="12.0" height="3" fill="#35df39" stroke="#03aa10" /><rect x="241.0" y="567.5" width="12.0" height="3" fill="#35df39" stroke="#03aa10" /><rect x="241.0" y="635.0" width="12.0" height="3" fill="#35df39" stroke="#03aa10" /><rect x="241.0" y="648.5" width="12.0" height="3" fill="#35df39" stroke="#03aa10" /><rect x="241.0" y="689.5" width="12.0" height="3" fill="#35df39" stroke="#03aa10" /><rect x="241.0" y="730.0" width="12.0" height="3" fill="#35df39" stroke="#03aa10" /><rect x="241.0" y="797.5" width="12.0" height="3" fill="#35df39" stroke="#03aa10" /><rect x="241.0" y="838.0" width="12.0" height="3" fill="#35df39" stroke="#03aa10" /><rect x="241.0" y="878.5" width="12.0" height="3" fill="#35df39" stroke="#03aa10" /><rect x="241.0" y="892.0" width="12.0" height="3" fill="#35df39" stroke="#03aa10" /><rect x="241.0" y="959.5" width="12.0" height="3" fill="#35df39" stroke="#03aa10" /><rect x="241.0" y="973.0" width="12.0" height="3" fill="#35df39" stroke="#03aa10" /><rect x="241.0" y="1013.5" width="12.0" height="3" fill="#35df39" stroke="#03aa10" /><rect x="241.0" y="1054.0" width="12.0" height="3" fill="#35df39" stroke="#03aa10" /><rect x="241.0" y="1121.5" width="12.0" height="3" fill="#35df39" stroke="#03aa10" /><rect x="241.0" y="1162.5" width="12.0" height="3" fill="#35df39" stroke="#03aa10" /><rect x="241.0" y="1203.0" width="12.0" height="3" fill="#35df39" stroke="#03aa10" /><rect x="254.0" y="1216.5" width="12.0" height="3" fill="#80c9ff" stroke="#0b6cba" /><rect x="254.0" y="1243.5" width="12.0" height="3" fill="#80c9ff" stroke="#0b6cba" /><rect x="267.0" y="1257.0" width="12.0" height="3" fill="#fff874" stroke="#eb9c26" /><rect x="394.0" y="0.0" width="12.0" height="3" fill="#ff83f4" stroke="#d002bc" /><rect x="394.0" y="40.5" width="12.0" height="3" fill="#ff83f4" stroke="#d002bc" /><rect x="394.0" y="81.0" width="12.0" height="3" fill="#ff83f4" stroke="#d002bc" /><rect x="394.0" y="148.5" width="12.0" height="3" fill="#ff83f4" stroke="#d002bc" /><rect x="394.0" y="189.0" width="12.0" height="3" fill="#ff83f4" stroke="#d002bc" /><rect x="394.0" y="229.5" width="12.0" height="3" fill="#ff83f4" stroke="#d002bc" /><rect x="394.0" y="243.0" width="12.0" height="3" fill="#ff83f4" stroke="#d002bc" /><rect x="394.0" y="270.0" width="12.0" height="3" fill="#ff83f4" stroke="#d002bc" /><rect x="381.0" y="283.5" width="12.0" height="3" fill="#fff874" stroke="#eb9c26" /><rect x="381.0" y="310.5" width="12.0" height="3" fill="#fff874" stroke="#eb9c26" /><rect x="368.0" y="324.0" width="12.0" height="3" fill="#80c9ff" stroke="#0b6cba" /><rect x="368.0" y="365.0" width="12.0" height="3" fill="#80c9ff" stroke="#0b6cba" /><rect x="368.0" y="405.5" width="12.0" height="3" fill="#80c9ff" stroke="#0b6cba" /><rect x="381.0" y="473.0" width="12.0" height="3" fill="#fff874" stroke="#eb9c26" /><rect x="381.0" y="513.5" width="12.0" height="3" fill="#fff874" stroke="#eb9c26" /><rect x="381.0" y="554.0" width="12.0" height="3" fill="#fff874" stroke="#eb9c26" /><rect x="381.0" y="567.5" width="12.0" height="3" fill="#fff874" stroke="#eb9c26" /><rect x="381.0" y="594.5" width="12.0" height="3" fill="#fff874" stroke="#eb9c26" /><rect x="368.0" y="608.0" width="12.0" height="3" fill="#80c9ff" stroke="#0b6cba" /><rect x="368.0" y="635.0" width="12.0" height="3" fill="#80c9ff" stroke="#0b6cba" /><rect x="368.0" y="648.5" width="12.0" height="3" fill="#80c9ff" stroke="#0b6cba" /><rect x="368.0" y="689.0" width="12.0" height="3" fill="#80c9ff" stroke="#0b6cba" /><rect x="368.0" y="729.5" width="12.0" height="3" fill="#80c9ff" stroke="#0b6cba" /><rect x="394.0" y="797.0" width="12.0" height="3" fill="#ff83f4" stroke="#d002bc" /><rect x="394.0" y="837.5" width="12.0" height="3" fill="#ff83f4" stroke="#d002bc" /><rect x="394.0" y="878.5" width="12.0" height="3" fill="#ff83f4" stroke="#d002bc" /><rect x="394.0" y="892.0" width="12.0" height="3" fill="#ff83f4" stroke="#d002bc" /><rect x="394.0" y="919.0" width="12.0" height="3" fill="#ff83f4" stroke="#d002bc" /><rect x="381.0" y="932.5" width="12.0" height="3" fill="#fff874" stroke="#eb9c26" /><rect x="381.0" y="959.5" width="12.0" height="3" fill="#fff874" stroke="#eb9c26" /><rect x="368.0" y="973.0" width="12.0" height="3" fill="#80c9ff" stroke="#0b6cba" /><rect x="368.0" y="1013.5" width="12.0" height="3" fill="#80c9ff" stroke="#0b6cba" /><rect x="368.0" y="1054.0" width="12.0" height="3" fill="#80c9ff" stroke="#0b6cba" /><rect x="368.0" y="1121.5" width="12.0" height="3" fill="#80c9ff" stroke="#0b6cba" /><rect x="368.0" y="1162.0" width="12.0" height="3" fill="#80c9ff" stroke="#0b6cba" /><rect x="368.0" y="1202.5" width="12.0" height="3" fill="#80c9ff" stroke="#0b6cba" /><rect x="368.0" y="1216.0" width="12.0" height="3" fill="#80c9ff" stroke="#0b6cba" /><rect x="368.0" y="1243.0" width="12.0" height="3" fill="#80c9ff" stroke="#0b6cba" /><rect x="368.0" y="1256.5" width="12.0" height="3" fill="#80c9ff" stroke="#0b6cba" /><rect x="495.0" y="0.0" width="12.0" height="3" fill="#fff874" stroke="#eb9c26" /><rect x="495.0" y="40.5" width="12.0" height="3" fill="#fff874" stroke="#eb9c26" /><rect x="495.0" y="81.5" width="12.0" height="3" fill="#fff874" stroke="#eb9c26" /><rect x="495.0" y="149.0" width="12.0" height="3" fill="#fff874" stroke="#eb9c26" /><rect x="508.0" y="162.5" width="12.0" height="3" fill="#ff83f4" stroke="#d002bc" /><rect x="508.0" y="203.0" width="12.0" height="3" fill="#ff83f4" stroke="#d002bc" /><rect x="508.0" y="243.5" width="12.0" height="3" fill="#ff83f4" stroke="#d002bc" /><rect x="495.0" y="284.0" width="12.0" height="3" fill="#fff874" stroke="#eb9c26" /><rect x="469.0" y="324.5" width="12.0" height="3" fill="#35df39" stroke="#03aa10" /><rect x="469.0" y="365.0" width="12.0" height="3" fill="#35df39" stroke="#03aa10" /><rect x="469.0" y="405.5" width="12.0" height="3" fill="#35df39" stroke="#03aa10" /><rect x="469.0" y="473.0" width="12.0" height="3" fill="#35df39" stroke="#03aa10" /><rect x="469.0" y="513.5" width="12.0" height="3" fill="#35df39" stroke="#03aa10" /><rect x="469.0" y="554.0" width="12.0" height="3" fill="#35df39" stroke="#03aa10" /><rect x="469.0" y="568.0" width="12.0" height="3" fill="#35df39" stroke="#03aa10" /><rect x="469.0" y="635.5" width="12.0" height="3" fill="#35df39" stroke="#03aa10" /><rect x="469.0" y="649.0" width="12.0" height="3" fill="#35df39" stroke="#03aa10" /><rect x="469.0" y="689.5" width="12.0" height="3" fill="#35df39" stroke="#03aa10" /><rect x="469.0" y="730.0" width="12.0" height="3" fill="#35df39" stroke="#03aa10" /><rect x="469.0" y="797.5" width="12.0" height="3" fill="#35df39" stroke="#03aa10" /><rect x="469.0" y="838.0" width="12.0" height="3" fill="#35df39" stroke="#03aa10" /><rect x="469.0" y="878.5" width="12.0" height="3" fill="#35df39" stroke="#03aa10" /><rect x="469.0" y="892.0" width="12.0" height="3" fill="#35df39" stroke="#03aa10" /><rect x="469.0" y="959.5" width="12.0" height="3" fill="#35df39" stroke="#03aa10" /><rect x="469.0" y="973.0" width="12.0" height="3" fill="#35df39" stroke="#03aa10" /><rect x="469.0" y="1013.5" width="12.0" height="3" fill="#35df39" stroke="#03aa10" /><rect x="469.0" y="1054.0" width="12.0" height="3" fill="#35df39" stroke="#03aa10" /><rect x="469.0" y="1122.0" width="12.0" height="3" fill="#35df39" stroke="#03aa10" /><rect x="469.0" y="1162.5" width="12.0" height="3" fill="#35df39" stroke="#03aa10" /><rect x="482.0" y="1176.0" width="12.0" height="3" fill="#80c9ff" stroke="#0b6cba" /><rect x="482.0" y="1216.5" width="12.0" height="3" fill="#80c9ff" stroke="#0b6cba" /><rect x="495.0" y="1257.0" width="12.0" height="3" fill="#fff874" stroke="#eb9c26" /><rect x="609.0" y="0.0" width="12.0" height="3" fill="#fff874" stroke="#eb9c26" /><rect x="609.0" y="40.5" width="12.0" height="3" fill="#fff874" stroke="#eb9c26" /><rect x="609.0" y="81.0" width="12.0" height="3" fill="#fff874" stroke="#eb9c26" /><rect x="609.0" y="148.5" width="12.0" height="3" fill="#fff874" stroke="#eb9c26" /><rect x="609.0" y="189.0" width="12.0" height="3" fill="#fff874" stroke="#eb9c26" /><rect x="609.0" y="229.5" width="12.0" height="3" fill="#fff874" stroke="#eb9c26" /><rect x="596.0" y="243.0" width="12.0" height="3" fill="#80c9ff" stroke="#0b6cba" /><rect x="596.0" y="311.0" width="12.0" height="3" fill="#80c9ff" stroke="#0b6cba" /><rect x="583.0" y="324.5" width="12.0" height="3" fill="#35df39" stroke="#03aa10" /><rect x="583.0" y="365.0" width="12.0" height="3" fill="#35df39" stroke="#03aa10" /><rect x="583.0" y="405.5" width="12.0" height="3" fill="#35df39" stroke="#03aa10" /><rect x="609.0" y="473.0" width="12.0" height="3" fill="#fff874" stroke="#eb9c26" /><rect x="609.0" y="513.5" width="12.0" height="3" fill="#fff874" stroke="#eb9c26" /><rect x="609.0" y="554.0" width="12.0" height="3" fill="#fff874" stroke="#eb9c26" /><rect x="609.0" y="567.5" width="12.0" height="3" fill="#fff874" stroke="#eb9c26" /><rect x="609.0" y="594.5" width="12.0" height="3" fill="#fff874" stroke="#eb9c26" /><rect x="583.0" y="608.0" width="12.0" height="3" fill="#35df39" stroke="#03aa10" /><rect x="583.0" y="635.0" width="12.0" height="3" fill="#35df39" stroke="#03aa10" /><rect x="596.0" y="648.5" width="12.0" height="3" fill="#80c9ff" stroke="#0b6cba" /><rect x="596.0" y="689.0" width="12.0" height="3" fill="#80c9ff" stroke="#0b6cba" /><rect x="596.0" y="729.5" width="12.0" height="3" fill="#80c9ff" stroke="#0b6cba" /><rect x="622.0" y="797.5" width="12.0" height="3" fill="#ff83f4" stroke="#d002bc" /><rect x="622.0" y="838.0" width="12.0" height="3" fill="#ff83f4" stroke="#d002bc" /><rect x="622.0" y="878.5" width="12.0" height="3" fill="#ff83f4" stroke="#d002bc" /><rect x="622.0" y="892.0" width="12.0" height="3" fill="#ff83f4" stroke="#d002bc" /><rect x="622.0" y="919.0" width="12.0" height="3" fill="#ff83f4" stroke="#d002bc" /><rect x="596.0" y="932.5" width="12.0" height="3" fill="#80c9ff" stroke="#0b6cba" /><rect x="596.0" y="959.5" width="12.0" height="3" fill="#80c9ff" stroke="#0b6cba" /><rect x="583.0" y="973.0" width="12.0" height="3" fill="#35df39" stroke="#03aa10" /><rect x="583.0" y="1013.5" width="12.0" height="3" fill="#35df39" stroke="#03aa10" /><rect x="583.0" y="1054.0" width="12.0" height="3" fill="#35df39" stroke="#03aa10" /><rect x="583.0" y="1121.5" width="12.0" height="3" fill="#35df39" stroke="#03aa10" /><rect x="596.0" y="1162.0" width="12.0" height="3" fill="#80c9ff" stroke="#0b6cba" /><rect x="609.0" y="1202.5" width="12.0" height="3" fill="#fff874" stroke="#eb9c26" /><rect x="609.0" y="1216.0" width="12.0" height="3" fill="#fff874" stroke="#eb9c26" /><rect x="609.0" y="1243.0" width="12.0" height="3" fill="#fff874" stroke="#eb9c26" /><rect x="622.0" y="1256.5" width="12.0" height="3" fill="#ff83f4" stroke="#d002bc" /><rect x="723.0" y="0.0" width="12.0" height="3" fill="#fff874" stroke="#eb9c26" /><rect x="723.0" y="40.5" width="12.0" height="3" fill="#fff874" stroke="#eb9c26" /><rect x="723.0" y="81.0" width="12.0" height="3" fill="#fff874" stroke="#eb9c26" /><rect x="723.0" y="162.0" width="12.0" height="3" fill="#fff874" stroke="#eb9c26" /><rect x="684.0" y="243.0" width="12.0" height="3" fill="#ff3c3c" stroke="#c71f1f" /><rect x="723.0" y="324.0" width="12.0" height="255.6" fill="#fff874" stroke="#eb9c26" /><rect x="736.0" y="324.0" width="12.0" height="255.6" fill="#ff83f4" stroke="#d002bc" /><rect x="710.0" y="608.0" width="12.0" height="3" fill="#80c9ff" stroke="#0b6cba" /><rect x="723.0" y="608.0" width="12.0" height="3" fill="#fff874" stroke="#eb9c26" /><rect x="723.0" y="648.5" width="12.0" height="145.8" fill="#fff874" stroke="#eb9c26" /><rect x="736.0" y="648.5" width="12.0" height="145.8" fill="#ff83f4" stroke="#d002bc" /><rect x="723.0" y="810.5" width="12.0" height="3" fill="#fff874" stroke="#eb9c26" /><rect x="736.0" y="810.5" width="12.0" height="3" fill="#ff83f4" stroke="#d002bc" /><rect x="710.0" y="878.0" width="12.0" height="3" fill="#80c9ff" stroke="#0b6cba" /><rect x="723.0" y="878.0" width="12.0" height="3" fill="#fff874" stroke="#eb9c26" /><rect x="723.0" y="918.5" width="12.0" height="3" fill="#fff874" stroke="#eb9c26" /><rect x="736.0" y="918.5" width="12.0" height="3" fill="#ff83f4" stroke="#d002bc" /><rect x="697.0" y="972.5" width="12.0" height="255.6" fill="#35df39" stroke="#03aa10" /><rect x="710.0" y="972.5" width="12.0" height="255.6" fill="#80c9ff" stroke="#0b6cba" /><rect x="684.0" y="1256.5" width="12.0" height="3" fill="#ff3c3c" stroke="#c71f1f" /><rect x="697.0" y="1256.5" width="12.0" height="3" fill="#35df39" stroke="#03aa10" /><rect x="824.0" y="0.0" width="12.0" height="3" fill="#80c9ff" stroke="#0b6cba" /><rect x="837.0" y="0.0" width="12.0" height="3" fill="#fff874" stroke="#eb9c26" /><rect x="798.0" y="40.5" width="12.0" height="3" fill="#ff3c3c" stroke="#c71f1f" /><rect x="811.0" y="40.5" width="12.0" height="3" fill="#35df39" stroke="#03aa10" /><rect x="824.0" y="81.0" width="12.0" height="219.15" fill="#80c9ff" stroke="#0b6cba" /><rect x="837.0" y="81.0" width="12.0" height="219.15" fill="#fff874" stroke="#eb9c26" /><rect x="811.0" y="324.5" width="12.0" height="3" fill="#35df39" stroke="#03aa10" /><rect x="811.0" y="365.0" width="12.0" height="3" fill="#35df39" stroke="#03aa10" /><rect x="811.0" y="405.5" width="12.0" height="3" fill="#35df39" stroke="#03aa10" /><rect x="811.0" y="446.0" width="12.0" height="3" fill="#35df39" stroke="#03aa10" /><rect x="811.0" y="473.0" width="12.0" height="3" fill="#35df39" stroke="#03aa10" /><rect x="811.0" y="486.5" width="12.0" height="3" fill="#35df39" stroke="#03aa10" /><rect x="811.0" y="513.5" width="12.0" height="3" fill="#35df39" stroke="#03aa10" /><rect x="811.0" y="527.0" width="12.0" height="3" fill="#35df39" stroke="#03aa10" /><rect x="811.0" y="567.5" width="12.0" height="3" fill="#35df39" stroke="#03aa10" /><rect x="811.0" y="608.0" width="12.0" height="3" fill="#35df39" stroke="#03aa10" /><rect x="811.0" y="648.5" width="12.0" height="3" fill="#35df39" stroke="#03aa10" /><rect x="811.0" y="689.5" width="12.0" height="3" fill="#35df39" stroke="#03aa10" /><rect x="811.0" y="730.0" width="12.0" height="3" fill="#35df39" stroke="#03aa10" /><rect x="824.0" y="770.5" width="12.0" height="3" fill="#80c9ff" stroke="#0b6cba" /><rect x="850.0" y="811.0" width="12.0" height="3" fill="#ff83f4" stroke="#d002bc" /><rect x="811.0" y="851.5" width="12.0" height="3" fill="#35df39" stroke="#03aa10" /><rect x="811.0" y="892.0" width="12.0" height="3" fill="#35df39" stroke="#03aa10" /><rect x="811.0" y="932.5" width="12.0" height="3" fill="#35df39" stroke="#03aa10" /><rect x="811.0" y="973.0" width="12.0" height="3" fill="#35df39" stroke="#03aa10" /><rect x="811.0" y="1013.5" width="12.0" height="3" fill="#35df39" stroke="#03aa10" /><rect x="811.0" y="1054.0" width="12.0" height="3" fill="#35df39" stroke="#03aa10" /><rect x="811.0" y="1094.5" width="12.0" height="3" fill="#35df39" stroke="#03aa10" /><rect x="811.0" y="1135.0" width="12.0" height="3" fill="#35df39" stroke="#03aa10" /><rect x="811.0" y="1162.0" width="12.0" height="3" fill="#35df39" stroke="#03aa10" /><rect x="811.0" y="1175.5" width="12.0" height="3" fill="#35df39" stroke="#03aa10" /><rect x="811.0" y="1203.0" width="12.0" height="3" fill="#35df39" stroke="#03aa10" /><rect x="811.0" y="1216.5" width="12.0" height="3" fill="#35df39" stroke="#03aa10" /><rect x="811.0" y="1243.5" width="12.0" height="3" fill="#35df39" stroke="#03aa10" /><rect x="811.0" y="1257.0" width="12.0" height="3" fill="#35df39" stroke="#03aa10" /><rect x="824.0" y="1284.0" width="12.0" height="3" fill="#80c9ff" stroke="#0b6cba" /><rect x="951.0" y="0.0" width="12.0" height="3" fill="#fff874" stroke="#eb9c26" /><rect x="951.0" y="40.5" width="12.0" height="3" fill="#fff874" stroke="#eb9c26" /><rect x="951.0" y="81.0" width="12.0" height="3" fill="#fff874" stroke="#eb9c26" /><rect x="951.0" y="121.5" width="12.0" height="3" fill="#fff874" stroke="#eb9c26" /><rect x="951.0" y="162.0" width="12.0" height="3" fill="#fff874" stroke="#eb9c26" /><rect x="912.0" y="189.0" width="12.0" height="3" fill="#ff3c3c" stroke="#c71f1f" /><rect x="912.0" y="202.5" width="12.0" height="3" fill="#ff3c3c" stroke="#c71f1f" /><rect x="912.0" y="243.0" width="12.0" height="3" fill="#ff3c3c" stroke="#c71f1f" /><rect x="912.0" y="283.5" width="12.0" height="3" fill="#ff3c3c" stroke="#c71f1f" /><rect x="912.0" y="324.0" width="12.0" height="3" fill="#ff3c3c" stroke="#c71f1f" /><rect x="912.0" y="364.5" width="12.0" height="3" fill="#ff3c3c" stroke="#c71f1f" /><rect x="912.0" y="405.5" width="12.0" height="3" fill="#ff3c3c" stroke="#c71f1f" /><rect x="912.0" y="446.0" width="12.0" height="3" fill="#ff3c3c" stroke="#c71f1f" /><rect x="925.0" y="486.5" width="12.0" height="3" fill="#35df39" stroke="#03aa10" /><rect x="925.0" y="527.0" width="12.0" height="3" fill="#35df39" stroke="#03aa10" /><rect x="925.0" y="567.5" width="12.0" height="3" fill="#35df39" stroke="#03aa10" /><rect x="925.0" y="608.0" width="12.0" height="3" fill="#35df39" stroke="#03aa10" /><rect x="925.0" y="648.5" width="12.0" height="3" fill="#35df39" stroke="#03aa10" /><rect x="925.0" y="689.0" width="12.0" height="3" fill="#35df39" stroke="#03aa10" /><rect x="925.0" y="729.5" width="12.0" height="3" fill="#35df39" stroke="#03aa10" /><rect x="925.0" y="770.0" width="12.0" height="3" fill="#35df39" stroke="#03aa10" /><rect x="938.0" y="810.5" width="12.0" height="3" fill="#80c9ff" stroke="#0b6cba" /><rect x="938.0" y="851.0" width="12.0" height="3" fill="#80c9ff" stroke="#0b6cba" /><rect x="938.0" y="892.0" width="12.0" height="3" fill="#80c9ff" stroke="#0b6cba" /><rect x="938.0" y="932.5" width="12.0" height="3" fill="#80c9ff" stroke="#0b6cba" /><rect x="938.0" y="973.0" width="12.0" height="3" fill="#80c9ff" stroke="#0b6cba" /><rect x="938.0" y="1013.5" width="12.0" height="3" fill="#80c9ff" stroke="#0b6cba" /><rect x="938.0" y="1054.0" width="12.0" height="3" fill="#80c9ff" stroke="#0b6cba" /><rect x="938.0" y="1094.5" width="12.0" height="3" fill="#80c9ff" stroke="#0b6cba" /><rect x="938.0" y="1135.0" width="12.0" height="3" fill="#80c9ff" stroke="#0b6cba" /><rect x="938.0" y="1175.5" width="12.0" height="3" fill="#80c9ff" stroke="#0b6cba" /><rect x="938.0" y="1216.0" width="12.0" height="3" fill="#80c9ff" stroke="#0b6cba" /><rect x="938.0" y="1256.5" width="12.0" height="3" fill="#80c9ff" stroke="#0b6cba" /><rect x="951.0" y="1256.5" width="12.0" height="3" fill="#fff874" stroke="#eb9c26" /><rect x="1065.0" y="0.0" width="12.0" height="219.15" fill="#fff874" stroke="#eb9c26" /><rect x="1078.0" y="0.0" width="12.0" height="219.15" fill="#ff83f4" stroke="#d002bc" /><rect x="1039.0" y="243.5" width="12.0" height="3" fill="#35df39" stroke="#03aa10" /><rect x="1052.0" y="243.5" width="12.0" height="3" fill="#80c9ff" stroke="#0b6cba" /><rect x="1039.0" y="324.5" width="12.0" height="3" fill="#35df39" stroke="#03aa10" /><rect x="1039.0" y="365.0" width="12.0" height="3" fill="#35df39" stroke="#03aa10" /><rect x="1039.0" y="405.5" width="12.0" height="3" fill="#35df39" stroke="#03aa10" /><rect x="1039.0" y="473.0" width="12.0" height="3" fill="#35df39" stroke="#03aa10" /><rect x="1039.0" y="513.5" width="12.0" height="3" fill="#35df39" stroke="#03aa10" /><rect x="1039.0" y="554.0" width="12.0" height="3" fill="#35df39" stroke="#03aa10" /><rect x="1039.0" y="567.5" width="12.0" height="3" fill="#35df39" stroke="#03aa10" /><rect x="1065.0" y="608.5" width="12.0" height="3" fill="#fff874" stroke="#eb9c26" /><rect x="1078.0" y="608.5" width="12.0" height="3" fill="#ff83f4" stroke="#d002bc" /><rect x="1065.0" y="649.0" width="12.0" height="3" fill="#fff874" stroke="#eb9c26" /><rect x="1065.0" y="689.5" width="12.0" height="3" fill="#fff874" stroke="#eb9c26" /><rect x="1065.0" y="730.0" width="12.0" height="3" fill="#fff874" stroke="#eb9c26" /><rect x="1065.0" y="797.5" width="12.0" height="3" fill="#fff874" stroke="#eb9c26" /><rect x="1065.0" y="838.0" width="12.0" height="3" fill="#fff874" stroke="#eb9c26" /><rect x="1065.0" y="878.5" width="12.0" height="3" fill="#fff874" stroke="#eb9c26" /><rect x="1065.0" y="892.0" width="12.0" height="3" fill="#fff874" stroke="#eb9c26" /><rect x="1039.0" y="919.0" width="12.0" height="3" fill="#35df39" stroke="#03aa10" /><rect x="1039.0" y="932.5" width="12.0" height="3" fill="#35df39" stroke="#03aa10" /><rect x="1052.0" y="973.0" width="12.0" height="3" fill="#80c9ff" stroke="#0b6cba" /><rect x="1052.0" y="1013.5" width="12.0" height="3" fill="#80c9ff" stroke="#0b6cba" /><rect x="1052.0" y="1054.0" width="12.0" height="3" fill="#80c9ff" stroke="#0b6cba" /><rect x="1052.0" y="1122.0" width="12.0" height="3" fill="#80c9ff" stroke="#0b6cba" /><rect x="1052.0" y="1162.5" width="12.0" height="3" fill="#80c9ff" stroke="#0b6cba" /><rect x="1052.0" y="1203.0" width="12.0" height="3" fill="#80c9ff" stroke="#0b6cba" /><rect x="1052.0" y="1216.5" width="12.0" height="3" fill="#80c9ff" stroke="#0b6cba" /><rect x="1052.0" y="1257.0" width="12.0" height="3" fill="#80c9ff" stroke="#0b6cba" /><rect x="1153.0" y="0.0" width="12.0" height="3" fill="#35df39" stroke="#03aa10" /><rect x="1153.0" y="40.5" width="12.0" height="3" fill="#35df39" stroke="#03aa10" /><rect x="1153.0" y="81.0" width="12.0" height="3" fill="#35df39" stroke="#03aa10" /><rect x="1153.0" y="148.5" width="12.0" height="3" fill="#35df39" stroke="#03aa10" /><rect x="1153.0" y="189.0" width="12.0" height="3" fill="#35df39" stroke="#03aa10" /><rect x="1153.0" y="229.5" width="12.0" height="3" fill="#35df39" stroke="#03aa10" /><rect x="1153.0" y="243.0" width="12.0" height="3" fill="#35df39" stroke="#03aa10" /><rect x="1140.0" y="270.0" width="12.0" height="3" fill="#ff3c3c" stroke="#c71f1f" /><rect x="1140.0" y="283.5" width="12.0" height="3" fill="#ff3c3c" stroke="#c71f1f" /><rect x="1153.0" y="324.5" width="12.0" height="3" fill="#35df39" stroke="#03aa10" /><rect x="1153.0" y="365.0" width="12.0" height="3" fill="#35df39" stroke="#03aa10" /><rect x="1153.0" y="405.5" width="12.0" height="3" fill="#35df39" stroke="#03aa10" /><rect x="1153.0" y="473.0" width="12.0" height="3" fill="#35df39" stroke="#03aa10" /><rect x="1153.0" y="513.5" width="12.0" height="3" fill="#35df39" stroke="#03aa10" /><rect x="1153.0" y="554.0" width="12.0" height="3" fill="#35df39" stroke="#03aa10" /><rect x="1153.0" y="567.5" width="12.0" height="3" fill="#35df39" stroke="#03aa10" /><rect x="1153.0" y="608.0" width="12.0" height="3" fill="#35df39" stroke="#03aa10" /><rect x="1140.0" y="648.5" width="12.0" height="3" fill="#ff3c3c" stroke="#c71f1f" /><rect x="1140.0" y="689.0" width="12.0" height="3" fill="#ff3c3c" stroke="#c71f1f" /><rect x="1140.0" y="729.5" width="12.0" height="3" fill="#ff3c3c" stroke="#c71f1f" /><rect x="1140.0" y="797.5" width="12.0" height="3" fill="#ff3c3c" stroke="#c71f1f" /><rect x="1140.0" y="838.0" width="12.0" height="3" fill="#ff3c3c" stroke="#c71f1f" /><rect x="1140.0" y="878.5" width="12.0" height="3" fill="#ff3c3c" stroke="#c71f1f" /><rect x="1153.0" y="892.0" width="12.0" height="3" fill="#35df39" stroke="#03aa10" /><rect x="1140.0" y="919.0" width="12.0" height="3" fill="#ff3c3c" stroke="#c71f1f" /><rect x="1153.0" y="932.5" width="12.0" height="3" fill="#35df39" stroke="#03aa10" /><rect x="1153.0" y="973.0" width="12.0" height="3" fill="#35df39" stroke="#03aa10" /><rect x="1153.0" y="1013.5" width="12.0" height="3" fill="#35df39" stroke="#03aa10" /><rect x="1153.0" y="1054.0" width="12.0" height="3" fill="#35df39" stroke="#03aa10" /><rect x="1140.0" y="1121.5" width="12.0" height="3" fill="#ff3c3c" stroke="#c71f1f" /><rect x="1140.0" y="1162.0" width="12.0" height="3" fill="#ff3c3c" stroke="#c71f1f" /><rect x="1140.0" y="1202.5" width="12.0" height="3" fill="#ff3c3c" stroke="#c71f1f" /><rect x="1153.0" y="1216.0" width="12.0" height="3" fill="#35df39" stroke="#03aa10" /><rect x="1153.0" y="1243.0" width="12.0" height="3" fill="#35df39" stroke="#03aa10" /><rect x="1166.0" y="1256.5" width="12.0" height="3" fill="#80c9ff" stroke="#0b6cba" /><rect x="1280.0" y="0.0" width="12.0" height="3" fill="#80c9ff" stroke="#0b6cba" /><rect x="1280.0" y="40.5" width="12.0" height="3" fill="#80c9ff" stroke="#0b6cba" /><rect x="1280.0" y="81.0" width="12.0" height="3" fill="#80c9ff" stroke="#0b6cba" /><rect x="1293.0" y="162.0" width="12.0" height="3" fill="#fff874" stroke="#eb9c26" /><rect x="1293.0" y="202.5" width="12.0" height="3" fill="#fff874" stroke="#eb9c26" /><rect x="1306.0" y="243.0" width="12.0" height="3" fill="#ff83f4" stroke="#d002bc" /><rect x="1306.0" y="283.5" width="12.0" height="3" fill="#ff83f4" stroke="#d002bc" /><rect x="1267.0" y="324.0" width="12.0" height="3" fill="#35df39" stroke="#03aa10" /><rect x="1267.0" y="364.5" width="12.0" height="3" fill="#35df39" stroke="#03aa10" /><rect x="1267.0" y="405.0" width="12.0" height="3" fill="#35df39" stroke="#03aa10" /><rect x="1267.0" y="472.5" width="12.0" height="3" fill="#35df39" stroke="#03aa10" /><rect x="1267.0" y="513.5" width="12.0" height="3" fill="#35df39" stroke="#03aa10" /><rect x="1267.0" y="554.0" width="12.0" height="3" fill="#35df39" stroke="#03aa10" /><rect x="1267.0" y="567.5" width="12.0" height="3" fill="#35df39" stroke="#03aa10" /><rect x="1293.0" y="608.0" width="12.0" height="3" fill="#fff874" stroke="#eb9c26" /><rect x="1306.0" y="608.0" width="12.0" height="3" fill="#ff83f4" stroke="#d002bc" /><rect x="1293.0" y="648.5" width="12.0" height="3" fill="#fff874" stroke="#eb9c26" /><rect x="1293.0" y="689.0" width="12.0" height="3" fill="#fff874" stroke="#eb9c26" /><rect x="1293.0" y="729.5" width="12.0" height="3" fill="#fff874" stroke="#eb9c26" /><rect x="1293.0" y="797.0" width="12.0" height="3" fill="#fff874" stroke="#eb9c26" /><rect x="1293.0" y="837.5" width="12.0" height="3" fill="#fff874" stroke="#eb9c26" /><rect x="1293.0" y="878.0" width="12.0" height="3" fill="#fff874" stroke="#eb9c26" /><rect x="1293.0" y="891.5" width="12.0" height="3" fill="#fff874" stroke="#eb9c26" /><rect x="1267.0" y="918.5" width="12.0" height="3" fill="#35df39" stroke="#03aa10" /><rect x="1267.0" y="932.0" width="12.0" height="3" fill="#35df39" stroke="#03aa10" /><rect x="1280.0" y="972.5" width="12.0" height="3" fill="#80c9ff" stroke="#0b6cba" /><rect x="1280.0" y="1013.5" width="12.0" height="3" fill="#80c9ff" stroke="#0b6cba" /><rect x="1280.0" y="1054.0" width="12.0" height="3" fill="#80c9ff" stroke="#0b6cba" /><rect x="1280.0" y="1121.5" width="12.0" height="3" fill="#80c9ff" stroke="#0b6cba" /><rect x="1280.0" y="1162.0" width="12.0" height="3" fill="#80c9ff" stroke="#0b6cba" /><rect x="1280.0" y="1202.5" width="12.0" height="3" fill="#80c9ff" stroke="#0b6cba" /><rect x="1280.0" y="1216.0" width="12.0" height="3" fill="#80c9ff" stroke="#0b6cba" /><rect x="1280.0" y="1256.5" width="12.0" height="3" fill="#80c9ff" stroke="#0b6cba" /><rect x="1381.0" y="0.0" width="12.0" height="3" fill="#35df39" stroke="#03aa10" /><rect x="1381.0" y="40.5" width="12.0" height="3" fill="#35df39" stroke="#03aa10" /><rect x="1381.0" y="81.0" width="12.0" height="3" fill="#35df39" stroke="#03aa10" /><rect x="1381.0" y="148.5" width="12.0" height="3" fill="#35df39" stroke="#03aa10" /><rect x="1381.0" y="189.0" width="12.0" height="3" fill="#35df39" stroke="#03aa10" /><rect x="1381.0" y="230.0" width="12.0" height="3" fill="#35df39" stroke="#03aa10" /><rect x="1381.0" y="243.5" width="12.0" height="3" fill="#35df39" stroke="#03aa10" /><rect x="1368.0" y="270.5" width="12.0" height="3" fill="#ff3c3c" stroke="#c71f1f" /><rect x="1368.0" y="284.0" width="12.0" height="3" fill="#ff3c3c" stroke="#c71f1f" /><rect x="1381.0" y="324.5" width="12.0" height="3" fill="#35df39" stroke="#03aa10" /><rect x="1381.0" y="365.0" width="12.0" height="3" fill="#35df39" stroke="#03aa10" /><rect x="1381.0" y="405.5" width="12.0" height="3" fill="#35df39" stroke="#03aa10" /><rect x="1381.0" y="473.0" width="12.0" height="3" fill="#35df39" stroke="#03aa10" /><rect x="1381.0" y="513.5" width="12.0" height="3" fill="#35df39" stroke="#03aa10" /><rect x="1381.0" y="554.0" width="12.0" height="3" fill="#35df39" stroke="#03aa10" /><rect x="1381.0" y="567.5" width="12.0" height="3" fill="#35df39" stroke="#03aa10" /><rect x="1381.0" y="608.0" width="12.0" height="3" fill="#35df39" stroke="#03aa10" /><rect x="1368.0" y="648.5" width="12.0" height="3" fill="#ff3c3c" stroke="#c71f1f" /><rect x="1368.0" y="689.0" width="12.0" height="3" fill="#ff3c3c" stroke="#c71f1f" /><rect x="1368.0" y="730.0" width="12.0" height="3" fill="#ff3c3c" stroke="#c71f1f" /><rect x="1368.0" y="797.5" width="12.0" height="3" fill="#ff3c3c" stroke="#c71f1f" /><rect x="1368.0" y="838.0" width="12.0" height="3" fill="#ff3c3c" stroke="#c71f1f" /><rect x="1368.0" y="878.5" width="12.0" height="3" fill="#ff3c3c" stroke="#c71f1f" /><rect x="1381.0" y="892.0" width="12.0" height="3" fill="#35df39" stroke="#03aa10" /><rect x="1368.0" y="919.0" width="12.0" height="3" fill="#ff3c3c" stroke="#c71f1f" /><rect x="1381.0" y="932.5" width="12.0" height="3" fill="#35df39" stroke="#03aa10" /><rect x="1368.0" y="973.0" width="12.0" height="3" fill="#ff3c3c" stroke="#c71f1f" /><rect x="1368.0" y="1013.5" width="12.0" height="3" fill="#ff3c3c" stroke="#c71f1f" /><rect x="1368.0" y="1054.0" width="12.0" height="3" fill="#ff3c3c" stroke="#c71f1f" /><rect x="1381.0" y="1135.0" width="12.0" height="3" fill="#35df39" stroke="#03aa10" /><rect x="1381.0" y="1175.5" width="12.0" height="3" fill="#35df39" stroke="#03aa10" /><rect x="1381.0" y="1216.5" width="12.0" height="3" fill="#35df39" stroke="#03aa10" /><rect x="1495.0" y="0.0" width="12.0" height="3" fill="#35df39" stroke="#03aa10" /><rect x="1508.0" y="0.0" width="12.0" height="3" fill="#80c9ff" stroke="#0b6cba" /><rect x="1495.0" y="162.0" width="12.0" height="3" fill="#35df39" stroke="#03aa10" /><rect x="1508.0" y="162.0" width="12.0" height="3" fill="#80c9ff" stroke="#0b6cba" /><rect x="1482.0" y="243.0" width="12.0" height="3" fill="#ff3c3c" stroke="#c71f1f" /><rect x="1495.0" y="243.0" width="12.0" height="3" fill="#35df39" stroke="#03aa10" /><rect x="1482.0" y="324.0" width="12.0" height="3" fill="#ff3c3c" stroke="#c71f1f" /><rect x="1495.0" y="324.0" width="12.0" height="3" fill="#35df39" stroke="#03aa10" /><rect x="1508.0" y="324.0" width="12.0" height="3" fill="#80c9ff" stroke="#0b6cba" /></svg>