<?xml version="1.0" encoding="UTF-8"?><svg xmlns="http://www.w3.org/2000/svg" xmlns:xlink="http://www.w3.org/1999/xlink"     width="4046" height="1043.0" viewBox="0 0 4046 1043.0"><defs></defs><rect x="0" y="14.5" width="188" height="1028.5" fill="black" /><rect x="0" y="1042.0" width="188" height="1" fill="white" fill-opacity="0.5" /><text x="198" y="1042.0" font-size="14" fill="white" font-family="monospace" dominant-baseline="initial">1</text><rect x="0" y="977.5" width="188" height="1" fill="white" fill-opacity="0.2" /><rect x="0" y="913.5" width="188" height="1" fill="white" fill-opacity="0.2" /><rect x="0" y="849.0" width="188" height="1" fill="white" fill-opacity="0.2" /><rect x="0" y="785.0" width="188" height="1" fill="white" fill-opacity="0.5" /><text x="198" y="785.0" font-size="14" fill="white" font-family="monospace" dominant-baseline="initial">2</text><rect x="0" y="720.5" width="188" height="1" fill="white" fill-opacity="0.2" /><rect x="0" y="656.5" width="188" height="1" fill="white" fill-opacity="0.2" /><rect x="0" y="592.0" width="188" height="1" fill="white" fill-opacity="0.2" /><rect x="0" y="527.5" width="188" height="1" fill="white" fill-opacity="0.5" /><text x="198" y="527.5" font-size="14" fill="white" font-family="monospace" dominant-baseline="initial">3</text><rect x="0" y="463.5" width="188" height="1" fill="white" fill-opacity="0.2" /><rect x="0" y="399.0" width="188" height="1" fill="white" fill-opacity="0.2" /><rect x="0" y="335.0" width="188" height="1" fill="white" fill-opacity="0.2" /><rect x="0" y="270.5" width="188" height="1" fill="white" fill-opacity="0.5" /><text x="198" y="270.5" font-size="14" fill="white" font-family="monospace" dominant-baseline="initial">4</text><rect x="0" y="206.5" width="188" height="1" fill="white" fill-opacity="0.2" /><rect x="0" y="142.0" width="188" height="1" fill="white" fill-opacity="0.2" /><rect x="0" y="77.5" width="188" height="1" fill="white" fill-opacity="0.2" /><rect x="0" y="13.5" width="188" height="1" fill="white" fill-opacity="0.5" /><text x="198" y="13.5" font-size="14" fill="white" font-family="monospace" dominant-baseline="initial">5</text><rect x="0" y="1042.0" width="188" height="1" fill="aqua" fill-opacity="0.75" /><text x="0" y="1038.0" font-size="14" fill="aqua" fill-opacity="0.75" font-family="monospace">Intro</text><rect x="0" y="1042.0" width="188" height="1" fill="lime" fill-opacity="0.75" /><text x="198" y="1029.0" font-size="14" fill="lime" font-family="monospace" dominant-baseline="initial">140</text><rect x="238" y="14.5" width="188" height="1028.5" fill="black" /><rect x="238" y="1042.0" width="188" height="1" fill="white" fill-opacity="0.5" /><text x="436" y="1042.0" font-size="14" fill="white" font-family="monospace" dominant-baseline="initial">5</text><rect x="238" y="977.5" width="188" height="1" fill="white" fill-opacity="0.2" /><rect x="238" y="913.5" width="188" height="1" fill="white" fill-opacity="0.2" /><rect x="238" y="849.0" width="188" height="1" fill="white" fill-opacity="0.2" /><rect x="238" y="785.0" width="188" height="1" fill="white" fill-opacity="0.5" /><text x="436" y="785.0" font-size="14" fill="white" font-family="monospace" dominant-baseline="initial">6</text><rect x="238" y="720.5" width="188" height="1" fill="white" fill-opacity="0.2" /><rect x="238" y="656.0" width="188" height="1" fill="white" fill-opacity="0.2" /><rect x="238" y="592.0" width="188" height="1" fill="white" fill-opacity="0.2" /><rect x="238" y="527.5" width="188" height="1" fill="white" fill-opacity="0.5" /><text x="436" y="527.5" font-size="14" fill="white" font-family="monospace" dominant-baseline="initial">7</text><rect x="238" y="463.5" width="188" height="1" fill="white" fill-opacity="0.2" /><rect x="238" y="399.0" width="188" height="1" fill="white" fill-opacity="0.2" /><rect x="238" y="335.0" width="188" height="1" fill="white" fill-opacity="0.2" /><rect x="238" y="270.5" width="188" height="1" fill="white" fill-opacity="0.5" /><text x="436" y="270.5" font-size="14" fill="white" font-family="monospace" dominant-baseline="initial">8</text><rect x="238" y="206.0" width="188" height="1" fill="white" fill-opacity="0.2" /><rect x="238" y="142.0" width="188" height="1" fill="white" fill-opacity="0.2" /><rect x="238" y="77.5" width="188" height="1" fill="white" fill-opacity="0.2" /><rect x="238" y="13.5" width="188" height="1" fill="white" fill-opacity="0.5" /><text x="436" y="13.5" font-size="14" fill="white" font-family="monospace" dominant-baseline="initial">9</text><rect x="476" y="14.5" width="188" height="1028.5" fill="black" /><rect x="476" y="1042.0" width="188" height="1" fill="white" fill-opacity="0.5" /><text x="674" y="1042.0" font-size="14" fill="white" font-family="monospace" dominant-baseline="initial">9</text><rect x="476" y="977.5" width="188" height="1" fill="white" fill-opacity="0.2" /><rect x="476" y="913.5" width="188" height="1" fill="white" fill-opacity="0.2" /><rect x="476" y="849.0" width="188" height="1" fill="white" fill-opacity="0.2" /><rect x="476" y="784.5" width="188" height="1" fill="white" fill-opacity="0.5" /><text x="674" y="784.5" font-size="14" fill="white" font-family="monospace" dominant-baseline="initial">10</text><rect x="476" y="720.5" width="188" height="1" fill="white" fill-opacity="0.2" /><rect x="476" y="656.0" width="188" height="1" fill="white" fill-opacity="0.2" /><rect x="476" y="592.0" width="188" height="1" fill="white" fill-opacity="0.2" /><rect x="476" y="527.5" width="188" height="1" fill="white" fill-opacity="0.5" /><text x="674" y="527.5" font-size="14" fill="white" font-family="monospace" dominant-baseline="initial">11</text><rect x="476" y="463.5" width="188" height="1" fill="white" fill-opacity="0.2" /><rect x="476" y="399.0" width="188" height="1" fill="white" fill-opacity="0.2" /><rect x="476" y="334.5" width="188" height="1" fill="white" fill-opacity="0.2" /><rect x="476" y="270.5" width="188" height="1" fill="white" fill-opacity="0.5" /><text x="674" y="270.5" font-size="14" fill="white" font-family="monospace" dominant-baseline="initial">12</text><rect x="476" y="206.0" width="188" height="1" fill="white" fill-opacity="0.2" /><rect x="476" y="142.0" width="188" height="1" fill="white" fill-opacity="0.2" /><rect x="476" y="77.5" width="188" height="1" fill="white" fill-opacity="0.2" /><rect x="476" y="13.5" width="188" height="1" fill="white" fill-opacity="0.5" /><text x="674" y="13.5" font-size="14" fill="white" font-family="monospace" dominant-baseline="initial">13</text><rect x="476" y="527.5500000000002" width="188" height="1" fill="aqua" fill-opacity="0.75" /><text x="476" y="523.5500000000002" font-size="14" fill="aqua" fill-opacity="0.75" font-family="monospace">Phrase A</text><rect x="714" y="14.0" width="188" height="1029.0" fill="black" /><rect x="714" y="1042.0" width="188" height="1" fill="white" fill-opacity="0.5" /><text x="912" y="1042.0" font-size="14" fill="white" font-family="monospace" dominant-baseline="initial">13</text><rect x="714" y="977.5" width="188" height="1" fill="white" fill-opacity="0.2" /><rect x="714" y="913.0" width="188" height="1" fill="white" fill-opacity="0.2" /><rect x="714" y="849.0" width="188" height="1" fill="white" fill-opacity="0.2" /><rect x="714" y="784.5" width="188" height="1" fill="white" fill-opacity="0.5" /><text x="912" y="784.5" font-size="14" fill="white" font-family="monospace" dominant-baseline="initial">14</text><rect x="714" y="720.5" width="188" height="1" fill="white" fill-opacity="0.2" /><rect x="714" y="656.0" width="188" height="1" fill="white" fill-opacity="0.2" /><rect x="714" y="592.0" width="188" height="1" fill="white" fill-opacity="0.2" /><rect x="714" y="527.5" width="188" height="1" fill="white" fill-opacity="0.5" /><text x="912" y="527.5" font-size="14" fill="white" font-family="monospace" dominant-baseline="initial">15</text><rect x="714" y="463.0" width="188" height="1" fill="white" fill-opacity="0.2" /><rect x="714" y="399.0" width="188" height="1" fill="white" fill-opacity="0.2" /><rect x="714" y="334.5" width="188" height="1" fill="white" fill-opacity="0.2" /><rect x="714" y="270.5" width="188" height="1" fill="white" fill-opacity="0.5" /><text x="912" y="270.5" font-size="14" fill="white" font-family="monospace" dominant-baseline="initial">16</text><rect x="714" y="206.0" width="188" height="1" fill="white" fill-opacity="0.2" /><rect x="714" y="142.0" width="188" height="1" fill="white" fill-opacity="0.2" /><rect x="714" y="77.5" width="188" height="1" fill="white" fill-opacity="0.2" /><rect x="714" y="13.0" width="188" height="1" fill="white" fill-opacity="0.5" /><text x="912" y="13.0" font-size="14" fill="white" font-family="monospace" dominant-baseline="initial">17</text><rect x="952" y="14.5" width="188" height="1028.5" fill="black" /><rect x="952" y="1042.0" width="188" height="1" fill="white" fill-opacity="0.5" /><text x="1150" y="1042.0" font-size="14" fill="white" font-family="monospace" dominant-baseline="initial">17</text><rect x="952" y="978.0" width="188" height="1" fill="white" fill-opacity="0.2" /><rect x="952" y="913.5" width="188" height="1" fill="white" fill-opacity="0.2" /><rect x="952" y="849.5" width="188" height="1" fill="white" fill-opacity="0.2" /><rect x="952" y="785.0" width="188" height="1" fill="white" fill-opacity="0.5" /><text x="1150" y="785.0" font-size="14" fill="white" font-family="monospace" dominant-baseline="initial">18</text><rect x="952" y="721.0" width="188" height="1" fill="white" fill-opacity="0.2" /><rect x="952" y="656.5" width="188" height="1" fill="white" fill-opacity="0.2" /><rect x="952" y="592.0" width="188" height="1" fill="white" fill-opacity="0.2" /><rect x="952" y="528.0" width="188" height="1" fill="white" fill-opacity="0.5" /><text x="1150" y="528.0" font-size="14" fill="white" font-family="monospace" dominant-baseline="initial">19</text><rect x="952" y="463.5" width="188" height="1" fill="white" fill-opacity="0.2" /><rect x="952" y="399.5" width="188" height="1" fill="white" fill-opacity="0.2" /><rect x="952" y="335.0" width="188" height="1" fill="white" fill-opacity="0.2" /><rect x="952" y="271.0" width="188" height="1" fill="white" fill-opacity="0.5" /><text x="1150" y="271.0" font-size="14" fill="white" font-family="monospace" dominant-baseline="initial">20</text><rect x="952" y="206.5" width="188" height="1" fill="white" fill-opacity="0.2" /><rect x="952" y="142.0" width="188" height="1" fill="white" fill-opacity="0.2" /><rect x="952" y="78.0" width="188" height="1" fill="white" fill-opacity="0.2" /><rect x="952" y="13.5" width="188" height="1" fill="white" fill-opacity="0.5" /><text x="1150" y="13.5" font-size="14" fill="white" font-family="monospace" dominant-baseline="initial">21</text><rect x="952" y="527.9499999999998" width="188" height="1" fill="aqua" fill-opacity="0.75" /><text x="952" y="523.9499999999998" font-size="14" fill="aqua" fill-opacity="0.75" font-family="monospace">Phrase B</text><rect x="1190" y="14.5" width="188" height="1028.5" fill="black" /><rect x="1190" y="1042.0" width="188" height="1" fill="white" fill-opacity="0.5" /><text x="1388" y="1042.0" font-size="14" fill="white" font-family="monospace" dominant-baseline="initial">21</text><rect x="1190" y="978.0" width="188" height="1" fill="white" fill-opacity="0.2" /><rect x="1190" y="913.5" width="188" height="1" fill="white" fill-opacity="0.2" /><rect x="1190" y="849.5" width="188" height="1" fill="white" fill-opacity="0.2" /><rect x="1190" y="785.0" width="188" height="1" fill="white" fill-opacity="0.5" /><text x="1388" y="785.0" font-size="14" fill="white" font-family="monospace" dominant-baseline="initial">22</text><rect x="1190" y="720.5" width="188" height="1" fill="white" fill-opacity="0.2" /><rect x="1190" y="656.5" width="188" height="1" fill="white" fill-opacity="0.2" /><rect x="1190" y="592.0" width="188" height="1" fill="white" fill-opacity="0.2" /><rect x="1190" y="528.0" width="188" height="1" fill="white" fill-opacity="0.5" /><text x="1388" y="528.0" font-size="14" fill="white" font-family="monospace" dominant-baseline="initial">23</text><rect x="1190" y="463.5" width="188" height="1" fill="white" fill-opacity="0.2" /><rect x="1190" y="399.5" width="188" height="1" fill="white" fill-opacity="0.2" /><rect x="1190" y="335.0" width="188" height="1" fill="white" fill-opacity="0.2" /><rect x="1190" y="270.5" width="188" height="1" fill="white" fill-opacity="0.5" /><text x="1388" y="270.5" font-size="14" fill="white" font-family="monospace" dominant-baseline="initial">24</text><rect x="1190" y="206.5" width="188" height="1" fill="white" fill-opacity="0.2" /><rect x="1190" y="142.0" width="188" height="1" fill="white" fill-opacity="0.2" /><rect x="1190" y="78.0" width="188" height="1" fill="white" fill-opacity="0.2" /><rect x="1190" y="13.5" width="188" height="1" fill="white" fill-opacity="0.5" /><text x="1388" y="13.5" font-size="14" fill="white" font-family="monospace" dominant-baseline="initial">25</text><rect x="1428" y="14.5" width="188" height="1028.5" fill="black" /><rect x="1428" y="1042.0" width="188" height="1" fill="white" fill-opacity="0.5" /><text x="1626" y="1042.0" font-size="14" fill="white" font-family="monospace" dominant-baseline="initial">25</text><rect x="1428" y="978.0" width="188" height="1" fill="white" fill-opacity="0.2" /><rect x="1428" y="913.5" width="188" height="1" fill="white" fill-opacity="0.2" /><rect x="1428" y="849.0" width="188" height="1" fill="white" fill-opacity="0.2" /><rect x="1428" y="785.0" width="188" height="1" fill="white" fill-opacity="0.5" /><text x="1626" y="785.0" font-size="14" fill="white" font-family="monospace" dominant-baseline="initial">26</text><rect x="1428" y="720.5" width="188" height="1" fill="white" fill-opacity="0.2" /><rect x="1428" y="656.5" width="188" height="1" fill="white" fill-opacity="0.2" /><rect x="1428" y="592.0" width="188" height="1" fill="white" fill-opacity="0.2" /><rect x="1428" y="528.0" width="188" height="1" fill="white" fill-opacity="0.5" /><text x="1626" y="528.0" font-size="14" fill="white" font-family="monospace" dominant-baseline="initial">27</text><rect x="1428" y="463.5" width="188" height="1" fill="white" fill-opacity="0.2" /><rect x="1428" y="399.0" width="188" height="1" fill="white" fill-opacity="0.2" /><rect x="1428" y="335.0" width="188" height="1" fill="white" fill-opacity="0.2" /><rect x="1428" y="270.5" width="188" height="1" fill="white" fill-opacity="0.5" /><text x="1626" y="270.5" font-size="14" fill="white" font-family="monospace" dominant-baseline="initial">28</text><rect x="1428" y="206.5" width="188" height="1" fill="white" fill-opacity="0.2" /><rect x="1428" y="142.0" width="188" height="1" fill="white" fill-opacity="0.2" /><rect x="1428" y="78.0" width="188" height="1" fill="white" fill-opacity="0.2" /><rect x="1428" y="13.5" width="188" height="1" fill="white" fill-opacity="0.5" /><text x="1626" y="13.5" font-size="14" fill="white" font-family="monospace" dominant-baseline="initial">29</text><rect x="1428" y="270.60000000000036" width="188" height="1" fill="aqua" fill-opacity="0.75" /><text x="1428" y="266.60000000000036" font-size="14" fill="aqua" fill-opacity="0.75" font-family="monospace">Special</text><rect x="1666" y="14.5" width="188" height="1028.5" fill="black" /><rect x="1666" y="1042.0" width="188" height="1" fill="white" fill-opacity="0.5" /><text x="1864" y="1042.0" font-size="14" fill="white" font-family="monospace" dominant-baseline="initial">29</text><rect x="1666" y="977.5" width="188" height="1" fill="white" fill-opacity="0.2" /><rect x="1666" y="913.5" width="188" height="1" fill="white" fill-opacity="0.2" /><rect x="1666" y="849.0" width="188" height="1" fill="white" fill-opacity="0.2" /><rect x="1666" y="785.0" width="188" height="1" fill="white" fill-opacity="0.5" /><text x="1864" y="785.0" font-size="14" fill="white" font-family="monospace" dominant-baseline="initial">30</text><rect x="1666" y="720.5" width="188" height="1" fill="white" fill-opacity="0.2" /><rect x="1666" y="656.5" width="188" height="1" fill="white" fill-opacity="0.2" /><rect x="1666" y="592.0" width="188" height="1" fill="white" fill-opacity="0.2" /><rect x="1666" y="527.5" width="188" height="1" fill="white" fill-opacity="0.5" /><text x="1864" y="527.5" font-size="14" fill="white" font-family="monospace" dominant-baseline="initial">31</text><rect x="1666" y="463.5" width="188" height="1" fill="white" fill-opacity="0.2" /><rect x="1666" y="399.0" width="188" height="1" fill="white" fill-opacity="0.2" /><rect x="1666" y="335.0" width="188" height="1" fill="white" fill-opacity="0.2" /><rect x="1666" y="270.5" width="188" height="1" fill="white" fill-opacity="0.5" /><text x="1864" y="270.5" font-size="14" fill="white" font-family="monospace" dominant-baseline="initial">32</text><rect x="1666" y="206.5" width="188" height="1" fill="white" fill-opacity="0.2" /><rect x="1666" y="142.0" width="188" height="1" fill="white" fill-opacity="0.2" /><rect x="1666" y="77.5" width="188" height="1" fill="white" fill-opacity="0.2" /><rect x="1666" y="13.5" width="188" height="1" fill="white" fill-opacity="0.5" /><text x="1864" y="13.5" font-size="14" fill="white" font-family="monospace" dominant-baseline="initial">33</text><rect x="1904" y="14.5" width="188" height="1028.5" fill="black" /><rect x="1904" y="1042.0" width="188" height="1" fill="white" fill-opacity="0.5" /><text x="2102" y="1042.0" font-size="14" fill="white" font-family="monospace" dominant-baseline="initial">33</text><rect x="1904" y="977.5" width="188" height="1" fill="white" fill-opacity="0.2" /><rect x="1904" y="913.5" width="188" height="1" fill="white" fill-opacity="0.2" /><rect x="1904" y="849.0" width="188" height="1" fill="white" fill-opacity="0.2" /><rect x="1904" y="785.0" width="188" height="1" fill="white" fill-opacity="0.5" /><text x="2102" y="785.0" font-size="14" fill="white" font-family="monospace" dominant-baseline="initial">34</text><rect x="1904" y="720.5" width="188" height="1" fill="white" fill-opacity="0.2" /><rect x="1904" y="656.0" width="188" height="1" fill="white" fill-opacity="0.2" /><rect x="1904" y="592.0" width="188" height="1" fill="white" fill-opacity="0.2" /><rect x="1904" y="527.5" width="188" height="1" fill="white" fill-opacity="0.5" /><text x="2102" y="527.5" font-size="14" fill="white" font-family="monospace" dominant-baseline="initial">35</text><rect x="1904" y="463.5" width="188" height="1" fill="white" fill-opacity="0.2" /><rect x="1904" y="399.0" width="188" height="1" fill="white" fill-opacity="0.2" /><rect x="1904" y="335.0" width="188" height="1" fill="white" fill-opacity="0.2" /><rect x="1904" y="270.5" width="188" height="1" fill="white" fill-opacity="0.5" /><text x="2102" y="270.5" font-size="14" fill="white" font-family="monospace" dominant-baseline="initial">36</text><rect x="1904" y="206.0" width="188" height="1" fill="white" fill-opacity="0.2" /><rect x="1904" y="142.0" width="188" height="1" fill="white" fill-opacity="0.2" /><rect x="1904" y="77.5" width="188" height="1" fill="white" fill-opacity="0.2" /><rect x="1904" y="13.5" width="188" height="1" fill="white" fill-opacity="0.5" /><text x="2102" y="13.5" font-size="14" fill="white" font-family="monospace" dominant-baseline="initial">37</text><rect x="1904" y="270.5" width="188" height="1" fill="aqua" fill-opacity="0.75" /><text x="1904" y="266.5" font-size="14" fill="aqua" fill-opacity="0.75" font-family="monospace">Solo</text><rect x="2142" y="14.5" width="188" height="1028.5" fill="black" /><rect x="2142" y="1042.0" width="188" height="1" fill="white" fill-opacity="0.5" /><text x="2340" y="1042.0" font-size="14" fill="white" font-family="monospace" dominant-baseline="initial">37</text><rect x="2142" y="977.5" width="188" height="1" fill="white" fill-opacity="0.2" /><rect x="2142" y="913.5" width="188" height="1" fill="white" fill-opacity="0.2" /><rect x="2142" y="849.0" width="188" height="1" fill="white" fill-opacity="0.2" /><rect x="2142" y="784.5" width="188" height="1" fill="white" fill-opacity="0.5" /><text x="2340" y="784.5" font-size="14" fill="white" font-family="monospace" dominant-baseline="initial">38</text><rect x="2142" y="720.5" width="188" height="1" fill="white" fill-opacity="0.2" /><rect x="2142" y="656.0" width="188" height="1" fill="white" fill-opacity="0.2" /><rect x="2142" y="592.0" width="188" height="1" fill="white" fill-opacity="0.2" /><rect x="2142" y="527.5" width="188" height="1" fill="white" fill-opacity="0.5" /><text x="2340" y="527.5" font-size="14" fill="white" font-family="monospace" dominant-baseline="initial">39</text><rect x="2142" y="463.5" width="188" height="1" fill="white" fill-opacity="0.2" /><rect x="2142" y="399.0" width="188" height="1" fill="white" fill-opacity="0.2" /><rect x="2142" y="334.5" width="188" height="1" fill="white" fill-opacity="0.2" /><rect x="2142" y="270.5" width="188" height="1" fill="white" fill-opacity="0.5" /><text x="2340" y="270.5" font-size="14" fill="white" font-family="monospace" dominant-baseline="initial">40</text><rect x="2142" y="206.0" width="188" height="1" fill="white" fill-opacity="0.2" /><rect x="2142" y="142.0" width="188" height="1" fill="white" fill-opacity="0.2" /><rect x="2142" y="77.5" width="188" height="1" fill="white" fill-opacity="0.2" /><rect x="2142" y="13.5" width="188" height="1" fill="white" fill-opacity="0.5" /><text x="2340" y="13.5" font-size="14" fill="white" font-family="monospace" dominant-baseline="initial">41</text><rect x="2380" y="14.0" width="188" height="1029.0" fill="black" /><rect x="2380" y="1042.0" width="188" height="1" fill="white" fill-opacity="0.5" /><text x="2578" y="1042.0" font-size="14" fill="white" font-family="monospace" dominant-baseline="initial">41</text><rect x="2380" y="977.5" width="188" height="1" fill="white" fill-opacity="0.2" /><rect x="2380" y="913.0" width="188" height="1" fill="white" fill-opacity="0.2" /><rect x="2380" y="849.0" width="188" height="1" fill="white" fill-opacity="0.2" /><rect x="2380" y="784.5" width="188" height="1" fill="white" fill-opacity="0.5" /><text x="2578" y="784.5" font-size="14" fill="white" font-family="monospace" dominant-baseline="initial">42</text><rect x="2380" y="720.5" width="188" height="1" fill="white" fill-opacity="0.2" /><rect x="2380" y="656.0" width="188" height="1" fill="white" fill-opacity="0.2" /><rect x="2380" y="592.0" width="188" height="1" fill="white" fill-opacity="0.2" /><rect x="2380" y="527.5" width="188" height="1" fill="white" fill-opacity="0.5" /><text x="2578" y="527.5" font-size="14" fill="white" font-family="monospace" dominant-baseline="initial">43</text><rect x="2380" y="463.0" width="188" height="1" fill="white" fill-opacity="0.2" /><rect x="2380" y="399.0" width="188" height="1" fill="white" fill-opacity="0.2" /><rect x="2380" y="334.5" width="188" height="1" fill="white" fill-opacity="0.2" /><rect x="2380" y="270.5" width="188" height="1" fill="white" fill-opacity="0.5" /><text x="2578" y="270.5" font-size="14" fill="white" font-family="monospace" dominant-baseline="initial">44</text><rect x="2380" y="206.0" width="188" height="1" fill="white" fill-opacity="0.2" /><rect x="2380" y="142.0" width="188" height="1" fill="white" fill-opacity="0.2" /><rect x="2380" y="77.5" width="188" height="1" fill="white" fill-opacity="0.2" /><rect x="2380" y="13.0" width="188" height="1" fill="white" fill-opacity="0.5" /><text x="2578" y="13.0" font-size="14" fill="white" font-family="monospace" dominant-baseline="initial">45</text><rect x="2618" y="14.5" width="188" height="1028.5" fill="black" /><rect x="2618" y="1042.0" width="188" height="1" fill="white" fill-opacity="0.5" /><text x="2816" y="1042.0" font-size="14" fill="white" font-family="monospace" dominant-baseline="initial">45</text><rect x="2618" y="978.0" width="188" height="1" fill="white" fill-opacity="0.2" /><rect x="2618" y="913.5" width="188" height="1" fill="white" fill-opacity="0.2" /><rect x="2618" y="849.5" width="188" height="1" fill="white" fill-opacity="0.2" /><rect x="2618" y="785.0" width="188" height="1" fill="white" fill-opacity="0.5" /><text x="2816" y="785.0" font-size="14" fill="white" font-family="monospace" dominant-baseline="initial">46</text><rect x="2618" y="721.0" width="188" height="1" fill="white" fill-opacity="0.2" /><rect x="2618" y="656.5" width="188" height="1" fill="white" fill-opacity="0.2" /><rect x="2618" y="592.0" width="188" height="1" fill="white" fill-opacity="0.2" /><rect x="2618" y="528.0" width="188" height="1" fill="white" fill-opacity="0.5" /><text x="2816" y="528.0" font-size="14" fill="white" font-family="monospace" dominant-baseline="initial">47</text><rect x="2618" y="463.5" width="188" height="1" fill="white" fill-opacity="0.2" /><rect x="2618" y="399.5" width="188" height="1" fill="white" fill-opacity="0.2" /><rect x="2618" y="335.0" width="188" height="1" fill="white" fill-opacity="0.2" /><rect x="2618" y="271.0" width="188" height="1" fill="white" fill-opacity="0.5" /><text x="2816" y="271.0" font-size="14" fill="white" font-family="monospace" dominant-baseline="initial">48</text><rect x="2618" y="206.5" width="188" height="1" fill="white" fill-opacity="0.2" /><rect x="2618" y="142.0" width="188" height="1" fill="white" fill-opacity="0.2" /><rect x="2618" y="78.0" width="188" height="1" fill="white" fill-opacity="0.2" /><rect x="2618" y="13.5" width="188" height="1" fill="white" fill-opacity="0.5" /><text x="2816" y="13.5" font-size="14" fill="white" font-family="monospace" dominant-baseline="initial">49</text><rect x="2856" y="14.5" width="188" height="1028.5" fill="black" /><rect x="2856" y="1042.0" width="188" height="1" fill="white" fill-opacity="0.5" /><text x="3054" y="1042.0" font-size="14" fill="white" font-family="monospace" dominant-baseline="initial">49</text><rect x="2856" y="978.0" width="188" height="1" fill="white" fill-opacity="0.2" /><rect x="2856" y="913.5" width="188" height="1" fill="white" fill-opacity="0.2" /><rect x="2856" y="849.5" width="188" height="1" fill="white" fill-opacity="0.2" /><rect x="2856" y="785.0" width="188" height="1" fill="white" fill-opacity="0.5" /><text x="3054" y="785.0" font-size="14" fill="white" font-family="monospace" dominant-baseline="initial">50</text><rect x="2856" y="720.5" width="188" height="1" fill="white" fill-opacity="0.2" /><rect x="2856" y="656.5" width="188" height="1" fill="white" fill-opacity="0.2" /><rect x="2856" y="592.0" width="188" height="1" fill="white" fill-opacity="0.2" /><rect x="2856" y="528.0" width="188" height="1" fill="white" fill-opacity="0.5" /><text x="3054" y="528.0" font-size="14" fill="white" font-family="monospace" dominant-baseline="initial">51</text><rect x="2856" y="463.5" width="188" height="1" fill="white" fill-opacity="0.2" /><rect x="2856" y="399.5" width="188" height="1" fill="white" fill-opacity="0.2" /><rect x="2856" y="335.0" width="188" height="1" fill="white" fill-opacity="0.2" /><rect x="2856" y="270.5" width="188" height="1" fill="white" fill-opacity="0.5" /><text x="3054" y="270.5" font-size="14" fill="white" font-family="monospace" dominant-baseline="initial">52</text><rect x="2856" y="206.5" width="188" height="1" fill="white" fill-opacity="0.2" /><rect x="2856" y="142.0" width="188" height="1" fill="white" fill-opacity="0.2" /><rect x="2856" y="78.0" width="188" height="1" fill="white" fill-opacity="0.2" /><rect x="2856" y="13.5" width="188" height="1" fill="white" fill-opacity="0.5" /><text x="3054" y="13.5" font-size="14" fill="white" font-family="monospace" dominant-baseline="initial">53</text><rect x="2856" y="1042.1000000000004" width="188" height="1" fill="aqua" fill-opacity="0.75" /><text x="2856" y="1038.1000000000004" font-size="14" fill="aqua" fill-opacity="0.75" font-family="monospace">Special</text><rect x="3094" y="14.5" width="188" height="1028.5" fill="black" /><rect x="3094" y="1042.0" width="188" height="1" fill="white" fill-opacity="0.5" /><text x="3292" y="1042.0" font-size="14" fill="white" font-family="monospace" dominant-baseline="initial">53</text><rect x="3094" y="978.0" width="188" height="1" fill="white" fill-opacity="0.2" /><rect x="3094" y="913.5" width="188" height="1" fill="white" fill-opacity="0.2" /><rect x="3094" y="849.0" width="188" height="1" fill="white" fill-opacity="0.2" /><rect x="3094" y="785.0" width="188" height="1" fill="white" fill-opacity="0.5" /><text x="3292" y="785.0" font-size="14" fill="white" font-family="monospace" dominant-baseline="initial">54</text><rect x="3094" y="720.5" width="188" height="1" fill="white" fill-opacity="0.2" /><rect x="3094" y="656.5" width="188" height="1" fill="white" fill-opacity="0.2" /><rect x="3094" y="592.0" width="188" height="1" fill="white" fill-opacity="0.2" /><rect x="3094" y="528.0" width="188" height="1" fill="white" fill-opacity="0.5" /><text x="3292" y="528.0" font-size="14" fill="white" font-family="monospace" dominant-baseline="initial">55</text><rect x="3094" y="463.5" width="188" height="1" fill="white" fill-opacity="0.2" /><rect x="3094" y="399.0" width="188" height="1" fill="white" fill-opacity="0.2" /><rect x="3094" y="335.0" width="188" height="1" fill="white" fill-opacity="0.2" /><rect x="3094" y="270.5" width="188" height="1" fill="white" fill-opacity="0.5" /><text x="3292" y="270.5" font-size="14" fill="white" font-family="monospace" dominant-baseline="initial">56</text><rect x="3094" y="206.5" width="188" height="1" fill="white" fill-opacity="0.2" /><rect x="3094" y="142.0" width="188" height="1" fill="white" fill-opacity="0.2" /><rect x="3094" y="78.0" width="188" height="1" fill="white" fill-opacity="0.2" /><rect x="3094" y="13.5" width="188" height="1" fill="white" fill-opacity="0.5" /><text x="3292" y="13.5" font-size="14" fill="white" font-family="monospace" dominant-baseline="initial">57</text><rect x="3332" y="14.5" width="188" height="1028.5" fill="black" /><rect x="3332" y="1042.0" width="188" height="1" fill="white" fill-opacity="0.5" /><text x="3530" y="1042.0" font-size="14" fill="white" font-family="monospace" dominant-baseline="initial">57</text><rect x="3332" y="977.5" width="188" height="1" fill="white" fill-opacity="0.2" /><rect x="3332" y="913.5" width="188" height="1" fill="white" fill-opacity="0.2" /><rect x="3332" y="849.0" width="188" height="1" fill="white" fill-opacity="0.2" /><rect x="3332" y="785.0" width="188" height="1" fill="white" fill-opacity="0.5" /><text x="3530" y="785.0" font-size="14" fill="white" font-family="monospace" dominant-baseline="initial">58</text><rect x="3332" y="720.5" width="188" height="1" fill="white" fill-opacity="0.2" /><rect x="3332" y="656.5" width="188" height="1" fill="white" fill-opacity="0.2" /><rect x="3332" y="592.0" width="188" height="1" fill="white" fill-opacity="0.2" /><rect x="3332" y="527.5" width="188" height="1" fill="white" fill-opacity="0.5" /><text x="3530" y="527.5" font-size="14" fill="white" font-family="monospace" dominant-baseline="initial">59</text><rect x="3332" y="463.5" width="188" height="1" fill="white" fill-opacity="0.2" /><rect x="3332" y="399.0" width="188" height="1" fill="white" fill-opacity="0.2" /><rect x="3332" y="335.0" width="188" height="1" fill="white" fill-opacity="0.2" /><rect x="3332" y="270.5" width="188" height="1" fill="white" fill-opacity="0.5" /><text x="3530" y="270.5" font-size="14" fill="white" font-family="monospace" dominant-baseline="initial">60</text><rect x="3332" y="206.5" width="188" height="1" fill="white" fill-opacity="0.2" /><rect x="3332" y="142.0" width="188" height="1" fill="white" fill-opacity="0.2" /><rect x="3332" y="77.5" width="188" height="1" fill="white" fill-opacity="0.2" /><rect x="3332" y="13.5" width="188" height="1" fill="white" fill-opacity="0.5" /><text x="3530" y="13.5" font-size="14" fill="white" font-family="monospace" dominant-baseline="initial">61</text><rect x="3570" y="14.5" width="188" height="1028.5" fill="black" /><rect x="3570" y="1042.0" width="188" height="1" fill="white" fill-opacity="0.5" /><text x="3768" y="1042.0" font-size="14" fill="white" font-family="monospace" dominant-baseline="initial">61</text><rect x="3570" y="977.5" width="188" height="1" fill="white" fill-opacity="0.2" /><rect x="3570" y="913.5" width="188" height="1" fill="white" fill-opacity="0.2" /><rect x="3570" y="849.0" width="188" height="1" fill="white" fill-opacity="0.2" /><rect x="3570" y="785.0" width="188" height="1" fill="white" fill-opacity="0.5" /><text x="3768" y="785.0" font-size="14" fill="white" font-family="monospace" dominant-baseline="initial">62</text><rect x="3570" y="720.5" width="188" height="1" fill="white" fill-opacity="0.2" /><rect x="3570" y="656.0" width="188" height="1" fill="white" fill-opacity="0.2" /><rect x="3570" y="592.0" width="188" height="1" fill="white" fill-opacity="0.2" /><rect x="3570" y="527.5" width="188" height="1" fill="white" fill-opacity="0.5" /><text x="3768" y="527.5" font-size="14" fill="white" font-family="monospace" dominant-baseline="initial">63</text><rect x="3570" y="463.5" width="188" height="1" fill="white" fill-opacity="0.2" /><rect x="3570" y="399.0" width="188" height="1" fill="white" fill-opacity="0.2" /><rect x="3570" y="335.0" width="188" height="1" fill="white" fill-opacity="0.2" /><rect x="3570" y="270.5" width="188" height="1" fill="white" fill-opacity="0.5" /><text x="3768" y="270.5" font-size="14" fill="white" font-family="monospace" dominant-baseline="initial">64</text><rect x="3570" y="206.0" width="188" height="1" fill="white" fill-opacity="0.2" /><rect x="3570" y="142.0" width="188" height="1" fill="white" fill-opacity="0.2" /><rect x="3570" y="77.5" width="188" height="1" fill="white" fill-opacity="0.2" /><rect x="3570" y="13.5" width="188" height="1" fill="white" fill-opacity="0.5" /><text x="3768" y="13.5" font-size="14" fill="white" font-family="monospace" dominant-baseline="initial">65</text><rect x="3808" y="625.0" width="188" height="418.0" fill="black" /><rect x="3808" y="1042.0" width="188" height="1" fill="white" fill-opacity="0.5" /><text x="4006" y="1042.0" font-size="14" fill="white" font-family="monospace" dominant-baseline="initial">65</text></svg>