<?xml version="1.0" encoding="UTF-8"?><svg xmlns="http://www.w3.org/2000/svg" xmlns:xlink="http://www.w3.org/1999/xlink"     width="4760" height="1347.5" viewBox="0 0 4760 1347.5"><defs></defs><rect x="0" y="14.0" width="188" height="1333.5" fill="black" /><rect x="0" y="1346.5" width="188" height="1" fill="white" fill-opacity="0.5" /><text x="198" y="1346.5" font-size="14" fill="white" font-family="monospace" dominant-baseline="initial">1</text><rect x="0" y="1263.0" width="188" height="1" fill="white" fill-opacity="0.2" /><rect x="0" y="1180.0" width="188" height="1" fill="white" fill-opacity="0.2" /><rect x="0" y="1096.5" width="188" height="1" fill="white" fill-opacity="0.2" /><rect x="0" y="1013.0" width="188" height="1" fill="white" fill-opacity="0.5" /><text x="198" y="1013.0" font-size="14" fill="white" font-family="monospace" dominant-baseline="initial">2</text><rect x="0" y="930.0" width="188" height="1" fill="white" fill-opacity="0.2" /><rect x="0" y="846.5" width="188" height="1" fill="white" fill-opacity="0.2" /><rect x="0" y="763.0" width="188" height="1" fill="white" fill-opacity="0.2" /><rect x="0" y="680.0" width="188" height="1" fill="white" fill-opacity="0.5" /><text x="198" y="680.0" font-size="14" fill="white" font-family="monospace" dominant-baseline="initial">3</text><rect x="0" y="596.5" width="188" height="1" fill="white" fill-opacity="0.2" /><rect x="0" y="513.0" width="188" height="1" fill="white" fill-opacity="0.2" /><rect x="0" y="430.0" width="188" height="1" fill="white" fill-opacity="0.2" /><rect x="0" y="346.5" width="188" height="1" fill="white" fill-opacity="0.5" /><text x="198" y="346.5" font-size="14" fill="white" font-family="monospace" dominant-baseline="initial">4</text><rect x="0" y="263.0" width="188" height="1" fill="white" fill-opacity="0.2" /><rect x="0" y="180.0" width="188" height="1" fill="white" fill-opacity="0.2" /><rect x="0" y="96.5" width="188" height="1" fill="white" fill-opacity="0.2" /><rect x="0" y="13.0" width="188" height="1" fill="white" fill-opacity="0.5" /><text x="198" y="13.0" font-size="14" fill="white" font-family="monospace" dominant-baseline="initial">5</text><rect x="0" y="1346.5" width="188" height="1" fill="aqua" fill-opacity="0.75" /><text x="0" y="1342.5" font-size="14" fill="aqua" fill-opacity="0.75" font-family="monospace">Intro</text><rect x="0" y="1346.5" width="188" height="1" fill="lime" fill-opacity="0.75" /><text x="198" y="1333.5" font-size="14" fill="lime" font-family="monospace" dominant-baseline="initial">108</text><rect x="238" y="152.0" width="188" height="1195.5" fill="black" /><rect x="238" y="1346.5" width="188" height="1" fill="white" fill-opacity="0.5" /><text x="436" y="1346.5" font-size="14" fill="white" font-family="monospace" dominant-baseline="initial">5</text><rect x="238" y="1263.5" width="188" height="1" fill="white" fill-opacity="0.2" /><rect x="238" y="1180.0" width="188" height="1" fill="white" fill-opacity="0.2" /><rect x="238" y="1096.5" width="188" height="1" fill="white" fill-opacity="0.2" /><rect x="238" y="1013.5" width="188" height="1" fill="white" fill-opacity="0.5" /><text x="436" y="1013.5" font-size="14" fill="white" font-family="monospace" dominant-baseline="initial">6</text><rect x="238" y="930.0" width="188" height="1" fill="white" fill-opacity="0.2" /><rect x="238" y="846.5" width="188" height="1" fill="white" fill-opacity="0.2" /><rect x="238" y="763.5" width="188" height="1" fill="white" fill-opacity="0.2" /><rect x="238" y="680.0" width="188" height="1" fill="white" fill-opacity="0.5" /><text x="436" y="680.0" font-size="14" fill="white" font-family="monospace" dominant-baseline="initial">7</text><rect x="238" y="596.5" width="188" height="1" fill="white" fill-opacity="0.2" /><rect x="238" y="513.5" width="188" height="1" fill="white" fill-opacity="0.2" /><rect x="238" y="430.0" width="188" height="1" fill="white" fill-opacity="0.2" /><rect x="238" y="346.5" width="188" height="1" fill="white" fill-opacity="0.5" /><text x="436" y="346.5" font-size="14" fill="white" font-family="monospace" dominant-baseline="initial">8</text><rect x="238" y="298.0" width="188" height="1" fill="white" fill-opacity="0.2" /><rect x="238" y="249.0" width="188" height="1" fill="white" fill-opacity="0.2" /><rect x="238" y="200.0" width="188" height="1" fill="white" fill-opacity="0.2" /><rect x="238" y="151.0" width="188" height="1" fill="white" fill-opacity="0.5" /><text x="436" y="151.0" font-size="14" fill="white" font-family="monospace" dominant-baseline="initial">9</text><rect x="238" y="346.5999999999999" width="188" height="1" fill="aqua" fill-opacity="0.75" /><text x="238" y="342.5999999999999" font-size="14" fill="aqua" fill-opacity="0.75" font-family="monospace">Phrase A</text><rect x="238" y="346.5" width="188" height="1" fill="lime" fill-opacity="0.75" /><text x="436" y="333.5" font-size="14" fill="lime" font-family="monospace" dominant-baseline="initial">184</text><rect x="476" y="565.0" width="188" height="782.5" fill="black" /><rect x="476" y="1346.5" width="188" height="1" fill="white" fill-opacity="0.5" /><text x="674" y="1346.5" font-size="14" fill="white" font-family="monospace" dominant-baseline="initial">9</text><rect x="476" y="1297.5" width="188" height="1" fill="white" fill-opacity="0.2" /><rect x="476" y="1248.5" width="188" height="1" fill="white" fill-opacity="0.2" /><rect x="476" y="1200.0" width="188" height="1" fill="white" fill-opacity="0.2" /><rect x="476" y="1151.0" width="188" height="1" fill="white" fill-opacity="0.5" /><text x="674" y="1151.0" font-size="14" fill="white" font-family="monospace" dominant-baseline="initial">10</text><rect x="476" y="1102.0" width="188" height="1" fill="white" fill-opacity="0.2" /><rect x="476" y="1053.0" width="188" height="1" fill="white" fill-opacity="0.2" /><rect x="476" y="1004.0" width="188" height="1" fill="white" fill-opacity="0.2" /><rect x="476" y="955.0" width="188" height="1" fill="white" fill-opacity="0.5" /><text x="674" y="955.0" font-size="14" fill="white" font-family="monospace" dominant-baseline="initial">11</text><rect x="476" y="906.5" width="188" height="1" fill="white" fill-opacity="0.2" /><rect x="476" y="857.5" width="188" height="1" fill="white" fill-opacity="0.2" /><rect x="476" y="808.5" width="188" height="1" fill="white" fill-opacity="0.2" /><rect x="476" y="759.5" width="188" height="1" fill="white" fill-opacity="0.5" /><text x="674" y="759.5" font-size="14" fill="white" font-family="monospace" dominant-baseline="initial">12</text><rect x="476" y="710.5" width="188" height="1" fill="white" fill-opacity="0.2" /><rect x="476" y="661.5" width="188" height="1" fill="white" fill-opacity="0.2" /><rect x="476" y="613.0" width="188" height="1" fill="white" fill-opacity="0.2" /><rect x="476" y="564.0" width="188" height="1" fill="white" fill-opacity="0.5" /><text x="674" y="564.0" font-size="14" fill="white" font-family="monospace" dominant-baseline="initial">13</text><rect x="714" y="565.0" width="188" height="782.5" fill="black" /><rect x="714" y="1346.5" width="188" height="1" fill="white" fill-opacity="0.5" /><text x="912" y="1346.5" font-size="14" fill="white" font-family="monospace" dominant-baseline="initial">13</text><rect x="714" y="1297.5" width="188" height="1" fill="white" fill-opacity="0.2" /><rect x="714" y="1248.5" width="188" height="1" fill="white" fill-opacity="0.2" /><rect x="714" y="1199.5" width="188" height="1" fill="white" fill-opacity="0.2" /><rect x="714" y="1151.0" width="188" height="1" fill="white" fill-opacity="0.5" /><text x="912" y="1151.0" font-size="14" fill="white" font-family="monospace" dominant-baseline="initial">14</text><rect x="714" y="1102.0" width="188" height="1" fill="white" fill-opacity="0.2" /><rect x="714" y="1053.0" width="188" height="1" fill="white" fill-opacity="0.2" /><rect x="714" y="1004.0" width="188" height="1" fill="white" fill-opacity="0.2" /><rect x="714" y="955.0" width="188" height="1" fill="white" fill-opacity="0.5" /><text x="912" y="955.0" font-size="14" fill="white" font-family="monospace" dominant-baseline="initial">15</text><rect x="714" y="906.0" width="188" height="1" fill="white" fill-opacity="0.2" /><rect x="714" y="857.5" width="188" height="1" fill="white" fill-opacity="0.2" /><rect x="714" y="808.5" width="188" height="1" fill="white" fill-opacity="0.2" /><rect x="714" y="759.5" width="188" height="1" fill="white" fill-opacity="0.5" /><text x="912" y="759.5" font-size="14" fill="white" font-family="monospace" dominant-baseline="initial">16</text><rect x="714" y="710.5" width="188" height="1" fill="white" fill-opacity="0.2" /><rect x="714" y="661.5" width="188" height="1" fill="white" fill-opacity="0.2" /><rect x="714" y="612.5" width="188" height="1" fill="white" fill-opacity="0.2" /><rect x="714" y="564.0" width="188" height="1" fill="white" fill-opacity="0.5" /><text x="912" y="564.0" font-size="14" fill="white" font-family="monospace" dominant-baseline="initial">17</text><rect x="714" y="759.5" width="188" height="1" fill="aqua" fill-opacity="0.75" /><text x="714" y="755.5" font-size="14" fill="aqua" fill-opacity="0.75" font-family="monospace">Phrase B</text><rect x="952" y="564.5" width="188" height="783.0" fill="black" /><rect x="952" y="1346.5" width="188" height="1" fill="white" fill-opacity="0.5" /><text x="1150" y="1346.5" font-size="14" fill="white" font-family="monospace" dominant-baseline="initial">17</text><rect x="952" y="1297.5" width="188" height="1" fill="white" fill-opacity="0.2" /><rect x="952" y="1248.5" width="188" height="1" fill="white" fill-opacity="0.2" /><rect x="952" y="1199.5" width="188" height="1" fill="white" fill-opacity="0.2" /><rect x="952" y="1150.5" width="188" height="1" fill="white" fill-opacity="0.5" /><text x="1150" y="1150.5" font-size="14" fill="white" font-family="monospace" dominant-baseline="initial">18</text><rect x="952" y="1101.5" width="188" height="1" fill="white" fill-opacity="0.2" /><rect x="952" y="1053.0" width="188" height="1" fill="white" fill-opacity="0.2" /><rect x="952" y="1004.0" width="188" height="1" fill="white" fill-opacity="0.2" /><rect x="952" y="955.0" width="188" height="1" fill="white" fill-opacity="0.5" /><text x="1150" y="955.0" font-size="14" fill="white" font-family="monospace" dominant-baseline="initial">19</text><rect x="952" y="906.0" width="188" height="1" fill="white" fill-opacity="0.2" /><rect x="952" y="857.0" width="188" height="1" fill="white" fill-opacity="0.2" /><rect x="952" y="808.5" width="188" height="1" fill="white" fill-opacity="0.2" /><rect x="952" y="759.5" width="188" height="1" fill="white" fill-opacity="0.5" /><text x="1150" y="759.5" font-size="14" fill="white" font-family="monospace" dominant-baseline="initial">20</text><rect x="952" y="710.5" width="188" height="1" fill="white" fill-opacity="0.2" /><rect x="952" y="661.5" width="188" height="1" fill="white" fill-opacity="0.2" /><rect x="952" y="612.5" width="188" height="1" fill="white" fill-opacity="0.2" /><rect x="952" y="563.5" width="188" height="1" fill="white" fill-opacity="0.5" /><text x="1150" y="563.5" font-size="14" fill="white" font-family="monospace" dominant-baseline="initial">21</text><rect x="1190" y="565.0" width="188" height="782.5" fill="black" /><rect x="1190" y="1346.5" width="188" height="1" fill="white" fill-opacity="0.5" /><text x="1388" y="1346.5" font-size="14" fill="white" font-family="monospace" dominant-baseline="initial">21</text><rect x="1190" y="1298.0" width="188" height="1" fill="white" fill-opacity="0.2" /><rect x="1190" y="1249.0" width="188" height="1" fill="white" fill-opacity="0.2" /><rect x="1190" y="1200.0" width="188" height="1" fill="white" fill-opacity="0.2" /><rect x="1190" y="1151.0" width="188" height="1" fill="white" fill-opacity="0.5" /><text x="1388" y="1151.0" font-size="14" fill="white" font-family="monospace" dominant-baseline="initial">22</text><rect x="1190" y="1102.0" width="188" height="1" fill="white" fill-opacity="0.2" /><rect x="1190" y="1053.0" width="188" height="1" fill="white" fill-opacity="0.2" /><rect x="1190" y="1004.5" width="188" height="1" fill="white" fill-opacity="0.2" /><rect x="1190" y="955.5" width="188" height="1" fill="white" fill-opacity="0.5" /><text x="1388" y="955.5" font-size="14" fill="white" font-family="monospace" dominant-baseline="initial">23</text><rect x="1190" y="906.5" width="188" height="1" fill="white" fill-opacity="0.2" /><rect x="1190" y="857.5" width="188" height="1" fill="white" fill-opacity="0.2" /><rect x="1190" y="808.5" width="188" height="1" fill="white" fill-opacity="0.2" /><rect x="1190" y="759.5" width="188" height="1" fill="white" fill-opacity="0.5" /><text x="1388" y="759.5" font-size="14" fill="white" font-family="monospace" dominant-baseline="initial">24</text><rect x="1190" y="711.0" width="188" height="1" fill="white" fill-opacity="0.2" /><rect x="1190" y="662.0" width="188" height="1" fill="white" fill-opacity="0.2" /><rect x="1190" y="613.0" width="188" height="1" fill="white" fill-opacity="0.2" /><rect x="1190" y="564.0" width="188" height="1" fill="white" fill-opacity="0.5" /><text x="1388" y="564.0" font-size="14" fill="white" font-family="monospace" dominant-baseline="initial">25</text><rect x="1190" y="759.75" width="188" height="1" fill="aqua" fill-opacity="0.75" /><text x="1190" y="755.75" font-size="14" fill="aqua" fill-opacity="0.75" font-family="monospace">Phrase C</text><rect x="1428" y="565.0" width="188" height="782.5" fill="black" /><rect x="1428" y="1346.5" width="188" height="1" fill="white" fill-opacity="0.5" /><text x="1626" y="1346.5" font-size="14" fill="white" font-family="monospace" dominant-baseline="initial">25</text><rect x="1428" y="1297.5" width="188" height="1" fill="white" fill-opacity="0.2" /><rect x="1428" y="1249.0" width="188" height="1" fill="white" fill-opacity="0.2" /><rect x="1428" y="1200.0" width="188" height="1" fill="white" fill-opacity="0.2" /><rect x="1428" y="1151.0" width="188" height="1" fill="white" fill-opacity="0.5" /><text x="1626" y="1151.0" font-size="14" fill="white" font-family="monospace" dominant-baseline="initial">26</text><rect x="1428" y="1102.0" width="188" height="1" fill="white" fill-opacity="0.2" /><rect x="1428" y="1053.0" width="188" height="1" fill="white" fill-opacity="0.2" /><rect x="1428" y="1004.0" width="188" height="1" fill="white" fill-opacity="0.2" /><rect x="1428" y="955.5" width="188" height="1" fill="white" fill-opacity="0.5" /><text x="1626" y="955.5" font-size="14" fill="white" font-family="monospace" dominant-baseline="initial">27</text><rect x="1428" y="906.5" width="188" height="1" fill="white" fill-opacity="0.2" /><rect x="1428" y="857.5" width="188" height="1" fill="white" fill-opacity="0.2" /><rect x="1428" y="808.5" width="188" height="1" fill="white" fill-opacity="0.2" /><rect x="1428" y="759.5" width="188" height="1" fill="white" fill-opacity="0.5" /><text x="1626" y="759.5" font-size="14" fill="white" font-family="monospace" dominant-baseline="initial">28</text><rect x="1428" y="710.5" width="188" height="1" fill="white" fill-opacity="0.2" /><rect x="1428" y="662.0" width="188" height="1" fill="white" fill-opacity="0.2" /><rect x="1428" y="613.0" width="188" height="1" fill="white" fill-opacity="0.2" /><rect x="1428" y="564.0" width="188" height="1" fill="white" fill-opacity="0.5" /><text x="1626" y="564.0" font-size="14" fill="white" font-family="monospace" dominant-baseline="initial">29</text><rect x="1666" y="565.0" width="188" height="782.5" fill="black" /><rect x="1666" y="1346.5" width="188" height="1" fill="white" fill-opacity="0.5" /><text x="1864" y="1346.5" font-size="14" fill="white" font-family="monospace" dominant-baseline="initial">29</text><rect x="1666" y="1297.5" width="188" height="1" fill="white" fill-opacity="0.2" /><rect x="1666" y="1248.5" width="188" height="1" fill="white" fill-opacity="0.2" /><rect x="1666" y="1199.5" width="188" height="1" fill="white" fill-opacity="0.2" /><rect x="1666" y="1151.0" width="188" height="1" fill="white" fill-opacity="0.5" /><text x="1864" y="1151.0" font-size="14" fill="white" font-family="monospace" dominant-baseline="initial">30</text><rect x="1666" y="1102.0" width="188" height="1" fill="white" fill-opacity="0.2" /><rect x="1666" y="1053.0" width="188" height="1" fill="white" fill-opacity="0.2" /><rect x="1666" y="1004.0" width="188" height="1" fill="white" fill-opacity="0.2" /><rect x="1666" y="955.0" width="188" height="1" fill="white" fill-opacity="0.5" /><text x="1864" y="955.0" font-size="14" fill="white" font-family="monospace" dominant-baseline="initial">31</text><rect x="1666" y="906.5" width="188" height="1" fill="white" fill-opacity="0.2" /><rect x="1666" y="857.5" width="188" height="1" fill="white" fill-opacity="0.2" /><rect x="1666" y="808.5" width="188" height="1" fill="white" fill-opacity="0.2" /><rect x="1666" y="759.5" width="188" height="1" fill="white" fill-opacity="0.5" /><text x="1864" y="759.5" font-size="14" fill="white" font-family="monospace" dominant-baseline="initial">32</text><rect x="1666" y="710.5" width="188" height="1" fill="white" fill-opacity="0.2" /><rect x="1666" y="661.5" width="188" height="1" fill="white" fill-opacity="0.2" /><rect x="1666" y="613.0" width="188" height="1" fill="white" fill-opacity="0.2" /><rect x="1666" y="564.0" width="188" height="1" fill="white" fill-opacity="0.5" /><text x="1864" y="564.0" font-size="14" fill="white" font-family="monospace" dominant-baseline="initial">33</text><rect x="1666" y="759.5" width="188" height="1" fill="aqua" fill-opacity="0.75" /><text x="1666" y="755.5" font-size="14" fill="aqua" fill-opacity="0.75" font-family="monospace">Phrase D</text><rect x="1904" y="565.0" width="188" height="782.5" fill="black" /><rect x="1904" y="1346.5" width="188" height="1" fill="white" fill-opacity="0.5" /><text x="2102" y="1346.5" font-size="14" fill="white" font-family="monospace" dominant-baseline="initial">33</text><rect x="1904" y="1297.5" width="188" height="1" fill="white" fill-opacity="0.2" /><rect x="1904" y="1248.5" width="188" height="1" fill="white" fill-opacity="0.2" /><rect x="1904" y="1199.5" width="188" height="1" fill="white" fill-opacity="0.2" /><rect x="1904" y="1150.5" width="188" height="1" fill="white" fill-opacity="0.5" /><text x="2102" y="1150.5" font-size="14" fill="white" font-family="monospace" dominant-baseline="initial">34</text><rect x="1904" y="1102.0" width="188" height="1" fill="white" fill-opacity="0.2" /><rect x="1904" y="1053.0" width="188" height="1" fill="white" fill-opacity="0.2" /><rect x="1904" y="1004.0" width="188" height="1" fill="white" fill-opacity="0.2" /><rect x="1904" y="955.0" width="188" height="1" fill="white" fill-opacity="0.5" /><text x="2102" y="955.0" font-size="14" fill="white" font-family="monospace" dominant-baseline="initial">35</text><rect x="1904" y="906.0" width="188" height="1" fill="white" fill-opacity="0.2" /><rect x="1904" y="857.0" width="188" height="1" fill="white" fill-opacity="0.2" /><rect x="1904" y="808.5" width="188" height="1" fill="white" fill-opacity="0.2" /><rect x="1904" y="759.5" width="188" height="1" fill="white" fill-opacity="0.5" /><text x="2102" y="759.5" font-size="14" fill="white" font-family="monospace" dominant-baseline="initial">36</text><rect x="1904" y="710.5" width="188" height="1" fill="white" fill-opacity="0.2" /><rect x="1904" y="661.5" width="188" height="1" fill="white" fill-opacity="0.2" /><rect x="1904" y="612.5" width="188" height="1" fill="white" fill-opacity="0.2" /><rect x="1904" y="564.0" width="188" height="1" fill="white" fill-opacity="0.5" /><text x="2102" y="564.0" font-size="14" fill="white" font-family="monospace" dominant-baseline="initial">37</text><rect x="2142" y="564.5" width="188" height="783.0" fill="black" /><rect x="2142" y="1346.5" width="188" height="1" fill="white" fill-opacity="0.5" /><text x="2340" y="1346.5" font-size="14" fill="white" font-family="monospace" dominant-baseline="initial">37</text><rect x="2142" y="1297.5" width="188" height="1" fill="white" fill-opacity="0.2" /><rect x="2142" y="1248.5" width="188" height="1" fill="white" fill-opacity="0.2" /><rect x="2142" y="1199.5" width="188" height="1" fill="white" fill-opacity="0.2" /><rect x="2142" y="1150.5" width="188" height="1" fill="white" fill-opacity="0.5" /><text x="2340" y="1150.5" font-size="14" fill="white" font-family="monospace" dominant-baseline="initial">38</text><rect x="2142" y="1101.5" width="188" height="1" fill="white" fill-opacity="0.2" /><rect x="2142" y="1053.0" width="188" height="1" fill="white" fill-opacity="0.2" /><rect x="2142" y="1004.0" width="188" height="1" fill="white" fill-opacity="0.2" /><rect x="2142" y="955.0" width="188" height="1" fill="white" fill-opacity="0.5" /><text x="2340" y="955.0" font-size="14" fill="white" font-family="monospace" dominant-baseline="initial">39</text><rect x="2142" y="906.0" width="188" height="1" fill="white" fill-opacity="0.2" /><rect x="2142" y="857.0" width="188" height="1" fill="white" fill-opacity="0.2" /><rect x="2142" y="808.0" width="188" height="1" fill="white" fill-opacity="0.2" /><rect x="2142" y="759.5" width="188" height="1" fill="white" fill-opacity="0.5" /><text x="2340" y="759.5" font-size="14" fill="white" font-family="monospace" dominant-baseline="initial">40</text><rect x="2142" y="710.5" width="188" height="1" fill="white" fill-opacity="0.2" /><rect x="2142" y="661.5" width="188" height="1" fill="white" fill-opacity="0.2" /><rect x="2142" y="612.5" width="188" height="1" fill="white" fill-opacity="0.2" /><rect x="2142" y="563.5" width="188" height="1" fill="white" fill-opacity="0.5" /><text x="2340" y="563.5" font-size="14" fill="white" font-family="monospace" dominant-baseline="initial">41</text><rect x="2380" y="565.0" width="188" height="782.5" fill="black" /><rect x="2380" y="1346.5" width="188" height="1" fill="white" fill-opacity="0.5" /><text x="2578" y="1346.5" font-size="14" fill="white" font-family="monospace" dominant-baseline="initial">41</text><rect x="2380" y="1298.0" width="188" height="1" fill="white" fill-opacity="0.2" /><rect x="2380" y="1249.0" width="188" height="1" fill="white" fill-opacity="0.2" /><rect x="2380" y="1200.0" width="188" height="1" fill="white" fill-opacity="0.2" /><rect x="2380" y="1151.0" width="188" height="1" fill="white" fill-opacity="0.5" /><text x="2578" y="1151.0" font-size="14" fill="white" font-family="monospace" dominant-baseline="initial">42</text><rect x="2380" y="1102.0" width="188" height="1" fill="white" fill-opacity="0.2" /><rect x="2380" y="1053.0" width="188" height="1" fill="white" fill-opacity="0.2" /><rect x="2380" y="1004.5" width="188" height="1" fill="white" fill-opacity="0.2" /><rect x="2380" y="955.5" width="188" height="1" fill="white" fill-opacity="0.5" /><text x="2578" y="955.5" font-size="14" fill="white" font-family="monospace" dominant-baseline="initial">43</text><rect x="2380" y="906.5" width="188" height="1" fill="white" fill-opacity="0.2" /><rect x="2380" y="857.5" width="188" height="1" fill="white" fill-opacity="0.2" /><rect x="2380" y="808.5" width="188" height="1" fill="white" fill-opacity="0.2" /><rect x="2380" y="759.5" width="188" height="1" fill="white" fill-opacity="0.5" /><text x="2578" y="759.5" font-size="14" fill="white" font-family="monospace" dominant-baseline="initial">44</text><rect x="2380" y="711.0" width="188" height="1" fill="white" fill-opacity="0.2" /><rect x="2380" y="662.0" width="188" height="1" fill="white" fill-opacity="0.2" /><rect x="2380" y="613.0" width="188" height="1" fill="white" fill-opacity="0.2" /><rect x="2380" y="564.0" width="188" height="1" fill="white" fill-opacity="0.5" /><text x="2578" y="564.0" font-size="14" fill="white" font-family="monospace" dominant-baseline="initial">45</text><rect x="2618" y="565.0" width="188" height="782.5" fill="black" /><rect x="2618" y="1346.5" width="188" height="1" fill="white" fill-opacity="0.5" /><text x="2816" y="1346.5" font-size="14" fill="white" font-family="monospace" dominant-baseline="initial">45</text><rect x="2618" y="1297.5" width="188" height="1" fill="white" fill-opacity="0.2" /><rect x="2618" y="1248.5" width="188" height="1" fill="white" fill-opacity="0.2" /><rect x="2618" y="1200.0" width="188" height="1" fill="white" fill-opacity="0.2" /><rect x="2618" y="1151.0" width="188" height="1" fill="white" fill-opacity="0.5" /><text x="2816" y="1151.0" font-size="14" fill="white" font-family="monospace" dominant-baseline="initial">46</text><rect x="2618" y="1102.0" width="188" height="1" fill="white" fill-opacity="0.2" /><rect x="2618" y="1053.0" width="188" height="1" fill="white" fill-opacity="0.2" /><rect x="2618" y="1004.0" width="188" height="1" fill="white" fill-opacity="0.2" /><rect x="2618" y="955.5" width="188" height="1" fill="white" fill-opacity="0.5" /><text x="2816" y="955.5" font-size="14" fill="white" font-family="monospace" dominant-baseline="initial">47</text><rect x="2618" y="906.5" width="188" height="1" fill="white" fill-opacity="0.2" /><rect x="2618" y="857.5" width="188" height="1" fill="white" fill-opacity="0.2" /><rect x="2618" y="808.5" width="188" height="1" fill="white" fill-opacity="0.2" /><rect x="2618" y="759.5" width="188" height="1" fill="white" fill-opacity="0.5" /><text x="2816" y="759.5" font-size="14" fill="white" font-family="monospace" dominant-baseline="initial">48</text><rect x="2618" y="710.5" width="188" height="1" fill="white" fill-opacity="0.2" /><rect x="2618" y="662.0" width="188" height="1" fill="white" fill-opacity="0.2" /><rect x="2618" y="613.0" width="188" height="1" fill="white" fill-opacity="0.2" /><rect x="2618" y="564.0" width="188" height="1" fill="white" fill-opacity="0.5" /><text x="2816" y="564.0" font-size="14" fill="white" font-family="monospace" dominant-baseline="initial">49</text><rect x="2618" y="759.6499999999996" width="188" height="1" fill="aqua" fill-opacity="0.75" /><text x="2618" y="755.6499999999996" font-size="14" fill="aqua" fill-opacity="0.75" font-family="monospace">Special</text><rect x="2856" y="565.0" width="188" height="782.5" fill="black" /><rect x="2856" y="1346.5" width="188" height="1" fill="white" fill-opacity="0.5" /><text x="3054" y="1346.5" font-size="14" fill="white" font-family="monospace" dominant-baseline="initial">49</text><rect x="2856" y="1297.5" width="188" height="1" fill="white" fill-opacity="0.2" /><rect x="2856" y="1248.5" width="188" height="1" fill="white" fill-opacity="0.2" /><rect x="2856" y="1199.5" width="188" height="1" fill="white" fill-opacity="0.2" /><rect x="2856" y="1151.0" width="188" height="1" fill="white" fill-opacity="0.5" /><text x="3054" y="1151.0" font-size="14" fill="white" font-family="monospace" dominant-baseline="initial">50</text><rect x="2856" y="1102.0" width="188" height="1" fill="white" fill-opacity="0.2" /><rect x="2856" y="1053.0" width="188" height="1" fill="white" fill-opacity="0.2" /><rect x="2856" y="1004.0" width="188" height="1" fill="white" fill-opacity="0.2" /><rect x="2856" y="955.0" width="188" height="1" fill="white" fill-opacity="0.5" /><text x="3054" y="955.0" font-size="14" fill="white" font-family="monospace" dominant-baseline="initial">51</text><rect x="2856" y="906.0" width="188" height="1" fill="white" fill-opacity="0.2" /><rect x="2856" y="857.5" width="188" height="1" fill="white" fill-opacity="0.2" /><rect x="2856" y="808.5" width="188" height="1" fill="white" fill-opacity="0.2" /><rect x="2856" y="759.5" width="188" height="1" fill="white" fill-opacity="0.5" /><text x="3054" y="759.5" font-size="14" fill="white" font-family="monospace" dominant-baseline="initial">52</text><rect x="2856" y="710.5" width="188" height="1" fill="white" fill-opacity="0.2" /><rect x="2856" y="661.5" width="188" height="1" fill="white" fill-opacity="0.2" /><rect x="2856" y="613.0" width="188" height="1" fill="white" fill-opacity="0.2" /><rect x="2856" y="564.0" width="188" height="1" fill="white" fill-opacity="0.5" /><text x="3054" y="564.0" font-size="14" fill="white" font-family="monospace" dominant-baseline="initial">53</text><rect x="3094" y="564.5" width="188" height="783.0" fill="black" /><rect x="3094" y="1346.5" width="188" height="1" fill="white" fill-opacity="0.5" /><text x="3292" y="1346.5" font-size="14" fill="white" font-family="monospace" dominant-baseline="initial">53</text><rect x="3094" y="1297.5" width="188" height="1" fill="white" fill-opacity="0.2" /><rect x="3094" y="1248.5" width="188" height="1" fill="white" fill-opacity="0.2" /><rect x="3094" y="1199.5" width="188" height="1" fill="white" fill-opacity="0.2" /><rect x="3094" y="1150.5" width="188" height="1" fill="white" fill-opacity="0.5" /><text x="3292" y="1150.5" font-size="14" fill="white" font-family="monospace" dominant-baseline="initial">54</text><rect x="3094" y="1102.0" width="188" height="1" fill="white" fill-opacity="0.2" /><rect x="3094" y="1053.0" width="188" height="1" fill="white" fill-opacity="0.2" /><rect x="3094" y="1004.0" width="188" height="1" fill="white" fill-opacity="0.2" /><rect x="3094" y="955.0" width="188" height="1" fill="white" fill-opacity="0.5" /><text x="3292" y="955.0" font-size="14" fill="white" font-family="monospace" dominant-baseline="initial">55</text><rect x="3094" y="906.0" width="188" height="1" fill="white" fill-opacity="0.2" /><rect x="3094" y="857.0" width="188" height="1" fill="white" fill-opacity="0.2" /><rect x="3094" y="808.5" width="188" height="1" fill="white" fill-opacity="0.2" /><rect x="3094" y="759.5" width="188" height="1" fill="white" fill-opacity="0.5" /><text x="3292" y="759.5" font-size="14" fill="white" font-family="monospace" dominant-baseline="initial">56</text><rect x="3094" y="710.5" width="188" height="1" fill="white" fill-opacity="0.2" /><rect x="3094" y="661.5" width="188" height="1" fill="white" fill-opacity="0.2" /><rect x="3094" y="612.5" width="188" height="1" fill="white" fill-opacity="0.2" /><rect x="3094" y="563.5" width="188" height="1" fill="white" fill-opacity="0.5" /><text x="3292" y="563.5" font-size="14" fill="white" font-family="monospace" dominant-baseline="initial">57</text><rect x="3332" y="565.0" width="188" height="782.5" fill="black" /><rect x="3332" y="1346.5" width="188" height="1" fill="white" fill-opacity="0.5" /><text x="3530" y="1346.5" font-size="14" fill="white" font-family="monospace" dominant-baseline="initial">57</text><rect x="3332" y="1298.0" width="188" height="1" fill="white" fill-opacity="0.2" /><rect x="3332" y="1249.0" width="188" height="1" fill="white" fill-opacity="0.2" /><rect x="3332" y="1200.0" width="188" height="1" fill="white" fill-opacity="0.2" /><rect x="3332" y="1151.0" width="188" height="1" fill="white" fill-opacity="0.5" /><text x="3530" y="1151.0" font-size="14" fill="white" font-family="monospace" dominant-baseline="initial">58</text><rect x="3332" y="1102.0" width="188" height="1" fill="white" fill-opacity="0.2" /><rect x="3332" y="1053.5" width="188" height="1" fill="white" fill-opacity="0.2" /><rect x="3332" y="1004.5" width="188" height="1" fill="white" fill-opacity="0.2" /><rect x="3332" y="955.5" width="188" height="1" fill="white" fill-opacity="0.5" /><text x="3530" y="955.5" font-size="14" fill="white" font-family="monospace" dominant-baseline="initial">59</text><rect x="3332" y="906.5" width="188" height="1" fill="white" fill-opacity="0.2" /><rect x="3332" y="857.5" width="188" height="1" fill="white" fill-opacity="0.2" /><rect x="3332" y="808.5" width="188" height="1" fill="white" fill-opacity="0.2" /><rect x="3332" y="760.0" width="188" height="1" fill="white" fill-opacity="0.5" /><text x="3530" y="760.0" font-size="14" fill="white" font-family="monospace" dominant-baseline="initial">60</text><rect x="3332" y="711.0" width="188" height="1" fill="white" fill-opacity="0.2" /><rect x="3332" y="662.0" width="188" height="1" fill="white" fill-opacity="0.2" /><rect x="3332" y="613.0" width="188" height="1" fill="white" fill-opacity="0.2" /><rect x="3332" y="564.0" width="188" height="1" fill="white" fill-opacity="0.5" /><text x="3530" y="564.0" font-size="14" fill="white" font-family="monospace" dominant-baseline="initial">61</text><rect x="3570" y="565.0" width="188" height="782.5" fill="black" /><rect x="3570" y="1346.5" width="188" height="1" fill="white" fill-opacity="0.5" /><text x="3768" y="1346.5" font-size="14" fill="white" font-family="monospace" dominant-baseline="initial">61</text><rect x="3570" y="1297.5" width="188" height="1" fill="white" fill-opacity="0.2" /><rect x="3570" y="1249.0" width="188" height="1" fill="white" fill-opacity="0.2" /><rect x="3570" y="1200.0" width="188" height="1" fill="white" fill-opacity="0.2" /><rect x="3570" y="1151.0" width="188" height="1" fill="white" fill-opacity="0.5" /><text x="3768" y="1151.0" font-size="14" fill="white" font-family="monospace" dominant-baseline="initial">62</text><rect x="3570" y="1102.0" width="188" height="1" fill="white" fill-opacity="0.2" /><rect x="3570" y="1053.0" width="188" height="1" fill="white" fill-opacity="0.2" /><rect x="3570" y="1004.0" width="188" height="1" fill="white" fill-opacity="0.2" /><rect x="3570" y="955.5" width="188" height="1" fill="white" fill-opacity="0.5" /><text x="3768" y="955.5" font-size="14" fill="white" font-family="monospace" dominant-baseline="initial">63</text><rect x="3570" y="906.5" width="188" height="1" fill="white" fill-opacity="0.2" /><rect x="3570" y="857.5" width="188" height="1" fill="white" fill-opacity="0.2" /><rect x="3570" y="808.5" width="188" height="1" fill="white" fill-opacity="0.2" /><rect x="3570" y="759.5" width="188" height="1" fill="white" fill-opacity="0.5" /><text x="3768" y="759.5" font-size="14" fill="white" font-family="monospace" dominant-baseline="initial">64</text><rect x="3570" y="711.0" width="188" height="1" fill="white" fill-opacity="0.2" /><rect x="3570" y="662.0" width="188" height="1" fill="white" fill-opacity="0.2" /><rect x="3570" y="613.0" width="188" height="1" fill="white" fill-opacity="0.2" /><rect x="3570" y="564.0" width="188" height="1" fill="white" fill-opacity="0.5" /><text x="3768" y="564.0" font-size="14" fill="white" font-family="monospace" dominant-baseline="initial">65</text><rect x="3808" y="565.0" width="188" height="782.5" fill="black" /><rect x="3808" y="1346.5" width="188" height="1" fill="white" fill-opacity="0.5" /><text x="4006" y="1346.5" font-size="14" fill="white" font-family="monospace" dominant-baseline="initial">65</text><rect x="3808" y="1297.5" width="188" height="1" fill="white" fill-opacity="0.2" /><rect x="3808" y="1248.5" width="188" height="1" fill="white" fill-opacity="0.2" /><rect x="3808" y="1200.0" width="188" height="1" fill="white" fill-opacity="0.2" /><rect x="3808" y="1151.0" width="188" height="1" fill="white" fill-opacity="0.5" /><text x="4006" y="1151.0" font-size="14" fill="white" font-family="monospace" dominant-baseline="initial">66</text><rect x="3808" y="1102.0" width="188" height="1" fill="white" fill-opacity="0.2" /><rect x="3808" y="1053.0" width="188" height="1" fill="white" fill-opacity="0.2" /><rect x="3808" y="1004.0" width="188" height="1" fill="white" fill-opacity="0.2" /><rect x="3808" y="955.0" width="188" height="1" fill="white" fill-opacity="0.5" /><text x="4006" y="955.0" font-size="14" fill="white" font-family="monospace" dominant-baseline="initial">67</text><rect x="3808" y="906.5" width="188" height="1" fill="white" fill-opacity="0.2" /><rect x="3808" y="857.5" width="188" height="1" fill="white" fill-opacity="0.2" /><rect x="3808" y="808.5" width="188" height="1" fill="white" fill-opacity="0.2" /><rect x="3808" y="759.5" width="188" height="1" fill="white" fill-opacity="0.5" /><text x="4006" y="759.5" font-size="14" fill="white" font-family="monospace" dominant-baseline="initial">68</text><rect x="3808" y="710.5" width="188" height="1" fill="white" fill-opacity="0.2" /><rect x="3808" y="661.5" width="188" height="1" fill="white" fill-opacity="0.2" /><rect x="3808" y="613.0" width="188" height="1" fill="white" fill-opacity="0.2" /><rect x="3808" y="564.0" width="188" height="1" fill="white" fill-opacity="0.5" /><text x="4006" y="564.0" font-size="14" fill="white" font-family="monospace" dominant-baseline="initial">69</text><rect x="4046" y="565.0" width="188" height="782.5" fill="black" /><rect x="4046" y="1346.5" width="188" height="1" fill="white" fill-opacity="0.5" /><text x="4244" y="1346.5" font-size="14" fill="white" font-family="monospace" dominant-baseline="initial">69</text><rect x="4046" y="1297.5" width="188" height="1" fill="white" fill-opacity="0.2" /><rect x="4046" y="1248.5" width="188" height="1" fill="white" fill-opacity="0.2" /><rect x="4046" y="1199.5" width="188" height="1" fill="white" fill-opacity="0.2" /><rect x="4046" y="1151.0" width="188" height="1" fill="white" fill-opacity="0.5" /><text x="4244" y="1151.0" font-size="14" fill="white" font-family="monospace" dominant-baseline="initial">70</text><rect x="4046" y="1102.0" width="188" height="1" fill="white" fill-opacity="0.2" /><rect x="4046" y="1053.0" width="188" height="1" fill="white" fill-opacity="0.2" /><rect x="4046" y="1004.0" width="188" height="1" fill="white" fill-opacity="0.2" /><rect x="4046" y="955.0" width="188" height="1" fill="white" fill-opacity="0.5" /><text x="4244" y="955.0" font-size="14" fill="white" font-family="monospace" dominant-baseline="initial">71</text><rect x="4046" y="906.0" width="188" height="1" fill="white" fill-opacity="0.2" /><rect x="4046" y="857.5" width="188" height="1" fill="white" fill-opacity="0.2" /><rect x="4046" y="808.5" width="188" height="1" fill="white" fill-opacity="0.2" /><rect x="4046" y="759.5" width="188" height="1" fill="white" fill-opacity="0.5" /><text x="4244" y="759.5" font-size="14" fill="white" font-family="monospace" dominant-baseline="initial">72</text><rect x="4046" y="710.5" width="188" height="1" fill="white" fill-opacity="0.2" /><rect x="4046" y="661.5" width="188" height="1" fill="white" fill-opacity="0.2" /><rect x="4046" y="612.5" width="188" height="1" fill="white" fill-opacity="0.2" /><rect x="4046" y="564.0" width="188" height="1" fill="white" fill-opacity="0.5" /><text x="4244" y="564.0" font-size="14" fill="white" font-family="monospace" dominant-baseline="initial">73</text><rect x="4046" y="1150.75" width="188" height="1" fill="aqua" fill-opacity="0.75" /><text x="4046" y="1146.75" font-size="14" fill="aqua" fill-opacity="0.75" font-family="monospace">Phrase C</text><rect x="4284" y="564.5" width="188" height="783.0" fill="black" /><rect x="4284" y="1346.5" width="188" height="1" fill="white" fill-opacity="0.5" /><text x="4482" y="1346.5" font-size="14" fill="white" font-family="monospace" dominant-baseline="initial">73</text><rect x="4284" y="1297.5" width="188" height="1" fill="white" fill-opacity="0.2" /><rect x="4284" y="1248.5" width="188" height="1" fill="white" fill-opacity="0.2" /><rect x="4284" y="1199.5" width="188" height="1" fill="white" fill-opacity="0.2" /><rect x="4284" y="1150.5" width="188" height="1" fill="white" fill-opacity="0.5" /><text x="4482" y="1150.5" font-size="14" fill="white" font-family="monospace" dominant-baseline="initial">74</text><rect x="4284" y="1102.0" width="188" height="1" fill="white" fill-opacity="0.2" /><rect x="4284" y="1053.0" width="188" height="1" fill="white" fill-opacity="0.2" /><rect x="4284" y="1004.0" width="188" height="1" fill="white" fill-opacity="0.2" /><rect x="4284" y="955.0" width="188" height="1" fill="white" fill-opacity="0.5" /><text x="4482" y="955.0" font-size="14" fill="white" font-family="monospace" dominant-baseline="initial">75</text><rect x="4284" y="906.0" width="188" height="1" fill="white" fill-opacity="0.2" /><rect x="4284" y="857.0" width="188" height="1" fill="white" fill-opacity="0.2" /><rect x="4284" y="808.5" width="188" height="1" fill="white" fill-opacity="0.2" /><rect x="4284" y="759.5" width="188" height="1" fill="white" fill-opacity="0.5" /><text x="4482" y="759.5" font-size="14" fill="white" font-family="monospace" dominant-baseline="initial">76</text><rect x="4284" y="710.5" width="188" height="1" fill="white" fill-opacity="0.2" /><rect x="4284" y="661.5" width="188" height="1" fill="white" fill-opacity="0.2" /><rect x="4284" y="612.5" width="188" height="1" fill="white" fill-opacity="0.2" /><rect x="4284" y="563.5" width="188" height="1" fill="white" fill-opacity="0.5" /><text x="4482" y="563.5" font-size="14" fill="white" font-family="monospace" dominant-baseline="initial">77</text><rect x="4522" y="831.0" width="188" height="516.5" fill="black" /><rect x="4522" y="1346.5" width="188" height="1" fill="white" fill-opacity="0.5" /><text x="4720" y="1346.5" font-size="14" fill="white" font-family="monospace" dominant-baseline="initial">77</text><rect x="4522" y="1298.0" width="188" height="1" fill="white" fill-opacity="0.2" /><rect x="4522" y="1249.0" width="188" height="1" fill="white" fill-opacity="0.2" /><rect x="4522" y="1200.0" width="188" height="1" fill="white" fill-opacity="0.2" /><rect x="4522" y="1151.0" width="188" height="1" fill="white" fill-opacity="0.5" /><text x="4720" y="1151.0" font-size="14" fill="white" font-family="monospace" dominant-baseline="initial">78</text></svg>