<?xml version="1.0" encoding="UTF-8"?><svg xmlns="http://www.w3.org/2000/svg" xmlns:xlink="http://www.w3.org/1999/xlink"     width="4998" height="1347.5" viewBox="0 0 4998 1347.5"><defs></defs><rect x="0" y="319.0" width="188" height="1028.5" fill="black" /><rect x="0" y="1346.5" width="188" height="1" fill="white" fill-opacity="0.5" /><text x="198" y="1346.5" font-size="14" fill="white" font-family="monospace" dominant-baseline="initial">1</text><rect x="0" y="1282.0" width="188" height="1" fill="white" fill-opacity="0.2" /><rect x="0" y="1218.0" width="188" height="1" fill="white" fill-opacity="0.2" /><rect x="0" y="1153.5" width="188" height="1" fill="white" fill-opacity="0.2" /><rect x="0" y="1089.5" width="188" height="1" fill="white" fill-opacity="0.5" /><text x="198" y="1089.5" font-size="14" fill="white" font-family="monospace" dominant-baseline="initial">2</text><rect x="0" y="1025.0" width="188" height="1" fill="white" fill-opacity="0.2" /><rect x="0" y="961.0" width="188" height="1" fill="white" fill-opacity="0.2" /><rect x="0" y="896.5" width="188" height="1" fill="white" fill-opacity="0.2" /><rect x="0" y="832.0" width="188" height="1" fill="white" fill-opacity="0.5" /><text x="198" y="832.0" font-size="14" fill="white" font-family="monospace" dominant-baseline="initial">3</text><rect x="0" y="768.0" width="188" height="1" fill="white" fill-opacity="0.2" /><rect x="0" y="703.5" width="188" height="1" fill="white" fill-opacity="0.2" /><rect x="0" y="639.5" width="188" height="1" fill="white" fill-opacity="0.2" /><rect x="0" y="575.0" width="188" height="1" fill="white" fill-opacity="0.5" /><text x="198" y="575.0" font-size="14" fill="white" font-family="monospace" dominant-baseline="initial">4</text><rect x="0" y="511.0" width="188" height="1" fill="white" fill-opacity="0.2" /><rect x="0" y="446.5" width="188" height="1" fill="white" fill-opacity="0.2" /><rect x="0" y="382.0" width="188" height="1" fill="white" fill-opacity="0.2" /><rect x="0" y="318.0" width="188" height="1" fill="white" fill-opacity="0.5" /><text x="198" y="318.0" font-size="14" fill="white" font-family="monospace" dominant-baseline="initial">5</text><rect x="0" y="1346.5" width="188" height="1" fill="aqua" fill-opacity="0.75" /><text x="0" y="1342.5" font-size="14" fill="aqua" fill-opacity="0.75" font-family="monospace">Intro</text><rect x="0" y="1346.5" width="188" height="1" fill="lime" fill-opacity="0.75" /><text x="198" y="1333.5" font-size="14" fill="lime" font-family="monospace" dominant-baseline="initial">140</text><rect x="238" y="485.0" width="188" height="862.5" fill="black" /><rect x="238" y="1346.5" width="188" height="1" fill="white" fill-opacity="0.5" /><text x="436" y="1346.5" font-size="14" fill="white" font-family="monospace" dominant-baseline="initial">5</text><rect x="238" y="1282.0" width="188" height="1" fill="white" fill-opacity="0.2" /><rect x="238" y="1218.0" width="188" height="1" fill="white" fill-opacity="0.2" /><rect x="238" y="1153.5" width="188" height="1" fill="white" fill-opacity="0.2" /><rect x="238" y="1089.5" width="188" height="1" fill="white" fill-opacity="0.5" /><text x="436" y="1089.5" font-size="14" fill="white" font-family="monospace" dominant-baseline="initial">6</text><rect x="238" y="1025.0" width="188" height="1" fill="white" fill-opacity="0.2" /><rect x="238" y="960.5" width="188" height="1" fill="white" fill-opacity="0.2" /><rect x="238" y="896.5" width="188" height="1" fill="white" fill-opacity="0.2" /><rect x="238" y="832.0" width="188" height="1" fill="white" fill-opacity="0.5" /><text x="436" y="832.0" font-size="14" fill="white" font-family="monospace" dominant-baseline="initial">7</text><rect x="238" y="774.0" width="188" height="1" fill="white" fill-opacity="0.2" /><rect x="238" y="716.0" width="188" height="1" fill="white" fill-opacity="0.2" /><rect x="238" y="658.0" width="188" height="1" fill="white" fill-opacity="0.5" /><text x="436" y="658.0" font-size="14" fill="white" font-family="monospace" dominant-baseline="initial">8</text><rect x="238" y="600.0" width="188" height="1" fill="white" fill-opacity="0.2" /><rect x="238" y="542.0" width="188" height="1" fill="white" fill-opacity="0.2" /><rect x="238" y="484.0" width="188" height="1" fill="white" fill-opacity="0.5" /><text x="436" y="484.0" font-size="14" fill="white" font-family="monospace" dominant-baseline="initial">9</text><rect x="238" y="832.0" width="188" height="1" fill="lime" fill-opacity="0.75" /><text x="436" y="819.0" font-size="14" fill="lime" font-family="monospace" dominant-baseline="initial">155</text><rect x="476" y="592.5" width="188" height="755.0" fill="black" /><rect x="476" y="1346.5" width="188" height="1" fill="white" fill-opacity="0.5" /><text x="674" y="1346.5" font-size="14" fill="white" font-family="monospace" dominant-baseline="initial">9</text><rect x="476" y="1288.0" width="188" height="1" fill="white" fill-opacity="0.2" /><rect x="476" y="1230.0" width="188" height="1" fill="white" fill-opacity="0.2" /><rect x="476" y="1172.0" width="188" height="1" fill="white" fill-opacity="0.5" /><text x="674" y="1172.0" font-size="14" fill="white" font-family="monospace" dominant-baseline="initial">10</text><rect x="476" y="1114.0" width="188" height="1" fill="white" fill-opacity="0.2" /><rect x="476" y="1056.0" width="188" height="1" fill="white" fill-opacity="0.2" /><rect x="476" y="998.0" width="188" height="1" fill="white" fill-opacity="0.5" /><text x="674" y="998.0" font-size="14" fill="white" font-family="monospace" dominant-baseline="initial">11</text><rect x="476" y="940.0" width="188" height="1" fill="white" fill-opacity="0.2" /><rect x="476" y="881.5" width="188" height="1" fill="white" fill-opacity="0.2" /><rect x="476" y="823.5" width="188" height="1" fill="white" fill-opacity="0.5" /><text x="674" y="823.5" font-size="14" fill="white" font-family="monospace" dominant-baseline="initial">12</text><rect x="476" y="765.5" width="188" height="1" fill="white" fill-opacity="0.2" /><rect x="476" y="707.5" width="188" height="1" fill="white" fill-opacity="0.2" /><rect x="476" y="649.5" width="188" height="1" fill="white" fill-opacity="0.2" /><rect x="476" y="591.5" width="188" height="1" fill="white" fill-opacity="0.5" /><text x="674" y="591.5" font-size="14" fill="white" font-family="monospace" dominant-baseline="initial">13</text><rect x="476" y="1346.3000000000002" width="188" height="1" fill="aqua" fill-opacity="0.75" /><text x="476" y="1342.3000000000002" font-size="14" fill="aqua" fill-opacity="0.75" font-family="monospace">Special</text><rect x="714" y="640.0" width="188" height="707.5" fill="black" /><rect x="714" y="1346.5" width="188" height="1" fill="white" fill-opacity="0.5" /><text x="912" y="1346.5" font-size="14" fill="white" font-family="monospace" dominant-baseline="initial">13</text><rect x="714" y="1288.5" width="188" height="1" fill="white" fill-opacity="0.2" /><rect x="714" y="1230.5" width="188" height="1" fill="white" fill-opacity="0.2" /><rect x="714" y="1172.0" width="188" height="1" fill="white" fill-opacity="0.5" /><text x="912" y="1172.0" font-size="14" fill="white" font-family="monospace" dominant-baseline="initial">14</text><rect x="714" y="1114.0" width="188" height="1" fill="white" fill-opacity="0.2" /><rect x="714" y="1055.5" width="188" height="1" fill="white" fill-opacity="0.2" /><rect x="714" y="996.5" width="188" height="1" fill="white" fill-opacity="0.5" /><text x="912" y="996.5" font-size="14" fill="white" font-family="monospace" dominant-baseline="initial">15</text><rect x="714" y="937.0" width="188" height="1" fill="white" fill-opacity="0.2" /><rect x="714" y="877.5" width="188" height="1" fill="white" fill-opacity="0.2" /><rect x="714" y="817.5" width="188" height="1" fill="white" fill-opacity="0.5" /><text x="912" y="817.5" font-size="14" fill="white" font-family="monospace" dominant-baseline="initial">16</text><rect x="714" y="758.0" width="188" height="1" fill="white" fill-opacity="0.2" /><rect x="714" y="698.5" width="188" height="1" fill="white" fill-opacity="0.2" /><rect x="714" y="639.0" width="188" height="1" fill="white" fill-opacity="0.5" /><text x="912" y="639.0" font-size="14" fill="white" font-family="monospace" dominant-baseline="initial">17</text><rect x="714" y="1114.0" width="188" height="1" fill="lime" fill-opacity="0.75" /><text x="912" y="1115.0" font-size="14" fill="lime" font-family="monospace" dominant-baseline="initial">153</text><rect x="714" y="996.5" width="188" height="1" fill="lime" fill-opacity="0.75" /><text x="912" y="983.5" font-size="14" fill="lime" font-family="monospace" dominant-baseline="initial">151</text><rect x="952" y="647.5" width="188" height="700.0" fill="black" /><rect x="952" y="1346.5" width="188" height="1" fill="white" fill-opacity="0.5" /><text x="1150" y="1346.5" font-size="14" fill="white" font-family="monospace" dominant-baseline="initial">17</text><rect x="952" y="1287.0" width="188" height="1" fill="white" fill-opacity="0.2" /><rect x="952" y="1227.0" width="188" height="1" fill="white" fill-opacity="0.2" /><rect x="952" y="1169.0" width="188" height="1" fill="white" fill-opacity="0.5" /><text x="1150" y="1169.0" font-size="14" fill="white" font-family="monospace" dominant-baseline="initial">18</text><rect x="952" y="1111.0" width="188" height="1" fill="white" fill-opacity="0.2" /><rect x="952" y="1053.0" width="188" height="1" fill="white" fill-opacity="0.2" /><rect x="952" y="995.0" width="188" height="1" fill="white" fill-opacity="0.5" /><text x="1150" y="995.0" font-size="14" fill="white" font-family="monospace" dominant-baseline="initial">19</text><rect x="952" y="937.0" width="188" height="1" fill="white" fill-opacity="0.2" /><rect x="952" y="879.0" width="188" height="1" fill="white" fill-opacity="0.2" /><rect x="952" y="820.5" width="188" height="1" fill="white" fill-opacity="0.5" /><text x="1150" y="820.5" font-size="14" fill="white" font-family="monospace" dominant-baseline="initial">20</text><rect x="952" y="762.5" width="188" height="1" fill="white" fill-opacity="0.2" /><rect x="952" y="704.5" width="188" height="1" fill="white" fill-opacity="0.2" /><rect x="952" y="646.5" width="188" height="1" fill="white" fill-opacity="0.5" /><text x="1150" y="646.5" font-size="14" fill="white" font-family="monospace" dominant-baseline="initial">21</text><rect x="952" y="1169.15" width="188" height="1" fill="aqua" fill-opacity="0.75" /><text x="952" y="1165.15" font-size="14" fill="aqua" fill-opacity="0.75" font-family="monospace">Phrase B</text><rect x="952" y="1227.0" width="188" height="1" fill="lime" fill-opacity="0.75" /><text x="1150" y="1228.0" font-size="14" fill="lime" font-family="monospace" dominant-baseline="initial">155</text><rect x="1190" y="586.5" width="188" height="761.0" fill="black" /><rect x="1190" y="1346.5" width="188" height="1" fill="white" fill-opacity="0.5" /><text x="1388" y="1346.5" font-size="14" fill="white" font-family="monospace" dominant-baseline="initial">21</text><rect x="1190" y="1288.5" width="188" height="1" fill="white" fill-opacity="0.2" /><rect x="1190" y="1230.5" width="188" height="1" fill="white" fill-opacity="0.2" /><rect x="1190" y="1172.5" width="188" height="1" fill="white" fill-opacity="0.2" /><rect x="1190" y="1114.5" width="188" height="1" fill="white" fill-opacity="0.5" /><text x="1388" y="1114.5" font-size="14" fill="white" font-family="monospace" dominant-baseline="initial">22</text><rect x="1190" y="1056.0" width="188" height="1" fill="white" fill-opacity="0.2" /><rect x="1190" y="998.0" width="188" height="1" fill="white" fill-opacity="0.2" /><rect x="1190" y="940.0" width="188" height="1" fill="white" fill-opacity="0.5" /><text x="1388" y="940.0" font-size="14" fill="white" font-family="monospace" dominant-baseline="initial">23</text><rect x="1190" y="882.0" width="188" height="1" fill="white" fill-opacity="0.2" /><rect x="1190" y="823.0" width="188" height="1" fill="white" fill-opacity="0.2" /><rect x="1190" y="764.5" width="188" height="1" fill="white" fill-opacity="0.5" /><text x="1388" y="764.5" font-size="14" fill="white" font-family="monospace" dominant-baseline="initial">24</text><rect x="1190" y="705.0" width="188" height="1" fill="white" fill-opacity="0.2" /><rect x="1190" y="645.0" width="188" height="1" fill="white" fill-opacity="0.2" /><rect x="1190" y="585.5" width="188" height="1" fill="white" fill-opacity="0.5" /><text x="1388" y="585.5" font-size="14" fill="white" font-family="monospace" dominant-baseline="initial">25</text><rect x="1190" y="882.0" width="188" height="1" fill="lime" fill-opacity="0.75" /><text x="1388" y="883.0" font-size="14" fill="lime" font-family="monospace" dominant-baseline="initial">153</text><rect x="1190" y="764.5" width="188" height="1" fill="lime" fill-opacity="0.75" /><text x="1388" y="751.5" font-size="14" fill="lime" font-family="monospace" dominant-baseline="initial">151</text><rect x="1428" y="641.5" width="188" height="706.0" fill="black" /><rect x="1428" y="1346.5" width="188" height="1" fill="white" fill-opacity="0.5" /><text x="1626" y="1346.5" font-size="14" fill="white" font-family="monospace" dominant-baseline="initial">25</text><rect x="1428" y="1287.0" width="188" height="1" fill="white" fill-opacity="0.2" /><rect x="1428" y="1227.5" width="188" height="1" fill="white" fill-opacity="0.2" /><rect x="1428" y="1168.0" width="188" height="1" fill="white" fill-opacity="0.5" /><text x="1626" y="1168.0" font-size="14" fill="white" font-family="monospace" dominant-baseline="initial">26</text><rect x="1428" y="1108.0" width="188" height="1" fill="white" fill-opacity="0.2" /><rect x="1428" y="1048.5" width="188" height="1" fill="white" fill-opacity="0.2" /><rect x="1428" y="989.0" width="188" height="1" fill="white" fill-opacity="0.5" /><text x="1626" y="989.0" font-size="14" fill="white" font-family="monospace" dominant-baseline="initial">27</text><rect x="1428" y="931.0" width="188" height="1" fill="white" fill-opacity="0.2" /><rect x="1428" y="873.0" width="188" height="1" fill="white" fill-opacity="0.2" /><rect x="1428" y="815.0" width="188" height="1" fill="white" fill-opacity="0.5" /><text x="1626" y="815.0" font-size="14" fill="white" font-family="monospace" dominant-baseline="initial">28</text><rect x="1428" y="756.5" width="188" height="1" fill="white" fill-opacity="0.2" /><rect x="1428" y="698.5" width="188" height="1" fill="white" fill-opacity="0.2" /><rect x="1428" y="640.5" width="188" height="1" fill="white" fill-opacity="0.5" /><text x="1626" y="640.5" font-size="14" fill="white" font-family="monospace" dominant-baseline="initial">29</text><rect x="1428" y="989.0" width="188" height="1" fill="aqua" fill-opacity="0.75" /><text x="1428" y="985.0" font-size="14" fill="aqua" fill-opacity="0.75" font-family="monospace">Phrase C</text><rect x="1428" y="989.0" width="188" height="1" fill="lime" fill-opacity="0.75" /><text x="1626" y="976.0" font-size="14" fill="lime" font-family="monospace" dominant-baseline="initial">155</text><rect x="1666" y="651.0" width="188" height="696.5" fill="black" /><rect x="1666" y="1346.5" width="188" height="1" fill="white" fill-opacity="0.5" /><text x="1864" y="1346.5" font-size="14" fill="white" font-family="monospace" dominant-baseline="initial">29</text><rect x="1666" y="1288.5" width="188" height="1" fill="white" fill-opacity="0.2" /><rect x="1666" y="1230.5" width="188" height="1" fill="white" fill-opacity="0.2" /><rect x="1666" y="1172.5" width="188" height="1" fill="white" fill-opacity="0.5" /><text x="1864" y="1172.5" font-size="14" fill="white" font-family="monospace" dominant-baseline="initial">30</text><rect x="1666" y="1114.5" width="188" height="1" fill="white" fill-opacity="0.2" /><rect x="1666" y="1056.5" width="188" height="1" fill="white" fill-opacity="0.2" /><rect x="1666" y="998.0" width="188" height="1" fill="white" fill-opacity="0.5" /><text x="1864" y="998.0" font-size="14" fill="white" font-family="monospace" dominant-baseline="initial">31</text><rect x="1666" y="940.0" width="188" height="1" fill="white" fill-opacity="0.2" /><rect x="1666" y="882.0" width="188" height="1" fill="white" fill-opacity="0.2" /><rect x="1666" y="824.0" width="188" height="1" fill="white" fill-opacity="0.5" /><text x="1864" y="824.0" font-size="14" fill="white" font-family="monospace" dominant-baseline="initial">32</text><rect x="1666" y="766.0" width="188" height="1" fill="white" fill-opacity="0.2" /><rect x="1666" y="708.0" width="188" height="1" fill="white" fill-opacity="0.2" /><rect x="1666" y="650.0" width="188" height="1" fill="white" fill-opacity="0.5" /><text x="1864" y="650.0" font-size="14" fill="white" font-family="monospace" dominant-baseline="initial">33</text><rect x="1904" y="650.5" width="188" height="697.0" fill="black" /><rect x="1904" y="1346.5" width="188" height="1" fill="white" fill-opacity="0.5" /><text x="2102" y="1346.5" font-size="14" fill="white" font-family="monospace" dominant-baseline="initial">33</text><rect x="1904" y="1288.0" width="188" height="1" fill="white" fill-opacity="0.2" /><rect x="1904" y="1230.0" width="188" height="1" fill="white" fill-opacity="0.2" /><rect x="1904" y="1172.0" width="188" height="1" fill="white" fill-opacity="0.5" /><text x="2102" y="1172.0" font-size="14" fill="white" font-family="monospace" dominant-baseline="initial">34</text><rect x="1904" y="1114.0" width="188" height="1" fill="white" fill-opacity="0.2" /><rect x="1904" y="1056.0" width="188" height="1" fill="white" fill-opacity="0.2" /><rect x="1904" y="998.0" width="188" height="1" fill="white" fill-opacity="0.5" /><text x="2102" y="998.0" font-size="14" fill="white" font-family="monospace" dominant-baseline="initial">35</text><rect x="1904" y="940.0" width="188" height="1" fill="white" fill-opacity="0.2" /><rect x="1904" y="882.0" width="188" height="1" fill="white" fill-opacity="0.2" /><rect x="1904" y="823.5" width="188" height="1" fill="white" fill-opacity="0.5" /><text x="2102" y="823.5" font-size="14" fill="white" font-family="monospace" dominant-baseline="initial">36</text><rect x="1904" y="765.5" width="188" height="1" fill="white" fill-opacity="0.2" /><rect x="1904" y="707.5" width="188" height="1" fill="white" fill-opacity="0.2" /><rect x="1904" y="649.5" width="188" height="1" fill="white" fill-opacity="0.5" /><text x="2102" y="649.5" font-size="14" fill="white" font-family="monospace" dominant-baseline="initial">37</text><rect x="2142" y="999.0" width="188" height="348.5" fill="black" /><rect x="2142" y="1346.5" width="188" height="1" fill="white" fill-opacity="0.5" /><text x="2340" y="1346.5" font-size="14" fill="white" font-family="monospace" dominant-baseline="initial">37</text><rect x="2142" y="1317.5" width="188" height="1" fill="white" fill-opacity="0.2" /><rect x="2142" y="1288.5" width="188" height="1" fill="white" fill-opacity="0.2" /><rect x="2142" y="1259.5" width="188" height="1" fill="white" fill-opacity="0.5" /><text x="2340" y="1259.5" font-size="14" fill="white" font-family="monospace" dominant-baseline="initial">38</text><rect x="2142" y="1230.5" width="188" height="1" fill="white" fill-opacity="0.2" /><rect x="2142" y="1201.5" width="188" height="1" fill="white" fill-opacity="0.2" /><rect x="2142" y="1172.5" width="188" height="1" fill="white" fill-opacity="0.5" /><text x="2340" y="1172.5" font-size="14" fill="white" font-family="monospace" dominant-baseline="initial">39</text><rect x="2142" y="1143.5" width="188" height="1" fill="white" fill-opacity="0.2" /><rect x="2142" y="1114.5" width="188" height="1" fill="white" fill-opacity="0.2" /><rect x="2142" y="1085.0" width="188" height="1" fill="white" fill-opacity="0.5" /><text x="2340" y="1085.0" font-size="14" fill="white" font-family="monospace" dominant-baseline="initial">40</text><rect x="2142" y="1056.0" width="188" height="1" fill="white" fill-opacity="0.2" /><rect x="2142" y="1027.0" width="188" height="1" fill="white" fill-opacity="0.2" /><rect x="2142" y="998.0" width="188" height="1" fill="white" fill-opacity="0.5" /><text x="2340" y="998.0" font-size="14" fill="white" font-family="monospace" dominant-baseline="initial">41</text><rect x="2142" y="1346.5500000000002" width="188" height="1" fill="aqua" fill-opacity="0.75" /><text x="2142" y="1342.5500000000002" font-size="14" fill="aqua" fill-opacity="0.75" font-family="monospace">Phrase D</text><rect x="2380" y="999.5" width="188" height="348.0" fill="black" /><rect x="2380" y="1346.5" width="188" height="1" fill="white" fill-opacity="0.5" /><text x="2578" y="1346.5" font-size="14" fill="white" font-family="monospace" dominant-baseline="initial">41</text><rect x="2380" y="1317.5" width="188" height="1" fill="white" fill-opacity="0.2" /><rect x="2380" y="1288.5" width="188" height="1" fill="white" fill-opacity="0.2" /><rect x="2380" y="1259.5" width="188" height="1" fill="white" fill-opacity="0.5" /><text x="2578" y="1259.5" font-size="14" fill="white" font-family="monospace" dominant-baseline="initial">42</text><rect x="2380" y="1230.5" width="188" height="1" fill="white" fill-opacity="0.2" /><rect x="2380" y="1201.5" width="188" height="1" fill="white" fill-opacity="0.2" /><rect x="2380" y="1172.5" width="188" height="1" fill="white" fill-opacity="0.5" /><text x="2578" y="1172.5" font-size="14" fill="white" font-family="monospace" dominant-baseline="initial">43</text><rect x="2380" y="1143.5" width="188" height="1" fill="white" fill-opacity="0.2" /><rect x="2380" y="1114.5" width="188" height="1" fill="white" fill-opacity="0.2" /><rect x="2380" y="1085.5" width="188" height="1" fill="white" fill-opacity="0.5" /><text x="2578" y="1085.5" font-size="14" fill="white" font-family="monospace" dominant-baseline="initial">44</text><rect x="2380" y="1056.5" width="188" height="1" fill="white" fill-opacity="0.2" /><rect x="2380" y="1027.5" width="188" height="1" fill="white" fill-opacity="0.2" /><rect x="2380" y="998.5" width="188" height="1" fill="white" fill-opacity="0.5" /><text x="2578" y="998.5" font-size="14" fill="white" font-family="monospace" dominant-baseline="initial">45</text><rect x="2618" y="999.0" width="188" height="348.5" fill="black" /><rect x="2618" y="1346.5" width="188" height="1" fill="white" fill-opacity="0.5" /><text x="2816" y="1346.5" font-size="14" fill="white" font-family="monospace" dominant-baseline="initial">45</text><rect x="2618" y="1317.0" width="188" height="1" fill="white" fill-opacity="0.2" /><rect x="2618" y="1288.0" width="188" height="1" fill="white" fill-opacity="0.2" /><rect x="2618" y="1259.0" width="188" height="1" fill="white" fill-opacity="0.5" /><text x="2816" y="1259.0" font-size="14" fill="white" font-family="monospace" dominant-baseline="initial">46</text><rect x="2618" y="1230.0" width="188" height="1" fill="white" fill-opacity="0.2" /><rect x="2618" y="1201.0" width="188" height="1" fill="white" fill-opacity="0.2" /><rect x="2618" y="1172.0" width="188" height="1" fill="white" fill-opacity="0.5" /><text x="2816" y="1172.0" font-size="14" fill="white" font-family="monospace" dominant-baseline="initial">47</text><rect x="2618" y="1143.0" width="188" height="1" fill="white" fill-opacity="0.2" /><rect x="2618" y="1114.0" width="188" height="1" fill="white" fill-opacity="0.2" /><rect x="2618" y="1085.0" width="188" height="1" fill="white" fill-opacity="0.5" /><text x="2816" y="1085.0" font-size="14" fill="white" font-family="monospace" dominant-baseline="initial">48</text><rect x="2618" y="1056.0" width="188" height="1" fill="white" fill-opacity="0.2" /><rect x="2618" y="1027.0" width="188" height="1" fill="white" fill-opacity="0.2" /><rect x="2618" y="998.0" width="188" height="1" fill="white" fill-opacity="0.5" /><text x="2816" y="998.0" font-size="14" fill="white" font-family="monospace" dominant-baseline="initial">49</text><rect x="2856" y="999.0" width="188" height="348.5" fill="black" /><rect x="2856" y="1346.5" width="188" height="1" fill="white" fill-opacity="0.5" /><text x="3054" y="1346.5" font-size="14" fill="white" font-family="monospace" dominant-baseline="initial">49</text><rect x="2856" y="1317.5" width="188" height="1" fill="white" fill-opacity="0.2" /><rect x="2856" y="1288.5" width="188" height="1" fill="white" fill-opacity="0.2" /><rect x="2856" y="1259.5" width="188" height="1" fill="white" fill-opacity="0.5" /><text x="3054" y="1259.5" font-size="14" fill="white" font-family="monospace" dominant-baseline="initial">50</text><rect x="2856" y="1230.0" width="188" height="1" fill="white" fill-opacity="0.2" /><rect x="2856" y="1201.0" width="188" height="1" fill="white" fill-opacity="0.2" /><rect x="2856" y="1172.0" width="188" height="1" fill="white" fill-opacity="0.5" /><text x="3054" y="1172.0" font-size="14" fill="white" font-family="monospace" dominant-baseline="initial">51</text><rect x="2856" y="1143.0" width="188" height="1" fill="white" fill-opacity="0.2" /><rect x="2856" y="1114.0" width="188" height="1" fill="white" fill-opacity="0.2" /><rect x="2856" y="1085.0" width="188" height="1" fill="white" fill-opacity="0.5" /><text x="3054" y="1085.0" font-size="14" fill="white" font-family="monospace" dominant-baseline="initial">52</text><rect x="2856" y="1056.0" width="188" height="1" fill="white" fill-opacity="0.2" /><rect x="2856" y="1027.0" width="188" height="1" fill="white" fill-opacity="0.2" /><rect x="2856" y="998.0" width="188" height="1" fill="white" fill-opacity="0.5" /><text x="3054" y="998.0" font-size="14" fill="white" font-family="monospace" dominant-baseline="initial">53</text><rect x="3094" y="644.5" width="188" height="703.0" fill="black" /><rect x="3094" y="1346.5" width="188" height="1" fill="white" fill-opacity="0.5" /><text x="3292" y="1346.5" font-size="14" fill="white" font-family="monospace" dominant-baseline="initial">53</text><rect x="3094" y="1317.5" width="188" height="1" fill="white" fill-opacity="0.2" /><rect x="3094" y="1288.5" width="188" height="1" fill="white" fill-opacity="0.2" /><rect x="3094" y="1259.5" width="188" height="1" fill="white" fill-opacity="0.2" /><rect x="3094" y="1230.5" width="188" height="1" fill="white" fill-opacity="0.2" /><rect x="3094" y="1201.5" width="188" height="1" fill="white" fill-opacity="0.2" /><rect x="3094" y="1172.5" width="188" height="1" fill="white" fill-opacity="0.5" /><text x="3292" y="1172.5" font-size="14" fill="white" font-family="monospace" dominant-baseline="initial">54</text><rect x="3094" y="1143.5" width="188" height="1" fill="white" fill-opacity="0.2" /><rect x="3094" y="1114.0" width="188" height="1" fill="white" fill-opacity="0.2" /><rect x="3094" y="1085.0" width="188" height="1" fill="white" fill-opacity="0.2" /><rect x="3094" y="1056.0" width="188" height="1" fill="white" fill-opacity="0.2" /><rect x="3094" y="1027.0" width="188" height="1" fill="white" fill-opacity="0.2" /><rect x="3094" y="998.0" width="188" height="1" fill="white" fill-opacity="0.5" /><text x="3292" y="998.0" font-size="14" fill="white" font-family="monospace" dominant-baseline="initial">55</text><rect x="3094" y="969.0" width="188" height="1" fill="white" fill-opacity="0.2" /><rect x="3094" y="940.0" width="188" height="1" fill="white" fill-opacity="0.2" /><rect x="3094" y="911.0" width="188" height="1" fill="white" fill-opacity="0.2" /><rect x="3094" y="882.0" width="188" height="1" fill="white" fill-opacity="0.2" /><rect x="3094" y="853.0" width="188" height="1" fill="white" fill-opacity="0.2" /><rect x="3094" y="824.0" width="188" height="1" fill="white" fill-opacity="0.5" /><text x="3292" y="824.0" font-size="14" fill="white" font-family="monospace" dominant-baseline="initial">56</text><rect x="3094" y="795.0" width="188" height="1" fill="white" fill-opacity="0.2" /><rect x="3094" y="766.0" width="188" height="1" fill="white" fill-opacity="0.2" /><rect x="3094" y="737.0" width="188" height="1" fill="white" fill-opacity="0.2" /><rect x="3094" y="707.5" width="188" height="1" fill="white" fill-opacity="0.2" /><rect x="3094" y="676.0" width="188" height="1" fill="white" fill-opacity="0.2" /><rect x="3094" y="643.5" width="188" height="1" fill="white" fill-opacity="0.5" /><text x="3292" y="643.5" font-size="14" fill="white" font-family="monospace" dominant-baseline="initial">57</text><rect x="3094" y="1346.550000000001" width="188" height="1" fill="aqua" fill-opacity="0.75" /><text x="3094" y="1342.550000000001" font-size="14" fill="aqua" fill-opacity="0.75" font-family="monospace">Special</text><rect x="3094" y="729.5" width="188" height="1" fill="lime" fill-opacity="0.75" /><text x="3292" y="730.5" font-size="14" fill="lime" font-family="monospace" dominant-baseline="initial">153.2</text><rect x="3094" y="722.0" width="188" height="1" fill="lime" fill-opacity="0.75" /><text x="3292" y="723.0" font-size="14" fill="lime" font-family="monospace" dominant-baseline="initial">151.3</text><rect x="3094" y="715.0" width="188" height="1" fill="lime" fill-opacity="0.75" /><text x="3292" y="716.0" font-size="14" fill="lime" font-family="monospace" dominant-baseline="initial">149.5</text><rect x="3094" y="707.5" width="188" height="1" fill="lime" fill-opacity="0.75" /><text x="3292" y="708.5" font-size="14" fill="lime" font-family="monospace" dominant-baseline="initial">147.6</text><rect x="3094" y="699.5" width="188" height="1" fill="lime" fill-opacity="0.75" /><text x="3292" y="700.5" font-size="14" fill="lime" font-family="monospace" dominant-baseline="initial">145.8</text><rect x="3094" y="692.0" width="188" height="1" fill="lime" fill-opacity="0.75" /><text x="3292" y="693.0" font-size="14" fill="lime" font-family="monospace" dominant-baseline="initial">143.9</text><rect x="3094" y="684.0" width="188" height="1" fill="lime" fill-opacity="0.75" /><text x="3292" y="685.0" font-size="14" fill="lime" font-family="monospace" dominant-baseline="initial">142.1</text><rect x="3094" y="676.0" width="188" height="1" fill="lime" fill-opacity="0.75" /><text x="3292" y="677.0" font-size="14" fill="lime" font-family="monospace" dominant-baseline="initial">140.2</text><rect x="3094" y="668.0" width="188" height="1" fill="lime" fill-opacity="0.75" /><text x="3292" y="669.0" font-size="14" fill="lime" font-family="monospace" dominant-baseline="initial">138.4</text><rect x="3094" y="660.0" width="188" height="1" fill="lime" fill-opacity="0.75" /><text x="3292" y="661.0" font-size="14" fill="lime" font-family="monospace" dominant-baseline="initial">136.5</text><rect x="3094" y="652.0" width="188" height="1" fill="lime" fill-opacity="0.75" /><text x="3292" y="653.0" font-size="14" fill="lime" font-family="monospace" dominant-baseline="initial">134.7</text><rect x="3332" y="650.5" width="188" height="697.0" fill="black" /><rect x="3332" y="1346.5" width="188" height="1" fill="white" fill-opacity="0.5" /><text x="3530" y="1346.5" font-size="14" fill="white" font-family="monospace" dominant-baseline="initial">57</text><rect x="3332" y="1288.5" width="188" height="1" fill="white" fill-opacity="0.2" /><rect x="3332" y="1230.5" width="188" height="1" fill="white" fill-opacity="0.2" /><rect x="3332" y="1172.0" width="188" height="1" fill="white" fill-opacity="0.5" /><text x="3530" y="1172.0" font-size="14" fill="white" font-family="monospace" dominant-baseline="initial">58</text><rect x="3332" y="1114.0" width="188" height="1" fill="white" fill-opacity="0.2" /><rect x="3332" y="1056.0" width="188" height="1" fill="white" fill-opacity="0.2" /><rect x="3332" y="998.0" width="188" height="1" fill="white" fill-opacity="0.5" /><text x="3530" y="998.0" font-size="14" fill="white" font-family="monospace" dominant-baseline="initial">59</text><rect x="3332" y="940.0" width="188" height="1" fill="white" fill-opacity="0.2" /><rect x="3332" y="882.0" width="188" height="1" fill="white" fill-opacity="0.2" /><rect x="3332" y="824.0" width="188" height="1" fill="white" fill-opacity="0.5" /><text x="3530" y="824.0" font-size="14" fill="white" font-family="monospace" dominant-baseline="initial">60</text><rect x="3332" y="766.0" width="188" height="1" fill="white" fill-opacity="0.2" /><rect x="3332" y="707.5" width="188" height="1" fill="white" fill-opacity="0.2" /><rect x="3332" y="649.5" width="188" height="1" fill="white" fill-opacity="0.5" /><text x="3530" y="649.5" font-size="14" fill="white" font-family="monospace" dominant-baseline="initial">61</text><rect x="3332" y="1346.5" width="188" height="1" fill="aqua" fill-opacity="0.75" /><text x="3332" y="1342.5" font-size="14" fill="aqua" fill-opacity="0.75" font-family="monospace">Phrase E</text><rect x="3332" y="1346.5" width="188" height="1" fill="lime" fill-opacity="0.75" /><text x="3530" y="1333.5" font-size="14" fill="lime" font-family="monospace" dominant-baseline="initial">155</text><rect x="3570" y="651.0" width="188" height="696.5" fill="black" /><rect x="3570" y="1346.5" width="188" height="1" fill="white" fill-opacity="0.5" /><text x="3768" y="1346.5" font-size="14" fill="white" font-family="monospace" dominant-baseline="initial">61</text><rect x="3570" y="1288.5" width="188" height="1" fill="white" fill-opacity="0.2" /><rect x="3570" y="1230.5" width="188" height="1" fill="white" fill-opacity="0.2" /><rect x="3570" y="1172.5" width="188" height="1" fill="white" fill-opacity="0.5" /><text x="3768" y="1172.5" font-size="14" fill="white" font-family="monospace" dominant-baseline="initial">62</text><rect x="3570" y="1114.5" width="188" height="1" fill="white" fill-opacity="0.2" /><rect x="3570" y="1056.5" width="188" height="1" fill="white" fill-opacity="0.2" /><rect x="3570" y="998.5" width="188" height="1" fill="white" fill-opacity="0.5" /><text x="3768" y="998.5" font-size="14" fill="white" font-family="monospace" dominant-baseline="initial">63</text><rect x="3570" y="940.0" width="188" height="1" fill="white" fill-opacity="0.2" /><rect x="3570" y="882.0" width="188" height="1" fill="white" fill-opacity="0.2" /><rect x="3570" y="824.0" width="188" height="1" fill="white" fill-opacity="0.5" /><text x="3768" y="824.0" font-size="14" fill="white" font-family="monospace" dominant-baseline="initial">64</text><rect x="3570" y="766.0" width="188" height="1" fill="white" fill-opacity="0.2" /><rect x="3570" y="708.0" width="188" height="1" fill="white" fill-opacity="0.2" /><rect x="3570" y="650.0" width="188" height="1" fill="white" fill-opacity="0.5" /><text x="3768" y="650.0" font-size="14" fill="white" font-family="monospace" dominant-baseline="initial">65</text><rect x="3808" y="650.5" width="188" height="697.0" fill="black" /><rect x="3808" y="1346.5" width="188" height="1" fill="white" fill-opacity="0.5" /><text x="4006" y="1346.5" font-size="14" fill="white" font-family="monospace" dominant-baseline="initial">65</text><rect x="3808" y="1288.5" width="188" height="1" fill="white" fill-opacity="0.2" /><rect x="3808" y="1230.5" width="188" height="1" fill="white" fill-opacity="0.2" /><rect x="3808" y="1172.0" width="188" height="1" fill="white" fill-opacity="0.5" /><text x="4006" y="1172.0" font-size="14" fill="white" font-family="monospace" dominant-baseline="initial">66</text><rect x="3808" y="1114.0" width="188" height="1" fill="white" fill-opacity="0.2" /><rect x="3808" y="1056.0" width="188" height="1" fill="white" fill-opacity="0.2" /><rect x="3808" y="998.0" width="188" height="1" fill="white" fill-opacity="0.5" /><text x="4006" y="998.0" font-size="14" fill="white" font-family="monospace" dominant-baseline="initial">67</text><rect x="3808" y="940.0" width="188" height="1" fill="white" fill-opacity="0.2" /><rect x="3808" y="882.0" width="188" height="1" fill="white" fill-opacity="0.2" /><rect x="3808" y="824.0" width="188" height="1" fill="white" fill-opacity="0.5" /><text x="4006" y="824.0" font-size="14" fill="white" font-family="monospace" dominant-baseline="initial">68</text><rect x="3808" y="765.5" width="188" height="1" fill="white" fill-opacity="0.2" /><rect x="3808" y="707.5" width="188" height="1" fill="white" fill-opacity="0.2" /><rect x="3808" y="649.5" width="188" height="1" fill="white" fill-opacity="0.5" /><text x="4006" y="649.5" font-size="14" fill="white" font-family="monospace" dominant-baseline="initial">69</text><rect x="4046" y="651.0" width="188" height="696.5" fill="black" /><rect x="4046" y="1346.5" width="188" height="1" fill="white" fill-opacity="0.5" /><text x="4244" y="1346.5" font-size="14" fill="white" font-family="monospace" dominant-baseline="initial">69</text><rect x="4046" y="1288.5" width="188" height="1" fill="white" fill-opacity="0.2" /><rect x="4046" y="1230.5" width="188" height="1" fill="white" fill-opacity="0.2" /><rect x="4046" y="1172.5" width="188" height="1" fill="white" fill-opacity="0.5" /><text x="4244" y="1172.5" font-size="14" fill="white" font-family="monospace" dominant-baseline="initial">70</text><rect x="4046" y="1114.5" width="188" height="1" fill="white" fill-opacity="0.2" /><rect x="4046" y="1056.5" width="188" height="1" fill="white" fill-opacity="0.2" /><rect x="4046" y="998.0" width="188" height="1" fill="white" fill-opacity="0.5" /><text x="4244" y="998.0" font-size="14" fill="white" font-family="monospace" dominant-baseline="initial">71</text><rect x="4046" y="940.0" width="188" height="1" fill="white" fill-opacity="0.2" /><rect x="4046" y="882.0" width="188" height="1" fill="white" fill-opacity="0.2" /><rect x="4046" y="824.0" width="188" height="1" fill="white" fill-opacity="0.5" /><text x="4244" y="824.0" font-size="14" fill="white" font-family="monospace" dominant-baseline="initial">72</text><rect x="4046" y="766.0" width="188" height="1" fill="white" fill-opacity="0.2" /><rect x="4046" y="708.0" width="188" height="1" fill="white" fill-opacity="0.2" /><rect x="4046" y="650.0" width="188" height="1" fill="white" fill-opacity="0.5" /><text x="4244" y="650.0" font-size="14" fill="white" font-family="monospace" dominant-baseline="initial">73</text><rect x="4046" y="824.0" width="188" height="1" fill="aqua" fill-opacity="0.75" /><text x="4046" y="820.0" font-size="14" fill="aqua" fill-opacity="0.75" font-family="monospace">Special</text><rect x="4284" y="592.5" width="188" height="755.0" fill="black" /><rect x="4284" y="1346.5" width="188" height="1" fill="white" fill-opacity="0.5" /><text x="4482" y="1346.5" font-size="14" fill="white" font-family="monospace" dominant-baseline="initial">73</text><rect x="4284" y="1288.5" width="188" height="1" fill="white" fill-opacity="0.2" /><rect x="4284" y="1230.0" width="188" height="1" fill="white" fill-opacity="0.2" /><rect x="4284" y="1172.0" width="188" height="1" fill="white" fill-opacity="0.5" /><text x="4482" y="1172.0" font-size="14" fill="white" font-family="monospace" dominant-baseline="initial">74</text><rect x="4284" y="1114.0" width="188" height="1" fill="white" fill-opacity="0.2" /><rect x="4284" y="1056.0" width="188" height="1" fill="white" fill-opacity="0.2" /><rect x="4284" y="998.0" width="188" height="1" fill="white" fill-opacity="0.5" /><text x="4482" y="998.0" font-size="14" fill="white" font-family="monospace" dominant-baseline="initial">75</text><rect x="4284" y="940.0" width="188" height="1" fill="white" fill-opacity="0.2" /><rect x="4284" y="882.0" width="188" height="1" fill="white" fill-opacity="0.2" /><rect x="4284" y="824.0" width="188" height="1" fill="white" fill-opacity="0.2" /><rect x="4284" y="765.5" width="188" height="1" fill="white" fill-opacity="0.5" /><text x="4482" y="765.5" font-size="14" fill="white" font-family="monospace" dominant-baseline="initial">76</text><rect x="4284" y="707.5" width="188" height="1" fill="white" fill-opacity="0.2" /><rect x="4284" y="649.5" width="188" height="1" fill="white" fill-opacity="0.2" /><rect x="4284" y="591.5" width="188" height="1" fill="white" fill-opacity="0.5" /><text x="4482" y="591.5" font-size="14" fill="white" font-family="monospace" dominant-baseline="initial">77</text><rect x="4522" y="462.0" width="188" height="885.5" fill="black" /><rect x="4522" y="1346.5" width="188" height="1" fill="white" fill-opacity="0.5" /><text x="4720" y="1346.5" font-size="14" fill="white" font-family="monospace" dominant-baseline="initial">77</text><rect x="4522" y="1287.0" width="188" height="1" fill="white" fill-opacity="0.2" /><rect x="4522" y="1222.0" width="188" height="1" fill="white" fill-opacity="0.2" /><rect x="4522" y="1152.0" width="188" height="1" fill="white" fill-opacity="0.5" /><text x="4720" y="1152.0" font-size="14" fill="white" font-family="monospace" dominant-baseline="initial">78</text><rect x="4522" y="1078.0" width="188" height="1" fill="white" fill-opacity="0.2" /><rect x="4522" y="1004.5" width="188" height="1" fill="white" fill-opacity="0.2" /><rect x="4522" y="930.5" width="188" height="1" fill="white" fill-opacity="0.5" /><text x="4720" y="930.5" font-size="14" fill="white" font-family="monospace" dominant-baseline="initial">79</text><rect x="4522" y="856.5" width="188" height="1" fill="white" fill-opacity="0.2" /><rect x="4522" y="783.0" width="188" height="1" fill="white" fill-opacity="0.2" /><rect x="4522" y="709.0" width="188" height="1" fill="white" fill-opacity="0.5" /><text x="4720" y="709.0" font-size="14" fill="white" font-family="monospace" dominant-baseline="initial">80</text><rect x="4522" y="628.5" width="188" height="1" fill="white" fill-opacity="0.2" /><rect x="4522" y="548.0" width="188" height="1" fill="white" fill-opacity="0.2" /><rect x="4522" y="461.0" width="188" height="1" fill="white" fill-opacity="0.5" /><text x="4720" y="461.0" font-size="14" fill="white" font-family="monospace" dominant-baseline="initial">81</text><rect x="4522" y="1346.5" width="188" height="1" fill="lime" fill-opacity="0.75" /><text x="4720" y="1333.5" font-size="14" fill="lime" font-family="monospace" dominant-baseline="initial">155.6</text><rect x="4522" y="1339.5" width="188" height="1" fill="lime" fill-opacity="0.75" /><text x="4720" y="1340.5" font-size="14" fill="lime" font-family="monospace" dominant-baseline="initial">154.2</text><rect x="4522" y="1332.0" width="188" height="1" fill="lime" fill-opacity="0.75" /><text x="4720" y="1333.0" font-size="14" fill="lime" font-family="monospace" dominant-baseline="initial">152.8</text><rect x="4522" y="1324.5" width="188" height="1" fill="lime" fill-opacity="0.75" /><text x="4720" y="1325.5" font-size="14" fill="lime" font-family="monospace" dominant-baseline="initial">151.4</text><rect x="4522" y="1317.0" width="188" height="1" fill="lime" fill-opacity="0.75" /><text x="4720" y="1318.0" font-size="14" fill="lime" font-family="monospace" dominant-baseline="initial">150</text><rect x="4522" y="1309.5" width="188" height="1" fill="lime" fill-opacity="0.75" /><text x="4720" y="1310.5" font-size="14" fill="lime" font-family="monospace" dominant-baseline="initial">148.6</text><rect x="4522" y="1302.0" width="188" height="1" fill="lime" fill-opacity="0.75" /><text x="4720" y="1303.0" font-size="14" fill="lime" font-family="monospace" dominant-baseline="initial">147.2</text><rect x="4522" y="1294.5" width="188" height="1" fill="lime" fill-opacity="0.75" /><text x="4720" y="1295.5" font-size="14" fill="lime" font-family="monospace" dominant-baseline="initial">145.8</text><rect x="4522" y="1287.0" width="188" height="1" fill="lime" fill-opacity="0.75" /><text x="4720" y="1288.0" font-size="14" fill="lime" font-family="monospace" dominant-baseline="initial">144.4</text><rect x="4522" y="1279.0" width="188" height="1" fill="lime" fill-opacity="0.75" /><text x="4720" y="1280.0" font-size="14" fill="lime" font-family="monospace" dominant-baseline="initial">143</text><rect x="4522" y="1271.0" width="188" height="1" fill="lime" fill-opacity="0.75" /><text x="4720" y="1272.0" font-size="14" fill="lime" font-family="monospace" dominant-baseline="initial">141.6</text><rect x="4522" y="1263.0" width="188" height="1" fill="lime" fill-opacity="0.75" /><text x="4720" y="1264.0" font-size="14" fill="lime" font-family="monospace" dominant-baseline="initial">140.2</text><rect x="4522" y="1255.0" width="188" height="1" fill="lime" fill-opacity="0.75" /><text x="4720" y="1256.0" font-size="14" fill="lime" font-family="monospace" dominant-baseline="initial">138.8</text><rect x="4522" y="1247.0" width="188" height="1" fill="lime" fill-opacity="0.75" /><text x="4720" y="1248.0" font-size="14" fill="lime" font-family="monospace" dominant-baseline="initial">137.3</text><rect x="4522" y="1239.0" width="188" height="1" fill="lime" fill-opacity="0.75" /><text x="4720" y="1240.0" font-size="14" fill="lime" font-family="monospace" dominant-baseline="initial">135.9</text><rect x="4522" y="1230.5" width="188" height="1" fill="lime" fill-opacity="0.75" /><text x="4720" y="1231.5" font-size="14" fill="lime" font-family="monospace" dominant-baseline="initial">134.5</text><rect x="4522" y="1222.0" width="188" height="1" fill="lime" fill-opacity="0.75" /><text x="4720" y="1223.0" font-size="14" fill="lime" font-family="monospace" dominant-baseline="initial">133.1</text><rect x="4522" y="1213.5" width="188" height="1" fill="lime" fill-opacity="0.75" /><text x="4720" y="1214.5" font-size="14" fill="lime" font-family="monospace" dominant-baseline="initial">131.7</text><rect x="4522" y="1205.0" width="188" height="1" fill="lime" fill-opacity="0.75" /><text x="4720" y="1206.0" font-size="14" fill="lime" font-family="monospace" dominant-baseline="initial">130.3</text><rect x="4522" y="1196.5" width="188" height="1" fill="lime" fill-opacity="0.75" /><text x="4720" y="1197.5" font-size="14" fill="lime" font-family="monospace" dominant-baseline="initial">128.9</text><rect x="4522" y="1188.0" width="188" height="1" fill="lime" fill-opacity="0.75" /><text x="4720" y="1189.0" font-size="14" fill="lime" font-family="monospace" dominant-baseline="initial">127.5</text><rect x="4522" y="1179.0" width="188" height="1" fill="lime" fill-opacity="0.75" /><text x="4720" y="1180.0" font-size="14" fill="lime" font-family="monospace" dominant-baseline="initial">126.1</text><rect x="4522" y="1170.0" width="188" height="1" fill="lime" fill-opacity="0.75" /><text x="4720" y="1171.0" font-size="14" fill="lime" font-family="monospace" dominant-baseline="initial">124.7</text><rect x="4522" y="1161.0" width="188" height="1" fill="lime" fill-opacity="0.75" /><text x="4720" y="1162.0" font-size="14" fill="lime" font-family="monospace" dominant-baseline="initial">123.3</text><rect x="4522" y="1152.0" width="188" height="1" fill="lime" fill-opacity="0.75" /><text x="4720" y="1139.0" font-size="14" fill="lime" font-family="monospace" dominant-baseline="initial">121.9</text><rect x="4522" y="709.0" width="188" height="1" fill="lime" fill-opacity="0.75" /><text x="4720" y="696.0" font-size="14" fill="lime" font-family="monospace" dominant-baseline="initial">112</text><rect x="4522" y="548.0" width="188" height="1" fill="lime" fill-opacity="0.75" /><text x="4720" y="549.0" font-size="14" fill="lime" font-family="monospace" dominant-baseline="initial">103</text><rect x="4760" y="14.0" width="188" height="1333.5" fill="black" /><rect x="4760" y="1346.5" width="188" height="1" fill="white" fill-opacity="0.5" /><text x="4958" y="1346.5" font-size="14" fill="white" font-family="monospace" dominant-baseline="initial">81</text><rect x="4760" y="1259.0" width="188" height="1" fill="white" fill-opacity="0.2" /><rect x="4760" y="1171.5" width="188" height="1" fill="white" fill-opacity="0.2" /><rect x="4760" y="1094.5" width="188" height="1" fill="white" fill-opacity="0.5" /><text x="4958" y="1094.5" font-size="14" fill="white" font-family="monospace" dominant-baseline="initial">82</text><rect x="4760" y="1171.5" width="188" height="1" fill="lime" fill-opacity="0.75" /><text x="4958" y="1172.5" font-size="14" fill="lime" font-family="monospace" dominant-baseline="initial">117</text></svg>