<?xml version="1.0" encoding="UTF-8"?><svg xmlns="http://www.w3.org/2000/svg" xmlns:xlink="http://www.w3.org/1999/xlink"     width="5236" height="856.0" viewBox="0 0 5236 856.0"><defs></defs><rect x="0" y="47.0" width="188" height="809.0" fill="black" /><rect x="0" y="855.0" width="188" height="1" fill="white" fill-opacity="0.5" /><text x="198" y="855.0" font-size="14" fill="white" font-family="monospace" dominant-baseline="initial">1</text><rect x="0" y="804.5" width="188" height="1" fill="white" fill-opacity="0.2" /><rect x="0" y="754.0" width="188" height="1" fill="white" fill-opacity="0.2" /><rect x="0" y="703.5" width="188" height="1" fill="white" fill-opacity="0.2" /><rect x="0" y="653.0" width="188" height="1" fill="white" fill-opacity="0.5" /><text x="198" y="653.0" font-size="14" fill="white" font-family="monospace" dominant-baseline="initial">2</text><rect x="0" y="602.0" width="188" height="1" fill="white" fill-opacity="0.2" /><rect x="0" y="551.5" width="188" height="1" fill="white" fill-opacity="0.2" /><rect x="0" y="501.0" width="188" height="1" fill="white" fill-opacity="0.2" /><rect x="0" y="450.5" width="188" height="1" fill="white" fill-opacity="0.5" /><text x="198" y="450.5" font-size="14" fill="white" font-family="monospace" dominant-baseline="initial">3</text><rect x="0" y="400.0" width="188" height="1" fill="white" fill-opacity="0.2" /><rect x="0" y="349.5" width="188" height="1" fill="white" fill-opacity="0.2" /><rect x="0" y="299.0" width="188" height="1" fill="white" fill-opacity="0.2" /><rect x="0" y="248.5" width="188" height="1" fill="white" fill-opacity="0.5" /><text x="198" y="248.5" font-size="14" fill="white" font-family="monospace" dominant-baseline="initial">4</text><rect x="0" y="197.5" width="188" height="1" fill="white" fill-opacity="0.2" /><rect x="0" y="147.0" width="188" height="1" fill="white" fill-opacity="0.2" /><rect x="0" y="96.5" width="188" height="1" fill="white" fill-opacity="0.2" /><rect x="0" y="46.0" width="188" height="1" fill="white" fill-opacity="0.5" /><text x="198" y="46.0" font-size="14" fill="white" font-family="monospace" dominant-baseline="initial">5</text><rect x="0" y="855.0" width="188" height="1" fill="aqua" fill-opacity="0.75" /><text x="0" y="851.0" font-size="14" fill="aqua" fill-opacity="0.75" font-family="monospace">Intro</text><rect x="0" y="855.0" width="188" height="1" fill="lime" fill-opacity="0.75" /><text x="198" y="842.0" font-size="14" fill="lime" font-family="monospace" dominant-baseline="initial">178</text><rect x="238" y="47.0" width="188" height="809.0" fill="black" /><rect x="238" y="855.0" width="188" height="1" fill="white" fill-opacity="0.5" /><text x="436" y="855.0" font-size="14" fill="white" font-family="monospace" dominant-baseline="initial">5</text><rect x="238" y="804.5" width="188" height="1" fill="white" fill-opacity="0.2" /><rect x="238" y="754.0" width="188" height="1" fill="white" fill-opacity="0.2" /><rect x="238" y="703.5" width="188" height="1" fill="white" fill-opacity="0.2" /><rect x="238" y="653.0" width="188" height="1" fill="white" fill-opacity="0.5" /><text x="436" y="653.0" font-size="14" fill="white" font-family="monospace" dominant-baseline="initial">6</text><rect x="238" y="602.0" width="188" height="1" fill="white" fill-opacity="0.2" /><rect x="238" y="551.5" width="188" height="1" fill="white" fill-opacity="0.2" /><rect x="238" y="501.0" width="188" height="1" fill="white" fill-opacity="0.2" /><rect x="238" y="450.5" width="188" height="1" fill="white" fill-opacity="0.5" /><text x="436" y="450.5" font-size="14" fill="white" font-family="monospace" dominant-baseline="initial">7</text><rect x="238" y="400.0" width="188" height="1" fill="white" fill-opacity="0.2" /><rect x="238" y="349.5" width="188" height="1" fill="white" fill-opacity="0.2" /><rect x="238" y="299.0" width="188" height="1" fill="white" fill-opacity="0.2" /><rect x="238" y="248.5" width="188" height="1" fill="white" fill-opacity="0.5" /><text x="436" y="248.5" font-size="14" fill="white" font-family="monospace" dominant-baseline="initial">8</text><rect x="238" y="197.5" width="188" height="1" fill="white" fill-opacity="0.2" /><rect x="238" y="147.0" width="188" height="1" fill="white" fill-opacity="0.2" /><rect x="238" y="96.5" width="188" height="1" fill="white" fill-opacity="0.2" /><rect x="238" y="46.0" width="188" height="1" fill="white" fill-opacity="0.5" /><text x="436" y="46.0" font-size="14" fill="white" font-family="monospace" dominant-baseline="initial">9</text><rect x="476" y="47.0" width="188" height="809.0" fill="black" /><rect x="476" y="855.0" width="188" height="1" fill="white" fill-opacity="0.5" /><text x="674" y="855.0" font-size="14" fill="white" font-family="monospace" dominant-baseline="initial">9</text><rect x="476" y="804.5" width="188" height="1" fill="white" fill-opacity="0.2" /><rect x="476" y="754.0" width="188" height="1" fill="white" fill-opacity="0.2" /><rect x="476" y="703.5" width="188" height="1" fill="white" fill-opacity="0.2" /><rect x="476" y="653.0" width="188" height="1" fill="white" fill-opacity="0.5" /><text x="674" y="653.0" font-size="14" fill="white" font-family="monospace" dominant-baseline="initial">10</text><rect x="476" y="602.0" width="188" height="1" fill="white" fill-opacity="0.2" /><rect x="476" y="551.5" width="188" height="1" fill="white" fill-opacity="0.2" /><rect x="476" y="501.0" width="188" height="1" fill="white" fill-opacity="0.2" /><rect x="476" y="450.5" width="188" height="1" fill="white" fill-opacity="0.5" /><text x="674" y="450.5" font-size="14" fill="white" font-family="monospace" dominant-baseline="initial">11</text><rect x="476" y="400.0" width="188" height="1" fill="white" fill-opacity="0.2" /><rect x="476" y="349.5" width="188" height="1" fill="white" fill-opacity="0.2" /><rect x="476" y="299.0" width="188" height="1" fill="white" fill-opacity="0.2" /><rect x="476" y="248.5" width="188" height="1" fill="white" fill-opacity="0.5" /><text x="674" y="248.5" font-size="14" fill="white" font-family="monospace" dominant-baseline="initial">12</text><rect x="476" y="197.5" width="188" height="1" fill="white" fill-opacity="0.2" /><rect x="476" y="147.0" width="188" height="1" fill="white" fill-opacity="0.2" /><rect x="476" y="96.5" width="188" height="1" fill="white" fill-opacity="0.2" /><rect x="476" y="46.0" width="188" height="1" fill="white" fill-opacity="0.5" /><text x="674" y="46.0" font-size="14" fill="white" font-family="monospace" dominant-baseline="initial">13</text><rect x="714" y="47.0" width="188" height="809.0" fill="black" /><rect x="714" y="855.0" width="188" height="1" fill="white" fill-opacity="0.5" /><text x="912" y="855.0" font-size="14" fill="white" font-family="monospace" dominant-baseline="initial">13</text><rect x="714" y="804.5" width="188" height="1" fill="white" fill-opacity="0.2" /><rect x="714" y="754.0" width="188" height="1" fill="white" fill-opacity="0.2" /><rect x="714" y="703.5" width="188" height="1" fill="white" fill-opacity="0.2" /><rect x="714" y="653.0" width="188" height="1" fill="white" fill-opacity="0.5" /><text x="912" y="653.0" font-size="14" fill="white" font-family="monospace" dominant-baseline="initial">14</text><rect x="714" y="602.0" width="188" height="1" fill="white" fill-opacity="0.2" /><rect x="714" y="551.5" width="188" height="1" fill="white" fill-opacity="0.2" /><rect x="714" y="501.0" width="188" height="1" fill="white" fill-opacity="0.2" /><rect x="714" y="450.5" width="188" height="1" fill="white" fill-opacity="0.5" /><text x="912" y="450.5" font-size="14" fill="white" font-family="monospace" dominant-baseline="initial">15</text><rect x="714" y="400.0" width="188" height="1" fill="white" fill-opacity="0.2" /><rect x="714" y="349.5" width="188" height="1" fill="white" fill-opacity="0.2" /><rect x="714" y="299.0" width="188" height="1" fill="white" fill-opacity="0.2" /><rect x="714" y="248.5" width="188" height="1" fill="white" fill-opacity="0.5" /><text x="912" y="248.5" font-size="14" fill="white" font-family="monospace" dominant-baseline="initial">16</text><rect x="714" y="197.5" width="188" height="1" fill="white" fill-opacity="0.2" /><rect x="714" y="147.0" width="188" height="1" fill="white" fill-opacity="0.2" /><rect x="714" y="96.5" width="188" height="1" fill="white" fill-opacity="0.2" /><rect x="714" y="46.0" width="188" height="1" fill="white" fill-opacity="0.5" /><text x="912" y="46.0" font-size="14" fill="white" font-family="monospace" dominant-baseline="initial">17</text><rect x="952" y="47.0" width="188" height="809.0" fill="black" /><rect x="952" y="855.0" width="188" height="1" fill="white" fill-opacity="0.5" /><text x="1150" y="855.0" font-size="14" fill="white" font-family="monospace" dominant-baseline="initial">17</text><rect x="952" y="804.5" width="188" height="1" fill="white" fill-opacity="0.2" /><rect x="952" y="754.0" width="188" height="1" fill="white" fill-opacity="0.2" /><rect x="952" y="703.5" width="188" height="1" fill="white" fill-opacity="0.2" /><rect x="952" y="653.0" width="188" height="1" fill="white" fill-opacity="0.5" /><text x="1150" y="653.0" font-size="14" fill="white" font-family="monospace" dominant-baseline="initial">18</text><rect x="952" y="602.0" width="188" height="1" fill="white" fill-opacity="0.2" /><rect x="952" y="551.5" width="188" height="1" fill="white" fill-opacity="0.2" /><rect x="952" y="501.0" width="188" height="1" fill="white" fill-opacity="0.2" /><rect x="952" y="450.5" width="188" height="1" fill="white" fill-opacity="0.5" /><text x="1150" y="450.5" font-size="14" fill="white" font-family="monospace" dominant-baseline="initial">19</text><rect x="952" y="400.0" width="188" height="1" fill="white" fill-opacity="0.2" /><rect x="952" y="349.5" width="188" height="1" fill="white" fill-opacity="0.2" /><rect x="952" y="299.0" width="188" height="1" fill="white" fill-opacity="0.2" /><rect x="952" y="248.5" width="188" height="1" fill="white" fill-opacity="0.5" /><text x="1150" y="248.5" font-size="14" fill="white" font-family="monospace" dominant-baseline="initial">20</text><rect x="952" y="197.5" width="188" height="1" fill="white" fill-opacity="0.2" /><rect x="952" y="147.0" width="188" height="1" fill="white" fill-opacity="0.2" /><rect x="952" y="96.5" width="188" height="1" fill="white" fill-opacity="0.2" /><rect x="952" y="46.0" width="188" height="1" fill="white" fill-opacity="0.5" /><text x="1150" y="46.0" font-size="14" fill="white" font-family="monospace" dominant-baseline="initial">21</text><rect x="952" y="450.5" width="188" height="1" fill="aqua" fill-opacity="0.75" /><text x="952" y="446.5" font-size="14" fill="aqua" fill-opacity="0.75" font-family="monospace">Phrase A</text><rect x="1190" y="47.0" width="188" height="809.0" fill="black" /><rect x="1190" y="855.0" width="188" height="1" fill="white" fill-opacity="0.5" /><text x="1388" y="855.0" font-size="14" fill="white" font-family="monospace" dominant-baseline="initial">21</text><rect x="1190" y="804.5" width="188" height="1" fill="white" fill-opacity="0.2" /><rect x="1190" y="754.0" width="188" height="1" fill="white" fill-opacity="0.2" /><rect x="1190" y="703.5" width="188" height="1" fill="white" fill-opacity="0.2" /><rect x="1190" y="653.0" width="188" height="1" fill="white" fill-opacity="0.5" /><text x="1388" y="653.0" font-size="14" fill="white" font-family="monospace" dominant-baseline="initial">22</text><rect x="1190" y="602.5" width="188" height="1" fill="white" fill-opacity="0.2" /><rect x="1190" y="551.5" width="188" height="1" fill="white" fill-opacity="0.2" /><rect x="1190" y="501.0" width="188" height="1" fill="white" fill-opacity="0.2" /><rect x="1190" y="450.5" width="188" height="1" fill="white" fill-opacity="0.5" /><text x="1388" y="450.5" font-size="14" fill="white" font-family="monospace" dominant-baseline="initial">23</text><rect x="1190" y="400.0" width="188" height="1" fill="white" fill-opacity="0.2" /><rect x="1190" y="349.5" width="188" height="1" fill="white" fill-opacity="0.2" /><rect x="1190" y="299.0" width="188" height="1" fill="white" fill-opacity="0.2" /><rect x="1190" y="248.5" width="188" height="1" fill="white" fill-opacity="0.5" /><text x="1388" y="248.5" font-size="14" fill="white" font-family="monospace" dominant-baseline="initial">24</text><rect x="1190" y="198.0" width="188" height="1" fill="white" fill-opacity="0.2" /><rect x="1190" y="147.0" width="188" height="1" fill="white" fill-opacity="0.2" /><rect x="1190" y="96.5" width="188" height="1" fill="white" fill-opacity="0.2" /><rect x="1190" y="46.0" width="188" height="1" fill="white" fill-opacity="0.5" /><text x="1388" y="46.0" font-size="14" fill="white" font-family="monospace" dominant-baseline="initial">25</text><rect x="1428" y="47.0" width="188" height="809.0" fill="black" /><rect x="1428" y="855.0" width="188" height="1" fill="white" fill-opacity="0.5" /><text x="1626" y="855.0" font-size="14" fill="white" font-family="monospace" dominant-baseline="initial">25</text><rect x="1428" y="804.5" width="188" height="1" fill="white" fill-opacity="0.2" /><rect x="1428" y="754.0" width="188" height="1" fill="white" fill-opacity="0.2" /><rect x="1428" y="703.5" width="188" height="1" fill="white" fill-opacity="0.2" /><rect x="1428" y="653.0" width="188" height="1" fill="white" fill-opacity="0.5" /><text x="1626" y="653.0" font-size="14" fill="white" font-family="monospace" dominant-baseline="initial">26</text><rect x="1428" y="602.5" width="188" height="1" fill="white" fill-opacity="0.2" /><rect x="1428" y="551.5" width="188" height="1" fill="white" fill-opacity="0.2" /><rect x="1428" y="501.0" width="188" height="1" fill="white" fill-opacity="0.2" /><rect x="1428" y="450.5" width="188" height="1" fill="white" fill-opacity="0.5" /><text x="1626" y="450.5" font-size="14" fill="white" font-family="monospace" dominant-baseline="initial">27</text><rect x="1428" y="400.0" width="188" height="1" fill="white" fill-opacity="0.2" /><rect x="1428" y="349.5" width="188" height="1" fill="white" fill-opacity="0.2" /><rect x="1428" y="299.0" width="188" height="1" fill="white" fill-opacity="0.2" /><rect x="1428" y="248.5" width="188" height="1" fill="white" fill-opacity="0.5" /><text x="1626" y="248.5" font-size="14" fill="white" font-family="monospace" dominant-baseline="initial">28</text><rect x="1428" y="198.0" width="188" height="1" fill="white" fill-opacity="0.2" /><rect x="1428" y="147.0" width="188" height="1" fill="white" fill-opacity="0.2" /><rect x="1428" y="96.5" width="188" height="1" fill="white" fill-opacity="0.2" /><rect x="1428" y="46.0" width="188" height="1" fill="white" fill-opacity="0.5" /><text x="1626" y="46.0" font-size="14" fill="white" font-family="monospace" dominant-baseline="initial">29</text><rect x="1666" y="47.0" width="188" height="809.0" fill="black" /><rect x="1666" y="855.0" width="188" height="1" fill="white" fill-opacity="0.5" /><text x="1864" y="855.0" font-size="14" fill="white" font-family="monospace" dominant-baseline="initial">29</text><rect x="1666" y="804.5" width="188" height="1" fill="white" fill-opacity="0.2" /><rect x="1666" y="754.0" width="188" height="1" fill="white" fill-opacity="0.2" /><rect x="1666" y="703.5" width="188" height="1" fill="white" fill-opacity="0.2" /><rect x="1666" y="653.0" width="188" height="1" fill="white" fill-opacity="0.5" /><text x="1864" y="653.0" font-size="14" fill="white" font-family="monospace" dominant-baseline="initial">30</text><rect x="1666" y="602.5" width="188" height="1" fill="white" fill-opacity="0.2" /><rect x="1666" y="551.5" width="188" height="1" fill="white" fill-opacity="0.2" /><rect x="1666" y="501.0" width="188" height="1" fill="white" fill-opacity="0.2" /><rect x="1666" y="450.5" width="188" height="1" fill="white" fill-opacity="0.5" /><text x="1864" y="450.5" font-size="14" fill="white" font-family="monospace" dominant-baseline="initial">31</text><rect x="1666" y="400.0" width="188" height="1" fill="white" fill-opacity="0.2" /><rect x="1666" y="349.5" width="188" height="1" fill="white" fill-opacity="0.2" /><rect x="1666" y="299.0" width="188" height="1" fill="white" fill-opacity="0.2" /><rect x="1666" y="248.5" width="188" height="1" fill="white" fill-opacity="0.5" /><text x="1864" y="248.5" font-size="14" fill="white" font-family="monospace" dominant-baseline="initial">32</text><rect x="1666" y="198.0" width="188" height="1" fill="white" fill-opacity="0.2" /><rect x="1666" y="147.0" width="188" height="1" fill="white" fill-opacity="0.2" /><rect x="1666" y="96.5" width="188" height="1" fill="white" fill-opacity="0.2" /><rect x="1666" y="46.0" width="188" height="1" fill="white" fill-opacity="0.5" /><text x="1864" y="46.0" font-size="14" fill="white" font-family="monospace" dominant-baseline="initial">33</text><rect x="1904" y="148.0" width="188" height="708.0" fill="black" /><rect x="1904" y="855.0" width="188" height="1" fill="white" fill-opacity="0.5" /><text x="2102" y="855.0" font-size="14" fill="white" font-family="monospace" dominant-baseline="initial">33</text><rect x="1904" y="804.5" width="188" height="1" fill="white" fill-opacity="0.2" /><rect x="1904" y="754.0" width="188" height="1" fill="white" fill-opacity="0.2" /><rect x="1904" y="703.5" width="188" height="1" fill="white" fill-opacity="0.2" /><rect x="1904" y="653.0" width="188" height="1" fill="white" fill-opacity="0.5" /><text x="2102" y="653.0" font-size="14" fill="white" font-family="monospace" dominant-baseline="initial">34</text><rect x="1904" y="602.5" width="188" height="1" fill="white" fill-opacity="0.2" /><rect x="1904" y="551.5" width="188" height="1" fill="white" fill-opacity="0.2" /><rect x="1904" y="501.0" width="188" height="1" fill="white" fill-opacity="0.2" /><rect x="1904" y="450.5" width="188" height="1" fill="white" fill-opacity="0.5" /><text x="2102" y="450.5" font-size="14" fill="white" font-family="monospace" dominant-baseline="initial">35</text><rect x="1904" y="400.0" width="188" height="1" fill="white" fill-opacity="0.2" /><rect x="1904" y="349.5" width="188" height="1" fill="white" fill-opacity="0.5" /><text x="2102" y="349.5" font-size="14" fill="white" font-family="monospace" dominant-baseline="initial">36</text><rect x="1904" y="299.0" width="188" height="1" fill="white" fill-opacity="0.2" /><rect x="1904" y="248.5" width="188" height="1" fill="white" fill-opacity="0.2" /><rect x="1904" y="198.0" width="188" height="1" fill="white" fill-opacity="0.2" /><rect x="1904" y="147.0" width="188" height="1" fill="white" fill-opacity="0.5" /><text x="2102" y="147.0" font-size="14" fill="white" font-family="monospace" dominant-baseline="initial">37</text><rect x="1904" y="349.4500000000007" width="188" height="1" fill="aqua" fill-opacity="0.75" /><text x="1904" y="345.4500000000007" font-size="14" fill="aqua" fill-opacity="0.75" font-family="monospace">Phrase B</text><rect x="2142" y="47.5" width="188" height="808.5" fill="black" /><rect x="2142" y="855.0" width="188" height="1" fill="white" fill-opacity="0.5" /><text x="2340" y="855.0" font-size="14" fill="white" font-family="monospace" dominant-baseline="initial">37</text><rect x="2142" y="804.5" width="188" height="1" fill="white" fill-opacity="0.2" /><rect x="2142" y="754.0" width="188" height="1" fill="white" fill-opacity="0.2" /><rect x="2142" y="703.5" width="188" height="1" fill="white" fill-opacity="0.2" /><rect x="2142" y="653.0" width="188" height="1" fill="white" fill-opacity="0.5" /><text x="2340" y="653.0" font-size="14" fill="white" font-family="monospace" dominant-baseline="initial">38</text><rect x="2142" y="602.5" width="188" height="1" fill="white" fill-opacity="0.2" /><rect x="2142" y="552.0" width="188" height="1" fill="white" fill-opacity="0.2" /><rect x="2142" y="501.5" width="188" height="1" fill="white" fill-opacity="0.2" /><rect x="2142" y="450.5" width="188" height="1" fill="white" fill-opacity="0.5" /><text x="2340" y="450.5" font-size="14" fill="white" font-family="monospace" dominant-baseline="initial">39</text><rect x="2142" y="400.0" width="188" height="1" fill="white" fill-opacity="0.2" /><rect x="2142" y="349.5" width="188" height="1" fill="white" fill-opacity="0.2" /><rect x="2142" y="299.0" width="188" height="1" fill="white" fill-opacity="0.2" /><rect x="2142" y="248.5" width="188" height="1" fill="white" fill-opacity="0.5" /><text x="2340" y="248.5" font-size="14" fill="white" font-family="monospace" dominant-baseline="initial">40</text><rect x="2142" y="198.0" width="188" height="1" fill="white" fill-opacity="0.2" /><rect x="2142" y="147.5" width="188" height="1" fill="white" fill-opacity="0.2" /><rect x="2142" y="97.0" width="188" height="1" fill="white" fill-opacity="0.2" /><rect x="2142" y="46.5" width="188" height="1" fill="white" fill-opacity="0.5" /><text x="2340" y="46.5" font-size="14" fill="white" font-family="monospace" dominant-baseline="initial">41</text><rect x="2380" y="47.0" width="188" height="809.0" fill="black" /><rect x="2380" y="855.0" width="188" height="1" fill="white" fill-opacity="0.5" /><text x="2578" y="855.0" font-size="14" fill="white" font-family="monospace" dominant-baseline="initial">41</text><rect x="2380" y="804.0" width="188" height="1" fill="white" fill-opacity="0.2" /><rect x="2380" y="753.5" width="188" height="1" fill="white" fill-opacity="0.2" /><rect x="2380" y="703.0" width="188" height="1" fill="white" fill-opacity="0.2" /><rect x="2380" y="652.5" width="188" height="1" fill="white" fill-opacity="0.5" /><text x="2578" y="652.5" font-size="14" fill="white" font-family="monospace" dominant-baseline="initial">42</text><rect x="2380" y="602.0" width="188" height="1" fill="white" fill-opacity="0.2" /><rect x="2380" y="551.5" width="188" height="1" fill="white" fill-opacity="0.2" /><rect x="2380" y="501.0" width="188" height="1" fill="white" fill-opacity="0.2" /><rect x="2380" y="450.5" width="188" height="1" fill="white" fill-opacity="0.5" /><text x="2578" y="450.5" font-size="14" fill="white" font-family="monospace" dominant-baseline="initial">43</text><rect x="2380" y="399.5" width="188" height="1" fill="white" fill-opacity="0.2" /><rect x="2380" y="349.0" width="188" height="1" fill="white" fill-opacity="0.2" /><rect x="2380" y="298.5" width="188" height="1" fill="white" fill-opacity="0.2" /><rect x="2380" y="248.0" width="188" height="1" fill="white" fill-opacity="0.5" /><text x="2578" y="248.0" font-size="14" fill="white" font-family="monospace" dominant-baseline="initial">44</text><rect x="2380" y="197.5" width="188" height="1" fill="white" fill-opacity="0.2" /><rect x="2380" y="147.0" width="188" height="1" fill="white" fill-opacity="0.2" /><rect x="2380" y="96.5" width="188" height="1" fill="white" fill-opacity="0.2" /><rect x="2380" y="46.0" width="188" height="1" fill="white" fill-opacity="0.5" /><text x="2578" y="46.0" font-size="14" fill="white" font-family="monospace" dominant-baseline="initial">45</text><rect x="2618" y="47.0" width="188" height="809.0" fill="black" /><rect x="2618" y="855.0" width="188" height="1" fill="white" fill-opacity="0.5" /><text x="2816" y="855.0" font-size="14" fill="white" font-family="monospace" dominant-baseline="initial">45</text><rect x="2618" y="804.0" width="188" height="1" fill="white" fill-opacity="0.2" /><rect x="2618" y="753.5" width="188" height="1" fill="white" fill-opacity="0.2" /><rect x="2618" y="703.0" width="188" height="1" fill="white" fill-opacity="0.2" /><rect x="2618" y="652.5" width="188" height="1" fill="white" fill-opacity="0.5" /><text x="2816" y="652.5" font-size="14" fill="white" font-family="monospace" dominant-baseline="initial">46</text><rect x="2618" y="602.0" width="188" height="1" fill="white" fill-opacity="0.2" /><rect x="2618" y="551.5" width="188" height="1" fill="white" fill-opacity="0.2" /><rect x="2618" y="501.0" width="188" height="1" fill="white" fill-opacity="0.2" /><rect x="2618" y="450.5" width="188" height="1" fill="white" fill-opacity="0.5" /><text x="2816" y="450.5" font-size="14" fill="white" font-family="monospace" dominant-baseline="initial">47</text><rect x="2618" y="399.5" width="188" height="1" fill="white" fill-opacity="0.2" /><rect x="2618" y="349.0" width="188" height="1" fill="white" fill-opacity="0.2" /><rect x="2618" y="298.5" width="188" height="1" fill="white" fill-opacity="0.2" /><rect x="2618" y="248.0" width="188" height="1" fill="white" fill-opacity="0.5" /><text x="2816" y="248.0" font-size="14" fill="white" font-family="monospace" dominant-baseline="initial">48</text><rect x="2618" y="197.5" width="188" height="1" fill="white" fill-opacity="0.2" /><rect x="2618" y="147.0" width="188" height="1" fill="white" fill-opacity="0.2" /><rect x="2618" y="96.5" width="188" height="1" fill="white" fill-opacity="0.2" /><rect x="2618" y="46.0" width="188" height="1" fill="white" fill-opacity="0.5" /><text x="2816" y="46.0" font-size="14" fill="white" font-family="monospace" dominant-baseline="initial">49</text><rect x="2618" y="247.95000000000073" width="188" height="1" fill="aqua" fill-opacity="0.75" /><text x="2618" y="243.95000000000073" font-size="14" fill="aqua" fill-opacity="0.75" font-family="monospace">Phrase C</text><rect x="2856" y="47.0" width="188" height="809.0" fill="black" /><rect x="2856" y="855.0" width="188" height="1" fill="white" fill-opacity="0.5" /><text x="3054" y="855.0" font-size="14" fill="white" font-family="monospace" dominant-baseline="initial">49</text><rect x="2856" y="804.0" width="188" height="1" fill="white" fill-opacity="0.2" /><rect x="2856" y="753.5" width="188" height="1" fill="white" fill-opacity="0.2" /><rect x="2856" y="703.0" width="188" height="1" fill="white" fill-opacity="0.2" /><rect x="2856" y="652.5" width="188" height="1" fill="white" fill-opacity="0.5" /><text x="3054" y="652.5" font-size="14" fill="white" font-family="monospace" dominant-baseline="initial">50</text><rect x="2856" y="602.0" width="188" height="1" fill="white" fill-opacity="0.2" /><rect x="2856" y="551.5" width="188" height="1" fill="white" fill-opacity="0.2" /><rect x="2856" y="501.0" width="188" height="1" fill="white" fill-opacity="0.2" /><rect x="2856" y="450.5" width="188" height="1" fill="white" fill-opacity="0.5" /><text x="3054" y="450.5" font-size="14" fill="white" font-family="monospace" dominant-baseline="initial">51</text><rect x="2856" y="399.5" width="188" height="1" fill="white" fill-opacity="0.2" /><rect x="2856" y="349.0" width="188" height="1" fill="white" fill-opacity="0.2" /><rect x="2856" y="298.5" width="188" height="1" fill="white" fill-opacity="0.2" /><rect x="2856" y="248.0" width="188" height="1" fill="white" fill-opacity="0.5" /><text x="3054" y="248.0" font-size="14" fill="white" font-family="monospace" dominant-baseline="initial">52</text><rect x="2856" y="197.5" width="188" height="1" fill="white" fill-opacity="0.2" /><rect x="2856" y="147.0" width="188" height="1" fill="white" fill-opacity="0.2" /><rect x="2856" y="96.5" width="188" height="1" fill="white" fill-opacity="0.2" /><rect x="2856" y="46.0" width="188" height="1" fill="white" fill-opacity="0.5" /><text x="3054" y="46.0" font-size="14" fill="white" font-family="monospace" dominant-baseline="initial">53</text><rect x="3094" y="47.0" width="188" height="809.0" fill="black" /><rect x="3094" y="855.0" width="188" height="1" fill="white" fill-opacity="0.5" /><text x="3292" y="855.0" font-size="14" fill="white" font-family="monospace" dominant-baseline="initial">53</text><rect x="3094" y="804.0" width="188" height="1" fill="white" fill-opacity="0.2" /><rect x="3094" y="753.5" width="188" height="1" fill="white" fill-opacity="0.2" /><rect x="3094" y="703.0" width="188" height="1" fill="white" fill-opacity="0.2" /><rect x="3094" y="652.5" width="188" height="1" fill="white" fill-opacity="0.5" /><text x="3292" y="652.5" font-size="14" fill="white" font-family="monospace" dominant-baseline="initial">54</text><rect x="3094" y="602.0" width="188" height="1" fill="white" fill-opacity="0.2" /><rect x="3094" y="551.5" width="188" height="1" fill="white" fill-opacity="0.2" /><rect x="3094" y="501.0" width="188" height="1" fill="white" fill-opacity="0.2" /><rect x="3094" y="450.5" width="188" height="1" fill="white" fill-opacity="0.5" /><text x="3292" y="450.5" font-size="14" fill="white" font-family="monospace" dominant-baseline="initial">55</text><rect x="3094" y="399.5" width="188" height="1" fill="white" fill-opacity="0.2" /><rect x="3094" y="349.0" width="188" height="1" fill="white" fill-opacity="0.2" /><rect x="3094" y="298.5" width="188" height="1" fill="white" fill-opacity="0.2" /><rect x="3094" y="248.0" width="188" height="1" fill="white" fill-opacity="0.5" /><text x="3292" y="248.0" font-size="14" fill="white" font-family="monospace" dominant-baseline="initial">56</text><rect x="3094" y="197.5" width="188" height="1" fill="white" fill-opacity="0.2" /><rect x="3094" y="147.0" width="188" height="1" fill="white" fill-opacity="0.2" /><rect x="3094" y="96.5" width="188" height="1" fill="white" fill-opacity="0.2" /><rect x="3094" y="46.0" width="188" height="1" fill="white" fill-opacity="0.5" /><text x="3292" y="46.0" font-size="14" fill="white" font-family="monospace" dominant-baseline="initial">57</text><rect x="3332" y="47.0" width="188" height="809.0" fill="black" /><rect x="3332" y="855.0" width="188" height="1" fill="white" fill-opacity="0.5" /><text x="3530" y="855.0" font-size="14" fill="white" font-family="monospace" dominant-baseline="initial">57</text><rect x="3332" y="804.0" width="188" height="1" fill="white" fill-opacity="0.2" /><rect x="3332" y="753.5" width="188" height="1" fill="white" fill-opacity="0.2" /><rect x="3332" y="703.0" width="188" height="1" fill="white" fill-opacity="0.2" /><rect x="3332" y="652.5" width="188" height="1" fill="white" fill-opacity="0.5" /><text x="3530" y="652.5" font-size="14" fill="white" font-family="monospace" dominant-baseline="initial">58</text><rect x="3332" y="602.0" width="188" height="1" fill="white" fill-opacity="0.2" /><rect x="3332" y="551.5" width="188" height="1" fill="white" fill-opacity="0.2" /><rect x="3332" y="501.0" width="188" height="1" fill="white" fill-opacity="0.2" /><rect x="3332" y="450.5" width="188" height="1" fill="white" fill-opacity="0.5" /><text x="3530" y="450.5" font-size="14" fill="white" font-family="monospace" dominant-baseline="initial">59</text><rect x="3332" y="399.5" width="188" height="1" fill="white" fill-opacity="0.2" /><rect x="3332" y="349.0" width="188" height="1" fill="white" fill-opacity="0.2" /><rect x="3332" y="298.5" width="188" height="1" fill="white" fill-opacity="0.2" /><rect x="3332" y="248.0" width="188" height="1" fill="white" fill-opacity="0.5" /><text x="3530" y="248.0" font-size="14" fill="white" font-family="monospace" dominant-baseline="initial">60</text><rect x="3332" y="197.5" width="188" height="1" fill="white" fill-opacity="0.2" /><rect x="3332" y="147.0" width="188" height="1" fill="white" fill-opacity="0.2" /><rect x="3332" y="96.5" width="188" height="1" fill="white" fill-opacity="0.2" /><rect x="3332" y="46.0" width="188" height="1" fill="white" fill-opacity="0.5" /><text x="3530" y="46.0" font-size="14" fill="white" font-family="monospace" dominant-baseline="initial">61</text><rect x="3332" y="248.10000000000036" width="188" height="1" fill="aqua" fill-opacity="0.75" /><text x="3332" y="244.10000000000036" font-size="14" fill="aqua" fill-opacity="0.75" font-family="monospace">Special</text><rect x="3570" y="47.0" width="188" height="809.0" fill="black" /><rect x="3570" y="855.0" width="188" height="1" fill="white" fill-opacity="0.5" /><text x="3768" y="855.0" font-size="14" fill="white" font-family="monospace" dominant-baseline="initial">61</text><rect x="3570" y="804.5" width="188" height="1" fill="white" fill-opacity="0.2" /><rect x="3570" y="753.5" width="188" height="1" fill="white" fill-opacity="0.2" /><rect x="3570" y="703.0" width="188" height="1" fill="white" fill-opacity="0.2" /><rect x="3570" y="652.5" width="188" height="1" fill="white" fill-opacity="0.5" /><text x="3768" y="652.5" font-size="14" fill="white" font-family="monospace" dominant-baseline="initial">62</text><rect x="3570" y="602.0" width="188" height="1" fill="white" fill-opacity="0.2" /><rect x="3570" y="551.5" width="188" height="1" fill="white" fill-opacity="0.2" /><rect x="3570" y="501.0" width="188" height="1" fill="white" fill-opacity="0.2" /><rect x="3570" y="450.5" width="188" height="1" fill="white" fill-opacity="0.5" /><text x="3768" y="450.5" font-size="14" fill="white" font-family="monospace" dominant-baseline="initial">63</text><rect x="3570" y="400.0" width="188" height="1" fill="white" fill-opacity="0.2" /><rect x="3570" y="349.0" width="188" height="1" fill="white" fill-opacity="0.2" /><rect x="3570" y="298.5" width="188" height="1" fill="white" fill-opacity="0.2" /><rect x="3570" y="248.0" width="188" height="1" fill="white" fill-opacity="0.5" /><text x="3768" y="248.0" font-size="14" fill="white" font-family="monospace" dominant-baseline="initial">64</text><rect x="3570" y="197.5" width="188" height="1" fill="white" fill-opacity="0.2" /><rect x="3570" y="147.0" width="188" height="1" fill="white" fill-opacity="0.2" /><rect x="3570" y="96.5" width="188" height="1" fill="white" fill-opacity="0.2" /><rect x="3570" y="46.0" width="188" height="1" fill="white" fill-opacity="0.5" /><text x="3768" y="46.0" font-size="14" fill="white" font-family="monospace" dominant-baseline="initial">65</text><rect x="3808" y="47.0" width="188" height="809.0" fill="black" /><rect x="3808" y="855.0" width="188" height="1" fill="white" fill-opacity="0.5" /><text x="4006" y="855.0" font-size="14" fill="white" font-family="monospace" dominant-baseline="initial">65</text><rect x="3808" y="804.5" width="188" height="1" fill="white" fill-opacity="0.2" /><rect x="3808" y="753.5" width="188" height="1" fill="white" fill-opacity="0.2" /><rect x="3808" y="703.0" width="188" height="1" fill="white" fill-opacity="0.2" /><rect x="3808" y="652.5" width="188" height="1" fill="white" fill-opacity="0.5" /><text x="4006" y="652.5" font-size="14" fill="white" font-family="monospace" dominant-baseline="initial">66</text><rect x="3808" y="602.0" width="188" height="1" fill="white" fill-opacity="0.2" /><rect x="3808" y="551.5" width="188" height="1" fill="white" fill-opacity="0.2" /><rect x="3808" y="501.0" width="188" height="1" fill="white" fill-opacity="0.2" /><rect x="3808" y="450.5" width="188" height="1" fill="white" fill-opacity="0.5" /><text x="4006" y="450.5" font-size="14" fill="white" font-family="monospace" dominant-baseline="initial">67</text><rect x="3808" y="400.0" width="188" height="1" fill="white" fill-opacity="0.2" /><rect x="3808" y="349.0" width="188" height="1" fill="white" fill-opacity="0.2" /><rect x="3808" y="298.5" width="188" height="1" fill="white" fill-opacity="0.2" /><rect x="3808" y="248.0" width="188" height="1" fill="white" fill-opacity="0.5" /><text x="4006" y="248.0" font-size="14" fill="white" font-family="monospace" dominant-baseline="initial">68</text><rect x="3808" y="197.5" width="188" height="1" fill="white" fill-opacity="0.2" /><rect x="3808" y="147.0" width="188" height="1" fill="white" fill-opacity="0.2" /><rect x="3808" y="96.5" width="188" height="1" fill="white" fill-opacity="0.2" /><rect x="3808" y="46.0" width="188" height="1" fill="white" fill-opacity="0.5" /><text x="4006" y="46.0" font-size="14" fill="white" font-family="monospace" dominant-baseline="initial">69</text><rect x="4046" y="47.0" width="188" height="809.0" fill="black" /><rect x="4046" y="855.0" width="188" height="1" fill="white" fill-opacity="0.5" /><text x="4244" y="855.0" font-size="14" fill="white" font-family="monospace" dominant-baseline="initial">69</text><rect x="4046" y="804.5" width="188" height="1" fill="white" fill-opacity="0.2" /><rect x="4046" y="753.5" width="188" height="1" fill="white" fill-opacity="0.2" /><rect x="4046" y="703.0" width="188" height="1" fill="white" fill-opacity="0.2" /><rect x="4046" y="652.5" width="188" height="1" fill="white" fill-opacity="0.5" /><text x="4244" y="652.5" font-size="14" fill="white" font-family="monospace" dominant-baseline="initial">70</text><rect x="4046" y="602.0" width="188" height="1" fill="white" fill-opacity="0.2" /><rect x="4046" y="551.5" width="188" height="1" fill="white" fill-opacity="0.2" /><rect x="4046" y="501.0" width="188" height="1" fill="white" fill-opacity="0.2" /><rect x="4046" y="450.5" width="188" height="1" fill="white" fill-opacity="0.5" /><text x="4244" y="450.5" font-size="14" fill="white" font-family="monospace" dominant-baseline="initial">71</text><rect x="4046" y="400.0" width="188" height="1" fill="white" fill-opacity="0.2" /><rect x="4046" y="349.0" width="188" height="1" fill="white" fill-opacity="0.2" /><rect x="4046" y="298.5" width="188" height="1" fill="white" fill-opacity="0.2" /><rect x="4046" y="248.0" width="188" height="1" fill="white" fill-opacity="0.5" /><text x="4244" y="248.0" font-size="14" fill="white" font-family="monospace" dominant-baseline="initial">72</text><rect x="4046" y="197.5" width="188" height="1" fill="white" fill-opacity="0.2" /><rect x="4046" y="147.0" width="188" height="1" fill="white" fill-opacity="0.2" /><rect x="4046" y="96.5" width="188" height="1" fill="white" fill-opacity="0.2" /><rect x="4046" y="46.0" width="188" height="1" fill="white" fill-opacity="0.5" /><text x="4244" y="46.0" font-size="14" fill="white" font-family="monospace" dominant-baseline="initial">73</text><rect x="4284" y="47.0" width="188" height="809.0" fill="black" /><rect x="4284" y="855.0" width="188" height="1" fill="white" fill-opacity="0.5" /><text x="4482" y="855.0" font-size="14" fill="white" font-family="monospace" dominant-baseline="initial">73</text><rect x="4284" y="804.5" width="188" height="1" fill="white" fill-opacity="0.2" /><rect x="4284" y="753.5" width="188" height="1" fill="white" fill-opacity="0.2" /><rect x="4284" y="703.0" width="188" height="1" fill="white" fill-opacity="0.2" /><rect x="4284" y="652.5" width="188" height="1" fill="white" fill-opacity="0.5" /><text x="4482" y="652.5" font-size="14" fill="white" font-family="monospace" dominant-baseline="initial">74</text><rect x="4284" y="602.0" width="188" height="1" fill="white" fill-opacity="0.2" /><rect x="4284" y="551.5" width="188" height="1" fill="white" fill-opacity="0.2" /><rect x="4284" y="501.0" width="188" height="1" fill="white" fill-opacity="0.2" /><rect x="4284" y="450.5" width="188" height="1" fill="white" fill-opacity="0.5" /><text x="4482" y="450.5" font-size="14" fill="white" font-family="monospace" dominant-baseline="initial">75</text><rect x="4284" y="400.0" width="188" height="1" fill="white" fill-opacity="0.2" /><rect x="4284" y="349.0" width="188" height="1" fill="white" fill-opacity="0.2" /><rect x="4284" y="298.5" width="188" height="1" fill="white" fill-opacity="0.2" /><rect x="4284" y="248.0" width="188" height="1" fill="white" fill-opacity="0.5" /><text x="4482" y="248.0" font-size="14" fill="white" font-family="monospace" dominant-baseline="initial">76</text><rect x="4284" y="197.5" width="188" height="1" fill="white" fill-opacity="0.2" /><rect x="4284" y="147.0" width="188" height="1" fill="white" fill-opacity="0.2" /><rect x="4284" y="96.5" width="188" height="1" fill="white" fill-opacity="0.2" /><rect x="4284" y="46.0" width="188" height="1" fill="white" fill-opacity="0.5" /><text x="4482" y="46.0" font-size="14" fill="white" font-family="monospace" dominant-baseline="initial">77</text><rect x="4522" y="47.0" width="188" height="809.0" fill="black" /><rect x="4522" y="855.0" width="188" height="1" fill="white" fill-opacity="0.5" /><text x="4720" y="855.0" font-size="14" fill="white" font-family="monospace" dominant-baseline="initial">77</text><rect x="4522" y="804.5" width="188" height="1" fill="white" fill-opacity="0.2" /><rect x="4522" y="753.5" width="188" height="1" fill="white" fill-opacity="0.2" /><rect x="4522" y="703.0" width="188" height="1" fill="white" fill-opacity="0.2" /><rect x="4522" y="652.5" width="188" height="1" fill="white" fill-opacity="0.5" /><text x="4720" y="652.5" font-size="14" fill="white" font-family="monospace" dominant-baseline="initial">78</text><rect x="4522" y="602.0" width="188" height="1" fill="white" fill-opacity="0.2" /><rect x="4522" y="551.5" width="188" height="1" fill="white" fill-opacity="0.2" /><rect x="4522" y="501.0" width="188" height="1" fill="white" fill-opacity="0.2" /><rect x="4522" y="450.5" width="188" height="1" fill="white" fill-opacity="0.5" /><text x="4720" y="450.5" font-size="14" fill="white" font-family="monospace" dominant-baseline="initial">79</text><rect x="4522" y="400.0" width="188" height="1" fill="white" fill-opacity="0.2" /><rect x="4522" y="349.0" width="188" height="1" fill="white" fill-opacity="0.2" /><rect x="4522" y="298.5" width="188" height="1" fill="white" fill-opacity="0.2" /><rect x="4522" y="248.0" width="188" height="1" fill="white" fill-opacity="0.5" /><text x="4720" y="248.0" font-size="14" fill="white" font-family="monospace" dominant-baseline="initial">80</text><rect x="4522" y="197.5" width="188" height="1" fill="white" fill-opacity="0.2" /><rect x="4522" y="147.0" width="188" height="1" fill="white" fill-opacity="0.2" /><rect x="4522" y="96.5" width="188" height="1" fill="white" fill-opacity="0.2" /><rect x="4522" y="46.0" width="188" height="1" fill="white" fill-opacity="0.5" /><text x="4720" y="46.0" font-size="14" fill="white" font-family="monospace" dominant-baseline="initial">81</text><rect x="4522" y="652.6000000000004" width="188" height="1" fill="aqua" fill-opacity="0.75" /><text x="4522" y="648.6000000000004" font-size="14" fill="aqua" fill-opacity="0.75" font-family="monospace">Solo</text><rect x="4760" y="47.0" width="188" height="809.0" fill="black" /><rect x="4760" y="855.0" width="188" height="1" fill="white" fill-opacity="0.5" /><text x="4958" y="855.0" font-size="14" fill="white" font-family="monospace" dominant-baseline="initial">81</text><rect x="4760" y="804.5" width="188" height="1" fill="white" fill-opacity="0.2" /><rect x="4760" y="754.0" width="188" height="1" fill="white" fill-opacity="0.2" /><rect x="4760" y="703.0" width="188" height="1" fill="white" fill-opacity="0.2" /><rect x="4760" y="652.5" width="188" height="1" fill="white" fill-opacity="0.5" /><text x="4958" y="652.5" font-size="14" fill="white" font-family="monospace" dominant-baseline="initial">82</text><rect x="4760" y="602.0" width="188" height="1" fill="white" fill-opacity="0.2" /><rect x="4760" y="551.5" width="188" height="1" fill="white" fill-opacity="0.2" /><rect x="4760" y="501.0" width="188" height="1" fill="white" fill-opacity="0.2" /><rect x="4760" y="450.5" width="188" height="1" fill="white" fill-opacity="0.5" /><text x="4958" y="450.5" font-size="14" fill="white" font-family="monospace" dominant-baseline="initial">83</text><rect x="4760" y="400.0" width="188" height="1" fill="white" fill-opacity="0.2" /><rect x="4760" y="349.5" width="188" height="1" fill="white" fill-opacity="0.2" /><rect x="4760" y="298.5" width="188" height="1" fill="white" fill-opacity="0.2" /><rect x="4760" y="248.0" width="188" height="1" fill="white" fill-opacity="0.5" /><text x="4958" y="248.0" font-size="14" fill="white" font-family="monospace" dominant-baseline="initial">84</text><rect x="4760" y="197.5" width="188" height="1" fill="white" fill-opacity="0.2" /><rect x="4760" y="147.0" width="188" height="1" fill="white" fill-opacity="0.2" /><rect x="4760" y="96.5" width="188" height="1" fill="white" fill-opacity="0.2" /><rect x="4760" y="46.0" width="188" height="1" fill="white" fill-opacity="0.5" /><text x="4958" y="46.0" font-size="14" fill="white" font-family="monospace" dominant-baseline="initial">85</text><rect x="4998" y="14.0" width="188" height="842.0" fill="black" /><rect x="4998" y="855.0" width="188" height="1" fill="white" fill-opacity="0.5" /><text x="5196" y="855.0" font-size="14" fill="white" font-family="monospace" dominant-baseline="initial">85</text><rect x="4998" y="804.5" width="188" height="1" fill="white" fill-opacity="0.2" /><rect x="4998" y="754.0" width="188" height="1" fill="white" fill-opacity="0.2" /><rect x="4998" y="703.0" width="188" height="1" fill="white" fill-opacity="0.2" /><rect x="4998" y="652.5" width="188" height="1" fill="white" fill-opacity="0.5" /><text x="5196" y="652.5" font-size="14" fill="white" font-family="monospace" dominant-baseline="initial">86</text><rect x="4998" y="602.0" width="188" height="1" fill="white" fill-opacity="0.2" /><rect x="4998" y="551.5" width="188" height="1" fill="white" fill-opacity="0.2" /><rect x="4998" y="501.0" width="188" height="1" fill="white" fill-opacity="0.2" /><rect x="4998" y="450.5" width="188" height="1" fill="white" fill-opacity="0.5" /><text x="5196" y="450.5" font-size="14" fill="white" font-family="monospace" dominant-baseline="initial">87</text><rect x="4998" y="400.0" width="188" height="1" fill="white" fill-opacity="0.2" /><rect x="4998" y="349.5" width="188" height="1" fill="white" fill-opacity="0.2" /><rect x="4998" y="298.5" width="188" height="1" fill="white" fill-opacity="0.2" /><rect x="4998" y="248.0" width="188" height="1" fill="white" fill-opacity="0.5" /><text x="5196" y="248.0" font-size="14" fill="white" font-family="monospace" dominant-baseline="initial">88</text><rect x="4998" y="652.7000000000007" width="188" height="1" fill="aqua" fill-opacity="0.75" /><text x="4998" y="648.7000000000007" font-size="14" fill="aqua" fill-opacity="0.75" font-family="monospace">Outro</text></svg>