<?xml version="1.0" encoding="UTF-8"?><svg xmlns="http://www.w3.org/2000/svg" xmlns:xlink="http://www.w3.org/1999/xlink"     width="2850" height="752.5" viewBox="0 0 2850 752.5"><defs></defs><rect x="0.0" y="369.0" width="12.0" height="3" fill="#ff3c3c" stroke="#c71f1f" /><rect x="13.0" y="369.0" width="12.0" height="3" fill="#35df39" stroke="#03aa10" /><rect x="0.0" y="438.5" width="12.0" height="3" fill="#ff3c3c" stroke="#c71f1f" /><rect x="13.0" y="438.5" width="12.0" height="3" fill="#35df39" stroke="#03aa10" /><rect x="0.0" y="507.5" width="12.0" height="3" fill="#ff3c3c" stroke="#c71f1f" /><rect x="13.0" y="507.5" width="12.0" height="3" fill="#35df39" stroke="#03aa10" /><rect x="114.0" y="369.0" width="12.0" height="3" fill="#ff3c3c" stroke="#c71f1f" /><rect x="127.0" y="369.0" width="12.0" height="3" fill="#35df39" stroke="#03aa10" /><rect x="114.0" y="438.5" width="12.0" height="3" fill="#ff3c3c" stroke="#c71f1f" /><rect x="127.0" y="438.5" width="12.0" height="3" fill="#35df39" stroke="#03aa10" /><rect x="114.0" y="507.5" width="12.0" height="3" fill="#ff3c3c" stroke="#c71f1f" /><rect x="127.0" y="507.5" width="12.0" height="3" fill="#35df39" stroke="#03aa10" /><rect x="254.0" y="277.0" width="12.0" height="3" fill="#80c9ff" stroke="#0b6cba" /><rect x="228.0" y="369.0" width="12.0" height="3" fill="#ff3c3c" stroke="#c71f1f" /><rect x="241.0" y="369.0" width="12.0" height="3" fill="#35df39" stroke="#03aa10" /><rect x="228.0" y="438.5" width="12.0" height="3" fill="#ff3c3c" stroke="#c71f1f" /><rect x="241.0" y="438.5" width="12.0" height="3" fill="#35df39" stroke="#03aa10" /><rect x="228.0" y="507.5" width="12.0" height="3" fill="#ff3c3c" stroke="#c71f1f" /><rect x="241.0" y="507.5" width="12.0" height="3" fill="#35df39" stroke="#03aa10" /><rect x="228.0" y="600.0" width="12.0" height="3" fill="#ff3c3c" stroke="#c71f1f" /><rect x="228.0" y="623.0" width="12.0" height="3" fill="#ff3c3c" stroke="#c71f1f" /><rect x="241.0" y="646.0" width="12.0" height="3" fill="#35df39" stroke="#03aa10" /><rect x="241.0" y="669.0" width="12.0" height="3" fill="#35df39" stroke="#03aa10" /><rect x="254.0" y="692.0" width="12.0" height="3" fill="#80c9ff" stroke="#0b6cba" /><rect x="254.0" y="715.5" width="12.0" height="3" fill="#80c9ff" stroke="#0b6cba" /><rect x="381.0" y="0.0" width="12.0" height="3" fill="#fff874" stroke="#eb9c26" /><rect x="381.0" y="69.0" width="12.0" height="3" fill="#fff874" stroke="#eb9c26" /><rect x="381.0" y="138.5" width="12.0" height="3" fill="#fff874" stroke="#eb9c26" /><rect x="368.0" y="207.5" width="12.0" height="3" fill="#80c9ff" stroke="#0b6cba" /><rect x="355.0" y="230.5" width="12.0" height="3" fill="#35df39" stroke="#03aa10" /><rect x="355.0" y="253.5" width="12.0" height="3" fill="#35df39" stroke="#03aa10" /><rect x="368.0" y="277.0" width="12.0" height="3" fill="#80c9ff" stroke="#0b6cba" /><rect x="355.0" y="300.0" width="12.0" height="3" fill="#35df39" stroke="#03aa10" /><rect x="342.0" y="323.0" width="12.0" height="3" fill="#ff3c3c" stroke="#c71f1f" /><rect x="342.0" y="346.0" width="12.0" height="3" fill="#ff3c3c" stroke="#c71f1f" /><rect x="355.0" y="369.0" width="12.0" height="3" fill="#35df39" stroke="#03aa10" /><rect x="355.0" y="438.5" width="12.0" height="3" fill="#35df39" stroke="#03aa10" /><rect x="355.0" y="507.5" width="12.0" height="3" fill="#35df39" stroke="#03aa10" /><rect x="342.0" y="577.0" width="12.0" height="3" fill="#ff3c3c" stroke="#c71f1f" /><rect x="342.0" y="600.0" width="12.0" height="3" fill="#ff3c3c" stroke="#c71f1f" /><rect x="355.0" y="623.0" width="12.0" height="3" fill="#35df39" stroke="#03aa10" /><rect x="355.0" y="646.0" width="12.0" height="3" fill="#35df39" stroke="#03aa10" /><rect x="368.0" y="669.0" width="12.0" height="3" fill="#80c9ff" stroke="#0b6cba" /><rect x="368.0" y="692.0" width="12.0" height="3" fill="#80c9ff" stroke="#0b6cba" /><rect x="381.0" y="715.5" width="12.0" height="3" fill="#fff874" stroke="#eb9c26" /><rect x="482.0" y="0.0" width="12.0" height="3" fill="#80c9ff" stroke="#0b6cba" /><rect x="482.0" y="46.0" width="12.0" height="3" fill="#80c9ff" stroke="#0b6cba" /><rect x="456.0" y="69.0" width="12.0" height="3" fill="#ff3c3c" stroke="#c71f1f" /><rect x="469.0" y="92.0" width="12.0" height="3" fill="#35df39" stroke="#03aa10" /><rect x="482.0" y="138.5" width="12.0" height="3" fill="#80c9ff" stroke="#0b6cba" /><rect x="469.0" y="161.5" width="12.0" height="3" fill="#35df39" stroke="#03aa10" /><rect x="495.0" y="184.5" width="12.0" height="3" fill="#fff874" stroke="#eb9c26" /><rect x="495.0" y="207.5" width="12.0" height="3" fill="#fff874" stroke="#eb9c26" /><rect x="482.0" y="230.5" width="12.0" height="3" fill="#80c9ff" stroke="#0b6cba" /><rect x="482.0" y="253.5" width="12.0" height="3" fill="#80c9ff" stroke="#0b6cba" /><rect x="469.0" y="277.0" width="12.0" height="3" fill="#35df39" stroke="#03aa10" /><rect x="482.0" y="300.0" width="12.0" height="3" fill="#80c9ff" stroke="#0b6cba" /><rect x="456.0" y="369.0" width="12.0" height="3" fill="#ff3c3c" stroke="#c71f1f" /><rect x="456.0" y="438.5" width="12.0" height="3" fill="#ff3c3c" stroke="#c71f1f" /><rect x="482.0" y="507.5" width="12.0" height="3" fill="#80c9ff" stroke="#0b6cba" /><rect x="482.0" y="577.0" width="12.0" height="3" fill="#80c9ff" stroke="#0b6cba" /><rect x="469.0" y="600.0" width="12.0" height="3" fill="#35df39" stroke="#03aa10" /><rect x="482.0" y="623.0" width="12.0" height="3" fill="#80c9ff" stroke="#0b6cba" /><rect x="482.0" y="646.0" width="12.0" height="3" fill="#80c9ff" stroke="#0b6cba" /><rect x="495.0" y="669.0" width="12.0" height="3" fill="#fff874" stroke="#eb9c26" /><rect x="495.0" y="692.0" width="12.0" height="3" fill="#fff874" stroke="#eb9c26" /><rect x="508.0" y="715.0" width="12.0" height="3" fill="#ff83f4" stroke="#d002bc" /><rect x="609.0" y="0.0" width="12.0" height="3" fill="#fff874" stroke="#eb9c26" /><rect x="609.0" y="69.0" width="12.0" height="3" fill="#fff874" stroke="#eb9c26" /><rect x="622.0" y="138.5" width="12.0" height="3" fill="#ff83f4" stroke="#d002bc" /><rect x="596.0" y="161.5" width="12.0" height="3" fill="#80c9ff" stroke="#0b6cba" /><rect x="609.0" y="207.5" width="12.0" height="3" fill="#fff874" stroke="#eb9c26" /><rect x="596.0" y="230.5" width="12.0" height="3" fill="#80c9ff" stroke="#0b6cba" /><rect x="609.0" y="276.5" width="12.0" height="3" fill="#fff874" stroke="#eb9c26" /><rect x="609.0" y="300.0" width="12.0" height="3" fill="#fff874" stroke="#eb9c26" /><rect x="583.0" y="323.0" width="12.0" height="3" fill="#35df39" stroke="#03aa10" /><rect x="583.0" y="346.0" width="12.0" height="3" fill="#35df39" stroke="#03aa10" /><rect x="570.0" y="369.0" width="12.0" height="3" fill="#ff3c3c" stroke="#c71f1f" /><rect x="583.0" y="438.5" width="12.0" height="3" fill="#35df39" stroke="#03aa10" /><rect x="596.0" y="507.5" width="12.0" height="3" fill="#80c9ff" stroke="#0b6cba" /><rect x="609.0" y="576.5" width="12.0" height="3" fill="#fff874" stroke="#eb9c26" /><rect x="609.0" y="600.0" width="12.0" height="3" fill="#fff874" stroke="#eb9c26" /><rect x="622.0" y="646.0" width="12.0" height="3" fill="#ff83f4" stroke="#d002bc" /><rect x="622.0" y="669.0" width="12.0" height="3" fill="#ff83f4" stroke="#d002bc" /><rect x="609.0" y="692.0" width="12.0" height="3" fill="#fff874" stroke="#eb9c26" /><rect x="710.0" y="0.0" width="12.0" height="3" fill="#80c9ff" stroke="#0b6cba" /><rect x="697.0" y="46.0" width="12.0" height="3" fill="#35df39" stroke="#03aa10" /><rect x="684.0" y="69.0" width="12.0" height="3" fill="#ff3c3c" stroke="#c71f1f" /><rect x="697.0" y="115.0" width="12.0" height="3" fill="#35df39" stroke="#03aa10" /><rect x="684.0" y="138.0" width="12.0" height="3" fill="#ff3c3c" stroke="#c71f1f" /><rect x="697.0" y="161.5" width="12.0" height="3" fill="#35df39" stroke="#03aa10" /><rect x="710.0" y="207.5" width="12.0" height="3" fill="#80c9ff" stroke="#0b6cba" /><rect x="684.0" y="230.5" width="12.0" height="3" fill="#ff3c3c" stroke="#c71f1f" /><rect x="684.0" y="253.5" width="12.0" height="3" fill="#ff3c3c" stroke="#c71f1f" /><rect x="710.0" y="276.5" width="12.0" height="3" fill="#80c9ff" stroke="#0b6cba" /><rect x="684.0" y="300.0" width="12.0" height="3" fill="#ff3c3c" stroke="#c71f1f" /><rect x="684.0" y="369.0" width="12.0" height="3" fill="#ff3c3c" stroke="#c71f1f" /><rect x="684.0" y="380.5" width="12.0" height="3" fill="#ff3c3c" stroke="#c71f1f" /><rect x="684.0" y="392.0" width="12.0" height="3" fill="#ff3c3c" stroke="#c71f1f" /><rect x="684.0" y="438.0" width="12.0" height="3" fill="#ff3c3c" stroke="#c71f1f" /><rect x="684.0" y="450.0" width="12.0" height="3" fill="#ff3c3c" stroke="#c71f1f" /><rect x="684.0" y="461.5" width="12.0" height="3" fill="#ff3c3c" stroke="#c71f1f" /><rect x="684.0" y="507.5" width="12.0" height="3" fill="#ff3c3c" stroke="#c71f1f" /><rect x="684.0" y="519.0" width="12.0" height="3" fill="#ff3c3c" stroke="#c71f1f" /><rect x="684.0" y="530.5" width="12.0" height="3" fill="#ff3c3c" stroke="#c71f1f" /><rect x="798.0" y="369.5" width="12.0" height="3" fill="#ff3c3c" stroke="#c71f1f" /><rect x="798.0" y="381.0" width="12.0" height="3" fill="#ff3c3c" stroke="#c71f1f" /><rect x="798.0" y="392.5" width="12.0" height="3" fill="#ff3c3c" stroke="#c71f1f" /><rect x="798.0" y="438.5" width="12.0" height="3" fill="#ff3c3c" stroke="#c71f1f" /><rect x="798.0" y="450.0" width="12.0" height="3" fill="#ff3c3c" stroke="#c71f1f" /><rect x="798.0" y="462.0" width="12.0" height="3" fill="#ff3c3c" stroke="#c71f1f" /><rect x="798.0" y="508.0" width="12.0" height="3" fill="#ff3c3c" stroke="#c71f1f" /><rect x="798.0" y="519.5" width="12.0" height="3" fill="#ff3c3c" stroke="#c71f1f" /><rect x="798.0" y="531.0" width="12.0" height="3" fill="#ff3c3c" stroke="#c71f1f" /><rect x="925.0" y="369.5" width="12.0" height="3" fill="#35df39" stroke="#03aa10" /><rect x="938.0" y="369.5" width="12.0" height="3" fill="#80c9ff" stroke="#0b6cba" /><rect x="925.0" y="415.5" width="12.0" height="3" fill="#35df39" stroke="#03aa10" /><rect x="938.0" y="415.5" width="12.0" height="3" fill="#80c9ff" stroke="#0b6cba" /><rect x="925.0" y="461.5" width="12.0" height="3" fill="#35df39" stroke="#03aa10" /><rect x="938.0" y="461.5" width="12.0" height="3" fill="#80c9ff" stroke="#0b6cba" /><rect x="925.0" y="508.0" width="12.0" height="3" fill="#35df39" stroke="#03aa10" /><rect x="938.0" y="508.0" width="12.0" height="3" fill="#80c9ff" stroke="#0b6cba" /><rect x="925.0" y="554.0" width="12.0" height="3" fill="#35df39" stroke="#03aa10" /><rect x="938.0" y="554.0" width="12.0" height="3" fill="#80c9ff" stroke="#0b6cba" /><rect x="925.0" y="600.0" width="12.0" height="3" fill="#35df39" stroke="#03aa10" /><rect x="938.0" y="600.0" width="12.0" height="3" fill="#80c9ff" stroke="#0b6cba" /><rect x="925.0" y="646.5" width="12.0" height="3" fill="#35df39" stroke="#03aa10" /><rect x="938.0" y="646.5" width="12.0" height="3" fill="#80c9ff" stroke="#0b6cba" /><rect x="925.0" y="692.5" width="12.0" height="3" fill="#35df39" stroke="#03aa10" /><rect x="938.0" y="692.5" width="12.0" height="3" fill="#80c9ff" stroke="#0b6cba" /><rect x="1052.0" y="0.0" width="12.0" height="3" fill="#80c9ff" stroke="#0b6cba" /><rect x="1065.0" y="0.0" width="12.0" height="3" fill="#fff874" stroke="#eb9c26" /><rect x="1052.0" y="46.5" width="12.0" height="3" fill="#80c9ff" stroke="#0b6cba" /><rect x="1065.0" y="46.5" width="12.0" height="3" fill="#fff874" stroke="#eb9c26" /><rect x="1052.0" y="92.5" width="12.0" height="3" fill="#80c9ff" stroke="#0b6cba" /><rect x="1065.0" y="92.5" width="12.0" height="3" fill="#fff874" stroke="#eb9c26" /><rect x="1052.0" y="138.5" width="12.0" height="3" fill="#80c9ff" stroke="#0b6cba" /><rect x="1065.0" y="138.5" width="12.0" height="3" fill="#fff874" stroke="#eb9c26" /><rect x="1052.0" y="185.0" width="12.0" height="3" fill="#80c9ff" stroke="#0b6cba" /><rect x="1065.0" y="185.0" width="12.0" height="3" fill="#fff874" stroke="#eb9c26" /><rect x="1039.0" y="231.0" width="12.0" height="3" fill="#35df39" stroke="#03aa10" /><rect x="1039.0" y="323.0" width="12.0" height="3" fill="#35df39" stroke="#03aa10" /><rect x="1026.0" y="369.5" width="12.0" height="3" fill="#ff3c3c" stroke="#c71f1f" /><rect x="1026.0" y="381.0" width="12.0" height="3" fill="#ff3c3c" stroke="#c71f1f" /><rect x="1026.0" y="392.5" width="12.0" height="3" fill="#ff3c3c" stroke="#c71f1f" /><rect x="1026.0" y="438.5" width="12.0" height="3" fill="#ff3c3c" stroke="#c71f1f" /><rect x="1026.0" y="450.0" width="12.0" height="3" fill="#ff3c3c" stroke="#c71f1f" /><rect x="1026.0" y="461.5" width="12.0" height="3" fill="#ff3c3c" stroke="#c71f1f" /><rect x="1026.0" y="508.0" width="12.0" height="3" fill="#ff3c3c" stroke="#c71f1f" /><rect x="1026.0" y="519.5" width="12.0" height="3" fill="#ff3c3c" stroke="#c71f1f" /><rect x="1026.0" y="531.0" width="12.0" height="3" fill="#ff3c3c" stroke="#c71f1f" /><rect x="1140.0" y="369.5" width="12.0" height="3" fill="#ff3c3c" stroke="#c71f1f" /><rect x="1140.0" y="381.0" width="12.0" height="3" fill="#ff3c3c" stroke="#c71f1f" /><rect x="1140.0" y="392.5" width="12.0" height="3" fill="#ff3c3c" stroke="#c71f1f" /><rect x="1140.0" y="438.5" width="12.0" height="3" fill="#ff3c3c" stroke="#c71f1f" /><rect x="1140.0" y="450.0" width="12.0" height="3" fill="#ff3c3c" stroke="#c71f1f" /><rect x="1140.0" y="461.5" width="12.0" height="3" fill="#ff3c3c" stroke="#c71f1f" /><rect x="1140.0" y="508.0" width="12.0" height="3" fill="#ff3c3c" stroke="#c71f1f" /><rect x="1140.0" y="519.5" width="12.0" height="3" fill="#ff3c3c" stroke="#c71f1f" /><rect x="1140.0" y="531.0" width="12.0" height="3" fill="#ff3c3c" stroke="#c71f1f" /><rect x="1267.0" y="369.5" width="12.0" height="3" fill="#35df39" stroke="#03aa10" /><rect x="1280.0" y="369.5" width="12.0" height="3" fill="#80c9ff" stroke="#0b6cba" /><rect x="1267.0" y="415.5" width="12.0" height="3" fill="#35df39" stroke="#03aa10" /><rect x="1280.0" y="415.5" width="12.0" height="3" fill="#80c9ff" stroke="#0b6cba" /><rect x="1267.0" y="461.5" width="12.0" height="3" fill="#35df39" stroke="#03aa10" /><rect x="1280.0" y="461.5" width="12.0" height="3" fill="#80c9ff" stroke="#0b6cba" /><rect x="1267.0" y="508.0" width="12.0" height="3" fill="#35df39" stroke="#03aa10" /><rect x="1280.0" y="508.0" width="12.0" height="3" fill="#80c9ff" stroke="#0b6cba" /><rect x="1267.0" y="554.0" width="12.0" height="3" fill="#35df39" stroke="#03aa10" /><rect x="1280.0" y="554.0" width="12.0" height="3" fill="#80c9ff" stroke="#0b6cba" /><rect x="1267.0" y="600.0" width="12.0" height="3" fill="#35df39" stroke="#03aa10" /><rect x="1280.0" y="600.0" width="12.0" height="3" fill="#80c9ff" stroke="#0b6cba" /><rect x="1267.0" y="646.0" width="12.0" height="3" fill="#35df39" stroke="#03aa10" /><rect x="1280.0" y="646.0" width="12.0" height="3" fill="#80c9ff" stroke="#0b6cba" /><rect x="1293.0" y="692.5" width="12.0" height="3" fill="#fff874" stroke="#eb9c26" /><rect x="1394.0" y="0.0" width="12.0" height="3" fill="#80c9ff" stroke="#0b6cba" /><rect x="1407.0" y="0.0" width="12.0" height="3" fill="#fff874" stroke="#eb9c26" /><rect x="1394.0" y="46.0" width="12.0" height="3" fill="#80c9ff" stroke="#0b6cba" /><rect x="1407.0" y="46.0" width="12.0" height="3" fill="#fff874" stroke="#eb9c26" /><rect x="1394.0" y="92.5" width="12.0" height="3" fill="#80c9ff" stroke="#0b6cba" /><rect x="1407.0" y="92.5" width="12.0" height="3" fill="#fff874" stroke="#eb9c26" /><rect x="1394.0" y="138.5" width="12.0" height="3" fill="#80c9ff" stroke="#0b6cba" /><rect x="1407.0" y="138.5" width="12.0" height="3" fill="#fff874" stroke="#eb9c26" /><rect x="1394.0" y="184.5" width="12.0" height="3" fill="#80c9ff" stroke="#0b6cba" /><rect x="1407.0" y="184.5" width="12.0" height="3" fill="#fff874" stroke="#eb9c26" /><rect x="1394.0" y="231.0" width="12.0" height="3" fill="#80c9ff" stroke="#0b6cba" /><rect x="1407.0" y="231.0" width="12.0" height="3" fill="#fff874" stroke="#eb9c26" /><rect x="1394.0" y="277.0" width="12.0" height="3" fill="#80c9ff" stroke="#0b6cba" /><rect x="1407.0" y="277.0" width="12.0" height="3" fill="#fff874" stroke="#eb9c26" /><rect x="1394.0" y="323.0" width="12.0" height="3" fill="#80c9ff" stroke="#0b6cba" /><rect x="1407.0" y="323.0" width="12.0" height="3" fill="#fff874" stroke="#eb9c26" /><rect x="1495.0" y="277.0" width="12.0" height="3" fill="#35df39" stroke="#03aa10" /><rect x="1482.0" y="369.0" width="12.0" height="3" fill="#ff3c3c" stroke="#c71f1f" /><rect x="1482.0" y="438.5" width="12.0" height="3" fill="#ff3c3c" stroke="#c71f1f" /><rect x="1482.0" y="507.5" width="12.0" height="3" fill="#ff3c3c" stroke="#c71f1f" /><rect x="1482.0" y="577.0" width="12.0" height="3" fill="#ff3c3c" stroke="#c71f1f" /><rect x="1482.0" y="600.0" width="12.0" height="3" fill="#ff3c3c" stroke="#c71f1f" /><rect x="1482.0" y="646.0" width="12.0" height="3" fill="#ff3c3c" stroke="#c71f1f" /><rect x="1508.0" y="692.5" width="12.0" height="3" fill="#80c9ff" stroke="#0b6cba" /><rect x="1635.0" y="0.0" width="12.0" height="3" fill="#fff874" stroke="#eb9c26" /><rect x="1635.0" y="69.0" width="12.0" height="3" fill="#fff874" stroke="#eb9c26" /><rect x="1635.0" y="138.5" width="12.0" height="3" fill="#fff874" stroke="#eb9c26" /><rect x="1622.0" y="207.5" width="12.0" height="3" fill="#80c9ff" stroke="#0b6cba" /><rect x="1635.0" y="230.5" width="12.0" height="3" fill="#fff874" stroke="#eb9c26" /><rect x="1635.0" y="254.0" width="12.0" height="3" fill="#fff874" stroke="#eb9c26" /><rect x="1622.0" y="277.0" width="12.0" height="3" fill="#80c9ff" stroke="#0b6cba" /><rect x="1622.0" y="300.0" width="12.0" height="3" fill="#80c9ff" stroke="#0b6cba" /><rect x="1609.0" y="323.0" width="12.0" height="3" fill="#35df39" stroke="#03aa10" /><rect x="1609.0" y="346.0" width="12.0" height="3" fill="#35df39" stroke="#03aa10" /><rect x="1596.0" y="369.0" width="12.0" height="3" fill="#ff3c3c" stroke="#c71f1f" /><rect x="1609.0" y="438.5" width="12.0" height="3" fill="#35df39" stroke="#03aa10" /><rect x="1622.0" y="507.5" width="12.0" height="3" fill="#80c9ff" stroke="#0b6cba" /><rect x="1622.0" y="577.0" width="12.0" height="3" fill="#80c9ff" stroke="#0b6cba" /><rect x="1635.0" y="600.0" width="12.0" height="3" fill="#fff874" stroke="#eb9c26" /><rect x="1622.0" y="623.0" width="12.0" height="3" fill="#80c9ff" stroke="#0b6cba" /><rect x="1635.0" y="646.0" width="12.0" height="3" fill="#fff874" stroke="#eb9c26" /><rect x="1622.0" y="669.0" width="12.0" height="3" fill="#80c9ff" stroke="#0b6cba" /><rect x="1635.0" y="692.5" width="12.0" height="3" fill="#fff874" stroke="#eb9c26" /><rect x="1635.0" y="715.5" width="12.0" height="3" fill="#fff874" stroke="#eb9c26" /><rect x="1762.0" y="0.0" width="12.0" height="3" fill="#ff83f4" stroke="#d002bc" /><rect x="1762.0" y="23.0" width="12.0" height="3" fill="#ff83f4" stroke="#d002bc" /><rect x="1762.0" y="46.0" width="12.0" height="3" fill="#ff83f4" stroke="#d002bc" /><rect x="1749.0" y="69.0" width="12.0" height="3" fill="#fff874" stroke="#eb9c26" /><rect x="1749.0" y="92.0" width="12.0" height="3" fill="#fff874" stroke="#eb9c26" /><rect x="1749.0" y="115.5" width="12.0" height="3" fill="#fff874" stroke="#eb9c26" /><rect x="1736.0" y="138.5" width="12.0" height="3" fill="#80c9ff" stroke="#0b6cba" /><rect x="1736.0" y="161.5" width="12.0" height="3" fill="#80c9ff" stroke="#0b6cba" /><rect x="1723.0" y="184.5" width="12.0" height="3" fill="#35df39" stroke="#03aa10" /><rect x="1723.0" y="207.5" width="12.0" height="3" fill="#35df39" stroke="#03aa10" /><rect x="1710.0" y="230.5" width="12.0" height="3" fill="#ff3c3c" stroke="#c71f1f" /><rect x="1710.0" y="254.0" width="12.0" height="3" fill="#ff3c3c" stroke="#c71f1f" /><rect x="1736.0" y="300.0" width="12.0" height="3" fill="#80c9ff" stroke="#0b6cba" /><rect x="1710.0" y="369.0" width="12.0" height="3" fill="#ff3c3c" stroke="#c71f1f" /><rect x="1710.0" y="438.5" width="12.0" height="3" fill="#ff3c3c" stroke="#c71f1f" /><rect x="1736.0" y="507.5" width="12.0" height="3" fill="#80c9ff" stroke="#0b6cba" /><rect x="1710.0" y="577.0" width="12.0" height="3" fill="#ff3c3c" stroke="#c71f1f" /><rect x="1723.0" y="600.0" width="12.0" height="3" fill="#35df39" stroke="#03aa10" /><rect x="1723.0" y="623.0" width="12.0" height="3" fill="#35df39" stroke="#03aa10" /><rect x="1736.0" y="646.0" width="12.0" height="3" fill="#80c9ff" stroke="#0b6cba" /><rect x="1736.0" y="669.0" width="12.0" height="3" fill="#80c9ff" stroke="#0b6cba" /><rect x="1749.0" y="692.0" width="12.0" height="3" fill="#fff874" stroke="#eb9c26" /><rect x="1749.0" y="715.5" width="12.0" height="3" fill="#fff874" stroke="#eb9c26" /><rect x="1850.0" y="0.0" width="12.0" height="3" fill="#80c9ff" stroke="#0b6cba" /><rect x="1876.0" y="23.0" width="12.0" height="3" fill="#ff83f4" stroke="#d002bc" /><rect x="1863.0" y="46.0" width="12.0" height="3" fill="#fff874" stroke="#eb9c26" /><rect x="1863.0" y="69.0" width="12.0" height="3" fill="#fff874" stroke="#eb9c26" /><rect x="1850.0" y="92.0" width="12.0" height="3" fill="#80c9ff" stroke="#0b6cba" /><rect x="1850.0" y="115.5" width="12.0" height="3" fill="#80c9ff" stroke="#0b6cba" /><rect x="1837.0" y="138.5" width="12.0" height="3" fill="#35df39" stroke="#03aa10" /><rect x="1837.0" y="161.5" width="12.0" height="3" fill="#35df39" stroke="#03aa10" /><rect x="1850.0" y="184.5" width="12.0" height="3" fill="#80c9ff" stroke="#0b6cba" /><rect x="1876.0" y="207.5" width="12.0" height="3" fill="#ff83f4" stroke="#d002bc" /><rect x="1863.0" y="230.5" width="12.0" height="3" fill="#fff874" stroke="#eb9c26" /><rect x="1863.0" y="253.5" width="12.0" height="3" fill="#fff874" stroke="#eb9c26" /><rect x="1850.0" y="277.0" width="12.0" height="3" fill="#80c9ff" stroke="#0b6cba" /><rect x="1850.0" y="300.0" width="12.0" height="3" fill="#80c9ff" stroke="#0b6cba" /><rect x="1837.0" y="323.0" width="12.0" height="3" fill="#35df39" stroke="#03aa10" /><rect x="1837.0" y="346.0" width="12.0" height="3" fill="#35df39" stroke="#03aa10" /><rect x="1824.0" y="369.0" width="12.0" height="3" fill="#ff3c3c" stroke="#c71f1f" /><rect x="1824.0" y="438.5" width="12.0" height="3" fill="#ff3c3c" stroke="#c71f1f" /><rect x="1824.0" y="507.5" width="12.0" height="3" fill="#ff3c3c" stroke="#c71f1f" /><rect x="1824.0" y="577.0" width="12.0" height="3" fill="#ff3c3c" stroke="#c71f1f" /><rect x="1837.0" y="600.0" width="12.0" height="3" fill="#35df39" stroke="#03aa10" /><rect x="1837.0" y="623.0" width="12.0" height="3" fill="#35df39" stroke="#03aa10" /><rect x="1850.0" y="646.0" width="12.0" height="3" fill="#80c9ff" stroke="#0b6cba" /><rect x="1850.0" y="669.0" width="12.0" height="3" fill="#80c9ff" stroke="#0b6cba" /><rect x="1863.0" y="692.0" width="12.0" height="3" fill="#fff874" stroke="#eb9c26" /><rect x="1863.0" y="715.5" width="12.0" height="3" fill="#fff874" stroke="#eb9c26" /><rect x="1964.0" y="0.0" width="12.0" height="3" fill="#80c9ff" stroke="#0b6cba" /><rect x="1964.0" y="46.0" width="12.0" height="3" fill="#80c9ff" stroke="#0b6cba" /><rect x="1938.0" y="69.0" width="12.0" height="3" fill="#ff3c3c" stroke="#c71f1f" /><rect x="1938.0" y="115.0" width="12.0" height="3" fill="#ff3c3c" stroke="#c71f1f" /><rect x="1951.0" y="138.5" width="12.0" height="3" fill="#35df39" stroke="#03aa10" /><rect x="1951.0" y="161.5" width="12.0" height="3" fill="#35df39" stroke="#03aa10" /><rect x="1964.0" y="184.5" width="12.0" height="3" fill="#80c9ff" stroke="#0b6cba" /><rect x="1964.0" y="207.5" width="12.0" height="3" fill="#80c9ff" stroke="#0b6cba" /><rect x="1951.0" y="230.5" width="12.0" height="3" fill="#35df39" stroke="#03aa10" /><rect x="1964.0" y="253.5" width="12.0" height="3" fill="#80c9ff" stroke="#0b6cba" /><rect x="1938.0" y="300.0" width="12.0" height="3" fill="#ff3c3c" stroke="#c71f1f" /><rect x="1964.0" y="369.0" width="12.0" height="290.7" fill="#80c9ff" stroke="#0b6cba" /><rect x="1977.0" y="369.0" width="12.0" height="290.7" fill="#fff874" stroke="#eb9c26" /><rect x="1964.0" y="692.0" width="12.0" height="3" fill="#80c9ff" stroke="#0b6cba" /><rect x="2104.0" y="0.0" width="12.0" height="332.1" fill="#ff83f4" stroke="#d002bc" /><rect x="2052.0" y="369.0" width="12.0" height="3" fill="#ff3c3c" stroke="#c71f1f" /><rect x="2052.0" y="438.5" width="12.0" height="3" fill="#ff3c3c" stroke="#c71f1f" /><rect x="2052.0" y="507.5" width="12.0" height="3" fill="#ff3c3c" stroke="#c71f1f" /><rect x="2052.0" y="576.5" width="12.0" height="3" fill="#ff3c3c" stroke="#c71f1f" /><rect x="2065.0" y="600.0" width="12.0" height="3" fill="#35df39" stroke="#03aa10" /><rect x="2065.0" y="623.0" width="12.0" height="3" fill="#35df39" stroke="#03aa10" /><rect x="2052.0" y="646.0" width="12.0" height="3" fill="#ff3c3c" stroke="#c71f1f" /><rect x="2052.0" y="669.0" width="12.0" height="3" fill="#ff3c3c" stroke="#c71f1f" /><rect x="2065.0" y="692.0" width="12.0" height="3" fill="#35df39" stroke="#03aa10" /><rect x="2065.0" y="715.0" width="12.0" height="3" fill="#35df39" stroke="#03aa10" /><rect x="2205.0" y="0.0" width="12.0" height="3" fill="#fff874" stroke="#eb9c26" /><rect x="2205.0" y="69.0" width="12.0" height="3" fill="#fff874" stroke="#eb9c26" /><rect x="2205.0" y="138.0" width="12.0" height="3" fill="#fff874" stroke="#eb9c26" /><rect x="2179.0" y="207.5" width="12.0" height="3" fill="#35df39" stroke="#03aa10" /><rect x="2192.0" y="230.5" width="12.0" height="3" fill="#80c9ff" stroke="#0b6cba" /><rect x="2192.0" y="253.5" width="12.0" height="3" fill="#80c9ff" stroke="#0b6cba" /><rect x="2205.0" y="276.5" width="12.0" height="3" fill="#fff874" stroke="#eb9c26" /><rect x="2205.0" y="300.0" width="12.0" height="3" fill="#fff874" stroke="#eb9c26" /><rect x="2192.0" y="323.0" width="12.0" height="3" fill="#80c9ff" stroke="#0b6cba" /><rect x="2179.0" y="346.0" width="12.0" height="3" fill="#35df39" stroke="#03aa10" /><rect x="2166.0" y="369.0" width="12.0" height="3" fill="#ff3c3c" stroke="#c71f1f" /><rect x="2166.0" y="438.0" width="12.0" height="3" fill="#ff3c3c" stroke="#c71f1f" /><rect x="2166.0" y="507.5" width="12.0" height="3" fill="#ff3c3c" stroke="#c71f1f" /><rect x="2166.0" y="576.5" width="12.0" height="3" fill="#ff3c3c" stroke="#c71f1f" /><rect x="2179.0" y="600.0" width="12.0" height="3" fill="#35df39" stroke="#03aa10" /><rect x="2166.0" y="623.0" width="12.0" height="3" fill="#ff3c3c" stroke="#c71f1f" /><rect x="2179.0" y="646.0" width="12.0" height="3" fill="#35df39" stroke="#03aa10" /><rect x="2166.0" y="669.0" width="12.0" height="3" fill="#ff3c3c" stroke="#c71f1f" /><rect x="2179.0" y="692.0" width="12.0" height="3" fill="#35df39" stroke="#03aa10" /><rect x="2179.0" y="715.0" width="12.0" height="3" fill="#35df39" stroke="#03aa10" /><rect x="2306.0" y="0.0" width="12.0" height="3" fill="#80c9ff" stroke="#0b6cba" /><rect x="2306.0" y="46.5" width="12.0" height="3" fill="#80c9ff" stroke="#0b6cba" /><rect x="2280.0" y="69.5" width="12.0" height="3" fill="#ff3c3c" stroke="#c71f1f" /><rect x="2293.0" y="115.5" width="12.0" height="3" fill="#35df39" stroke="#03aa10" /><rect x="2306.0" y="138.5" width="12.0" height="3" fill="#80c9ff" stroke="#0b6cba" /><rect x="2319.0" y="185.0" width="12.0" height="3" fill="#fff874" stroke="#eb9c26" /><rect x="2319.0" y="208.0" width="12.0" height="3" fill="#fff874" stroke="#eb9c26" /><rect x="2306.0" y="231.0" width="12.0" height="3" fill="#80c9ff" stroke="#0b6cba" /><rect x="2306.0" y="254.0" width="12.0" height="3" fill="#80c9ff" stroke="#0b6cba" /><rect x="2293.0" y="277.0" width="12.0" height="3" fill="#35df39" stroke="#03aa10" /><rect x="2293.0" y="300.0" width="12.0" height="3" fill="#35df39" stroke="#03aa10" /><rect x="2306.0" y="369.5" width="12.0" height="3" fill="#80c9ff" stroke="#0b6cba" /><rect x="2280.0" y="438.5" width="12.0" height="3" fill="#ff3c3c" stroke="#c71f1f" /><rect x="2306.0" y="508.0" width="12.0" height="3" fill="#80c9ff" stroke="#0b6cba" /><rect x="2293.0" y="577.0" width="12.0" height="3" fill="#35df39" stroke="#03aa10" /><rect x="2306.0" y="600.0" width="12.0" height="3" fill="#80c9ff" stroke="#0b6cba" /><rect x="2306.0" y="623.5" width="12.0" height="3" fill="#80c9ff" stroke="#0b6cba" /><rect x="2319.0" y="646.5" width="12.0" height="3" fill="#fff874" stroke="#eb9c26" /><rect x="2319.0" y="669.5" width="12.0" height="3" fill="#fff874" stroke="#eb9c26" /><rect x="2332.0" y="692.5" width="12.0" height="3" fill="#ff83f4" stroke="#d002bc" /><rect x="2332.0" y="715.5" width="12.0" height="3" fill="#ff83f4" stroke="#d002bc" /><rect x="2420.0" y="0.0" width="12.0" height="3" fill="#80c9ff" stroke="#0b6cba" /><rect x="2420.0" y="69.5" width="12.0" height="3" fill="#80c9ff" stroke="#0b6cba" /><rect x="2420.0" y="115.5" width="12.0" height="3" fill="#80c9ff" stroke="#0b6cba" /><rect x="2433.0" y="138.5" width="12.0" height="3" fill="#fff874" stroke="#eb9c26" /><rect x="2420.0" y="161.5" width="12.0" height="3" fill="#80c9ff" stroke="#0b6cba" /><rect x="2420.0" y="185.0" width="12.0" height="3" fill="#80c9ff" stroke="#0b6cba" /><rect x="2433.0" y="208.0" width="12.0" height="3" fill="#fff874" stroke="#eb9c26" /><rect x="2420.0" y="231.0" width="12.0" height="3" fill="#80c9ff" stroke="#0b6cba" /><rect x="2420.0" y="254.0" width="12.0" height="3" fill="#80c9ff" stroke="#0b6cba" /><rect x="2433.0" y="277.0" width="12.0" height="3" fill="#fff874" stroke="#eb9c26" /><rect x="2433.0" y="300.0" width="12.0" height="3" fill="#fff874" stroke="#eb9c26" /><rect x="2407.0" y="323.5" width="12.0" height="3" fill="#35df39" stroke="#03aa10" /><rect x="2407.0" y="346.5" width="12.0" height="3" fill="#35df39" stroke="#03aa10" /><rect x="2420.0" y="369.5" width="12.0" height="3" fill="#80c9ff" stroke="#0b6cba" /><rect x="2420.0" y="438.5" width="12.0" height="3" fill="#80c9ff" stroke="#0b6cba" /><rect x="2420.0" y="508.0" width="12.0" height="3" fill="#80c9ff" stroke="#0b6cba" /><rect x="2394.0" y="577.0" width="12.0" height="3" fill="#ff3c3c" stroke="#c71f1f" /><rect x="2407.0" y="600.0" width="12.0" height="3" fill="#35df39" stroke="#03aa10" /><rect x="2394.0" y="623.5" width="12.0" height="3" fill="#ff3c3c" stroke="#c71f1f" /><rect x="2407.0" y="646.5" width="12.0" height="3" fill="#35df39" stroke="#03aa10" /><rect x="2407.0" y="669.5" width="12.0" height="3" fill="#35df39" stroke="#03aa10" /><rect x="2420.0" y="692.5" width="12.0" height="3" fill="#80c9ff" stroke="#0b6cba" /><rect x="2420.0" y="715.5" width="12.0" height="3" fill="#80c9ff" stroke="#0b6cba" /><rect x="2547.0" y="0.0" width="12.0" height="3" fill="#fff874" stroke="#eb9c26" /><rect x="2521.0" y="46.5" width="12.0" height="3" fill="#35df39" stroke="#03aa10" /><rect x="2547.0" y="69.5" width="12.0" height="3" fill="#fff874" stroke="#eb9c26" /><rect x="2547.0" y="115.5" width="12.0" height="3" fill="#fff874" stroke="#eb9c26" /><rect x="2560.0" y="138.5" width="12.0" height="3" fill="#ff83f4" stroke="#d002bc" /><rect x="2534.0" y="161.5" width="12.0" height="3" fill="#80c9ff" stroke="#0b6cba" /><rect x="2534.0" y="185.0" width="12.0" height="3" fill="#80c9ff" stroke="#0b6cba" /><rect x="2560.0" y="208.0" width="12.0" height="3" fill="#ff83f4" stroke="#d002bc" /><rect x="2534.0" y="231.0" width="12.0" height="3" fill="#80c9ff" stroke="#0b6cba" /><rect x="2534.0" y="254.0" width="12.0" height="3" fill="#80c9ff" stroke="#0b6cba" /><rect x="2560.0" y="277.0" width="12.0" height="3" fill="#ff83f4" stroke="#d002bc" /><rect x="2534.0" y="300.0" width="12.0" height="3" fill="#80c9ff" stroke="#0b6cba" /><rect x="2560.0" y="323.0" width="12.0" height="3" fill="#ff83f4" stroke="#d002bc" /><rect x="2508" y="323.0" width="64" height="3" fill="#ff72e7" stroke="#7c7c7c" /><rect x="2560.0" y="346.5" width="12.0" height="3" fill="#ff83f4" stroke="#d002bc" /><rect x="2508" y="346.5" width="64" height="3" fill="#ff72e7" stroke="#7c7c7c" /><rect x="2508.0" y="369.5" width="12.0" height="3" fill="#ff3c3c" stroke="#c71f1f" /><rect x="2508.0" y="381.0" width="12.0" height="3" fill="#ff3c3c" stroke="#c71f1f" /><rect x="2508.0" y="392.5" width="12.0" height="3" fill="#ff3c3c" stroke="#c71f1f" /><rect x="2534.0" y="438.5" width="12.0" height="3" fill="#80c9ff" stroke="#0b6cba" /><rect x="2521.0" y="485.0" width="12.0" height="3" fill="#35df39" stroke="#03aa10" /><rect x="2508.0" y="508.0" width="12.0" height="3" fill="#ff3c3c" stroke="#c71f1f" /><rect x="2508.0" y="519.5" width="12.0" height="3" fill="#ff3c3c" stroke="#c71f1f" /><rect x="2508.0" y="531.0" width="12.0" height="3" fill="#ff3c3c" stroke="#c71f1f" /><rect x="2508.0" y="577.0" width="12.0" height="3" fill="#ff3c3c" stroke="#c71f1f" /><rect x="2508.0" y="588.5" width="12.0" height="3" fill="#ff3c3c" stroke="#c71f1f" /><rect x="2508.0" y="600.0" width="12.0" height="3" fill="#ff3c3c" stroke="#c71f1f" /><rect x="2521.0" y="623.0" width="12.0" height="3" fill="#35df39" stroke="#03aa10" /><rect x="2534.0" y="669.5" width="12.0" height="3" fill="#80c9ff" stroke="#0b6cba" /><rect x="2547.0" y="715.5" width="12.0" height="3" fill="#fff874" stroke="#eb9c26" /><rect x="2622.0" y="0.0" width="12.0" height="3" fill="#ff3c3c" stroke="#c71f1f" /><rect x="2622.0" y="11.5" width="12.0" height="3" fill="#ff3c3c" stroke="#c71f1f" /><rect x="2622.0" y="23.0" width="12.0" height="3" fill="#ff3c3c" stroke="#c71f1f" /><rect x="2648.0" y="69.5" width="12.0" height="3" fill="#80c9ff" stroke="#0b6cba" /><rect x="2635.0" y="115.5" width="12.0" height="3" fill="#35df39" stroke="#03aa10" /><rect x="2622.0" y="138.5" width="12.0" height="3" fill="#ff3c3c" stroke="#c71f1f" /><rect x="2622.0" y="150.0" width="12.0" height="3" fill="#ff3c3c" stroke="#c71f1f" /><rect x="2622.0" y="161.5" width="12.0" height="3" fill="#ff3c3c" stroke="#c71f1f" /><rect x="2622.0" y="208.0" width="12.0" height="3" fill="#ff3c3c" stroke="#c71f1f" /><rect x="2622.0" y="219.5" width="12.0" height="3" fill="#ff3c3c" stroke="#c71f1f" /><rect x="2622.0" y="231.0" width="12.0" height="3" fill="#ff3c3c" stroke="#c71f1f" /><rect x="2635.0" y="254.0" width="12.0" height="3" fill="#35df39" stroke="#03aa10" /><rect x="2648.0" y="300.0" width="12.0" height="3" fill="#80c9ff" stroke="#0b6cba" /><rect x="2661.0" y="346.5" width="12.0" height="3" fill="#fff874" stroke="#eb9c26" /><rect x="2622.0" y="369.5" width="12.0" height="3" fill="#ff3c3c" stroke="#c71f1f" /><rect x="2622.0" y="381.0" width="12.0" height="3" fill="#ff3c3c" stroke="#c71f1f" /><rect x="2622.0" y="392.5" width="12.0" height="3" fill="#ff3c3c" stroke="#c71f1f" /><rect x="2648.0" y="438.5" width="12.0" height="3" fill="#80c9ff" stroke="#0b6cba" /><rect x="2635.0" y="484.5" width="12.0" height="3" fill="#35df39" stroke="#03aa10" /><rect x="2622.0" y="508.0" width="12.0" height="3" fill="#ff3c3c" stroke="#c71f1f" /><rect x="2622.0" y="519.5" width="12.0" height="3" fill="#ff3c3c" stroke="#c71f1f" /><rect x="2622.0" y="531.0" width="12.0" height="3" fill="#ff3c3c" stroke="#c71f1f" /><rect x="2622.0" y="577.0" width="12.0" height="3" fill="#ff3c3c" stroke="#c71f1f" /><rect x="2622.0" y="588.5" width="12.0" height="3" fill="#ff3c3c" stroke="#c71f1f" /><rect x="2622.0" y="600.0" width="12.0" height="3" fill="#ff3c3c" stroke="#c71f1f" /><rect x="2635.0" y="623.0" width="12.0" height="3" fill="#35df39" stroke="#03aa10" /><rect x="2648.0" y="669.5" width="12.0" height="3" fill="#80c9ff" stroke="#0b6cba" /><rect x="2661.0" y="715.5" width="12.0" height="3" fill="#fff874" stroke="#eb9c26" /><rect x="2736.0" y="0.0" width="12.0" height="3" fill="#ff3c3c" stroke="#c71f1f" /><rect x="2736.0" y="11.5" width="12.0" height="3" fill="#ff3c3c" stroke="#c71f1f" /><rect x="2736.0" y="23.0" width="12.0" height="3" fill="#ff3c3c" stroke="#c71f1f" /><rect x="2762.0" y="69.5" width="12.0" height="3" fill="#80c9ff" stroke="#0b6cba" /><rect x="2749.0" y="115.5" width="12.0" height="3" fill="#35df39" stroke="#03aa10" /><rect x="2736.0" y="138.5" width="12.0" height="3" fill="#ff3c3c" stroke="#c71f1f" /><rect x="2736.0" y="150.0" width="12.0" height="3" fill="#ff3c3c" stroke="#c71f1f" /><rect x="2736.0" y="161.5" width="12.0" height="3" fill="#ff3c3c" stroke="#c71f1f" /><rect x="2736.0" y="208.0" width="12.0" height="3" fill="#ff3c3c" stroke="#c71f1f" /><rect x="2736.0" y="219.5" width="12.0" height="3" fill="#ff3c3c" stroke="#c71f1f" /><rect x="2736.0" y="231.0" width="12.0" height="3" fill="#ff3c3c" stroke="#c71f1f" /><rect x="2749.0" y="254.0" width="12.0" height="3" fill="#35df39" stroke="#03aa10" /><rect x="2762.0" y="300.0" width="12.0" height="3" fill="#80c9ff" stroke="#0b6cba" /><rect x="2775.0" y="346.0" width="12.0" height="3" fill="#fff874" stroke="#eb9c26" /></svg>