<?xml version="1.0" encoding="UTF-8"?><svg xmlns="http://www.w3.org/2000/svg" xmlns:xlink="http://www.w3.org/1999/xlink"     width="5474" height="914.0" viewBox="0 0 5474 914.0"><defs></defs><rect x="0" y="64.0" width="188" height="850.0" fill="black" /><rect x="0" y="913.0" width="188" height="1" fill="white" fill-opacity="0.5" /><text x="198" y="913.0" font-size="14" fill="white" font-family="monospace" dominant-baseline="initial">1</text><rect x="0" y="849.5" width="188" height="1" fill="white" fill-opacity="0.2" /><rect x="0" y="786.0" width="188" height="1" fill="white" fill-opacity="0.2" /><rect x="0" y="723.0" width="188" height="1" fill="white" fill-opacity="0.2" /><rect x="0" y="659.5" width="188" height="1" fill="white" fill-opacity="0.5" /><text x="198" y="659.5" font-size="14" fill="white" font-family="monospace" dominant-baseline="initial">2</text><rect x="0" y="596.0" width="188" height="1" fill="white" fill-opacity="0.2" /><rect x="0" y="532.5" width="188" height="1" fill="white" fill-opacity="0.2" /><rect x="0" y="469.5" width="188" height="1" fill="white" fill-opacity="0.2" /><rect x="0" y="406.0" width="188" height="1" fill="white" fill-opacity="0.5" /><text x="198" y="406.0" font-size="14" fill="white" font-family="monospace" dominant-baseline="initial">3</text><rect x="0" y="363.0" width="188" height="1" fill="white" fill-opacity="0.2" /><rect x="0" y="320.0" width="188" height="1" fill="white" fill-opacity="0.2" /><rect x="0" y="277.5" width="188" height="1" fill="white" fill-opacity="0.2" /><rect x="0" y="234.5" width="188" height="1" fill="white" fill-opacity="0.5" /><text x="198" y="234.5" font-size="14" fill="white" font-family="monospace" dominant-baseline="initial">4</text><rect x="0" y="191.5" width="188" height="1" fill="white" fill-opacity="0.2" /><rect x="0" y="149.0" width="188" height="1" fill="white" fill-opacity="0.2" /><rect x="0" y="106.0" width="188" height="1" fill="white" fill-opacity="0.2" /><rect x="0" y="63.0" width="188" height="1" fill="white" fill-opacity="0.5" /><text x="198" y="63.0" font-size="14" fill="white" font-family="monospace" dominant-baseline="initial">5</text><rect x="0" y="913.0" width="188" height="1" fill="aqua" fill-opacity="0.75" /><text x="0" y="909.0" font-size="14" fill="aqua" fill-opacity="0.75" font-family="monospace">Intro</text><rect x="0" y="913.0" width="188" height="1" fill="lime" fill-opacity="0.75" /><text x="198" y="900.0" font-size="14" fill="lime" font-family="monospace" dominant-baseline="initial">142</text><rect x="0" y="406.0" width="188" height="1" fill="lime" fill-opacity="0.75" /><text x="198" y="393.0" font-size="14" fill="lime" font-family="monospace" dominant-baseline="initial">210</text><rect x="238" y="228.5" width="188" height="685.5" fill="black" /><rect x="238" y="913.0" width="188" height="1" fill="white" fill-opacity="0.5" /><text x="436" y="913.0" font-size="14" fill="white" font-family="monospace" dominant-baseline="initial">5</text><rect x="238" y="870.0" width="188" height="1" fill="white" fill-opacity="0.2" /><rect x="238" y="827.5" width="188" height="1" fill="white" fill-opacity="0.2" /><rect x="238" y="784.5" width="188" height="1" fill="white" fill-opacity="0.2" /><rect x="238" y="741.5" width="188" height="1" fill="white" fill-opacity="0.5" /><text x="436" y="741.5" font-size="14" fill="white" font-family="monospace" dominant-baseline="initial">6</text><rect x="238" y="699.0" width="188" height="1" fill="white" fill-opacity="0.2" /><rect x="238" y="656.0" width="188" height="1" fill="white" fill-opacity="0.2" /><rect x="238" y="613.0" width="188" height="1" fill="white" fill-opacity="0.2" /><rect x="238" y="570.0" width="188" height="1" fill="white" fill-opacity="0.5" /><text x="436" y="570.0" font-size="14" fill="white" font-family="monospace" dominant-baseline="initial">7</text><rect x="238" y="527.5" width="188" height="1" fill="white" fill-opacity="0.2" /><rect x="238" y="484.5" width="188" height="1" fill="white" fill-opacity="0.2" /><rect x="238" y="441.5" width="188" height="1" fill="white" fill-opacity="0.2" /><rect x="238" y="399.0" width="188" height="1" fill="white" fill-opacity="0.5" /><text x="436" y="399.0" font-size="14" fill="white" font-family="monospace" dominant-baseline="initial">8</text><rect x="238" y="356.0" width="188" height="1" fill="white" fill-opacity="0.2" /><rect x="238" y="313.0" width="188" height="1" fill="white" fill-opacity="0.2" /><rect x="238" y="270.0" width="188" height="1" fill="white" fill-opacity="0.2" /><rect x="238" y="227.5" width="188" height="1" fill="white" fill-opacity="0.5" /><text x="436" y="227.5" font-size="14" fill="white" font-family="monospace" dominant-baseline="initial">9</text><rect x="476" y="228.0" width="188" height="686.0" fill="black" /><rect x="476" y="913.0" width="188" height="1" fill="white" fill-opacity="0.5" /><text x="674" y="913.0" font-size="14" fill="white" font-family="monospace" dominant-baseline="initial">9</text><rect x="476" y="870.0" width="188" height="1" fill="white" fill-opacity="0.2" /><rect x="476" y="827.0" width="188" height="1" fill="white" fill-opacity="0.2" /><rect x="476" y="784.5" width="188" height="1" fill="white" fill-opacity="0.2" /><rect x="476" y="741.5" width="188" height="1" fill="white" fill-opacity="0.5" /><text x="674" y="741.5" font-size="14" fill="white" font-family="monospace" dominant-baseline="initial">10</text><rect x="476" y="698.5" width="188" height="1" fill="white" fill-opacity="0.2" /><rect x="476" y="655.5" width="188" height="1" fill="white" fill-opacity="0.2" /><rect x="476" y="613.0" width="188" height="1" fill="white" fill-opacity="0.2" /><rect x="476" y="570.0" width="188" height="1" fill="white" fill-opacity="0.5" /><text x="674" y="570.0" font-size="14" fill="white" font-family="monospace" dominant-baseline="initial">11</text><rect x="476" y="527.0" width="188" height="1" fill="white" fill-opacity="0.2" /><rect x="476" y="484.5" width="188" height="1" fill="white" fill-opacity="0.2" /><rect x="476" y="441.5" width="188" height="1" fill="white" fill-opacity="0.2" /><rect x="476" y="398.5" width="188" height="1" fill="white" fill-opacity="0.5" /><text x="674" y="398.5" font-size="14" fill="white" font-family="monospace" dominant-baseline="initial">12</text><rect x="476" y="355.5" width="188" height="1" fill="white" fill-opacity="0.2" /><rect x="476" y="313.0" width="188" height="1" fill="white" fill-opacity="0.2" /><rect x="476" y="270.0" width="188" height="1" fill="white" fill-opacity="0.2" /><rect x="476" y="227.0" width="188" height="1" fill="white" fill-opacity="0.5" /><text x="674" y="227.0" font-size="14" fill="white" font-family="monospace" dominant-baseline="initial">13</text><rect x="714" y="228.5" width="188" height="685.5" fill="black" /><rect x="714" y="913.0" width="188" height="1" fill="white" fill-opacity="0.5" /><text x="912" y="913.0" font-size="14" fill="white" font-family="monospace" dominant-baseline="initial">13</text><rect x="714" y="870.5" width="188" height="1" fill="white" fill-opacity="0.2" /><rect x="714" y="827.5" width="188" height="1" fill="white" fill-opacity="0.2" /><rect x="714" y="784.5" width="188" height="1" fill="white" fill-opacity="0.2" /><rect x="714" y="741.5" width="188" height="1" fill="white" fill-opacity="0.5" /><text x="912" y="741.5" font-size="14" fill="white" font-family="monospace" dominant-baseline="initial">14</text><rect x="714" y="699.0" width="188" height="1" fill="white" fill-opacity="0.2" /><rect x="714" y="656.0" width="188" height="1" fill="white" fill-opacity="0.2" /><rect x="714" y="613.0" width="188" height="1" fill="white" fill-opacity="0.2" /><rect x="714" y="570.5" width="188" height="1" fill="white" fill-opacity="0.5" /><text x="912" y="570.5" font-size="14" fill="white" font-family="monospace" dominant-baseline="initial">15</text><rect x="714" y="527.5" width="188" height="1" fill="white" fill-opacity="0.2" /><rect x="714" y="484.5" width="188" height="1" fill="white" fill-opacity="0.2" /><rect x="714" y="441.5" width="188" height="1" fill="white" fill-opacity="0.2" /><rect x="714" y="399.0" width="188" height="1" fill="white" fill-opacity="0.5" /><text x="912" y="399.0" font-size="14" fill="white" font-family="monospace" dominant-baseline="initial">16</text><rect x="714" y="356.0" width="188" height="1" fill="white" fill-opacity="0.2" /><rect x="714" y="313.0" width="188" height="1" fill="white" fill-opacity="0.2" /><rect x="714" y="270.5" width="188" height="1" fill="white" fill-opacity="0.2" /><rect x="714" y="227.5" width="188" height="1" fill="white" fill-opacity="0.5" /><text x="912" y="227.5" font-size="14" fill="white" font-family="monospace" dominant-baseline="initial">17</text><rect x="952" y="192.0" width="188" height="722.0" fill="black" /><rect x="952" y="913.0" width="188" height="1" fill="white" fill-opacity="0.5" /><text x="1150" y="913.0" font-size="14" fill="white" font-family="monospace" dominant-baseline="initial">17</text><rect x="952" y="870.0" width="188" height="1" fill="white" fill-opacity="0.2" /><rect x="952" y="827.0" width="188" height="1" fill="white" fill-opacity="0.2" /><rect x="952" y="784.5" width="188" height="1" fill="white" fill-opacity="0.2" /><rect x="952" y="741.5" width="188" height="1" fill="white" fill-opacity="0.5" /><text x="1150" y="741.5" font-size="14" fill="white" font-family="monospace" dominant-baseline="initial">18</text><rect x="952" y="694.0" width="188" height="1" fill="white" fill-opacity="0.2" /><rect x="952" y="647.0" width="188" height="1" fill="white" fill-opacity="0.2" /><rect x="952" y="599.5" width="188" height="1" fill="white" fill-opacity="0.2" /><rect x="952" y="552.0" width="188" height="1" fill="white" fill-opacity="0.5" /><text x="1150" y="552.0" font-size="14" fill="white" font-family="monospace" dominant-baseline="initial">19</text><rect x="952" y="504.5" width="188" height="1" fill="white" fill-opacity="0.2" /><rect x="952" y="457.5" width="188" height="1" fill="white" fill-opacity="0.2" /><rect x="952" y="410.0" width="188" height="1" fill="white" fill-opacity="0.2" /><rect x="952" y="362.5" width="188" height="1" fill="white" fill-opacity="0.5" /><text x="1150" y="362.5" font-size="14" fill="white" font-family="monospace" dominant-baseline="initial">20</text><rect x="952" y="319.5" width="188" height="1" fill="white" fill-opacity="0.2" /><rect x="952" y="277.0" width="188" height="1" fill="white" fill-opacity="0.2" /><rect x="952" y="234.0" width="188" height="1" fill="white" fill-opacity="0.2" /><rect x="952" y="191.0" width="188" height="1" fill="white" fill-opacity="0.5" /><text x="1150" y="191.0" font-size="14" fill="white" font-family="monospace" dominant-baseline="initial">21</text><rect x="952" y="362.6500000000001" width="188" height="1" fill="aqua" fill-opacity="0.75" /><text x="952" y="358.6500000000001" font-size="14" fill="aqua" fill-opacity="0.75" font-family="monospace">Phrase A</text><rect x="952" y="741.5" width="188" height="1" fill="lime" fill-opacity="0.75" /><text x="1150" y="728.5" font-size="14" fill="lime" font-family="monospace" dominant-baseline="initial">190</text><rect x="952" y="362.5" width="188" height="1" fill="lime" fill-opacity="0.75" /><text x="1150" y="349.5" font-size="14" fill="lime" font-family="monospace" dominant-baseline="initial">210</text><rect x="1190" y="228.5" width="188" height="685.5" fill="black" /><rect x="1190" y="913.0" width="188" height="1" fill="white" fill-opacity="0.5" /><text x="1388" y="913.0" font-size="14" fill="white" font-family="monospace" dominant-baseline="initial">21</text><rect x="1190" y="870.5" width="188" height="1" fill="white" fill-opacity="0.2" /><rect x="1190" y="827.5" width="188" height="1" fill="white" fill-opacity="0.2" /><rect x="1190" y="784.5" width="188" height="1" fill="white" fill-opacity="0.2" /><rect x="1190" y="741.5" width="188" height="1" fill="white" fill-opacity="0.5" /><text x="1388" y="741.5" font-size="14" fill="white" font-family="monospace" dominant-baseline="initial">22</text><rect x="1190" y="699.0" width="188" height="1" fill="white" fill-opacity="0.2" /><rect x="1190" y="656.0" width="188" height="1" fill="white" fill-opacity="0.2" /><rect x="1190" y="613.0" width="188" height="1" fill="white" fill-opacity="0.2" /><rect x="1190" y="570.5" width="188" height="1" fill="white" fill-opacity="0.5" /><text x="1388" y="570.5" font-size="14" fill="white" font-family="monospace" dominant-baseline="initial">23</text><rect x="1190" y="527.5" width="188" height="1" fill="white" fill-opacity="0.2" /><rect x="1190" y="484.5" width="188" height="1" fill="white" fill-opacity="0.2" /><rect x="1190" y="441.5" width="188" height="1" fill="white" fill-opacity="0.2" /><rect x="1190" y="399.0" width="188" height="1" fill="white" fill-opacity="0.5" /><text x="1388" y="399.0" font-size="14" fill="white" font-family="monospace" dominant-baseline="initial">24</text><rect x="1190" y="356.0" width="188" height="1" fill="white" fill-opacity="0.2" /><rect x="1190" y="313.0" width="188" height="1" fill="white" fill-opacity="0.2" /><rect x="1190" y="270.5" width="188" height="1" fill="white" fill-opacity="0.2" /><rect x="1190" y="227.5" width="188" height="1" fill="white" fill-opacity="0.5" /><text x="1388" y="227.5" font-size="14" fill="white" font-family="monospace" dominant-baseline="initial">25</text><rect x="1428" y="228.0" width="188" height="686.0" fill="black" /><rect x="1428" y="913.0" width="188" height="1" fill="white" fill-opacity="0.5" /><text x="1626" y="913.0" font-size="14" fill="white" font-family="monospace" dominant-baseline="initial">25</text><rect x="1428" y="870.0" width="188" height="1" fill="white" fill-opacity="0.2" /><rect x="1428" y="827.0" width="188" height="1" fill="white" fill-opacity="0.2" /><rect x="1428" y="784.5" width="188" height="1" fill="white" fill-opacity="0.2" /><rect x="1428" y="741.5" width="188" height="1" fill="white" fill-opacity="0.5" /><text x="1626" y="741.5" font-size="14" fill="white" font-family="monospace" dominant-baseline="initial">26</text><rect x="1428" y="698.5" width="188" height="1" fill="white" fill-opacity="0.2" /><rect x="1428" y="656.0" width="188" height="1" fill="white" fill-opacity="0.2" /><rect x="1428" y="613.0" width="188" height="1" fill="white" fill-opacity="0.2" /><rect x="1428" y="570.0" width="188" height="1" fill="white" fill-opacity="0.5" /><text x="1626" y="570.0" font-size="14" fill="white" font-family="monospace" dominant-baseline="initial">27</text><rect x="1428" y="527.0" width="188" height="1" fill="white" fill-opacity="0.2" /><rect x="1428" y="484.5" width="188" height="1" fill="white" fill-opacity="0.2" /><rect x="1428" y="441.5" width="188" height="1" fill="white" fill-opacity="0.2" /><rect x="1428" y="398.5" width="188" height="1" fill="white" fill-opacity="0.5" /><text x="1626" y="398.5" font-size="14" fill="white" font-family="monospace" dominant-baseline="initial">28</text><rect x="1428" y="356.0" width="188" height="1" fill="white" fill-opacity="0.2" /><rect x="1428" y="313.0" width="188" height="1" fill="white" fill-opacity="0.2" /><rect x="1428" y="270.0" width="188" height="1" fill="white" fill-opacity="0.2" /><rect x="1428" y="227.0" width="188" height="1" fill="white" fill-opacity="0.5" /><text x="1626" y="227.0" font-size="14" fill="white" font-family="monospace" dominant-baseline="initial">29</text><rect x="1666" y="228.5" width="188" height="685.5" fill="black" /><rect x="1666" y="913.0" width="188" height="1" fill="white" fill-opacity="0.5" /><text x="1864" y="913.0" font-size="14" fill="white" font-family="monospace" dominant-baseline="initial">29</text><rect x="1666" y="870.5" width="188" height="1" fill="white" fill-opacity="0.2" /><rect x="1666" y="827.5" width="188" height="1" fill="white" fill-opacity="0.2" /><rect x="1666" y="784.5" width="188" height="1" fill="white" fill-opacity="0.2" /><rect x="1666" y="742.0" width="188" height="1" fill="white" fill-opacity="0.5" /><text x="1864" y="742.0" font-size="14" fill="white" font-family="monospace" dominant-baseline="initial">30</text><rect x="1666" y="699.0" width="188" height="1" fill="white" fill-opacity="0.2" /><rect x="1666" y="656.0" width="188" height="1" fill="white" fill-opacity="0.2" /><rect x="1666" y="613.0" width="188" height="1" fill="white" fill-opacity="0.2" /><rect x="1666" y="570.5" width="188" height="1" fill="white" fill-opacity="0.5" /><text x="1864" y="570.5" font-size="14" fill="white" font-family="monospace" dominant-baseline="initial">31</text><rect x="1666" y="527.5" width="188" height="1" fill="white" fill-opacity="0.2" /><rect x="1666" y="484.5" width="188" height="1" fill="white" fill-opacity="0.2" /><rect x="1666" y="442.0" width="188" height="1" fill="white" fill-opacity="0.2" /><rect x="1666" y="399.0" width="188" height="1" fill="white" fill-opacity="0.5" /><text x="1864" y="399.0" font-size="14" fill="white" font-family="monospace" dominant-baseline="initial">32</text><rect x="1666" y="356.0" width="188" height="1" fill="white" fill-opacity="0.2" /><rect x="1666" y="313.0" width="188" height="1" fill="white" fill-opacity="0.2" /><rect x="1666" y="270.5" width="188" height="1" fill="white" fill-opacity="0.2" /><rect x="1666" y="227.5" width="188" height="1" fill="white" fill-opacity="0.5" /><text x="1864" y="227.5" font-size="14" fill="white" font-family="monospace" dominant-baseline="initial">33</text><rect x="1904" y="228.5" width="188" height="685.5" fill="black" /><rect x="1904" y="913.0" width="188" height="1" fill="white" fill-opacity="0.5" /><text x="2102" y="913.0" font-size="14" fill="white" font-family="monospace" dominant-baseline="initial">33</text><rect x="1904" y="870.0" width="188" height="1" fill="white" fill-opacity="0.2" /><rect x="1904" y="827.5" width="188" height="1" fill="white" fill-opacity="0.2" /><rect x="1904" y="784.5" width="188" height="1" fill="white" fill-opacity="0.2" /><rect x="1904" y="741.5" width="188" height="1" fill="white" fill-opacity="0.5" /><text x="2102" y="741.5" font-size="14" fill="white" font-family="monospace" dominant-baseline="initial">34</text><rect x="1904" y="698.5" width="188" height="1" fill="white" fill-opacity="0.2" /><rect x="1904" y="656.0" width="188" height="1" fill="white" fill-opacity="0.2" /><rect x="1904" y="613.0" width="188" height="1" fill="white" fill-opacity="0.2" /><rect x="1904" y="570.0" width="188" height="1" fill="white" fill-opacity="0.5" /><text x="2102" y="570.0" font-size="14" fill="white" font-family="monospace" dominant-baseline="initial">35</text><rect x="1904" y="527.5" width="188" height="1" fill="white" fill-opacity="0.2" /><rect x="1904" y="484.5" width="188" height="1" fill="white" fill-opacity="0.2" /><rect x="1904" y="441.5" width="188" height="1" fill="white" fill-opacity="0.2" /><rect x="1904" y="398.5" width="188" height="1" fill="white" fill-opacity="0.5" /><text x="2102" y="398.5" font-size="14" fill="white" font-family="monospace" dominant-baseline="initial">36</text><rect x="1904" y="356.0" width="188" height="1" fill="white" fill-opacity="0.2" /><rect x="1904" y="313.0" width="188" height="1" fill="white" fill-opacity="0.2" /><rect x="1904" y="270.0" width="188" height="1" fill="white" fill-opacity="0.2" /><rect x="1904" y="227.5" width="188" height="1" fill="white" fill-opacity="0.5" /><text x="2102" y="227.5" font-size="14" fill="white" font-family="monospace" dominant-baseline="initial">37</text><rect x="1904" y="398.75" width="188" height="1" fill="aqua" fill-opacity="0.75" /><text x="1904" y="394.75" font-size="14" fill="aqua" fill-opacity="0.75" font-family="monospace">Phrase B</text><rect x="2142" y="228.0" width="188" height="686.0" fill="black" /><rect x="2142" y="913.0" width="188" height="1" fill="white" fill-opacity="0.5" /><text x="2340" y="913.0" font-size="14" fill="white" font-family="monospace" dominant-baseline="initial">37</text><rect x="2142" y="870.0" width="188" height="1" fill="white" fill-opacity="0.2" /><rect x="2142" y="827.0" width="188" height="1" fill="white" fill-opacity="0.2" /><rect x="2142" y="784.0" width="188" height="1" fill="white" fill-opacity="0.2" /><rect x="2142" y="741.5" width="188" height="1" fill="white" fill-opacity="0.5" /><text x="2340" y="741.5" font-size="14" fill="white" font-family="monospace" dominant-baseline="initial">38</text><rect x="2142" y="698.5" width="188" height="1" fill="white" fill-opacity="0.2" /><rect x="2142" y="655.5" width="188" height="1" fill="white" fill-opacity="0.2" /><rect x="2142" y="613.0" width="188" height="1" fill="white" fill-opacity="0.2" /><rect x="2142" y="570.0" width="188" height="1" fill="white" fill-opacity="0.5" /><text x="2340" y="570.0" font-size="14" fill="white" font-family="monospace" dominant-baseline="initial">39</text><rect x="2142" y="527.0" width="188" height="1" fill="white" fill-opacity="0.2" /><rect x="2142" y="484.0" width="188" height="1" fill="white" fill-opacity="0.2" /><rect x="2142" y="441.5" width="188" height="1" fill="white" fill-opacity="0.2" /><rect x="2142" y="398.5" width="188" height="1" fill="white" fill-opacity="0.5" /><text x="2340" y="398.5" font-size="14" fill="white" font-family="monospace" dominant-baseline="initial">40</text><rect x="2142" y="355.5" width="188" height="1" fill="white" fill-opacity="0.2" /><rect x="2142" y="313.0" width="188" height="1" fill="white" fill-opacity="0.2" /><rect x="2142" y="270.0" width="188" height="1" fill="white" fill-opacity="0.2" /><rect x="2142" y="227.0" width="188" height="1" fill="white" fill-opacity="0.5" /><text x="2340" y="227.0" font-size="14" fill="white" font-family="monospace" dominant-baseline="initial">41</text><rect x="2380" y="228.5" width="188" height="685.5" fill="black" /><rect x="2380" y="913.0" width="188" height="1" fill="white" fill-opacity="0.5" /><text x="2578" y="913.0" font-size="14" fill="white" font-family="monospace" dominant-baseline="initial">41</text><rect x="2380" y="870.0" width="188" height="1" fill="white" fill-opacity="0.2" /><rect x="2380" y="827.5" width="188" height="1" fill="white" fill-opacity="0.2" /><rect x="2380" y="784.5" width="188" height="1" fill="white" fill-opacity="0.2" /><rect x="2380" y="741.5" width="188" height="1" fill="white" fill-opacity="0.5" /><text x="2578" y="741.5" font-size="14" fill="white" font-family="monospace" dominant-baseline="initial">42</text><rect x="2380" y="699.0" width="188" height="1" fill="white" fill-opacity="0.2" /><rect x="2380" y="656.0" width="188" height="1" fill="white" fill-opacity="0.2" /><rect x="2380" y="613.0" width="188" height="1" fill="white" fill-opacity="0.2" /><rect x="2380" y="570.0" width="188" height="1" fill="white" fill-opacity="0.5" /><text x="2578" y="570.0" font-size="14" fill="white" font-family="monospace" dominant-baseline="initial">43</text><rect x="2380" y="527.5" width="188" height="1" fill="white" fill-opacity="0.2" /><rect x="2380" y="484.5" width="188" height="1" fill="white" fill-opacity="0.2" /><rect x="2380" y="441.5" width="188" height="1" fill="white" fill-opacity="0.2" /><rect x="2380" y="399.0" width="188" height="1" fill="white" fill-opacity="0.5" /><text x="2578" y="399.0" font-size="14" fill="white" font-family="monospace" dominant-baseline="initial">44</text><rect x="2380" y="356.0" width="188" height="1" fill="white" fill-opacity="0.2" /><rect x="2380" y="313.0" width="188" height="1" fill="white" fill-opacity="0.2" /><rect x="2380" y="270.0" width="188" height="1" fill="white" fill-opacity="0.2" /><rect x="2380" y="227.5" width="188" height="1" fill="white" fill-opacity="0.5" /><text x="2578" y="227.5" font-size="14" fill="white" font-family="monospace" dominant-baseline="initial">45</text><rect x="2618" y="228.0" width="188" height="686.0" fill="black" /><rect x="2618" y="913.0" width="188" height="1" fill="white" fill-opacity="0.5" /><text x="2816" y="913.0" font-size="14" fill="white" font-family="monospace" dominant-baseline="initial">45</text><rect x="2618" y="870.0" width="188" height="1" fill="white" fill-opacity="0.2" /><rect x="2618" y="827.0" width="188" height="1" fill="white" fill-opacity="0.2" /><rect x="2618" y="784.5" width="188" height="1" fill="white" fill-opacity="0.2" /><rect x="2618" y="741.5" width="188" height="1" fill="white" fill-opacity="0.5" /><text x="2816" y="741.5" font-size="14" fill="white" font-family="monospace" dominant-baseline="initial">46</text><rect x="2618" y="698.5" width="188" height="1" fill="white" fill-opacity="0.2" /><rect x="2618" y="655.5" width="188" height="1" fill="white" fill-opacity="0.2" /><rect x="2618" y="613.0" width="188" height="1" fill="white" fill-opacity="0.2" /><rect x="2618" y="570.0" width="188" height="1" fill="white" fill-opacity="0.5" /><text x="2816" y="570.0" font-size="14" fill="white" font-family="monospace" dominant-baseline="initial">47</text><rect x="2618" y="527.0" width="188" height="1" fill="white" fill-opacity="0.2" /><rect x="2618" y="484.5" width="188" height="1" fill="white" fill-opacity="0.2" /><rect x="2618" y="441.5" width="188" height="1" fill="white" fill-opacity="0.2" /><rect x="2618" y="398.5" width="188" height="1" fill="white" fill-opacity="0.5" /><text x="2816" y="398.5" font-size="14" fill="white" font-family="monospace" dominant-baseline="initial">48</text><rect x="2618" y="355.5" width="188" height="1" fill="white" fill-opacity="0.2" /><rect x="2618" y="313.0" width="188" height="1" fill="white" fill-opacity="0.2" /><rect x="2618" y="270.0" width="188" height="1" fill="white" fill-opacity="0.2" /><rect x="2618" y="227.0" width="188" height="1" fill="white" fill-opacity="0.5" /><text x="2816" y="227.0" font-size="14" fill="white" font-family="monospace" dominant-baseline="initial">49</text><rect x="2856" y="228.5" width="188" height="685.5" fill="black" /><rect x="2856" y="913.0" width="188" height="1" fill="white" fill-opacity="0.5" /><text x="3054" y="913.0" font-size="14" fill="white" font-family="monospace" dominant-baseline="initial">49</text><rect x="2856" y="870.5" width="188" height="1" fill="white" fill-opacity="0.2" /><rect x="2856" y="827.5" width="188" height="1" fill="white" fill-opacity="0.2" /><rect x="2856" y="784.5" width="188" height="1" fill="white" fill-opacity="0.2" /><rect x="2856" y="741.5" width="188" height="1" fill="white" fill-opacity="0.5" /><text x="3054" y="741.5" font-size="14" fill="white" font-family="monospace" dominant-baseline="initial">50</text><rect x="2856" y="699.0" width="188" height="1" fill="white" fill-opacity="0.2" /><rect x="2856" y="656.0" width="188" height="1" fill="white" fill-opacity="0.2" /><rect x="2856" y="613.0" width="188" height="1" fill="white" fill-opacity="0.2" /><rect x="2856" y="570.5" width="188" height="1" fill="white" fill-opacity="0.5" /><text x="3054" y="570.5" font-size="14" fill="white" font-family="monospace" dominant-baseline="initial">51</text><rect x="2856" y="527.5" width="188" height="1" fill="white" fill-opacity="0.2" /><rect x="2856" y="484.5" width="188" height="1" fill="white" fill-opacity="0.2" /><rect x="2856" y="441.5" width="188" height="1" fill="white" fill-opacity="0.2" /><rect x="2856" y="399.0" width="188" height="1" fill="white" fill-opacity="0.5" /><text x="3054" y="399.0" font-size="14" fill="white" font-family="monospace" dominant-baseline="initial">52</text><rect x="2856" y="356.0" width="188" height="1" fill="white" fill-opacity="0.2" /><rect x="2856" y="313.0" width="188" height="1" fill="white" fill-opacity="0.2" /><rect x="2856" y="270.5" width="188" height="1" fill="white" fill-opacity="0.2" /><rect x="2856" y="227.5" width="188" height="1" fill="white" fill-opacity="0.5" /><text x="3054" y="227.5" font-size="14" fill="white" font-family="monospace" dominant-baseline="initial">53</text><rect x="2856" y="398.85000000000036" width="188" height="1" fill="aqua" fill-opacity="0.75" /><text x="2856" y="394.85000000000036" font-size="14" fill="aqua" fill-opacity="0.75" font-family="monospace">Special</text><rect x="3094" y="228.0" width="188" height="686.0" fill="black" /><rect x="3094" y="913.0" width="188" height="1" fill="white" fill-opacity="0.5" /><text x="3292" y="913.0" font-size="14" fill="white" font-family="monospace" dominant-baseline="initial">53</text><rect x="3094" y="870.0" width="188" height="1" fill="white" fill-opacity="0.2" /><rect x="3094" y="827.0" width="188" height="1" fill="white" fill-opacity="0.2" /><rect x="3094" y="784.5" width="188" height="1" fill="white" fill-opacity="0.2" /><rect x="3094" y="741.5" width="188" height="1" fill="white" fill-opacity="0.5" /><text x="3292" y="741.5" font-size="14" fill="white" font-family="monospace" dominant-baseline="initial">54</text><rect x="3094" y="698.5" width="188" height="1" fill="white" fill-opacity="0.2" /><rect x="3094" y="656.0" width="188" height="1" fill="white" fill-opacity="0.2" /><rect x="3094" y="613.0" width="188" height="1" fill="white" fill-opacity="0.2" /><rect x="3094" y="570.0" width="188" height="1" fill="white" fill-opacity="0.5" /><text x="3292" y="570.0" font-size="14" fill="white" font-family="monospace" dominant-baseline="initial">55</text><rect x="3094" y="527.0" width="188" height="1" fill="white" fill-opacity="0.2" /><rect x="3094" y="484.5" width="188" height="1" fill="white" fill-opacity="0.2" /><rect x="3094" y="441.5" width="188" height="1" fill="white" fill-opacity="0.2" /><rect x="3094" y="398.5" width="188" height="1" fill="white" fill-opacity="0.5" /><text x="3292" y="398.5" font-size="14" fill="white" font-family="monospace" dominant-baseline="initial">56</text><rect x="3094" y="356.0" width="188" height="1" fill="white" fill-opacity="0.2" /><rect x="3094" y="313.0" width="188" height="1" fill="white" fill-opacity="0.2" /><rect x="3094" y="270.0" width="188" height="1" fill="white" fill-opacity="0.2" /><rect x="3094" y="227.0" width="188" height="1" fill="white" fill-opacity="0.5" /><text x="3292" y="227.0" font-size="14" fill="white" font-family="monospace" dominant-baseline="initial">57</text><rect x="3332" y="228.5" width="188" height="685.5" fill="black" /><rect x="3332" y="913.0" width="188" height="1" fill="white" fill-opacity="0.5" /><text x="3530" y="913.0" font-size="14" fill="white" font-family="monospace" dominant-baseline="initial">57</text><rect x="3332" y="870.5" width="188" height="1" fill="white" fill-opacity="0.2" /><rect x="3332" y="827.5" width="188" height="1" fill="white" fill-opacity="0.2" /><rect x="3332" y="784.5" width="188" height="1" fill="white" fill-opacity="0.2" /><rect x="3332" y="742.0" width="188" height="1" fill="white" fill-opacity="0.5" /><text x="3530" y="742.0" font-size="14" fill="white" font-family="monospace" dominant-baseline="initial">58</text><rect x="3332" y="699.0" width="188" height="1" fill="white" fill-opacity="0.2" /><rect x="3332" y="656.0" width="188" height="1" fill="white" fill-opacity="0.2" /><rect x="3332" y="613.0" width="188" height="1" fill="white" fill-opacity="0.2" /><rect x="3332" y="570.5" width="188" height="1" fill="white" fill-opacity="0.5" /><text x="3530" y="570.5" font-size="14" fill="white" font-family="monospace" dominant-baseline="initial">59</text><rect x="3332" y="527.5" width="188" height="1" fill="white" fill-opacity="0.2" /><rect x="3332" y="484.5" width="188" height="1" fill="white" fill-opacity="0.2" /><rect x="3332" y="442.0" width="188" height="1" fill="white" fill-opacity="0.2" /><rect x="3332" y="399.0" width="188" height="1" fill="white" fill-opacity="0.5" /><text x="3530" y="399.0" font-size="14" fill="white" font-family="monospace" dominant-baseline="initial">60</text><rect x="3332" y="356.0" width="188" height="1" fill="white" fill-opacity="0.2" /><rect x="3332" y="313.0" width="188" height="1" fill="white" fill-opacity="0.2" /><rect x="3332" y="270.5" width="188" height="1" fill="white" fill-opacity="0.2" /><rect x="3332" y="227.5" width="188" height="1" fill="white" fill-opacity="0.5" /><text x="3530" y="227.5" font-size="14" fill="white" font-family="monospace" dominant-baseline="initial">61</text><rect x="3570" y="228.5" width="188" height="685.5" fill="black" /><rect x="3570" y="913.0" width="188" height="1" fill="white" fill-opacity="0.5" /><text x="3768" y="913.0" font-size="14" fill="white" font-family="monospace" dominant-baseline="initial">61</text><rect x="3570" y="870.0" width="188" height="1" fill="white" fill-opacity="0.2" /><rect x="3570" y="827.5" width="188" height="1" fill="white" fill-opacity="0.2" /><rect x="3570" y="784.5" width="188" height="1" fill="white" fill-opacity="0.2" /><rect x="3570" y="741.5" width="188" height="1" fill="white" fill-opacity="0.5" /><text x="3768" y="741.5" font-size="14" fill="white" font-family="monospace" dominant-baseline="initial">62</text><rect x="3570" y="698.5" width="188" height="1" fill="white" fill-opacity="0.2" /><rect x="3570" y="656.0" width="188" height="1" fill="white" fill-opacity="0.2" /><rect x="3570" y="613.0" width="188" height="1" fill="white" fill-opacity="0.2" /><rect x="3570" y="570.0" width="188" height="1" fill="white" fill-opacity="0.5" /><text x="3768" y="570.0" font-size="14" fill="white" font-family="monospace" dominant-baseline="initial">63</text><rect x="3570" y="527.5" width="188" height="1" fill="white" fill-opacity="0.2" /><rect x="3570" y="484.5" width="188" height="1" fill="white" fill-opacity="0.2" /><rect x="3570" y="441.5" width="188" height="1" fill="white" fill-opacity="0.2" /><rect x="3570" y="398.5" width="188" height="1" fill="white" fill-opacity="0.5" /><text x="3768" y="398.5" font-size="14" fill="white" font-family="monospace" dominant-baseline="initial">64</text><rect x="3570" y="356.0" width="188" height="1" fill="white" fill-opacity="0.2" /><rect x="3570" y="313.0" width="188" height="1" fill="white" fill-opacity="0.2" /><rect x="3570" y="270.0" width="188" height="1" fill="white" fill-opacity="0.2" /><rect x="3570" y="227.5" width="188" height="1" fill="white" fill-opacity="0.5" /><text x="3768" y="227.5" font-size="14" fill="white" font-family="monospace" dominant-baseline="initial">65</text><rect x="3808" y="211.0" width="188" height="703.0" fill="black" /><rect x="3808" y="913.0" width="188" height="1" fill="white" fill-opacity="0.5" /><text x="4006" y="913.0" font-size="14" fill="white" font-family="monospace" dominant-baseline="initial">65</text><rect x="3808" y="870.0" width="188" height="1" fill="white" fill-opacity="0.2" /><rect x="3808" y="827.0" width="188" height="1" fill="white" fill-opacity="0.2" /><rect x="3808" y="784.0" width="188" height="1" fill="white" fill-opacity="0.2" /><rect x="3808" y="741.5" width="188" height="1" fill="white" fill-opacity="0.5" /><text x="4006" y="741.5" font-size="14" fill="white" font-family="monospace" dominant-baseline="initial">66</text><rect x="3808" y="696.5" width="188" height="1" fill="white" fill-opacity="0.2" /><rect x="3808" y="651.5" width="188" height="1" fill="white" fill-opacity="0.2" /><rect x="3808" y="606.5" width="188" height="1" fill="white" fill-opacity="0.2" /><rect x="3808" y="561.5" width="188" height="1" fill="white" fill-opacity="0.5" /><text x="4006" y="561.5" font-size="14" fill="white" font-family="monospace" dominant-baseline="initial">67</text><rect x="3808" y="516.5" width="188" height="1" fill="white" fill-opacity="0.2" /><rect x="3808" y="471.5" width="188" height="1" fill="white" fill-opacity="0.2" /><rect x="3808" y="426.5" width="188" height="1" fill="white" fill-opacity="0.2" /><rect x="3808" y="381.5" width="188" height="1" fill="white" fill-opacity="0.5" /><text x="4006" y="381.5" font-size="14" fill="white" font-family="monospace" dominant-baseline="initial">68</text><rect x="3808" y="338.5" width="188" height="1" fill="white" fill-opacity="0.2" /><rect x="3808" y="295.5" width="188" height="1" fill="white" fill-opacity="0.2" /><rect x="3808" y="253.0" width="188" height="1" fill="white" fill-opacity="0.2" /><rect x="3808" y="210.0" width="188" height="1" fill="white" fill-opacity="0.5" /><text x="4006" y="210.0" font-size="14" fill="white" font-family="monospace" dominant-baseline="initial">69</text><rect x="3808" y="381.35000000000036" width="188" height="1" fill="aqua" fill-opacity="0.75" /><text x="3808" y="377.35000000000036" font-size="14" fill="aqua" fill-opacity="0.75" font-family="monospace">Solo</text><rect x="3808" y="741.5" width="188" height="1" fill="lime" fill-opacity="0.75" /><text x="4006" y="728.5" font-size="14" fill="lime" font-family="monospace" dominant-baseline="initial">200</text><rect x="3808" y="381.5" width="188" height="1" fill="lime" fill-opacity="0.75" /><text x="4006" y="368.5" font-size="14" fill="lime" font-family="monospace" dominant-baseline="initial">210</text><rect x="4046" y="228.0" width="188" height="686.0" fill="black" /><rect x="4046" y="913.0" width="188" height="1" fill="white" fill-opacity="0.5" /><text x="4244" y="913.0" font-size="14" fill="white" font-family="monospace" dominant-baseline="initial">69</text><rect x="4046" y="870.0" width="188" height="1" fill="white" fill-opacity="0.2" /><rect x="4046" y="827.0" width="188" height="1" fill="white" fill-opacity="0.2" /><rect x="4046" y="784.5" width="188" height="1" fill="white" fill-opacity="0.2" /><rect x="4046" y="741.5" width="188" height="1" fill="white" fill-opacity="0.5" /><text x="4244" y="741.5" font-size="14" fill="white" font-family="monospace" dominant-baseline="initial">70</text><rect x="4046" y="698.5" width="188" height="1" fill="white" fill-opacity="0.2" /><rect x="4046" y="656.0" width="188" height="1" fill="white" fill-opacity="0.2" /><rect x="4046" y="613.0" width="188" height="1" fill="white" fill-opacity="0.2" /><rect x="4046" y="570.0" width="188" height="1" fill="white" fill-opacity="0.5" /><text x="4244" y="570.0" font-size="14" fill="white" font-family="monospace" dominant-baseline="initial">71</text><rect x="4046" y="527.0" width="188" height="1" fill="white" fill-opacity="0.2" /><rect x="4046" y="484.5" width="188" height="1" fill="white" fill-opacity="0.2" /><rect x="4046" y="441.5" width="188" height="1" fill="white" fill-opacity="0.2" /><rect x="4046" y="398.5" width="188" height="1" fill="white" fill-opacity="0.5" /><text x="4244" y="398.5" font-size="14" fill="white" font-family="monospace" dominant-baseline="initial">72</text><rect x="4046" y="356.0" width="188" height="1" fill="white" fill-opacity="0.2" /><rect x="4046" y="313.0" width="188" height="1" fill="white" fill-opacity="0.2" /><rect x="4046" y="270.0" width="188" height="1" fill="white" fill-opacity="0.2" /><rect x="4046" y="227.0" width="188" height="1" fill="white" fill-opacity="0.5" /><text x="4244" y="227.0" font-size="14" fill="white" font-family="monospace" dominant-baseline="initial">73</text><rect x="4284" y="228.5" width="188" height="685.5" fill="black" /><rect x="4284" y="913.0" width="188" height="1" fill="white" fill-opacity="0.5" /><text x="4482" y="913.0" font-size="14" fill="white" font-family="monospace" dominant-baseline="initial">73</text><rect x="4284" y="870.5" width="188" height="1" fill="white" fill-opacity="0.2" /><rect x="4284" y="827.5" width="188" height="1" fill="white" fill-opacity="0.2" /><rect x="4284" y="784.5" width="188" height="1" fill="white" fill-opacity="0.2" /><rect x="4284" y="742.0" width="188" height="1" fill="white" fill-opacity="0.5" /><text x="4482" y="742.0" font-size="14" fill="white" font-family="monospace" dominant-baseline="initial">74</text><rect x="4284" y="699.0" width="188" height="1" fill="white" fill-opacity="0.2" /><rect x="4284" y="656.0" width="188" height="1" fill="white" fill-opacity="0.2" /><rect x="4284" y="613.0" width="188" height="1" fill="white" fill-opacity="0.2" /><rect x="4284" y="570.5" width="188" height="1" fill="white" fill-opacity="0.5" /><text x="4482" y="570.5" font-size="14" fill="white" font-family="monospace" dominant-baseline="initial">75</text><rect x="4284" y="527.5" width="188" height="1" fill="white" fill-opacity="0.2" /><rect x="4284" y="484.5" width="188" height="1" fill="white" fill-opacity="0.2" /><rect x="4284" y="442.0" width="188" height="1" fill="white" fill-opacity="0.2" /><rect x="4284" y="399.0" width="188" height="1" fill="white" fill-opacity="0.5" /><text x="4482" y="399.0" font-size="14" fill="white" font-family="monospace" dominant-baseline="initial">76</text><rect x="4284" y="356.0" width="188" height="1" fill="white" fill-opacity="0.2" /><rect x="4284" y="313.0" width="188" height="1" fill="white" fill-opacity="0.2" /><rect x="4284" y="270.5" width="188" height="1" fill="white" fill-opacity="0.2" /><rect x="4284" y="227.5" width="188" height="1" fill="white" fill-opacity="0.5" /><text x="4482" y="227.5" font-size="14" fill="white" font-family="monospace" dominant-baseline="initial">77</text><rect x="4522" y="228.5" width="188" height="685.5" fill="black" /><rect x="4522" y="913.0" width="188" height="1" fill="white" fill-opacity="0.5" /><text x="4720" y="913.0" font-size="14" fill="white" font-family="monospace" dominant-baseline="initial">77</text><rect x="4522" y="870.0" width="188" height="1" fill="white" fill-opacity="0.2" /><rect x="4522" y="827.5" width="188" height="1" fill="white" fill-opacity="0.2" /><rect x="4522" y="784.5" width="188" height="1" fill="white" fill-opacity="0.2" /><rect x="4522" y="741.5" width="188" height="1" fill="white" fill-opacity="0.5" /><text x="4720" y="741.5" font-size="14" fill="white" font-family="monospace" dominant-baseline="initial">78</text><rect x="4522" y="698.5" width="188" height="1" fill="white" fill-opacity="0.2" /><rect x="4522" y="656.0" width="188" height="1" fill="white" fill-opacity="0.2" /><rect x="4522" y="613.0" width="188" height="1" fill="white" fill-opacity="0.2" /><rect x="4522" y="570.0" width="188" height="1" fill="white" fill-opacity="0.5" /><text x="4720" y="570.0" font-size="14" fill="white" font-family="monospace" dominant-baseline="initial">79</text><rect x="4522" y="527.5" width="188" height="1" fill="white" fill-opacity="0.2" /><rect x="4522" y="484.5" width="188" height="1" fill="white" fill-opacity="0.2" /><rect x="4522" y="441.5" width="188" height="1" fill="white" fill-opacity="0.2" /><rect x="4522" y="398.5" width="188" height="1" fill="white" fill-opacity="0.5" /><text x="4720" y="398.5" font-size="14" fill="white" font-family="monospace" dominant-baseline="initial">80</text><rect x="4522" y="356.0" width="188" height="1" fill="white" fill-opacity="0.2" /><rect x="4522" y="313.0" width="188" height="1" fill="white" fill-opacity="0.2" /><rect x="4522" y="270.0" width="188" height="1" fill="white" fill-opacity="0.2" /><rect x="4522" y="227.5" width="188" height="1" fill="white" fill-opacity="0.5" /><text x="4720" y="227.5" font-size="14" fill="white" font-family="monospace" dominant-baseline="initial">81</text><rect x="4760" y="202.5" width="188" height="711.5" fill="black" /><rect x="4760" y="913.0" width="188" height="1" fill="white" fill-opacity="0.5" /><text x="4958" y="913.0" font-size="14" fill="white" font-family="monospace" dominant-baseline="initial">81</text><rect x="4760" y="870.0" width="188" height="1" fill="white" fill-opacity="0.2" /><rect x="4760" y="827.0" width="188" height="1" fill="white" fill-opacity="0.2" /><rect x="4760" y="784.0" width="188" height="1" fill="white" fill-opacity="0.2" /><rect x="4760" y="741.5" width="188" height="1" fill="white" fill-opacity="0.5" /><text x="4958" y="741.5" font-size="14" fill="white" font-family="monospace" dominant-baseline="initial">82</text><rect x="4760" y="696.5" width="188" height="1" fill="white" fill-opacity="0.2" /><rect x="4760" y="651.5" width="188" height="1" fill="white" fill-opacity="0.2" /><rect x="4760" y="606.5" width="188" height="1" fill="white" fill-opacity="0.2" /><rect x="4760" y="561.5" width="188" height="1" fill="white" fill-opacity="0.5" /><text x="4958" y="561.5" font-size="14" fill="white" font-family="monospace" dominant-baseline="initial">83</text><rect x="4760" y="516.5" width="188" height="1" fill="white" fill-opacity="0.2" /><rect x="4760" y="471.5" width="188" height="1" fill="white" fill-opacity="0.2" /><rect x="4760" y="426.5" width="188" height="1" fill="white" fill-opacity="0.2" /><rect x="4760" y="381.5" width="188" height="1" fill="white" fill-opacity="0.5" /><text x="4958" y="381.5" font-size="14" fill="white" font-family="monospace" dominant-baseline="initial">84</text><rect x="4760" y="336.5" width="188" height="1" fill="white" fill-opacity="0.2" /><rect x="4760" y="291.5" width="188" height="1" fill="white" fill-opacity="0.2" /><rect x="4760" y="246.5" width="188" height="1" fill="white" fill-opacity="0.2" /><rect x="4760" y="201.5" width="188" height="1" fill="white" fill-opacity="0.5" /><text x="4958" y="201.5" font-size="14" fill="white" font-family="monospace" dominant-baseline="initial">85</text><rect x="4760" y="741.3500000000004" width="188" height="1" fill="aqua" fill-opacity="0.75" /><text x="4760" y="737.3500000000004" font-size="14" fill="aqua" fill-opacity="0.75" font-family="monospace">Outro</text><rect x="4760" y="741.5" width="188" height="1" fill="lime" fill-opacity="0.75" /><text x="4958" y="728.5" font-size="14" fill="lime" font-family="monospace" dominant-baseline="initial">200</text><rect x="4998" y="14.0" width="188" height="900.0" fill="black" /><rect x="4998" y="913.0" width="188" height="1" fill="white" fill-opacity="0.5" /><text x="5196" y="913.0" font-size="14" fill="white" font-family="monospace" dominant-baseline="initial">85</text><rect x="4998" y="856.5" width="188" height="1" fill="white" fill-opacity="0.2" /><rect x="4998" y="800.5" width="188" height="1" fill="white" fill-opacity="0.2" /><rect x="4998" y="744.0" width="188" height="1" fill="white" fill-opacity="0.2" /><rect x="4998" y="688.0" width="188" height="1" fill="white" fill-opacity="0.5" /><text x="5196" y="688.0" font-size="14" fill="white" font-family="monospace" dominant-baseline="initial">86</text><rect x="4998" y="631.5" width="188" height="1" fill="white" fill-opacity="0.2" /><rect x="4998" y="575.5" width="188" height="1" fill="white" fill-opacity="0.2" /><rect x="4998" y="519.0" width="188" height="1" fill="white" fill-opacity="0.2" /><rect x="4998" y="463.0" width="188" height="1" fill="white" fill-opacity="0.5" /><text x="5196" y="463.0" font-size="14" fill="white" font-family="monospace" dominant-baseline="initial">87</text><rect x="4998" y="406.5" width="188" height="1" fill="white" fill-opacity="0.2" /><rect x="4998" y="350.5" width="188" height="1" fill="white" fill-opacity="0.2" /><rect x="4998" y="294.0" width="188" height="1" fill="white" fill-opacity="0.2" /><rect x="4998" y="238.0" width="188" height="1" fill="white" fill-opacity="0.5" /><text x="5196" y="238.0" font-size="14" fill="white" font-family="monospace" dominant-baseline="initial">88</text><rect x="4998" y="181.5" width="188" height="1" fill="white" fill-opacity="0.2" /><rect x="4998" y="125.5" width="188" height="1" fill="white" fill-opacity="0.2" /><rect x="4998" y="69.0" width="188" height="1" fill="white" fill-opacity="0.2" /><rect x="4998" y="13.0" width="188" height="1" fill="white" fill-opacity="0.5" /><text x="5196" y="13.0" font-size="14" fill="white" font-family="monospace" dominant-baseline="initial">89</text><rect x="4998" y="913.0" width="188" height="1" fill="lime" fill-opacity="0.75" /><text x="5196" y="900.0" font-size="14" fill="lime" font-family="monospace" dominant-baseline="initial">160</text><rect x="5236" y="812.0" width="188" height="102.0" fill="black" /><rect x="5236" y="913.0" width="188" height="1" fill="white" fill-opacity="0.5" /><text x="5434" y="913.0" font-size="14" fill="white" font-family="monospace" dominant-baseline="initial">89</text></svg>