<?xml version="1.0" encoding="UTF-8"?><svg xmlns="http://www.w3.org/2000/svg" xmlns:xlink="http://www.w3.org/1999/xlink"     width="4760" height="974.0" viewBox="0 0 4760 974.0"><defs></defs><rect x="0" y="14.0" width="188" height="960.0" fill="black" /><rect x="0" y="973.0" width="188" height="1" fill="white" fill-opacity="0.5" /><text x="198" y="973.0" font-size="14" fill="white" font-family="monospace" dominant-baseline="initial">1</text><rect x="0" y="913.0" width="188" height="1" fill="white" fill-opacity="0.2" /><rect x="0" y="853.0" width="188" height="1" fill="white" fill-opacity="0.2" /><rect x="0" y="793.0" width="188" height="1" fill="white" fill-opacity="0.2" /><rect x="0" y="733.0" width="188" height="1" fill="white" fill-opacity="0.5" /><text x="198" y="733.0" font-size="14" fill="white" font-family="monospace" dominant-baseline="initial">2</text><rect x="0" y="673.0" width="188" height="1" fill="white" fill-opacity="0.2" /><rect x="0" y="613.0" width="188" height="1" fill="white" fill-opacity="0.2" /><rect x="0" y="553.0" width="188" height="1" fill="white" fill-opacity="0.2" /><rect x="0" y="493.0" width="188" height="1" fill="white" fill-opacity="0.5" /><text x="198" y="493.0" font-size="14" fill="white" font-family="monospace" dominant-baseline="initial">3</text><rect x="0" y="433.0" width="188" height="1" fill="white" fill-opacity="0.2" /><rect x="0" y="373.0" width="188" height="1" fill="white" fill-opacity="0.2" /><rect x="0" y="313.0" width="188" height="1" fill="white" fill-opacity="0.2" /><rect x="0" y="253.0" width="188" height="1" fill="white" fill-opacity="0.5" /><text x="198" y="253.0" font-size="14" fill="white" font-family="monospace" dominant-baseline="initial">4</text><rect x="0" y="193.0" width="188" height="1" fill="white" fill-opacity="0.2" /><rect x="0" y="133.0" width="188" height="1" fill="white" fill-opacity="0.2" /><rect x="0" y="73.0" width="188" height="1" fill="white" fill-opacity="0.2" /><rect x="0" y="13.0" width="188" height="1" fill="white" fill-opacity="0.5" /><text x="198" y="13.0" font-size="14" fill="white" font-family="monospace" dominant-baseline="initial">5</text><rect x="0" y="973.0" width="188" height="1" fill="aqua" fill-opacity="0.75" /><text x="0" y="969.0" font-size="14" fill="aqua" fill-opacity="0.75" font-family="monospace">Intro</text><rect x="0" y="973.0" width="188" height="1" fill="lime" fill-opacity="0.75" /><text x="198" y="960.0" font-size="14" fill="lime" font-family="monospace" dominant-baseline="initial">150</text><rect x="238" y="14.0" width="188" height="960.0" fill="black" /><rect x="238" y="973.0" width="188" height="1" fill="white" fill-opacity="0.5" /><text x="436" y="973.0" font-size="14" fill="white" font-family="monospace" dominant-baseline="initial">5</text><rect x="238" y="913.0" width="188" height="1" fill="white" fill-opacity="0.2" /><rect x="238" y="853.0" width="188" height="1" fill="white" fill-opacity="0.2" /><rect x="238" y="793.0" width="188" height="1" fill="white" fill-opacity="0.2" /><rect x="238" y="733.0" width="188" height="1" fill="white" fill-opacity="0.5" /><text x="436" y="733.0" font-size="14" fill="white" font-family="monospace" dominant-baseline="initial">6</text><rect x="238" y="673.0" width="188" height="1" fill="white" fill-opacity="0.2" /><rect x="238" y="613.0" width="188" height="1" fill="white" fill-opacity="0.2" /><rect x="238" y="553.0" width="188" height="1" fill="white" fill-opacity="0.2" /><rect x="238" y="493.0" width="188" height="1" fill="white" fill-opacity="0.5" /><text x="436" y="493.0" font-size="14" fill="white" font-family="monospace" dominant-baseline="initial">7</text><rect x="238" y="433.0" width="188" height="1" fill="white" fill-opacity="0.2" /><rect x="238" y="373.0" width="188" height="1" fill="white" fill-opacity="0.2" /><rect x="238" y="313.0" width="188" height="1" fill="white" fill-opacity="0.2" /><rect x="238" y="253.0" width="188" height="1" fill="white" fill-opacity="0.5" /><text x="436" y="253.0" font-size="14" fill="white" font-family="monospace" dominant-baseline="initial">8</text><rect x="238" y="193.0" width="188" height="1" fill="white" fill-opacity="0.2" /><rect x="238" y="133.0" width="188" height="1" fill="white" fill-opacity="0.2" /><rect x="238" y="73.0" width="188" height="1" fill="white" fill-opacity="0.2" /><rect x="238" y="13.0" width="188" height="1" fill="white" fill-opacity="0.5" /><text x="436" y="13.0" font-size="14" fill="white" font-family="monospace" dominant-baseline="initial">9</text><rect x="476" y="14.0" width="188" height="960.0" fill="black" /><rect x="476" y="973.0" width="188" height="1" fill="white" fill-opacity="0.5" /><text x="674" y="973.0" font-size="14" fill="white" font-family="monospace" dominant-baseline="initial">9</text><rect x="476" y="913.0" width="188" height="1" fill="white" fill-opacity="0.2" /><rect x="476" y="853.0" width="188" height="1" fill="white" fill-opacity="0.2" /><rect x="476" y="793.0" width="188" height="1" fill="white" fill-opacity="0.2" /><rect x="476" y="733.0" width="188" height="1" fill="white" fill-opacity="0.5" /><text x="674" y="733.0" font-size="14" fill="white" font-family="monospace" dominant-baseline="initial">10</text><rect x="476" y="673.0" width="188" height="1" fill="white" fill-opacity="0.2" /><rect x="476" y="613.0" width="188" height="1" fill="white" fill-opacity="0.2" /><rect x="476" y="553.0" width="188" height="1" fill="white" fill-opacity="0.2" /><rect x="476" y="493.0" width="188" height="1" fill="white" fill-opacity="0.5" /><text x="674" y="493.0" font-size="14" fill="white" font-family="monospace" dominant-baseline="initial">11</text><rect x="476" y="433.0" width="188" height="1" fill="white" fill-opacity="0.2" /><rect x="476" y="373.0" width="188" height="1" fill="white" fill-opacity="0.2" /><rect x="476" y="313.0" width="188" height="1" fill="white" fill-opacity="0.2" /><rect x="476" y="253.0" width="188" height="1" fill="white" fill-opacity="0.5" /><text x="674" y="253.0" font-size="14" fill="white" font-family="monospace" dominant-baseline="initial">12</text><rect x="476" y="193.0" width="188" height="1" fill="white" fill-opacity="0.2" /><rect x="476" y="133.0" width="188" height="1" fill="white" fill-opacity="0.2" /><rect x="476" y="73.0" width="188" height="1" fill="white" fill-opacity="0.2" /><rect x="476" y="13.0" width="188" height="1" fill="white" fill-opacity="0.5" /><text x="674" y="13.0" font-size="14" fill="white" font-family="monospace" dominant-baseline="initial">13</text><rect x="714" y="14.0" width="188" height="960.0" fill="black" /><rect x="714" y="973.0" width="188" height="1" fill="white" fill-opacity="0.5" /><text x="912" y="973.0" font-size="14" fill="white" font-family="monospace" dominant-baseline="initial">13</text><rect x="714" y="913.0" width="188" height="1" fill="white" fill-opacity="0.2" /><rect x="714" y="853.0" width="188" height="1" fill="white" fill-opacity="0.2" /><rect x="714" y="793.0" width="188" height="1" fill="white" fill-opacity="0.2" /><rect x="714" y="733.0" width="188" height="1" fill="white" fill-opacity="0.5" /><text x="912" y="733.0" font-size="14" fill="white" font-family="monospace" dominant-baseline="initial">14</text><rect x="714" y="673.0" width="188" height="1" fill="white" fill-opacity="0.2" /><rect x="714" y="613.0" width="188" height="1" fill="white" fill-opacity="0.2" /><rect x="714" y="553.0" width="188" height="1" fill="white" fill-opacity="0.2" /><rect x="714" y="493.0" width="188" height="1" fill="white" fill-opacity="0.5" /><text x="912" y="493.0" font-size="14" fill="white" font-family="monospace" dominant-baseline="initial">15</text><rect x="714" y="433.0" width="188" height="1" fill="white" fill-opacity="0.2" /><rect x="714" y="373.0" width="188" height="1" fill="white" fill-opacity="0.2" /><rect x="714" y="313.0" width="188" height="1" fill="white" fill-opacity="0.2" /><rect x="714" y="253.0" width="188" height="1" fill="white" fill-opacity="0.5" /><text x="912" y="253.0" font-size="14" fill="white" font-family="monospace" dominant-baseline="initial">16</text><rect x="714" y="193.0" width="188" height="1" fill="white" fill-opacity="0.2" /><rect x="714" y="133.0" width="188" height="1" fill="white" fill-opacity="0.2" /><rect x="714" y="73.0" width="188" height="1" fill="white" fill-opacity="0.2" /><rect x="714" y="13.0" width="188" height="1" fill="white" fill-opacity="0.5" /><text x="912" y="13.0" font-size="14" fill="white" font-family="monospace" dominant-baseline="initial">17</text><rect x="714" y="493.0" width="188" height="1" fill="aqua" fill-opacity="0.75" /><text x="714" y="489.0" font-size="14" fill="aqua" fill-opacity="0.75" font-family="monospace">Phrase A</text><rect x="952" y="14.0" width="188" height="960.0" fill="black" /><rect x="952" y="973.0" width="188" height="1" fill="white" fill-opacity="0.5" /><text x="1150" y="973.0" font-size="14" fill="white" font-family="monospace" dominant-baseline="initial">17</text><rect x="952" y="913.0" width="188" height="1" fill="white" fill-opacity="0.2" /><rect x="952" y="853.0" width="188" height="1" fill="white" fill-opacity="0.2" /><rect x="952" y="793.0" width="188" height="1" fill="white" fill-opacity="0.2" /><rect x="952" y="733.0" width="188" height="1" fill="white" fill-opacity="0.5" /><text x="1150" y="733.0" font-size="14" fill="white" font-family="monospace" dominant-baseline="initial">18</text><rect x="952" y="673.0" width="188" height="1" fill="white" fill-opacity="0.2" /><rect x="952" y="613.0" width="188" height="1" fill="white" fill-opacity="0.2" /><rect x="952" y="553.0" width="188" height="1" fill="white" fill-opacity="0.2" /><rect x="952" y="493.0" width="188" height="1" fill="white" fill-opacity="0.5" /><text x="1150" y="493.0" font-size="14" fill="white" font-family="monospace" dominant-baseline="initial">19</text><rect x="952" y="433.0" width="188" height="1" fill="white" fill-opacity="0.2" /><rect x="952" y="373.0" width="188" height="1" fill="white" fill-opacity="0.2" /><rect x="952" y="313.0" width="188" height="1" fill="white" fill-opacity="0.2" /><rect x="952" y="253.0" width="188" height="1" fill="white" fill-opacity="0.5" /><text x="1150" y="253.0" font-size="14" fill="white" font-family="monospace" dominant-baseline="initial">20</text><rect x="952" y="193.0" width="188" height="1" fill="white" fill-opacity="0.2" /><rect x="952" y="133.0" width="188" height="1" fill="white" fill-opacity="0.2" /><rect x="952" y="73.0" width="188" height="1" fill="white" fill-opacity="0.2" /><rect x="952" y="13.0" width="188" height="1" fill="white" fill-opacity="0.5" /><text x="1150" y="13.0" font-size="14" fill="white" font-family="monospace" dominant-baseline="initial">21</text><rect x="1190" y="14.0" width="188" height="960.0" fill="black" /><rect x="1190" y="973.0" width="188" height="1" fill="white" fill-opacity="0.5" /><text x="1388" y="973.0" font-size="14" fill="white" font-family="monospace" dominant-baseline="initial">21</text><rect x="1190" y="913.0" width="188" height="1" fill="white" fill-opacity="0.2" /><rect x="1190" y="853.0" width="188" height="1" fill="white" fill-opacity="0.2" /><rect x="1190" y="793.0" width="188" height="1" fill="white" fill-opacity="0.2" /><rect x="1190" y="733.0" width="188" height="1" fill="white" fill-opacity="0.5" /><text x="1388" y="733.0" font-size="14" fill="white" font-family="monospace" dominant-baseline="initial">22</text><rect x="1190" y="673.0" width="188" height="1" fill="white" fill-opacity="0.2" /><rect x="1190" y="613.0" width="188" height="1" fill="white" fill-opacity="0.2" /><rect x="1190" y="553.0" width="188" height="1" fill="white" fill-opacity="0.2" /><rect x="1190" y="493.0" width="188" height="1" fill="white" fill-opacity="0.5" /><text x="1388" y="493.0" font-size="14" fill="white" font-family="monospace" dominant-baseline="initial">23</text><rect x="1190" y="433.0" width="188" height="1" fill="white" fill-opacity="0.2" /><rect x="1190" y="373.0" width="188" height="1" fill="white" fill-opacity="0.2" /><rect x="1190" y="313.0" width="188" height="1" fill="white" fill-opacity="0.2" /><rect x="1190" y="253.0" width="188" height="1" fill="white" fill-opacity="0.5" /><text x="1388" y="253.0" font-size="14" fill="white" font-family="monospace" dominant-baseline="initial">24</text><rect x="1190" y="193.0" width="188" height="1" fill="white" fill-opacity="0.2" /><rect x="1190" y="133.0" width="188" height="1" fill="white" fill-opacity="0.2" /><rect x="1190" y="73.0" width="188" height="1" fill="white" fill-opacity="0.2" /><rect x="1190" y="13.0" width="188" height="1" fill="white" fill-opacity="0.5" /><text x="1388" y="13.0" font-size="14" fill="white" font-family="monospace" dominant-baseline="initial">25</text><rect x="1190" y="253.0" width="188" height="1" fill="aqua" fill-opacity="0.75" /><text x="1190" y="249.0" font-size="14" fill="aqua" fill-opacity="0.75" font-family="monospace">Phrase B</text><rect x="1428" y="14.0" width="188" height="960.0" fill="black" /><rect x="1428" y="973.0" width="188" height="1" fill="white" fill-opacity="0.5" /><text x="1626" y="973.0" font-size="14" fill="white" font-family="monospace" dominant-baseline="initial">25</text><rect x="1428" y="913.0" width="188" height="1" fill="white" fill-opacity="0.2" /><rect x="1428" y="853.0" width="188" height="1" fill="white" fill-opacity="0.2" /><rect x="1428" y="793.0" width="188" height="1" fill="white" fill-opacity="0.2" /><rect x="1428" y="733.0" width="188" height="1" fill="white" fill-opacity="0.5" /><text x="1626" y="733.0" font-size="14" fill="white" font-family="monospace" dominant-baseline="initial">26</text><rect x="1428" y="673.0" width="188" height="1" fill="white" fill-opacity="0.2" /><rect x="1428" y="613.0" width="188" height="1" fill="white" fill-opacity="0.2" /><rect x="1428" y="553.0" width="188" height="1" fill="white" fill-opacity="0.2" /><rect x="1428" y="493.0" width="188" height="1" fill="white" fill-opacity="0.5" /><text x="1626" y="493.0" font-size="14" fill="white" font-family="monospace" dominant-baseline="initial">27</text><rect x="1428" y="433.0" width="188" height="1" fill="white" fill-opacity="0.2" /><rect x="1428" y="373.0" width="188" height="1" fill="white" fill-opacity="0.2" /><rect x="1428" y="313.0" width="188" height="1" fill="white" fill-opacity="0.2" /><rect x="1428" y="253.0" width="188" height="1" fill="white" fill-opacity="0.5" /><text x="1626" y="253.0" font-size="14" fill="white" font-family="monospace" dominant-baseline="initial">28</text><rect x="1428" y="193.0" width="188" height="1" fill="white" fill-opacity="0.2" /><rect x="1428" y="133.0" width="188" height="1" fill="white" fill-opacity="0.2" /><rect x="1428" y="73.0" width="188" height="1" fill="white" fill-opacity="0.2" /><rect x="1428" y="13.0" width="188" height="1" fill="white" fill-opacity="0.5" /><text x="1626" y="13.0" font-size="14" fill="white" font-family="monospace" dominant-baseline="initial">29</text><rect x="1666" y="14.0" width="188" height="960.0" fill="black" /><rect x="1666" y="973.0" width="188" height="1" fill="white" fill-opacity="0.5" /><text x="1864" y="973.0" font-size="14" fill="white" font-family="monospace" dominant-baseline="initial">29</text><rect x="1666" y="913.0" width="188" height="1" fill="white" fill-opacity="0.2" /><rect x="1666" y="853.0" width="188" height="1" fill="white" fill-opacity="0.2" /><rect x="1666" y="793.0" width="188" height="1" fill="white" fill-opacity="0.2" /><rect x="1666" y="733.0" width="188" height="1" fill="white" fill-opacity="0.5" /><text x="1864" y="733.0" font-size="14" fill="white" font-family="monospace" dominant-baseline="initial">30</text><rect x="1666" y="673.0" width="188" height="1" fill="white" fill-opacity="0.2" /><rect x="1666" y="613.0" width="188" height="1" fill="white" fill-opacity="0.2" /><rect x="1666" y="553.0" width="188" height="1" fill="white" fill-opacity="0.2" /><rect x="1666" y="493.0" width="188" height="1" fill="white" fill-opacity="0.5" /><text x="1864" y="493.0" font-size="14" fill="white" font-family="monospace" dominant-baseline="initial">31</text><rect x="1666" y="433.0" width="188" height="1" fill="white" fill-opacity="0.2" /><rect x="1666" y="373.0" width="188" height="1" fill="white" fill-opacity="0.2" /><rect x="1666" y="313.0" width="188" height="1" fill="white" fill-opacity="0.2" /><rect x="1666" y="253.0" width="188" height="1" fill="white" fill-opacity="0.5" /><text x="1864" y="253.0" font-size="14" fill="white" font-family="monospace" dominant-baseline="initial">32</text><rect x="1666" y="193.0" width="188" height="1" fill="white" fill-opacity="0.2" /><rect x="1666" y="133.0" width="188" height="1" fill="white" fill-opacity="0.2" /><rect x="1666" y="73.0" width="188" height="1" fill="white" fill-opacity="0.2" /><rect x="1666" y="13.0" width="188" height="1" fill="white" fill-opacity="0.5" /><text x="1864" y="13.0" font-size="14" fill="white" font-family="monospace" dominant-baseline="initial">33</text><rect x="1904" y="14.0" width="188" height="960.0" fill="black" /><rect x="1904" y="973.0" width="188" height="1" fill="white" fill-opacity="0.5" /><text x="2102" y="973.0" font-size="14" fill="white" font-family="monospace" dominant-baseline="initial">33</text><rect x="1904" y="913.0" width="188" height="1" fill="white" fill-opacity="0.2" /><rect x="1904" y="853.0" width="188" height="1" fill="white" fill-opacity="0.2" /><rect x="1904" y="793.0" width="188" height="1" fill="white" fill-opacity="0.2" /><rect x="1904" y="733.0" width="188" height="1" fill="white" fill-opacity="0.5" /><text x="2102" y="733.0" font-size="14" fill="white" font-family="monospace" dominant-baseline="initial">34</text><rect x="1904" y="673.0" width="188" height="1" fill="white" fill-opacity="0.2" /><rect x="1904" y="613.0" width="188" height="1" fill="white" fill-opacity="0.2" /><rect x="1904" y="553.0" width="188" height="1" fill="white" fill-opacity="0.2" /><rect x="1904" y="493.0" width="188" height="1" fill="white" fill-opacity="0.5" /><text x="2102" y="493.0" font-size="14" fill="white" font-family="monospace" dominant-baseline="initial">35</text><rect x="1904" y="433.0" width="188" height="1" fill="white" fill-opacity="0.2" /><rect x="1904" y="373.0" width="188" height="1" fill="white" fill-opacity="0.2" /><rect x="1904" y="313.0" width="188" height="1" fill="white" fill-opacity="0.2" /><rect x="1904" y="253.0" width="188" height="1" fill="white" fill-opacity="0.5" /><text x="2102" y="253.0" font-size="14" fill="white" font-family="monospace" dominant-baseline="initial">36</text><rect x="1904" y="193.0" width="188" height="1" fill="white" fill-opacity="0.2" /><rect x="1904" y="133.0" width="188" height="1" fill="white" fill-opacity="0.2" /><rect x="1904" y="73.0" width="188" height="1" fill="white" fill-opacity="0.2" /><rect x="1904" y="13.0" width="188" height="1" fill="white" fill-opacity="0.5" /><text x="2102" y="13.0" font-size="14" fill="white" font-family="monospace" dominant-baseline="initial">37</text><rect x="2142" y="14.0" width="188" height="960.0" fill="black" /><rect x="2142" y="973.0" width="188" height="1" fill="white" fill-opacity="0.5" /><text x="2340" y="973.0" font-size="14" fill="white" font-family="monospace" dominant-baseline="initial">37</text><rect x="2142" y="913.0" width="188" height="1" fill="white" fill-opacity="0.2" /><rect x="2142" y="853.0" width="188" height="1" fill="white" fill-opacity="0.2" /><rect x="2142" y="793.0" width="188" height="1" fill="white" fill-opacity="0.2" /><rect x="2142" y="733.0" width="188" height="1" fill="white" fill-opacity="0.5" /><text x="2340" y="733.0" font-size="14" fill="white" font-family="monospace" dominant-baseline="initial">38</text><rect x="2142" y="673.0" width="188" height="1" fill="white" fill-opacity="0.2" /><rect x="2142" y="613.0" width="188" height="1" fill="white" fill-opacity="0.2" /><rect x="2142" y="553.0" width="188" height="1" fill="white" fill-opacity="0.2" /><rect x="2142" y="493.0" width="188" height="1" fill="white" fill-opacity="0.5" /><text x="2340" y="493.0" font-size="14" fill="white" font-family="monospace" dominant-baseline="initial">39</text><rect x="2142" y="433.0" width="188" height="1" fill="white" fill-opacity="0.2" /><rect x="2142" y="373.0" width="188" height="1" fill="white" fill-opacity="0.2" /><rect x="2142" y="313.0" width="188" height="1" fill="white" fill-opacity="0.2" /><rect x="2142" y="253.0" width="188" height="1" fill="white" fill-opacity="0.5" /><text x="2340" y="253.0" font-size="14" fill="white" font-family="monospace" dominant-baseline="initial">40</text><rect x="2142" y="193.0" width="188" height="1" fill="white" fill-opacity="0.2" /><rect x="2142" y="133.0" width="188" height="1" fill="white" fill-opacity="0.2" /><rect x="2142" y="73.0" width="188" height="1" fill="white" fill-opacity="0.2" /><rect x="2142" y="13.0" width="188" height="1" fill="white" fill-opacity="0.5" /><text x="2340" y="13.0" font-size="14" fill="white" font-family="monospace" dominant-baseline="initial">41</text><rect x="2142" y="733.0" width="188" height="1" fill="aqua" fill-opacity="0.75" /><text x="2142" y="729.0" font-size="14" fill="aqua" fill-opacity="0.75" font-family="monospace">Phrase C</text><rect x="2380" y="14.0" width="188" height="960.0" fill="black" /><rect x="2380" y="973.0" width="188" height="1" fill="white" fill-opacity="0.5" /><text x="2578" y="973.0" font-size="14" fill="white" font-family="monospace" dominant-baseline="initial">41</text><rect x="2380" y="913.0" width="188" height="1" fill="white" fill-opacity="0.2" /><rect x="2380" y="853.0" width="188" height="1" fill="white" fill-opacity="0.2" /><rect x="2380" y="793.0" width="188" height="1" fill="white" fill-opacity="0.2" /><rect x="2380" y="733.0" width="188" height="1" fill="white" fill-opacity="0.5" /><text x="2578" y="733.0" font-size="14" fill="white" font-family="monospace" dominant-baseline="initial">42</text><rect x="2380" y="673.0" width="188" height="1" fill="white" fill-opacity="0.2" /><rect x="2380" y="613.0" width="188" height="1" fill="white" fill-opacity="0.2" /><rect x="2380" y="553.0" width="188" height="1" fill="white" fill-opacity="0.2" /><rect x="2380" y="493.0" width="188" height="1" fill="white" fill-opacity="0.5" /><text x="2578" y="493.0" font-size="14" fill="white" font-family="monospace" dominant-baseline="initial">43</text><rect x="2380" y="433.0" width="188" height="1" fill="white" fill-opacity="0.2" /><rect x="2380" y="373.0" width="188" height="1" fill="white" fill-opacity="0.2" /><rect x="2380" y="313.0" width="188" height="1" fill="white" fill-opacity="0.2" /><rect x="2380" y="253.0" width="188" height="1" fill="white" fill-opacity="0.5" /><text x="2578" y="253.0" font-size="14" fill="white" font-family="monospace" dominant-baseline="initial">44</text><rect x="2380" y="193.0" width="188" height="1" fill="white" fill-opacity="0.2" /><rect x="2380" y="133.0" width="188" height="1" fill="white" fill-opacity="0.2" /><rect x="2380" y="73.0" width="188" height="1" fill="white" fill-opacity="0.2" /><rect x="2380" y="13.0" width="188" height="1" fill="white" fill-opacity="0.5" /><text x="2578" y="13.0" font-size="14" fill="white" font-family="monospace" dominant-baseline="initial">45</text><rect x="2618" y="14.0" width="188" height="960.0" fill="black" /><rect x="2618" y="973.0" width="188" height="1" fill="white" fill-opacity="0.5" /><text x="2816" y="973.0" font-size="14" fill="white" font-family="monospace" dominant-baseline="initial">45</text><rect x="2618" y="913.0" width="188" height="1" fill="white" fill-opacity="0.2" /><rect x="2618" y="853.0" width="188" height="1" fill="white" fill-opacity="0.2" /><rect x="2618" y="793.0" width="188" height="1" fill="white" fill-opacity="0.2" /><rect x="2618" y="733.0" width="188" height="1" fill="white" fill-opacity="0.5" /><text x="2816" y="733.0" font-size="14" fill="white" font-family="monospace" dominant-baseline="initial">46</text><rect x="2618" y="673.0" width="188" height="1" fill="white" fill-opacity="0.2" /><rect x="2618" y="613.0" width="188" height="1" fill="white" fill-opacity="0.2" /><rect x="2618" y="553.0" width="188" height="1" fill="white" fill-opacity="0.2" /><rect x="2618" y="493.0" width="188" height="1" fill="white" fill-opacity="0.5" /><text x="2816" y="493.0" font-size="14" fill="white" font-family="monospace" dominant-baseline="initial">47</text><rect x="2618" y="433.0" width="188" height="1" fill="white" fill-opacity="0.2" /><rect x="2618" y="373.0" width="188" height="1" fill="white" fill-opacity="0.2" /><rect x="2618" y="313.0" width="188" height="1" fill="white" fill-opacity="0.2" /><rect x="2618" y="253.0" width="188" height="1" fill="white" fill-opacity="0.5" /><text x="2816" y="253.0" font-size="14" fill="white" font-family="monospace" dominant-baseline="initial">48</text><rect x="2618" y="193.0" width="188" height="1" fill="white" fill-opacity="0.2" /><rect x="2618" y="133.0" width="188" height="1" fill="white" fill-opacity="0.2" /><rect x="2618" y="73.0" width="188" height="1" fill="white" fill-opacity="0.2" /><rect x="2618" y="13.0" width="188" height="1" fill="white" fill-opacity="0.5" /><text x="2816" y="13.0" font-size="14" fill="white" font-family="monospace" dominant-baseline="initial">49</text><rect x="2856" y="14.0" width="188" height="960.0" fill="black" /><rect x="2856" y="973.0" width="188" height="1" fill="white" fill-opacity="0.5" /><text x="3054" y="973.0" font-size="14" fill="white" font-family="monospace" dominant-baseline="initial">49</text><rect x="2856" y="913.0" width="188" height="1" fill="white" fill-opacity="0.2" /><rect x="2856" y="853.0" width="188" height="1" fill="white" fill-opacity="0.2" /><rect x="2856" y="793.0" width="188" height="1" fill="white" fill-opacity="0.2" /><rect x="2856" y="733.0" width="188" height="1" fill="white" fill-opacity="0.5" /><text x="3054" y="733.0" font-size="14" fill="white" font-family="monospace" dominant-baseline="initial">50</text><rect x="2856" y="673.0" width="188" height="1" fill="white" fill-opacity="0.2" /><rect x="2856" y="613.0" width="188" height="1" fill="white" fill-opacity="0.2" /><rect x="2856" y="553.0" width="188" height="1" fill="white" fill-opacity="0.2" /><rect x="2856" y="493.0" width="188" height="1" fill="white" fill-opacity="0.5" /><text x="3054" y="493.0" font-size="14" fill="white" font-family="monospace" dominant-baseline="initial">51</text><rect x="2856" y="433.0" width="188" height="1" fill="white" fill-opacity="0.2" /><rect x="2856" y="373.0" width="188" height="1" fill="white" fill-opacity="0.2" /><rect x="2856" y="313.0" width="188" height="1" fill="white" fill-opacity="0.2" /><rect x="2856" y="253.0" width="188" height="1" fill="white" fill-opacity="0.5" /><text x="3054" y="253.0" font-size="14" fill="white" font-family="monospace" dominant-baseline="initial">52</text><rect x="2856" y="193.0" width="188" height="1" fill="white" fill-opacity="0.2" /><rect x="2856" y="133.0" width="188" height="1" fill="white" fill-opacity="0.2" /><rect x="2856" y="73.0" width="188" height="1" fill="white" fill-opacity="0.2" /><rect x="2856" y="13.0" width="188" height="1" fill="white" fill-opacity="0.5" /><text x="3054" y="13.0" font-size="14" fill="white" font-family="monospace" dominant-baseline="initial">53</text><rect x="2856" y="253.0" width="188" height="1" fill="aqua" fill-opacity="0.75" /><text x="2856" y="249.0" font-size="14" fill="aqua" fill-opacity="0.75" font-family="monospace">Phrase D</text><rect x="3094" y="14.0" width="188" height="960.0" fill="black" /><rect x="3094" y="973.0" width="188" height="1" fill="white" fill-opacity="0.5" /><text x="3292" y="973.0" font-size="14" fill="white" font-family="monospace" dominant-baseline="initial">53</text><rect x="3094" y="913.0" width="188" height="1" fill="white" fill-opacity="0.2" /><rect x="3094" y="853.0" width="188" height="1" fill="white" fill-opacity="0.2" /><rect x="3094" y="793.0" width="188" height="1" fill="white" fill-opacity="0.2" /><rect x="3094" y="733.0" width="188" height="1" fill="white" fill-opacity="0.5" /><text x="3292" y="733.0" font-size="14" fill="white" font-family="monospace" dominant-baseline="initial">54</text><rect x="3094" y="673.0" width="188" height="1" fill="white" fill-opacity="0.2" /><rect x="3094" y="613.0" width="188" height="1" fill="white" fill-opacity="0.2" /><rect x="3094" y="553.0" width="188" height="1" fill="white" fill-opacity="0.2" /><rect x="3094" y="493.0" width="188" height="1" fill="white" fill-opacity="0.5" /><text x="3292" y="493.0" font-size="14" fill="white" font-family="monospace" dominant-baseline="initial">55</text><rect x="3094" y="433.0" width="188" height="1" fill="white" fill-opacity="0.2" /><rect x="3094" y="373.0" width="188" height="1" fill="white" fill-opacity="0.2" /><rect x="3094" y="313.0" width="188" height="1" fill="white" fill-opacity="0.2" /><rect x="3094" y="253.0" width="188" height="1" fill="white" fill-opacity="0.5" /><text x="3292" y="253.0" font-size="14" fill="white" font-family="monospace" dominant-baseline="initial">56</text><rect x="3094" y="193.0" width="188" height="1" fill="white" fill-opacity="0.2" /><rect x="3094" y="133.0" width="188" height="1" fill="white" fill-opacity="0.2" /><rect x="3094" y="73.0" width="188" height="1" fill="white" fill-opacity="0.2" /><rect x="3094" y="13.0" width="188" height="1" fill="white" fill-opacity="0.5" /><text x="3292" y="13.0" font-size="14" fill="white" font-family="monospace" dominant-baseline="initial">57</text><rect x="3332" y="14.0" width="188" height="960.0" fill="black" /><rect x="3332" y="973.0" width="188" height="1" fill="white" fill-opacity="0.5" /><text x="3530" y="973.0" font-size="14" fill="white" font-family="monospace" dominant-baseline="initial">57</text><rect x="3332" y="913.0" width="188" height="1" fill="white" fill-opacity="0.2" /><rect x="3332" y="853.0" width="188" height="1" fill="white" fill-opacity="0.2" /><rect x="3332" y="793.0" width="188" height="1" fill="white" fill-opacity="0.2" /><rect x="3332" y="733.0" width="188" height="1" fill="white" fill-opacity="0.5" /><text x="3530" y="733.0" font-size="14" fill="white" font-family="monospace" dominant-baseline="initial">58</text><rect x="3332" y="673.0" width="188" height="1" fill="white" fill-opacity="0.2" /><rect x="3332" y="613.0" width="188" height="1" fill="white" fill-opacity="0.2" /><rect x="3332" y="553.0" width="188" height="1" fill="white" fill-opacity="0.2" /><rect x="3332" y="493.0" width="188" height="1" fill="white" fill-opacity="0.5" /><text x="3530" y="493.0" font-size="14" fill="white" font-family="monospace" dominant-baseline="initial">59</text><rect x="3332" y="433.0" width="188" height="1" fill="white" fill-opacity="0.2" /><rect x="3332" y="373.0" width="188" height="1" fill="white" fill-opacity="0.2" /><rect x="3332" y="313.0" width="188" height="1" fill="white" fill-opacity="0.2" /><rect x="3332" y="253.0" width="188" height="1" fill="white" fill-opacity="0.5" /><text x="3530" y="253.0" font-size="14" fill="white" font-family="monospace" dominant-baseline="initial">60</text><rect x="3332" y="193.0" width="188" height="1" fill="white" fill-opacity="0.2" /><rect x="3332" y="133.0" width="188" height="1" fill="white" fill-opacity="0.2" /><rect x="3332" y="73.0" width="188" height="1" fill="white" fill-opacity="0.2" /><rect x="3332" y="13.0" width="188" height="1" fill="white" fill-opacity="0.5" /><text x="3530" y="13.0" font-size="14" fill="white" font-family="monospace" dominant-baseline="initial">61</text><rect x="3332" y="253.0" width="188" height="1" fill="aqua" fill-opacity="0.75" /><text x="3332" y="249.0" font-size="14" fill="aqua" fill-opacity="0.75" font-family="monospace">Special</text><rect x="3570" y="14.0" width="188" height="960.0" fill="black" /><rect x="3570" y="973.0" width="188" height="1" fill="white" fill-opacity="0.5" /><text x="3768" y="973.0" font-size="14" fill="white" font-family="monospace" dominant-baseline="initial">61</text><rect x="3570" y="913.0" width="188" height="1" fill="white" fill-opacity="0.2" /><rect x="3570" y="853.0" width="188" height="1" fill="white" fill-opacity="0.2" /><rect x="3570" y="793.0" width="188" height="1" fill="white" fill-opacity="0.2" /><rect x="3570" y="733.0" width="188" height="1" fill="white" fill-opacity="0.5" /><text x="3768" y="733.0" font-size="14" fill="white" font-family="monospace" dominant-baseline="initial">62</text><rect x="3570" y="673.0" width="188" height="1" fill="white" fill-opacity="0.2" /><rect x="3570" y="613.0" width="188" height="1" fill="white" fill-opacity="0.2" /><rect x="3570" y="553.0" width="188" height="1" fill="white" fill-opacity="0.2" /><rect x="3570" y="493.0" width="188" height="1" fill="white" fill-opacity="0.5" /><text x="3768" y="493.0" font-size="14" fill="white" font-family="monospace" dominant-baseline="initial">63</text><rect x="3570" y="433.0" width="188" height="1" fill="white" fill-opacity="0.2" /><rect x="3570" y="373.0" width="188" height="1" fill="white" fill-opacity="0.2" /><rect x="3570" y="313.0" width="188" height="1" fill="white" fill-opacity="0.2" /><rect x="3570" y="253.0" width="188" height="1" fill="white" fill-opacity="0.5" /><text x="3768" y="253.0" font-size="14" fill="white" font-family="monospace" dominant-baseline="initial">64</text><rect x="3570" y="193.0" width="188" height="1" fill="white" fill-opacity="0.2" /><rect x="3570" y="133.0" width="188" height="1" fill="white" fill-opacity="0.2" /><rect x="3570" y="73.0" width="188" height="1" fill="white" fill-opacity="0.2" /><rect x="3570" y="13.0" width="188" height="1" fill="white" fill-opacity="0.5" /><text x="3768" y="13.0" font-size="14" fill="white" font-family="monospace" dominant-baseline="initial">65</text><rect x="3808" y="14.0" width="188" height="960.0" fill="black" /><rect x="3808" y="973.0" width="188" height="1" fill="white" fill-opacity="0.5" /><text x="4006" y="973.0" font-size="14" fill="white" font-family="monospace" dominant-baseline="initial">65</text><rect x="3808" y="913.0" width="188" height="1" fill="white" fill-opacity="0.2" /><rect x="3808" y="853.0" width="188" height="1" fill="white" fill-opacity="0.2" /><rect x="3808" y="793.0" width="188" height="1" fill="white" fill-opacity="0.2" /><rect x="3808" y="733.0" width="188" height="1" fill="white" fill-opacity="0.5" /><text x="4006" y="733.0" font-size="14" fill="white" font-family="monospace" dominant-baseline="initial">66</text><rect x="3808" y="673.0" width="188" height="1" fill="white" fill-opacity="0.2" /><rect x="3808" y="613.0" width="188" height="1" fill="white" fill-opacity="0.2" /><rect x="3808" y="553.0" width="188" height="1" fill="white" fill-opacity="0.2" /><rect x="3808" y="493.0" width="188" height="1" fill="white" fill-opacity="0.5" /><text x="4006" y="493.0" font-size="14" fill="white" font-family="monospace" dominant-baseline="initial">67</text><rect x="3808" y="433.0" width="188" height="1" fill="white" fill-opacity="0.2" /><rect x="3808" y="373.0" width="188" height="1" fill="white" fill-opacity="0.2" /><rect x="3808" y="313.0" width="188" height="1" fill="white" fill-opacity="0.2" /><rect x="3808" y="253.0" width="188" height="1" fill="white" fill-opacity="0.5" /><text x="4006" y="253.0" font-size="14" fill="white" font-family="monospace" dominant-baseline="initial">68</text><rect x="3808" y="193.0" width="188" height="1" fill="white" fill-opacity="0.2" /><rect x="3808" y="133.0" width="188" height="1" fill="white" fill-opacity="0.2" /><rect x="3808" y="73.0" width="188" height="1" fill="white" fill-opacity="0.2" /><rect x="3808" y="13.0" width="188" height="1" fill="white" fill-opacity="0.5" /><text x="4006" y="13.0" font-size="14" fill="white" font-family="monospace" dominant-baseline="initial">69</text><rect x="3808" y="253.0" width="188" height="1" fill="aqua" fill-opacity="0.75" /><text x="3808" y="249.0" font-size="14" fill="aqua" fill-opacity="0.75" font-family="monospace">Phrase E</text><rect x="4046" y="14.0" width="188" height="960.0" fill="black" /><rect x="4046" y="973.0" width="188" height="1" fill="white" fill-opacity="0.5" /><text x="4244" y="973.0" font-size="14" fill="white" font-family="monospace" dominant-baseline="initial">69</text><rect x="4046" y="913.0" width="188" height="1" fill="white" fill-opacity="0.2" /><rect x="4046" y="853.0" width="188" height="1" fill="white" fill-opacity="0.2" /><rect x="4046" y="793.0" width="188" height="1" fill="white" fill-opacity="0.2" /><rect x="4046" y="733.0" width="188" height="1" fill="white" fill-opacity="0.5" /><text x="4244" y="733.0" font-size="14" fill="white" font-family="monospace" dominant-baseline="initial">70</text><rect x="4046" y="673.0" width="188" height="1" fill="white" fill-opacity="0.2" /><rect x="4046" y="613.0" width="188" height="1" fill="white" fill-opacity="0.2" /><rect x="4046" y="553.0" width="188" height="1" fill="white" fill-opacity="0.2" /><rect x="4046" y="493.0" width="188" height="1" fill="white" fill-opacity="0.5" /><text x="4244" y="493.0" font-size="14" fill="white" font-family="monospace" dominant-baseline="initial">71</text><rect x="4046" y="433.0" width="188" height="1" fill="white" fill-opacity="0.2" /><rect x="4046" y="373.0" width="188" height="1" fill="white" fill-opacity="0.2" /><rect x="4046" y="313.0" width="188" height="1" fill="white" fill-opacity="0.2" /><rect x="4046" y="253.0" width="188" height="1" fill="white" fill-opacity="0.5" /><text x="4244" y="253.0" font-size="14" fill="white" font-family="monospace" dominant-baseline="initial">72</text><rect x="4046" y="193.0" width="188" height="1" fill="white" fill-opacity="0.2" /><rect x="4046" y="133.0" width="188" height="1" fill="white" fill-opacity="0.2" /><rect x="4046" y="73.0" width="188" height="1" fill="white" fill-opacity="0.2" /><rect x="4046" y="13.0" width="188" height="1" fill="white" fill-opacity="0.5" /><text x="4244" y="13.0" font-size="14" fill="white" font-family="monospace" dominant-baseline="initial">73</text><rect x="4284" y="14.0" width="188" height="960.0" fill="black" /><rect x="4284" y="973.0" width="188" height="1" fill="white" fill-opacity="0.5" /><text x="4482" y="973.0" font-size="14" fill="white" font-family="monospace" dominant-baseline="initial">73</text><rect x="4284" y="913.0" width="188" height="1" fill="white" fill-opacity="0.2" /><rect x="4284" y="853.0" width="188" height="1" fill="white" fill-opacity="0.2" /><rect x="4284" y="793.0" width="188" height="1" fill="white" fill-opacity="0.2" /><rect x="4284" y="733.0" width="188" height="1" fill="white" fill-opacity="0.5" /><text x="4482" y="733.0" font-size="14" fill="white" font-family="monospace" dominant-baseline="initial">74</text><rect x="4284" y="673.0" width="188" height="1" fill="white" fill-opacity="0.2" /><rect x="4284" y="613.0" width="188" height="1" fill="white" fill-opacity="0.2" /><rect x="4284" y="553.0" width="188" height="1" fill="white" fill-opacity="0.2" /><rect x="4284" y="493.0" width="188" height="1" fill="white" fill-opacity="0.5" /><text x="4482" y="493.0" font-size="14" fill="white" font-family="monospace" dominant-baseline="initial">75</text><rect x="4284" y="433.0" width="188" height="1" fill="white" fill-opacity="0.2" /><rect x="4284" y="373.0" width="188" height="1" fill="white" fill-opacity="0.2" /><rect x="4284" y="313.0" width="188" height="1" fill="white" fill-opacity="0.2" /><rect x="4284" y="253.0" width="188" height="1" fill="white" fill-opacity="0.5" /><text x="4482" y="253.0" font-size="14" fill="white" font-family="monospace" dominant-baseline="initial">76</text><rect x="4284" y="193.0" width="188" height="1" fill="white" fill-opacity="0.2" /><rect x="4284" y="133.0" width="188" height="1" fill="white" fill-opacity="0.2" /><rect x="4284" y="73.0" width="188" height="1" fill="white" fill-opacity="0.2" /><rect x="4284" y="13.0" width="188" height="1" fill="white" fill-opacity="0.5" /><text x="4482" y="13.0" font-size="14" fill="white" font-family="monospace" dominant-baseline="initial">77</text><rect x="4522" y="284.0" width="188" height="690.0" fill="black" /><rect x="4522" y="973.0" width="188" height="1" fill="white" fill-opacity="0.5" /><text x="4720" y="973.0" font-size="14" fill="white" font-family="monospace" dominant-baseline="initial">77</text></svg>