<?xml version="1.0" encoding="UTF-8"?><svg xmlns="http://www.w3.org/2000/svg" xmlns:xlink="http://www.w3.org/1999/xlink"     width="4522" height="1221.0" viewBox="0 0 4522 1221.0"><defs></defs><rect x="0" y="248.0" width="188" height="973.0" fill="black" /><rect x="0" y="1220.0" width="188" height="1" fill="white" fill-opacity="0.5" /><text x="198" y="1220.0" font-size="14" fill="white" font-family="monospace" dominant-baseline="initial">1</text><rect x="0" y="1159.0" width="188" height="1" fill="white" fill-opacity="0.2" /><rect x="0" y="1098.5" width="188" height="1" fill="white" fill-opacity="0.2" /><rect x="0" y="1037.5" width="188" height="1" fill="white" fill-opacity="0.2" /><rect x="0" y="977.0" width="188" height="1" fill="white" fill-opacity="0.5" /><text x="198" y="977.0" font-size="14" fill="white" font-family="monospace" dominant-baseline="initial">2</text><rect x="0" y="916.0" width="188" height="1" fill="white" fill-opacity="0.2" /><rect x="0" y="855.0" width="188" height="1" fill="white" fill-opacity="0.2" /><rect x="0" y="794.5" width="188" height="1" fill="white" fill-opacity="0.2" /><rect x="0" y="733.5" width="188" height="1" fill="white" fill-opacity="0.5" /><text x="198" y="733.5" font-size="14" fill="white" font-family="monospace" dominant-baseline="initial">3</text><rect x="0" y="672.5" width="188" height="1" fill="white" fill-opacity="0.2" /><rect x="0" y="612.0" width="188" height="1" fill="white" fill-opacity="0.2" /><rect x="0" y="551.0" width="188" height="1" fill="white" fill-opacity="0.2" /><rect x="0" y="490.5" width="188" height="1" fill="white" fill-opacity="0.5" /><text x="198" y="490.5" font-size="14" fill="white" font-family="monospace" dominant-baseline="initial">4</text><rect x="0" y="429.5" width="188" height="1" fill="white" fill-opacity="0.2" /><rect x="0" y="368.5" width="188" height="1" fill="white" fill-opacity="0.2" /><rect x="0" y="308.0" width="188" height="1" fill="white" fill-opacity="0.2" /><rect x="0" y="247.0" width="188" height="1" fill="white" fill-opacity="0.5" /><text x="198" y="247.0" font-size="14" fill="white" font-family="monospace" dominant-baseline="initial">5</text><rect x="0" y="1220.0" width="188" height="1" fill="aqua" fill-opacity="0.75" /><text x="0" y="1216.0" font-size="14" fill="aqua" fill-opacity="0.75" font-family="monospace">Intro</text><rect x="0" y="1220.0" width="188" height="1" fill="lime" fill-opacity="0.75" /><text x="198" y="1207.0" font-size="14" fill="lime" font-family="monospace" dominant-baseline="initial">164.0</text><rect x="0" y="1220.0" width="188" height="1" fill="lime" fill-opacity="0.75" /><text x="198" y="1207.0" font-size="14" fill="lime" font-family="monospace" dominant-baseline="initial">148</text><rect x="238" y="253.0" width="188" height="968.0" fill="black" /><rect x="238" y="1220.0" width="188" height="1" fill="white" fill-opacity="0.5" /><text x="436" y="1220.0" font-size="14" fill="white" font-family="monospace" dominant-baseline="initial">5</text><rect x="238" y="1159.0" width="188" height="1" fill="white" fill-opacity="0.2" /><rect x="238" y="1098.5" width="188" height="1" fill="white" fill-opacity="0.2" /><rect x="238" y="1037.5" width="188" height="1" fill="white" fill-opacity="0.2" /><rect x="238" y="977.0" width="188" height="1" fill="white" fill-opacity="0.5" /><text x="436" y="977.0" font-size="14" fill="white" font-family="monospace" dominant-baseline="initial">6</text><rect x="238" y="916.0" width="188" height="1" fill="white" fill-opacity="0.2" /><rect x="238" y="855.0" width="188" height="1" fill="white" fill-opacity="0.2" /><rect x="238" y="794.5" width="188" height="1" fill="white" fill-opacity="0.2" /><rect x="238" y="733.5" width="188" height="1" fill="white" fill-opacity="0.5" /><text x="436" y="733.5" font-size="14" fill="white" font-family="monospace" dominant-baseline="initial">7</text><rect x="238" y="672.5" width="188" height="1" fill="white" fill-opacity="0.2" /><rect x="238" y="612.0" width="188" height="1" fill="white" fill-opacity="0.2" /><rect x="238" y="551.0" width="188" height="1" fill="white" fill-opacity="0.2" /><rect x="238" y="490.5" width="188" height="1" fill="white" fill-opacity="0.5" /><text x="436" y="490.5" font-size="14" fill="white" font-family="monospace" dominant-baseline="initial">8</text><rect x="238" y="429.5" width="188" height="1" fill="white" fill-opacity="0.2" /><rect x="238" y="368.5" width="188" height="1" fill="white" fill-opacity="0.2" /><rect x="238" y="310.0" width="188" height="1" fill="white" fill-opacity="0.2" /><rect x="238" y="252.0" width="188" height="1" fill="white" fill-opacity="0.5" /><text x="436" y="252.0" font-size="14" fill="white" font-family="monospace" dominant-baseline="initial">9</text><rect x="238" y="368.5" width="188" height="1" fill="lime" fill-opacity="0.75" /><text x="436" y="369.5" font-size="14" fill="lime" font-family="monospace" dominant-baseline="initial">154</text><rect x="476" y="342.5" width="188" height="878.5" fill="black" /><rect x="476" y="1220.0" width="188" height="1" fill="white" fill-opacity="0.5" /><text x="674" y="1220.0" font-size="14" fill="white" font-family="monospace" dominant-baseline="initial">9</text><rect x="476" y="1165.0" width="188" height="1" fill="white" fill-opacity="0.2" /><rect x="476" y="1110.0" width="188" height="1" fill="white" fill-opacity="0.2" /><rect x="476" y="1055.0" width="188" height="1" fill="white" fill-opacity="0.2" /><rect x="476" y="1000.5" width="188" height="1" fill="white" fill-opacity="0.5" /><text x="674" y="1000.5" font-size="14" fill="white" font-family="monospace" dominant-baseline="initial">10</text><rect x="476" y="945.5" width="188" height="1" fill="white" fill-opacity="0.2" /><rect x="476" y="890.5" width="188" height="1" fill="white" fill-opacity="0.2" /><rect x="476" y="835.5" width="188" height="1" fill="white" fill-opacity="0.2" /><rect x="476" y="781.0" width="188" height="1" fill="white" fill-opacity="0.5" /><text x="674" y="781.0" font-size="14" fill="white" font-family="monospace" dominant-baseline="initial">11</text><rect x="476" y="726.0" width="188" height="1" fill="white" fill-opacity="0.2" /><rect x="476" y="671.0" width="188" height="1" fill="white" fill-opacity="0.2" /><rect x="476" y="616.0" width="188" height="1" fill="white" fill-opacity="0.2" /><rect x="476" y="561.5" width="188" height="1" fill="white" fill-opacity="0.5" /><text x="674" y="561.5" font-size="14" fill="white" font-family="monospace" dominant-baseline="initial">12</text><rect x="476" y="506.5" width="188" height="1" fill="white" fill-opacity="0.2" /><rect x="476" y="451.5" width="188" height="1" fill="white" fill-opacity="0.2" /><rect x="476" y="396.5" width="188" height="1" fill="white" fill-opacity="0.2" /><rect x="476" y="341.5" width="188" height="1" fill="white" fill-opacity="0.5" /><text x="674" y="341.5" font-size="14" fill="white" font-family="monospace" dominant-baseline="initial">13</text><rect x="476" y="1000.25" width="188" height="1" fill="aqua" fill-opacity="0.75" /><text x="476" y="996.25" font-size="14" fill="aqua" fill-opacity="0.75" font-family="monospace">Phrase A</text><rect x="476" y="1220.0" width="188" height="1" fill="lime" fill-opacity="0.75" /><text x="674" y="1207.0" font-size="14" fill="lime" font-family="monospace" dominant-baseline="initial">164.0</text><rect x="714" y="343.0" width="188" height="878.0" fill="black" /><rect x="714" y="1220.0" width="188" height="1" fill="white" fill-opacity="0.5" /><text x="912" y="1220.0" font-size="14" fill="white" font-family="monospace" dominant-baseline="initial">13</text><rect x="714" y="1165.5" width="188" height="1" fill="white" fill-opacity="0.2" /><rect x="714" y="1110.5" width="188" height="1" fill="white" fill-opacity="0.2" /><rect x="714" y="1055.5" width="188" height="1" fill="white" fill-opacity="0.2" /><rect x="714" y="1000.5" width="188" height="1" fill="white" fill-opacity="0.5" /><text x="912" y="1000.5" font-size="14" fill="white" font-family="monospace" dominant-baseline="initial">14</text><rect x="714" y="946.0" width="188" height="1" fill="white" fill-opacity="0.2" /><rect x="714" y="891.0" width="188" height="1" fill="white" fill-opacity="0.2" /><rect x="714" y="836.0" width="188" height="1" fill="white" fill-opacity="0.2" /><rect x="714" y="781.0" width="188" height="1" fill="white" fill-opacity="0.5" /><text x="912" y="781.0" font-size="14" fill="white" font-family="monospace" dominant-baseline="initial">15</text><rect x="714" y="726.5" width="188" height="1" fill="white" fill-opacity="0.2" /><rect x="714" y="671.5" width="188" height="1" fill="white" fill-opacity="0.2" /><rect x="714" y="616.5" width="188" height="1" fill="white" fill-opacity="0.2" /><rect x="714" y="561.5" width="188" height="1" fill="white" fill-opacity="0.5" /><text x="912" y="561.5" font-size="14" fill="white" font-family="monospace" dominant-baseline="initial">16</text><rect x="714" y="507.0" width="188" height="1" fill="white" fill-opacity="0.2" /><rect x="714" y="452.0" width="188" height="1" fill="white" fill-opacity="0.2" /><rect x="714" y="397.0" width="188" height="1" fill="white" fill-opacity="0.2" /><rect x="714" y="342.0" width="188" height="1" fill="white" fill-opacity="0.5" /><text x="912" y="342.0" font-size="14" fill="white" font-family="monospace" dominant-baseline="initial">17</text><rect x="952" y="508.0" width="188" height="713.0" fill="black" /><rect x="952" y="1220.0" width="188" height="1" fill="white" fill-opacity="0.5" /><text x="1150" y="1220.0" font-size="14" fill="white" font-family="monospace" dominant-baseline="initial">17</text><rect x="952" y="1165.5" width="188" height="1" fill="white" fill-opacity="0.2" /><rect x="952" y="1110.5" width="188" height="1" fill="white" fill-opacity="0.2" /><rect x="952" y="1055.5" width="188" height="1" fill="white" fill-opacity="0.2" /><rect x="952" y="1000.5" width="188" height="1" fill="white" fill-opacity="0.5" /><text x="1150" y="1000.5" font-size="14" fill="white" font-family="monospace" dominant-baseline="initial">18</text><rect x="952" y="946.0" width="188" height="1" fill="white" fill-opacity="0.2" /><rect x="952" y="891.0" width="188" height="1" fill="white" fill-opacity="0.2" /><rect x="952" y="836.0" width="188" height="1" fill="white" fill-opacity="0.5" /><text x="1150" y="836.0" font-size="14" fill="white" font-family="monospace" dominant-baseline="initial">19</text><rect x="952" y="781.0" width="188" height="1" fill="white" fill-opacity="0.2" /><rect x="952" y="726.5" width="188" height="1" fill="white" fill-opacity="0.2" /><rect x="952" y="671.5" width="188" height="1" fill="white" fill-opacity="0.5" /><text x="1150" y="671.5" font-size="14" fill="white" font-family="monospace" dominant-baseline="initial">20</text><rect x="952" y="616.5" width="188" height="1" fill="white" fill-opacity="0.2" /><rect x="952" y="561.5" width="188" height="1" fill="white" fill-opacity="0.2" /><rect x="952" y="507.0" width="188" height="1" fill="white" fill-opacity="0.5" /><text x="1150" y="507.0" font-size="14" fill="white" font-family="monospace" dominant-baseline="initial">21</text><rect x="1190" y="507.5" width="188" height="713.5" fill="black" /><rect x="1190" y="1220.0" width="188" height="1" fill="white" fill-opacity="0.5" /><text x="1388" y="1220.0" font-size="14" fill="white" font-family="monospace" dominant-baseline="initial">21</text><rect x="1190" y="1165.0" width="188" height="1" fill="white" fill-opacity="0.2" /><rect x="1190" y="1110.0" width="188" height="1" fill="white" fill-opacity="0.2" /><rect x="1190" y="1055.0" width="188" height="1" fill="white" fill-opacity="0.5" /><text x="1388" y="1055.0" font-size="14" fill="white" font-family="monospace" dominant-baseline="initial">22</text><rect x="1190" y="1000.5" width="188" height="1" fill="white" fill-opacity="0.2" /><rect x="1190" y="945.5" width="188" height="1" fill="white" fill-opacity="0.5" /><text x="1388" y="945.5" font-size="14" fill="white" font-family="monospace" dominant-baseline="initial">23</text><rect x="1190" y="890.5" width="188" height="1" fill="white" fill-opacity="0.2" /><rect x="1190" y="835.5" width="188" height="1" fill="white" fill-opacity="0.2" /><rect x="1190" y="781.0" width="188" height="1" fill="white" fill-opacity="0.2" /><rect x="1190" y="726.0" width="188" height="1" fill="white" fill-opacity="0.5" /><text x="1388" y="726.0" font-size="14" fill="white" font-family="monospace" dominant-baseline="initial">24</text><rect x="1190" y="671.0" width="188" height="1" fill="white" fill-opacity="0.2" /><rect x="1190" y="616.0" width="188" height="1" fill="white" fill-opacity="0.2" /><rect x="1190" y="561.0" width="188" height="1" fill="white" fill-opacity="0.2" /><rect x="1190" y="506.5" width="188" height="1" fill="white" fill-opacity="0.5" /><text x="1388" y="506.5" font-size="14" fill="white" font-family="monospace" dominant-baseline="initial">25</text><rect x="1190" y="945.4000000000005" width="188" height="1" fill="aqua" fill-opacity="0.75" /><text x="1190" y="941.4000000000005" font-size="14" fill="aqua" fill-opacity="0.75" font-family="monospace">Phrase B</text><rect x="1428" y="343.0" width="188" height="878.0" fill="black" /><rect x="1428" y="1220.0" width="188" height="1" fill="white" fill-opacity="0.5" /><text x="1626" y="1220.0" font-size="14" fill="white" font-family="monospace" dominant-baseline="initial">25</text><rect x="1428" y="1165.0" width="188" height="1" fill="white" fill-opacity="0.2" /><rect x="1428" y="1110.0" width="188" height="1" fill="white" fill-opacity="0.2" /><rect x="1428" y="1055.0" width="188" height="1" fill="white" fill-opacity="0.2" /><rect x="1428" y="1000.5" width="188" height="1" fill="white" fill-opacity="0.5" /><text x="1626" y="1000.5" font-size="14" fill="white" font-family="monospace" dominant-baseline="initial">26</text><rect x="1428" y="945.5" width="188" height="1" fill="white" fill-opacity="0.2" /><rect x="1428" y="890.5" width="188" height="1" fill="white" fill-opacity="0.2" /><rect x="1428" y="835.5" width="188" height="1" fill="white" fill-opacity="0.2" /><rect x="1428" y="781.0" width="188" height="1" fill="white" fill-opacity="0.5" /><text x="1626" y="781.0" font-size="14" fill="white" font-family="monospace" dominant-baseline="initial">27</text><rect x="1428" y="726.0" width="188" height="1" fill="white" fill-opacity="0.2" /><rect x="1428" y="671.0" width="188" height="1" fill="white" fill-opacity="0.2" /><rect x="1428" y="616.0" width="188" height="1" fill="white" fill-opacity="0.2" /><rect x="1428" y="561.5" width="188" height="1" fill="white" fill-opacity="0.5" /><text x="1626" y="561.5" font-size="14" fill="white" font-family="monospace" dominant-baseline="initial">28</text><rect x="1428" y="506.5" width="188" height="1" fill="white" fill-opacity="0.2" /><rect x="1428" y="451.5" width="188" height="1" fill="white" fill-opacity="0.2" /><rect x="1428" y="396.5" width="188" height="1" fill="white" fill-opacity="0.2" /><rect x="1428" y="342.0" width="188" height="1" fill="white" fill-opacity="0.5" /><text x="1626" y="342.0" font-size="14" fill="white" font-family="monospace" dominant-baseline="initial">29</text><rect x="1666" y="343.0" width="188" height="878.0" fill="black" /><rect x="1666" y="1220.0" width="188" height="1" fill="white" fill-opacity="0.5" /><text x="1864" y="1220.0" font-size="14" fill="white" font-family="monospace" dominant-baseline="initial">29</text><rect x="1666" y="1165.0" width="188" height="1" fill="white" fill-opacity="0.2" /><rect x="1666" y="1110.0" width="188" height="1" fill="white" fill-opacity="0.2" /><rect x="1666" y="1055.0" width="188" height="1" fill="white" fill-opacity="0.2" /><rect x="1666" y="1000.5" width="188" height="1" fill="white" fill-opacity="0.5" /><text x="1864" y="1000.5" font-size="14" fill="white" font-family="monospace" dominant-baseline="initial">30</text><rect x="1666" y="945.5" width="188" height="1" fill="white" fill-opacity="0.2" /><rect x="1666" y="890.5" width="188" height="1" fill="white" fill-opacity="0.2" /><rect x="1666" y="835.5" width="188" height="1" fill="white" fill-opacity="0.2" /><rect x="1666" y="781.0" width="188" height="1" fill="white" fill-opacity="0.5" /><text x="1864" y="781.0" font-size="14" fill="white" font-family="monospace" dominant-baseline="initial">31</text><rect x="1666" y="726.0" width="188" height="1" fill="white" fill-opacity="0.2" /><rect x="1666" y="671.0" width="188" height="1" fill="white" fill-opacity="0.2" /><rect x="1666" y="616.0" width="188" height="1" fill="white" fill-opacity="0.2" /><rect x="1666" y="561.5" width="188" height="1" fill="white" fill-opacity="0.5" /><text x="1864" y="561.5" font-size="14" fill="white" font-family="monospace" dominant-baseline="initial">32</text><rect x="1666" y="506.5" width="188" height="1" fill="white" fill-opacity="0.2" /><rect x="1666" y="451.5" width="188" height="1" fill="white" fill-opacity="0.2" /><rect x="1666" y="396.5" width="188" height="1" fill="white" fill-opacity="0.2" /><rect x="1666" y="342.0" width="188" height="1" fill="white" fill-opacity="0.5" /><text x="1864" y="342.0" font-size="14" fill="white" font-family="monospace" dominant-baseline="initial">33</text><rect x="1904" y="342.5" width="188" height="878.5" fill="black" /><rect x="1904" y="1220.0" width="188" height="1" fill="white" fill-opacity="0.5" /><text x="2102" y="1220.0" font-size="14" fill="white" font-family="monospace" dominant-baseline="initial">33</text><rect x="1904" y="1165.0" width="188" height="1" fill="white" fill-opacity="0.2" /><rect x="1904" y="1110.0" width="188" height="1" fill="white" fill-opacity="0.2" /><rect x="1904" y="1055.0" width="188" height="1" fill="white" fill-opacity="0.2" /><rect x="1904" y="1000.5" width="188" height="1" fill="white" fill-opacity="0.5" /><text x="2102" y="1000.5" font-size="14" fill="white" font-family="monospace" dominant-baseline="initial">34</text><rect x="1904" y="945.5" width="188" height="1" fill="white" fill-opacity="0.2" /><rect x="1904" y="890.5" width="188" height="1" fill="white" fill-opacity="0.2" /><rect x="1904" y="835.5" width="188" height="1" fill="white" fill-opacity="0.2" /><rect x="1904" y="780.5" width="188" height="1" fill="white" fill-opacity="0.5" /><text x="2102" y="780.5" font-size="14" fill="white" font-family="monospace" dominant-baseline="initial">35</text><rect x="1904" y="726.0" width="188" height="1" fill="white" fill-opacity="0.2" /><rect x="1904" y="671.0" width="188" height="1" fill="white" fill-opacity="0.2" /><rect x="1904" y="616.0" width="188" height="1" fill="white" fill-opacity="0.2" /><rect x="1904" y="561.0" width="188" height="1" fill="white" fill-opacity="0.5" /><text x="2102" y="561.0" font-size="14" fill="white" font-family="monospace" dominant-baseline="initial">36</text><rect x="1904" y="506.5" width="188" height="1" fill="white" fill-opacity="0.2" /><rect x="1904" y="451.5" width="188" height="1" fill="white" fill-opacity="0.2" /><rect x="1904" y="396.5" width="188" height="1" fill="white" fill-opacity="0.2" /><rect x="1904" y="341.5" width="188" height="1" fill="white" fill-opacity="0.5" /><text x="2102" y="341.5" font-size="14" fill="white" font-family="monospace" dominant-baseline="initial">37</text><rect x="2142" y="14.0" width="188" height="1207.0" fill="black" /><rect x="2142" y="1220.0" width="188" height="1" fill="white" fill-opacity="0.5" /><text x="2340" y="1220.0" font-size="14" fill="white" font-family="monospace" dominant-baseline="initial">37</text><rect x="2142" y="1165.5" width="188" height="1" fill="white" fill-opacity="0.2" /><rect x="2142" y="1110.5" width="188" height="1" fill="white" fill-opacity="0.2" /><rect x="2142" y="1055.5" width="188" height="1" fill="white" fill-opacity="0.2" /><rect x="2142" y="1000.5" width="188" height="1" fill="white" fill-opacity="0.5" /><text x="2340" y="1000.5" font-size="14" fill="white" font-family="monospace" dominant-baseline="initial">38</text><rect x="2142" y="946.0" width="188" height="1" fill="white" fill-opacity="0.2" /><rect x="2142" y="891.0" width="188" height="1" fill="white" fill-opacity="0.2" /><rect x="2142" y="836.0" width="188" height="1" fill="white" fill-opacity="0.2" /><rect x="2142" y="781.0" width="188" height="1" fill="white" fill-opacity="0.5" /><text x="2340" y="781.0" font-size="14" fill="white" font-family="monospace" dominant-baseline="initial">39</text><rect x="2142" y="726.5" width="188" height="1" fill="white" fill-opacity="0.2" /><rect x="2142" y="671.5" width="188" height="1" fill="white" fill-opacity="0.2" /><rect x="2142" y="616.5" width="188" height="1" fill="white" fill-opacity="0.2" /><rect x="2142" y="561.5" width="188" height="1" fill="white" fill-opacity="0.2" /><rect x="2142" y="507.0" width="188" height="1" fill="white" fill-opacity="0.2" /><rect x="2142" y="452.0" width="188" height="1" fill="white" fill-opacity="0.2" /><rect x="2142" y="397.0" width="188" height="1" fill="white" fill-opacity="0.5" /><text x="2340" y="397.0" font-size="14" fill="white" font-family="monospace" dominant-baseline="initial">40</text><rect x="2142" y="342.0" width="188" height="1" fill="white" fill-opacity="0.2" /><rect x="2142" y="287.5" width="188" height="1" fill="white" fill-opacity="0.2" /><rect x="2142" y="232.5" width="188" height="1" fill="white" fill-opacity="0.2" /><rect x="2142" y="177.5" width="188" height="1" fill="white" fill-opacity="0.2" /><rect x="2142" y="122.5" width="188" height="1" fill="white" fill-opacity="0.2" /><rect x="2142" y="68.0" width="188" height="1" fill="white" fill-opacity="0.2" /><rect x="2142" y="13.0" width="188" height="1" fill="white" fill-opacity="0.5" /><text x="2340" y="13.0" font-size="14" fill="white" font-family="monospace" dominant-baseline="initial">41</text><rect x="2142" y="781.1499999999996" width="188" height="1" fill="aqua" fill-opacity="0.75" /><text x="2142" y="777.1499999999996" font-size="14" fill="aqua" fill-opacity="0.75" font-family="monospace">Phrase C</text><rect x="2380" y="397.5" width="188" height="823.5" fill="black" /><rect x="2380" y="1220.0" width="188" height="1" fill="white" fill-opacity="0.5" /><text x="2578" y="1220.0" font-size="14" fill="white" font-family="monospace" dominant-baseline="initial">41</text><rect x="2380" y="1192.5" width="188" height="1" fill="white" fill-opacity="0.2" /><rect x="2380" y="1165.0" width="188" height="1" fill="white" fill-opacity="0.2" /><rect x="2380" y="1137.5" width="188" height="1" fill="white" fill-opacity="0.2" /><rect x="2380" y="1110.0" width="188" height="1" fill="white" fill-opacity="0.2" /><rect x="2380" y="1082.5" width="188" height="1" fill="white" fill-opacity="0.2" /><rect x="2380" y="1055.5" width="188" height="1" fill="white" fill-opacity="0.2" /><rect x="2380" y="1028.0" width="188" height="1" fill="white" fill-opacity="0.5" /><text x="2578" y="1028.0" font-size="14" fill="white" font-family="monospace" dominant-baseline="initial">42</text><rect x="2380" y="1000.5" width="188" height="1" fill="white" fill-opacity="0.2" /><rect x="2380" y="973.0" width="188" height="1" fill="white" fill-opacity="0.2" /><rect x="2380" y="945.5" width="188" height="1" fill="white" fill-opacity="0.2" /><rect x="2380" y="918.0" width="188" height="1" fill="white" fill-opacity="0.2" /><rect x="2380" y="890.5" width="188" height="1" fill="white" fill-opacity="0.2" /><rect x="2380" y="863.0" width="188" height="1" fill="white" fill-opacity="0.2" /><rect x="2380" y="836.0" width="188" height="1" fill="white" fill-opacity="0.5" /><text x="2578" y="836.0" font-size="14" fill="white" font-family="monospace" dominant-baseline="initial">43</text><rect x="2380" y="781.0" width="188" height="1" fill="white" fill-opacity="0.2" /><rect x="2380" y="726.0" width="188" height="1" fill="white" fill-opacity="0.2" /><rect x="2380" y="671.0" width="188" height="1" fill="white" fill-opacity="0.2" /><rect x="2380" y="616.0" width="188" height="1" fill="white" fill-opacity="0.5" /><text x="2578" y="616.0" font-size="14" fill="white" font-family="monospace" dominant-baseline="initial">44</text><rect x="2380" y="561.5" width="188" height="1" fill="white" fill-opacity="0.2" /><rect x="2380" y="506.5" width="188" height="1" fill="white" fill-opacity="0.2" /><rect x="2380" y="451.5" width="188" height="1" fill="white" fill-opacity="0.2" /><rect x="2380" y="396.5" width="188" height="1" fill="white" fill-opacity="0.5" /><text x="2578" y="396.5" font-size="14" fill="white" font-family="monospace" dominant-baseline="initial">45</text><rect x="2618" y="343.0" width="188" height="878.0" fill="black" /><rect x="2618" y="1220.0" width="188" height="1" fill="white" fill-opacity="0.5" /><text x="2816" y="1220.0" font-size="14" fill="white" font-family="monospace" dominant-baseline="initial">45</text><rect x="2618" y="1165.5" width="188" height="1" fill="white" fill-opacity="0.2" /><rect x="2618" y="1110.5" width="188" height="1" fill="white" fill-opacity="0.2" /><rect x="2618" y="1055.5" width="188" height="1" fill="white" fill-opacity="0.2" /><rect x="2618" y="1000.5" width="188" height="1" fill="white" fill-opacity="0.5" /><text x="2816" y="1000.5" font-size="14" fill="white" font-family="monospace" dominant-baseline="initial">46</text><rect x="2618" y="946.0" width="188" height="1" fill="white" fill-opacity="0.2" /><rect x="2618" y="891.0" width="188" height="1" fill="white" fill-opacity="0.2" /><rect x="2618" y="836.0" width="188" height="1" fill="white" fill-opacity="0.2" /><rect x="2618" y="781.0" width="188" height="1" fill="white" fill-opacity="0.5" /><text x="2816" y="781.0" font-size="14" fill="white" font-family="monospace" dominant-baseline="initial">47</text><rect x="2618" y="726.5" width="188" height="1" fill="white" fill-opacity="0.2" /><rect x="2618" y="671.5" width="188" height="1" fill="white" fill-opacity="0.2" /><rect x="2618" y="616.5" width="188" height="1" fill="white" fill-opacity="0.2" /><rect x="2618" y="561.5" width="188" height="1" fill="white" fill-opacity="0.5" /><text x="2816" y="561.5" font-size="14" fill="white" font-family="monospace" dominant-baseline="initial">48</text><rect x="2618" y="507.0" width="188" height="1" fill="white" fill-opacity="0.2" /><rect x="2618" y="452.0" width="188" height="1" fill="white" fill-opacity="0.2" /><rect x="2618" y="397.0" width="188" height="1" fill="white" fill-opacity="0.2" /><rect x="2618" y="342.0" width="188" height="1" fill="white" fill-opacity="0.5" /><text x="2816" y="342.0" font-size="14" fill="white" font-family="monospace" dominant-baseline="initial">49</text><rect x="2618" y="1220.300000000001" width="188" height="1" fill="aqua" fill-opacity="0.75" /><text x="2618" y="1216.300000000001" font-size="14" fill="aqua" fill-opacity="0.75" font-family="monospace">Special</text><rect x="2856" y="343.0" width="188" height="878.0" fill="black" /><rect x="2856" y="1220.0" width="188" height="1" fill="white" fill-opacity="0.5" /><text x="3054" y="1220.0" font-size="14" fill="white" font-family="monospace" dominant-baseline="initial">49</text><rect x="2856" y="1165.5" width="188" height="1" fill="white" fill-opacity="0.2" /><rect x="2856" y="1110.5" width="188" height="1" fill="white" fill-opacity="0.2" /><rect x="2856" y="1055.5" width="188" height="1" fill="white" fill-opacity="0.2" /><rect x="2856" y="1000.5" width="188" height="1" fill="white" fill-opacity="0.5" /><text x="3054" y="1000.5" font-size="14" fill="white" font-family="monospace" dominant-baseline="initial">50</text><rect x="2856" y="946.0" width="188" height="1" fill="white" fill-opacity="0.2" /><rect x="2856" y="891.0" width="188" height="1" fill="white" fill-opacity="0.2" /><rect x="2856" y="836.0" width="188" height="1" fill="white" fill-opacity="0.2" /><rect x="2856" y="781.0" width="188" height="1" fill="white" fill-opacity="0.5" /><text x="3054" y="781.0" font-size="14" fill="white" font-family="monospace" dominant-baseline="initial">51</text><rect x="2856" y="726.5" width="188" height="1" fill="white" fill-opacity="0.2" /><rect x="2856" y="671.5" width="188" height="1" fill="white" fill-opacity="0.2" /><rect x="2856" y="616.5" width="188" height="1" fill="white" fill-opacity="0.2" /><rect x="2856" y="561.5" width="188" height="1" fill="white" fill-opacity="0.5" /><text x="3054" y="561.5" font-size="14" fill="white" font-family="monospace" dominant-baseline="initial">52</text><rect x="2856" y="507.0" width="188" height="1" fill="white" fill-opacity="0.2" /><rect x="2856" y="452.0" width="188" height="1" fill="white" fill-opacity="0.2" /><rect x="2856" y="397.0" width="188" height="1" fill="white" fill-opacity="0.2" /><rect x="2856" y="342.0" width="188" height="1" fill="white" fill-opacity="0.5" /><text x="3054" y="342.0" font-size="14" fill="white" font-family="monospace" dominant-baseline="initial">53</text><rect x="3094" y="343.0" width="188" height="878.0" fill="black" /><rect x="3094" y="1220.0" width="188" height="1" fill="white" fill-opacity="0.5" /><text x="3292" y="1220.0" font-size="14" fill="white" font-family="monospace" dominant-baseline="initial">53</text><rect x="3094" y="1165.0" width="188" height="1" fill="white" fill-opacity="0.2" /><rect x="3094" y="1110.5" width="188" height="1" fill="white" fill-opacity="0.2" /><rect x="3094" y="1055.5" width="188" height="1" fill="white" fill-opacity="0.2" /><rect x="3094" y="1000.5" width="188" height="1" fill="white" fill-opacity="0.5" /><text x="3292" y="1000.5" font-size="14" fill="white" font-family="monospace" dominant-baseline="initial">54</text><rect x="3094" y="945.5" width="188" height="1" fill="white" fill-opacity="0.2" /><rect x="3094" y="891.0" width="188" height="1" fill="white" fill-opacity="0.2" /><rect x="3094" y="836.0" width="188" height="1" fill="white" fill-opacity="0.2" /><rect x="3094" y="781.0" width="188" height="1" fill="white" fill-opacity="0.5" /><text x="3292" y="781.0" font-size="14" fill="white" font-family="monospace" dominant-baseline="initial">55</text><rect x="3094" y="726.0" width="188" height="1" fill="white" fill-opacity="0.2" /><rect x="3094" y="671.5" width="188" height="1" fill="white" fill-opacity="0.2" /><rect x="3094" y="616.5" width="188" height="1" fill="white" fill-opacity="0.2" /><rect x="3094" y="561.5" width="188" height="1" fill="white" fill-opacity="0.5" /><text x="3292" y="561.5" font-size="14" fill="white" font-family="monospace" dominant-baseline="initial">56</text><rect x="3094" y="506.5" width="188" height="1" fill="white" fill-opacity="0.2" /><rect x="3094" y="452.0" width="188" height="1" fill="white" fill-opacity="0.2" /><rect x="3094" y="397.0" width="188" height="1" fill="white" fill-opacity="0.2" /><rect x="3094" y="342.0" width="188" height="1" fill="white" fill-opacity="0.5" /><text x="3292" y="342.0" font-size="14" fill="white" font-family="monospace" dominant-baseline="initial">57</text><rect x="3094" y="1220.1000000000004" width="188" height="1" fill="aqua" fill-opacity="0.75" /><text x="3094" y="1216.1000000000004" font-size="14" fill="aqua" fill-opacity="0.75" font-family="monospace">Special</text><rect x="3332" y="343.0" width="188" height="878.0" fill="black" /><rect x="3332" y="1220.0" width="188" height="1" fill="white" fill-opacity="0.5" /><text x="3530" y="1220.0" font-size="14" fill="white" font-family="monospace" dominant-baseline="initial">57</text><rect x="3332" y="1165.0" width="188" height="1" fill="white" fill-opacity="0.2" /><rect x="3332" y="1110.5" width="188" height="1" fill="white" fill-opacity="0.2" /><rect x="3332" y="1055.5" width="188" height="1" fill="white" fill-opacity="0.2" /><rect x="3332" y="1000.5" width="188" height="1" fill="white" fill-opacity="0.5" /><text x="3530" y="1000.5" font-size="14" fill="white" font-family="monospace" dominant-baseline="initial">58</text><rect x="3332" y="945.5" width="188" height="1" fill="white" fill-opacity="0.2" /><rect x="3332" y="891.0" width="188" height="1" fill="white" fill-opacity="0.2" /><rect x="3332" y="836.0" width="188" height="1" fill="white" fill-opacity="0.2" /><rect x="3332" y="781.0" width="188" height="1" fill="white" fill-opacity="0.5" /><text x="3530" y="781.0" font-size="14" fill="white" font-family="monospace" dominant-baseline="initial">59</text><rect x="3332" y="726.0" width="188" height="1" fill="white" fill-opacity="0.2" /><rect x="3332" y="671.5" width="188" height="1" fill="white" fill-opacity="0.2" /><rect x="3332" y="616.5" width="188" height="1" fill="white" fill-opacity="0.2" /><rect x="3332" y="561.5" width="188" height="1" fill="white" fill-opacity="0.5" /><text x="3530" y="561.5" font-size="14" fill="white" font-family="monospace" dominant-baseline="initial">60</text><rect x="3332" y="506.5" width="188" height="1" fill="white" fill-opacity="0.2" /><rect x="3332" y="452.0" width="188" height="1" fill="white" fill-opacity="0.2" /><rect x="3332" y="397.0" width="188" height="1" fill="white" fill-opacity="0.2" /><rect x="3332" y="342.0" width="188" height="1" fill="white" fill-opacity="0.5" /><text x="3530" y="342.0" font-size="14" fill="white" font-family="monospace" dominant-baseline="initial">61</text><rect x="3570" y="343.0" width="188" height="878.0" fill="black" /><rect x="3570" y="1220.0" width="188" height="1" fill="white" fill-opacity="0.5" /><text x="3768" y="1220.0" font-size="14" fill="white" font-family="monospace" dominant-baseline="initial">61</text><rect x="3570" y="1165.0" width="188" height="1" fill="white" fill-opacity="0.2" /><rect x="3570" y="1110.5" width="188" height="1" fill="white" fill-opacity="0.2" /><rect x="3570" y="1055.5" width="188" height="1" fill="white" fill-opacity="0.2" /><rect x="3570" y="1000.5" width="188" height="1" fill="white" fill-opacity="0.5" /><text x="3768" y="1000.5" font-size="14" fill="white" font-family="monospace" dominant-baseline="initial">62</text><rect x="3570" y="945.5" width="188" height="1" fill="white" fill-opacity="0.2" /><rect x="3570" y="891.0" width="188" height="1" fill="white" fill-opacity="0.2" /><rect x="3570" y="836.0" width="188" height="1" fill="white" fill-opacity="0.2" /><rect x="3570" y="781.0" width="188" height="1" fill="white" fill-opacity="0.5" /><text x="3768" y="781.0" font-size="14" fill="white" font-family="monospace" dominant-baseline="initial">63</text><rect x="3570" y="726.0" width="188" height="1" fill="white" fill-opacity="0.2" /><rect x="3570" y="671.0" width="188" height="1" fill="white" fill-opacity="0.2" /><rect x="3570" y="616.5" width="188" height="1" fill="white" fill-opacity="0.2" /><rect x="3570" y="561.5" width="188" height="1" fill="white" fill-opacity="0.5" /><text x="3768" y="561.5" font-size="14" fill="white" font-family="monospace" dominant-baseline="initial">64</text><rect x="3570" y="506.5" width="188" height="1" fill="white" fill-opacity="0.2" /><rect x="3570" y="451.5" width="188" height="1" fill="white" fill-opacity="0.2" /><rect x="3570" y="397.0" width="188" height="1" fill="white" fill-opacity="0.2" /><rect x="3570" y="342.0" width="188" height="1" fill="white" fill-opacity="0.5" /><text x="3768" y="342.0" font-size="14" fill="white" font-family="monospace" dominant-baseline="initial">65</text><rect x="3808" y="343.0" width="188" height="878.0" fill="black" /><rect x="3808" y="1220.0" width="188" height="1" fill="white" fill-opacity="0.5" /><text x="4006" y="1220.0" font-size="14" fill="white" font-family="monospace" dominant-baseline="initial">65</text><rect x="3808" y="1165.0" width="188" height="1" fill="white" fill-opacity="0.2" /><rect x="3808" y="1110.0" width="188" height="1" fill="white" fill-opacity="0.2" /><rect x="3808" y="1055.5" width="188" height="1" fill="white" fill-opacity="0.2" /><rect x="3808" y="1000.5" width="188" height="1" fill="white" fill-opacity="0.5" /><text x="4006" y="1000.5" font-size="14" fill="white" font-family="monospace" dominant-baseline="initial">66</text><rect x="3808" y="945.5" width="188" height="1" fill="white" fill-opacity="0.2" /><rect x="3808" y="890.5" width="188" height="1" fill="white" fill-opacity="0.2" /><rect x="3808" y="836.0" width="188" height="1" fill="white" fill-opacity="0.2" /><rect x="3808" y="781.0" width="188" height="1" fill="white" fill-opacity="0.5" /><text x="4006" y="781.0" font-size="14" fill="white" font-family="monospace" dominant-baseline="initial">67</text><rect x="3808" y="726.0" width="188" height="1" fill="white" fill-opacity="0.2" /><rect x="3808" y="671.0" width="188" height="1" fill="white" fill-opacity="0.2" /><rect x="3808" y="616.5" width="188" height="1" fill="white" fill-opacity="0.2" /><rect x="3808" y="561.5" width="188" height="1" fill="white" fill-opacity="0.5" /><text x="4006" y="561.5" font-size="14" fill="white" font-family="monospace" dominant-baseline="initial">68</text><rect x="3808" y="506.5" width="188" height="1" fill="white" fill-opacity="0.2" /><rect x="3808" y="451.5" width="188" height="1" fill="white" fill-opacity="0.2" /><rect x="3808" y="397.0" width="188" height="1" fill="white" fill-opacity="0.2" /><rect x="3808" y="342.0" width="188" height="1" fill="white" fill-opacity="0.5" /><text x="4006" y="342.0" font-size="14" fill="white" font-family="monospace" dominant-baseline="initial">69</text><rect x="4046" y="343.0" width="188" height="878.0" fill="black" /><rect x="4046" y="1220.0" width="188" height="1" fill="white" fill-opacity="0.5" /><text x="4244" y="1220.0" font-size="14" fill="white" font-family="monospace" dominant-baseline="initial">69</text><rect x="4046" y="1165.0" width="188" height="1" fill="white" fill-opacity="0.2" /><rect x="4046" y="1110.0" width="188" height="1" fill="white" fill-opacity="0.2" /><rect x="4046" y="1055.5" width="188" height="1" fill="white" fill-opacity="0.2" /><rect x="4046" y="1000.5" width="188" height="1" fill="white" fill-opacity="0.5" /><text x="4244" y="1000.5" font-size="14" fill="white" font-family="monospace" dominant-baseline="initial">70</text><rect x="4046" y="945.5" width="188" height="1" fill="white" fill-opacity="0.2" /><rect x="4046" y="890.5" width="188" height="1" fill="white" fill-opacity="0.2" /><rect x="4046" y="836.0" width="188" height="1" fill="white" fill-opacity="0.2" /><rect x="4046" y="781.0" width="188" height="1" fill="white" fill-opacity="0.5" /><text x="4244" y="781.0" font-size="14" fill="white" font-family="monospace" dominant-baseline="initial">71</text><rect x="4046" y="726.0" width="188" height="1" fill="white" fill-opacity="0.2" /><rect x="4046" y="671.0" width="188" height="1" fill="white" fill-opacity="0.2" /><rect x="4046" y="616.5" width="188" height="1" fill="white" fill-opacity="0.2" /><rect x="4046" y="561.5" width="188" height="1" fill="white" fill-opacity="0.5" /><text x="4244" y="561.5" font-size="14" fill="white" font-family="monospace" dominant-baseline="initial">72</text><rect x="4046" y="506.5" width="188" height="1" fill="white" fill-opacity="0.2" /><rect x="4046" y="451.5" width="188" height="1" fill="white" fill-opacity="0.2" /><rect x="4046" y="397.0" width="188" height="1" fill="white" fill-opacity="0.2" /><rect x="4046" y="342.0" width="188" height="1" fill="white" fill-opacity="0.5" /><text x="4244" y="342.0" font-size="14" fill="white" font-family="monospace" dominant-baseline="initial">73</text><rect x="4046" y="1220.0" width="188" height="1" fill="aqua" fill-opacity="0.75" /><text x="4046" y="1216.0" font-size="14" fill="aqua" fill-opacity="0.75" font-family="monospace">Outro</text><rect x="4284" y="1071.0" width="188" height="150.0" fill="black" /><rect x="4284" y="1220.0" width="188" height="1" fill="white" fill-opacity="0.5" /><text x="4482" y="1220.0" font-size="14" fill="white" font-family="monospace" dominant-baseline="initial">73</text></svg>