<?xml version="1.0" encoding="UTF-8"?><svg xmlns="http://www.w3.org/2000/svg" xmlns:xlink="http://www.w3.org/1999/xlink"     width="2622" height="1231.5" viewBox="0 0 2622 1231.5"><defs></defs><rect x="39.0" y="369.0" width="12.0" height="3" fill="#fff874" stroke="#eb9c26" /><rect x="52.0" y="369.0" width="12.0" height="3" fill="#ff83f4" stroke="#d002bc" /><rect x="39.0" y="415.5" width="12.0" height="3" fill="#fff874" stroke="#eb9c26" /><rect x="26.0" y="461.5" width="12.0" height="3" fill="#80c9ff" stroke="#0b6cba" /><rect x="13.0" y="507.5" width="12.0" height="3" fill="#35df39" stroke="#03aa10" /><rect x="0.0" y="554.0" width="12.0" height="3" fill="#ff3c3c" stroke="#c71f1f" /><rect x="13.0" y="554.0" width="12.0" height="3" fill="#35df39" stroke="#03aa10" /><rect x="0.0" y="600.0" width="12.0" height="3" fill="#ff3c3c" stroke="#c71f1f" /><rect x="13.0" y="646.0" width="12.0" height="3" fill="#35df39" stroke="#03aa10" /><rect x="26.0" y="692.5" width="12.0" height="3" fill="#80c9ff" stroke="#0b6cba" /><rect x="140.0" y="0.0" width="12.0" height="3" fill="#80c9ff" stroke="#0b6cba" /><rect x="153.0" y="0.0" width="12.0" height="3" fill="#fff874" stroke="#eb9c26" /><rect x="140.0" y="46.0" width="12.0" height="3" fill="#80c9ff" stroke="#0b6cba" /><rect x="153.0" y="92.5" width="12.0" height="3" fill="#fff874" stroke="#eb9c26" /><rect x="153.0" y="138.5" width="12.0" height="3" fill="#fff874" stroke="#eb9c26" /><rect x="153.0" y="184.5" width="12.0" height="3" fill="#fff874" stroke="#eb9c26" /><rect x="166.0" y="184.5" width="12.0" height="3" fill="#ff83f4" stroke="#d002bc" /><rect x="153.0" y="230.5" width="12.0" height="3" fill="#fff874" stroke="#eb9c26" /><rect x="140.0" y="277.0" width="12.0" height="3" fill="#80c9ff" stroke="#0b6cba" /><rect x="153.0" y="277.0" width="12.0" height="3" fill="#fff874" stroke="#eb9c26" /><rect x="140.0" y="323.0" width="12.0" height="3" fill="#80c9ff" stroke="#0b6cba" /><rect x="140.0" y="338.5" width="12.0" height="3" fill="#80c9ff" stroke="#0b6cba" /><rect x="140.0" y="354.0" width="12.0" height="3" fill="#80c9ff" stroke="#0b6cba" /><rect x="140.0" y="369.0" width="12.0" height="3" fill="#80c9ff" stroke="#0b6cba" /><rect x="166.0" y="369.0" width="12.0" height="3" fill="#ff83f4" stroke="#d002bc" /><rect x="140.0" y="415.5" width="12.0" height="3" fill="#80c9ff" stroke="#0b6cba" /><rect x="140.0" y="446.0" width="12.0" height="3" fill="#80c9ff" stroke="#0b6cba" /><rect x="166.0" y="446.0" width="12.0" height="3" fill="#ff83f4" stroke="#d002bc" /><rect x="127.0" y="538.5" width="12.0" height="3" fill="#35df39" stroke="#03aa10" /><rect x="127.0" y="554.0" width="12.0" height="3" fill="#35df39" stroke="#03aa10" /><rect x="153.0" y="554.0" width="12.0" height="3" fill="#fff874" stroke="#eb9c26" /><rect x="127.0" y="600.0" width="12.0" height="3" fill="#35df39" stroke="#03aa10" /><rect x="127.0" y="630.5" width="12.0" height="3" fill="#35df39" stroke="#03aa10" /><rect x="153.0" y="630.5" width="12.0" height="3" fill="#fff874" stroke="#eb9c26" /><rect x="127.0" y="723.0" width="12.0" height="3" fill="#35df39" stroke="#03aa10" /><rect x="241.0" y="0.0" width="12.0" height="3" fill="#35df39" stroke="#03aa10" /><rect x="267.0" y="0.0" width="12.0" height="3" fill="#fff874" stroke="#eb9c26" /><rect x="241.0" y="46.0" width="12.0" height="3" fill="#35df39" stroke="#03aa10" /><rect x="254.0" y="77.0" width="12.0" height="3" fill="#80c9ff" stroke="#0b6cba" /><rect x="267.0" y="77.0" width="12.0" height="3" fill="#fff874" stroke="#eb9c26" /><rect x="241.0" y="123.0" width="12.0" height="3" fill="#35df39" stroke="#03aa10" /><rect x="241.0" y="138.5" width="12.0" height="3" fill="#35df39" stroke="#03aa10" /><rect x="267.0" y="138.5" width="12.0" height="3" fill="#fff874" stroke="#eb9c26" /><rect x="241.0" y="184.5" width="12.0" height="3" fill="#35df39" stroke="#03aa10" /><rect x="267.0" y="184.5" width="12.0" height="3" fill="#fff874" stroke="#eb9c26" /><rect x="241.0" y="230.5" width="12.0" height="3" fill="#35df39" stroke="#03aa10" /><rect x="254.0" y="261.5" width="12.0" height="3" fill="#80c9ff" stroke="#0b6cba" /><rect x="267.0" y="261.5" width="12.0" height="3" fill="#fff874" stroke="#eb9c26" /><rect x="254.0" y="323.0" width="12.0" height="3" fill="#80c9ff" stroke="#0b6cba" /><rect x="267.0" y="323.0" width="12.0" height="3" fill="#fff874" stroke="#eb9c26" /><rect x="254.0" y="354.0" width="12.0" height="3" fill="#80c9ff" stroke="#0b6cba" /><rect x="254.0" y="369.0" width="12.0" height="3" fill="#80c9ff" stroke="#0b6cba" /><rect x="254.0" y="400.0" width="12.0" height="3" fill="#80c9ff" stroke="#0b6cba" /><rect x="267.0" y="400.0" width="12.0" height="3" fill="#fff874" stroke="#eb9c26" /><rect x="254.0" y="415.5" width="12.0" height="3" fill="#80c9ff" stroke="#0b6cba" /><rect x="267.0" y="415.5" width="12.0" height="3" fill="#fff874" stroke="#eb9c26" /><rect x="254.0" y="461.5" width="12.0" height="3" fill="#80c9ff" stroke="#0b6cba" /><rect x="267.0" y="461.5" width="12.0" height="3" fill="#fff874" stroke="#eb9c26" /><rect x="254.0" y="492.0" width="12.0" height="3" fill="#80c9ff" stroke="#0b6cba" /><rect x="267.0" y="492.0" width="12.0" height="3" fill="#fff874" stroke="#eb9c26" /><rect x="254.0" y="507.5" width="12.0" height="3" fill="#80c9ff" stroke="#0b6cba" /><rect x="267.0" y="507.5" width="12.0" height="3" fill="#fff874" stroke="#eb9c26" /><rect x="267.0" y="554.0" width="12.0" height="3" fill="#fff874" stroke="#eb9c26" /><rect x="267.0" y="584.5" width="12.0" height="3" fill="#fff874" stroke="#eb9c26" /><rect x="267.0" y="600.0" width="12.0" height="3" fill="#fff874" stroke="#eb9c26" /><rect x="267.0" y="646.0" width="12.0" height="3" fill="#fff874" stroke="#eb9c26" /><rect x="267.0" y="677.0" width="12.0" height="3" fill="#fff874" stroke="#eb9c26" /><rect x="267.0" y="692.0" width="12.0" height="3" fill="#fff874" stroke="#eb9c26" /><rect x="381.0" y="0.0" width="12.0" height="3" fill="#fff874" stroke="#eb9c26" /><rect x="394.0" y="0.0" width="12.0" height="3" fill="#ff83f4" stroke="#d002bc" /><rect x="381.0" y="30.5" width="12.0" height="3" fill="#fff874" stroke="#eb9c26" /><rect x="394.0" y="30.5" width="12.0" height="3" fill="#ff83f4" stroke="#d002bc" /><rect x="381.0" y="46.0" width="12.0" height="3" fill="#fff874" stroke="#eb9c26" /><rect x="394.0" y="46.0" width="12.0" height="3" fill="#ff83f4" stroke="#d002bc" /><rect x="381.0" y="92.0" width="12.0" height="3" fill="#fff874" stroke="#eb9c26" /><rect x="394.0" y="92.0" width="12.0" height="3" fill="#ff83f4" stroke="#d002bc" /><rect x="381.0" y="123.0" width="12.0" height="3" fill="#fff874" stroke="#eb9c26" /><rect x="394.0" y="123.0" width="12.0" height="3" fill="#ff83f4" stroke="#d002bc" /><rect x="381.0" y="138.5" width="12.0" height="3" fill="#fff874" stroke="#eb9c26" /><rect x="394.0" y="138.5" width="12.0" height="3" fill="#ff83f4" stroke="#d002bc" /><rect x="381.0" y="184.5" width="12.0" height="3" fill="#fff874" stroke="#eb9c26" /><rect x="381.0" y="215.5" width="12.0" height="3" fill="#fff874" stroke="#eb9c26" /><rect x="381.0" y="230.5" width="12.0" height="3" fill="#fff874" stroke="#eb9c26" /><rect x="394.0" y="277.0" width="12.0" height="3" fill="#ff83f4" stroke="#d002bc" /><rect x="381.0" y="323.0" width="12.0" height="3" fill="#fff874" stroke="#eb9c26" /><rect x="368.0" y="369.0" width="12.0" height="3" fill="#80c9ff" stroke="#0b6cba" /><rect x="394.0" y="369.0" width="12.0" height="3" fill="#ff83f4" stroke="#d002bc" /><rect x="368.0" y="415.5" width="12.0" height="3" fill="#80c9ff" stroke="#0b6cba" /><rect x="368.0" y="446.0" width="12.0" height="3" fill="#80c9ff" stroke="#0b6cba" /><rect x="394.0" y="446.0" width="12.0" height="3" fill="#ff83f4" stroke="#d002bc" /><rect x="355.0" y="538.5" width="12.0" height="3" fill="#35df39" stroke="#03aa10" /><rect x="355.0" y="553.5" width="12.0" height="3" fill="#35df39" stroke="#03aa10" /><rect x="381.0" y="553.5" width="12.0" height="3" fill="#fff874" stroke="#eb9c26" /><rect x="355.0" y="600.0" width="12.0" height="3" fill="#35df39" stroke="#03aa10" /><rect x="355.0" y="630.5" width="12.0" height="3" fill="#35df39" stroke="#03aa10" /><rect x="381.0" y="630.5" width="12.0" height="3" fill="#fff874" stroke="#eb9c26" /><rect x="355.0" y="723.0" width="12.0" height="3" fill="#35df39" stroke="#03aa10" /><rect x="469.0" y="0.0" width="12.0" height="3" fill="#35df39" stroke="#03aa10" /><rect x="495.0" y="0.0" width="12.0" height="3" fill="#fff874" stroke="#eb9c26" /><rect x="469.0" y="46.0" width="12.0" height="3" fill="#35df39" stroke="#03aa10" /><rect x="482.0" y="77.0" width="12.0" height="3" fill="#80c9ff" stroke="#0b6cba" /><rect x="495.0" y="77.0" width="12.0" height="3" fill="#fff874" stroke="#eb9c26" /><rect x="482.0" y="138.5" width="12.0" height="3" fill="#80c9ff" stroke="#0b6cba" /><rect x="495.0" y="138.5" width="12.0" height="3" fill="#fff874" stroke="#eb9c26" /><rect x="482.0" y="169.0" width="12.0" height="3" fill="#80c9ff" stroke="#0b6cba" /><rect x="482.0" y="184.5" width="12.0" height="3" fill="#80c9ff" stroke="#0b6cba" /><rect x="508.0" y="184.5" width="12.0" height="3" fill="#ff83f4" stroke="#d002bc" /><rect x="482.0" y="230.5" width="12.0" height="3" fill="#80c9ff" stroke="#0b6cba" /><rect x="482.0" y="261.5" width="12.0" height="3" fill="#80c9ff" stroke="#0b6cba" /><rect x="508.0" y="261.5" width="12.0" height="3" fill="#ff83f4" stroke="#d002bc" /><rect x="482.0" y="307.5" width="12.0" height="3" fill="#80c9ff" stroke="#0b6cba" /><rect x="495.0" y="323.0" width="12.0" height="3" fill="#fff874" stroke="#eb9c26" /><rect x="469.0" y="369.0" width="12.0" height="3" fill="#35df39" stroke="#03aa10" /><rect x="456.0" y="415.0" width="12.0" height="3" fill="#ff3c3c" stroke="#c71f1f" /><rect x="469.0" y="461.5" width="12.0" height="3" fill="#35df39" stroke="#03aa10" /><rect x="456.0" y="507.5" width="12.0" height="3" fill="#ff3c3c" stroke="#c71f1f" /><rect x="482.0" y="553.5" width="12.0" height="3" fill="#80c9ff" stroke="#0b6cba" /><rect x="456.0" y="600.0" width="12.0" height="3" fill="#ff3c3c" stroke="#c71f1f" /><rect x="495.0" y="646.0" width="12.0" height="3" fill="#fff874" stroke="#eb9c26" /><rect x="482.0" y="692.0" width="12.0" height="3" fill="#80c9ff" stroke="#0b6cba" /><rect x="583.0" y="0.0" width="12.0" height="3" fill="#35df39" stroke="#03aa10" /><rect x="570.0" y="46.0" width="12.0" height="3" fill="#ff3c3c" stroke="#c71f1f" /><rect x="622.0" y="92.0" width="12.0" height="3" fill="#ff83f4" stroke="#d002bc" /><rect x="570" y="92.0" width="64" height="3" fill="#ff72e7" stroke="#7c7c7c" /><rect x="570.0" y="138.5" width="12.0" height="3" fill="#ff3c3c" stroke="#c71f1f" /><rect x="596.0" y="184.5" width="12.0" height="3" fill="#80c9ff" stroke="#0b6cba" /><rect x="583.0" y="230.5" width="12.0" height="3" fill="#35df39" stroke="#03aa10" /><rect x="570.0" y="276.5" width="12.0" height="3" fill="#ff3c3c" stroke="#c71f1f" /><rect x="583.0" y="276.5" width="12.0" height="3" fill="#35df39" stroke="#03aa10" /><rect x="583.0" y="323.0" width="12.0" height="3" fill="#35df39" stroke="#03aa10" /><rect x="596.0" y="353.5" width="12.0" height="3" fill="#80c9ff" stroke="#0b6cba" /><rect x="609.0" y="369.0" width="12.0" height="3" fill="#fff874" stroke="#eb9c26" /><rect x="609.0" y="400.0" width="12.0" height="3" fill="#fff874" stroke="#eb9c26" /><rect x="596.0" y="415.0" width="12.0" height="3" fill="#80c9ff" stroke="#0b6cba" /><rect x="583.0" y="446.0" width="12.0" height="3" fill="#35df39" stroke="#03aa10" /><rect x="609.0" y="461.5" width="12.0" height="3" fill="#fff874" stroke="#eb9c26" /><rect x="609.0" y="538.5" width="12.0" height="3" fill="#fff874" stroke="#eb9c26" /><rect x="596.0" y="584.5" width="12.0" height="3" fill="#80c9ff" stroke="#0b6cba" /><rect x="609.0" y="600.0" width="12.0" height="3" fill="#fff874" stroke="#eb9c26" /><rect x="622.0" y="630.5" width="12.0" height="3" fill="#ff83f4" stroke="#d002bc" /><rect x="596.0" y="646.0" width="12.0" height="3" fill="#80c9ff" stroke="#0b6cba" /><rect x="723.0" y="0.0" width="12.0" height="3" fill="#fff874" stroke="#eb9c26" /><rect x="723.0" y="46.0" width="12.0" height="3" fill="#fff874" stroke="#eb9c26" /><rect x="710.0" y="92.0" width="12.0" height="3" fill="#80c9ff" stroke="#0b6cba" /><rect x="697.0" y="138.0" width="12.0" height="3" fill="#35df39" stroke="#03aa10" /><rect x="684.0" y="184.5" width="12.0" height="3" fill="#ff3c3c" stroke="#c71f1f" /><rect x="697.0" y="261.5" width="12.0" height="3" fill="#35df39" stroke="#03aa10" /><rect x="684.0" y="323.0" width="12.0" height="3" fill="#ff3c3c" stroke="#c71f1f" /><rect x="684.0" y="369.0" width="12.0" height="3" fill="#ff3c3c" stroke="#c71f1f" /><rect x="684.0" y="400.0" width="12.0" height="3" fill="#ff3c3c" stroke="#c71f1f" /><rect x="697.0" y="415.0" width="12.0" height="3" fill="#35df39" stroke="#03aa10" /><rect x="697.0" y="446.0" width="12.0" height="3" fill="#35df39" stroke="#03aa10" /><rect x="710.0" y="461.5" width="12.0" height="3" fill="#80c9ff" stroke="#0b6cba" /><rect x="710.0" y="492.0" width="12.0" height="3" fill="#80c9ff" stroke="#0b6cba" /><rect x="684.0" y="507.5" width="12.0" height="3" fill="#ff3c3c" stroke="#c71f1f" /><rect x="684.0" y="538.0" width="12.0" height="3" fill="#ff3c3c" stroke="#c71f1f" /><rect x="697.0" y="553.5" width="12.0" height="3" fill="#35df39" stroke="#03aa10" /><rect x="697.0" y="584.5" width="12.0" height="3" fill="#35df39" stroke="#03aa10" /><rect x="710.0" y="600.0" width="12.0" height="3" fill="#80c9ff" stroke="#0b6cba" /><rect x="710.0" y="630.5" width="12.0" height="3" fill="#80c9ff" stroke="#0b6cba" /><rect x="697.0" y="646.0" width="12.0" height="3" fill="#35df39" stroke="#03aa10" /><rect x="697.0" y="676.5" width="12.0" height="3" fill="#35df39" stroke="#03aa10" /><rect x="684.0" y="692.0" width="12.0" height="3" fill="#ff3c3c" stroke="#c71f1f" /><rect x="684.0" y="723.0" width="12.0" height="3" fill="#ff3c3c" stroke="#c71f1f" /><rect x="811.0" y="0.0" width="12.0" height="3" fill="#35df39" stroke="#03aa10" /><rect x="798.0" y="46.5" width="12.0" height="3" fill="#ff3c3c" stroke="#c71f1f" /><rect x="798.0" y="92.5" width="12.0" height="3" fill="#ff3c3c" stroke="#c71f1f" /><rect x="811.0" y="138.5" width="12.0" height="3" fill="#35df39" stroke="#03aa10" /><rect x="811.0" y="185.0" width="12.0" height="3" fill="#35df39" stroke="#03aa10" /><rect x="811.0" y="231.0" width="12.0" height="3" fill="#35df39" stroke="#03aa10" /><rect x="824.0" y="231.0" width="12.0" height="3" fill="#80c9ff" stroke="#0b6cba" /><rect x="811.0" y="277.0" width="12.0" height="3" fill="#35df39" stroke="#03aa10" /><rect x="824.0" y="277.0" width="12.0" height="3" fill="#80c9ff" stroke="#0b6cba" /><rect x="1065.0" y="231.0" width="12.0" height="3" fill="#fff874" stroke="#eb9c26" /><rect x="1052.0" y="277.0" width="12.0" height="3" fill="#80c9ff" stroke="#0b6cba" /><rect x="1026.0" y="323.0" width="12.0" height="3" fill="#ff3c3c" stroke="#c71f1f" /><rect x="1039.0" y="369.5" width="12.0" height="3" fill="#35df39" stroke="#03aa10" /><rect x="1065.0" y="446.5" width="12.0" height="3" fill="#fff874" stroke="#eb9c26" /><rect x="1052.0" y="508.0" width="12.0" height="230.5" fill="#80c9ff" stroke="#0b6cba" /><rect x="1140.0" y="0.0" width="12.0" height="3" fill="#ff3c3c" stroke="#c71f1f" /><rect x="1166.0" y="77.0" width="12.0" height="3" fill="#80c9ff" stroke="#0b6cba" /><rect x="1153.0" y="138.5" width="12.0" height="207.9" fill="#35df39" stroke="#03aa10" /><rect x="1140.0" y="369.5" width="12.0" height="3" fill="#ff3c3c" stroke="#c71f1f" /><rect x="1166.0" y="369.5" width="12.0" height="3" fill="#80c9ff" stroke="#0b6cba" /><rect x="1140.0" y="446.5" width="12.0" height="3" fill="#ff3c3c" stroke="#c71f1f" /><rect x="1166.0" y="446.5" width="12.0" height="3" fill="#80c9ff" stroke="#0b6cba" /><rect x="1153.0" y="508.0" width="12.0" height="3" fill="#35df39" stroke="#03aa10" /><rect x="1166.0" y="508.0" width="12.0" height="3" fill="#80c9ff" stroke="#0b6cba" /><rect x="1153.0" y="538.5" width="12.0" height="3" fill="#35df39" stroke="#03aa10" /><rect x="1166.0" y="538.5" width="12.0" height="3" fill="#80c9ff" stroke="#0b6cba" /><rect x="1153.0" y="554.0" width="12.0" height="3" fill="#35df39" stroke="#03aa10" /><rect x="1166.0" y="554.0" width="12.0" height="3" fill="#80c9ff" stroke="#0b6cba" /><rect x="1153.0" y="631.0" width="12.0" height="3" fill="#35df39" stroke="#03aa10" /><rect x="1166.0" y="631.0" width="12.0" height="3" fill="#80c9ff" stroke="#0b6cba" /><rect x="1140.0" y="692.5" width="12.0" height="3" fill="#ff3c3c" stroke="#c71f1f" /><rect x="1166.0" y="692.5" width="12.0" height="3" fill="#80c9ff" stroke="#0b6cba" /><rect x="1140.0" y="723.0" width="12.0" height="3" fill="#ff3c3c" stroke="#c71f1f" /><rect x="1166.0" y="723.0" width="12.0" height="3" fill="#80c9ff" stroke="#0b6cba" /><rect x="1254.0" y="0.0" width="12.0" height="3" fill="#ff3c3c" stroke="#c71f1f" /><rect x="1280.0" y="0.0" width="12.0" height="3" fill="#80c9ff" stroke="#0b6cba" /><rect x="1254.0" y="77.0" width="12.0" height="3" fill="#ff3c3c" stroke="#c71f1f" /><rect x="1280.0" y="77.0" width="12.0" height="3" fill="#80c9ff" stroke="#0b6cba" /><rect x="1254.0" y="138.5" width="12.0" height="3" fill="#ff3c3c" stroke="#c71f1f" /><rect x="1280.0" y="138.5" width="12.0" height="3" fill="#80c9ff" stroke="#0b6cba" /><rect x="1254.0" y="169.5" width="12.0" height="3" fill="#ff3c3c" stroke="#c71f1f" /><rect x="1280.0" y="169.5" width="12.0" height="3" fill="#80c9ff" stroke="#0b6cba" /><rect x="1254.0" y="184.5" width="12.0" height="3" fill="#ff3c3c" stroke="#c71f1f" /><rect x="1280.0" y="184.5" width="12.0" height="3" fill="#80c9ff" stroke="#0b6cba" /><rect x="1254.0" y="261.5" width="12.0" height="3" fill="#ff3c3c" stroke="#c71f1f" /><rect x="1280.0" y="261.5" width="12.0" height="3" fill="#80c9ff" stroke="#0b6cba" /><rect x="1254.0" y="323.0" width="12.0" height="3" fill="#ff3c3c" stroke="#c71f1f" /><rect x="1254.0" y="354.0" width="12.0" height="3" fill="#ff3c3c" stroke="#c71f1f" /><rect x="1254.0" y="369.5" width="12.0" height="3" fill="#ff3c3c" stroke="#c71f1f" /><rect x="1254.0" y="400.0" width="12.0" height="3" fill="#ff3c3c" stroke="#c71f1f" /><rect x="1280.0" y="400.0" width="12.0" height="3" fill="#80c9ff" stroke="#0b6cba" /><rect x="1254.0" y="415.5" width="12.0" height="3" fill="#ff3c3c" stroke="#c71f1f" /><rect x="1280.0" y="415.5" width="12.0" height="3" fill="#80c9ff" stroke="#0b6cba" /><rect x="1267.0" y="461.5" width="12.0" height="3" fill="#35df39" stroke="#03aa10" /><rect x="1280.0" y="461.5" width="12.0" height="3" fill="#80c9ff" stroke="#0b6cba" /><rect x="1267.0" y="492.5" width="12.0" height="3" fill="#35df39" stroke="#03aa10" /><rect x="1280.0" y="492.5" width="12.0" height="3" fill="#80c9ff" stroke="#0b6cba" /><rect x="1267.0" y="508.0" width="12.0" height="3" fill="#35df39" stroke="#03aa10" /><rect x="1280.0" y="508.0" width="12.0" height="3" fill="#80c9ff" stroke="#0b6cba" /><rect x="1254.0" y="554.0" width="12.0" height="3" fill="#ff3c3c" stroke="#c71f1f" /><rect x="1280.0" y="554.0" width="12.0" height="3" fill="#80c9ff" stroke="#0b6cba" /><rect x="1254.0" y="584.5" width="12.0" height="3" fill="#ff3c3c" stroke="#c71f1f" /><rect x="1280.0" y="584.5" width="12.0" height="3" fill="#80c9ff" stroke="#0b6cba" /><rect x="1254.0" y="600.0" width="12.0" height="3" fill="#ff3c3c" stroke="#c71f1f" /><rect x="1280.0" y="600.0" width="12.0" height="3" fill="#80c9ff" stroke="#0b6cba" /><rect x="1254.0" y="646.0" width="12.0" height="3" fill="#ff3c3c" stroke="#c71f1f" /><rect x="1280.0" y="646.0" width="12.0" height="3" fill="#80c9ff" stroke="#0b6cba" /><rect x="1254.0" y="677.0" width="12.0" height="3" fill="#ff3c3c" stroke="#c71f1f" /><rect x="1280.0" y="677.0" width="12.0" height="3" fill="#80c9ff" stroke="#0b6cba" /><rect x="1254.0" y="692.5" width="12.0" height="3" fill="#ff3c3c" stroke="#c71f1f" /><rect x="1280.0" y="692.5" width="12.0" height="3" fill="#80c9ff" stroke="#0b6cba" /><rect x="1368.0" y="0.0" width="12.0" height="3" fill="#ff3c3c" stroke="#c71f1f" /><rect x="1394.0" y="0.0" width="12.0" height="3" fill="#80c9ff" stroke="#0b6cba" /><rect x="1368.0" y="31.0" width="12.0" height="3" fill="#ff3c3c" stroke="#c71f1f" /><rect x="1394.0" y="31.0" width="12.0" height="3" fill="#80c9ff" stroke="#0b6cba" /><rect x="1368.0" y="46.0" width="12.0" height="3" fill="#ff3c3c" stroke="#c71f1f" /><rect x="1394.0" y="46.0" width="12.0" height="3" fill="#80c9ff" stroke="#0b6cba" /><rect x="1381.0" y="92.5" width="12.0" height="3" fill="#35df39" stroke="#03aa10" /><rect x="1394.0" y="92.5" width="12.0" height="3" fill="#80c9ff" stroke="#0b6cba" /><rect x="1381.0" y="123.0" width="12.0" height="3" fill="#35df39" stroke="#03aa10" /><rect x="1394.0" y="123.0" width="12.0" height="3" fill="#80c9ff" stroke="#0b6cba" /><rect x="1381.0" y="138.5" width="12.0" height="3" fill="#35df39" stroke="#03aa10" /><rect x="1394.0" y="138.5" width="12.0" height="3" fill="#80c9ff" stroke="#0b6cba" /><rect x="1368.0" y="184.5" width="12.0" height="3" fill="#ff3c3c" stroke="#c71f1f" /><rect x="1381.0" y="231.0" width="12.0" height="3" fill="#35df39" stroke="#03aa10" /><rect x="1394.0" y="277.0" width="12.0" height="3" fill="#80c9ff" stroke="#0b6cba" /><rect x="1407.0" y="323.0" width="12.0" height="3" fill="#fff874" stroke="#eb9c26" /><rect x="1381.0" y="369.5" width="12.0" height="3" fill="#35df39" stroke="#03aa10" /><rect x="1381.0" y="415.5" width="12.0" height="3" fill="#35df39" stroke="#03aa10" /><rect x="1381.0" y="461.5" width="12.0" height="3" fill="#35df39" stroke="#03aa10" /><rect x="1394.0" y="461.5" width="12.0" height="3" fill="#80c9ff" stroke="#0b6cba" /><rect x="1381.0" y="507.5" width="12.0" height="3" fill="#35df39" stroke="#03aa10" /><rect x="1394.0" y="507.5" width="12.0" height="3" fill="#80c9ff" stroke="#0b6cba" /><rect x="1368.0" y="554.0" width="12.0" height="3" fill="#ff3c3c" stroke="#c71f1f" /><rect x="1368.0" y="600.0" width="12.0" height="3" fill="#ff3c3c" stroke="#c71f1f" /><rect x="1394.0" y="646.0" width="12.0" height="3" fill="#80c9ff" stroke="#0b6cba" /><rect x="1407.0" y="646.0" width="12.0" height="3" fill="#fff874" stroke="#eb9c26" /><rect x="1394.0" y="692.5" width="12.0" height="3" fill="#80c9ff" stroke="#0b6cba" /><rect x="1407.0" y="692.5" width="12.0" height="3" fill="#fff874" stroke="#eb9c26" /><rect x="1495.0" y="0.0" width="12.0" height="3" fill="#35df39" stroke="#03aa10" /><rect x="1508.0" y="0.0" width="12.0" height="3" fill="#80c9ff" stroke="#0b6cba" /><rect x="1495.0" y="92.5" width="12.0" height="3" fill="#35df39" stroke="#03aa10" /><rect x="1508.0" y="92.5" width="12.0" height="3" fill="#80c9ff" stroke="#0b6cba" /><rect x="1521.0" y="184.5" width="12.0" height="3" fill="#fff874" stroke="#eb9c26" /><rect x="1521.0" y="200.0" width="12.0" height="3" fill="#fff874" stroke="#eb9c26" /><rect x="1521.0" y="215.5" width="12.0" height="3" fill="#fff874" stroke="#eb9c26" /><rect x="1521.0" y="231.0" width="12.0" height="3" fill="#fff874" stroke="#eb9c26" /><rect x="1521.0" y="246.0" width="12.0" height="3" fill="#fff874" stroke="#eb9c26" /><rect x="1521.0" y="261.5" width="12.0" height="3" fill="#fff874" stroke="#eb9c26" /><rect x="1521.0" y="277.0" width="12.0" height="3" fill="#fff874" stroke="#eb9c26" /><rect x="1508.0" y="369.0" width="12.0" height="3" fill="#80c9ff" stroke="#0b6cba" /><rect x="1534.0" y="369.0" width="12.0" height="3" fill="#ff83f4" stroke="#d002bc" /><rect x="1508.0" y="415.5" width="12.0" height="3" fill="#80c9ff" stroke="#0b6cba" /><rect x="1508.0" y="446.0" width="12.0" height="3" fill="#80c9ff" stroke="#0b6cba" /><rect x="1534.0" y="446.0" width="12.0" height="3" fill="#ff83f4" stroke="#d002bc" /><rect x="1495.0" y="538.5" width="12.0" height="3" fill="#35df39" stroke="#03aa10" /><rect x="1495.0" y="554.0" width="12.0" height="3" fill="#35df39" stroke="#03aa10" /><rect x="1521.0" y="554.0" width="12.0" height="3" fill="#fff874" stroke="#eb9c26" /><rect x="1495.0" y="600.0" width="12.0" height="3" fill="#35df39" stroke="#03aa10" /><rect x="1495.0" y="631.0" width="12.0" height="3" fill="#35df39" stroke="#03aa10" /><rect x="1521.0" y="631.0" width="12.0" height="3" fill="#fff874" stroke="#eb9c26" /><rect x="1495.0" y="723.0" width="12.0" height="3" fill="#35df39" stroke="#03aa10" /><rect x="1609.0" y="0.0" width="12.0" height="3" fill="#35df39" stroke="#03aa10" /><rect x="1635.0" y="0.0" width="12.0" height="3" fill="#fff874" stroke="#eb9c26" /><rect x="1609.0" y="46.0" width="12.0" height="3" fill="#35df39" stroke="#03aa10" /><rect x="1609.0" y="77.0" width="12.0" height="3" fill="#35df39" stroke="#03aa10" /><rect x="1635.0" y="77.0" width="12.0" height="3" fill="#fff874" stroke="#eb9c26" /><rect x="1609.0" y="123.0" width="12.0" height="3" fill="#35df39" stroke="#03aa10" /><rect x="1609.0" y="138.5" width="12.0" height="3" fill="#35df39" stroke="#03aa10" /><rect x="1635.0" y="138.5" width="12.0" height="3" fill="#fff874" stroke="#eb9c26" /><rect x="1609.0" y="184.5" width="12.0" height="3" fill="#35df39" stroke="#03aa10" /><rect x="1635.0" y="184.5" width="12.0" height="3" fill="#fff874" stroke="#eb9c26" /><rect x="1609.0" y="230.5" width="12.0" height="3" fill="#35df39" stroke="#03aa10" /><rect x="1622.0" y="261.5" width="12.0" height="3" fill="#80c9ff" stroke="#0b6cba" /><rect x="1635.0" y="261.5" width="12.0" height="3" fill="#fff874" stroke="#eb9c26" /><rect x="1622.0" y="323.0" width="12.0" height="3" fill="#80c9ff" stroke="#0b6cba" /><rect x="1635.0" y="323.0" width="12.0" height="3" fill="#fff874" stroke="#eb9c26" /><rect x="1622.0" y="354.0" width="12.0" height="3" fill="#80c9ff" stroke="#0b6cba" /><rect x="1622.0" y="369.0" width="12.0" height="3" fill="#80c9ff" stroke="#0b6cba" /><rect x="1622.0" y="400.0" width="12.0" height="3" fill="#80c9ff" stroke="#0b6cba" /><rect x="1635.0" y="400.0" width="12.0" height="3" fill="#fff874" stroke="#eb9c26" /><rect x="1622.0" y="415.5" width="12.0" height="3" fill="#80c9ff" stroke="#0b6cba" /><rect x="1635.0" y="415.5" width="12.0" height="3" fill="#fff874" stroke="#eb9c26" /><rect x="1622.0" y="461.5" width="12.0" height="3" fill="#80c9ff" stroke="#0b6cba" /><rect x="1635.0" y="461.5" width="12.0" height="3" fill="#fff874" stroke="#eb9c26" /><rect x="1622.0" y="492.5" width="12.0" height="3" fill="#80c9ff" stroke="#0b6cba" /><rect x="1635.0" y="492.5" width="12.0" height="3" fill="#fff874" stroke="#eb9c26" /><rect x="1622.0" y="507.5" width="12.0" height="3" fill="#80c9ff" stroke="#0b6cba" /><rect x="1635.0" y="507.5" width="12.0" height="3" fill="#fff874" stroke="#eb9c26" /><rect x="1635.0" y="554.0" width="12.0" height="3" fill="#fff874" stroke="#eb9c26" /><rect x="1635.0" y="584.5" width="12.0" height="3" fill="#fff874" stroke="#eb9c26" /><rect x="1635.0" y="600.0" width="12.0" height="3" fill="#fff874" stroke="#eb9c26" /><rect x="1635.0" y="646.0" width="12.0" height="3" fill="#fff874" stroke="#eb9c26" /><rect x="1635.0" y="677.0" width="12.0" height="3" fill="#fff874" stroke="#eb9c26" /><rect x="1635.0" y="692.5" width="12.0" height="3" fill="#fff874" stroke="#eb9c26" /><rect x="1749.0" y="0.0" width="12.0" height="3" fill="#fff874" stroke="#eb9c26" /><rect x="1762.0" y="0.0" width="12.0" height="3" fill="#ff83f4" stroke="#d002bc" /><rect x="1749.0" y="30.5" width="12.0" height="3" fill="#fff874" stroke="#eb9c26" /><rect x="1762.0" y="30.5" width="12.0" height="3" fill="#ff83f4" stroke="#d002bc" /><rect x="1749.0" y="46.0" width="12.0" height="3" fill="#fff874" stroke="#eb9c26" /><rect x="1762.0" y="46.0" width="12.0" height="3" fill="#ff83f4" stroke="#d002bc" /><rect x="1749.0" y="92.0" width="12.0" height="3" fill="#fff874" stroke="#eb9c26" /><rect x="1762.0" y="92.0" width="12.0" height="3" fill="#ff83f4" stroke="#d002bc" /><rect x="1749.0" y="123.0" width="12.0" height="3" fill="#fff874" stroke="#eb9c26" /><rect x="1762.0" y="123.0" width="12.0" height="3" fill="#ff83f4" stroke="#d002bc" /><rect x="1749.0" y="138.5" width="12.0" height="3" fill="#fff874" stroke="#eb9c26" /><rect x="1762.0" y="138.5" width="12.0" height="3" fill="#ff83f4" stroke="#d002bc" /><rect x="1749.0" y="184.5" width="12.0" height="3" fill="#fff874" stroke="#eb9c26" /><rect x="1749.0" y="215.5" width="12.0" height="3" fill="#fff874" stroke="#eb9c26" /><rect x="1749.0" y="230.5" width="12.0" height="3" fill="#fff874" stroke="#eb9c26" /><rect x="1762.0" y="277.0" width="12.0" height="3" fill="#ff83f4" stroke="#d002bc" /><rect x="1749.0" y="323.0" width="12.0" height="3" fill="#fff874" stroke="#eb9c26" /><rect x="1736.0" y="369.0" width="12.0" height="3" fill="#80c9ff" stroke="#0b6cba" /><rect x="1762.0" y="369.0" width="12.0" height="3" fill="#ff83f4" stroke="#d002bc" /><rect x="1736.0" y="415.5" width="12.0" height="3" fill="#80c9ff" stroke="#0b6cba" /><rect x="1736.0" y="446.0" width="12.0" height="3" fill="#80c9ff" stroke="#0b6cba" /><rect x="1762.0" y="446.0" width="12.0" height="3" fill="#ff83f4" stroke="#d002bc" /><rect x="1723.0" y="538.5" width="12.0" height="3" fill="#35df39" stroke="#03aa10" /><rect x="1723.0" y="554.0" width="12.0" height="3" fill="#35df39" stroke="#03aa10" /><rect x="1749.0" y="554.0" width="12.0" height="3" fill="#fff874" stroke="#eb9c26" /><rect x="1723.0" y="600.0" width="12.0" height="3" fill="#35df39" stroke="#03aa10" /><rect x="1723.0" y="630.5" width="12.0" height="3" fill="#35df39" stroke="#03aa10" /><rect x="1749.0" y="630.5" width="12.0" height="3" fill="#fff874" stroke="#eb9c26" /><rect x="1723.0" y="723.0" width="12.0" height="3" fill="#35df39" stroke="#03aa10" /><rect x="1837.0" y="0.0" width="12.0" height="3" fill="#35df39" stroke="#03aa10" /><rect x="1863.0" y="0.0" width="12.0" height="3" fill="#fff874" stroke="#eb9c26" /><rect x="1837.0" y="46.0" width="12.0" height="3" fill="#35df39" stroke="#03aa10" /><rect x="1850.0" y="77.0" width="12.0" height="3" fill="#80c9ff" stroke="#0b6cba" /><rect x="1863.0" y="77.0" width="12.0" height="3" fill="#fff874" stroke="#eb9c26" /><rect x="1850.0" y="138.5" width="12.0" height="3" fill="#80c9ff" stroke="#0b6cba" /><rect x="1850.0" y="169.0" width="12.0" height="3" fill="#80c9ff" stroke="#0b6cba" /><rect x="1850.0" y="184.5" width="12.0" height="3" fill="#80c9ff" stroke="#0b6cba" /><rect x="1863.0" y="184.5" width="12.0" height="3" fill="#fff874" stroke="#eb9c26" /><rect x="1850.0" y="230.5" width="12.0" height="3" fill="#80c9ff" stroke="#0b6cba" /><rect x="1850.0" y="261.5" width="12.0" height="3" fill="#80c9ff" stroke="#0b6cba" /><rect x="1876.0" y="261.5" width="12.0" height="3" fill="#ff83f4" stroke="#d002bc" /><rect x="1850.0" y="307.5" width="12.0" height="3" fill="#80c9ff" stroke="#0b6cba" /><rect x="1863.0" y="323.0" width="12.0" height="3" fill="#fff874" stroke="#eb9c26" /><rect x="1837.0" y="369.0" width="12.0" height="3" fill="#35df39" stroke="#03aa10" /><rect x="1824.0" y="415.5" width="12.0" height="3" fill="#ff3c3c" stroke="#c71f1f" /><rect x="1837.0" y="461.5" width="12.0" height="3" fill="#35df39" stroke="#03aa10" /><rect x="1824.0" y="507.5" width="12.0" height="3" fill="#ff3c3c" stroke="#c71f1f" /><rect x="1850.0" y="553.5" width="12.0" height="3" fill="#80c9ff" stroke="#0b6cba" /><rect x="1824.0" y="600.0" width="12.0" height="3" fill="#ff3c3c" stroke="#c71f1f" /><rect x="1863.0" y="646.0" width="12.0" height="3" fill="#fff874" stroke="#eb9c26" /><rect x="1850.0" y="692.0" width="12.0" height="3" fill="#80c9ff" stroke="#0b6cba" /><rect x="1951.0" y="0.0" width="12.0" height="3" fill="#35df39" stroke="#03aa10" /><rect x="1938.0" y="46.0" width="12.0" height="3" fill="#ff3c3c" stroke="#c71f1f" /><rect x="1951.0" y="92.0" width="12.0" height="3" fill="#35df39" stroke="#03aa10" /><rect x="1938.0" y="138.5" width="12.0" height="3" fill="#ff3c3c" stroke="#c71f1f" /><rect x="1964.0" y="184.5" width="12.0" height="3" fill="#80c9ff" stroke="#0b6cba" /><rect x="1951.0" y="230.5" width="12.0" height="3" fill="#35df39" stroke="#03aa10" /><rect x="1964.0" y="277.0" width="12.0" height="3" fill="#80c9ff" stroke="#0b6cba" /><rect x="1977.0" y="323.0" width="12.0" height="3" fill="#fff874" stroke="#eb9c26" /><rect x="1990.0" y="369.0" width="12.0" height="3" fill="#ff83f4" stroke="#d002bc" /><rect x="1964.0" y="446.0" width="12.0" height="3" fill="#80c9ff" stroke="#0b6cba" /><rect x="1990.0" y="507.5" width="12.0" height="3" fill="#ff83f4" stroke="#d002bc" /><rect x="1977.0" y="553.5" width="12.0" height="3" fill="#fff874" stroke="#eb9c26" /><rect x="1951.0" y="630.5" width="12.0" height="3" fill="#35df39" stroke="#03aa10" /><rect x="1951.0" y="692.0" width="12.0" height="3" fill="#35df39" stroke="#03aa10" /><rect x="1964.0" y="723.0" width="12.0" height="3" fill="#80c9ff" stroke="#0b6cba" /><rect x="2091.0" y="0.0" width="12.0" height="3" fill="#fff874" stroke="#eb9c26" /><rect x="2065.0" y="76.5" width="12.0" height="3" fill="#35df39" stroke="#03aa10" /><rect x="2091.0" y="138.5" width="12.0" height="3" fill="#fff874" stroke="#eb9c26" /><rect x="2078.0" y="184.5" width="12.0" height="3" fill="#80c9ff" stroke="#0b6cba" /><rect x="2052.0" y="261.5" width="12.0" height="3" fill="#ff3c3c" stroke="#c71f1f" /><rect x="2052.0" y="323.0" width="12.0" height="3" fill="#ff3c3c" stroke="#c71f1f" /><rect x="2065.0" y="353.5" width="12.0" height="3" fill="#35df39" stroke="#03aa10" /><rect x="2078.0" y="369.0" width="12.0" height="3" fill="#80c9ff" stroke="#0b6cba" /><rect x="2052.0" y="446.0" width="12.0" height="3" fill="#ff3c3c" stroke="#c71f1f" /><rect x="2078.0" y="507.5" width="12.0" height="3" fill="#80c9ff" stroke="#0b6cba" /><rect x="2065.0" y="553.5" width="12.0" height="3" fill="#35df39" stroke="#03aa10" /><rect x="2078.0" y="600.0" width="12.0" height="3" fill="#80c9ff" stroke="#0b6cba" /><rect x="2091.0" y="646.0" width="12.0" height="3" fill="#fff874" stroke="#eb9c26" /><rect x="2065.0" y="692.0" width="12.0" height="3" fill="#35df39" stroke="#03aa10" /><rect x="2192.0" y="0.0" width="12.0" height="3" fill="#80c9ff" stroke="#0b6cba" /><rect x="2192.0" y="15.0" width="12.0" height="3" fill="#80c9ff" stroke="#0b6cba" /><rect x="2218.0" y="46.0" width="12.0" height="3" fill="#ff83f4" stroke="#d002bc" /><rect x="2218.0" y="92.0" width="12.0" height="3" fill="#ff83f4" stroke="#d002bc" /><rect x="2192.0" y="138.0" width="12.0" height="3" fill="#80c9ff" stroke="#0b6cba" /><rect x="2205.0" y="138.0" width="12.0" height="3" fill="#fff874" stroke="#eb9c26" /><rect x="2192.0" y="184.5" width="12.0" height="124.65" fill="#80c9ff" stroke="#0b6cba" /><rect x="2205.0" y="184.5" width="12.0" height="124.65" fill="#fff874" stroke="#eb9c26" /><rect x="2192.0" y="323.0" width="12.0" height="3" fill="#80c9ff" stroke="#0b6cba" /><rect x="2192.0" y="369.0" width="12.0" height="3" fill="#80c9ff" stroke="#0b6cba" /><rect x="2205.0" y="446.0" width="12.0" height="3" fill="#fff874" stroke="#eb9c26" /><rect x="2218.0" y="507.5" width="12.0" height="3" fill="#ff83f4" stroke="#d002bc" /><rect x="2218.0" y="553.5" width="12.0" height="3" fill="#ff83f4" stroke="#d002bc" /><rect x="2205.0" y="630.5" width="12.0" height="3" fill="#fff874" stroke="#eb9c26" /><rect x="2192.0" y="692.0" width="12.0" height="3" fill="#80c9ff" stroke="#0b6cba" /><rect x="2306.0" y="0.0" width="12.0" height="3" fill="#80c9ff" stroke="#0b6cba" /><rect x="2293.0" y="46.5" width="12.0" height="3" fill="#35df39" stroke="#03aa10" /><rect x="2306.0" y="46.5" width="12.0" height="3" fill="#80c9ff" stroke="#0b6cba" /><rect x="2293.0" y="92.5" width="12.0" height="3" fill="#35df39" stroke="#03aa10" /><rect x="2306.0" y="92.5" width="12.0" height="3" fill="#80c9ff" stroke="#0b6cba" /><rect x="2306.0" y="138.5" width="12.0" height="3" fill="#80c9ff" stroke="#0b6cba" /><rect x="2319.0" y="138.5" width="12.0" height="3" fill="#fff874" stroke="#eb9c26" /><rect x="2306.0" y="185.0" width="12.0" height="124.65" fill="#80c9ff" stroke="#0b6cba" /><rect x="2319.0" y="185.0" width="12.0" height="124.65" fill="#fff874" stroke="#eb9c26" /><rect x="2293.0" y="323.5" width="12.0" height="3" fill="#35df39" stroke="#03aa10" /><rect x="2293.0" y="369.5" width="12.0" height="3" fill="#35df39" stroke="#03aa10" /><rect x="2280.0" y="415.5" width="12.0" height="3" fill="#ff3c3c" stroke="#c71f1f" /><rect x="2293.0" y="462.0" width="12.0" height="3" fill="#35df39" stroke="#03aa10" /><rect x="2306.0" y="508.0" width="12.0" height="3" fill="#80c9ff" stroke="#0b6cba" /><rect x="2319.0" y="554.0" width="12.0" height="83.25" fill="#fff874" stroke="#eb9c26" /><rect x="2306.0" y="646.5" width="12.0" height="3" fill="#80c9ff" stroke="#0b6cba" /><rect x="2293.0" y="692.5" width="12.0" height="3" fill="#35df39" stroke="#03aa10" /><rect x="2407.0" y="0.0" width="12.0" height="3" fill="#35df39" stroke="#03aa10" /><rect x="2394.0" y="46.5" width="12.0" height="3" fill="#ff3c3c" stroke="#c71f1f" /><rect x="2394.0" y="92.5" width="12.0" height="3" fill="#ff3c3c" stroke="#c71f1f" /><rect x="2407.0" y="138.5" width="12.0" height="3" fill="#35df39" stroke="#03aa10" /><rect x="2420.0" y="185.0" width="12.0" height="3" fill="#80c9ff" stroke="#0b6cba" /><rect x="2407.0" y="231.0" width="12.0" height="3" fill="#35df39" stroke="#03aa10" /><rect x="2394.0" y="277.0" width="12.0" height="3" fill="#ff3c3c" stroke="#c71f1f" /><rect x="2407.0" y="323.5" width="12.0" height="3" fill="#35df39" stroke="#03aa10" /><rect x="2407.0" y="369.5" width="12.0" height="3" fill="#35df39" stroke="#03aa10" /><rect x="2420.0" y="369.5" width="12.0" height="3" fill="#80c9ff" stroke="#0b6cba" /><rect x="2407.0" y="554.0" width="12.0" height="3" fill="#35df39" stroke="#03aa10" /><rect x="2420.0" y="554.0" width="12.0" height="3" fill="#80c9ff" stroke="#0b6cba" /><rect x="2407.0" y="631.0" width="12.0" height="107.5" fill="#35df39" stroke="#03aa10" /><rect x="2420.0" y="631.0" width="12.0" height="107.5" fill="#80c9ff" stroke="#0b6cba" /><rect x="2560.0" y="1046.5" width="12.0" height="3" fill="#ff83f4" stroke="#d002bc" /><rect x="2508" y="1046.5" width="64" height="3" fill="#ff72e7" stroke="#7c7c7c" /><rect x="2521.0" y="0.0" width="12.0" height="854.1126733102253" fill="#35df39" stroke="#03aa10" /><rect x="2534.0" y="0.0" width="12.0" height="854.1126733102253" fill="#80c9ff" stroke="#0b6cba" /></svg>