<?xml version="1.0" encoding="UTF-8"?><svg xmlns="http://www.w3.org/2000/svg" xmlns:xlink="http://www.w3.org/1999/xlink"     width="1482" height="1335.5" viewBox="0 0 1482 1335.5"><defs></defs><rect x="0" y="0" width="64" height="1321.0" fill="black" /><rect x="0" y="0.0" width="64" height="1" fill="white" fill-opacity="0.5" /><text x="74" y="14.0" font-size="14" fill="white" font-family="monospace" dominant-baseline="ideographic">1</text><rect x="0" y="82.5" width="64" height="1" fill="white" fill-opacity="0.2" /><rect x="0" y="165.0" width="64" height="1" fill="white" fill-opacity="0.2" /><rect x="0" y="247.5" width="64" height="1" fill="white" fill-opacity="0.2" /><rect x="0" y="330.5" width="64" height="1" fill="white" fill-opacity="0.5" /><text x="74" y="344.5" font-size="14" fill="white" font-family="monospace" dominant-baseline="ideographic">2</text><rect x="0" y="413.0" width="64" height="1" fill="white" fill-opacity="0.2" /><rect x="0" y="495.5" width="64" height="1" fill="white" fill-opacity="0.2" /><rect x="0" y="578.0" width="64" height="1" fill="white" fill-opacity="0.2" /><rect x="0" y="660.5" width="64" height="1" fill="white" fill-opacity="0.5" /><text x="74" y="674.5" font-size="14" fill="white" font-family="monospace" dominant-baseline="ideographic">3</text><rect x="0" y="743.0" width="64" height="1" fill="white" fill-opacity="0.2" /><rect x="0" y="825.5" width="64" height="1" fill="white" fill-opacity="0.2" /><rect x="0" y="908.5" width="64" height="1" fill="white" fill-opacity="0.2" /><rect x="0" y="991.0" width="64" height="1" fill="white" fill-opacity="0.5" /><text x="74" y="1005.0" font-size="14" fill="white" font-family="monospace" dominant-baseline="ideographic">4</text><rect x="0" y="1073.5" width="64" height="1" fill="white" fill-opacity="0.2" /><rect x="0" y="1156.0" width="64" height="1" fill="white" fill-opacity="0.2" /><rect x="0" y="1238.5" width="64" height="1" fill="white" fill-opacity="0.2" /><rect x="0" y="1321.0" width="64" height="1" fill="white" fill-opacity="0.5" /><text x="74" y="1335.0" font-size="14" fill="white" font-family="monospace" dominant-baseline="ideographic">5</text><rect x="0" y="0.0" width="64" height="1" fill="aqua" fill-opacity="0.75" /><text x="0" y="14.0" font-size="14" fill="aqua" fill-opacity="0.75" font-family="monospace">Intro</text><rect x="0" y="0.0" width="64" height="1" fill="lime" fill-opacity="0.75" /><text x="74" y="28.0" font-size="14" fill="lime" font-family="monospace" dominant-baseline="ideographic">109</text><rect x="114" y="0" width="64" height="1321.0" fill="black" /><rect x="114" y="0.0" width="64" height="1" fill="white" fill-opacity="0.5" /><text x="188" y="14.0" font-size="14" fill="white" font-family="monospace" dominant-baseline="ideographic">5</text><rect x="114" y="82.5" width="64" height="1" fill="white" fill-opacity="0.2" /><rect x="114" y="165.0" width="64" height="1" fill="white" fill-opacity="0.2" /><rect x="114" y="248.0" width="64" height="1" fill="white" fill-opacity="0.2" /><rect x="114" y="330.5" width="64" height="1" fill="white" fill-opacity="0.5" /><text x="188" y="344.5" font-size="14" fill="white" font-family="monospace" dominant-baseline="ideographic">6</text><rect x="114" y="413.0" width="64" height="1" fill="white" fill-opacity="0.2" /><rect x="114" y="495.5" width="64" height="1" fill="white" fill-opacity="0.2" /><rect x="114" y="578.0" width="64" height="1" fill="white" fill-opacity="0.2" /><rect x="114" y="660.5" width="64" height="1" fill="white" fill-opacity="0.5" /><text x="188" y="674.5" font-size="14" fill="white" font-family="monospace" dominant-baseline="ideographic">7</text><rect x="114" y="743.0" width="64" height="1" fill="white" fill-opacity="0.2" /><rect x="114" y="826.0" width="64" height="1" fill="white" fill-opacity="0.2" /><rect x="114" y="908.5" width="64" height="1" fill="white" fill-opacity="0.2" /><rect x="114" y="991.0" width="64" height="1" fill="white" fill-opacity="0.5" /><text x="188" y="1005.0" font-size="14" fill="white" font-family="monospace" dominant-baseline="ideographic">8</text><rect x="114" y="1073.5" width="64" height="1" fill="white" fill-opacity="0.2" /><rect x="114" y="1156.0" width="64" height="1" fill="white" fill-opacity="0.2" /><rect x="114" y="1238.5" width="64" height="1" fill="white" fill-opacity="0.2" /><rect x="114" y="1321.0" width="64" height="1" fill="white" fill-opacity="0.5" /><text x="188" y="1335.0" font-size="14" fill="white" font-family="monospace" dominant-baseline="ideographic">9</text><rect x="228" y="0" width="64" height="1321.5" fill="black" /><rect x="228" y="0.0" width="64" height="1" fill="white" fill-opacity="0.5" /><text x="302" y="14.0" font-size="14" fill="white" font-family="monospace" dominant-baseline="ideographic">9</text><rect x="228" y="83.0" width="64" height="1" fill="white" fill-opacity="0.2" /><rect x="228" y="165.5" width="64" height="1" fill="white" fill-opacity="0.2" /><rect x="228" y="248.0" width="64" height="1" fill="white" fill-opacity="0.2" /><rect x="228" y="330.5" width="64" height="1" fill="white" fill-opacity="0.5" /><text x="302" y="344.5" font-size="14" fill="white" font-family="monospace" dominant-baseline="ideographic">10</text><rect x="228" y="413.0" width="64" height="1" fill="white" fill-opacity="0.2" /><rect x="228" y="495.5" width="64" height="1" fill="white" fill-opacity="0.2" /><rect x="228" y="578.0" width="64" height="1" fill="white" fill-opacity="0.2" /><rect x="228" y="660.5" width="64" height="1" fill="white" fill-opacity="0.5" /><text x="302" y="674.5" font-size="14" fill="white" font-family="monospace" dominant-baseline="ideographic">11</text><rect x="228" y="743.5" width="64" height="1" fill="white" fill-opacity="0.2" /><rect x="228" y="826.0" width="64" height="1" fill="white" fill-opacity="0.2" /><rect x="228" y="908.5" width="64" height="1" fill="white" fill-opacity="0.2" /><rect x="228" y="991.0" width="64" height="1" fill="white" fill-opacity="0.5" /><text x="302" y="1005.0" font-size="14" fill="white" font-family="monospace" dominant-baseline="ideographic">12</text><rect x="228" y="1073.5" width="64" height="1" fill="white" fill-opacity="0.2" /><rect x="228" y="1156.0" width="64" height="1" fill="white" fill-opacity="0.2" /><rect x="228" y="1238.5" width="64" height="1" fill="white" fill-opacity="0.2" /><rect x="228" y="1321.5" width="64" height="1" fill="white" fill-opacity="0.5" /><text x="302" y="1335.5" font-size="14" fill="white" font-family="monospace" dominant-baseline="ideographic">13</text><rect x="228" y="0.25" width="64" height="1" fill="aqua" fill-opacity="0.75" /><text x="228" y="14.25" font-size="14" fill="aqua" fill-opacity="0.75" font-family="monospace">Phrase A</text><rect x="342" y="0" width="64" height="1321.0" fill="black" /><rect x="342" y="0.0" width="64" height="1" fill="white" fill-opacity="0.5" /><text x="416" y="14.0" font-size="14" fill="white" font-family="monospace" dominant-baseline="ideographic">13</text><rect x="342" y="82.5" width="64" height="1" fill="white" fill-opacity="0.2" /><rect x="342" y="165.0" width="64" height="1" fill="white" fill-opacity="0.2" /><rect x="342" y="247.5" width="64" height="1" fill="white" fill-opacity="0.2" /><rect x="342" y="330.0" width="64" height="1" fill="white" fill-opacity="0.5" /><text x="416" y="344.0" font-size="14" fill="white" font-family="monospace" dominant-baseline="ideographic">14</text><rect x="342" y="412.5" width="64" height="1" fill="white" fill-opacity="0.2" /><rect x="342" y="495.0" width="64" height="1" fill="white" fill-opacity="0.2" /><rect x="342" y="578.0" width="64" height="1" fill="white" fill-opacity="0.2" /><rect x="342" y="660.5" width="64" height="1" fill="white" fill-opacity="0.5" /><text x="416" y="674.5" font-size="14" fill="white" font-family="monospace" dominant-baseline="ideographic">15</text><rect x="342" y="743.0" width="64" height="1" fill="white" fill-opacity="0.2" /><rect x="342" y="825.5" width="64" height="1" fill="white" fill-opacity="0.2" /><rect x="342" y="908.0" width="64" height="1" fill="white" fill-opacity="0.2" /><rect x="342" y="990.5" width="64" height="1" fill="white" fill-opacity="0.5" /><text x="416" y="1004.5" font-size="14" fill="white" font-family="monospace" dominant-baseline="ideographic">16</text><rect x="342" y="1073.0" width="64" height="1" fill="white" fill-opacity="0.2" /><rect x="342" y="1156.0" width="64" height="1" fill="white" fill-opacity="0.2" /><rect x="342" y="1238.5" width="64" height="1" fill="white" fill-opacity="0.2" /><rect x="342" y="1321.0" width="64" height="1" fill="white" fill-opacity="0.5" /><text x="416" y="1335.0" font-size="14" fill="white" font-family="monospace" dominant-baseline="ideographic">17</text><rect x="456" y="0" width="64" height="1321.0" fill="black" /><rect x="456" y="0.0" width="64" height="1" fill="white" fill-opacity="0.5" /><text x="530" y="14.0" font-size="14" fill="white" font-family="monospace" dominant-baseline="ideographic">17</text><rect x="456" y="82.5" width="64" height="1" fill="white" fill-opacity="0.2" /><rect x="456" y="165.0" width="64" height="1" fill="white" fill-opacity="0.2" /><rect x="456" y="247.5" width="64" height="1" fill="white" fill-opacity="0.2" /><rect x="456" y="330.0" width="64" height="1" fill="white" fill-opacity="0.5" /><text x="530" y="344.0" font-size="14" fill="white" font-family="monospace" dominant-baseline="ideographic">18</text><rect x="456" y="412.5" width="64" height="1" fill="white" fill-opacity="0.2" /><rect x="456" y="495.5" width="64" height="1" fill="white" fill-opacity="0.2" /><rect x="456" y="578.0" width="64" height="1" fill="white" fill-opacity="0.2" /><rect x="456" y="660.5" width="64" height="1" fill="white" fill-opacity="0.5" /><text x="530" y="674.5" font-size="14" fill="white" font-family="monospace" dominant-baseline="ideographic">19</text><rect x="456" y="743.0" width="64" height="1" fill="white" fill-opacity="0.2" /><rect x="456" y="825.5" width="64" height="1" fill="white" fill-opacity="0.2" /><rect x="456" y="908.0" width="64" height="1" fill="white" fill-opacity="0.2" /><rect x="456" y="990.5" width="64" height="1" fill="white" fill-opacity="0.5" /><text x="530" y="1004.5" font-size="14" fill="white" font-family="monospace" dominant-baseline="ideographic">20</text><rect x="456" y="1073.5" width="64" height="1" fill="white" fill-opacity="0.2" /><rect x="456" y="1156.0" width="64" height="1" fill="white" fill-opacity="0.2" /><rect x="456" y="1238.5" width="64" height="1" fill="white" fill-opacity="0.2" /><rect x="456" y="1321.0" width="64" height="1" fill="white" fill-opacity="0.5" /><text x="530" y="1335.0" font-size="14" fill="white" font-family="monospace" dominant-baseline="ideographic">21</text><rect x="456" y="-0.1500000000005457" width="64" height="1" fill="aqua" fill-opacity="0.75" /><text x="456" y="13.849999999999454" font-size="14" fill="aqua" fill-opacity="0.75" font-family="monospace">Phrase B</text><rect x="570" y="0" width="64" height="1321.0" fill="black" /><rect x="570" y="0.0" width="64" height="1" fill="white" fill-opacity="0.5" /><text x="644" y="14.0" font-size="14" fill="white" font-family="monospace" dominant-baseline="ideographic">21</text><rect x="570" y="82.5" width="64" height="1" fill="white" fill-opacity="0.2" /><rect x="570" y="165.0" width="64" height="1" fill="white" fill-opacity="0.2" /><rect x="570" y="247.5" width="64" height="1" fill="white" fill-opacity="0.2" /><rect x="570" y="330.5" width="64" height="1" fill="white" fill-opacity="0.5" /><text x="644" y="344.5" font-size="14" fill="white" font-family="monospace" dominant-baseline="ideographic">22</text><rect x="570" y="413.0" width="64" height="1" fill="white" fill-opacity="0.2" /><rect x="570" y="495.5" width="64" height="1" fill="white" fill-opacity="0.2" /><rect x="570" y="578.0" width="64" height="1" fill="white" fill-opacity="0.2" /><rect x="570" y="660.5" width="64" height="1" fill="white" fill-opacity="0.5" /><text x="644" y="674.5" font-size="14" fill="white" font-family="monospace" dominant-baseline="ideographic">23</text><rect x="570" y="743.0" width="64" height="1" fill="white" fill-opacity="0.2" /><rect x="570" y="825.5" width="64" height="1" fill="white" fill-opacity="0.2" /><rect x="570" y="908.5" width="64" height="1" fill="white" fill-opacity="0.2" /><rect x="570" y="991.0" width="64" height="1" fill="white" fill-opacity="0.5" /><text x="644" y="1005.0" font-size="14" fill="white" font-family="monospace" dominant-baseline="ideographic">24</text><rect x="570" y="1073.5" width="64" height="1" fill="white" fill-opacity="0.2" /><rect x="570" y="1156.0" width="64" height="1" fill="white" fill-opacity="0.2" /><rect x="570" y="1238.5" width="64" height="1" fill="white" fill-opacity="0.2" /><rect x="570" y="1321.0" width="64" height="1" fill="white" fill-opacity="0.5" /><text x="644" y="1335.0" font-size="14" fill="white" font-family="monospace" dominant-baseline="ideographic">25</text><rect x="684" y="0" width="64" height="1321.0" fill="black" /><rect x="684" y="0.0" width="64" height="1" fill="white" fill-opacity="0.5" /><text x="758" y="14.0" font-size="14" fill="white" font-family="monospace" dominant-baseline="ideographic">25</text><rect x="684" y="82.5" width="64" height="1" fill="white" fill-opacity="0.2" /><rect x="684" y="165.0" width="64" height="1" fill="white" fill-opacity="0.2" /><rect x="684" y="248.0" width="64" height="1" fill="white" fill-opacity="0.2" /><rect x="684" y="330.5" width="64" height="1" fill="white" fill-opacity="0.5" /><text x="758" y="344.5" font-size="14" fill="white" font-family="monospace" dominant-baseline="ideographic">26</text><rect x="684" y="413.0" width="64" height="1" fill="white" fill-opacity="0.2" /><rect x="684" y="495.5" width="64" height="1" fill="white" fill-opacity="0.2" /><rect x="684" y="578.0" width="64" height="1" fill="white" fill-opacity="0.2" /><rect x="684" y="660.5" width="64" height="1" fill="white" fill-opacity="0.5" /><text x="758" y="674.5" font-size="14" fill="white" font-family="monospace" dominant-baseline="ideographic">27</text><rect x="684" y="743.0" width="64" height="1" fill="white" fill-opacity="0.2" /><rect x="684" y="826.0" width="64" height="1" fill="white" fill-opacity="0.2" /><rect x="684" y="908.5" width="64" height="1" fill="white" fill-opacity="0.2" /><rect x="684" y="991.0" width="64" height="1" fill="white" fill-opacity="0.5" /><text x="758" y="1005.0" font-size="14" fill="white" font-family="monospace" dominant-baseline="ideographic">28</text><rect x="684" y="1073.5" width="64" height="1" fill="white" fill-opacity="0.2" /><rect x="684" y="1156.0" width="64" height="1" fill="white" fill-opacity="0.2" /><rect x="684" y="1238.5" width="64" height="1" fill="white" fill-opacity="0.2" /><rect x="684" y="1321.0" width="64" height="1" fill="white" fill-opacity="0.5" /><text x="758" y="1335.0" font-size="14" fill="white" font-family="monospace" dominant-baseline="ideographic">29</text><rect x="684" y="0.0999999999994543" width="64" height="1" fill="aqua" fill-opacity="0.75" /><text x="684" y="14.099999999999454" font-size="14" fill="aqua" fill-opacity="0.75" font-family="monospace">Special</text><rect x="798" y="0" width="64" height="1321.5" fill="black" /><rect x="798" y="0.0" width="64" height="1" fill="white" fill-opacity="0.5" /><text x="872" y="14.0" font-size="14" fill="white" font-family="monospace" dominant-baseline="ideographic">29</text><rect x="798" y="83.0" width="64" height="1" fill="white" fill-opacity="0.2" /><rect x="798" y="165.5" width="64" height="1" fill="white" fill-opacity="0.2" /><rect x="798" y="248.0" width="64" height="1" fill="white" fill-opacity="0.2" /><rect x="798" y="330.5" width="64" height="1" fill="white" fill-opacity="0.5" /><text x="872" y="344.5" font-size="14" fill="white" font-family="monospace" dominant-baseline="ideographic">30</text><rect x="798" y="413.0" width="64" height="1" fill="white" fill-opacity="0.2" /><rect x="798" y="495.5" width="64" height="1" fill="white" fill-opacity="0.2" /><rect x="798" y="578.0" width="64" height="1" fill="white" fill-opacity="0.2" /><rect x="798" y="660.5" width="64" height="1" fill="white" fill-opacity="0.5" /><text x="872" y="674.5" font-size="14" fill="white" font-family="monospace" dominant-baseline="ideographic">31</text><rect x="798" y="743.5" width="64" height="1" fill="white" fill-opacity="0.2" /><rect x="798" y="826.0" width="64" height="1" fill="white" fill-opacity="0.2" /><rect x="798" y="908.5" width="64" height="1" fill="white" fill-opacity="0.2" /><rect x="798" y="991.0" width="64" height="1" fill="white" fill-opacity="0.5" /><text x="872" y="1005.0" font-size="14" fill="white" font-family="monospace" dominant-baseline="ideographic">32</text><rect x="798" y="1073.5" width="64" height="1" fill="white" fill-opacity="0.2" /><rect x="798" y="1156.0" width="64" height="1" fill="white" fill-opacity="0.2" /><rect x="798" y="1238.5" width="64" height="1" fill="white" fill-opacity="0.2" /><rect x="798" y="1321.5" width="64" height="1" fill="white" fill-opacity="0.5" /><text x="872" y="1335.5" font-size="14" fill="white" font-family="monospace" dominant-baseline="ideographic">33</text><rect x="912" y="0" width="64" height="1321.0" fill="black" /><rect x="912" y="0.0" width="64" height="1" fill="white" fill-opacity="0.5" /><text x="986" y="14.0" font-size="14" fill="white" font-family="monospace" dominant-baseline="ideographic">33</text><rect x="912" y="82.5" width="64" height="1" fill="white" fill-opacity="0.2" /><rect x="912" y="165.0" width="64" height="1" fill="white" fill-opacity="0.2" /><rect x="912" y="247.5" width="64" height="1" fill="white" fill-opacity="0.2" /><rect x="912" y="330.0" width="64" height="1" fill="white" fill-opacity="0.5" /><text x="986" y="344.0" font-size="14" fill="white" font-family="monospace" dominant-baseline="ideographic">34</text><rect x="912" y="412.5" width="64" height="1" fill="white" fill-opacity="0.2" /><rect x="912" y="495.0" width="64" height="1" fill="white" fill-opacity="0.2" /><rect x="912" y="578.0" width="64" height="1" fill="white" fill-opacity="0.2" /><rect x="912" y="660.5" width="64" height="1" fill="white" fill-opacity="0.5" /><text x="986" y="674.5" font-size="14" fill="white" font-family="monospace" dominant-baseline="ideographic">35</text><rect x="912" y="743.0" width="64" height="1" fill="white" fill-opacity="0.2" /><rect x="912" y="825.5" width="64" height="1" fill="white" fill-opacity="0.2" /><rect x="912" y="908.0" width="64" height="1" fill="white" fill-opacity="0.2" /><rect x="912" y="990.5" width="64" height="1" fill="white" fill-opacity="0.5" /><text x="986" y="1004.5" font-size="14" fill="white" font-family="monospace" dominant-baseline="ideographic">36</text><rect x="912" y="1073.0" width="64" height="1" fill="white" fill-opacity="0.2" /><rect x="912" y="1156.0" width="64" height="1" fill="white" fill-opacity="0.2" /><rect x="912" y="1238.5" width="64" height="1" fill="white" fill-opacity="0.2" /><rect x="912" y="1321.0" width="64" height="1" fill="white" fill-opacity="0.5" /><text x="986" y="1335.0" font-size="14" fill="white" font-family="monospace" dominant-baseline="ideographic">37</text><rect x="1026" y="0" width="64" height="1321.0" fill="black" /><rect x="1026" y="0.0" width="64" height="1" fill="white" fill-opacity="0.5" /><text x="1100" y="14.0" font-size="14" fill="white" font-family="monospace" dominant-baseline="ideographic">37</text><rect x="1026" y="82.5" width="64" height="1" fill="white" fill-opacity="0.2" /><rect x="1026" y="165.0" width="64" height="1" fill="white" fill-opacity="0.2" /><rect x="1026" y="247.5" width="64" height="1" fill="white" fill-opacity="0.2" /><rect x="1026" y="330.0" width="64" height="1" fill="white" fill-opacity="0.5" /><text x="1100" y="344.0" font-size="14" fill="white" font-family="monospace" dominant-baseline="ideographic">38</text><rect x="1026" y="412.5" width="64" height="1" fill="white" fill-opacity="0.2" /><rect x="1026" y="495.5" width="64" height="1" fill="white" fill-opacity="0.2" /><rect x="1026" y="578.0" width="64" height="1" fill="white" fill-opacity="0.2" /><rect x="1026" y="660.5" width="64" height="1" fill="white" fill-opacity="0.5" /><text x="1100" y="674.5" font-size="14" fill="white" font-family="monospace" dominant-baseline="ideographic">39</text><rect x="1026" y="743.0" width="64" height="1" fill="white" fill-opacity="0.2" /><rect x="1026" y="825.5" width="64" height="1" fill="white" fill-opacity="0.2" /><rect x="1026" y="908.0" width="64" height="1" fill="white" fill-opacity="0.2" /><rect x="1026" y="990.5" width="64" height="1" fill="white" fill-opacity="0.5" /><text x="1100" y="1004.5" font-size="14" fill="white" font-family="monospace" dominant-baseline="ideographic">40</text><rect x="1026" y="1073.5" width="64" height="1" fill="white" fill-opacity="0.2" /><rect x="1026" y="1156.0" width="64" height="1" fill="white" fill-opacity="0.2" /><rect x="1026" y="1238.5" width="64" height="1" fill="white" fill-opacity="0.2" /><rect x="1026" y="1321.0" width="64" height="1" fill="white" fill-opacity="0.5" /><text x="1100" y="1335.0" font-size="14" fill="white" font-family="monospace" dominant-baseline="ideographic">41</text><rect x="1140" y="0" width="64" height="1321.0" fill="black" /><rect x="1140" y="0.0" width="64" height="1" fill="white" fill-opacity="0.5" /><text x="1214" y="14.0" font-size="14" fill="white" font-family="monospace" dominant-baseline="ideographic">41</text><rect x="1140" y="82.5" width="64" height="1" fill="white" fill-opacity="0.2" /><rect x="1140" y="165.0" width="64" height="1" fill="white" fill-opacity="0.2" /><rect x="1140" y="247.5" width="64" height="1" fill="white" fill-opacity="0.2" /><rect x="1140" y="330.5" width="64" height="1" fill="white" fill-opacity="0.5" /><text x="1214" y="344.5" font-size="14" fill="white" font-family="monospace" dominant-baseline="ideographic">42</text><rect x="1140" y="413.0" width="64" height="1" fill="white" fill-opacity="0.2" /><rect x="1140" y="495.5" width="64" height="1" fill="white" fill-opacity="0.2" /><rect x="1140" y="578.0" width="64" height="1" fill="white" fill-opacity="0.2" /><rect x="1140" y="660.5" width="64" height="1" fill="white" fill-opacity="0.5" /><text x="1214" y="674.5" font-size="14" fill="white" font-family="monospace" dominant-baseline="ideographic">43</text><rect x="1140" y="743.0" width="64" height="1" fill="white" fill-opacity="0.2" /><rect x="1140" y="825.5" width="64" height="1" fill="white" fill-opacity="0.2" /><rect x="1140" y="908.0" width="64" height="1" fill="white" fill-opacity="0.2" /><rect x="1140" y="991.0" width="64" height="1" fill="white" fill-opacity="0.5" /><text x="1214" y="1005.0" font-size="14" fill="white" font-family="monospace" dominant-baseline="ideographic">44</text><rect x="1140" y="1073.5" width="64" height="1" fill="white" fill-opacity="0.2" /><rect x="1140" y="1156.0" width="64" height="1" fill="white" fill-opacity="0.2" /><rect x="1140" y="1238.5" width="64" height="1" fill="white" fill-opacity="0.2" /><rect x="1140" y="1321.0" width="64" height="1" fill="white" fill-opacity="0.5" /><text x="1214" y="1335.0" font-size="14" fill="white" font-family="monospace" dominant-baseline="ideographic">45</text><rect x="1140" y="-0.050000000001091394" width="64" height="1" fill="aqua" fill-opacity="0.75" /><text x="1140" y="13.949999999998909" font-size="14" fill="aqua" fill-opacity="0.75" font-family="monospace">Solo</text><rect x="1254" y="0" width="64" height="1321.0" fill="black" /><rect x="1254" y="0.0" width="64" height="1" fill="white" fill-opacity="0.5" /><text x="1328" y="14.0" font-size="14" fill="white" font-family="monospace" dominant-baseline="ideographic">45</text><rect x="1254" y="82.5" width="64" height="1" fill="white" fill-opacity="0.2" /><rect x="1254" y="165.0" width="64" height="1" fill="white" fill-opacity="0.2" /><rect x="1254" y="248.0" width="64" height="1" fill="white" fill-opacity="0.2" /><rect x="1254" y="330.5" width="64" height="1" fill="white" fill-opacity="0.5" /><text x="1328" y="344.5" font-size="14" fill="white" font-family="monospace" dominant-baseline="ideographic">46</text><rect x="1254" y="413.0" width="64" height="1" fill="white" fill-opacity="0.2" /><rect x="1254" y="495.5" width="64" height="1" fill="white" fill-opacity="0.2" /><rect x="1254" y="578.0" width="64" height="1" fill="white" fill-opacity="0.2" /><rect x="1254" y="660.5" width="64" height="1" fill="white" fill-opacity="0.5" /><text x="1328" y="674.5" font-size="14" fill="white" font-family="monospace" dominant-baseline="ideographic">47</text><rect x="1254" y="743.0" width="64" height="1" fill="white" fill-opacity="0.2" /><rect x="1254" y="826.0" width="64" height="1" fill="white" fill-opacity="0.2" /><rect x="1254" y="908.5" width="64" height="1" fill="white" fill-opacity="0.2" /><rect x="1254" y="991.0" width="64" height="1" fill="white" fill-opacity="0.5" /><text x="1328" y="1005.0" font-size="14" fill="white" font-family="monospace" dominant-baseline="ideographic">48</text><rect x="1254" y="1073.5" width="64" height="1" fill="white" fill-opacity="0.2" /><rect x="1254" y="1156.0" width="64" height="1" fill="white" fill-opacity="0.2" /><rect x="1254" y="1238.5" width="64" height="1" fill="white" fill-opacity="0.2" /><rect x="1254" y="1321.0" width="64" height="1" fill="white" fill-opacity="0.5" /><text x="1328" y="1335.0" font-size="14" fill="white" font-family="monospace" dominant-baseline="ideographic">49</text><rect x="1368" y="0" width="64" height="871.0" fill="black" /><rect x="1368" y="0.0" width="64" height="1" fill="white" fill-opacity="0.5" /><text x="1442" y="14.0" font-size="14" fill="white" font-family="monospace" dominant-baseline="ideographic">49</text><rect x="1368" y="83.0" width="64" height="1" fill="white" fill-opacity="0.2" /><rect x="1368" y="165.5" width="64" height="1" fill="white" fill-opacity="0.2" /><rect x="1368" y="248.0" width="64" height="1" fill="white" fill-opacity="0.2" /><rect x="1368" y="330.5" width="64" height="1" fill="white" fill-opacity="0.5" /><text x="1442" y="344.5" font-size="14" fill="white" font-family="monospace" dominant-baseline="ideographic">50</text><rect x="1368" y="413.0" width="64" height="1" fill="white" fill-opacity="0.2" /><rect x="1368" y="495.5" width="64" height="1" fill="white" fill-opacity="0.2" /><rect x="1368" y="578.0" width="64" height="1" fill="white" fill-opacity="0.2" /><rect x="1368" y="660.5" width="64" height="1" fill="white" fill-opacity="0.5" /><text x="1442" y="674.5" font-size="14" fill="white" font-family="monospace" dominant-baseline="ideographic">51</text></svg>