<?xml version="1.0" encoding="UTF-8"?><svg xmlns="http://www.w3.org/2000/svg" xmlns:xlink="http://www.w3.org/1999/xlink"     width="4760" height="871.5" viewBox="0 0 4760 871.5"><defs></defs><rect x="0" y="14.5" width="188" height="857.0" fill="black" /><rect x="0" y="870.5" width="188" height="1" fill="white" fill-opacity="0.5" /><text x="198" y="870.5" font-size="14" fill="white" font-family="monospace" dominant-baseline="initial">1</text><rect x="0" y="817.0" width="188" height="1" fill="white" fill-opacity="0.2" /><rect x="0" y="763.5" width="188" height="1" fill="white" fill-opacity="0.2" /><rect x="0" y="710.0" width="188" height="1" fill="white" fill-opacity="0.2" /><rect x="0" y="656.0" width="188" height="1" fill="white" fill-opacity="0.5" /><text x="198" y="656.0" font-size="14" fill="white" font-family="monospace" dominant-baseline="initial">2</text><rect x="0" y="602.5" width="188" height="1" fill="white" fill-opacity="0.2" /><rect x="0" y="549.0" width="188" height="1" fill="white" fill-opacity="0.2" /><rect x="0" y="495.5" width="188" height="1" fill="white" fill-opacity="0.2" /><rect x="0" y="442.0" width="188" height="1" fill="white" fill-opacity="0.5" /><text x="198" y="442.0" font-size="14" fill="white" font-family="monospace" dominant-baseline="initial">3</text><rect x="0" y="388.5" width="188" height="1" fill="white" fill-opacity="0.2" /><rect x="0" y="335.0" width="188" height="1" fill="white" fill-opacity="0.2" /><rect x="0" y="281.0" width="188" height="1" fill="white" fill-opacity="0.2" /><rect x="0" y="227.5" width="188" height="1" fill="white" fill-opacity="0.5" /><text x="198" y="227.5" font-size="14" fill="white" font-family="monospace" dominant-baseline="initial">4</text><rect x="0" y="174.0" width="188" height="1" fill="white" fill-opacity="0.2" /><rect x="0" y="120.5" width="188" height="1" fill="white" fill-opacity="0.2" /><rect x="0" y="67.0" width="188" height="1" fill="white" fill-opacity="0.2" /><rect x="0" y="13.5" width="188" height="1" fill="white" fill-opacity="0.5" /><text x="198" y="13.5" font-size="14" fill="white" font-family="monospace" dominant-baseline="initial">5</text><rect x="0" y="870.5" width="188" height="1" fill="aqua" fill-opacity="0.75" /><text x="0" y="866.5" font-size="14" fill="aqua" fill-opacity="0.75" font-family="monospace">Intro</text><rect x="0" y="870.5" width="188" height="1" fill="lime" fill-opacity="0.75" /><text x="198" y="857.5" font-size="14" fill="lime" font-family="monospace" dominant-baseline="initial">168</text><rect x="238" y="14.0" width="188" height="857.5" fill="black" /><rect x="238" y="870.5" width="188" height="1" fill="white" fill-opacity="0.5" /><text x="436" y="870.5" font-size="14" fill="white" font-family="monospace" dominant-baseline="initial">5</text><rect x="238" y="817.0" width="188" height="1" fill="white" fill-opacity="0.2" /><rect x="238" y="763.0" width="188" height="1" fill="white" fill-opacity="0.2" /><rect x="238" y="709.5" width="188" height="1" fill="white" fill-opacity="0.2" /><rect x="238" y="656.0" width="188" height="1" fill="white" fill-opacity="0.5" /><text x="436" y="656.0" font-size="14" fill="white" font-family="monospace" dominant-baseline="initial">6</text><rect x="238" y="602.5" width="188" height="1" fill="white" fill-opacity="0.2" /><rect x="238" y="549.0" width="188" height="1" fill="white" fill-opacity="0.2" /><rect x="238" y="495.5" width="188" height="1" fill="white" fill-opacity="0.2" /><rect x="238" y="442.0" width="188" height="1" fill="white" fill-opacity="0.5" /><text x="436" y="442.0" font-size="14" fill="white" font-family="monospace" dominant-baseline="initial">7</text><rect x="238" y="388.0" width="188" height="1" fill="white" fill-opacity="0.2" /><rect x="238" y="334.5" width="188" height="1" fill="white" fill-opacity="0.2" /><rect x="238" y="281.0" width="188" height="1" fill="white" fill-opacity="0.2" /><rect x="238" y="227.5" width="188" height="1" fill="white" fill-opacity="0.5" /><text x="436" y="227.5" font-size="14" fill="white" font-family="monospace" dominant-baseline="initial">8</text><rect x="238" y="174.0" width="188" height="1" fill="white" fill-opacity="0.2" /><rect x="238" y="120.5" width="188" height="1" fill="white" fill-opacity="0.2" /><rect x="238" y="67.0" width="188" height="1" fill="white" fill-opacity="0.2" /><rect x="238" y="13.0" width="188" height="1" fill="white" fill-opacity="0.5" /><text x="436" y="13.0" font-size="14" fill="white" font-family="monospace" dominant-baseline="initial">9</text><rect x="476" y="14.5" width="188" height="857.0" fill="black" /><rect x="476" y="870.5" width="188" height="1" fill="white" fill-opacity="0.5" /><text x="674" y="870.5" font-size="14" fill="white" font-family="monospace" dominant-baseline="initial">9</text><rect x="476" y="817.0" width="188" height="1" fill="white" fill-opacity="0.2" /><rect x="476" y="763.5" width="188" height="1" fill="white" fill-opacity="0.2" /><rect x="476" y="710.0" width="188" height="1" fill="white" fill-opacity="0.2" /><rect x="476" y="656.5" width="188" height="1" fill="white" fill-opacity="0.5" /><text x="674" y="656.5" font-size="14" fill="white" font-family="monospace" dominant-baseline="initial">10</text><rect x="476" y="603.0" width="188" height="1" fill="white" fill-opacity="0.2" /><rect x="476" y="549.5" width="188" height="1" fill="white" fill-opacity="0.2" /><rect x="476" y="495.5" width="188" height="1" fill="white" fill-opacity="0.2" /><rect x="476" y="442.0" width="188" height="1" fill="white" fill-opacity="0.5" /><text x="674" y="442.0" font-size="14" fill="white" font-family="monospace" dominant-baseline="initial">11</text><rect x="476" y="388.5" width="188" height="1" fill="white" fill-opacity="0.2" /><rect x="476" y="335.0" width="188" height="1" fill="white" fill-opacity="0.2" /><rect x="476" y="281.5" width="188" height="1" fill="white" fill-opacity="0.2" /><rect x="476" y="228.0" width="188" height="1" fill="white" fill-opacity="0.5" /><text x="674" y="228.0" font-size="14" fill="white" font-family="monospace" dominant-baseline="initial">12</text><rect x="476" y="174.5" width="188" height="1" fill="white" fill-opacity="0.2" /><rect x="476" y="120.5" width="188" height="1" fill="white" fill-opacity="0.2" /><rect x="476" y="67.0" width="188" height="1" fill="white" fill-opacity="0.2" /><rect x="476" y="13.5" width="188" height="1" fill="white" fill-opacity="0.5" /><text x="674" y="13.5" font-size="14" fill="white" font-family="monospace" dominant-baseline="initial">13</text><rect x="714" y="14.5" width="188" height="857.0" fill="black" /><rect x="714" y="870.5" width="188" height="1" fill="white" fill-opacity="0.5" /><text x="912" y="870.5" font-size="14" fill="white" font-family="monospace" dominant-baseline="initial">13</text><rect x="714" y="817.0" width="188" height="1" fill="white" fill-opacity="0.2" /><rect x="714" y="763.5" width="188" height="1" fill="white" fill-opacity="0.2" /><rect x="714" y="710.0" width="188" height="1" fill="white" fill-opacity="0.2" /><rect x="714" y="656.5" width="188" height="1" fill="white" fill-opacity="0.5" /><text x="912" y="656.5" font-size="14" fill="white" font-family="monospace" dominant-baseline="initial">14</text><rect x="714" y="602.5" width="188" height="1" fill="white" fill-opacity="0.2" /><rect x="714" y="549.0" width="188" height="1" fill="white" fill-opacity="0.2" /><rect x="714" y="495.5" width="188" height="1" fill="white" fill-opacity="0.2" /><rect x="714" y="442.0" width="188" height="1" fill="white" fill-opacity="0.5" /><text x="912" y="442.0" font-size="14" fill="white" font-family="monospace" dominant-baseline="initial">15</text><rect x="714" y="388.5" width="188" height="1" fill="white" fill-opacity="0.2" /><rect x="714" y="335.0" width="188" height="1" fill="white" fill-opacity="0.2" /><rect x="714" y="281.5" width="188" height="1" fill="white" fill-opacity="0.2" /><rect x="714" y="227.5" width="188" height="1" fill="white" fill-opacity="0.5" /><text x="912" y="227.5" font-size="14" fill="white" font-family="monospace" dominant-baseline="initial">16</text><rect x="714" y="174.0" width="188" height="1" fill="white" fill-opacity="0.2" /><rect x="714" y="120.5" width="188" height="1" fill="white" fill-opacity="0.2" /><rect x="714" y="67.0" width="188" height="1" fill="white" fill-opacity="0.2" /><rect x="714" y="13.5" width="188" height="1" fill="white" fill-opacity="0.5" /><text x="912" y="13.5" font-size="14" fill="white" font-family="monospace" dominant-baseline="initial">17</text><rect x="952" y="14.5" width="188" height="857.0" fill="black" /><rect x="952" y="870.5" width="188" height="1" fill="white" fill-opacity="0.5" /><text x="1150" y="870.5" font-size="14" fill="white" font-family="monospace" dominant-baseline="initial">17</text><rect x="952" y="817.0" width="188" height="1" fill="white" fill-opacity="0.2" /><rect x="952" y="763.5" width="188" height="1" fill="white" fill-opacity="0.2" /><rect x="952" y="709.5" width="188" height="1" fill="white" fill-opacity="0.2" /><rect x="952" y="656.0" width="188" height="1" fill="white" fill-opacity="0.5" /><text x="1150" y="656.0" font-size="14" fill="white" font-family="monospace" dominant-baseline="initial">18</text><rect x="952" y="602.5" width="188" height="1" fill="white" fill-opacity="0.2" /><rect x="952" y="549.0" width="188" height="1" fill="white" fill-opacity="0.2" /><rect x="952" y="495.5" width="188" height="1" fill="white" fill-opacity="0.2" /><rect x="952" y="442.0" width="188" height="1" fill="white" fill-opacity="0.5" /><text x="1150" y="442.0" font-size="14" fill="white" font-family="monospace" dominant-baseline="initial">19</text><rect x="952" y="388.5" width="188" height="1" fill="white" fill-opacity="0.2" /><rect x="952" y="334.5" width="188" height="1" fill="white" fill-opacity="0.2" /><rect x="952" y="281.0" width="188" height="1" fill="white" fill-opacity="0.2" /><rect x="952" y="227.5" width="188" height="1" fill="white" fill-opacity="0.5" /><text x="1150" y="227.5" font-size="14" fill="white" font-family="monospace" dominant-baseline="initial">20</text><rect x="952" y="174.0" width="188" height="1" fill="white" fill-opacity="0.2" /><rect x="952" y="120.5" width="188" height="1" fill="white" fill-opacity="0.2" /><rect x="952" y="67.0" width="188" height="1" fill="white" fill-opacity="0.2" /><rect x="952" y="13.5" width="188" height="1" fill="white" fill-opacity="0.5" /><text x="1150" y="13.5" font-size="14" fill="white" font-family="monospace" dominant-baseline="initial">21</text><rect x="952" y="656.1000000000004" width="188" height="1" fill="aqua" fill-opacity="0.75" /><text x="952" y="652.1000000000004" font-size="14" fill="aqua" fill-opacity="0.75" font-family="monospace">Phrase A</text><rect x="1190" y="14.0" width="188" height="857.5" fill="black" /><rect x="1190" y="870.5" width="188" height="1" fill="white" fill-opacity="0.5" /><text x="1388" y="870.5" font-size="14" fill="white" font-family="monospace" dominant-baseline="initial">21</text><rect x="1190" y="816.5" width="188" height="1" fill="white" fill-opacity="0.2" /><rect x="1190" y="763.0" width="188" height="1" fill="white" fill-opacity="0.2" /><rect x="1190" y="709.5" width="188" height="1" fill="white" fill-opacity="0.2" /><rect x="1190" y="656.0" width="188" height="1" fill="white" fill-opacity="0.5" /><text x="1388" y="656.0" font-size="14" fill="white" font-family="monospace" dominant-baseline="initial">22</text><rect x="1190" y="602.5" width="188" height="1" fill="white" fill-opacity="0.2" /><rect x="1190" y="549.0" width="188" height="1" fill="white" fill-opacity="0.2" /><rect x="1190" y="495.5" width="188" height="1" fill="white" fill-opacity="0.2" /><rect x="1190" y="441.5" width="188" height="1" fill="white" fill-opacity="0.5" /><text x="1388" y="441.5" font-size="14" fill="white" font-family="monospace" dominant-baseline="initial">23</text><rect x="1190" y="388.0" width="188" height="1" fill="white" fill-opacity="0.2" /><rect x="1190" y="334.5" width="188" height="1" fill="white" fill-opacity="0.2" /><rect x="1190" y="281.0" width="188" height="1" fill="white" fill-opacity="0.2" /><rect x="1190" y="227.5" width="188" height="1" fill="white" fill-opacity="0.5" /><text x="1388" y="227.5" font-size="14" fill="white" font-family="monospace" dominant-baseline="initial">24</text><rect x="1190" y="174.0" width="188" height="1" fill="white" fill-opacity="0.2" /><rect x="1190" y="120.5" width="188" height="1" fill="white" fill-opacity="0.2" /><rect x="1190" y="66.5" width="188" height="1" fill="white" fill-opacity="0.2" /><rect x="1190" y="13.0" width="188" height="1" fill="white" fill-opacity="0.5" /><text x="1388" y="13.0" font-size="14" fill="white" font-family="monospace" dominant-baseline="initial">25</text><rect x="1428" y="14.5" width="188" height="857.0" fill="black" /><rect x="1428" y="870.5" width="188" height="1" fill="white" fill-opacity="0.5" /><text x="1626" y="870.5" font-size="14" fill="white" font-family="monospace" dominant-baseline="initial">25</text><rect x="1428" y="817.0" width="188" height="1" fill="white" fill-opacity="0.2" /><rect x="1428" y="763.5" width="188" height="1" fill="white" fill-opacity="0.2" /><rect x="1428" y="710.0" width="188" height="1" fill="white" fill-opacity="0.2" /><rect x="1428" y="656.5" width="188" height="1" fill="white" fill-opacity="0.5" /><text x="1626" y="656.5" font-size="14" fill="white" font-family="monospace" dominant-baseline="initial">26</text><rect x="1428" y="603.0" width="188" height="1" fill="white" fill-opacity="0.2" /><rect x="1428" y="549.0" width="188" height="1" fill="white" fill-opacity="0.2" /><rect x="1428" y="495.5" width="188" height="1" fill="white" fill-opacity="0.2" /><rect x="1428" y="442.0" width="188" height="1" fill="white" fill-opacity="0.5" /><text x="1626" y="442.0" font-size="14" fill="white" font-family="monospace" dominant-baseline="initial">27</text><rect x="1428" y="388.5" width="188" height="1" fill="white" fill-opacity="0.2" /><rect x="1428" y="335.0" width="188" height="1" fill="white" fill-opacity="0.2" /><rect x="1428" y="281.5" width="188" height="1" fill="white" fill-opacity="0.2" /><rect x="1428" y="228.0" width="188" height="1" fill="white" fill-opacity="0.5" /><text x="1626" y="228.0" font-size="14" fill="white" font-family="monospace" dominant-baseline="initial">28</text><rect x="1428" y="174.0" width="188" height="1" fill="white" fill-opacity="0.2" /><rect x="1428" y="120.5" width="188" height="1" fill="white" fill-opacity="0.2" /><rect x="1428" y="67.0" width="188" height="1" fill="white" fill-opacity="0.2" /><rect x="1428" y="13.5" width="188" height="1" fill="white" fill-opacity="0.5" /><text x="1626" y="13.5" font-size="14" fill="white" font-family="monospace" dominant-baseline="initial">29</text><rect x="1666" y="14.5" width="188" height="857.0" fill="black" /><rect x="1666" y="870.5" width="188" height="1" fill="white" fill-opacity="0.5" /><text x="1864" y="870.5" font-size="14" fill="white" font-family="monospace" dominant-baseline="initial">29</text><rect x="1666" y="817.0" width="188" height="1" fill="white" fill-opacity="0.2" /><rect x="1666" y="763.5" width="188" height="1" fill="white" fill-opacity="0.2" /><rect x="1666" y="710.0" width="188" height="1" fill="white" fill-opacity="0.2" /><rect x="1666" y="656.0" width="188" height="1" fill="white" fill-opacity="0.5" /><text x="1864" y="656.0" font-size="14" fill="white" font-family="monospace" dominant-baseline="initial">30</text><rect x="1666" y="602.5" width="188" height="1" fill="white" fill-opacity="0.2" /><rect x="1666" y="549.0" width="188" height="1" fill="white" fill-opacity="0.2" /><rect x="1666" y="495.5" width="188" height="1" fill="white" fill-opacity="0.2" /><rect x="1666" y="442.0" width="188" height="1" fill="white" fill-opacity="0.5" /><text x="1864" y="442.0" font-size="14" fill="white" font-family="monospace" dominant-baseline="initial">31</text><rect x="1666" y="388.5" width="188" height="1" fill="white" fill-opacity="0.2" /><rect x="1666" y="335.0" width="188" height="1" fill="white" fill-opacity="0.2" /><rect x="1666" y="281.0" width="188" height="1" fill="white" fill-opacity="0.2" /><rect x="1666" y="227.5" width="188" height="1" fill="white" fill-opacity="0.5" /><text x="1864" y="227.5" font-size="14" fill="white" font-family="monospace" dominant-baseline="initial">32</text><rect x="1666" y="174.0" width="188" height="1" fill="white" fill-opacity="0.2" /><rect x="1666" y="120.5" width="188" height="1" fill="white" fill-opacity="0.2" /><rect x="1666" y="67.0" width="188" height="1" fill="white" fill-opacity="0.2" /><rect x="1666" y="13.5" width="188" height="1" fill="white" fill-opacity="0.5" /><text x="1864" y="13.5" font-size="14" fill="white" font-family="monospace" dominant-baseline="initial">33</text><rect x="1904" y="36.5" width="188" height="835.0" fill="black" /><rect x="1904" y="870.5" width="188" height="1" fill="white" fill-opacity="0.5" /><text x="2102" y="870.5" font-size="14" fill="white" font-family="monospace" dominant-baseline="initial">33</text><rect x="1904" y="817.0" width="188" height="1" fill="white" fill-opacity="0.2" /><rect x="1904" y="763.0" width="188" height="1" fill="white" fill-opacity="0.2" /><rect x="1904" y="709.5" width="188" height="1" fill="white" fill-opacity="0.2" /><rect x="1904" y="656.0" width="188" height="1" fill="white" fill-opacity="0.5" /><text x="2102" y="656.0" font-size="14" fill="white" font-family="monospace" dominant-baseline="initial">34</text><rect x="1904" y="604.5" width="188" height="1" fill="white" fill-opacity="0.2" /><rect x="1904" y="552.5" width="188" height="1" fill="white" fill-opacity="0.2" /><rect x="1904" y="501.0" width="188" height="1" fill="white" fill-opacity="0.2" /><rect x="1904" y="449.0" width="188" height="1" fill="white" fill-opacity="0.5" /><text x="2102" y="449.0" font-size="14" fill="white" font-family="monospace" dominant-baseline="initial">35</text><rect x="1904" y="397.5" width="188" height="1" fill="white" fill-opacity="0.2" /><rect x="1904" y="345.5" width="188" height="1" fill="white" fill-opacity="0.2" /><rect x="1904" y="294.0" width="188" height="1" fill="white" fill-opacity="0.2" /><rect x="1904" y="242.5" width="188" height="1" fill="white" fill-opacity="0.5" /><text x="2102" y="242.5" font-size="14" fill="white" font-family="monospace" dominant-baseline="initial">36</text><rect x="1904" y="190.5" width="188" height="1" fill="white" fill-opacity="0.2" /><rect x="1904" y="139.0" width="188" height="1" fill="white" fill-opacity="0.2" /><rect x="1904" y="87.0" width="188" height="1" fill="white" fill-opacity="0.2" /><rect x="1904" y="35.5" width="188" height="1" fill="white" fill-opacity="0.5" /><text x="2102" y="35.5" font-size="14" fill="white" font-family="monospace" dominant-baseline="initial">37</text><rect x="1904" y="656.0500000000002" width="188" height="1" fill="aqua" fill-opacity="0.75" /><text x="1904" y="652.0500000000002" font-size="14" fill="aqua" fill-opacity="0.75" font-family="monospace">Phrase B</text><rect x="1904" y="656.0" width="188" height="1" fill="lime" fill-opacity="0.75" /><text x="2102" y="643.0" font-size="14" fill="lime" font-family="monospace" dominant-baseline="initial">174.0</text><rect x="2142" y="44.0" width="188" height="827.5" fill="black" /><rect x="2142" y="870.5" width="188" height="1" fill="white" fill-opacity="0.5" /><text x="2340" y="870.5" font-size="14" fill="white" font-family="monospace" dominant-baseline="initial">37</text><rect x="2142" y="818.5" width="188" height="1" fill="white" fill-opacity="0.2" /><rect x="2142" y="767.0" width="188" height="1" fill="white" fill-opacity="0.2" /><rect x="2142" y="715.0" width="188" height="1" fill="white" fill-opacity="0.2" /><rect x="2142" y="663.5" width="188" height="1" fill="white" fill-opacity="0.5" /><text x="2340" y="663.5" font-size="14" fill="white" font-family="monospace" dominant-baseline="initial">38</text><rect x="2142" y="612.0" width="188" height="1" fill="white" fill-opacity="0.2" /><rect x="2142" y="560.0" width="188" height="1" fill="white" fill-opacity="0.2" /><rect x="2142" y="508.5" width="188" height="1" fill="white" fill-opacity="0.2" /><rect x="2142" y="456.5" width="188" height="1" fill="white" fill-opacity="0.5" /><text x="2340" y="456.5" font-size="14" fill="white" font-family="monospace" dominant-baseline="initial">39</text><rect x="2142" y="405.0" width="188" height="1" fill="white" fill-opacity="0.2" /><rect x="2142" y="353.0" width="188" height="1" fill="white" fill-opacity="0.2" /><rect x="2142" y="301.5" width="188" height="1" fill="white" fill-opacity="0.2" /><rect x="2142" y="249.5" width="188" height="1" fill="white" fill-opacity="0.5" /><text x="2340" y="249.5" font-size="14" fill="white" font-family="monospace" dominant-baseline="initial">40</text><rect x="2142" y="198.0" width="188" height="1" fill="white" fill-opacity="0.2" /><rect x="2142" y="146.5" width="188" height="1" fill="white" fill-opacity="0.2" /><rect x="2142" y="94.5" width="188" height="1" fill="white" fill-opacity="0.2" /><rect x="2142" y="43.0" width="188" height="1" fill="white" fill-opacity="0.5" /><text x="2340" y="43.0" font-size="14" fill="white" font-family="monospace" dominant-baseline="initial">41</text><rect x="2380" y="43.5" width="188" height="828.0" fill="black" /><rect x="2380" y="870.5" width="188" height="1" fill="white" fill-opacity="0.5" /><text x="2578" y="870.5" font-size="14" fill="white" font-family="monospace" dominant-baseline="initial">41</text><rect x="2380" y="818.5" width="188" height="1" fill="white" fill-opacity="0.2" /><rect x="2380" y="767.0" width="188" height="1" fill="white" fill-opacity="0.2" /><rect x="2380" y="715.0" width="188" height="1" fill="white" fill-opacity="0.2" /><rect x="2380" y="663.5" width="188" height="1" fill="white" fill-opacity="0.5" /><text x="2578" y="663.5" font-size="14" fill="white" font-family="monospace" dominant-baseline="initial">42</text><rect x="2380" y="611.5" width="188" height="1" fill="white" fill-opacity="0.2" /><rect x="2380" y="560.0" width="188" height="1" fill="white" fill-opacity="0.2" /><rect x="2380" y="508.0" width="188" height="1" fill="white" fill-opacity="0.2" /><rect x="2380" y="456.5" width="188" height="1" fill="white" fill-opacity="0.5" /><text x="2578" y="456.5" font-size="14" fill="white" font-family="monospace" dominant-baseline="initial">43</text><rect x="2380" y="405.0" width="188" height="1" fill="white" fill-opacity="0.2" /><rect x="2380" y="353.0" width="188" height="1" fill="white" fill-opacity="0.2" /><rect x="2380" y="301.5" width="188" height="1" fill="white" fill-opacity="0.2" /><rect x="2380" y="249.5" width="188" height="1" fill="white" fill-opacity="0.5" /><text x="2578" y="249.5" font-size="14" fill="white" font-family="monospace" dominant-baseline="initial">44</text><rect x="2380" y="198.0" width="188" height="1" fill="white" fill-opacity="0.2" /><rect x="2380" y="146.0" width="188" height="1" fill="white" fill-opacity="0.2" /><rect x="2380" y="94.5" width="188" height="1" fill="white" fill-opacity="0.2" /><rect x="2380" y="42.5" width="188" height="1" fill="white" fill-opacity="0.5" /><text x="2578" y="42.5" font-size="14" fill="white" font-family="monospace" dominant-baseline="initial">45</text><rect x="2618" y="44.0" width="188" height="827.5" fill="black" /><rect x="2618" y="870.5" width="188" height="1" fill="white" fill-opacity="0.5" /><text x="2816" y="870.5" font-size="14" fill="white" font-family="monospace" dominant-baseline="initial">45</text><rect x="2618" y="819.0" width="188" height="1" fill="white" fill-opacity="0.2" /><rect x="2618" y="767.5" width="188" height="1" fill="white" fill-opacity="0.2" /><rect x="2618" y="715.5" width="188" height="1" fill="white" fill-opacity="0.2" /><rect x="2618" y="664.0" width="188" height="1" fill="white" fill-opacity="0.5" /><text x="2816" y="664.0" font-size="14" fill="white" font-family="monospace" dominant-baseline="initial">46</text><rect x="2618" y="612.0" width="188" height="1" fill="white" fill-opacity="0.2" /><rect x="2618" y="560.5" width="188" height="1" fill="white" fill-opacity="0.2" /><rect x="2618" y="508.5" width="188" height="1" fill="white" fill-opacity="0.2" /><rect x="2618" y="457.0" width="188" height="1" fill="white" fill-opacity="0.5" /><text x="2816" y="457.0" font-size="14" fill="white" font-family="monospace" dominant-baseline="initial">47</text><rect x="2618" y="405.0" width="188" height="1" fill="white" fill-opacity="0.2" /><rect x="2618" y="353.5" width="188" height="1" fill="white" fill-opacity="0.2" /><rect x="2618" y="302.0" width="188" height="1" fill="white" fill-opacity="0.2" /><rect x="2618" y="250.0" width="188" height="1" fill="white" fill-opacity="0.5" /><text x="2816" y="250.0" font-size="14" fill="white" font-family="monospace" dominant-baseline="initial">48</text><rect x="2618" y="198.5" width="188" height="1" fill="white" fill-opacity="0.2" /><rect x="2618" y="146.5" width="188" height="1" fill="white" fill-opacity="0.2" /><rect x="2618" y="95.0" width="188" height="1" fill="white" fill-opacity="0.2" /><rect x="2618" y="43.0" width="188" height="1" fill="white" fill-opacity="0.5" /><text x="2816" y="43.0" font-size="14" fill="white" font-family="monospace" dominant-baseline="initial">49</text><rect x="2856" y="44.0" width="188" height="827.5" fill="black" /><rect x="2856" y="870.5" width="188" height="1" fill="white" fill-opacity="0.5" /><text x="3054" y="870.5" font-size="14" fill="white" font-family="monospace" dominant-baseline="initial">49</text><rect x="2856" y="819.0" width="188" height="1" fill="white" fill-opacity="0.2" /><rect x="2856" y="767.0" width="188" height="1" fill="white" fill-opacity="0.2" /><rect x="2856" y="715.5" width="188" height="1" fill="white" fill-opacity="0.2" /><rect x="2856" y="663.5" width="188" height="1" fill="white" fill-opacity="0.5" /><text x="3054" y="663.5" font-size="14" fill="white" font-family="monospace" dominant-baseline="initial">50</text><rect x="2856" y="612.0" width="188" height="1" fill="white" fill-opacity="0.2" /><rect x="2856" y="560.5" width="188" height="1" fill="white" fill-opacity="0.2" /><rect x="2856" y="508.5" width="188" height="1" fill="white" fill-opacity="0.2" /><rect x="2856" y="457.0" width="188" height="1" fill="white" fill-opacity="0.5" /><text x="3054" y="457.0" font-size="14" fill="white" font-family="monospace" dominant-baseline="initial">51</text><rect x="2856" y="405.0" width="188" height="1" fill="white" fill-opacity="0.2" /><rect x="2856" y="353.5" width="188" height="1" fill="white" fill-opacity="0.2" /><rect x="2856" y="301.5" width="188" height="1" fill="white" fill-opacity="0.2" /><rect x="2856" y="250.0" width="188" height="1" fill="white" fill-opacity="0.5" /><text x="3054" y="250.0" font-size="14" fill="white" font-family="monospace" dominant-baseline="initial">52</text><rect x="2856" y="198.0" width="188" height="1" fill="white" fill-opacity="0.2" /><rect x="2856" y="146.5" width="188" height="1" fill="white" fill-opacity="0.2" /><rect x="2856" y="95.0" width="188" height="1" fill="white" fill-opacity="0.2" /><rect x="2856" y="43.0" width="188" height="1" fill="white" fill-opacity="0.5" /><text x="3054" y="43.0" font-size="14" fill="white" font-family="monospace" dominant-baseline="initial">53</text><rect x="3094" y="44.0" width="188" height="827.5" fill="black" /><rect x="3094" y="870.5" width="188" height="1" fill="white" fill-opacity="0.5" /><text x="3292" y="870.5" font-size="14" fill="white" font-family="monospace" dominant-baseline="initial">53</text><rect x="3094" y="819.0" width="188" height="1" fill="white" fill-opacity="0.2" /><rect x="3094" y="767.0" width="188" height="1" fill="white" fill-opacity="0.2" /><rect x="3094" y="715.5" width="188" height="1" fill="white" fill-opacity="0.2" /><rect x="3094" y="663.5" width="188" height="1" fill="white" fill-opacity="0.5" /><text x="3292" y="663.5" font-size="14" fill="white" font-family="monospace" dominant-baseline="initial">54</text><rect x="3094" y="612.0" width="188" height="1" fill="white" fill-opacity="0.2" /><rect x="3094" y="560.0" width="188" height="1" fill="white" fill-opacity="0.2" /><rect x="3094" y="508.5" width="188" height="1" fill="white" fill-opacity="0.2" /><rect x="3094" y="457.0" width="188" height="1" fill="white" fill-opacity="0.5" /><text x="3292" y="457.0" font-size="14" fill="white" font-family="monospace" dominant-baseline="initial">55</text><rect x="3094" y="405.0" width="188" height="1" fill="white" fill-opacity="0.2" /><rect x="3094" y="353.5" width="188" height="1" fill="white" fill-opacity="0.2" /><rect x="3094" y="301.5" width="188" height="1" fill="white" fill-opacity="0.2" /><rect x="3094" y="250.0" width="188" height="1" fill="white" fill-opacity="0.5" /><text x="3292" y="250.0" font-size="14" fill="white" font-family="monospace" dominant-baseline="initial">56</text><rect x="3094" y="198.0" width="188" height="1" fill="white" fill-opacity="0.2" /><rect x="3094" y="146.5" width="188" height="1" fill="white" fill-opacity="0.2" /><rect x="3094" y="94.5" width="188" height="1" fill="white" fill-opacity="0.2" /><rect x="3094" y="43.0" width="188" height="1" fill="white" fill-opacity="0.5" /><text x="3292" y="43.0" font-size="14" fill="white" font-family="monospace" dominant-baseline="initial">57</text><rect x="3094" y="663.6499999999996" width="188" height="1" fill="aqua" fill-opacity="0.75" /><text x="3094" y="659.6499999999996" font-size="14" fill="aqua" fill-opacity="0.75" font-family="monospace">Special</text><rect x="3332" y="44.0" width="188" height="827.5" fill="black" /><rect x="3332" y="870.5" width="188" height="1" fill="white" fill-opacity="0.5" /><text x="3530" y="870.5" font-size="14" fill="white" font-family="monospace" dominant-baseline="initial">57</text><rect x="3332" y="818.5" width="188" height="1" fill="white" fill-opacity="0.2" /><rect x="3332" y="767.0" width="188" height="1" fill="white" fill-opacity="0.2" /><rect x="3332" y="715.5" width="188" height="1" fill="white" fill-opacity="0.2" /><rect x="3332" y="663.5" width="188" height="1" fill="white" fill-opacity="0.5" /><text x="3530" y="663.5" font-size="14" fill="white" font-family="monospace" dominant-baseline="initial">58</text><rect x="3332" y="612.0" width="188" height="1" fill="white" fill-opacity="0.2" /><rect x="3332" y="560.0" width="188" height="1" fill="white" fill-opacity="0.2" /><rect x="3332" y="508.5" width="188" height="1" fill="white" fill-opacity="0.2" /><rect x="3332" y="456.5" width="188" height="1" fill="white" fill-opacity="0.5" /><text x="3530" y="456.5" font-size="14" fill="white" font-family="monospace" dominant-baseline="initial">59</text><rect x="3332" y="405.0" width="188" height="1" fill="white" fill-opacity="0.2" /><rect x="3332" y="353.0" width="188" height="1" fill="white" fill-opacity="0.2" /><rect x="3332" y="301.5" width="188" height="1" fill="white" fill-opacity="0.2" /><rect x="3332" y="250.0" width="188" height="1" fill="white" fill-opacity="0.5" /><text x="3530" y="250.0" font-size="14" fill="white" font-family="monospace" dominant-baseline="initial">60</text><rect x="3332" y="198.0" width="188" height="1" fill="white" fill-opacity="0.2" /><rect x="3332" y="146.5" width="188" height="1" fill="white" fill-opacity="0.2" /><rect x="3332" y="94.5" width="188" height="1" fill="white" fill-opacity="0.2" /><rect x="3332" y="43.0" width="188" height="1" fill="white" fill-opacity="0.5" /><text x="3530" y="43.0" font-size="14" fill="white" font-family="monospace" dominant-baseline="initial">61</text><rect x="3570" y="132.0" width="188" height="739.5" fill="black" /><rect x="3570" y="870.5" width="188" height="1" fill="white" fill-opacity="0.5" /><text x="3768" y="870.5" font-size="14" fill="white" font-family="monospace" dominant-baseline="initial">61</text><rect x="3570" y="818.5" width="188" height="1" fill="white" fill-opacity="0.2" /><rect x="3570" y="767.0" width="188" height="1" fill="white" fill-opacity="0.2" /><rect x="3570" y="715.0" width="188" height="1" fill="white" fill-opacity="0.2" /><rect x="3570" y="663.5" width="188" height="1" fill="white" fill-opacity="0.5" /><text x="3768" y="663.5" font-size="14" fill="white" font-family="monospace" dominant-baseline="initial">62</text><rect x="3570" y="616.0" width="188" height="1" fill="white" fill-opacity="0.2" /><rect x="3570" y="568.5" width="188" height="1" fill="white" fill-opacity="0.2" /><rect x="3570" y="521.5" width="188" height="1" fill="white" fill-opacity="0.2" /><rect x="3570" y="474.0" width="188" height="1" fill="white" fill-opacity="0.5" /><text x="3768" y="474.0" font-size="14" fill="white" font-family="monospace" dominant-baseline="initial">63</text><rect x="3570" y="431.0" width="188" height="1" fill="white" fill-opacity="0.2" /><rect x="3570" y="388.5" width="188" height="1" fill="white" fill-opacity="0.2" /><rect x="3570" y="345.5" width="188" height="1" fill="white" fill-opacity="0.2" /><rect x="3570" y="302.5" width="188" height="1" fill="white" fill-opacity="0.5" /><text x="3768" y="302.5" font-size="14" fill="white" font-family="monospace" dominant-baseline="initial">64</text><rect x="3570" y="259.5" width="188" height="1" fill="white" fill-opacity="0.2" /><rect x="3570" y="217.0" width="188" height="1" fill="white" fill-opacity="0.2" /><rect x="3570" y="174.0" width="188" height="1" fill="white" fill-opacity="0.2" /><rect x="3570" y="131.0" width="188" height="1" fill="white" fill-opacity="0.5" /><text x="3768" y="131.0" font-size="14" fill="white" font-family="monospace" dominant-baseline="initial">65</text><rect x="3570" y="473.9500000000007" width="188" height="1" fill="aqua" fill-opacity="0.75" /><text x="3570" y="469.9500000000007" font-size="14" fill="aqua" fill-opacity="0.75" font-family="monospace">Special</text><rect x="3570" y="663.5" width="188" height="1" fill="lime" fill-opacity="0.75" /><text x="3768" y="650.5" font-size="14" fill="lime" font-family="monospace" dominant-baseline="initial">190.0</text><rect x="3570" y="474.0" width="188" height="1" fill="lime" fill-opacity="0.75" /><text x="3768" y="461.0" font-size="14" fill="lime" font-family="monospace" dominant-baseline="initial">210</text><rect x="3808" y="186.0" width="188" height="685.5" fill="black" /><rect x="3808" y="870.5" width="188" height="1" fill="white" fill-opacity="0.5" /><text x="4006" y="870.5" font-size="14" fill="white" font-family="monospace" dominant-baseline="initial">65</text><rect x="3808" y="828.0" width="188" height="1" fill="white" fill-opacity="0.2" /><rect x="3808" y="785.0" width="188" height="1" fill="white" fill-opacity="0.2" /><rect x="3808" y="742.0" width="188" height="1" fill="white" fill-opacity="0.2" /><rect x="3808" y="699.0" width="188" height="1" fill="white" fill-opacity="0.5" /><text x="4006" y="699.0" font-size="14" fill="white" font-family="monospace" dominant-baseline="initial">66</text><rect x="3808" y="656.5" width="188" height="1" fill="white" fill-opacity="0.2" /><rect x="3808" y="613.5" width="188" height="1" fill="white" fill-opacity="0.2" /><rect x="3808" y="570.5" width="188" height="1" fill="white" fill-opacity="0.2" /><rect x="3808" y="528.0" width="188" height="1" fill="white" fill-opacity="0.5" /><text x="4006" y="528.0" font-size="14" fill="white" font-family="monospace" dominant-baseline="initial">67</text><rect x="3808" y="485.0" width="188" height="1" fill="white" fill-opacity="0.2" /><rect x="3808" y="442.0" width="188" height="1" fill="white" fill-opacity="0.2" /><rect x="3808" y="399.0" width="188" height="1" fill="white" fill-opacity="0.2" /><rect x="3808" y="356.5" width="188" height="1" fill="white" fill-opacity="0.5" /><text x="4006" y="356.5" font-size="14" fill="white" font-family="monospace" dominant-baseline="initial">68</text><rect x="3808" y="313.5" width="188" height="1" fill="white" fill-opacity="0.2" /><rect x="3808" y="270.5" width="188" height="1" fill="white" fill-opacity="0.2" /><rect x="3808" y="228.0" width="188" height="1" fill="white" fill-opacity="0.2" /><rect x="3808" y="185.0" width="188" height="1" fill="white" fill-opacity="0.5" /><text x="4006" y="185.0" font-size="14" fill="white" font-family="monospace" dominant-baseline="initial">69</text><rect x="4046" y="185.5" width="188" height="686.0" fill="black" /><rect x="4046" y="870.5" width="188" height="1" fill="white" fill-opacity="0.5" /><text x="4244" y="870.5" font-size="14" fill="white" font-family="monospace" dominant-baseline="initial">69</text><rect x="4046" y="827.5" width="188" height="1" fill="white" fill-opacity="0.2" /><rect x="4046" y="784.5" width="188" height="1" fill="white" fill-opacity="0.2" /><rect x="4046" y="742.0" width="188" height="1" fill="white" fill-opacity="0.2" /><rect x="4046" y="699.0" width="188" height="1" fill="white" fill-opacity="0.5" /><text x="4244" y="699.0" font-size="14" fill="white" font-family="monospace" dominant-baseline="initial">70</text><rect x="4046" y="656.0" width="188" height="1" fill="white" fill-opacity="0.2" /><rect x="4046" y="613.5" width="188" height="1" fill="white" fill-opacity="0.2" /><rect x="4046" y="570.5" width="188" height="1" fill="white" fill-opacity="0.2" /><rect x="4046" y="527.5" width="188" height="1" fill="white" fill-opacity="0.5" /><text x="4244" y="527.5" font-size="14" fill="white" font-family="monospace" dominant-baseline="initial">71</text><rect x="4046" y="484.5" width="188" height="1" fill="white" fill-opacity="0.2" /><rect x="4046" y="442.0" width="188" height="1" fill="white" fill-opacity="0.2" /><rect x="4046" y="399.0" width="188" height="1" fill="white" fill-opacity="0.2" /><rect x="4046" y="356.0" width="188" height="1" fill="white" fill-opacity="0.5" /><text x="4244" y="356.0" font-size="14" fill="white" font-family="monospace" dominant-baseline="initial">72</text><rect x="4046" y="313.5" width="188" height="1" fill="white" fill-opacity="0.2" /><rect x="4046" y="270.5" width="188" height="1" fill="white" fill-opacity="0.2" /><rect x="4046" y="227.5" width="188" height="1" fill="white" fill-opacity="0.2" /><rect x="4046" y="184.5" width="188" height="1" fill="white" fill-opacity="0.5" /><text x="4244" y="184.5" font-size="14" fill="white" font-family="monospace" dominant-baseline="initial">73</text><rect x="4284" y="186.0" width="188" height="685.5" fill="black" /><rect x="4284" y="870.5" width="188" height="1" fill="white" fill-opacity="0.5" /><text x="4482" y="870.5" font-size="14" fill="white" font-family="monospace" dominant-baseline="initial">73</text><rect x="4284" y="828.0" width="188" height="1" fill="white" fill-opacity="0.2" /><rect x="4284" y="785.0" width="188" height="1" fill="white" fill-opacity="0.2" /><rect x="4284" y="742.0" width="188" height="1" fill="white" fill-opacity="0.2" /><rect x="4284" y="699.5" width="188" height="1" fill="white" fill-opacity="0.5" /><text x="4482" y="699.5" font-size="14" fill="white" font-family="monospace" dominant-baseline="initial">74</text><rect x="4284" y="656.5" width="188" height="1" fill="white" fill-opacity="0.2" /><rect x="4284" y="613.5" width="188" height="1" fill="white" fill-opacity="0.2" /><rect x="4284" y="570.5" width="188" height="1" fill="white" fill-opacity="0.2" /><rect x="4284" y="528.0" width="188" height="1" fill="white" fill-opacity="0.5" /><text x="4482" y="528.0" font-size="14" fill="white" font-family="monospace" dominant-baseline="initial">75</text><rect x="4284" y="485.0" width="188" height="1" fill="white" fill-opacity="0.2" /><rect x="4284" y="442.0" width="188" height="1" fill="white" fill-opacity="0.2" /><rect x="4284" y="399.5" width="188" height="1" fill="white" fill-opacity="0.2" /><rect x="4284" y="356.5" width="188" height="1" fill="white" fill-opacity="0.5" /><text x="4482" y="356.5" font-size="14" fill="white" font-family="monospace" dominant-baseline="initial">76</text><rect x="4284" y="313.5" width="188" height="1" fill="white" fill-opacity="0.2" /><rect x="4284" y="270.5" width="188" height="1" fill="white" fill-opacity="0.2" /><rect x="4284" y="228.0" width="188" height="1" fill="white" fill-opacity="0.2" /><rect x="4284" y="185.0" width="188" height="1" fill="white" fill-opacity="0.5" /><text x="4482" y="185.0" font-size="14" fill="white" font-family="monospace" dominant-baseline="initial">77</text><rect x="4522" y="175.5" width="188" height="696.0" fill="black" /><rect x="4522" y="870.5" width="188" height="1" fill="white" fill-opacity="0.5" /><text x="4720" y="870.5" font-size="14" fill="white" font-family="monospace" dominant-baseline="initial">77</text><rect x="4522" y="827.5" width="188" height="1" fill="white" fill-opacity="0.2" /><rect x="4522" y="785.0" width="188" height="1" fill="white" fill-opacity="0.2" /><rect x="4522" y="742.0" width="188" height="1" fill="white" fill-opacity="0.2" /><rect x="4522" y="699.0" width="188" height="1" fill="white" fill-opacity="0.5" /><text x="4720" y="699.0" font-size="14" fill="white" font-family="monospace" dominant-baseline="initial">78</text><rect x="4522" y="656.0" width="188" height="1" fill="white" fill-opacity="0.2" /><rect x="4522" y="613.5" width="188" height="1" fill="white" fill-opacity="0.2" /><rect x="4522" y="570.5" width="188" height="1" fill="white" fill-opacity="0.2" /><rect x="4522" y="527.5" width="188" height="1" fill="white" fill-opacity="0.5" /><text x="4720" y="527.5" font-size="14" fill="white" font-family="monospace" dominant-baseline="initial">79</text><rect x="4522" y="485.0" width="188" height="1" fill="white" fill-opacity="0.2" /><rect x="4522" y="442.0" width="188" height="1" fill="white" fill-opacity="0.2" /><rect x="4522" y="399.0" width="188" height="1" fill="white" fill-opacity="0.2" /><rect x="4522" y="356.0" width="188" height="1" fill="white" fill-opacity="0.5" /><text x="4720" y="356.0" font-size="14" fill="white" font-family="monospace" dominant-baseline="initial">80</text></svg>