<?xml version="1.0" encoding="UTF-8"?><svg xmlns="http://www.w3.org/2000/svg" xmlns:xlink="http://www.w3.org/1999/xlink"     width="1140" height="1550.0" viewBox="0 0 1140 1550.0"><defs></defs><rect x="0" y="0" width="64" height="1454.5" fill="black" /><rect x="0" y="0.0" width="64" height="1" fill="white" fill-opacity="0.5" /><text x="74" y="14.0" font-size="14" fill="white" font-family="monospace" dominant-baseline="ideographic">1</text><rect x="0" y="91.0" width="64" height="1" fill="white" fill-opacity="0.2" /><rect x="0" y="182.0" width="64" height="1" fill="white" fill-opacity="0.2" /><rect x="0" y="272.5" width="64" height="1" fill="white" fill-opacity="0.2" /><rect x="0" y="363.5" width="64" height="1" fill="white" fill-opacity="0.5" /><text x="74" y="377.5" font-size="14" fill="white" font-family="monospace" dominant-baseline="ideographic">2</text><rect x="0" y="454.5" width="64" height="1" fill="white" fill-opacity="0.2" /><rect x="0" y="545.5" width="64" height="1" fill="white" fill-opacity="0.2" /><rect x="0" y="636.5" width="64" height="1" fill="white" fill-opacity="0.2" /><rect x="0" y="727.5" width="64" height="1" fill="white" fill-opacity="0.5" /><text x="74" y="741.5" font-size="14" fill="white" font-family="monospace" dominant-baseline="ideographic">3</text><rect x="0" y="818.0" width="64" height="1" fill="white" fill-opacity="0.2" /><rect x="0" y="909.0" width="64" height="1" fill="white" fill-opacity="0.2" /><rect x="0" y="1000.0" width="64" height="1" fill="white" fill-opacity="0.2" /><rect x="0" y="1091.0" width="64" height="1" fill="white" fill-opacity="0.5" /><text x="74" y="1105.0" font-size="14" fill="white" font-family="monospace" dominant-baseline="ideographic">4</text><rect x="0" y="1182.0" width="64" height="1" fill="white" fill-opacity="0.2" /><rect x="0" y="1272.5" width="64" height="1" fill="white" fill-opacity="0.2" /><rect x="0" y="1363.5" width="64" height="1" fill="white" fill-opacity="0.2" /><rect x="0" y="1454.5" width="64" height="1" fill="white" fill-opacity="0.5" /><text x="74" y="1468.5" font-size="14" fill="white" font-family="monospace" dominant-baseline="ideographic">5</text><rect x="0" y="0.0" width="64" height="1" fill="aqua" fill-opacity="0.75" /><text x="0" y="14.0" font-size="14" fill="aqua" fill-opacity="0.75" font-family="monospace">Phrase A</text><rect x="0" y="0.0" width="64" height="1" fill="lime" fill-opacity="0.75" /><text x="74" y="28.0" font-size="14" fill="lime" font-family="monospace" dominant-baseline="ideographic">99</text><rect x="114" y="0" width="64" height="1454.5" fill="black" /><rect x="114" y="0.0" width="64" height="1" fill="white" fill-opacity="0.5" /><text x="188" y="14.0" font-size="14" fill="white" font-family="monospace" dominant-baseline="ideographic">5</text><rect x="114" y="91.0" width="64" height="1" fill="white" fill-opacity="0.2" /><rect x="114" y="182.0" width="64" height="1" fill="white" fill-opacity="0.2" /><rect x="114" y="273.0" width="64" height="1" fill="white" fill-opacity="0.2" /><rect x="114" y="363.5" width="64" height="1" fill="white" fill-opacity="0.5" /><text x="188" y="377.5" font-size="14" fill="white" font-family="monospace" dominant-baseline="ideographic">6</text><rect x="114" y="454.5" width="64" height="1" fill="white" fill-opacity="0.2" /><rect x="114" y="545.5" width="64" height="1" fill="white" fill-opacity="0.2" /><rect x="114" y="636.5" width="64" height="1" fill="white" fill-opacity="0.2" /><rect x="114" y="727.5" width="64" height="1" fill="white" fill-opacity="0.5" /><text x="188" y="741.5" font-size="14" fill="white" font-family="monospace" dominant-baseline="ideographic">7</text><rect x="114" y="818.0" width="64" height="1" fill="white" fill-opacity="0.2" /><rect x="114" y="909.0" width="64" height="1" fill="white" fill-opacity="0.2" /><rect x="114" y="1000.0" width="64" height="1" fill="white" fill-opacity="0.2" /><rect x="114" y="1091.0" width="64" height="1" fill="white" fill-opacity="0.5" /><text x="188" y="1105.0" font-size="14" fill="white" font-family="monospace" dominant-baseline="ideographic">8</text><rect x="114" y="1182.0" width="64" height="1" fill="white" fill-opacity="0.2" /><rect x="114" y="1273.0" width="64" height="1" fill="white" fill-opacity="0.2" /><rect x="114" y="1363.5" width="64" height="1" fill="white" fill-opacity="0.2" /><rect x="114" y="1454.5" width="64" height="1" fill="white" fill-opacity="0.5" /><text x="188" y="1468.5" font-size="14" fill="white" font-family="monospace" dominant-baseline="ideographic">9</text><rect x="228" y="0" width="64" height="1454.5" fill="black" /><rect x="228" y="0.0" width="64" height="1" fill="white" fill-opacity="0.5" /><text x="302" y="14.0" font-size="14" fill="white" font-family="monospace" dominant-baseline="ideographic">9</text><rect x="228" y="91.0" width="64" height="1" fill="white" fill-opacity="0.2" /><rect x="228" y="182.0" width="64" height="1" fill="white" fill-opacity="0.2" /><rect x="228" y="273.0" width="64" height="1" fill="white" fill-opacity="0.2" /><rect x="228" y="363.5" width="64" height="1" fill="white" fill-opacity="0.5" /><text x="302" y="377.5" font-size="14" fill="white" font-family="monospace" dominant-baseline="ideographic">10</text><rect x="228" y="454.5" width="64" height="1" fill="white" fill-opacity="0.2" /><rect x="228" y="545.5" width="64" height="1" fill="white" fill-opacity="0.2" /><rect x="228" y="636.5" width="64" height="1" fill="white" fill-opacity="0.2" /><rect x="228" y="727.5" width="64" height="1" fill="white" fill-opacity="0.5" /><text x="302" y="741.5" font-size="14" fill="white" font-family="monospace" dominant-baseline="ideographic">11</text><rect x="228" y="818.5" width="64" height="1" fill="white" fill-opacity="0.2" /><rect x="228" y="909.0" width="64" height="1" fill="white" fill-opacity="0.2" /><rect x="228" y="1000.0" width="64" height="1" fill="white" fill-opacity="0.2" /><rect x="228" y="1091.0" width="64" height="1" fill="white" fill-opacity="0.5" /><text x="302" y="1105.0" font-size="14" fill="white" font-family="monospace" dominant-baseline="ideographic">12</text><rect x="228" y="1182.0" width="64" height="1" fill="white" fill-opacity="0.2" /><rect x="228" y="1273.0" width="64" height="1" fill="white" fill-opacity="0.2" /><rect x="228" y="1363.5" width="64" height="1" fill="white" fill-opacity="0.2" /><rect x="228" y="1454.5" width="64" height="1" fill="white" fill-opacity="0.5" /><text x="302" y="1468.5" font-size="14" fill="white" font-family="monospace" dominant-baseline="ideographic">13</text><rect x="342" y="0" width="64" height="1454.5" fill="black" /><rect x="342" y="0.0" width="64" height="1" fill="white" fill-opacity="0.5" /><text x="416" y="14.0" font-size="14" fill="white" font-family="monospace" dominant-baseline="ideographic">13</text><rect x="342" y="91.0" width="64" height="1" fill="white" fill-opacity="0.2" /><rect x="342" y="182.0" width="64" height="1" fill="white" fill-opacity="0.2" /><rect x="342" y="273.0" width="64" height="1" fill="white" fill-opacity="0.2" /><rect x="342" y="364.0" width="64" height="1" fill="white" fill-opacity="0.5" /><text x="416" y="378.0" font-size="14" fill="white" font-family="monospace" dominant-baseline="ideographic">14</text><rect x="342" y="454.5" width="64" height="1" fill="white" fill-opacity="0.2" /><rect x="342" y="545.5" width="64" height="1" fill="white" fill-opacity="0.2" /><rect x="342" y="636.5" width="64" height="1" fill="white" fill-opacity="0.2" /><rect x="342" y="727.5" width="64" height="1" fill="white" fill-opacity="0.5" /><text x="416" y="741.5" font-size="14" fill="white" font-family="monospace" dominant-baseline="ideographic">15</text><rect x="342" y="818.5" width="64" height="1" fill="white" fill-opacity="0.2" /><rect x="342" y="909.0" width="64" height="1" fill="white" fill-opacity="0.2" /><rect x="342" y="1000.0" width="64" height="1" fill="white" fill-opacity="0.2" /><rect x="342" y="1091.0" width="64" height="1" fill="white" fill-opacity="0.5" /><text x="416" y="1105.0" font-size="14" fill="white" font-family="monospace" dominant-baseline="ideographic">16</text><rect x="342" y="1182.0" width="64" height="1" fill="white" fill-opacity="0.2" /><rect x="342" y="1273.0" width="64" height="1" fill="white" fill-opacity="0.2" /><rect x="342" y="1364.0" width="64" height="1" fill="white" fill-opacity="0.2" /><rect x="342" y="1454.5" width="64" height="1" fill="white" fill-opacity="0.5" /><text x="416" y="1468.5" font-size="14" fill="white" font-family="monospace" dominant-baseline="ideographic">17</text><rect x="342" y="363.75" width="64" height="1" fill="aqua" fill-opacity="0.75" /><text x="342" y="377.75" font-size="14" fill="aqua" fill-opacity="0.75" font-family="monospace">Phrase B</text><rect x="456" y="0" width="64" height="1454.5" fill="black" /><rect x="456" y="0.0" width="64" height="1" fill="white" fill-opacity="0.5" /><text x="530" y="14.0" font-size="14" fill="white" font-family="monospace" dominant-baseline="ideographic">17</text><rect x="456" y="91.0" width="64" height="1" fill="white" fill-opacity="0.2" /><rect x="456" y="182.0" width="64" height="1" fill="white" fill-opacity="0.2" /><rect x="456" y="273.0" width="64" height="1" fill="white" fill-opacity="0.2" /><rect x="456" y="364.0" width="64" height="1" fill="white" fill-opacity="0.5" /><text x="530" y="378.0" font-size="14" fill="white" font-family="monospace" dominant-baseline="ideographic">18</text><rect x="456" y="454.5" width="64" height="1" fill="white" fill-opacity="0.2" /><rect x="456" y="545.5" width="64" height="1" fill="white" fill-opacity="0.2" /><rect x="456" y="636.5" width="64" height="1" fill="white" fill-opacity="0.2" /><rect x="456" y="727.5" width="64" height="1" fill="white" fill-opacity="0.5" /><text x="530" y="741.5" font-size="14" fill="white" font-family="monospace" dominant-baseline="ideographic">19</text><rect x="456" y="818.5" width="64" height="1" fill="white" fill-opacity="0.2" /><rect x="456" y="909.5" width="64" height="1" fill="white" fill-opacity="0.2" /><rect x="456" y="1000.0" width="64" height="1" fill="white" fill-opacity="0.2" /><rect x="456" y="1091.0" width="64" height="1" fill="white" fill-opacity="0.5" /><text x="530" y="1105.0" font-size="14" fill="white" font-family="monospace" dominant-baseline="ideographic">20</text><rect x="456" y="1182.0" width="64" height="1" fill="white" fill-opacity="0.2" /><rect x="456" y="1273.0" width="64" height="1" fill="white" fill-opacity="0.2" /><rect x="456" y="1364.0" width="64" height="1" fill="white" fill-opacity="0.2" /><rect x="456" y="1454.5" width="64" height="1" fill="white" fill-opacity="0.5" /><text x="530" y="1468.5" font-size="14" fill="white" font-family="monospace" dominant-baseline="ideographic">21</text><rect x="570" y="0" width="64" height="1455.0" fill="black" /><rect x="570" y="0.0" width="64" height="1" fill="white" fill-opacity="0.5" /><text x="644" y="14.0" font-size="14" fill="white" font-family="monospace" dominant-baseline="ideographic">21</text><rect x="570" y="91.0" width="64" height="1" fill="white" fill-opacity="0.2" /><rect x="570" y="182.0" width="64" height="1" fill="white" fill-opacity="0.2" /><rect x="570" y="273.0" width="64" height="1" fill="white" fill-opacity="0.2" /><rect x="570" y="364.0" width="64" height="1" fill="white" fill-opacity="0.5" /><text x="644" y="378.0" font-size="14" fill="white" font-family="monospace" dominant-baseline="ideographic">22</text><rect x="570" y="455.0" width="64" height="1" fill="white" fill-opacity="0.2" /><rect x="570" y="545.5" width="64" height="1" fill="white" fill-opacity="0.2" /><rect x="570" y="636.5" width="64" height="1" fill="white" fill-opacity="0.2" /><rect x="570" y="727.5" width="64" height="1" fill="white" fill-opacity="0.5" /><text x="644" y="741.5" font-size="14" fill="white" font-family="monospace" dominant-baseline="ideographic">23</text><rect x="570" y="818.5" width="64" height="1" fill="white" fill-opacity="0.2" /><rect x="570" y="909.5" width="64" height="1" fill="white" fill-opacity="0.2" /><rect x="570" y="1000.0" width="64" height="1" fill="white" fill-opacity="0.2" /><rect x="570" y="1091.0" width="64" height="1" fill="white" fill-opacity="0.5" /><text x="644" y="1105.0" font-size="14" fill="white" font-family="monospace" dominant-baseline="ideographic">24</text><rect x="570" y="1182.0" width="64" height="1" fill="white" fill-opacity="0.2" /><rect x="570" y="1273.0" width="64" height="1" fill="white" fill-opacity="0.2" /><rect x="570" y="1364.0" width="64" height="1" fill="white" fill-opacity="0.2" /><rect x="570" y="1455.0" width="64" height="1" fill="white" fill-opacity="0.5" /><text x="644" y="1469.0" font-size="14" fill="white" font-family="monospace" dominant-baseline="ideographic">25</text><rect x="570" y="1091.199999999999" width="64" height="1" fill="aqua" fill-opacity="0.75" /><text x="570" y="1105.199999999999" font-size="14" fill="aqua" fill-opacity="0.75" font-family="monospace">Special</text><rect x="684" y="0" width="64" height="1454.5" fill="black" /><rect x="684" y="0.0" width="64" height="1" fill="white" fill-opacity="0.5" /><text x="758" y="14.0" font-size="14" fill="white" font-family="monospace" dominant-baseline="ideographic">25</text><rect x="684" y="90.5" width="64" height="1" fill="white" fill-opacity="0.2" /><rect x="684" y="181.5" width="64" height="1" fill="white" fill-opacity="0.2" /><rect x="684" y="272.5" width="64" height="1" fill="white" fill-opacity="0.2" /><rect x="684" y="363.5" width="64" height="1" fill="white" fill-opacity="0.5" /><text x="758" y="377.5" font-size="14" fill="white" font-family="monospace" dominant-baseline="ideographic">26</text><rect x="684" y="454.5" width="64" height="1" fill="white" fill-opacity="0.2" /><rect x="684" y="545.0" width="64" height="1" fill="white" fill-opacity="0.2" /><rect x="684" y="636.0" width="64" height="1" fill="white" fill-opacity="0.2" /><rect x="684" y="727.0" width="64" height="1" fill="white" fill-opacity="0.5" /><text x="758" y="741.0" font-size="14" fill="white" font-family="monospace" dominant-baseline="ideographic">27</text><rect x="684" y="818.0" width="64" height="1" fill="white" fill-opacity="0.2" /><rect x="684" y="909.0" width="64" height="1" fill="white" fill-opacity="0.2" /><rect x="684" y="1000.0" width="64" height="1" fill="white" fill-opacity="0.2" /><rect x="684" y="1090.5" width="64" height="1" fill="white" fill-opacity="0.5" /><text x="758" y="1104.5" font-size="14" fill="white" font-family="monospace" dominant-baseline="ideographic">28</text><rect x="684" y="1181.5" width="64" height="1" fill="white" fill-opacity="0.2" /><rect x="684" y="1272.5" width="64" height="1" fill="white" fill-opacity="0.2" /><rect x="684" y="1363.5" width="64" height="1" fill="white" fill-opacity="0.2" /><rect x="684" y="1454.5" width="64" height="1" fill="white" fill-opacity="0.5" /><text x="758" y="1468.5" font-size="14" fill="white" font-family="monospace" dominant-baseline="ideographic">29</text><rect x="798" y="0" width="64" height="1454.5" fill="black" /><rect x="798" y="0.0" width="64" height="1" fill="white" fill-opacity="0.5" /><text x="872" y="14.0" font-size="14" fill="white" font-family="monospace" dominant-baseline="ideographic">29</text><rect x="798" y="90.5" width="64" height="1" fill="white" fill-opacity="0.2" /><rect x="798" y="181.5" width="64" height="1" fill="white" fill-opacity="0.2" /><rect x="798" y="272.5" width="64" height="1" fill="white" fill-opacity="0.2" /><rect x="798" y="363.5" width="64" height="1" fill="white" fill-opacity="0.5" /><text x="872" y="377.5" font-size="14" fill="white" font-family="monospace" dominant-baseline="ideographic">30</text><rect x="798" y="454.5" width="64" height="1" fill="white" fill-opacity="0.2" /><rect x="798" y="545.5" width="64" height="1" fill="white" fill-opacity="0.2" /><rect x="798" y="636.0" width="64" height="1" fill="white" fill-opacity="0.2" /><rect x="798" y="727.0" width="64" height="1" fill="white" fill-opacity="0.5" /><text x="872" y="741.0" font-size="14" fill="white" font-family="monospace" dominant-baseline="ideographic">31</text><rect x="798" y="818.0" width="64" height="1" fill="white" fill-opacity="0.2" /><rect x="798" y="909.0" width="64" height="1" fill="white" fill-opacity="0.2" /><rect x="798" y="1000.0" width="64" height="1" fill="white" fill-opacity="0.2" /><rect x="798" y="1090.5" width="64" height="1" fill="white" fill-opacity="0.5" /><text x="872" y="1104.5" font-size="14" fill="white" font-family="monospace" dominant-baseline="ideographic">32</text><rect x="798" y="1181.5" width="64" height="1" fill="white" fill-opacity="0.2" /><rect x="798" y="1272.5" width="64" height="1" fill="white" fill-opacity="0.2" /><rect x="798" y="1363.5" width="64" height="1" fill="white" fill-opacity="0.2" /><rect x="798" y="1454.5" width="64" height="1" fill="white" fill-opacity="0.5" /><text x="872" y="1468.5" font-size="14" fill="white" font-family="monospace" dominant-baseline="ideographic">33</text><rect x="912" y="0" width="64" height="1454.5" fill="black" /><rect x="912" y="0.0" width="64" height="1" fill="white" fill-opacity="0.5" /><text x="986" y="14.0" font-size="14" fill="white" font-family="monospace" dominant-baseline="ideographic">33</text><rect x="912" y="91.0" width="64" height="1" fill="white" fill-opacity="0.2" /><rect x="912" y="181.5" width="64" height="1" fill="white" fill-opacity="0.2" /><rect x="912" y="272.5" width="64" height="1" fill="white" fill-opacity="0.2" /><rect x="912" y="363.5" width="64" height="1" fill="white" fill-opacity="0.5" /><text x="986" y="377.5" font-size="14" fill="white" font-family="monospace" dominant-baseline="ideographic">34</text><rect x="912" y="454.5" width="64" height="1" fill="white" fill-opacity="0.2" /><rect x="912" y="545.5" width="64" height="1" fill="white" fill-opacity="0.2" /><rect x="912" y="636.0" width="64" height="1" fill="white" fill-opacity="0.2" /><rect x="912" y="727.0" width="64" height="1" fill="white" fill-opacity="0.5" /><text x="986" y="741.0" font-size="14" fill="white" font-family="monospace" dominant-baseline="ideographic">35</text><rect x="912" y="818.0" width="64" height="1" fill="white" fill-opacity="0.2" /><rect x="912" y="909.0" width="64" height="1" fill="white" fill-opacity="0.2" /><rect x="912" y="1000.0" width="64" height="1" fill="white" fill-opacity="0.2" /><rect x="912" y="1091.0" width="64" height="1" fill="white" fill-opacity="0.5" /><text x="986" y="1105.0" font-size="14" fill="white" font-family="monospace" dominant-baseline="ideographic">36</text><rect x="912" y="1181.5" width="64" height="1" fill="white" fill-opacity="0.2" /><rect x="912" y="1272.5" width="64" height="1" fill="white" fill-opacity="0.2" /><rect x="912" y="1363.5" width="64" height="1" fill="white" fill-opacity="0.2" /><rect x="912" y="1454.5" width="64" height="1" fill="white" fill-opacity="0.5" /><text x="986" y="1468.5" font-size="14" fill="white" font-family="monospace" dominant-baseline="ideographic">37</text><rect x="1026" y="0" width="64" height="1536.0" fill="black" /><rect x="1026" y="0.0" width="64" height="1" fill="white" fill-opacity="0.5" /><text x="1100" y="14.0" font-size="14" fill="white" font-family="monospace" dominant-baseline="ideographic">37</text><rect x="1026" y="91.0" width="64" height="1" fill="white" fill-opacity="0.2" /><rect x="1026" y="181.5" width="64" height="1" fill="white" fill-opacity="0.2" /><rect x="1026" y="272.5" width="64" height="1" fill="white" fill-opacity="0.2" /><rect x="1026" y="363.5" width="64" height="1" fill="white" fill-opacity="0.5" /><text x="1100" y="377.5" font-size="14" fill="white" font-family="monospace" dominant-baseline="ideographic">38</text><rect x="1026" y="454.5" width="64" height="1" fill="white" fill-opacity="0.2" /><rect x="1026" y="545.5" width="64" height="1" fill="white" fill-opacity="0.2" /><rect x="1026" y="636.5" width="64" height="1" fill="white" fill-opacity="0.2" /><rect x="1026" y="727.0" width="64" height="1" fill="white" fill-opacity="0.5" /><text x="1100" y="741.0" font-size="14" fill="white" font-family="monospace" dominant-baseline="ideographic">39</text><rect x="1026" y="363.5499999999993" width="64" height="1" fill="aqua" fill-opacity="0.75" /><text x="1026" y="377.5499999999993" font-size="14" fill="aqua" fill-opacity="0.75" font-family="monospace">Outro</text></svg>