<?xml version="1.0" encoding="UTF-8"?><svg xmlns="http://www.w3.org/2000/svg" xmlns:xlink="http://www.w3.org/1999/xlink"     width="4046" height="1040.5" viewBox="0 0 4046 1040.5"><defs></defs><rect x="0" y="123.5" width="188" height="917.0" fill="black" /><rect x="0" y="1039.5" width="188" height="1" fill="white" fill-opacity="0.5" /><text x="198" y="1039.5" font-size="14" fill="white" font-family="monospace" dominant-baseline="initial">1</text><rect x="0" y="982.0" width="188" height="1" fill="white" fill-opacity="0.2" /><rect x="0" y="925.0" width="188" height="1" fill="white" fill-opacity="0.2" /><rect x="0" y="867.5" width="188" height="1" fill="white" fill-opacity="0.2" /><rect x="0" y="810.0" width="188" height="1" fill="white" fill-opacity="0.5" /><text x="198" y="810.0" font-size="14" fill="white" font-family="monospace" dominant-baseline="initial">2</text><rect x="0" y="753.0" width="188" height="1" fill="white" fill-opacity="0.2" /><rect x="0" y="695.5" width="188" height="1" fill="white" fill-opacity="0.2" /><rect x="0" y="638.0" width="188" height="1" fill="white" fill-opacity="0.2" /><rect x="0" y="581.0" width="188" height="1" fill="white" fill-opacity="0.5" /><text x="198" y="581.0" font-size="14" fill="white" font-family="monospace" dominant-baseline="initial">3</text><rect x="0" y="523.5" width="188" height="1" fill="white" fill-opacity="0.2" /><rect x="0" y="466.5" width="188" height="1" fill="white" fill-opacity="0.2" /><rect x="0" y="409.0" width="188" height="1" fill="white" fill-opacity="0.2" /><rect x="0" y="351.5" width="188" height="1" fill="white" fill-opacity="0.5" /><text x="198" y="351.5" font-size="14" fill="white" font-family="monospace" dominant-baseline="initial">4</text><rect x="0" y="294.5" width="188" height="1" fill="white" fill-opacity="0.2" /><rect x="0" y="237.0" width="188" height="1" fill="white" fill-opacity="0.2" /><rect x="0" y="179.5" width="188" height="1" fill="white" fill-opacity="0.2" /><rect x="0" y="122.5" width="188" height="1" fill="white" fill-opacity="0.5" /><text x="198" y="122.5" font-size="14" fill="white" font-family="monospace" dominant-baseline="initial">5</text><rect x="0" y="1039.5" width="188" height="1" fill="aqua" fill-opacity="0.75" /><text x="0" y="1035.5" font-size="14" fill="aqua" fill-opacity="0.75" font-family="monospace">Phrase A</text><rect x="0" y="1039.5" width="188" height="1" fill="lime" fill-opacity="0.75" /><text x="198" y="1026.5" font-size="14" fill="lime" font-family="monospace" dominant-baseline="initial">157</text><rect x="238" y="123.0" width="188" height="917.5" fill="black" /><rect x="238" y="1039.5" width="188" height="1" fill="white" fill-opacity="0.5" /><text x="436" y="1039.5" font-size="14" fill="white" font-family="monospace" dominant-baseline="initial">5</text><rect x="238" y="982.0" width="188" height="1" fill="white" fill-opacity="0.2" /><rect x="238" y="924.5" width="188" height="1" fill="white" fill-opacity="0.2" /><rect x="238" y="867.5" width="188" height="1" fill="white" fill-opacity="0.2" /><rect x="238" y="810.0" width="188" height="1" fill="white" fill-opacity="0.5" /><text x="436" y="810.0" font-size="14" fill="white" font-family="monospace" dominant-baseline="initial">6</text><rect x="238" y="752.5" width="188" height="1" fill="white" fill-opacity="0.2" /><rect x="238" y="695.5" width="188" height="1" fill="white" fill-opacity="0.2" /><rect x="238" y="638.0" width="188" height="1" fill="white" fill-opacity="0.2" /><rect x="238" y="580.5" width="188" height="1" fill="white" fill-opacity="0.5" /><text x="436" y="580.5" font-size="14" fill="white" font-family="monospace" dominant-baseline="initial">7</text><rect x="238" y="523.5" width="188" height="1" fill="white" fill-opacity="0.2" /><rect x="238" y="466.0" width="188" height="1" fill="white" fill-opacity="0.2" /><rect x="238" y="408.5" width="188" height="1" fill="white" fill-opacity="0.2" /><rect x="238" y="351.5" width="188" height="1" fill="white" fill-opacity="0.5" /><text x="436" y="351.5" font-size="14" fill="white" font-family="monospace" dominant-baseline="initial">8</text><rect x="238" y="294.0" width="188" height="1" fill="white" fill-opacity="0.2" /><rect x="238" y="237.0" width="188" height="1" fill="white" fill-opacity="0.2" /><rect x="238" y="179.5" width="188" height="1" fill="white" fill-opacity="0.2" /><rect x="238" y="122.0" width="188" height="1" fill="white" fill-opacity="0.5" /><text x="436" y="122.0" font-size="14" fill="white" font-family="monospace" dominant-baseline="initial">9</text><rect x="476" y="123.5" width="188" height="917.0" fill="black" /><rect x="476" y="1039.5" width="188" height="1" fill="white" fill-opacity="0.5" /><text x="674" y="1039.5" font-size="14" fill="white" font-family="monospace" dominant-baseline="initial">9</text><rect x="476" y="982.5" width="188" height="1" fill="white" fill-opacity="0.2" /><rect x="476" y="925.0" width="188" height="1" fill="white" fill-opacity="0.2" /><rect x="476" y="867.5" width="188" height="1" fill="white" fill-opacity="0.2" /><rect x="476" y="810.5" width="188" height="1" fill="white" fill-opacity="0.5" /><text x="674" y="810.5" font-size="14" fill="white" font-family="monospace" dominant-baseline="initial">10</text><rect x="476" y="753.0" width="188" height="1" fill="white" fill-opacity="0.2" /><rect x="476" y="695.5" width="188" height="1" fill="white" fill-opacity="0.2" /><rect x="476" y="638.5" width="188" height="1" fill="white" fill-opacity="0.2" /><rect x="476" y="581.0" width="188" height="1" fill="white" fill-opacity="0.5" /><text x="674" y="581.0" font-size="14" fill="white" font-family="monospace" dominant-baseline="initial">11</text><rect x="476" y="523.5" width="188" height="1" fill="white" fill-opacity="0.2" /><rect x="476" y="466.5" width="188" height="1" fill="white" fill-opacity="0.2" /><rect x="476" y="409.0" width="188" height="1" fill="white" fill-opacity="0.2" /><rect x="476" y="351.5" width="188" height="1" fill="white" fill-opacity="0.5" /><text x="674" y="351.5" font-size="14" fill="white" font-family="monospace" dominant-baseline="initial">12</text><rect x="476" y="294.5" width="188" height="1" fill="white" fill-opacity="0.2" /><rect x="476" y="237.0" width="188" height="1" fill="white" fill-opacity="0.2" /><rect x="476" y="179.5" width="188" height="1" fill="white" fill-opacity="0.2" /><rect x="476" y="122.5" width="188" height="1" fill="white" fill-opacity="0.5" /><text x="674" y="122.5" font-size="14" fill="white" font-family="monospace" dominant-baseline="initial">13</text><rect x="714" y="123.0" width="188" height="917.5" fill="black" /><rect x="714" y="1039.5" width="188" height="1" fill="white" fill-opacity="0.5" /><text x="912" y="1039.5" font-size="14" fill="white" font-family="monospace" dominant-baseline="initial">13</text><rect x="714" y="982.0" width="188" height="1" fill="white" fill-opacity="0.2" /><rect x="714" y="925.0" width="188" height="1" fill="white" fill-opacity="0.2" /><rect x="714" y="867.5" width="188" height="1" fill="white" fill-opacity="0.2" /><rect x="714" y="810.0" width="188" height="1" fill="white" fill-opacity="0.5" /><text x="912" y="810.0" font-size="14" fill="white" font-family="monospace" dominant-baseline="initial">14</text><rect x="714" y="753.0" width="188" height="1" fill="white" fill-opacity="0.2" /><rect x="714" y="695.5" width="188" height="1" fill="white" fill-opacity="0.2" /><rect x="714" y="638.0" width="188" height="1" fill="white" fill-opacity="0.2" /><rect x="714" y="581.0" width="188" height="1" fill="white" fill-opacity="0.5" /><text x="912" y="581.0" font-size="14" fill="white" font-family="monospace" dominant-baseline="initial">15</text><rect x="714" y="523.5" width="188" height="1" fill="white" fill-opacity="0.2" /><rect x="714" y="466.0" width="188" height="1" fill="white" fill-opacity="0.2" /><rect x="714" y="409.0" width="188" height="1" fill="white" fill-opacity="0.2" /><rect x="714" y="351.5" width="188" height="1" fill="white" fill-opacity="0.5" /><text x="912" y="351.5" font-size="14" fill="white" font-family="monospace" dominant-baseline="initial">16</text><rect x="714" y="294.0" width="188" height="1" fill="white" fill-opacity="0.2" /><rect x="714" y="237.0" width="188" height="1" fill="white" fill-opacity="0.2" /><rect x="714" y="179.5" width="188" height="1" fill="white" fill-opacity="0.2" /><rect x="714" y="122.0" width="188" height="1" fill="white" fill-opacity="0.5" /><text x="912" y="122.0" font-size="14" fill="white" font-family="monospace" dominant-baseline="initial">17</text><rect x="714" y="810.0500000000002" width="188" height="1" fill="aqua" fill-opacity="0.75" /><text x="714" y="806.0500000000002" font-size="14" fill="aqua" fill-opacity="0.75" font-family="monospace">Phrase B</text><rect x="952" y="123.5" width="188" height="917.0" fill="black" /><rect x="952" y="1039.5" width="188" height="1" fill="white" fill-opacity="0.5" /><text x="1150" y="1039.5" font-size="14" fill="white" font-family="monospace" dominant-baseline="initial">17</text><rect x="952" y="982.5" width="188" height="1" fill="white" fill-opacity="0.2" /><rect x="952" y="925.0" width="188" height="1" fill="white" fill-opacity="0.2" /><rect x="952" y="867.5" width="188" height="1" fill="white" fill-opacity="0.2" /><rect x="952" y="810.5" width="188" height="1" fill="white" fill-opacity="0.5" /><text x="1150" y="810.5" font-size="14" fill="white" font-family="monospace" dominant-baseline="initial">18</text><rect x="952" y="753.0" width="188" height="1" fill="white" fill-opacity="0.2" /><rect x="952" y="696.0" width="188" height="1" fill="white" fill-opacity="0.2" /><rect x="952" y="638.5" width="188" height="1" fill="white" fill-opacity="0.2" /><rect x="952" y="581.0" width="188" height="1" fill="white" fill-opacity="0.5" /><text x="1150" y="581.0" font-size="14" fill="white" font-family="monospace" dominant-baseline="initial">19</text><rect x="952" y="524.0" width="188" height="1" fill="white" fill-opacity="0.2" /><rect x="952" y="466.5" width="188" height="1" fill="white" fill-opacity="0.2" /><rect x="952" y="409.0" width="188" height="1" fill="white" fill-opacity="0.2" /><rect x="952" y="352.0" width="188" height="1" fill="white" fill-opacity="0.5" /><text x="1150" y="352.0" font-size="14" fill="white" font-family="monospace" dominant-baseline="initial">20</text><rect x="952" y="294.5" width="188" height="1" fill="white" fill-opacity="0.2" /><rect x="952" y="237.0" width="188" height="1" fill="white" fill-opacity="0.2" /><rect x="952" y="180.0" width="188" height="1" fill="white" fill-opacity="0.2" /><rect x="952" y="122.5" width="188" height="1" fill="white" fill-opacity="0.5" /><text x="1150" y="122.5" font-size="14" fill="white" font-family="monospace" dominant-baseline="initial">21</text><rect x="1190" y="123.5" width="188" height="917.0" fill="black" /><rect x="1190" y="1039.5" width="188" height="1" fill="white" fill-opacity="0.5" /><text x="1388" y="1039.5" font-size="14" fill="white" font-family="monospace" dominant-baseline="initial">21</text><rect x="1190" y="982.0" width="188" height="1" fill="white" fill-opacity="0.2" /><rect x="1190" y="925.0" width="188" height="1" fill="white" fill-opacity="0.2" /><rect x="1190" y="867.5" width="188" height="1" fill="white" fill-opacity="0.2" /><rect x="1190" y="810.0" width="188" height="1" fill="white" fill-opacity="0.5" /><text x="1388" y="810.0" font-size="14" fill="white" font-family="monospace" dominant-baseline="initial">22</text><rect x="1190" y="753.0" width="188" height="1" fill="white" fill-opacity="0.2" /><rect x="1190" y="695.5" width="188" height="1" fill="white" fill-opacity="0.2" /><rect x="1190" y="638.0" width="188" height="1" fill="white" fill-opacity="0.2" /><rect x="1190" y="581.0" width="188" height="1" fill="white" fill-opacity="0.5" /><text x="1388" y="581.0" font-size="14" fill="white" font-family="monospace" dominant-baseline="initial">23</text><rect x="1190" y="523.5" width="188" height="1" fill="white" fill-opacity="0.2" /><rect x="1190" y="466.5" width="188" height="1" fill="white" fill-opacity="0.2" /><rect x="1190" y="409.0" width="188" height="1" fill="white" fill-opacity="0.2" /><rect x="1190" y="351.5" width="188" height="1" fill="white" fill-opacity="0.5" /><text x="1388" y="351.5" font-size="14" fill="white" font-family="monospace" dominant-baseline="initial">24</text><rect x="1190" y="294.5" width="188" height="1" fill="white" fill-opacity="0.2" /><rect x="1190" y="237.0" width="188" height="1" fill="white" fill-opacity="0.2" /><rect x="1190" y="179.5" width="188" height="1" fill="white" fill-opacity="0.2" /><rect x="1190" y="122.5" width="188" height="1" fill="white" fill-opacity="0.5" /><text x="1388" y="122.5" font-size="14" fill="white" font-family="monospace" dominant-baseline="initial">25</text><rect x="1190" y="810.1999999999998" width="188" height="1" fill="aqua" fill-opacity="0.75" /><text x="1190" y="806.1999999999998" font-size="14" fill="aqua" fill-opacity="0.75" font-family="monospace">Special</text><rect x="1428" y="123.0" width="188" height="917.5" fill="black" /><rect x="1428" y="1039.5" width="188" height="1" fill="white" fill-opacity="0.5" /><text x="1626" y="1039.5" font-size="14" fill="white" font-family="monospace" dominant-baseline="initial">25</text><rect x="1428" y="982.0" width="188" height="1" fill="white" fill-opacity="0.2" /><rect x="1428" y="924.5" width="188" height="1" fill="white" fill-opacity="0.2" /><rect x="1428" y="867.5" width="188" height="1" fill="white" fill-opacity="0.2" /><rect x="1428" y="810.0" width="188" height="1" fill="white" fill-opacity="0.5" /><text x="1626" y="810.0" font-size="14" fill="white" font-family="monospace" dominant-baseline="initial">26</text><rect x="1428" y="752.5" width="188" height="1" fill="white" fill-opacity="0.2" /><rect x="1428" y="695.5" width="188" height="1" fill="white" fill-opacity="0.2" /><rect x="1428" y="638.0" width="188" height="1" fill="white" fill-opacity="0.2" /><rect x="1428" y="580.5" width="188" height="1" fill="white" fill-opacity="0.5" /><text x="1626" y="580.5" font-size="14" fill="white" font-family="monospace" dominant-baseline="initial">27</text><rect x="1428" y="523.5" width="188" height="1" fill="white" fill-opacity="0.2" /><rect x="1428" y="466.0" width="188" height="1" fill="white" fill-opacity="0.2" /><rect x="1428" y="409.0" width="188" height="1" fill="white" fill-opacity="0.2" /><rect x="1428" y="351.5" width="188" height="1" fill="white" fill-opacity="0.5" /><text x="1626" y="351.5" font-size="14" fill="white" font-family="monospace" dominant-baseline="initial">28</text><rect x="1428" y="294.0" width="188" height="1" fill="white" fill-opacity="0.2" /><rect x="1428" y="237.0" width="188" height="1" fill="white" fill-opacity="0.2" /><rect x="1428" y="179.5" width="188" height="1" fill="white" fill-opacity="0.2" /><rect x="1428" y="122.0" width="188" height="1" fill="white" fill-opacity="0.5" /><text x="1626" y="122.0" font-size="14" fill="white" font-family="monospace" dominant-baseline="initial">29</text><rect x="1666" y="123.5" width="188" height="917.0" fill="black" /><rect x="1666" y="1039.5" width="188" height="1" fill="white" fill-opacity="0.5" /><text x="1864" y="1039.5" font-size="14" fill="white" font-family="monospace" dominant-baseline="initial">29</text><rect x="1666" y="982.5" width="188" height="1" fill="white" fill-opacity="0.2" /><rect x="1666" y="925.0" width="188" height="1" fill="white" fill-opacity="0.2" /><rect x="1666" y="867.5" width="188" height="1" fill="white" fill-opacity="0.2" /><rect x="1666" y="810.5" width="188" height="1" fill="white" fill-opacity="0.5" /><text x="1864" y="810.5" font-size="14" fill="white" font-family="monospace" dominant-baseline="initial">30</text><rect x="1666" y="753.0" width="188" height="1" fill="white" fill-opacity="0.2" /><rect x="1666" y="695.5" width="188" height="1" fill="white" fill-opacity="0.2" /><rect x="1666" y="638.5" width="188" height="1" fill="white" fill-opacity="0.2" /><rect x="1666" y="581.0" width="188" height="1" fill="white" fill-opacity="0.5" /><text x="1864" y="581.0" font-size="14" fill="white" font-family="monospace" dominant-baseline="initial">31</text><rect x="1666" y="523.5" width="188" height="1" fill="white" fill-opacity="0.2" /><rect x="1666" y="466.5" width="188" height="1" fill="white" fill-opacity="0.2" /><rect x="1666" y="409.0" width="188" height="1" fill="white" fill-opacity="0.2" /><rect x="1666" y="351.5" width="188" height="1" fill="white" fill-opacity="0.5" /><text x="1864" y="351.5" font-size="14" fill="white" font-family="monospace" dominant-baseline="initial">32</text><rect x="1666" y="294.5" width="188" height="1" fill="white" fill-opacity="0.2" /><rect x="1666" y="237.0" width="188" height="1" fill="white" fill-opacity="0.2" /><rect x="1666" y="180.0" width="188" height="1" fill="white" fill-opacity="0.2" /><rect x="1666" y="122.5" width="188" height="1" fill="white" fill-opacity="0.5" /><text x="1864" y="122.5" font-size="14" fill="white" font-family="monospace" dominant-baseline="initial">33</text><rect x="1666" y="810.3500000000004" width="188" height="1" fill="aqua" fill-opacity="0.75" /><text x="1666" y="806.3500000000004" font-size="14" fill="aqua" fill-opacity="0.75" font-family="monospace">Phrase A</text><rect x="1904" y="123.0" width="188" height="917.5" fill="black" /><rect x="1904" y="1039.5" width="188" height="1" fill="white" fill-opacity="0.5" /><text x="2102" y="1039.5" font-size="14" fill="white" font-family="monospace" dominant-baseline="initial">33</text><rect x="1904" y="982.0" width="188" height="1" fill="white" fill-opacity="0.2" /><rect x="1904" y="925.0" width="188" height="1" fill="white" fill-opacity="0.2" /><rect x="1904" y="867.5" width="188" height="1" fill="white" fill-opacity="0.2" /><rect x="1904" y="810.0" width="188" height="1" fill="white" fill-opacity="0.5" /><text x="2102" y="810.0" font-size="14" fill="white" font-family="monospace" dominant-baseline="initial">34</text><rect x="1904" y="753.0" width="188" height="1" fill="white" fill-opacity="0.2" /><rect x="1904" y="695.5" width="188" height="1" fill="white" fill-opacity="0.2" /><rect x="1904" y="638.0" width="188" height="1" fill="white" fill-opacity="0.2" /><rect x="1904" y="581.0" width="188" height="1" fill="white" fill-opacity="0.5" /><text x="2102" y="581.0" font-size="14" fill="white" font-family="monospace" dominant-baseline="initial">35</text><rect x="1904" y="523.5" width="188" height="1" fill="white" fill-opacity="0.2" /><rect x="1904" y="466.0" width="188" height="1" fill="white" fill-opacity="0.2" /><rect x="1904" y="409.0" width="188" height="1" fill="white" fill-opacity="0.2" /><rect x="1904" y="351.5" width="188" height="1" fill="white" fill-opacity="0.5" /><text x="2102" y="351.5" font-size="14" fill="white" font-family="monospace" dominant-baseline="initial">36</text><rect x="1904" y="294.0" width="188" height="1" fill="white" fill-opacity="0.2" /><rect x="1904" y="237.0" width="188" height="1" fill="white" fill-opacity="0.2" /><rect x="1904" y="179.5" width="188" height="1" fill="white" fill-opacity="0.2" /><rect x="1904" y="122.0" width="188" height="1" fill="white" fill-opacity="0.5" /><text x="2102" y="122.0" font-size="14" fill="white" font-family="monospace" dominant-baseline="initial">37</text><rect x="2142" y="123.5" width="188" height="917.0" fill="black" /><rect x="2142" y="1039.5" width="188" height="1" fill="white" fill-opacity="0.5" /><text x="2340" y="1039.5" font-size="14" fill="white" font-family="monospace" dominant-baseline="initial">37</text><rect x="2142" y="982.5" width="188" height="1" fill="white" fill-opacity="0.2" /><rect x="2142" y="925.0" width="188" height="1" fill="white" fill-opacity="0.2" /><rect x="2142" y="868.0" width="188" height="1" fill="white" fill-opacity="0.2" /><rect x="2142" y="810.5" width="188" height="1" fill="white" fill-opacity="0.5" /><text x="2340" y="810.5" font-size="14" fill="white" font-family="monospace" dominant-baseline="initial">38</text><rect x="2142" y="753.0" width="188" height="1" fill="white" fill-opacity="0.2" /><rect x="2142" y="696.0" width="188" height="1" fill="white" fill-opacity="0.2" /><rect x="2142" y="638.5" width="188" height="1" fill="white" fill-opacity="0.2" /><rect x="2142" y="581.0" width="188" height="1" fill="white" fill-opacity="0.5" /><text x="2340" y="581.0" font-size="14" fill="white" font-family="monospace" dominant-baseline="initial">39</text><rect x="2142" y="524.0" width="188" height="1" fill="white" fill-opacity="0.2" /><rect x="2142" y="466.5" width="188" height="1" fill="white" fill-opacity="0.2" /><rect x="2142" y="409.0" width="188" height="1" fill="white" fill-opacity="0.2" /><rect x="2142" y="352.0" width="188" height="1" fill="white" fill-opacity="0.5" /><text x="2340" y="352.0" font-size="14" fill="white" font-family="monospace" dominant-baseline="initial">40</text><rect x="2142" y="294.5" width="188" height="1" fill="white" fill-opacity="0.2" /><rect x="2142" y="237.0" width="188" height="1" fill="white" fill-opacity="0.2" /><rect x="2142" y="180.0" width="188" height="1" fill="white" fill-opacity="0.2" /><rect x="2142" y="122.5" width="188" height="1" fill="white" fill-opacity="0.5" /><text x="2340" y="122.5" font-size="14" fill="white" font-family="monospace" dominant-baseline="initial">41</text><rect x="2142" y="810.5" width="188" height="1" fill="aqua" fill-opacity="0.75" /><text x="2142" y="806.5" font-size="14" fill="aqua" fill-opacity="0.75" font-family="monospace">Phrase B</text><rect x="2380" y="123.5" width="188" height="917.0" fill="black" /><rect x="2380" y="1039.5" width="188" height="1" fill="white" fill-opacity="0.5" /><text x="2578" y="1039.5" font-size="14" fill="white" font-family="monospace" dominant-baseline="initial">41</text><rect x="2380" y="982.0" width="188" height="1" fill="white" fill-opacity="0.2" /><rect x="2380" y="925.0" width="188" height="1" fill="white" fill-opacity="0.2" /><rect x="2380" y="867.5" width="188" height="1" fill="white" fill-opacity="0.2" /><rect x="2380" y="810.0" width="188" height="1" fill="white" fill-opacity="0.5" /><text x="2578" y="810.0" font-size="14" fill="white" font-family="monospace" dominant-baseline="initial">42</text><rect x="2380" y="753.0" width="188" height="1" fill="white" fill-opacity="0.2" /><rect x="2380" y="695.5" width="188" height="1" fill="white" fill-opacity="0.2" /><rect x="2380" y="638.5" width="188" height="1" fill="white" fill-opacity="0.2" /><rect x="2380" y="581.0" width="188" height="1" fill="white" fill-opacity="0.5" /><text x="2578" y="581.0" font-size="14" fill="white" font-family="monospace" dominant-baseline="initial">43</text><rect x="2380" y="523.5" width="188" height="1" fill="white" fill-opacity="0.2" /><rect x="2380" y="466.5" width="188" height="1" fill="white" fill-opacity="0.2" /><rect x="2380" y="409.0" width="188" height="1" fill="white" fill-opacity="0.2" /><rect x="2380" y="351.5" width="188" height="1" fill="white" fill-opacity="0.5" /><text x="2578" y="351.5" font-size="14" fill="white" font-family="monospace" dominant-baseline="initial">44</text><rect x="2380" y="294.5" width="188" height="1" fill="white" fill-opacity="0.2" /><rect x="2380" y="237.0" width="188" height="1" fill="white" fill-opacity="0.2" /><rect x="2380" y="179.5" width="188" height="1" fill="white" fill-opacity="0.2" /><rect x="2380" y="122.5" width="188" height="1" fill="white" fill-opacity="0.5" /><text x="2578" y="122.5" font-size="14" fill="white" font-family="monospace" dominant-baseline="initial">45</text><rect x="2618" y="123.0" width="188" height="917.5" fill="black" /><rect x="2618" y="1039.5" width="188" height="1" fill="white" fill-opacity="0.5" /><text x="2816" y="1039.5" font-size="14" fill="white" font-family="monospace" dominant-baseline="initial">45</text><rect x="2618" y="982.0" width="188" height="1" fill="white" fill-opacity="0.2" /><rect x="2618" y="924.5" width="188" height="1" fill="white" fill-opacity="0.2" /><rect x="2618" y="867.5" width="188" height="1" fill="white" fill-opacity="0.2" /><rect x="2618" y="810.0" width="188" height="1" fill="white" fill-opacity="0.5" /><text x="2816" y="810.0" font-size="14" fill="white" font-family="monospace" dominant-baseline="initial">46</text><rect x="2618" y="752.5" width="188" height="1" fill="white" fill-opacity="0.2" /><rect x="2618" y="695.5" width="188" height="1" fill="white" fill-opacity="0.2" /><rect x="2618" y="638.0" width="188" height="1" fill="white" fill-opacity="0.2" /><rect x="2618" y="580.5" width="188" height="1" fill="white" fill-opacity="0.5" /><text x="2816" y="580.5" font-size="14" fill="white" font-family="monospace" dominant-baseline="initial">47</text><rect x="2618" y="523.5" width="188" height="1" fill="white" fill-opacity="0.2" /><rect x="2618" y="466.0" width="188" height="1" fill="white" fill-opacity="0.2" /><rect x="2618" y="409.0" width="188" height="1" fill="white" fill-opacity="0.2" /><rect x="2618" y="351.5" width="188" height="1" fill="white" fill-opacity="0.5" /><text x="2816" y="351.5" font-size="14" fill="white" font-family="monospace" dominant-baseline="initial">48</text><rect x="2618" y="294.0" width="188" height="1" fill="white" fill-opacity="0.2" /><rect x="2618" y="237.0" width="188" height="1" fill="white" fill-opacity="0.2" /><rect x="2618" y="179.5" width="188" height="1" fill="white" fill-opacity="0.2" /><rect x="2618" y="122.0" width="188" height="1" fill="white" fill-opacity="0.5" /><text x="2816" y="122.0" font-size="14" fill="white" font-family="monospace" dominant-baseline="initial">49</text><rect x="2618" y="810.0" width="188" height="1" fill="aqua" fill-opacity="0.75" /><text x="2618" y="806.0" font-size="14" fill="aqua" fill-opacity="0.75" font-family="monospace">Special</text><rect x="2856" y="123.5" width="188" height="917.0" fill="black" /><rect x="2856" y="1039.5" width="188" height="1" fill="white" fill-opacity="0.5" /><text x="3054" y="1039.5" font-size="14" fill="white" font-family="monospace" dominant-baseline="initial">49</text><rect x="2856" y="982.5" width="188" height="1" fill="white" fill-opacity="0.2" /><rect x="2856" y="925.0" width="188" height="1" fill="white" fill-opacity="0.2" /><rect x="2856" y="867.5" width="188" height="1" fill="white" fill-opacity="0.2" /><rect x="2856" y="810.5" width="188" height="1" fill="white" fill-opacity="0.5" /><text x="3054" y="810.5" font-size="14" fill="white" font-family="monospace" dominant-baseline="initial">50</text><rect x="2856" y="753.0" width="188" height="1" fill="white" fill-opacity="0.2" /><rect x="2856" y="695.5" width="188" height="1" fill="white" fill-opacity="0.2" /><rect x="2856" y="638.5" width="188" height="1" fill="white" fill-opacity="0.2" /><rect x="2856" y="581.0" width="188" height="1" fill="white" fill-opacity="0.5" /><text x="3054" y="581.0" font-size="14" fill="white" font-family="monospace" dominant-baseline="initial">51</text><rect x="2856" y="523.5" width="188" height="1" fill="white" fill-opacity="0.2" /><rect x="2856" y="466.5" width="188" height="1" fill="white" fill-opacity="0.2" /><rect x="2856" y="409.0" width="188" height="1" fill="white" fill-opacity="0.2" /><rect x="2856" y="352.0" width="188" height="1" fill="white" fill-opacity="0.5" /><text x="3054" y="352.0" font-size="14" fill="white" font-family="monospace" dominant-baseline="initial">52</text><rect x="2856" y="294.5" width="188" height="1" fill="white" fill-opacity="0.2" /><rect x="2856" y="237.0" width="188" height="1" fill="white" fill-opacity="0.2" /><rect x="2856" y="180.0" width="188" height="1" fill="white" fill-opacity="0.2" /><rect x="2856" y="122.5" width="188" height="1" fill="white" fill-opacity="0.5" /><text x="3054" y="122.5" font-size="14" fill="white" font-family="monospace" dominant-baseline="initial">53</text><rect x="3094" y="123.5" width="188" height="917.0" fill="black" /><rect x="3094" y="1039.5" width="188" height="1" fill="white" fill-opacity="0.5" /><text x="3292" y="1039.5" font-size="14" fill="white" font-family="monospace" dominant-baseline="initial">53</text><rect x="3094" y="982.0" width="188" height="1" fill="white" fill-opacity="0.2" /><rect x="3094" y="925.0" width="188" height="1" fill="white" fill-opacity="0.2" /><rect x="3094" y="867.5" width="188" height="1" fill="white" fill-opacity="0.2" /><rect x="3094" y="810.0" width="188" height="1" fill="white" fill-opacity="0.5" /><text x="3292" y="810.0" font-size="14" fill="white" font-family="monospace" dominant-baseline="initial">54</text><rect x="3094" y="753.0" width="188" height="1" fill="white" fill-opacity="0.2" /><rect x="3094" y="695.5" width="188" height="1" fill="white" fill-opacity="0.2" /><rect x="3094" y="638.0" width="188" height="1" fill="white" fill-opacity="0.2" /><rect x="3094" y="581.0" width="188" height="1" fill="white" fill-opacity="0.5" /><text x="3292" y="581.0" font-size="14" fill="white" font-family="monospace" dominant-baseline="initial">55</text><rect x="3094" y="523.5" width="188" height="1" fill="white" fill-opacity="0.2" /><rect x="3094" y="466.0" width="188" height="1" fill="white" fill-opacity="0.2" /><rect x="3094" y="409.0" width="188" height="1" fill="white" fill-opacity="0.2" /><rect x="3094" y="351.5" width="188" height="1" fill="white" fill-opacity="0.5" /><text x="3292" y="351.5" font-size="14" fill="white" font-family="monospace" dominant-baseline="initial">56</text><rect x="3094" y="294.0" width="188" height="1" fill="white" fill-opacity="0.2" /><rect x="3094" y="237.0" width="188" height="1" fill="white" fill-opacity="0.2" /><rect x="3094" y="179.5" width="188" height="1" fill="white" fill-opacity="0.2" /><rect x="3094" y="122.5" width="188" height="1" fill="white" fill-opacity="0.5" /><text x="3292" y="122.5" font-size="14" fill="white" font-family="monospace" dominant-baseline="initial">57</text><rect x="3094" y="810.1499999999996" width="188" height="1" fill="aqua" fill-opacity="0.75" /><text x="3094" y="806.1499999999996" font-size="14" fill="aqua" fill-opacity="0.75" font-family="monospace">Phrase A</text><rect x="3332" y="123.0" width="188" height="917.5" fill="black" /><rect x="3332" y="1039.5" width="188" height="1" fill="white" fill-opacity="0.5" /><text x="3530" y="1039.5" font-size="14" fill="white" font-family="monospace" dominant-baseline="initial">57</text><rect x="3332" y="982.0" width="188" height="1" fill="white" fill-opacity="0.2" /><rect x="3332" y="924.5" width="188" height="1" fill="white" fill-opacity="0.2" /><rect x="3332" y="867.5" width="188" height="1" fill="white" fill-opacity="0.2" /><rect x="3332" y="810.0" width="188" height="1" fill="white" fill-opacity="0.5" /><text x="3530" y="810.0" font-size="14" fill="white" font-family="monospace" dominant-baseline="initial">58</text><rect x="3332" y="752.5" width="188" height="1" fill="white" fill-opacity="0.2" /><rect x="3332" y="695.5" width="188" height="1" fill="white" fill-opacity="0.2" /><rect x="3332" y="638.0" width="188" height="1" fill="white" fill-opacity="0.2" /><rect x="3332" y="580.5" width="188" height="1" fill="white" fill-opacity="0.5" /><text x="3530" y="580.5" font-size="14" fill="white" font-family="monospace" dominant-baseline="initial">59</text><rect x="3332" y="523.5" width="188" height="1" fill="white" fill-opacity="0.2" /><rect x="3332" y="466.0" width="188" height="1" fill="white" fill-opacity="0.2" /><rect x="3332" y="408.5" width="188" height="1" fill="white" fill-opacity="0.2" /><rect x="3332" y="351.5" width="188" height="1" fill="white" fill-opacity="0.5" /><text x="3530" y="351.5" font-size="14" fill="white" font-family="monospace" dominant-baseline="initial">60</text><rect x="3332" y="294.0" width="188" height="1" fill="white" fill-opacity="0.2" /><rect x="3332" y="236.5" width="188" height="1" fill="white" fill-opacity="0.2" /><rect x="3332" y="179.5" width="188" height="1" fill="white" fill-opacity="0.2" /><rect x="3332" y="122.0" width="188" height="1" fill="white" fill-opacity="0.5" /><text x="3530" y="122.0" font-size="14" fill="white" font-family="monospace" dominant-baseline="initial">61</text><rect x="3332" y="809.9000000000015" width="188" height="1" fill="aqua" fill-opacity="0.75" /><text x="3332" y="805.9000000000015" font-size="14" fill="aqua" fill-opacity="0.75" font-family="monospace">Special</text><rect x="3570" y="123.5" width="188" height="917.0" fill="black" /><rect x="3570" y="1039.5" width="188" height="1" fill="white" fill-opacity="0.5" /><text x="3768" y="1039.5" font-size="14" fill="white" font-family="monospace" dominant-baseline="initial">61</text><rect x="3570" y="982.0" width="188" height="1" fill="white" fill-opacity="0.2" /><rect x="3570" y="925.0" width="188" height="1" fill="white" fill-opacity="0.2" /><rect x="3570" y="867.5" width="188" height="1" fill="white" fill-opacity="0.2" /><rect x="3570" y="810.5" width="188" height="1" fill="white" fill-opacity="0.5" /><text x="3768" y="810.5" font-size="14" fill="white" font-family="monospace" dominant-baseline="initial">62</text><rect x="3570" y="753.0" width="188" height="1" fill="white" fill-opacity="0.2" /><rect x="3570" y="695.5" width="188" height="1" fill="white" fill-opacity="0.2" /><rect x="3570" y="638.5" width="188" height="1" fill="white" fill-opacity="0.2" /><rect x="3570" y="581.0" width="188" height="1" fill="white" fill-opacity="0.5" /><text x="3768" y="581.0" font-size="14" fill="white" font-family="monospace" dominant-baseline="initial">63</text><rect x="3570" y="523.5" width="188" height="1" fill="white" fill-opacity="0.2" /><rect x="3570" y="466.5" width="188" height="1" fill="white" fill-opacity="0.2" /><rect x="3570" y="409.0" width="188" height="1" fill="white" fill-opacity="0.2" /><rect x="3570" y="351.5" width="188" height="1" fill="white" fill-opacity="0.5" /><text x="3768" y="351.5" font-size="14" fill="white" font-family="monospace" dominant-baseline="initial">64</text><rect x="3570" y="294.5" width="188" height="1" fill="white" fill-opacity="0.2" /><rect x="3570" y="237.0" width="188" height="1" fill="white" fill-opacity="0.2" /><rect x="3570" y="179.5" width="188" height="1" fill="white" fill-opacity="0.2" /><rect x="3570" y="122.5" width="188" height="1" fill="white" fill-opacity="0.5" /><text x="3768" y="122.5" font-size="14" fill="white" font-family="monospace" dominant-baseline="initial">65</text><rect x="3808" y="14.0" width="188" height="1026.5" fill="black" /><rect x="3808" y="1039.5" width="188" height="1" fill="white" fill-opacity="0.5" /><text x="4006" y="1039.5" font-size="14" fill="white" font-family="monospace" dominant-baseline="initial">65</text><rect x="3808" y="982.0" width="188" height="1" fill="white" fill-opacity="0.2" /><rect x="3808" y="924.5" width="188" height="1" fill="white" fill-opacity="0.2" /><rect x="3808" y="867.5" width="188" height="1" fill="white" fill-opacity="0.2" /><rect x="3808" y="810.0" width="188" height="1" fill="white" fill-opacity="0.5" /><text x="4006" y="810.0" font-size="14" fill="white" font-family="monospace" dominant-baseline="initial">66</text><rect x="3808" y="752.5" width="188" height="1" fill="white" fill-opacity="0.2" /><rect x="3808" y="695.5" width="188" height="1" fill="white" fill-opacity="0.2" /><rect x="3808" y="638.0" width="188" height="1" fill="white" fill-opacity="0.2" /><rect x="3808" y="581.0" width="188" height="1" fill="white" fill-opacity="0.5" /><text x="4006" y="581.0" font-size="14" fill="white" font-family="monospace" dominant-baseline="initial">67</text><rect x="3808" y="523.5" width="188" height="1" fill="white" fill-opacity="0.2" /><rect x="3808" y="466.0" width="188" height="1" fill="white" fill-opacity="0.2" /><rect x="3808" y="409.0" width="188" height="1" fill="white" fill-opacity="0.2" /><rect x="3808" y="351.5" width="188" height="1" fill="white" fill-opacity="0.5" /><text x="4006" y="351.5" font-size="14" fill="white" font-family="monospace" dominant-baseline="initial">68</text></svg>