<?xml version="1.0" encoding="UTF-8"?><svg xmlns="http://www.w3.org/2000/svg" xmlns:xlink="http://www.w3.org/1999/xlink"     width="4998" height="864.0" viewBox="0 0 4998 864.0"><defs></defs><rect x="0" y="64.0" width="188" height="800.0" fill="black" /><rect x="0" y="863.0" width="188" height="1" fill="white" fill-opacity="0.5" /><text x="198" y="863.0" font-size="14" fill="white" font-family="monospace" dominant-baseline="initial">1</text><rect x="0" y="813.0" width="188" height="1" fill="white" fill-opacity="0.2" /><rect x="0" y="763.0" width="188" height="1" fill="white" fill-opacity="0.2" /><rect x="0" y="713.0" width="188" height="1" fill="white" fill-opacity="0.2" /><rect x="0" y="663.0" width="188" height="1" fill="white" fill-opacity="0.5" /><text x="198" y="663.0" font-size="14" fill="white" font-family="monospace" dominant-baseline="initial">2</text><rect x="0" y="613.0" width="188" height="1" fill="white" fill-opacity="0.2" /><rect x="0" y="563.0" width="188" height="1" fill="white" fill-opacity="0.2" /><rect x="0" y="513.0" width="188" height="1" fill="white" fill-opacity="0.2" /><rect x="0" y="463.0" width="188" height="1" fill="white" fill-opacity="0.5" /><text x="198" y="463.0" font-size="14" fill="white" font-family="monospace" dominant-baseline="initial">3</text><rect x="0" y="413.0" width="188" height="1" fill="white" fill-opacity="0.2" /><rect x="0" y="363.0" width="188" height="1" fill="white" fill-opacity="0.2" /><rect x="0" y="313.0" width="188" height="1" fill="white" fill-opacity="0.2" /><rect x="0" y="263.0" width="188" height="1" fill="white" fill-opacity="0.5" /><text x="198" y="263.0" font-size="14" fill="white" font-family="monospace" dominant-baseline="initial">4</text><rect x="0" y="213.0" width="188" height="1" fill="white" fill-opacity="0.2" /><rect x="0" y="163.0" width="188" height="1" fill="white" fill-opacity="0.2" /><rect x="0" y="113.0" width="188" height="1" fill="white" fill-opacity="0.2" /><rect x="0" y="63.0" width="188" height="1" fill="white" fill-opacity="0.5" /><text x="198" y="63.0" font-size="14" fill="white" font-family="monospace" dominant-baseline="initial">5</text><rect x="0" y="863.0" width="188" height="1" fill="aqua" fill-opacity="0.75" /><text x="0" y="859.0" font-size="14" fill="aqua" fill-opacity="0.75" font-family="monospace">Phrase A</text><rect x="0" y="863.0" width="188" height="1" fill="lime" fill-opacity="0.75" /><text x="198" y="850.0" font-size="14" fill="lime" font-family="monospace" dominant-baseline="initial">180</text><rect x="238" y="64.0" width="188" height="800.0" fill="black" /><rect x="238" y="863.0" width="188" height="1" fill="white" fill-opacity="0.5" /><text x="436" y="863.0" font-size="14" fill="white" font-family="monospace" dominant-baseline="initial">5</text><rect x="238" y="813.0" width="188" height="1" fill="white" fill-opacity="0.2" /><rect x="238" y="763.0" width="188" height="1" fill="white" fill-opacity="0.2" /><rect x="238" y="713.0" width="188" height="1" fill="white" fill-opacity="0.2" /><rect x="238" y="663.0" width="188" height="1" fill="white" fill-opacity="0.5" /><text x="436" y="663.0" font-size="14" fill="white" font-family="monospace" dominant-baseline="initial">6</text><rect x="238" y="613.0" width="188" height="1" fill="white" fill-opacity="0.2" /><rect x="238" y="563.0" width="188" height="1" fill="white" fill-opacity="0.2" /><rect x="238" y="513.0" width="188" height="1" fill="white" fill-opacity="0.2" /><rect x="238" y="463.0" width="188" height="1" fill="white" fill-opacity="0.5" /><text x="436" y="463.0" font-size="14" fill="white" font-family="monospace" dominant-baseline="initial">7</text><rect x="238" y="413.0" width="188" height="1" fill="white" fill-opacity="0.2" /><rect x="238" y="363.0" width="188" height="1" fill="white" fill-opacity="0.2" /><rect x="238" y="313.0" width="188" height="1" fill="white" fill-opacity="0.2" /><rect x="238" y="263.0" width="188" height="1" fill="white" fill-opacity="0.5" /><text x="436" y="263.0" font-size="14" fill="white" font-family="monospace" dominant-baseline="initial">8</text><rect x="238" y="213.0" width="188" height="1" fill="white" fill-opacity="0.2" /><rect x="238" y="163.0" width="188" height="1" fill="white" fill-opacity="0.2" /><rect x="238" y="113.0" width="188" height="1" fill="white" fill-opacity="0.2" /><rect x="238" y="63.0" width="188" height="1" fill="white" fill-opacity="0.5" /><text x="436" y="63.0" font-size="14" fill="white" font-family="monospace" dominant-baseline="initial">9</text><rect x="476" y="64.0" width="188" height="800.0" fill="black" /><rect x="476" y="863.0" width="188" height="1" fill="white" fill-opacity="0.5" /><text x="674" y="863.0" font-size="14" fill="white" font-family="monospace" dominant-baseline="initial">9</text><rect x="476" y="813.0" width="188" height="1" fill="white" fill-opacity="0.2" /><rect x="476" y="763.0" width="188" height="1" fill="white" fill-opacity="0.2" /><rect x="476" y="713.0" width="188" height="1" fill="white" fill-opacity="0.2" /><rect x="476" y="663.0" width="188" height="1" fill="white" fill-opacity="0.5" /><text x="674" y="663.0" font-size="14" fill="white" font-family="monospace" dominant-baseline="initial">10</text><rect x="476" y="613.0" width="188" height="1" fill="white" fill-opacity="0.2" /><rect x="476" y="563.0" width="188" height="1" fill="white" fill-opacity="0.2" /><rect x="476" y="513.0" width="188" height="1" fill="white" fill-opacity="0.2" /><rect x="476" y="463.0" width="188" height="1" fill="white" fill-opacity="0.5" /><text x="674" y="463.0" font-size="14" fill="white" font-family="monospace" dominant-baseline="initial">11</text><rect x="476" y="413.0" width="188" height="1" fill="white" fill-opacity="0.2" /><rect x="476" y="363.0" width="188" height="1" fill="white" fill-opacity="0.2" /><rect x="476" y="313.0" width="188" height="1" fill="white" fill-opacity="0.2" /><rect x="476" y="263.0" width="188" height="1" fill="white" fill-opacity="0.5" /><text x="674" y="263.0" font-size="14" fill="white" font-family="monospace" dominant-baseline="initial">12</text><rect x="476" y="213.0" width="188" height="1" fill="white" fill-opacity="0.2" /><rect x="476" y="163.0" width="188" height="1" fill="white" fill-opacity="0.2" /><rect x="476" y="113.0" width="188" height="1" fill="white" fill-opacity="0.2" /><rect x="476" y="63.0" width="188" height="1" fill="white" fill-opacity="0.5" /><text x="674" y="63.0" font-size="14" fill="white" font-family="monospace" dominant-baseline="initial">13</text><rect x="476" y="262.9500000000003" width="188" height="1" fill="aqua" fill-opacity="0.75" /><text x="476" y="258.9500000000003" font-size="14" fill="aqua" fill-opacity="0.75" font-family="monospace">Phrase B</text><rect x="714" y="64.0" width="188" height="800.0" fill="black" /><rect x="714" y="863.0" width="188" height="1" fill="white" fill-opacity="0.5" /><text x="912" y="863.0" font-size="14" fill="white" font-family="monospace" dominant-baseline="initial">13</text><rect x="714" y="813.0" width="188" height="1" fill="white" fill-opacity="0.2" /><rect x="714" y="763.0" width="188" height="1" fill="white" fill-opacity="0.2" /><rect x="714" y="713.0" width="188" height="1" fill="white" fill-opacity="0.2" /><rect x="714" y="663.0" width="188" height="1" fill="white" fill-opacity="0.5" /><text x="912" y="663.0" font-size="14" fill="white" font-family="monospace" dominant-baseline="initial">14</text><rect x="714" y="613.0" width="188" height="1" fill="white" fill-opacity="0.2" /><rect x="714" y="563.0" width="188" height="1" fill="white" fill-opacity="0.2" /><rect x="714" y="513.0" width="188" height="1" fill="white" fill-opacity="0.2" /><rect x="714" y="463.0" width="188" height="1" fill="white" fill-opacity="0.5" /><text x="912" y="463.0" font-size="14" fill="white" font-family="monospace" dominant-baseline="initial">15</text><rect x="714" y="413.0" width="188" height="1" fill="white" fill-opacity="0.2" /><rect x="714" y="363.0" width="188" height="1" fill="white" fill-opacity="0.2" /><rect x="714" y="313.0" width="188" height="1" fill="white" fill-opacity="0.2" /><rect x="714" y="263.0" width="188" height="1" fill="white" fill-opacity="0.5" /><text x="912" y="263.0" font-size="14" fill="white" font-family="monospace" dominant-baseline="initial">16</text><rect x="714" y="213.0" width="188" height="1" fill="white" fill-opacity="0.2" /><rect x="714" y="163.0" width="188" height="1" fill="white" fill-opacity="0.2" /><rect x="714" y="113.0" width="188" height="1" fill="white" fill-opacity="0.2" /><rect x="714" y="63.0" width="188" height="1" fill="white" fill-opacity="0.5" /><text x="912" y="63.0" font-size="14" fill="white" font-family="monospace" dominant-baseline="initial">17</text><rect x="952" y="64.0" width="188" height="800.0" fill="black" /><rect x="952" y="863.0" width="188" height="1" fill="white" fill-opacity="0.5" /><text x="1150" y="863.0" font-size="14" fill="white" font-family="monospace" dominant-baseline="initial">17</text><rect x="952" y="813.0" width="188" height="1" fill="white" fill-opacity="0.2" /><rect x="952" y="763.0" width="188" height="1" fill="white" fill-opacity="0.2" /><rect x="952" y="713.0" width="188" height="1" fill="white" fill-opacity="0.2" /><rect x="952" y="663.0" width="188" height="1" fill="white" fill-opacity="0.5" /><text x="1150" y="663.0" font-size="14" fill="white" font-family="monospace" dominant-baseline="initial">18</text><rect x="952" y="613.0" width="188" height="1" fill="white" fill-opacity="0.2" /><rect x="952" y="563.0" width="188" height="1" fill="white" fill-opacity="0.2" /><rect x="952" y="513.0" width="188" height="1" fill="white" fill-opacity="0.2" /><rect x="952" y="463.0" width="188" height="1" fill="white" fill-opacity="0.5" /><text x="1150" y="463.0" font-size="14" fill="white" font-family="monospace" dominant-baseline="initial">19</text><rect x="952" y="413.0" width="188" height="1" fill="white" fill-opacity="0.2" /><rect x="952" y="363.0" width="188" height="1" fill="white" fill-opacity="0.2" /><rect x="952" y="313.0" width="188" height="1" fill="white" fill-opacity="0.2" /><rect x="952" y="263.0" width="188" height="1" fill="white" fill-opacity="0.5" /><text x="1150" y="263.0" font-size="14" fill="white" font-family="monospace" dominant-baseline="initial">20</text><rect x="952" y="213.0" width="188" height="1" fill="white" fill-opacity="0.2" /><rect x="952" y="163.0" width="188" height="1" fill="white" fill-opacity="0.2" /><rect x="952" y="113.0" width="188" height="1" fill="white" fill-opacity="0.2" /><rect x="952" y="63.0" width="188" height="1" fill="white" fill-opacity="0.5" /><text x="1150" y="63.0" font-size="14" fill="white" font-family="monospace" dominant-baseline="initial">21</text><rect x="952" y="263.0500000000002" width="188" height="1" fill="aqua" fill-opacity="0.75" /><text x="952" y="259.0500000000002" font-size="14" fill="aqua" fill-opacity="0.75" font-family="monospace">Phrase A</text><rect x="1190" y="64.0" width="188" height="800.0" fill="black" /><rect x="1190" y="863.0" width="188" height="1" fill="white" fill-opacity="0.5" /><text x="1388" y="863.0" font-size="14" fill="white" font-family="monospace" dominant-baseline="initial">21</text><rect x="1190" y="813.0" width="188" height="1" fill="white" fill-opacity="0.2" /><rect x="1190" y="763.0" width="188" height="1" fill="white" fill-opacity="0.2" /><rect x="1190" y="713.0" width="188" height="1" fill="white" fill-opacity="0.2" /><rect x="1190" y="663.0" width="188" height="1" fill="white" fill-opacity="0.5" /><text x="1388" y="663.0" font-size="14" fill="white" font-family="monospace" dominant-baseline="initial">22</text><rect x="1190" y="613.0" width="188" height="1" fill="white" fill-opacity="0.2" /><rect x="1190" y="563.0" width="188" height="1" fill="white" fill-opacity="0.2" /><rect x="1190" y="513.0" width="188" height="1" fill="white" fill-opacity="0.2" /><rect x="1190" y="463.0" width="188" height="1" fill="white" fill-opacity="0.5" /><text x="1388" y="463.0" font-size="14" fill="white" font-family="monospace" dominant-baseline="initial">23</text><rect x="1190" y="413.0" width="188" height="1" fill="white" fill-opacity="0.2" /><rect x="1190" y="363.0" width="188" height="1" fill="white" fill-opacity="0.2" /><rect x="1190" y="313.0" width="188" height="1" fill="white" fill-opacity="0.2" /><rect x="1190" y="263.0" width="188" height="1" fill="white" fill-opacity="0.5" /><text x="1388" y="263.0" font-size="14" fill="white" font-family="monospace" dominant-baseline="initial">24</text><rect x="1190" y="213.0" width="188" height="1" fill="white" fill-opacity="0.2" /><rect x="1190" y="163.0" width="188" height="1" fill="white" fill-opacity="0.2" /><rect x="1190" y="113.0" width="188" height="1" fill="white" fill-opacity="0.2" /><rect x="1190" y="63.0" width="188" height="1" fill="white" fill-opacity="0.5" /><text x="1388" y="63.0" font-size="14" fill="white" font-family="monospace" dominant-baseline="initial">25</text><rect x="1428" y="64.0" width="188" height="800.0" fill="black" /><rect x="1428" y="863.0" width="188" height="1" fill="white" fill-opacity="0.5" /><text x="1626" y="863.0" font-size="14" fill="white" font-family="monospace" dominant-baseline="initial">25</text><rect x="1428" y="813.0" width="188" height="1" fill="white" fill-opacity="0.2" /><rect x="1428" y="763.0" width="188" height="1" fill="white" fill-opacity="0.2" /><rect x="1428" y="713.0" width="188" height="1" fill="white" fill-opacity="0.2" /><rect x="1428" y="663.0" width="188" height="1" fill="white" fill-opacity="0.5" /><text x="1626" y="663.0" font-size="14" fill="white" font-family="monospace" dominant-baseline="initial">26</text><rect x="1428" y="613.0" width="188" height="1" fill="white" fill-opacity="0.2" /><rect x="1428" y="563.0" width="188" height="1" fill="white" fill-opacity="0.2" /><rect x="1428" y="513.0" width="188" height="1" fill="white" fill-opacity="0.2" /><rect x="1428" y="463.0" width="188" height="1" fill="white" fill-opacity="0.5" /><text x="1626" y="463.0" font-size="14" fill="white" font-family="monospace" dominant-baseline="initial">27</text><rect x="1428" y="413.0" width="188" height="1" fill="white" fill-opacity="0.2" /><rect x="1428" y="363.0" width="188" height="1" fill="white" fill-opacity="0.2" /><rect x="1428" y="313.0" width="188" height="1" fill="white" fill-opacity="0.2" /><rect x="1428" y="263.0" width="188" height="1" fill="white" fill-opacity="0.5" /><text x="1626" y="263.0" font-size="14" fill="white" font-family="monospace" dominant-baseline="initial">28</text><rect x="1428" y="213.0" width="188" height="1" fill="white" fill-opacity="0.2" /><rect x="1428" y="163.0" width="188" height="1" fill="white" fill-opacity="0.2" /><rect x="1428" y="113.0" width="188" height="1" fill="white" fill-opacity="0.2" /><rect x="1428" y="63.0" width="188" height="1" fill="white" fill-opacity="0.5" /><text x="1626" y="63.0" font-size="14" fill="white" font-family="monospace" dominant-baseline="initial">29</text><rect x="1428" y="263.0" width="188" height="1" fill="aqua" fill-opacity="0.75" /><text x="1428" y="259.0" font-size="14" fill="aqua" fill-opacity="0.75" font-family="monospace">Phrase B</text><rect x="1666" y="64.0" width="188" height="800.0" fill="black" /><rect x="1666" y="863.0" width="188" height="1" fill="white" fill-opacity="0.5" /><text x="1864" y="863.0" font-size="14" fill="white" font-family="monospace" dominant-baseline="initial">29</text><rect x="1666" y="813.0" width="188" height="1" fill="white" fill-opacity="0.2" /><rect x="1666" y="763.0" width="188" height="1" fill="white" fill-opacity="0.2" /><rect x="1666" y="713.0" width="188" height="1" fill="white" fill-opacity="0.2" /><rect x="1666" y="663.0" width="188" height="1" fill="white" fill-opacity="0.5" /><text x="1864" y="663.0" font-size="14" fill="white" font-family="monospace" dominant-baseline="initial">30</text><rect x="1666" y="613.0" width="188" height="1" fill="white" fill-opacity="0.2" /><rect x="1666" y="563.0" width="188" height="1" fill="white" fill-opacity="0.2" /><rect x="1666" y="513.0" width="188" height="1" fill="white" fill-opacity="0.2" /><rect x="1666" y="463.0" width="188" height="1" fill="white" fill-opacity="0.5" /><text x="1864" y="463.0" font-size="14" fill="white" font-family="monospace" dominant-baseline="initial">31</text><rect x="1666" y="413.0" width="188" height="1" fill="white" fill-opacity="0.2" /><rect x="1666" y="363.0" width="188" height="1" fill="white" fill-opacity="0.2" /><rect x="1666" y="313.0" width="188" height="1" fill="white" fill-opacity="0.2" /><rect x="1666" y="263.0" width="188" height="1" fill="white" fill-opacity="0.5" /><text x="1864" y="263.0" font-size="14" fill="white" font-family="monospace" dominant-baseline="initial">32</text><rect x="1666" y="213.0" width="188" height="1" fill="white" fill-opacity="0.2" /><rect x="1666" y="163.0" width="188" height="1" fill="white" fill-opacity="0.2" /><rect x="1666" y="113.0" width="188" height="1" fill="white" fill-opacity="0.2" /><rect x="1666" y="63.0" width="188" height="1" fill="white" fill-opacity="0.5" /><text x="1864" y="63.0" font-size="14" fill="white" font-family="monospace" dominant-baseline="initial">33</text><rect x="1904" y="64.0" width="188" height="800.0" fill="black" /><rect x="1904" y="863.0" width="188" height="1" fill="white" fill-opacity="0.5" /><text x="2102" y="863.0" font-size="14" fill="white" font-family="monospace" dominant-baseline="initial">33</text><rect x="1904" y="813.0" width="188" height="1" fill="white" fill-opacity="0.2" /><rect x="1904" y="763.0" width="188" height="1" fill="white" fill-opacity="0.2" /><rect x="1904" y="713.0" width="188" height="1" fill="white" fill-opacity="0.2" /><rect x="1904" y="663.0" width="188" height="1" fill="white" fill-opacity="0.5" /><text x="2102" y="663.0" font-size="14" fill="white" font-family="monospace" dominant-baseline="initial">34</text><rect x="1904" y="613.0" width="188" height="1" fill="white" fill-opacity="0.2" /><rect x="1904" y="563.0" width="188" height="1" fill="white" fill-opacity="0.2" /><rect x="1904" y="513.0" width="188" height="1" fill="white" fill-opacity="0.2" /><rect x="1904" y="463.0" width="188" height="1" fill="white" fill-opacity="0.5" /><text x="2102" y="463.0" font-size="14" fill="white" font-family="monospace" dominant-baseline="initial">35</text><rect x="1904" y="413.0" width="188" height="1" fill="white" fill-opacity="0.2" /><rect x="1904" y="363.0" width="188" height="1" fill="white" fill-opacity="0.2" /><rect x="1904" y="313.0" width="188" height="1" fill="white" fill-opacity="0.2" /><rect x="1904" y="263.0" width="188" height="1" fill="white" fill-opacity="0.5" /><text x="2102" y="263.0" font-size="14" fill="white" font-family="monospace" dominant-baseline="initial">36</text><rect x="1904" y="213.0" width="188" height="1" fill="white" fill-opacity="0.2" /><rect x="1904" y="163.0" width="188" height="1" fill="white" fill-opacity="0.2" /><rect x="1904" y="113.0" width="188" height="1" fill="white" fill-opacity="0.2" /><rect x="1904" y="63.0" width="188" height="1" fill="white" fill-opacity="0.5" /><text x="2102" y="63.0" font-size="14" fill="white" font-family="monospace" dominant-baseline="initial">37</text><rect x="1904" y="262.9500000000007" width="188" height="1" fill="aqua" fill-opacity="0.75" /><text x="1904" y="258.9500000000007" font-size="14" fill="aqua" fill-opacity="0.75" font-family="monospace">Special</text><rect x="2142" y="64.0" width="188" height="800.0" fill="black" /><rect x="2142" y="863.0" width="188" height="1" fill="white" fill-opacity="0.5" /><text x="2340" y="863.0" font-size="14" fill="white" font-family="monospace" dominant-baseline="initial">37</text><rect x="2142" y="813.0" width="188" height="1" fill="white" fill-opacity="0.2" /><rect x="2142" y="763.0" width="188" height="1" fill="white" fill-opacity="0.2" /><rect x="2142" y="713.0" width="188" height="1" fill="white" fill-opacity="0.2" /><rect x="2142" y="663.0" width="188" height="1" fill="white" fill-opacity="0.5" /><text x="2340" y="663.0" font-size="14" fill="white" font-family="monospace" dominant-baseline="initial">38</text><rect x="2142" y="613.0" width="188" height="1" fill="white" fill-opacity="0.2" /><rect x="2142" y="563.0" width="188" height="1" fill="white" fill-opacity="0.2" /><rect x="2142" y="513.0" width="188" height="1" fill="white" fill-opacity="0.2" /><rect x="2142" y="463.0" width="188" height="1" fill="white" fill-opacity="0.5" /><text x="2340" y="463.0" font-size="14" fill="white" font-family="monospace" dominant-baseline="initial">39</text><rect x="2142" y="413.0" width="188" height="1" fill="white" fill-opacity="0.2" /><rect x="2142" y="363.0" width="188" height="1" fill="white" fill-opacity="0.2" /><rect x="2142" y="313.0" width="188" height="1" fill="white" fill-opacity="0.2" /><rect x="2142" y="263.0" width="188" height="1" fill="white" fill-opacity="0.5" /><text x="2340" y="263.0" font-size="14" fill="white" font-family="monospace" dominant-baseline="initial">40</text><rect x="2142" y="213.0" width="188" height="1" fill="white" fill-opacity="0.2" /><rect x="2142" y="163.0" width="188" height="1" fill="white" fill-opacity="0.2" /><rect x="2142" y="113.0" width="188" height="1" fill="white" fill-opacity="0.2" /><rect x="2142" y="63.0" width="188" height="1" fill="white" fill-opacity="0.5" /><text x="2340" y="63.0" font-size="14" fill="white" font-family="monospace" dominant-baseline="initial">41</text><rect x="2380" y="64.0" width="188" height="800.0" fill="black" /><rect x="2380" y="863.0" width="188" height="1" fill="white" fill-opacity="0.5" /><text x="2578" y="863.0" font-size="14" fill="white" font-family="monospace" dominant-baseline="initial">41</text><rect x="2380" y="813.0" width="188" height="1" fill="white" fill-opacity="0.2" /><rect x="2380" y="763.0" width="188" height="1" fill="white" fill-opacity="0.2" /><rect x="2380" y="713.0" width="188" height="1" fill="white" fill-opacity="0.2" /><rect x="2380" y="663.0" width="188" height="1" fill="white" fill-opacity="0.5" /><text x="2578" y="663.0" font-size="14" fill="white" font-family="monospace" dominant-baseline="initial">42</text><rect x="2380" y="613.0" width="188" height="1" fill="white" fill-opacity="0.2" /><rect x="2380" y="563.0" width="188" height="1" fill="white" fill-opacity="0.2" /><rect x="2380" y="513.0" width="188" height="1" fill="white" fill-opacity="0.2" /><rect x="2380" y="463.0" width="188" height="1" fill="white" fill-opacity="0.5" /><text x="2578" y="463.0" font-size="14" fill="white" font-family="monospace" dominant-baseline="initial">43</text><rect x="2380" y="413.0" width="188" height="1" fill="white" fill-opacity="0.2" /><rect x="2380" y="363.0" width="188" height="1" fill="white" fill-opacity="0.2" /><rect x="2380" y="313.0" width="188" height="1" fill="white" fill-opacity="0.2" /><rect x="2380" y="263.0" width="188" height="1" fill="white" fill-opacity="0.5" /><text x="2578" y="263.0" font-size="14" fill="white" font-family="monospace" dominant-baseline="initial">44</text><rect x="2380" y="213.0" width="188" height="1" fill="white" fill-opacity="0.2" /><rect x="2380" y="163.0" width="188" height="1" fill="white" fill-opacity="0.2" /><rect x="2380" y="113.0" width="188" height="1" fill="white" fill-opacity="0.2" /><rect x="2380" y="63.0" width="188" height="1" fill="white" fill-opacity="0.5" /><text x="2578" y="63.0" font-size="14" fill="white" font-family="monospace" dominant-baseline="initial">45</text><rect x="2618" y="64.0" width="188" height="800.0" fill="black" /><rect x="2618" y="863.0" width="188" height="1" fill="white" fill-opacity="0.5" /><text x="2816" y="863.0" font-size="14" fill="white" font-family="monospace" dominant-baseline="initial">45</text><rect x="2618" y="813.0" width="188" height="1" fill="white" fill-opacity="0.2" /><rect x="2618" y="763.0" width="188" height="1" fill="white" fill-opacity="0.2" /><rect x="2618" y="713.0" width="188" height="1" fill="white" fill-opacity="0.2" /><rect x="2618" y="663.0" width="188" height="1" fill="white" fill-opacity="0.5" /><text x="2816" y="663.0" font-size="14" fill="white" font-family="monospace" dominant-baseline="initial">46</text><rect x="2618" y="613.0" width="188" height="1" fill="white" fill-opacity="0.2" /><rect x="2618" y="563.0" width="188" height="1" fill="white" fill-opacity="0.2" /><rect x="2618" y="513.0" width="188" height="1" fill="white" fill-opacity="0.2" /><rect x="2618" y="463.0" width="188" height="1" fill="white" fill-opacity="0.5" /><text x="2816" y="463.0" font-size="14" fill="white" font-family="monospace" dominant-baseline="initial">47</text><rect x="2618" y="413.0" width="188" height="1" fill="white" fill-opacity="0.2" /><rect x="2618" y="363.0" width="188" height="1" fill="white" fill-opacity="0.2" /><rect x="2618" y="313.0" width="188" height="1" fill="white" fill-opacity="0.2" /><rect x="2618" y="263.0" width="188" height="1" fill="white" fill-opacity="0.5" /><text x="2816" y="263.0" font-size="14" fill="white" font-family="monospace" dominant-baseline="initial">48</text><rect x="2618" y="213.0" width="188" height="1" fill="white" fill-opacity="0.2" /><rect x="2618" y="163.0" width="188" height="1" fill="white" fill-opacity="0.2" /><rect x="2618" y="113.0" width="188" height="1" fill="white" fill-opacity="0.2" /><rect x="2618" y="63.0" width="188" height="1" fill="white" fill-opacity="0.5" /><text x="2816" y="63.0" font-size="14" fill="white" font-family="monospace" dominant-baseline="initial">49</text><rect x="2856" y="64.0" width="188" height="800.0" fill="black" /><rect x="2856" y="863.0" width="188" height="1" fill="white" fill-opacity="0.5" /><text x="3054" y="863.0" font-size="14" fill="white" font-family="monospace" dominant-baseline="initial">49</text><rect x="2856" y="813.0" width="188" height="1" fill="white" fill-opacity="0.2" /><rect x="2856" y="763.0" width="188" height="1" fill="white" fill-opacity="0.2" /><rect x="2856" y="713.0" width="188" height="1" fill="white" fill-opacity="0.2" /><rect x="2856" y="663.0" width="188" height="1" fill="white" fill-opacity="0.5" /><text x="3054" y="663.0" font-size="14" fill="white" font-family="monospace" dominant-baseline="initial">50</text><rect x="2856" y="613.0" width="188" height="1" fill="white" fill-opacity="0.2" /><rect x="2856" y="563.0" width="188" height="1" fill="white" fill-opacity="0.2" /><rect x="2856" y="513.0" width="188" height="1" fill="white" fill-opacity="0.2" /><rect x="2856" y="463.0" width="188" height="1" fill="white" fill-opacity="0.5" /><text x="3054" y="463.0" font-size="14" fill="white" font-family="monospace" dominant-baseline="initial">51</text><rect x="2856" y="413.0" width="188" height="1" fill="white" fill-opacity="0.2" /><rect x="2856" y="363.0" width="188" height="1" fill="white" fill-opacity="0.2" /><rect x="2856" y="313.0" width="188" height="1" fill="white" fill-opacity="0.2" /><rect x="2856" y="263.0" width="188" height="1" fill="white" fill-opacity="0.5" /><text x="3054" y="263.0" font-size="14" fill="white" font-family="monospace" dominant-baseline="initial">52</text><rect x="2856" y="213.0" width="188" height="1" fill="white" fill-opacity="0.2" /><rect x="2856" y="163.0" width="188" height="1" fill="white" fill-opacity="0.2" /><rect x="2856" y="113.0" width="188" height="1" fill="white" fill-opacity="0.2" /><rect x="2856" y="63.0" width="188" height="1" fill="white" fill-opacity="0.5" /><text x="3054" y="63.0" font-size="14" fill="white" font-family="monospace" dominant-baseline="initial">53</text><rect x="2856" y="263.0" width="188" height="1" fill="aqua" fill-opacity="0.75" /><text x="2856" y="259.0" font-size="14" fill="aqua" fill-opacity="0.75" font-family="monospace">Solo</text><rect x="3094" y="64.0" width="188" height="800.0" fill="black" /><rect x="3094" y="863.0" width="188" height="1" fill="white" fill-opacity="0.5" /><text x="3292" y="863.0" font-size="14" fill="white" font-family="monospace" dominant-baseline="initial">53</text><rect x="3094" y="813.0" width="188" height="1" fill="white" fill-opacity="0.2" /><rect x="3094" y="763.0" width="188" height="1" fill="white" fill-opacity="0.2" /><rect x="3094" y="713.0" width="188" height="1" fill="white" fill-opacity="0.2" /><rect x="3094" y="663.0" width="188" height="1" fill="white" fill-opacity="0.5" /><text x="3292" y="663.0" font-size="14" fill="white" font-family="monospace" dominant-baseline="initial">54</text><rect x="3094" y="613.0" width="188" height="1" fill="white" fill-opacity="0.2" /><rect x="3094" y="563.0" width="188" height="1" fill="white" fill-opacity="0.2" /><rect x="3094" y="513.0" width="188" height="1" fill="white" fill-opacity="0.2" /><rect x="3094" y="463.0" width="188" height="1" fill="white" fill-opacity="0.5" /><text x="3292" y="463.0" font-size="14" fill="white" font-family="monospace" dominant-baseline="initial">55</text><rect x="3094" y="413.0" width="188" height="1" fill="white" fill-opacity="0.2" /><rect x="3094" y="363.0" width="188" height="1" fill="white" fill-opacity="0.2" /><rect x="3094" y="313.0" width="188" height="1" fill="white" fill-opacity="0.2" /><rect x="3094" y="263.0" width="188" height="1" fill="white" fill-opacity="0.5" /><text x="3292" y="263.0" font-size="14" fill="white" font-family="monospace" dominant-baseline="initial">56</text><rect x="3094" y="213.0" width="188" height="1" fill="white" fill-opacity="0.2" /><rect x="3094" y="163.0" width="188" height="1" fill="white" fill-opacity="0.2" /><rect x="3094" y="113.0" width="188" height="1" fill="white" fill-opacity="0.2" /><rect x="3094" y="63.0" width="188" height="1" fill="white" fill-opacity="0.5" /><text x="3292" y="63.0" font-size="14" fill="white" font-family="monospace" dominant-baseline="initial">57</text><rect x="3332" y="64.0" width="188" height="800.0" fill="black" /><rect x="3332" y="863.0" width="188" height="1" fill="white" fill-opacity="0.5" /><text x="3530" y="863.0" font-size="14" fill="white" font-family="monospace" dominant-baseline="initial">57</text><rect x="3332" y="813.0" width="188" height="1" fill="white" fill-opacity="0.2" /><rect x="3332" y="763.0" width="188" height="1" fill="white" fill-opacity="0.2" /><rect x="3332" y="713.0" width="188" height="1" fill="white" fill-opacity="0.2" /><rect x="3332" y="663.0" width="188" height="1" fill="white" fill-opacity="0.5" /><text x="3530" y="663.0" font-size="14" fill="white" font-family="monospace" dominant-baseline="initial">58</text><rect x="3332" y="613.0" width="188" height="1" fill="white" fill-opacity="0.2" /><rect x="3332" y="563.0" width="188" height="1" fill="white" fill-opacity="0.2" /><rect x="3332" y="513.0" width="188" height="1" fill="white" fill-opacity="0.2" /><rect x="3332" y="463.0" width="188" height="1" fill="white" fill-opacity="0.5" /><text x="3530" y="463.0" font-size="14" fill="white" font-family="monospace" dominant-baseline="initial">59</text><rect x="3332" y="413.0" width="188" height="1" fill="white" fill-opacity="0.2" /><rect x="3332" y="363.0" width="188" height="1" fill="white" fill-opacity="0.2" /><rect x="3332" y="313.0" width="188" height="1" fill="white" fill-opacity="0.2" /><rect x="3332" y="263.0" width="188" height="1" fill="white" fill-opacity="0.5" /><text x="3530" y="263.0" font-size="14" fill="white" font-family="monospace" dominant-baseline="initial">60</text><rect x="3332" y="213.0" width="188" height="1" fill="white" fill-opacity="0.2" /><rect x="3332" y="163.0" width="188" height="1" fill="white" fill-opacity="0.2" /><rect x="3332" y="113.0" width="188" height="1" fill="white" fill-opacity="0.2" /><rect x="3332" y="63.0" width="188" height="1" fill="white" fill-opacity="0.5" /><text x="3530" y="63.0" font-size="14" fill="white" font-family="monospace" dominant-baseline="initial">61</text><rect x="3332" y="262.9500000000007" width="188" height="1" fill="aqua" fill-opacity="0.75" /><text x="3332" y="258.9500000000007" font-size="14" fill="aqua" fill-opacity="0.75" font-family="monospace">Special</text><rect x="3570" y="64.0" width="188" height="800.0" fill="black" /><rect x="3570" y="863.0" width="188" height="1" fill="white" fill-opacity="0.5" /><text x="3768" y="863.0" font-size="14" fill="white" font-family="monospace" dominant-baseline="initial">61</text><rect x="3570" y="813.0" width="188" height="1" fill="white" fill-opacity="0.2" /><rect x="3570" y="763.0" width="188" height="1" fill="white" fill-opacity="0.2" /><rect x="3570" y="713.0" width="188" height="1" fill="white" fill-opacity="0.2" /><rect x="3570" y="663.0" width="188" height="1" fill="white" fill-opacity="0.5" /><text x="3768" y="663.0" font-size="14" fill="white" font-family="monospace" dominant-baseline="initial">62</text><rect x="3570" y="613.0" width="188" height="1" fill="white" fill-opacity="0.2" /><rect x="3570" y="563.0" width="188" height="1" fill="white" fill-opacity="0.2" /><rect x="3570" y="513.0" width="188" height="1" fill="white" fill-opacity="0.2" /><rect x="3570" y="463.0" width="188" height="1" fill="white" fill-opacity="0.5" /><text x="3768" y="463.0" font-size="14" fill="white" font-family="monospace" dominant-baseline="initial">63</text><rect x="3570" y="413.0" width="188" height="1" fill="white" fill-opacity="0.2" /><rect x="3570" y="363.0" width="188" height="1" fill="white" fill-opacity="0.2" /><rect x="3570" y="313.0" width="188" height="1" fill="white" fill-opacity="0.2" /><rect x="3570" y="263.0" width="188" height="1" fill="white" fill-opacity="0.5" /><text x="3768" y="263.0" font-size="14" fill="white" font-family="monospace" dominant-baseline="initial">64</text><rect x="3570" y="213.0" width="188" height="1" fill="white" fill-opacity="0.2" /><rect x="3570" y="163.0" width="188" height="1" fill="white" fill-opacity="0.2" /><rect x="3570" y="113.0" width="188" height="1" fill="white" fill-opacity="0.2" /><rect x="3570" y="63.0" width="188" height="1" fill="white" fill-opacity="0.5" /><text x="3768" y="63.0" font-size="14" fill="white" font-family="monospace" dominant-baseline="initial">65</text><rect x="3808" y="64.0" width="188" height="800.0" fill="black" /><rect x="3808" y="863.0" width="188" height="1" fill="white" fill-opacity="0.5" /><text x="4006" y="863.0" font-size="14" fill="white" font-family="monospace" dominant-baseline="initial">65</text><rect x="3808" y="813.0" width="188" height="1" fill="white" fill-opacity="0.2" /><rect x="3808" y="763.0" width="188" height="1" fill="white" fill-opacity="0.2" /><rect x="3808" y="713.0" width="188" height="1" fill="white" fill-opacity="0.2" /><rect x="3808" y="663.0" width="188" height="1" fill="white" fill-opacity="0.5" /><text x="4006" y="663.0" font-size="14" fill="white" font-family="monospace" dominant-baseline="initial">66</text><rect x="3808" y="613.0" width="188" height="1" fill="white" fill-opacity="0.2" /><rect x="3808" y="563.0" width="188" height="1" fill="white" fill-opacity="0.2" /><rect x="3808" y="513.0" width="188" height="1" fill="white" fill-opacity="0.2" /><rect x="3808" y="463.0" width="188" height="1" fill="white" fill-opacity="0.5" /><text x="4006" y="463.0" font-size="14" fill="white" font-family="monospace" dominant-baseline="initial">67</text><rect x="3808" y="413.0" width="188" height="1" fill="white" fill-opacity="0.2" /><rect x="3808" y="363.0" width="188" height="1" fill="white" fill-opacity="0.2" /><rect x="3808" y="313.0" width="188" height="1" fill="white" fill-opacity="0.2" /><rect x="3808" y="263.0" width="188" height="1" fill="white" fill-opacity="0.5" /><text x="4006" y="263.0" font-size="14" fill="white" font-family="monospace" dominant-baseline="initial">68</text><rect x="3808" y="213.0" width="188" height="1" fill="white" fill-opacity="0.2" /><rect x="3808" y="163.0" width="188" height="1" fill="white" fill-opacity="0.2" /><rect x="3808" y="113.0" width="188" height="1" fill="white" fill-opacity="0.2" /><rect x="3808" y="63.0" width="188" height="1" fill="white" fill-opacity="0.5" /><text x="4006" y="63.0" font-size="14" fill="white" font-family="monospace" dominant-baseline="initial">69</text><rect x="4046" y="64.0" width="188" height="800.0" fill="black" /><rect x="4046" y="863.0" width="188" height="1" fill="white" fill-opacity="0.5" /><text x="4244" y="863.0" font-size="14" fill="white" font-family="monospace" dominant-baseline="initial">69</text><rect x="4046" y="813.0" width="188" height="1" fill="white" fill-opacity="0.2" /><rect x="4046" y="763.0" width="188" height="1" fill="white" fill-opacity="0.2" /><rect x="4046" y="713.0" width="188" height="1" fill="white" fill-opacity="0.2" /><rect x="4046" y="663.0" width="188" height="1" fill="white" fill-opacity="0.5" /><text x="4244" y="663.0" font-size="14" fill="white" font-family="monospace" dominant-baseline="initial">70</text><rect x="4046" y="613.0" width="188" height="1" fill="white" fill-opacity="0.2" /><rect x="4046" y="563.0" width="188" height="1" fill="white" fill-opacity="0.2" /><rect x="4046" y="513.0" width="188" height="1" fill="white" fill-opacity="0.2" /><rect x="4046" y="463.0" width="188" height="1" fill="white" fill-opacity="0.5" /><text x="4244" y="463.0" font-size="14" fill="white" font-family="monospace" dominant-baseline="initial">71</text><rect x="4046" y="413.0" width="188" height="1" fill="white" fill-opacity="0.2" /><rect x="4046" y="363.0" width="188" height="1" fill="white" fill-opacity="0.2" /><rect x="4046" y="313.0" width="188" height="1" fill="white" fill-opacity="0.2" /><rect x="4046" y="263.0" width="188" height="1" fill="white" fill-opacity="0.5" /><text x="4244" y="263.0" font-size="14" fill="white" font-family="monospace" dominant-baseline="initial">72</text><rect x="4046" y="213.0" width="188" height="1" fill="white" fill-opacity="0.2" /><rect x="4046" y="163.0" width="188" height="1" fill="white" fill-opacity="0.2" /><rect x="4046" y="113.0" width="188" height="1" fill="white" fill-opacity="0.2" /><rect x="4046" y="63.0" width="188" height="1" fill="white" fill-opacity="0.5" /><text x="4244" y="63.0" font-size="14" fill="white" font-family="monospace" dominant-baseline="initial">73</text><rect x="4284" y="64.0" width="188" height="800.0" fill="black" /><rect x="4284" y="863.0" width="188" height="1" fill="white" fill-opacity="0.5" /><text x="4482" y="863.0" font-size="14" fill="white" font-family="monospace" dominant-baseline="initial">73</text><rect x="4284" y="813.0" width="188" height="1" fill="white" fill-opacity="0.2" /><rect x="4284" y="763.0" width="188" height="1" fill="white" fill-opacity="0.2" /><rect x="4284" y="713.0" width="188" height="1" fill="white" fill-opacity="0.2" /><rect x="4284" y="663.0" width="188" height="1" fill="white" fill-opacity="0.5" /><text x="4482" y="663.0" font-size="14" fill="white" font-family="monospace" dominant-baseline="initial">74</text><rect x="4284" y="613.0" width="188" height="1" fill="white" fill-opacity="0.2" /><rect x="4284" y="563.0" width="188" height="1" fill="white" fill-opacity="0.2" /><rect x="4284" y="513.0" width="188" height="1" fill="white" fill-opacity="0.2" /><rect x="4284" y="463.0" width="188" height="1" fill="white" fill-opacity="0.5" /><text x="4482" y="463.0" font-size="14" fill="white" font-family="monospace" dominant-baseline="initial">75</text><rect x="4284" y="413.0" width="188" height="1" fill="white" fill-opacity="0.2" /><rect x="4284" y="363.0" width="188" height="1" fill="white" fill-opacity="0.2" /><rect x="4284" y="313.0" width="188" height="1" fill="white" fill-opacity="0.2" /><rect x="4284" y="263.0" width="188" height="1" fill="white" fill-opacity="0.5" /><text x="4482" y="263.0" font-size="14" fill="white" font-family="monospace" dominant-baseline="initial">76</text><rect x="4284" y="213.0" width="188" height="1" fill="white" fill-opacity="0.2" /><rect x="4284" y="163.0" width="188" height="1" fill="white" fill-opacity="0.2" /><rect x="4284" y="113.0" width="188" height="1" fill="white" fill-opacity="0.2" /><rect x="4284" y="63.0" width="188" height="1" fill="white" fill-opacity="0.5" /><text x="4482" y="63.0" font-size="14" fill="white" font-family="monospace" dominant-baseline="initial">77</text><rect x="4522" y="64.0" width="188" height="800.0" fill="black" /><rect x="4522" y="863.0" width="188" height="1" fill="white" fill-opacity="0.5" /><text x="4720" y="863.0" font-size="14" fill="white" font-family="monospace" dominant-baseline="initial">77</text><rect x="4522" y="813.0" width="188" height="1" fill="white" fill-opacity="0.2" /><rect x="4522" y="763.0" width="188" height="1" fill="white" fill-opacity="0.2" /><rect x="4522" y="713.0" width="188" height="1" fill="white" fill-opacity="0.2" /><rect x="4522" y="663.0" width="188" height="1" fill="white" fill-opacity="0.5" /><text x="4720" y="663.0" font-size="14" fill="white" font-family="monospace" dominant-baseline="initial">78</text><rect x="4522" y="613.0" width="188" height="1" fill="white" fill-opacity="0.2" /><rect x="4522" y="563.0" width="188" height="1" fill="white" fill-opacity="0.2" /><rect x="4522" y="513.0" width="188" height="1" fill="white" fill-opacity="0.2" /><rect x="4522" y="463.0" width="188" height="1" fill="white" fill-opacity="0.5" /><text x="4720" y="463.0" font-size="14" fill="white" font-family="monospace" dominant-baseline="initial">79</text><rect x="4522" y="413.0" width="188" height="1" fill="white" fill-opacity="0.2" /><rect x="4522" y="363.0" width="188" height="1" fill="white" fill-opacity="0.2" /><rect x="4522" y="313.0" width="188" height="1" fill="white" fill-opacity="0.2" /><rect x="4522" y="263.0" width="188" height="1" fill="white" fill-opacity="0.5" /><text x="4720" y="263.0" font-size="14" fill="white" font-family="monospace" dominant-baseline="initial">80</text><rect x="4522" y="213.0" width="188" height="1" fill="white" fill-opacity="0.2" /><rect x="4522" y="163.0" width="188" height="1" fill="white" fill-opacity="0.2" /><rect x="4522" y="113.0" width="188" height="1" fill="white" fill-opacity="0.2" /><rect x="4522" y="63.0" width="188" height="1" fill="white" fill-opacity="0.5" /><text x="4720" y="63.0" font-size="14" fill="white" font-family="monospace" dominant-baseline="initial">81</text><rect x="4522" y="662.9500000000007" width="188" height="1" fill="aqua" fill-opacity="0.75" /><text x="4522" y="658.9500000000007" font-size="14" fill="aqua" fill-opacity="0.75" font-family="monospace">Outro</text><rect x="4760" y="14.0" width="188" height="850.0" fill="black" /><rect x="4760" y="863.0" width="188" height="1" fill="white" fill-opacity="0.5" /><text x="4958" y="863.0" font-size="14" fill="white" font-family="monospace" dominant-baseline="initial">81</text><rect x="4760" y="813.0" width="188" height="1" fill="white" fill-opacity="0.2" /><rect x="4760" y="763.0" width="188" height="1" fill="white" fill-opacity="0.2" /><rect x="4760" y="713.0" width="188" height="1" fill="white" fill-opacity="0.2" /><rect x="4760" y="663.0" width="188" height="1" fill="white" fill-opacity="0.5" /><text x="4958" y="663.0" font-size="14" fill="white" font-family="monospace" dominant-baseline="initial">82</text><rect x="4760" y="613.0" width="188" height="1" fill="white" fill-opacity="0.2" /><rect x="4760" y="563.0" width="188" height="1" fill="white" fill-opacity="0.2" /><rect x="4760" y="513.0" width="188" height="1" fill="white" fill-opacity="0.2" /><rect x="4760" y="463.0" width="188" height="1" fill="white" fill-opacity="0.5" /><text x="4958" y="463.0" font-size="14" fill="white" font-family="monospace" dominant-baseline="initial">83</text><rect x="4760" y="413.0" width="188" height="1" fill="white" fill-opacity="0.2" /><rect x="4760" y="363.0" width="188" height="1" fill="white" fill-opacity="0.2" /><rect x="4760" y="313.0" width="188" height="1" fill="white" fill-opacity="0.2" /><rect x="4760" y="263.0" width="188" height="1" fill="white" fill-opacity="0.5" /><text x="4958" y="263.0" font-size="14" fill="white" font-family="monospace" dominant-baseline="initial">84</text></svg>