<?xml version="1.0" encoding="UTF-8"?><svg xmlns="http://www.w3.org/2000/svg" xmlns:xlink="http://www.w3.org/1999/xlink"     width="2052" height="1073.0" viewBox="0 0 2052 1073.0"><defs></defs><rect x="0" y="0" width="64" height="1059.0" fill="black" /><rect x="0" y="0.0" width="64" height="1" fill="white" fill-opacity="0.5" /><text x="74" y="14.0" font-size="14" fill="white" font-family="monospace" dominant-baseline="ideographic">1</text><rect x="0" y="66.0" width="64" height="1" fill="white" fill-opacity="0.2" /><rect x="0" y="132.5" width="64" height="1" fill="white" fill-opacity="0.2" /><rect x="0" y="198.5" width="64" height="1" fill="white" fill-opacity="0.2" /><rect x="0" y="264.5" width="64" height="1" fill="white" fill-opacity="0.5" /><text x="74" y="278.5" font-size="14" fill="white" font-family="monospace" dominant-baseline="ideographic">2</text><rect x="0" y="331.0" width="64" height="1" fill="white" fill-opacity="0.2" /><rect x="0" y="397.0" width="64" height="1" fill="white" fill-opacity="0.2" /><rect x="0" y="463.0" width="64" height="1" fill="white" fill-opacity="0.2" /><rect x="0" y="529.5" width="64" height="1" fill="white" fill-opacity="0.5" /><text x="74" y="543.5" font-size="14" fill="white" font-family="monospace" dominant-baseline="ideographic">3</text><rect x="0" y="595.5" width="64" height="1" fill="white" fill-opacity="0.2" /><rect x="0" y="662.0" width="64" height="1" fill="white" fill-opacity="0.2" /><rect x="0" y="728.0" width="64" height="1" fill="white" fill-opacity="0.2" /><rect x="0" y="794.0" width="64" height="1" fill="white" fill-opacity="0.5" /><text x="74" y="808.0" font-size="14" fill="white" font-family="monospace" dominant-baseline="ideographic">4</text><rect x="0" y="860.5" width="64" height="1" fill="white" fill-opacity="0.2" /><rect x="0" y="926.5" width="64" height="1" fill="white" fill-opacity="0.2" /><rect x="0" y="992.5" width="64" height="1" fill="white" fill-opacity="0.2" /><rect x="0" y="1059.0" width="64" height="1" fill="white" fill-opacity="0.5" /><text x="74" y="1073.0" font-size="14" fill="white" font-family="monospace" dominant-baseline="ideographic">5</text><rect x="0" y="0.0" width="64" height="1" fill="aqua" fill-opacity="0.75" /><text x="0" y="14.0" font-size="14" fill="aqua" fill-opacity="0.75" font-family="monospace">Phrase E</text><rect x="0" y="0.0" width="64" height="1" fill="lime" fill-opacity="0.75" /><text x="74" y="28.0" font-size="14" fill="lime" font-family="monospace" dominant-baseline="ideographic">136</text><rect x="114" y="0" width="64" height="959.5" fill="black" /><rect x="114" y="0.0" width="64" height="1" fill="white" fill-opacity="0.5" /><text x="188" y="14.0" font-size="14" fill="white" font-family="monospace" dominant-baseline="ideographic">5</text><rect x="114" y="66.0" width="64" height="1" fill="white" fill-opacity="0.2" /><rect x="114" y="132.0" width="64" height="1" fill="white" fill-opacity="0.2" /><rect x="114" y="198.5" width="64" height="1" fill="white" fill-opacity="0.2" /><rect x="114" y="264.5" width="64" height="1" fill="white" fill-opacity="0.5" /><text x="188" y="278.5" font-size="14" fill="white" font-family="monospace" dominant-baseline="ideographic">6</text><rect x="114" y="330.5" width="64" height="1" fill="white" fill-opacity="0.2" /><rect x="114" y="397.0" width="64" height="1" fill="white" fill-opacity="0.2" /><rect x="114" y="463.0" width="64" height="1" fill="white" fill-opacity="0.2" /><rect x="114" y="529.0" width="64" height="1" fill="white" fill-opacity="0.5" /><text x="188" y="543.0" font-size="14" fill="white" font-family="monospace" dominant-baseline="ideographic">7</text><rect x="114" y="595.5" width="64" height="1" fill="white" fill-opacity="0.2" /><rect x="114" y="661.5" width="64" height="1" fill="white" fill-opacity="0.2" /><rect x="114" y="728.0" width="64" height="1" fill="white" fill-opacity="0.2" /><rect x="114" y="794.0" width="64" height="1" fill="white" fill-opacity="0.5" /><text x="188" y="808.0" font-size="14" fill="white" font-family="monospace" dominant-baseline="ideographic">8</text><rect x="114" y="827.0" width="64" height="1" fill="white" fill-opacity="0.2" /><rect x="114" y="860.0" width="64" height="1" fill="white" fill-opacity="0.2" /><rect x="114" y="893.0" width="64" height="1" fill="white" fill-opacity="0.2" /><rect x="114" y="926.5" width="64" height="1" fill="white" fill-opacity="0.2" /><rect x="114" y="959.5" width="64" height="1" fill="white" fill-opacity="0.5" /><text x="188" y="973.5" font-size="14" fill="white" font-family="monospace" dominant-baseline="ideographic">9</text><rect x="228" y="0" width="64" height="628.5" fill="black" /><rect x="228" y="0.0" width="64" height="1" fill="white" fill-opacity="0.5" /><text x="302" y="14.0" font-size="14" fill="white" font-family="monospace" dominant-baseline="ideographic">9</text><rect x="228" y="33.0" width="64" height="1" fill="white" fill-opacity="0.2" /><rect x="228" y="66.0" width="64" height="1" fill="white" fill-opacity="0.2" /><rect x="228" y="99.0" width="64" height="1" fill="white" fill-opacity="0.2" /><rect x="228" y="132.0" width="64" height="1" fill="white" fill-opacity="0.2" /><rect x="228" y="165.5" width="64" height="1" fill="white" fill-opacity="0.5" /><text x="302" y="179.5" font-size="14" fill="white" font-family="monospace" dominant-baseline="ideographic">10</text><rect x="228" y="198.5" width="64" height="1" fill="white" fill-opacity="0.2" /><rect x="228" y="231.5" width="64" height="1" fill="white" fill-opacity="0.2" /><rect x="228" y="264.5" width="64" height="1" fill="white" fill-opacity="0.2" /><rect x="228" y="297.5" width="64" height="1" fill="white" fill-opacity="0.2" /><rect x="228" y="331.0" width="64" height="1" fill="white" fill-opacity="0.5" /><text x="302" y="345.0" font-size="14" fill="white" font-family="monospace" dominant-baseline="ideographic">11</text><rect x="228" y="364.0" width="64" height="1" fill="white" fill-opacity="0.2" /><rect x="228" y="397.0" width="64" height="1" fill="white" fill-opacity="0.2" /><rect x="228" y="430.0" width="64" height="1" fill="white" fill-opacity="0.2" /><rect x="228" y="463.0" width="64" height="1" fill="white" fill-opacity="0.5" /><text x="302" y="477.0" font-size="14" fill="white" font-family="monospace" dominant-baseline="ideographic">12</text><rect x="228" y="496.0" width="64" height="1" fill="white" fill-opacity="0.2" /><rect x="228" y="529.5" width="64" height="1" fill="white" fill-opacity="0.2" /><rect x="228" y="562.5" width="64" height="1" fill="white" fill-opacity="0.2" /><rect x="228" y="595.5" width="64" height="1" fill="white" fill-opacity="0.2" /><rect x="228" y="628.5" width="64" height="1" fill="white" fill-opacity="0.5" /><text x="302" y="642.5" font-size="14" fill="white" font-family="monospace" dominant-baseline="ideographic">13</text><rect x="342" y="0" width="64" height="695.0" fill="black" /><rect x="342" y="0.0" width="64" height="1" fill="white" fill-opacity="0.5" /><text x="416" y="14.0" font-size="14" fill="white" font-family="monospace" dominant-baseline="ideographic">13</text><rect x="342" y="33.0" width="64" height="1" fill="white" fill-opacity="0.2" /><rect x="342" y="66.0" width="64" height="1" fill="white" fill-opacity="0.2" /><rect x="342" y="99.5" width="64" height="1" fill="white" fill-opacity="0.2" /><rect x="342" y="132.5" width="64" height="1" fill="white" fill-opacity="0.2" /><rect x="342" y="165.5" width="64" height="1" fill="white" fill-opacity="0.5" /><text x="416" y="179.5" font-size="14" fill="white" font-family="monospace" dominant-baseline="ideographic">14</text><rect x="342" y="198.5" width="64" height="1" fill="white" fill-opacity="0.2" /><rect x="342" y="231.5" width="64" height="1" fill="white" fill-opacity="0.2" /><rect x="342" y="265.0" width="64" height="1" fill="white" fill-opacity="0.2" /><rect x="342" y="298.0" width="64" height="1" fill="white" fill-opacity="0.2" /><rect x="342" y="331.0" width="64" height="1" fill="white" fill-opacity="0.5" /><text x="416" y="345.0" font-size="14" fill="white" font-family="monospace" dominant-baseline="ideographic">15</text><rect x="342" y="364.0" width="64" height="1" fill="white" fill-opacity="0.2" /><rect x="342" y="397.0" width="64" height="1" fill="white" fill-opacity="0.2" /><rect x="342" y="430.0" width="64" height="1" fill="white" fill-opacity="0.2" /><rect x="342" y="463.5" width="64" height="1" fill="white" fill-opacity="0.2" /><rect x="342" y="496.5" width="64" height="1" fill="white" fill-opacity="0.2" /><rect x="342" y="529.5" width="64" height="1" fill="white" fill-opacity="0.5" /><text x="416" y="543.5" font-size="14" fill="white" font-family="monospace" dominant-baseline="ideographic">16</text><rect x="342" y="562.5" width="64" height="1" fill="white" fill-opacity="0.2" /><rect x="342" y="595.5" width="64" height="1" fill="white" fill-opacity="0.2" /><rect x="342" y="628.5" width="64" height="1" fill="white" fill-opacity="0.2" /><rect x="342" y="662.0" width="64" height="1" fill="white" fill-opacity="0.2" /><rect x="342" y="695.0" width="64" height="1" fill="white" fill-opacity="0.5" /><text x="416" y="709.0" font-size="14" fill="white" font-family="monospace" dominant-baseline="ideographic">17</text><rect x="456" y="0" width="64" height="628.5" fill="black" /><rect x="456" y="0.0" width="64" height="1" fill="white" fill-opacity="0.5" /><text x="530" y="14.0" font-size="14" fill="white" font-family="monospace" dominant-baseline="ideographic">17</text><rect x="456" y="33.0" width="64" height="1" fill="white" fill-opacity="0.2" /><rect x="456" y="66.0" width="64" height="1" fill="white" fill-opacity="0.2" /><rect x="456" y="99.0" width="64" height="1" fill="white" fill-opacity="0.2" /><rect x="456" y="132.5" width="64" height="1" fill="white" fill-opacity="0.2" /><rect x="456" y="165.5" width="64" height="1" fill="white" fill-opacity="0.5" /><text x="530" y="179.5" font-size="14" fill="white" font-family="monospace" dominant-baseline="ideographic">18</text><rect x="456" y="198.5" width="64" height="1" fill="white" fill-opacity="0.2" /><rect x="456" y="231.5" width="64" height="1" fill="white" fill-opacity="0.2" /><rect x="456" y="264.5" width="64" height="1" fill="white" fill-opacity="0.2" /><rect x="456" y="297.5" width="64" height="1" fill="white" fill-opacity="0.2" /><rect x="456" y="331.0" width="64" height="1" fill="white" fill-opacity="0.5" /><text x="530" y="345.0" font-size="14" fill="white" font-family="monospace" dominant-baseline="ideographic">19</text><rect x="456" y="364.0" width="64" height="1" fill="white" fill-opacity="0.2" /><rect x="456" y="397.0" width="64" height="1" fill="white" fill-opacity="0.2" /><rect x="456" y="430.0" width="64" height="1" fill="white" fill-opacity="0.2" /><rect x="456" y="463.0" width="64" height="1" fill="white" fill-opacity="0.5" /><text x="530" y="477.0" font-size="14" fill="white" font-family="monospace" dominant-baseline="ideographic">20</text><rect x="456" y="496.0" width="64" height="1" fill="white" fill-opacity="0.2" /><rect x="456" y="529.5" width="64" height="1" fill="white" fill-opacity="0.2" /><rect x="456" y="562.5" width="64" height="1" fill="white" fill-opacity="0.2" /><rect x="456" y="595.5" width="64" height="1" fill="white" fill-opacity="0.2" /><rect x="456" y="628.5" width="64" height="1" fill="white" fill-opacity="0.5" /><text x="530" y="642.5" font-size="14" fill="white" font-family="monospace" dominant-baseline="ideographic">21</text><rect x="570" y="0" width="64" height="761.0" fill="black" /><rect x="570" y="0.0" width="64" height="1" fill="white" fill-opacity="0.5" /><text x="644" y="14.0" font-size="14" fill="white" font-family="monospace" dominant-baseline="ideographic">21</text><rect x="570" y="33.0" width="64" height="1" fill="white" fill-opacity="0.2" /><rect x="570" y="66.5" width="64" height="1" fill="white" fill-opacity="0.2" /><rect x="570" y="99.5" width="64" height="1" fill="white" fill-opacity="0.2" /><rect x="570" y="132.5" width="64" height="1" fill="white" fill-opacity="0.2" /><rect x="570" y="165.5" width="64" height="1" fill="white" fill-opacity="0.5" /><text x="644" y="179.5" font-size="14" fill="white" font-family="monospace" dominant-baseline="ideographic">22</text><rect x="570" y="198.5" width="64" height="1" fill="white" fill-opacity="0.2" /><rect x="570" y="231.5" width="64" height="1" fill="white" fill-opacity="0.2" /><rect x="570" y="265.0" width="64" height="1" fill="white" fill-opacity="0.2" /><rect x="570" y="298.0" width="64" height="1" fill="white" fill-opacity="0.2" /><rect x="570" y="331.0" width="64" height="1" fill="white" fill-opacity="0.5" /><text x="644" y="345.0" font-size="14" fill="white" font-family="monospace" dominant-baseline="ideographic">23</text><rect x="570" y="364.0" width="64" height="1" fill="white" fill-opacity="0.2" /><rect x="570" y="397.0" width="64" height="1" fill="white" fill-opacity="0.2" /><rect x="570" y="430.0" width="64" height="1" fill="white" fill-opacity="0.2" /><rect x="570" y="463.5" width="64" height="1" fill="white" fill-opacity="0.2" /><rect x="570" y="496.5" width="64" height="1" fill="white" fill-opacity="0.2" /><rect x="570" y="529.5" width="64" height="1" fill="white" fill-opacity="0.5" /><text x="644" y="543.5" font-size="14" fill="white" font-family="monospace" dominant-baseline="ideographic">24</text><rect x="570" y="562.5" width="64" height="1" fill="white" fill-opacity="0.2" /><rect x="570" y="595.5" width="64" height="1" fill="white" fill-opacity="0.2" /><rect x="570" y="629.0" width="64" height="1" fill="white" fill-opacity="0.2" /><rect x="570" y="662.0" width="64" height="1" fill="white" fill-opacity="0.2" /><rect x="570" y="695.0" width="64" height="1" fill="white" fill-opacity="0.2" /><rect x="570" y="728.0" width="64" height="1" fill="white" fill-opacity="0.2" /><rect x="570" y="761.0" width="64" height="1" fill="white" fill-opacity="0.5" /><text x="644" y="775.0" font-size="14" fill="white" font-family="monospace" dominant-baseline="ideographic">25</text><rect x="570" y="529.5" width="64" height="1" fill="aqua" fill-opacity="0.75" /><text x="570" y="543.5" font-size="14" fill="aqua" fill-opacity="0.75" font-family="monospace">Phrase F</text><rect x="684" y="0" width="64" height="926.5" fill="black" /><rect x="684" y="0.0" width="64" height="1" fill="white" fill-opacity="0.5" /><text x="758" y="14.0" font-size="14" fill="white" font-family="monospace" dominant-baseline="ideographic">25</text><rect x="684" y="33.0" width="64" height="1" fill="white" fill-opacity="0.2" /><rect x="684" y="66.5" width="64" height="1" fill="white" fill-opacity="0.2" /><rect x="684" y="99.5" width="64" height="1" fill="white" fill-opacity="0.2" /><rect x="684" y="132.5" width="64" height="1" fill="white" fill-opacity="0.2" /><rect x="684" y="165.5" width="64" height="1" fill="white" fill-opacity="0.2" /><rect x="684" y="198.5" width="64" height="1" fill="white" fill-opacity="0.2" /><rect x="684" y="231.5" width="64" height="1" fill="white" fill-opacity="0.5" /><text x="758" y="245.5" font-size="14" fill="white" font-family="monospace" dominant-baseline="ideographic">26</text><rect x="684" y="265.0" width="64" height="1" fill="white" fill-opacity="0.2" /><rect x="684" y="298.0" width="64" height="1" fill="white" fill-opacity="0.2" /><rect x="684" y="331.0" width="64" height="1" fill="white" fill-opacity="0.2" /><rect x="684" y="364.0" width="64" height="1" fill="white" fill-opacity="0.2" /><rect x="684" y="397.0" width="64" height="1" fill="white" fill-opacity="0.2" /><rect x="684" y="430.5" width="64" height="1" fill="white" fill-opacity="0.2" /><rect x="684" y="463.5" width="64" height="1" fill="white" fill-opacity="0.5" /><text x="758" y="477.5" font-size="14" fill="white" font-family="monospace" dominant-baseline="ideographic">27</text><rect x="684" y="496.5" width="64" height="1" fill="white" fill-opacity="0.2" /><rect x="684" y="529.5" width="64" height="1" fill="white" fill-opacity="0.2" /><rect x="684" y="562.5" width="64" height="1" fill="white" fill-opacity="0.2" /><rect x="684" y="595.5" width="64" height="1" fill="white" fill-opacity="0.2" /><rect x="684" y="629.0" width="64" height="1" fill="white" fill-opacity="0.2" /><rect x="684" y="662.0" width="64" height="1" fill="white" fill-opacity="0.2" /><rect x="684" y="695.0" width="64" height="1" fill="white" fill-opacity="0.5" /><text x="758" y="709.0" font-size="14" fill="white" font-family="monospace" dominant-baseline="ideographic">28</text><rect x="684" y="728.0" width="64" height="1" fill="white" fill-opacity="0.2" /><rect x="684" y="761.0" width="64" height="1" fill="white" fill-opacity="0.2" /><rect x="684" y="794.0" width="64" height="1" fill="white" fill-opacity="0.2" /><rect x="684" y="827.5" width="64" height="1" fill="white" fill-opacity="0.2" /><rect x="684" y="860.5" width="64" height="1" fill="white" fill-opacity="0.2" /><rect x="684" y="893.5" width="64" height="1" fill="white" fill-opacity="0.2" /><rect x="684" y="926.5" width="64" height="1" fill="white" fill-opacity="0.5" /><text x="758" y="940.5" font-size="14" fill="white" font-family="monospace" dominant-baseline="ideographic">29</text><rect x="798" y="0" width="64" height="959.5" fill="black" /><rect x="798" y="0.0" width="64" height="1" fill="white" fill-opacity="0.5" /><text x="872" y="14.0" font-size="14" fill="white" font-family="monospace" dominant-baseline="ideographic">29</text><rect x="798" y="33.0" width="64" height="1" fill="white" fill-opacity="0.2" /><rect x="798" y="66.5" width="64" height="1" fill="white" fill-opacity="0.2" /><rect x="798" y="99.5" width="64" height="1" fill="white" fill-opacity="0.2" /><rect x="798" y="132.5" width="64" height="1" fill="white" fill-opacity="0.2" /><rect x="798" y="165.5" width="64" height="1" fill="white" fill-opacity="0.2" /><rect x="798" y="198.5" width="64" height="1" fill="white" fill-opacity="0.2" /><rect x="798" y="231.5" width="64" height="1" fill="white" fill-opacity="0.5" /><text x="872" y="245.5" font-size="14" fill="white" font-family="monospace" dominant-baseline="ideographic">30</text><rect x="798" y="265.0" width="64" height="1" fill="white" fill-opacity="0.2" /><rect x="798" y="298.0" width="64" height="1" fill="white" fill-opacity="0.2" /><rect x="798" y="331.0" width="64" height="1" fill="white" fill-opacity="0.2" /><rect x="798" y="364.0" width="64" height="1" fill="white" fill-opacity="0.2" /><rect x="798" y="397.0" width="64" height="1" fill="white" fill-opacity="0.2" /><rect x="798" y="430.0" width="64" height="1" fill="white" fill-opacity="0.2" /><rect x="798" y="463.5" width="64" height="1" fill="white" fill-opacity="0.5" /><text x="872" y="477.5" font-size="14" fill="white" font-family="monospace" dominant-baseline="ideographic">31</text><rect x="798" y="496.5" width="64" height="1" fill="white" fill-opacity="0.2" /><rect x="798" y="529.5" width="64" height="1" fill="white" fill-opacity="0.2" /><rect x="798" y="562.5" width="64" height="1" fill="white" fill-opacity="0.2" /><rect x="798" y="595.5" width="64" height="1" fill="white" fill-opacity="0.2" /><rect x="798" y="629.0" width="64" height="1" fill="white" fill-opacity="0.2" /><rect x="798" y="662.0" width="64" height="1" fill="white" fill-opacity="0.2" /><rect x="798" y="695.0" width="64" height="1" fill="white" fill-opacity="0.5" /><text x="872" y="709.0" font-size="14" fill="white" font-family="monospace" dominant-baseline="ideographic">32</text><rect x="798" y="761.0" width="64" height="1" fill="white" fill-opacity="0.2" /><rect x="798" y="827.5" width="64" height="1" fill="white" fill-opacity="0.2" /><rect x="798" y="893.5" width="64" height="1" fill="white" fill-opacity="0.2" /><rect x="798" y="959.5" width="64" height="1" fill="white" fill-opacity="0.5" /><text x="872" y="973.5" font-size="14" fill="white" font-family="monospace" dominant-baseline="ideographic">33</text><rect x="798" y="694.9499999999998" width="64" height="1" fill="aqua" fill-opacity="0.75" /><text x="798" y="708.9499999999998" font-size="14" fill="aqua" fill-opacity="0.75" font-family="monospace">Special</text><rect x="912" y="0" width="64" height="1059.0" fill="black" /><rect x="912" y="0.0" width="64" height="1" fill="white" fill-opacity="0.5" /><text x="986" y="14.0" font-size="14" fill="white" font-family="monospace" dominant-baseline="ideographic">33</text><rect x="912" y="66.5" width="64" height="1" fill="white" fill-opacity="0.2" /><rect x="912" y="132.5" width="64" height="1" fill="white" fill-opacity="0.2" /><rect x="912" y="198.5" width="64" height="1" fill="white" fill-opacity="0.2" /><rect x="912" y="265.0" width="64" height="1" fill="white" fill-opacity="0.5" /><text x="986" y="279.0" font-size="14" fill="white" font-family="monospace" dominant-baseline="ideographic">34</text><rect x="912" y="331.0" width="64" height="1" fill="white" fill-opacity="0.2" /><rect x="912" y="397.0" width="64" height="1" fill="white" fill-opacity="0.2" /><rect x="912" y="463.5" width="64" height="1" fill="white" fill-opacity="0.2" /><rect x="912" y="529.5" width="64" height="1" fill="white" fill-opacity="0.5" /><text x="986" y="543.5" font-size="14" fill="white" font-family="monospace" dominant-baseline="ideographic">35</text><rect x="912" y="595.5" width="64" height="1" fill="white" fill-opacity="0.2" /><rect x="912" y="662.0" width="64" height="1" fill="white" fill-opacity="0.2" /><rect x="912" y="728.0" width="64" height="1" fill="white" fill-opacity="0.2" /><rect x="912" y="794.5" width="64" height="1" fill="white" fill-opacity="0.5" /><text x="986" y="808.5" font-size="14" fill="white" font-family="monospace" dominant-baseline="ideographic">36</text><rect x="912" y="860.5" width="64" height="1" fill="white" fill-opacity="0.2" /><rect x="912" y="926.5" width="64" height="1" fill="white" fill-opacity="0.2" /><rect x="912" y="993.0" width="64" height="1" fill="white" fill-opacity="0.2" /><rect x="912" y="1059.0" width="64" height="1" fill="white" fill-opacity="0.5" /><text x="986" y="1073.0" font-size="14" fill="white" font-family="monospace" dominant-baseline="ideographic">37</text><rect x="1026" y="0" width="64" height="1059.0" fill="black" /><rect x="1026" y="0.0" width="64" height="1" fill="white" fill-opacity="0.5" /><text x="1100" y="14.0" font-size="14" fill="white" font-family="monospace" dominant-baseline="ideographic">37</text><rect x="1026" y="66.0" width="64" height="1" fill="white" fill-opacity="0.2" /><rect x="1026" y="132.5" width="64" height="1" fill="white" fill-opacity="0.2" /><rect x="1026" y="198.5" width="64" height="1" fill="white" fill-opacity="0.2" /><rect x="1026" y="264.5" width="64" height="1" fill="white" fill-opacity="0.5" /><text x="1100" y="278.5" font-size="14" fill="white" font-family="monospace" dominant-baseline="ideographic">38</text><rect x="1026" y="331.0" width="64" height="1" fill="white" fill-opacity="0.2" /><rect x="1026" y="397.0" width="64" height="1" fill="white" fill-opacity="0.2" /><rect x="1026" y="463.0" width="64" height="1" fill="white" fill-opacity="0.2" /><rect x="1026" y="529.5" width="64" height="1" fill="white" fill-opacity="0.5" /><text x="1100" y="543.5" font-size="14" fill="white" font-family="monospace" dominant-baseline="ideographic">39</text><rect x="1026" y="595.5" width="64" height="1" fill="white" fill-opacity="0.2" /><rect x="1026" y="661.5" width="64" height="1" fill="white" fill-opacity="0.2" /><rect x="1026" y="728.0" width="64" height="1" fill="white" fill-opacity="0.2" /><rect x="1026" y="794.0" width="64" height="1" fill="white" fill-opacity="0.5" /><text x="1100" y="808.0" font-size="14" fill="white" font-family="monospace" dominant-baseline="ideographic">40</text><rect x="1026" y="860.5" width="64" height="1" fill="white" fill-opacity="0.2" /><rect x="1026" y="926.5" width="64" height="1" fill="white" fill-opacity="0.2" /><rect x="1026" y="992.5" width="64" height="1" fill="white" fill-opacity="0.2" /><rect x="1026" y="1059.0" width="64" height="1" fill="white" fill-opacity="0.5" /><text x="1100" y="1073.0" font-size="14" fill="white" font-family="monospace" dominant-baseline="ideographic">41</text><rect x="1140" y="0" width="64" height="1058.5" fill="black" /><rect x="1140" y="0.0" width="64" height="1" fill="white" fill-opacity="0.5" /><text x="1214" y="14.0" font-size="14" fill="white" font-family="monospace" dominant-baseline="ideographic">41</text><rect x="1140" y="66.0" width="64" height="1" fill="white" fill-opacity="0.2" /><rect x="1140" y="132.0" width="64" height="1" fill="white" fill-opacity="0.2" /><rect x="1140" y="198.5" width="64" height="1" fill="white" fill-opacity="0.2" /><rect x="1140" y="264.5" width="64" height="1" fill="white" fill-opacity="0.5" /><text x="1214" y="278.5" font-size="14" fill="white" font-family="monospace" dominant-baseline="ideographic">42</text><rect x="1140" y="330.5" width="64" height="1" fill="white" fill-opacity="0.2" /><rect x="1140" y="397.0" width="64" height="1" fill="white" fill-opacity="0.2" /><rect x="1140" y="463.0" width="64" height="1" fill="white" fill-opacity="0.2" /><rect x="1140" y="529.0" width="64" height="1" fill="white" fill-opacity="0.5" /><text x="1214" y="543.0" font-size="14" fill="white" font-family="monospace" dominant-baseline="ideographic">43</text><rect x="1140" y="595.5" width="64" height="1" fill="white" fill-opacity="0.2" /><rect x="1140" y="661.5" width="64" height="1" fill="white" fill-opacity="0.2" /><rect x="1140" y="727.5" width="64" height="1" fill="white" fill-opacity="0.2" /><rect x="1140" y="794.0" width="64" height="1" fill="white" fill-opacity="0.5" /><text x="1214" y="808.0" font-size="14" fill="white" font-family="monospace" dominant-baseline="ideographic">44</text><rect x="1140" y="860.0" width="64" height="1" fill="white" fill-opacity="0.2" /><rect x="1140" y="926.5" width="64" height="1" fill="white" fill-opacity="0.2" /><rect x="1140" y="992.5" width="64" height="1" fill="white" fill-opacity="0.2" /><rect x="1140" y="1058.5" width="64" height="1" fill="white" fill-opacity="0.5" /><text x="1214" y="1072.5" font-size="14" fill="white" font-family="monospace" dominant-baseline="ideographic">45</text><rect x="1254" y="0" width="64" height="1059.0" fill="black" /><rect x="1254" y="0.0" width="64" height="1" fill="white" fill-opacity="0.5" /><text x="1328" y="14.0" font-size="14" fill="white" font-family="monospace" dominant-baseline="ideographic">45</text><rect x="1254" y="66.5" width="64" height="1" fill="white" fill-opacity="0.2" /><rect x="1254" y="132.5" width="64" height="1" fill="white" fill-opacity="0.2" /><rect x="1254" y="198.5" width="64" height="1" fill="white" fill-opacity="0.2" /><rect x="1254" y="265.0" width="64" height="1" fill="white" fill-opacity="0.5" /><text x="1328" y="279.0" font-size="14" fill="white" font-family="monospace" dominant-baseline="ideographic">46</text><rect x="1254" y="331.0" width="64" height="1" fill="white" fill-opacity="0.2" /><rect x="1254" y="397.0" width="64" height="1" fill="white" fill-opacity="0.2" /><rect x="1254" y="463.5" width="64" height="1" fill="white" fill-opacity="0.2" /><rect x="1254" y="529.5" width="64" height="1" fill="white" fill-opacity="0.5" /><text x="1328" y="543.5" font-size="14" fill="white" font-family="monospace" dominant-baseline="ideographic">47</text><rect x="1254" y="595.5" width="64" height="1" fill="white" fill-opacity="0.2" /><rect x="1254" y="662.0" width="64" height="1" fill="white" fill-opacity="0.2" /><rect x="1254" y="728.0" width="64" height="1" fill="white" fill-opacity="0.2" /><rect x="1254" y="794.0" width="64" height="1" fill="white" fill-opacity="0.5" /><text x="1328" y="808.0" font-size="14" fill="white" font-family="monospace" dominant-baseline="ideographic">48</text><rect x="1254" y="860.5" width="64" height="1" fill="white" fill-opacity="0.2" /><rect x="1254" y="926.5" width="64" height="1" fill="white" fill-opacity="0.2" /><rect x="1254" y="993.0" width="64" height="1" fill="white" fill-opacity="0.2" /><rect x="1254" y="1059.0" width="64" height="1" fill="white" fill-opacity="0.5" /><text x="1328" y="1073.0" font-size="14" fill="white" font-family="monospace" dominant-baseline="ideographic">49</text><rect x="1254" y="794.1999999999989" width="64" height="1" fill="aqua" fill-opacity="0.75" /><text x="1254" y="808.1999999999989" font-size="14" fill="aqua" fill-opacity="0.75" font-family="monospace">Special</text><rect x="1368" y="0" width="64" height="1059.0" fill="black" /><rect x="1368" y="0.0" width="64" height="1" fill="white" fill-opacity="0.5" /><text x="1442" y="14.0" font-size="14" fill="white" font-family="monospace" dominant-baseline="ideographic">49</text><rect x="1368" y="66.0" width="64" height="1" fill="white" fill-opacity="0.2" /><rect x="1368" y="132.5" width="64" height="1" fill="white" fill-opacity="0.2" /><rect x="1368" y="198.5" width="64" height="1" fill="white" fill-opacity="0.2" /><rect x="1368" y="264.5" width="64" height="1" fill="white" fill-opacity="0.5" /><text x="1442" y="278.5" font-size="14" fill="white" font-family="monospace" dominant-baseline="ideographic">50</text><rect x="1368" y="331.0" width="64" height="1" fill="white" fill-opacity="0.2" /><rect x="1368" y="397.0" width="64" height="1" fill="white" fill-opacity="0.2" /><rect x="1368" y="463.0" width="64" height="1" fill="white" fill-opacity="0.2" /><rect x="1368" y="529.5" width="64" height="1" fill="white" fill-opacity="0.5" /><text x="1442" y="543.5" font-size="14" fill="white" font-family="monospace" dominant-baseline="ideographic">51</text><rect x="1368" y="595.5" width="64" height="1" fill="white" fill-opacity="0.2" /><rect x="1368" y="661.5" width="64" height="1" fill="white" fill-opacity="0.2" /><rect x="1368" y="728.0" width="64" height="1" fill="white" fill-opacity="0.2" /><rect x="1368" y="794.0" width="64" height="1" fill="white" fill-opacity="0.5" /><text x="1442" y="808.0" font-size="14" fill="white" font-family="monospace" dominant-baseline="ideographic">52</text><rect x="1368" y="860.0" width="64" height="1" fill="white" fill-opacity="0.2" /><rect x="1368" y="926.5" width="64" height="1" fill="white" fill-opacity="0.2" /><rect x="1368" y="992.5" width="64" height="1" fill="white" fill-opacity="0.2" /><rect x="1368" y="1059.0" width="64" height="1" fill="white" fill-opacity="0.5" /><text x="1442" y="1073.0" font-size="14" fill="white" font-family="monospace" dominant-baseline="ideographic">53</text><rect x="1482" y="0" width="64" height="1058.5" fill="black" /><rect x="1482" y="0.0" width="64" height="1" fill="white" fill-opacity="0.5" /><text x="1556" y="14.0" font-size="14" fill="white" font-family="monospace" dominant-baseline="ideographic">53</text><rect x="1482" y="66.0" width="64" height="1" fill="white" fill-opacity="0.2" /><rect x="1482" y="132.0" width="64" height="1" fill="white" fill-opacity="0.2" /><rect x="1482" y="198.5" width="64" height="1" fill="white" fill-opacity="0.2" /><rect x="1482" y="264.5" width="64" height="1" fill="white" fill-opacity="0.5" /><text x="1556" y="278.5" font-size="14" fill="white" font-family="monospace" dominant-baseline="ideographic">54</text><rect x="1482" y="330.5" width="64" height="1" fill="white" fill-opacity="0.2" /><rect x="1482" y="397.0" width="64" height="1" fill="white" fill-opacity="0.2" /><rect x="1482" y="463.0" width="64" height="1" fill="white" fill-opacity="0.2" /><rect x="1482" y="529.0" width="64" height="1" fill="white" fill-opacity="0.5" /><text x="1556" y="543.0" font-size="14" fill="white" font-family="monospace" dominant-baseline="ideographic">55</text><rect x="1482" y="595.5" width="64" height="1" fill="white" fill-opacity="0.2" /><rect x="1482" y="661.5" width="64" height="1" fill="white" fill-opacity="0.2" /><rect x="1482" y="727.5" width="64" height="1" fill="white" fill-opacity="0.2" /><rect x="1482" y="794.0" width="64" height="1" fill="white" fill-opacity="0.5" /><text x="1556" y="808.0" font-size="14" fill="white" font-family="monospace" dominant-baseline="ideographic">56</text><rect x="1482" y="860.0" width="64" height="1" fill="white" fill-opacity="0.2" /><rect x="1482" y="926.0" width="64" height="1" fill="white" fill-opacity="0.2" /><rect x="1482" y="992.5" width="64" height="1" fill="white" fill-opacity="0.2" /><rect x="1482" y="1058.5" width="64" height="1" fill="white" fill-opacity="0.5" /><text x="1556" y="1072.5" font-size="14" fill="white" font-family="monospace" dominant-baseline="ideographic">57</text><rect x="1596" y="0" width="64" height="1059.0" fill="black" /><rect x="1596" y="0.0" width="64" height="1" fill="white" fill-opacity="0.5" /><text x="1670" y="14.0" font-size="14" fill="white" font-family="monospace" dominant-baseline="ideographic">57</text><rect x="1596" y="66.5" width="64" height="1" fill="white" fill-opacity="0.2" /><rect x="1596" y="132.5" width="64" height="1" fill="white" fill-opacity="0.2" /><rect x="1596" y="198.5" width="64" height="1" fill="white" fill-opacity="0.2" /><rect x="1596" y="265.0" width="64" height="1" fill="white" fill-opacity="0.5" /><text x="1670" y="279.0" font-size="14" fill="white" font-family="monospace" dominant-baseline="ideographic">58</text><rect x="1596" y="331.0" width="64" height="1" fill="white" fill-opacity="0.2" /><rect x="1596" y="397.0" width="64" height="1" fill="white" fill-opacity="0.2" /><rect x="1596" y="463.5" width="64" height="1" fill="white" fill-opacity="0.2" /><rect x="1596" y="529.5" width="64" height="1" fill="white" fill-opacity="0.5" /><text x="1670" y="543.5" font-size="14" fill="white" font-family="monospace" dominant-baseline="ideographic">59</text><rect x="1596" y="595.5" width="64" height="1" fill="white" fill-opacity="0.2" /><rect x="1596" y="662.0" width="64" height="1" fill="white" fill-opacity="0.2" /><rect x="1596" y="728.0" width="64" height="1" fill="white" fill-opacity="0.2" /><rect x="1596" y="794.0" width="64" height="1" fill="white" fill-opacity="0.5" /><text x="1670" y="808.0" font-size="14" fill="white" font-family="monospace" dominant-baseline="ideographic">60</text><rect x="1596" y="860.5" width="64" height="1" fill="white" fill-opacity="0.2" /><rect x="1596" y="926.5" width="64" height="1" fill="white" fill-opacity="0.2" /><rect x="1596" y="992.5" width="64" height="1" fill="white" fill-opacity="0.2" /><rect x="1596" y="1059.0" width="64" height="1" fill="white" fill-opacity="0.5" /><text x="1670" y="1073.0" font-size="14" fill="white" font-family="monospace" dominant-baseline="ideographic">61</text><rect x="1596" y="529.5" width="64" height="1" fill="aqua" fill-opacity="0.75" /><text x="1596" y="543.5" font-size="14" fill="aqua" fill-opacity="0.75" font-family="monospace">Phrase A</text><rect x="1710" y="0" width="64" height="1058.5" fill="black" /><rect x="1710" y="0.0" width="64" height="1" fill="white" fill-opacity="0.5" /><text x="1784" y="14.0" font-size="14" fill="white" font-family="monospace" dominant-baseline="ideographic">61</text><rect x="1710" y="66.0" width="64" height="1" fill="white" fill-opacity="0.2" /><rect x="1710" y="132.0" width="64" height="1" fill="white" fill-opacity="0.2" /><rect x="1710" y="198.5" width="64" height="1" fill="white" fill-opacity="0.2" /><rect x="1710" y="264.5" width="64" height="1" fill="white" fill-opacity="0.5" /><text x="1784" y="278.5" font-size="14" fill="white" font-family="monospace" dominant-baseline="ideographic">62</text><rect x="1710" y="331.0" width="64" height="1" fill="white" fill-opacity="0.2" /><rect x="1710" y="397.0" width="64" height="1" fill="white" fill-opacity="0.2" /><rect x="1710" y="463.0" width="64" height="1" fill="white" fill-opacity="0.2" /><rect x="1710" y="529.5" width="64" height="1" fill="white" fill-opacity="0.5" /><text x="1784" y="543.5" font-size="14" fill="white" font-family="monospace" dominant-baseline="ideographic">63</text><rect x="1710" y="595.5" width="64" height="1" fill="white" fill-opacity="0.2" /><rect x="1710" y="661.5" width="64" height="1" fill="white" fill-opacity="0.2" /><rect x="1710" y="728.0" width="64" height="1" fill="white" fill-opacity="0.2" /><rect x="1710" y="794.0" width="64" height="1" fill="white" fill-opacity="0.5" /><text x="1784" y="808.0" font-size="14" fill="white" font-family="monospace" dominant-baseline="ideographic">64</text><rect x="1710" y="860.0" width="64" height="1" fill="white" fill-opacity="0.2" /><rect x="1710" y="926.5" width="64" height="1" fill="white" fill-opacity="0.2" /><rect x="1710" y="992.5" width="64" height="1" fill="white" fill-opacity="0.2" /><rect x="1710" y="1058.5" width="64" height="1" fill="white" fill-opacity="0.5" /><text x="1784" y="1072.5" font-size="14" fill="white" font-family="monospace" dominant-baseline="ideographic">65</text><rect x="1824" y="0" width="64" height="1059.0" fill="black" /><rect x="1824" y="0.0" width="64" height="1" fill="white" fill-opacity="0.5" /><text x="1898" y="14.0" font-size="14" fill="white" font-family="monospace" dominant-baseline="ideographic">65</text><rect x="1824" y="66.5" width="64" height="1" fill="white" fill-opacity="0.2" /><rect x="1824" y="132.5" width="64" height="1" fill="white" fill-opacity="0.2" /><rect x="1824" y="198.5" width="64" height="1" fill="white" fill-opacity="0.2" /><rect x="1824" y="265.0" width="64" height="1" fill="white" fill-opacity="0.5" /><text x="1898" y="279.0" font-size="14" fill="white" font-family="monospace" dominant-baseline="ideographic">66</text><rect x="1824" y="331.0" width="64" height="1" fill="white" fill-opacity="0.2" /><rect x="1824" y="397.5" width="64" height="1" fill="white" fill-opacity="0.2" /><rect x="1824" y="463.5" width="64" height="1" fill="white" fill-opacity="0.2" /><rect x="1824" y="529.5" width="64" height="1" fill="white" fill-opacity="0.5" /><text x="1898" y="543.5" font-size="14" fill="white" font-family="monospace" dominant-baseline="ideographic">67</text><rect x="1824" y="596.0" width="64" height="1" fill="white" fill-opacity="0.2" /><rect x="1824" y="662.0" width="64" height="1" fill="white" fill-opacity="0.2" /><rect x="1824" y="728.0" width="64" height="1" fill="white" fill-opacity="0.2" /><rect x="1824" y="794.5" width="64" height="1" fill="white" fill-opacity="0.5" /><text x="1898" y="808.5" font-size="14" fill="white" font-family="monospace" dominant-baseline="ideographic">68</text><rect x="1824" y="860.5" width="64" height="1" fill="white" fill-opacity="0.2" /><rect x="1824" y="926.5" width="64" height="1" fill="white" fill-opacity="0.2" /><rect x="1824" y="993.0" width="64" height="1" fill="white" fill-opacity="0.2" /><rect x="1824" y="1059.0" width="64" height="1" fill="white" fill-opacity="0.5" /><text x="1898" y="1073.0" font-size="14" fill="white" font-family="monospace" dominant-baseline="ideographic">69</text><rect x="1824" y="529.6999999999989" width="64" height="1" fill="aqua" fill-opacity="0.75" /><text x="1824" y="543.6999999999989" font-size="14" fill="aqua" fill-opacity="0.75" font-family="monospace">Phrase B</text><rect x="1938" y="0" width="64" height="728.0" fill="black" /><rect x="1938" y="0.0" width="64" height="1" fill="white" fill-opacity="0.5" /><text x="2012" y="14.0" font-size="14" fill="white" font-family="monospace" dominant-baseline="ideographic">69</text><rect x="1938" y="66.0" width="64" height="1" fill="white" fill-opacity="0.2" /><rect x="1938" y="132.5" width="64" height="1" fill="white" fill-opacity="0.2" /><rect x="1938" y="198.5" width="64" height="1" fill="white" fill-opacity="0.2" /><rect x="1938" y="264.5" width="64" height="1" fill="white" fill-opacity="0.5" /><text x="2012" y="278.5" font-size="14" fill="white" font-family="monospace" dominant-baseline="ideographic">70</text><rect x="1938" y="331.0" width="64" height="1" fill="white" fill-opacity="0.2" /><rect x="1938" y="397.0" width="64" height="1" fill="white" fill-opacity="0.2" /><rect x="1938" y="463.5" width="64" height="1" fill="white" fill-opacity="0.2" /><rect x="1938" y="529.5" width="64" height="1" fill="white" fill-opacity="0.5" /><text x="2012" y="543.5" font-size="14" fill="white" font-family="monospace" dominant-baseline="ideographic">71</text></svg>