<?xml version="1.0" encoding="UTF-8"?><svg xmlns="http://www.w3.org/2000/svg" xmlns:xlink="http://www.w3.org/1999/xlink"     width="4760" height="872.0" viewBox="0 0 4760 872.0"><defs></defs><rect x="0" y="25.0" width="188" height="847.0" fill="black" /><rect x="0" y="871.0" width="188" height="1" fill="white" fill-opacity="0.5" /><text x="198" y="871.0" font-size="14" fill="white" font-family="monospace" dominant-baseline="initial">1</text><rect x="0" y="818.0" width="188" height="1" fill="white" fill-opacity="0.2" /><rect x="0" y="765.0" width="188" height="1" fill="white" fill-opacity="0.2" /><rect x="0" y="712.0" width="188" height="1" fill="white" fill-opacity="0.2" /><rect x="0" y="659.0" width="188" height="1" fill="white" fill-opacity="0.5" /><text x="198" y="659.0" font-size="14" fill="white" font-family="monospace" dominant-baseline="initial">2</text><rect x="0" y="606.5" width="188" height="1" fill="white" fill-opacity="0.2" /><rect x="0" y="553.5" width="188" height="1" fill="white" fill-opacity="0.2" /><rect x="0" y="500.5" width="188" height="1" fill="white" fill-opacity="0.2" /><rect x="0" y="447.5" width="188" height="1" fill="white" fill-opacity="0.5" /><text x="198" y="447.5" font-size="14" fill="white" font-family="monospace" dominant-baseline="initial">3</text><rect x="0" y="394.5" width="188" height="1" fill="white" fill-opacity="0.2" /><rect x="0" y="341.5" width="188" height="1" fill="white" fill-opacity="0.2" /><rect x="0" y="288.5" width="188" height="1" fill="white" fill-opacity="0.2" /><rect x="0" y="235.5" width="188" height="1" fill="white" fill-opacity="0.5" /><text x="198" y="235.5" font-size="14" fill="white" font-family="monospace" dominant-baseline="initial">4</text><rect x="0" y="183.0" width="188" height="1" fill="white" fill-opacity="0.2" /><rect x="0" y="130.0" width="188" height="1" fill="white" fill-opacity="0.2" /><rect x="0" y="77.0" width="188" height="1" fill="white" fill-opacity="0.2" /><rect x="0" y="24.0" width="188" height="1" fill="white" fill-opacity="0.5" /><text x="198" y="24.0" font-size="14" fill="white" font-family="monospace" dominant-baseline="initial">5</text><rect x="0" y="871.0" width="188" height="1" fill="aqua" fill-opacity="0.75" /><text x="0" y="867.0" font-size="14" fill="aqua" fill-opacity="0.75" font-family="monospace">Intro</text><rect x="0" y="871.0" width="188" height="1" fill="lime" fill-opacity="0.75" /><text x="198" y="858.0" font-size="14" fill="lime" font-family="monospace" dominant-baseline="initial">170</text><rect x="238" y="25.0" width="188" height="847.0" fill="black" /><rect x="238" y="871.0" width="188" height="1" fill="white" fill-opacity="0.5" /><text x="436" y="871.0" font-size="14" fill="white" font-family="monospace" dominant-baseline="initial">5</text><rect x="238" y="818.0" width="188" height="1" fill="white" fill-opacity="0.2" /><rect x="238" y="765.0" width="188" height="1" fill="white" fill-opacity="0.2" /><rect x="238" y="712.0" width="188" height="1" fill="white" fill-opacity="0.2" /><rect x="238" y="659.0" width="188" height="1" fill="white" fill-opacity="0.5" /><text x="436" y="659.0" font-size="14" fill="white" font-family="monospace" dominant-baseline="initial">6</text><rect x="238" y="606.0" width="188" height="1" fill="white" fill-opacity="0.2" /><rect x="238" y="553.5" width="188" height="1" fill="white" fill-opacity="0.2" /><rect x="238" y="500.5" width="188" height="1" fill="white" fill-opacity="0.2" /><rect x="238" y="447.5" width="188" height="1" fill="white" fill-opacity="0.5" /><text x="436" y="447.5" font-size="14" fill="white" font-family="monospace" dominant-baseline="initial">7</text><rect x="238" y="394.5" width="188" height="1" fill="white" fill-opacity="0.2" /><rect x="238" y="341.5" width="188" height="1" fill="white" fill-opacity="0.2" /><rect x="238" y="288.5" width="188" height="1" fill="white" fill-opacity="0.2" /><rect x="238" y="235.5" width="188" height="1" fill="white" fill-opacity="0.5" /><text x="436" y="235.5" font-size="14" fill="white" font-family="monospace" dominant-baseline="initial">8</text><rect x="238" y="182.5" width="188" height="1" fill="white" fill-opacity="0.2" /><rect x="238" y="130.0" width="188" height="1" fill="white" fill-opacity="0.2" /><rect x="238" y="77.0" width="188" height="1" fill="white" fill-opacity="0.2" /><rect x="238" y="24.0" width="188" height="1" fill="white" fill-opacity="0.5" /><text x="436" y="24.0" font-size="14" fill="white" font-family="monospace" dominant-baseline="initial">9</text><rect x="476" y="14.0" width="188" height="858.0" fill="black" /><rect x="476" y="871.0" width="188" height="1" fill="white" fill-opacity="0.5" /><text x="674" y="871.0" font-size="14" fill="white" font-family="monospace" dominant-baseline="initial">9</text><rect x="476" y="818.0" width="188" height="1" fill="white" fill-opacity="0.2" /><rect x="476" y="765.0" width="188" height="1" fill="white" fill-opacity="0.2" /><rect x="476" y="712.0" width="188" height="1" fill="white" fill-opacity="0.2" /><rect x="476" y="659.0" width="188" height="1" fill="white" fill-opacity="0.5" /><text x="674" y="659.0" font-size="14" fill="white" font-family="monospace" dominant-baseline="initial">10</text><rect x="476" y="602.0" width="188" height="1" fill="white" fill-opacity="0.2" /><rect x="476" y="545.5" width="188" height="1" fill="white" fill-opacity="0.2" /><rect x="476" y="490.5" width="188" height="1" fill="white" fill-opacity="0.2" /><rect x="476" y="436.5" width="188" height="1" fill="white" fill-opacity="0.5" /><text x="674" y="436.5" font-size="14" fill="white" font-family="monospace" dominant-baseline="initial">11</text><rect x="476" y="383.5" width="188" height="1" fill="white" fill-opacity="0.2" /><rect x="476" y="330.5" width="188" height="1" fill="white" fill-opacity="0.2" /><rect x="476" y="278.0" width="188" height="1" fill="white" fill-opacity="0.2" /><rect x="476" y="225.0" width="188" height="1" fill="white" fill-opacity="0.5" /><text x="674" y="225.0" font-size="14" fill="white" font-family="monospace" dominant-baseline="initial">12</text><rect x="476" y="172.0" width="188" height="1" fill="white" fill-opacity="0.2" /><rect x="476" y="119.0" width="188" height="1" fill="white" fill-opacity="0.2" /><rect x="476" y="66.0" width="188" height="1" fill="white" fill-opacity="0.2" /><rect x="476" y="13.0" width="188" height="1" fill="white" fill-opacity="0.5" /><text x="674" y="13.0" font-size="14" fill="white" font-family="monospace" dominant-baseline="initial">13</text><rect x="476" y="436.6500000000001" width="188" height="1" fill="aqua" fill-opacity="0.75" /><text x="476" y="432.6500000000001" font-size="14" fill="aqua" fill-opacity="0.75" font-family="monospace">Special</text><rect x="476" y="659.0" width="188" height="1" fill="lime" fill-opacity="0.75" /><text x="674" y="646.0" font-size="14" fill="lime" font-family="monospace" dominant-baseline="initial">157.0</text><rect x="476" y="645.0" width="188" height="1" fill="lime" fill-opacity="0.75" /><text x="674" y="646.0" font-size="14" fill="lime" font-family="monospace" dominant-baseline="initial">157</text><rect x="476" y="630.5" width="188" height="1" fill="lime" fill-opacity="0.75" /><text x="674" y="631.5" font-size="14" fill="lime" font-family="monospace" dominant-baseline="initial">157.3</text><rect x="476" y="616.0" width="188" height="1" fill="lime" fill-opacity="0.75" /><text x="674" y="617.0" font-size="14" fill="lime" font-family="monospace" dominant-baseline="initial">157.7</text><rect x="476" y="602.0" width="188" height="1" fill="lime" fill-opacity="0.75" /><text x="674" y="603.0" font-size="14" fill="lime" font-family="monospace" dominant-baseline="initial">158.3</text><rect x="476" y="587.5" width="188" height="1" fill="lime" fill-opacity="0.75" /><text x="674" y="588.5" font-size="14" fill="lime" font-family="monospace" dominant-baseline="initial">159</text><rect x="476" y="573.5" width="188" height="1" fill="lime" fill-opacity="0.75" /><text x="674" y="574.5" font-size="14" fill="lime" font-family="monospace" dominant-baseline="initial">159.9</text><rect x="476" y="559.5" width="188" height="1" fill="lime" fill-opacity="0.75" /><text x="674" y="560.5" font-size="14" fill="lime" font-family="monospace" dominant-baseline="initial">160.8</text><rect x="476" y="545.5" width="188" height="1" fill="lime" fill-opacity="0.75" /><text x="674" y="546.5" font-size="14" fill="lime" font-family="monospace" dominant-baseline="initial">161.8</text><rect x="476" y="531.5" width="188" height="1" fill="lime" fill-opacity="0.75" /><text x="674" y="532.5" font-size="14" fill="lime" font-family="monospace" dominant-baseline="initial">162.8</text><rect x="476" y="517.5" width="188" height="1" fill="lime" fill-opacity="0.75" /><text x="674" y="518.5" font-size="14" fill="lime" font-family="monospace" dominant-baseline="initial">163.8</text><rect x="476" y="504.0" width="188" height="1" fill="lime" fill-opacity="0.75" /><text x="674" y="505.0" font-size="14" fill="lime" font-family="monospace" dominant-baseline="initial">164.8</text><rect x="476" y="490.5" width="188" height="1" fill="lime" fill-opacity="0.75" /><text x="674" y="491.5" font-size="14" fill="lime" font-family="monospace" dominant-baseline="initial">165.9</text><rect x="476" y="477.0" width="188" height="1" fill="lime" fill-opacity="0.75" /><text x="674" y="478.0" font-size="14" fill="lime" font-family="monospace" dominant-baseline="initial">166.9</text><rect x="476" y="463.5" width="188" height="1" fill="lime" fill-opacity="0.75" /><text x="674" y="464.5" font-size="14" fill="lime" font-family="monospace" dominant-baseline="initial">167.9</text><rect x="476" y="450.0" width="188" height="1" fill="lime" fill-opacity="0.75" /><text x="674" y="451.0" font-size="14" fill="lime" font-family="monospace" dominant-baseline="initial">169.0</text><rect x="476" y="436.5" width="188" height="1" fill="lime" fill-opacity="0.75" /><text x="674" y="423.5" font-size="14" fill="lime" font-family="monospace" dominant-baseline="initial">170</text><rect x="714" y="25.0" width="188" height="847.0" fill="black" /><rect x="714" y="871.0" width="188" height="1" fill="white" fill-opacity="0.5" /><text x="912" y="871.0" font-size="14" fill="white" font-family="monospace" dominant-baseline="initial">13</text><rect x="714" y="818.0" width="188" height="1" fill="white" fill-opacity="0.2" /><rect x="714" y="765.0" width="188" height="1" fill="white" fill-opacity="0.2" /><rect x="714" y="712.0" width="188" height="1" fill="white" fill-opacity="0.2" /><rect x="714" y="659.5" width="188" height="1" fill="white" fill-opacity="0.5" /><text x="912" y="659.5" font-size="14" fill="white" font-family="monospace" dominant-baseline="initial">14</text><rect x="714" y="606.5" width="188" height="1" fill="white" fill-opacity="0.2" /><rect x="714" y="553.5" width="188" height="1" fill="white" fill-opacity="0.2" /><rect x="714" y="500.5" width="188" height="1" fill="white" fill-opacity="0.2" /><rect x="714" y="447.5" width="188" height="1" fill="white" fill-opacity="0.5" /><text x="912" y="447.5" font-size="14" fill="white" font-family="monospace" dominant-baseline="initial">15</text><rect x="714" y="394.5" width="188" height="1" fill="white" fill-opacity="0.2" /><rect x="714" y="341.5" width="188" height="1" fill="white" fill-opacity="0.2" /><rect x="714" y="288.5" width="188" height="1" fill="white" fill-opacity="0.2" /><rect x="714" y="236.0" width="188" height="1" fill="white" fill-opacity="0.5" /><text x="912" y="236.0" font-size="14" fill="white" font-family="monospace" dominant-baseline="initial">16</text><rect x="714" y="183.0" width="188" height="1" fill="white" fill-opacity="0.2" /><rect x="714" y="130.0" width="188" height="1" fill="white" fill-opacity="0.2" /><rect x="714" y="77.0" width="188" height="1" fill="white" fill-opacity="0.2" /><rect x="714" y="24.0" width="188" height="1" fill="white" fill-opacity="0.5" /><text x="912" y="24.0" font-size="14" fill="white" font-family="monospace" dominant-baseline="initial">17</text><rect x="952" y="25.0" width="188" height="847.0" fill="black" /><rect x="952" y="871.0" width="188" height="1" fill="white" fill-opacity="0.5" /><text x="1150" y="871.0" font-size="14" fill="white" font-family="monospace" dominant-baseline="initial">17</text><rect x="952" y="818.0" width="188" height="1" fill="white" fill-opacity="0.2" /><rect x="952" y="765.0" width="188" height="1" fill="white" fill-opacity="0.2" /><rect x="952" y="712.0" width="188" height="1" fill="white" fill-opacity="0.2" /><rect x="952" y="659.0" width="188" height="1" fill="white" fill-opacity="0.5" /><text x="1150" y="659.0" font-size="14" fill="white" font-family="monospace" dominant-baseline="initial">18</text><rect x="952" y="606.5" width="188" height="1" fill="white" fill-opacity="0.2" /><rect x="952" y="553.5" width="188" height="1" fill="white" fill-opacity="0.2" /><rect x="952" y="500.5" width="188" height="1" fill="white" fill-opacity="0.2" /><rect x="952" y="447.5" width="188" height="1" fill="white" fill-opacity="0.5" /><text x="1150" y="447.5" font-size="14" fill="white" font-family="monospace" dominant-baseline="initial">19</text><rect x="952" y="394.5" width="188" height="1" fill="white" fill-opacity="0.2" /><rect x="952" y="341.5" width="188" height="1" fill="white" fill-opacity="0.2" /><rect x="952" y="288.5" width="188" height="1" fill="white" fill-opacity="0.2" /><rect x="952" y="235.5" width="188" height="1" fill="white" fill-opacity="0.5" /><text x="1150" y="235.5" font-size="14" fill="white" font-family="monospace" dominant-baseline="initial">20</text><rect x="952" y="183.0" width="188" height="1" fill="white" fill-opacity="0.2" /><rect x="952" y="130.0" width="188" height="1" fill="white" fill-opacity="0.2" /><rect x="952" y="77.0" width="188" height="1" fill="white" fill-opacity="0.2" /><rect x="952" y="24.0" width="188" height="1" fill="white" fill-opacity="0.5" /><text x="1150" y="24.0" font-size="14" fill="white" font-family="monospace" dominant-baseline="initial">21</text><rect x="952" y="447.4000000000001" width="188" height="1" fill="aqua" fill-opacity="0.75" /><text x="952" y="443.4000000000001" font-size="14" fill="aqua" fill-opacity="0.75" font-family="monospace">Special</text><rect x="1190" y="25.0" width="188" height="847.0" fill="black" /><rect x="1190" y="871.0" width="188" height="1" fill="white" fill-opacity="0.5" /><text x="1388" y="871.0" font-size="14" fill="white" font-family="monospace" dominant-baseline="initial">21</text><rect x="1190" y="818.0" width="188" height="1" fill="white" fill-opacity="0.2" /><rect x="1190" y="765.0" width="188" height="1" fill="white" fill-opacity="0.2" /><rect x="1190" y="712.0" width="188" height="1" fill="white" fill-opacity="0.2" /><rect x="1190" y="659.0" width="188" height="1" fill="white" fill-opacity="0.5" /><text x="1388" y="659.0" font-size="14" fill="white" font-family="monospace" dominant-baseline="initial">22</text><rect x="1190" y="606.0" width="188" height="1" fill="white" fill-opacity="0.2" /><rect x="1190" y="553.5" width="188" height="1" fill="white" fill-opacity="0.2" /><rect x="1190" y="500.5" width="188" height="1" fill="white" fill-opacity="0.2" /><rect x="1190" y="447.5" width="188" height="1" fill="white" fill-opacity="0.5" /><text x="1388" y="447.5" font-size="14" fill="white" font-family="monospace" dominant-baseline="initial">23</text><rect x="1190" y="394.5" width="188" height="1" fill="white" fill-opacity="0.2" /><rect x="1190" y="341.5" width="188" height="1" fill="white" fill-opacity="0.2" /><rect x="1190" y="288.5" width="188" height="1" fill="white" fill-opacity="0.2" /><rect x="1190" y="235.5" width="188" height="1" fill="white" fill-opacity="0.5" /><text x="1388" y="235.5" font-size="14" fill="white" font-family="monospace" dominant-baseline="initial">24</text><rect x="1190" y="182.5" width="188" height="1" fill="white" fill-opacity="0.2" /><rect x="1190" y="130.0" width="188" height="1" fill="white" fill-opacity="0.2" /><rect x="1190" y="77.0" width="188" height="1" fill="white" fill-opacity="0.2" /><rect x="1190" y="24.0" width="188" height="1" fill="white" fill-opacity="0.5" /><text x="1388" y="24.0" font-size="14" fill="white" font-family="monospace" dominant-baseline="initial">25</text><rect x="1428" y="25.0" width="188" height="847.0" fill="black" /><rect x="1428" y="871.0" width="188" height="1" fill="white" fill-opacity="0.5" /><text x="1626" y="871.0" font-size="14" fill="white" font-family="monospace" dominant-baseline="initial">25</text><rect x="1428" y="818.0" width="188" height="1" fill="white" fill-opacity="0.2" /><rect x="1428" y="765.0" width="188" height="1" fill="white" fill-opacity="0.2" /><rect x="1428" y="712.0" width="188" height="1" fill="white" fill-opacity="0.2" /><rect x="1428" y="659.0" width="188" height="1" fill="white" fill-opacity="0.5" /><text x="1626" y="659.0" font-size="14" fill="white" font-family="monospace" dominant-baseline="initial">26</text><rect x="1428" y="606.0" width="188" height="1" fill="white" fill-opacity="0.2" /><rect x="1428" y="553.0" width="188" height="1" fill="white" fill-opacity="0.2" /><rect x="1428" y="500.5" width="188" height="1" fill="white" fill-opacity="0.2" /><rect x="1428" y="447.5" width="188" height="1" fill="white" fill-opacity="0.5" /><text x="1626" y="447.5" font-size="14" fill="white" font-family="monospace" dominant-baseline="initial">27</text><rect x="1428" y="394.5" width="188" height="1" fill="white" fill-opacity="0.2" /><rect x="1428" y="341.5" width="188" height="1" fill="white" fill-opacity="0.2" /><rect x="1428" y="288.5" width="188" height="1" fill="white" fill-opacity="0.2" /><rect x="1428" y="235.5" width="188" height="1" fill="white" fill-opacity="0.5" /><text x="1626" y="235.5" font-size="14" fill="white" font-family="monospace" dominant-baseline="initial">28</text><rect x="1428" y="182.5" width="188" height="1" fill="white" fill-opacity="0.2" /><rect x="1428" y="129.5" width="188" height="1" fill="white" fill-opacity="0.2" /><rect x="1428" y="77.0" width="188" height="1" fill="white" fill-opacity="0.2" /><rect x="1428" y="24.0" width="188" height="1" fill="white" fill-opacity="0.5" /><text x="1626" y="24.0" font-size="14" fill="white" font-family="monospace" dominant-baseline="initial">29</text><rect x="1428" y="447.3000000000002" width="188" height="1" fill="aqua" fill-opacity="0.75" /><text x="1428" y="443.3000000000002" font-size="14" fill="aqua" fill-opacity="0.75" font-family="monospace">Phrase A</text><rect x="1666" y="25.0" width="188" height="847.0" fill="black" /><rect x="1666" y="871.0" width="188" height="1" fill="white" fill-opacity="0.5" /><text x="1864" y="871.0" font-size="14" fill="white" font-family="monospace" dominant-baseline="initial">29</text><rect x="1666" y="818.0" width="188" height="1" fill="white" fill-opacity="0.2" /><rect x="1666" y="765.0" width="188" height="1" fill="white" fill-opacity="0.2" /><rect x="1666" y="712.0" width="188" height="1" fill="white" fill-opacity="0.2" /><rect x="1666" y="659.0" width="188" height="1" fill="white" fill-opacity="0.5" /><text x="1864" y="659.0" font-size="14" fill="white" font-family="monospace" dominant-baseline="initial">30</text><rect x="1666" y="606.0" width="188" height="1" fill="white" fill-opacity="0.2" /><rect x="1666" y="553.0" width="188" height="1" fill="white" fill-opacity="0.2" /><rect x="1666" y="500.0" width="188" height="1" fill="white" fill-opacity="0.2" /><rect x="1666" y="447.5" width="188" height="1" fill="white" fill-opacity="0.5" /><text x="1864" y="447.5" font-size="14" fill="white" font-family="monospace" dominant-baseline="initial">31</text><rect x="1666" y="394.5" width="188" height="1" fill="white" fill-opacity="0.2" /><rect x="1666" y="341.5" width="188" height="1" fill="white" fill-opacity="0.2" /><rect x="1666" y="288.5" width="188" height="1" fill="white" fill-opacity="0.2" /><rect x="1666" y="235.5" width="188" height="1" fill="white" fill-opacity="0.5" /><text x="1864" y="235.5" font-size="14" fill="white" font-family="monospace" dominant-baseline="initial">32</text><rect x="1666" y="182.5" width="188" height="1" fill="white" fill-opacity="0.2" /><rect x="1666" y="129.5" width="188" height="1" fill="white" fill-opacity="0.2" /><rect x="1666" y="76.5" width="188" height="1" fill="white" fill-opacity="0.2" /><rect x="1666" y="24.0" width="188" height="1" fill="white" fill-opacity="0.5" /><text x="1864" y="24.0" font-size="14" fill="white" font-family="monospace" dominant-baseline="initial">33</text><rect x="1904" y="24.5" width="188" height="847.5" fill="black" /><rect x="1904" y="871.0" width="188" height="1" fill="white" fill-opacity="0.5" /><text x="2102" y="871.0" font-size="14" fill="white" font-family="monospace" dominant-baseline="initial">33</text><rect x="1904" y="818.0" width="188" height="1" fill="white" fill-opacity="0.2" /><rect x="1904" y="765.0" width="188" height="1" fill="white" fill-opacity="0.2" /><rect x="1904" y="712.0" width="188" height="1" fill="white" fill-opacity="0.2" /><rect x="1904" y="659.0" width="188" height="1" fill="white" fill-opacity="0.5" /><text x="2102" y="659.0" font-size="14" fill="white" font-family="monospace" dominant-baseline="initial">34</text><rect x="1904" y="606.0" width="188" height="1" fill="white" fill-opacity="0.2" /><rect x="1904" y="553.0" width="188" height="1" fill="white" fill-opacity="0.2" /><rect x="1904" y="500.0" width="188" height="1" fill="white" fill-opacity="0.2" /><rect x="1904" y="447.0" width="188" height="1" fill="white" fill-opacity="0.5" /><text x="2102" y="447.0" font-size="14" fill="white" font-family="monospace" dominant-baseline="initial">35</text><rect x="1904" y="394.5" width="188" height="1" fill="white" fill-opacity="0.2" /><rect x="1904" y="341.5" width="188" height="1" fill="white" fill-opacity="0.2" /><rect x="1904" y="288.5" width="188" height="1" fill="white" fill-opacity="0.2" /><rect x="1904" y="235.5" width="188" height="1" fill="white" fill-opacity="0.5" /><text x="2102" y="235.5" font-size="14" fill="white" font-family="monospace" dominant-baseline="initial">36</text><rect x="1904" y="182.5" width="188" height="1" fill="white" fill-opacity="0.2" /><rect x="1904" y="129.5" width="188" height="1" fill="white" fill-opacity="0.2" /><rect x="1904" y="76.5" width="188" height="1" fill="white" fill-opacity="0.2" /><rect x="1904" y="23.5" width="188" height="1" fill="white" fill-opacity="0.5" /><text x="2102" y="23.5" font-size="14" fill="white" font-family="monospace" dominant-baseline="initial">37</text><rect x="2142" y="25.0" width="188" height="847.0" fill="black" /><rect x="2142" y="871.0" width="188" height="1" fill="white" fill-opacity="0.5" /><text x="2340" y="871.0" font-size="14" fill="white" font-family="monospace" dominant-baseline="initial">37</text><rect x="2142" y="818.5" width="188" height="1" fill="white" fill-opacity="0.2" /><rect x="2142" y="765.5" width="188" height="1" fill="white" fill-opacity="0.2" /><rect x="2142" y="712.5" width="188" height="1" fill="white" fill-opacity="0.2" /><rect x="2142" y="659.5" width="188" height="1" fill="white" fill-opacity="0.5" /><text x="2340" y="659.5" font-size="14" fill="white" font-family="monospace" dominant-baseline="initial">38</text><rect x="2142" y="606.5" width="188" height="1" fill="white" fill-opacity="0.2" /><rect x="2142" y="553.5" width="188" height="1" fill="white" fill-opacity="0.2" /><rect x="2142" y="500.5" width="188" height="1" fill="white" fill-opacity="0.2" /><rect x="2142" y="447.5" width="188" height="1" fill="white" fill-opacity="0.5" /><text x="2340" y="447.5" font-size="14" fill="white" font-family="monospace" dominant-baseline="initial">39</text><rect x="2142" y="394.5" width="188" height="1" fill="white" fill-opacity="0.2" /><rect x="2142" y="342.0" width="188" height="1" fill="white" fill-opacity="0.2" /><rect x="2142" y="289.0" width="188" height="1" fill="white" fill-opacity="0.2" /><rect x="2142" y="236.0" width="188" height="1" fill="white" fill-opacity="0.5" /><text x="2340" y="236.0" font-size="14" fill="white" font-family="monospace" dominant-baseline="initial">40</text><rect x="2142" y="183.0" width="188" height="1" fill="white" fill-opacity="0.2" /><rect x="2142" y="130.0" width="188" height="1" fill="white" fill-opacity="0.2" /><rect x="2142" y="77.0" width="188" height="1" fill="white" fill-opacity="0.2" /><rect x="2142" y="24.0" width="188" height="1" fill="white" fill-opacity="0.5" /><text x="2340" y="24.0" font-size="14" fill="white" font-family="monospace" dominant-baseline="initial">41</text><rect x="2380" y="25.0" width="188" height="847.0" fill="black" /><rect x="2380" y="871.0" width="188" height="1" fill="white" fill-opacity="0.5" /><text x="2578" y="871.0" font-size="14" fill="white" font-family="monospace" dominant-baseline="initial">41</text><rect x="2380" y="818.0" width="188" height="1" fill="white" fill-opacity="0.2" /><rect x="2380" y="765.5" width="188" height="1" fill="white" fill-opacity="0.2" /><rect x="2380" y="712.5" width="188" height="1" fill="white" fill-opacity="0.2" /><rect x="2380" y="659.5" width="188" height="1" fill="white" fill-opacity="0.5" /><text x="2578" y="659.5" font-size="14" fill="white" font-family="monospace" dominant-baseline="initial">42</text><rect x="2380" y="606.5" width="188" height="1" fill="white" fill-opacity="0.2" /><rect x="2380" y="553.5" width="188" height="1" fill="white" fill-opacity="0.2" /><rect x="2380" y="500.5" width="188" height="1" fill="white" fill-opacity="0.2" /><rect x="2380" y="447.5" width="188" height="1" fill="white" fill-opacity="0.5" /><text x="2578" y="447.5" font-size="14" fill="white" font-family="monospace" dominant-baseline="initial">43</text><rect x="2380" y="394.5" width="188" height="1" fill="white" fill-opacity="0.2" /><rect x="2380" y="341.5" width="188" height="1" fill="white" fill-opacity="0.2" /><rect x="2380" y="289.0" width="188" height="1" fill="white" fill-opacity="0.2" /><rect x="2380" y="236.0" width="188" height="1" fill="white" fill-opacity="0.5" /><text x="2578" y="236.0" font-size="14" fill="white" font-family="monospace" dominant-baseline="initial">44</text><rect x="2380" y="183.0" width="188" height="1" fill="white" fill-opacity="0.2" /><rect x="2380" y="130.0" width="188" height="1" fill="white" fill-opacity="0.2" /><rect x="2380" y="77.0" width="188" height="1" fill="white" fill-opacity="0.2" /><rect x="2380" y="24.0" width="188" height="1" fill="white" fill-opacity="0.5" /><text x="2578" y="24.0" font-size="14" fill="white" font-family="monospace" dominant-baseline="initial">45</text><rect x="2380" y="871.2000000000007" width="188" height="1" fill="aqua" fill-opacity="0.75" /><text x="2380" y="867.2000000000007" font-size="14" fill="aqua" fill-opacity="0.75" font-family="monospace">Phrase B</text><rect x="2618" y="25.0" width="188" height="847.0" fill="black" /><rect x="2618" y="871.0" width="188" height="1" fill="white" fill-opacity="0.5" /><text x="2816" y="871.0" font-size="14" fill="white" font-family="monospace" dominant-baseline="initial">45</text><rect x="2618" y="818.0" width="188" height="1" fill="white" fill-opacity="0.2" /><rect x="2618" y="765.0" width="188" height="1" fill="white" fill-opacity="0.2" /><rect x="2618" y="712.5" width="188" height="1" fill="white" fill-opacity="0.2" /><rect x="2618" y="659.5" width="188" height="1" fill="white" fill-opacity="0.5" /><text x="2816" y="659.5" font-size="14" fill="white" font-family="monospace" dominant-baseline="initial">46</text><rect x="2618" y="606.5" width="188" height="1" fill="white" fill-opacity="0.2" /><rect x="2618" y="553.5" width="188" height="1" fill="white" fill-opacity="0.2" /><rect x="2618" y="500.5" width="188" height="1" fill="white" fill-opacity="0.2" /><rect x="2618" y="447.5" width="188" height="1" fill="white" fill-opacity="0.5" /><text x="2816" y="447.5" font-size="14" fill="white" font-family="monospace" dominant-baseline="initial">47</text><rect x="2618" y="394.5" width="188" height="1" fill="white" fill-opacity="0.2" /><rect x="2618" y="341.5" width="188" height="1" fill="white" fill-opacity="0.2" /><rect x="2618" y="288.5" width="188" height="1" fill="white" fill-opacity="0.2" /><rect x="2618" y="236.0" width="188" height="1" fill="white" fill-opacity="0.5" /><text x="2816" y="236.0" font-size="14" fill="white" font-family="monospace" dominant-baseline="initial">48</text><rect x="2618" y="183.0" width="188" height="1" fill="white" fill-opacity="0.2" /><rect x="2618" y="130.0" width="188" height="1" fill="white" fill-opacity="0.2" /><rect x="2618" y="77.0" width="188" height="1" fill="white" fill-opacity="0.2" /><rect x="2618" y="24.0" width="188" height="1" fill="white" fill-opacity="0.5" /><text x="2816" y="24.0" font-size="14" fill="white" font-family="monospace" dominant-baseline="initial">49</text><rect x="2856" y="25.0" width="188" height="847.0" fill="black" /><rect x="2856" y="871.0" width="188" height="1" fill="white" fill-opacity="0.5" /><text x="3054" y="871.0" font-size="14" fill="white" font-family="monospace" dominant-baseline="initial">49</text><rect x="2856" y="818.0" width="188" height="1" fill="white" fill-opacity="0.2" /><rect x="2856" y="765.0" width="188" height="1" fill="white" fill-opacity="0.2" /><rect x="2856" y="712.0" width="188" height="1" fill="white" fill-opacity="0.2" /><rect x="2856" y="659.5" width="188" height="1" fill="white" fill-opacity="0.5" /><text x="3054" y="659.5" font-size="14" fill="white" font-family="monospace" dominant-baseline="initial">50</text><rect x="2856" y="606.5" width="188" height="1" fill="white" fill-opacity="0.2" /><rect x="2856" y="553.5" width="188" height="1" fill="white" fill-opacity="0.2" /><rect x="2856" y="500.5" width="188" height="1" fill="white" fill-opacity="0.2" /><rect x="2856" y="447.5" width="188" height="1" fill="white" fill-opacity="0.5" /><text x="3054" y="447.5" font-size="14" fill="white" font-family="monospace" dominant-baseline="initial">51</text><rect x="2856" y="394.5" width="188" height="1" fill="white" fill-opacity="0.2" /><rect x="2856" y="341.5" width="188" height="1" fill="white" fill-opacity="0.2" /><rect x="2856" y="288.5" width="188" height="1" fill="white" fill-opacity="0.2" /><rect x="2856" y="235.5" width="188" height="1" fill="white" fill-opacity="0.5" /><text x="3054" y="235.5" font-size="14" fill="white" font-family="monospace" dominant-baseline="initial">52</text><rect x="2856" y="183.0" width="188" height="1" fill="white" fill-opacity="0.2" /><rect x="2856" y="130.0" width="188" height="1" fill="white" fill-opacity="0.2" /><rect x="2856" y="77.0" width="188" height="1" fill="white" fill-opacity="0.2" /><rect x="2856" y="24.0" width="188" height="1" fill="white" fill-opacity="0.5" /><text x="3054" y="24.0" font-size="14" fill="white" font-family="monospace" dominant-baseline="initial">53</text><rect x="2856" y="447.5" width="188" height="1" fill="aqua" fill-opacity="0.75" /><text x="2856" y="443.5" font-size="14" fill="aqua" fill-opacity="0.75" font-family="monospace">Special</text><rect x="3094" y="25.0" width="188" height="847.0" fill="black" /><rect x="3094" y="871.0" width="188" height="1" fill="white" fill-opacity="0.5" /><text x="3292" y="871.0" font-size="14" fill="white" font-family="monospace" dominant-baseline="initial">53</text><rect x="3094" y="818.0" width="188" height="1" fill="white" fill-opacity="0.2" /><rect x="3094" y="765.0" width="188" height="1" fill="white" fill-opacity="0.2" /><rect x="3094" y="712.0" width="188" height="1" fill="white" fill-opacity="0.2" /><rect x="3094" y="659.0" width="188" height="1" fill="white" fill-opacity="0.5" /><text x="3292" y="659.0" font-size="14" fill="white" font-family="monospace" dominant-baseline="initial">54</text><rect x="3094" y="606.5" width="188" height="1" fill="white" fill-opacity="0.2" /><rect x="3094" y="553.5" width="188" height="1" fill="white" fill-opacity="0.2" /><rect x="3094" y="500.5" width="188" height="1" fill="white" fill-opacity="0.2" /><rect x="3094" y="447.5" width="188" height="1" fill="white" fill-opacity="0.5" /><text x="3292" y="447.5" font-size="14" fill="white" font-family="monospace" dominant-baseline="initial">55</text><rect x="3094" y="394.5" width="188" height="1" fill="white" fill-opacity="0.2" /><rect x="3094" y="341.5" width="188" height="1" fill="white" fill-opacity="0.2" /><rect x="3094" y="288.5" width="188" height="1" fill="white" fill-opacity="0.2" /><rect x="3094" y="235.5" width="188" height="1" fill="white" fill-opacity="0.5" /><text x="3292" y="235.5" font-size="14" fill="white" font-family="monospace" dominant-baseline="initial">56</text><rect x="3094" y="182.5" width="188" height="1" fill="white" fill-opacity="0.2" /><rect x="3094" y="130.0" width="188" height="1" fill="white" fill-opacity="0.2" /><rect x="3094" y="77.0" width="188" height="1" fill="white" fill-opacity="0.2" /><rect x="3094" y="24.0" width="188" height="1" fill="white" fill-opacity="0.5" /><text x="3292" y="24.0" font-size="14" fill="white" font-family="monospace" dominant-baseline="initial">57</text><rect x="3332" y="25.0" width="188" height="847.0" fill="black" /><rect x="3332" y="871.0" width="188" height="1" fill="white" fill-opacity="0.5" /><text x="3530" y="871.0" font-size="14" fill="white" font-family="monospace" dominant-baseline="initial">57</text><rect x="3332" y="818.0" width="188" height="1" fill="white" fill-opacity="0.2" /><rect x="3332" y="765.0" width="188" height="1" fill="white" fill-opacity="0.2" /><rect x="3332" y="712.0" width="188" height="1" fill="white" fill-opacity="0.2" /><rect x="3332" y="659.0" width="188" height="1" fill="white" fill-opacity="0.5" /><text x="3530" y="659.0" font-size="14" fill="white" font-family="monospace" dominant-baseline="initial">58</text><rect x="3332" y="606.0" width="188" height="1" fill="white" fill-opacity="0.2" /><rect x="3332" y="553.5" width="188" height="1" fill="white" fill-opacity="0.2" /><rect x="3332" y="500.5" width="188" height="1" fill="white" fill-opacity="0.2" /><rect x="3332" y="447.5" width="188" height="1" fill="white" fill-opacity="0.5" /><text x="3530" y="447.5" font-size="14" fill="white" font-family="monospace" dominant-baseline="initial">59</text><rect x="3332" y="394.5" width="188" height="1" fill="white" fill-opacity="0.2" /><rect x="3332" y="341.5" width="188" height="1" fill="white" fill-opacity="0.2" /><rect x="3332" y="288.5" width="188" height="1" fill="white" fill-opacity="0.2" /><rect x="3332" y="235.5" width="188" height="1" fill="white" fill-opacity="0.5" /><text x="3530" y="235.5" font-size="14" fill="white" font-family="monospace" dominant-baseline="initial">60</text><rect x="3332" y="182.5" width="188" height="1" fill="white" fill-opacity="0.2" /><rect x="3332" y="129.5" width="188" height="1" fill="white" fill-opacity="0.2" /><rect x="3332" y="77.0" width="188" height="1" fill="white" fill-opacity="0.2" /><rect x="3332" y="24.0" width="188" height="1" fill="white" fill-opacity="0.5" /><text x="3530" y="24.0" font-size="14" fill="white" font-family="monospace" dominant-baseline="initial">61</text><rect x="3570" y="25.0" width="188" height="847.0" fill="black" /><rect x="3570" y="871.0" width="188" height="1" fill="white" fill-opacity="0.5" /><text x="3768" y="871.0" font-size="14" fill="white" font-family="monospace" dominant-baseline="initial">61</text><rect x="3570" y="818.0" width="188" height="1" fill="white" fill-opacity="0.2" /><rect x="3570" y="765.0" width="188" height="1" fill="white" fill-opacity="0.2" /><rect x="3570" y="712.0" width="188" height="1" fill="white" fill-opacity="0.2" /><rect x="3570" y="659.0" width="188" height="1" fill="white" fill-opacity="0.5" /><text x="3768" y="659.0" font-size="14" fill="white" font-family="monospace" dominant-baseline="initial">62</text><rect x="3570" y="606.0" width="188" height="1" fill="white" fill-opacity="0.2" /><rect x="3570" y="553.0" width="188" height="1" fill="white" fill-opacity="0.2" /><rect x="3570" y="500.5" width="188" height="1" fill="white" fill-opacity="0.2" /><rect x="3570" y="447.5" width="188" height="1" fill="white" fill-opacity="0.5" /><text x="3768" y="447.5" font-size="14" fill="white" font-family="monospace" dominant-baseline="initial">63</text><rect x="3570" y="394.5" width="188" height="1" fill="white" fill-opacity="0.2" /><rect x="3570" y="341.5" width="188" height="1" fill="white" fill-opacity="0.2" /><rect x="3570" y="288.5" width="188" height="1" fill="white" fill-opacity="0.2" /><rect x="3570" y="235.5" width="188" height="1" fill="white" fill-opacity="0.5" /><text x="3768" y="235.5" font-size="14" fill="white" font-family="monospace" dominant-baseline="initial">64</text><rect x="3570" y="182.5" width="188" height="1" fill="white" fill-opacity="0.2" /><rect x="3570" y="129.5" width="188" height="1" fill="white" fill-opacity="0.2" /><rect x="3570" y="76.5" width="188" height="1" fill="white" fill-opacity="0.2" /><rect x="3570" y="24.0" width="188" height="1" fill="white" fill-opacity="0.5" /><text x="3768" y="24.0" font-size="14" fill="white" font-family="monospace" dominant-baseline="initial">65</text><rect x="3808" y="24.5" width="188" height="847.5" fill="black" /><rect x="3808" y="871.0" width="188" height="1" fill="white" fill-opacity="0.5" /><text x="4006" y="871.0" font-size="14" fill="white" font-family="monospace" dominant-baseline="initial">65</text><rect x="3808" y="818.0" width="188" height="1" fill="white" fill-opacity="0.2" /><rect x="3808" y="765.0" width="188" height="1" fill="white" fill-opacity="0.2" /><rect x="3808" y="712.0" width="188" height="1" fill="white" fill-opacity="0.2" /><rect x="3808" y="659.0" width="188" height="1" fill="white" fill-opacity="0.5" /><text x="4006" y="659.0" font-size="14" fill="white" font-family="monospace" dominant-baseline="initial">66</text><rect x="3808" y="606.0" width="188" height="1" fill="white" fill-opacity="0.2" /><rect x="3808" y="553.0" width="188" height="1" fill="white" fill-opacity="0.2" /><rect x="3808" y="500.0" width="188" height="1" fill="white" fill-opacity="0.2" /><rect x="3808" y="447.5" width="188" height="1" fill="white" fill-opacity="0.5" /><text x="4006" y="447.5" font-size="14" fill="white" font-family="monospace" dominant-baseline="initial">67</text><rect x="3808" y="394.5" width="188" height="1" fill="white" fill-opacity="0.2" /><rect x="3808" y="341.5" width="188" height="1" fill="white" fill-opacity="0.2" /><rect x="3808" y="288.5" width="188" height="1" fill="white" fill-opacity="0.2" /><rect x="3808" y="235.5" width="188" height="1" fill="white" fill-opacity="0.5" /><text x="4006" y="235.5" font-size="14" fill="white" font-family="monospace" dominant-baseline="initial">68</text><rect x="3808" y="182.5" width="188" height="1" fill="white" fill-opacity="0.2" /><rect x="3808" y="129.5" width="188" height="1" fill="white" fill-opacity="0.2" /><rect x="3808" y="76.5" width="188" height="1" fill="white" fill-opacity="0.2" /><rect x="3808" y="23.5" width="188" height="1" fill="white" fill-opacity="0.5" /><text x="4006" y="23.5" font-size="14" fill="white" font-family="monospace" dominant-baseline="initial">69</text><rect x="3808" y="447.3000000000011" width="188" height="1" fill="aqua" fill-opacity="0.75" /><text x="3808" y="443.3000000000011" font-size="14" fill="aqua" fill-opacity="0.75" font-family="monospace">Phrase C</text><rect x="4046" y="25.0" width="188" height="847.0" fill="black" /><rect x="4046" y="871.0" width="188" height="1" fill="white" fill-opacity="0.5" /><text x="4244" y="871.0" font-size="14" fill="white" font-family="monospace" dominant-baseline="initial">69</text><rect x="4046" y="818.5" width="188" height="1" fill="white" fill-opacity="0.2" /><rect x="4046" y="765.5" width="188" height="1" fill="white" fill-opacity="0.2" /><rect x="4046" y="712.5" width="188" height="1" fill="white" fill-opacity="0.2" /><rect x="4046" y="659.5" width="188" height="1" fill="white" fill-opacity="0.5" /><text x="4244" y="659.5" font-size="14" fill="white" font-family="monospace" dominant-baseline="initial">70</text><rect x="4046" y="606.5" width="188" height="1" fill="white" fill-opacity="0.2" /><rect x="4046" y="553.5" width="188" height="1" fill="white" fill-opacity="0.2" /><rect x="4046" y="500.5" width="188" height="1" fill="white" fill-opacity="0.2" /><rect x="4046" y="447.5" width="188" height="1" fill="white" fill-opacity="0.5" /><text x="4244" y="447.5" font-size="14" fill="white" font-family="monospace" dominant-baseline="initial">71</text><rect x="4046" y="395.0" width="188" height="1" fill="white" fill-opacity="0.2" /><rect x="4046" y="342.0" width="188" height="1" fill="white" fill-opacity="0.2" /><rect x="4046" y="289.0" width="188" height="1" fill="white" fill-opacity="0.2" /><rect x="4046" y="236.0" width="188" height="1" fill="white" fill-opacity="0.5" /><text x="4244" y="236.0" font-size="14" fill="white" font-family="monospace" dominant-baseline="initial">72</text><rect x="4046" y="183.0" width="188" height="1" fill="white" fill-opacity="0.2" /><rect x="4046" y="130.0" width="188" height="1" fill="white" fill-opacity="0.2" /><rect x="4046" y="77.0" width="188" height="1" fill="white" fill-opacity="0.2" /><rect x="4046" y="24.0" width="188" height="1" fill="white" fill-opacity="0.5" /><text x="4244" y="24.0" font-size="14" fill="white" font-family="monospace" dominant-baseline="initial">73</text><rect x="4284" y="25.0" width="188" height="847.0" fill="black" /><rect x="4284" y="871.0" width="188" height="1" fill="white" fill-opacity="0.5" /><text x="4482" y="871.0" font-size="14" fill="white" font-family="monospace" dominant-baseline="initial">73</text><rect x="4284" y="818.0" width="188" height="1" fill="white" fill-opacity="0.2" /><rect x="4284" y="765.5" width="188" height="1" fill="white" fill-opacity="0.2" /><rect x="4284" y="712.5" width="188" height="1" fill="white" fill-opacity="0.2" /><rect x="4284" y="659.5" width="188" height="1" fill="white" fill-opacity="0.5" /><text x="4482" y="659.5" font-size="14" fill="white" font-family="monospace" dominant-baseline="initial">74</text><rect x="4284" y="606.5" width="188" height="1" fill="white" fill-opacity="0.2" /><rect x="4284" y="553.5" width="188" height="1" fill="white" fill-opacity="0.2" /><rect x="4284" y="500.5" width="188" height="1" fill="white" fill-opacity="0.2" /><rect x="4284" y="447.5" width="188" height="1" fill="white" fill-opacity="0.5" /><text x="4482" y="447.5" font-size="14" fill="white" font-family="monospace" dominant-baseline="initial">75</text><rect x="4284" y="394.5" width="188" height="1" fill="white" fill-opacity="0.2" /><rect x="4284" y="342.0" width="188" height="1" fill="white" fill-opacity="0.2" /><rect x="4284" y="289.0" width="188" height="1" fill="white" fill-opacity="0.2" /><rect x="4284" y="236.0" width="188" height="1" fill="white" fill-opacity="0.5" /><text x="4482" y="236.0" font-size="14" fill="white" font-family="monospace" dominant-baseline="initial">76</text><rect x="4284" y="183.0" width="188" height="1" fill="white" fill-opacity="0.2" /><rect x="4284" y="130.0" width="188" height="1" fill="white" fill-opacity="0.2" /><rect x="4284" y="77.0" width="188" height="1" fill="white" fill-opacity="0.2" /><rect x="4284" y="24.0" width="188" height="1" fill="white" fill-opacity="0.5" /><text x="4482" y="24.0" font-size="14" fill="white" font-family="monospace" dominant-baseline="initial">77</text><rect x="4522" y="625.5" width="188" height="246.5" fill="black" /><rect x="4522" y="871.0" width="188" height="1" fill="white" fill-opacity="0.5" /><text x="4720" y="871.0" font-size="14" fill="white" font-family="monospace" dominant-baseline="initial">77</text></svg>