<?xml version="1.0" encoding="UTF-8"?><svg xmlns="http://www.w3.org/2000/svg" xmlns:xlink="http://www.w3.org/1999/xlink"     width="5236" height="1682.0" viewBox="0 0 5236 1682.0"><defs></defs><rect x="0" y="903.5" width="188" height="778.5" fill="black" /><rect x="0" y="1681.0" width="188" height="1" fill="white" fill-opacity="0.5" /><text x="198" y="1681.0" font-size="14" fill="white" font-family="monospace" dominant-baseline="initial">1</text><rect x="0" y="1632.5" width="188" height="1" fill="white" fill-opacity="0.2" /><rect x="0" y="1583.5" width="188" height="1" fill="white" fill-opacity="0.2" /><rect x="0" y="1535.0" width="188" height="1" fill="white" fill-opacity="0.2" /><rect x="0" y="1486.5" width="188" height="1" fill="white" fill-opacity="0.5" /><text x="198" y="1486.5" font-size="14" fill="white" font-family="monospace" dominant-baseline="initial">2</text><rect x="0" y="1438.0" width="188" height="1" fill="white" fill-opacity="0.2" /><rect x="0" y="1389.0" width="188" height="1" fill="white" fill-opacity="0.2" /><rect x="0" y="1340.5" width="188" height="1" fill="white" fill-opacity="0.2" /><rect x="0" y="1292.0" width="188" height="1" fill="white" fill-opacity="0.5" /><text x="198" y="1292.0" font-size="14" fill="white" font-family="monospace" dominant-baseline="initial">3</text><rect x="0" y="1243.0" width="188" height="1" fill="white" fill-opacity="0.2" /><rect x="0" y="1194.5" width="188" height="1" fill="white" fill-opacity="0.2" /><rect x="0" y="1146.0" width="188" height="1" fill="white" fill-opacity="0.2" /><rect x="0" y="1097.0" width="188" height="1" fill="white" fill-opacity="0.5" /><text x="198" y="1097.0" font-size="14" fill="white" font-family="monospace" dominant-baseline="initial">4</text><rect x="0" y="1048.5" width="188" height="1" fill="white" fill-opacity="0.2" /><rect x="0" y="1000.0" width="188" height="1" fill="white" fill-opacity="0.2" /><rect x="0" y="951.5" width="188" height="1" fill="white" fill-opacity="0.2" /><rect x="0" y="902.5" width="188" height="1" fill="white" fill-opacity="0.5" /><text x="198" y="902.5" font-size="14" fill="white" font-family="monospace" dominant-baseline="initial">5</text><rect x="0" y="1681.0" width="188" height="1" fill="aqua" fill-opacity="0.75" /><text x="0" y="1677.0" font-size="14" fill="aqua" fill-opacity="0.75" font-family="monospace">Intro</text><rect x="0" y="1681.0" width="188" height="1" fill="lime" fill-opacity="0.75" /><text x="198" y="1668.0" font-size="14" fill="lime" font-family="monospace" dominant-baseline="initial">185</text><rect x="238" y="903.5" width="188" height="778.5" fill="black" /><rect x="238" y="1681.0" width="188" height="1" fill="white" fill-opacity="0.5" /><text x="436" y="1681.0" font-size="14" fill="white" font-family="monospace" dominant-baseline="initial">5</text><rect x="238" y="1632.5" width="188" height="1" fill="white" fill-opacity="0.2" /><rect x="238" y="1584.0" width="188" height="1" fill="white" fill-opacity="0.2" /><rect x="238" y="1535.0" width="188" height="1" fill="white" fill-opacity="0.2" /><rect x="238" y="1486.5" width="188" height="1" fill="white" fill-opacity="0.5" /><text x="436" y="1486.5" font-size="14" fill="white" font-family="monospace" dominant-baseline="initial">6</text><rect x="238" y="1438.0" width="188" height="1" fill="white" fill-opacity="0.2" /><rect x="238" y="1389.0" width="188" height="1" fill="white" fill-opacity="0.2" /><rect x="238" y="1340.5" width="188" height="1" fill="white" fill-opacity="0.2" /><rect x="238" y="1292.0" width="188" height="1" fill="white" fill-opacity="0.5" /><text x="436" y="1292.0" font-size="14" fill="white" font-family="monospace" dominant-baseline="initial">7</text><rect x="238" y="1243.5" width="188" height="1" fill="white" fill-opacity="0.2" /><rect x="238" y="1194.5" width="188" height="1" fill="white" fill-opacity="0.2" /><rect x="238" y="1146.0" width="188" height="1" fill="white" fill-opacity="0.2" /><rect x="238" y="1097.5" width="188" height="1" fill="white" fill-opacity="0.5" /><text x="436" y="1097.5" font-size="14" fill="white" font-family="monospace" dominant-baseline="initial">8</text><rect x="238" y="1048.5" width="188" height="1" fill="white" fill-opacity="0.2" /><rect x="238" y="1000.0" width="188" height="1" fill="white" fill-opacity="0.2" /><rect x="238" y="951.5" width="188" height="1" fill="white" fill-opacity="0.2" /><rect x="238" y="902.5" width="188" height="1" fill="white" fill-opacity="0.5" /><text x="436" y="902.5" font-size="14" fill="white" font-family="monospace" dominant-baseline="initial">9</text><rect x="476" y="904.0" width="188" height="778.0" fill="black" /><rect x="476" y="1681.0" width="188" height="1" fill="white" fill-opacity="0.5" /><text x="674" y="1681.0" font-size="14" fill="white" font-family="monospace" dominant-baseline="initial">9</text><rect x="476" y="1632.5" width="188" height="1" fill="white" fill-opacity="0.2" /><rect x="476" y="1584.0" width="188" height="1" fill="white" fill-opacity="0.2" /><rect x="476" y="1535.5" width="188" height="1" fill="white" fill-opacity="0.2" /><rect x="476" y="1486.5" width="188" height="1" fill="white" fill-opacity="0.5" /><text x="674" y="1486.5" font-size="14" fill="white" font-family="monospace" dominant-baseline="initial">10</text><rect x="476" y="1438.0" width="188" height="1" fill="white" fill-opacity="0.2" /><rect x="476" y="1389.5" width="188" height="1" fill="white" fill-opacity="0.2" /><rect x="476" y="1340.5" width="188" height="1" fill="white" fill-opacity="0.2" /><rect x="476" y="1292.0" width="188" height="1" fill="white" fill-opacity="0.5" /><text x="674" y="1292.0" font-size="14" fill="white" font-family="monospace" dominant-baseline="initial">11</text><rect x="476" y="1243.5" width="188" height="1" fill="white" fill-opacity="0.2" /><rect x="476" y="1195.0" width="188" height="1" fill="white" fill-opacity="0.2" /><rect x="476" y="1146.0" width="188" height="1" fill="white" fill-opacity="0.2" /><rect x="476" y="1097.5" width="188" height="1" fill="white" fill-opacity="0.5" /><text x="674" y="1097.5" font-size="14" fill="white" font-family="monospace" dominant-baseline="initial">12</text><rect x="476" y="1049.0" width="188" height="1" fill="white" fill-opacity="0.2" /><rect x="476" y="1000.0" width="188" height="1" fill="white" fill-opacity="0.2" /><rect x="476" y="951.5" width="188" height="1" fill="white" fill-opacity="0.2" /><rect x="476" y="903.0" width="188" height="1" fill="white" fill-opacity="0.5" /><text x="674" y="903.0" font-size="14" fill="white" font-family="monospace" dominant-baseline="initial">13</text><rect x="714" y="903.5" width="188" height="778.5" fill="black" /><rect x="714" y="1681.0" width="188" height="1" fill="white" fill-opacity="0.5" /><text x="912" y="1681.0" font-size="14" fill="white" font-family="monospace" dominant-baseline="initial">13</text><rect x="714" y="1632.0" width="188" height="1" fill="white" fill-opacity="0.2" /><rect x="714" y="1583.5" width="188" height="1" fill="white" fill-opacity="0.2" /><rect x="714" y="1535.0" width="188" height="1" fill="white" fill-opacity="0.2" /><rect x="714" y="1486.5" width="188" height="1" fill="white" fill-opacity="0.5" /><text x="912" y="1486.5" font-size="14" fill="white" font-family="monospace" dominant-baseline="initial">14</text><rect x="714" y="1437.5" width="188" height="1" fill="white" fill-opacity="0.2" /><rect x="714" y="1389.0" width="188" height="1" fill="white" fill-opacity="0.2" /><rect x="714" y="1340.5" width="188" height="1" fill="white" fill-opacity="0.2" /><rect x="714" y="1291.5" width="188" height="1" fill="white" fill-opacity="0.5" /><text x="912" y="1291.5" font-size="14" fill="white" font-family="monospace" dominant-baseline="initial">15</text><rect x="714" y="1243.0" width="188" height="1" fill="white" fill-opacity="0.2" /><rect x="714" y="1194.5" width="188" height="1" fill="white" fill-opacity="0.2" /><rect x="714" y="1145.5" width="188" height="1" fill="white" fill-opacity="0.2" /><rect x="714" y="1097.0" width="188" height="1" fill="white" fill-opacity="0.5" /><text x="912" y="1097.0" font-size="14" fill="white" font-family="monospace" dominant-baseline="initial">16</text><rect x="714" y="1048.5" width="188" height="1" fill="white" fill-opacity="0.2" /><rect x="714" y="1000.0" width="188" height="1" fill="white" fill-opacity="0.2" /><rect x="714" y="951.0" width="188" height="1" fill="white" fill-opacity="0.2" /><rect x="714" y="902.5" width="188" height="1" fill="white" fill-opacity="0.5" /><text x="912" y="902.5" font-size="14" fill="white" font-family="monospace" dominant-baseline="initial">17</text><rect x="952" y="903.5" width="188" height="778.5" fill="black" /><rect x="952" y="1681.0" width="188" height="1" fill="white" fill-opacity="0.5" /><text x="1150" y="1681.0" font-size="14" fill="white" font-family="monospace" dominant-baseline="initial">17</text><rect x="952" y="1632.5" width="188" height="1" fill="white" fill-opacity="0.2" /><rect x="952" y="1583.5" width="188" height="1" fill="white" fill-opacity="0.2" /><rect x="952" y="1535.0" width="188" height="1" fill="white" fill-opacity="0.2" /><rect x="952" y="1486.5" width="188" height="1" fill="white" fill-opacity="0.5" /><text x="1150" y="1486.5" font-size="14" fill="white" font-family="monospace" dominant-baseline="initial">18</text><rect x="952" y="1437.5" width="188" height="1" fill="white" fill-opacity="0.2" /><rect x="952" y="1389.0" width="188" height="1" fill="white" fill-opacity="0.2" /><rect x="952" y="1340.5" width="188" height="1" fill="white" fill-opacity="0.2" /><rect x="952" y="1292.0" width="188" height="1" fill="white" fill-opacity="0.5" /><text x="1150" y="1292.0" font-size="14" fill="white" font-family="monospace" dominant-baseline="initial">19</text><rect x="952" y="1243.0" width="188" height="1" fill="white" fill-opacity="0.2" /><rect x="952" y="1194.5" width="188" height="1" fill="white" fill-opacity="0.2" /><rect x="952" y="1146.0" width="188" height="1" fill="white" fill-opacity="0.2" /><rect x="952" y="1097.0" width="188" height="1" fill="white" fill-opacity="0.5" /><text x="1150" y="1097.0" font-size="14" fill="white" font-family="monospace" dominant-baseline="initial">20</text><rect x="952" y="1048.5" width="188" height="1" fill="white" fill-opacity="0.2" /><rect x="952" y="1000.0" width="188" height="1" fill="white" fill-opacity="0.2" /><rect x="952" y="951.5" width="188" height="1" fill="white" fill-opacity="0.2" /><rect x="952" y="902.5" width="188" height="1" fill="white" fill-opacity="0.5" /><text x="1150" y="902.5" font-size="14" fill="white" font-family="monospace" dominant-baseline="initial">21</text><rect x="952" y="1486.4" width="188" height="1" fill="aqua" fill-opacity="0.75" /><text x="952" y="1482.4" font-size="14" fill="aqua" fill-opacity="0.75" font-family="monospace">Phrase A</text><rect x="1190" y="903.5" width="188" height="778.5" fill="black" /><rect x="1190" y="1681.0" width="188" height="1" fill="white" fill-opacity="0.5" /><text x="1388" y="1681.0" font-size="14" fill="white" font-family="monospace" dominant-baseline="initial">21</text><rect x="1190" y="1632.5" width="188" height="1" fill="white" fill-opacity="0.2" /><rect x="1190" y="1584.0" width="188" height="1" fill="white" fill-opacity="0.2" /><rect x="1190" y="1535.0" width="188" height="1" fill="white" fill-opacity="0.2" /><rect x="1190" y="1486.5" width="188" height="1" fill="white" fill-opacity="0.5" /><text x="1388" y="1486.5" font-size="14" fill="white" font-family="monospace" dominant-baseline="initial">22</text><rect x="1190" y="1438.0" width="188" height="1" fill="white" fill-opacity="0.2" /><rect x="1190" y="1389.0" width="188" height="1" fill="white" fill-opacity="0.2" /><rect x="1190" y="1340.5" width="188" height="1" fill="white" fill-opacity="0.2" /><rect x="1190" y="1292.0" width="188" height="1" fill="white" fill-opacity="0.5" /><text x="1388" y="1292.0" font-size="14" fill="white" font-family="monospace" dominant-baseline="initial">23</text><rect x="1190" y="1243.5" width="188" height="1" fill="white" fill-opacity="0.2" /><rect x="1190" y="1194.5" width="188" height="1" fill="white" fill-opacity="0.2" /><rect x="1190" y="1146.0" width="188" height="1" fill="white" fill-opacity="0.2" /><rect x="1190" y="1097.5" width="188" height="1" fill="white" fill-opacity="0.5" /><text x="1388" y="1097.5" font-size="14" fill="white" font-family="monospace" dominant-baseline="initial">24</text><rect x="1190" y="1048.5" width="188" height="1" fill="white" fill-opacity="0.2" /><rect x="1190" y="1000.0" width="188" height="1" fill="white" fill-opacity="0.2" /><rect x="1190" y="951.5" width="188" height="1" fill="white" fill-opacity="0.2" /><rect x="1190" y="902.5" width="188" height="1" fill="white" fill-opacity="0.5" /><text x="1388" y="902.5" font-size="14" fill="white" font-family="monospace" dominant-baseline="initial">25</text><rect x="1428" y="904.0" width="188" height="778.0" fill="black" /><rect x="1428" y="1681.0" width="188" height="1" fill="white" fill-opacity="0.5" /><text x="1626" y="1681.0" font-size="14" fill="white" font-family="monospace" dominant-baseline="initial">25</text><rect x="1428" y="1632.5" width="188" height="1" fill="white" fill-opacity="0.2" /><rect x="1428" y="1584.0" width="188" height="1" fill="white" fill-opacity="0.2" /><rect x="1428" y="1535.5" width="188" height="1" fill="white" fill-opacity="0.2" /><rect x="1428" y="1486.5" width="188" height="1" fill="white" fill-opacity="0.5" /><text x="1626" y="1486.5" font-size="14" fill="white" font-family="monospace" dominant-baseline="initial">26</text><rect x="1428" y="1438.0" width="188" height="1" fill="white" fill-opacity="0.2" /><rect x="1428" y="1389.5" width="188" height="1" fill="white" fill-opacity="0.2" /><rect x="1428" y="1340.5" width="188" height="1" fill="white" fill-opacity="0.2" /><rect x="1428" y="1292.0" width="188" height="1" fill="white" fill-opacity="0.5" /><text x="1626" y="1292.0" font-size="14" fill="white" font-family="monospace" dominant-baseline="initial">27</text><rect x="1428" y="1243.5" width="188" height="1" fill="white" fill-opacity="0.2" /><rect x="1428" y="1194.5" width="188" height="1" fill="white" fill-opacity="0.2" /><rect x="1428" y="1146.0" width="188" height="1" fill="white" fill-opacity="0.2" /><rect x="1428" y="1097.5" width="188" height="1" fill="white" fill-opacity="0.5" /><text x="1626" y="1097.5" font-size="14" fill="white" font-family="monospace" dominant-baseline="initial">28</text><rect x="1428" y="1049.0" width="188" height="1" fill="white" fill-opacity="0.2" /><rect x="1428" y="1000.0" width="188" height="1" fill="white" fill-opacity="0.2" /><rect x="1428" y="951.5" width="188" height="1" fill="white" fill-opacity="0.2" /><rect x="1428" y="903.0" width="188" height="1" fill="white" fill-opacity="0.5" /><text x="1626" y="903.0" font-size="14" fill="white" font-family="monospace" dominant-baseline="initial">29</text><rect x="1428" y="1486.6999999999998" width="188" height="1" fill="aqua" fill-opacity="0.75" /><text x="1428" y="1482.6999999999998" font-size="14" fill="aqua" fill-opacity="0.75" font-family="monospace">Phrase B</text><rect x="1666" y="903.5" width="188" height="778.5" fill="black" /><rect x="1666" y="1681.0" width="188" height="1" fill="white" fill-opacity="0.5" /><text x="1864" y="1681.0" font-size="14" fill="white" font-family="monospace" dominant-baseline="initial">29</text><rect x="1666" y="1632.0" width="188" height="1" fill="white" fill-opacity="0.2" /><rect x="1666" y="1583.5" width="188" height="1" fill="white" fill-opacity="0.2" /><rect x="1666" y="1535.0" width="188" height="1" fill="white" fill-opacity="0.2" /><rect x="1666" y="1486.5" width="188" height="1" fill="white" fill-opacity="0.5" /><text x="1864" y="1486.5" font-size="14" fill="white" font-family="monospace" dominant-baseline="initial">30</text><rect x="1666" y="1437.5" width="188" height="1" fill="white" fill-opacity="0.2" /><rect x="1666" y="1389.0" width="188" height="1" fill="white" fill-opacity="0.2" /><rect x="1666" y="1340.5" width="188" height="1" fill="white" fill-opacity="0.2" /><rect x="1666" y="1291.5" width="188" height="1" fill="white" fill-opacity="0.5" /><text x="1864" y="1291.5" font-size="14" fill="white" font-family="monospace" dominant-baseline="initial">31</text><rect x="1666" y="1243.0" width="188" height="1" fill="white" fill-opacity="0.2" /><rect x="1666" y="1194.5" width="188" height="1" fill="white" fill-opacity="0.2" /><rect x="1666" y="1145.5" width="188" height="1" fill="white" fill-opacity="0.2" /><rect x="1666" y="1097.0" width="188" height="1" fill="white" fill-opacity="0.5" /><text x="1864" y="1097.0" font-size="14" fill="white" font-family="monospace" dominant-baseline="initial">32</text><rect x="1666" y="1048.5" width="188" height="1" fill="white" fill-opacity="0.2" /><rect x="1666" y="1000.0" width="188" height="1" fill="white" fill-opacity="0.2" /><rect x="1666" y="951.0" width="188" height="1" fill="white" fill-opacity="0.2" /><rect x="1666" y="902.5" width="188" height="1" fill="white" fill-opacity="0.5" /><text x="1864" y="902.5" font-size="14" fill="white" font-family="monospace" dominant-baseline="initial">33</text><rect x="1904" y="903.5" width="188" height="778.5" fill="black" /><rect x="1904" y="1681.0" width="188" height="1" fill="white" fill-opacity="0.5" /><text x="2102" y="1681.0" font-size="14" fill="white" font-family="monospace" dominant-baseline="initial">33</text><rect x="1904" y="1632.5" width="188" height="1" fill="white" fill-opacity="0.2" /><rect x="1904" y="1583.5" width="188" height="1" fill="white" fill-opacity="0.2" /><rect x="1904" y="1535.0" width="188" height="1" fill="white" fill-opacity="0.2" /><rect x="1904" y="1486.5" width="188" height="1" fill="white" fill-opacity="0.5" /><text x="2102" y="1486.5" font-size="14" fill="white" font-family="monospace" dominant-baseline="initial">34</text><rect x="1904" y="1437.5" width="188" height="1" fill="white" fill-opacity="0.2" /><rect x="1904" y="1389.0" width="188" height="1" fill="white" fill-opacity="0.2" /><rect x="1904" y="1340.5" width="188" height="1" fill="white" fill-opacity="0.2" /><rect x="1904" y="1292.0" width="188" height="1" fill="white" fill-opacity="0.5" /><text x="2102" y="1292.0" font-size="14" fill="white" font-family="monospace" dominant-baseline="initial">35</text><rect x="1904" y="1243.0" width="188" height="1" fill="white" fill-opacity="0.2" /><rect x="1904" y="1194.5" width="188" height="1" fill="white" fill-opacity="0.2" /><rect x="1904" y="1146.0" width="188" height="1" fill="white" fill-opacity="0.2" /><rect x="1904" y="1097.0" width="188" height="1" fill="white" fill-opacity="0.5" /><text x="2102" y="1097.0" font-size="14" fill="white" font-family="monospace" dominant-baseline="initial">36</text><rect x="1904" y="1048.5" width="188" height="1" fill="white" fill-opacity="0.2" /><rect x="1904" y="1000.0" width="188" height="1" fill="white" fill-opacity="0.2" /><rect x="1904" y="951.5" width="188" height="1" fill="white" fill-opacity="0.2" /><rect x="1904" y="902.5" width="188" height="1" fill="white" fill-opacity="0.5" /><text x="2102" y="902.5" font-size="14" fill="white" font-family="monospace" dominant-baseline="initial">37</text><rect x="2142" y="903.5" width="188" height="778.5" fill="black" /><rect x="2142" y="1681.0" width="188" height="1" fill="white" fill-opacity="0.5" /><text x="2340" y="1681.0" font-size="14" fill="white" font-family="monospace" dominant-baseline="initial">37</text><rect x="2142" y="1632.5" width="188" height="1" fill="white" fill-opacity="0.2" /><rect x="2142" y="1584.0" width="188" height="1" fill="white" fill-opacity="0.2" /><rect x="2142" y="1535.0" width="188" height="1" fill="white" fill-opacity="0.2" /><rect x="2142" y="1486.5" width="188" height="1" fill="white" fill-opacity="0.5" /><text x="2340" y="1486.5" font-size="14" fill="white" font-family="monospace" dominant-baseline="initial">38</text><rect x="2142" y="1438.0" width="188" height="1" fill="white" fill-opacity="0.2" /><rect x="2142" y="1389.0" width="188" height="1" fill="white" fill-opacity="0.2" /><rect x="2142" y="1340.5" width="188" height="1" fill="white" fill-opacity="0.2" /><rect x="2142" y="1292.0" width="188" height="1" fill="white" fill-opacity="0.5" /><text x="2340" y="1292.0" font-size="14" fill="white" font-family="monospace" dominant-baseline="initial">39</text><rect x="2142" y="1243.5" width="188" height="1" fill="white" fill-opacity="0.2" /><rect x="2142" y="1194.5" width="188" height="1" fill="white" fill-opacity="0.2" /><rect x="2142" y="1146.0" width="188" height="1" fill="white" fill-opacity="0.2" /><rect x="2142" y="1097.5" width="188" height="1" fill="white" fill-opacity="0.5" /><text x="2340" y="1097.5" font-size="14" fill="white" font-family="monospace" dominant-baseline="initial">40</text><rect x="2142" y="1048.5" width="188" height="1" fill="white" fill-opacity="0.2" /><rect x="2142" y="1000.0" width="188" height="1" fill="white" fill-opacity="0.2" /><rect x="2142" y="951.5" width="188" height="1" fill="white" fill-opacity="0.2" /><rect x="2142" y="902.5" width="188" height="1" fill="white" fill-opacity="0.5" /><text x="2340" y="902.5" font-size="14" fill="white" font-family="monospace" dominant-baseline="initial">41</text><rect x="2380" y="904.0" width="188" height="778.0" fill="black" /><rect x="2380" y="1681.0" width="188" height="1" fill="white" fill-opacity="0.5" /><text x="2578" y="1681.0" font-size="14" fill="white" font-family="monospace" dominant-baseline="initial">41</text><rect x="2380" y="1632.5" width="188" height="1" fill="white" fill-opacity="0.2" /><rect x="2380" y="1584.0" width="188" height="1" fill="white" fill-opacity="0.2" /><rect x="2380" y="1535.5" width="188" height="1" fill="white" fill-opacity="0.2" /><rect x="2380" y="1486.5" width="188" height="1" fill="white" fill-opacity="0.5" /><text x="2578" y="1486.5" font-size="14" fill="white" font-family="monospace" dominant-baseline="initial">42</text><rect x="2380" y="1438.0" width="188" height="1" fill="white" fill-opacity="0.2" /><rect x="2380" y="1389.5" width="188" height="1" fill="white" fill-opacity="0.2" /><rect x="2380" y="1340.5" width="188" height="1" fill="white" fill-opacity="0.2" /><rect x="2380" y="1292.0" width="188" height="1" fill="white" fill-opacity="0.5" /><text x="2578" y="1292.0" font-size="14" fill="white" font-family="monospace" dominant-baseline="initial">43</text><rect x="2380" y="1243.5" width="188" height="1" fill="white" fill-opacity="0.2" /><rect x="2380" y="1194.5" width="188" height="1" fill="white" fill-opacity="0.2" /><rect x="2380" y="1146.0" width="188" height="1" fill="white" fill-opacity="0.2" /><rect x="2380" y="1097.5" width="188" height="1" fill="white" fill-opacity="0.5" /><text x="2578" y="1097.5" font-size="14" fill="white" font-family="monospace" dominant-baseline="initial">44</text><rect x="2380" y="1049.0" width="188" height="1" fill="white" fill-opacity="0.2" /><rect x="2380" y="1000.0" width="188" height="1" fill="white" fill-opacity="0.2" /><rect x="2380" y="951.5" width="188" height="1" fill="white" fill-opacity="0.2" /><rect x="2380" y="903.0" width="188" height="1" fill="white" fill-opacity="0.5" /><text x="2578" y="903.0" font-size="14" fill="white" font-family="monospace" dominant-baseline="initial">45</text><rect x="2380" y="1486.6500000000005" width="188" height="1" fill="aqua" fill-opacity="0.75" /><text x="2380" y="1482.6500000000005" font-size="14" fill="aqua" fill-opacity="0.75" font-family="monospace">Special</text><rect x="2618" y="903.5" width="188" height="778.5" fill="black" /><rect x="2618" y="1681.0" width="188" height="1" fill="white" fill-opacity="0.5" /><text x="2816" y="1681.0" font-size="14" fill="white" font-family="monospace" dominant-baseline="initial">45</text><rect x="2618" y="1632.0" width="188" height="1" fill="white" fill-opacity="0.2" /><rect x="2618" y="1583.5" width="188" height="1" fill="white" fill-opacity="0.2" /><rect x="2618" y="1535.0" width="188" height="1" fill="white" fill-opacity="0.2" /><rect x="2618" y="1486.5" width="188" height="1" fill="white" fill-opacity="0.5" /><text x="2816" y="1486.5" font-size="14" fill="white" font-family="monospace" dominant-baseline="initial">46</text><rect x="2618" y="1437.5" width="188" height="1" fill="white" fill-opacity="0.2" /><rect x="2618" y="1389.0" width="188" height="1" fill="white" fill-opacity="0.2" /><rect x="2618" y="1340.5" width="188" height="1" fill="white" fill-opacity="0.2" /><rect x="2618" y="1291.5" width="188" height="1" fill="white" fill-opacity="0.5" /><text x="2816" y="1291.5" font-size="14" fill="white" font-family="monospace" dominant-baseline="initial">47</text><rect x="2618" y="1243.0" width="188" height="1" fill="white" fill-opacity="0.2" /><rect x="2618" y="1194.5" width="188" height="1" fill="white" fill-opacity="0.2" /><rect x="2618" y="1145.5" width="188" height="1" fill="white" fill-opacity="0.2" /><rect x="2618" y="1097.0" width="188" height="1" fill="white" fill-opacity="0.5" /><text x="2816" y="1097.0" font-size="14" fill="white" font-family="monospace" dominant-baseline="initial">48</text><rect x="2618" y="1048.5" width="188" height="1" fill="white" fill-opacity="0.2" /><rect x="2618" y="1000.0" width="188" height="1" fill="white" fill-opacity="0.2" /><rect x="2618" y="951.0" width="188" height="1" fill="white" fill-opacity="0.2" /><rect x="2618" y="902.5" width="188" height="1" fill="white" fill-opacity="0.5" /><text x="2816" y="902.5" font-size="14" fill="white" font-family="monospace" dominant-baseline="initial">49</text><rect x="2856" y="903.5" width="188" height="778.5" fill="black" /><rect x="2856" y="1681.0" width="188" height="1" fill="white" fill-opacity="0.5" /><text x="3054" y="1681.0" font-size="14" fill="white" font-family="monospace" dominant-baseline="initial">49</text><rect x="2856" y="1632.5" width="188" height="1" fill="white" fill-opacity="0.2" /><rect x="2856" y="1583.5" width="188" height="1" fill="white" fill-opacity="0.2" /><rect x="2856" y="1535.0" width="188" height="1" fill="white" fill-opacity="0.2" /><rect x="2856" y="1486.5" width="188" height="1" fill="white" fill-opacity="0.5" /><text x="3054" y="1486.5" font-size="14" fill="white" font-family="monospace" dominant-baseline="initial">50</text><rect x="2856" y="1437.5" width="188" height="1" fill="white" fill-opacity="0.2" /><rect x="2856" y="1389.0" width="188" height="1" fill="white" fill-opacity="0.2" /><rect x="2856" y="1340.5" width="188" height="1" fill="white" fill-opacity="0.2" /><rect x="2856" y="1292.0" width="188" height="1" fill="white" fill-opacity="0.5" /><text x="3054" y="1292.0" font-size="14" fill="white" font-family="monospace" dominant-baseline="initial">51</text><rect x="2856" y="1243.0" width="188" height="1" fill="white" fill-opacity="0.2" /><rect x="2856" y="1194.5" width="188" height="1" fill="white" fill-opacity="0.2" /><rect x="2856" y="1146.0" width="188" height="1" fill="white" fill-opacity="0.2" /><rect x="2856" y="1097.0" width="188" height="1" fill="white" fill-opacity="0.5" /><text x="3054" y="1097.0" font-size="14" fill="white" font-family="monospace" dominant-baseline="initial">52</text><rect x="2856" y="1048.5" width="188" height="1" fill="white" fill-opacity="0.2" /><rect x="2856" y="1000.0" width="188" height="1" fill="white" fill-opacity="0.2" /><rect x="2856" y="951.0" width="188" height="1" fill="white" fill-opacity="0.2" /><rect x="2856" y="902.5" width="188" height="1" fill="white" fill-opacity="0.5" /><text x="3054" y="902.5" font-size="14" fill="white" font-family="monospace" dominant-baseline="initial">53</text><rect x="3094" y="903.5" width="188" height="778.5" fill="black" /><rect x="3094" y="1681.0" width="188" height="1" fill="white" fill-opacity="0.5" /><text x="3292" y="1681.0" font-size="14" fill="white" font-family="monospace" dominant-baseline="initial">53</text><rect x="3094" y="1632.5" width="188" height="1" fill="white" fill-opacity="0.2" /><rect x="3094" y="1584.0" width="188" height="1" fill="white" fill-opacity="0.2" /><rect x="3094" y="1535.0" width="188" height="1" fill="white" fill-opacity="0.2" /><rect x="3094" y="1486.5" width="188" height="1" fill="white" fill-opacity="0.5" /><text x="3292" y="1486.5" font-size="14" fill="white" font-family="monospace" dominant-baseline="initial">54</text><rect x="3094" y="1438.0" width="188" height="1" fill="white" fill-opacity="0.2" /><rect x="3094" y="1389.0" width="188" height="1" fill="white" fill-opacity="0.2" /><rect x="3094" y="1340.5" width="188" height="1" fill="white" fill-opacity="0.2" /><rect x="3094" y="1292.0" width="188" height="1" fill="white" fill-opacity="0.5" /><text x="3292" y="1292.0" font-size="14" fill="white" font-family="monospace" dominant-baseline="initial">55</text><rect x="3094" y="1243.5" width="188" height="1" fill="white" fill-opacity="0.2" /><rect x="3094" y="1194.5" width="188" height="1" fill="white" fill-opacity="0.2" /><rect x="3094" y="1146.0" width="188" height="1" fill="white" fill-opacity="0.2" /><rect x="3094" y="1097.5" width="188" height="1" fill="white" fill-opacity="0.5" /><text x="3292" y="1097.5" font-size="14" fill="white" font-family="monospace" dominant-baseline="initial">56</text><rect x="3094" y="1048.5" width="188" height="1" fill="white" fill-opacity="0.2" /><rect x="3094" y="1000.0" width="188" height="1" fill="white" fill-opacity="0.2" /><rect x="3094" y="951.5" width="188" height="1" fill="white" fill-opacity="0.2" /><rect x="3094" y="902.5" width="188" height="1" fill="white" fill-opacity="0.5" /><text x="3292" y="902.5" font-size="14" fill="white" font-family="monospace" dominant-baseline="initial">57</text><rect x="3332" y="904.0" width="188" height="778.0" fill="black" /><rect x="3332" y="1681.0" width="188" height="1" fill="white" fill-opacity="0.5" /><text x="3530" y="1681.0" font-size="14" fill="white" font-family="monospace" dominant-baseline="initial">57</text><rect x="3332" y="1632.5" width="188" height="1" fill="white" fill-opacity="0.2" /><rect x="3332" y="1584.0" width="188" height="1" fill="white" fill-opacity="0.2" /><rect x="3332" y="1535.5" width="188" height="1" fill="white" fill-opacity="0.2" /><rect x="3332" y="1486.5" width="188" height="1" fill="white" fill-opacity="0.5" /><text x="3530" y="1486.5" font-size="14" fill="white" font-family="monospace" dominant-baseline="initial">58</text><rect x="3332" y="1438.0" width="188" height="1" fill="white" fill-opacity="0.2" /><rect x="3332" y="1389.5" width="188" height="1" fill="white" fill-opacity="0.2" /><rect x="3332" y="1340.5" width="188" height="1" fill="white" fill-opacity="0.2" /><rect x="3332" y="1292.0" width="188" height="1" fill="white" fill-opacity="0.5" /><text x="3530" y="1292.0" font-size="14" fill="white" font-family="monospace" dominant-baseline="initial">59</text><rect x="3332" y="1243.5" width="188" height="1" fill="white" fill-opacity="0.2" /><rect x="3332" y="1194.5" width="188" height="1" fill="white" fill-opacity="0.2" /><rect x="3332" y="1146.0" width="188" height="1" fill="white" fill-opacity="0.2" /><rect x="3332" y="1097.5" width="188" height="1" fill="white" fill-opacity="0.5" /><text x="3530" y="1097.5" font-size="14" fill="white" font-family="monospace" dominant-baseline="initial">60</text><rect x="3332" y="1049.0" width="188" height="1" fill="white" fill-opacity="0.2" /><rect x="3332" y="1000.0" width="188" height="1" fill="white" fill-opacity="0.2" /><rect x="3332" y="951.5" width="188" height="1" fill="white" fill-opacity="0.2" /><rect x="3332" y="903.0" width="188" height="1" fill="white" fill-opacity="0.5" /><text x="3530" y="903.0" font-size="14" fill="white" font-family="monospace" dominant-baseline="initial">61</text><rect x="3332" y="1486.6000000000004" width="188" height="1" fill="aqua" fill-opacity="0.75" /><text x="3332" y="1482.6000000000004" font-size="14" fill="aqua" fill-opacity="0.75" font-family="monospace">Solo</text><rect x="3570" y="903.5" width="188" height="778.5" fill="black" /><rect x="3570" y="1681.0" width="188" height="1" fill="white" fill-opacity="0.5" /><text x="3768" y="1681.0" font-size="14" fill="white" font-family="monospace" dominant-baseline="initial">61</text><rect x="3570" y="1632.0" width="188" height="1" fill="white" fill-opacity="0.2" /><rect x="3570" y="1583.5" width="188" height="1" fill="white" fill-opacity="0.2" /><rect x="3570" y="1535.0" width="188" height="1" fill="white" fill-opacity="0.2" /><rect x="3570" y="1486.0" width="188" height="1" fill="white" fill-opacity="0.5" /><text x="3768" y="1486.0" font-size="14" fill="white" font-family="monospace" dominant-baseline="initial">62</text><rect x="3570" y="1437.5" width="188" height="1" fill="white" fill-opacity="0.2" /><rect x="3570" y="1389.0" width="188" height="1" fill="white" fill-opacity="0.2" /><rect x="3570" y="1340.5" width="188" height="1" fill="white" fill-opacity="0.2" /><rect x="3570" y="1291.5" width="188" height="1" fill="white" fill-opacity="0.5" /><text x="3768" y="1291.5" font-size="14" fill="white" font-family="monospace" dominant-baseline="initial">63</text><rect x="3570" y="1243.0" width="188" height="1" fill="white" fill-opacity="0.2" /><rect x="3570" y="1194.5" width="188" height="1" fill="white" fill-opacity="0.2" /><rect x="3570" y="1145.5" width="188" height="1" fill="white" fill-opacity="0.2" /><rect x="3570" y="1097.0" width="188" height="1" fill="white" fill-opacity="0.5" /><text x="3768" y="1097.0" font-size="14" fill="white" font-family="monospace" dominant-baseline="initial">64</text><rect x="3570" y="1048.5" width="188" height="1" fill="white" fill-opacity="0.2" /><rect x="3570" y="1000.0" width="188" height="1" fill="white" fill-opacity="0.2" /><rect x="3570" y="951.0" width="188" height="1" fill="white" fill-opacity="0.2" /><rect x="3570" y="902.5" width="188" height="1" fill="white" fill-opacity="0.5" /><text x="3768" y="902.5" font-size="14" fill="white" font-family="monospace" dominant-baseline="initial">65</text><rect x="3808" y="903.5" width="188" height="778.5" fill="black" /><rect x="3808" y="1681.0" width="188" height="1" fill="white" fill-opacity="0.5" /><text x="4006" y="1681.0" font-size="14" fill="white" font-family="monospace" dominant-baseline="initial">65</text><rect x="3808" y="1632.5" width="188" height="1" fill="white" fill-opacity="0.2" /><rect x="3808" y="1583.5" width="188" height="1" fill="white" fill-opacity="0.2" /><rect x="3808" y="1535.0" width="188" height="1" fill="white" fill-opacity="0.2" /><rect x="3808" y="1486.5" width="188" height="1" fill="white" fill-opacity="0.5" /><text x="4006" y="1486.5" font-size="14" fill="white" font-family="monospace" dominant-baseline="initial">66</text><rect x="3808" y="1437.5" width="188" height="1" fill="white" fill-opacity="0.2" /><rect x="3808" y="1389.0" width="188" height="1" fill="white" fill-opacity="0.2" /><rect x="3808" y="1340.5" width="188" height="1" fill="white" fill-opacity="0.2" /><rect x="3808" y="1292.0" width="188" height="1" fill="white" fill-opacity="0.5" /><text x="4006" y="1292.0" font-size="14" fill="white" font-family="monospace" dominant-baseline="initial">67</text><rect x="3808" y="1243.0" width="188" height="1" fill="white" fill-opacity="0.2" /><rect x="3808" y="1194.5" width="188" height="1" fill="white" fill-opacity="0.2" /><rect x="3808" y="1146.0" width="188" height="1" fill="white" fill-opacity="0.2" /><rect x="3808" y="1097.0" width="188" height="1" fill="white" fill-opacity="0.5" /><text x="4006" y="1097.0" font-size="14" fill="white" font-family="monospace" dominant-baseline="initial">68</text><rect x="3808" y="1048.5" width="188" height="1" fill="white" fill-opacity="0.2" /><rect x="3808" y="1000.0" width="188" height="1" fill="white" fill-opacity="0.2" /><rect x="3808" y="951.0" width="188" height="1" fill="white" fill-opacity="0.2" /><rect x="3808" y="902.5" width="188" height="1" fill="white" fill-opacity="0.5" /><text x="4006" y="902.5" font-size="14" fill="white" font-family="monospace" dominant-baseline="initial">69</text><rect x="3808" y="1486.4000000000015" width="188" height="1" fill="aqua" fill-opacity="0.75" /><text x="3808" y="1482.4000000000015" font-size="14" fill="aqua" fill-opacity="0.75" font-family="monospace">Phrase C</text><rect x="4046" y="903.5" width="188" height="778.5" fill="black" /><rect x="4046" y="1681.0" width="188" height="1" fill="white" fill-opacity="0.5" /><text x="4244" y="1681.0" font-size="14" fill="white" font-family="monospace" dominant-baseline="initial">69</text><rect x="4046" y="1632.5" width="188" height="1" fill="white" fill-opacity="0.2" /><rect x="4046" y="1584.0" width="188" height="1" fill="white" fill-opacity="0.2" /><rect x="4046" y="1535.0" width="188" height="1" fill="white" fill-opacity="0.2" /><rect x="4046" y="1486.5" width="188" height="1" fill="white" fill-opacity="0.5" /><text x="4244" y="1486.5" font-size="14" fill="white" font-family="monospace" dominant-baseline="initial">70</text><rect x="4046" y="1438.0" width="188" height="1" fill="white" fill-opacity="0.2" /><rect x="4046" y="1389.0" width="188" height="1" fill="white" fill-opacity="0.2" /><rect x="4046" y="1340.5" width="188" height="1" fill="white" fill-opacity="0.2" /><rect x="4046" y="1292.0" width="188" height="1" fill="white" fill-opacity="0.5" /><text x="4244" y="1292.0" font-size="14" fill="white" font-family="monospace" dominant-baseline="initial">71</text><rect x="4046" y="1243.0" width="188" height="1" fill="white" fill-opacity="0.2" /><rect x="4046" y="1194.5" width="188" height="1" fill="white" fill-opacity="0.2" /><rect x="4046" y="1146.0" width="188" height="1" fill="white" fill-opacity="0.2" /><rect x="4046" y="1097.5" width="188" height="1" fill="white" fill-opacity="0.5" /><text x="4244" y="1097.5" font-size="14" fill="white" font-family="monospace" dominant-baseline="initial">72</text><rect x="4046" y="1048.5" width="188" height="1" fill="white" fill-opacity="0.2" /><rect x="4046" y="1000.0" width="188" height="1" fill="white" fill-opacity="0.2" /><rect x="4046" y="951.5" width="188" height="1" fill="white" fill-opacity="0.2" /><rect x="4046" y="902.5" width="188" height="1" fill="white" fill-opacity="0.5" /><text x="4244" y="902.5" font-size="14" fill="white" font-family="monospace" dominant-baseline="initial">73</text><rect x="4284" y="1001.0" width="188" height="681.0" fill="black" /><rect x="4284" y="1681.0" width="188" height="1" fill="white" fill-opacity="0.5" /><text x="4482" y="1681.0" font-size="14" fill="white" font-family="monospace" dominant-baseline="initial">73</text><rect x="4284" y="1632.5" width="188" height="1" fill="white" fill-opacity="0.2" /><rect x="4284" y="1584.0" width="188" height="1" fill="white" fill-opacity="0.2" /><rect x="4284" y="1535.5" width="188" height="1" fill="white" fill-opacity="0.2" /><rect x="4284" y="1486.5" width="188" height="1" fill="white" fill-opacity="0.5" /><text x="4482" y="1486.5" font-size="14" fill="white" font-family="monospace" dominant-baseline="initial">74</text><rect x="4284" y="1438.0" width="188" height="1" fill="white" fill-opacity="0.2" /><rect x="4284" y="1389.5" width="188" height="1" fill="white" fill-opacity="0.5" /><text x="4482" y="1389.5" font-size="14" fill="white" font-family="monospace" dominant-baseline="initial">75</text><rect x="4284" y="1340.5" width="188" height="1" fill="white" fill-opacity="0.2" /><rect x="4284" y="1292.0" width="188" height="1" fill="white" fill-opacity="0.2" /><rect x="4284" y="1243.5" width="188" height="1" fill="white" fill-opacity="0.2" /><rect x="4284" y="1194.5" width="188" height="1" fill="white" fill-opacity="0.5" /><text x="4482" y="1194.5" font-size="14" fill="white" font-family="monospace" dominant-baseline="initial">76</text><rect x="4284" y="1146.0" width="188" height="1" fill="white" fill-opacity="0.2" /><rect x="4284" y="1097.5" width="188" height="1" fill="white" fill-opacity="0.2" /><rect x="4284" y="1049.0" width="188" height="1" fill="white" fill-opacity="0.2" /><rect x="4284" y="1000.0" width="188" height="1" fill="white" fill-opacity="0.5" /><text x="4482" y="1000.0" font-size="14" fill="white" font-family="monospace" dominant-baseline="initial">77</text><rect x="4284" y="1389.3500000000004" width="188" height="1" fill="aqua" fill-opacity="0.75" /><text x="4284" y="1385.3500000000004" font-size="14" fill="aqua" fill-opacity="0.75" font-family="monospace">Special</text><rect x="4522" y="903.5" width="188" height="778.5" fill="black" /><rect x="4522" y="1681.0" width="188" height="1" fill="white" fill-opacity="0.5" /><text x="4720" y="1681.0" font-size="14" fill="white" font-family="monospace" dominant-baseline="initial">77</text><rect x="4522" y="1632.5" width="188" height="1" fill="white" fill-opacity="0.2" /><rect x="4522" y="1584.0" width="188" height="1" fill="white" fill-opacity="0.2" /><rect x="4522" y="1535.0" width="188" height="1" fill="white" fill-opacity="0.2" /><rect x="4522" y="1486.5" width="188" height="1" fill="white" fill-opacity="0.5" /><text x="4720" y="1486.5" font-size="14" fill="white" font-family="monospace" dominant-baseline="initial">78</text><rect x="4522" y="1438.0" width="188" height="1" fill="white" fill-opacity="0.2" /><rect x="4522" y="1389.0" width="188" height="1" fill="white" fill-opacity="0.2" /><rect x="4522" y="1340.5" width="188" height="1" fill="white" fill-opacity="0.2" /><rect x="4522" y="1292.0" width="188" height="1" fill="white" fill-opacity="0.5" /><text x="4720" y="1292.0" font-size="14" fill="white" font-family="monospace" dominant-baseline="initial">79</text><rect x="4522" y="1243.5" width="188" height="1" fill="white" fill-opacity="0.2" /><rect x="4522" y="1194.5" width="188" height="1" fill="white" fill-opacity="0.2" /><rect x="4522" y="1146.0" width="188" height="1" fill="white" fill-opacity="0.2" /><rect x="4522" y="1097.5" width="188" height="1" fill="white" fill-opacity="0.5" /><text x="4720" y="1097.5" font-size="14" fill="white" font-family="monospace" dominant-baseline="initial">80</text><rect x="4522" y="1048.5" width="188" height="1" fill="white" fill-opacity="0.2" /><rect x="4522" y="1000.0" width="188" height="1" fill="white" fill-opacity="0.2" /><rect x="4522" y="951.5" width="188" height="1" fill="white" fill-opacity="0.2" /><rect x="4522" y="902.5" width="188" height="1" fill="white" fill-opacity="0.5" /><text x="4720" y="902.5" font-size="14" fill="white" font-family="monospace" dominant-baseline="initial">81</text><rect x="4760" y="904.0" width="188" height="778.0" fill="black" /><rect x="4760" y="1681.0" width="188" height="1" fill="white" fill-opacity="0.5" /><text x="4958" y="1681.0" font-size="14" fill="white" font-family="monospace" dominant-baseline="initial">81</text><rect x="4760" y="1632.5" width="188" height="1" fill="white" fill-opacity="0.2" /><rect x="4760" y="1584.0" width="188" height="1" fill="white" fill-opacity="0.2" /><rect x="4760" y="1535.5" width="188" height="1" fill="white" fill-opacity="0.2" /><rect x="4760" y="1486.5" width="188" height="1" fill="white" fill-opacity="0.5" /><text x="4958" y="1486.5" font-size="14" fill="white" font-family="monospace" dominant-baseline="initial">82</text><rect x="4760" y="1438.0" width="188" height="1" fill="white" fill-opacity="0.2" /><rect x="4760" y="1389.5" width="188" height="1" fill="white" fill-opacity="0.2" /><rect x="4760" y="1340.5" width="188" height="1" fill="white" fill-opacity="0.2" /><rect x="4760" y="1292.0" width="188" height="1" fill="white" fill-opacity="0.5" /><text x="4958" y="1292.0" font-size="14" fill="white" font-family="monospace" dominant-baseline="initial">83</text><rect x="4760" y="1243.5" width="188" height="1" fill="white" fill-opacity="0.2" /><rect x="4760" y="1195.0" width="188" height="1" fill="white" fill-opacity="0.2" /><rect x="4760" y="1146.0" width="188" height="1" fill="white" fill-opacity="0.2" /><rect x="4760" y="1097.5" width="188" height="1" fill="white" fill-opacity="0.5" /><text x="4958" y="1097.5" font-size="14" fill="white" font-family="monospace" dominant-baseline="initial">84</text><rect x="4760" y="1049.0" width="188" height="1" fill="white" fill-opacity="0.2" /><rect x="4760" y="1000.0" width="188" height="1" fill="white" fill-opacity="0.2" /><rect x="4760" y="951.5" width="188" height="1" fill="white" fill-opacity="0.2" /><rect x="4760" y="903.0" width="188" height="1" fill="white" fill-opacity="0.5" /><text x="4958" y="903.0" font-size="14" fill="white" font-family="monospace" dominant-baseline="initial">85</text><rect x="4998" y="14.0" width="188" height="1668.0" fill="black" /><rect x="4998" y="1681.0" width="188" height="1" fill="white" fill-opacity="0.5" /><text x="5196" y="1681.0" font-size="14" fill="white" font-family="monospace" dominant-baseline="initial">85</text><rect x="4998" y="1632.0" width="188" height="1" fill="white" fill-opacity="0.2" /><rect x="4998" y="1583.5" width="188" height="1" fill="white" fill-opacity="0.2" /><rect x="4998" y="1535.0" width="188" height="1" fill="white" fill-opacity="0.2" /><rect x="4998" y="1486.5" width="188" height="1" fill="white" fill-opacity="0.5" /><text x="5196" y="1486.5" font-size="14" fill="white" font-family="monospace" dominant-baseline="initial">86</text><rect x="4998" y="1437.5" width="188" height="1" fill="white" fill-opacity="0.2" /><rect x="4998" y="1389.0" width="188" height="1" fill="white" fill-opacity="0.2" /><rect x="4998" y="1340.5" width="188" height="1" fill="white" fill-opacity="0.2" /><rect x="4998" y="1291.5" width="188" height="1" fill="white" fill-opacity="0.5" /><text x="5196" y="1291.5" font-size="14" fill="white" font-family="monospace" dominant-baseline="initial">87</text></svg>