<?xml version="1.0" encoding="UTF-8"?><svg xmlns="http://www.w3.org/2000/svg" xmlns:xlink="http://www.w3.org/1999/xlink"     width="2394" height="1006.0" viewBox="0 0 2394 1006.0"><defs></defs><rect x="0.0" y="198.0" width="12.0" height="3" fill="#ff3c3c" stroke="#c71f1f" /><rect x="13.0" y="198.0" width="12.0" height="3" fill="#35df39" stroke="#03aa10" /><rect x="0.0" y="247.5" width="12.0" height="3" fill="#ff3c3c" stroke="#c71f1f" /><rect x="13.0" y="247.5" width="12.0" height="3" fill="#35df39" stroke="#03aa10" /><rect x="0.0" y="272.0" width="12.0" height="3" fill="#ff3c3c" stroke="#c71f1f" /><rect x="13.0" y="272.0" width="12.0" height="3" fill="#35df39" stroke="#03aa10" /><rect x="0.0" y="296.5" width="12.0" height="3" fill="#ff3c3c" stroke="#c71f1f" /><rect x="13.0" y="296.5" width="12.0" height="3" fill="#35df39" stroke="#03aa10" /><rect x="0.0" y="321.5" width="12.0" height="3" fill="#ff3c3c" stroke="#c71f1f" /><rect x="13.0" y="321.5" width="12.0" height="3" fill="#35df39" stroke="#03aa10" /><rect x="52.0" y="371.0" width="12.0" height="3" fill="#ff83f4" stroke="#d002bc" /><rect x="0" y="371.0" width="64" height="3" fill="#ff72e7" stroke="#7c7c7c" /><rect x="52.0" y="420.5" width="12.0" height="3" fill="#ff83f4" stroke="#d002bc" /><rect x="0" y="420.5" width="64" height="3" fill="#ff72e7" stroke="#7c7c7c" /><rect x="52.0" y="470.0" width="12.0" height="3" fill="#ff83f4" stroke="#d002bc" /><rect x="0" y="470.0" width="64" height="3" fill="#ff72e7" stroke="#7c7c7c" /><rect x="0.0" y="519.0" width="12.0" height="3" fill="#ff3c3c" stroke="#c71f1f" /><rect x="13.0" y="519.0" width="12.0" height="3" fill="#35df39" stroke="#03aa10" /><rect x="0.0" y="544.0" width="12.0" height="3" fill="#ff3c3c" stroke="#c71f1f" /><rect x="13.0" y="544.0" width="12.0" height="3" fill="#35df39" stroke="#03aa10" /><rect x="13.0" y="568.5" width="12.0" height="3" fill="#35df39" stroke="#03aa10" /><rect x="13.0" y="581.0" width="12.0" height="3" fill="#35df39" stroke="#03aa10" /><rect x="13.0" y="593.5" width="12.0" height="3" fill="#35df39" stroke="#03aa10" /><rect x="26.0" y="593.5" width="12.0" height="3" fill="#80c9ff" stroke="#0b6cba" /><rect x="13.0" y="643.0" width="12.0" height="3" fill="#35df39" stroke="#03aa10" /><rect x="26.0" y="643.0" width="12.0" height="3" fill="#80c9ff" stroke="#0b6cba" /><rect x="13.0" y="667.5" width="12.0" height="3" fill="#35df39" stroke="#03aa10" /><rect x="26.0" y="667.5" width="12.0" height="3" fill="#80c9ff" stroke="#0b6cba" /><rect x="26.0" y="717.0" width="12.0" height="3" fill="#80c9ff" stroke="#0b6cba" /><rect x="52.0" y="766.5" width="12.0" height="3" fill="#ff83f4" stroke="#d002bc" /><rect x="0" y="766.5" width="64" height="3" fill="#ff72e7" stroke="#7c7c7c" /><rect x="166.0" y="25.0" width="12.0" height="3" fill="#ff83f4" stroke="#d002bc" /><rect x="114" y="25.0" width="64" height="3" fill="#ff72e7" stroke="#7c7c7c" /><rect x="166.0" y="74.5" width="12.0" height="3" fill="#ff83f4" stroke="#d002bc" /><rect x="114" y="74.5" width="64" height="3" fill="#ff72e7" stroke="#7c7c7c" /><rect x="140.0" y="124.0" width="12.0" height="3" fill="#80c9ff" stroke="#0b6cba" /><rect x="140.0" y="148.5" width="12.0" height="3" fill="#80c9ff" stroke="#0b6cba" /><rect x="127.0" y="173.5" width="12.0" height="3" fill="#35df39" stroke="#03aa10" /><rect x="127.0" y="185.5" width="12.0" height="3" fill="#35df39" stroke="#03aa10" /><rect x="127.0" y="198.0" width="12.0" height="3" fill="#35df39" stroke="#03aa10" /><rect x="140.0" y="198.0" width="12.0" height="3" fill="#80c9ff" stroke="#0b6cba" /><rect x="127.0" y="247.5" width="12.0" height="3" fill="#35df39" stroke="#03aa10" /><rect x="140.0" y="247.5" width="12.0" height="3" fill="#80c9ff" stroke="#0b6cba" /><rect x="127.0" y="272.0" width="12.0" height="3" fill="#35df39" stroke="#03aa10" /><rect x="140.0" y="272.0" width="12.0" height="3" fill="#80c9ff" stroke="#0b6cba" /><rect x="127.0" y="297.0" width="12.0" height="3" fill="#35df39" stroke="#03aa10" /><rect x="140.0" y="297.0" width="12.0" height="3" fill="#80c9ff" stroke="#0b6cba" /><rect x="127.0" y="321.5" width="12.0" height="3" fill="#35df39" stroke="#03aa10" /><rect x="140.0" y="321.5" width="12.0" height="3" fill="#80c9ff" stroke="#0b6cba" /><rect x="166.0" y="371.0" width="12.0" height="3" fill="#ff83f4" stroke="#d002bc" /><rect x="114" y="371.0" width="64" height="3" fill="#ff72e7" stroke="#7c7c7c" /><rect x="166.0" y="420.5" width="12.0" height="3" fill="#ff83f4" stroke="#d002bc" /><rect x="114" y="420.5" width="64" height="3" fill="#ff72e7" stroke="#7c7c7c" /><rect x="166.0" y="470.0" width="12.0" height="3" fill="#ff83f4" stroke="#d002bc" /><rect x="114" y="470.0" width="64" height="3" fill="#ff72e7" stroke="#7c7c7c" /><rect x="127.0" y="519.5" width="12.0" height="3" fill="#35df39" stroke="#03aa10" /><rect x="140.0" y="519.5" width="12.0" height="3" fill="#80c9ff" stroke="#0b6cba" /><rect x="127.0" y="544.0" width="12.0" height="3" fill="#35df39" stroke="#03aa10" /><rect x="140.0" y="544.0" width="12.0" height="3" fill="#80c9ff" stroke="#0b6cba" /><rect x="140.0" y="569.0" width="12.0" height="3" fill="#80c9ff" stroke="#0b6cba" /><rect x="140.0" y="581.5" width="12.0" height="3" fill="#80c9ff" stroke="#0b6cba" /><rect x="140.0" y="593.5" width="12.0" height="3" fill="#80c9ff" stroke="#0b6cba" /><rect x="153.0" y="593.5" width="12.0" height="3" fill="#fff874" stroke="#eb9c26" /><rect x="140.0" y="643.0" width="12.0" height="3" fill="#80c9ff" stroke="#0b6cba" /><rect x="153.0" y="643.0" width="12.0" height="3" fill="#fff874" stroke="#eb9c26" /><rect x="140.0" y="668.0" width="12.0" height="3" fill="#80c9ff" stroke="#0b6cba" /><rect x="153.0" y="668.0" width="12.0" height="3" fill="#fff874" stroke="#eb9c26" /><rect x="153.0" y="717.0" width="12.0" height="3" fill="#fff874" stroke="#eb9c26" /><rect x="267.0" y="0.0" width="12.0" height="355.95" fill="#fff874" stroke="#eb9c26" /><rect x="280.0" y="0.0" width="12.0" height="355.95" fill="#ff83f4" stroke="#d002bc" /><rect x="228.0" y="395.5" width="12.0" height="3" fill="#ff3c3c" stroke="#c71f1f" /><rect x="241.0" y="395.5" width="12.0" height="3" fill="#35df39" stroke="#03aa10" /><rect x="241.0" y="494.5" width="12.0" height="3" fill="#35df39" stroke="#03aa10" /><rect x="254.0" y="494.5" width="12.0" height="3" fill="#80c9ff" stroke="#0b6cba" /><rect x="254.0" y="544.0" width="12.0" height="3" fill="#80c9ff" stroke="#0b6cba" /><rect x="267.0" y="544.0" width="12.0" height="3" fill="#fff874" stroke="#eb9c26" /><rect x="280.0" y="593.5" width="12.0" height="3" fill="#ff83f4" stroke="#d002bc" /><rect x="228" y="593.5" width="64" height="3" fill="#ff72e7" stroke="#7c7c7c" /><rect x="254.0" y="692.0" width="12.0" height="3" fill="#80c9ff" stroke="#0b6cba" /><rect x="267.0" y="692.0" width="12.0" height="3" fill="#fff874" stroke="#eb9c26" /><rect x="381.0" y="0.0" width="12.0" height="3" fill="#fff874" stroke="#eb9c26" /><rect x="394.0" y="0.0" width="12.0" height="3" fill="#ff83f4" stroke="#d002bc" /><rect x="368.0" y="49.5" width="12.0" height="3" fill="#80c9ff" stroke="#0b6cba" /><rect x="381.0" y="49.5" width="12.0" height="3" fill="#fff874" stroke="#eb9c26" /><rect x="355.0" y="99.0" width="12.0" height="3" fill="#35df39" stroke="#03aa10" /><rect x="368.0" y="99.0" width="12.0" height="3" fill="#80c9ff" stroke="#0b6cba" /><rect x="368.0" y="148.5" width="12.0" height="3" fill="#80c9ff" stroke="#0b6cba" /><rect x="381.0" y="148.5" width="12.0" height="3" fill="#fff874" stroke="#eb9c26" /><rect x="342.0" y="198.0" width="12.0" height="3" fill="#ff3c3c" stroke="#c71f1f" /><rect x="355.0" y="198.0" width="12.0" height="3" fill="#35df39" stroke="#03aa10" /><rect x="368.0" y="346.5" width="12.0" height="3" fill="#80c9ff" stroke="#0b6cba" /><rect x="381.0" y="346.5" width="12.0" height="3" fill="#fff874" stroke="#eb9c26" /><rect x="355.0" y="371.0" width="12.0" height="3" fill="#35df39" stroke="#03aa10" /><rect x="368.0" y="371.0" width="12.0" height="3" fill="#80c9ff" stroke="#0b6cba" /><rect x="342.0" y="395.5" width="12.0" height="3" fill="#ff3c3c" stroke="#c71f1f" /><rect x="355.0" y="395.5" width="12.0" height="3" fill="#35df39" stroke="#03aa10" /><rect x="355.0" y="494.5" width="12.0" height="3" fill="#35df39" stroke="#03aa10" /><rect x="368.0" y="494.5" width="12.0" height="3" fill="#80c9ff" stroke="#0b6cba" /><rect x="394.0" y="544.0" width="12.0" height="3" fill="#ff83f4" stroke="#d002bc" /><rect x="342" y="544.0" width="64" height="3" fill="#ff72e7" stroke="#7c7c7c" /><rect x="368.0" y="593.5" width="12.0" height="3" fill="#80c9ff" stroke="#0b6cba" /><rect x="381.0" y="593.5" width="12.0" height="3" fill="#fff874" stroke="#eb9c26" /><rect x="355.0" y="692.5" width="12.0" height="3" fill="#35df39" stroke="#03aa10" /><rect x="368.0" y="692.5" width="12.0" height="3" fill="#80c9ff" stroke="#0b6cba" /><rect x="456.0" y="0.0" width="12.0" height="3" fill="#ff3c3c" stroke="#c71f1f" /><rect x="469.0" y="0.0" width="12.0" height="3" fill="#35df39" stroke="#03aa10" /><rect x="508.0" y="49.5" width="12.0" height="3" fill="#ff83f4" stroke="#d002bc" /><rect x="456" y="49.5" width="64" height="3" fill="#ff72e7" stroke="#7c7c7c" /><rect x="456.0" y="98.5" width="12.0" height="3" fill="#ff3c3c" stroke="#c71f1f" /><rect x="469.0" y="98.5" width="12.0" height="3" fill="#35df39" stroke="#03aa10" /><rect x="469.0" y="148.0" width="12.0" height="3" fill="#35df39" stroke="#03aa10" /><rect x="482.0" y="148.0" width="12.0" height="3" fill="#80c9ff" stroke="#0b6cba" /><rect x="456.0" y="197.5" width="12.0" height="178.20000000000002" fill="#ff3c3c" stroke="#c71f1f" /><rect x="469.0" y="197.5" width="12.0" height="178.20000000000002" fill="#35df39" stroke="#03aa10" /><rect x="456.0" y="395.5" width="12.0" height="3" fill="#ff3c3c" stroke="#c71f1f" /><rect x="469.0" y="395.5" width="12.0" height="3" fill="#35df39" stroke="#03aa10" /><rect x="469.0" y="494.5" width="12.0" height="3" fill="#35df39" stroke="#03aa10" /><rect x="482.0" y="494.5" width="12.0" height="3" fill="#80c9ff" stroke="#0b6cba" /><rect x="482.0" y="544.0" width="12.0" height="3" fill="#80c9ff" stroke="#0b6cba" /><rect x="495.0" y="544.0" width="12.0" height="3" fill="#fff874" stroke="#eb9c26" /><rect x="508.0" y="593.0" width="12.0" height="3" fill="#ff83f4" stroke="#d002bc" /><rect x="456" y="593.0" width="64" height="3" fill="#ff72e7" stroke="#7c7c7c" /><rect x="482.0" y="692.0" width="12.0" height="3" fill="#80c9ff" stroke="#0b6cba" /><rect x="495.0" y="692.0" width="12.0" height="3" fill="#fff874" stroke="#eb9c26" /><rect x="609.0" y="0.0" width="12.0" height="3" fill="#fff874" stroke="#eb9c26" /><rect x="622.0" y="0.0" width="12.0" height="3" fill="#ff83f4" stroke="#d002bc" /><rect x="596.0" y="49.5" width="12.0" height="3" fill="#80c9ff" stroke="#0b6cba" /><rect x="609.0" y="49.5" width="12.0" height="3" fill="#fff874" stroke="#eb9c26" /><rect x="609.0" y="99.0" width="12.0" height="3" fill="#fff874" stroke="#eb9c26" /><rect x="622.0" y="99.0" width="12.0" height="3" fill="#ff83f4" stroke="#d002bc" /><rect x="596.0" y="148.5" width="12.0" height="3" fill="#80c9ff" stroke="#0b6cba" /><rect x="609.0" y="148.5" width="12.0" height="3" fill="#fff874" stroke="#eb9c26" /><rect x="583.0" y="198.0" width="12.0" height="3" fill="#35df39" stroke="#03aa10" /><rect x="596.0" y="198.0" width="12.0" height="3" fill="#80c9ff" stroke="#0b6cba" /><rect x="596.0" y="346.0" width="12.0" height="3" fill="#80c9ff" stroke="#0b6cba" /><rect x="609.0" y="346.0" width="12.0" height="3" fill="#fff874" stroke="#eb9c26" /><rect x="583.0" y="371.0" width="12.0" height="3" fill="#35df39" stroke="#03aa10" /><rect x="596.0" y="371.0" width="12.0" height="3" fill="#80c9ff" stroke="#0b6cba" /><rect x="570.0" y="395.5" width="12.0" height="3" fill="#ff3c3c" stroke="#c71f1f" /><rect x="583.0" y="395.5" width="12.0" height="3" fill="#35df39" stroke="#03aa10" /><rect x="583.0" y="494.5" width="12.0" height="3" fill="#35df39" stroke="#03aa10" /><rect x="596.0" y="494.5" width="12.0" height="3" fill="#80c9ff" stroke="#0b6cba" /><rect x="622.0" y="544.0" width="12.0" height="3" fill="#ff83f4" stroke="#d002bc" /><rect x="570" y="544.0" width="64" height="3" fill="#ff72e7" stroke="#7c7c7c" /><rect x="596.0" y="593.5" width="12.0" height="3" fill="#80c9ff" stroke="#0b6cba" /><rect x="609.0" y="593.5" width="12.0" height="3" fill="#fff874" stroke="#eb9c26" /><rect x="583.0" y="692.5" width="12.0" height="3" fill="#35df39" stroke="#03aa10" /><rect x="596.0" y="692.5" width="12.0" height="3" fill="#80c9ff" stroke="#0b6cba" /><rect x="684.0" y="0.0" width="12.0" height="3" fill="#ff3c3c" stroke="#c71f1f" /><rect x="697.0" y="0.0" width="12.0" height="3" fill="#35df39" stroke="#03aa10" /><rect x="697.0" y="74.5" width="12.0" height="3" fill="#35df39" stroke="#03aa10" /><rect x="710.0" y="74.5" width="12.0" height="3" fill="#80c9ff" stroke="#0b6cba" /><rect x="697.0" y="87.0" width="12.0" height="3" fill="#35df39" stroke="#03aa10" /><rect x="710.0" y="87.0" width="12.0" height="3" fill="#80c9ff" stroke="#0b6cba" /><rect x="697.0" y="99.0" width="12.0" height="3" fill="#35df39" stroke="#03aa10" /><rect x="723.0" y="99.0" width="12.0" height="3" fill="#fff874" stroke="#eb9c26" /><rect x="710.0" y="173.5" width="12.0" height="3" fill="#80c9ff" stroke="#0b6cba" /><rect x="723.0" y="173.5" width="12.0" height="3" fill="#fff874" stroke="#eb9c26" /><rect x="710.0" y="198.0" width="12.0" height="267.3" fill="#80c9ff" stroke="#0b6cba" /><rect x="736.0" y="198.0" width="12.0" height="267.3" fill="#ff83f4" stroke="#d002bc" /><rect x="684.0" y="495.0" width="12.0" height="3" fill="#ff3c3c" stroke="#c71f1f" /><rect x="697.0" y="495.0" width="12.0" height="3" fill="#35df39" stroke="#03aa10" /><rect x="684.0" y="519.5" width="12.0" height="3" fill="#ff3c3c" stroke="#c71f1f" /><rect x="697.0" y="519.5" width="12.0" height="3" fill="#35df39" stroke="#03aa10" /><rect x="697.0" y="544.0" width="12.0" height="3" fill="#35df39" stroke="#03aa10" /><rect x="710.0" y="544.0" width="12.0" height="3" fill="#80c9ff" stroke="#0b6cba" /><rect x="697.0" y="569.0" width="12.0" height="3" fill="#35df39" stroke="#03aa10" /><rect x="710.0" y="569.0" width="12.0" height="3" fill="#80c9ff" stroke="#0b6cba" /><rect x="697.0" y="593.5" width="12.0" height="198.0" fill="#35df39" stroke="#03aa10" /><rect x="723.0" y="593.5" width="12.0" height="198.0" fill="#fff874" stroke="#eb9c26" /><rect x="837.0" y="198.0" width="12.0" height="3" fill="#fff874" stroke="#eb9c26" /><rect x="850.0" y="198.0" width="12.0" height="3" fill="#ff83f4" stroke="#d002bc" /><rect x="824.0" y="272.0" width="12.0" height="3" fill="#80c9ff" stroke="#0b6cba" /><rect x="837.0" y="272.0" width="12.0" height="3" fill="#fff874" stroke="#eb9c26" /><rect x="837.0" y="346.0" width="12.0" height="222.75" fill="#fff874" stroke="#eb9c26" /><rect x="850.0" y="346.0" width="12.0" height="222.75" fill="#ff83f4" stroke="#d002bc" /><rect x="850.0" y="593.5" width="12.0" height="3" fill="#ff83f4" stroke="#d002bc" /><rect x="798" y="593.5" width="64" height="3" fill="#ff72e7" stroke="#7c7c7c" /><rect x="850.0" y="618.0" width="12.0" height="3" fill="#ff83f4" stroke="#d002bc" /><rect x="798" y="618.0" width="64" height="3" fill="#ff72e7" stroke="#7c7c7c" /><rect x="811.0" y="643.0" width="12.0" height="3" fill="#35df39" stroke="#03aa10" /><rect x="811.0" y="667.5" width="12.0" height="3" fill="#35df39" stroke="#03aa10" /><rect x="824.0" y="692.5" width="12.0" height="3" fill="#80c9ff" stroke="#0b6cba" /><rect x="824.0" y="717.0" width="12.0" height="3" fill="#80c9ff" stroke="#0b6cba" /><rect x="811.0" y="741.5" width="12.0" height="3" fill="#35df39" stroke="#03aa10" /><rect x="837.0" y="741.5" width="12.0" height="3" fill="#fff874" stroke="#eb9c26" /><rect x="811.0" y="766.5" width="12.0" height="3" fill="#35df39" stroke="#03aa10" /><rect x="837.0" y="766.5" width="12.0" height="3" fill="#fff874" stroke="#eb9c26" /><rect x="811.0" y="0.0" width="12.0" height="89.10000000000001" fill="#35df39" stroke="#03aa10" /><rect x="837.0" y="0.0" width="12.0" height="89.10000000000001" fill="#fff874" stroke="#eb9c26" /><rect x="964.0" y="0.0" width="12.0" height="3" fill="#ff83f4" stroke="#d002bc" /><rect x="912" y="0.0" width="64" height="3" fill="#ff72e7" stroke="#7c7c7c" /><rect x="964.0" y="25.0" width="12.0" height="3" fill="#ff83f4" stroke="#d002bc" /><rect x="912" y="25.0" width="64" height="3" fill="#ff72e7" stroke="#7c7c7c" /><rect x="925.0" y="49.5" width="12.0" height="3" fill="#35df39" stroke="#03aa10" /><rect x="938.0" y="74.5" width="12.0" height="3" fill="#80c9ff" stroke="#0b6cba" /><rect x="938.0" y="124.0" width="12.0" height="3" fill="#80c9ff" stroke="#0b6cba" /><rect x="925.0" y="148.5" width="12.0" height="3" fill="#35df39" stroke="#03aa10" /><rect x="925.0" y="173.0" width="12.0" height="3" fill="#35df39" stroke="#03aa10" /><rect x="964.0" y="198.0" width="12.0" height="3" fill="#ff83f4" stroke="#d002bc" /><rect x="912" y="198.0" width="64" height="3" fill="#ff72e7" stroke="#7c7c7c" /><rect x="964.0" y="222.5" width="12.0" height="3" fill="#ff83f4" stroke="#d002bc" /><rect x="912" y="222.5" width="64" height="3" fill="#ff72e7" stroke="#7c7c7c" /><rect x="925.0" y="247.5" width="12.0" height="3" fill="#35df39" stroke="#03aa10" /><rect x="925.0" y="272.0" width="12.0" height="3" fill="#35df39" stroke="#03aa10" /><rect x="938.0" y="297.0" width="12.0" height="3" fill="#80c9ff" stroke="#0b6cba" /><rect x="938.0" y="321.5" width="12.0" height="3" fill="#80c9ff" stroke="#0b6cba" /><rect x="925.0" y="346.5" width="12.0" height="3" fill="#35df39" stroke="#03aa10" /><rect x="951.0" y="346.5" width="12.0" height="3" fill="#fff874" stroke="#eb9c26" /><rect x="925.0" y="371.0" width="12.0" height="3" fill="#35df39" stroke="#03aa10" /><rect x="951.0" y="371.0" width="12.0" height="3" fill="#fff874" stroke="#eb9c26" /><rect x="964.0" y="396.0" width="12.0" height="3" fill="#ff83f4" stroke="#d002bc" /><rect x="912" y="396.0" width="64" height="3" fill="#ff72e7" stroke="#7c7c7c" /><rect x="964.0" y="420.5" width="12.0" height="3" fill="#ff83f4" stroke="#d002bc" /><rect x="912" y="420.5" width="64" height="3" fill="#ff72e7" stroke="#7c7c7c" /><rect x="925.0" y="445.0" width="12.0" height="3" fill="#35df39" stroke="#03aa10" /><rect x="938.0" y="470.0" width="12.0" height="3" fill="#80c9ff" stroke="#0b6cba" /><rect x="938.0" y="519.5" width="12.0" height="3" fill="#80c9ff" stroke="#0b6cba" /><rect x="925.0" y="544.0" width="12.0" height="3" fill="#35df39" stroke="#03aa10" /><rect x="925.0" y="569.0" width="12.0" height="3" fill="#35df39" stroke="#03aa10" /><rect x="925.0" y="593.5" width="12.0" height="198.0" fill="#35df39" stroke="#03aa10" /><rect x="938.0" y="593.5" width="12.0" height="198.0" fill="#80c9ff" stroke="#0b6cba" /><rect x="1065.0" y="197.5" width="12.0" height="3" fill="#fff874" stroke="#eb9c26" /><rect x="1078.0" y="197.5" width="12.0" height="3" fill="#ff83f4" stroke="#d002bc" /><rect x="1052.0" y="272.0" width="12.0" height="3" fill="#80c9ff" stroke="#0b6cba" /><rect x="1065.0" y="272.0" width="12.0" height="3" fill="#fff874" stroke="#eb9c26" /><rect x="1065.0" y="346.0" width="12.0" height="222.75" fill="#fff874" stroke="#eb9c26" /><rect x="1078.0" y="346.0" width="12.0" height="222.75" fill="#ff83f4" stroke="#d002bc" /><rect x="1078.0" y="593.5" width="12.0" height="3" fill="#ff83f4" stroke="#d002bc" /><rect x="1026" y="593.5" width="64" height="3" fill="#ff72e7" stroke="#7c7c7c" /><rect x="1078.0" y="618.0" width="12.0" height="3" fill="#ff83f4" stroke="#d002bc" /><rect x="1026" y="618.0" width="64" height="3" fill="#ff72e7" stroke="#7c7c7c" /><rect x="1039.0" y="642.5" width="12.0" height="3" fill="#35df39" stroke="#03aa10" /><rect x="1039.0" y="667.5" width="12.0" height="3" fill="#35df39" stroke="#03aa10" /><rect x="1052.0" y="692.0" width="12.0" height="3" fill="#80c9ff" stroke="#0b6cba" /><rect x="1052.0" y="717.0" width="12.0" height="3" fill="#80c9ff" stroke="#0b6cba" /><rect x="1039.0" y="741.5" width="12.0" height="3" fill="#35df39" stroke="#03aa10" /><rect x="1065.0" y="741.5" width="12.0" height="3" fill="#fff874" stroke="#eb9c26" /><rect x="1039.0" y="766.5" width="12.0" height="3" fill="#35df39" stroke="#03aa10" /><rect x="1065.0" y="766.5" width="12.0" height="3" fill="#fff874" stroke="#eb9c26" /><rect x="1039.0" y="0.0" width="12.0" height="88.7626422250316" fill="#35df39" stroke="#03aa10" /><rect x="1052.0" y="0.0" width="12.0" height="88.7626422250316" fill="#80c9ff" stroke="#0b6cba" /><rect x="1192.0" y="0.0" width="12.0" height="3" fill="#ff83f4" stroke="#d002bc" /><rect x="1140" y="0.0" width="64" height="3" fill="#ff72e7" stroke="#7c7c7c" /><rect x="1192.0" y="25.0" width="12.0" height="3" fill="#ff83f4" stroke="#d002bc" /><rect x="1140" y="25.0" width="64" height="3" fill="#ff72e7" stroke="#7c7c7c" /><rect x="1153.0" y="49.5" width="12.0" height="3" fill="#35df39" stroke="#03aa10" /><rect x="1166.0" y="74.5" width="12.0" height="3" fill="#80c9ff" stroke="#0b6cba" /><rect x="1166.0" y="123.5" width="12.0" height="3" fill="#80c9ff" stroke="#0b6cba" /><rect x="1153.0" y="148.5" width="12.0" height="3" fill="#35df39" stroke="#03aa10" /><rect x="1153.0" y="173.0" width="12.0" height="3" fill="#35df39" stroke="#03aa10" /><rect x="1192.0" y="198.0" width="12.0" height="3" fill="#ff83f4" stroke="#d002bc" /><rect x="1140" y="198.0" width="64" height="3" fill="#ff72e7" stroke="#7c7c7c" /><rect x="1192.0" y="222.5" width="12.0" height="3" fill="#ff83f4" stroke="#d002bc" /><rect x="1140" y="222.5" width="64" height="3" fill="#ff72e7" stroke="#7c7c7c" /><rect x="1153.0" y="247.5" width="12.0" height="3" fill="#35df39" stroke="#03aa10" /><rect x="1153.0" y="272.0" width="12.0" height="3" fill="#35df39" stroke="#03aa10" /><rect x="1166.0" y="297.0" width="12.0" height="3" fill="#80c9ff" stroke="#0b6cba" /><rect x="1166.0" y="321.5" width="12.0" height="3" fill="#80c9ff" stroke="#0b6cba" /><rect x="1153.0" y="346.0" width="12.0" height="3" fill="#35df39" stroke="#03aa10" /><rect x="1179.0" y="346.0" width="12.0" height="3" fill="#fff874" stroke="#eb9c26" /><rect x="1153.0" y="371.0" width="12.0" height="3" fill="#35df39" stroke="#03aa10" /><rect x="1179.0" y="371.0" width="12.0" height="3" fill="#fff874" stroke="#eb9c26" /><rect x="1192.0" y="395.5" width="12.0" height="3" fill="#ff83f4" stroke="#d002bc" /><rect x="1140" y="395.5" width="64" height="3" fill="#ff72e7" stroke="#7c7c7c" /><rect x="1192.0" y="420.5" width="12.0" height="3" fill="#ff83f4" stroke="#d002bc" /><rect x="1140" y="420.5" width="64" height="3" fill="#ff72e7" stroke="#7c7c7c" /><rect x="1166.0" y="445.0" width="12.0" height="3" fill="#80c9ff" stroke="#0b6cba" /><rect x="1192.0" y="470.0" width="12.0" height="3" fill="#ff83f4" stroke="#d002bc" /><rect x="1192.0" y="519.5" width="12.0" height="3" fill="#ff83f4" stroke="#d002bc" /><rect x="1179.0" y="544.0" width="12.0" height="3" fill="#fff874" stroke="#eb9c26" /><rect x="1166.0" y="569.0" width="12.0" height="3" fill="#80c9ff" stroke="#0b6cba" /><rect x="1166.0" y="593.5" width="12.0" height="3" fill="#80c9ff" stroke="#0b6cba" /><rect x="1192.0" y="593.5" width="12.0" height="3" fill="#ff83f4" stroke="#d002bc" /><rect x="1166.0" y="643.0" width="12.0" height="3" fill="#80c9ff" stroke="#0b6cba" /><rect x="1192.0" y="643.0" width="12.0" height="3" fill="#ff83f4" stroke="#d002bc" /><rect x="1166.0" y="667.5" width="12.0" height="3" fill="#80c9ff" stroke="#0b6cba" /><rect x="1192.0" y="667.5" width="12.0" height="3" fill="#ff83f4" stroke="#d002bc" /><rect x="1166.0" y="692.5" width="12.0" height="3" fill="#80c9ff" stroke="#0b6cba" /><rect x="1192.0" y="692.5" width="12.0" height="3" fill="#ff83f4" stroke="#d002bc" /><rect x="1166.0" y="717.0" width="12.0" height="3" fill="#80c9ff" stroke="#0b6cba" /><rect x="1192.0" y="717.0" width="12.0" height="3" fill="#ff83f4" stroke="#d002bc" /><rect x="1166.0" y="766.5" width="12.0" height="3" fill="#80c9ff" stroke="#0b6cba" /><rect x="1179.0" y="766.5" width="12.0" height="3" fill="#fff874" stroke="#eb9c26" /><rect x="1280.0" y="24.5" width="12.0" height="3" fill="#80c9ff" stroke="#0b6cba" /><rect x="1293.0" y="24.5" width="12.0" height="3" fill="#fff874" stroke="#eb9c26" /><rect x="1280.0" y="74.0" width="12.0" height="3" fill="#80c9ff" stroke="#0b6cba" /><rect x="1293.0" y="74.0" width="12.0" height="3" fill="#fff874" stroke="#eb9c26" /><rect x="1280.0" y="123.5" width="12.0" height="3" fill="#80c9ff" stroke="#0b6cba" /><rect x="1293.0" y="123.5" width="12.0" height="3" fill="#fff874" stroke="#eb9c26" /><rect x="1280.0" y="148.0" width="12.0" height="3" fill="#80c9ff" stroke="#0b6cba" /><rect x="1293.0" y="148.0" width="12.0" height="3" fill="#fff874" stroke="#eb9c26" /><rect x="1293.0" y="173.0" width="12.0" height="3" fill="#fff874" stroke="#eb9c26" /><rect x="1293.0" y="185.0" width="12.0" height="3" fill="#fff874" stroke="#eb9c26" /><rect x="1267.0" y="197.5" width="12.0" height="3" fill="#35df39" stroke="#03aa10" /><rect x="1293.0" y="197.5" width="12.0" height="3" fill="#fff874" stroke="#eb9c26" /><rect x="1267.0" y="247.0" width="12.0" height="3" fill="#35df39" stroke="#03aa10" /><rect x="1293.0" y="247.0" width="12.0" height="3" fill="#fff874" stroke="#eb9c26" /><rect x="1267.0" y="272.0" width="12.0" height="3" fill="#35df39" stroke="#03aa10" /><rect x="1293.0" y="272.0" width="12.0" height="3" fill="#fff874" stroke="#eb9c26" /><rect x="1267.0" y="296.5" width="12.0" height="3" fill="#35df39" stroke="#03aa10" /><rect x="1293.0" y="296.5" width="12.0" height="3" fill="#fff874" stroke="#eb9c26" /><rect x="1267.0" y="321.0" width="12.0" height="3" fill="#35df39" stroke="#03aa10" /><rect x="1293.0" y="321.0" width="12.0" height="3" fill="#fff874" stroke="#eb9c26" /><rect x="1280.0" y="370.5" width="12.0" height="3" fill="#80c9ff" stroke="#0b6cba" /><rect x="1293.0" y="370.5" width="12.0" height="3" fill="#fff874" stroke="#eb9c26" /><rect x="1280.0" y="420.0" width="12.0" height="3" fill="#80c9ff" stroke="#0b6cba" /><rect x="1293.0" y="420.0" width="12.0" height="3" fill="#fff874" stroke="#eb9c26" /><rect x="1280.0" y="469.5" width="12.0" height="3" fill="#80c9ff" stroke="#0b6cba" /><rect x="1293.0" y="469.5" width="12.0" height="3" fill="#fff874" stroke="#eb9c26" /><rect x="1280.0" y="519.0" width="12.0" height="3" fill="#80c9ff" stroke="#0b6cba" /><rect x="1293.0" y="519.0" width="12.0" height="3" fill="#fff874" stroke="#eb9c26" /><rect x="1280.0" y="543.5" width="12.0" height="3" fill="#80c9ff" stroke="#0b6cba" /><rect x="1293.0" y="543.5" width="12.0" height="3" fill="#fff874" stroke="#eb9c26" /><rect x="1293.0" y="568.5" width="12.0" height="3" fill="#fff874" stroke="#eb9c26" /><rect x="1293.0" y="581.0" width="12.0" height="3" fill="#fff874" stroke="#eb9c26" /><rect x="1267.0" y="593.0" width="12.0" height="3" fill="#35df39" stroke="#03aa10" /><rect x="1293.0" y="593.0" width="12.0" height="3" fill="#fff874" stroke="#eb9c26" /><rect x="1267.0" y="642.5" width="12.0" height="3" fill="#35df39" stroke="#03aa10" /><rect x="1293.0" y="642.5" width="12.0" height="3" fill="#fff874" stroke="#eb9c26" /><rect x="1267.0" y="667.5" width="12.0" height="3" fill="#35df39" stroke="#03aa10" /><rect x="1293.0" y="667.5" width="12.0" height="3" fill="#fff874" stroke="#eb9c26" /><rect x="1267.0" y="692.0" width="12.0" height="3" fill="#35df39" stroke="#03aa10" /><rect x="1293.0" y="692.0" width="12.0" height="3" fill="#fff874" stroke="#eb9c26" /><rect x="1267.0" y="717.0" width="12.0" height="3" fill="#35df39" stroke="#03aa10" /><rect x="1293.0" y="717.0" width="12.0" height="3" fill="#fff874" stroke="#eb9c26" /><rect x="1280.0" y="766.5" width="12.0" height="3" fill="#80c9ff" stroke="#0b6cba" /><rect x="1293.0" y="766.5" width="12.0" height="3" fill="#fff874" stroke="#eb9c26" /><rect x="1394.0" y="24.5" width="12.0" height="3" fill="#80c9ff" stroke="#0b6cba" /><rect x="1407.0" y="24.5" width="12.0" height="3" fill="#fff874" stroke="#eb9c26" /><rect x="1394.0" y="74.0" width="12.0" height="3" fill="#80c9ff" stroke="#0b6cba" /><rect x="1407.0" y="74.0" width="12.0" height="3" fill="#fff874" stroke="#eb9c26" /><rect x="1394.0" y="123.5" width="12.0" height="3" fill="#80c9ff" stroke="#0b6cba" /><rect x="1407.0" y="123.5" width="12.0" height="3" fill="#fff874" stroke="#eb9c26" /><rect x="1394.0" y="148.5" width="12.0" height="3" fill="#80c9ff" stroke="#0b6cba" /><rect x="1407.0" y="148.5" width="12.0" height="3" fill="#fff874" stroke="#eb9c26" /><rect x="1407.0" y="173.0" width="12.0" height="3" fill="#fff874" stroke="#eb9c26" /><rect x="1407.0" y="185.5" width="12.0" height="3" fill="#fff874" stroke="#eb9c26" /><rect x="1381.0" y="198.0" width="12.0" height="3" fill="#35df39" stroke="#03aa10" /><rect x="1407.0" y="198.0" width="12.0" height="3" fill="#fff874" stroke="#eb9c26" /><rect x="1381.0" y="247.0" width="12.0" height="3" fill="#35df39" stroke="#03aa10" /><rect x="1394.0" y="247.0" width="12.0" height="3" fill="#80c9ff" stroke="#0b6cba" /><rect x="1381.0" y="272.0" width="12.0" height="3" fill="#35df39" stroke="#03aa10" /><rect x="1394.0" y="272.0" width="12.0" height="3" fill="#80c9ff" stroke="#0b6cba" /><rect x="1381.0" y="296.5" width="12.0" height="3" fill="#35df39" stroke="#03aa10" /><rect x="1394.0" y="296.5" width="12.0" height="3" fill="#80c9ff" stroke="#0b6cba" /><rect x="1381.0" y="321.5" width="12.0" height="3" fill="#35df39" stroke="#03aa10" /><rect x="1394.0" y="321.5" width="12.0" height="3" fill="#80c9ff" stroke="#0b6cba" /><rect x="1381.0" y="346.0" width="12.0" height="3" fill="#35df39" stroke="#03aa10" /><rect x="1394.0" y="346.0" width="12.0" height="3" fill="#80c9ff" stroke="#0b6cba" /><rect x="1381.0" y="371.0" width="12.0" height="3" fill="#35df39" stroke="#03aa10" /><rect x="1381.0" y="420.5" width="12.0" height="3" fill="#35df39" stroke="#03aa10" /><rect x="1381.0" y="445.0" width="12.0" height="3" fill="#35df39" stroke="#03aa10" /><rect x="1394.0" y="445.0" width="12.0" height="3" fill="#80c9ff" stroke="#0b6cba" /><rect x="1381.0" y="470.0" width="12.0" height="3" fill="#35df39" stroke="#03aa10" /><rect x="1394.0" y="470.0" width="12.0" height="3" fill="#80c9ff" stroke="#0b6cba" /><rect x="1381.0" y="494.5" width="12.0" height="3" fill="#35df39" stroke="#03aa10" /><rect x="1381.0" y="519.0" width="12.0" height="3" fill="#35df39" stroke="#03aa10" /><rect x="1381.0" y="544.0" width="12.0" height="3" fill="#35df39" stroke="#03aa10" /><rect x="1394.0" y="544.0" width="12.0" height="3" fill="#80c9ff" stroke="#0b6cba" /><rect x="1381.0" y="568.5" width="12.0" height="3" fill="#35df39" stroke="#03aa10" /><rect x="1394.0" y="568.5" width="12.0" height="3" fill="#80c9ff" stroke="#0b6cba" /><rect x="1381.0" y="593.5" width="12.0" height="3" fill="#35df39" stroke="#03aa10" /><rect x="1407.0" y="593.5" width="12.0" height="3" fill="#fff874" stroke="#eb9c26" /><rect x="1381.0" y="643.0" width="12.0" height="3" fill="#35df39" stroke="#03aa10" /><rect x="1407.0" y="643.0" width="12.0" height="3" fill="#fff874" stroke="#eb9c26" /><rect x="1381.0" y="667.5" width="12.0" height="3" fill="#35df39" stroke="#03aa10" /><rect x="1407.0" y="667.5" width="12.0" height="3" fill="#fff874" stroke="#eb9c26" /><rect x="1381.0" y="692.5" width="12.0" height="3" fill="#35df39" stroke="#03aa10" /><rect x="1407.0" y="692.5" width="12.0" height="3" fill="#fff874" stroke="#eb9c26" /><rect x="1381.0" y="717.0" width="12.0" height="3" fill="#35df39" stroke="#03aa10" /><rect x="1407.0" y="717.0" width="12.0" height="3" fill="#fff874" stroke="#eb9c26" /><rect x="1394.0" y="766.5" width="12.0" height="3" fill="#80c9ff" stroke="#0b6cba" /><rect x="1407.0" y="766.5" width="12.0" height="3" fill="#fff874" stroke="#eb9c26" /><rect x="1508.0" y="25.0" width="12.0" height="3" fill="#80c9ff" stroke="#0b6cba" /><rect x="1521.0" y="25.0" width="12.0" height="3" fill="#fff874" stroke="#eb9c26" /><rect x="1508.0" y="74.5" width="12.0" height="3" fill="#80c9ff" stroke="#0b6cba" /><rect x="1521.0" y="74.5" width="12.0" height="3" fill="#fff874" stroke="#eb9c26" /><rect x="1508.0" y="124.0" width="12.0" height="3" fill="#80c9ff" stroke="#0b6cba" /><rect x="1521.0" y="124.0" width="12.0" height="3" fill="#fff874" stroke="#eb9c26" /><rect x="1508.0" y="148.5" width="12.0" height="3" fill="#80c9ff" stroke="#0b6cba" /><rect x="1521.0" y="148.5" width="12.0" height="3" fill="#fff874" stroke="#eb9c26" /><rect x="1521.0" y="173.5" width="12.0" height="3" fill="#fff874" stroke="#eb9c26" /><rect x="1521.0" y="185.5" width="12.0" height="3" fill="#fff874" stroke="#eb9c26" /><rect x="1495.0" y="198.0" width="12.0" height="3" fill="#35df39" stroke="#03aa10" /><rect x="1521.0" y="198.0" width="12.0" height="3" fill="#fff874" stroke="#eb9c26" /><rect x="1495.0" y="247.5" width="12.0" height="3" fill="#35df39" stroke="#03aa10" /><rect x="1521.0" y="247.5" width="12.0" height="3" fill="#fff874" stroke="#eb9c26" /><rect x="1495.0" y="272.0" width="12.0" height="3" fill="#35df39" stroke="#03aa10" /><rect x="1521.0" y="272.0" width="12.0" height="3" fill="#fff874" stroke="#eb9c26" /><rect x="1495.0" y="297.0" width="12.0" height="3" fill="#35df39" stroke="#03aa10" /><rect x="1521.0" y="297.0" width="12.0" height="3" fill="#fff874" stroke="#eb9c26" /><rect x="1495.0" y="321.5" width="12.0" height="3" fill="#35df39" stroke="#03aa10" /><rect x="1521.0" y="321.5" width="12.0" height="3" fill="#fff874" stroke="#eb9c26" /><rect x="1508.0" y="371.0" width="12.0" height="3" fill="#80c9ff" stroke="#0b6cba" /><rect x="1521.0" y="371.0" width="12.0" height="3" fill="#fff874" stroke="#eb9c26" /><rect x="1508.0" y="420.5" width="12.0" height="3" fill="#80c9ff" stroke="#0b6cba" /><rect x="1521.0" y="420.5" width="12.0" height="3" fill="#fff874" stroke="#eb9c26" /><rect x="1508.0" y="470.0" width="12.0" height="3" fill="#80c9ff" stroke="#0b6cba" /><rect x="1521.0" y="470.0" width="12.0" height="3" fill="#fff874" stroke="#eb9c26" /><rect x="1508.0" y="519.5" width="12.0" height="3" fill="#80c9ff" stroke="#0b6cba" /><rect x="1521.0" y="519.5" width="12.0" height="3" fill="#fff874" stroke="#eb9c26" /><rect x="1508.0" y="544.0" width="12.0" height="3" fill="#80c9ff" stroke="#0b6cba" /><rect x="1521.0" y="544.0" width="12.0" height="3" fill="#fff874" stroke="#eb9c26" /><rect x="1521.0" y="569.0" width="12.0" height="3" fill="#fff874" stroke="#eb9c26" /><rect x="1521.0" y="581.0" width="12.0" height="3" fill="#fff874" stroke="#eb9c26" /><rect x="1495.0" y="593.5" width="12.0" height="3" fill="#35df39" stroke="#03aa10" /><rect x="1521.0" y="593.5" width="12.0" height="3" fill="#fff874" stroke="#eb9c26" /><rect x="1495.0" y="643.0" width="12.0" height="3" fill="#35df39" stroke="#03aa10" /><rect x="1521.0" y="643.0" width="12.0" height="3" fill="#fff874" stroke="#eb9c26" /><rect x="1495.0" y="668.0" width="12.0" height="3" fill="#35df39" stroke="#03aa10" /><rect x="1521.0" y="668.0" width="12.0" height="3" fill="#fff874" stroke="#eb9c26" /><rect x="1495.0" y="692.5" width="12.0" height="3" fill="#35df39" stroke="#03aa10" /><rect x="1521.0" y="692.5" width="12.0" height="3" fill="#fff874" stroke="#eb9c26" /><rect x="1495.0" y="717.0" width="12.0" height="3" fill="#35df39" stroke="#03aa10" /><rect x="1521.0" y="717.0" width="12.0" height="3" fill="#fff874" stroke="#eb9c26" /><rect x="1508.0" y="766.5" width="12.0" height="3" fill="#80c9ff" stroke="#0b6cba" /><rect x="1521.0" y="766.5" width="12.0" height="3" fill="#fff874" stroke="#eb9c26" /><rect x="1622.0" y="24.5" width="12.0" height="3" fill="#80c9ff" stroke="#0b6cba" /><rect x="1635.0" y="24.5" width="12.0" height="3" fill="#fff874" stroke="#eb9c26" /><rect x="1622.0" y="74.0" width="12.0" height="3" fill="#80c9ff" stroke="#0b6cba" /><rect x="1635.0" y="74.0" width="12.0" height="3" fill="#fff874" stroke="#eb9c26" /><rect x="1622.0" y="123.5" width="12.0" height="3" fill="#80c9ff" stroke="#0b6cba" /><rect x="1635.0" y="123.5" width="12.0" height="3" fill="#fff874" stroke="#eb9c26" /><rect x="1622.0" y="148.5" width="12.0" height="3" fill="#80c9ff" stroke="#0b6cba" /><rect x="1635.0" y="148.5" width="12.0" height="3" fill="#fff874" stroke="#eb9c26" /><rect x="1622.0" y="173.0" width="12.0" height="3" fill="#80c9ff" stroke="#0b6cba" /><rect x="1622.0" y="185.5" width="12.0" height="3" fill="#80c9ff" stroke="#0b6cba" /><rect x="1622.0" y="197.5" width="12.0" height="3" fill="#80c9ff" stroke="#0b6cba" /><rect x="1648.0" y="197.5" width="12.0" height="3" fill="#ff83f4" stroke="#d002bc" /><rect x="1622.0" y="247.0" width="12.0" height="3" fill="#80c9ff" stroke="#0b6cba" /><rect x="1622.0" y="296.5" width="12.0" height="3" fill="#80c9ff" stroke="#0b6cba" /><rect x="1648.0" y="296.5" width="12.0" height="3" fill="#ff83f4" stroke="#d002bc" /><rect x="1622.0" y="346.0" width="12.0" height="3" fill="#80c9ff" stroke="#0b6cba" /><rect x="1622.0" y="395.5" width="12.0" height="3" fill="#80c9ff" stroke="#0b6cba" /><rect x="1648.0" y="395.5" width="12.0" height="3" fill="#ff83f4" stroke="#d002bc" /><rect x="1622.0" y="420.0" width="12.0" height="3" fill="#80c9ff" stroke="#0b6cba" /><rect x="1648.0" y="420.0" width="12.0" height="3" fill="#ff83f4" stroke="#d002bc" /><rect x="1622.0" y="469.5" width="12.0" height="3" fill="#80c9ff" stroke="#0b6cba" /><rect x="1635.0" y="469.5" width="12.0" height="3" fill="#fff874" stroke="#eb9c26" /><rect x="1648.0" y="519.0" width="12.0" height="3" fill="#ff83f4" stroke="#d002bc" /><rect x="1596" y="519.0" width="64" height="3" fill="#ff72e7" stroke="#7c7c7c" /><rect x="1609.0" y="544.0" width="12.0" height="3" fill="#35df39" stroke="#03aa10" /><rect x="1635.0" y="544.0" width="12.0" height="3" fill="#fff874" stroke="#eb9c26" /><rect x="1609.0" y="568.5" width="12.0" height="3" fill="#35df39" stroke="#03aa10" /><rect x="1635.0" y="568.5" width="12.0" height="3" fill="#fff874" stroke="#eb9c26" /><rect x="1596.0" y="593.5" width="12.0" height="3" fill="#ff3c3c" stroke="#c71f1f" /><rect x="1609.0" y="593.5" width="12.0" height="3" fill="#35df39" stroke="#03aa10" /><rect x="1609.0" y="692.0" width="12.0" height="3" fill="#35df39" stroke="#03aa10" /><rect x="1622.0" y="692.0" width="12.0" height="3" fill="#80c9ff" stroke="#0b6cba" /><rect x="1622.0" y="741.5" width="12.0" height="3" fill="#80c9ff" stroke="#0b6cba" /><rect x="1635.0" y="741.5" width="12.0" height="3" fill="#fff874" stroke="#eb9c26" /><rect x="1762.0" y="0.0" width="12.0" height="3" fill="#ff83f4" stroke="#d002bc" /><rect x="1710" y="0.0" width="64" height="3" fill="#ff72e7" stroke="#7c7c7c" /><rect x="1736.0" y="99.0" width="12.0" height="3" fill="#80c9ff" stroke="#0b6cba" /><rect x="1749.0" y="99.0" width="12.0" height="3" fill="#fff874" stroke="#eb9c26" /><rect x="1749.0" y="198.0" width="12.0" height="3" fill="#fff874" stroke="#eb9c26" /><rect x="1762.0" y="198.0" width="12.0" height="3" fill="#ff83f4" stroke="#d002bc" /><rect x="1736.0" y="247.5" width="12.0" height="3" fill="#80c9ff" stroke="#0b6cba" /><rect x="1749.0" y="247.5" width="12.0" height="3" fill="#fff874" stroke="#eb9c26" /><rect x="1723.0" y="297.0" width="12.0" height="3" fill="#35df39" stroke="#03aa10" /><rect x="1736.0" y="297.0" width="12.0" height="3" fill="#80c9ff" stroke="#0b6cba" /><rect x="1736.0" y="346.5" width="12.0" height="3" fill="#80c9ff" stroke="#0b6cba" /><rect x="1749.0" y="346.5" width="12.0" height="3" fill="#fff874" stroke="#eb9c26" /><rect x="1723.0" y="395.5" width="12.0" height="3" fill="#35df39" stroke="#03aa10" /><rect x="1736.0" y="395.5" width="12.0" height="3" fill="#80c9ff" stroke="#0b6cba" /><rect x="1736.0" y="544.0" width="12.0" height="3" fill="#80c9ff" stroke="#0b6cba" /><rect x="1749.0" y="544.0" width="12.0" height="3" fill="#fff874" stroke="#eb9c26" /><rect x="1723.0" y="569.0" width="12.0" height="3" fill="#35df39" stroke="#03aa10" /><rect x="1736.0" y="569.0" width="12.0" height="3" fill="#80c9ff" stroke="#0b6cba" /><rect x="1710.0" y="593.5" width="12.0" height="3" fill="#ff3c3c" stroke="#c71f1f" /><rect x="1723.0" y="593.5" width="12.0" height="3" fill="#35df39" stroke="#03aa10" /><rect x="1723.0" y="692.5" width="12.0" height="3" fill="#35df39" stroke="#03aa10" /><rect x="1736.0" y="692.5" width="12.0" height="3" fill="#80c9ff" stroke="#0b6cba" /><rect x="1762.0" y="742.0" width="12.0" height="3" fill="#ff83f4" stroke="#d002bc" /><rect x="1710" y="742.0" width="64" height="3" fill="#ff72e7" stroke="#7c7c7c" /><rect x="1850.0" y="0.0" width="12.0" height="3" fill="#80c9ff" stroke="#0b6cba" /><rect x="1863.0" y="0.0" width="12.0" height="3" fill="#fff874" stroke="#eb9c26" /><rect x="1837.0" y="98.5" width="12.0" height="3" fill="#35df39" stroke="#03aa10" /><rect x="1850.0" y="98.5" width="12.0" height="3" fill="#80c9ff" stroke="#0b6cba" /><rect x="1824.0" y="197.5" width="12.0" height="3" fill="#ff3c3c" stroke="#c71f1f" /><rect x="1837.0" y="197.5" width="12.0" height="3" fill="#35df39" stroke="#03aa10" /><rect x="1876.0" y="247.0" width="12.0" height="3" fill="#ff83f4" stroke="#d002bc" /><rect x="1824" y="247.0" width="64" height="3" fill="#ff72e7" stroke="#7c7c7c" /><rect x="1837.0" y="296.5" width="12.0" height="3" fill="#35df39" stroke="#03aa10" /><rect x="1850.0" y="296.5" width="12.0" height="3" fill="#80c9ff" stroke="#0b6cba" /><rect x="1824.0" y="346.0" width="12.0" height="3" fill="#ff3c3c" stroke="#c71f1f" /><rect x="1837.0" y="346.0" width="12.0" height="3" fill="#35df39" stroke="#03aa10" /><rect x="1837.0" y="395.5" width="12.0" height="177.75" fill="#35df39" stroke="#03aa10" /><rect x="1850.0" y="395.5" width="12.0" height="177.75" fill="#80c9ff" stroke="#0b6cba" /><rect x="1824.0" y="593.0" width="12.0" height="3" fill="#ff3c3c" stroke="#c71f1f" /><rect x="1837.0" y="593.0" width="12.0" height="3" fill="#35df39" stroke="#03aa10" /><rect x="1837.0" y="692.0" width="12.0" height="3" fill="#35df39" stroke="#03aa10" /><rect x="1850.0" y="692.0" width="12.0" height="3" fill="#80c9ff" stroke="#0b6cba" /><rect x="1850.0" y="741.5" width="12.0" height="3" fill="#80c9ff" stroke="#0b6cba" /><rect x="1863.0" y="741.5" width="12.0" height="3" fill="#fff874" stroke="#eb9c26" /><rect x="1990.0" y="0.0" width="12.0" height="3" fill="#ff83f4" stroke="#d002bc" /><rect x="1938" y="0.0" width="64" height="3" fill="#ff72e7" stroke="#7c7c7c" /><rect x="1964.0" y="99.0" width="12.0" height="3" fill="#80c9ff" stroke="#0b6cba" /><rect x="1977.0" y="99.0" width="12.0" height="3" fill="#fff874" stroke="#eb9c26" /><rect x="1977.0" y="198.0" width="12.0" height="3" fill="#fff874" stroke="#eb9c26" /><rect x="1990.0" y="198.0" width="12.0" height="3" fill="#ff83f4" stroke="#d002bc" /><rect x="1964.0" y="247.5" width="12.0" height="3" fill="#80c9ff" stroke="#0b6cba" /><rect x="1977.0" y="247.5" width="12.0" height="3" fill="#fff874" stroke="#eb9c26" /><rect x="1977.0" y="296.5" width="12.0" height="3" fill="#fff874" stroke="#eb9c26" /><rect x="1990.0" y="296.5" width="12.0" height="3" fill="#ff83f4" stroke="#d002bc" /><rect x="1964.0" y="346.0" width="12.0" height="3" fill="#80c9ff" stroke="#0b6cba" /><rect x="1977.0" y="346.0" width="12.0" height="3" fill="#fff874" stroke="#eb9c26" /><rect x="1951.0" y="395.5" width="12.0" height="3" fill="#35df39" stroke="#03aa10" /><rect x="1964.0" y="395.5" width="12.0" height="3" fill="#80c9ff" stroke="#0b6cba" /><rect x="1964.0" y="544.0" width="12.0" height="3" fill="#80c9ff" stroke="#0b6cba" /><rect x="1977.0" y="544.0" width="12.0" height="3" fill="#fff874" stroke="#eb9c26" /><rect x="1951.0" y="568.5" width="12.0" height="3" fill="#35df39" stroke="#03aa10" /><rect x="1964.0" y="568.5" width="12.0" height="3" fill="#80c9ff" stroke="#0b6cba" /><rect x="1938.0" y="593.5" width="12.0" height="3" fill="#ff3c3c" stroke="#c71f1f" /><rect x="1951.0" y="593.5" width="12.0" height="3" fill="#35df39" stroke="#03aa10" /><rect x="1951.0" y="692.5" width="12.0" height="3" fill="#35df39" stroke="#03aa10" /><rect x="1964.0" y="692.5" width="12.0" height="3" fill="#80c9ff" stroke="#0b6cba" /><rect x="1990.0" y="742.0" width="12.0" height="3" fill="#ff83f4" stroke="#d002bc" /><rect x="1938" y="742.0" width="64" height="3" fill="#ff72e7" stroke="#7c7c7c" /><rect x="2078.0" y="0.0" width="12.0" height="3" fill="#80c9ff" stroke="#0b6cba" /><rect x="2091.0" y="0.0" width="12.0" height="3" fill="#fff874" stroke="#eb9c26" /><rect x="2065.0" y="99.0" width="12.0" height="3" fill="#35df39" stroke="#03aa10" /><rect x="2078.0" y="99.0" width="12.0" height="3" fill="#80c9ff" stroke="#0b6cba" /><rect x="2052.0" y="198.0" width="12.0" height="3" fill="#ff3c3c" stroke="#c71f1f" /><rect x="2065.0" y="198.0" width="12.0" height="3" fill="#35df39" stroke="#03aa10" /><rect x="2065.0" y="272.0" width="12.0" height="3" fill="#35df39" stroke="#03aa10" /><rect x="2078.0" y="272.0" width="12.0" height="3" fill="#80c9ff" stroke="#0b6cba" /><rect x="2065.0" y="284.5" width="12.0" height="3" fill="#35df39" stroke="#03aa10" /><rect x="2078.0" y="284.5" width="12.0" height="3" fill="#80c9ff" stroke="#0b6cba" /><rect x="2065.0" y="297.0" width="12.0" height="3" fill="#35df39" stroke="#03aa10" /><rect x="2091.0" y="297.0" width="12.0" height="3" fill="#fff874" stroke="#eb9c26" /><rect x="2078.0" y="371.0" width="12.0" height="3" fill="#80c9ff" stroke="#0b6cba" /><rect x="2091.0" y="371.0" width="12.0" height="3" fill="#fff874" stroke="#eb9c26" /><rect x="2078.0" y="396.0" width="12.0" height="395.5" fill="#80c9ff" stroke="#0b6cba" /><rect x="2104.0" y="396.0" width="12.0" height="395.5" fill="#ff83f4" stroke="#d002bc" /><rect x="2218.0" y="395.5" width="12.0" height="3" fill="#ff83f4" stroke="#d002bc" /><rect x="2166" y="395.5" width="64" height="3" fill="#ff72e7" stroke="#7c7c7c" /><rect x="2205.0" y="435.5" width="12.0" height="3" fill="#fff874" stroke="#eb9c26" /><rect x="2218.0" y="435.5" width="12.0" height="3" fill="#ff83f4" stroke="#d002bc" /><rect x="2192.0" y="475.5" width="12.0" height="3" fill="#80c9ff" stroke="#0b6cba" /><rect x="2205.0" y="475.5" width="12.0" height="3" fill="#fff874" stroke="#eb9c26" /><rect x="2218.0" y="532.0" width="12.0" height="3" fill="#ff83f4" stroke="#d002bc" /><rect x="2166" y="532.0" width="64" height="3" fill="#ff72e7" stroke="#7c7c7c" /><rect x="2192.0" y="586.5" width="12.0" height="3" fill="#80c9ff" stroke="#0b6cba" /><rect x="2205.0" y="586.5" width="12.0" height="3" fill="#fff874" stroke="#eb9c26" /><rect x="2179.0" y="653.0" width="12.0" height="3" fill="#35df39" stroke="#03aa10" /><rect x="2192.0" y="653.0" width="12.0" height="3" fill="#80c9ff" stroke="#0b6cba" /><rect x="2218.0" y="716.0" width="12.0" height="3" fill="#ff83f4" stroke="#d002bc" /><rect x="2166" y="716.0" width="64" height="3" fill="#ff72e7" stroke="#7c7c7c" /><rect x="2192.0" y="788.0" width="12.0" height="3" fill="#80c9ff" stroke="#0b6cba" /><rect x="2205.0" y="788.0" width="12.0" height="3" fill="#fff874" stroke="#eb9c26" /><rect x="2192.0" y="0.0" width="12.0" height="110.41575492341357" fill="#80c9ff" stroke="#0b6cba" /><rect x="2218.0" y="0.0" width="12.0" height="110.41575492341357" fill="#ff83f4" stroke="#d002bc" /><rect x="2293.0" y="0.0" width="12.0" height="3" fill="#35df39" stroke="#03aa10" /><rect x="2306.0" y="0.0" width="12.0" height="3" fill="#80c9ff" stroke="#0b6cba" /><rect x="2332.0" y="88.5" width="12.0" height="3" fill="#ff83f4" stroke="#d002bc" /><rect x="2280" y="88.5" width="64" height="3" fill="#ff72e7" stroke="#7c7c7c" /><rect x="2293.0" y="203.5" width="12.0" height="3" fill="#35df39" stroke="#03aa10" /><rect x="2306.0" y="203.5" width="12.0" height="3" fill="#80c9ff" stroke="#0b6cba" /><rect x="2280.0" y="342.0" width="12.0" height="3" fill="#ff3c3c" stroke="#c71f1f" /><rect x="2293.0" y="342.0" width="12.0" height="3" fill="#35df39" stroke="#03aa10" /><rect x="2280.0" y="542.0" width="12.0" height="3" fill="#ff3c3c" stroke="#c71f1f" /><rect x="2280.0" y="564.5" width="12.0" height="3" fill="#ff3c3c" stroke="#c71f1f" /><rect x="2293.0" y="564.5" width="12.0" height="3" fill="#35df39" stroke="#03aa10" /><rect x="2280.0" y="587.0" width="12.0" height="3" fill="#ff3c3c" stroke="#c71f1f" /><rect x="2306.0" y="587.0" width="12.0" height="3" fill="#80c9ff" stroke="#0b6cba" /></svg>