<?xml version="1.0" encoding="UTF-8"?><svg xmlns="http://www.w3.org/2000/svg" xmlns:xlink="http://www.w3.org/1999/xlink"     width="2166" height="1007.5" viewBox="0 0 2166 1007.5"><defs></defs><rect x="0" y="0" width="64" height="993.0" fill="black" /><rect x="0" y="0.0" width="64" height="1" fill="white" fill-opacity="0.5" /><text x="74" y="14.0" font-size="14" fill="white" font-family="monospace" dominant-baseline="ideographic">1</text><rect x="0" y="62.0" width="64" height="1" fill="white" fill-opacity="0.2" /><rect x="0" y="124.0" width="64" height="1" fill="white" fill-opacity="0.2" /><rect x="0" y="186.0" width="64" height="1" fill="white" fill-opacity="0.2" /><rect x="0" y="248.5" width="64" height="1" fill="white" fill-opacity="0.5" /><text x="74" y="262.5" font-size="14" fill="white" font-family="monospace" dominant-baseline="ideographic">2</text><rect x="0" y="310.5" width="64" height="1" fill="white" fill-opacity="0.2" /><rect x="0" y="372.5" width="64" height="1" fill="white" fill-opacity="0.2" /><rect x="0" y="434.5" width="64" height="1" fill="white" fill-opacity="0.2" /><rect x="0" y="496.5" width="64" height="1" fill="white" fill-opacity="0.5" /><text x="74" y="510.5" font-size="14" fill="white" font-family="monospace" dominant-baseline="ideographic">3</text><rect x="0" y="558.5" width="64" height="1" fill="white" fill-opacity="0.2" /><rect x="0" y="620.5" width="64" height="1" fill="white" fill-opacity="0.2" /><rect x="0" y="683.0" width="64" height="1" fill="white" fill-opacity="0.2" /><rect x="0" y="745.0" width="64" height="1" fill="white" fill-opacity="0.5" /><text x="74" y="759.0" font-size="14" fill="white" font-family="monospace" dominant-baseline="ideographic">4</text><rect x="0" y="807.0" width="64" height="1" fill="white" fill-opacity="0.2" /><rect x="0" y="869.0" width="64" height="1" fill="white" fill-opacity="0.2" /><rect x="0" y="931.0" width="64" height="1" fill="white" fill-opacity="0.2" /><rect x="0" y="993.0" width="64" height="1" fill="white" fill-opacity="0.5" /><text x="74" y="1007.0" font-size="14" fill="white" font-family="monospace" dominant-baseline="ideographic">5</text><rect x="0" y="0.0" width="64" height="1" fill="aqua" fill-opacity="0.75" /><text x="0" y="14.0" font-size="14" fill="aqua" fill-opacity="0.75" font-family="monospace">Intro</text><rect x="0" y="0.0" width="64" height="1" fill="lime" fill-opacity="0.75" /><text x="74" y="28.0" font-size="14" fill="lime" font-family="monospace" dominant-baseline="ideographic">145</text><rect x="114" y="0" width="64" height="993.0" fill="black" /><rect x="114" y="0.0" width="64" height="1" fill="white" fill-opacity="0.5" /><text x="188" y="14.0" font-size="14" fill="white" font-family="monospace" dominant-baseline="ideographic">5</text><rect x="114" y="62.0" width="64" height="1" fill="white" fill-opacity="0.2" /><rect x="114" y="124.0" width="64" height="1" fill="white" fill-opacity="0.2" /><rect x="114" y="186.5" width="64" height="1" fill="white" fill-opacity="0.2" /><rect x="114" y="248.5" width="64" height="1" fill="white" fill-opacity="0.5" /><text x="188" y="262.5" font-size="14" fill="white" font-family="monospace" dominant-baseline="ideographic">6</text><rect x="114" y="310.5" width="64" height="1" fill="white" fill-opacity="0.2" /><rect x="114" y="372.5" width="64" height="1" fill="white" fill-opacity="0.2" /><rect x="114" y="434.5" width="64" height="1" fill="white" fill-opacity="0.2" /><rect x="114" y="496.5" width="64" height="1" fill="white" fill-opacity="0.5" /><text x="188" y="510.5" font-size="14" fill="white" font-family="monospace" dominant-baseline="ideographic">7</text><rect x="114" y="558.5" width="64" height="1" fill="white" fill-opacity="0.2" /><rect x="114" y="621.0" width="64" height="1" fill="white" fill-opacity="0.2" /><rect x="114" y="683.0" width="64" height="1" fill="white" fill-opacity="0.2" /><rect x="114" y="745.0" width="64" height="1" fill="white" fill-opacity="0.5" /><text x="188" y="759.0" font-size="14" fill="white" font-family="monospace" dominant-baseline="ideographic">8</text><rect x="114" y="807.0" width="64" height="1" fill="white" fill-opacity="0.2" /><rect x="114" y="869.0" width="64" height="1" fill="white" fill-opacity="0.2" /><rect x="114" y="931.0" width="64" height="1" fill="white" fill-opacity="0.2" /><rect x="114" y="993.0" width="64" height="1" fill="white" fill-opacity="0.5" /><text x="188" y="1007.0" font-size="14" fill="white" font-family="monospace" dominant-baseline="ideographic">9</text><rect x="114" y="744.8999999999999" width="64" height="1" fill="aqua" fill-opacity="0.75" /><text x="114" y="758.8999999999999" font-size="14" fill="aqua" fill-opacity="0.75" font-family="monospace">Phrase A</text><rect x="228" y="0" width="64" height="993.5" fill="black" /><rect x="228" y="0.0" width="64" height="1" fill="white" fill-opacity="0.5" /><text x="302" y="14.0" font-size="14" fill="white" font-family="monospace" dominant-baseline="ideographic">9</text><rect x="228" y="62.5" width="64" height="1" fill="white" fill-opacity="0.2" /><rect x="228" y="124.5" width="64" height="1" fill="white" fill-opacity="0.2" /><rect x="228" y="186.5" width="64" height="1" fill="white" fill-opacity="0.2" /><rect x="228" y="248.5" width="64" height="1" fill="white" fill-opacity="0.5" /><text x="302" y="262.5" font-size="14" fill="white" font-family="monospace" dominant-baseline="ideographic">10</text><rect x="228" y="310.5" width="64" height="1" fill="white" fill-opacity="0.2" /><rect x="228" y="372.5" width="64" height="1" fill="white" fill-opacity="0.2" /><rect x="228" y="434.5" width="64" height="1" fill="white" fill-opacity="0.2" /><rect x="228" y="497.0" width="64" height="1" fill="white" fill-opacity="0.5" /><text x="302" y="511.0" font-size="14" fill="white" font-family="monospace" dominant-baseline="ideographic">11</text><rect x="228" y="559.0" width="64" height="1" fill="white" fill-opacity="0.2" /><rect x="228" y="621.0" width="64" height="1" fill="white" fill-opacity="0.2" /><rect x="228" y="683.0" width="64" height="1" fill="white" fill-opacity="0.2" /><rect x="228" y="745.0" width="64" height="1" fill="white" fill-opacity="0.5" /><text x="302" y="759.0" font-size="14" fill="white" font-family="monospace" dominant-baseline="ideographic">12</text><rect x="228" y="807.0" width="64" height="1" fill="white" fill-opacity="0.2" /><rect x="228" y="869.0" width="64" height="1" fill="white" fill-opacity="0.2" /><rect x="228" y="931.0" width="64" height="1" fill="white" fill-opacity="0.2" /><rect x="228" y="993.5" width="64" height="1" fill="white" fill-opacity="0.5" /><text x="302" y="1007.5" font-size="14" fill="white" font-family="monospace" dominant-baseline="ideographic">13</text><rect x="342" y="0" width="64" height="993.0" fill="black" /><rect x="342" y="0.0" width="64" height="1" fill="white" fill-opacity="0.5" /><text x="416" y="14.0" font-size="14" fill="white" font-family="monospace" dominant-baseline="ideographic">13</text><rect x="342" y="62.0" width="64" height="1" fill="white" fill-opacity="0.2" /><rect x="342" y="124.0" width="64" height="1" fill="white" fill-opacity="0.2" /><rect x="342" y="186.0" width="64" height="1" fill="white" fill-opacity="0.2" /><rect x="342" y="248.0" width="64" height="1" fill="white" fill-opacity="0.5" /><text x="416" y="262.0" font-size="14" fill="white" font-family="monospace" dominant-baseline="ideographic">14</text><rect x="342" y="310.0" width="64" height="1" fill="white" fill-opacity="0.2" /><rect x="342" y="372.0" width="64" height="1" fill="white" fill-opacity="0.2" /><rect x="342" y="434.5" width="64" height="1" fill="white" fill-opacity="0.2" /><rect x="342" y="496.5" width="64" height="1" fill="white" fill-opacity="0.5" /><text x="416" y="510.5" font-size="14" fill="white" font-family="monospace" dominant-baseline="ideographic">15</text><rect x="342" y="558.5" width="64" height="1" fill="white" fill-opacity="0.2" /><rect x="342" y="620.5" width="64" height="1" fill="white" fill-opacity="0.2" /><rect x="342" y="682.5" width="64" height="1" fill="white" fill-opacity="0.2" /><rect x="342" y="744.5" width="64" height="1" fill="white" fill-opacity="0.5" /><text x="416" y="758.5" font-size="14" fill="white" font-family="monospace" dominant-baseline="ideographic">16</text><rect x="342" y="806.5" width="64" height="1" fill="white" fill-opacity="0.2" /><rect x="342" y="869.0" width="64" height="1" fill="white" fill-opacity="0.2" /><rect x="342" y="931.0" width="64" height="1" fill="white" fill-opacity="0.2" /><rect x="342" y="993.0" width="64" height="1" fill="white" fill-opacity="0.5" /><text x="416" y="1007.0" font-size="14" fill="white" font-family="monospace" dominant-baseline="ideographic">17</text><rect x="342" y="744.6999999999998" width="64" height="1" fill="aqua" fill-opacity="0.75" /><text x="342" y="758.6999999999998" font-size="14" fill="aqua" fill-opacity="0.75" font-family="monospace">Phrase B</text><rect x="456" y="0" width="64" height="993.0" fill="black" /><rect x="456" y="0.0" width="64" height="1" fill="white" fill-opacity="0.5" /><text x="530" y="14.0" font-size="14" fill="white" font-family="monospace" dominant-baseline="ideographic">17</text><rect x="456" y="62.0" width="64" height="1" fill="white" fill-opacity="0.2" /><rect x="456" y="124.0" width="64" height="1" fill="white" fill-opacity="0.2" /><rect x="456" y="186.0" width="64" height="1" fill="white" fill-opacity="0.2" /><rect x="456" y="248.0" width="64" height="1" fill="white" fill-opacity="0.5" /><text x="530" y="262.0" font-size="14" fill="white" font-family="monospace" dominant-baseline="ideographic">18</text><rect x="456" y="310.5" width="64" height="1" fill="white" fill-opacity="0.2" /><rect x="456" y="372.5" width="64" height="1" fill="white" fill-opacity="0.2" /><rect x="456" y="434.5" width="64" height="1" fill="white" fill-opacity="0.2" /><rect x="456" y="496.5" width="64" height="1" fill="white" fill-opacity="0.5" /><text x="530" y="510.5" font-size="14" fill="white" font-family="monospace" dominant-baseline="ideographic">19</text><rect x="456" y="558.5" width="64" height="1" fill="white" fill-opacity="0.2" /><rect x="456" y="620.5" width="64" height="1" fill="white" fill-opacity="0.2" /><rect x="456" y="682.5" width="64" height="1" fill="white" fill-opacity="0.2" /><rect x="456" y="744.5" width="64" height="1" fill="white" fill-opacity="0.5" /><text x="530" y="758.5" font-size="14" fill="white" font-family="monospace" dominant-baseline="ideographic">20</text><rect x="456" y="807.0" width="64" height="1" fill="white" fill-opacity="0.2" /><rect x="456" y="869.0" width="64" height="1" fill="white" fill-opacity="0.2" /><rect x="456" y="931.0" width="64" height="1" fill="white" fill-opacity="0.2" /><rect x="456" y="993.0" width="64" height="1" fill="white" fill-opacity="0.5" /><text x="530" y="1007.0" font-size="14" fill="white" font-family="monospace" dominant-baseline="ideographic">21</text><rect x="570" y="0" width="64" height="993.0" fill="black" /><rect x="570" y="0.0" width="64" height="1" fill="white" fill-opacity="0.5" /><text x="644" y="14.0" font-size="14" fill="white" font-family="monospace" dominant-baseline="ideographic">21</text><rect x="570" y="62.0" width="64" height="1" fill="white" fill-opacity="0.2" /><rect x="570" y="124.0" width="64" height="1" fill="white" fill-opacity="0.2" /><rect x="570" y="186.0" width="64" height="1" fill="white" fill-opacity="0.2" /><rect x="570" y="248.5" width="64" height="1" fill="white" fill-opacity="0.5" /><text x="644" y="262.5" font-size="14" fill="white" font-family="monospace" dominant-baseline="ideographic">22</text><rect x="570" y="310.5" width="64" height="1" fill="white" fill-opacity="0.2" /><rect x="570" y="372.5" width="64" height="1" fill="white" fill-opacity="0.2" /><rect x="570" y="434.5" width="64" height="1" fill="white" fill-opacity="0.2" /><rect x="570" y="496.5" width="64" height="1" fill="white" fill-opacity="0.5" /><text x="644" y="510.5" font-size="14" fill="white" font-family="monospace" dominant-baseline="ideographic">23</text><rect x="570" y="558.5" width="64" height="1" fill="white" fill-opacity="0.2" /><rect x="570" y="620.5" width="64" height="1" fill="white" fill-opacity="0.2" /><rect x="570" y="683.0" width="64" height="1" fill="white" fill-opacity="0.2" /><rect x="570" y="745.0" width="64" height="1" fill="white" fill-opacity="0.5" /><text x="644" y="759.0" font-size="14" fill="white" font-family="monospace" dominant-baseline="ideographic">24</text><rect x="570" y="807.0" width="64" height="1" fill="white" fill-opacity="0.2" /><rect x="570" y="869.0" width="64" height="1" fill="white" fill-opacity="0.2" /><rect x="570" y="931.0" width="64" height="1" fill="white" fill-opacity="0.2" /><rect x="570" y="993.0" width="64" height="1" fill="white" fill-opacity="0.5" /><text x="644" y="1007.0" font-size="14" fill="white" font-family="monospace" dominant-baseline="ideographic">25</text><rect x="570" y="248.34999999999945" width="64" height="1" fill="aqua" fill-opacity="0.75" /><text x="570" y="262.34999999999945" font-size="14" fill="aqua" fill-opacity="0.75" font-family="monospace">Special</text><rect x="684" y="0" width="64" height="993.0" fill="black" /><rect x="684" y="0.0" width="64" height="1" fill="white" fill-opacity="0.5" /><text x="758" y="14.0" font-size="14" fill="white" font-family="monospace" dominant-baseline="ideographic">25</text><rect x="684" y="62.0" width="64" height="1" fill="white" fill-opacity="0.2" /><rect x="684" y="124.5" width="64" height="1" fill="white" fill-opacity="0.2" /><rect x="684" y="186.5" width="64" height="1" fill="white" fill-opacity="0.2" /><rect x="684" y="248.5" width="64" height="1" fill="white" fill-opacity="0.5" /><text x="758" y="262.5" font-size="14" fill="white" font-family="monospace" dominant-baseline="ideographic">26</text><rect x="684" y="310.5" width="64" height="1" fill="white" fill-opacity="0.2" /><rect x="684" y="372.5" width="64" height="1" fill="white" fill-opacity="0.2" /><rect x="684" y="434.5" width="64" height="1" fill="white" fill-opacity="0.2" /><rect x="684" y="496.5" width="64" height="1" fill="white" fill-opacity="0.5" /><text x="758" y="510.5" font-size="14" fill="white" font-family="monospace" dominant-baseline="ideographic">27</text><rect x="684" y="558.5" width="64" height="1" fill="white" fill-opacity="0.2" /><rect x="684" y="621.0" width="64" height="1" fill="white" fill-opacity="0.2" /><rect x="684" y="683.0" width="64" height="1" fill="white" fill-opacity="0.2" /><rect x="684" y="745.0" width="64" height="1" fill="white" fill-opacity="0.5" /><text x="758" y="759.0" font-size="14" fill="white" font-family="monospace" dominant-baseline="ideographic">28</text><rect x="684" y="807.0" width="64" height="1" fill="white" fill-opacity="0.2" /><rect x="684" y="869.0" width="64" height="1" fill="white" fill-opacity="0.2" /><rect x="684" y="931.0" width="64" height="1" fill="white" fill-opacity="0.2" /><rect x="684" y="993.0" width="64" height="1" fill="white" fill-opacity="0.5" /><text x="758" y="1007.0" font-size="14" fill="white" font-family="monospace" dominant-baseline="ideographic">29</text><rect x="798" y="0" width="64" height="807.0" fill="black" /><rect x="798" y="0.0" width="64" height="1" fill="white" fill-opacity="0.5" /><text x="872" y="14.0" font-size="14" fill="white" font-family="monospace" dominant-baseline="ideographic">29</text><rect x="798" y="62.5" width="64" height="1" fill="white" fill-opacity="0.2" /><rect x="798" y="124.5" width="64" height="1" fill="white" fill-opacity="0.2" /><rect x="798" y="186.5" width="64" height="1" fill="white" fill-opacity="0.2" /><rect x="798" y="248.5" width="64" height="1" fill="white" fill-opacity="0.5" /><text x="872" y="262.5" font-size="14" fill="white" font-family="monospace" dominant-baseline="ideographic">30</text><rect x="798" y="279.5" width="64" height="1" fill="white" fill-opacity="0.2" /><rect x="798" y="310.5" width="64" height="1" fill="white" fill-opacity="0.2" /><rect x="798" y="341.5" width="64" height="1" fill="white" fill-opacity="0.2" /><rect x="798" y="372.5" width="64" height="1" fill="white" fill-opacity="0.2" /><rect x="798" y="403.5" width="64" height="1" fill="white" fill-opacity="0.2" /><rect x="798" y="434.5" width="64" height="1" fill="white" fill-opacity="0.5" /><text x="872" y="448.5" font-size="14" fill="white" font-family="monospace" dominant-baseline="ideographic">31</text><rect x="798" y="465.5" width="64" height="1" fill="white" fill-opacity="0.2" /><rect x="798" y="497.0" width="64" height="1" fill="white" fill-opacity="0.2" /><rect x="798" y="528.0" width="64" height="1" fill="white" fill-opacity="0.2" /><rect x="798" y="559.0" width="64" height="1" fill="white" fill-opacity="0.2" /><rect x="798" y="590.0" width="64" height="1" fill="white" fill-opacity="0.2" /><rect x="798" y="621.0" width="64" height="1" fill="white" fill-opacity="0.5" /><text x="872" y="635.0" font-size="14" fill="white" font-family="monospace" dominant-baseline="ideographic">32</text><rect x="798" y="652.0" width="64" height="1" fill="white" fill-opacity="0.2" /><rect x="798" y="683.0" width="64" height="1" fill="white" fill-opacity="0.2" /><rect x="798" y="714.0" width="64" height="1" fill="white" fill-opacity="0.2" /><rect x="798" y="745.0" width="64" height="1" fill="white" fill-opacity="0.2" /><rect x="798" y="776.0" width="64" height="1" fill="white" fill-opacity="0.2" /><rect x="798" y="807.0" width="64" height="1" fill="white" fill-opacity="0.5" /><text x="872" y="821.0" font-size="14" fill="white" font-family="monospace" dominant-baseline="ideographic">33</text><rect x="912" y="0" width="64" height="807.0" fill="black" /><rect x="912" y="0.0" width="64" height="1" fill="white" fill-opacity="0.5" /><text x="986" y="14.0" font-size="14" fill="white" font-family="monospace" dominant-baseline="ideographic">33</text><rect x="912" y="31.0" width="64" height="1" fill="white" fill-opacity="0.2" /><rect x="912" y="62.0" width="64" height="1" fill="white" fill-opacity="0.2" /><rect x="912" y="93.0" width="64" height="1" fill="white" fill-opacity="0.2" /><rect x="912" y="124.5" width="64" height="1" fill="white" fill-opacity="0.2" /><rect x="912" y="155.5" width="64" height="1" fill="white" fill-opacity="0.2" /><rect x="912" y="186.5" width="64" height="1" fill="white" fill-opacity="0.5" /><text x="986" y="200.5" font-size="14" fill="white" font-family="monospace" dominant-baseline="ideographic">34</text><rect x="912" y="217.5" width="64" height="1" fill="white" fill-opacity="0.2" /><rect x="912" y="248.5" width="64" height="1" fill="white" fill-opacity="0.2" /><rect x="912" y="279.5" width="64" height="1" fill="white" fill-opacity="0.2" /><rect x="912" y="310.5" width="64" height="1" fill="white" fill-opacity="0.2" /><rect x="912" y="341.5" width="64" height="1" fill="white" fill-opacity="0.2" /><rect x="912" y="372.5" width="64" height="1" fill="white" fill-opacity="0.5" /><text x="986" y="386.5" font-size="14" fill="white" font-family="monospace" dominant-baseline="ideographic">35</text><rect x="912" y="403.5" width="64" height="1" fill="white" fill-opacity="0.2" /><rect x="912" y="434.5" width="64" height="1" fill="white" fill-opacity="0.2" /><rect x="912" y="465.5" width="64" height="1" fill="white" fill-opacity="0.2" /><rect x="912" y="496.5" width="64" height="1" fill="white" fill-opacity="0.2" /><rect x="912" y="527.5" width="64" height="1" fill="white" fill-opacity="0.2" /><rect x="912" y="558.5" width="64" height="1" fill="white" fill-opacity="0.5" /><text x="986" y="572.5" font-size="14" fill="white" font-family="monospace" dominant-baseline="ideographic">36</text><rect x="912" y="621.0" width="64" height="1" fill="white" fill-opacity="0.2" /><rect x="912" y="683.0" width="64" height="1" fill="white" fill-opacity="0.2" /><rect x="912" y="745.0" width="64" height="1" fill="white" fill-opacity="0.2" /><rect x="912" y="807.0" width="64" height="1" fill="white" fill-opacity="0.5" /><text x="986" y="821.0" font-size="14" fill="white" font-family="monospace" dominant-baseline="ideographic">37</text><rect x="912" y="558.6999999999989" width="64" height="1" fill="aqua" fill-opacity="0.75" /><text x="912" y="572.6999999999989" font-size="14" fill="aqua" fill-opacity="0.75" font-family="monospace">Phrase C</text><rect x="1026" y="0" width="64" height="993.0" fill="black" /><rect x="1026" y="0.0" width="64" height="1" fill="white" fill-opacity="0.5" /><text x="1100" y="14.0" font-size="14" fill="white" font-family="monospace" dominant-baseline="ideographic">37</text><rect x="1026" y="62.0" width="64" height="1" fill="white" fill-opacity="0.2" /><rect x="1026" y="124.0" width="64" height="1" fill="white" fill-opacity="0.2" /><rect x="1026" y="186.0" width="64" height="1" fill="white" fill-opacity="0.2" /><rect x="1026" y="248.5" width="64" height="1" fill="white" fill-opacity="0.5" /><text x="1100" y="262.5" font-size="14" fill="white" font-family="monospace" dominant-baseline="ideographic">38</text><rect x="1026" y="310.5" width="64" height="1" fill="white" fill-opacity="0.2" /><rect x="1026" y="372.5" width="64" height="1" fill="white" fill-opacity="0.2" /><rect x="1026" y="434.5" width="64" height="1" fill="white" fill-opacity="0.2" /><rect x="1026" y="496.5" width="64" height="1" fill="white" fill-opacity="0.5" /><text x="1100" y="510.5" font-size="14" fill="white" font-family="monospace" dominant-baseline="ideographic">39</text><rect x="1026" y="558.5" width="64" height="1" fill="white" fill-opacity="0.2" /><rect x="1026" y="620.5" width="64" height="1" fill="white" fill-opacity="0.2" /><rect x="1026" y="683.0" width="64" height="1" fill="white" fill-opacity="0.2" /><rect x="1026" y="745.0" width="64" height="1" fill="white" fill-opacity="0.5" /><text x="1100" y="759.0" font-size="14" fill="white" font-family="monospace" dominant-baseline="ideographic">40</text><rect x="1026" y="807.0" width="64" height="1" fill="white" fill-opacity="0.2" /><rect x="1026" y="869.0" width="64" height="1" fill="white" fill-opacity="0.2" /><rect x="1026" y="931.0" width="64" height="1" fill="white" fill-opacity="0.2" /><rect x="1026" y="993.0" width="64" height="1" fill="white" fill-opacity="0.5" /><text x="1100" y="1007.0" font-size="14" fill="white" font-family="monospace" dominant-baseline="ideographic">41</text><rect x="1140" y="0" width="64" height="993.0" fill="black" /><rect x="1140" y="0.0" width="64" height="1" fill="white" fill-opacity="0.5" /><text x="1214" y="14.0" font-size="14" fill="white" font-family="monospace" dominant-baseline="ideographic">41</text><rect x="1140" y="62.0" width="64" height="1" fill="white" fill-opacity="0.2" /><rect x="1140" y="124.5" width="64" height="1" fill="white" fill-opacity="0.2" /><rect x="1140" y="186.5" width="64" height="1" fill="white" fill-opacity="0.2" /><rect x="1140" y="248.5" width="64" height="1" fill="white" fill-opacity="0.5" /><text x="1214" y="262.5" font-size="14" fill="white" font-family="monospace" dominant-baseline="ideographic">42</text><rect x="1140" y="310.5" width="64" height="1" fill="white" fill-opacity="0.2" /><rect x="1140" y="372.5" width="64" height="1" fill="white" fill-opacity="0.2" /><rect x="1140" y="434.5" width="64" height="1" fill="white" fill-opacity="0.2" /><rect x="1140" y="496.5" width="64" height="1" fill="white" fill-opacity="0.5" /><text x="1214" y="510.5" font-size="14" fill="white" font-family="monospace" dominant-baseline="ideographic">43</text><rect x="1140" y="558.5" width="64" height="1" fill="white" fill-opacity="0.2" /><rect x="1140" y="621.0" width="64" height="1" fill="white" fill-opacity="0.2" /><rect x="1140" y="683.0" width="64" height="1" fill="white" fill-opacity="0.2" /><rect x="1140" y="745.0" width="64" height="1" fill="white" fill-opacity="0.5" /><text x="1214" y="759.0" font-size="14" fill="white" font-family="monospace" dominant-baseline="ideographic">44</text><rect x="1140" y="807.0" width="64" height="1" fill="white" fill-opacity="0.2" /><rect x="1140" y="869.0" width="64" height="1" fill="white" fill-opacity="0.2" /><rect x="1140" y="931.0" width="64" height="1" fill="white" fill-opacity="0.2" /><rect x="1140" y="993.0" width="64" height="1" fill="white" fill-opacity="0.5" /><text x="1214" y="1007.0" font-size="14" fill="white" font-family="monospace" dominant-baseline="ideographic">45</text><rect x="1140" y="745.0" width="64" height="1" fill="aqua" fill-opacity="0.75" /><text x="1140" y="759.0" font-size="14" fill="aqua" fill-opacity="0.75" font-family="monospace">Special</text><rect x="1254" y="0" width="64" height="993.5" fill="black" /><rect x="1254" y="0.0" width="64" height="1" fill="white" fill-opacity="0.5" /><text x="1328" y="14.0" font-size="14" fill="white" font-family="monospace" dominant-baseline="ideographic">45</text><rect x="1254" y="62.5" width="64" height="1" fill="white" fill-opacity="0.2" /><rect x="1254" y="124.5" width="64" height="1" fill="white" fill-opacity="0.2" /><rect x="1254" y="186.5" width="64" height="1" fill="white" fill-opacity="0.2" /><rect x="1254" y="248.5" width="64" height="1" fill="white" fill-opacity="0.5" /><text x="1328" y="262.5" font-size="14" fill="white" font-family="monospace" dominant-baseline="ideographic">46</text><rect x="1254" y="310.5" width="64" height="1" fill="white" fill-opacity="0.2" /><rect x="1254" y="372.5" width="64" height="1" fill="white" fill-opacity="0.2" /><rect x="1254" y="434.5" width="64" height="1" fill="white" fill-opacity="0.2" /><rect x="1254" y="497.0" width="64" height="1" fill="white" fill-opacity="0.5" /><text x="1328" y="511.0" font-size="14" fill="white" font-family="monospace" dominant-baseline="ideographic">47</text><rect x="1254" y="559.0" width="64" height="1" fill="white" fill-opacity="0.2" /><rect x="1254" y="621.0" width="64" height="1" fill="white" fill-opacity="0.2" /><rect x="1254" y="683.0" width="64" height="1" fill="white" fill-opacity="0.2" /><rect x="1254" y="745.0" width="64" height="1" fill="white" fill-opacity="0.5" /><text x="1328" y="759.0" font-size="14" fill="white" font-family="monospace" dominant-baseline="ideographic">48</text><rect x="1254" y="807.0" width="64" height="1" fill="white" fill-opacity="0.2" /><rect x="1254" y="869.0" width="64" height="1" fill="white" fill-opacity="0.2" /><rect x="1254" y="931.5" width="64" height="1" fill="white" fill-opacity="0.2" /><rect x="1254" y="993.5" width="64" height="1" fill="white" fill-opacity="0.5" /><text x="1328" y="1007.5" font-size="14" fill="white" font-family="monospace" dominant-baseline="ideographic">49</text><rect x="1368" y="0" width="64" height="993.0" fill="black" /><rect x="1368" y="0.0" width="64" height="1" fill="white" fill-opacity="0.5" /><text x="1442" y="14.0" font-size="14" fill="white" font-family="monospace" dominant-baseline="ideographic">49</text><rect x="1368" y="62.0" width="64" height="1" fill="white" fill-opacity="0.2" /><rect x="1368" y="124.0" width="64" height="1" fill="white" fill-opacity="0.2" /><rect x="1368" y="186.0" width="64" height="1" fill="white" fill-opacity="0.2" /><rect x="1368" y="248.0" width="64" height="1" fill="white" fill-opacity="0.5" /><text x="1442" y="262.0" font-size="14" fill="white" font-family="monospace" dominant-baseline="ideographic">50</text><rect x="1368" y="310.0" width="64" height="1" fill="white" fill-opacity="0.2" /><rect x="1368" y="372.0" width="64" height="1" fill="white" fill-opacity="0.2" /><rect x="1368" y="434.5" width="64" height="1" fill="white" fill-opacity="0.2" /><rect x="1368" y="496.5" width="64" height="1" fill="white" fill-opacity="0.5" /><text x="1442" y="510.5" font-size="14" fill="white" font-family="monospace" dominant-baseline="ideographic">51</text><rect x="1368" y="558.5" width="64" height="1" fill="white" fill-opacity="0.2" /><rect x="1368" y="620.5" width="64" height="1" fill="white" fill-opacity="0.2" /><rect x="1368" y="682.5" width="64" height="1" fill="white" fill-opacity="0.2" /><rect x="1368" y="744.5" width="64" height="1" fill="white" fill-opacity="0.5" /><text x="1442" y="758.5" font-size="14" fill="white" font-family="monospace" dominant-baseline="ideographic">52</text><rect x="1368" y="806.5" width="64" height="1" fill="white" fill-opacity="0.2" /><rect x="1368" y="869.0" width="64" height="1" fill="white" fill-opacity="0.2" /><rect x="1368" y="931.0" width="64" height="1" fill="white" fill-opacity="0.2" /><rect x="1368" y="993.0" width="64" height="1" fill="white" fill-opacity="0.5" /><text x="1442" y="1007.0" font-size="14" fill="white" font-family="monospace" dominant-baseline="ideographic">53</text><rect x="1368" y="744.6499999999996" width="64" height="1" fill="aqua" fill-opacity="0.75" /><text x="1368" y="758.6499999999996" font-size="14" fill="aqua" fill-opacity="0.75" font-family="monospace">Special</text><rect x="1482" y="0" width="64" height="993.0" fill="black" /><rect x="1482" y="0.0" width="64" height="1" fill="white" fill-opacity="0.5" /><text x="1556" y="14.0" font-size="14" fill="white" font-family="monospace" dominant-baseline="ideographic">53</text><rect x="1482" y="62.0" width="64" height="1" fill="white" fill-opacity="0.2" /><rect x="1482" y="124.0" width="64" height="1" fill="white" fill-opacity="0.2" /><rect x="1482" y="186.0" width="64" height="1" fill="white" fill-opacity="0.2" /><rect x="1482" y="248.0" width="64" height="1" fill="white" fill-opacity="0.5" /><text x="1556" y="262.0" font-size="14" fill="white" font-family="monospace" dominant-baseline="ideographic">54</text><rect x="1482" y="310.5" width="64" height="1" fill="white" fill-opacity="0.2" /><rect x="1482" y="372.5" width="64" height="1" fill="white" fill-opacity="0.2" /><rect x="1482" y="434.5" width="64" height="1" fill="white" fill-opacity="0.2" /><rect x="1482" y="496.5" width="64" height="1" fill="white" fill-opacity="0.5" /><text x="1556" y="510.5" font-size="14" fill="white" font-family="monospace" dominant-baseline="ideographic">55</text><rect x="1482" y="558.5" width="64" height="1" fill="white" fill-opacity="0.2" /><rect x="1482" y="620.5" width="64" height="1" fill="white" fill-opacity="0.2" /><rect x="1482" y="682.5" width="64" height="1" fill="white" fill-opacity="0.2" /><rect x="1482" y="745.0" width="64" height="1" fill="white" fill-opacity="0.5" /><text x="1556" y="759.0" font-size="14" fill="white" font-family="monospace" dominant-baseline="ideographic">56</text><rect x="1482" y="807.0" width="64" height="1" fill="white" fill-opacity="0.2" /><rect x="1482" y="869.0" width="64" height="1" fill="white" fill-opacity="0.2" /><rect x="1482" y="931.0" width="64" height="1" fill="white" fill-opacity="0.2" /><rect x="1482" y="993.0" width="64" height="1" fill="white" fill-opacity="0.5" /><text x="1556" y="1007.0" font-size="14" fill="white" font-family="monospace" dominant-baseline="ideographic">57</text><rect x="1596" y="0" width="64" height="993.0" fill="black" /><rect x="1596" y="0.0" width="64" height="1" fill="white" fill-opacity="0.5" /><text x="1670" y="14.0" font-size="14" fill="white" font-family="monospace" dominant-baseline="ideographic">57</text><rect x="1596" y="62.0" width="64" height="1" fill="white" fill-opacity="0.2" /><rect x="1596" y="124.0" width="64" height="1" fill="white" fill-opacity="0.2" /><rect x="1596" y="186.0" width="64" height="1" fill="white" fill-opacity="0.2" /><rect x="1596" y="248.5" width="64" height="1" fill="white" fill-opacity="0.5" /><text x="1670" y="262.5" font-size="14" fill="white" font-family="monospace" dominant-baseline="ideographic">58</text><rect x="1596" y="310.5" width="64" height="1" fill="white" fill-opacity="0.2" /><rect x="1596" y="372.5" width="64" height="1" fill="white" fill-opacity="0.2" /><rect x="1596" y="434.5" width="64" height="1" fill="white" fill-opacity="0.2" /><rect x="1596" y="496.5" width="64" height="1" fill="white" fill-opacity="0.5" /><text x="1670" y="510.5" font-size="14" fill="white" font-family="monospace" dominant-baseline="ideographic">59</text><rect x="1596" y="558.5" width="64" height="1" fill="white" fill-opacity="0.2" /><rect x="1596" y="620.5" width="64" height="1" fill="white" fill-opacity="0.2" /><rect x="1596" y="683.0" width="64" height="1" fill="white" fill-opacity="0.2" /><rect x="1596" y="745.0" width="64" height="1" fill="white" fill-opacity="0.5" /><text x="1670" y="759.0" font-size="14" fill="white" font-family="monospace" dominant-baseline="ideographic">60</text><rect x="1596" y="807.0" width="64" height="1" fill="white" fill-opacity="0.2" /><rect x="1596" y="869.0" width="64" height="1" fill="white" fill-opacity="0.2" /><rect x="1596" y="931.0" width="64" height="1" fill="white" fill-opacity="0.2" /><rect x="1596" y="993.0" width="64" height="1" fill="white" fill-opacity="0.5" /><text x="1670" y="1007.0" font-size="14" fill="white" font-family="monospace" dominant-baseline="ideographic">61</text><rect x="1596" y="744.7999999999993" width="64" height="1" fill="aqua" fill-opacity="0.75" /><text x="1596" y="758.7999999999993" font-size="14" fill="aqua" fill-opacity="0.75" font-family="monospace">Outro</text><rect x="1710" y="0" width="64" height="993.0" fill="black" /><rect x="1710" y="0.0" width="64" height="1" fill="white" fill-opacity="0.5" /><text x="1784" y="14.0" font-size="14" fill="white" font-family="monospace" dominant-baseline="ideographic">61</text><rect x="1710" y="62.0" width="64" height="1" fill="white" fill-opacity="0.2" /><rect x="1710" y="124.5" width="64" height="1" fill="white" fill-opacity="0.2" /><rect x="1710" y="186.5" width="64" height="1" fill="white" fill-opacity="0.2" /><rect x="1710" y="248.5" width="64" height="1" fill="white" fill-opacity="0.5" /><text x="1784" y="262.5" font-size="14" fill="white" font-family="monospace" dominant-baseline="ideographic">62</text><rect x="1710" y="310.5" width="64" height="1" fill="white" fill-opacity="0.2" /><rect x="1710" y="372.5" width="64" height="1" fill="white" fill-opacity="0.2" /><rect x="1710" y="434.5" width="64" height="1" fill="white" fill-opacity="0.2" /><rect x="1710" y="496.5" width="64" height="1" fill="white" fill-opacity="0.5" /><text x="1784" y="510.5" font-size="14" fill="white" font-family="monospace" dominant-baseline="ideographic">63</text><rect x="1710" y="559.0" width="64" height="1" fill="white" fill-opacity="0.2" /><rect x="1710" y="621.0" width="64" height="1" fill="white" fill-opacity="0.2" /><rect x="1710" y="683.0" width="64" height="1" fill="white" fill-opacity="0.2" /><rect x="1710" y="745.0" width="64" height="1" fill="white" fill-opacity="0.5" /><text x="1784" y="759.0" font-size="14" fill="white" font-family="monospace" dominant-baseline="ideographic">64</text><rect x="1710" y="807.0" width="64" height="1" fill="white" fill-opacity="0.2" /><rect x="1710" y="869.0" width="64" height="1" fill="white" fill-opacity="0.2" /><rect x="1710" y="931.0" width="64" height="1" fill="white" fill-opacity="0.2" /><rect x="1710" y="993.0" width="64" height="1" fill="white" fill-opacity="0.5" /><text x="1784" y="1007.0" font-size="14" fill="white" font-family="monospace" dominant-baseline="ideographic">65</text><rect x="1824" y="0" width="64" height="993.5" fill="black" /><rect x="1824" y="0.0" width="64" height="1" fill="white" fill-opacity="0.5" /><text x="1898" y="14.0" font-size="14" fill="white" font-family="monospace" dominant-baseline="ideographic">65</text><rect x="1824" y="62.5" width="64" height="1" fill="white" fill-opacity="0.2" /><rect x="1824" y="124.5" width="64" height="1" fill="white" fill-opacity="0.2" /><rect x="1824" y="186.5" width="64" height="1" fill="white" fill-opacity="0.2" /><rect x="1824" y="248.5" width="64" height="1" fill="white" fill-opacity="0.5" /><text x="1898" y="262.5" font-size="14" fill="white" font-family="monospace" dominant-baseline="ideographic">66</text><rect x="1824" y="310.5" width="64" height="1" fill="white" fill-opacity="0.2" /><rect x="1824" y="372.5" width="64" height="1" fill="white" fill-opacity="0.2" /><rect x="1824" y="434.5" width="64" height="1" fill="white" fill-opacity="0.2" /><rect x="1824" y="497.0" width="64" height="1" fill="white" fill-opacity="0.5" /><text x="1898" y="511.0" font-size="14" fill="white" font-family="monospace" dominant-baseline="ideographic">67</text><rect x="1824" y="559.0" width="64" height="1" fill="white" fill-opacity="0.2" /><rect x="1824" y="621.0" width="64" height="1" fill="white" fill-opacity="0.2" /><rect x="1824" y="683.0" width="64" height="1" fill="white" fill-opacity="0.2" /><rect x="1824" y="745.0" width="64" height="1" fill="white" fill-opacity="0.5" /><text x="1898" y="759.0" font-size="14" fill="white" font-family="monospace" dominant-baseline="ideographic">68</text><rect x="1824" y="807.0" width="64" height="1" fill="white" fill-opacity="0.2" /><rect x="1824" y="869.0" width="64" height="1" fill="white" fill-opacity="0.2" /><rect x="1824" y="931.5" width="64" height="1" fill="white" fill-opacity="0.2" /><rect x="1824" y="993.5" width="64" height="1" fill="white" fill-opacity="0.5" /><text x="1898" y="1007.5" font-size="14" fill="white" font-family="monospace" dominant-baseline="ideographic">69</text><rect x="1938" y="0" width="64" height="993.0" fill="black" /><rect x="1938" y="0.0" width="64" height="1" fill="white" fill-opacity="0.5" /><text x="2012" y="14.0" font-size="14" fill="white" font-family="monospace" dominant-baseline="ideographic">69</text><rect x="1938" y="62.0" width="64" height="1" fill="white" fill-opacity="0.2" /><rect x="1938" y="124.0" width="64" height="1" fill="white" fill-opacity="0.2" /><rect x="1938" y="186.0" width="64" height="1" fill="white" fill-opacity="0.2" /><rect x="1938" y="248.0" width="64" height="1" fill="white" fill-opacity="0.5" /><text x="2012" y="262.0" font-size="14" fill="white" font-family="monospace" dominant-baseline="ideographic">70</text><rect x="1938" y="310.0" width="64" height="1" fill="white" fill-opacity="0.2" /><rect x="1938" y="372.5" width="64" height="1" fill="white" fill-opacity="0.2" /><rect x="1938" y="434.5" width="64" height="1" fill="white" fill-opacity="0.2" /><rect x="1938" y="496.5" width="64" height="1" fill="white" fill-opacity="0.5" /><text x="2012" y="510.5" font-size="14" fill="white" font-family="monospace" dominant-baseline="ideographic">71</text><rect x="1938" y="558.5" width="64" height="1" fill="white" fill-opacity="0.2" /><rect x="1938" y="620.5" width="64" height="1" fill="white" fill-opacity="0.2" /><rect x="1938" y="682.5" width="64" height="1" fill="white" fill-opacity="0.2" /><rect x="1938" y="744.5" width="64" height="1" fill="white" fill-opacity="0.5" /><text x="2012" y="758.5" font-size="14" fill="white" font-family="monospace" dominant-baseline="ideographic">72</text><rect x="1938" y="806.5" width="64" height="1" fill="white" fill-opacity="0.2" /><rect x="1938" y="869.0" width="64" height="1" fill="white" fill-opacity="0.2" /><rect x="1938" y="931.0" width="64" height="1" fill="white" fill-opacity="0.2" /><rect x="1938" y="993.0" width="64" height="1" fill="white" fill-opacity="0.5" /><text x="2012" y="1007.0" font-size="14" fill="white" font-family="monospace" dominant-baseline="ideographic">73</text><rect x="2052" y="0" width="64" height="421.5" fill="black" /><rect x="2052" y="0.0" width="64" height="1" fill="white" fill-opacity="0.5" /><text x="2126" y="14.0" font-size="14" fill="white" font-family="monospace" dominant-baseline="ideographic">73</text><rect x="2052" y="62.0" width="64" height="1" fill="white" fill-opacity="0.2" /><rect x="2052" y="124.0" width="64" height="1" fill="white" fill-opacity="0.2" /><rect x="2052" y="186.0" width="64" height="1" fill="white" fill-opacity="0.2" /><rect x="2052" y="248.0" width="64" height="1" fill="white" fill-opacity="0.5" /><text x="2126" y="262.0" font-size="14" fill="white" font-family="monospace" dominant-baseline="ideographic">74</text></svg>