<?xml version="1.0" encoding="UTF-8"?><svg xmlns="http://www.w3.org/2000/svg" xmlns:xlink="http://www.w3.org/1999/xlink"     width="1026" height="1454.0" viewBox="0 0 1026 1454.0"><defs></defs><rect x="0" y="0" width="64" height="1440.0" fill="black" /><rect x="0" y="0.0" width="64" height="1" fill="white" fill-opacity="0.5" /><text x="74" y="14.0" font-size="14" fill="white" font-family="monospace" dominant-baseline="ideographic">1</text><rect x="0" y="90.0" width="64" height="1" fill="white" fill-opacity="0.2" /><rect x="0" y="180.0" width="64" height="1" fill="white" fill-opacity="0.2" /><rect x="0" y="270.0" width="64" height="1" fill="white" fill-opacity="0.2" /><rect x="0" y="360.0" width="64" height="1" fill="white" fill-opacity="0.5" /><text x="74" y="374.0" font-size="14" fill="white" font-family="monospace" dominant-baseline="ideographic">2</text><rect x="0" y="450.0" width="64" height="1" fill="white" fill-opacity="0.2" /><rect x="0" y="540.0" width="64" height="1" fill="white" fill-opacity="0.2" /><rect x="0" y="630.0" width="64" height="1" fill="white" fill-opacity="0.2" /><rect x="0" y="720.0" width="64" height="1" fill="white" fill-opacity="0.5" /><text x="74" y="734.0" font-size="14" fill="white" font-family="monospace" dominant-baseline="ideographic">3</text><rect x="0" y="810.0" width="64" height="1" fill="white" fill-opacity="0.2" /><rect x="0" y="900.0" width="64" height="1" fill="white" fill-opacity="0.2" /><rect x="0" y="990.0" width="64" height="1" fill="white" fill-opacity="0.2" /><rect x="0" y="1080.0" width="64" height="1" fill="white" fill-opacity="0.5" /><text x="74" y="1094.0" font-size="14" fill="white" font-family="monospace" dominant-baseline="ideographic">4</text><rect x="0" y="1170.0" width="64" height="1" fill="white" fill-opacity="0.2" /><rect x="0" y="1260.0" width="64" height="1" fill="white" fill-opacity="0.2" /><rect x="0" y="1350.0" width="64" height="1" fill="white" fill-opacity="0.2" /><rect x="0" y="1440.0" width="64" height="1" fill="white" fill-opacity="0.5" /><text x="74" y="1454.0" font-size="14" fill="white" font-family="monospace" dominant-baseline="ideographic">5</text><rect x="0" y="0.0" width="64" height="1" fill="aqua" fill-opacity="0.75" /><text x="0" y="14.0" font-size="14" fill="aqua" fill-opacity="0.75" font-family="monospace">Intro</text><rect x="0" y="1080.0" width="64" height="1" fill="aqua" fill-opacity="0.75" /><text x="0" y="1094.0" font-size="14" fill="aqua" fill-opacity="0.75" font-family="monospace">Phrase A</text><rect x="0" y="0.0" width="64" height="1" fill="lime" fill-opacity="0.75" /><text x="74" y="28.0" font-size="14" fill="lime" font-family="monospace" dominant-baseline="ideographic">100</text><rect x="114" y="0" width="64" height="1440.0" fill="black" /><rect x="114" y="0.0" width="64" height="1" fill="white" fill-opacity="0.5" /><text x="188" y="14.0" font-size="14" fill="white" font-family="monospace" dominant-baseline="ideographic">5</text><rect x="114" y="90.0" width="64" height="1" fill="white" fill-opacity="0.2" /><rect x="114" y="180.0" width="64" height="1" fill="white" fill-opacity="0.2" /><rect x="114" y="270.0" width="64" height="1" fill="white" fill-opacity="0.2" /><rect x="114" y="360.0" width="64" height="1" fill="white" fill-opacity="0.5" /><text x="188" y="374.0" font-size="14" fill="white" font-family="monospace" dominant-baseline="ideographic">6</text><rect x="114" y="450.0" width="64" height="1" fill="white" fill-opacity="0.2" /><rect x="114" y="540.0" width="64" height="1" fill="white" fill-opacity="0.2" /><rect x="114" y="630.0" width="64" height="1" fill="white" fill-opacity="0.2" /><rect x="114" y="720.0" width="64" height="1" fill="white" fill-opacity="0.5" /><text x="188" y="734.0" font-size="14" fill="white" font-family="monospace" dominant-baseline="ideographic">7</text><rect x="114" y="810.0" width="64" height="1" fill="white" fill-opacity="0.2" /><rect x="114" y="900.0" width="64" height="1" fill="white" fill-opacity="0.2" /><rect x="114" y="990.0" width="64" height="1" fill="white" fill-opacity="0.2" /><rect x="114" y="1080.0" width="64" height="1" fill="white" fill-opacity="0.5" /><text x="188" y="1094.0" font-size="14" fill="white" font-family="monospace" dominant-baseline="ideographic">8</text><rect x="114" y="1170.0" width="64" height="1" fill="white" fill-opacity="0.2" /><rect x="114" y="1260.0" width="64" height="1" fill="white" fill-opacity="0.2" /><rect x="114" y="1350.0" width="64" height="1" fill="white" fill-opacity="0.2" /><rect x="114" y="1440.0" width="64" height="1" fill="white" fill-opacity="0.5" /><text x="188" y="1454.0" font-size="14" fill="white" font-family="monospace" dominant-baseline="ideographic">9</text><rect x="114" y="1080.0" width="64" height="1" fill="aqua" fill-opacity="0.75" /><text x="114" y="1094.0" font-size="14" fill="aqua" fill-opacity="0.75" font-family="monospace">Phrase B</text><rect x="228" y="0" width="64" height="1440.0" fill="black" /><rect x="228" y="0.0" width="64" height="1" fill="white" fill-opacity="0.5" /><text x="302" y="14.0" font-size="14" fill="white" font-family="monospace" dominant-baseline="ideographic">9</text><rect x="228" y="90.0" width="64" height="1" fill="white" fill-opacity="0.2" /><rect x="228" y="180.0" width="64" height="1" fill="white" fill-opacity="0.2" /><rect x="228" y="270.0" width="64" height="1" fill="white" fill-opacity="0.2" /><rect x="228" y="360.0" width="64" height="1" fill="white" fill-opacity="0.5" /><text x="302" y="374.0" font-size="14" fill="white" font-family="monospace" dominant-baseline="ideographic">10</text><rect x="228" y="450.0" width="64" height="1" fill="white" fill-opacity="0.2" /><rect x="228" y="540.0" width="64" height="1" fill="white" fill-opacity="0.2" /><rect x="228" y="630.0" width="64" height="1" fill="white" fill-opacity="0.2" /><rect x="228" y="720.0" width="64" height="1" fill="white" fill-opacity="0.5" /><text x="302" y="734.0" font-size="14" fill="white" font-family="monospace" dominant-baseline="ideographic">11</text><rect x="228" y="810.0" width="64" height="1" fill="white" fill-opacity="0.2" /><rect x="228" y="900.0" width="64" height="1" fill="white" fill-opacity="0.2" /><rect x="228" y="990.0" width="64" height="1" fill="white" fill-opacity="0.2" /><rect x="228" y="1080.0" width="64" height="1" fill="white" fill-opacity="0.5" /><text x="302" y="1094.0" font-size="14" fill="white" font-family="monospace" dominant-baseline="ideographic">12</text><rect x="228" y="1170.0" width="64" height="1" fill="white" fill-opacity="0.2" /><rect x="228" y="1260.0" width="64" height="1" fill="white" fill-opacity="0.2" /><rect x="228" y="1350.0" width="64" height="1" fill="white" fill-opacity="0.2" /><rect x="228" y="1440.0" width="64" height="1" fill="white" fill-opacity="0.5" /><text x="302" y="1454.0" font-size="14" fill="white" font-family="monospace" dominant-baseline="ideographic">13</text><rect x="228" y="1080.0" width="64" height="1" fill="aqua" fill-opacity="0.75" /><text x="228" y="1094.0" font-size="14" fill="aqua" fill-opacity="0.75" font-family="monospace">Phrase A</text><rect x="342" y="0" width="64" height="1440.0" fill="black" /><rect x="342" y="0.0" width="64" height="1" fill="white" fill-opacity="0.5" /><text x="416" y="14.0" font-size="14" fill="white" font-family="monospace" dominant-baseline="ideographic">13</text><rect x="342" y="90.0" width="64" height="1" fill="white" fill-opacity="0.2" /><rect x="342" y="180.0" width="64" height="1" fill="white" fill-opacity="0.2" /><rect x="342" y="270.0" width="64" height="1" fill="white" fill-opacity="0.2" /><rect x="342" y="360.0" width="64" height="1" fill="white" fill-opacity="0.5" /><text x="416" y="374.0" font-size="14" fill="white" font-family="monospace" dominant-baseline="ideographic">14</text><rect x="342" y="450.0" width="64" height="1" fill="white" fill-opacity="0.2" /><rect x="342" y="540.0" width="64" height="1" fill="white" fill-opacity="0.2" /><rect x="342" y="630.0" width="64" height="1" fill="white" fill-opacity="0.2" /><rect x="342" y="720.0" width="64" height="1" fill="white" fill-opacity="0.5" /><text x="416" y="734.0" font-size="14" fill="white" font-family="monospace" dominant-baseline="ideographic">15</text><rect x="342" y="810.0" width="64" height="1" fill="white" fill-opacity="0.2" /><rect x="342" y="900.0" width="64" height="1" fill="white" fill-opacity="0.2" /><rect x="342" y="990.0" width="64" height="1" fill="white" fill-opacity="0.2" /><rect x="342" y="1080.0" width="64" height="1" fill="white" fill-opacity="0.5" /><text x="416" y="1094.0" font-size="14" fill="white" font-family="monospace" dominant-baseline="ideographic">16</text><rect x="342" y="1170.0" width="64" height="1" fill="white" fill-opacity="0.2" /><rect x="342" y="1260.0" width="64" height="1" fill="white" fill-opacity="0.2" /><rect x="342" y="1350.0" width="64" height="1" fill="white" fill-opacity="0.2" /><rect x="342" y="1440.0" width="64" height="1" fill="white" fill-opacity="0.5" /><text x="416" y="1454.0" font-size="14" fill="white" font-family="monospace" dominant-baseline="ideographic">17</text><rect x="342" y="1080.0" width="64" height="1" fill="aqua" fill-opacity="0.75" /><text x="342" y="1094.0" font-size="14" fill="aqua" fill-opacity="0.75" font-family="monospace">Phrase B</text><rect x="456" y="0" width="64" height="1440.0" fill="black" /><rect x="456" y="0.0" width="64" height="1" fill="white" fill-opacity="0.5" /><text x="530" y="14.0" font-size="14" fill="white" font-family="monospace" dominant-baseline="ideographic">17</text><rect x="456" y="90.0" width="64" height="1" fill="white" fill-opacity="0.2" /><rect x="456" y="180.0" width="64" height="1" fill="white" fill-opacity="0.2" /><rect x="456" y="270.0" width="64" height="1" fill="white" fill-opacity="0.2" /><rect x="456" y="360.0" width="64" height="1" fill="white" fill-opacity="0.5" /><text x="530" y="374.0" font-size="14" fill="white" font-family="monospace" dominant-baseline="ideographic">18</text><rect x="456" y="450.0" width="64" height="1" fill="white" fill-opacity="0.2" /><rect x="456" y="540.0" width="64" height="1" fill="white" fill-opacity="0.2" /><rect x="456" y="630.0" width="64" height="1" fill="white" fill-opacity="0.2" /><rect x="456" y="720.0" width="64" height="1" fill="white" fill-opacity="0.5" /><text x="530" y="734.0" font-size="14" fill="white" font-family="monospace" dominant-baseline="ideographic">19</text><rect x="456" y="810.0" width="64" height="1" fill="white" fill-opacity="0.2" /><rect x="456" y="900.0" width="64" height="1" fill="white" fill-opacity="0.2" /><rect x="456" y="990.0" width="64" height="1" fill="white" fill-opacity="0.2" /><rect x="456" y="1080.0" width="64" height="1" fill="white" fill-opacity="0.5" /><text x="530" y="1094.0" font-size="14" fill="white" font-family="monospace" dominant-baseline="ideographic">20</text><rect x="456" y="1170.0" width="64" height="1" fill="white" fill-opacity="0.2" /><rect x="456" y="1260.0" width="64" height="1" fill="white" fill-opacity="0.2" /><rect x="456" y="1350.0" width="64" height="1" fill="white" fill-opacity="0.2" /><rect x="456" y="1440.0" width="64" height="1" fill="white" fill-opacity="0.5" /><text x="530" y="1454.0" font-size="14" fill="white" font-family="monospace" dominant-baseline="ideographic">21</text><rect x="456" y="1080.0" width="64" height="1" fill="aqua" fill-opacity="0.75" /><text x="456" y="1094.0" font-size="14" fill="aqua" fill-opacity="0.75" font-family="monospace">Special</text><rect x="570" y="0" width="64" height="1440.0" fill="black" /><rect x="570" y="0.0" width="64" height="1" fill="white" fill-opacity="0.5" /><text x="644" y="14.0" font-size="14" fill="white" font-family="monospace" dominant-baseline="ideographic">21</text><rect x="570" y="90.0" width="64" height="1" fill="white" fill-opacity="0.2" /><rect x="570" y="180.0" width="64" height="1" fill="white" fill-opacity="0.2" /><rect x="570" y="270.0" width="64" height="1" fill="white" fill-opacity="0.2" /><rect x="570" y="360.0" width="64" height="1" fill="white" fill-opacity="0.5" /><text x="644" y="374.0" font-size="14" fill="white" font-family="monospace" dominant-baseline="ideographic">22</text><rect x="570" y="450.0" width="64" height="1" fill="white" fill-opacity="0.2" /><rect x="570" y="540.0" width="64" height="1" fill="white" fill-opacity="0.2" /><rect x="570" y="630.0" width="64" height="1" fill="white" fill-opacity="0.2" /><rect x="570" y="720.0" width="64" height="1" fill="white" fill-opacity="0.5" /><text x="644" y="734.0" font-size="14" fill="white" font-family="monospace" dominant-baseline="ideographic">23</text><rect x="570" y="810.0" width="64" height="1" fill="white" fill-opacity="0.2" /><rect x="570" y="900.0" width="64" height="1" fill="white" fill-opacity="0.2" /><rect x="570" y="990.0" width="64" height="1" fill="white" fill-opacity="0.2" /><rect x="570" y="1080.0" width="64" height="1" fill="white" fill-opacity="0.5" /><text x="644" y="1094.0" font-size="14" fill="white" font-family="monospace" dominant-baseline="ideographic">24</text><rect x="570" y="1170.0" width="64" height="1" fill="white" fill-opacity="0.2" /><rect x="570" y="1260.0" width="64" height="1" fill="white" fill-opacity="0.2" /><rect x="570" y="1350.0" width="64" height="1" fill="white" fill-opacity="0.2" /><rect x="570" y="1440.0" width="64" height="1" fill="white" fill-opacity="0.5" /><text x="644" y="1454.0" font-size="14" fill="white" font-family="monospace" dominant-baseline="ideographic">25</text><rect x="684" y="0" width="64" height="1440.0" fill="black" /><rect x="684" y="0.0" width="64" height="1" fill="white" fill-opacity="0.5" /><text x="758" y="14.0" font-size="14" fill="white" font-family="monospace" dominant-baseline="ideographic">25</text><rect x="684" y="90.0" width="64" height="1" fill="white" fill-opacity="0.2" /><rect x="684" y="180.0" width="64" height="1" fill="white" fill-opacity="0.2" /><rect x="684" y="270.0" width="64" height="1" fill="white" fill-opacity="0.2" /><rect x="684" y="360.0" width="64" height="1" fill="white" fill-opacity="0.5" /><text x="758" y="374.0" font-size="14" fill="white" font-family="monospace" dominant-baseline="ideographic">26</text><rect x="684" y="450.0" width="64" height="1" fill="white" fill-opacity="0.2" /><rect x="684" y="540.0" width="64" height="1" fill="white" fill-opacity="0.2" /><rect x="684" y="630.0" width="64" height="1" fill="white" fill-opacity="0.2" /><rect x="684" y="720.0" width="64" height="1" fill="white" fill-opacity="0.5" /><text x="758" y="734.0" font-size="14" fill="white" font-family="monospace" dominant-baseline="ideographic">27</text><rect x="684" y="810.0" width="64" height="1" fill="white" fill-opacity="0.2" /><rect x="684" y="900.0" width="64" height="1" fill="white" fill-opacity="0.2" /><rect x="684" y="990.0" width="64" height="1" fill="white" fill-opacity="0.2" /><rect x="684" y="1080.0" width="64" height="1" fill="white" fill-opacity="0.5" /><text x="758" y="1094.0" font-size="14" fill="white" font-family="monospace" dominant-baseline="ideographic">28</text><rect x="684" y="1170.0" width="64" height="1" fill="white" fill-opacity="0.2" /><rect x="684" y="1260.0" width="64" height="1" fill="white" fill-opacity="0.2" /><rect x="684" y="1350.0" width="64" height="1" fill="white" fill-opacity="0.2" /><rect x="684" y="1440.0" width="64" height="1" fill="white" fill-opacity="0.5" /><text x="758" y="1454.0" font-size="14" fill="white" font-family="monospace" dominant-baseline="ideographic">29</text><rect x="684" y="1080.0" width="64" height="1" fill="aqua" fill-opacity="0.75" /><text x="684" y="1094.0" font-size="14" fill="aqua" fill-opacity="0.75" font-family="monospace">Solo</text><rect x="798" y="0" width="64" height="1440.0" fill="black" /><rect x="798" y="0.0" width="64" height="1" fill="white" fill-opacity="0.5" /><text x="872" y="14.0" font-size="14" fill="white" font-family="monospace" dominant-baseline="ideographic">29</text><rect x="798" y="90.0" width="64" height="1" fill="white" fill-opacity="0.2" /><rect x="798" y="180.0" width="64" height="1" fill="white" fill-opacity="0.2" /><rect x="798" y="270.0" width="64" height="1" fill="white" fill-opacity="0.2" /><rect x="798" y="360.0" width="64" height="1" fill="white" fill-opacity="0.5" /><text x="872" y="374.0" font-size="14" fill="white" font-family="monospace" dominant-baseline="ideographic">30</text><rect x="798" y="450.0" width="64" height="1" fill="white" fill-opacity="0.2" /><rect x="798" y="540.0" width="64" height="1" fill="white" fill-opacity="0.2" /><rect x="798" y="630.0" width="64" height="1" fill="white" fill-opacity="0.2" /><rect x="798" y="720.0" width="64" height="1" fill="white" fill-opacity="0.5" /><text x="872" y="734.0" font-size="14" fill="white" font-family="monospace" dominant-baseline="ideographic">31</text><rect x="798" y="810.0" width="64" height="1" fill="white" fill-opacity="0.2" /><rect x="798" y="900.0" width="64" height="1" fill="white" fill-opacity="0.2" /><rect x="798" y="990.0" width="64" height="1" fill="white" fill-opacity="0.2" /><rect x="798" y="1080.0" width="64" height="1" fill="white" fill-opacity="0.5" /><text x="872" y="1094.0" font-size="14" fill="white" font-family="monospace" dominant-baseline="ideographic">32</text><rect x="798" y="1170.0" width="64" height="1" fill="white" fill-opacity="0.2" /><rect x="798" y="1260.0" width="64" height="1" fill="white" fill-opacity="0.2" /><rect x="798" y="1350.0" width="64" height="1" fill="white" fill-opacity="0.2" /><rect x="798" y="1440.0" width="64" height="1" fill="white" fill-opacity="0.5" /><text x="872" y="1454.0" font-size="14" fill="white" font-family="monospace" dominant-baseline="ideographic">33</text><rect x="912" y="0" width="64" height="1425.0" fill="black" /><rect x="912" y="0.0" width="64" height="1" fill="white" fill-opacity="0.5" /><text x="986" y="14.0" font-size="14" fill="white" font-family="monospace" dominant-baseline="ideographic">33</text><rect x="912" y="90.0" width="64" height="1" fill="white" fill-opacity="0.2" /><rect x="912" y="180.0" width="64" height="1" fill="white" fill-opacity="0.2" /><rect x="912" y="270.0" width="64" height="1" fill="white" fill-opacity="0.2" /><rect x="912" y="360.0" width="64" height="1" fill="white" fill-opacity="0.5" /><text x="986" y="374.0" font-size="14" fill="white" font-family="monospace" dominant-baseline="ideographic">34</text><rect x="912" y="450.0" width="64" height="1" fill="white" fill-opacity="0.2" /><rect x="912" y="540.0" width="64" height="1" fill="white" fill-opacity="0.2" /><rect x="912" y="630.0" width="64" height="1" fill="white" fill-opacity="0.2" /><rect x="912" y="720.0" width="64" height="1" fill="white" fill-opacity="0.5" /><text x="986" y="734.0" font-size="14" fill="white" font-family="monospace" dominant-baseline="ideographic">35</text><rect x="912" y="810.0" width="64" height="1" fill="white" fill-opacity="0.2" /><rect x="912" y="900.0" width="64" height="1" fill="white" fill-opacity="0.2" /><rect x="912" y="990.0" width="64" height="1" fill="white" fill-opacity="0.2" /><rect x="912" y="1080.0" width="64" height="1" fill="white" fill-opacity="0.5" /><text x="986" y="1094.0" font-size="14" fill="white" font-family="monospace" dominant-baseline="ideographic">36</text></svg>