<?xml version="1.0" encoding="UTF-8"?><svg xmlns="http://www.w3.org/2000/svg" xmlns:xlink="http://www.w3.org/1999/xlink"     width="1368" height="1305.5" viewBox="0 0 1368 1305.5"><defs></defs><rect x="114.0" y="469.5" width="12.0" height="3" fill="#ff3c3c" stroke="#c71f1f" /><rect x="127.0" y="469.5" width="12.0" height="3" fill="#35df39" stroke="#03aa10" /><rect x="140.0" y="469.5" width="12.0" height="3" fill="#80c9ff" stroke="#0b6cba" /><rect x="127.0" y="534.5" width="12.0" height="3" fill="#35df39" stroke="#03aa10" /><rect x="153.0" y="534.5" width="12.0" height="3" fill="#fff874" stroke="#eb9c26" /><rect x="114.0" y="626.0" width="12.0" height="3" fill="#ff3c3c" stroke="#c71f1f" /><rect x="127.0" y="626.0" width="12.0" height="3" fill="#35df39" stroke="#03aa10" /><rect x="127.0" y="665.0" width="12.0" height="3" fill="#35df39" stroke="#03aa10" /><rect x="127.0" y="704.0" width="12.0" height="3" fill="#35df39" stroke="#03aa10" /><rect x="140.0" y="704.0" width="12.0" height="3" fill="#80c9ff" stroke="#0b6cba" /><rect x="127.0" y="743.5" width="12.0" height="3" fill="#35df39" stroke="#03aa10" /><rect x="153.0" y="743.5" width="12.0" height="3" fill="#fff874" stroke="#eb9c26" /><rect x="140.0" y="782.5" width="12.0" height="3" fill="#80c9ff" stroke="#0b6cba" /><rect x="153.0" y="821.5" width="12.0" height="3" fill="#fff874" stroke="#eb9c26" /><rect x="166.0" y="860.5" width="12.0" height="3" fill="#ff83f4" stroke="#d002bc" /><rect x="153.0" y="887.0" width="12.0" height="3" fill="#fff874" stroke="#eb9c26" /><rect x="140.0" y="900.0" width="12.0" height="3" fill="#80c9ff" stroke="#0b6cba" /><rect x="127.0" y="939.0" width="12.0" height="3" fill="#35df39" stroke="#03aa10" /><rect x="153.0" y="939.0" width="12.0" height="3" fill="#fff874" stroke="#eb9c26" /><rect x="114.0" y="978.0" width="12.0" height="3" fill="#ff3c3c" stroke="#c71f1f" /><rect x="127.0" y="1017.0" width="12.0" height="3" fill="#35df39" stroke="#03aa10" /><rect x="140.0" y="1056.5" width="12.0" height="3" fill="#80c9ff" stroke="#0b6cba" /><rect x="127.0" y="1095.5" width="12.0" height="3" fill="#35df39" stroke="#03aa10" /><rect x="153.0" y="1095.5" width="12.0" height="3" fill="#fff874" stroke="#eb9c26" /><rect x="140.0" y="1134.5" width="12.0" height="3" fill="#80c9ff" stroke="#0b6cba" /><rect x="114.0" y="1160.5" width="12.0" height="3" fill="#ff3c3c" stroke="#c71f1f" /><rect x="127.0" y="1160.5" width="12.0" height="3" fill="#35df39" stroke="#03aa10" /><rect x="166.0" y="1200.0" width="12.0" height="3" fill="#ff83f4" stroke="#d002bc" /><rect x="153.0" y="1213.0" width="12.0" height="3" fill="#fff874" stroke="#eb9c26" /><rect x="140.0" y="1239.0" width="12.0" height="3" fill="#80c9ff" stroke="#0b6cba" /><rect x="241.0" y="0.0" width="12.0" height="3" fill="#35df39" stroke="#03aa10" /><rect x="254.0" y="39.0" width="12.0" height="3" fill="#80c9ff" stroke="#0b6cba" /><rect x="241.0" y="78.0" width="12.0" height="3" fill="#35df39" stroke="#03aa10" /><rect x="267.0" y="78.0" width="12.0" height="3" fill="#fff874" stroke="#eb9c26" /><rect x="280.0" y="117.5" width="12.0" height="3" fill="#ff83f4" stroke="#d002bc" /><rect x="254.0" y="156.5" width="12.0" height="3" fill="#80c9ff" stroke="#0b6cba" /><rect x="267.0" y="156.5" width="12.0" height="3" fill="#fff874" stroke="#eb9c26" /><rect x="280.0" y="195.5" width="12.0" height="3" fill="#ff83f4" stroke="#d002bc" /><rect x="241.0" y="221.5" width="12.0" height="3" fill="#35df39" stroke="#03aa10" /><rect x="254.0" y="221.5" width="12.0" height="3" fill="#80c9ff" stroke="#0b6cba" /><rect x="241.0" y="261.0" width="12.0" height="3" fill="#35df39" stroke="#03aa10" /><rect x="254.0" y="261.0" width="12.0" height="3" fill="#80c9ff" stroke="#0b6cba" /><rect x="228.0" y="274.0" width="12.0" height="3" fill="#ff3c3c" stroke="#c71f1f" /><rect x="241.0" y="274.0" width="12.0" height="3" fill="#35df39" stroke="#03aa10" /><rect x="228.0" y="313.0" width="12.0" height="3" fill="#ff3c3c" stroke="#c71f1f" /><rect x="241.0" y="313.0" width="12.0" height="3" fill="#35df39" stroke="#03aa10" /><rect x="254.0" y="339.0" width="12.0" height="3" fill="#80c9ff" stroke="#0b6cba" /><rect x="267.0" y="378.0" width="12.0" height="3" fill="#fff874" stroke="#eb9c26" /><rect x="280.0" y="391.5" width="12.0" height="3" fill="#ff83f4" stroke="#d002bc" /><rect x="241.0" y="430.5" width="12.0" height="3" fill="#35df39" stroke="#03aa10" /><rect x="254.0" y="430.5" width="12.0" height="3" fill="#80c9ff" stroke="#0b6cba" /><rect x="228.0" y="469.5" width="12.0" height="3" fill="#ff3c3c" stroke="#c71f1f" /><rect x="241.0" y="508.5" width="12.0" height="3" fill="#35df39" stroke="#03aa10" /><rect x="267.0" y="508.5" width="12.0" height="3" fill="#fff874" stroke="#eb9c26" /><rect x="254.0" y="548.0" width="12.0" height="3" fill="#80c9ff" stroke="#0b6cba" /><rect x="267.0" y="574.0" width="12.0" height="3" fill="#fff874" stroke="#eb9c26" /><rect x="280.0" y="574.0" width="12.0" height="3" fill="#ff83f4" stroke="#d002bc" /><rect x="254.0" y="613.0" width="12.0" height="3" fill="#80c9ff" stroke="#0b6cba" /><rect x="228.0" y="626.0" width="12.0" height="3" fill="#ff3c3c" stroke="#c71f1f" /><rect x="241.0" y="626.0" width="12.0" height="3" fill="#35df39" stroke="#03aa10" /><rect x="241.0" y="665.0" width="12.0" height="3" fill="#35df39" stroke="#03aa10" /><rect x="241.0" y="704.5" width="12.0" height="3" fill="#35df39" stroke="#03aa10" /><rect x="254.0" y="704.5" width="12.0" height="3" fill="#80c9ff" stroke="#0b6cba" /><rect x="241.0" y="743.5" width="12.0" height="3" fill="#35df39" stroke="#03aa10" /><rect x="267.0" y="743.5" width="12.0" height="3" fill="#fff874" stroke="#eb9c26" /><rect x="254.0" y="782.5" width="12.0" height="3" fill="#80c9ff" stroke="#0b6cba" /><rect x="267.0" y="821.5" width="12.0" height="3" fill="#fff874" stroke="#eb9c26" /><rect x="280.0" y="861.0" width="12.0" height="3" fill="#ff83f4" stroke="#d002bc" /><rect x="267.0" y="887.0" width="12.0" height="3" fill="#fff874" stroke="#eb9c26" /><rect x="254.0" y="900.0" width="12.0" height="3" fill="#80c9ff" stroke="#0b6cba" /><rect x="241.0" y="939.0" width="12.0" height="3" fill="#35df39" stroke="#03aa10" /><rect x="267.0" y="939.0" width="12.0" height="3" fill="#fff874" stroke="#eb9c26" /><rect x="228.0" y="978.0" width="12.0" height="3" fill="#ff3c3c" stroke="#c71f1f" /><rect x="241.0" y="1017.5" width="12.0" height="3" fill="#35df39" stroke="#03aa10" /><rect x="254.0" y="1056.5" width="12.0" height="3" fill="#80c9ff" stroke="#0b6cba" /><rect x="241.0" y="1095.5" width="12.0" height="3" fill="#35df39" stroke="#03aa10" /><rect x="267.0" y="1095.5" width="12.0" height="3" fill="#fff874" stroke="#eb9c26" /><rect x="254.0" y="1135.0" width="12.0" height="3" fill="#80c9ff" stroke="#0b6cba" /><rect x="241.0" y="1161.0" width="12.0" height="3" fill="#35df39" stroke="#03aa10" /><rect x="280.0" y="1200.0" width="12.0" height="3" fill="#ff83f4" stroke="#d002bc" /><rect x="267.0" y="1213.0" width="12.0" height="3" fill="#fff874" stroke="#eb9c26" /><rect x="254.0" y="1239.0" width="12.0" height="3" fill="#80c9ff" stroke="#0b6cba" /><rect x="355.0" y="0.0" width="12.0" height="3" fill="#35df39" stroke="#03aa10" /><rect x="368.0" y="39.5" width="12.0" height="3" fill="#80c9ff" stroke="#0b6cba" /><rect x="355.0" y="78.5" width="12.0" height="3" fill="#35df39" stroke="#03aa10" /><rect x="381.0" y="78.5" width="12.0" height="3" fill="#fff874" stroke="#eb9c26" /><rect x="394.0" y="117.5" width="12.0" height="3" fill="#ff83f4" stroke="#d002bc" /><rect x="368.0" y="156.5" width="12.0" height="3" fill="#80c9ff" stroke="#0b6cba" /><rect x="381.0" y="156.5" width="12.0" height="3" fill="#fff874" stroke="#eb9c26" /><rect x="394.0" y="196.0" width="12.0" height="3" fill="#ff83f4" stroke="#d002bc" /><rect x="381.0" y="222.0" width="12.0" height="3" fill="#fff874" stroke="#eb9c26" /><rect x="368.0" y="235.0" width="12.0" height="3" fill="#80c9ff" stroke="#0b6cba" /><rect x="394.0" y="274.0" width="12.0" height="3" fill="#ff83f4" stroke="#d002bc" /><rect x="381.0" y="300.0" width="12.0" height="3" fill="#fff874" stroke="#eb9c26" /><rect x="355.0" y="313.0" width="12.0" height="3" fill="#35df39" stroke="#03aa10" /><rect x="368.0" y="313.0" width="12.0" height="3" fill="#80c9ff" stroke="#0b6cba" /><rect x="394.0" y="352.5" width="12.0" height="3" fill="#ff83f4" stroke="#d002bc" /><rect x="368.0" y="391.5" width="12.0" height="3" fill="#80c9ff" stroke="#0b6cba" /><rect x="381.0" y="391.5" width="12.0" height="3" fill="#fff874" stroke="#eb9c26" /><rect x="394.0" y="430.5" width="12.0" height="3" fill="#ff83f4" stroke="#d002bc" /><rect x="381.0" y="456.5" width="12.0" height="3" fill="#fff874" stroke="#eb9c26" /><rect x="355.0" y="469.5" width="12.0" height="3" fill="#35df39" stroke="#03aa10" /><rect x="381.0" y="496.0" width="12.0" height="3" fill="#fff874" stroke="#eb9c26" /><rect x="368.0" y="548.0" width="12.0" height="3" fill="#80c9ff" stroke="#0b6cba" /><rect x="381.0" y="548.0" width="12.0" height="3" fill="#fff874" stroke="#eb9c26" /><rect x="355.0" y="587.0" width="12.0" height="3" fill="#35df39" stroke="#03aa10" /><rect x="381.0" y="587.0" width="12.0" height="3" fill="#fff874" stroke="#eb9c26" /><rect x="342.0" y="626.0" width="12.0" height="3" fill="#ff3c3c" stroke="#c71f1f" /><rect x="355.0" y="626.0" width="12.0" height="3" fill="#35df39" stroke="#03aa10" /><rect x="394.0" y="652.5" width="12.0" height="3" fill="#ff83f4" stroke="#d002bc" /><rect x="355.0" y="665.5" width="12.0" height="3" fill="#35df39" stroke="#03aa10" /><rect x="368.0" y="704.5" width="12.0" height="3" fill="#80c9ff" stroke="#0b6cba" /><rect x="381.0" y="743.5" width="12.0" height="3" fill="#fff874" stroke="#eb9c26" /><rect x="368.0" y="783.0" width="12.0" height="3" fill="#80c9ff" stroke="#0b6cba" /><rect x="394.0" y="783.0" width="12.0" height="3" fill="#ff83f4" stroke="#d002bc" /><rect x="381.0" y="822.0" width="12.0" height="3" fill="#fff874" stroke="#eb9c26" /><rect x="368.0" y="861.0" width="12.0" height="3" fill="#80c9ff" stroke="#0b6cba" /><rect x="355.0" y="900.0" width="12.0" height="3" fill="#35df39" stroke="#03aa10" /><rect x="381.0" y="900.0" width="12.0" height="3" fill="#fff874" stroke="#eb9c26" /><rect x="342.0" y="939.5" width="12.0" height="3" fill="#ff3c3c" stroke="#c71f1f" /><rect x="355.0" y="978.5" width="12.0" height="3" fill="#35df39" stroke="#03aa10" /><rect x="381.0" y="1017.5" width="12.0" height="3" fill="#fff874" stroke="#eb9c26" /><rect x="368.0" y="1056.5" width="12.0" height="3" fill="#80c9ff" stroke="#0b6cba" /><rect x="368.0" y="1096.0" width="12.0" height="3" fill="#80c9ff" stroke="#0b6cba" /><rect x="381.0" y="1096.0" width="12.0" height="3" fill="#fff874" stroke="#eb9c26" /><rect x="355.0" y="1135.0" width="12.0" height="3" fill="#35df39" stroke="#03aa10" /><rect x="381.0" y="1135.0" width="12.0" height="3" fill="#fff874" stroke="#eb9c26" /><rect x="355.0" y="1174.0" width="12.0" height="3" fill="#35df39" stroke="#03aa10" /><rect x="368.0" y="1174.0" width="12.0" height="3" fill="#80c9ff" stroke="#0b6cba" /><rect x="342.0" y="1213.0" width="12.0" height="3" fill="#ff3c3c" stroke="#c71f1f" /><rect x="368.0" y="1213.0" width="12.0" height="3" fill="#80c9ff" stroke="#0b6cba" /><rect x="456.0" y="0.0" width="12.0" height="3" fill="#ff3c3c" stroke="#c71f1f" /><rect x="469.0" y="0.0" width="12.0" height="3" fill="#35df39" stroke="#03aa10" /><rect x="482.0" y="39.0" width="12.0" height="3" fill="#80c9ff" stroke="#0b6cba" /><rect x="495.0" y="78.0" width="12.0" height="3" fill="#fff874" stroke="#eb9c26" /><rect x="469.0" y="117.0" width="12.0" height="3" fill="#35df39" stroke="#03aa10" /><rect x="482.0" y="117.0" width="12.0" height="3" fill="#80c9ff" stroke="#0b6cba" /><rect x="456.0" y="156.5" width="12.0" height="3" fill="#ff3c3c" stroke="#c71f1f" /><rect x="482.0" y="156.5" width="12.0" height="3" fill="#80c9ff" stroke="#0b6cba" /><rect x="495.0" y="195.5" width="12.0" height="3" fill="#fff874" stroke="#eb9c26" /><rect x="508.0" y="234.5" width="12.0" height="3" fill="#ff83f4" stroke="#d002bc" /><rect x="482.0" y="260.5" width="12.0" height="3" fill="#80c9ff" stroke="#0b6cba" /><rect x="495.0" y="260.5" width="12.0" height="3" fill="#fff874" stroke="#eb9c26" /><rect x="469.0" y="273.5" width="12.0" height="3" fill="#35df39" stroke="#03aa10" /><rect x="495.0" y="313.0" width="12.0" height="3" fill="#fff874" stroke="#eb9c26" /><rect x="469.0" y="352.0" width="12.0" height="3" fill="#35df39" stroke="#03aa10" /><rect x="482.0" y="352.0" width="12.0" height="3" fill="#80c9ff" stroke="#0b6cba" /><rect x="456.0" y="391.0" width="12.0" height="3" fill="#ff3c3c" stroke="#c71f1f" /><rect x="469.0" y="430.5" width="12.0" height="3" fill="#35df39" stroke="#03aa10" /><rect x="482.0" y="430.5" width="12.0" height="3" fill="#80c9ff" stroke="#0b6cba" /><rect x="495.0" y="469.5" width="12.0" height="3" fill="#fff874" stroke="#eb9c26" /><rect x="456.0" y="508.5" width="12.0" height="3" fill="#ff3c3c" stroke="#c71f1f" /><rect x="456.0" y="547.5" width="12.0" height="3" fill="#ff3c3c" stroke="#c71f1f" /><rect x="469.0" y="547.5" width="12.0" height="3" fill="#35df39" stroke="#03aa10" /><rect x="456.0" y="587.0" width="12.0" height="3" fill="#ff3c3c" stroke="#c71f1f" /><rect x="482.0" y="587.0" width="12.0" height="3" fill="#80c9ff" stroke="#0b6cba" /><rect x="495.0" y="626.0" width="12.0" height="3" fill="#fff874" stroke="#eb9c26" /><rect x="508.0" y="665.0" width="12.0" height="3" fill="#ff83f4" stroke="#d002bc" /><rect x="495.0" y="704.0" width="12.0" height="3" fill="#fff874" stroke="#eb9c26" /><rect x="508.0" y="704.0" width="12.0" height="3" fill="#ff83f4" stroke="#d002bc" /><rect x="482.0" y="743.5" width="12.0" height="3" fill="#80c9ff" stroke="#0b6cba" /><rect x="508.0" y="743.5" width="12.0" height="3" fill="#ff83f4" stroke="#d002bc" /><rect x="495.0" y="782.5" width="12.0" height="3" fill="#fff874" stroke="#eb9c26" /><rect x="482.0" y="821.5" width="12.0" height="3" fill="#80c9ff" stroke="#0b6cba" /><rect x="469.0" y="860.5" width="12.0" height="3" fill="#35df39" stroke="#03aa10" /><rect x="482.0" y="860.5" width="12.0" height="3" fill="#80c9ff" stroke="#0b6cba" /><rect x="469.0" y="900.0" width="12.0" height="3" fill="#35df39" stroke="#03aa10" /><rect x="482.0" y="900.0" width="12.0" height="3" fill="#80c9ff" stroke="#0b6cba" /><rect x="456.0" y="939.0" width="12.0" height="3" fill="#ff3c3c" stroke="#c71f1f" /><rect x="469.0" y="978.0" width="12.0" height="3" fill="#35df39" stroke="#03aa10" /><rect x="482.0" y="1017.0" width="12.0" height="3" fill="#80c9ff" stroke="#0b6cba" /><rect x="495.0" y="1017.0" width="12.0" height="3" fill="#fff874" stroke="#eb9c26" /><rect x="469.0" y="1056.5" width="12.0" height="3" fill="#35df39" stroke="#03aa10" /><rect x="495.0" y="1056.5" width="12.0" height="3" fill="#fff874" stroke="#eb9c26" /><rect x="469.0" y="1095.5" width="12.0" height="3" fill="#35df39" stroke="#03aa10" /><rect x="482.0" y="1095.5" width="12.0" height="3" fill="#80c9ff" stroke="#0b6cba" /><rect x="456.0" y="1134.5" width="12.0" height="3" fill="#ff3c3c" stroke="#c71f1f" /><rect x="482.0" y="1134.5" width="12.0" height="3" fill="#80c9ff" stroke="#0b6cba" /><rect x="469.0" y="1173.5" width="12.0" height="3" fill="#35df39" stroke="#03aa10" /><rect x="456.0" y="1213.0" width="12.0" height="3" fill="#ff3c3c" stroke="#c71f1f" /><rect x="570.0" y="0.0" width="12.0" height="3" fill="#ff3c3c" stroke="#c71f1f" /><rect x="583.0" y="0.0" width="12.0" height="3" fill="#35df39" stroke="#03aa10" /><rect x="570.0" y="39.0" width="12.0" height="3" fill="#ff3c3c" stroke="#c71f1f" /><rect x="583.0" y="78.5" width="12.0" height="3" fill="#35df39" stroke="#03aa10" /><rect x="596.0" y="78.5" width="12.0" height="3" fill="#80c9ff" stroke="#0b6cba" /><rect x="583.0" y="117.5" width="12.0" height="3" fill="#35df39" stroke="#03aa10" /><rect x="596.0" y="156.5" width="12.0" height="3" fill="#80c9ff" stroke="#0b6cba" /><rect x="609.0" y="156.5" width="12.0" height="3" fill="#fff874" stroke="#eb9c26" /><rect x="596.0" y="195.5" width="12.0" height="3" fill="#80c9ff" stroke="#0b6cba" /><rect x="609.0" y="235.0" width="12.0" height="3" fill="#fff874" stroke="#eb9c26" /><rect x="622.0" y="235.0" width="12.0" height="3" fill="#ff83f4" stroke="#d002bc" /><rect x="609.0" y="274.0" width="12.0" height="3" fill="#fff874" stroke="#eb9c26" /><rect x="570.0" y="300.0" width="12.0" height="3" fill="#ff3c3c" stroke="#c71f1f" /><rect x="583.0" y="300.0" width="12.0" height="3" fill="#35df39" stroke="#03aa10" /><rect x="596.0" y="300.0" width="12.0" height="3" fill="#80c9ff" stroke="#0b6cba" /><rect x="570.0" y="329.5" width="12.0" height="3" fill="#ff3c3c" stroke="#c71f1f" /><rect x="583.0" y="329.5" width="12.0" height="3" fill="#35df39" stroke="#03aa10" /><rect x="596.0" y="329.5" width="12.0" height="3" fill="#80c9ff" stroke="#0b6cba" /><rect x="609.0" y="391.5" width="12.0" height="3" fill="#fff874" stroke="#eb9c26" /><rect x="609.0" y="430.5" width="12.0" height="3" fill="#fff874" stroke="#eb9c26" /><rect x="583.0" y="456.5" width="12.0" height="3" fill="#35df39" stroke="#03aa10" /><rect x="596.0" y="456.5" width="12.0" height="3" fill="#80c9ff" stroke="#0b6cba" /><rect x="583.0" y="613.0" width="12.0" height="3" fill="#35df39" stroke="#03aa10" /><rect x="609.0" y="626.0" width="12.0" height="3" fill="#fff874" stroke="#eb9c26" /><rect x="596.0" y="665.0" width="12.0" height="3" fill="#80c9ff" stroke="#0b6cba" /><rect x="609.0" y="665.0" width="12.0" height="3" fill="#fff874" stroke="#eb9c26" /><rect x="583.0" y="704.5" width="12.0" height="3" fill="#35df39" stroke="#03aa10" /><rect x="609.0" y="704.5" width="12.0" height="3" fill="#fff874" stroke="#eb9c26" /><rect x="596.0" y="743.5" width="12.0" height="3" fill="#80c9ff" stroke="#0b6cba" /><rect x="583.0" y="782.5" width="12.0" height="3" fill="#35df39" stroke="#03aa10" /><rect x="596.0" y="782.5" width="12.0" height="3" fill="#80c9ff" stroke="#0b6cba" /><rect x="570.0" y="821.5" width="12.0" height="3" fill="#ff3c3c" stroke="#c71f1f" /><rect x="583.0" y="821.5" width="12.0" height="3" fill="#35df39" stroke="#03aa10" /><rect x="570.0" y="861.0" width="12.0" height="3" fill="#ff3c3c" stroke="#c71f1f" /><rect x="570.0" y="900.0" width="12.0" height="3" fill="#ff3c3c" stroke="#c71f1f" /><rect x="583.0" y="900.0" width="12.0" height="3" fill="#35df39" stroke="#03aa10" /><rect x="570.0" y="939.0" width="12.0" height="3" fill="#ff3c3c" stroke="#c71f1f" /><rect x="583.0" y="978.5" width="12.0" height="3" fill="#35df39" stroke="#03aa10" /><rect x="596.0" y="978.5" width="12.0" height="3" fill="#80c9ff" stroke="#0b6cba" /><rect x="622.0" y="1017.5" width="12.0" height="3" fill="#ff83f4" stroke="#d002bc" /><rect x="596.0" y="1056.5" width="12.0" height="3" fill="#80c9ff" stroke="#0b6cba" /><rect x="609.0" y="1056.5" width="12.0" height="3" fill="#fff874" stroke="#eb9c26" /><rect x="583.0" y="1095.5" width="12.0" height="3" fill="#35df39" stroke="#03aa10" /><rect x="609.0" y="1095.5" width="12.0" height="3" fill="#fff874" stroke="#eb9c26" /><rect x="596.0" y="1135.0" width="12.0" height="3" fill="#80c9ff" stroke="#0b6cba" /><rect x="583.0" y="1174.0" width="12.0" height="3" fill="#35df39" stroke="#03aa10" /><rect x="596.0" y="1174.0" width="12.0" height="3" fill="#80c9ff" stroke="#0b6cba" /><rect x="596.0" y="1213.0" width="12.0" height="3" fill="#80c9ff" stroke="#0b6cba" /><rect x="684.0" y="0.0" width="12.0" height="3" fill="#ff3c3c" stroke="#c71f1f" /><rect x="697.0" y="0.0" width="12.0" height="3" fill="#35df39" stroke="#03aa10" /><rect x="697.0" y="39.5" width="12.0" height="3" fill="#35df39" stroke="#03aa10" /><rect x="710.0" y="39.5" width="12.0" height="3" fill="#80c9ff" stroke="#0b6cba" /><rect x="710.0" y="78.5" width="12.0" height="3" fill="#80c9ff" stroke="#0b6cba" /><rect x="723.0" y="78.5" width="12.0" height="3" fill="#fff874" stroke="#eb9c26" /><rect x="684.0" y="117.5" width="12.0" height="3" fill="#ff3c3c" stroke="#c71f1f" /><rect x="697.0" y="117.5" width="12.0" height="3" fill="#35df39" stroke="#03aa10" /><rect x="684.0" y="156.5" width="12.0" height="3" fill="#ff3c3c" stroke="#c71f1f" /><rect x="710.0" y="156.5" width="12.0" height="3" fill="#80c9ff" stroke="#0b6cba" /><rect x="684.0" y="196.0" width="12.0" height="3" fill="#ff3c3c" stroke="#c71f1f" /><rect x="697.0" y="196.0" width="12.0" height="3" fill="#35df39" stroke="#03aa10" /><rect x="684.0" y="235.0" width="12.0" height="3" fill="#ff3c3c" stroke="#c71f1f" /><rect x="710.0" y="235.0" width="12.0" height="3" fill="#80c9ff" stroke="#0b6cba" /><rect x="684.0" y="274.0" width="12.0" height="3" fill="#ff3c3c" stroke="#c71f1f" /><rect x="697.0" y="313.0" width="12.0" height="3" fill="#35df39" stroke="#03aa10" /><rect x="710.0" y="313.0" width="12.0" height="3" fill="#80c9ff" stroke="#0b6cba" /><rect x="710.0" y="352.5" width="12.0" height="3" fill="#80c9ff" stroke="#0b6cba" /><rect x="723.0" y="352.5" width="12.0" height="3" fill="#fff874" stroke="#eb9c26" /><rect x="723.0" y="391.5" width="12.0" height="3" fill="#fff874" stroke="#eb9c26" /><rect x="736.0" y="391.5" width="12.0" height="3" fill="#ff83f4" stroke="#d002bc" /><rect x="723.0" y="430.5" width="12.0" height="3" fill="#fff874" stroke="#eb9c26" /><rect x="697.0" y="469.5" width="12.0" height="3" fill="#35df39" stroke="#03aa10" /><rect x="710.0" y="469.5" width="12.0" height="3" fill="#80c9ff" stroke="#0b6cba" /><rect x="710.0" y="509.0" width="12.0" height="3" fill="#80c9ff" stroke="#0b6cba" /><rect x="736.0" y="509.0" width="12.0" height="3" fill="#ff83f4" stroke="#d002bc" /><rect x="710.0" y="587.0" width="12.0" height="3" fill="#80c9ff" stroke="#0b6cba" /><rect x="736.0" y="587.0" width="12.0" height="3" fill="#ff83f4" stroke="#d002bc" /><rect x="684.0" y="626.5" width="12.0" height="3" fill="#ff3c3c" stroke="#c71f1f" /><rect x="697.0" y="665.5" width="12.0" height="3" fill="#35df39" stroke="#03aa10" /><rect x="710.0" y="665.5" width="12.0" height="3" fill="#80c9ff" stroke="#0b6cba" /><rect x="723.0" y="704.5" width="12.0" height="3" fill="#fff874" stroke="#eb9c26" /><rect x="697.0" y="743.5" width="12.0" height="3" fill="#35df39" stroke="#03aa10" /><rect x="710.0" y="743.5" width="12.0" height="3" fill="#80c9ff" stroke="#0b6cba" /><rect x="723.0" y="783.0" width="12.0" height="3" fill="#fff874" stroke="#eb9c26" /><rect x="736.0" y="783.0" width="12.0" height="3" fill="#ff83f4" stroke="#d002bc" /><rect x="710.0" y="822.0" width="12.0" height="3" fill="#80c9ff" stroke="#0b6cba" /><rect x="697.0" y="861.0" width="12.0" height="3" fill="#35df39" stroke="#03aa10" /><rect x="723.0" y="861.0" width="12.0" height="3" fill="#fff874" stroke="#eb9c26" /><rect x="684.0" y="900.0" width="12.0" height="3" fill="#ff3c3c" stroke="#c71f1f" /><rect x="710.0" y="939.5" width="12.0" height="3" fill="#80c9ff" stroke="#0b6cba" /><rect x="723.0" y="978.5" width="12.0" height="3" fill="#fff874" stroke="#eb9c26" /><rect x="697.0" y="1017.5" width="12.0" height="3" fill="#35df39" stroke="#03aa10" /><rect x="710.0" y="1017.5" width="12.0" height="3" fill="#80c9ff" stroke="#0b6cba" /><rect x="684.0" y="1056.5" width="12.0" height="3" fill="#ff3c3c" stroke="#c71f1f" /><rect x="697.0" y="1056.5" width="12.0" height="3" fill="#35df39" stroke="#03aa10" /><rect x="736.0" y="1096.0" width="12.0" height="3" fill="#ff83f4" stroke="#d002bc" /><rect x="684" y="1096.0" width="64" height="3" fill="#ff72e7" stroke="#7c7c7c" /><rect x="697.0" y="1135.0" width="12.0" height="3" fill="#35df39" stroke="#03aa10" /><rect x="710.0" y="1135.0" width="12.0" height="3" fill="#80c9ff" stroke="#0b6cba" /><rect x="723.0" y="1174.0" width="12.0" height="3" fill="#fff874" stroke="#eb9c26" /><rect x="684.0" y="1200.0" width="12.0" height="3" fill="#ff3c3c" stroke="#c71f1f" /><rect x="736.0" y="1213.0" width="12.0" height="3" fill="#ff83f4" stroke="#d002bc" /><rect x="684" y="1213.0" width="64" height="3" fill="#ff72e7" stroke="#7c7c7c" /><rect x="850.0" y="0.0" width="12.0" height="3" fill="#ff83f4" stroke="#d002bc" /><rect x="798" y="0.0" width="64" height="3" fill="#ff72e7" stroke="#7c7c7c" /><rect x="798.0" y="39.0" width="12.0" height="3" fill="#ff3c3c" stroke="#c71f1f" /><rect x="798.0" y="78.0" width="12.0" height="3" fill="#ff3c3c" stroke="#c71f1f" /><rect x="811.0" y="78.0" width="12.0" height="3" fill="#35df39" stroke="#03aa10" /><rect x="811.0" y="117.0" width="12.0" height="3" fill="#35df39" stroke="#03aa10" /><rect x="824.0" y="117.0" width="12.0" height="3" fill="#80c9ff" stroke="#0b6cba" /><rect x="811.0" y="156.5" width="12.0" height="3" fill="#35df39" stroke="#03aa10" /><rect x="837.0" y="156.5" width="12.0" height="3" fill="#fff874" stroke="#eb9c26" /><rect x="798.0" y="195.5" width="12.0" height="3" fill="#ff3c3c" stroke="#c71f1f" /><rect x="811.0" y="234.5" width="12.0" height="3" fill="#35df39" stroke="#03aa10" /><rect x="837.0" y="234.5" width="12.0" height="3" fill="#fff874" stroke="#eb9c26" /><rect x="811.0" y="274.0" width="12.0" height="3" fill="#35df39" stroke="#03aa10" /><rect x="837.0" y="274.0" width="12.0" height="3" fill="#fff874" stroke="#eb9c26" /><rect x="811.0" y="313.0" width="12.0" height="3" fill="#35df39" stroke="#03aa10" /><rect x="837.0" y="352.0" width="12.0" height="3" fill="#fff874" stroke="#eb9c26" /><rect x="824.0" y="391.0" width="12.0" height="3" fill="#80c9ff" stroke="#0b6cba" /><rect x="837.0" y="391.0" width="12.0" height="3" fill="#fff874" stroke="#eb9c26" /><rect x="811.0" y="430.5" width="12.0" height="3" fill="#35df39" stroke="#03aa10" /><rect x="837.0" y="430.5" width="12.0" height="3" fill="#fff874" stroke="#eb9c26" /><rect x="811.0" y="469.5" width="12.0" height="3" fill="#35df39" stroke="#03aa10" /><rect x="824.0" y="469.5" width="12.0" height="3" fill="#80c9ff" stroke="#0b6cba" /><rect x="811.0" y="508.5" width="12.0" height="3" fill="#35df39" stroke="#03aa10" /><rect x="824.0" y="508.5" width="12.0" height="3" fill="#80c9ff" stroke="#0b6cba" /><rect x="837.0" y="547.5" width="12.0" height="3" fill="#fff874" stroke="#eb9c26" /><rect x="850.0" y="547.5" width="12.0" height="3" fill="#ff83f4" stroke="#d002bc" /><rect x="837.0" y="587.0" width="12.0" height="3" fill="#fff874" stroke="#eb9c26" /><rect x="850.0" y="587.0" width="12.0" height="3" fill="#ff83f4" stroke="#d002bc" /><rect x="798.0" y="626.0" width="12.0" height="3" fill="#ff3c3c" stroke="#c71f1f" /><rect x="811.0" y="626.0" width="12.0" height="3" fill="#35df39" stroke="#03aa10" /><rect x="824.0" y="626.0" width="12.0" height="3" fill="#80c9ff" stroke="#0b6cba" /><rect x="912.0" y="626.0" width="12.0" height="3" fill="#ff3c3c" stroke="#c71f1f" /><rect x="925.0" y="626.0" width="12.0" height="3" fill="#35df39" stroke="#03aa10" /><rect x="925.0" y="665.0" width="12.0" height="3" fill="#35df39" stroke="#03aa10" /><rect x="925.0" y="704.5" width="12.0" height="3" fill="#35df39" stroke="#03aa10" /><rect x="938.0" y="704.5" width="12.0" height="3" fill="#80c9ff" stroke="#0b6cba" /><rect x="925.0" y="743.5" width="12.0" height="3" fill="#35df39" stroke="#03aa10" /><rect x="951.0" y="743.5" width="12.0" height="3" fill="#fff874" stroke="#eb9c26" /><rect x="938.0" y="782.5" width="12.0" height="3" fill="#80c9ff" stroke="#0b6cba" /><rect x="951.0" y="822.0" width="12.0" height="3" fill="#fff874" stroke="#eb9c26" /><rect x="964.0" y="861.0" width="12.0" height="3" fill="#ff83f4" stroke="#d002bc" /><rect x="951.0" y="887.0" width="12.0" height="3" fill="#fff874" stroke="#eb9c26" /><rect x="938.0" y="900.0" width="12.0" height="3" fill="#80c9ff" stroke="#0b6cba" /><rect x="925.0" y="939.0" width="12.0" height="3" fill="#35df39" stroke="#03aa10" /><rect x="951.0" y="939.0" width="12.0" height="3" fill="#fff874" stroke="#eb9c26" /><rect x="912.0" y="978.5" width="12.0" height="3" fill="#ff3c3c" stroke="#c71f1f" /><rect x="925.0" y="1017.5" width="12.0" height="3" fill="#35df39" stroke="#03aa10" /><rect x="938.0" y="1056.5" width="12.0" height="3" fill="#80c9ff" stroke="#0b6cba" /><rect x="925.0" y="1095.5" width="12.0" height="3" fill="#35df39" stroke="#03aa10" /><rect x="951.0" y="1095.5" width="12.0" height="3" fill="#fff874" stroke="#eb9c26" /><rect x="938.0" y="1135.0" width="12.0" height="3" fill="#80c9ff" stroke="#0b6cba" /><rect x="912.0" y="1161.0" width="12.0" height="3" fill="#ff3c3c" stroke="#c71f1f" /><rect x="925.0" y="1161.0" width="12.0" height="3" fill="#35df39" stroke="#03aa10" /><rect x="964.0" y="1200.0" width="12.0" height="3" fill="#ff83f4" stroke="#d002bc" /><rect x="951.0" y="1213.0" width="12.0" height="3" fill="#fff874" stroke="#eb9c26" /><rect x="938.0" y="1239.0" width="12.0" height="3" fill="#80c9ff" stroke="#0b6cba" /><rect x="1039.0" y="0.0" width="12.0" height="3" fill="#35df39" stroke="#03aa10" /><rect x="1052.0" y="39.5" width="12.0" height="3" fill="#80c9ff" stroke="#0b6cba" /><rect x="1039.0" y="78.5" width="12.0" height="3" fill="#35df39" stroke="#03aa10" /><rect x="1065.0" y="78.5" width="12.0" height="3" fill="#fff874" stroke="#eb9c26" /><rect x="1078.0" y="117.5" width="12.0" height="3" fill="#ff83f4" stroke="#d002bc" /><rect x="1052.0" y="156.5" width="12.0" height="3" fill="#80c9ff" stroke="#0b6cba" /><rect x="1065.0" y="156.5" width="12.0" height="3" fill="#fff874" stroke="#eb9c26" /><rect x="1078.0" y="196.0" width="12.0" height="3" fill="#ff83f4" stroke="#d002bc" /><rect x="1039.0" y="222.0" width="12.0" height="3" fill="#35df39" stroke="#03aa10" /><rect x="1052.0" y="222.0" width="12.0" height="3" fill="#80c9ff" stroke="#0b6cba" /><rect x="1039.0" y="261.0" width="12.0" height="3" fill="#35df39" stroke="#03aa10" /><rect x="1052.0" y="261.0" width="12.0" height="3" fill="#80c9ff" stroke="#0b6cba" /><rect x="1026.0" y="274.0" width="12.0" height="3" fill="#ff3c3c" stroke="#c71f1f" /><rect x="1039.0" y="274.0" width="12.0" height="3" fill="#35df39" stroke="#03aa10" /><rect x="1026.0" y="313.0" width="12.0" height="3" fill="#ff3c3c" stroke="#c71f1f" /><rect x="1039.0" y="313.0" width="12.0" height="3" fill="#35df39" stroke="#03aa10" /><rect x="1052.0" y="339.5" width="12.0" height="3" fill="#80c9ff" stroke="#0b6cba" /><rect x="1065.0" y="378.5" width="12.0" height="3" fill="#fff874" stroke="#eb9c26" /><rect x="1078.0" y="391.5" width="12.0" height="3" fill="#ff83f4" stroke="#d002bc" /><rect x="1039.0" y="430.5" width="12.0" height="3" fill="#35df39" stroke="#03aa10" /><rect x="1052.0" y="430.5" width="12.0" height="3" fill="#80c9ff" stroke="#0b6cba" /><rect x="1026.0" y="470.0" width="12.0" height="3" fill="#ff3c3c" stroke="#c71f1f" /><rect x="1039.0" y="509.0" width="12.0" height="3" fill="#35df39" stroke="#03aa10" /><rect x="1065.0" y="509.0" width="12.0" height="3" fill="#fff874" stroke="#eb9c26" /><rect x="1052.0" y="548.0" width="12.0" height="3" fill="#80c9ff" stroke="#0b6cba" /><rect x="1065.0" y="574.0" width="12.0" height="3" fill="#fff874" stroke="#eb9c26" /><rect x="1078.0" y="574.0" width="12.0" height="3" fill="#ff83f4" stroke="#d002bc" /><rect x="1052.0" y="613.0" width="12.0" height="3" fill="#80c9ff" stroke="#0b6cba" /><rect x="1026.0" y="626.5" width="12.0" height="3" fill="#ff3c3c" stroke="#c71f1f" /><rect x="1039.0" y="626.5" width="12.0" height="3" fill="#35df39" stroke="#03aa10" /><rect x="1039.0" y="665.5" width="12.0" height="3" fill="#35df39" stroke="#03aa10" /><rect x="1039.0" y="704.5" width="12.0" height="3" fill="#35df39" stroke="#03aa10" /><rect x="1052.0" y="704.5" width="12.0" height="3" fill="#80c9ff" stroke="#0b6cba" /><rect x="1039.0" y="743.5" width="12.0" height="3" fill="#35df39" stroke="#03aa10" /><rect x="1065.0" y="743.5" width="12.0" height="3" fill="#fff874" stroke="#eb9c26" /><rect x="1052.0" y="783.0" width="12.0" height="3" fill="#80c9ff" stroke="#0b6cba" /><rect x="1065.0" y="822.0" width="12.0" height="3" fill="#fff874" stroke="#eb9c26" /><rect x="1078.0" y="861.0" width="12.0" height="3" fill="#ff83f4" stroke="#d002bc" /><rect x="1065.0" y="887.0" width="12.0" height="3" fill="#fff874" stroke="#eb9c26" /><rect x="1052.0" y="900.0" width="12.0" height="3" fill="#80c9ff" stroke="#0b6cba" /><rect x="1039.0" y="939.5" width="12.0" height="3" fill="#35df39" stroke="#03aa10" /><rect x="1065.0" y="939.5" width="12.0" height="3" fill="#fff874" stroke="#eb9c26" /><rect x="1026.0" y="978.5" width="12.0" height="3" fill="#ff3c3c" stroke="#c71f1f" /><rect x="1039.0" y="1017.5" width="12.0" height="3" fill="#35df39" stroke="#03aa10" /><rect x="1052.0" y="1056.5" width="12.0" height="3" fill="#80c9ff" stroke="#0b6cba" /><rect x="1039.0" y="1096.0" width="12.0" height="3" fill="#35df39" stroke="#03aa10" /><rect x="1065.0" y="1096.0" width="12.0" height="3" fill="#fff874" stroke="#eb9c26" /><rect x="1052.0" y="1135.0" width="12.0" height="3" fill="#80c9ff" stroke="#0b6cba" /><rect x="1039.0" y="1161.0" width="12.0" height="3" fill="#35df39" stroke="#03aa10" /><rect x="1078.0" y="1200.0" width="12.0" height="3" fill="#ff83f4" stroke="#d002bc" /><rect x="1065.0" y="1213.0" width="12.0" height="3" fill="#fff874" stroke="#eb9c26" /><rect x="1052.0" y="1239.5" width="12.0" height="3" fill="#80c9ff" stroke="#0b6cba" /><rect x="1153.0" y="0.0" width="12.0" height="3" fill="#35df39" stroke="#03aa10" /><rect x="1166.0" y="39.0" width="12.0" height="3" fill="#80c9ff" stroke="#0b6cba" /><rect x="1153.0" y="78.0" width="12.0" height="3" fill="#35df39" stroke="#03aa10" /><rect x="1179.0" y="78.0" width="12.0" height="3" fill="#fff874" stroke="#eb9c26" /><rect x="1192.0" y="117.5" width="12.0" height="3" fill="#ff83f4" stroke="#d002bc" /><rect x="1153.0" y="156.5" width="12.0" height="3" fill="#35df39" stroke="#03aa10" /><rect x="1166.0" y="156.5" width="12.0" height="3" fill="#80c9ff" stroke="#0b6cba" /><rect x="1192.0" y="195.5" width="12.0" height="3" fill="#ff83f4" stroke="#d002bc" /><rect x="1179.0" y="221.5" width="12.0" height="3" fill="#fff874" stroke="#eb9c26" /><rect x="1166.0" y="234.5" width="12.0" height="3" fill="#80c9ff" stroke="#0b6cba" /><rect x="1192.0" y="274.0" width="12.0" height="3" fill="#ff83f4" stroke="#d002bc" /><rect x="1166.0" y="300.0" width="12.0" height="3" fill="#80c9ff" stroke="#0b6cba" /><rect x="1153.0" y="313.0" width="12.0" height="3" fill="#35df39" stroke="#03aa10" /><rect x="1166.0" y="352.0" width="12.0" height="3" fill="#80c9ff" stroke="#0b6cba" /><rect x="1179.0" y="352.0" width="12.0" height="3" fill="#fff874" stroke="#eb9c26" /><rect x="1140.0" y="391.0" width="12.0" height="3" fill="#ff3c3c" stroke="#c71f1f" /><rect x="1153.0" y="391.0" width="12.0" height="3" fill="#35df39" stroke="#03aa10" /><rect x="1192.0" y="430.5" width="12.0" height="3" fill="#ff83f4" stroke="#d002bc" /><rect x="1179.0" y="456.5" width="12.0" height="3" fill="#fff874" stroke="#eb9c26" /><rect x="1153.0" y="469.5" width="12.0" height="3" fill="#35df39" stroke="#03aa10" /><rect x="1166.0" y="495.5" width="12.0" height="3" fill="#80c9ff" stroke="#0b6cba" /><rect x="1140.0" y="547.5" width="12.0" height="3" fill="#ff3c3c" stroke="#c71f1f" /><rect x="1166.0" y="547.5" width="12.0" height="3" fill="#80c9ff" stroke="#0b6cba" /><rect x="1179.0" y="587.0" width="12.0" height="3" fill="#fff874" stroke="#eb9c26" /><rect x="1192.0" y="587.0" width="12.0" height="3" fill="#ff83f4" stroke="#d002bc" /><rect x="1153.0" y="626.0" width="12.0" height="3" fill="#35df39" stroke="#03aa10" /><rect x="1166.0" y="665.0" width="12.0" height="3" fill="#80c9ff" stroke="#0b6cba" /><rect x="1179.0" y="665.0" width="12.0" height="3" fill="#fff874" stroke="#eb9c26" /><rect x="1140.0" y="704.0" width="12.0" height="3" fill="#ff3c3c" stroke="#c71f1f" /><rect x="1153.0" y="704.0" width="12.0" height="3" fill="#35df39" stroke="#03aa10" /><rect x="1192.0" y="743.5" width="12.0" height="3" fill="#ff83f4" stroke="#d002bc" /><rect x="1179.0" y="769.5" width="12.0" height="3" fill="#fff874" stroke="#eb9c26" /><rect x="1153.0" y="782.5" width="12.0" height="3" fill="#35df39" stroke="#03aa10" /><rect x="1166.0" y="808.5" width="12.0" height="3" fill="#80c9ff" stroke="#0b6cba" /><rect x="1140.0" y="860.5" width="12.0" height="3" fill="#ff3c3c" stroke="#c71f1f" /><rect x="1166.0" y="860.5" width="12.0" height="3" fill="#80c9ff" stroke="#0b6cba" /><rect x="1179.0" y="900.0" width="12.0" height="3" fill="#fff874" stroke="#eb9c26" /><rect x="1192.0" y="900.0" width="12.0" height="3" fill="#ff83f4" stroke="#d002bc" /><rect x="1153.0" y="939.0" width="12.0" height="3" fill="#35df39" stroke="#03aa10" /><rect x="1192.0" y="978.0" width="12.0" height="3" fill="#ff83f4" stroke="#d002bc" /><rect x="1140" y="978.0" width="64" height="3" fill="#ff72e7" stroke="#7c7c7c" /><rect x="1140.0" y="1017.5" width="12.0" height="3" fill="#ff3c3c" stroke="#c71f1f" /><rect x="1153.0" y="1017.5" width="12.0" height="3" fill="#35df39" stroke="#03aa10" /><rect x="1166.0" y="1017.5" width="12.0" height="3" fill="#80c9ff" stroke="#0b6cba" /><rect x="1140.0" y="1056.5" width="12.0" height="3" fill="#ff3c3c" stroke="#c71f1f" /><rect x="1153.0" y="1056.5" width="12.0" height="3" fill="#35df39" stroke="#03aa10" /><rect x="1166.0" y="1056.5" width="12.0" height="3" fill="#80c9ff" stroke="#0b6cba" /><rect x="1140.0" y="1095.5" width="12.0" height="3" fill="#ff3c3c" stroke="#c71f1f" /><rect x="1153.0" y="1095.5" width="12.0" height="3" fill="#35df39" stroke="#03aa10" /><rect x="1166.0" y="1134.5" width="12.0" height="3" fill="#80c9ff" stroke="#0b6cba" /><rect x="1179.0" y="1134.5" width="12.0" height="3" fill="#fff874" stroke="#eb9c26" /><rect x="1166.0" y="1174.0" width="12.0" height="3" fill="#80c9ff" stroke="#0b6cba" /><rect x="1179.0" y="1174.0" width="12.0" height="3" fill="#fff874" stroke="#eb9c26" /><rect x="1140.0" y="1213.0" width="12.0" height="3" fill="#ff3c3c" stroke="#c71f1f" /><rect x="1153.0" y="1213.0" width="12.0" height="3" fill="#35df39" stroke="#03aa10" /><rect x="1166.0" y="1213.0" width="12.0" height="3" fill="#80c9ff" stroke="#0b6cba" /></svg>