<?xml version="1.0" encoding="UTF-8"?><svg xmlns="http://www.w3.org/2000/svg" xmlns:xlink="http://www.w3.org/1999/xlink"     width="3332" height="1399.0" viewBox="0 0 3332 1399.0"><defs></defs><rect x="0" y="14.5" width="188" height="1384.5" fill="black" /><rect x="0" y="1398.0" width="188" height="1" fill="white" fill-opacity="0.5" /><text x="198" y="1398.0" font-size="14" fill="white" font-family="monospace" dominant-baseline="initial">1</text><rect x="0" y="1311.5" width="188" height="1" fill="white" fill-opacity="0.2" /><rect x="0" y="1225.0" width="188" height="1" fill="white" fill-opacity="0.2" /><rect x="0" y="1138.5" width="188" height="1" fill="white" fill-opacity="0.2" /><rect x="0" y="1052.0" width="188" height="1" fill="white" fill-opacity="0.5" /><text x="198" y="1052.0" font-size="14" fill="white" font-family="monospace" dominant-baseline="initial">2</text><rect x="0" y="965.5" width="188" height="1" fill="white" fill-opacity="0.2" /><rect x="0" y="879.0" width="188" height="1" fill="white" fill-opacity="0.2" /><rect x="0" y="792.0" width="188" height="1" fill="white" fill-opacity="0.2" /><rect x="0" y="705.5" width="188" height="1" fill="white" fill-opacity="0.5" /><text x="198" y="705.5" font-size="14" fill="white" font-family="monospace" dominant-baseline="initial">3</text><rect x="0" y="619.0" width="188" height="1" fill="white" fill-opacity="0.2" /><rect x="0" y="532.5" width="188" height="1" fill="white" fill-opacity="0.2" /><rect x="0" y="446.0" width="188" height="1" fill="white" fill-opacity="0.2" /><rect x="0" y="359.5" width="188" height="1" fill="white" fill-opacity="0.5" /><text x="198" y="359.5" font-size="14" fill="white" font-family="monospace" dominant-baseline="initial">4</text><rect x="0" y="273.0" width="188" height="1" fill="white" fill-opacity="0.2" /><rect x="0" y="186.5" width="188" height="1" fill="white" fill-opacity="0.2" /><rect x="0" y="100.0" width="188" height="1" fill="white" fill-opacity="0.2" /><rect x="0" y="13.5" width="188" height="1" fill="white" fill-opacity="0.5" /><text x="198" y="13.5" font-size="14" fill="white" font-family="monospace" dominant-baseline="initial">5</text><rect x="0" y="1398.0" width="188" height="1" fill="aqua" fill-opacity="0.75" /><text x="0" y="1394.0" font-size="14" fill="aqua" fill-opacity="0.75" font-family="monospace">Intro</text><rect x="0" y="1398.0" width="188" height="1" fill="lime" fill-opacity="0.75" /><text x="198" y="1385.0" font-size="14" fill="lime" font-family="monospace" dominant-baseline="initial">104</text><rect x="238" y="14.5" width="188" height="1384.5" fill="black" /><rect x="238" y="1398.0" width="188" height="1" fill="white" fill-opacity="0.5" /><text x="436" y="1398.0" font-size="14" fill="white" font-family="monospace" dominant-baseline="initial">5</text><rect x="238" y="1311.5" width="188" height="1" fill="white" fill-opacity="0.2" /><rect x="238" y="1225.0" width="188" height="1" fill="white" fill-opacity="0.2" /><rect x="238" y="1138.5" width="188" height="1" fill="white" fill-opacity="0.2" /><rect x="238" y="1051.5" width="188" height="1" fill="white" fill-opacity="0.5" /><text x="436" y="1051.5" font-size="14" fill="white" font-family="monospace" dominant-baseline="initial">6</text><rect x="238" y="965.0" width="188" height="1" fill="white" fill-opacity="0.2" /><rect x="238" y="878.5" width="188" height="1" fill="white" fill-opacity="0.2" /><rect x="238" y="792.0" width="188" height="1" fill="white" fill-opacity="0.2" /><rect x="238" y="705.5" width="188" height="1" fill="white" fill-opacity="0.5" /><text x="436" y="705.5" font-size="14" fill="white" font-family="monospace" dominant-baseline="initial">7</text><rect x="238" y="619.0" width="188" height="1" fill="white" fill-opacity="0.2" /><rect x="238" y="532.5" width="188" height="1" fill="white" fill-opacity="0.2" /><rect x="238" y="446.0" width="188" height="1" fill="white" fill-opacity="0.2" /><rect x="238" y="359.5" width="188" height="1" fill="white" fill-opacity="0.5" /><text x="436" y="359.5" font-size="14" fill="white" font-family="monospace" dominant-baseline="initial">8</text><rect x="238" y="273.0" width="188" height="1" fill="white" fill-opacity="0.2" /><rect x="238" y="186.5" width="188" height="1" fill="white" fill-opacity="0.2" /><rect x="238" y="100.0" width="188" height="1" fill="white" fill-opacity="0.2" /><rect x="238" y="13.5" width="188" height="1" fill="white" fill-opacity="0.5" /><text x="436" y="13.5" font-size="14" fill="white" font-family="monospace" dominant-baseline="initial">9</text><rect x="238" y="359.4000000000001" width="188" height="1" fill="aqua" fill-opacity="0.75" /><text x="238" y="355.4000000000001" font-size="14" fill="aqua" fill-opacity="0.75" font-family="monospace">Phrase A</text><rect x="476" y="14.0" width="188" height="1385.0" fill="black" /><rect x="476" y="1398.0" width="188" height="1" fill="white" fill-opacity="0.5" /><text x="674" y="1398.0" font-size="14" fill="white" font-family="monospace" dominant-baseline="initial">9</text><rect x="476" y="1311.0" width="188" height="1" fill="white" fill-opacity="0.2" /><rect x="476" y="1224.5" width="188" height="1" fill="white" fill-opacity="0.2" /><rect x="476" y="1138.0" width="188" height="1" fill="white" fill-opacity="0.2" /><rect x="476" y="1051.5" width="188" height="1" fill="white" fill-opacity="0.5" /><text x="674" y="1051.5" font-size="14" fill="white" font-family="monospace" dominant-baseline="initial">10</text><rect x="476" y="965.0" width="188" height="1" fill="white" fill-opacity="0.2" /><rect x="476" y="878.5" width="188" height="1" fill="white" fill-opacity="0.2" /><rect x="476" y="792.0" width="188" height="1" fill="white" fill-opacity="0.2" /><rect x="476" y="705.5" width="188" height="1" fill="white" fill-opacity="0.5" /><text x="674" y="705.5" font-size="14" fill="white" font-family="monospace" dominant-baseline="initial">11</text><rect x="476" y="619.0" width="188" height="1" fill="white" fill-opacity="0.2" /><rect x="476" y="532.5" width="188" height="1" fill="white" fill-opacity="0.2" /><rect x="476" y="446.0" width="188" height="1" fill="white" fill-opacity="0.2" /><rect x="476" y="359.5" width="188" height="1" fill="white" fill-opacity="0.5" /><text x="674" y="359.5" font-size="14" fill="white" font-family="monospace" dominant-baseline="initial">12</text><rect x="476" y="273.0" width="188" height="1" fill="white" fill-opacity="0.2" /><rect x="476" y="186.0" width="188" height="1" fill="white" fill-opacity="0.2" /><rect x="476" y="99.5" width="188" height="1" fill="white" fill-opacity="0.2" /><rect x="476" y="13.0" width="188" height="1" fill="white" fill-opacity="0.5" /><text x="674" y="13.0" font-size="14" fill="white" font-family="monospace" dominant-baseline="initial">13</text><rect x="714" y="14.5" width="188" height="1384.5" fill="black" /><rect x="714" y="1398.0" width="188" height="1" fill="white" fill-opacity="0.5" /><text x="912" y="1398.0" font-size="14" fill="white" font-family="monospace" dominant-baseline="initial">13</text><rect x="714" y="1311.5" width="188" height="1" fill="white" fill-opacity="0.2" /><rect x="714" y="1225.0" width="188" height="1" fill="white" fill-opacity="0.2" /><rect x="714" y="1138.5" width="188" height="1" fill="white" fill-opacity="0.2" /><rect x="714" y="1052.0" width="188" height="1" fill="white" fill-opacity="0.5" /><text x="912" y="1052.0" font-size="14" fill="white" font-family="monospace" dominant-baseline="initial">14</text><rect x="714" y="965.5" width="188" height="1" fill="white" fill-opacity="0.2" /><rect x="714" y="879.0" width="188" height="1" fill="white" fill-opacity="0.2" /><rect x="714" y="792.5" width="188" height="1" fill="white" fill-opacity="0.2" /><rect x="714" y="706.0" width="188" height="1" fill="white" fill-opacity="0.5" /><text x="912" y="706.0" font-size="14" fill="white" font-family="monospace" dominant-baseline="initial">15</text><rect x="714" y="619.5" width="188" height="1" fill="white" fill-opacity="0.2" /><rect x="714" y="533.0" width="188" height="1" fill="white" fill-opacity="0.2" /><rect x="714" y="446.0" width="188" height="1" fill="white" fill-opacity="0.2" /><rect x="714" y="359.5" width="188" height="1" fill="white" fill-opacity="0.5" /><text x="912" y="359.5" font-size="14" fill="white" font-family="monospace" dominant-baseline="initial">16</text><rect x="714" y="273.0" width="188" height="1" fill="white" fill-opacity="0.2" /><rect x="714" y="186.5" width="188" height="1" fill="white" fill-opacity="0.2" /><rect x="714" y="100.0" width="188" height="1" fill="white" fill-opacity="0.2" /><rect x="714" y="13.5" width="188" height="1" fill="white" fill-opacity="0.5" /><text x="912" y="13.5" font-size="14" fill="white" font-family="monospace" dominant-baseline="initial">17</text><rect x="714" y="359.75" width="188" height="1" fill="aqua" fill-opacity="0.75" /><text x="714" y="355.75" font-size="14" fill="aqua" fill-opacity="0.75" font-family="monospace">Phrase B</text><rect x="952" y="14.5" width="188" height="1384.5" fill="black" /><rect x="952" y="1398.0" width="188" height="1" fill="white" fill-opacity="0.5" /><text x="1150" y="1398.0" font-size="14" fill="white" font-family="monospace" dominant-baseline="initial">17</text><rect x="952" y="1311.5" width="188" height="1" fill="white" fill-opacity="0.2" /><rect x="952" y="1225.0" width="188" height="1" fill="white" fill-opacity="0.2" /><rect x="952" y="1138.5" width="188" height="1" fill="white" fill-opacity="0.2" /><rect x="952" y="1052.0" width="188" height="1" fill="white" fill-opacity="0.5" /><text x="1150" y="1052.0" font-size="14" fill="white" font-family="monospace" dominant-baseline="initial">18</text><rect x="952" y="965.5" width="188" height="1" fill="white" fill-opacity="0.2" /><rect x="952" y="879.0" width="188" height="1" fill="white" fill-opacity="0.2" /><rect x="952" y="792.5" width="188" height="1" fill="white" fill-opacity="0.2" /><rect x="952" y="705.5" width="188" height="1" fill="white" fill-opacity="0.5" /><text x="1150" y="705.5" font-size="14" fill="white" font-family="monospace" dominant-baseline="initial">19</text><rect x="952" y="619.0" width="188" height="1" fill="white" fill-opacity="0.2" /><rect x="952" y="532.5" width="188" height="1" fill="white" fill-opacity="0.2" /><rect x="952" y="446.0" width="188" height="1" fill="white" fill-opacity="0.2" /><rect x="952" y="359.5" width="188" height="1" fill="white" fill-opacity="0.5" /><text x="1150" y="359.5" font-size="14" fill="white" font-family="monospace" dominant-baseline="initial">20</text><rect x="952" y="273.0" width="188" height="1" fill="white" fill-opacity="0.2" /><rect x="952" y="186.5" width="188" height="1" fill="white" fill-opacity="0.2" /><rect x="952" y="100.0" width="188" height="1" fill="white" fill-opacity="0.2" /><rect x="952" y="13.5" width="188" height="1" fill="white" fill-opacity="0.5" /><text x="1150" y="13.5" font-size="14" fill="white" font-family="monospace" dominant-baseline="initial">21</text><rect x="952" y="359.60000000000036" width="188" height="1" fill="aqua" fill-opacity="0.75" /><text x="952" y="355.60000000000036" font-size="14" fill="aqua" fill-opacity="0.75" font-family="monospace">Phrase A</text><rect x="1190" y="14.5" width="188" height="1384.5" fill="black" /><rect x="1190" y="1398.0" width="188" height="1" fill="white" fill-opacity="0.5" /><text x="1388" y="1398.0" font-size="14" fill="white" font-family="monospace" dominant-baseline="initial">21</text><rect x="1190" y="1311.5" width="188" height="1" fill="white" fill-opacity="0.2" /><rect x="1190" y="1225.0" width="188" height="1" fill="white" fill-opacity="0.2" /><rect x="1190" y="1138.5" width="188" height="1" fill="white" fill-opacity="0.2" /><rect x="1190" y="1052.0" width="188" height="1" fill="white" fill-opacity="0.5" /><text x="1388" y="1052.0" font-size="14" fill="white" font-family="monospace" dominant-baseline="initial">22</text><rect x="1190" y="965.0" width="188" height="1" fill="white" fill-opacity="0.2" /><rect x="1190" y="878.5" width="188" height="1" fill="white" fill-opacity="0.2" /><rect x="1190" y="792.0" width="188" height="1" fill="white" fill-opacity="0.2" /><rect x="1190" y="705.5" width="188" height="1" fill="white" fill-opacity="0.5" /><text x="1388" y="705.5" font-size="14" fill="white" font-family="monospace" dominant-baseline="initial">23</text><rect x="1190" y="619.0" width="188" height="1" fill="white" fill-opacity="0.2" /><rect x="1190" y="532.5" width="188" height="1" fill="white" fill-opacity="0.2" /><rect x="1190" y="446.0" width="188" height="1" fill="white" fill-opacity="0.2" /><rect x="1190" y="359.5" width="188" height="1" fill="white" fill-opacity="0.5" /><text x="1388" y="359.5" font-size="14" fill="white" font-family="monospace" dominant-baseline="initial">24</text><rect x="1190" y="273.0" width="188" height="1" fill="white" fill-opacity="0.2" /><rect x="1190" y="186.5" width="188" height="1" fill="white" fill-opacity="0.2" /><rect x="1190" y="100.0" width="188" height="1" fill="white" fill-opacity="0.2" /><rect x="1190" y="13.5" width="188" height="1" fill="white" fill-opacity="0.5" /><text x="1388" y="13.5" font-size="14" fill="white" font-family="monospace" dominant-baseline="initial">25</text><rect x="1428" y="14.0" width="188" height="1385.0" fill="black" /><rect x="1428" y="1398.0" width="188" height="1" fill="white" fill-opacity="0.5" /><text x="1626" y="1398.0" font-size="14" fill="white" font-family="monospace" dominant-baseline="initial">25</text><rect x="1428" y="1311.5" width="188" height="1" fill="white" fill-opacity="0.2" /><rect x="1428" y="1224.5" width="188" height="1" fill="white" fill-opacity="0.2" /><rect x="1428" y="1138.0" width="188" height="1" fill="white" fill-opacity="0.2" /><rect x="1428" y="1051.5" width="188" height="1" fill="white" fill-opacity="0.5" /><text x="1626" y="1051.5" font-size="14" fill="white" font-family="monospace" dominant-baseline="initial">26</text><rect x="1428" y="965.0" width="188" height="1" fill="white" fill-opacity="0.2" /><rect x="1428" y="878.5" width="188" height="1" fill="white" fill-opacity="0.2" /><rect x="1428" y="792.0" width="188" height="1" fill="white" fill-opacity="0.2" /><rect x="1428" y="705.5" width="188" height="1" fill="white" fill-opacity="0.5" /><text x="1626" y="705.5" font-size="14" fill="white" font-family="monospace" dominant-baseline="initial">27</text><rect x="1428" y="619.0" width="188" height="1" fill="white" fill-opacity="0.2" /><rect x="1428" y="532.5" width="188" height="1" fill="white" fill-opacity="0.2" /><rect x="1428" y="446.0" width="188" height="1" fill="white" fill-opacity="0.2" /><rect x="1428" y="359.5" width="188" height="1" fill="white" fill-opacity="0.5" /><text x="1626" y="359.5" font-size="14" fill="white" font-family="monospace" dominant-baseline="initial">28</text><rect x="1428" y="273.0" width="188" height="1" fill="white" fill-opacity="0.2" /><rect x="1428" y="186.5" width="188" height="1" fill="white" fill-opacity="0.2" /><rect x="1428" y="99.5" width="188" height="1" fill="white" fill-opacity="0.2" /><rect x="1428" y="13.0" width="188" height="1" fill="white" fill-opacity="0.5" /><text x="1626" y="13.0" font-size="14" fill="white" font-family="monospace" dominant-baseline="initial">29</text><rect x="1428" y="359.3000000000011" width="188" height="1" fill="aqua" fill-opacity="0.75" /><text x="1428" y="355.3000000000011" font-size="14" fill="aqua" fill-opacity="0.75" font-family="monospace">Phrase C</text><rect x="1666" y="14.5" width="188" height="1384.5" fill="black" /><rect x="1666" y="1398.0" width="188" height="1" fill="white" fill-opacity="0.5" /><text x="1864" y="1398.0" font-size="14" fill="white" font-family="monospace" dominant-baseline="initial">29</text><rect x="1666" y="1311.5" width="188" height="1" fill="white" fill-opacity="0.2" /><rect x="1666" y="1225.0" width="188" height="1" fill="white" fill-opacity="0.2" /><rect x="1666" y="1138.5" width="188" height="1" fill="white" fill-opacity="0.2" /><rect x="1666" y="1052.0" width="188" height="1" fill="white" fill-opacity="0.5" /><text x="1864" y="1052.0" font-size="14" fill="white" font-family="monospace" dominant-baseline="initial">30</text><rect x="1666" y="965.5" width="188" height="1" fill="white" fill-opacity="0.2" /><rect x="1666" y="879.0" width="188" height="1" fill="white" fill-opacity="0.2" /><rect x="1666" y="792.5" width="188" height="1" fill="white" fill-opacity="0.2" /><rect x="1666" y="706.0" width="188" height="1" fill="white" fill-opacity="0.5" /><text x="1864" y="706.0" font-size="14" fill="white" font-family="monospace" dominant-baseline="initial">31</text><rect x="1666" y="619.5" width="188" height="1" fill="white" fill-opacity="0.2" /><rect x="1666" y="533.0" width="188" height="1" fill="white" fill-opacity="0.2" /><rect x="1666" y="446.5" width="188" height="1" fill="white" fill-opacity="0.2" /><rect x="1666" y="359.5" width="188" height="1" fill="white" fill-opacity="0.5" /><text x="1864" y="359.5" font-size="14" fill="white" font-family="monospace" dominant-baseline="initial">32</text><rect x="1666" y="273.0" width="188" height="1" fill="white" fill-opacity="0.2" /><rect x="1666" y="186.5" width="188" height="1" fill="white" fill-opacity="0.2" /><rect x="1666" y="100.0" width="188" height="1" fill="white" fill-opacity="0.2" /><rect x="1666" y="13.5" width="188" height="1" fill="white" fill-opacity="0.5" /><text x="1864" y="13.5" font-size="14" fill="white" font-family="monospace" dominant-baseline="initial">33</text><rect x="1666" y="359.8000000000011" width="188" height="1" fill="aqua" fill-opacity="0.75" /><text x="1666" y="355.8000000000011" font-size="14" fill="aqua" fill-opacity="0.75" font-family="monospace">Special</text><rect x="1904" y="14.5" width="188" height="1384.5" fill="black" /><rect x="1904" y="1398.0" width="188" height="1" fill="white" fill-opacity="0.5" /><text x="2102" y="1398.0" font-size="14" fill="white" font-family="monospace" dominant-baseline="initial">33</text><rect x="1904" y="1311.5" width="188" height="1" fill="white" fill-opacity="0.2" /><rect x="1904" y="1225.0" width="188" height="1" fill="white" fill-opacity="0.2" /><rect x="1904" y="1138.5" width="188" height="1" fill="white" fill-opacity="0.2" /><rect x="1904" y="1052.0" width="188" height="1" fill="white" fill-opacity="0.5" /><text x="2102" y="1052.0" font-size="14" fill="white" font-family="monospace" dominant-baseline="initial">34</text><rect x="1904" y="965.5" width="188" height="1" fill="white" fill-opacity="0.2" /><rect x="1904" y="879.0" width="188" height="1" fill="white" fill-opacity="0.2" /><rect x="1904" y="792.5" width="188" height="1" fill="white" fill-opacity="0.2" /><rect x="1904" y="706.0" width="188" height="1" fill="white" fill-opacity="0.5" /><text x="2102" y="706.0" font-size="14" fill="white" font-family="monospace" dominant-baseline="initial">35</text><rect x="1904" y="619.0" width="188" height="1" fill="white" fill-opacity="0.2" /><rect x="1904" y="532.5" width="188" height="1" fill="white" fill-opacity="0.2" /><rect x="1904" y="446.0" width="188" height="1" fill="white" fill-opacity="0.2" /><rect x="1904" y="359.5" width="188" height="1" fill="white" fill-opacity="0.5" /><text x="2102" y="359.5" font-size="14" fill="white" font-family="monospace" dominant-baseline="initial">36</text><rect x="1904" y="273.0" width="188" height="1" fill="white" fill-opacity="0.2" /><rect x="1904" y="186.5" width="188" height="1" fill="white" fill-opacity="0.2" /><rect x="1904" y="100.0" width="188" height="1" fill="white" fill-opacity="0.2" /><rect x="1904" y="13.5" width="188" height="1" fill="white" fill-opacity="0.5" /><text x="2102" y="13.5" font-size="14" fill="white" font-family="monospace" dominant-baseline="initial">37</text><rect x="2142" y="14.5" width="188" height="1384.5" fill="black" /><rect x="2142" y="1398.0" width="188" height="1" fill="white" fill-opacity="0.5" /><text x="2340" y="1398.0" font-size="14" fill="white" font-family="monospace" dominant-baseline="initial">37</text><rect x="2142" y="1311.5" width="188" height="1" fill="white" fill-opacity="0.2" /><rect x="2142" y="1225.0" width="188" height="1" fill="white" fill-opacity="0.2" /><rect x="2142" y="1138.5" width="188" height="1" fill="white" fill-opacity="0.2" /><rect x="2142" y="1052.0" width="188" height="1" fill="white" fill-opacity="0.5" /><text x="2340" y="1052.0" font-size="14" fill="white" font-family="monospace" dominant-baseline="initial">38</text><rect x="2142" y="965.5" width="188" height="1" fill="white" fill-opacity="0.2" /><rect x="2142" y="878.5" width="188" height="1" fill="white" fill-opacity="0.2" /><rect x="2142" y="792.0" width="188" height="1" fill="white" fill-opacity="0.2" /><rect x="2142" y="705.5" width="188" height="1" fill="white" fill-opacity="0.5" /><text x="2340" y="705.5" font-size="14" fill="white" font-family="monospace" dominant-baseline="initial">39</text><rect x="2142" y="619.0" width="188" height="1" fill="white" fill-opacity="0.2" /><rect x="2142" y="532.5" width="188" height="1" fill="white" fill-opacity="0.2" /><rect x="2142" y="446.0" width="188" height="1" fill="white" fill-opacity="0.2" /><rect x="2142" y="359.5" width="188" height="1" fill="white" fill-opacity="0.5" /><text x="2340" y="359.5" font-size="14" fill="white" font-family="monospace" dominant-baseline="initial">40</text><rect x="2142" y="273.0" width="188" height="1" fill="white" fill-opacity="0.2" /><rect x="2142" y="186.5" width="188" height="1" fill="white" fill-opacity="0.2" /><rect x="2142" y="100.0" width="188" height="1" fill="white" fill-opacity="0.2" /><rect x="2142" y="13.5" width="188" height="1" fill="white" fill-opacity="0.5" /><text x="2340" y="13.5" font-size="14" fill="white" font-family="monospace" dominant-baseline="initial">41</text><rect x="2142" y="359.5" width="188" height="1" fill="aqua" fill-opacity="0.75" /><text x="2142" y="355.5" font-size="14" fill="aqua" fill-opacity="0.75" font-family="monospace">Special</text><rect x="2380" y="14.0" width="188" height="1385.0" fill="black" /><rect x="2380" y="1398.0" width="188" height="1" fill="white" fill-opacity="0.5" /><text x="2578" y="1398.0" font-size="14" fill="white" font-family="monospace" dominant-baseline="initial">41</text><rect x="2380" y="1311.5" width="188" height="1" fill="white" fill-opacity="0.2" /><rect x="2380" y="1225.0" width="188" height="1" fill="white" fill-opacity="0.2" /><rect x="2380" y="1138.0" width="188" height="1" fill="white" fill-opacity="0.2" /><rect x="2380" y="1051.5" width="188" height="1" fill="white" fill-opacity="0.5" /><text x="2578" y="1051.5" font-size="14" fill="white" font-family="monospace" dominant-baseline="initial">42</text><rect x="2380" y="965.0" width="188" height="1" fill="white" fill-opacity="0.2" /><rect x="2380" y="878.5" width="188" height="1" fill="white" fill-opacity="0.2" /><rect x="2380" y="792.0" width="188" height="1" fill="white" fill-opacity="0.2" /><rect x="2380" y="705.5" width="188" height="1" fill="white" fill-opacity="0.5" /><text x="2578" y="705.5" font-size="14" fill="white" font-family="monospace" dominant-baseline="initial">43</text><rect x="2380" y="619.0" width="188" height="1" fill="white" fill-opacity="0.2" /><rect x="2380" y="532.5" width="188" height="1" fill="white" fill-opacity="0.2" /><rect x="2380" y="446.0" width="188" height="1" fill="white" fill-opacity="0.2" /><rect x="2380" y="359.5" width="188" height="1" fill="white" fill-opacity="0.5" /><text x="2578" y="359.5" font-size="14" fill="white" font-family="monospace" dominant-baseline="initial">44</text><rect x="2380" y="273.0" width="188" height="1" fill="white" fill-opacity="0.2" /><rect x="2380" y="186.5" width="188" height="1" fill="white" fill-opacity="0.2" /><rect x="2380" y="100.0" width="188" height="1" fill="white" fill-opacity="0.2" /><rect x="2380" y="13.0" width="188" height="1" fill="white" fill-opacity="0.5" /><text x="2578" y="13.0" font-size="14" fill="white" font-family="monospace" dominant-baseline="initial">45</text><rect x="2618" y="14.5" width="188" height="1384.5" fill="black" /><rect x="2618" y="1398.0" width="188" height="1" fill="white" fill-opacity="0.5" /><text x="2816" y="1398.0" font-size="14" fill="white" font-family="monospace" dominant-baseline="initial">45</text><rect x="2618" y="1311.5" width="188" height="1" fill="white" fill-opacity="0.2" /><rect x="2618" y="1225.0" width="188" height="1" fill="white" fill-opacity="0.2" /><rect x="2618" y="1138.5" width="188" height="1" fill="white" fill-opacity="0.2" /><rect x="2618" y="1052.0" width="188" height="1" fill="white" fill-opacity="0.5" /><text x="2816" y="1052.0" font-size="14" fill="white" font-family="monospace" dominant-baseline="initial">46</text><rect x="2618" y="965.5" width="188" height="1" fill="white" fill-opacity="0.2" /><rect x="2618" y="879.0" width="188" height="1" fill="white" fill-opacity="0.2" /><rect x="2618" y="792.5" width="188" height="1" fill="white" fill-opacity="0.2" /><rect x="2618" y="706.0" width="188" height="1" fill="white" fill-opacity="0.5" /><text x="2816" y="706.0" font-size="14" fill="white" font-family="monospace" dominant-baseline="initial">47</text><rect x="2618" y="619.5" width="188" height="1" fill="white" fill-opacity="0.2" /><rect x="2618" y="533.0" width="188" height="1" fill="white" fill-opacity="0.2" /><rect x="2618" y="446.5" width="188" height="1" fill="white" fill-opacity="0.2" /><rect x="2618" y="360.0" width="188" height="1" fill="white" fill-opacity="0.5" /><text x="2816" y="360.0" font-size="14" fill="white" font-family="monospace" dominant-baseline="initial">48</text><rect x="2618" y="273.0" width="188" height="1" fill="white" fill-opacity="0.2" /><rect x="2618" y="186.5" width="188" height="1" fill="white" fill-opacity="0.2" /><rect x="2618" y="100.0" width="188" height="1" fill="white" fill-opacity="0.2" /><rect x="2618" y="13.5" width="188" height="1" fill="white" fill-opacity="0.5" /><text x="2816" y="13.5" font-size="14" fill="white" font-family="monospace" dominant-baseline="initial">49</text><rect x="2618" y="359.7000000000007" width="188" height="1" fill="aqua" fill-opacity="0.75" /><text x="2618" y="355.7000000000007" font-size="14" fill="aqua" fill-opacity="0.75" font-family="monospace">Outro</text><rect x="2856" y="14.5" width="188" height="1384.5" fill="black" /><rect x="2856" y="1398.0" width="188" height="1" fill="white" fill-opacity="0.5" /><text x="3054" y="1398.0" font-size="14" fill="white" font-family="monospace" dominant-baseline="initial">49</text><rect x="2856" y="1311.5" width="188" height="1" fill="white" fill-opacity="0.2" /><rect x="2856" y="1225.0" width="188" height="1" fill="white" fill-opacity="0.2" /><rect x="2856" y="1138.5" width="188" height="1" fill="white" fill-opacity="0.2" /><rect x="2856" y="1052.0" width="188" height="1" fill="white" fill-opacity="0.5" /><text x="3054" y="1052.0" font-size="14" fill="white" font-family="monospace" dominant-baseline="initial">50</text><rect x="2856" y="965.5" width="188" height="1" fill="white" fill-opacity="0.2" /><rect x="2856" y="879.0" width="188" height="1" fill="white" fill-opacity="0.2" /><rect x="2856" y="792.5" width="188" height="1" fill="white" fill-opacity="0.2" /><rect x="2856" y="706.0" width="188" height="1" fill="white" fill-opacity="0.5" /><text x="3054" y="706.0" font-size="14" fill="white" font-family="monospace" dominant-baseline="initial">51</text><rect x="2856" y="619.5" width="188" height="1" fill="white" fill-opacity="0.2" /><rect x="2856" y="532.5" width="188" height="1" fill="white" fill-opacity="0.2" /><rect x="2856" y="446.0" width="188" height="1" fill="white" fill-opacity="0.2" /><rect x="2856" y="359.5" width="188" height="1" fill="white" fill-opacity="0.5" /><text x="3054" y="359.5" font-size="14" fill="white" font-family="monospace" dominant-baseline="initial">52</text><rect x="2856" y="273.0" width="188" height="1" fill="white" fill-opacity="0.2" /><rect x="2856" y="186.5" width="188" height="1" fill="white" fill-opacity="0.2" /><rect x="2856" y="100.0" width="188" height="1" fill="white" fill-opacity="0.2" /><rect x="2856" y="13.5" width="188" height="1" fill="white" fill-opacity="0.5" /><text x="3054" y="13.5" font-size="14" fill="white" font-family="monospace" dominant-baseline="initial">53</text><rect x="3094" y="699.0" width="188" height="700.0" fill="black" /><rect x="3094" y="1398.0" width="188" height="1" fill="white" fill-opacity="0.5" /><text x="3292" y="1398.0" font-size="14" fill="white" font-family="monospace" dominant-baseline="initial">53</text><rect x="3094" y="1311.5" width="188" height="1" fill="white" fill-opacity="0.2" /><rect x="3094" y="1225.0" width="188" height="1" fill="white" fill-opacity="0.2" /><rect x="3094" y="1138.5" width="188" height="1" fill="white" fill-opacity="0.2" /><rect x="3094" y="1052.0" width="188" height="1" fill="white" fill-opacity="0.5" /><text x="3292" y="1052.0" font-size="14" fill="white" font-family="monospace" dominant-baseline="initial">54</text><rect x="3094" y="965.5" width="188" height="1" fill="white" fill-opacity="0.2" /><rect x="3094" y="879.0" width="188" height="1" fill="white" fill-opacity="0.2" /><rect x="3094" y="792.0" width="188" height="1" fill="white" fill-opacity="0.2" /><rect x="3094" y="705.5" width="188" height="1" fill="white" fill-opacity="0.5" /><text x="3292" y="705.5" font-size="14" fill="white" font-family="monospace" dominant-baseline="initial">55</text></svg>