<?xml version="1.0" encoding="UTF-8"?><svg xmlns="http://www.w3.org/2000/svg" xmlns:xlink="http://www.w3.org/1999/xlink"     width="2394" height="9077.0" viewBox="0 0 2394 9077.0"><defs></defs><rect x="39.0" y="180.0" width="12.0" height="3" fill="#fff874" stroke="#eb9c26" /><rect x="39.0" y="300.0" width="12.0" height="3" fill="#fff874" stroke="#eb9c26" /><rect x="26.0" y="360.0" width="12.0" height="3" fill="#80c9ff" stroke="#0b6cba" /><rect x="26.0" y="480.0" width="12.0" height="3" fill="#80c9ff" stroke="#0b6cba" /><rect x="13.0" y="540.0" width="12.0" height="3" fill="#35df39" stroke="#03aa10" /><rect x="13.0" y="660.0" width="12.0" height="3" fill="#35df39" stroke="#03aa10" /><rect x="140.0" y="0.0" width="12.0" height="3" fill="#80c9ff" stroke="#0b6cba" /><rect x="153.0" y="180.0" width="12.0" height="3" fill="#fff874" stroke="#eb9c26" /><rect x="153.0" y="300.0" width="12.0" height="3" fill="#fff874" stroke="#eb9c26" /><rect x="140.0" y="360.0" width="12.0" height="3" fill="#80c9ff" stroke="#0b6cba" /><rect x="140.0" y="480.0" width="12.0" height="3" fill="#80c9ff" stroke="#0b6cba" /><rect x="127.0" y="540.0" width="12.0" height="3" fill="#35df39" stroke="#03aa10" /><rect x="127.0" y="660.0" width="12.0" height="3" fill="#35df39" stroke="#03aa10" /><rect x="228.0" y="0.0" width="12.0" height="3" fill="#ff3c3c" stroke="#c71f1f" /><rect x="241.0" y="90.0" width="12.0" height="3" fill="#35df39" stroke="#03aa10" /><rect x="254.0" y="135.0" width="12.0" height="3" fill="#80c9ff" stroke="#0b6cba" /><rect x="254.0" y="150.0" width="12.0" height="3" fill="#80c9ff" stroke="#0b6cba" /><rect x="254.0" y="165.0" width="12.0" height="3" fill="#80c9ff" stroke="#0b6cba" /><rect x="241.0" y="180.0" width="12.0" height="3" fill="#35df39" stroke="#03aa10" /><rect x="241.0" y="225.0" width="12.0" height="3" fill="#35df39" stroke="#03aa10" /><rect x="241.0" y="255.0" width="12.0" height="3" fill="#35df39" stroke="#03aa10" /><rect x="241.0" y="270.0" width="12.0" height="3" fill="#35df39" stroke="#03aa10" /><rect x="241.0" y="300.0" width="12.0" height="3" fill="#35df39" stroke="#03aa10" /><rect x="241.0" y="315.0" width="12.0" height="3" fill="#35df39" stroke="#03aa10" /><rect x="241.0" y="345.0" width="12.0" height="3" fill="#35df39" stroke="#03aa10" /><rect x="241.0" y="390.0" width="12.0" height="3" fill="#35df39" stroke="#03aa10" /><rect x="241.0" y="405.0" width="12.0" height="3" fill="#35df39" stroke="#03aa10" /><rect x="241.0" y="435.0" width="12.0" height="3" fill="#35df39" stroke="#03aa10" /><rect x="241.0" y="450.0" width="12.0" height="3" fill="#35df39" stroke="#03aa10" /><rect x="241.0" y="480.0" width="12.0" height="3" fill="#35df39" stroke="#03aa10" /><rect x="241.0" y="495.0" width="12.0" height="3" fill="#35df39" stroke="#03aa10" /><rect x="228.0" y="525.0" width="12.0" height="3" fill="#ff3c3c" stroke="#c71f1f" /><rect x="228.0" y="570.0" width="12.0" height="3" fill="#ff3c3c" stroke="#c71f1f" /><rect x="228.0" y="585.0" width="12.0" height="3" fill="#ff3c3c" stroke="#c71f1f" /><rect x="228.0" y="615.0" width="12.0" height="3" fill="#ff3c3c" stroke="#c71f1f" /><rect x="228.0" y="630.0" width="12.0" height="3" fill="#ff3c3c" stroke="#c71f1f" /><rect x="228.0" y="660.0" width="12.0" height="3" fill="#ff3c3c" stroke="#c71f1f" /><rect x="228.0" y="675.0" width="12.0" height="3" fill="#ff3c3c" stroke="#c71f1f" /><rect x="228.0" y="705.0" width="12.0" height="3" fill="#ff3c3c" stroke="#c71f1f" /><rect x="342.0" y="30.0" width="12.0" height="3" fill="#ff3c3c" stroke="#c71f1f" /><rect x="342.0" y="45.0" width="12.0" height="3" fill="#ff3c3c" stroke="#c71f1f" /><rect x="342.0" y="75.0" width="12.0" height="3" fill="#ff3c3c" stroke="#c71f1f" /><rect x="342.0" y="90.0" width="12.0" height="3" fill="#ff3c3c" stroke="#c71f1f" /><rect x="355.0" y="120.0" width="12.0" height="3" fill="#35df39" stroke="#03aa10" /><rect x="355.0" y="135.0" width="12.0" height="3" fill="#35df39" stroke="#03aa10" /><rect x="368.0" y="165.0" width="12.0" height="3" fill="#80c9ff" stroke="#0b6cba" /><rect x="368.0" y="210.0" width="12.0" height="3" fill="#80c9ff" stroke="#0b6cba" /><rect x="368.0" y="225.0" width="12.0" height="3" fill="#80c9ff" stroke="#0b6cba" /><rect x="368.0" y="255.0" width="12.0" height="3" fill="#80c9ff" stroke="#0b6cba" /><rect x="368.0" y="270.0" width="12.0" height="3" fill="#80c9ff" stroke="#0b6cba" /><rect x="368.0" y="300.0" width="12.0" height="3" fill="#80c9ff" stroke="#0b6cba" /><rect x="368.0" y="315.0" width="12.0" height="3" fill="#80c9ff" stroke="#0b6cba" /><rect x="368.0" y="345.0" width="12.0" height="3" fill="#80c9ff" stroke="#0b6cba" /><rect x="368.0" y="390.0" width="12.0" height="3" fill="#80c9ff" stroke="#0b6cba" /><rect x="368.0" y="405.0" width="12.0" height="3" fill="#80c9ff" stroke="#0b6cba" /><rect x="368.0" y="435.0" width="12.0" height="3" fill="#80c9ff" stroke="#0b6cba" /><rect x="368.0" y="450.0" width="12.0" height="3" fill="#80c9ff" stroke="#0b6cba" /><rect x="368.0" y="480.0" width="12.0" height="3" fill="#80c9ff" stroke="#0b6cba" /><rect x="368.0" y="495.0" width="12.0" height="3" fill="#80c9ff" stroke="#0b6cba" /><rect x="355.0" y="525.0" width="12.0" height="3" fill="#35df39" stroke="#03aa10" /><rect x="355.0" y="570.0" width="12.0" height="3" fill="#35df39" stroke="#03aa10" /><rect x="368.0" y="585.0" width="12.0" height="3" fill="#80c9ff" stroke="#0b6cba" /><rect x="368.0" y="615.0" width="12.0" height="3" fill="#80c9ff" stroke="#0b6cba" /><rect x="381.0" y="630.0" width="12.0" height="3" fill="#fff874" stroke="#eb9c26" /><rect x="381.0" y="660.0" width="12.0" height="3" fill="#fff874" stroke="#eb9c26" /><rect x="381.0" y="675.0" width="12.0" height="3" fill="#fff874" stroke="#eb9c26" /><rect x="342.0" y="705.0" width="12.0" height="3" fill="#ff3c3c" stroke="#c71f1f" /><rect x="456.0" y="30.0" width="12.0" height="3" fill="#ff3c3c" stroke="#c71f1f" /><rect x="469.0" y="45.0" width="12.0" height="3" fill="#35df39" stroke="#03aa10" /><rect x="482.0" y="75.0" width="12.0" height="3" fill="#80c9ff" stroke="#0b6cba" /><rect x="469.0" y="120.0" width="12.0" height="3" fill="#35df39" stroke="#03aa10" /><rect x="456.0" y="135.0" width="12.0" height="3" fill="#ff3c3c" stroke="#c71f1f" /><rect x="469.0" y="165.0" width="12.0" height="3" fill="#35df39" stroke="#03aa10" /><rect x="469.0" y="210.0" width="12.0" height="3" fill="#35df39" stroke="#03aa10" /><rect x="469.0" y="225.0" width="12.0" height="3" fill="#35df39" stroke="#03aa10" /><rect x="469.0" y="255.0" width="12.0" height="3" fill="#35df39" stroke="#03aa10" /><rect x="469.0" y="270.0" width="12.0" height="3" fill="#35df39" stroke="#03aa10" /><rect x="469.0" y="300.0" width="12.0" height="3" fill="#35df39" stroke="#03aa10" /><rect x="469.0" y="315.0" width="12.0" height="3" fill="#35df39" stroke="#03aa10" /><rect x="469.0" y="345.0" width="12.0" height="3" fill="#35df39" stroke="#03aa10" /><rect x="469.0" y="390.0" width="12.0" height="3" fill="#35df39" stroke="#03aa10" /><rect x="469.0" y="405.0" width="12.0" height="3" fill="#35df39" stroke="#03aa10" /><rect x="469.0" y="435.0" width="12.0" height="3" fill="#35df39" stroke="#03aa10" /><rect x="469.0" y="450.0" width="12.0" height="3" fill="#35df39" stroke="#03aa10" /><rect x="469.0" y="480.0" width="12.0" height="3" fill="#35df39" stroke="#03aa10" /><rect x="469.0" y="495.0" width="12.0" height="3" fill="#35df39" stroke="#03aa10" /><rect x="456.0" y="525.0" width="12.0" height="3" fill="#ff3c3c" stroke="#c71f1f" /><rect x="456.0" y="570.0" width="12.0" height="3" fill="#ff3c3c" stroke="#c71f1f" /><rect x="456.0" y="585.0" width="12.0" height="3" fill="#ff3c3c" stroke="#c71f1f" /><rect x="456.0" y="615.0" width="12.0" height="3" fill="#ff3c3c" stroke="#c71f1f" /><rect x="456.0" y="630.0" width="12.0" height="3" fill="#ff3c3c" stroke="#c71f1f" /><rect x="456.0" y="660.0" width="12.0" height="3" fill="#ff3c3c" stroke="#c71f1f" /><rect x="456.0" y="675.0" width="12.0" height="3" fill="#ff3c3c" stroke="#c71f1f" /><rect x="456.0" y="705.0" width="12.0" height="3" fill="#ff3c3c" stroke="#c71f1f" /><rect x="570.0" y="30.0" width="12.0" height="3" fill="#ff3c3c" stroke="#c71f1f" /><rect x="570.0" y="45.0" width="12.0" height="3" fill="#ff3c3c" stroke="#c71f1f" /><rect x="570.0" y="75.0" width="12.0" height="3" fill="#ff3c3c" stroke="#c71f1f" /><rect x="570.0" y="90.0" width="12.0" height="3" fill="#ff3c3c" stroke="#c71f1f" /><rect x="570.0" y="120.0" width="12.0" height="3" fill="#ff3c3c" stroke="#c71f1f" /><rect x="570.0" y="135.0" width="12.0" height="3" fill="#ff3c3c" stroke="#c71f1f" /><rect x="596.0" y="165.0" width="12.0" height="3" fill="#80c9ff" stroke="#0b6cba" /><rect x="596.0" y="210.0" width="12.0" height="3" fill="#80c9ff" stroke="#0b6cba" /><rect x="596.0" y="225.0" width="12.0" height="3" fill="#80c9ff" stroke="#0b6cba" /><rect x="596.0" y="255.0" width="12.0" height="3" fill="#80c9ff" stroke="#0b6cba" /><rect x="596.0" y="300.0" width="12.0" height="3" fill="#80c9ff" stroke="#0b6cba" /><rect x="596.0" y="315.0" width="12.0" height="3" fill="#80c9ff" stroke="#0b6cba" /><rect x="583.0" y="345.0" width="12.0" height="3" fill="#35df39" stroke="#03aa10" /><rect x="583.0" y="390.0" width="12.0" height="3" fill="#35df39" stroke="#03aa10" /><rect x="583.0" y="405.0" width="12.0" height="3" fill="#35df39" stroke="#03aa10" /><rect x="583.0" y="435.0" width="12.0" height="3" fill="#35df39" stroke="#03aa10" /><rect x="583.0" y="450.0" width="12.0" height="3" fill="#35df39" stroke="#03aa10" /><rect x="583.0" y="480.0" width="12.0" height="3" fill="#35df39" stroke="#03aa10" /><rect x="583.0" y="495.0" width="12.0" height="3" fill="#35df39" stroke="#03aa10" /><rect x="570.0" y="525.0" width="12.0" height="3" fill="#ff3c3c" stroke="#c71f1f" /><rect x="570.0" y="570.0" width="12.0" height="3" fill="#ff3c3c" stroke="#c71f1f" /><rect x="570.0" y="585.0" width="12.0" height="3" fill="#ff3c3c" stroke="#c71f1f" /><rect x="570.0" y="615.0" width="12.0" height="3" fill="#ff3c3c" stroke="#c71f1f" /><rect x="570.0" y="630.0" width="12.0" height="3" fill="#ff3c3c" stroke="#c71f1f" /><rect x="583.0" y="660.0" width="12.0" height="3" fill="#35df39" stroke="#03aa10" /><rect x="583.0" y="675.0" width="12.0" height="3" fill="#35df39" stroke="#03aa10" /><rect x="596.0" y="705.0" width="12.0" height="3" fill="#80c9ff" stroke="#0b6cba" /><rect x="710.0" y="30.0" width="12.0" height="3" fill="#80c9ff" stroke="#0b6cba" /><rect x="710.0" y="45.0" width="12.0" height="3" fill="#80c9ff" stroke="#0b6cba" /><rect x="710.0" y="75.0" width="12.0" height="3" fill="#80c9ff" stroke="#0b6cba" /><rect x="710.0" y="90.0" width="12.0" height="3" fill="#80c9ff" stroke="#0b6cba" /><rect x="710.0" y="120.0" width="12.0" height="3" fill="#80c9ff" stroke="#0b6cba" /><rect x="710.0" y="135.0" width="12.0" height="3" fill="#80c9ff" stroke="#0b6cba" /><rect x="710.0" y="165.0" width="12.0" height="3" fill="#80c9ff" stroke="#0b6cba" /><rect x="697.0" y="180.0" width="12.0" height="148.05" fill="#35df39" stroke="#03aa10" /><rect x="684.0" y="345.0" width="12.0" height="3" fill="#ff3c3c" stroke="#c71f1f" /><rect x="697.0" y="360.0" width="12.0" height="3" fill="#35df39" stroke="#03aa10" /><rect x="697.0" y="390.0" width="12.0" height="3" fill="#35df39" stroke="#03aa10" /><rect x="710.0" y="405.0" width="12.0" height="3" fill="#80c9ff" stroke="#0b6cba" /><rect x="697.0" y="435.0" width="12.0" height="3" fill="#35df39" stroke="#03aa10" /><rect x="684.0" y="480.0" width="12.0" height="3" fill="#ff3c3c" stroke="#c71f1f" /><rect x="697.0" y="525.0" width="12.0" height="161.55" fill="#35df39" stroke="#03aa10" /><rect x="684.0" y="705.0" width="12.0" height="3" fill="#ff3c3c" stroke="#c71f1f" /><rect x="811.0" y="0.0" width="12.0" height="3" fill="#35df39" stroke="#03aa10" /><rect x="811.0" y="30.0" width="12.0" height="3" fill="#35df39" stroke="#03aa10" /><rect x="798.0" y="45.0" width="12.0" height="3" fill="#ff3c3c" stroke="#c71f1f" /><rect x="811.0" y="75.0" width="12.0" height="3" fill="#35df39" stroke="#03aa10" /><rect x="798.0" y="120.0" width="12.0" height="3" fill="#ff3c3c" stroke="#c71f1f" /><rect x="811.0" y="165.0" width="12.0" height="161.55" fill="#35df39" stroke="#03aa10" /><rect x="798.0" y="345.0" width="12.0" height="3" fill="#ff3c3c" stroke="#c71f1f" /><rect x="811.0" y="360.0" width="12.0" height="3" fill="#35df39" stroke="#03aa10" /><rect x="811.0" y="390.0" width="12.0" height="3" fill="#35df39" stroke="#03aa10" /><rect x="824.0" y="405.0" width="12.0" height="3" fill="#80c9ff" stroke="#0b6cba" /><rect x="811.0" y="435.0" width="12.0" height="3" fill="#35df39" stroke="#03aa10" /><rect x="811.0" y="480.0" width="12.0" height="3" fill="#35df39" stroke="#03aa10" /><rect x="811.0" y="525.0" width="12.0" height="3" fill="#35df39" stroke="#03aa10" /><rect x="798.0" y="540.0" width="12.0" height="3" fill="#ff3c3c" stroke="#c71f1f" /><rect x="798.0" y="615.0" width="12.0" height="3" fill="#ff3c3c" stroke="#c71f1f" /><rect x="824.0" y="630.0" width="12.0" height="3" fill="#80c9ff" stroke="#0b6cba" /><rect x="824.0" y="705.0" width="12.0" height="3" fill="#80c9ff" stroke="#0b6cba" /><rect x="925.0" y="0.0" width="12.0" height="3" fill="#35df39" stroke="#03aa10" /><rect x="925.0" y="15.0" width="12.0" height="3" fill="#35df39" stroke="#03aa10" /><rect x="925.0" y="30.0" width="12.0" height="3" fill="#35df39" stroke="#03aa10" /><rect x="925.0" y="45.0" width="12.0" height="3" fill="#35df39" stroke="#03aa10" /><rect x="925.0" y="60.0" width="12.0" height="3" fill="#35df39" stroke="#03aa10" /><rect x="925.0" y="75.0" width="12.0" height="3" fill="#35df39" stroke="#03aa10" /><rect x="925.0" y="90.0" width="12.0" height="3" fill="#35df39" stroke="#03aa10" /><rect x="938.0" y="120.0" width="12.0" height="3" fill="#80c9ff" stroke="#0b6cba" /><rect x="951.0" y="165.0" width="12.0" height="323.55" fill="#fff874" stroke="#eb9c26" /><rect x="938.0" y="525.0" width="12.0" height="175.05" fill="#80c9ff" stroke="#0b6cba" /><rect x="1065.0" y="0.0" width="12.0" height="3" fill="#fff874" stroke="#eb9c26" /><rect x="1052.0" y="75.0" width="12.0" height="3" fill="#80c9ff" stroke="#0b6cba" /><rect x="1039.0" y="135.0" width="12.0" height="3" fill="#35df39" stroke="#03aa10" /><rect x="1026.0" y="165.0" width="12.0" height="175.05" fill="#ff3c3c" stroke="#c71f1f" /><rect x="1026.0" y="360.0" width="12.0" height="3" fill="#ff3c3c" stroke="#c71f1f" /><rect x="1052.0" y="450.0" width="12.0" height="3" fill="#80c9ff" stroke="#0b6cba" /><rect x="1039.0" y="525.0" width="12.0" height="161.55" fill="#35df39" stroke="#03aa10" /><rect x="1039.0" y="705.0" width="12.0" height="3" fill="#35df39" stroke="#03aa10" /><rect x="1153.0" y="30.0" width="12.0" height="3" fill="#35df39" stroke="#03aa10" /><rect x="1153.0" y="45.0" width="12.0" height="3" fill="#35df39" stroke="#03aa10" /><rect x="1153.0" y="75.0" width="12.0" height="3" fill="#35df39" stroke="#03aa10" /><rect x="1166.0" y="90.0" width="12.0" height="3" fill="#80c9ff" stroke="#0b6cba" /><rect x="1179.0" y="120.0" width="12.0" height="3" fill="#fff874" stroke="#eb9c26" /><rect x="1166.0" y="165.0" width="12.0" height="3" fill="#80c9ff" stroke="#0b6cba" /><rect x="1166.0" y="210.0" width="12.0" height="3" fill="#80c9ff" stroke="#0b6cba" /><rect x="1166.0" y="225.0" width="12.0" height="3" fill="#80c9ff" stroke="#0b6cba" /><rect x="1166.0" y="270.0" width="12.0" height="3" fill="#80c9ff" stroke="#0b6cba" /><rect x="1166.0" y="315.0" width="12.0" height="3" fill="#80c9ff" stroke="#0b6cba" /><rect x="1166.0" y="360.0" width="12.0" height="3" fill="#80c9ff" stroke="#0b6cba" /><rect x="1166.0" y="405.0" width="12.0" height="3" fill="#80c9ff" stroke="#0b6cba" /><rect x="1166.0" y="450.0" width="12.0" height="3" fill="#80c9ff" stroke="#0b6cba" /><rect x="1153.0" y="480.0" width="12.0" height="3" fill="#35df39" stroke="#03aa10" /><rect x="1140.0" y="495.0" width="12.0" height="3" fill="#ff3c3c" stroke="#c71f1f" /><rect x="1153.0" y="525.0" width="12.0" height="3" fill="#35df39" stroke="#03aa10" /><rect x="1153.0" y="570.0" width="12.0" height="3" fill="#35df39" stroke="#03aa10" /><rect x="1153.0" y="585.0" width="12.0" height="3" fill="#35df39" stroke="#03aa10" /><rect x="1153.0" y="630.0" width="12.0" height="3" fill="#35df39" stroke="#03aa10" /><rect x="1153.0" y="675.0" width="12.0" height="3" fill="#35df39" stroke="#03aa10" /><rect x="1267.0" y="0.0" width="12.0" height="3" fill="#35df39" stroke="#03aa10" /><rect x="1280.0" y="45.0" width="12.0" height="3" fill="#80c9ff" stroke="#0b6cba" /><rect x="1267.0" y="90.0" width="12.0" height="3" fill="#35df39" stroke="#03aa10" /><rect x="1280.0" y="120.0" width="12.0" height="3" fill="#80c9ff" stroke="#0b6cba" /><rect x="1254.0" y="165.0" width="12.0" height="3" fill="#ff3c3c" stroke="#c71f1f" /><rect x="1267.0" y="225.0" width="12.0" height="3" fill="#35df39" stroke="#03aa10" /><rect x="1280.0" y="270.0" width="12.0" height="3" fill="#80c9ff" stroke="#0b6cba" /><rect x="1280.0" y="300.0" width="12.0" height="3" fill="#80c9ff" stroke="#0b6cba" /><rect x="1254.0" y="345.0" width="12.0" height="3" fill="#ff3c3c" stroke="#c71f1f" /><rect x="1267.0" y="405.0" width="12.0" height="3" fill="#35df39" stroke="#03aa10" /><rect x="1280.0" y="450.0" width="12.0" height="3" fill="#80c9ff" stroke="#0b6cba" /><rect x="1280.0" y="480.0" width="12.0" height="3" fill="#80c9ff" stroke="#0b6cba" /><rect x="1267.0" y="495.0" width="12.0" height="3" fill="#35df39" stroke="#03aa10" /><rect x="1280.0" y="525.0" width="12.0" height="3" fill="#80c9ff" stroke="#0b6cba" /><rect x="1280.0" y="570.0" width="12.0" height="3" fill="#80c9ff" stroke="#0b6cba" /><rect x="1280.0" y="585.0" width="12.0" height="3" fill="#80c9ff" stroke="#0b6cba" /><rect x="1280.0" y="615.0" width="12.0" height="3" fill="#80c9ff" stroke="#0b6cba" /><rect x="1280.0" y="630.0" width="12.0" height="3" fill="#80c9ff" stroke="#0b6cba" /><rect x="1267.0" y="660.0" width="12.0" height="3" fill="#35df39" stroke="#03aa10" /><rect x="1267.0" y="675.0" width="12.0" height="3" fill="#35df39" stroke="#03aa10" /><rect x="1254.0" y="705.0" width="12.0" height="3" fill="#ff3c3c" stroke="#c71f1f" /><rect x="1368.0" y="30.0" width="12.0" height="3" fill="#ff3c3c" stroke="#c71f1f" /><rect x="1381.0" y="45.0" width="12.0" height="3" fill="#35df39" stroke="#03aa10" /><rect x="1381.0" y="75.0" width="12.0" height="3" fill="#35df39" stroke="#03aa10" /><rect x="1394.0" y="90.0" width="12.0" height="3" fill="#80c9ff" stroke="#0b6cba" /><rect x="1394.0" y="120.0" width="12.0" height="3" fill="#80c9ff" stroke="#0b6cba" /><rect x="1394.0" y="135.0" width="12.0" height="3" fill="#80c9ff" stroke="#0b6cba" /><rect x="1394.0" y="150.0" width="12.0" height="3" fill="#80c9ff" stroke="#0b6cba" /><rect x="1394.0" y="165.0" width="12.0" height="3" fill="#80c9ff" stroke="#0b6cba" /><rect x="1368.0" y="180.0" width="12.0" height="3" fill="#ff3c3c" stroke="#c71f1f" /><rect x="1381.0" y="225.0" width="12.0" height="3" fill="#35df39" stroke="#03aa10" /><rect x="1368.0" y="255.0" width="12.0" height="3" fill="#ff3c3c" stroke="#c71f1f" /><rect x="1368.0" y="300.0" width="12.0" height="3" fill="#ff3c3c" stroke="#c71f1f" /><rect x="1381.0" y="345.0" width="12.0" height="3" fill="#35df39" stroke="#03aa10" /><rect x="1381.0" y="390.0" width="12.0" height="3" fill="#35df39" stroke="#03aa10" /><rect x="1394.0" y="405.0" width="12.0" height="3" fill="#80c9ff" stroke="#0b6cba" /><rect x="1381.0" y="435.0" width="12.0" height="3" fill="#35df39" stroke="#03aa10" /><rect x="1394.0" y="450.0" width="12.0" height="3" fill="#80c9ff" stroke="#0b6cba" /><rect x="1394.0" y="480.0" width="12.0" height="3" fill="#80c9ff" stroke="#0b6cba" /><rect x="1381.0" y="495.0" width="12.0" height="3" fill="#35df39" stroke="#03aa10" /><rect x="1368.0" y="525.0" width="12.0" height="3" fill="#ff3c3c" stroke="#c71f1f" /><rect x="1381.0" y="585.0" width="12.0" height="3" fill="#35df39" stroke="#03aa10" /><rect x="1368.0" y="615.0" width="12.0" height="3" fill="#ff3c3c" stroke="#c71f1f" /><rect x="1381.0" y="660.0" width="12.0" height="3" fill="#35df39" stroke="#03aa10" /><rect x="1368.0" y="705.0" width="12.0" height="3" fill="#ff3c3c" stroke="#c71f1f" /><rect x="1495.0" y="30.0" width="12.0" height="3" fill="#35df39" stroke="#03aa10" /><rect x="1508.0" y="45.0" width="12.0" height="3" fill="#80c9ff" stroke="#0b6cba" /><rect x="1508.0" y="75.0" width="12.0" height="3" fill="#80c9ff" stroke="#0b6cba" /><rect x="1508.0" y="90.0" width="12.0" height="3" fill="#80c9ff" stroke="#0b6cba" /><rect x="1508.0" y="120.0" width="12.0" height="3" fill="#80c9ff" stroke="#0b6cba" /><rect x="1495.0" y="135.0" width="12.0" height="3" fill="#35df39" stroke="#03aa10" /><rect x="1495.0" y="165.0" width="12.0" height="3" fill="#35df39" stroke="#03aa10" /><rect x="1495.0" y="210.0" width="12.0" height="3" fill="#35df39" stroke="#03aa10" /><rect x="1508.0" y="225.0" width="12.0" height="3" fill="#80c9ff" stroke="#0b6cba" /><rect x="1508.0" y="255.0" width="12.0" height="3" fill="#80c9ff" stroke="#0b6cba" /><rect x="1495.0" y="270.0" width="12.0" height="3" fill="#35df39" stroke="#03aa10" /><rect x="1495.0" y="300.0" width="12.0" height="3" fill="#35df39" stroke="#03aa10" /><rect x="1508.0" y="315.0" width="12.0" height="3" fill="#80c9ff" stroke="#0b6cba" /><rect x="1482.0" y="345.0" width="12.0" height="3" fill="#ff3c3c" stroke="#c71f1f" /><rect x="1482.0" y="390.0" width="12.0" height="3" fill="#ff3c3c" stroke="#c71f1f" /><rect x="1495.0" y="405.0" width="12.0" height="3" fill="#35df39" stroke="#03aa10" /><rect x="1508.0" y="435.0" width="12.0" height="3" fill="#80c9ff" stroke="#0b6cba" /><rect x="1495.0" y="450.0" width="12.0" height="3" fill="#35df39" stroke="#03aa10" /><rect x="1495.0" y="480.0" width="12.0" height="3" fill="#35df39" stroke="#03aa10" /><rect x="1482.0" y="495.0" width="12.0" height="3" fill="#ff3c3c" stroke="#c71f1f" /><rect x="1482.0" y="540.0" width="12.0" height="3" fill="#ff3c3c" stroke="#c71f1f" /><rect x="1495.0" y="585.0" width="12.0" height="3" fill="#35df39" stroke="#03aa10" /><rect x="1482.0" y="615.0" width="12.0" height="3" fill="#ff3c3c" stroke="#c71f1f" /><rect x="1482.0" y="660.0" width="12.0" height="3" fill="#ff3c3c" stroke="#c71f1f" /><rect x="1495.0" y="705.0" width="12.0" height="3" fill="#35df39" stroke="#03aa10" /><rect x="1609.0" y="30.0" width="12.0" height="3" fill="#35df39" stroke="#03aa10" /><rect x="1622.0" y="45.0" width="12.0" height="3" fill="#80c9ff" stroke="#0b6cba" /><rect x="1609.0" y="75.0" width="12.0" height="3" fill="#35df39" stroke="#03aa10" /><rect x="1622.0" y="90.0" width="12.0" height="3" fill="#80c9ff" stroke="#0b6cba" /><rect x="1622.0" y="120.0" width="12.0" height="3" fill="#80c9ff" stroke="#0b6cba" /><rect x="1609.0" y="135.0" width="12.0" height="3" fill="#35df39" stroke="#03aa10" /><rect x="1596.0" y="165.0" width="12.0" height="3" fill="#ff3c3c" stroke="#c71f1f" /><rect x="1609.0" y="225.0" width="12.0" height="3" fill="#35df39" stroke="#03aa10" /><rect x="1596.0" y="255.0" width="12.0" height="3" fill="#ff3c3c" stroke="#c71f1f" /><rect x="1609.0" y="300.0" width="12.0" height="3" fill="#35df39" stroke="#03aa10" /><rect x="1596.0" y="345.0" width="12.0" height="3" fill="#ff3c3c" stroke="#c71f1f" /><rect x="1609.0" y="390.0" width="12.0" height="3" fill="#35df39" stroke="#03aa10" /><rect x="1622.0" y="405.0" width="12.0" height="3" fill="#80c9ff" stroke="#0b6cba" /><rect x="1622.0" y="435.0" width="12.0" height="3" fill="#80c9ff" stroke="#0b6cba" /><rect x="1609.0" y="450.0" width="12.0" height="3" fill="#35df39" stroke="#03aa10" /><rect x="1609.0" y="480.0" width="12.0" height="3" fill="#35df39" stroke="#03aa10" /><rect x="1622.0" y="495.0" width="12.0" height="3" fill="#80c9ff" stroke="#0b6cba" /><rect x="1609.0" y="525.0" width="12.0" height="3" fill="#35df39" stroke="#03aa10" /><rect x="1596.0" y="615.0" width="12.0" height="3" fill="#ff3c3c" stroke="#c71f1f" /><rect x="1609.0" y="630.0" width="12.0" height="3" fill="#35df39" stroke="#03aa10" /><rect x="1609.0" y="705.0" width="12.0" height="3" fill="#35df39" stroke="#03aa10" /><rect x="1749.0" y="0.0" width="12.0" height="3" fill="#fff874" stroke="#eb9c26" /><rect x="1749.0" y="30.0" width="12.0" height="3" fill="#fff874" stroke="#eb9c26" /><rect x="1736.0" y="45.0" width="12.0" height="3" fill="#80c9ff" stroke="#0b6cba" /><rect x="1736.0" y="75.0" width="12.0" height="3" fill="#80c9ff" stroke="#0b6cba" /><rect x="1723.0" y="90.0" width="12.0" height="3" fill="#35df39" stroke="#03aa10" /><rect x="1723.0" y="120.0" width="12.0" height="3" fill="#35df39" stroke="#03aa10" /><rect x="1736.0" y="165.0" width="12.0" height="3" fill="#80c9ff" stroke="#0b6cba" /><rect x="1736.0" y="210.0" width="12.0" height="3" fill="#80c9ff" stroke="#0b6cba" /><rect x="1736.0" y="225.0" width="12.0" height="3" fill="#80c9ff" stroke="#0b6cba" /><rect x="1736.0" y="255.0" width="12.0" height="3" fill="#80c9ff" stroke="#0b6cba" /><rect x="1736.0" y="270.0" width="12.0" height="3" fill="#80c9ff" stroke="#0b6cba" /><rect x="1723.0" y="300.0" width="12.0" height="3" fill="#35df39" stroke="#03aa10" /><rect x="1736.0" y="315.0" width="12.0" height="3" fill="#80c9ff" stroke="#0b6cba" /><rect x="1749.0" y="345.0" width="12.0" height="161.55" fill="#fff874" stroke="#eb9c26" /><rect x="1749.0" y="525.0" width="12.0" height="3" fill="#fff874" stroke="#eb9c26" /><rect x="1749.0" y="570.0" width="12.0" height="3" fill="#fff874" stroke="#eb9c26" /><rect x="1749.0" y="585.0" width="12.0" height="3" fill="#fff874" stroke="#eb9c26" /><rect x="1749.0" y="615.0" width="12.0" height="3" fill="#fff874" stroke="#eb9c26" /><rect x="1749.0" y="630.0" width="12.0" height="3" fill="#fff874" stroke="#eb9c26" /><rect x="1736.0" y="660.0" width="12.0" height="3" fill="#80c9ff" stroke="#0b6cba" /><rect x="1736.0" y="675.0" width="12.0" height="3" fill="#80c9ff" stroke="#0b6cba" /><rect x="1723.0" y="705.0" width="12.0" height="3" fill="#35df39" stroke="#03aa10" /><rect x="1837.0" y="30.0" width="12.0" height="3" fill="#35df39" stroke="#03aa10" /><rect x="1837.0" y="45.0" width="12.0" height="3" fill="#35df39" stroke="#03aa10" /><rect x="1837.0" y="75.0" width="12.0" height="3" fill="#35df39" stroke="#03aa10" /><rect x="1824.0" y="90.0" width="12.0" height="3" fill="#ff3c3c" stroke="#c71f1f" /><rect x="1824.0" y="120.0" width="12.0" height="3" fill="#ff3c3c" stroke="#c71f1f" /><rect x="1837.0" y="135.0" width="12.0" height="3" fill="#35df39" stroke="#03aa10" /><rect x="1850.0" y="165.0" width="12.0" height="3" fill="#80c9ff" stroke="#0b6cba" /><rect x="1850.0" y="210.0" width="12.0" height="3" fill="#80c9ff" stroke="#0b6cba" /><rect x="1850.0" y="225.0" width="12.0" height="3" fill="#80c9ff" stroke="#0b6cba" /><rect x="1850.0" y="255.0" width="12.0" height="3" fill="#80c9ff" stroke="#0b6cba" /><rect x="1850.0" y="270.0" width="12.0" height="3" fill="#80c9ff" stroke="#0b6cba" /><rect x="1837.0" y="300.0" width="12.0" height="3" fill="#35df39" stroke="#03aa10" /><rect x="1837.0" y="315.0" width="12.0" height="3" fill="#35df39" stroke="#03aa10" /><rect x="1824.0" y="345.0" width="12.0" height="3" fill="#ff3c3c" stroke="#c71f1f" /><rect x="1824.0" y="390.0" width="12.0" height="3" fill="#ff3c3c" stroke="#c71f1f" /><rect x="1837.0" y="405.0" width="12.0" height="3" fill="#35df39" stroke="#03aa10" /><rect x="1837.0" y="435.0" width="12.0" height="3" fill="#35df39" stroke="#03aa10" /><rect x="1850.0" y="450.0" width="12.0" height="3" fill="#80c9ff" stroke="#0b6cba" /><rect x="1824.0" y="480.0" width="12.0" height="3" fill="#ff3c3c" stroke="#c71f1f" /><rect x="1824.0" y="495.0" width="12.0" height="3" fill="#ff3c3c" stroke="#c71f1f" /><rect x="1850.0" y="525.0" width="12.0" height="3" fill="#80c9ff" stroke="#0b6cba" /><rect x="1850.0" y="570.0" width="12.0" height="3" fill="#80c9ff" stroke="#0b6cba" /><rect x="1850.0" y="585.0" width="12.0" height="3" fill="#80c9ff" stroke="#0b6cba" /><rect x="1850.0" y="615.0" width="12.0" height="3" fill="#80c9ff" stroke="#0b6cba" /><rect x="1850.0" y="630.0" width="12.0" height="3" fill="#80c9ff" stroke="#0b6cba" /><rect x="1850.0" y="660.0" width="12.0" height="3" fill="#80c9ff" stroke="#0b6cba" /><rect x="1850.0" y="675.0" width="12.0" height="3" fill="#80c9ff" stroke="#0b6cba" /><rect x="1837.0" y="705.0" width="12.0" height="3" fill="#35df39" stroke="#03aa10" /><rect x="1951.0" y="30.0" width="12.0" height="3" fill="#35df39" stroke="#03aa10" /><rect x="1951.0" y="45.0" width="12.0" height="3" fill="#35df39" stroke="#03aa10" /><rect x="1951.0" y="75.0" width="12.0" height="3" fill="#35df39" stroke="#03aa10" /><rect x="1951.0" y="90.0" width="12.0" height="3" fill="#35df39" stroke="#03aa10" /><rect x="1951.0" y="120.0" width="12.0" height="3" fill="#35df39" stroke="#03aa10" /><rect x="1938.0" y="165.0" width="12.0" height="3" fill="#ff3c3c" stroke="#c71f1f" /><rect x="1938.0" y="210.0" width="12.0" height="3" fill="#ff3c3c" stroke="#c71f1f" /><rect x="1938.0" y="225.0" width="12.0" height="3" fill="#ff3c3c" stroke="#c71f1f" /><rect x="1938.0" y="255.0" width="12.0" height="3" fill="#ff3c3c" stroke="#c71f1f" /><rect x="1938.0" y="270.0" width="12.0" height="3" fill="#ff3c3c" stroke="#c71f1f" /><rect x="1938.0" y="300.0" width="12.0" height="3" fill="#ff3c3c" stroke="#c71f1f" /><rect x="1938.0" y="315.0" width="12.0" height="3" fill="#ff3c3c" stroke="#c71f1f" /><rect x="1951.0" y="345.0" width="12.0" height="3" fill="#35df39" stroke="#03aa10" /><rect x="1951.0" y="390.0" width="12.0" height="3" fill="#35df39" stroke="#03aa10" /><rect x="1964.0" y="405.0" width="12.0" height="3" fill="#80c9ff" stroke="#0b6cba" /><rect x="1964.0" y="435.0" width="12.0" height="3" fill="#80c9ff" stroke="#0b6cba" /><rect x="1951.0" y="450.0" width="12.0" height="3" fill="#35df39" stroke="#03aa10" /><rect x="1951.0" y="480.0" width="12.0" height="3" fill="#35df39" stroke="#03aa10" /><rect x="1951.0" y="495.0" width="12.0" height="3" fill="#35df39" stroke="#03aa10" /><rect x="1977.0" y="525.0" width="12.0" height="3" fill="#fff874" stroke="#eb9c26" /><rect x="1977.0" y="570.0" width="12.0" height="3" fill="#fff874" stroke="#eb9c26" /><rect x="1977.0" y="585.0" width="12.0" height="3" fill="#fff874" stroke="#eb9c26" /><rect x="1977.0" y="615.0" width="12.0" height="3" fill="#fff874" stroke="#eb9c26" /><rect x="1977.0" y="630.0" width="12.0" height="3" fill="#fff874" stroke="#eb9c26" /><rect x="1964.0" y="660.0" width="12.0" height="3" fill="#80c9ff" stroke="#0b6cba" /><rect x="1964.0" y="675.0" width="12.0" height="3" fill="#80c9ff" stroke="#0b6cba" /><rect x="1951.0" y="705.0" width="12.0" height="3" fill="#35df39" stroke="#03aa10" /><rect x="2065.0" y="30.0" width="12.0" height="3" fill="#35df39" stroke="#03aa10" /><rect x="2065.0" y="45.0" width="12.0" height="3" fill="#35df39" stroke="#03aa10" /><rect x="2065.0" y="75.0" width="12.0" height="3" fill="#35df39" stroke="#03aa10" /><rect x="2052.0" y="90.0" width="12.0" height="3" fill="#ff3c3c" stroke="#c71f1f" /><rect x="2052.0" y="120.0" width="12.0" height="3" fill="#ff3c3c" stroke="#c71f1f" /><rect x="2065.0" y="135.0" width="12.0" height="3" fill="#35df39" stroke="#03aa10" /><rect x="2078.0" y="165.0" width="12.0" height="3" fill="#80c9ff" stroke="#0b6cba" /><rect x="2078.0" y="210.0" width="12.0" height="3" fill="#80c9ff" stroke="#0b6cba" /><rect x="2078.0" y="225.0" width="12.0" height="3" fill="#80c9ff" stroke="#0b6cba" /><rect x="2078.0" y="255.0" width="12.0" height="3" fill="#80c9ff" stroke="#0b6cba" /><rect x="2078.0" y="270.0" width="12.0" height="3" fill="#80c9ff" stroke="#0b6cba" /><rect x="2065.0" y="300.0" width="12.0" height="3" fill="#35df39" stroke="#03aa10" /><rect x="2065.0" y="315.0" width="12.0" height="3" fill="#35df39" stroke="#03aa10" /><rect x="2052.0" y="345.0" width="12.0" height="3" fill="#ff3c3c" stroke="#c71f1f" /><rect x="2052.0" y="390.0" width="12.0" height="3" fill="#ff3c3c" stroke="#c71f1f" /><rect x="2065.0" y="405.0" width="12.0" height="3" fill="#35df39" stroke="#03aa10" /><rect x="2065.0" y="435.0" width="12.0" height="3" fill="#35df39" stroke="#03aa10" /><rect x="2078.0" y="450.0" width="12.0" height="3" fill="#80c9ff" stroke="#0b6cba" /><rect x="2052.0" y="480.0" width="12.0" height="3" fill="#ff3c3c" stroke="#c71f1f" /><rect x="2052.0" y="495.0" width="12.0" height="3" fill="#ff3c3c" stroke="#c71f1f" /><rect x="2078.0" y="525.0" width="12.0" height="3" fill="#80c9ff" stroke="#0b6cba" /><rect x="2078.0" y="570.0" width="12.0" height="3" fill="#80c9ff" stroke="#0b6cba" /><rect x="2078.0" y="585.0" width="12.0" height="3" fill="#80c9ff" stroke="#0b6cba" /><rect x="2078.0" y="615.0" width="12.0" height="3" fill="#80c9ff" stroke="#0b6cba" /><rect x="2078.0" y="630.0" width="12.0" height="3" fill="#80c9ff" stroke="#0b6cba" /><rect x="2078.0" y="660.0" width="12.0" height="3" fill="#80c9ff" stroke="#0b6cba" /><rect x="2078.0" y="675.0" width="12.0" height="3" fill="#80c9ff" stroke="#0b6cba" /><rect x="2065.0" y="705.0" width="12.0" height="3" fill="#35df39" stroke="#03aa10" /><rect x="2179.0" y="30.0" width="12.0" height="3" fill="#35df39" stroke="#03aa10" /><rect x="2179.0" y="45.0" width="12.0" height="3" fill="#35df39" stroke="#03aa10" /><rect x="2179.0" y="75.0" width="12.0" height="3" fill="#35df39" stroke="#03aa10" /><rect x="2179.0" y="90.0" width="12.0" height="3" fill="#35df39" stroke="#03aa10" /><rect x="2179.0" y="120.0" width="12.0" height="3" fill="#35df39" stroke="#03aa10" /><rect x="2179.0" y="135.0" width="12.0" height="3" fill="#35df39" stroke="#03aa10" /><rect x="2166.0" y="165.0" width="12.0" height="3" fill="#ff3c3c" stroke="#c71f1f" /><rect x="2166.0" y="210.0" width="12.0" height="3" fill="#ff3c3c" stroke="#c71f1f" /><rect x="2166.0" y="225.0" width="12.0" height="3" fill="#ff3c3c" stroke="#c71f1f" /><rect x="2166.0" y="255.0" width="12.0" height="3" fill="#ff3c3c" stroke="#c71f1f" /><rect x="2166.0" y="270.0" width="12.0" height="3" fill="#ff3c3c" stroke="#c71f1f" /><rect x="2179.0" y="300.0" width="12.0" height="3" fill="#35df39" stroke="#03aa10" /><rect x="2192.0" y="315.0" width="12.0" height="3" fill="#80c9ff" stroke="#0b6cba" /><rect x="2179.0" y="345.0" width="12.0" height="3" fill="#35df39" stroke="#03aa10" /><rect x="2179.0" y="390.0" width="12.0" height="3" fill="#35df39" stroke="#03aa10" /><rect x="2179.0" y="405.0" width="12.0" height="3" fill="#35df39" stroke="#03aa10" /><rect x="2179.0" y="435.0" width="12.0" height="3" fill="#35df39" stroke="#03aa10" /><rect x="2179.0" y="450.0" width="12.0" height="3" fill="#35df39" stroke="#03aa10" /><rect x="2179.0" y="480.0" width="12.0" height="3" fill="#35df39" stroke="#03aa10" /><rect x="2179.0" y="495.0" width="12.0" height="3" fill="#35df39" stroke="#03aa10" /><rect x="2166.0" y="525.0" width="12.0" height="3" fill="#ff3c3c" stroke="#c71f1f" /><rect x="2166.0" y="570.0" width="12.0" height="3" fill="#ff3c3c" stroke="#c71f1f" /><rect x="2166.0" y="585.0" width="12.0" height="3" fill="#ff3c3c" stroke="#c71f1f" /><rect x="2166.0" y="615.0" width="12.0" height="3" fill="#ff3c3c" stroke="#c71f1f" /><rect x="2166.0" y="630.0" width="12.0" height="3" fill="#ff3c3c" stroke="#c71f1f" /><rect x="2166.0" y="660.0" width="12.0" height="3" fill="#ff3c3c" stroke="#c71f1f" /><rect x="2166.0" y="675.0" width="12.0" height="3" fill="#ff3c3c" stroke="#c71f1f" /><rect x="2166.0" y="705.0" width="12.0" height="3" fill="#ff3c3c" stroke="#c71f1f" /><rect x="2280.0" y="30.0" width="12.0" height="3" fill="#ff3c3c" stroke="#c71f1f" /><rect x="2280.0" y="45.0" width="12.0" height="3" fill="#ff3c3c" stroke="#c71f1f" /><rect x="2280.0" y="75.0" width="12.0" height="3" fill="#ff3c3c" stroke="#c71f1f" /><rect x="2280.0" y="90.0" width="12.0" height="3" fill="#ff3c3c" stroke="#c71f1f" /><rect x="2293.0" y="120.0" width="12.0" height="3" fill="#35df39" stroke="#03aa10" /><rect x="2306.0" y="135.0" width="12.0" height="3" fill="#80c9ff" stroke="#0b6cba" /><rect x="2293.0" y="165.0" width="12.0" height="3" fill="#35df39" stroke="#03aa10" /><rect x="2293.0" y="210.0" width="12.0" height="3" fill="#35df39" stroke="#03aa10" /><rect x="2293.0" y="225.0" width="12.0" height="3" fill="#35df39" stroke="#03aa10" /><rect x="2293.0" y="255.0" width="12.0" height="3" fill="#35df39" stroke="#03aa10" /><rect x="2293.0" y="270.0" width="12.0" height="3" fill="#35df39" stroke="#03aa10" /><rect x="2280.0" y="300.0" width="12.0" height="3" fill="#ff3c3c" stroke="#c71f1f" /><rect x="2293.0" y="315.0" width="12.0" height="3" fill="#35df39" stroke="#03aa10" /><rect x="2306.0" y="345.0" width="12.0" height="3" fill="#80c9ff" stroke="#0b6cba" /><rect x="2306.0" y="390.0" width="12.0" height="3" fill="#80c9ff" stroke="#0b6cba" /><rect x="2306.0" y="405.0" width="12.0" height="3" fill="#80c9ff" stroke="#0b6cba" /><rect x="2306.0" y="435.0" width="12.0" height="3" fill="#80c9ff" stroke="#0b6cba" /><rect x="2293.0" y="450.0" width="12.0" height="3" fill="#35df39" stroke="#03aa10" /><rect x="2306.0" y="480.0" width="12.0" height="3" fill="#80c9ff" stroke="#0b6cba" /><rect x="2319.0" y="495.0" width="12.0" height="3" fill="#fff874" stroke="#eb9c26" /></svg>