<?xml version="1.0" encoding="UTF-8"?><svg xmlns="http://www.w3.org/2000/svg" xmlns:xlink="http://www.w3.org/1999/xlink"     width="1824" height="3027.5" viewBox="0 0 1824 3027.5"><defs></defs><rect x="0" y="0" width="64" height="883.5" fill="black" /><rect x="0" y="0.0" width="64" height="1" fill="white" fill-opacity="0.5" /><text x="74" y="14.0" font-size="14" fill="white" font-family="monospace" dominant-baseline="ideographic">1</text><rect x="0" y="55.0" width="64" height="1" fill="white" fill-opacity="0.2" /><rect x="0" y="110.5" width="64" height="1" fill="white" fill-opacity="0.2" /><rect x="0" y="165.5" width="64" height="1" fill="white" fill-opacity="0.2" /><rect x="0" y="221.0" width="64" height="1" fill="white" fill-opacity="0.5" /><text x="74" y="235.0" font-size="14" fill="white" font-family="monospace" dominant-baseline="ideographic">2</text><rect x="0" y="276.0" width="64" height="1" fill="white" fill-opacity="0.2" /><rect x="0" y="331.5" width="64" height="1" fill="white" fill-opacity="0.2" /><rect x="0" y="386.5" width="64" height="1" fill="white" fill-opacity="0.2" /><rect x="0" y="441.5" width="64" height="1" fill="white" fill-opacity="0.5" /><text x="74" y="455.5" font-size="14" fill="white" font-family="monospace" dominant-baseline="ideographic">3</text><rect x="0" y="497.0" width="64" height="1" fill="white" fill-opacity="0.2" /><rect x="0" y="552.0" width="64" height="1" fill="white" fill-opacity="0.2" /><rect x="0" y="607.5" width="64" height="1" fill="white" fill-opacity="0.2" /><rect x="0" y="662.5" width="64" height="1" fill="white" fill-opacity="0.5" /><text x="74" y="676.5" font-size="14" fill="white" font-family="monospace" dominant-baseline="ideographic">4</text><rect x="0" y="718.0" width="64" height="1" fill="white" fill-opacity="0.2" /><rect x="0" y="773.0" width="64" height="1" fill="white" fill-opacity="0.2" /><rect x="0" y="828.0" width="64" height="1" fill="white" fill-opacity="0.2" /><rect x="0" y="883.5" width="64" height="1" fill="white" fill-opacity="0.5" /><text x="74" y="897.5" font-size="14" fill="white" font-family="monospace" dominant-baseline="ideographic">5</text><rect x="0" y="0.0" width="64" height="1" fill="aqua" fill-opacity="0.75" /><text x="0" y="14.0" font-size="14" fill="aqua" fill-opacity="0.75" font-family="monospace">Intro</text><rect x="0" y="0.0" width="64" height="1" fill="lime" fill-opacity="0.75" /><text x="74" y="28.0" font-size="14" fill="lime" font-family="monospace" dominant-baseline="ideographic">163</text><rect x="114" y="0" width="64" height="883.5" fill="black" /><rect x="114" y="0.0" width="64" height="1" fill="white" fill-opacity="0.5" /><text x="188" y="14.0" font-size="14" fill="white" font-family="monospace" dominant-baseline="ideographic">5</text><rect x="114" y="55.0" width="64" height="1" fill="white" fill-opacity="0.2" /><rect x="114" y="110.5" width="64" height="1" fill="white" fill-opacity="0.2" /><rect x="114" y="165.5" width="64" height="1" fill="white" fill-opacity="0.2" /><rect x="114" y="221.0" width="64" height="1" fill="white" fill-opacity="0.5" /><text x="188" y="235.0" font-size="14" fill="white" font-family="monospace" dominant-baseline="ideographic">6</text><rect x="114" y="276.0" width="64" height="1" fill="white" fill-opacity="0.2" /><rect x="114" y="331.0" width="64" height="1" fill="white" fill-opacity="0.2" /><rect x="114" y="386.5" width="64" height="1" fill="white" fill-opacity="0.2" /><rect x="114" y="441.5" width="64" height="1" fill="white" fill-opacity="0.5" /><text x="188" y="455.5" font-size="14" fill="white" font-family="monospace" dominant-baseline="ideographic">7</text><rect x="114" y="497.0" width="64" height="1" fill="white" fill-opacity="0.2" /><rect x="114" y="552.0" width="64" height="1" fill="white" fill-opacity="0.2" /><rect x="114" y="607.5" width="64" height="1" fill="white" fill-opacity="0.2" /><rect x="114" y="662.5" width="64" height="1" fill="white" fill-opacity="0.5" /><text x="188" y="676.5" font-size="14" fill="white" font-family="monospace" dominant-baseline="ideographic">8</text><rect x="114" y="717.5" width="64" height="1" fill="white" fill-opacity="0.2" /><rect x="114" y="773.0" width="64" height="1" fill="white" fill-opacity="0.2" /><rect x="114" y="828.0" width="64" height="1" fill="white" fill-opacity="0.2" /><rect x="114" y="883.5" width="64" height="1" fill="white" fill-opacity="0.5" /><text x="188" y="897.5" font-size="14" fill="white" font-family="monospace" dominant-baseline="ideographic">9</text><rect x="228" y="0" width="64" height="883.5" fill="black" /><rect x="228" y="0.0" width="64" height="1" fill="white" fill-opacity="0.5" /><text x="302" y="14.0" font-size="14" fill="white" font-family="monospace" dominant-baseline="ideographic">9</text><rect x="228" y="55.0" width="64" height="1" fill="white" fill-opacity="0.2" /><rect x="228" y="110.5" width="64" height="1" fill="white" fill-opacity="0.2" /><rect x="228" y="165.5" width="64" height="1" fill="white" fill-opacity="0.2" /><rect x="228" y="220.5" width="64" height="1" fill="white" fill-opacity="0.5" /><text x="302" y="234.5" font-size="14" fill="white" font-family="monospace" dominant-baseline="ideographic">10</text><rect x="228" y="276.0" width="64" height="1" fill="white" fill-opacity="0.2" /><rect x="228" y="331.0" width="64" height="1" fill="white" fill-opacity="0.2" /><rect x="228" y="386.5" width="64" height="1" fill="white" fill-opacity="0.2" /><rect x="228" y="441.5" width="64" height="1" fill="white" fill-opacity="0.5" /><text x="302" y="455.5" font-size="14" fill="white" font-family="monospace" dominant-baseline="ideographic">11</text><rect x="228" y="497.0" width="64" height="1" fill="white" fill-opacity="0.2" /><rect x="228" y="552.0" width="64" height="1" fill="white" fill-opacity="0.2" /><rect x="228" y="607.0" width="64" height="1" fill="white" fill-opacity="0.2" /><rect x="228" y="662.5" width="64" height="1" fill="white" fill-opacity="0.5" /><text x="302" y="676.5" font-size="14" fill="white" font-family="monospace" dominant-baseline="ideographic">12</text><rect x="228" y="717.5" width="64" height="1" fill="white" fill-opacity="0.2" /><rect x="228" y="773.0" width="64" height="1" fill="white" fill-opacity="0.2" /><rect x="228" y="828.0" width="64" height="1" fill="white" fill-opacity="0.2" /><rect x="228" y="883.5" width="64" height="1" fill="white" fill-opacity="0.5" /><text x="302" y="897.5" font-size="14" fill="white" font-family="monospace" dominant-baseline="ideographic">13</text><rect x="342" y="0" width="64" height="883.0" fill="black" /><rect x="342" y="0.0" width="64" height="1" fill="white" fill-opacity="0.5" /><text x="416" y="14.0" font-size="14" fill="white" font-family="monospace" dominant-baseline="ideographic">13</text><rect x="342" y="55.0" width="64" height="1" fill="white" fill-opacity="0.2" /><rect x="342" y="110.0" width="64" height="1" fill="white" fill-opacity="0.2" /><rect x="342" y="165.5" width="64" height="1" fill="white" fill-opacity="0.2" /><rect x="342" y="220.5" width="64" height="1" fill="white" fill-opacity="0.5" /><text x="416" y="234.5" font-size="14" fill="white" font-family="monospace" dominant-baseline="ideographic">14</text><rect x="342" y="276.0" width="64" height="1" fill="white" fill-opacity="0.2" /><rect x="342" y="331.0" width="64" height="1" fill="white" fill-opacity="0.2" /><rect x="342" y="386.5" width="64" height="1" fill="white" fill-opacity="0.2" /><rect x="342" y="441.5" width="64" height="1" fill="white" fill-opacity="0.5" /><text x="416" y="455.5" font-size="14" fill="white" font-family="monospace" dominant-baseline="ideographic">15</text><rect x="342" y="496.5" width="64" height="1" fill="white" fill-opacity="0.2" /><rect x="342" y="552.0" width="64" height="1" fill="white" fill-opacity="0.2" /><rect x="342" y="607.0" width="64" height="1" fill="white" fill-opacity="0.2" /><rect x="342" y="662.5" width="64" height="1" fill="white" fill-opacity="0.5" /><text x="416" y="676.5" font-size="14" fill="white" font-family="monospace" dominant-baseline="ideographic">16</text><rect x="342" y="717.5" width="64" height="1" fill="white" fill-opacity="0.2" /><rect x="342" y="773.0" width="64" height="1" fill="white" fill-opacity="0.2" /><rect x="342" y="828.0" width="64" height="1" fill="white" fill-opacity="0.2" /><rect x="342" y="883.0" width="64" height="1" fill="white" fill-opacity="0.5" /><text x="416" y="897.0" font-size="14" fill="white" font-family="monospace" dominant-baseline="ideographic">17</text><rect x="456" y="0" width="64" height="883.5" fill="black" /><rect x="456" y="0.0" width="64" height="1" fill="white" fill-opacity="0.5" /><text x="530" y="14.0" font-size="14" fill="white" font-family="monospace" dominant-baseline="ideographic">17</text><rect x="456" y="55.5" width="64" height="1" fill="white" fill-opacity="0.2" /><rect x="456" y="110.5" width="64" height="1" fill="white" fill-opacity="0.2" /><rect x="456" y="166.0" width="64" height="1" fill="white" fill-opacity="0.2" /><rect x="456" y="221.0" width="64" height="1" fill="white" fill-opacity="0.5" /><text x="530" y="235.0" font-size="14" fill="white" font-family="monospace" dominant-baseline="ideographic">18</text><rect x="456" y="276.5" width="64" height="1" fill="white" fill-opacity="0.2" /><rect x="456" y="331.5" width="64" height="1" fill="white" fill-opacity="0.2" /><rect x="456" y="386.5" width="64" height="1" fill="white" fill-opacity="0.2" /><rect x="456" y="442.0" width="64" height="1" fill="white" fill-opacity="0.5" /><text x="530" y="456.0" font-size="14" fill="white" font-family="monospace" dominant-baseline="ideographic">19</text><rect x="456" y="497.0" width="64" height="1" fill="white" fill-opacity="0.2" /><rect x="456" y="552.5" width="64" height="1" fill="white" fill-opacity="0.2" /><rect x="456" y="607.5" width="64" height="1" fill="white" fill-opacity="0.2" /><rect x="456" y="663.0" width="64" height="1" fill="white" fill-opacity="0.5" /><text x="530" y="677.0" font-size="14" fill="white" font-family="monospace" dominant-baseline="ideographic">20</text><rect x="456" y="718.0" width="64" height="1" fill="white" fill-opacity="0.2" /><rect x="456" y="773.0" width="64" height="1" fill="white" fill-opacity="0.2" /><rect x="456" y="828.5" width="64" height="1" fill="white" fill-opacity="0.2" /><rect x="456" y="883.5" width="64" height="1" fill="white" fill-opacity="0.5" /><text x="530" y="897.5" font-size="14" fill="white" font-family="monospace" dominant-baseline="ideographic">21</text><rect x="456" y="221.14999999999964" width="64" height="1" fill="aqua" fill-opacity="0.75" /><text x="456" y="235.14999999999964" font-size="14" fill="aqua" fill-opacity="0.75" font-family="monospace">Phrase A</text><rect x="570" y="0" width="64" height="883.5" fill="black" /><rect x="570" y="0.0" width="64" height="1" fill="white" fill-opacity="0.5" /><text x="644" y="14.0" font-size="14" fill="white" font-family="monospace" dominant-baseline="ideographic">21</text><rect x="570" y="55.5" width="64" height="1" fill="white" fill-opacity="0.2" /><rect x="570" y="110.5" width="64" height="1" fill="white" fill-opacity="0.2" /><rect x="570" y="166.0" width="64" height="1" fill="white" fill-opacity="0.2" /><rect x="570" y="221.0" width="64" height="1" fill="white" fill-opacity="0.5" /><text x="644" y="235.0" font-size="14" fill="white" font-family="monospace" dominant-baseline="ideographic">22</text><rect x="570" y="276.0" width="64" height="1" fill="white" fill-opacity="0.2" /><rect x="570" y="331.5" width="64" height="1" fill="white" fill-opacity="0.2" /><rect x="570" y="386.5" width="64" height="1" fill="white" fill-opacity="0.2" /><rect x="570" y="442.0" width="64" height="1" fill="white" fill-opacity="0.5" /><text x="644" y="456.0" font-size="14" fill="white" font-family="monospace" dominant-baseline="ideographic">23</text><rect x="570" y="497.0" width="64" height="1" fill="white" fill-opacity="0.2" /><rect x="570" y="552.5" width="64" height="1" fill="white" fill-opacity="0.2" /><rect x="570" y="607.5" width="64" height="1" fill="white" fill-opacity="0.2" /><rect x="570" y="663.0" width="64" height="1" fill="white" fill-opacity="0.5" /><text x="644" y="677.0" font-size="14" fill="white" font-family="monospace" dominant-baseline="ideographic">24</text><rect x="570" y="718.0" width="64" height="1" fill="white" fill-opacity="0.2" /><rect x="570" y="773.0" width="64" height="1" fill="white" fill-opacity="0.2" /><rect x="570" y="828.5" width="64" height="1" fill="white" fill-opacity="0.2" /><rect x="570" y="883.5" width="64" height="1" fill="white" fill-opacity="0.5" /><text x="644" y="897.5" font-size="14" fill="white" font-family="monospace" dominant-baseline="ideographic">25</text><rect x="684" y="0" width="64" height="883.5" fill="black" /><rect x="684" y="0.0" width="64" height="1" fill="white" fill-opacity="0.5" /><text x="758" y="14.0" font-size="14" fill="white" font-family="monospace" dominant-baseline="ideographic">25</text><rect x="684" y="55.5" width="64" height="1" fill="white" fill-opacity="0.2" /><rect x="684" y="110.5" width="64" height="1" fill="white" fill-opacity="0.2" /><rect x="684" y="166.0" width="64" height="1" fill="white" fill-opacity="0.2" /><rect x="684" y="221.0" width="64" height="1" fill="white" fill-opacity="0.5" /><text x="758" y="235.0" font-size="14" fill="white" font-family="monospace" dominant-baseline="ideographic">26</text><rect x="684" y="276.0" width="64" height="1" fill="white" fill-opacity="0.2" /><rect x="684" y="331.5" width="64" height="1" fill="white" fill-opacity="0.2" /><rect x="684" y="386.5" width="64" height="1" fill="white" fill-opacity="0.2" /><rect x="684" y="442.0" width="64" height="1" fill="white" fill-opacity="0.5" /><text x="758" y="456.0" font-size="14" fill="white" font-family="monospace" dominant-baseline="ideographic">27</text><rect x="684" y="497.0" width="64" height="1" fill="white" fill-opacity="0.2" /><rect x="684" y="552.5" width="64" height="1" fill="white" fill-opacity="0.2" /><rect x="684" y="607.5" width="64" height="1" fill="white" fill-opacity="0.2" /><rect x="684" y="662.5" width="64" height="1" fill="white" fill-opacity="0.5" /><text x="758" y="676.5" font-size="14" fill="white" font-family="monospace" dominant-baseline="ideographic">28</text><rect x="684" y="718.0" width="64" height="1" fill="white" fill-opacity="0.2" /><rect x="684" y="773.0" width="64" height="1" fill="white" fill-opacity="0.2" /><rect x="684" y="828.5" width="64" height="1" fill="white" fill-opacity="0.2" /><rect x="684" y="883.5" width="64" height="1" fill="white" fill-opacity="0.5" /><text x="758" y="897.5" font-size="14" fill="white" font-family="monospace" dominant-baseline="ideographic">29</text><rect x="684" y="221.0" width="64" height="1" fill="aqua" fill-opacity="0.75" /><text x="684" y="235.0" font-size="14" fill="aqua" fill-opacity="0.75" font-family="monospace">Phrase B</text><rect x="798" y="0" width="64" height="883.5" fill="black" /><rect x="798" y="0.0" width="64" height="1" fill="white" fill-opacity="0.5" /><text x="872" y="14.0" font-size="14" fill="white" font-family="monospace" dominant-baseline="ideographic">29</text><rect x="798" y="55.5" width="64" height="1" fill="white" fill-opacity="0.2" /><rect x="798" y="110.5" width="64" height="1" fill="white" fill-opacity="0.2" /><rect x="798" y="165.5" width="64" height="1" fill="white" fill-opacity="0.2" /><rect x="798" y="221.0" width="64" height="1" fill="white" fill-opacity="0.5" /><text x="872" y="235.0" font-size="14" fill="white" font-family="monospace" dominant-baseline="ideographic">30</text><rect x="798" y="276.0" width="64" height="1" fill="white" fill-opacity="0.2" /><rect x="798" y="331.5" width="64" height="1" fill="white" fill-opacity="0.2" /><rect x="798" y="386.5" width="64" height="1" fill="white" fill-opacity="0.2" /><rect x="798" y="442.0" width="64" height="1" fill="white" fill-opacity="0.5" /><text x="872" y="456.0" font-size="14" fill="white" font-family="monospace" dominant-baseline="ideographic">31</text><rect x="798" y="497.0" width="64" height="1" fill="white" fill-opacity="0.2" /><rect x="798" y="552.0" width="64" height="1" fill="white" fill-opacity="0.2" /><rect x="798" y="607.5" width="64" height="1" fill="white" fill-opacity="0.2" /><rect x="798" y="662.5" width="64" height="1" fill="white" fill-opacity="0.5" /><text x="872" y="676.5" font-size="14" fill="white" font-family="monospace" dominant-baseline="ideographic">32</text><rect x="798" y="718.0" width="64" height="1" fill="white" fill-opacity="0.2" /><rect x="798" y="773.0" width="64" height="1" fill="white" fill-opacity="0.2" /><rect x="798" y="828.5" width="64" height="1" fill="white" fill-opacity="0.2" /><rect x="798" y="883.5" width="64" height="1" fill="white" fill-opacity="0.5" /><text x="872" y="897.5" font-size="14" fill="white" font-family="monospace" dominant-baseline="ideographic">33</text><rect x="912" y="0" width="64" height="883.5" fill="black" /><rect x="912" y="0.0" width="64" height="1" fill="white" fill-opacity="0.5" /><text x="986" y="14.0" font-size="14" fill="white" font-family="monospace" dominant-baseline="ideographic">33</text><rect x="912" y="55.0" width="64" height="1" fill="white" fill-opacity="0.2" /><rect x="912" y="110.5" width="64" height="1" fill="white" fill-opacity="0.2" /><rect x="912" y="165.5" width="64" height="1" fill="white" fill-opacity="0.2" /><rect x="912" y="221.0" width="64" height="1" fill="white" fill-opacity="0.5" /><text x="986" y="235.0" font-size="14" fill="white" font-family="monospace" dominant-baseline="ideographic">34</text><rect x="912" y="276.0" width="64" height="1" fill="white" fill-opacity="0.2" /><rect x="912" y="331.5" width="64" height="1" fill="white" fill-opacity="0.2" /><rect x="912" y="386.5" width="64" height="1" fill="white" fill-opacity="0.2" /><rect x="912" y="441.5" width="64" height="1" fill="white" fill-opacity="0.5" /><text x="986" y="455.5" font-size="14" fill="white" font-family="monospace" dominant-baseline="ideographic">35</text><rect x="912" y="497.0" width="64" height="1" fill="white" fill-opacity="0.2" /><rect x="912" y="552.0" width="64" height="1" fill="white" fill-opacity="0.2" /><rect x="912" y="607.5" width="64" height="1" fill="white" fill-opacity="0.2" /><rect x="912" y="662.5" width="64" height="1" fill="white" fill-opacity="0.5" /><text x="986" y="676.5" font-size="14" fill="white" font-family="monospace" dominant-baseline="ideographic">36</text><rect x="912" y="718.0" width="64" height="1" fill="white" fill-opacity="0.2" /><rect x="912" y="773.0" width="64" height="1" fill="white" fill-opacity="0.2" /><rect x="912" y="828.0" width="64" height="1" fill="white" fill-opacity="0.2" /><rect x="912" y="883.5" width="64" height="1" fill="white" fill-opacity="0.5" /><text x="986" y="897.5" font-size="14" fill="white" font-family="monospace" dominant-baseline="ideographic">37</text><rect x="912" y="220.84999999999945" width="64" height="1" fill="aqua" fill-opacity="0.75" /><text x="912" y="234.84999999999945" font-size="14" fill="aqua" fill-opacity="0.75" font-family="monospace">Phrase C</text><rect x="1026" y="0" width="64" height="883.5" fill="black" /><rect x="1026" y="0.0" width="64" height="1" fill="white" fill-opacity="0.5" /><text x="1100" y="14.0" font-size="14" fill="white" font-family="monospace" dominant-baseline="ideographic">37</text><rect x="1026" y="55.0" width="64" height="1" fill="white" fill-opacity="0.2" /><rect x="1026" y="110.5" width="64" height="1" fill="white" fill-opacity="0.2" /><rect x="1026" y="165.5" width="64" height="1" fill="white" fill-opacity="0.2" /><rect x="1026" y="221.0" width="64" height="1" fill="white" fill-opacity="0.5" /><text x="1100" y="235.0" font-size="14" fill="white" font-family="monospace" dominant-baseline="ideographic">38</text><rect x="1026" y="276.0" width="64" height="1" fill="white" fill-opacity="0.2" /><rect x="1026" y="331.0" width="64" height="1" fill="white" fill-opacity="0.2" /><rect x="1026" y="386.5" width="64" height="1" fill="white" fill-opacity="0.2" /><rect x="1026" y="441.5" width="64" height="1" fill="white" fill-opacity="0.5" /><text x="1100" y="455.5" font-size="14" fill="white" font-family="monospace" dominant-baseline="ideographic">39</text><rect x="1026" y="497.0" width="64" height="1" fill="white" fill-opacity="0.2" /><rect x="1026" y="552.0" width="64" height="1" fill="white" fill-opacity="0.2" /><rect x="1026" y="607.5" width="64" height="1" fill="white" fill-opacity="0.2" /><rect x="1026" y="662.5" width="64" height="1" fill="white" fill-opacity="0.5" /><text x="1100" y="676.5" font-size="14" fill="white" font-family="monospace" dominant-baseline="ideographic">40</text><rect x="1026" y="717.5" width="64" height="1" fill="white" fill-opacity="0.2" /><rect x="1026" y="773.0" width="64" height="1" fill="white" fill-opacity="0.2" /><rect x="1026" y="828.0" width="64" height="1" fill="white" fill-opacity="0.2" /><rect x="1026" y="883.5" width="64" height="1" fill="white" fill-opacity="0.5" /><text x="1100" y="897.5" font-size="14" fill="white" font-family="monospace" dominant-baseline="ideographic">41</text><rect x="1140" y="0" width="64" height="883.5" fill="black" /><rect x="1140" y="0.0" width="64" height="1" fill="white" fill-opacity="0.5" /><text x="1214" y="14.0" font-size="14" fill="white" font-family="monospace" dominant-baseline="ideographic">41</text><rect x="1140" y="55.0" width="64" height="1" fill="white" fill-opacity="0.2" /><rect x="1140" y="110.5" width="64" height="1" fill="white" fill-opacity="0.2" /><rect x="1140" y="165.5" width="64" height="1" fill="white" fill-opacity="0.2" /><rect x="1140" y="220.5" width="64" height="1" fill="white" fill-opacity="0.5" /><text x="1214" y="234.5" font-size="14" fill="white" font-family="monospace" dominant-baseline="ideographic">42</text><rect x="1140" y="276.0" width="64" height="1" fill="white" fill-opacity="0.2" /><rect x="1140" y="331.0" width="64" height="1" fill="white" fill-opacity="0.2" /><rect x="1140" y="386.5" width="64" height="1" fill="white" fill-opacity="0.2" /><rect x="1140" y="441.5" width="64" height="1" fill="white" fill-opacity="0.5" /><text x="1214" y="455.5" font-size="14" fill="white" font-family="monospace" dominant-baseline="ideographic">43</text><rect x="1140" y="497.0" width="64" height="1" fill="white" fill-opacity="0.2" /><rect x="1140" y="552.0" width="64" height="1" fill="white" fill-opacity="0.2" /><rect x="1140" y="607.0" width="64" height="1" fill="white" fill-opacity="0.2" /><rect x="1140" y="662.5" width="64" height="1" fill="white" fill-opacity="0.5" /><text x="1214" y="676.5" font-size="14" fill="white" font-family="monospace" dominant-baseline="ideographic">44</text><rect x="1140" y="717.5" width="64" height="1" fill="white" fill-opacity="0.2" /><rect x="1140" y="773.0" width="64" height="1" fill="white" fill-opacity="0.2" /><rect x="1140" y="828.0" width="64" height="1" fill="white" fill-opacity="0.2" /><rect x="1140" y="883.5" width="64" height="1" fill="white" fill-opacity="0.5" /><text x="1214" y="897.5" font-size="14" fill="white" font-family="monospace" dominant-baseline="ideographic">45</text><rect x="1140" y="220.6999999999989" width="64" height="1" fill="aqua" fill-opacity="0.75" /><text x="1140" y="234.6999999999989" font-size="14" fill="aqua" fill-opacity="0.75" font-family="monospace">Phrase D</text><rect x="1254" y="0" width="64" height="883.0" fill="black" /><rect x="1254" y="0.0" width="64" height="1" fill="white" fill-opacity="0.5" /><text x="1328" y="14.0" font-size="14" fill="white" font-family="monospace" dominant-baseline="ideographic">45</text><rect x="1254" y="55.0" width="64" height="1" fill="white" fill-opacity="0.2" /><rect x="1254" y="110.0" width="64" height="1" fill="white" fill-opacity="0.2" /><rect x="1254" y="165.5" width="64" height="1" fill="white" fill-opacity="0.2" /><rect x="1254" y="220.5" width="64" height="1" fill="white" fill-opacity="0.5" /><text x="1328" y="234.5" font-size="14" fill="white" font-family="monospace" dominant-baseline="ideographic">46</text><rect x="1254" y="276.0" width="64" height="1" fill="white" fill-opacity="0.2" /><rect x="1254" y="331.0" width="64" height="1" fill="white" fill-opacity="0.2" /><rect x="1254" y="386.5" width="64" height="1" fill="white" fill-opacity="0.2" /><rect x="1254" y="441.5" width="64" height="1" fill="white" fill-opacity="0.5" /><text x="1328" y="455.5" font-size="14" fill="white" font-family="monospace" dominant-baseline="ideographic">47</text><rect x="1254" y="496.5" width="64" height="1" fill="white" fill-opacity="0.2" /><rect x="1254" y="552.0" width="64" height="1" fill="white" fill-opacity="0.2" /><rect x="1254" y="607.0" width="64" height="1" fill="white" fill-opacity="0.2" /><rect x="1254" y="662.5" width="64" height="1" fill="white" fill-opacity="0.5" /><text x="1328" y="676.5" font-size="14" fill="white" font-family="monospace" dominant-baseline="ideographic">48</text><rect x="1254" y="717.5" width="64" height="1" fill="white" fill-opacity="0.2" /><rect x="1254" y="773.0" width="64" height="1" fill="white" fill-opacity="0.2" /><rect x="1254" y="828.0" width="64" height="1" fill="white" fill-opacity="0.2" /><rect x="1254" y="883.0" width="64" height="1" fill="white" fill-opacity="0.5" /><text x="1328" y="897.0" font-size="14" fill="white" font-family="monospace" dominant-baseline="ideographic">49</text><rect x="1368" y="0" width="64" height="883.5" fill="black" /><rect x="1368" y="0.0" width="64" height="1" fill="white" fill-opacity="0.5" /><text x="1442" y="14.0" font-size="14" fill="white" font-family="monospace" dominant-baseline="ideographic">49</text><rect x="1368" y="55.5" width="64" height="1" fill="white" fill-opacity="0.2" /><rect x="1368" y="110.5" width="64" height="1" fill="white" fill-opacity="0.2" /><rect x="1368" y="166.0" width="64" height="1" fill="white" fill-opacity="0.2" /><rect x="1368" y="221.0" width="64" height="1" fill="white" fill-opacity="0.5" /><text x="1442" y="235.0" font-size="14" fill="white" font-family="monospace" dominant-baseline="ideographic">50</text><rect x="1368" y="276.5" width="64" height="1" fill="white" fill-opacity="0.2" /><rect x="1368" y="331.5" width="64" height="1" fill="white" fill-opacity="0.2" /><rect x="1368" y="386.5" width="64" height="1" fill="white" fill-opacity="0.2" /><rect x="1368" y="442.0" width="64" height="1" fill="white" fill-opacity="0.5" /><text x="1442" y="456.0" font-size="14" fill="white" font-family="monospace" dominant-baseline="ideographic">51</text><rect x="1368" y="497.0" width="64" height="1" fill="white" fill-opacity="0.2" /><rect x="1368" y="552.5" width="64" height="1" fill="white" fill-opacity="0.2" /><rect x="1368" y="607.5" width="64" height="1" fill="white" fill-opacity="0.2" /><rect x="1368" y="663.0" width="64" height="1" fill="white" fill-opacity="0.5" /><text x="1442" y="677.0" font-size="14" fill="white" font-family="monospace" dominant-baseline="ideographic">52</text><rect x="1368" y="718.0" width="64" height="1" fill="white" fill-opacity="0.2" /><rect x="1368" y="773.0" width="64" height="1" fill="white" fill-opacity="0.2" /><rect x="1368" y="828.5" width="64" height="1" fill="white" fill-opacity="0.2" /><rect x="1368" y="883.5" width="64" height="1" fill="white" fill-opacity="0.5" /><text x="1442" y="897.5" font-size="14" fill="white" font-family="monospace" dominant-baseline="ideographic">53</text><rect x="1368" y="221.04999999999927" width="64" height="1" fill="aqua" fill-opacity="0.75" /><text x="1368" y="235.04999999999927" font-size="14" fill="aqua" fill-opacity="0.75" font-family="monospace">Special</text><rect x="1482" y="0" width="64" height="883.5" fill="black" /><rect x="1482" y="0.0" width="64" height="1" fill="white" fill-opacity="0.5" /><text x="1556" y="14.0" font-size="14" fill="white" font-family="monospace" dominant-baseline="ideographic">53</text><rect x="1482" y="55.5" width="64" height="1" fill="white" fill-opacity="0.2" /><rect x="1482" y="110.5" width="64" height="1" fill="white" fill-opacity="0.2" /><rect x="1482" y="166.0" width="64" height="1" fill="white" fill-opacity="0.2" /><rect x="1482" y="221.0" width="64" height="1" fill="white" fill-opacity="0.5" /><text x="1556" y="235.0" font-size="14" fill="white" font-family="monospace" dominant-baseline="ideographic">54</text><rect x="1482" y="276.0" width="64" height="1" fill="white" fill-opacity="0.2" /><rect x="1482" y="331.5" width="64" height="1" fill="white" fill-opacity="0.2" /><rect x="1482" y="386.5" width="64" height="1" fill="white" fill-opacity="0.2" /><rect x="1482" y="442.0" width="64" height="1" fill="white" fill-opacity="0.5" /><text x="1556" y="456.0" font-size="14" fill="white" font-family="monospace" dominant-baseline="ideographic">55</text><rect x="1482" y="497.0" width="64" height="1" fill="white" fill-opacity="0.2" /><rect x="1482" y="552.5" width="64" height="1" fill="white" fill-opacity="0.2" /><rect x="1482" y="607.5" width="64" height="1" fill="white" fill-opacity="0.2" /><rect x="1482" y="662.5" width="64" height="1" fill="white" fill-opacity="0.5" /><text x="1556" y="676.5" font-size="14" fill="white" font-family="monospace" dominant-baseline="ideographic">56</text><rect x="1482" y="718.0" width="64" height="1" fill="white" fill-opacity="0.2" /><rect x="1482" y="773.0" width="64" height="1" fill="white" fill-opacity="0.2" /><rect x="1482" y="828.5" width="64" height="1" fill="white" fill-opacity="0.2" /><rect x="1482" y="883.5" width="64" height="1" fill="white" fill-opacity="0.5" /><text x="1556" y="897.5" font-size="14" fill="white" font-family="monospace" dominant-baseline="ideographic">57</text><rect x="1596" y="0" width="64" height="883.5" fill="black" /><rect x="1596" y="0.0" width="64" height="1" fill="white" fill-opacity="0.5" /><text x="1670" y="14.0" font-size="14" fill="white" font-family="monospace" dominant-baseline="ideographic">57</text><rect x="1596" y="55.5" width="64" height="1" fill="white" fill-opacity="0.2" /><rect x="1596" y="110.5" width="64" height="1" fill="white" fill-opacity="0.2" /><rect x="1596" y="165.5" width="64" height="1" fill="white" fill-opacity="0.2" /><rect x="1596" y="221.0" width="64" height="1" fill="white" fill-opacity="0.5" /><text x="1670" y="235.0" font-size="14" fill="white" font-family="monospace" dominant-baseline="ideographic">58</text><rect x="1596" y="276.0" width="64" height="1" fill="white" fill-opacity="0.2" /><rect x="1596" y="331.5" width="64" height="1" fill="white" fill-opacity="0.2" /><rect x="1596" y="386.5" width="64" height="1" fill="white" fill-opacity="0.2" /><rect x="1596" y="442.0" width="64" height="1" fill="white" fill-opacity="0.5" /><text x="1670" y="456.0" font-size="14" fill="white" font-family="monospace" dominant-baseline="ideographic">59</text><rect x="1596" y="497.0" width="64" height="1" fill="white" fill-opacity="0.2" /><rect x="1596" y="552.0" width="64" height="1" fill="white" fill-opacity="0.2" /><rect x="1596" y="607.5" width="64" height="1" fill="white" fill-opacity="0.2" /><rect x="1596" y="662.5" width="64" height="1" fill="white" fill-opacity="0.5" /><text x="1670" y="676.5" font-size="14" fill="white" font-family="monospace" dominant-baseline="ideographic">60</text><rect x="1596" y="718.0" width="64" height="1" fill="white" fill-opacity="0.2" /><rect x="1596" y="773.0" width="64" height="1" fill="white" fill-opacity="0.2" /><rect x="1596" y="828.5" width="64" height="1" fill="white" fill-opacity="0.2" /><rect x="1596" y="883.5" width="64" height="1" fill="white" fill-opacity="0.5" /><text x="1670" y="897.5" font-size="14" fill="white" font-family="monospace" dominant-baseline="ideographic">61</text><rect x="1596" y="220.89999999999964" width="64" height="1" fill="aqua" fill-opacity="0.75" /><text x="1596" y="234.89999999999964" font-size="14" fill="aqua" fill-opacity="0.75" font-family="monospace">Special</text><rect x="1710" y="0" width="64" height="3013.5" fill="black" /><rect x="1710" y="0.0" width="64" height="1" fill="white" fill-opacity="0.5" /><text x="1784" y="14.0" font-size="14" fill="white" font-family="monospace" dominant-baseline="ideographic">61</text><rect x="1710" y="55.0" width="64" height="1" fill="white" fill-opacity="0.2" /><rect x="1710" y="110.5" width="64" height="1" fill="white" fill-opacity="0.2" /><rect x="1710" y="165.5" width="64" height="1" fill="white" fill-opacity="0.2" /><rect x="1710" y="221.0" width="64" height="1" fill="white" fill-opacity="0.5" /><text x="1784" y="235.0" font-size="14" fill="white" font-family="monospace" dominant-baseline="ideographic">62</text><rect x="1710" y="276.0" width="64" height="1" fill="white" fill-opacity="0.2" /><rect x="1710" y="331.5" width="64" height="1" fill="white" fill-opacity="0.2" /><rect x="1710" y="386.5" width="64" height="1" fill="white" fill-opacity="0.2" /><rect x="1710" y="441.5" width="64" height="1" fill="white" fill-opacity="0.5" /><text x="1784" y="455.5" font-size="14" fill="white" font-family="monospace" dominant-baseline="ideographic">63</text><rect x="1710" y="497.0" width="64" height="1" fill="white" fill-opacity="0.2" /><rect x="1710" y="552.0" width="64" height="1" fill="white" fill-opacity="0.2" /><rect x="1710" y="607.5" width="64" height="1" fill="white" fill-opacity="0.2" /><rect x="1710" y="663.5" width="64" height="1" fill="white" fill-opacity="0.5" /><text x="1784" y="677.5" font-size="14" fill="white" font-family="monospace" dominant-baseline="ideographic">64</text><rect x="1710" y="945.8499999999985" width="64" height="1" fill="aqua" fill-opacity="0.75" /><text x="1710" y="959.8499999999985" font-size="14" fill="aqua" fill-opacity="0.75" font-family="monospace">Outro</text><rect x="1710" y="455.5" width="64" height="1" fill="lime" fill-opacity="0.75" /><text x="1784" y="469.5" font-size="14" fill="lime" font-family="monospace" dominant-baseline="ideographic">163.0</text><rect x="1710" y="469.5" width="64" height="1" fill="lime" fill-opacity="0.75" /><text x="1784" y="483.5" font-size="14" fill="lime" font-family="monospace" dominant-baseline="ideographic">163.0</text><rect x="1710" y="483.0" width="64" height="1" fill="lime" fill-opacity="0.75" /><text x="1784" y="497.0" font-size="14" fill="lime" font-family="monospace" dominant-baseline="ideographic">163.0</text><rect x="1710" y="497.0" width="64" height="1" fill="lime" fill-opacity="0.75" /><text x="1784" y="511.0" font-size="14" fill="lime" font-family="monospace" dominant-baseline="ideographic">163.0</text><rect x="1710" y="511.0" width="64" height="1" fill="lime" fill-opacity="0.75" /><text x="1784" y="525.0" font-size="14" fill="lime" font-family="monospace" dominant-baseline="ideographic">162.9</text><rect x="1710" y="524.5" width="64" height="1" fill="lime" fill-opacity="0.75" /><text x="1784" y="538.5" font-size="14" fill="lime" font-family="monospace" dominant-baseline="ideographic">162.9</text><rect x="1710" y="538.5" width="64" height="1" fill="lime" fill-opacity="0.75" /><text x="1784" y="552.5" font-size="14" fill="lime" font-family="monospace" dominant-baseline="ideographic">162.8</text><rect x="1710" y="552.0" width="64" height="1" fill="lime" fill-opacity="0.75" /><text x="1784" y="566.0" font-size="14" fill="lime" font-family="monospace" dominant-baseline="ideographic">162.7</text><rect x="1710" y="566.0" width="64" height="1" fill="lime" fill-opacity="0.75" /><text x="1784" y="580.0" font-size="14" fill="lime" font-family="monospace" dominant-baseline="ideographic">162.6</text><rect x="1710" y="580.0" width="64" height="1" fill="lime" fill-opacity="0.75" /><text x="1784" y="594.0" font-size="14" fill="lime" font-family="monospace" dominant-baseline="ideographic">162.4</text><rect x="1710" y="593.5" width="64" height="1" fill="lime" fill-opacity="0.75" /><text x="1784" y="607.5" font-size="14" fill="lime" font-family="monospace" dominant-baseline="ideographic">162.1</text><rect x="1710" y="607.5" width="64" height="1" fill="lime" fill-opacity="0.75" /><text x="1784" y="621.5" font-size="14" fill="lime" font-family="monospace" dominant-baseline="ideographic">161.8</text><rect x="1710" y="621.5" width="64" height="1" fill="lime" fill-opacity="0.75" /><text x="1784" y="635.5" font-size="14" fill="lime" font-family="monospace" dominant-baseline="ideographic">161.4</text><rect x="1710" y="635.5" width="64" height="1" fill="lime" fill-opacity="0.75" /><text x="1784" y="649.5" font-size="14" fill="lime" font-family="monospace" dominant-baseline="ideographic">160.8</text><rect x="1710" y="649.5" width="64" height="1" fill="lime" fill-opacity="0.75" /><text x="1784" y="663.5" font-size="14" fill="lime" font-family="monospace" dominant-baseline="ideographic">160.1</text><rect x="1710" y="663.5" width="64" height="1" fill="lime" fill-opacity="0.75" /><text x="1784" y="691.5" font-size="14" fill="lime" font-family="monospace" dominant-baseline="ideographic">159.2</text><rect x="1710" y="677.5" width="64" height="1" fill="lime" fill-opacity="0.75" /><text x="1784" y="691.5" font-size="14" fill="lime" font-family="monospace" dominant-baseline="ideographic">158.0</text><rect x="1710" y="692.0" width="64" height="1" fill="lime" fill-opacity="0.75" /><text x="1784" y="706.0" font-size="14" fill="lime" font-family="monospace" dominant-baseline="ideographic">156.4</text><rect x="1710" y="706.5" width="64" height="1" fill="lime" fill-opacity="0.75" /><text x="1784" y="720.5" font-size="14" fill="lime" font-family="monospace" dominant-baseline="ideographic">154.4</text><rect x="1710" y="721.0" width="64" height="1" fill="lime" fill-opacity="0.75" /><text x="1784" y="735.0" font-size="14" fill="lime" font-family="monospace" dominant-baseline="ideographic">151.8</text><rect x="1710" y="735.5" width="64" height="1" fill="lime" fill-opacity="0.75" /><text x="1784" y="749.5" font-size="14" fill="lime" font-family="monospace" dominant-baseline="ideographic">148.5</text><rect x="1710" y="751.0" width="64" height="1" fill="lime" fill-opacity="0.75" /><text x="1784" y="765.0" font-size="14" fill="lime" font-family="monospace" dominant-baseline="ideographic">144.4</text><rect x="1710" y="766.5" width="64" height="1" fill="lime" fill-opacity="0.75" /><text x="1784" y="780.5" font-size="14" fill="lime" font-family="monospace" dominant-baseline="ideographic">139.5</text><rect x="1710" y="782.5" width="64" height="1" fill="lime" fill-opacity="0.75" /><text x="1784" y="796.5" font-size="14" fill="lime" font-family="monospace" dominant-baseline="ideographic">133.7</text><rect x="1710" y="799.5" width="64" height="1" fill="lime" fill-opacity="0.75" /><text x="1784" y="813.5" font-size="14" fill="lime" font-family="monospace" dominant-baseline="ideographic">127.2</text><rect x="1710" y="817.0" width="64" height="1" fill="lime" fill-opacity="0.75" /><text x="1784" y="831.0" font-size="14" fill="lime" font-family="monospace" dominant-baseline="ideographic">120.3</text><rect x="1710" y="835.5" width="64" height="1" fill="lime" fill-opacity="0.75" /><text x="1784" y="849.5" font-size="14" fill="lime" font-family="monospace" dominant-baseline="ideographic">113</text><rect x="1710" y="855.5" width="64" height="1" fill="lime" fill-opacity="0.75" /><text x="1784" y="869.5" font-size="14" fill="lime" font-family="monospace" dominant-baseline="ideographic">105.5</text><rect x="1710" y="877.0" width="64" height="1" fill="lime" fill-opacity="0.75" /><text x="1784" y="891.0" font-size="14" fill="lime" font-family="monospace" dominant-baseline="ideographic">98</text><rect x="1710" y="969.0" width="64" height="1" fill="lime" fill-opacity="0.75" /><text x="1784" y="983.0" font-size="14" fill="lime" font-family="monospace" dominant-baseline="ideographic">163</text></svg>