<?xml version="1.0" encoding="UTF-8"?><svg xmlns="http://www.w3.org/2000/svg" xmlns:xlink="http://www.w3.org/1999/xlink"     width="2166" height="780.0" viewBox="0 0 2166 780.0"><defs></defs><rect x="0" y="0" width="64" height="766.0" fill="black" /><rect x="0" y="0.0" width="64" height="1" fill="white" fill-opacity="0.5" /><text x="74" y="14.0" font-size="14" fill="white" font-family="monospace" dominant-baseline="ideographic">1</text><rect x="0" y="48.0" width="64" height="1" fill="white" fill-opacity="0.2" /><rect x="0" y="95.5" width="64" height="1" fill="white" fill-opacity="0.2" /><rect x="0" y="143.5" width="64" height="1" fill="white" fill-opacity="0.2" /><rect x="0" y="191.5" width="64" height="1" fill="white" fill-opacity="0.5" /><text x="74" y="205.5" font-size="14" fill="white" font-family="monospace" dominant-baseline="ideographic">2</text><rect x="0" y="239.5" width="64" height="1" fill="white" fill-opacity="0.2" /><rect x="0" y="287.0" width="64" height="1" fill="white" fill-opacity="0.2" /><rect x="0" y="335.0" width="64" height="1" fill="white" fill-opacity="0.2" /><rect x="0" y="383.0" width="64" height="1" fill="white" fill-opacity="0.5" /><text x="74" y="397.0" font-size="14" fill="white" font-family="monospace" dominant-baseline="ideographic">3</text><rect x="0" y="431.0" width="64" height="1" fill="white" fill-opacity="0.2" /><rect x="0" y="478.5" width="64" height="1" fill="white" fill-opacity="0.2" /><rect x="0" y="526.5" width="64" height="1" fill="white" fill-opacity="0.2" /><rect x="0" y="574.5" width="64" height="1" fill="white" fill-opacity="0.5" /><text x="74" y="588.5" font-size="14" fill="white" font-family="monospace" dominant-baseline="ideographic">4</text><rect x="0" y="622.5" width="64" height="1" fill="white" fill-opacity="0.2" /><rect x="0" y="670.0" width="64" height="1" fill="white" fill-opacity="0.2" /><rect x="0" y="718.0" width="64" height="1" fill="white" fill-opacity="0.2" /><rect x="0" y="766.0" width="64" height="1" fill="white" fill-opacity="0.5" /><text x="74" y="780.0" font-size="14" fill="white" font-family="monospace" dominant-baseline="ideographic">5</text><rect x="0" y="0.0" width="64" height="1" fill="aqua" fill-opacity="0.75" /><text x="0" y="14.0" font-size="14" fill="aqua" fill-opacity="0.75" font-family="monospace">Intro</text><rect x="0" y="0.0" width="64" height="1" fill="lime" fill-opacity="0.75" /><text x="74" y="28.0" font-size="14" fill="lime" font-family="monospace" dominant-baseline="ideographic">188</text><rect x="114" y="0" width="64" height="766.0" fill="black" /><rect x="114" y="0.0" width="64" height="1" fill="white" fill-opacity="0.5" /><text x="188" y="14.0" font-size="14" fill="white" font-family="monospace" dominant-baseline="ideographic">5</text><rect x="114" y="48.0" width="64" height="1" fill="white" fill-opacity="0.2" /><rect x="114" y="95.5" width="64" height="1" fill="white" fill-opacity="0.2" /><rect x="114" y="143.5" width="64" height="1" fill="white" fill-opacity="0.2" /><rect x="114" y="191.5" width="64" height="1" fill="white" fill-opacity="0.5" /><text x="188" y="205.5" font-size="14" fill="white" font-family="monospace" dominant-baseline="ideographic">6</text><rect x="114" y="239.5" width="64" height="1" fill="white" fill-opacity="0.2" /><rect x="114" y="287.0" width="64" height="1" fill="white" fill-opacity="0.2" /><rect x="114" y="335.0" width="64" height="1" fill="white" fill-opacity="0.2" /><rect x="114" y="383.0" width="64" height="1" fill="white" fill-opacity="0.5" /><text x="188" y="397.0" font-size="14" fill="white" font-family="monospace" dominant-baseline="ideographic">7</text><rect x="114" y="431.0" width="64" height="1" fill="white" fill-opacity="0.2" /><rect x="114" y="478.5" width="64" height="1" fill="white" fill-opacity="0.2" /><rect x="114" y="526.5" width="64" height="1" fill="white" fill-opacity="0.2" /><rect x="114" y="574.5" width="64" height="1" fill="white" fill-opacity="0.5" /><text x="188" y="588.5" font-size="14" fill="white" font-family="monospace" dominant-baseline="ideographic">8</text><rect x="114" y="622.5" width="64" height="1" fill="white" fill-opacity="0.2" /><rect x="114" y="670.0" width="64" height="1" fill="white" fill-opacity="0.2" /><rect x="114" y="718.0" width="64" height="1" fill="white" fill-opacity="0.2" /><rect x="114" y="766.0" width="64" height="1" fill="white" fill-opacity="0.5" /><text x="188" y="780.0" font-size="14" fill="white" font-family="monospace" dominant-baseline="ideographic">9</text><rect x="228" y="0" width="64" height="766.0" fill="black" /><rect x="228" y="0.0" width="64" height="1" fill="white" fill-opacity="0.5" /><text x="302" y="14.0" font-size="14" fill="white" font-family="monospace" dominant-baseline="ideographic">9</text><rect x="228" y="48.0" width="64" height="1" fill="white" fill-opacity="0.2" /><rect x="228" y="95.5" width="64" height="1" fill="white" fill-opacity="0.2" /><rect x="228" y="143.5" width="64" height="1" fill="white" fill-opacity="0.2" /><rect x="228" y="191.5" width="64" height="1" fill="white" fill-opacity="0.5" /><text x="302" y="205.5" font-size="14" fill="white" font-family="monospace" dominant-baseline="ideographic">10</text><rect x="228" y="239.5" width="64" height="1" fill="white" fill-opacity="0.2" /><rect x="228" y="287.0" width="64" height="1" fill="white" fill-opacity="0.2" /><rect x="228" y="335.0" width="64" height="1" fill="white" fill-opacity="0.2" /><rect x="228" y="383.0" width="64" height="1" fill="white" fill-opacity="0.5" /><text x="302" y="397.0" font-size="14" fill="white" font-family="monospace" dominant-baseline="ideographic">11</text><rect x="228" y="431.0" width="64" height="1" fill="white" fill-opacity="0.2" /><rect x="228" y="478.5" width="64" height="1" fill="white" fill-opacity="0.2" /><rect x="228" y="526.5" width="64" height="1" fill="white" fill-opacity="0.2" /><rect x="228" y="574.5" width="64" height="1" fill="white" fill-opacity="0.5" /><text x="302" y="588.5" font-size="14" fill="white" font-family="monospace" dominant-baseline="ideographic">12</text><rect x="228" y="622.0" width="64" height="1" fill="white" fill-opacity="0.2" /><rect x="228" y="670.0" width="64" height="1" fill="white" fill-opacity="0.2" /><rect x="228" y="718.0" width="64" height="1" fill="white" fill-opacity="0.2" /><rect x="228" y="766.0" width="64" height="1" fill="white" fill-opacity="0.5" /><text x="302" y="780.0" font-size="14" fill="white" font-family="monospace" dominant-baseline="ideographic">13</text><rect x="342" y="0" width="64" height="766.0" fill="black" /><rect x="342" y="0.0" width="64" height="1" fill="white" fill-opacity="0.5" /><text x="416" y="14.0" font-size="14" fill="white" font-family="monospace" dominant-baseline="ideographic">13</text><rect x="342" y="47.5" width="64" height="1" fill="white" fill-opacity="0.2" /><rect x="342" y="95.5" width="64" height="1" fill="white" fill-opacity="0.2" /><rect x="342" y="143.5" width="64" height="1" fill="white" fill-opacity="0.2" /><rect x="342" y="191.5" width="64" height="1" fill="white" fill-opacity="0.5" /><text x="416" y="205.5" font-size="14" fill="white" font-family="monospace" dominant-baseline="ideographic">14</text><rect x="342" y="239.0" width="64" height="1" fill="white" fill-opacity="0.2" /><rect x="342" y="287.0" width="64" height="1" fill="white" fill-opacity="0.2" /><rect x="342" y="335.0" width="64" height="1" fill="white" fill-opacity="0.2" /><rect x="342" y="383.0" width="64" height="1" fill="white" fill-opacity="0.5" /><text x="416" y="397.0" font-size="14" fill="white" font-family="monospace" dominant-baseline="ideographic">15</text><rect x="342" y="430.5" width="64" height="1" fill="white" fill-opacity="0.2" /><rect x="342" y="478.5" width="64" height="1" fill="white" fill-opacity="0.2" /><rect x="342" y="526.5" width="64" height="1" fill="white" fill-opacity="0.2" /><rect x="342" y="574.5" width="64" height="1" fill="white" fill-opacity="0.5" /><text x="416" y="588.5" font-size="14" fill="white" font-family="monospace" dominant-baseline="ideographic">16</text><rect x="342" y="622.0" width="64" height="1" fill="white" fill-opacity="0.2" /><rect x="342" y="670.0" width="64" height="1" fill="white" fill-opacity="0.2" /><rect x="342" y="718.0" width="64" height="1" fill="white" fill-opacity="0.2" /><rect x="342" y="766.0" width="64" height="1" fill="white" fill-opacity="0.5" /><text x="416" y="780.0" font-size="14" fill="white" font-family="monospace" dominant-baseline="ideographic">17</text><rect x="342" y="382.7999999999997" width="64" height="1" fill="aqua" fill-opacity="0.75" /><text x="342" y="396.7999999999997" font-size="14" fill="aqua" fill-opacity="0.75" font-family="monospace">Phrase A</text><rect x="456" y="0" width="64" height="766.0" fill="black" /><rect x="456" y="0.0" width="64" height="1" fill="white" fill-opacity="0.5" /><text x="530" y="14.0" font-size="14" fill="white" font-family="monospace" dominant-baseline="ideographic">17</text><rect x="456" y="47.5" width="64" height="1" fill="white" fill-opacity="0.2" /><rect x="456" y="95.5" width="64" height="1" fill="white" fill-opacity="0.2" /><rect x="456" y="143.5" width="64" height="1" fill="white" fill-opacity="0.2" /><rect x="456" y="191.5" width="64" height="1" fill="white" fill-opacity="0.5" /><text x="530" y="205.5" font-size="14" fill="white" font-family="monospace" dominant-baseline="ideographic">18</text><rect x="456" y="239.0" width="64" height="1" fill="white" fill-opacity="0.2" /><rect x="456" y="287.0" width="64" height="1" fill="white" fill-opacity="0.2" /><rect x="456" y="335.0" width="64" height="1" fill="white" fill-opacity="0.2" /><rect x="456" y="383.0" width="64" height="1" fill="white" fill-opacity="0.5" /><text x="530" y="397.0" font-size="14" fill="white" font-family="monospace" dominant-baseline="ideographic">19</text><rect x="456" y="430.5" width="64" height="1" fill="white" fill-opacity="0.2" /><rect x="456" y="478.5" width="64" height="1" fill="white" fill-opacity="0.2" /><rect x="456" y="526.5" width="64" height="1" fill="white" fill-opacity="0.2" /><rect x="456" y="574.5" width="64" height="1" fill="white" fill-opacity="0.5" /><text x="530" y="588.5" font-size="14" fill="white" font-family="monospace" dominant-baseline="ideographic">20</text><rect x="456" y="622.0" width="64" height="1" fill="white" fill-opacity="0.2" /><rect x="456" y="670.0" width="64" height="1" fill="white" fill-opacity="0.2" /><rect x="456" y="718.0" width="64" height="1" fill="white" fill-opacity="0.2" /><rect x="456" y="766.0" width="64" height="1" fill="white" fill-opacity="0.5" /><text x="530" y="780.0" font-size="14" fill="white" font-family="monospace" dominant-baseline="ideographic">21</text><rect x="570" y="0" width="64" height="765.5" fill="black" /><rect x="570" y="0.0" width="64" height="1" fill="white" fill-opacity="0.5" /><text x="644" y="14.0" font-size="14" fill="white" font-family="monospace" dominant-baseline="ideographic">21</text><rect x="570" y="47.5" width="64" height="1" fill="white" fill-opacity="0.2" /><rect x="570" y="95.5" width="64" height="1" fill="white" fill-opacity="0.2" /><rect x="570" y="143.5" width="64" height="1" fill="white" fill-opacity="0.2" /><rect x="570" y="191.5" width="64" height="1" fill="white" fill-opacity="0.5" /><text x="644" y="205.5" font-size="14" fill="white" font-family="monospace" dominant-baseline="ideographic">22</text><rect x="570" y="239.0" width="64" height="1" fill="white" fill-opacity="0.2" /><rect x="570" y="287.0" width="64" height="1" fill="white" fill-opacity="0.2" /><rect x="570" y="335.0" width="64" height="1" fill="white" fill-opacity="0.2" /><rect x="570" y="383.0" width="64" height="1" fill="white" fill-opacity="0.5" /><text x="644" y="397.0" font-size="14" fill="white" font-family="monospace" dominant-baseline="ideographic">23</text><rect x="570" y="430.5" width="64" height="1" fill="white" fill-opacity="0.2" /><rect x="570" y="478.5" width="64" height="1" fill="white" fill-opacity="0.2" /><rect x="570" y="526.5" width="64" height="1" fill="white" fill-opacity="0.2" /><rect x="570" y="574.0" width="64" height="1" fill="white" fill-opacity="0.5" /><text x="644" y="588.0" font-size="14" fill="white" font-family="monospace" dominant-baseline="ideographic">24</text><rect x="570" y="622.0" width="64" height="1" fill="white" fill-opacity="0.2" /><rect x="570" y="670.0" width="64" height="1" fill="white" fill-opacity="0.2" /><rect x="570" y="718.0" width="64" height="1" fill="white" fill-opacity="0.2" /><rect x="570" y="765.5" width="64" height="1" fill="white" fill-opacity="0.5" /><text x="644" y="779.5" font-size="14" fill="white" font-family="monospace" dominant-baseline="ideographic">25</text><rect x="684" y="0" width="64" height="766.0" fill="black" /><rect x="684" y="0.0" width="64" height="1" fill="white" fill-opacity="0.5" /><text x="758" y="14.0" font-size="14" fill="white" font-family="monospace" dominant-baseline="ideographic">25</text><rect x="684" y="48.0" width="64" height="1" fill="white" fill-opacity="0.2" /><rect x="684" y="96.0" width="64" height="1" fill="white" fill-opacity="0.2" /><rect x="684" y="144.0" width="64" height="1" fill="white" fill-opacity="0.2" /><rect x="684" y="191.5" width="64" height="1" fill="white" fill-opacity="0.5" /><text x="758" y="205.5" font-size="14" fill="white" font-family="monospace" dominant-baseline="ideographic">26</text><rect x="684" y="239.5" width="64" height="1" fill="white" fill-opacity="0.2" /><rect x="684" y="287.5" width="64" height="1" fill="white" fill-opacity="0.2" /><rect x="684" y="335.5" width="64" height="1" fill="white" fill-opacity="0.2" /><rect x="684" y="383.0" width="64" height="1" fill="white" fill-opacity="0.5" /><text x="758" y="397.0" font-size="14" fill="white" font-family="monospace" dominant-baseline="ideographic">27</text><rect x="684" y="431.0" width="64" height="1" fill="white" fill-opacity="0.2" /><rect x="684" y="479.0" width="64" height="1" fill="white" fill-opacity="0.2" /><rect x="684" y="527.0" width="64" height="1" fill="white" fill-opacity="0.2" /><rect x="684" y="574.5" width="64" height="1" fill="white" fill-opacity="0.5" /><text x="758" y="588.5" font-size="14" fill="white" font-family="monospace" dominant-baseline="ideographic">28</text><rect x="684" y="622.5" width="64" height="1" fill="white" fill-opacity="0.2" /><rect x="684" y="670.5" width="64" height="1" fill="white" fill-opacity="0.2" /><rect x="684" y="718.5" width="64" height="1" fill="white" fill-opacity="0.2" /><rect x="684" y="766.0" width="64" height="1" fill="white" fill-opacity="0.5" /><text x="758" y="780.0" font-size="14" fill="white" font-family="monospace" dominant-baseline="ideographic">29</text><rect x="798" y="0" width="64" height="766.0" fill="black" /><rect x="798" y="0.0" width="64" height="1" fill="white" fill-opacity="0.5" /><text x="872" y="14.0" font-size="14" fill="white" font-family="monospace" dominant-baseline="ideographic">29</text><rect x="798" y="48.0" width="64" height="1" fill="white" fill-opacity="0.2" /><rect x="798" y="96.0" width="64" height="1" fill="white" fill-opacity="0.2" /><rect x="798" y="144.0" width="64" height="1" fill="white" fill-opacity="0.2" /><rect x="798" y="191.5" width="64" height="1" fill="white" fill-opacity="0.5" /><text x="872" y="205.5" font-size="14" fill="white" font-family="monospace" dominant-baseline="ideographic">30</text><rect x="798" y="239.5" width="64" height="1" fill="white" fill-opacity="0.2" /><rect x="798" y="287.5" width="64" height="1" fill="white" fill-opacity="0.2" /><rect x="798" y="335.5" width="64" height="1" fill="white" fill-opacity="0.2" /><rect x="798" y="383.0" width="64" height="1" fill="white" fill-opacity="0.5" /><text x="872" y="397.0" font-size="14" fill="white" font-family="monospace" dominant-baseline="ideographic">31</text><rect x="798" y="431.0" width="64" height="1" fill="white" fill-opacity="0.2" /><rect x="798" y="479.0" width="64" height="1" fill="white" fill-opacity="0.2" /><rect x="798" y="527.0" width="64" height="1" fill="white" fill-opacity="0.2" /><rect x="798" y="574.5" width="64" height="1" fill="white" fill-opacity="0.5" /><text x="872" y="588.5" font-size="14" fill="white" font-family="monospace" dominant-baseline="ideographic">32</text><rect x="798" y="622.5" width="64" height="1" fill="white" fill-opacity="0.2" /><rect x="798" y="670.5" width="64" height="1" fill="white" fill-opacity="0.2" /><rect x="798" y="718.5" width="64" height="1" fill="white" fill-opacity="0.2" /><rect x="798" y="766.0" width="64" height="1" fill="white" fill-opacity="0.5" /><text x="872" y="780.0" font-size="14" fill="white" font-family="monospace" dominant-baseline="ideographic">33</text><rect x="798" y="383.1999999999998" width="64" height="1" fill="aqua" fill-opacity="0.75" /><text x="798" y="397.1999999999998" font-size="14" fill="aqua" fill-opacity="0.75" font-family="monospace">Phrase B</text><rect x="912" y="0" width="64" height="766.0" fill="black" /><rect x="912" y="0.0" width="64" height="1" fill="white" fill-opacity="0.5" /><text x="986" y="14.0" font-size="14" fill="white" font-family="monospace" dominant-baseline="ideographic">33</text><rect x="912" y="48.0" width="64" height="1" fill="white" fill-opacity="0.2" /><rect x="912" y="96.0" width="64" height="1" fill="white" fill-opacity="0.2" /><rect x="912" y="144.0" width="64" height="1" fill="white" fill-opacity="0.2" /><rect x="912" y="191.5" width="64" height="1" fill="white" fill-opacity="0.5" /><text x="986" y="205.5" font-size="14" fill="white" font-family="monospace" dominant-baseline="ideographic">34</text><rect x="912" y="239.5" width="64" height="1" fill="white" fill-opacity="0.2" /><rect x="912" y="287.5" width="64" height="1" fill="white" fill-opacity="0.2" /><rect x="912" y="335.0" width="64" height="1" fill="white" fill-opacity="0.2" /><rect x="912" y="383.0" width="64" height="1" fill="white" fill-opacity="0.5" /><text x="986" y="397.0" font-size="14" fill="white" font-family="monospace" dominant-baseline="ideographic">35</text><rect x="912" y="431.0" width="64" height="1" fill="white" fill-opacity="0.2" /><rect x="912" y="479.0" width="64" height="1" fill="white" fill-opacity="0.2" /><rect x="912" y="526.5" width="64" height="1" fill="white" fill-opacity="0.2" /><rect x="912" y="574.5" width="64" height="1" fill="white" fill-opacity="0.5" /><text x="986" y="588.5" font-size="14" fill="white" font-family="monospace" dominant-baseline="ideographic">36</text><rect x="912" y="622.5" width="64" height="1" fill="white" fill-opacity="0.2" /><rect x="912" y="670.5" width="64" height="1" fill="white" fill-opacity="0.2" /><rect x="912" y="718.0" width="64" height="1" fill="white" fill-opacity="0.2" /><rect x="912" y="766.0" width="64" height="1" fill="white" fill-opacity="0.5" /><text x="986" y="780.0" font-size="14" fill="white" font-family="monospace" dominant-baseline="ideographic">37</text><rect x="1026" y="0" width="64" height="766.0" fill="black" /><rect x="1026" y="0.0" width="64" height="1" fill="white" fill-opacity="0.5" /><text x="1100" y="14.0" font-size="14" fill="white" font-family="monospace" dominant-baseline="ideographic">37</text><rect x="1026" y="48.0" width="64" height="1" fill="white" fill-opacity="0.2" /><rect x="1026" y="96.0" width="64" height="1" fill="white" fill-opacity="0.2" /><rect x="1026" y="143.5" width="64" height="1" fill="white" fill-opacity="0.2" /><rect x="1026" y="191.5" width="64" height="1" fill="white" fill-opacity="0.5" /><text x="1100" y="205.5" font-size="14" fill="white" font-family="monospace" dominant-baseline="ideographic">38</text><rect x="1026" y="239.5" width="64" height="1" fill="white" fill-opacity="0.2" /><rect x="1026" y="287.5" width="64" height="1" fill="white" fill-opacity="0.2" /><rect x="1026" y="335.0" width="64" height="1" fill="white" fill-opacity="0.2" /><rect x="1026" y="383.0" width="64" height="1" fill="white" fill-opacity="0.5" /><text x="1100" y="397.0" font-size="14" fill="white" font-family="monospace" dominant-baseline="ideographic">39</text><rect x="1026" y="431.0" width="64" height="1" fill="white" fill-opacity="0.2" /><rect x="1026" y="479.0" width="64" height="1" fill="white" fill-opacity="0.2" /><rect x="1026" y="526.5" width="64" height="1" fill="white" fill-opacity="0.2" /><rect x="1026" y="574.5" width="64" height="1" fill="white" fill-opacity="0.5" /><text x="1100" y="588.5" font-size="14" fill="white" font-family="monospace" dominant-baseline="ideographic">40</text><rect x="1026" y="622.5" width="64" height="1" fill="white" fill-opacity="0.2" /><rect x="1026" y="670.5" width="64" height="1" fill="white" fill-opacity="0.2" /><rect x="1026" y="718.0" width="64" height="1" fill="white" fill-opacity="0.2" /><rect x="1026" y="766.0" width="64" height="1" fill="white" fill-opacity="0.5" /><text x="1100" y="780.0" font-size="14" fill="white" font-family="monospace" dominant-baseline="ideographic">41</text><rect x="1140" y="0" width="64" height="766.0" fill="black" /><rect x="1140" y="0.0" width="64" height="1" fill="white" fill-opacity="0.5" /><text x="1214" y="14.0" font-size="14" fill="white" font-family="monospace" dominant-baseline="ideographic">41</text><rect x="1140" y="48.0" width="64" height="1" fill="white" fill-opacity="0.2" /><rect x="1140" y="96.0" width="64" height="1" fill="white" fill-opacity="0.2" /><rect x="1140" y="143.5" width="64" height="1" fill="white" fill-opacity="0.2" /><rect x="1140" y="191.5" width="64" height="1" fill="white" fill-opacity="0.5" /><text x="1214" y="205.5" font-size="14" fill="white" font-family="monospace" dominant-baseline="ideographic">42</text><rect x="1140" y="239.5" width="64" height="1" fill="white" fill-opacity="0.2" /><rect x="1140" y="287.5" width="64" height="1" fill="white" fill-opacity="0.2" /><rect x="1140" y="335.0" width="64" height="1" fill="white" fill-opacity="0.2" /><rect x="1140" y="383.0" width="64" height="1" fill="white" fill-opacity="0.5" /><text x="1214" y="397.0" font-size="14" fill="white" font-family="monospace" dominant-baseline="ideographic">43</text><rect x="1140" y="431.0" width="64" height="1" fill="white" fill-opacity="0.2" /><rect x="1140" y="479.0" width="64" height="1" fill="white" fill-opacity="0.2" /><rect x="1140" y="526.5" width="64" height="1" fill="white" fill-opacity="0.2" /><rect x="1140" y="574.5" width="64" height="1" fill="white" fill-opacity="0.5" /><text x="1214" y="588.5" font-size="14" fill="white" font-family="monospace" dominant-baseline="ideographic">44</text><rect x="1140" y="622.5" width="64" height="1" fill="white" fill-opacity="0.2" /><rect x="1140" y="670.5" width="64" height="1" fill="white" fill-opacity="0.2" /><rect x="1140" y="718.0" width="64" height="1" fill="white" fill-opacity="0.2" /><rect x="1140" y="766.0" width="64" height="1" fill="white" fill-opacity="0.5" /><text x="1214" y="780.0" font-size="14" fill="white" font-family="monospace" dominant-baseline="ideographic">45</text><rect x="1140" y="383.0499999999993" width="64" height="1" fill="aqua" fill-opacity="0.75" /><text x="1140" y="397.0499999999993" font-size="14" fill="aqua" fill-opacity="0.75" font-family="monospace">Special</text><rect x="1254" y="0" width="64" height="766.0" fill="black" /><rect x="1254" y="0.0" width="64" height="1" fill="white" fill-opacity="0.5" /><text x="1328" y="14.0" font-size="14" fill="white" font-family="monospace" dominant-baseline="ideographic">45</text><rect x="1254" y="48.0" width="64" height="1" fill="white" fill-opacity="0.2" /><rect x="1254" y="96.0" width="64" height="1" fill="white" fill-opacity="0.2" /><rect x="1254" y="143.5" width="64" height="1" fill="white" fill-opacity="0.2" /><rect x="1254" y="191.5" width="64" height="1" fill="white" fill-opacity="0.5" /><text x="1328" y="205.5" font-size="14" fill="white" font-family="monospace" dominant-baseline="ideographic">46</text><rect x="1254" y="239.5" width="64" height="1" fill="white" fill-opacity="0.2" /><rect x="1254" y="287.0" width="64" height="1" fill="white" fill-opacity="0.2" /><rect x="1254" y="335.0" width="64" height="1" fill="white" fill-opacity="0.2" /><rect x="1254" y="383.0" width="64" height="1" fill="white" fill-opacity="0.5" /><text x="1328" y="397.0" font-size="14" fill="white" font-family="monospace" dominant-baseline="ideographic">47</text><rect x="1254" y="431.0" width="64" height="1" fill="white" fill-opacity="0.2" /><rect x="1254" y="478.5" width="64" height="1" fill="white" fill-opacity="0.2" /><rect x="1254" y="526.5" width="64" height="1" fill="white" fill-opacity="0.2" /><rect x="1254" y="574.5" width="64" height="1" fill="white" fill-opacity="0.5" /><text x="1328" y="588.5" font-size="14" fill="white" font-family="monospace" dominant-baseline="ideographic">48</text><rect x="1254" y="622.5" width="64" height="1" fill="white" fill-opacity="0.2" /><rect x="1254" y="670.0" width="64" height="1" fill="white" fill-opacity="0.2" /><rect x="1254" y="718.0" width="64" height="1" fill="white" fill-opacity="0.2" /><rect x="1254" y="766.0" width="64" height="1" fill="white" fill-opacity="0.5" /><text x="1328" y="780.0" font-size="14" fill="white" font-family="monospace" dominant-baseline="ideographic">49</text><rect x="1368" y="0" width="64" height="766.0" fill="black" /><rect x="1368" y="0.0" width="64" height="1" fill="white" fill-opacity="0.5" /><text x="1442" y="14.0" font-size="14" fill="white" font-family="monospace" dominant-baseline="ideographic">49</text><rect x="1368" y="48.0" width="64" height="1" fill="white" fill-opacity="0.2" /><rect x="1368" y="95.5" width="64" height="1" fill="white" fill-opacity="0.2" /><rect x="1368" y="143.5" width="64" height="1" fill="white" fill-opacity="0.2" /><rect x="1368" y="191.5" width="64" height="1" fill="white" fill-opacity="0.5" /><text x="1442" y="205.5" font-size="14" fill="white" font-family="monospace" dominant-baseline="ideographic">50</text><rect x="1368" y="239.5" width="64" height="1" fill="white" fill-opacity="0.2" /><rect x="1368" y="287.0" width="64" height="1" fill="white" fill-opacity="0.2" /><rect x="1368" y="335.0" width="64" height="1" fill="white" fill-opacity="0.2" /><rect x="1368" y="383.0" width="64" height="1" fill="white" fill-opacity="0.5" /><text x="1442" y="397.0" font-size="14" fill="white" font-family="monospace" dominant-baseline="ideographic">51</text><rect x="1368" y="431.0" width="64" height="1" fill="white" fill-opacity="0.2" /><rect x="1368" y="478.5" width="64" height="1" fill="white" fill-opacity="0.2" /><rect x="1368" y="526.5" width="64" height="1" fill="white" fill-opacity="0.2" /><rect x="1368" y="574.5" width="64" height="1" fill="white" fill-opacity="0.5" /><text x="1442" y="588.5" font-size="14" fill="white" font-family="monospace" dominant-baseline="ideographic">52</text><rect x="1368" y="622.5" width="64" height="1" fill="white" fill-opacity="0.2" /><rect x="1368" y="670.0" width="64" height="1" fill="white" fill-opacity="0.2" /><rect x="1368" y="718.0" width="64" height="1" fill="white" fill-opacity="0.2" /><rect x="1368" y="766.0" width="64" height="1" fill="white" fill-opacity="0.5" /><text x="1442" y="780.0" font-size="14" fill="white" font-family="monospace" dominant-baseline="ideographic">53</text><rect x="1482" y="0" width="64" height="766.0" fill="black" /><rect x="1482" y="0.0" width="64" height="1" fill="white" fill-opacity="0.5" /><text x="1556" y="14.0" font-size="14" fill="white" font-family="monospace" dominant-baseline="ideographic">53</text><rect x="1482" y="48.0" width="64" height="1" fill="white" fill-opacity="0.2" /><rect x="1482" y="95.5" width="64" height="1" fill="white" fill-opacity="0.2" /><rect x="1482" y="143.5" width="64" height="1" fill="white" fill-opacity="0.2" /><rect x="1482" y="191.5" width="64" height="1" fill="white" fill-opacity="0.5" /><text x="1556" y="205.5" font-size="14" fill="white" font-family="monospace" dominant-baseline="ideographic">54</text><rect x="1482" y="239.5" width="64" height="1" fill="white" fill-opacity="0.2" /><rect x="1482" y="287.0" width="64" height="1" fill="white" fill-opacity="0.2" /><rect x="1482" y="335.0" width="64" height="1" fill="white" fill-opacity="0.2" /><rect x="1482" y="383.0" width="64" height="1" fill="white" fill-opacity="0.5" /><text x="1556" y="397.0" font-size="14" fill="white" font-family="monospace" dominant-baseline="ideographic">55</text><rect x="1482" y="431.0" width="64" height="1" fill="white" fill-opacity="0.2" /><rect x="1482" y="478.5" width="64" height="1" fill="white" fill-opacity="0.2" /><rect x="1482" y="526.5" width="64" height="1" fill="white" fill-opacity="0.2" /><rect x="1482" y="574.5" width="64" height="1" fill="white" fill-opacity="0.5" /><text x="1556" y="588.5" font-size="14" fill="white" font-family="monospace" dominant-baseline="ideographic">56</text><rect x="1482" y="622.5" width="64" height="1" fill="white" fill-opacity="0.2" /><rect x="1482" y="670.0" width="64" height="1" fill="white" fill-opacity="0.2" /><rect x="1482" y="718.0" width="64" height="1" fill="white" fill-opacity="0.2" /><rect x="1482" y="766.0" width="64" height="1" fill="white" fill-opacity="0.5" /><text x="1556" y="780.0" font-size="14" fill="white" font-family="monospace" dominant-baseline="ideographic">57</text><rect x="1596" y="0" width="64" height="766.0" fill="black" /><rect x="1596" y="0.0" width="64" height="1" fill="white" fill-opacity="0.5" /><text x="1670" y="14.0" font-size="14" fill="white" font-family="monospace" dominant-baseline="ideographic">57</text><rect x="1596" y="47.5" width="64" height="1" fill="white" fill-opacity="0.2" /><rect x="1596" y="95.5" width="64" height="1" fill="white" fill-opacity="0.2" /><rect x="1596" y="143.5" width="64" height="1" fill="white" fill-opacity="0.2" /><rect x="1596" y="191.5" width="64" height="1" fill="white" fill-opacity="0.5" /><text x="1670" y="205.5" font-size="14" fill="white" font-family="monospace" dominant-baseline="ideographic">58</text><rect x="1596" y="239.0" width="64" height="1" fill="white" fill-opacity="0.2" /><rect x="1596" y="287.0" width="64" height="1" fill="white" fill-opacity="0.2" /><rect x="1596" y="335.0" width="64" height="1" fill="white" fill-opacity="0.2" /><rect x="1596" y="383.0" width="64" height="1" fill="white" fill-opacity="0.5" /><text x="1670" y="397.0" font-size="14" fill="white" font-family="monospace" dominant-baseline="ideographic">59</text><rect x="1596" y="430.5" width="64" height="1" fill="white" fill-opacity="0.2" /><rect x="1596" y="478.5" width="64" height="1" fill="white" fill-opacity="0.2" /><rect x="1596" y="526.5" width="64" height="1" fill="white" fill-opacity="0.2" /><rect x="1596" y="574.5" width="64" height="1" fill="white" fill-opacity="0.5" /><text x="1670" y="588.5" font-size="14" fill="white" font-family="monospace" dominant-baseline="ideographic">60</text><rect x="1596" y="622.0" width="64" height="1" fill="white" fill-opacity="0.2" /><rect x="1596" y="670.0" width="64" height="1" fill="white" fill-opacity="0.2" /><rect x="1596" y="718.0" width="64" height="1" fill="white" fill-opacity="0.2" /><rect x="1596" y="766.0" width="64" height="1" fill="white" fill-opacity="0.5" /><text x="1670" y="780.0" font-size="14" fill="white" font-family="monospace" dominant-baseline="ideographic">61</text><rect x="1596" y="382.7999999999993" width="64" height="1" fill="aqua" fill-opacity="0.75" /><text x="1596" y="396.7999999999993" font-size="14" fill="aqua" fill-opacity="0.75" font-family="monospace">Solo</text><rect x="1710" y="0" width="64" height="766.0" fill="black" /><rect x="1710" y="0.0" width="64" height="1" fill="white" fill-opacity="0.5" /><text x="1784" y="14.0" font-size="14" fill="white" font-family="monospace" dominant-baseline="ideographic">61</text><rect x="1710" y="47.5" width="64" height="1" fill="white" fill-opacity="0.2" /><rect x="1710" y="95.5" width="64" height="1" fill="white" fill-opacity="0.2" /><rect x="1710" y="143.5" width="64" height="1" fill="white" fill-opacity="0.2" /><rect x="1710" y="191.5" width="64" height="1" fill="white" fill-opacity="0.5" /><text x="1784" y="205.5" font-size="14" fill="white" font-family="monospace" dominant-baseline="ideographic">62</text><rect x="1710" y="239.0" width="64" height="1" fill="white" fill-opacity="0.2" /><rect x="1710" y="287.0" width="64" height="1" fill="white" fill-opacity="0.2" /><rect x="1710" y="335.0" width="64" height="1" fill="white" fill-opacity="0.2" /><rect x="1710" y="383.0" width="64" height="1" fill="white" fill-opacity="0.5" /><text x="1784" y="397.0" font-size="14" fill="white" font-family="monospace" dominant-baseline="ideographic">63</text><rect x="1710" y="430.5" width="64" height="1" fill="white" fill-opacity="0.2" /><rect x="1710" y="478.5" width="64" height="1" fill="white" fill-opacity="0.2" /><rect x="1710" y="526.5" width="64" height="1" fill="white" fill-opacity="0.2" /><rect x="1710" y="574.5" width="64" height="1" fill="white" fill-opacity="0.5" /><text x="1784" y="588.5" font-size="14" fill="white" font-family="monospace" dominant-baseline="ideographic">64</text><rect x="1710" y="622.0" width="64" height="1" fill="white" fill-opacity="0.2" /><rect x="1710" y="670.0" width="64" height="1" fill="white" fill-opacity="0.2" /><rect x="1710" y="718.0" width="64" height="1" fill="white" fill-opacity="0.2" /><rect x="1710" y="766.0" width="64" height="1" fill="white" fill-opacity="0.5" /><text x="1784" y="780.0" font-size="14" fill="white" font-family="monospace" dominant-baseline="ideographic">65</text><rect x="1824" y="0" width="64" height="765.5" fill="black" /><rect x="1824" y="0.0" width="64" height="1" fill="white" fill-opacity="0.5" /><text x="1898" y="14.0" font-size="14" fill="white" font-family="monospace" dominant-baseline="ideographic">65</text><rect x="1824" y="47.5" width="64" height="1" fill="white" fill-opacity="0.2" /><rect x="1824" y="95.5" width="64" height="1" fill="white" fill-opacity="0.2" /><rect x="1824" y="143.5" width="64" height="1" fill="white" fill-opacity="0.2" /><rect x="1824" y="191.5" width="64" height="1" fill="white" fill-opacity="0.5" /><text x="1898" y="205.5" font-size="14" fill="white" font-family="monospace" dominant-baseline="ideographic">66</text><rect x="1824" y="239.0" width="64" height="1" fill="white" fill-opacity="0.2" /><rect x="1824" y="287.0" width="64" height="1" fill="white" fill-opacity="0.2" /><rect x="1824" y="335.0" width="64" height="1" fill="white" fill-opacity="0.2" /><rect x="1824" y="383.0" width="64" height="1" fill="white" fill-opacity="0.5" /><text x="1898" y="397.0" font-size="14" fill="white" font-family="monospace" dominant-baseline="ideographic">67</text><rect x="1824" y="430.5" width="64" height="1" fill="white" fill-opacity="0.2" /><rect x="1824" y="478.5" width="64" height="1" fill="white" fill-opacity="0.2" /><rect x="1824" y="526.5" width="64" height="1" fill="white" fill-opacity="0.2" /><rect x="1824" y="574.0" width="64" height="1" fill="white" fill-opacity="0.5" /><text x="1898" y="588.0" font-size="14" fill="white" font-family="monospace" dominant-baseline="ideographic">68</text><rect x="1824" y="622.0" width="64" height="1" fill="white" fill-opacity="0.2" /><rect x="1824" y="670.0" width="64" height="1" fill="white" fill-opacity="0.2" /><rect x="1824" y="718.0" width="64" height="1" fill="white" fill-opacity="0.2" /><rect x="1824" y="765.5" width="64" height="1" fill="white" fill-opacity="0.5" /><text x="1898" y="779.5" font-size="14" fill="white" font-family="monospace" dominant-baseline="ideographic">69</text><rect x="1938" y="0" width="64" height="766.0" fill="black" /><rect x="1938" y="0.0" width="64" height="1" fill="white" fill-opacity="0.5" /><text x="2012" y="14.0" font-size="14" fill="white" font-family="monospace" dominant-baseline="ideographic">69</text><rect x="1938" y="48.0" width="64" height="1" fill="white" fill-opacity="0.2" /><rect x="1938" y="96.0" width="64" height="1" fill="white" fill-opacity="0.2" /><rect x="1938" y="144.0" width="64" height="1" fill="white" fill-opacity="0.2" /><rect x="1938" y="191.5" width="64" height="1" fill="white" fill-opacity="0.5" /><text x="2012" y="205.5" font-size="14" fill="white" font-family="monospace" dominant-baseline="ideographic">70</text><rect x="1938" y="239.5" width="64" height="1" fill="white" fill-opacity="0.2" /><rect x="1938" y="287.5" width="64" height="1" fill="white" fill-opacity="0.2" /><rect x="1938" y="335.5" width="64" height="1" fill="white" fill-opacity="0.2" /><rect x="1938" y="383.0" width="64" height="1" fill="white" fill-opacity="0.5" /><text x="2012" y="397.0" font-size="14" fill="white" font-family="monospace" dominant-baseline="ideographic">71</text><rect x="1938" y="431.0" width="64" height="1" fill="white" fill-opacity="0.2" /><rect x="1938" y="479.0" width="64" height="1" fill="white" fill-opacity="0.2" /><rect x="1938" y="527.0" width="64" height="1" fill="white" fill-opacity="0.2" /><rect x="1938" y="574.5" width="64" height="1" fill="white" fill-opacity="0.5" /><text x="2012" y="588.5" font-size="14" fill="white" font-family="monospace" dominant-baseline="ideographic">72</text><rect x="1938" y="622.5" width="64" height="1" fill="white" fill-opacity="0.2" /><rect x="1938" y="670.5" width="64" height="1" fill="white" fill-opacity="0.2" /><rect x="1938" y="718.5" width="64" height="1" fill="white" fill-opacity="0.2" /><rect x="1938" y="766.0" width="64" height="1" fill="white" fill-opacity="0.5" /><text x="2012" y="780.0" font-size="14" fill="white" font-family="monospace" dominant-baseline="ideographic">73</text><rect x="2052" y="0" width="64" height="244.5" fill="black" /><rect x="2052" y="0.0" width="64" height="1" fill="white" fill-opacity="0.5" /><text x="2126" y="14.0" font-size="14" fill="white" font-family="monospace" dominant-baseline="ideographic">73</text><rect x="2052" y="48.0" width="64" height="1" fill="white" fill-opacity="0.2" /><rect x="2052" y="96.0" width="64" height="1" fill="white" fill-opacity="0.2" /><rect x="2052" y="144.0" width="64" height="1" fill="white" fill-opacity="0.2" /><rect x="2052" y="191.5" width="64" height="1" fill="white" fill-opacity="0.5" /><text x="2126" y="205.5" font-size="14" fill="white" font-family="monospace" dominant-baseline="ideographic">74</text></svg>