<?xml version="1.0" encoding="UTF-8"?><svg xmlns="http://www.w3.org/2000/svg" xmlns:xlink="http://www.w3.org/1999/xlink"     width="3332" height="940.5" viewBox="0 0 3332 940.5"><defs></defs><rect x="0" y="14.0" width="188" height="926.5" fill="black" /><rect x="0" y="939.5" width="188" height="1" fill="white" fill-opacity="0.5" /><text x="198" y="939.5" font-size="14" fill="white" font-family="monospace" dominant-baseline="initial">1</text><rect x="0" y="906.5" width="188" height="1" fill="white" fill-opacity="0.2" /><rect x="0" y="873.5" width="188" height="1" fill="white" fill-opacity="0.2" /><rect x="0" y="840.0" width="188" height="1" fill="white" fill-opacity="0.2" /><rect x="0" y="807.0" width="188" height="1" fill="white" fill-opacity="0.2" /><rect x="0" y="774.0" width="188" height="1" fill="white" fill-opacity="0.2" /><rect x="0" y="741.0" width="188" height="1" fill="white" fill-opacity="0.2" /><rect x="0" y="708.0" width="188" height="1" fill="white" fill-opacity="0.5" /><text x="198" y="708.0" font-size="14" fill="white" font-family="monospace" dominant-baseline="initial">2</text><rect x="0" y="675.0" width="188" height="1" fill="white" fill-opacity="0.2" /><rect x="0" y="641.5" width="188" height="1" fill="white" fill-opacity="0.2" /><rect x="0" y="608.5" width="188" height="1" fill="white" fill-opacity="0.2" /><rect x="0" y="575.5" width="188" height="1" fill="white" fill-opacity="0.2" /><rect x="0" y="542.5" width="188" height="1" fill="white" fill-opacity="0.2" /><rect x="0" y="509.5" width="188" height="1" fill="white" fill-opacity="0.2" /><rect x="0" y="476.5" width="188" height="1" fill="white" fill-opacity="0.5" /><text x="198" y="476.5" font-size="14" fill="white" font-family="monospace" dominant-baseline="initial">3</text><rect x="0" y="443.0" width="188" height="1" fill="white" fill-opacity="0.2" /><rect x="0" y="410.0" width="188" height="1" fill="white" fill-opacity="0.2" /><rect x="0" y="377.0" width="188" height="1" fill="white" fill-opacity="0.2" /><rect x="0" y="344.0" width="188" height="1" fill="white" fill-opacity="0.2" /><rect x="0" y="311.0" width="188" height="1" fill="white" fill-opacity="0.2" /><rect x="0" y="277.5" width="188" height="1" fill="white" fill-opacity="0.2" /><rect x="0" y="244.5" width="188" height="1" fill="white" fill-opacity="0.5" /><text x="198" y="244.5" font-size="14" fill="white" font-family="monospace" dominant-baseline="initial">4</text><rect x="0" y="211.5" width="188" height="1" fill="white" fill-opacity="0.2" /><rect x="0" y="178.5" width="188" height="1" fill="white" fill-opacity="0.2" /><rect x="0" y="145.5" width="188" height="1" fill="white" fill-opacity="0.2" /><rect x="0" y="112.5" width="188" height="1" fill="white" fill-opacity="0.2" /><rect x="0" y="79.0" width="188" height="1" fill="white" fill-opacity="0.2" /><rect x="0" y="46.0" width="188" height="1" fill="white" fill-opacity="0.2" /><rect x="0" y="13.0" width="188" height="1" fill="white" fill-opacity="0.5" /><text x="198" y="13.0" font-size="14" fill="white" font-family="monospace" dominant-baseline="initial">5</text><rect x="0" y="939.5" width="188" height="1" fill="aqua" fill-opacity="0.75" /><text x="0" y="935.5" font-size="14" fill="aqua" fill-opacity="0.75" font-family="monospace">Intro</text><rect x="0" y="939.5" width="188" height="1" fill="lime" fill-opacity="0.75" /><text x="198" y="926.5" font-size="14" fill="lime" font-family="monospace" dominant-baseline="initial">136</text><rect x="238" y="14.0" width="188" height="926.5" fill="black" /><rect x="238" y="939.5" width="188" height="1" fill="white" fill-opacity="0.5" /><text x="436" y="939.5" font-size="14" fill="white" font-family="monospace" dominant-baseline="initial">5</text><rect x="238" y="906.5" width="188" height="1" fill="white" fill-opacity="0.2" /><rect x="238" y="873.5" width="188" height="1" fill="white" fill-opacity="0.2" /><rect x="238" y="840.5" width="188" height="1" fill="white" fill-opacity="0.2" /><rect x="238" y="807.0" width="188" height="1" fill="white" fill-opacity="0.2" /><rect x="238" y="774.0" width="188" height="1" fill="white" fill-opacity="0.2" /><rect x="238" y="741.0" width="188" height="1" fill="white" fill-opacity="0.2" /><rect x="238" y="708.0" width="188" height="1" fill="white" fill-opacity="0.5" /><text x="436" y="708.0" font-size="14" fill="white" font-family="monospace" dominant-baseline="initial">6</text><rect x="238" y="675.0" width="188" height="1" fill="white" fill-opacity="0.2" /><rect x="238" y="641.5" width="188" height="1" fill="white" fill-opacity="0.2" /><rect x="238" y="608.5" width="188" height="1" fill="white" fill-opacity="0.2" /><rect x="238" y="575.5" width="188" height="1" fill="white" fill-opacity="0.2" /><rect x="238" y="542.5" width="188" height="1" fill="white" fill-opacity="0.2" /><rect x="238" y="509.5" width="188" height="1" fill="white" fill-opacity="0.2" /><rect x="238" y="476.5" width="188" height="1" fill="white" fill-opacity="0.5" /><text x="436" y="476.5" font-size="14" fill="white" font-family="monospace" dominant-baseline="initial">7</text><rect x="238" y="443.0" width="188" height="1" fill="white" fill-opacity="0.2" /><rect x="238" y="410.0" width="188" height="1" fill="white" fill-opacity="0.2" /><rect x="238" y="377.0" width="188" height="1" fill="white" fill-opacity="0.2" /><rect x="238" y="344.0" width="188" height="1" fill="white" fill-opacity="0.2" /><rect x="238" y="311.0" width="188" height="1" fill="white" fill-opacity="0.2" /><rect x="238" y="278.0" width="188" height="1" fill="white" fill-opacity="0.2" /><rect x="238" y="244.5" width="188" height="1" fill="white" fill-opacity="0.5" /><text x="436" y="244.5" font-size="14" fill="white" font-family="monospace" dominant-baseline="initial">8</text><rect x="238" y="211.5" width="188" height="1" fill="white" fill-opacity="0.2" /><rect x="238" y="178.5" width="188" height="1" fill="white" fill-opacity="0.2" /><rect x="238" y="145.5" width="188" height="1" fill="white" fill-opacity="0.2" /><rect x="238" y="112.5" width="188" height="1" fill="white" fill-opacity="0.2" /><rect x="238" y="79.0" width="188" height="1" fill="white" fill-opacity="0.2" /><rect x="238" y="46.0" width="188" height="1" fill="white" fill-opacity="0.2" /><rect x="238" y="13.0" width="188" height="1" fill="white" fill-opacity="0.5" /><text x="436" y="13.0" font-size="14" fill="white" font-family="monospace" dominant-baseline="initial">9</text><rect x="238" y="939.6" width="188" height="1" fill="aqua" fill-opacity="0.75" /><text x="238" y="935.6" font-size="14" fill="aqua" fill-opacity="0.75" font-family="monospace">Phrase A</text><rect x="476" y="14.0" width="188" height="926.5" fill="black" /><rect x="476" y="939.5" width="188" height="1" fill="white" fill-opacity="0.5" /><text x="674" y="939.5" font-size="14" fill="white" font-family="monospace" dominant-baseline="initial">9</text><rect x="476" y="906.5" width="188" height="1" fill="white" fill-opacity="0.2" /><rect x="476" y="873.5" width="188" height="1" fill="white" fill-opacity="0.2" /><rect x="476" y="840.5" width="188" height="1" fill="white" fill-opacity="0.2" /><rect x="476" y="807.0" width="188" height="1" fill="white" fill-opacity="0.2" /><rect x="476" y="774.0" width="188" height="1" fill="white" fill-opacity="0.2" /><rect x="476" y="741.0" width="188" height="1" fill="white" fill-opacity="0.2" /><rect x="476" y="708.0" width="188" height="1" fill="white" fill-opacity="0.5" /><text x="674" y="708.0" font-size="14" fill="white" font-family="monospace" dominant-baseline="initial">10</text><rect x="476" y="675.0" width="188" height="1" fill="white" fill-opacity="0.2" /><rect x="476" y="642.0" width="188" height="1" fill="white" fill-opacity="0.2" /><rect x="476" y="608.5" width="188" height="1" fill="white" fill-opacity="0.2" /><rect x="476" y="575.5" width="188" height="1" fill="white" fill-opacity="0.2" /><rect x="476" y="542.5" width="188" height="1" fill="white" fill-opacity="0.2" /><rect x="476" y="509.5" width="188" height="1" fill="white" fill-opacity="0.2" /><rect x="476" y="476.5" width="188" height="1" fill="white" fill-opacity="0.5" /><text x="674" y="476.5" font-size="14" fill="white" font-family="monospace" dominant-baseline="initial">11</text><rect x="476" y="443.0" width="188" height="1" fill="white" fill-opacity="0.2" /><rect x="476" y="410.0" width="188" height="1" fill="white" fill-opacity="0.2" /><rect x="476" y="377.0" width="188" height="1" fill="white" fill-opacity="0.2" /><rect x="476" y="344.0" width="188" height="1" fill="white" fill-opacity="0.2" /><rect x="476" y="311.0" width="188" height="1" fill="white" fill-opacity="0.2" /><rect x="476" y="278.0" width="188" height="1" fill="white" fill-opacity="0.2" /><rect x="476" y="244.5" width="188" height="1" fill="white" fill-opacity="0.5" /><text x="674" y="244.5" font-size="14" fill="white" font-family="monospace" dominant-baseline="initial">12</text><rect x="476" y="211.5" width="188" height="1" fill="white" fill-opacity="0.2" /><rect x="476" y="178.5" width="188" height="1" fill="white" fill-opacity="0.2" /><rect x="476" y="145.5" width="188" height="1" fill="white" fill-opacity="0.2" /><rect x="476" y="112.5" width="188" height="1" fill="white" fill-opacity="0.2" /><rect x="476" y="79.5" width="188" height="1" fill="white" fill-opacity="0.2" /><rect x="476" y="46.0" width="188" height="1" fill="white" fill-opacity="0.2" /><rect x="476" y="13.0" width="188" height="1" fill="white" fill-opacity="0.5" /><text x="674" y="13.0" font-size="14" fill="white" font-family="monospace" dominant-baseline="initial">13</text><rect x="476" y="939.5500000000002" width="188" height="1" fill="aqua" fill-opacity="0.75" /><text x="476" y="935.5500000000002" font-size="14" fill="aqua" fill-opacity="0.75" font-family="monospace">Phrase B</text><rect x="714" y="14.0" width="188" height="926.5" fill="black" /><rect x="714" y="939.5" width="188" height="1" fill="white" fill-opacity="0.5" /><text x="912" y="939.5" font-size="14" fill="white" font-family="monospace" dominant-baseline="initial">13</text><rect x="714" y="906.5" width="188" height="1" fill="white" fill-opacity="0.2" /><rect x="714" y="873.5" width="188" height="1" fill="white" fill-opacity="0.2" /><rect x="714" y="840.5" width="188" height="1" fill="white" fill-opacity="0.2" /><rect x="714" y="807.0" width="188" height="1" fill="white" fill-opacity="0.2" /><rect x="714" y="774.0" width="188" height="1" fill="white" fill-opacity="0.2" /><rect x="714" y="741.0" width="188" height="1" fill="white" fill-opacity="0.2" /><rect x="714" y="708.0" width="188" height="1" fill="white" fill-opacity="0.5" /><text x="912" y="708.0" font-size="14" fill="white" font-family="monospace" dominant-baseline="initial">14</text><rect x="714" y="675.0" width="188" height="1" fill="white" fill-opacity="0.2" /><rect x="714" y="642.0" width="188" height="1" fill="white" fill-opacity="0.2" /><rect x="714" y="608.5" width="188" height="1" fill="white" fill-opacity="0.2" /><rect x="714" y="575.5" width="188" height="1" fill="white" fill-opacity="0.2" /><rect x="714" y="542.5" width="188" height="1" fill="white" fill-opacity="0.2" /><rect x="714" y="509.5" width="188" height="1" fill="white" fill-opacity="0.2" /><rect x="714" y="476.5" width="188" height="1" fill="white" fill-opacity="0.5" /><text x="912" y="476.5" font-size="14" fill="white" font-family="monospace" dominant-baseline="initial">15</text><rect x="714" y="443.5" width="188" height="1" fill="white" fill-opacity="0.2" /><rect x="714" y="410.0" width="188" height="1" fill="white" fill-opacity="0.2" /><rect x="714" y="377.0" width="188" height="1" fill="white" fill-opacity="0.2" /><rect x="714" y="344.0" width="188" height="1" fill="white" fill-opacity="0.2" /><rect x="714" y="311.0" width="188" height="1" fill="white" fill-opacity="0.2" /><rect x="714" y="278.0" width="188" height="1" fill="white" fill-opacity="0.2" /><rect x="714" y="244.5" width="188" height="1" fill="white" fill-opacity="0.5" /><text x="912" y="244.5" font-size="14" fill="white" font-family="monospace" dominant-baseline="initial">16</text><rect x="714" y="211.5" width="188" height="1" fill="white" fill-opacity="0.2" /><rect x="714" y="178.5" width="188" height="1" fill="white" fill-opacity="0.2" /><rect x="714" y="145.5" width="188" height="1" fill="white" fill-opacity="0.2" /><rect x="714" y="112.5" width="188" height="1" fill="white" fill-opacity="0.2" /><rect x="714" y="79.5" width="188" height="1" fill="white" fill-opacity="0.2" /><rect x="714" y="46.0" width="188" height="1" fill="white" fill-opacity="0.2" /><rect x="714" y="13.0" width="188" height="1" fill="white" fill-opacity="0.5" /><text x="912" y="13.0" font-size="14" fill="white" font-family="monospace" dominant-baseline="initial">17</text><rect x="952" y="47.0" width="188" height="893.5" fill="black" /><rect x="952" y="939.5" width="188" height="1" fill="white" fill-opacity="0.5" /><text x="1150" y="939.5" font-size="14" fill="white" font-family="monospace" dominant-baseline="initial">17</text><rect x="952" y="906.5" width="188" height="1" fill="white" fill-opacity="0.2" /><rect x="952" y="873.5" width="188" height="1" fill="white" fill-opacity="0.2" /><rect x="952" y="840.5" width="188" height="1" fill="white" fill-opacity="0.2" /><rect x="952" y="807.5" width="188" height="1" fill="white" fill-opacity="0.2" /><rect x="952" y="774.0" width="188" height="1" fill="white" fill-opacity="0.2" /><rect x="952" y="741.0" width="188" height="1" fill="white" fill-opacity="0.2" /><rect x="952" y="708.0" width="188" height="1" fill="white" fill-opacity="0.5" /><text x="1150" y="708.0" font-size="14" fill="white" font-family="monospace" dominant-baseline="initial">18</text><rect x="952" y="675.0" width="188" height="1" fill="white" fill-opacity="0.2" /><rect x="952" y="642.0" width="188" height="1" fill="white" fill-opacity="0.2" /><rect x="952" y="608.5" width="188" height="1" fill="white" fill-opacity="0.2" /><rect x="952" y="575.5" width="188" height="1" fill="white" fill-opacity="0.2" /><rect x="952" y="542.5" width="188" height="1" fill="white" fill-opacity="0.2" /><rect x="952" y="509.5" width="188" height="1" fill="white" fill-opacity="0.2" /><rect x="952" y="476.5" width="188" height="1" fill="white" fill-opacity="0.5" /><text x="1150" y="476.5" font-size="14" fill="white" font-family="monospace" dominant-baseline="initial">19</text><rect x="952" y="443.5" width="188" height="1" fill="white" fill-opacity="0.2" /><rect x="952" y="410.0" width="188" height="1" fill="white" fill-opacity="0.2" /><rect x="952" y="377.0" width="188" height="1" fill="white" fill-opacity="0.2" /><rect x="952" y="344.0" width="188" height="1" fill="white" fill-opacity="0.2" /><rect x="952" y="311.0" width="188" height="1" fill="white" fill-opacity="0.2" /><rect x="952" y="278.0" width="188" height="1" fill="white" fill-opacity="0.2" /><rect x="952" y="245.0" width="188" height="1" fill="white" fill-opacity="0.5" /><text x="1150" y="245.0" font-size="14" fill="white" font-family="monospace" dominant-baseline="initial">20</text><rect x="952" y="211.5" width="188" height="1" fill="white" fill-opacity="0.2" /><rect x="952" y="178.5" width="188" height="1" fill="white" fill-opacity="0.2" /><rect x="952" y="145.5" width="188" height="1" fill="white" fill-opacity="0.2" /><rect x="952" y="112.5" width="188" height="1" fill="white" fill-opacity="0.2" /><rect x="952" y="79.5" width="188" height="1" fill="white" fill-opacity="0.2" /><rect x="952" y="46.0" width="188" height="1" fill="white" fill-opacity="0.5" /><text x="1150" y="46.0" font-size="14" fill="white" font-family="monospace" dominant-baseline="initial">21</text><rect x="1190" y="80.5" width="188" height="860.0" fill="black" /><rect x="1190" y="939.5" width="188" height="1" fill="white" fill-opacity="0.5" /><text x="1388" y="939.5" font-size="14" fill="white" font-family="monospace" dominant-baseline="initial">21</text><rect x="1190" y="906.5" width="188" height="1" fill="white" fill-opacity="0.2" /><rect x="1190" y="873.5" width="188" height="1" fill="white" fill-opacity="0.2" /><rect x="1190" y="840.5" width="188" height="1" fill="white" fill-opacity="0.2" /><rect x="1190" y="807.5" width="188" height="1" fill="white" fill-opacity="0.2" /><rect x="1190" y="774.5" width="188" height="1" fill="white" fill-opacity="0.2" /><rect x="1190" y="741.0" width="188" height="1" fill="white" fill-opacity="0.5" /><text x="1388" y="741.0" font-size="14" fill="white" font-family="monospace" dominant-baseline="initial">22</text><rect x="1190" y="708.0" width="188" height="1" fill="white" fill-opacity="0.2" /><rect x="1190" y="675.0" width="188" height="1" fill="white" fill-opacity="0.2" /><rect x="1190" y="642.0" width="188" height="1" fill="white" fill-opacity="0.2" /><rect x="1190" y="609.0" width="188" height="1" fill="white" fill-opacity="0.2" /><rect x="1190" y="576.0" width="188" height="1" fill="white" fill-opacity="0.2" /><rect x="1190" y="542.5" width="188" height="1" fill="white" fill-opacity="0.5" /><text x="1388" y="542.5" font-size="14" fill="white" font-family="monospace" dominant-baseline="initial">23</text><rect x="1190" y="509.5" width="188" height="1" fill="white" fill-opacity="0.2" /><rect x="1190" y="476.5" width="188" height="1" fill="white" fill-opacity="0.2" /><rect x="1190" y="443.5" width="188" height="1" fill="white" fill-opacity="0.2" /><rect x="1190" y="410.5" width="188" height="1" fill="white" fill-opacity="0.2" /><rect x="1190" y="377.0" width="188" height="1" fill="white" fill-opacity="0.2" /><rect x="1190" y="344.0" width="188" height="1" fill="white" fill-opacity="0.2" /><rect x="1190" y="311.0" width="188" height="1" fill="white" fill-opacity="0.5" /><text x="1388" y="311.0" font-size="14" fill="white" font-family="monospace" dominant-baseline="initial">24</text><rect x="1190" y="278.0" width="188" height="1" fill="white" fill-opacity="0.2" /><rect x="1190" y="245.0" width="188" height="1" fill="white" fill-opacity="0.2" /><rect x="1190" y="212.0" width="188" height="1" fill="white" fill-opacity="0.2" /><rect x="1190" y="178.5" width="188" height="1" fill="white" fill-opacity="0.2" /><rect x="1190" y="145.5" width="188" height="1" fill="white" fill-opacity="0.2" /><rect x="1190" y="112.5" width="188" height="1" fill="white" fill-opacity="0.2" /><rect x="1190" y="79.5" width="188" height="1" fill="white" fill-opacity="0.5" /><text x="1388" y="79.5" font-size="14" fill="white" font-family="monospace" dominant-baseline="initial">25</text><rect x="1190" y="542.6500000000005" width="188" height="1" fill="aqua" fill-opacity="0.75" /><text x="1190" y="538.6500000000005" font-size="14" fill="aqua" fill-opacity="0.75" font-family="monospace">Special</text><rect x="1428" y="14.0" width="188" height="926.5" fill="black" /><rect x="1428" y="939.5" width="188" height="1" fill="white" fill-opacity="0.5" /><text x="1626" y="939.5" font-size="14" fill="white" font-family="monospace" dominant-baseline="initial">25</text><rect x="1428" y="906.5" width="188" height="1" fill="white" fill-opacity="0.2" /><rect x="1428" y="873.5" width="188" height="1" fill="white" fill-opacity="0.2" /><rect x="1428" y="840.0" width="188" height="1" fill="white" fill-opacity="0.2" /><rect x="1428" y="807.0" width="188" height="1" fill="white" fill-opacity="0.2" /><rect x="1428" y="774.0" width="188" height="1" fill="white" fill-opacity="0.2" /><rect x="1428" y="741.0" width="188" height="1" fill="white" fill-opacity="0.2" /><rect x="1428" y="708.0" width="188" height="1" fill="white" fill-opacity="0.5" /><text x="1626" y="708.0" font-size="14" fill="white" font-family="monospace" dominant-baseline="initial">26</text><rect x="1428" y="674.5" width="188" height="1" fill="white" fill-opacity="0.2" /><rect x="1428" y="641.5" width="188" height="1" fill="white" fill-opacity="0.2" /><rect x="1428" y="608.5" width="188" height="1" fill="white" fill-opacity="0.2" /><rect x="1428" y="575.5" width="188" height="1" fill="white" fill-opacity="0.2" /><rect x="1428" y="542.5" width="188" height="1" fill="white" fill-opacity="0.2" /><rect x="1428" y="509.5" width="188" height="1" fill="white" fill-opacity="0.2" /><rect x="1428" y="476.0" width="188" height="1" fill="white" fill-opacity="0.5" /><text x="1626" y="476.0" font-size="14" fill="white" font-family="monospace" dominant-baseline="initial">27</text><rect x="1428" y="443.0" width="188" height="1" fill="white" fill-opacity="0.2" /><rect x="1428" y="410.0" width="188" height="1" fill="white" fill-opacity="0.2" /><rect x="1428" y="377.0" width="188" height="1" fill="white" fill-opacity="0.2" /><rect x="1428" y="344.0" width="188" height="1" fill="white" fill-opacity="0.2" /><rect x="1428" y="311.0" width="188" height="1" fill="white" fill-opacity="0.2" /><rect x="1428" y="277.5" width="188" height="1" fill="white" fill-opacity="0.2" /><rect x="1428" y="244.5" width="188" height="1" fill="white" fill-opacity="0.5" /><text x="1626" y="244.5" font-size="14" fill="white" font-family="monospace" dominant-baseline="initial">28</text><rect x="1428" y="211.5" width="188" height="1" fill="white" fill-opacity="0.2" /><rect x="1428" y="178.5" width="188" height="1" fill="white" fill-opacity="0.2" /><rect x="1428" y="145.5" width="188" height="1" fill="white" fill-opacity="0.2" /><rect x="1428" y="112.0" width="188" height="1" fill="white" fill-opacity="0.2" /><rect x="1428" y="79.0" width="188" height="1" fill="white" fill-opacity="0.2" /><rect x="1428" y="46.0" width="188" height="1" fill="white" fill-opacity="0.2" /><rect x="1428" y="13.0" width="188" height="1" fill="white" fill-opacity="0.5" /><text x="1626" y="13.0" font-size="14" fill="white" font-family="monospace" dominant-baseline="initial">29</text><rect x="1666" y="14.0" width="188" height="926.5" fill="black" /><rect x="1666" y="939.5" width="188" height="1" fill="white" fill-opacity="0.5" /><text x="1864" y="939.5" font-size="14" fill="white" font-family="monospace" dominant-baseline="initial">29</text><rect x="1666" y="906.5" width="188" height="1" fill="white" fill-opacity="0.2" /><rect x="1666" y="873.5" width="188" height="1" fill="white" fill-opacity="0.2" /><rect x="1666" y="840.0" width="188" height="1" fill="white" fill-opacity="0.2" /><rect x="1666" y="807.0" width="188" height="1" fill="white" fill-opacity="0.2" /><rect x="1666" y="774.0" width="188" height="1" fill="white" fill-opacity="0.2" /><rect x="1666" y="741.0" width="188" height="1" fill="white" fill-opacity="0.2" /><rect x="1666" y="708.0" width="188" height="1" fill="white" fill-opacity="0.5" /><text x="1864" y="708.0" font-size="14" fill="white" font-family="monospace" dominant-baseline="initial">30</text><rect x="1666" y="675.0" width="188" height="1" fill="white" fill-opacity="0.2" /><rect x="1666" y="641.5" width="188" height="1" fill="white" fill-opacity="0.2" /><rect x="1666" y="608.5" width="188" height="1" fill="white" fill-opacity="0.2" /><rect x="1666" y="575.5" width="188" height="1" fill="white" fill-opacity="0.2" /><rect x="1666" y="542.5" width="188" height="1" fill="white" fill-opacity="0.2" /><rect x="1666" y="509.5" width="188" height="1" fill="white" fill-opacity="0.2" /><rect x="1666" y="476.0" width="188" height="1" fill="white" fill-opacity="0.5" /><text x="1864" y="476.0" font-size="14" fill="white" font-family="monospace" dominant-baseline="initial">31</text><rect x="1666" y="443.0" width="188" height="1" fill="white" fill-opacity="0.2" /><rect x="1666" y="410.0" width="188" height="1" fill="white" fill-opacity="0.2" /><rect x="1666" y="377.0" width="188" height="1" fill="white" fill-opacity="0.2" /><rect x="1666" y="344.0" width="188" height="1" fill="white" fill-opacity="0.2" /><rect x="1666" y="311.0" width="188" height="1" fill="white" fill-opacity="0.2" /><rect x="1666" y="277.5" width="188" height="1" fill="white" fill-opacity="0.2" /><rect x="1666" y="244.5" width="188" height="1" fill="white" fill-opacity="0.5" /><text x="1864" y="244.5" font-size="14" fill="white" font-family="monospace" dominant-baseline="initial">32</text><rect x="1666" y="211.5" width="188" height="1" fill="white" fill-opacity="0.2" /><rect x="1666" y="178.5" width="188" height="1" fill="white" fill-opacity="0.2" /><rect x="1666" y="145.5" width="188" height="1" fill="white" fill-opacity="0.2" /><rect x="1666" y="112.5" width="188" height="1" fill="white" fill-opacity="0.2" /><rect x="1666" y="79.0" width="188" height="1" fill="white" fill-opacity="0.2" /><rect x="1666" y="46.0" width="188" height="1" fill="white" fill-opacity="0.2" /><rect x="1666" y="13.0" width="188" height="1" fill="white" fill-opacity="0.5" /><text x="1864" y="13.0" font-size="14" fill="white" font-family="monospace" dominant-baseline="initial">33</text><rect x="1666" y="476.2000000000007" width="188" height="1" fill="aqua" fill-opacity="0.75" /><text x="1666" y="472.2000000000007" font-size="14" fill="aqua" fill-opacity="0.75" font-family="monospace">Phrase C</text><rect x="1904" y="14.0" width="188" height="926.5" fill="black" /><rect x="1904" y="939.5" width="188" height="1" fill="white" fill-opacity="0.5" /><text x="2102" y="939.5" font-size="14" fill="white" font-family="monospace" dominant-baseline="initial">33</text><rect x="1904" y="906.5" width="188" height="1" fill="white" fill-opacity="0.2" /><rect x="1904" y="873.5" width="188" height="1" fill="white" fill-opacity="0.2" /><rect x="1904" y="840.0" width="188" height="1" fill="white" fill-opacity="0.2" /><rect x="1904" y="807.0" width="188" height="1" fill="white" fill-opacity="0.2" /><rect x="1904" y="774.0" width="188" height="1" fill="white" fill-opacity="0.2" /><rect x="1904" y="741.0" width="188" height="1" fill="white" fill-opacity="0.2" /><rect x="1904" y="708.0" width="188" height="1" fill="white" fill-opacity="0.5" /><text x="2102" y="708.0" font-size="14" fill="white" font-family="monospace" dominant-baseline="initial">34</text><rect x="1904" y="675.0" width="188" height="1" fill="white" fill-opacity="0.2" /><rect x="1904" y="641.5" width="188" height="1" fill="white" fill-opacity="0.2" /><rect x="1904" y="608.5" width="188" height="1" fill="white" fill-opacity="0.2" /><rect x="1904" y="575.5" width="188" height="1" fill="white" fill-opacity="0.2" /><rect x="1904" y="542.5" width="188" height="1" fill="white" fill-opacity="0.2" /><rect x="1904" y="509.5" width="188" height="1" fill="white" fill-opacity="0.2" /><rect x="1904" y="476.5" width="188" height="1" fill="white" fill-opacity="0.5" /><text x="2102" y="476.5" font-size="14" fill="white" font-family="monospace" dominant-baseline="initial">35</text><rect x="1904" y="443.0" width="188" height="1" fill="white" fill-opacity="0.2" /><rect x="1904" y="410.0" width="188" height="1" fill="white" fill-opacity="0.2" /><rect x="1904" y="377.0" width="188" height="1" fill="white" fill-opacity="0.2" /><rect x="1904" y="344.0" width="188" height="1" fill="white" fill-opacity="0.2" /><rect x="1904" y="311.0" width="188" height="1" fill="white" fill-opacity="0.2" /><rect x="1904" y="277.5" width="188" height="1" fill="white" fill-opacity="0.2" /><rect x="1904" y="244.5" width="188" height="1" fill="white" fill-opacity="0.5" /><text x="2102" y="244.5" font-size="14" fill="white" font-family="monospace" dominant-baseline="initial">36</text><rect x="1904" y="211.5" width="188" height="1" fill="white" fill-opacity="0.2" /><rect x="1904" y="178.5" width="188" height="1" fill="white" fill-opacity="0.2" /><rect x="1904" y="145.5" width="188" height="1" fill="white" fill-opacity="0.2" /><rect x="1904" y="112.5" width="188" height="1" fill="white" fill-opacity="0.2" /><rect x="1904" y="79.0" width="188" height="1" fill="white" fill-opacity="0.2" /><rect x="1904" y="46.0" width="188" height="1" fill="white" fill-opacity="0.2" /><rect x="1904" y="13.0" width="188" height="1" fill="white" fill-opacity="0.5" /><text x="2102" y="13.0" font-size="14" fill="white" font-family="monospace" dominant-baseline="initial">37</text><rect x="2142" y="14.0" width="188" height="926.5" fill="black" /><rect x="2142" y="939.5" width="188" height="1" fill="white" fill-opacity="0.5" /><text x="2340" y="939.5" font-size="14" fill="white" font-family="monospace" dominant-baseline="initial">37</text><rect x="2142" y="906.5" width="188" height="1" fill="white" fill-opacity="0.2" /><rect x="2142" y="873.5" width="188" height="1" fill="white" fill-opacity="0.2" /><rect x="2142" y="840.5" width="188" height="1" fill="white" fill-opacity="0.2" /><rect x="2142" y="807.0" width="188" height="1" fill="white" fill-opacity="0.2" /><rect x="2142" y="774.0" width="188" height="1" fill="white" fill-opacity="0.2" /><rect x="2142" y="741.0" width="188" height="1" fill="white" fill-opacity="0.2" /><rect x="2142" y="708.0" width="188" height="1" fill="white" fill-opacity="0.5" /><text x="2340" y="708.0" font-size="14" fill="white" font-family="monospace" dominant-baseline="initial">38</text><rect x="2142" y="675.0" width="188" height="1" fill="white" fill-opacity="0.2" /><rect x="2142" y="641.5" width="188" height="1" fill="white" fill-opacity="0.2" /><rect x="2142" y="608.5" width="188" height="1" fill="white" fill-opacity="0.2" /><rect x="2142" y="575.5" width="188" height="1" fill="white" fill-opacity="0.2" /><rect x="2142" y="542.5" width="188" height="1" fill="white" fill-opacity="0.2" /><rect x="2142" y="509.5" width="188" height="1" fill="white" fill-opacity="0.2" /><rect x="2142" y="476.5" width="188" height="1" fill="white" fill-opacity="0.5" /><text x="2340" y="476.5" font-size="14" fill="white" font-family="monospace" dominant-baseline="initial">39</text><rect x="2142" y="443.0" width="188" height="1" fill="white" fill-opacity="0.2" /><rect x="2142" y="410.0" width="188" height="1" fill="white" fill-opacity="0.2" /><rect x="2142" y="377.0" width="188" height="1" fill="white" fill-opacity="0.2" /><rect x="2142" y="344.0" width="188" height="1" fill="white" fill-opacity="0.2" /><rect x="2142" y="311.0" width="188" height="1" fill="white" fill-opacity="0.2" /><rect x="2142" y="278.0" width="188" height="1" fill="white" fill-opacity="0.2" /><rect x="2142" y="244.5" width="188" height="1" fill="white" fill-opacity="0.5" /><text x="2340" y="244.5" font-size="14" fill="white" font-family="monospace" dominant-baseline="initial">40</text><rect x="2142" y="211.5" width="188" height="1" fill="white" fill-opacity="0.2" /><rect x="2142" y="178.5" width="188" height="1" fill="white" fill-opacity="0.2" /><rect x="2142" y="145.5" width="188" height="1" fill="white" fill-opacity="0.2" /><rect x="2142" y="112.5" width="188" height="1" fill="white" fill-opacity="0.2" /><rect x="2142" y="79.0" width="188" height="1" fill="white" fill-opacity="0.2" /><rect x="2142" y="46.0" width="188" height="1" fill="white" fill-opacity="0.2" /><rect x="2142" y="13.0" width="188" height="1" fill="white" fill-opacity="0.5" /><text x="2340" y="13.0" font-size="14" fill="white" font-family="monospace" dominant-baseline="initial">41</text><rect x="2380" y="113.5" width="188" height="827.0" fill="black" /><rect x="2380" y="939.5" width="188" height="1" fill="white" fill-opacity="0.5" /><text x="2578" y="939.5" font-size="14" fill="white" font-family="monospace" dominant-baseline="initial">41</text><rect x="2380" y="873.5" width="188" height="1" fill="white" fill-opacity="0.2" /><rect x="2380" y="807.0" width="188" height="1" fill="white" fill-opacity="0.5" /><text x="2578" y="807.0" font-size="14" fill="white" font-family="monospace" dominant-baseline="initial">42</text><rect x="2380" y="774.0" width="188" height="1" fill="white" fill-opacity="0.2" /><rect x="2380" y="741.0" width="188" height="1" fill="white" fill-opacity="0.2" /><rect x="2380" y="708.0" width="188" height="1" fill="white" fill-opacity="0.2" /><rect x="2380" y="675.0" width="188" height="1" fill="white" fill-opacity="0.2" /><rect x="2380" y="642.0" width="188" height="1" fill="white" fill-opacity="0.2" /><rect x="2380" y="608.5" width="188" height="1" fill="white" fill-opacity="0.2" /><rect x="2380" y="575.5" width="188" height="1" fill="white" fill-opacity="0.5" /><text x="2578" y="575.5" font-size="14" fill="white" font-family="monospace" dominant-baseline="initial">43</text><rect x="2380" y="542.5" width="188" height="1" fill="white" fill-opacity="0.2" /><rect x="2380" y="509.5" width="188" height="1" fill="white" fill-opacity="0.2" /><rect x="2380" y="476.5" width="188" height="1" fill="white" fill-opacity="0.2" /><rect x="2380" y="443.0" width="188" height="1" fill="white" fill-opacity="0.2" /><rect x="2380" y="410.0" width="188" height="1" fill="white" fill-opacity="0.2" /><rect x="2380" y="377.0" width="188" height="1" fill="white" fill-opacity="0.2" /><rect x="2380" y="344.0" width="188" height="1" fill="white" fill-opacity="0.5" /><text x="2578" y="344.0" font-size="14" fill="white" font-family="monospace" dominant-baseline="initial">44</text><rect x="2380" y="311.0" width="188" height="1" fill="white" fill-opacity="0.2" /><rect x="2380" y="278.0" width="188" height="1" fill="white" fill-opacity="0.2" /><rect x="2380" y="244.5" width="188" height="1" fill="white" fill-opacity="0.2" /><rect x="2380" y="211.5" width="188" height="1" fill="white" fill-opacity="0.2" /><rect x="2380" y="178.5" width="188" height="1" fill="white" fill-opacity="0.2" /><rect x="2380" y="145.5" width="188" height="1" fill="white" fill-opacity="0.2" /><rect x="2380" y="112.5" width="188" height="1" fill="white" fill-opacity="0.5" /><text x="2578" y="112.5" font-size="14" fill="white" font-family="monospace" dominant-baseline="initial">45</text><rect x="2380" y="807.25" width="188" height="1" fill="aqua" fill-opacity="0.75" /><text x="2380" y="803.25" font-size="14" fill="aqua" fill-opacity="0.75" font-family="monospace">Phrase B</text><rect x="2618" y="14.0" width="188" height="926.5" fill="black" /><rect x="2618" y="939.5" width="188" height="1" fill="white" fill-opacity="0.5" /><text x="2816" y="939.5" font-size="14" fill="white" font-family="monospace" dominant-baseline="initial">45</text><rect x="2618" y="906.5" width="188" height="1" fill="white" fill-opacity="0.2" /><rect x="2618" y="873.0" width="188" height="1" fill="white" fill-opacity="0.2" /><rect x="2618" y="840.0" width="188" height="1" fill="white" fill-opacity="0.2" /><rect x="2618" y="807.0" width="188" height="1" fill="white" fill-opacity="0.2" /><rect x="2618" y="774.0" width="188" height="1" fill="white" fill-opacity="0.2" /><rect x="2618" y="741.0" width="188" height="1" fill="white" fill-opacity="0.2" /><rect x="2618" y="707.5" width="188" height="1" fill="white" fill-opacity="0.5" /><text x="2816" y="707.5" font-size="14" fill="white" font-family="monospace" dominant-baseline="initial">46</text><rect x="2618" y="674.5" width="188" height="1" fill="white" fill-opacity="0.2" /><rect x="2618" y="641.5" width="188" height="1" fill="white" fill-opacity="0.2" /><rect x="2618" y="608.5" width="188" height="1" fill="white" fill-opacity="0.2" /><rect x="2618" y="575.5" width="188" height="1" fill="white" fill-opacity="0.2" /><rect x="2618" y="542.5" width="188" height="1" fill="white" fill-opacity="0.2" /><rect x="2618" y="509.0" width="188" height="1" fill="white" fill-opacity="0.2" /><rect x="2618" y="476.0" width="188" height="1" fill="white" fill-opacity="0.5" /><text x="2816" y="476.0" font-size="14" fill="white" font-family="monospace" dominant-baseline="initial">47</text><rect x="2618" y="443.0" width="188" height="1" fill="white" fill-opacity="0.2" /><rect x="2618" y="410.0" width="188" height="1" fill="white" fill-opacity="0.2" /><rect x="2618" y="377.0" width="188" height="1" fill="white" fill-opacity="0.2" /><rect x="2618" y="344.0" width="188" height="1" fill="white" fill-opacity="0.2" /><rect x="2618" y="310.5" width="188" height="1" fill="white" fill-opacity="0.2" /><rect x="2618" y="277.5" width="188" height="1" fill="white" fill-opacity="0.2" /><rect x="2618" y="244.5" width="188" height="1" fill="white" fill-opacity="0.5" /><text x="2816" y="244.5" font-size="14" fill="white" font-family="monospace" dominant-baseline="initial">48</text><rect x="2618" y="211.5" width="188" height="1" fill="white" fill-opacity="0.2" /><rect x="2618" y="178.5" width="188" height="1" fill="white" fill-opacity="0.2" /><rect x="2618" y="145.0" width="188" height="1" fill="white" fill-opacity="0.2" /><rect x="2618" y="112.0" width="188" height="1" fill="white" fill-opacity="0.2" /><rect x="2618" y="79.0" width="188" height="1" fill="white" fill-opacity="0.2" /><rect x="2618" y="46.0" width="188" height="1" fill="white" fill-opacity="0.2" /><rect x="2618" y="13.0" width="188" height="1" fill="white" fill-opacity="0.5" /><text x="2816" y="13.0" font-size="14" fill="white" font-family="monospace" dominant-baseline="initial">49</text><rect x="2856" y="146.5" width="188" height="794.0" fill="black" /><rect x="2856" y="939.5" width="188" height="1" fill="white" fill-opacity="0.5" /><text x="3054" y="939.5" font-size="14" fill="white" font-family="monospace" dominant-baseline="initial">49</text><rect x="2856" y="906.5" width="188" height="1" fill="white" fill-opacity="0.2" /><rect x="2856" y="873.0" width="188" height="1" fill="white" fill-opacity="0.2" /><rect x="2856" y="840.0" width="188" height="1" fill="white" fill-opacity="0.2" /><rect x="2856" y="807.0" width="188" height="1" fill="white" fill-opacity="0.2" /><rect x="2856" y="774.0" width="188" height="1" fill="white" fill-opacity="0.2" /><rect x="2856" y="741.0" width="188" height="1" fill="white" fill-opacity="0.5" /><text x="3054" y="741.0" font-size="14" fill="white" font-family="monospace" dominant-baseline="initial">50</text><rect x="2856" y="708.0" width="188" height="1" fill="white" fill-opacity="0.2" /><rect x="2856" y="674.5" width="188" height="1" fill="white" fill-opacity="0.2" /><rect x="2856" y="641.5" width="188" height="1" fill="white" fill-opacity="0.2" /><rect x="2856" y="608.5" width="188" height="1" fill="white" fill-opacity="0.2" /><rect x="2856" y="575.5" width="188" height="1" fill="white" fill-opacity="0.2" /><rect x="2856" y="542.5" width="188" height="1" fill="white" fill-opacity="0.5" /><text x="3054" y="542.5" font-size="14" fill="white" font-family="monospace" dominant-baseline="initial">51</text><rect x="2856" y="509.0" width="188" height="1" fill="white" fill-opacity="0.2" /><rect x="2856" y="476.0" width="188" height="1" fill="white" fill-opacity="0.2" /><rect x="2856" y="443.0" width="188" height="1" fill="white" fill-opacity="0.2" /><rect x="2856" y="410.0" width="188" height="1" fill="white" fill-opacity="0.5" /><text x="3054" y="410.0" font-size="14" fill="white" font-family="monospace" dominant-baseline="initial">52</text><rect x="2856" y="344.0" width="188" height="1" fill="white" fill-opacity="0.2" /><rect x="2856" y="277.5" width="188" height="1" fill="white" fill-opacity="0.2" /><rect x="2856" y="211.5" width="188" height="1" fill="white" fill-opacity="0.2" /><rect x="2856" y="145.5" width="188" height="1" fill="white" fill-opacity="0.5" /><text x="3054" y="145.5" font-size="14" fill="white" font-family="monospace" dominant-baseline="initial">53</text><rect x="2856" y="410.0500000000011" width="188" height="1" fill="aqua" fill-opacity="0.75" /><text x="2856" y="406.0500000000011" font-size="14" fill="aqua" fill-opacity="0.75" font-family="monospace">Outro</text><rect x="3094" y="426.0" width="188" height="514.5" fill="black" /><rect x="3094" y="939.5" width="188" height="1" fill="white" fill-opacity="0.5" /><text x="3292" y="939.5" font-size="14" fill="white" font-family="monospace" dominant-baseline="initial">53</text><rect x="3094" y="873.0" width="188" height="1" fill="white" fill-opacity="0.2" /><rect x="3094" y="807.0" width="188" height="1" fill="white" fill-opacity="0.2" /><rect x="3094" y="740.5" width="188" height="1" fill="white" fill-opacity="0.2" /><rect x="3094" y="674.5" width="188" height="1" fill="white" fill-opacity="0.5" /><text x="3292" y="674.5" font-size="14" fill="white" font-family="monospace" dominant-baseline="initial">54</text></svg>