<?xml version="1.0" encoding="UTF-8"?><svg xmlns="http://www.w3.org/2000/svg" xmlns:xlink="http://www.w3.org/1999/xlink"     width="2166" height="1261.5" viewBox="0 0 2166 1261.5"><defs></defs><rect x="0.0" y="178.0" width="12.0" height="3" fill="#ff3c3c" stroke="#c71f1f" /><rect x="0.0" y="200.5" width="12.0" height="3" fill="#ff3c3c" stroke="#c71f1f" /><rect x="0.0" y="223.0" width="12.0" height="3" fill="#ff3c3c" stroke="#c71f1f" /><rect x="0.0" y="245.0" width="12.0" height="3" fill="#ff3c3c" stroke="#c71f1f" /><rect x="0.0" y="312.0" width="12.0" height="3" fill="#ff3c3c" stroke="#c71f1f" /><rect x="0.0" y="334.0" width="12.0" height="3" fill="#ff3c3c" stroke="#c71f1f" /><rect x="0.0" y="356.5" width="12.0" height="3" fill="#ff3c3c" stroke="#c71f1f" /><rect x="0.0" y="378.5" width="12.0" height="3" fill="#ff3c3c" stroke="#c71f1f" /><rect x="0.0" y="445.5" width="12.0" height="3" fill="#ff3c3c" stroke="#c71f1f" /><rect x="13.0" y="490.0" width="12.0" height="3" fill="#35df39" stroke="#03aa10" /><rect x="13.0" y="534.5" width="12.0" height="3" fill="#35df39" stroke="#03aa10" /><rect x="39.0" y="579.0" width="12.0" height="3" fill="#fff874" stroke="#eb9c26" /><rect x="13.0" y="601.5" width="12.0" height="3" fill="#35df39" stroke="#03aa10" /><rect x="13.0" y="624.0" width="12.0" height="3" fill="#35df39" stroke="#03aa10" /><rect x="0.0" y="668.5" width="12.0" height="3" fill="#ff3c3c" stroke="#c71f1f" /><rect x="13.0" y="690.5" width="12.0" height="3" fill="#35df39" stroke="#03aa10" /><rect x="127.0" y="22.0" width="12.0" height="3" fill="#35df39" stroke="#03aa10" /><rect x="127.0" y="44.5" width="12.0" height="3" fill="#35df39" stroke="#03aa10" /><rect x="127.0" y="66.5" width="12.0" height="3" fill="#35df39" stroke="#03aa10" /><rect x="140.0" y="89.0" width="12.0" height="3" fill="#80c9ff" stroke="#0b6cba" /><rect x="114.0" y="111.5" width="12.0" height="3" fill="#ff3c3c" stroke="#c71f1f" /><rect x="127.0" y="133.5" width="12.0" height="3" fill="#35df39" stroke="#03aa10" /><rect x="140.0" y="156.0" width="12.0" height="3" fill="#80c9ff" stroke="#0b6cba" /><rect x="127.0" y="178.0" width="12.0" height="3" fill="#35df39" stroke="#03aa10" /><rect x="153.0" y="222.5" width="12.0" height="3" fill="#fff874" stroke="#eb9c26" /><rect x="127.0" y="245.0" width="12.0" height="3" fill="#35df39" stroke="#03aa10" /><rect x="114.0" y="267.0" width="12.0" height="3" fill="#ff3c3c" stroke="#c71f1f" /><rect x="127.0" y="312.0" width="12.0" height="3" fill="#35df39" stroke="#03aa10" /><rect x="127.0" y="334.0" width="12.0" height="3" fill="#35df39" stroke="#03aa10" /><rect x="127.0" y="356.5" width="12.0" height="3" fill="#35df39" stroke="#03aa10" /><rect x="114.0" y="378.5" width="12.0" height="3" fill="#ff3c3c" stroke="#c71f1f" /><rect x="114.0" y="423.0" width="12.0" height="3" fill="#ff3c3c" stroke="#c71f1f" /><rect x="140.0" y="445.5" width="12.0" height="3" fill="#80c9ff" stroke="#0b6cba" /><rect x="114.0" y="467.5" width="12.0" height="3" fill="#ff3c3c" stroke="#c71f1f" /><rect x="140.0" y="490.0" width="12.0" height="3" fill="#80c9ff" stroke="#0b6cba" /><rect x="114.0" y="512.0" width="12.0" height="3" fill="#ff3c3c" stroke="#c71f1f" /><rect x="127.0" y="534.5" width="12.0" height="3" fill="#35df39" stroke="#03aa10" /><rect x="153.0" y="579.0" width="12.0" height="3" fill="#fff874" stroke="#eb9c26" /><rect x="127.0" y="601.5" width="12.0" height="3" fill="#35df39" stroke="#03aa10" /><rect x="127.0" y="612.5" width="12.0" height="3" fill="#35df39" stroke="#03aa10" /><rect x="127.0" y="623.5" width="12.0" height="3" fill="#35df39" stroke="#03aa10" /><rect x="114.0" y="646.0" width="12.0" height="3" fill="#ff3c3c" stroke="#c71f1f" /><rect x="127.0" y="690.5" width="12.0" height="3" fill="#35df39" stroke="#03aa10" /><rect x="254.0" y="22.5" width="12.0" height="3" fill="#80c9ff" stroke="#0b6cba" /><rect x="228.0" y="67.0" width="12.0" height="3" fill="#ff3c3c" stroke="#c71f1f" /><rect x="254.0" y="89.5" width="12.0" height="3" fill="#80c9ff" stroke="#0b6cba" /><rect x="228.0" y="111.5" width="12.0" height="3" fill="#ff3c3c" stroke="#c71f1f" /><rect x="254.0" y="156.0" width="12.0" height="3" fill="#80c9ff" stroke="#0b6cba" /><rect x="228.0" y="178.5" width="12.0" height="3" fill="#ff3c3c" stroke="#c71f1f" /><rect x="228.0" y="200.5" width="12.0" height="3" fill="#ff3c3c" stroke="#c71f1f" /><rect x="228.0" y="223.0" width="12.0" height="3" fill="#ff3c3c" stroke="#c71f1f" /><rect x="228.0" y="245.5" width="12.0" height="3" fill="#ff3c3c" stroke="#c71f1f" /><rect x="228.0" y="312.0" width="12.0" height="3" fill="#ff3c3c" stroke="#c71f1f" /><rect x="228.0" y="334.5" width="12.0" height="3" fill="#ff3c3c" stroke="#c71f1f" /><rect x="228.0" y="356.5" width="12.0" height="3" fill="#ff3c3c" stroke="#c71f1f" /><rect x="228.0" y="379.0" width="12.0" height="3" fill="#ff3c3c" stroke="#c71f1f" /><rect x="228.0" y="446.0" width="12.0" height="3" fill="#ff3c3c" stroke="#c71f1f" /><rect x="241.0" y="490.5" width="12.0" height="3" fill="#35df39" stroke="#03aa10" /><rect x="241.0" y="535.0" width="12.0" height="3" fill="#35df39" stroke="#03aa10" /><rect x="267.0" y="579.5" width="12.0" height="3" fill="#fff874" stroke="#eb9c26" /><rect x="241.0" y="601.5" width="12.0" height="3" fill="#35df39" stroke="#03aa10" /><rect x="228.0" y="624.0" width="12.0" height="3" fill="#ff3c3c" stroke="#c71f1f" /><rect x="228.0" y="668.5" width="12.0" height="3" fill="#ff3c3c" stroke="#c71f1f" /><rect x="228.0" y="691.0" width="12.0" height="3" fill="#ff3c3c" stroke="#c71f1f" /><rect x="368.0" y="22.5" width="12.0" height="3" fill="#80c9ff" stroke="#0b6cba" /><rect x="342.0" y="67.0" width="12.0" height="3" fill="#ff3c3c" stroke="#c71f1f" /><rect x="342.0" y="89.0" width="12.0" height="3" fill="#ff3c3c" stroke="#c71f1f" /><rect x="342.0" y="134.0" width="12.0" height="3" fill="#ff3c3c" stroke="#c71f1f" /><rect x="355.0" y="178.5" width="12.0" height="3" fill="#35df39" stroke="#03aa10" /><rect x="368.0" y="223.0" width="12.0" height="3" fill="#80c9ff" stroke="#0b6cba" /><rect x="355.0" y="245.0" width="12.0" height="3" fill="#35df39" stroke="#03aa10" /><rect x="342.0" y="267.5" width="12.0" height="3" fill="#ff3c3c" stroke="#c71f1f" /><rect x="355.0" y="312.0" width="12.0" height="3" fill="#35df39" stroke="#03aa10" /><rect x="355.0" y="334.5" width="12.0" height="3" fill="#35df39" stroke="#03aa10" /><rect x="368.0" y="379.0" width="12.0" height="3" fill="#80c9ff" stroke="#0b6cba" /><rect x="342.0" y="401.0" width="12.0" height="3" fill="#ff3c3c" stroke="#c71f1f" /><rect x="342.0" y="412.0" width="12.0" height="3" fill="#ff3c3c" stroke="#c71f1f" /><rect x="342.0" y="423.5" width="12.0" height="3" fill="#ff3c3c" stroke="#c71f1f" /><rect x="368.0" y="445.5" width="12.0" height="3" fill="#80c9ff" stroke="#0b6cba" /><rect x="355.0" y="490.0" width="12.0" height="3" fill="#35df39" stroke="#03aa10" /><rect x="342.0" y="535.0" width="12.0" height="3" fill="#ff3c3c" stroke="#c71f1f" /><rect x="368.0" y="579.5" width="12.0" height="3" fill="#80c9ff" stroke="#0b6cba" /><rect x="342.0" y="601.5" width="12.0" height="3" fill="#ff3c3c" stroke="#c71f1f" /><rect x="368.0" y="624.0" width="12.0" height="3" fill="#80c9ff" stroke="#0b6cba" /><rect x="342.0" y="646.0" width="12.0" height="3" fill="#ff3c3c" stroke="#c71f1f" /><rect x="342.0" y="690.5" width="12.0" height="3" fill="#ff3c3c" stroke="#c71f1f" /><rect x="482.0" y="22.5" width="12.0" height="3" fill="#80c9ff" stroke="#0b6cba" /><rect x="469.0" y="67.0" width="12.0" height="3" fill="#35df39" stroke="#03aa10" /><rect x="469.0" y="89.0" width="12.0" height="3" fill="#35df39" stroke="#03aa10" /><rect x="482.0" y="111.5" width="12.0" height="3" fill="#80c9ff" stroke="#0b6cba" /><rect x="456.0" y="178.0" width="12.0" height="3" fill="#ff3c3c" stroke="#c71f1f" /><rect x="456.0" y="200.5" width="12.0" height="3" fill="#ff3c3c" stroke="#c71f1f" /><rect x="456.0" y="223.0" width="12.0" height="3" fill="#ff3c3c" stroke="#c71f1f" /><rect x="456.0" y="245.0" width="12.0" height="3" fill="#ff3c3c" stroke="#c71f1f" /><rect x="456.0" y="289.5" width="12.0" height="3" fill="#ff3c3c" stroke="#c71f1f" /><rect x="482.0" y="334.0" width="12.0" height="3" fill="#80c9ff" stroke="#0b6cba" /><rect x="456.0" y="378.5" width="12.0" height="3" fill="#ff3c3c" stroke="#c71f1f" /><rect x="469.0" y="423.0" width="12.0" height="3" fill="#35df39" stroke="#03aa10" /><rect x="456.0" y="445.5" width="12.0" height="3" fill="#ff3c3c" stroke="#c71f1f" /><rect x="469.0" y="534.5" width="12.0" height="3" fill="#35df39" stroke="#03aa10" /><rect x="495.0" y="579.0" width="12.0" height="3" fill="#fff874" stroke="#eb9c26" /><rect x="482.0" y="601.5" width="12.0" height="3" fill="#80c9ff" stroke="#0b6cba" /><rect x="469.0" y="623.5" width="12.0" height="3" fill="#35df39" stroke="#03aa10" /><rect x="482.0" y="668.5" width="12.0" height="3" fill="#80c9ff" stroke="#0b6cba" /><rect x="482.0" y="690.5" width="12.0" height="3" fill="#80c9ff" stroke="#0b6cba" /><rect x="622.0" y="22.0" width="12.0" height="3" fill="#ff83f4" stroke="#d002bc" /><rect x="596.0" y="66.5" width="12.0" height="3" fill="#80c9ff" stroke="#0b6cba" /><rect x="596.0" y="89.0" width="12.0" height="3" fill="#80c9ff" stroke="#0b6cba" /><rect x="609.0" y="133.5" width="12.0" height="3" fill="#fff874" stroke="#eb9c26" /><rect x="596.0" y="178.0" width="12.0" height="3" fill="#80c9ff" stroke="#0b6cba" /><rect x="622.0" y="222.5" width="12.0" height="3" fill="#ff83f4" stroke="#d002bc" /><rect x="596.0" y="245.0" width="12.0" height="3" fill="#80c9ff" stroke="#0b6cba" /><rect x="596.0" y="267.0" width="12.0" height="3" fill="#80c9ff" stroke="#0b6cba" /><rect x="609.0" y="311.5" width="12.0" height="3" fill="#fff874" stroke="#eb9c26" /><rect x="609.0" y="334.0" width="12.0" height="3" fill="#fff874" stroke="#eb9c26" /><rect x="583.0" y="378.5" width="12.0" height="3" fill="#35df39" stroke="#03aa10" /><rect x="609.0" y="445.5" width="12.0" height="3" fill="#fff874" stroke="#eb9c26" /><rect x="596.0" y="490.0" width="12.0" height="3" fill="#80c9ff" stroke="#0b6cba" /><rect x="570.0" y="534.5" width="12.0" height="3" fill="#ff3c3c" stroke="#c71f1f" /><rect x="596.0" y="579.0" width="12.0" height="3" fill="#80c9ff" stroke="#0b6cba" /><rect x="570.0" y="601.5" width="12.0" height="3" fill="#ff3c3c" stroke="#c71f1f" /><rect x="570.0" y="623.5" width="12.0" height="3" fill="#ff3c3c" stroke="#c71f1f" /><rect x="596.0" y="646.0" width="12.0" height="3" fill="#80c9ff" stroke="#0b6cba" /><rect x="570.0" y="668.0" width="12.0" height="3" fill="#ff3c3c" stroke="#c71f1f" /><rect x="570.0" y="690.5" width="12.0" height="3" fill="#ff3c3c" stroke="#c71f1f" /><rect x="583.0" y="712.5" width="12.0" height="3" fill="#35df39" stroke="#03aa10" /><rect x="609.0" y="735.0" width="12.0" height="3" fill="#fff874" stroke="#eb9c26" /><rect x="583.0" y="757.5" width="12.0" height="3" fill="#35df39" stroke="#03aa10" /><rect x="583.0" y="779.5" width="12.0" height="3" fill="#35df39" stroke="#03aa10" /><rect x="609.0" y="802.0" width="12.0" height="3" fill="#fff874" stroke="#eb9c26" /><rect x="697.0" y="0.0" width="12.0" height="3" fill="#35df39" stroke="#03aa10" /><rect x="710.0" y="66.5" width="12.0" height="3" fill="#80c9ff" stroke="#0b6cba" /><rect x="723.0" y="111.5" width="12.0" height="3" fill="#fff874" stroke="#eb9c26" /><rect x="723.0" y="156.0" width="12.0" height="3" fill="#fff874" stroke="#eb9c26" /><rect x="736.0" y="156.0" width="12.0" height="3" fill="#ff83f4" stroke="#d002bc" /><rect x="684.0" y="312.0" width="12.0" height="3" fill="#ff3c3c" stroke="#c71f1f" /><rect x="710.0" y="378.5" width="12.0" height="3" fill="#80c9ff" stroke="#0b6cba" /><rect x="697.0" y="423.0" width="12.0" height="3" fill="#35df39" stroke="#03aa10" /><rect x="710.0" y="445.5" width="12.0" height="3" fill="#80c9ff" stroke="#0b6cba" /><rect x="684.0" y="490.0" width="12.0" height="3" fill="#ff3c3c" stroke="#c71f1f" /><rect x="697.0" y="512.5" width="12.0" height="3" fill="#35df39" stroke="#03aa10" /><rect x="697.0" y="557.0" width="12.0" height="3" fill="#35df39" stroke="#03aa10" /><rect x="710.0" y="579.0" width="12.0" height="3" fill="#80c9ff" stroke="#0b6cba" /><rect x="697.0" y="623.5" width="12.0" height="3" fill="#35df39" stroke="#03aa10" /><rect x="684.0" y="690.5" width="12.0" height="3" fill="#ff3c3c" stroke="#c71f1f" /><rect x="710.0" y="757.5" width="12.0" height="3" fill="#80c9ff" stroke="#0b6cba" /><rect x="697.0" y="824.0" width="12.0" height="3" fill="#35df39" stroke="#03aa10" /><rect x="710.0" y="891.0" width="12.0" height="3" fill="#80c9ff" stroke="#0b6cba" /><rect x="697.0" y="913.0" width="12.0" height="3" fill="#35df39" stroke="#03aa10" /><rect x="684.0" y="935.5" width="12.0" height="3" fill="#ff3c3c" stroke="#c71f1f" /><rect x="723.0" y="1002.5" width="12.0" height="3" fill="#fff874" stroke="#eb9c26" /><rect x="697.0" y="1047.0" width="12.0" height="3" fill="#35df39" stroke="#03aa10" /><rect x="710.0" y="1069.0" width="12.0" height="3" fill="#80c9ff" stroke="#0b6cba" /><rect x="684.0" y="1113.5" width="12.0" height="3" fill="#ff3c3c" stroke="#c71f1f" /><rect x="697.0" y="1180.5" width="12.0" height="3" fill="#35df39" stroke="#03aa10" /><rect x="710.0" y="1203.0" width="12.0" height="3" fill="#80c9ff" stroke="#0b6cba" /><rect x="798.0" y="0.0" width="12.0" height="3" fill="#ff3c3c" stroke="#c71f1f" /><rect x="811.0" y="66.5" width="12.0" height="3" fill="#35df39" stroke="#03aa10" /><rect x="824.0" y="133.5" width="12.0" height="3" fill="#80c9ff" stroke="#0b6cba" /><rect x="798.0" y="200.5" width="12.0" height="3" fill="#ff3c3c" stroke="#c71f1f" /><rect x="811.0" y="267.0" width="12.0" height="3" fill="#35df39" stroke="#03aa10" /><rect x="798.0" y="312.0" width="12.0" height="3" fill="#ff3c3c" stroke="#c71f1f" /><rect x="824.0" y="378.5" width="12.0" height="3" fill="#80c9ff" stroke="#0b6cba" /><rect x="837.0" y="423.0" width="12.0" height="3" fill="#fff874" stroke="#eb9c26" /><rect x="811.0" y="467.5" width="12.0" height="3" fill="#35df39" stroke="#03aa10" /><rect x="824.0" y="490.0" width="12.0" height="3" fill="#80c9ff" stroke="#0b6cba" /><rect x="824.0" y="512.5" width="12.0" height="3" fill="#80c9ff" stroke="#0b6cba" /><rect x="837.0" y="534.5" width="12.0" height="3" fill="#fff874" stroke="#eb9c26" /><rect x="837.0" y="557.0" width="12.0" height="3" fill="#fff874" stroke="#eb9c26" /><rect x="824.0" y="579.0" width="12.0" height="3" fill="#80c9ff" stroke="#0b6cba" /><rect x="824.0" y="601.5" width="12.0" height="3" fill="#80c9ff" stroke="#0b6cba" /><rect x="811.0" y="623.5" width="12.0" height="3" fill="#35df39" stroke="#03aa10" /><rect x="824.0" y="690.5" width="12.0" height="3" fill="#80c9ff" stroke="#0b6cba" /><rect x="811.0" y="735.0" width="12.0" height="3" fill="#35df39" stroke="#03aa10" /><rect x="798.0" y="757.5" width="12.0" height="3" fill="#ff3c3c" stroke="#c71f1f" /><rect x="824.0" y="802.0" width="12.0" height="3" fill="#80c9ff" stroke="#0b6cba" /><rect x="824.0" y="824.0" width="12.0" height="3" fill="#80c9ff" stroke="#0b6cba" /><rect x="811.0" y="846.5" width="12.0" height="3" fill="#35df39" stroke="#03aa10" /><rect x="811.0" y="868.5" width="12.0" height="3" fill="#35df39" stroke="#03aa10" /><rect x="798.0" y="891.0" width="12.0" height="3" fill="#ff3c3c" stroke="#c71f1f" /><rect x="798.0" y="913.5" width="12.0" height="3" fill="#ff3c3c" stroke="#c71f1f" /><rect x="811.0" y="935.5" width="12.0" height="3" fill="#35df39" stroke="#03aa10" /><rect x="798.0" y="1002.5" width="12.0" height="3" fill="#ff3c3c" stroke="#c71f1f" /><rect x="798.0" y="1047.0" width="12.0" height="3" fill="#ff3c3c" stroke="#c71f1f" /><rect x="811.0" y="1069.0" width="12.0" height="3" fill="#35df39" stroke="#03aa10" /><rect x="811.0" y="1091.5" width="12.0" height="3" fill="#35df39" stroke="#03aa10" /><rect x="811.0" y="1114.0" width="12.0" height="3" fill="#35df39" stroke="#03aa10" /><rect x="798.0" y="1136.0" width="12.0" height="3" fill="#ff3c3c" stroke="#c71f1f" /><rect x="811.0" y="1158.5" width="12.0" height="3" fill="#35df39" stroke="#03aa10" /><rect x="811.0" y="1180.5" width="12.0" height="3" fill="#35df39" stroke="#03aa10" /><rect x="824.0" y="1203.0" width="12.0" height="3" fill="#80c9ff" stroke="#0b6cba" /><rect x="824.0" y="1225.0" width="12.0" height="3" fill="#80c9ff" stroke="#0b6cba" /><rect x="938.0" y="0.0" width="12.0" height="3" fill="#80c9ff" stroke="#0b6cba" /><rect x="912.0" y="67.0" width="12.0" height="3" fill="#ff3c3c" stroke="#c71f1f" /><rect x="912.0" y="111.5" width="12.0" height="3" fill="#ff3c3c" stroke="#c71f1f" /><rect x="938.0" y="133.5" width="12.0" height="3" fill="#80c9ff" stroke="#0b6cba" /><rect x="925.0" y="178.0" width="12.0" height="3" fill="#35df39" stroke="#03aa10" /><rect x="925.0" y="200.5" width="12.0" height="3" fill="#35df39" stroke="#03aa10" /><rect x="938.0" y="222.5" width="12.0" height="3" fill="#80c9ff" stroke="#0b6cba" /><rect x="938.0" y="245.0" width="12.0" height="3" fill="#80c9ff" stroke="#0b6cba" /><rect x="951.0" y="267.5" width="12.0" height="3" fill="#fff874" stroke="#eb9c26" /><rect x="951.0" y="289.5" width="12.0" height="3" fill="#fff874" stroke="#eb9c26" /><rect x="938.0" y="312.0" width="12.0" height="3" fill="#80c9ff" stroke="#0b6cba" /><rect x="925.0" y="378.5" width="12.0" height="3" fill="#35df39" stroke="#03aa10" /><rect x="951.0" y="423.0" width="12.0" height="3" fill="#fff874" stroke="#eb9c26" /><rect x="925.0" y="445.5" width="12.0" height="3" fill="#35df39" stroke="#03aa10" /><rect x="925.0" y="467.5" width="12.0" height="3" fill="#35df39" stroke="#03aa10" /><rect x="938.0" y="490.0" width="12.0" height="3" fill="#80c9ff" stroke="#0b6cba" /><rect x="938.0" y="512.5" width="12.0" height="3" fill="#80c9ff" stroke="#0b6cba" /><rect x="925.0" y="534.5" width="12.0" height="3" fill="#35df39" stroke="#03aa10" /><rect x="912.0" y="601.5" width="12.0" height="3" fill="#ff3c3c" stroke="#c71f1f" /><rect x="938.0" y="646.0" width="12.0" height="3" fill="#80c9ff" stroke="#0b6cba" /><rect x="925.0" y="668.0" width="12.0" height="3" fill="#35df39" stroke="#03aa10" /><rect x="925.0" y="690.5" width="12.0" height="3" fill="#35df39" stroke="#03aa10" /><rect x="912.0" y="713.0" width="12.0" height="3" fill="#ff3c3c" stroke="#c71f1f" /><rect x="912.0" y="735.0" width="12.0" height="3" fill="#ff3c3c" stroke="#c71f1f" /><rect x="925.0" y="757.5" width="12.0" height="3" fill="#35df39" stroke="#03aa10" /><rect x="912.0" y="824.0" width="12.0" height="3" fill="#ff3c3c" stroke="#c71f1f" /><rect x="938.0" y="868.5" width="12.0" height="3" fill="#80c9ff" stroke="#0b6cba" /><rect x="925.0" y="891.0" width="12.0" height="3" fill="#35df39" stroke="#03aa10" /><rect x="912.0" y="958.0" width="12.0" height="3" fill="#ff3c3c" stroke="#c71f1f" /><rect x="1039.0" y="0.0" width="12.0" height="3" fill="#35df39" stroke="#03aa10" /><rect x="1052.0" y="44.5" width="12.0" height="3" fill="#80c9ff" stroke="#0b6cba" /><rect x="1039.0" y="67.0" width="12.0" height="3" fill="#35df39" stroke="#03aa10" /><rect x="1026.0" y="89.5" width="12.0" height="3" fill="#ff3c3c" stroke="#c71f1f" /><rect x="1039.0" y="134.0" width="12.0" height="3" fill="#35df39" stroke="#03aa10" /><rect x="1039.0" y="156.0" width="12.0" height="3" fill="#35df39" stroke="#03aa10" /><rect x="1026.0" y="200.5" width="12.0" height="3" fill="#ff3c3c" stroke="#c71f1f" /><rect x="1026.0" y="223.0" width="12.0" height="3" fill="#ff3c3c" stroke="#c71f1f" /><rect x="1026.0" y="245.0" width="12.0" height="3" fill="#ff3c3c" stroke="#c71f1f" /><rect x="1052.0" y="267.5" width="12.0" height="3" fill="#80c9ff" stroke="#0b6cba" /><rect x="1026.0" y="290.0" width="12.0" height="3" fill="#ff3c3c" stroke="#c71f1f" /><rect x="1039.0" y="312.0" width="12.0" height="3" fill="#35df39" stroke="#03aa10" /><rect x="1052.0" y="334.5" width="12.0" height="3" fill="#80c9ff" stroke="#0b6cba" /><rect x="1039.0" y="356.5" width="12.0" height="3" fill="#35df39" stroke="#03aa10" /><rect x="1052.0" y="401.0" width="12.0" height="3" fill="#80c9ff" stroke="#0b6cba" /><rect x="1039.0" y="423.5" width="12.0" height="3" fill="#35df39" stroke="#03aa10" /><rect x="1026.0" y="445.5" width="12.0" height="3" fill="#ff3c3c" stroke="#c71f1f" /><rect x="1039.0" y="490.5" width="12.0" height="3" fill="#35df39" stroke="#03aa10" /><rect x="1039.0" y="512.5" width="12.0" height="3" fill="#35df39" stroke="#03aa10" /><rect x="1039.0" y="535.0" width="12.0" height="3" fill="#35df39" stroke="#03aa10" /><rect x="1026.0" y="557.0" width="12.0" height="3" fill="#ff3c3c" stroke="#c71f1f" /><rect x="1026.0" y="601.5" width="12.0" height="3" fill="#ff3c3c" stroke="#c71f1f" /><rect x="1052.0" y="624.0" width="12.0" height="3" fill="#80c9ff" stroke="#0b6cba" /><rect x="1026.0" y="646.0" width="12.0" height="3" fill="#ff3c3c" stroke="#c71f1f" /><rect x="1052.0" y="668.5" width="12.0" height="3" fill="#80c9ff" stroke="#0b6cba" /><rect x="1026.0" y="691.0" width="12.0" height="3" fill="#ff3c3c" stroke="#c71f1f" /><rect x="1140.0" y="0.0" width="12.0" height="3" fill="#ff3c3c" stroke="#c71f1f" /><rect x="1166.0" y="44.5" width="12.0" height="3" fill="#80c9ff" stroke="#0b6cba" /><rect x="1153.0" y="67.0" width="12.0" height="3" fill="#35df39" stroke="#03aa10" /><rect x="1153.0" y="78.0" width="12.0" height="3" fill="#35df39" stroke="#03aa10" /><rect x="1153.0" y="89.0" width="12.0" height="3" fill="#35df39" stroke="#03aa10" /><rect x="1140.0" y="111.5" width="12.0" height="3" fill="#ff3c3c" stroke="#c71f1f" /><rect x="1153.0" y="156.0" width="12.0" height="3" fill="#35df39" stroke="#03aa10" /><rect x="1153.0" y="178.5" width="12.0" height="3" fill="#35df39" stroke="#03aa10" /><rect x="1140.0" y="200.5" width="12.0" height="3" fill="#ff3c3c" stroke="#c71f1f" /><rect x="1140.0" y="245.0" width="12.0" height="3" fill="#ff3c3c" stroke="#c71f1f" /><rect x="1166.0" y="267.5" width="12.0" height="3" fill="#80c9ff" stroke="#0b6cba" /><rect x="1140.0" y="289.5" width="12.0" height="3" fill="#ff3c3c" stroke="#c71f1f" /><rect x="1166.0" y="334.0" width="12.0" height="3" fill="#80c9ff" stroke="#0b6cba" /><rect x="1140.0" y="356.5" width="12.0" height="3" fill="#ff3c3c" stroke="#c71f1f" /><rect x="1140.0" y="379.0" width="12.0" height="3" fill="#ff3c3c" stroke="#c71f1f" /><rect x="1140.0" y="401.0" width="12.0" height="3" fill="#ff3c3c" stroke="#c71f1f" /><rect x="1140.0" y="423.5" width="12.0" height="3" fill="#ff3c3c" stroke="#c71f1f" /><rect x="1140.0" y="490.0" width="12.0" height="3" fill="#ff3c3c" stroke="#c71f1f" /><rect x="1140.0" y="512.5" width="12.0" height="3" fill="#ff3c3c" stroke="#c71f1f" /><rect x="1140.0" y="534.5" width="12.0" height="3" fill="#ff3c3c" stroke="#c71f1f" /><rect x="1140.0" y="557.0" width="12.0" height="3" fill="#ff3c3c" stroke="#c71f1f" /><rect x="1153.0" y="624.0" width="12.0" height="3" fill="#35df39" stroke="#03aa10" /><rect x="1166.0" y="668.5" width="12.0" height="3" fill="#80c9ff" stroke="#0b6cba" /><rect x="1254.0" y="0.0" width="12.0" height="3" fill="#ff3c3c" stroke="#c71f1f" /><rect x="1254.0" y="22.0" width="12.0" height="3" fill="#ff3c3c" stroke="#c71f1f" /><rect x="1254.0" y="44.5" width="12.0" height="3" fill="#ff3c3c" stroke="#c71f1f" /><rect x="1254.0" y="66.5" width="12.0" height="3" fill="#ff3c3c" stroke="#c71f1f" /><rect x="1267.0" y="89.0" width="12.0" height="3" fill="#35df39" stroke="#03aa10" /><rect x="1267.0" y="111.5" width="12.0" height="3" fill="#35df39" stroke="#03aa10" /><rect x="1267.0" y="133.5" width="12.0" height="3" fill="#35df39" stroke="#03aa10" /><rect x="1267.0" y="156.0" width="12.0" height="3" fill="#35df39" stroke="#03aa10" /><rect x="1280.0" y="178.0" width="12.0" height="3" fill="#80c9ff" stroke="#0b6cba" /><rect x="1280.0" y="200.5" width="12.0" height="3" fill="#80c9ff" stroke="#0b6cba" /><rect x="1280.0" y="222.5" width="12.0" height="3" fill="#80c9ff" stroke="#0b6cba" /><rect x="1280.0" y="245.0" width="12.0" height="3" fill="#80c9ff" stroke="#0b6cba" /><rect x="1267.0" y="267.0" width="12.0" height="3" fill="#35df39" stroke="#03aa10" /><rect x="1267.0" y="289.5" width="12.0" height="3" fill="#35df39" stroke="#03aa10" /><rect x="1293.0" y="312.0" width="12.0" height="3" fill="#fff874" stroke="#eb9c26" /><rect x="1293.0" y="334.0" width="12.0" height="3" fill="#fff874" stroke="#eb9c26" /><rect x="1280.0" y="356.5" width="12.0" height="3" fill="#80c9ff" stroke="#0b6cba" /><rect x="1280.0" y="378.5" width="12.0" height="3" fill="#80c9ff" stroke="#0b6cba" /><rect x="1280.0" y="401.0" width="12.0" height="3" fill="#80c9ff" stroke="#0b6cba" /><rect x="1280.0" y="423.0" width="12.0" height="3" fill="#80c9ff" stroke="#0b6cba" /><rect x="1267.0" y="445.5" width="12.0" height="3" fill="#35df39" stroke="#03aa10" /><rect x="1267.0" y="467.5" width="12.0" height="3" fill="#35df39" stroke="#03aa10" /><rect x="1267.0" y="490.0" width="12.0" height="3" fill="#35df39" stroke="#03aa10" /><rect x="1267.0" y="512.5" width="12.0" height="3" fill="#35df39" stroke="#03aa10" /><rect x="1254.0" y="534.5" width="12.0" height="3" fill="#ff3c3c" stroke="#c71f1f" /><rect x="1254.0" y="557.0" width="12.0" height="3" fill="#ff3c3c" stroke="#c71f1f" /><rect x="1254.0" y="579.0" width="12.0" height="3" fill="#ff3c3c" stroke="#c71f1f" /><rect x="1254.0" y="601.5" width="12.0" height="3" fill="#ff3c3c" stroke="#c71f1f" /><rect x="1267.0" y="623.5" width="12.0" height="3" fill="#35df39" stroke="#03aa10" /><rect x="1267.0" y="646.0" width="12.0" height="3" fill="#35df39" stroke="#03aa10" /><rect x="1267.0" y="668.0" width="12.0" height="3" fill="#35df39" stroke="#03aa10" /><rect x="1267.0" y="690.5" width="12.0" height="3" fill="#35df39" stroke="#03aa10" /><rect x="1394.0" y="0.0" width="12.0" height="3" fill="#80c9ff" stroke="#0b6cba" /><rect x="1394.0" y="22.0" width="12.0" height="3" fill="#80c9ff" stroke="#0b6cba" /><rect x="1394.0" y="44.5" width="12.0" height="3" fill="#80c9ff" stroke="#0b6cba" /><rect x="1394.0" y="66.5" width="12.0" height="3" fill="#80c9ff" stroke="#0b6cba" /><rect x="1381.0" y="89.0" width="12.0" height="3" fill="#35df39" stroke="#03aa10" /><rect x="1381.0" y="111.0" width="12.0" height="3" fill="#35df39" stroke="#03aa10" /><rect x="1381.0" y="133.5" width="12.0" height="3" fill="#35df39" stroke="#03aa10" /><rect x="1381.0" y="155.5" width="12.0" height="3" fill="#35df39" stroke="#03aa10" /><rect x="1368.0" y="178.0" width="12.0" height="3" fill="#ff3c3c" stroke="#c71f1f" /><rect x="1368.0" y="200.5" width="12.0" height="3" fill="#ff3c3c" stroke="#c71f1f" /><rect x="1381.0" y="222.5" width="12.0" height="3" fill="#35df39" stroke="#03aa10" /><rect x="1381.0" y="245.0" width="12.0" height="3" fill="#35df39" stroke="#03aa10" /><rect x="1394.0" y="267.0" width="12.0" height="3" fill="#80c9ff" stroke="#0b6cba" /><rect x="1394.0" y="289.5" width="12.0" height="3" fill="#80c9ff" stroke="#0b6cba" /><rect x="1407.0" y="311.5" width="12.0" height="3" fill="#fff874" stroke="#eb9c26" /><rect x="1407.0" y="334.0" width="12.0" height="3" fill="#fff874" stroke="#eb9c26" /><rect x="1368.0" y="356.0" width="12.0" height="3" fill="#ff3c3c" stroke="#c71f1f" /><rect x="1368.0" y="378.5" width="12.0" height="3" fill="#ff3c3c" stroke="#c71f1f" /><rect x="1368.0" y="401.0" width="12.0" height="3" fill="#ff3c3c" stroke="#c71f1f" /><rect x="1368.0" y="423.0" width="12.0" height="3" fill="#ff3c3c" stroke="#c71f1f" /><rect x="1368.0" y="490.0" width="12.0" height="3" fill="#ff3c3c" stroke="#c71f1f" /><rect x="1368.0" y="512.0" width="12.0" height="3" fill="#ff3c3c" stroke="#c71f1f" /><rect x="1368.0" y="534.5" width="12.0" height="3" fill="#ff3c3c" stroke="#c71f1f" /><rect x="1368.0" y="556.5" width="12.0" height="3" fill="#ff3c3c" stroke="#c71f1f" /><rect x="1368.0" y="579.0" width="12.0" height="3" fill="#ff3c3c" stroke="#c71f1f" /><rect x="1394.0" y="646.0" width="12.0" height="3" fill="#80c9ff" stroke="#0b6cba" /><rect x="1381.0" y="668.0" width="12.0" height="3" fill="#35df39" stroke="#03aa10" /><rect x="1482.0" y="0.0" width="12.0" height="3" fill="#ff3c3c" stroke="#c71f1f" /><rect x="1482.0" y="44.5" width="12.0" height="3" fill="#ff3c3c" stroke="#c71f1f" /><rect x="1495.0" y="67.0" width="12.0" height="3" fill="#35df39" stroke="#03aa10" /><rect x="1495.0" y="111.5" width="12.0" height="3" fill="#35df39" stroke="#03aa10" /><rect x="1508.0" y="134.0" width="12.0" height="3" fill="#80c9ff" stroke="#0b6cba" /><rect x="1508.0" y="178.5" width="12.0" height="3" fill="#80c9ff" stroke="#0b6cba" /><rect x="1521.0" y="200.5" width="12.0" height="3" fill="#fff874" stroke="#eb9c26" /><rect x="1521.0" y="245.0" width="12.0" height="3" fill="#fff874" stroke="#eb9c26" /><rect x="1508.0" y="267.5" width="12.0" height="3" fill="#80c9ff" stroke="#0b6cba" /><rect x="1521.0" y="312.0" width="12.0" height="3" fill="#fff874" stroke="#eb9c26" /><rect x="1482.0" y="356.5" width="12.0" height="3" fill="#ff3c3c" stroke="#c71f1f" /><rect x="1482.0" y="401.0" width="12.0" height="3" fill="#ff3c3c" stroke="#c71f1f" /><rect x="1495.0" y="423.5" width="12.0" height="3" fill="#35df39" stroke="#03aa10" /><rect x="1495.0" y="468.0" width="12.0" height="3" fill="#35df39" stroke="#03aa10" /><rect x="1508.0" y="490.5" width="12.0" height="3" fill="#80c9ff" stroke="#0b6cba" /><rect x="1508.0" y="535.0" width="12.0" height="3" fill="#80c9ff" stroke="#0b6cba" /><rect x="1521.0" y="557.0" width="12.0" height="3" fill="#fff874" stroke="#eb9c26" /><rect x="1521.0" y="601.5" width="12.0" height="3" fill="#fff874" stroke="#eb9c26" /><rect x="1508.0" y="624.0" width="12.0" height="3" fill="#80c9ff" stroke="#0b6cba" /><rect x="1521.0" y="668.5" width="12.0" height="3" fill="#fff874" stroke="#eb9c26" /><rect x="1596.0" y="0.0" width="12.0" height="3" fill="#ff3c3c" stroke="#c71f1f" /><rect x="1596.0" y="44.5" width="12.0" height="3" fill="#ff3c3c" stroke="#c71f1f" /><rect x="1609.0" y="67.0" width="12.0" height="3" fill="#35df39" stroke="#03aa10" /><rect x="1609.0" y="111.5" width="12.0" height="3" fill="#35df39" stroke="#03aa10" /><rect x="1622.0" y="133.5" width="12.0" height="3" fill="#80c9ff" stroke="#0b6cba" /><rect x="1622.0" y="178.0" width="12.0" height="3" fill="#80c9ff" stroke="#0b6cba" /><rect x="1635.0" y="200.5" width="12.0" height="3" fill="#fff874" stroke="#eb9c26" /><rect x="1635.0" y="245.0" width="12.0" height="3" fill="#fff874" stroke="#eb9c26" /><rect x="1622.0" y="267.5" width="12.0" height="3" fill="#80c9ff" stroke="#0b6cba" /><rect x="1648.0" y="312.0" width="12.0" height="3" fill="#ff83f4" stroke="#d002bc" /><rect x="1609.0" y="356.5" width="12.0" height="3" fill="#35df39" stroke="#03aa10" /><rect x="1596.0" y="401.0" width="12.0" height="3" fill="#ff3c3c" stroke="#c71f1f" /><rect x="1609.0" y="423.5" width="12.0" height="3" fill="#35df39" stroke="#03aa10" /><rect x="1609.0" y="468.0" width="12.0" height="3" fill="#35df39" stroke="#03aa10" /><rect x="1622.0" y="490.0" width="12.0" height="3" fill="#80c9ff" stroke="#0b6cba" /><rect x="1622.0" y="534.5" width="12.0" height="3" fill="#80c9ff" stroke="#0b6cba" /><rect x="1635.0" y="557.0" width="12.0" height="3" fill="#fff874" stroke="#eb9c26" /><rect x="1635.0" y="601.5" width="12.0" height="3" fill="#fff874" stroke="#eb9c26" /><rect x="1622.0" y="624.0" width="12.0" height="3" fill="#80c9ff" stroke="#0b6cba" /><rect x="1648.0" y="668.5" width="12.0" height="3" fill="#ff83f4" stroke="#d002bc" /><rect x="1736.0" y="0.0" width="12.0" height="3" fill="#80c9ff" stroke="#0b6cba" /><rect x="1736.0" y="22.0" width="12.0" height="3" fill="#80c9ff" stroke="#0b6cba" /><rect x="1723.0" y="44.5" width="12.0" height="3" fill="#35df39" stroke="#03aa10" /><rect x="1723.0" y="66.5" width="12.0" height="3" fill="#35df39" stroke="#03aa10" /><rect x="1723.0" y="89.0" width="12.0" height="3" fill="#35df39" stroke="#03aa10" /><rect x="1736.0" y="111.5" width="12.0" height="3" fill="#80c9ff" stroke="#0b6cba" /><rect x="1736.0" y="133.5" width="12.0" height="3" fill="#80c9ff" stroke="#0b6cba" /><rect x="1736.0" y="156.0" width="12.0" height="3" fill="#80c9ff" stroke="#0b6cba" /><rect x="1749.0" y="178.0" width="12.0" height="3" fill="#fff874" stroke="#eb9c26" /><rect x="1736.0" y="200.5" width="12.0" height="3" fill="#80c9ff" stroke="#0b6cba" /><rect x="1736.0" y="222.5" width="12.0" height="3" fill="#80c9ff" stroke="#0b6cba" /><rect x="1749.0" y="245.0" width="12.0" height="3" fill="#fff874" stroke="#eb9c26" /><rect x="1736.0" y="267.0" width="12.0" height="3" fill="#80c9ff" stroke="#0b6cba" /><rect x="1736.0" y="289.5" width="12.0" height="3" fill="#80c9ff" stroke="#0b6cba" /><rect x="1723.0" y="312.0" width="12.0" height="3" fill="#35df39" stroke="#03aa10" /><rect x="1723.0" y="334.0" width="12.0" height="3" fill="#35df39" stroke="#03aa10" /><rect x="1710.0" y="356.5" width="12.0" height="3" fill="#ff3c3c" stroke="#c71f1f" /><rect x="1710.0" y="378.5" width="12.0" height="3" fill="#ff3c3c" stroke="#c71f1f" /><rect x="1723.0" y="401.0" width="12.0" height="3" fill="#35df39" stroke="#03aa10" /><rect x="1723.0" y="423.0" width="12.0" height="3" fill="#35df39" stroke="#03aa10" /><rect x="1723.0" y="445.5" width="12.0" height="3" fill="#35df39" stroke="#03aa10" /><rect x="1736.0" y="467.5" width="12.0" height="3" fill="#80c9ff" stroke="#0b6cba" /><rect x="1736.0" y="490.0" width="12.0" height="3" fill="#80c9ff" stroke="#0b6cba" /><rect x="1736.0" y="512.5" width="12.0" height="3" fill="#80c9ff" stroke="#0b6cba" /><rect x="1749.0" y="534.5" width="12.0" height="3" fill="#fff874" stroke="#eb9c26" /><rect x="1736.0" y="557.0" width="12.0" height="3" fill="#80c9ff" stroke="#0b6cba" /><rect x="1736.0" y="579.0" width="12.0" height="3" fill="#80c9ff" stroke="#0b6cba" /><rect x="1749.0" y="601.5" width="12.0" height="3" fill="#fff874" stroke="#eb9c26" /><rect x="1736.0" y="623.5" width="12.0" height="3" fill="#80c9ff" stroke="#0b6cba" /><rect x="1736.0" y="646.0" width="12.0" height="3" fill="#80c9ff" stroke="#0b6cba" /><rect x="1723.0" y="668.0" width="12.0" height="3" fill="#35df39" stroke="#03aa10" /><rect x="1723.0" y="690.5" width="12.0" height="3" fill="#35df39" stroke="#03aa10" /><rect x="1824.0" y="0.0" width="12.0" height="3" fill="#ff3c3c" stroke="#c71f1f" /><rect x="1824.0" y="22.0" width="12.0" height="3" fill="#ff3c3c" stroke="#c71f1f" /><rect x="1837.0" y="44.5" width="12.0" height="3" fill="#35df39" stroke="#03aa10" /><rect x="1837.0" y="66.5" width="12.0" height="3" fill="#35df39" stroke="#03aa10" /><rect x="1837.0" y="89.0" width="12.0" height="3" fill="#35df39" stroke="#03aa10" /><rect x="1850.0" y="111.0" width="12.0" height="3" fill="#80c9ff" stroke="#0b6cba" /><rect x="1850.0" y="133.5" width="12.0" height="3" fill="#80c9ff" stroke="#0b6cba" /><rect x="1850.0" y="155.5" width="12.0" height="3" fill="#80c9ff" stroke="#0b6cba" /><rect x="1863.0" y="178.0" width="12.0" height="3" fill="#fff874" stroke="#eb9c26" /><rect x="1850.0" y="200.5" width="12.0" height="3" fill="#80c9ff" stroke="#0b6cba" /><rect x="1850.0" y="222.5" width="12.0" height="3" fill="#80c9ff" stroke="#0b6cba" /><rect x="1863.0" y="245.0" width="12.0" height="3" fill="#fff874" stroke="#eb9c26" /><rect x="1850.0" y="267.0" width="12.0" height="3" fill="#80c9ff" stroke="#0b6cba" /><rect x="1850.0" y="289.5" width="12.0" height="3" fill="#80c9ff" stroke="#0b6cba" /><rect x="1837.0" y="311.5" width="12.0" height="3" fill="#35df39" stroke="#03aa10" /><rect x="1837.0" y="334.0" width="12.0" height="3" fill="#35df39" stroke="#03aa10" /><rect x="1824.0" y="356.0" width="12.0" height="3" fill="#ff3c3c" stroke="#c71f1f" /><rect x="1824.0" y="378.5" width="12.0" height="3" fill="#ff3c3c" stroke="#c71f1f" /><rect x="1837.0" y="401.0" width="12.0" height="3" fill="#35df39" stroke="#03aa10" /><rect x="1837.0" y="423.0" width="12.0" height="3" fill="#35df39" stroke="#03aa10" /><rect x="1837.0" y="445.5" width="12.0" height="3" fill="#35df39" stroke="#03aa10" /><rect x="1850.0" y="467.5" width="12.0" height="3" fill="#80c9ff" stroke="#0b6cba" /><rect x="1850.0" y="490.0" width="12.0" height="3" fill="#80c9ff" stroke="#0b6cba" /><rect x="1850.0" y="512.0" width="12.0" height="3" fill="#80c9ff" stroke="#0b6cba" /><rect x="1863.0" y="534.5" width="12.0" height="3" fill="#fff874" stroke="#eb9c26" /><rect x="1850.0" y="556.5" width="12.0" height="3" fill="#80c9ff" stroke="#0b6cba" /><rect x="1850.0" y="579.0" width="12.0" height="3" fill="#80c9ff" stroke="#0b6cba" /><rect x="1863.0" y="601.0" width="12.0" height="3" fill="#fff874" stroke="#eb9c26" /><rect x="1850.0" y="623.5" width="12.0" height="3" fill="#80c9ff" stroke="#0b6cba" /><rect x="1850.0" y="646.0" width="12.0" height="3" fill="#80c9ff" stroke="#0b6cba" /><rect x="1837.0" y="668.0" width="12.0" height="3" fill="#35df39" stroke="#03aa10" /><rect x="1837.0" y="690.5" width="12.0" height="3" fill="#35df39" stroke="#03aa10" /><rect x="1964.0" y="22.5" width="12.0" height="3" fill="#80c9ff" stroke="#0b6cba" /><rect x="1951.0" y="44.5" width="12.0" height="3" fill="#35df39" stroke="#03aa10" /><rect x="1951.0" y="67.0" width="12.0" height="3" fill="#35df39" stroke="#03aa10" /><rect x="1938.0" y="89.0" width="12.0" height="3" fill="#ff3c3c" stroke="#c71f1f" /><rect x="1938.0" y="111.5" width="12.0" height="3" fill="#ff3c3c" stroke="#c71f1f" /><rect x="1951.0" y="156.0" width="12.0" height="3" fill="#35df39" stroke="#03aa10" /><rect x="1951.0" y="178.5" width="12.0" height="3" fill="#35df39" stroke="#03aa10" /><rect x="1951.0" y="200.5" width="12.0" height="3" fill="#35df39" stroke="#03aa10" /><rect x="1938.0" y="223.0" width="12.0" height="3" fill="#ff3c3c" stroke="#c71f1f" /><rect x="1938.0" y="245.0" width="12.0" height="3" fill="#ff3c3c" stroke="#c71f1f" /><rect x="1951.0" y="267.5" width="12.0" height="3" fill="#35df39" stroke="#03aa10" /><rect x="1951.0" y="289.5" width="12.0" height="3" fill="#35df39" stroke="#03aa10" /><rect x="1938.0" y="312.0" width="12.0" height="3" fill="#ff3c3c" stroke="#c71f1f" /><rect x="1938.0" y="356.5" width="12.0" height="3" fill="#ff3c3c" stroke="#c71f1f" /><rect x="1938.0" y="379.0" width="12.0" height="3" fill="#ff3c3c" stroke="#c71f1f" /><rect x="1938.0" y="401.0" width="12.0" height="3" fill="#ff3c3c" stroke="#c71f1f" /><rect x="1938.0" y="423.5" width="12.0" height="3" fill="#ff3c3c" stroke="#c71f1f" /><rect x="1938.0" y="490.0" width="12.0" height="3" fill="#ff3c3c" stroke="#c71f1f" /><rect x="1938.0" y="512.5" width="12.0" height="3" fill="#ff3c3c" stroke="#c71f1f" /><rect x="1938.0" y="535.0" width="12.0" height="3" fill="#ff3c3c" stroke="#c71f1f" /><rect x="1938.0" y="557.0" width="12.0" height="3" fill="#ff3c3c" stroke="#c71f1f" /><rect x="1938.0" y="624.0" width="12.0" height="3" fill="#ff3c3c" stroke="#c71f1f" /><rect x="1951.0" y="668.5" width="12.0" height="3" fill="#35df39" stroke="#03aa10" /></svg>