<?xml version="1.0" encoding="UTF-8"?><svg xmlns="http://www.w3.org/2000/svg" xmlns:xlink="http://www.w3.org/1999/xlink"     width="4284" height="1492.0" viewBox="0 0 4284 1492.0"><defs></defs><rect x="0" y="603.0" width="188" height="889.0" fill="black" /><rect x="0" y="1491.0" width="188" height="1" fill="white" fill-opacity="0.5" /><text x="198" y="1491.0" font-size="14" fill="white" font-family="monospace" dominant-baseline="initial">1</text><rect x="0" y="1435.5" width="188" height="1" fill="white" fill-opacity="0.2" /><rect x="0" y="1380.0" width="188" height="1" fill="white" fill-opacity="0.2" /><rect x="0" y="1324.5" width="188" height="1" fill="white" fill-opacity="0.2" /><rect x="0" y="1269.0" width="188" height="1" fill="white" fill-opacity="0.5" /><text x="198" y="1269.0" font-size="14" fill="white" font-family="monospace" dominant-baseline="initial">2</text><rect x="0" y="1213.0" width="188" height="1" fill="white" fill-opacity="0.2" /><rect x="0" y="1157.5" width="188" height="1" fill="white" fill-opacity="0.2" /><rect x="0" y="1102.0" width="188" height="1" fill="white" fill-opacity="0.2" /><rect x="0" y="1046.5" width="188" height="1" fill="white" fill-opacity="0.5" /><text x="198" y="1046.5" font-size="14" fill="white" font-family="monospace" dominant-baseline="initial">3</text><rect x="0" y="991.0" width="188" height="1" fill="white" fill-opacity="0.2" /><rect x="0" y="935.5" width="188" height="1" fill="white" fill-opacity="0.2" /><rect x="0" y="880.0" width="188" height="1" fill="white" fill-opacity="0.2" /><rect x="0" y="824.5" width="188" height="1" fill="white" fill-opacity="0.5" /><text x="198" y="824.5" font-size="14" fill="white" font-family="monospace" dominant-baseline="initial">4</text><rect x="0" y="769.0" width="188" height="1" fill="white" fill-opacity="0.2" /><rect x="0" y="713.0" width="188" height="1" fill="white" fill-opacity="0.2" /><rect x="0" y="657.5" width="188" height="1" fill="white" fill-opacity="0.2" /><rect x="0" y="602.0" width="188" height="1" fill="white" fill-opacity="0.5" /><text x="198" y="602.0" font-size="14" fill="white" font-family="monospace" dominant-baseline="initial">5</text><rect x="0" y="1491.0" width="188" height="1" fill="aqua" fill-opacity="0.75" /><text x="0" y="1487.0" font-size="14" fill="aqua" fill-opacity="0.75" font-family="monospace">Special</text><rect x="0" y="1491.0" width="188" height="1" fill="lime" fill-opacity="0.75" /><text x="198" y="1478.0" font-size="14" fill="lime" font-family="monospace" dominant-baseline="initial">162</text><rect x="238" y="603.0" width="188" height="889.0" fill="black" /><rect x="238" y="1491.0" width="188" height="1" fill="white" fill-opacity="0.5" /><text x="436" y="1491.0" font-size="14" fill="white" font-family="monospace" dominant-baseline="initial">5</text><rect x="238" y="1435.5" width="188" height="1" fill="white" fill-opacity="0.2" /><rect x="238" y="1380.0" width="188" height="1" fill="white" fill-opacity="0.2" /><rect x="238" y="1324.5" width="188" height="1" fill="white" fill-opacity="0.2" /><rect x="238" y="1269.0" width="188" height="1" fill="white" fill-opacity="0.5" /><text x="436" y="1269.0" font-size="14" fill="white" font-family="monospace" dominant-baseline="initial">6</text><rect x="238" y="1213.5" width="188" height="1" fill="white" fill-opacity="0.2" /><rect x="238" y="1158.0" width="188" height="1" fill="white" fill-opacity="0.2" /><rect x="238" y="1102.0" width="188" height="1" fill="white" fill-opacity="0.2" /><rect x="238" y="1046.5" width="188" height="1" fill="white" fill-opacity="0.5" /><text x="436" y="1046.5" font-size="14" fill="white" font-family="monospace" dominant-baseline="initial">7</text><rect x="238" y="991.0" width="188" height="1" fill="white" fill-opacity="0.2" /><rect x="238" y="935.5" width="188" height="1" fill="white" fill-opacity="0.2" /><rect x="238" y="880.0" width="188" height="1" fill="white" fill-opacity="0.2" /><rect x="238" y="824.5" width="188" height="1" fill="white" fill-opacity="0.5" /><text x="436" y="824.5" font-size="14" fill="white" font-family="monospace" dominant-baseline="initial">8</text><rect x="238" y="769.0" width="188" height="1" fill="white" fill-opacity="0.2" /><rect x="238" y="713.5" width="188" height="1" fill="white" fill-opacity="0.2" /><rect x="238" y="658.0" width="188" height="1" fill="white" fill-opacity="0.2" /><rect x="238" y="602.0" width="188" height="1" fill="white" fill-opacity="0.5" /><text x="436" y="602.0" font-size="14" fill="white" font-family="monospace" dominant-baseline="initial">9</text><rect x="476" y="603.5" width="188" height="888.5" fill="black" /><rect x="476" y="1491.0" width="188" height="1" fill="white" fill-opacity="0.5" /><text x="674" y="1491.0" font-size="14" fill="white" font-family="monospace" dominant-baseline="initial">9</text><rect x="476" y="1435.5" width="188" height="1" fill="white" fill-opacity="0.2" /><rect x="476" y="1380.0" width="188" height="1" fill="white" fill-opacity="0.2" /><rect x="476" y="1324.5" width="188" height="1" fill="white" fill-opacity="0.2" /><rect x="476" y="1269.0" width="188" height="1" fill="white" fill-opacity="0.5" /><text x="674" y="1269.0" font-size="14" fill="white" font-family="monospace" dominant-baseline="initial">10</text><rect x="476" y="1213.5" width="188" height="1" fill="white" fill-opacity="0.2" /><rect x="476" y="1158.0" width="188" height="1" fill="white" fill-opacity="0.2" /><rect x="476" y="1102.5" width="188" height="1" fill="white" fill-opacity="0.2" /><rect x="476" y="1047.0" width="188" height="1" fill="white" fill-opacity="0.5" /><text x="674" y="1047.0" font-size="14" fill="white" font-family="monospace" dominant-baseline="initial">11</text><rect x="476" y="991.0" width="188" height="1" fill="white" fill-opacity="0.2" /><rect x="476" y="935.5" width="188" height="1" fill="white" fill-opacity="0.2" /><rect x="476" y="880.0" width="188" height="1" fill="white" fill-opacity="0.2" /><rect x="476" y="824.5" width="188" height="1" fill="white" fill-opacity="0.5" /><text x="674" y="824.5" font-size="14" fill="white" font-family="monospace" dominant-baseline="initial">12</text><rect x="476" y="769.0" width="188" height="1" fill="white" fill-opacity="0.2" /><rect x="476" y="713.5" width="188" height="1" fill="white" fill-opacity="0.2" /><rect x="476" y="658.0" width="188" height="1" fill="white" fill-opacity="0.2" /><rect x="476" y="602.5" width="188" height="1" fill="white" fill-opacity="0.5" /><text x="674" y="602.5" font-size="14" fill="white" font-family="monospace" dominant-baseline="initial">13</text><rect x="476" y="1046.75" width="188" height="1" fill="aqua" fill-opacity="0.75" /><text x="476" y="1042.75" font-size="14" fill="aqua" fill-opacity="0.75" font-family="monospace">Phrase A</text><rect x="714" y="603.0" width="188" height="889.0" fill="black" /><rect x="714" y="1491.0" width="188" height="1" fill="white" fill-opacity="0.5" /><text x="912" y="1491.0" font-size="14" fill="white" font-family="monospace" dominant-baseline="initial">13</text><rect x="714" y="1435.5" width="188" height="1" fill="white" fill-opacity="0.2" /><rect x="714" y="1379.5" width="188" height="1" fill="white" fill-opacity="0.2" /><rect x="714" y="1324.0" width="188" height="1" fill="white" fill-opacity="0.2" /><rect x="714" y="1268.5" width="188" height="1" fill="white" fill-opacity="0.5" /><text x="912" y="1268.5" font-size="14" fill="white" font-family="monospace" dominant-baseline="initial">14</text><rect x="714" y="1213.0" width="188" height="1" fill="white" fill-opacity="0.2" /><rect x="714" y="1157.5" width="188" height="1" fill="white" fill-opacity="0.2" /><rect x="714" y="1102.0" width="188" height="1" fill="white" fill-opacity="0.2" /><rect x="714" y="1046.5" width="188" height="1" fill="white" fill-opacity="0.5" /><text x="912" y="1046.5" font-size="14" fill="white" font-family="monospace" dominant-baseline="initial">15</text><rect x="714" y="991.0" width="188" height="1" fill="white" fill-opacity="0.2" /><rect x="714" y="935.5" width="188" height="1" fill="white" fill-opacity="0.2" /><rect x="714" y="879.5" width="188" height="1" fill="white" fill-opacity="0.2" /><rect x="714" y="824.0" width="188" height="1" fill="white" fill-opacity="0.5" /><text x="912" y="824.0" font-size="14" fill="white" font-family="monospace" dominant-baseline="initial">16</text><rect x="714" y="768.5" width="188" height="1" fill="white" fill-opacity="0.2" /><rect x="714" y="713.0" width="188" height="1" fill="white" fill-opacity="0.2" /><rect x="714" y="657.5" width="188" height="1" fill="white" fill-opacity="0.2" /><rect x="714" y="602.0" width="188" height="1" fill="white" fill-opacity="0.5" /><text x="912" y="602.0" font-size="14" fill="white" font-family="monospace" dominant-baseline="initial">17</text><rect x="952" y="603.0" width="188" height="889.0" fill="black" /><rect x="952" y="1491.0" width="188" height="1" fill="white" fill-opacity="0.5" /><text x="1150" y="1491.0" font-size="14" fill="white" font-family="monospace" dominant-baseline="initial">17</text><rect x="952" y="1435.5" width="188" height="1" fill="white" fill-opacity="0.2" /><rect x="952" y="1380.0" width="188" height="1" fill="white" fill-opacity="0.2" /><rect x="952" y="1324.5" width="188" height="1" fill="white" fill-opacity="0.2" /><rect x="952" y="1268.5" width="188" height="1" fill="white" fill-opacity="0.5" /><text x="1150" y="1268.5" font-size="14" fill="white" font-family="monospace" dominant-baseline="initial">18</text><rect x="952" y="1213.0" width="188" height="1" fill="white" fill-opacity="0.2" /><rect x="952" y="1157.5" width="188" height="1" fill="white" fill-opacity="0.2" /><rect x="952" y="1102.0" width="188" height="1" fill="white" fill-opacity="0.2" /><rect x="952" y="1046.5" width="188" height="1" fill="white" fill-opacity="0.5" /><text x="1150" y="1046.5" font-size="14" fill="white" font-family="monospace" dominant-baseline="initial">19</text><rect x="952" y="991.0" width="188" height="1" fill="white" fill-opacity="0.2" /><rect x="952" y="935.5" width="188" height="1" fill="white" fill-opacity="0.2" /><rect x="952" y="880.0" width="188" height="1" fill="white" fill-opacity="0.2" /><rect x="952" y="824.5" width="188" height="1" fill="white" fill-opacity="0.5" /><text x="1150" y="824.5" font-size="14" fill="white" font-family="monospace" dominant-baseline="initial">20</text><rect x="952" y="768.5" width="188" height="1" fill="white" fill-opacity="0.2" /><rect x="952" y="713.0" width="188" height="1" fill="white" fill-opacity="0.2" /><rect x="952" y="657.5" width="188" height="1" fill="white" fill-opacity="0.2" /><rect x="952" y="602.0" width="188" height="1" fill="white" fill-opacity="0.5" /><text x="1150" y="602.0" font-size="14" fill="white" font-family="monospace" dominant-baseline="initial">21</text><rect x="1190" y="603.0" width="188" height="889.0" fill="black" /><rect x="1190" y="1491.0" width="188" height="1" fill="white" fill-opacity="0.5" /><text x="1388" y="1491.0" font-size="14" fill="white" font-family="monospace" dominant-baseline="initial">21</text><rect x="1190" y="1435.5" width="188" height="1" fill="white" fill-opacity="0.2" /><rect x="1190" y="1380.0" width="188" height="1" fill="white" fill-opacity="0.2" /><rect x="1190" y="1324.5" width="188" height="1" fill="white" fill-opacity="0.2" /><rect x="1190" y="1269.0" width="188" height="1" fill="white" fill-opacity="0.5" /><text x="1388" y="1269.0" font-size="14" fill="white" font-family="monospace" dominant-baseline="initial">22</text><rect x="1190" y="1213.5" width="188" height="1" fill="white" fill-opacity="0.2" /><rect x="1190" y="1157.5" width="188" height="1" fill="white" fill-opacity="0.2" /><rect x="1190" y="1102.0" width="188" height="1" fill="white" fill-opacity="0.2" /><rect x="1190" y="1046.5" width="188" height="1" fill="white" fill-opacity="0.5" /><text x="1388" y="1046.5" font-size="14" fill="white" font-family="monospace" dominant-baseline="initial">23</text><rect x="1190" y="991.0" width="188" height="1" fill="white" fill-opacity="0.2" /><rect x="1190" y="935.5" width="188" height="1" fill="white" fill-opacity="0.2" /><rect x="1190" y="880.0" width="188" height="1" fill="white" fill-opacity="0.2" /><rect x="1190" y="824.5" width="188" height="1" fill="white" fill-opacity="0.5" /><text x="1388" y="824.5" font-size="14" fill="white" font-family="monospace" dominant-baseline="initial">24</text><rect x="1190" y="769.0" width="188" height="1" fill="white" fill-opacity="0.2" /><rect x="1190" y="713.5" width="188" height="1" fill="white" fill-opacity="0.2" /><rect x="1190" y="657.5" width="188" height="1" fill="white" fill-opacity="0.2" /><rect x="1190" y="602.0" width="188" height="1" fill="white" fill-opacity="0.5" /><text x="1388" y="602.0" font-size="14" fill="white" font-family="monospace" dominant-baseline="initial">25</text><rect x="1190" y="1491.0" width="188" height="1" fill="aqua" fill-opacity="0.75" /><text x="1190" y="1487.0" font-size="14" fill="aqua" fill-opacity="0.75" font-family="monospace">Phrase B</text><rect x="1428" y="603.5" width="188" height="888.5" fill="black" /><rect x="1428" y="1491.0" width="188" height="1" fill="white" fill-opacity="0.5" /><text x="1626" y="1491.0" font-size="14" fill="white" font-family="monospace" dominant-baseline="initial">25</text><rect x="1428" y="1435.5" width="188" height="1" fill="white" fill-opacity="0.2" /><rect x="1428" y="1380.0" width="188" height="1" fill="white" fill-opacity="0.2" /><rect x="1428" y="1324.5" width="188" height="1" fill="white" fill-opacity="0.2" /><rect x="1428" y="1269.0" width="188" height="1" fill="white" fill-opacity="0.5" /><text x="1626" y="1269.0" font-size="14" fill="white" font-family="monospace" dominant-baseline="initial">26</text><rect x="1428" y="1213.5" width="188" height="1" fill="white" fill-opacity="0.2" /><rect x="1428" y="1158.0" width="188" height="1" fill="white" fill-opacity="0.2" /><rect x="1428" y="1102.5" width="188" height="1" fill="white" fill-opacity="0.2" /><rect x="1428" y="1046.5" width="188" height="1" fill="white" fill-opacity="0.5" /><text x="1626" y="1046.5" font-size="14" fill="white" font-family="monospace" dominant-baseline="initial">27</text><rect x="1428" y="991.0" width="188" height="1" fill="white" fill-opacity="0.2" /><rect x="1428" y="935.5" width="188" height="1" fill="white" fill-opacity="0.2" /><rect x="1428" y="880.0" width="188" height="1" fill="white" fill-opacity="0.2" /><rect x="1428" y="824.5" width="188" height="1" fill="white" fill-opacity="0.5" /><text x="1626" y="824.5" font-size="14" fill="white" font-family="monospace" dominant-baseline="initial">28</text><rect x="1428" y="769.0" width="188" height="1" fill="white" fill-opacity="0.2" /><rect x="1428" y="713.5" width="188" height="1" fill="white" fill-opacity="0.2" /><rect x="1428" y="658.0" width="188" height="1" fill="white" fill-opacity="0.2" /><rect x="1428" y="602.5" width="188" height="1" fill="white" fill-opacity="0.5" /><text x="1626" y="602.5" font-size="14" fill="white" font-family="monospace" dominant-baseline="initial">29</text><rect x="1666" y="603.0" width="188" height="889.0" fill="black" /><rect x="1666" y="1491.0" width="188" height="1" fill="white" fill-opacity="0.5" /><text x="1864" y="1491.0" font-size="14" fill="white" font-family="monospace" dominant-baseline="initial">29</text><rect x="1666" y="1435.0" width="188" height="1" fill="white" fill-opacity="0.2" /><rect x="1666" y="1379.5" width="188" height="1" fill="white" fill-opacity="0.2" /><rect x="1666" y="1324.0" width="188" height="1" fill="white" fill-opacity="0.2" /><rect x="1666" y="1268.5" width="188" height="1" fill="white" fill-opacity="0.5" /><text x="1864" y="1268.5" font-size="14" fill="white" font-family="monospace" dominant-baseline="initial">30</text><rect x="1666" y="1213.0" width="188" height="1" fill="white" fill-opacity="0.2" /><rect x="1666" y="1157.5" width="188" height="1" fill="white" fill-opacity="0.2" /><rect x="1666" y="1102.0" width="188" height="1" fill="white" fill-opacity="0.2" /><rect x="1666" y="1046.5" width="188" height="1" fill="white" fill-opacity="0.5" /><text x="1864" y="1046.5" font-size="14" fill="white" font-family="monospace" dominant-baseline="initial">31</text><rect x="1666" y="991.0" width="188" height="1" fill="white" fill-opacity="0.2" /><rect x="1666" y="935.0" width="188" height="1" fill="white" fill-opacity="0.2" /><rect x="1666" y="879.5" width="188" height="1" fill="white" fill-opacity="0.2" /><rect x="1666" y="824.0" width="188" height="1" fill="white" fill-opacity="0.5" /><text x="1864" y="824.0" font-size="14" fill="white" font-family="monospace" dominant-baseline="initial">32</text><rect x="1666" y="768.5" width="188" height="1" fill="white" fill-opacity="0.2" /><rect x="1666" y="713.0" width="188" height="1" fill="white" fill-opacity="0.2" /><rect x="1666" y="657.5" width="188" height="1" fill="white" fill-opacity="0.2" /><rect x="1666" y="602.0" width="188" height="1" fill="white" fill-opacity="0.5" /><text x="1864" y="602.0" font-size="14" fill="white" font-family="monospace" dominant-baseline="initial">33</text><rect x="1904" y="603.0" width="188" height="889.0" fill="black" /><rect x="1904" y="1491.0" width="188" height="1" fill="white" fill-opacity="0.5" /><text x="2102" y="1491.0" font-size="14" fill="white" font-family="monospace" dominant-baseline="initial">33</text><rect x="1904" y="1435.5" width="188" height="1" fill="white" fill-opacity="0.2" /><rect x="1904" y="1380.0" width="188" height="1" fill="white" fill-opacity="0.2" /><rect x="1904" y="1324.0" width="188" height="1" fill="white" fill-opacity="0.2" /><rect x="1904" y="1268.5" width="188" height="1" fill="white" fill-opacity="0.5" /><text x="2102" y="1268.5" font-size="14" fill="white" font-family="monospace" dominant-baseline="initial">34</text><rect x="1904" y="1213.0" width="188" height="1" fill="white" fill-opacity="0.2" /><rect x="1904" y="1157.5" width="188" height="1" fill="white" fill-opacity="0.2" /><rect x="1904" y="1102.0" width="188" height="1" fill="white" fill-opacity="0.2" /><rect x="1904" y="1046.5" width="188" height="1" fill="white" fill-opacity="0.5" /><text x="2102" y="1046.5" font-size="14" fill="white" font-family="monospace" dominant-baseline="initial">35</text><rect x="1904" y="991.0" width="188" height="1" fill="white" fill-opacity="0.2" /><rect x="1904" y="935.5" width="188" height="1" fill="white" fill-opacity="0.2" /><rect x="1904" y="880.0" width="188" height="1" fill="white" fill-opacity="0.2" /><rect x="1904" y="824.0" width="188" height="1" fill="white" fill-opacity="0.5" /><text x="2102" y="824.0" font-size="14" fill="white" font-family="monospace" dominant-baseline="initial">36</text><rect x="1904" y="768.5" width="188" height="1" fill="white" fill-opacity="0.2" /><rect x="1904" y="713.0" width="188" height="1" fill="white" fill-opacity="0.2" /><rect x="1904" y="657.5" width="188" height="1" fill="white" fill-opacity="0.2" /><rect x="1904" y="602.0" width="188" height="1" fill="white" fill-opacity="0.5" /><text x="2102" y="602.0" font-size="14" fill="white" font-family="monospace" dominant-baseline="initial">37</text><rect x="2142" y="603.0" width="188" height="889.0" fill="black" /><rect x="2142" y="1491.0" width="188" height="1" fill="white" fill-opacity="0.5" /><text x="2340" y="1491.0" font-size="14" fill="white" font-family="monospace" dominant-baseline="initial">37</text><rect x="2142" y="1435.5" width="188" height="1" fill="white" fill-opacity="0.2" /><rect x="2142" y="1380.0" width="188" height="1" fill="white" fill-opacity="0.2" /><rect x="2142" y="1324.5" width="188" height="1" fill="white" fill-opacity="0.2" /><rect x="2142" y="1269.0" width="188" height="1" fill="white" fill-opacity="0.5" /><text x="2340" y="1269.0" font-size="14" fill="white" font-family="monospace" dominant-baseline="initial">38</text><rect x="2142" y="1213.0" width="188" height="1" fill="white" fill-opacity="0.2" /><rect x="2142" y="1157.5" width="188" height="1" fill="white" fill-opacity="0.2" /><rect x="2142" y="1102.0" width="188" height="1" fill="white" fill-opacity="0.2" /><rect x="2142" y="1046.5" width="188" height="1" fill="white" fill-opacity="0.5" /><text x="2340" y="1046.5" font-size="14" fill="white" font-family="monospace" dominant-baseline="initial">39</text><rect x="2142" y="991.0" width="188" height="1" fill="white" fill-opacity="0.2" /><rect x="2142" y="935.5" width="188" height="1" fill="white" fill-opacity="0.2" /><rect x="2142" y="880.0" width="188" height="1" fill="white" fill-opacity="0.2" /><rect x="2142" y="824.5" width="188" height="1" fill="white" fill-opacity="0.5" /><text x="2340" y="824.5" font-size="14" fill="white" font-family="monospace" dominant-baseline="initial">40</text><rect x="2142" y="769.0" width="188" height="1" fill="white" fill-opacity="0.2" /><rect x="2142" y="713.0" width="188" height="1" fill="white" fill-opacity="0.2" /><rect x="2142" y="657.5" width="188" height="1" fill="white" fill-opacity="0.2" /><rect x="2142" y="602.0" width="188" height="1" fill="white" fill-opacity="0.5" /><text x="2340" y="602.0" font-size="14" fill="white" font-family="monospace" dominant-baseline="initial">41</text><rect x="2142" y="1491.0500000000002" width="188" height="1" fill="aqua" fill-opacity="0.75" /><text x="2142" y="1487.0500000000002" font-size="14" fill="aqua" fill-opacity="0.75" font-family="monospace">Phrase C</text><rect x="2380" y="603.0" width="188" height="889.0" fill="black" /><rect x="2380" y="1491.0" width="188" height="1" fill="white" fill-opacity="0.5" /><text x="2578" y="1491.0" font-size="14" fill="white" font-family="monospace" dominant-baseline="initial">41</text><rect x="2380" y="1435.5" width="188" height="1" fill="white" fill-opacity="0.2" /><rect x="2380" y="1380.0" width="188" height="1" fill="white" fill-opacity="0.2" /><rect x="2380" y="1324.5" width="188" height="1" fill="white" fill-opacity="0.2" /><rect x="2380" y="1269.0" width="188" height="1" fill="white" fill-opacity="0.5" /><text x="2578" y="1269.0" font-size="14" fill="white" font-family="monospace" dominant-baseline="initial">42</text><rect x="2380" y="1213.5" width="188" height="1" fill="white" fill-opacity="0.2" /><rect x="2380" y="1158.0" width="188" height="1" fill="white" fill-opacity="0.2" /><rect x="2380" y="1102.0" width="188" height="1" fill="white" fill-opacity="0.2" /><rect x="2380" y="1046.5" width="188" height="1" fill="white" fill-opacity="0.5" /><text x="2578" y="1046.5" font-size="14" fill="white" font-family="monospace" dominant-baseline="initial">43</text><rect x="2380" y="991.0" width="188" height="1" fill="white" fill-opacity="0.2" /><rect x="2380" y="935.5" width="188" height="1" fill="white" fill-opacity="0.2" /><rect x="2380" y="880.0" width="188" height="1" fill="white" fill-opacity="0.2" /><rect x="2380" y="824.5" width="188" height="1" fill="white" fill-opacity="0.5" /><text x="2578" y="824.5" font-size="14" fill="white" font-family="monospace" dominant-baseline="initial">44</text><rect x="2380" y="769.0" width="188" height="1" fill="white" fill-opacity="0.2" /><rect x="2380" y="713.5" width="188" height="1" fill="white" fill-opacity="0.2" /><rect x="2380" y="658.0" width="188" height="1" fill="white" fill-opacity="0.2" /><rect x="2380" y="602.0" width="188" height="1" fill="white" fill-opacity="0.5" /><text x="2578" y="602.0" font-size="14" fill="white" font-family="monospace" dominant-baseline="initial">45</text><rect x="2618" y="603.5" width="188" height="888.5" fill="black" /><rect x="2618" y="1491.0" width="188" height="1" fill="white" fill-opacity="0.5" /><text x="2816" y="1491.0" font-size="14" fill="white" font-family="monospace" dominant-baseline="initial">45</text><rect x="2618" y="1435.5" width="188" height="1" fill="white" fill-opacity="0.2" /><rect x="2618" y="1380.0" width="188" height="1" fill="white" fill-opacity="0.2" /><rect x="2618" y="1324.5" width="188" height="1" fill="white" fill-opacity="0.2" /><rect x="2618" y="1269.0" width="188" height="1" fill="white" fill-opacity="0.5" /><text x="2816" y="1269.0" font-size="14" fill="white" font-family="monospace" dominant-baseline="initial">46</text><rect x="2618" y="1213.5" width="188" height="1" fill="white" fill-opacity="0.2" /><rect x="2618" y="1158.0" width="188" height="1" fill="white" fill-opacity="0.2" /><rect x="2618" y="1102.5" width="188" height="1" fill="white" fill-opacity="0.2" /><rect x="2618" y="1047.0" width="188" height="1" fill="white" fill-opacity="0.5" /><text x="2816" y="1047.0" font-size="14" fill="white" font-family="monospace" dominant-baseline="initial">47</text><rect x="2618" y="991.0" width="188" height="1" fill="white" fill-opacity="0.2" /><rect x="2618" y="935.5" width="188" height="1" fill="white" fill-opacity="0.2" /><rect x="2618" y="880.0" width="188" height="1" fill="white" fill-opacity="0.2" /><rect x="2618" y="824.5" width="188" height="1" fill="white" fill-opacity="0.5" /><text x="2816" y="824.5" font-size="14" fill="white" font-family="monospace" dominant-baseline="initial">48</text><rect x="2618" y="769.0" width="188" height="1" fill="white" fill-opacity="0.2" /><rect x="2618" y="713.5" width="188" height="1" fill="white" fill-opacity="0.2" /><rect x="2618" y="658.0" width="188" height="1" fill="white" fill-opacity="0.2" /><rect x="2618" y="602.5" width="188" height="1" fill="white" fill-opacity="0.5" /><text x="2816" y="602.5" font-size="14" fill="white" font-family="monospace" dominant-baseline="initial">49</text><rect x="2618" y="1491.25" width="188" height="1" fill="aqua" fill-opacity="0.75" /><text x="2618" y="1487.25" font-size="14" fill="aqua" fill-opacity="0.75" font-family="monospace">Special</text><rect x="2856" y="603.0" width="188" height="889.0" fill="black" /><rect x="2856" y="1491.0" width="188" height="1" fill="white" fill-opacity="0.5" /><text x="3054" y="1491.0" font-size="14" fill="white" font-family="monospace" dominant-baseline="initial">49</text><rect x="2856" y="1435.5" width="188" height="1" fill="white" fill-opacity="0.2" /><rect x="2856" y="1379.5" width="188" height="1" fill="white" fill-opacity="0.2" /><rect x="2856" y="1324.0" width="188" height="1" fill="white" fill-opacity="0.2" /><rect x="2856" y="1268.5" width="188" height="1" fill="white" fill-opacity="0.5" /><text x="3054" y="1268.5" font-size="14" fill="white" font-family="monospace" dominant-baseline="initial">50</text><rect x="2856" y="1213.0" width="188" height="1" fill="white" fill-opacity="0.2" /><rect x="2856" y="1157.5" width="188" height="1" fill="white" fill-opacity="0.2" /><rect x="2856" y="1102.0" width="188" height="1" fill="white" fill-opacity="0.2" /><rect x="2856" y="1046.5" width="188" height="1" fill="white" fill-opacity="0.5" /><text x="3054" y="1046.5" font-size="14" fill="white" font-family="monospace" dominant-baseline="initial">51</text><rect x="2856" y="991.0" width="188" height="1" fill="white" fill-opacity="0.2" /><rect x="2856" y="935.5" width="188" height="1" fill="white" fill-opacity="0.2" /><rect x="2856" y="879.5" width="188" height="1" fill="white" fill-opacity="0.2" /><rect x="2856" y="824.0" width="188" height="1" fill="white" fill-opacity="0.5" /><text x="3054" y="824.0" font-size="14" fill="white" font-family="monospace" dominant-baseline="initial">52</text><rect x="2856" y="768.5" width="188" height="1" fill="white" fill-opacity="0.2" /><rect x="2856" y="713.0" width="188" height="1" fill="white" fill-opacity="0.2" /><rect x="2856" y="657.5" width="188" height="1" fill="white" fill-opacity="0.2" /><rect x="2856" y="602.0" width="188" height="1" fill="white" fill-opacity="0.5" /><text x="3054" y="602.0" font-size="14" fill="white" font-family="monospace" dominant-baseline="initial">53</text><rect x="3094" y="603.0" width="188" height="889.0" fill="black" /><rect x="3094" y="1491.0" width="188" height="1" fill="white" fill-opacity="0.5" /><text x="3292" y="1491.0" font-size="14" fill="white" font-family="monospace" dominant-baseline="initial">53</text><rect x="3094" y="1435.5" width="188" height="1" fill="white" fill-opacity="0.2" /><rect x="3094" y="1380.0" width="188" height="1" fill="white" fill-opacity="0.2" /><rect x="3094" y="1324.5" width="188" height="1" fill="white" fill-opacity="0.2" /><rect x="3094" y="1268.5" width="188" height="1" fill="white" fill-opacity="0.5" /><text x="3292" y="1268.5" font-size="14" fill="white" font-family="monospace" dominant-baseline="initial">54</text><rect x="3094" y="1213.0" width="188" height="1" fill="white" fill-opacity="0.2" /><rect x="3094" y="1157.5" width="188" height="1" fill="white" fill-opacity="0.2" /><rect x="3094" y="1102.0" width="188" height="1" fill="white" fill-opacity="0.2" /><rect x="3094" y="1046.5" width="188" height="1" fill="white" fill-opacity="0.5" /><text x="3292" y="1046.5" font-size="14" fill="white" font-family="monospace" dominant-baseline="initial">55</text><rect x="3094" y="991.0" width="188" height="1" fill="white" fill-opacity="0.2" /><rect x="3094" y="935.5" width="188" height="1" fill="white" fill-opacity="0.2" /><rect x="3094" y="880.0" width="188" height="1" fill="white" fill-opacity="0.2" /><rect x="3094" y="824.5" width="188" height="1" fill="white" fill-opacity="0.5" /><text x="3292" y="824.5" font-size="14" fill="white" font-family="monospace" dominant-baseline="initial">56</text><rect x="3094" y="768.5" width="188" height="1" fill="white" fill-opacity="0.2" /><rect x="3094" y="713.0" width="188" height="1" fill="white" fill-opacity="0.2" /><rect x="3094" y="657.5" width="188" height="1" fill="white" fill-opacity="0.2" /><rect x="3094" y="602.0" width="188" height="1" fill="white" fill-opacity="0.5" /><text x="3292" y="602.0" font-size="14" fill="white" font-family="monospace" dominant-baseline="initial">57</text><rect x="3332" y="603.0" width="188" height="889.0" fill="black" /><rect x="3332" y="1491.0" width="188" height="1" fill="white" fill-opacity="0.5" /><text x="3530" y="1491.0" font-size="14" fill="white" font-family="monospace" dominant-baseline="initial">57</text><rect x="3332" y="1435.5" width="188" height="1" fill="white" fill-opacity="0.2" /><rect x="3332" y="1380.0" width="188" height="1" fill="white" fill-opacity="0.2" /><rect x="3332" y="1324.5" width="188" height="1" fill="white" fill-opacity="0.2" /><rect x="3332" y="1269.0" width="188" height="1" fill="white" fill-opacity="0.5" /><text x="3530" y="1269.0" font-size="14" fill="white" font-family="monospace" dominant-baseline="initial">58</text><rect x="3332" y="1213.5" width="188" height="1" fill="white" fill-opacity="0.2" /><rect x="3332" y="1157.5" width="188" height="1" fill="white" fill-opacity="0.2" /><rect x="3332" y="1102.0" width="188" height="1" fill="white" fill-opacity="0.2" /><rect x="3332" y="1046.5" width="188" height="1" fill="white" fill-opacity="0.5" /><text x="3530" y="1046.5" font-size="14" fill="white" font-family="monospace" dominant-baseline="initial">59</text><rect x="3332" y="991.0" width="188" height="1" fill="white" fill-opacity="0.2" /><rect x="3332" y="935.5" width="188" height="1" fill="white" fill-opacity="0.2" /><rect x="3332" y="880.0" width="188" height="1" fill="white" fill-opacity="0.2" /><rect x="3332" y="824.5" width="188" height="1" fill="white" fill-opacity="0.5" /><text x="3530" y="824.5" font-size="14" fill="white" font-family="monospace" dominant-baseline="initial">60</text><rect x="3332" y="769.0" width="188" height="1" fill="white" fill-opacity="0.2" /><rect x="3332" y="713.5" width="188" height="1" fill="white" fill-opacity="0.2" /><rect x="3332" y="657.5" width="188" height="1" fill="white" fill-opacity="0.2" /><rect x="3332" y="602.0" width="188" height="1" fill="white" fill-opacity="0.5" /><text x="3530" y="602.0" font-size="14" fill="white" font-family="monospace" dominant-baseline="initial">61</text><rect x="3570" y="603.5" width="188" height="888.5" fill="black" /><rect x="3570" y="1491.0" width="188" height="1" fill="white" fill-opacity="0.5" /><text x="3768" y="1491.0" font-size="14" fill="white" font-family="monospace" dominant-baseline="initial">61</text><rect x="3570" y="1435.5" width="188" height="1" fill="white" fill-opacity="0.2" /><rect x="3570" y="1380.0" width="188" height="1" fill="white" fill-opacity="0.2" /><rect x="3570" y="1324.5" width="188" height="1" fill="white" fill-opacity="0.2" /><rect x="3570" y="1269.0" width="188" height="1" fill="white" fill-opacity="0.5" /><text x="3768" y="1269.0" font-size="14" fill="white" font-family="monospace" dominant-baseline="initial">62</text><rect x="3570" y="1213.5" width="188" height="1" fill="white" fill-opacity="0.2" /><rect x="3570" y="1158.0" width="188" height="1" fill="white" fill-opacity="0.2" /><rect x="3570" y="1102.5" width="188" height="1" fill="white" fill-opacity="0.2" /><rect x="3570" y="1046.5" width="188" height="1" fill="white" fill-opacity="0.5" /><text x="3768" y="1046.5" font-size="14" fill="white" font-family="monospace" dominant-baseline="initial">63</text><rect x="3570" y="991.0" width="188" height="1" fill="white" fill-opacity="0.2" /><rect x="3570" y="935.5" width="188" height="1" fill="white" fill-opacity="0.2" /><rect x="3570" y="880.0" width="188" height="1" fill="white" fill-opacity="0.2" /><rect x="3570" y="824.5" width="188" height="1" fill="white" fill-opacity="0.5" /><text x="3768" y="824.5" font-size="14" fill="white" font-family="monospace" dominant-baseline="initial">64</text><rect x="3570" y="769.0" width="188" height="1" fill="white" fill-opacity="0.2" /><rect x="3570" y="713.5" width="188" height="1" fill="white" fill-opacity="0.2" /><rect x="3570" y="658.0" width="188" height="1" fill="white" fill-opacity="0.2" /><rect x="3570" y="602.5" width="188" height="1" fill="white" fill-opacity="0.5" /><text x="3768" y="602.5" font-size="14" fill="white" font-family="monospace" dominant-baseline="initial">65</text><rect x="3570" y="1491.1500000000015" width="188" height="1" fill="aqua" fill-opacity="0.75" /><text x="3570" y="1487.1500000000015" font-size="14" fill="aqua" fill-opacity="0.75" font-family="monospace">Special</text><rect x="3808" y="603.0" width="188" height="889.0" fill="black" /><rect x="3808" y="1491.0" width="188" height="1" fill="white" fill-opacity="0.5" /><text x="4006" y="1491.0" font-size="14" fill="white" font-family="monospace" dominant-baseline="initial">65</text><rect x="3808" y="1435.0" width="188" height="1" fill="white" fill-opacity="0.2" /><rect x="3808" y="1379.5" width="188" height="1" fill="white" fill-opacity="0.2" /><rect x="3808" y="1324.0" width="188" height="1" fill="white" fill-opacity="0.2" /><rect x="3808" y="1268.5" width="188" height="1" fill="white" fill-opacity="0.5" /><text x="4006" y="1268.5" font-size="14" fill="white" font-family="monospace" dominant-baseline="initial">66</text><rect x="3808" y="1213.0" width="188" height="1" fill="white" fill-opacity="0.2" /><rect x="3808" y="1157.5" width="188" height="1" fill="white" fill-opacity="0.2" /><rect x="3808" y="1102.0" width="188" height="1" fill="white" fill-opacity="0.2" /><rect x="3808" y="1046.5" width="188" height="1" fill="white" fill-opacity="0.5" /><text x="4006" y="1046.5" font-size="14" fill="white" font-family="monospace" dominant-baseline="initial">67</text><rect x="3808" y="991.0" width="188" height="1" fill="white" fill-opacity="0.2" /><rect x="3808" y="935.0" width="188" height="1" fill="white" fill-opacity="0.2" /><rect x="3808" y="879.5" width="188" height="1" fill="white" fill-opacity="0.2" /><rect x="3808" y="824.0" width="188" height="1" fill="white" fill-opacity="0.5" /><text x="4006" y="824.0" font-size="14" fill="white" font-family="monospace" dominant-baseline="initial">68</text><rect x="3808" y="768.5" width="188" height="1" fill="white" fill-opacity="0.2" /><rect x="3808" y="713.0" width="188" height="1" fill="white" fill-opacity="0.2" /><rect x="3808" y="657.5" width="188" height="1" fill="white" fill-opacity="0.2" /><rect x="3808" y="602.0" width="188" height="1" fill="white" fill-opacity="0.5" /><text x="4006" y="602.0" font-size="14" fill="white" font-family="monospace" dominant-baseline="initial">69</text><rect x="4046" y="14.0" width="188" height="1478.0" fill="black" /><rect x="4046" y="1491.0" width="188" height="1" fill="white" fill-opacity="0.5" /><text x="4244" y="1491.0" font-size="14" fill="white" font-family="monospace" dominant-baseline="initial">69</text><rect x="4046" y="1435.5" width="188" height="1" fill="white" fill-opacity="0.2" /><rect x="4046" y="1380.0" width="188" height="1" fill="white" fill-opacity="0.2" /><rect x="4046" y="1324.0" width="188" height="1" fill="white" fill-opacity="0.2" /><rect x="4046" y="1268.5" width="188" height="1" fill="white" fill-opacity="0.5" /><text x="4244" y="1268.5" font-size="14" fill="white" font-family="monospace" dominant-baseline="initial">70</text><rect x="4046" y="1213.0" width="188" height="1" fill="white" fill-opacity="0.2" /><rect x="4046" y="1157.5" width="188" height="1" fill="white" fill-opacity="0.2" /><rect x="4046" y="1102.0" width="188" height="1" fill="white" fill-opacity="0.2" /><rect x="4046" y="1046.5" width="188" height="1" fill="white" fill-opacity="0.5" /><text x="4244" y="1046.5" font-size="14" fill="white" font-family="monospace" dominant-baseline="initial">71</text><rect x="4046" y="991.0" width="188" height="1" fill="white" fill-opacity="0.2" /><rect x="4046" y="935.5" width="188" height="1" fill="white" fill-opacity="0.2" /><rect x="4046" y="880.0" width="188" height="1" fill="white" fill-opacity="0.2" /><rect x="4046" y="824.0" width="188" height="1" fill="white" fill-opacity="0.5" /><text x="4244" y="824.0" font-size="14" fill="white" font-family="monospace" dominant-baseline="initial">72</text></svg>