<?xml version="1.0" encoding="UTF-8"?><svg xmlns="http://www.w3.org/2000/svg" xmlns:xlink="http://www.w3.org/1999/xlink"     width="1596" height="1214.0" viewBox="0 0 1596 1214.0"><defs></defs><rect x="13.0" y="375.0" width="12.0" height="3" fill="#35df39" stroke="#03aa10" /><rect x="13.0" y="394.0" width="12.0" height="3" fill="#35df39" stroke="#03aa10" /><rect x="13.0" y="412.5" width="12.0" height="3" fill="#35df39" stroke="#03aa10" /><rect x="13.0" y="431.5" width="12.0" height="3" fill="#35df39" stroke="#03aa10" /><rect x="0.0" y="450.0" width="12.0" height="3" fill="#ff3c3c" stroke="#c71f1f" /><rect x="0.0" y="469.0" width="12.0" height="3" fill="#ff3c3c" stroke="#c71f1f" /><rect x="26.0" y="487.5" width="12.0" height="3" fill="#80c9ff" stroke="#0b6cba" /><rect x="26.0" y="506.5" width="12.0" height="3" fill="#80c9ff" stroke="#0b6cba" /><rect x="26.0" y="525.0" width="12.0" height="3" fill="#80c9ff" stroke="#0b6cba" /><rect x="26.0" y="544.0" width="12.0" height="3" fill="#80c9ff" stroke="#0b6cba" /><rect x="13.0" y="562.5" width="12.0" height="3" fill="#35df39" stroke="#03aa10" /><rect x="13.0" y="581.5" width="12.0" height="3" fill="#35df39" stroke="#03aa10" /><rect x="0.0" y="600.0" width="12.0" height="3" fill="#ff3c3c" stroke="#c71f1f" /><rect x="0.0" y="656.5" width="12.0" height="3" fill="#ff3c3c" stroke="#c71f1f" /><rect x="26.0" y="712.5" width="12.0" height="3" fill="#80c9ff" stroke="#0b6cba" /><rect x="26.0" y="769.0" width="12.0" height="3" fill="#80c9ff" stroke="#0b6cba" /><rect x="26.0" y="787.5" width="12.0" height="3" fill="#80c9ff" stroke="#0b6cba" /><rect x="26.0" y="806.5" width="12.0" height="3" fill="#80c9ff" stroke="#0b6cba" /><rect x="26.0" y="825.0" width="12.0" height="3" fill="#80c9ff" stroke="#0b6cba" /><rect x="26.0" y="844.0" width="12.0" height="3" fill="#80c9ff" stroke="#0b6cba" /><rect x="26.0" y="862.5" width="12.0" height="3" fill="#80c9ff" stroke="#0b6cba" /><rect x="26.0" y="881.5" width="12.0" height="3" fill="#80c9ff" stroke="#0b6cba" /><rect x="0.0" y="900.0" width="12.0" height="3" fill="#ff3c3c" stroke="#c71f1f" /><rect x="0.0" y="956.5" width="12.0" height="3" fill="#ff3c3c" stroke="#c71f1f" /><rect x="26.0" y="1012.5" width="12.0" height="3" fill="#80c9ff" stroke="#0b6cba" /><rect x="13.0" y="1087.5" width="12.0" height="3" fill="#35df39" stroke="#03aa10" /><rect x="26.0" y="1162.5" width="12.0" height="3" fill="#80c9ff" stroke="#0b6cba" /><rect x="114.0" y="0.0" width="12.0" height="3" fill="#ff3c3c" stroke="#c71f1f" /><rect x="114.0" y="56.5" width="12.0" height="3" fill="#ff3c3c" stroke="#c71f1f" /><rect x="140.0" y="112.5" width="12.0" height="3" fill="#80c9ff" stroke="#0b6cba" /><rect x="140.0" y="169.0" width="12.0" height="3" fill="#80c9ff" stroke="#0b6cba" /><rect x="140.0" y="187.5" width="12.0" height="3" fill="#80c9ff" stroke="#0b6cba" /><rect x="140.0" y="206.5" width="12.0" height="3" fill="#80c9ff" stroke="#0b6cba" /><rect x="140.0" y="225.0" width="12.0" height="3" fill="#80c9ff" stroke="#0b6cba" /><rect x="140.0" y="244.0" width="12.0" height="3" fill="#80c9ff" stroke="#0b6cba" /><rect x="140.0" y="262.5" width="12.0" height="3" fill="#80c9ff" stroke="#0b6cba" /><rect x="140.0" y="281.5" width="12.0" height="3" fill="#80c9ff" stroke="#0b6cba" /><rect x="114.0" y="300.0" width="12.0" height="3" fill="#ff3c3c" stroke="#c71f1f" /><rect x="127.0" y="450.0" width="12.0" height="3" fill="#35df39" stroke="#03aa10" /><rect x="140.0" y="487.5" width="12.0" height="3" fill="#80c9ff" stroke="#0b6cba" /><rect x="114.0" y="525.0" width="12.0" height="3" fill="#ff3c3c" stroke="#c71f1f" /><rect x="127.0" y="562.5" width="12.0" height="3" fill="#35df39" stroke="#03aa10" /><rect x="153.0" y="600.0" width="12.0" height="130.5" fill="#fff874" stroke="#eb9c26" /><rect x="153.0" y="750.0" width="12.0" height="3" fill="#fff874" stroke="#eb9c26" /><rect x="153.0" y="769.0" width="12.0" height="3" fill="#fff874" stroke="#eb9c26" /><rect x="153.0" y="787.5" width="12.0" height="3" fill="#fff874" stroke="#eb9c26" /><rect x="153.0" y="825.0" width="12.0" height="3" fill="#fff874" stroke="#eb9c26" /><rect x="140.0" y="844.0" width="12.0" height="3" fill="#80c9ff" stroke="#0b6cba" /><rect x="127.0" y="900.0" width="12.0" height="3" fill="#35df39" stroke="#03aa10" /><rect x="127.0" y="937.5" width="12.0" height="3" fill="#35df39" stroke="#03aa10" /><rect x="127.0" y="956.5" width="12.0" height="3" fill="#35df39" stroke="#03aa10" /><rect x="127.0" y="975.0" width="12.0" height="3" fill="#35df39" stroke="#03aa10" /><rect x="127.0" y="994.0" width="12.0" height="3" fill="#35df39" stroke="#03aa10" /><rect x="127.0" y="1012.5" width="12.0" height="3" fill="#35df39" stroke="#03aa10" /><rect x="127.0" y="1031.5" width="12.0" height="3" fill="#35df39" stroke="#03aa10" /><rect x="127.0" y="1050.0" width="12.0" height="3" fill="#35df39" stroke="#03aa10" /><rect x="127.0" y="1069.0" width="12.0" height="3" fill="#35df39" stroke="#03aa10" /><rect x="127.0" y="1087.5" width="12.0" height="3" fill="#35df39" stroke="#03aa10" /><rect x="127.0" y="1106.5" width="12.0" height="3" fill="#35df39" stroke="#03aa10" /><rect x="127.0" y="1125.0" width="12.0" height="3" fill="#35df39" stroke="#03aa10" /><rect x="127.0" y="1144.0" width="12.0" height="3" fill="#35df39" stroke="#03aa10" /><rect x="127.0" y="1162.5" width="12.0" height="3" fill="#35df39" stroke="#03aa10" /><rect x="127.0" y="1181.5" width="12.0" height="3" fill="#35df39" stroke="#03aa10" /><rect x="254.0" y="0.0" width="12.0" height="3" fill="#80c9ff" stroke="#0b6cba" /><rect x="254.0" y="37.5" width="12.0" height="3" fill="#80c9ff" stroke="#0b6cba" /><rect x="254.0" y="56.5" width="12.0" height="3" fill="#80c9ff" stroke="#0b6cba" /><rect x="254.0" y="75.0" width="12.0" height="3" fill="#80c9ff" stroke="#0b6cba" /><rect x="254.0" y="94.0" width="12.0" height="3" fill="#80c9ff" stroke="#0b6cba" /><rect x="254.0" y="112.5" width="12.0" height="3" fill="#80c9ff" stroke="#0b6cba" /><rect x="254.0" y="131.5" width="12.0" height="3" fill="#80c9ff" stroke="#0b6cba" /><rect x="228.0" y="150.0" width="12.0" height="3" fill="#ff3c3c" stroke="#c71f1f" /><rect x="228.0" y="187.5" width="12.0" height="3" fill="#ff3c3c" stroke="#c71f1f" /><rect x="228.0" y="206.5" width="12.0" height="3" fill="#ff3c3c" stroke="#c71f1f" /><rect x="228.0" y="225.0" width="12.0" height="3" fill="#ff3c3c" stroke="#c71f1f" /><rect x="228.0" y="244.0" width="12.0" height="3" fill="#ff3c3c" stroke="#c71f1f" /><rect x="228.0" y="262.5" width="12.0" height="3" fill="#ff3c3c" stroke="#c71f1f" /><rect x="228.0" y="281.5" width="12.0" height="3" fill="#ff3c3c" stroke="#c71f1f" /><rect x="254.0" y="300.0" width="12.0" height="3" fill="#80c9ff" stroke="#0b6cba" /><rect x="254.0" y="337.5" width="12.0" height="3" fill="#80c9ff" stroke="#0b6cba" /><rect x="254.0" y="356.5" width="12.0" height="3" fill="#80c9ff" stroke="#0b6cba" /><rect x="254.0" y="375.0" width="12.0" height="3" fill="#80c9ff" stroke="#0b6cba" /><rect x="254.0" y="394.0" width="12.0" height="3" fill="#80c9ff" stroke="#0b6cba" /><rect x="254.0" y="412.5" width="12.0" height="3" fill="#80c9ff" stroke="#0b6cba" /><rect x="254.0" y="431.5" width="12.0" height="3" fill="#80c9ff" stroke="#0b6cba" /><rect x="254.0" y="450.0" width="12.0" height="3" fill="#80c9ff" stroke="#0b6cba" /><rect x="254.0" y="469.0" width="12.0" height="3" fill="#80c9ff" stroke="#0b6cba" /><rect x="254.0" y="487.5" width="12.0" height="3" fill="#80c9ff" stroke="#0b6cba" /><rect x="254.0" y="506.5" width="12.0" height="3" fill="#80c9ff" stroke="#0b6cba" /><rect x="254.0" y="525.0" width="12.0" height="3" fill="#80c9ff" stroke="#0b6cba" /><rect x="254.0" y="544.0" width="12.0" height="3" fill="#80c9ff" stroke="#0b6cba" /><rect x="254.0" y="562.5" width="12.0" height="3" fill="#80c9ff" stroke="#0b6cba" /><rect x="254.0" y="581.5" width="12.0" height="3" fill="#80c9ff" stroke="#0b6cba" /><rect x="267.0" y="600.0" width="12.0" height="3" fill="#fff874" stroke="#eb9c26" /><rect x="267.0" y="637.5" width="12.0" height="3" fill="#fff874" stroke="#eb9c26" /><rect x="267.0" y="656.5" width="12.0" height="3" fill="#fff874" stroke="#eb9c26" /><rect x="267.0" y="675.0" width="12.0" height="3" fill="#fff874" stroke="#eb9c26" /><rect x="267.0" y="694.0" width="12.0" height="3" fill="#fff874" stroke="#eb9c26" /><rect x="267.0" y="712.5" width="12.0" height="3" fill="#fff874" stroke="#eb9c26" /><rect x="267.0" y="731.5" width="12.0" height="3" fill="#fff874" stroke="#eb9c26" /><rect x="267.0" y="750.0" width="12.0" height="3" fill="#fff874" stroke="#eb9c26" /><rect x="267.0" y="787.5" width="12.0" height="3" fill="#fff874" stroke="#eb9c26" /><rect x="280.0" y="806.5" width="12.0" height="3" fill="#ff83f4" stroke="#d002bc" /><rect x="241.0" y="900.0" width="12.0" height="3" fill="#35df39" stroke="#03aa10" /><rect x="241.0" y="937.5" width="12.0" height="3" fill="#35df39" stroke="#03aa10" /><rect x="241.0" y="956.5" width="12.0" height="3" fill="#35df39" stroke="#03aa10" /><rect x="241.0" y="975.0" width="12.0" height="3" fill="#35df39" stroke="#03aa10" /><rect x="241.0" y="994.0" width="12.0" height="3" fill="#35df39" stroke="#03aa10" /><rect x="241.0" y="1012.5" width="12.0" height="3" fill="#35df39" stroke="#03aa10" /><rect x="241.0" y="1031.5" width="12.0" height="3" fill="#35df39" stroke="#03aa10" /><rect x="241.0" y="1050.0" width="12.0" height="3" fill="#35df39" stroke="#03aa10" /><rect x="241.0" y="1069.0" width="12.0" height="3" fill="#35df39" stroke="#03aa10" /><rect x="241.0" y="1087.5" width="12.0" height="3" fill="#35df39" stroke="#03aa10" /><rect x="241.0" y="1106.5" width="12.0" height="3" fill="#35df39" stroke="#03aa10" /><rect x="241.0" y="1125.0" width="12.0" height="3" fill="#35df39" stroke="#03aa10" /><rect x="241.0" y="1144.0" width="12.0" height="3" fill="#35df39" stroke="#03aa10" /><rect x="241.0" y="1162.5" width="12.0" height="3" fill="#35df39" stroke="#03aa10" /><rect x="241.0" y="1181.5" width="12.0" height="3" fill="#35df39" stroke="#03aa10" /><rect x="368.0" y="0.0" width="12.0" height="3" fill="#80c9ff" stroke="#0b6cba" /><rect x="368.0" y="37.5" width="12.0" height="3" fill="#80c9ff" stroke="#0b6cba" /><rect x="368.0" y="56.5" width="12.0" height="3" fill="#80c9ff" stroke="#0b6cba" /><rect x="368.0" y="75.0" width="12.0" height="3" fill="#80c9ff" stroke="#0b6cba" /><rect x="368.0" y="94.0" width="12.0" height="3" fill="#80c9ff" stroke="#0b6cba" /><rect x="368.0" y="112.5" width="12.0" height="3" fill="#80c9ff" stroke="#0b6cba" /><rect x="368.0" y="131.5" width="12.0" height="3" fill="#80c9ff" stroke="#0b6cba" /><rect x="342.0" y="150.0" width="12.0" height="3" fill="#ff3c3c" stroke="#c71f1f" /><rect x="342.0" y="187.5" width="12.0" height="3" fill="#ff3c3c" stroke="#c71f1f" /><rect x="342.0" y="206.5" width="12.0" height="3" fill="#ff3c3c" stroke="#c71f1f" /><rect x="342.0" y="225.0" width="12.0" height="3" fill="#ff3c3c" stroke="#c71f1f" /><rect x="342.0" y="244.0" width="12.0" height="3" fill="#ff3c3c" stroke="#c71f1f" /><rect x="342.0" y="262.5" width="12.0" height="3" fill="#ff3c3c" stroke="#c71f1f" /><rect x="342.0" y="281.5" width="12.0" height="3" fill="#ff3c3c" stroke="#c71f1f" /><rect x="368.0" y="300.0" width="12.0" height="3" fill="#80c9ff" stroke="#0b6cba" /><rect x="368.0" y="337.5" width="12.0" height="3" fill="#80c9ff" stroke="#0b6cba" /><rect x="368.0" y="356.5" width="12.0" height="3" fill="#80c9ff" stroke="#0b6cba" /><rect x="368.0" y="375.0" width="12.0" height="3" fill="#80c9ff" stroke="#0b6cba" /><rect x="368.0" y="394.0" width="12.0" height="3" fill="#80c9ff" stroke="#0b6cba" /><rect x="368.0" y="412.5" width="12.0" height="3" fill="#80c9ff" stroke="#0b6cba" /><rect x="368.0" y="431.5" width="12.0" height="3" fill="#80c9ff" stroke="#0b6cba" /><rect x="368.0" y="450.0" width="12.0" height="3" fill="#80c9ff" stroke="#0b6cba" /><rect x="368.0" y="469.0" width="12.0" height="3" fill="#80c9ff" stroke="#0b6cba" /><rect x="368.0" y="487.5" width="12.0" height="3" fill="#80c9ff" stroke="#0b6cba" /><rect x="368.0" y="506.5" width="12.0" height="3" fill="#80c9ff" stroke="#0b6cba" /><rect x="368.0" y="525.0" width="12.0" height="3" fill="#80c9ff" stroke="#0b6cba" /><rect x="368.0" y="544.0" width="12.0" height="3" fill="#80c9ff" stroke="#0b6cba" /><rect x="368.0" y="562.5" width="12.0" height="3" fill="#80c9ff" stroke="#0b6cba" /><rect x="368.0" y="581.5" width="12.0" height="3" fill="#80c9ff" stroke="#0b6cba" /><rect x="381.0" y="600.0" width="12.0" height="3" fill="#fff874" stroke="#eb9c26" /><rect x="381.0" y="637.5" width="12.0" height="3" fill="#fff874" stroke="#eb9c26" /><rect x="381.0" y="656.5" width="12.0" height="3" fill="#fff874" stroke="#eb9c26" /><rect x="381.0" y="675.0" width="12.0" height="3" fill="#fff874" stroke="#eb9c26" /><rect x="381.0" y="694.0" width="12.0" height="3" fill="#fff874" stroke="#eb9c26" /><rect x="381.0" y="712.5" width="12.0" height="3" fill="#fff874" stroke="#eb9c26" /><rect x="381.0" y="731.5" width="12.0" height="3" fill="#fff874" stroke="#eb9c26" /><rect x="394.0" y="750.0" width="12.0" height="3" fill="#ff83f4" stroke="#d002bc" /><rect x="394.0" y="769.0" width="12.0" height="3" fill="#ff83f4" stroke="#d002bc" /><rect x="394.0" y="787.5" width="12.0" height="3" fill="#ff83f4" stroke="#d002bc" /><rect x="394.0" y="806.5" width="12.0" height="3" fill="#ff83f4" stroke="#d002bc" /><rect x="394.0" y="825.0" width="12.0" height="3" fill="#ff83f4" stroke="#d002bc" /><rect x="381.0" y="844.0" width="12.0" height="3" fill="#fff874" stroke="#eb9c26" /><rect x="355.0" y="900.0" width="12.0" height="3" fill="#35df39" stroke="#03aa10" /><rect x="355.0" y="937.5" width="12.0" height="3" fill="#35df39" stroke="#03aa10" /><rect x="368.0" y="975.0" width="12.0" height="3" fill="#80c9ff" stroke="#0b6cba" /><rect x="355.0" y="994.0" width="12.0" height="3" fill="#35df39" stroke="#03aa10" /><rect x="355.0" y="1031.5" width="12.0" height="3" fill="#35df39" stroke="#03aa10" /><rect x="368.0" y="1125.0" width="12.0" height="3" fill="#80c9ff" stroke="#0b6cba" /><rect x="368.0" y="1144.0" width="12.0" height="3" fill="#80c9ff" stroke="#0b6cba" /><rect x="355.0" y="1162.5" width="12.0" height="3" fill="#35df39" stroke="#03aa10" /><rect x="355.0" y="1181.5" width="12.0" height="3" fill="#35df39" stroke="#03aa10" /><rect x="456.0" y="0.0" width="12.0" height="3" fill="#ff3c3c" stroke="#c71f1f" /><rect x="456.0" y="37.5" width="12.0" height="3" fill="#ff3c3c" stroke="#c71f1f" /><rect x="456.0" y="56.5" width="12.0" height="3" fill="#ff3c3c" stroke="#c71f1f" /><rect x="456.0" y="94.0" width="12.0" height="3" fill="#ff3c3c" stroke="#c71f1f" /><rect x="456.0" y="112.5" width="12.0" height="3" fill="#ff3c3c" stroke="#c71f1f" /><rect x="482.0" y="150.0" width="12.0" height="3" fill="#80c9ff" stroke="#0b6cba" /><rect x="482.0" y="187.5" width="12.0" height="3" fill="#80c9ff" stroke="#0b6cba" /><rect x="482.0" y="206.5" width="12.0" height="3" fill="#80c9ff" stroke="#0b6cba" /><rect x="482.0" y="244.0" width="12.0" height="3" fill="#80c9ff" stroke="#0b6cba" /><rect x="482.0" y="262.5" width="12.0" height="3" fill="#80c9ff" stroke="#0b6cba" /><rect x="469.0" y="300.0" width="12.0" height="3" fill="#35df39" stroke="#03aa10" /><rect x="469.0" y="337.5" width="12.0" height="3" fill="#35df39" stroke="#03aa10" /><rect x="469.0" y="356.5" width="12.0" height="3" fill="#35df39" stroke="#03aa10" /><rect x="482.0" y="375.0" width="12.0" height="3" fill="#80c9ff" stroke="#0b6cba" /><rect x="469.0" y="394.0" width="12.0" height="3" fill="#35df39" stroke="#03aa10" /><rect x="469.0" y="431.5" width="12.0" height="3" fill="#35df39" stroke="#03aa10" /><rect x="482.0" y="525.0" width="12.0" height="3" fill="#80c9ff" stroke="#0b6cba" /><rect x="482.0" y="544.0" width="12.0" height="3" fill="#80c9ff" stroke="#0b6cba" /><rect x="469.0" y="562.5" width="12.0" height="3" fill="#35df39" stroke="#03aa10" /><rect x="469.0" y="581.5" width="12.0" height="3" fill="#35df39" stroke="#03aa10" /><rect x="456.0" y="600.0" width="12.0" height="3" fill="#ff3c3c" stroke="#c71f1f" /><rect x="456.0" y="619.0" width="12.0" height="3" fill="#ff3c3c" stroke="#c71f1f" /><rect x="456.0" y="637.5" width="12.0" height="3" fill="#ff3c3c" stroke="#c71f1f" /><rect x="456.0" y="656.5" width="12.0" height="3" fill="#ff3c3c" stroke="#c71f1f" /><rect x="469.0" y="675.0" width="12.0" height="3" fill="#35df39" stroke="#03aa10" /><rect x="469.0" y="694.0" width="12.0" height="3" fill="#35df39" stroke="#03aa10" /><rect x="469.0" y="712.5" width="12.0" height="3" fill="#35df39" stroke="#03aa10" /><rect x="469.0" y="731.5" width="12.0" height="3" fill="#35df39" stroke="#03aa10" /><rect x="482.0" y="750.0" width="12.0" height="3" fill="#80c9ff" stroke="#0b6cba" /><rect x="482.0" y="769.0" width="12.0" height="3" fill="#80c9ff" stroke="#0b6cba" /><rect x="482.0" y="787.5" width="12.0" height="3" fill="#80c9ff" stroke="#0b6cba" /><rect x="482.0" y="806.5" width="12.0" height="3" fill="#80c9ff" stroke="#0b6cba" /><rect x="495.0" y="825.0" width="12.0" height="3" fill="#fff874" stroke="#eb9c26" /><rect x="495.0" y="844.0" width="12.0" height="3" fill="#fff874" stroke="#eb9c26" /><rect x="495.0" y="862.5" width="12.0" height="3" fill="#fff874" stroke="#eb9c26" /><rect x="495.0" y="881.5" width="12.0" height="3" fill="#fff874" stroke="#eb9c26" /><rect x="469.0" y="900.0" width="12.0" height="3" fill="#35df39" stroke="#03aa10" /><rect x="469.0" y="937.5" width="12.0" height="3" fill="#35df39" stroke="#03aa10" /><rect x="482.0" y="975.0" width="12.0" height="3" fill="#80c9ff" stroke="#0b6cba" /><rect x="469.0" y="994.0" width="12.0" height="3" fill="#35df39" stroke="#03aa10" /><rect x="469.0" y="1031.5" width="12.0" height="3" fill="#35df39" stroke="#03aa10" /><rect x="482.0" y="1125.0" width="12.0" height="3" fill="#80c9ff" stroke="#0b6cba" /><rect x="482.0" y="1144.0" width="12.0" height="3" fill="#80c9ff" stroke="#0b6cba" /><rect x="469.0" y="1162.5" width="12.0" height="3" fill="#35df39" stroke="#03aa10" /><rect x="469.0" y="1181.5" width="12.0" height="3" fill="#35df39" stroke="#03aa10" /><rect x="570.0" y="0.0" width="12.0" height="3" fill="#ff3c3c" stroke="#c71f1f" /><rect x="570.0" y="37.5" width="12.0" height="3" fill="#ff3c3c" stroke="#c71f1f" /><rect x="570.0" y="56.5" width="12.0" height="3" fill="#ff3c3c" stroke="#c71f1f" /><rect x="570.0" y="94.0" width="12.0" height="3" fill="#ff3c3c" stroke="#c71f1f" /><rect x="570.0" y="112.5" width="12.0" height="3" fill="#ff3c3c" stroke="#c71f1f" /><rect x="596.0" y="150.0" width="12.0" height="3" fill="#80c9ff" stroke="#0b6cba" /><rect x="596.0" y="187.5" width="12.0" height="3" fill="#80c9ff" stroke="#0b6cba" /><rect x="596.0" y="206.5" width="12.0" height="3" fill="#80c9ff" stroke="#0b6cba" /><rect x="596.0" y="244.0" width="12.0" height="3" fill="#80c9ff" stroke="#0b6cba" /><rect x="596.0" y="262.5" width="12.0" height="3" fill="#80c9ff" stroke="#0b6cba" /><rect x="583.0" y="300.0" width="12.0" height="3" fill="#35df39" stroke="#03aa10" /><rect x="583.0" y="337.5" width="12.0" height="3" fill="#35df39" stroke="#03aa10" /><rect x="583.0" y="356.5" width="12.0" height="3" fill="#35df39" stroke="#03aa10" /><rect x="596.0" y="375.0" width="12.0" height="3" fill="#80c9ff" stroke="#0b6cba" /><rect x="583.0" y="394.0" width="12.0" height="3" fill="#35df39" stroke="#03aa10" /><rect x="583.0" y="431.5" width="12.0" height="3" fill="#35df39" stroke="#03aa10" /><rect x="596.0" y="525.0" width="12.0" height="3" fill="#80c9ff" stroke="#0b6cba" /><rect x="596.0" y="544.0" width="12.0" height="3" fill="#80c9ff" stroke="#0b6cba" /><rect x="583.0" y="562.5" width="12.0" height="3" fill="#35df39" stroke="#03aa10" /><rect x="583.0" y="581.5" width="12.0" height="3" fill="#35df39" stroke="#03aa10" /><rect x="570.0" y="600.0" width="12.0" height="3" fill="#ff3c3c" stroke="#c71f1f" /><rect x="570.0" y="619.0" width="12.0" height="3" fill="#ff3c3c" stroke="#c71f1f" /><rect x="570.0" y="637.5" width="12.0" height="3" fill="#ff3c3c" stroke="#c71f1f" /><rect x="583.0" y="656.5" width="12.0" height="3" fill="#35df39" stroke="#03aa10" /><rect x="583.0" y="675.0" width="12.0" height="3" fill="#35df39" stroke="#03aa10" /><rect x="583.0" y="694.0" width="12.0" height="3" fill="#35df39" stroke="#03aa10" /><rect x="596.0" y="712.5" width="12.0" height="3" fill="#80c9ff" stroke="#0b6cba" /><rect x="596.0" y="731.5" width="12.0" height="3" fill="#80c9ff" stroke="#0b6cba" /><rect x="596.0" y="750.0" width="12.0" height="3" fill="#80c9ff" stroke="#0b6cba" /><rect x="583.0" y="769.0" width="12.0" height="3" fill="#35df39" stroke="#03aa10" /><rect x="583.0" y="787.5" width="12.0" height="3" fill="#35df39" stroke="#03aa10" /><rect x="583.0" y="806.5" width="12.0" height="3" fill="#35df39" stroke="#03aa10" /><rect x="596.0" y="825.0" width="12.0" height="3" fill="#80c9ff" stroke="#0b6cba" /><rect x="596.0" y="844.0" width="12.0" height="3" fill="#80c9ff" stroke="#0b6cba" /><rect x="609.0" y="900.0" width="12.0" height="267.75" fill="#fff874" stroke="#eb9c26" /><rect x="697.0" y="75.0" width="12.0" height="3" fill="#35df39" stroke="#03aa10" /><rect x="697.0" y="94.0" width="12.0" height="3" fill="#35df39" stroke="#03aa10" /><rect x="697.0" y="112.5" width="12.0" height="3" fill="#35df39" stroke="#03aa10" /><rect x="697.0" y="131.5" width="12.0" height="3" fill="#35df39" stroke="#03aa10" /><rect x="684.0" y="150.0" width="12.0" height="3" fill="#ff3c3c" stroke="#c71f1f" /><rect x="684.0" y="169.0" width="12.0" height="3" fill="#ff3c3c" stroke="#c71f1f" /><rect x="710.0" y="187.5" width="12.0" height="3" fill="#80c9ff" stroke="#0b6cba" /><rect x="710.0" y="206.5" width="12.0" height="3" fill="#80c9ff" stroke="#0b6cba" /><rect x="710.0" y="225.0" width="12.0" height="3" fill="#80c9ff" stroke="#0b6cba" /><rect x="710.0" y="244.0" width="12.0" height="3" fill="#80c9ff" stroke="#0b6cba" /><rect x="697.0" y="262.5" width="12.0" height="3" fill="#35df39" stroke="#03aa10" /><rect x="697.0" y="281.5" width="12.0" height="3" fill="#35df39" stroke="#03aa10" /><rect x="697.0" y="300.0" width="12.0" height="3" fill="#35df39" stroke="#03aa10" /><rect x="684.0" y="319.0" width="12.0" height="3" fill="#ff3c3c" stroke="#c71f1f" /><rect x="697.0" y="337.5" width="12.0" height="3" fill="#35df39" stroke="#03aa10" /><rect x="697.0" y="394.0" width="12.0" height="3" fill="#35df39" stroke="#03aa10" /><rect x="684.0" y="412.5" width="12.0" height="3" fill="#ff3c3c" stroke="#c71f1f" /><rect x="697.0" y="431.5" width="12.0" height="3" fill="#35df39" stroke="#03aa10" /><rect x="697.0" y="487.5" width="12.0" height="3" fill="#35df39" stroke="#03aa10" /><rect x="684.0" y="506.5" width="12.0" height="3" fill="#ff3c3c" stroke="#c71f1f" /><rect x="710.0" y="525.0" width="12.0" height="3" fill="#80c9ff" stroke="#0b6cba" /><rect x="710.0" y="544.0" width="12.0" height="3" fill="#80c9ff" stroke="#0b6cba" /><rect x="684.0" y="562.5" width="12.0" height="3" fill="#ff3c3c" stroke="#c71f1f" /><rect x="684.0" y="581.5" width="12.0" height="3" fill="#ff3c3c" stroke="#c71f1f" /><rect x="697.0" y="600.0" width="12.0" height="3" fill="#35df39" stroke="#03aa10" /><rect x="684.0" y="619.0" width="12.0" height="3" fill="#ff3c3c" stroke="#c71f1f" /><rect x="697.0" y="637.5" width="12.0" height="3" fill="#35df39" stroke="#03aa10" /><rect x="697.0" y="694.0" width="12.0" height="3" fill="#35df39" stroke="#03aa10" /><rect x="684.0" y="712.5" width="12.0" height="3" fill="#ff3c3c" stroke="#c71f1f" /><rect x="697.0" y="731.5" width="12.0" height="3" fill="#35df39" stroke="#03aa10" /><rect x="697.0" y="787.5" width="12.0" height="3" fill="#35df39" stroke="#03aa10" /><rect x="684.0" y="806.5" width="12.0" height="3" fill="#ff3c3c" stroke="#c71f1f" /><rect x="723.0" y="825.0" width="12.0" height="3" fill="#fff874" stroke="#eb9c26" /><rect x="710.0" y="844.0" width="12.0" height="3" fill="#80c9ff" stroke="#0b6cba" /><rect x="697.0" y="862.5" width="12.0" height="3" fill="#35df39" stroke="#03aa10" /><rect x="684.0" y="881.5" width="12.0" height="3" fill="#ff3c3c" stroke="#c71f1f" /><rect x="697.0" y="900.0" width="12.0" height="3" fill="#35df39" stroke="#03aa10" /><rect x="684.0" y="919.0" width="12.0" height="3" fill="#ff3c3c" stroke="#c71f1f" /><rect x="697.0" y="937.5" width="12.0" height="3" fill="#35df39" stroke="#03aa10" /><rect x="697.0" y="994.0" width="12.0" height="3" fill="#35df39" stroke="#03aa10" /><rect x="684.0" y="1012.5" width="12.0" height="3" fill="#ff3c3c" stroke="#c71f1f" /><rect x="697.0" y="1031.5" width="12.0" height="3" fill="#35df39" stroke="#03aa10" /><rect x="697.0" y="1087.5" width="12.0" height="3" fill="#35df39" stroke="#03aa10" /><rect x="684.0" y="1106.5" width="12.0" height="3" fill="#ff3c3c" stroke="#c71f1f" /><rect x="710.0" y="1125.0" width="12.0" height="3" fill="#80c9ff" stroke="#0b6cba" /><rect x="710.0" y="1144.0" width="12.0" height="3" fill="#80c9ff" stroke="#0b6cba" /><rect x="684.0" y="1162.5" width="12.0" height="3" fill="#ff3c3c" stroke="#c71f1f" /><rect x="684.0" y="1181.5" width="12.0" height="3" fill="#ff3c3c" stroke="#c71f1f" /><rect x="811.0" y="0.0" width="12.0" height="3" fill="#35df39" stroke="#03aa10" /><rect x="798.0" y="19.0" width="12.0" height="3" fill="#ff3c3c" stroke="#c71f1f" /><rect x="811.0" y="37.5" width="12.0" height="3" fill="#35df39" stroke="#03aa10" /><rect x="811.0" y="94.0" width="12.0" height="3" fill="#35df39" stroke="#03aa10" /><rect x="798.0" y="112.5" width="12.0" height="3" fill="#ff3c3c" stroke="#c71f1f" /><rect x="811.0" y="131.5" width="12.0" height="3" fill="#35df39" stroke="#03aa10" /><rect x="811.0" y="300.0" width="12.0" height="3" fill="#35df39" stroke="#03aa10" /><rect x="811.0" y="337.5" width="12.0" height="3" fill="#35df39" stroke="#03aa10" /><rect x="811.0" y="356.5" width="12.0" height="3" fill="#35df39" stroke="#03aa10" /><rect x="811.0" y="375.0" width="12.0" height="3" fill="#35df39" stroke="#03aa10" /><rect x="811.0" y="394.0" width="12.0" height="3" fill="#35df39" stroke="#03aa10" /><rect x="811.0" y="412.5" width="12.0" height="3" fill="#35df39" stroke="#03aa10" /><rect x="811.0" y="431.5" width="12.0" height="3" fill="#35df39" stroke="#03aa10" /><rect x="824.0" y="450.0" width="12.0" height="3" fill="#80c9ff" stroke="#0b6cba" /><rect x="824.0" y="487.5" width="12.0" height="3" fill="#80c9ff" stroke="#0b6cba" /><rect x="824.0" y="506.5" width="12.0" height="3" fill="#80c9ff" stroke="#0b6cba" /><rect x="824.0" y="525.0" width="12.0" height="3" fill="#80c9ff" stroke="#0b6cba" /><rect x="824.0" y="544.0" width="12.0" height="3" fill="#80c9ff" stroke="#0b6cba" /><rect x="824.0" y="562.5" width="12.0" height="3" fill="#80c9ff" stroke="#0b6cba" /><rect x="824.0" y="581.5" width="12.0" height="3" fill="#80c9ff" stroke="#0b6cba" /><rect x="798.0" y="600.0" width="12.0" height="3" fill="#ff3c3c" stroke="#c71f1f" /><rect x="798.0" y="637.5" width="12.0" height="3" fill="#ff3c3c" stroke="#c71f1f" /><rect x="798.0" y="656.5" width="12.0" height="3" fill="#ff3c3c" stroke="#c71f1f" /><rect x="798.0" y="675.0" width="12.0" height="3" fill="#ff3c3c" stroke="#c71f1f" /><rect x="798.0" y="694.0" width="12.0" height="3" fill="#ff3c3c" stroke="#c71f1f" /><rect x="798.0" y="712.5" width="12.0" height="3" fill="#ff3c3c" stroke="#c71f1f" /><rect x="798.0" y="731.5" width="12.0" height="3" fill="#ff3c3c" stroke="#c71f1f" /><rect x="837.0" y="750.0" width="12.0" height="3" fill="#fff874" stroke="#eb9c26" /><rect x="837.0" y="787.5" width="12.0" height="3" fill="#fff874" stroke="#eb9c26" /><rect x="837.0" y="806.5" width="12.0" height="3" fill="#fff874" stroke="#eb9c26" /><rect x="837.0" y="825.0" width="12.0" height="3" fill="#fff874" stroke="#eb9c26" /><rect x="837.0" y="844.0" width="12.0" height="3" fill="#fff874" stroke="#eb9c26" /><rect x="837.0" y="862.5" width="12.0" height="3" fill="#fff874" stroke="#eb9c26" /><rect x="837.0" y="881.5" width="12.0" height="3" fill="#fff874" stroke="#eb9c26" /><rect x="811.0" y="900.0" width="12.0" height="3" fill="#35df39" stroke="#03aa10" /><rect x="811.0" y="937.5" width="12.0" height="3" fill="#35df39" stroke="#03aa10" /><rect x="811.0" y="956.5" width="12.0" height="3" fill="#35df39" stroke="#03aa10" /><rect x="811.0" y="975.0" width="12.0" height="3" fill="#35df39" stroke="#03aa10" /><rect x="811.0" y="994.0" width="12.0" height="3" fill="#35df39" stroke="#03aa10" /><rect x="811.0" y="1012.5" width="12.0" height="3" fill="#35df39" stroke="#03aa10" /><rect x="811.0" y="1031.5" width="12.0" height="3" fill="#35df39" stroke="#03aa10" /><rect x="824.0" y="1050.0" width="12.0" height="3" fill="#80c9ff" stroke="#0b6cba" /><rect x="824.0" y="1087.5" width="12.0" height="3" fill="#80c9ff" stroke="#0b6cba" /><rect x="824.0" y="1106.5" width="12.0" height="3" fill="#80c9ff" stroke="#0b6cba" /><rect x="824.0" y="1125.0" width="12.0" height="3" fill="#80c9ff" stroke="#0b6cba" /><rect x="824.0" y="1144.0" width="12.0" height="3" fill="#80c9ff" stroke="#0b6cba" /><rect x="824.0" y="1162.5" width="12.0" height="3" fill="#80c9ff" stroke="#0b6cba" /><rect x="824.0" y="1181.5" width="12.0" height="3" fill="#80c9ff" stroke="#0b6cba" /><rect x="912.0" y="0.0" width="12.0" height="3" fill="#ff3c3c" stroke="#c71f1f" /><rect x="912.0" y="37.5" width="12.0" height="3" fill="#ff3c3c" stroke="#c71f1f" /><rect x="912.0" y="56.5" width="12.0" height="3" fill="#ff3c3c" stroke="#c71f1f" /><rect x="912.0" y="75.0" width="12.0" height="3" fill="#ff3c3c" stroke="#c71f1f" /><rect x="912.0" y="94.0" width="12.0" height="3" fill="#ff3c3c" stroke="#c71f1f" /><rect x="912.0" y="112.5" width="12.0" height="3" fill="#ff3c3c" stroke="#c71f1f" /><rect x="912.0" y="131.5" width="12.0" height="3" fill="#ff3c3c" stroke="#c71f1f" /><rect x="951.0" y="150.0" width="12.0" height="3" fill="#fff874" stroke="#eb9c26" /><rect x="951.0" y="187.5" width="12.0" height="3" fill="#fff874" stroke="#eb9c26" /><rect x="951.0" y="206.5" width="12.0" height="3" fill="#fff874" stroke="#eb9c26" /><rect x="951.0" y="225.0" width="12.0" height="3" fill="#fff874" stroke="#eb9c26" /><rect x="951.0" y="244.0" width="12.0" height="3" fill="#fff874" stroke="#eb9c26" /><rect x="951.0" y="262.5" width="12.0" height="3" fill="#fff874" stroke="#eb9c26" /><rect x="951.0" y="281.5" width="12.0" height="3" fill="#fff874" stroke="#eb9c26" /><rect x="964.0" y="300.0" width="12.0" height="3" fill="#ff83f4" stroke="#d002bc" /><rect x="964.0" y="337.5" width="12.0" height="3" fill="#ff83f4" stroke="#d002bc" /><rect x="964.0" y="356.5" width="12.0" height="3" fill="#ff83f4" stroke="#d002bc" /><rect x="964.0" y="375.0" width="12.0" height="3" fill="#ff83f4" stroke="#d002bc" /><rect x="964.0" y="394.0" width="12.0" height="3" fill="#ff83f4" stroke="#d002bc" /><rect x="964.0" y="412.5" width="12.0" height="3" fill="#ff83f4" stroke="#d002bc" /><rect x="964.0" y="431.5" width="12.0" height="3" fill="#ff83f4" stroke="#d002bc" /><rect x="964.0" y="450.0" width="12.0" height="3" fill="#ff83f4" stroke="#d002bc" /><rect x="964.0" y="469.0" width="12.0" height="3" fill="#ff83f4" stroke="#d002bc" /><rect x="964.0" y="487.5" width="12.0" height="3" fill="#ff83f4" stroke="#d002bc" /><rect x="964.0" y="506.5" width="12.0" height="3" fill="#ff83f4" stroke="#d002bc" /><rect x="964.0" y="525.0" width="12.0" height="3" fill="#ff83f4" stroke="#d002bc" /><rect x="964.0" y="544.0" width="12.0" height="3" fill="#ff83f4" stroke="#d002bc" /><rect x="964.0" y="562.5" width="12.0" height="3" fill="#ff83f4" stroke="#d002bc" /><rect x="964.0" y="581.5" width="12.0" height="3" fill="#ff83f4" stroke="#d002bc" /><rect x="938.0" y="600.0" width="12.0" height="3" fill="#80c9ff" stroke="#0b6cba" /><rect x="938.0" y="637.5" width="12.0" height="3" fill="#80c9ff" stroke="#0b6cba" /><rect x="938.0" y="656.5" width="12.0" height="3" fill="#80c9ff" stroke="#0b6cba" /><rect x="938.0" y="694.0" width="12.0" height="3" fill="#80c9ff" stroke="#0b6cba" /><rect x="938.0" y="712.5" width="12.0" height="3" fill="#80c9ff" stroke="#0b6cba" /><rect x="938.0" y="750.0" width="12.0" height="3" fill="#80c9ff" stroke="#0b6cba" /><rect x="938.0" y="787.5" width="12.0" height="3" fill="#80c9ff" stroke="#0b6cba" /><rect x="938.0" y="806.5" width="12.0" height="3" fill="#80c9ff" stroke="#0b6cba" /><rect x="938.0" y="825.0" width="12.0" height="3" fill="#80c9ff" stroke="#0b6cba" /><rect x="938.0" y="844.0" width="12.0" height="3" fill="#80c9ff" stroke="#0b6cba" /><rect x="938.0" y="862.5" width="12.0" height="3" fill="#80c9ff" stroke="#0b6cba" /><rect x="938.0" y="881.5" width="12.0" height="3" fill="#80c9ff" stroke="#0b6cba" /><rect x="964.0" y="900.0" width="12.0" height="3" fill="#ff83f4" stroke="#d002bc" /><rect x="964.0" y="937.5" width="12.0" height="3" fill="#ff83f4" stroke="#d002bc" /><rect x="964.0" y="956.5" width="12.0" height="3" fill="#ff83f4" stroke="#d002bc" /><rect x="964.0" y="975.0" width="12.0" height="3" fill="#ff83f4" stroke="#d002bc" /><rect x="964.0" y="1012.5" width="12.0" height="3" fill="#ff83f4" stroke="#d002bc" /><rect x="964.0" y="1031.5" width="12.0" height="3" fill="#ff83f4" stroke="#d002bc" /><rect x="964.0" y="1050.0" width="12.0" height="3" fill="#ff83f4" stroke="#d002bc" /><rect x="964.0" y="1087.5" width="12.0" height="3" fill="#ff83f4" stroke="#d002bc" /><rect x="964.0" y="1125.0" width="12.0" height="3" fill="#ff83f4" stroke="#d002bc" /><rect x="964.0" y="1162.5" width="12.0" height="3" fill="#ff83f4" stroke="#d002bc" /><rect x="1052.0" y="0.0" width="12.0" height="3" fill="#80c9ff" stroke="#0b6cba" /><rect x="1052.0" y="37.5" width="12.0" height="3" fill="#80c9ff" stroke="#0b6cba" /><rect x="1052.0" y="75.0" width="12.0" height="3" fill="#80c9ff" stroke="#0b6cba" /><rect x="1052.0" y="112.5" width="12.0" height="3" fill="#80c9ff" stroke="#0b6cba" /><rect x="1078.0" y="150.0" width="12.0" height="3" fill="#ff83f4" stroke="#d002bc" /><rect x="1078.0" y="169.0" width="12.0" height="3" fill="#ff83f4" stroke="#d002bc" /><rect x="1078.0" y="187.5" width="12.0" height="3" fill="#ff83f4" stroke="#d002bc" /><rect x="1078.0" y="206.5" width="12.0" height="3" fill="#ff83f4" stroke="#d002bc" /><rect x="1026.0" y="300.0" width="12.0" height="3" fill="#ff3c3c" stroke="#c71f1f" /><rect x="1026.0" y="337.5" width="12.0" height="3" fill="#ff3c3c" stroke="#c71f1f" /><rect x="1026.0" y="356.5" width="12.0" height="3" fill="#ff3c3c" stroke="#c71f1f" /><rect x="1026.0" y="375.0" width="12.0" height="3" fill="#ff3c3c" stroke="#c71f1f" /><rect x="1026.0" y="394.0" width="12.0" height="3" fill="#ff3c3c" stroke="#c71f1f" /><rect x="1026.0" y="412.5" width="12.0" height="3" fill="#ff3c3c" stroke="#c71f1f" /><rect x="1026.0" y="431.5" width="12.0" height="3" fill="#ff3c3c" stroke="#c71f1f" /><rect x="1026.0" y="450.0" width="12.0" height="3" fill="#ff3c3c" stroke="#c71f1f" /><rect x="1026.0" y="469.0" width="12.0" height="3" fill="#ff3c3c" stroke="#c71f1f" /><rect x="1026.0" y="487.5" width="12.0" height="3" fill="#ff3c3c" stroke="#c71f1f" /><rect x="1026.0" y="506.5" width="12.0" height="3" fill="#ff3c3c" stroke="#c71f1f" /><rect x="1026.0" y="525.0" width="12.0" height="3" fill="#ff3c3c" stroke="#c71f1f" /><rect x="1026.0" y="544.0" width="12.0" height="3" fill="#ff3c3c" stroke="#c71f1f" /><rect x="1026.0" y="562.5" width="12.0" height="3" fill="#ff3c3c" stroke="#c71f1f" /><rect x="1026.0" y="581.5" width="12.0" height="3" fill="#ff3c3c" stroke="#c71f1f" /><rect x="1039.0" y="600.0" width="12.0" height="3" fill="#35df39" stroke="#03aa10" /><rect x="1039.0" y="637.5" width="12.0" height="3" fill="#35df39" stroke="#03aa10" /><rect x="1039.0" y="656.5" width="12.0" height="3" fill="#35df39" stroke="#03aa10" /><rect x="1039.0" y="675.0" width="12.0" height="3" fill="#35df39" stroke="#03aa10" /><rect x="1039.0" y="694.0" width="12.0" height="3" fill="#35df39" stroke="#03aa10" /><rect x="1039.0" y="712.5" width="12.0" height="3" fill="#35df39" stroke="#03aa10" /><rect x="1039.0" y="731.5" width="12.0" height="3" fill="#35df39" stroke="#03aa10" /><rect x="1039.0" y="750.0" width="12.0" height="3" fill="#35df39" stroke="#03aa10" /><rect x="1039.0" y="769.0" width="12.0" height="3" fill="#35df39" stroke="#03aa10" /><rect x="1039.0" y="787.5" width="12.0" height="3" fill="#35df39" stroke="#03aa10" /><rect x="1039.0" y="806.5" width="12.0" height="3" fill="#35df39" stroke="#03aa10" /><rect x="1039.0" y="825.0" width="12.0" height="3" fill="#35df39" stroke="#03aa10" /><rect x="1039.0" y="844.0" width="12.0" height="3" fill="#35df39" stroke="#03aa10" /><rect x="1039.0" y="862.5" width="12.0" height="3" fill="#35df39" stroke="#03aa10" /><rect x="1039.0" y="881.5" width="12.0" height="3" fill="#35df39" stroke="#03aa10" /><rect x="1052.0" y="900.0" width="12.0" height="3" fill="#80c9ff" stroke="#0b6cba" /><rect x="1052.0" y="937.5" width="12.0" height="3" fill="#80c9ff" stroke="#0b6cba" /><rect x="1052.0" y="956.5" width="12.0" height="3" fill="#80c9ff" stroke="#0b6cba" /><rect x="1052.0" y="975.0" width="12.0" height="3" fill="#80c9ff" stroke="#0b6cba" /><rect x="1052.0" y="994.0" width="12.0" height="3" fill="#80c9ff" stroke="#0b6cba" /><rect x="1052.0" y="1012.5" width="12.0" height="3" fill="#80c9ff" stroke="#0b6cba" /><rect x="1052.0" y="1031.5" width="12.0" height="3" fill="#80c9ff" stroke="#0b6cba" /><rect x="1052.0" y="1050.0" width="12.0" height="3" fill="#80c9ff" stroke="#0b6cba" /><rect x="1052.0" y="1069.0" width="12.0" height="3" fill="#80c9ff" stroke="#0b6cba" /><rect x="1052.0" y="1087.5" width="12.0" height="3" fill="#80c9ff" stroke="#0b6cba" /><rect x="1052.0" y="1106.5" width="12.0" height="3" fill="#80c9ff" stroke="#0b6cba" /><rect x="1052.0" y="1125.0" width="12.0" height="3" fill="#80c9ff" stroke="#0b6cba" /><rect x="1052.0" y="1144.0" width="12.0" height="3" fill="#80c9ff" stroke="#0b6cba" /><rect x="1052.0" y="1162.5" width="12.0" height="3" fill="#80c9ff" stroke="#0b6cba" /><rect x="1052.0" y="1181.5" width="12.0" height="3" fill="#80c9ff" stroke="#0b6cba" /><rect x="1179.0" y="0.0" width="12.0" height="3" fill="#fff874" stroke="#eb9c26" /><rect x="1179.0" y="37.5" width="12.0" height="3" fill="#fff874" stroke="#eb9c26" /><rect x="1179.0" y="56.5" width="12.0" height="3" fill="#fff874" stroke="#eb9c26" /><rect x="1179.0" y="94.0" width="12.0" height="3" fill="#fff874" stroke="#eb9c26" /><rect x="1179.0" y="112.5" width="12.0" height="3" fill="#fff874" stroke="#eb9c26" /><rect x="1179.0" y="150.0" width="12.0" height="3" fill="#fff874" stroke="#eb9c26" /><rect x="1179.0" y="169.0" width="12.0" height="3" fill="#fff874" stroke="#eb9c26" /><rect x="1192.0" y="187.5" width="12.0" height="3" fill="#ff83f4" stroke="#d002bc" /><rect x="1179.0" y="225.0" width="12.0" height="3" fill="#fff874" stroke="#eb9c26" /><rect x="1192.0" y="262.5" width="12.0" height="3" fill="#ff83f4" stroke="#d002bc" /><rect x="1166.0" y="300.0" width="12.0" height="3" fill="#80c9ff" stroke="#0b6cba" /><rect x="1166.0" y="319.0" width="12.0" height="3" fill="#80c9ff" stroke="#0b6cba" /><rect x="1166.0" y="375.0" width="12.0" height="3" fill="#80c9ff" stroke="#0b6cba" /><rect x="1166.0" y="394.0" width="12.0" height="3" fill="#80c9ff" stroke="#0b6cba" /><rect x="1166.0" y="450.0" width="12.0" height="3" fill="#80c9ff" stroke="#0b6cba" /><rect x="1166.0" y="469.0" width="12.0" height="3" fill="#80c9ff" stroke="#0b6cba" /><rect x="1179.0" y="525.0" width="12.0" height="3" fill="#fff874" stroke="#eb9c26" /><rect x="1166.0" y="550.0" width="12.0" height="3" fill="#80c9ff" stroke="#0b6cba" /><rect x="1153.0" y="575.0" width="12.0" height="3" fill="#35df39" stroke="#03aa10" /><rect x="1140.0" y="600.0" width="12.0" height="3" fill="#ff3c3c" stroke="#c71f1f" /><rect x="1140.0" y="619.0" width="12.0" height="3" fill="#ff3c3c" stroke="#c71f1f" /><rect x="1140.0" y="675.0" width="12.0" height="3" fill="#ff3c3c" stroke="#c71f1f" /><rect x="1140.0" y="694.0" width="12.0" height="3" fill="#ff3c3c" stroke="#c71f1f" /><rect x="1140.0" y="750.0" width="12.0" height="3" fill="#ff3c3c" stroke="#c71f1f" /><rect x="1140.0" y="769.0" width="12.0" height="3" fill="#ff3c3c" stroke="#c71f1f" /><rect x="1153.0" y="787.5" width="12.0" height="3" fill="#35df39" stroke="#03aa10" /><rect x="1153.0" y="806.5" width="12.0" height="3" fill="#35df39" stroke="#03aa10" /><rect x="1140.0" y="825.0" width="12.0" height="3" fill="#ff3c3c" stroke="#c71f1f" /><rect x="1140.0" y="844.0" width="12.0" height="3" fill="#ff3c3c" stroke="#c71f1f" /><rect x="1140.0" y="881.5" width="12.0" height="3" fill="#ff3c3c" stroke="#c71f1f" /><rect x="1153.0" y="900.0" width="12.0" height="3" fill="#35df39" stroke="#03aa10" /><rect x="1153.0" y="919.0" width="12.0" height="3" fill="#35df39" stroke="#03aa10" /><rect x="1153.0" y="975.0" width="12.0" height="3" fill="#35df39" stroke="#03aa10" /><rect x="1153.0" y="994.0" width="12.0" height="3" fill="#35df39" stroke="#03aa10" /><rect x="1153.0" y="1050.0" width="12.0" height="3" fill="#35df39" stroke="#03aa10" /><rect x="1153.0" y="1069.0" width="12.0" height="3" fill="#35df39" stroke="#03aa10" /><rect x="1166.0" y="1087.5" width="12.0" height="3" fill="#80c9ff" stroke="#0b6cba" /><rect x="1166.0" y="1106.5" width="12.0" height="3" fill="#80c9ff" stroke="#0b6cba" /><rect x="1153.0" y="1125.0" width="12.0" height="3" fill="#35df39" stroke="#03aa10" /><rect x="1153.0" y="1150.0" width="12.0" height="3" fill="#35df39" stroke="#03aa10" /><rect x="1153.0" y="1175.0" width="12.0" height="3" fill="#35df39" stroke="#03aa10" /><rect x="1280.0" y="0.0" width="12.0" height="3" fill="#80c9ff" stroke="#0b6cba" /><rect x="1280.0" y="75.0" width="12.0" height="3" fill="#80c9ff" stroke="#0b6cba" /><rect x="1280.0" y="150.0" width="12.0" height="3" fill="#80c9ff" stroke="#0b6cba" /><rect x="1280.0" y="225.0" width="12.0" height="3" fill="#80c9ff" stroke="#0b6cba" /><rect x="1280.0" y="250.0" width="12.0" height="3" fill="#80c9ff" stroke="#0b6cba" /><rect x="1280.0" y="275.0" width="12.0" height="3" fill="#80c9ff" stroke="#0b6cba" /><rect x="1293.0" y="300.0" width="12.0" height="3" fill="#fff874" stroke="#eb9c26" /><rect x="1293.0" y="319.0" width="12.0" height="3" fill="#fff874" stroke="#eb9c26" /><rect x="1293.0" y="375.0" width="12.0" height="3" fill="#fff874" stroke="#eb9c26" /><rect x="1293.0" y="394.0" width="12.0" height="3" fill="#fff874" stroke="#eb9c26" /><rect x="1293.0" y="450.0" width="12.0" height="3" fill="#fff874" stroke="#eb9c26" /><rect x="1293.0" y="469.0" width="12.0" height="3" fill="#fff874" stroke="#eb9c26" /><rect x="1293.0" y="487.5" width="12.0" height="3" fill="#fff874" stroke="#eb9c26" /><rect x="1293.0" y="506.5" width="12.0" height="3" fill="#fff874" stroke="#eb9c26" /><rect x="1293.0" y="525.0" width="12.0" height="3" fill="#fff874" stroke="#eb9c26" /><rect x="1293.0" y="544.0" width="12.0" height="3" fill="#fff874" stroke="#eb9c26" /><rect x="1293.0" y="562.5" width="12.0" height="3" fill="#fff874" stroke="#eb9c26" /><rect x="1293.0" y="581.5" width="12.0" height="3" fill="#fff874" stroke="#eb9c26" /><rect x="1267.0" y="600.0" width="12.0" height="3" fill="#35df39" stroke="#03aa10" /><rect x="1267.0" y="619.0" width="12.0" height="3" fill="#35df39" stroke="#03aa10" /><rect x="1267.0" y="675.0" width="12.0" height="3" fill="#35df39" stroke="#03aa10" /><rect x="1267.0" y="694.0" width="12.0" height="3" fill="#35df39" stroke="#03aa10" /><rect x="1267.0" y="750.0" width="12.0" height="3" fill="#35df39" stroke="#03aa10" /><rect x="1267.0" y="769.0" width="12.0" height="3" fill="#35df39" stroke="#03aa10" /><rect x="1267.0" y="787.5" width="12.0" height="3" fill="#35df39" stroke="#03aa10" /><rect x="1267.0" y="806.5" width="12.0" height="3" fill="#35df39" stroke="#03aa10" /><rect x="1267.0" y="825.0" width="12.0" height="3" fill="#35df39" stroke="#03aa10" /><rect x="1267.0" y="844.0" width="12.0" height="3" fill="#35df39" stroke="#03aa10" /><rect x="1267.0" y="862.5" width="12.0" height="3" fill="#35df39" stroke="#03aa10" /><rect x="1280.0" y="900.0" width="12.0" height="3" fill="#80c9ff" stroke="#0b6cba" /><rect x="1280.0" y="937.5" width="12.0" height="3" fill="#80c9ff" stroke="#0b6cba" /><rect x="1280.0" y="975.0" width="12.0" height="3" fill="#80c9ff" stroke="#0b6cba" /><rect x="1280.0" y="1012.5" width="12.0" height="3" fill="#80c9ff" stroke="#0b6cba" /><rect x="1280.0" y="1050.0" width="12.0" height="3" fill="#80c9ff" stroke="#0b6cba" /><rect x="1280.0" y="1069.0" width="12.0" height="3" fill="#80c9ff" stroke="#0b6cba" /><rect x="1280.0" y="1087.5" width="12.0" height="3" fill="#80c9ff" stroke="#0b6cba" /><rect x="1280.0" y="1106.5" width="12.0" height="3" fill="#80c9ff" stroke="#0b6cba" /><rect x="1280.0" y="1125.0" width="12.0" height="3" fill="#80c9ff" stroke="#0b6cba" /><rect x="1280.0" y="1144.0" width="12.0" height="3" fill="#80c9ff" stroke="#0b6cba" /><rect x="1280.0" y="1162.5" width="12.0" height="3" fill="#80c9ff" stroke="#0b6cba" /><rect x="1280.0" y="1181.5" width="12.0" height="3" fill="#80c9ff" stroke="#0b6cba" /><rect x="1407.0" y="0.0" width="12.0" height="3" fill="#fff874" stroke="#eb9c26" /><rect x="1407.0" y="37.5" width="12.0" height="3" fill="#fff874" stroke="#eb9c26" /><rect x="1407.0" y="56.5" width="12.0" height="3" fill="#fff874" stroke="#eb9c26" /><rect x="1407.0" y="94.0" width="12.0" height="3" fill="#fff874" stroke="#eb9c26" /><rect x="1407.0" y="112.5" width="12.0" height="3" fill="#fff874" stroke="#eb9c26" /><rect x="1407.0" y="150.0" width="12.0" height="3" fill="#fff874" stroke="#eb9c26" /><rect x="1407.0" y="187.5" width="12.0" height="3" fill="#fff874" stroke="#eb9c26" /><rect x="1407.0" y="206.5" width="12.0" height="3" fill="#fff874" stroke="#eb9c26" /><rect x="1407.0" y="225.0" width="12.0" height="3" fill="#fff874" stroke="#eb9c26" /><rect x="1407.0" y="244.0" width="12.0" height="3" fill="#fff874" stroke="#eb9c26" /><rect x="1407.0" y="262.5" width="12.0" height="3" fill="#fff874" stroke="#eb9c26" /><rect x="1407.0" y="281.5" width="12.0" height="3" fill="#fff874" stroke="#eb9c26" /><rect x="1420.0" y="300.0" width="12.0" height="3" fill="#ff83f4" stroke="#d002bc" /><rect x="1394.0" y="825.0" width="12.0" height="3" fill="#80c9ff" stroke="#0b6cba" /><rect x="1420.0" y="900.0" width="12.0" height="3" fill="#ff83f4" stroke="#d002bc" /><rect x="1508.0" y="225.0" width="12.0" height="3" fill="#80c9ff" stroke="#0b6cba" /><rect x="1534.0" y="225.0" width="12.0" height="3" fill="#ff83f4" stroke="#d002bc" /></svg>