<?xml version="1.0" encoding="UTF-8"?><svg xmlns="http://www.w3.org/2000/svg" xmlns:xlink="http://www.w3.org/1999/xlink"     width="1368" height="1175.5" viewBox="0 0 1368 1175.5"><defs></defs><rect x="0" y="0" width="64" height="1161.5" fill="black" /><rect x="0" y="0.0" width="64" height="1" fill="white" fill-opacity="0.5" /><text x="74" y="14.0" font-size="14" fill="white" font-family="monospace" dominant-baseline="ideographic">1</text><rect x="0" y="72.5" width="64" height="1" fill="white" fill-opacity="0.2" /><rect x="0" y="145.0" width="64" height="1" fill="white" fill-opacity="0.2" /><rect x="0" y="217.5" width="64" height="1" fill="white" fill-opacity="0.2" /><rect x="0" y="290.5" width="64" height="1" fill="white" fill-opacity="0.5" /><text x="74" y="304.5" font-size="14" fill="white" font-family="monospace" dominant-baseline="ideographic">2</text><rect x="0" y="363.0" width="64" height="1" fill="white" fill-opacity="0.2" /><rect x="0" y="435.5" width="64" height="1" fill="white" fill-opacity="0.2" /><rect x="0" y="508.0" width="64" height="1" fill="white" fill-opacity="0.2" /><rect x="0" y="580.5" width="64" height="1" fill="white" fill-opacity="0.5" /><text x="74" y="594.5" font-size="14" fill="white" font-family="monospace" dominant-baseline="ideographic">3</text><rect x="0" y="653.0" width="64" height="1" fill="white" fill-opacity="0.2" /><rect x="0" y="726.0" width="64" height="1" fill="white" fill-opacity="0.2" /><rect x="0" y="798.5" width="64" height="1" fill="white" fill-opacity="0.2" /><rect x="0" y="871.0" width="64" height="1" fill="white" fill-opacity="0.5" /><text x="74" y="885.0" font-size="14" fill="white" font-family="monospace" dominant-baseline="ideographic">4</text><rect x="0" y="943.5" width="64" height="1" fill="white" fill-opacity="0.2" /><rect x="0" y="1016.0" width="64" height="1" fill="white" fill-opacity="0.2" /><rect x="0" y="1088.5" width="64" height="1" fill="white" fill-opacity="0.2" /><rect x="0" y="1161.5" width="64" height="1" fill="white" fill-opacity="0.5" /><text x="74" y="1175.5" font-size="14" fill="white" font-family="monospace" dominant-baseline="ideographic">5</text><rect x="0" y="0.0" width="64" height="1" fill="aqua" fill-opacity="0.75" /><text x="0" y="14.0" font-size="14" fill="aqua" fill-opacity="0.75" font-family="monospace">Intro</text><rect x="0" y="0.0" width="64" height="1" fill="lime" fill-opacity="0.75" /><text x="74" y="28.0" font-size="14" fill="lime" font-family="monospace" dominant-baseline="ideographic">124</text><rect x="114" y="0" width="64" height="1016.0" fill="black" /><rect x="114" y="0.0" width="64" height="1" fill="white" fill-opacity="0.5" /><text x="188" y="14.0" font-size="14" fill="white" font-family="monospace" dominant-baseline="ideographic">5</text><rect x="114" y="72.5" width="64" height="1" fill="white" fill-opacity="0.2" /><rect x="114" y="145.0" width="64" height="1" fill="white" fill-opacity="0.5" /><text x="188" y="159.0" font-size="14" fill="white" font-family="monospace" dominant-baseline="ideographic">6</text><rect x="114" y="217.5" width="64" height="1" fill="white" fill-opacity="0.2" /><rect x="114" y="290.0" width="64" height="1" fill="white" fill-opacity="0.2" /><rect x="114" y="362.5" width="64" height="1" fill="white" fill-opacity="0.2" /><rect x="114" y="435.5" width="64" height="1" fill="white" fill-opacity="0.5" /><text x="188" y="449.5" font-size="14" fill="white" font-family="monospace" dominant-baseline="ideographic">7</text><rect x="114" y="508.0" width="64" height="1" fill="white" fill-opacity="0.2" /><rect x="114" y="580.5" width="64" height="1" fill="white" fill-opacity="0.2" /><rect x="114" y="653.0" width="64" height="1" fill="white" fill-opacity="0.2" /><rect x="114" y="725.5" width="64" height="1" fill="white" fill-opacity="0.5" /><text x="188" y="739.5" font-size="14" fill="white" font-family="monospace" dominant-baseline="ideographic">8</text><rect x="114" y="798.0" width="64" height="1" fill="white" fill-opacity="0.2" /><rect x="114" y="871.0" width="64" height="1" fill="white" fill-opacity="0.2" /><rect x="114" y="943.5" width="64" height="1" fill="white" fill-opacity="0.2" /><rect x="114" y="1016.0" width="64" height="1" fill="white" fill-opacity="0.5" /><text x="188" y="1030.0" font-size="14" fill="white" font-family="monospace" dominant-baseline="ideographic">9</text><rect x="114" y="725.6499999999999" width="64" height="1" fill="aqua" fill-opacity="0.75" /><text x="114" y="739.6499999999999" font-size="14" fill="aqua" fill-opacity="0.75" font-family="monospace">Special</text><rect x="228" y="0" width="64" height="1161.0" fill="black" /><rect x="228" y="0.0" width="64" height="1" fill="white" fill-opacity="0.5" /><text x="302" y="14.0" font-size="14" fill="white" font-family="monospace" dominant-baseline="ideographic">9</text><rect x="228" y="72.5" width="64" height="1" fill="white" fill-opacity="0.2" /><rect x="228" y="145.0" width="64" height="1" fill="white" fill-opacity="0.2" /><rect x="228" y="217.5" width="64" height="1" fill="white" fill-opacity="0.2" /><rect x="228" y="290.0" width="64" height="1" fill="white" fill-opacity="0.5" /><text x="302" y="304.0" font-size="14" fill="white" font-family="monospace" dominant-baseline="ideographic">10</text><rect x="228" y="363.0" width="64" height="1" fill="white" fill-opacity="0.2" /><rect x="228" y="435.5" width="64" height="1" fill="white" fill-opacity="0.2" /><rect x="228" y="508.0" width="64" height="1" fill="white" fill-opacity="0.2" /><rect x="228" y="580.5" width="64" height="1" fill="white" fill-opacity="0.5" /><text x="302" y="594.5" font-size="14" fill="white" font-family="monospace" dominant-baseline="ideographic">11</text><rect x="228" y="653.0" width="64" height="1" fill="white" fill-opacity="0.2" /><rect x="228" y="725.5" width="64" height="1" fill="white" fill-opacity="0.2" /><rect x="228" y="798.5" width="64" height="1" fill="white" fill-opacity="0.2" /><rect x="228" y="871.0" width="64" height="1" fill="white" fill-opacity="0.5" /><text x="302" y="885.0" font-size="14" fill="white" font-family="monospace" dominant-baseline="ideographic">12</text><rect x="228" y="943.5" width="64" height="1" fill="white" fill-opacity="0.2" /><rect x="228" y="1016.0" width="64" height="1" fill="white" fill-opacity="0.2" /><rect x="228" y="1088.5" width="64" height="1" fill="white" fill-opacity="0.2" /><rect x="228" y="1161.0" width="64" height="1" fill="white" fill-opacity="0.5" /><text x="302" y="1175.0" font-size="14" fill="white" font-family="monospace" dominant-baseline="ideographic">13</text><rect x="342" y="0" width="64" height="1161.5" fill="black" /><rect x="342" y="0.0" width="64" height="1" fill="white" fill-opacity="0.5" /><text x="416" y="14.0" font-size="14" fill="white" font-family="monospace" dominant-baseline="ideographic">13</text><rect x="342" y="73.0" width="64" height="1" fill="white" fill-opacity="0.2" /><rect x="342" y="145.5" width="64" height="1" fill="white" fill-opacity="0.2" /><rect x="342" y="218.0" width="64" height="1" fill="white" fill-opacity="0.2" /><rect x="342" y="290.5" width="64" height="1" fill="white" fill-opacity="0.5" /><text x="416" y="304.5" font-size="14" fill="white" font-family="monospace" dominant-baseline="ideographic">14</text><rect x="342" y="363.0" width="64" height="1" fill="white" fill-opacity="0.2" /><rect x="342" y="435.5" width="64" height="1" fill="white" fill-opacity="0.2" /><rect x="342" y="508.5" width="64" height="1" fill="white" fill-opacity="0.2" /><rect x="342" y="581.0" width="64" height="1" fill="white" fill-opacity="0.5" /><text x="416" y="595.0" font-size="14" fill="white" font-family="monospace" dominant-baseline="ideographic">15</text><rect x="342" y="653.5" width="64" height="1" fill="white" fill-opacity="0.2" /><rect x="342" y="726.0" width="64" height="1" fill="white" fill-opacity="0.2" /><rect x="342" y="798.5" width="64" height="1" fill="white" fill-opacity="0.2" /><rect x="342" y="871.0" width="64" height="1" fill="white" fill-opacity="0.5" /><text x="416" y="885.0" font-size="14" fill="white" font-family="monospace" dominant-baseline="ideographic">16</text><rect x="342" y="943.5" width="64" height="1" fill="white" fill-opacity="0.2" /><rect x="342" y="1016.5" width="64" height="1" fill="white" fill-opacity="0.2" /><rect x="342" y="1089.0" width="64" height="1" fill="white" fill-opacity="0.2" /><rect x="342" y="1161.5" width="64" height="1" fill="white" fill-opacity="0.5" /><text x="416" y="1175.5" font-size="14" fill="white" font-family="monospace" dominant-baseline="ideographic">17</text><rect x="342" y="871.0999999999995" width="64" height="1" fill="aqua" fill-opacity="0.75" /><text x="342" y="885.0999999999995" font-size="14" fill="aqua" fill-opacity="0.75" font-family="monospace">Phrase A</text><rect x="456" y="0" width="64" height="1161.5" fill="black" /><rect x="456" y="0.0" width="64" height="1" fill="white" fill-opacity="0.5" /><text x="530" y="14.0" font-size="14" fill="white" font-family="monospace" dominant-baseline="ideographic">17</text><rect x="456" y="72.5" width="64" height="1" fill="white" fill-opacity="0.2" /><rect x="456" y="145.0" width="64" height="1" fill="white" fill-opacity="0.2" /><rect x="456" y="217.5" width="64" height="1" fill="white" fill-opacity="0.2" /><rect x="456" y="290.5" width="64" height="1" fill="white" fill-opacity="0.5" /><text x="530" y="304.5" font-size="14" fill="white" font-family="monospace" dominant-baseline="ideographic">18</text><rect x="456" y="363.0" width="64" height="1" fill="white" fill-opacity="0.2" /><rect x="456" y="435.5" width="64" height="1" fill="white" fill-opacity="0.2" /><rect x="456" y="508.0" width="64" height="1" fill="white" fill-opacity="0.2" /><rect x="456" y="580.5" width="64" height="1" fill="white" fill-opacity="0.5" /><text x="530" y="594.5" font-size="14" fill="white" font-family="monospace" dominant-baseline="ideographic">19</text><rect x="456" y="653.0" width="64" height="1" fill="white" fill-opacity="0.2" /><rect x="456" y="726.0" width="64" height="1" fill="white" fill-opacity="0.2" /><rect x="456" y="798.5" width="64" height="1" fill="white" fill-opacity="0.2" /><rect x="456" y="871.0" width="64" height="1" fill="white" fill-opacity="0.5" /><text x="530" y="885.0" font-size="14" fill="white" font-family="monospace" dominant-baseline="ideographic">20</text><rect x="456" y="943.5" width="64" height="1" fill="white" fill-opacity="0.2" /><rect x="456" y="1016.0" width="64" height="1" fill="white" fill-opacity="0.2" /><rect x="456" y="1088.5" width="64" height="1" fill="white" fill-opacity="0.2" /><rect x="456" y="1161.5" width="64" height="1" fill="white" fill-opacity="0.5" /><text x="530" y="1175.5" font-size="14" fill="white" font-family="monospace" dominant-baseline="ideographic">21</text><rect x="570" y="0" width="64" height="1161.0" fill="black" /><rect x="570" y="0.0" width="64" height="1" fill="white" fill-opacity="0.5" /><text x="644" y="14.0" font-size="14" fill="white" font-family="monospace" dominant-baseline="ideographic">21</text><rect x="570" y="72.5" width="64" height="1" fill="white" fill-opacity="0.2" /><rect x="570" y="145.0" width="64" height="1" fill="white" fill-opacity="0.2" /><rect x="570" y="217.5" width="64" height="1" fill="white" fill-opacity="0.2" /><rect x="570" y="290.0" width="64" height="1" fill="white" fill-opacity="0.5" /><text x="644" y="304.0" font-size="14" fill="white" font-family="monospace" dominant-baseline="ideographic">22</text><rect x="570" y="362.5" width="64" height="1" fill="white" fill-opacity="0.2" /><rect x="570" y="435.5" width="64" height="1" fill="white" fill-opacity="0.2" /><rect x="570" y="508.0" width="64" height="1" fill="white" fill-opacity="0.2" /><rect x="570" y="580.5" width="64" height="1" fill="white" fill-opacity="0.5" /><text x="644" y="594.5" font-size="14" fill="white" font-family="monospace" dominant-baseline="ideographic">23</text><rect x="570" y="653.0" width="64" height="1" fill="white" fill-opacity="0.2" /><rect x="570" y="725.5" width="64" height="1" fill="white" fill-opacity="0.2" /><rect x="570" y="798.0" width="64" height="1" fill="white" fill-opacity="0.2" /><rect x="570" y="870.5" width="64" height="1" fill="white" fill-opacity="0.5" /><text x="644" y="884.5" font-size="14" fill="white" font-family="monospace" dominant-baseline="ideographic">24</text><rect x="570" y="943.5" width="64" height="1" fill="white" fill-opacity="0.2" /><rect x="570" y="1016.0" width="64" height="1" fill="white" fill-opacity="0.2" /><rect x="570" y="1088.5" width="64" height="1" fill="white" fill-opacity="0.2" /><rect x="570" y="1161.0" width="64" height="1" fill="white" fill-opacity="0.5" /><text x="644" y="1175.0" font-size="14" fill="white" font-family="monospace" dominant-baseline="ideographic">25</text><rect x="570" y="870.6999999999998" width="64" height="1" fill="aqua" fill-opacity="0.75" /><text x="570" y="884.6999999999998" font-size="14" fill="aqua" fill-opacity="0.75" font-family="monospace">Phrase B</text><rect x="684" y="0" width="64" height="1161.5" fill="black" /><rect x="684" y="0.0" width="64" height="1" fill="white" fill-opacity="0.5" /><text x="758" y="14.0" font-size="14" fill="white" font-family="monospace" dominant-baseline="ideographic">25</text><rect x="684" y="72.5" width="64" height="1" fill="white" fill-opacity="0.2" /><rect x="684" y="145.0" width="64" height="1" fill="white" fill-opacity="0.2" /><rect x="684" y="218.0" width="64" height="1" fill="white" fill-opacity="0.2" /><rect x="684" y="290.5" width="64" height="1" fill="white" fill-opacity="0.5" /><text x="758" y="304.5" font-size="14" fill="white" font-family="monospace" dominant-baseline="ideographic">26</text><rect x="684" y="363.0" width="64" height="1" fill="white" fill-opacity="0.2" /><rect x="684" y="435.5" width="64" height="1" fill="white" fill-opacity="0.2" /><rect x="684" y="508.0" width="64" height="1" fill="white" fill-opacity="0.2" /><rect x="684" y="580.5" width="64" height="1" fill="white" fill-opacity="0.5" /><text x="758" y="594.5" font-size="14" fill="white" font-family="monospace" dominant-baseline="ideographic">27</text><rect x="684" y="653.5" width="64" height="1" fill="white" fill-opacity="0.2" /><rect x="684" y="726.0" width="64" height="1" fill="white" fill-opacity="0.2" /><rect x="684" y="798.5" width="64" height="1" fill="white" fill-opacity="0.2" /><rect x="684" y="871.0" width="64" height="1" fill="white" fill-opacity="0.5" /><text x="758" y="885.0" font-size="14" fill="white" font-family="monospace" dominant-baseline="ideographic">28</text><rect x="684" y="943.5" width="64" height="1" fill="white" fill-opacity="0.2" /><rect x="684" y="1016.0" width="64" height="1" fill="white" fill-opacity="0.2" /><rect x="684" y="1089.0" width="64" height="1" fill="white" fill-opacity="0.2" /><rect x="684" y="1161.5" width="64" height="1" fill="white" fill-opacity="0.5" /><text x="758" y="1175.5" font-size="14" fill="white" font-family="monospace" dominant-baseline="ideographic">29</text><rect x="684" y="871.0" width="64" height="1" fill="aqua" fill-opacity="0.75" /><text x="684" y="885.0" font-size="14" fill="aqua" fill-opacity="0.75" font-family="monospace">Special</text><rect x="798" y="0" width="64" height="1161.0" fill="black" /><rect x="798" y="0.0" width="64" height="1" fill="white" fill-opacity="0.5" /><text x="872" y="14.0" font-size="14" fill="white" font-family="monospace" dominant-baseline="ideographic">29</text><rect x="798" y="72.5" width="64" height="1" fill="white" fill-opacity="0.2" /><rect x="798" y="145.0" width="64" height="1" fill="white" fill-opacity="0.2" /><rect x="798" y="217.5" width="64" height="1" fill="white" fill-opacity="0.2" /><rect x="798" y="290.0" width="64" height="1" fill="white" fill-opacity="0.5" /><text x="872" y="304.0" font-size="14" fill="white" font-family="monospace" dominant-baseline="ideographic">30</text><rect x="798" y="363.0" width="64" height="1" fill="white" fill-opacity="0.2" /><rect x="798" y="435.5" width="64" height="1" fill="white" fill-opacity="0.2" /><rect x="798" y="508.0" width="64" height="1" fill="white" fill-opacity="0.2" /><rect x="798" y="580.5" width="64" height="1" fill="white" fill-opacity="0.5" /><text x="872" y="594.5" font-size="14" fill="white" font-family="monospace" dominant-baseline="ideographic">31</text><rect x="798" y="653.0" width="64" height="1" fill="white" fill-opacity="0.2" /><rect x="798" y="725.5" width="64" height="1" fill="white" fill-opacity="0.2" /><rect x="798" y="798.0" width="64" height="1" fill="white" fill-opacity="0.2" /><rect x="798" y="871.0" width="64" height="1" fill="white" fill-opacity="0.5" /><text x="872" y="885.0" font-size="14" fill="white" font-family="monospace" dominant-baseline="ideographic">32</text><rect x="798" y="943.5" width="64" height="1" fill="white" fill-opacity="0.2" /><rect x="798" y="1016.0" width="64" height="1" fill="white" fill-opacity="0.2" /><rect x="798" y="1088.5" width="64" height="1" fill="white" fill-opacity="0.2" /><rect x="798" y="1161.0" width="64" height="1" fill="white" fill-opacity="0.5" /><text x="872" y="1175.0" font-size="14" fill="white" font-family="monospace" dominant-baseline="ideographic">33</text><rect x="912" y="0" width="64" height="1161.5" fill="black" /><rect x="912" y="0.0" width="64" height="1" fill="white" fill-opacity="0.5" /><text x="986" y="14.0" font-size="14" fill="white" font-family="monospace" dominant-baseline="ideographic">33</text><rect x="912" y="72.5" width="64" height="1" fill="white" fill-opacity="0.2" /><rect x="912" y="145.5" width="64" height="1" fill="white" fill-opacity="0.2" /><rect x="912" y="218.0" width="64" height="1" fill="white" fill-opacity="0.2" /><rect x="912" y="290.5" width="64" height="1" fill="white" fill-opacity="0.5" /><text x="986" y="304.5" font-size="14" fill="white" font-family="monospace" dominant-baseline="ideographic">34</text><rect x="912" y="363.0" width="64" height="1" fill="white" fill-opacity="0.2" /><rect x="912" y="435.5" width="64" height="1" fill="white" fill-opacity="0.2" /><rect x="912" y="508.0" width="64" height="1" fill="white" fill-opacity="0.2" /><rect x="912" y="581.0" width="64" height="1" fill="white" fill-opacity="0.5" /><text x="986" y="595.0" font-size="14" fill="white" font-family="monospace" dominant-baseline="ideographic">35</text><rect x="912" y="653.5" width="64" height="1" fill="white" fill-opacity="0.2" /><rect x="912" y="726.0" width="64" height="1" fill="white" fill-opacity="0.2" /><rect x="912" y="798.5" width="64" height="1" fill="white" fill-opacity="0.2" /><rect x="912" y="871.0" width="64" height="1" fill="white" fill-opacity="0.5" /><text x="986" y="885.0" font-size="14" fill="white" font-family="monospace" dominant-baseline="ideographic">36</text><rect x="912" y="943.5" width="64" height="1" fill="white" fill-opacity="0.2" /><rect x="912" y="1016.5" width="64" height="1" fill="white" fill-opacity="0.2" /><rect x="912" y="1089.0" width="64" height="1" fill="white" fill-opacity="0.2" /><rect x="912" y="1161.5" width="64" height="1" fill="white" fill-opacity="0.5" /><text x="986" y="1175.5" font-size="14" fill="white" font-family="monospace" dominant-baseline="ideographic">37</text><rect x="912" y="580.8500000000004" width="64" height="1" fill="aqua" fill-opacity="0.75" /><text x="912" y="594.8500000000004" font-size="14" fill="aqua" fill-opacity="0.75" font-family="monospace">Phrase C</text><rect x="1026" y="0" width="64" height="1161.0" fill="black" /><rect x="1026" y="0.0" width="64" height="1" fill="white" fill-opacity="0.5" /><text x="1100" y="14.0" font-size="14" fill="white" font-family="monospace" dominant-baseline="ideographic">37</text><rect x="1026" y="72.5" width="64" height="1" fill="white" fill-opacity="0.2" /><rect x="1026" y="145.0" width="64" height="1" fill="white" fill-opacity="0.2" /><rect x="1026" y="217.5" width="64" height="1" fill="white" fill-opacity="0.2" /><rect x="1026" y="290.5" width="64" height="1" fill="white" fill-opacity="0.5" /><text x="1100" y="304.5" font-size="14" fill="white" font-family="monospace" dominant-baseline="ideographic">38</text><rect x="1026" y="363.0" width="64" height="1" fill="white" fill-opacity="0.2" /><rect x="1026" y="435.5" width="64" height="1" fill="white" fill-opacity="0.2" /><rect x="1026" y="508.0" width="64" height="1" fill="white" fill-opacity="0.2" /><rect x="1026" y="580.5" width="64" height="1" fill="white" fill-opacity="0.5" /><text x="1100" y="594.5" font-size="14" fill="white" font-family="monospace" dominant-baseline="ideographic">39</text><rect x="1026" y="653.0" width="64" height="1" fill="white" fill-opacity="0.2" /><rect x="1026" y="725.5" width="64" height="1" fill="white" fill-opacity="0.2" /><rect x="1026" y="798.5" width="64" height="1" fill="white" fill-opacity="0.2" /><rect x="1026" y="871.0" width="64" height="1" fill="white" fill-opacity="0.5" /><text x="1100" y="885.0" font-size="14" fill="white" font-family="monospace" dominant-baseline="ideographic">40</text><rect x="1026" y="943.5" width="64" height="1" fill="white" fill-opacity="0.2" /><rect x="1026" y="1016.0" width="64" height="1" fill="white" fill-opacity="0.2" /><rect x="1026" y="1088.5" width="64" height="1" fill="white" fill-opacity="0.2" /><rect x="1026" y="1161.0" width="64" height="1" fill="white" fill-opacity="0.5" /><text x="1100" y="1175.0" font-size="14" fill="white" font-family="monospace" dominant-baseline="ideographic">41</text><rect x="1140" y="0" width="64" height="1161.5" fill="black" /><rect x="1140" y="0.0" width="64" height="1" fill="white" fill-opacity="0.5" /><text x="1214" y="14.0" font-size="14" fill="white" font-family="monospace" dominant-baseline="ideographic">41</text><rect x="1140" y="73.0" width="64" height="1" fill="white" fill-opacity="0.2" /><rect x="1140" y="145.5" width="64" height="1" fill="white" fill-opacity="0.2" /><rect x="1140" y="218.0" width="64" height="1" fill="white" fill-opacity="0.2" /><rect x="1140" y="290.5" width="64" height="1" fill="white" fill-opacity="0.5" /><text x="1214" y="304.5" font-size="14" fill="white" font-family="monospace" dominant-baseline="ideographic">42</text><rect x="1140" y="363.0" width="64" height="1" fill="white" fill-opacity="0.2" /><rect x="1140" y="435.5" width="64" height="1" fill="white" fill-opacity="0.2" /><rect x="1140" y="508.5" width="64" height="1" fill="white" fill-opacity="0.2" /><rect x="1140" y="581.0" width="64" height="1" fill="white" fill-opacity="0.5" /><text x="1214" y="595.0" font-size="14" fill="white" font-family="monospace" dominant-baseline="ideographic">43</text><rect x="1140" y="653.5" width="64" height="1" fill="white" fill-opacity="0.2" /><rect x="1140" y="726.0" width="64" height="1" fill="white" fill-opacity="0.2" /><rect x="1140" y="798.5" width="64" height="1" fill="white" fill-opacity="0.2" /><rect x="1140" y="871.0" width="64" height="1" fill="white" fill-opacity="0.5" /><text x="1214" y="885.0" font-size="14" fill="white" font-family="monospace" dominant-baseline="ideographic">44</text><rect x="1140" y="944.0" width="64" height="1" fill="white" fill-opacity="0.2" /><rect x="1140" y="1016.5" width="64" height="1" fill="white" fill-opacity="0.2" /><rect x="1140" y="1089.0" width="64" height="1" fill="white" fill-opacity="0.2" /><rect x="1140" y="1161.5" width="64" height="1" fill="white" fill-opacity="0.5" /><text x="1214" y="1175.5" font-size="14" fill="white" font-family="monospace" dominant-baseline="ideographic">45</text><rect x="1140" y="0.1499999999996362" width="64" height="1" fill="aqua" fill-opacity="0.75" /><text x="1140" y="14.149999999999636" font-size="14" fill="aqua" fill-opacity="0.75" font-family="monospace">Phrase B</text><rect x="1254" y="0" width="64" height="601.0" fill="black" /><rect x="1254" y="0.0" width="64" height="1" fill="white" fill-opacity="0.5" /><text x="1328" y="14.0" font-size="14" fill="white" font-family="monospace" dominant-baseline="ideographic">45</text><rect x="1254" y="72.5" width="64" height="1" fill="white" fill-opacity="0.2" /><rect x="1254" y="145.0" width="64" height="1" fill="white" fill-opacity="0.2" /><rect x="1254" y="217.5" width="64" height="1" fill="white" fill-opacity="0.2" /><rect x="1254" y="290.5" width="64" height="1" fill="white" fill-opacity="0.5" /><text x="1328" y="304.5" font-size="14" fill="white" font-family="monospace" dominant-baseline="ideographic">46</text></svg>