<?xml version="1.0" encoding="UTF-8"?><svg xmlns="http://www.w3.org/2000/svg" xmlns:xlink="http://www.w3.org/1999/xlink"     width="5712" height="881.5" viewBox="0 0 5712 881.5"><defs></defs><rect x="0" y="14.0" width="188" height="867.5" fill="black" /><rect x="0" y="880.5" width="188" height="1" fill="white" fill-opacity="0.5" /><text x="198" y="880.5" font-size="14" fill="white" font-family="monospace" dominant-baseline="initial">1</text><rect x="0" y="826.5" width="188" height="1" fill="white" fill-opacity="0.2" /><rect x="0" y="772.0" width="188" height="1" fill="white" fill-opacity="0.2" /><rect x="0" y="718.0" width="188" height="1" fill="white" fill-opacity="0.2" /><rect x="0" y="663.5" width="188" height="1" fill="white" fill-opacity="0.5" /><text x="198" y="663.5" font-size="14" fill="white" font-family="monospace" dominant-baseline="initial">2</text><rect x="0" y="609.5" width="188" height="1" fill="white" fill-opacity="0.2" /><rect x="0" y="555.0" width="188" height="1" fill="white" fill-opacity="0.2" /><rect x="0" y="501.0" width="188" height="1" fill="white" fill-opacity="0.2" /><rect x="0" y="447.0" width="188" height="1" fill="white" fill-opacity="0.5" /><text x="198" y="447.0" font-size="14" fill="white" font-family="monospace" dominant-baseline="initial">3</text><rect x="0" y="392.5" width="188" height="1" fill="white" fill-opacity="0.2" /><rect x="0" y="338.5" width="188" height="1" fill="white" fill-opacity="0.2" /><rect x="0" y="284.0" width="188" height="1" fill="white" fill-opacity="0.2" /><rect x="0" y="230.0" width="188" height="1" fill="white" fill-opacity="0.5" /><text x="198" y="230.0" font-size="14" fill="white" font-family="monospace" dominant-baseline="initial">4</text><rect x="0" y="175.5" width="188" height="1" fill="white" fill-opacity="0.2" /><rect x="0" y="121.5" width="188" height="1" fill="white" fill-opacity="0.2" /><rect x="0" y="67.0" width="188" height="1" fill="white" fill-opacity="0.2" /><rect x="0" y="13.0" width="188" height="1" fill="white" fill-opacity="0.5" /><text x="198" y="13.0" font-size="14" fill="white" font-family="monospace" dominant-baseline="initial">5</text><rect x="0" y="880.5" width="188" height="1" fill="aqua" fill-opacity="0.75" /><text x="0" y="876.5" font-size="14" fill="aqua" fill-opacity="0.75" font-family="monospace">Intro</text><rect x="0" y="880.5" width="188" height="1" fill="lime" fill-opacity="0.75" /><text x="198" y="867.5" font-size="14" fill="lime" font-family="monospace" dominant-baseline="initial">166</text><rect x="238" y="14.0" width="188" height="867.5" fill="black" /><rect x="238" y="880.5" width="188" height="1" fill="white" fill-opacity="0.5" /><text x="436" y="880.5" font-size="14" fill="white" font-family="monospace" dominant-baseline="initial">5</text><rect x="238" y="826.5" width="188" height="1" fill="white" fill-opacity="0.2" /><rect x="238" y="772.0" width="188" height="1" fill="white" fill-opacity="0.2" /><rect x="238" y="718.0" width="188" height="1" fill="white" fill-opacity="0.2" /><rect x="238" y="663.5" width="188" height="1" fill="white" fill-opacity="0.5" /><text x="436" y="663.5" font-size="14" fill="white" font-family="monospace" dominant-baseline="initial">6</text><rect x="238" y="609.5" width="188" height="1" fill="white" fill-opacity="0.2" /><rect x="238" y="555.0" width="188" height="1" fill="white" fill-opacity="0.2" /><rect x="238" y="501.0" width="188" height="1" fill="white" fill-opacity="0.2" /><rect x="238" y="447.0" width="188" height="1" fill="white" fill-opacity="0.5" /><text x="436" y="447.0" font-size="14" fill="white" font-family="monospace" dominant-baseline="initial">7</text><rect x="238" y="392.5" width="188" height="1" fill="white" fill-opacity="0.2" /><rect x="238" y="338.5" width="188" height="1" fill="white" fill-opacity="0.2" /><rect x="238" y="284.0" width="188" height="1" fill="white" fill-opacity="0.2" /><rect x="238" y="230.0" width="188" height="1" fill="white" fill-opacity="0.5" /><text x="436" y="230.0" font-size="14" fill="white" font-family="monospace" dominant-baseline="initial">8</text><rect x="238" y="175.5" width="188" height="1" fill="white" fill-opacity="0.2" /><rect x="238" y="121.5" width="188" height="1" fill="white" fill-opacity="0.2" /><rect x="238" y="67.5" width="188" height="1" fill="white" fill-opacity="0.2" /><rect x="238" y="13.0" width="188" height="1" fill="white" fill-opacity="0.5" /><text x="436" y="13.0" font-size="14" fill="white" font-family="monospace" dominant-baseline="initial">9</text><rect x="476" y="14.0" width="188" height="867.5" fill="black" /><rect x="476" y="880.5" width="188" height="1" fill="white" fill-opacity="0.5" /><text x="674" y="880.5" font-size="14" fill="white" font-family="monospace" dominant-baseline="initial">9</text><rect x="476" y="826.5" width="188" height="1" fill="white" fill-opacity="0.2" /><rect x="476" y="772.0" width="188" height="1" fill="white" fill-opacity="0.2" /><rect x="476" y="718.0" width="188" height="1" fill="white" fill-opacity="0.2" /><rect x="476" y="663.5" width="188" height="1" fill="white" fill-opacity="0.5" /><text x="674" y="663.5" font-size="14" fill="white" font-family="monospace" dominant-baseline="initial">10</text><rect x="476" y="609.5" width="188" height="1" fill="white" fill-opacity="0.2" /><rect x="476" y="555.5" width="188" height="1" fill="white" fill-opacity="0.2" /><rect x="476" y="501.0" width="188" height="1" fill="white" fill-opacity="0.2" /><rect x="476" y="447.0" width="188" height="1" fill="white" fill-opacity="0.5" /><text x="674" y="447.0" font-size="14" fill="white" font-family="monospace" dominant-baseline="initial">11</text><rect x="476" y="392.5" width="188" height="1" fill="white" fill-opacity="0.2" /><rect x="476" y="338.5" width="188" height="1" fill="white" fill-opacity="0.2" /><rect x="476" y="284.0" width="188" height="1" fill="white" fill-opacity="0.2" /><rect x="476" y="230.0" width="188" height="1" fill="white" fill-opacity="0.5" /><text x="674" y="230.0" font-size="14" fill="white" font-family="monospace" dominant-baseline="initial">12</text><rect x="476" y="175.5" width="188" height="1" fill="white" fill-opacity="0.2" /><rect x="476" y="121.5" width="188" height="1" fill="white" fill-opacity="0.2" /><rect x="476" y="67.5" width="188" height="1" fill="white" fill-opacity="0.2" /><rect x="476" y="13.0" width="188" height="1" fill="white" fill-opacity="0.5" /><text x="674" y="13.0" font-size="14" fill="white" font-family="monospace" dominant-baseline="initial">13</text><rect x="476" y="663.7" width="188" height="1" fill="aqua" fill-opacity="0.75" /><text x="476" y="659.7" font-size="14" fill="aqua" fill-opacity="0.75" font-family="monospace">Special</text><rect x="714" y="14.0" width="188" height="867.5" fill="black" /><rect x="714" y="880.5" width="188" height="1" fill="white" fill-opacity="0.5" /><text x="912" y="880.5" font-size="14" fill="white" font-family="monospace" dominant-baseline="initial">13</text><rect x="714" y="826.5" width="188" height="1" fill="white" fill-opacity="0.2" /><rect x="714" y="772.0" width="188" height="1" fill="white" fill-opacity="0.2" /><rect x="714" y="718.0" width="188" height="1" fill="white" fill-opacity="0.2" /><rect x="714" y="663.5" width="188" height="1" fill="white" fill-opacity="0.5" /><text x="912" y="663.5" font-size="14" fill="white" font-family="monospace" dominant-baseline="initial">14</text><rect x="714" y="609.5" width="188" height="1" fill="white" fill-opacity="0.2" /><rect x="714" y="555.5" width="188" height="1" fill="white" fill-opacity="0.2" /><rect x="714" y="501.0" width="188" height="1" fill="white" fill-opacity="0.2" /><rect x="714" y="447.0" width="188" height="1" fill="white" fill-opacity="0.5" /><text x="912" y="447.0" font-size="14" fill="white" font-family="monospace" dominant-baseline="initial">15</text><rect x="714" y="392.5" width="188" height="1" fill="white" fill-opacity="0.2" /><rect x="714" y="338.5" width="188" height="1" fill="white" fill-opacity="0.2" /><rect x="714" y="284.0" width="188" height="1" fill="white" fill-opacity="0.2" /><rect x="714" y="230.0" width="188" height="1" fill="white" fill-opacity="0.5" /><text x="912" y="230.0" font-size="14" fill="white" font-family="monospace" dominant-baseline="initial">16</text><rect x="714" y="176.0" width="188" height="1" fill="white" fill-opacity="0.2" /><rect x="714" y="121.5" width="188" height="1" fill="white" fill-opacity="0.2" /><rect x="714" y="67.5" width="188" height="1" fill="white" fill-opacity="0.2" /><rect x="714" y="13.0" width="188" height="1" fill="white" fill-opacity="0.5" /><text x="912" y="13.0" font-size="14" fill="white" font-family="monospace" dominant-baseline="initial">17</text><rect x="952" y="14.0" width="188" height="867.5" fill="black" /><rect x="952" y="880.5" width="188" height="1" fill="white" fill-opacity="0.5" /><text x="1150" y="880.5" font-size="14" fill="white" font-family="monospace" dominant-baseline="initial">17</text><rect x="952" y="826.5" width="188" height="1" fill="white" fill-opacity="0.2" /><rect x="952" y="772.0" width="188" height="1" fill="white" fill-opacity="0.2" /><rect x="952" y="718.0" width="188" height="1" fill="white" fill-opacity="0.2" /><rect x="952" y="664.0" width="188" height="1" fill="white" fill-opacity="0.5" /><text x="1150" y="664.0" font-size="14" fill="white" font-family="monospace" dominant-baseline="initial">18</text><rect x="952" y="609.5" width="188" height="1" fill="white" fill-opacity="0.2" /><rect x="952" y="555.5" width="188" height="1" fill="white" fill-opacity="0.2" /><rect x="952" y="501.0" width="188" height="1" fill="white" fill-opacity="0.2" /><rect x="952" y="447.0" width="188" height="1" fill="white" fill-opacity="0.5" /><text x="1150" y="447.0" font-size="14" fill="white" font-family="monospace" dominant-baseline="initial">19</text><rect x="952" y="392.5" width="188" height="1" fill="white" fill-opacity="0.2" /><rect x="952" y="338.5" width="188" height="1" fill="white" fill-opacity="0.2" /><rect x="952" y="284.0" width="188" height="1" fill="white" fill-opacity="0.2" /><rect x="952" y="230.0" width="188" height="1" fill="white" fill-opacity="0.5" /><text x="1150" y="230.0" font-size="14" fill="white" font-family="monospace" dominant-baseline="initial">20</text><rect x="952" y="176.0" width="188" height="1" fill="white" fill-opacity="0.2" /><rect x="952" y="121.5" width="188" height="1" fill="white" fill-opacity="0.2" /><rect x="952" y="67.5" width="188" height="1" fill="white" fill-opacity="0.2" /><rect x="952" y="13.0" width="188" height="1" fill="white" fill-opacity="0.5" /><text x="1150" y="13.0" font-size="14" fill="white" font-family="monospace" dominant-baseline="initial">21</text><rect x="952" y="446.9000000000001" width="188" height="1" fill="aqua" fill-opacity="0.75" /><text x="952" y="442.9000000000001" font-size="14" fill="aqua" fill-opacity="0.75" font-family="monospace">Special</text><rect x="1190" y="14.0" width="188" height="867.5" fill="black" /><rect x="1190" y="880.5" width="188" height="1" fill="white" fill-opacity="0.5" /><text x="1388" y="880.5" font-size="14" fill="white" font-family="monospace" dominant-baseline="initial">21</text><rect x="1190" y="826.5" width="188" height="1" fill="white" fill-opacity="0.2" /><rect x="1190" y="772.0" width="188" height="1" fill="white" fill-opacity="0.2" /><rect x="1190" y="718.0" width="188" height="1" fill="white" fill-opacity="0.2" /><rect x="1190" y="664.0" width="188" height="1" fill="white" fill-opacity="0.5" /><text x="1388" y="664.0" font-size="14" fill="white" font-family="monospace" dominant-baseline="initial">22</text><rect x="1190" y="609.5" width="188" height="1" fill="white" fill-opacity="0.2" /><rect x="1190" y="555.5" width="188" height="1" fill="white" fill-opacity="0.2" /><rect x="1190" y="501.0" width="188" height="1" fill="white" fill-opacity="0.2" /><rect x="1190" y="447.0" width="188" height="1" fill="white" fill-opacity="0.5" /><text x="1388" y="447.0" font-size="14" fill="white" font-family="monospace" dominant-baseline="initial">23</text><rect x="1190" y="392.5" width="188" height="1" fill="white" fill-opacity="0.2" /><rect x="1190" y="338.5" width="188" height="1" fill="white" fill-opacity="0.2" /><rect x="1190" y="284.5" width="188" height="1" fill="white" fill-opacity="0.2" /><rect x="1190" y="230.0" width="188" height="1" fill="white" fill-opacity="0.5" /><text x="1388" y="230.0" font-size="14" fill="white" font-family="monospace" dominant-baseline="initial">24</text><rect x="1190" y="176.0" width="188" height="1" fill="white" fill-opacity="0.2" /><rect x="1190" y="121.5" width="188" height="1" fill="white" fill-opacity="0.2" /><rect x="1190" y="67.5" width="188" height="1" fill="white" fill-opacity="0.2" /><rect x="1190" y="13.0" width="188" height="1" fill="white" fill-opacity="0.5" /><text x="1388" y="13.0" font-size="14" fill="white" font-family="monospace" dominant-baseline="initial">25</text><rect x="1428" y="14.0" width="188" height="867.5" fill="black" /><rect x="1428" y="880.5" width="188" height="1" fill="white" fill-opacity="0.5" /><text x="1626" y="880.5" font-size="14" fill="white" font-family="monospace" dominant-baseline="initial">25</text><rect x="1428" y="826.5" width="188" height="1" fill="white" fill-opacity="0.2" /><rect x="1428" y="772.5" width="188" height="1" fill="white" fill-opacity="0.2" /><rect x="1428" y="718.0" width="188" height="1" fill="white" fill-opacity="0.2" /><rect x="1428" y="664.0" width="188" height="1" fill="white" fill-opacity="0.5" /><text x="1626" y="664.0" font-size="14" fill="white" font-family="monospace" dominant-baseline="initial">26</text><rect x="1428" y="609.5" width="188" height="1" fill="white" fill-opacity="0.2" /><rect x="1428" y="555.5" width="188" height="1" fill="white" fill-opacity="0.2" /><rect x="1428" y="501.0" width="188" height="1" fill="white" fill-opacity="0.2" /><rect x="1428" y="447.0" width="188" height="1" fill="white" fill-opacity="0.5" /><text x="1626" y="447.0" font-size="14" fill="white" font-family="monospace" dominant-baseline="initial">27</text><rect x="1428" y="392.5" width="188" height="1" fill="white" fill-opacity="0.2" /><rect x="1428" y="338.5" width="188" height="1" fill="white" fill-opacity="0.2" /><rect x="1428" y="284.5" width="188" height="1" fill="white" fill-opacity="0.2" /><rect x="1428" y="230.0" width="188" height="1" fill="white" fill-opacity="0.5" /><text x="1626" y="230.0" font-size="14" fill="white" font-family="monospace" dominant-baseline="initial">28</text><rect x="1428" y="176.0" width="188" height="1" fill="white" fill-opacity="0.2" /><rect x="1428" y="121.5" width="188" height="1" fill="white" fill-opacity="0.2" /><rect x="1428" y="67.5" width="188" height="1" fill="white" fill-opacity="0.2" /><rect x="1428" y="13.0" width="188" height="1" fill="white" fill-opacity="0.5" /><text x="1626" y="13.0" font-size="14" fill="white" font-family="monospace" dominant-baseline="initial">29</text><rect x="1428" y="230.10000000000036" width="188" height="1" fill="aqua" fill-opacity="0.75" /><text x="1428" y="226.10000000000036" font-size="14" fill="aqua" fill-opacity="0.75" font-family="monospace">Phrase A</text><rect x="1666" y="14.5" width="188" height="867.0" fill="black" /><rect x="1666" y="880.5" width="188" height="1" fill="white" fill-opacity="0.5" /><text x="1864" y="880.5" font-size="14" fill="white" font-family="monospace" dominant-baseline="initial">29</text><rect x="1666" y="826.5" width="188" height="1" fill="white" fill-opacity="0.2" /><rect x="1666" y="772.5" width="188" height="1" fill="white" fill-opacity="0.2" /><rect x="1666" y="718.0" width="188" height="1" fill="white" fill-opacity="0.2" /><rect x="1666" y="664.0" width="188" height="1" fill="white" fill-opacity="0.5" /><text x="1864" y="664.0" font-size="14" fill="white" font-family="monospace" dominant-baseline="initial">30</text><rect x="1666" y="609.5" width="188" height="1" fill="white" fill-opacity="0.2" /><rect x="1666" y="555.5" width="188" height="1" fill="white" fill-opacity="0.2" /><rect x="1666" y="501.0" width="188" height="1" fill="white" fill-opacity="0.2" /><rect x="1666" y="447.0" width="188" height="1" fill="white" fill-opacity="0.5" /><text x="1864" y="447.0" font-size="14" fill="white" font-family="monospace" dominant-baseline="initial">31</text><rect x="1666" y="393.0" width="188" height="1" fill="white" fill-opacity="0.2" /><rect x="1666" y="338.5" width="188" height="1" fill="white" fill-opacity="0.2" /><rect x="1666" y="284.5" width="188" height="1" fill="white" fill-opacity="0.2" /><rect x="1666" y="230.0" width="188" height="1" fill="white" fill-opacity="0.5" /><text x="1864" y="230.0" font-size="14" fill="white" font-family="monospace" dominant-baseline="initial">32</text><rect x="1666" y="176.0" width="188" height="1" fill="white" fill-opacity="0.2" /><rect x="1666" y="121.5" width="188" height="1" fill="white" fill-opacity="0.2" /><rect x="1666" y="67.5" width="188" height="1" fill="white" fill-opacity="0.2" /><rect x="1666" y="13.5" width="188" height="1" fill="white" fill-opacity="0.5" /><text x="1864" y="13.5" font-size="14" fill="white" font-family="monospace" dominant-baseline="initial">33</text><rect x="1904" y="14.0" width="188" height="867.5" fill="black" /><rect x="1904" y="880.5" width="188" height="1" fill="white" fill-opacity="0.5" /><text x="2102" y="880.5" font-size="14" fill="white" font-family="monospace" dominant-baseline="initial">33</text><rect x="1904" y="826.0" width="188" height="1" fill="white" fill-opacity="0.2" /><rect x="1904" y="772.0" width="188" height="1" fill="white" fill-opacity="0.2" /><rect x="1904" y="717.5" width="188" height="1" fill="white" fill-opacity="0.2" /><rect x="1904" y="663.5" width="188" height="1" fill="white" fill-opacity="0.5" /><text x="2102" y="663.5" font-size="14" fill="white" font-family="monospace" dominant-baseline="initial">34</text><rect x="1904" y="609.0" width="188" height="1" fill="white" fill-opacity="0.2" /><rect x="1904" y="555.0" width="188" height="1" fill="white" fill-opacity="0.2" /><rect x="1904" y="500.5" width="188" height="1" fill="white" fill-opacity="0.2" /><rect x="1904" y="446.5" width="188" height="1" fill="white" fill-opacity="0.5" /><text x="2102" y="446.5" font-size="14" fill="white" font-family="monospace" dominant-baseline="initial">35</text><rect x="1904" y="392.5" width="188" height="1" fill="white" fill-opacity="0.2" /><rect x="1904" y="338.0" width="188" height="1" fill="white" fill-opacity="0.2" /><rect x="1904" y="284.0" width="188" height="1" fill="white" fill-opacity="0.2" /><rect x="1904" y="229.5" width="188" height="1" fill="white" fill-opacity="0.5" /><text x="2102" y="229.5" font-size="14" fill="white" font-family="monospace" dominant-baseline="initial">36</text><rect x="1904" y="175.5" width="188" height="1" fill="white" fill-opacity="0.2" /><rect x="1904" y="121.0" width="188" height="1" fill="white" fill-opacity="0.2" /><rect x="1904" y="67.0" width="188" height="1" fill="white" fill-opacity="0.2" /><rect x="1904" y="13.0" width="188" height="1" fill="white" fill-opacity="0.5" /><text x="2102" y="13.0" font-size="14" fill="white" font-family="monospace" dominant-baseline="initial">37</text><rect x="2142" y="14.0" width="188" height="867.5" fill="black" /><rect x="2142" y="880.5" width="188" height="1" fill="white" fill-opacity="0.5" /><text x="2340" y="880.5" font-size="14" fill="white" font-family="monospace" dominant-baseline="initial">37</text><rect x="2142" y="826.0" width="188" height="1" fill="white" fill-opacity="0.2" /><rect x="2142" y="772.0" width="188" height="1" fill="white" fill-opacity="0.2" /><rect x="2142" y="717.5" width="188" height="1" fill="white" fill-opacity="0.2" /><rect x="2142" y="663.5" width="188" height="1" fill="white" fill-opacity="0.5" /><text x="2340" y="663.5" font-size="14" fill="white" font-family="monospace" dominant-baseline="initial">38</text><rect x="2142" y="609.0" width="188" height="1" fill="white" fill-opacity="0.2" /><rect x="2142" y="555.0" width="188" height="1" fill="white" fill-opacity="0.2" /><rect x="2142" y="501.0" width="188" height="1" fill="white" fill-opacity="0.2" /><rect x="2142" y="446.5" width="188" height="1" fill="white" fill-opacity="0.5" /><text x="2340" y="446.5" font-size="14" fill="white" font-family="monospace" dominant-baseline="initial">39</text><rect x="2142" y="392.5" width="188" height="1" fill="white" fill-opacity="0.2" /><rect x="2142" y="338.0" width="188" height="1" fill="white" fill-opacity="0.2" /><rect x="2142" y="284.0" width="188" height="1" fill="white" fill-opacity="0.2" /><rect x="2142" y="229.5" width="188" height="1" fill="white" fill-opacity="0.5" /><text x="2340" y="229.5" font-size="14" fill="white" font-family="monospace" dominant-baseline="initial">40</text><rect x="2142" y="175.5" width="188" height="1" fill="white" fill-opacity="0.2" /><rect x="2142" y="121.5" width="188" height="1" fill="white" fill-opacity="0.2" /><rect x="2142" y="67.0" width="188" height="1" fill="white" fill-opacity="0.2" /><rect x="2142" y="13.0" width="188" height="1" fill="white" fill-opacity="0.5" /><text x="2340" y="13.0" font-size="14" fill="white" font-family="monospace" dominant-baseline="initial">41</text><rect x="2380" y="14.0" width="188" height="867.5" fill="black" /><rect x="2380" y="880.5" width="188" height="1" fill="white" fill-opacity="0.5" /><text x="2578" y="880.5" font-size="14" fill="white" font-family="monospace" dominant-baseline="initial">41</text><rect x="2380" y="826.0" width="188" height="1" fill="white" fill-opacity="0.2" /><rect x="2380" y="772.0" width="188" height="1" fill="white" fill-opacity="0.2" /><rect x="2380" y="717.5" width="188" height="1" fill="white" fill-opacity="0.2" /><rect x="2380" y="663.5" width="188" height="1" fill="white" fill-opacity="0.5" /><text x="2578" y="663.5" font-size="14" fill="white" font-family="monospace" dominant-baseline="initial">42</text><rect x="2380" y="609.0" width="188" height="1" fill="white" fill-opacity="0.2" /><rect x="2380" y="555.0" width="188" height="1" fill="white" fill-opacity="0.2" /><rect x="2380" y="501.0" width="188" height="1" fill="white" fill-opacity="0.2" /><rect x="2380" y="446.5" width="188" height="1" fill="white" fill-opacity="0.5" /><text x="2578" y="446.5" font-size="14" fill="white" font-family="monospace" dominant-baseline="initial">43</text><rect x="2380" y="392.5" width="188" height="1" fill="white" fill-opacity="0.2" /><rect x="2380" y="338.0" width="188" height="1" fill="white" fill-opacity="0.2" /><rect x="2380" y="284.0" width="188" height="1" fill="white" fill-opacity="0.2" /><rect x="2380" y="229.5" width="188" height="1" fill="white" fill-opacity="0.5" /><text x="2578" y="229.5" font-size="14" fill="white" font-family="monospace" dominant-baseline="initial">44</text><rect x="2380" y="175.5" width="188" height="1" fill="white" fill-opacity="0.2" /><rect x="2380" y="121.5" width="188" height="1" fill="white" fill-opacity="0.2" /><rect x="2380" y="67.0" width="188" height="1" fill="white" fill-opacity="0.2" /><rect x="2380" y="13.0" width="188" height="1" fill="white" fill-opacity="0.5" /><text x="2578" y="13.0" font-size="14" fill="white" font-family="monospace" dominant-baseline="initial">45</text><rect x="2380" y="229.64999999999964" width="188" height="1" fill="aqua" fill-opacity="0.75" /><text x="2380" y="225.64999999999964" font-size="14" fill="aqua" fill-opacity="0.75" font-family="monospace">Phrase B</text><rect x="2618" y="14.0" width="188" height="867.5" fill="black" /><rect x="2618" y="880.5" width="188" height="1" fill="white" fill-opacity="0.5" /><text x="2816" y="880.5" font-size="14" fill="white" font-family="monospace" dominant-baseline="initial">45</text><rect x="2618" y="826.0" width="188" height="1" fill="white" fill-opacity="0.2" /><rect x="2618" y="772.0" width="188" height="1" fill="white" fill-opacity="0.2" /><rect x="2618" y="717.5" width="188" height="1" fill="white" fill-opacity="0.2" /><rect x="2618" y="663.5" width="188" height="1" fill="white" fill-opacity="0.5" /><text x="2816" y="663.5" font-size="14" fill="white" font-family="monospace" dominant-baseline="initial">46</text><rect x="2618" y="609.5" width="188" height="1" fill="white" fill-opacity="0.2" /><rect x="2618" y="555.0" width="188" height="1" fill="white" fill-opacity="0.2" /><rect x="2618" y="501.0" width="188" height="1" fill="white" fill-opacity="0.2" /><rect x="2618" y="446.5" width="188" height="1" fill="white" fill-opacity="0.5" /><text x="2816" y="446.5" font-size="14" fill="white" font-family="monospace" dominant-baseline="initial">47</text><rect x="2618" y="392.5" width="188" height="1" fill="white" fill-opacity="0.2" /><rect x="2618" y="338.0" width="188" height="1" fill="white" fill-opacity="0.2" /><rect x="2618" y="284.0" width="188" height="1" fill="white" fill-opacity="0.2" /><rect x="2618" y="230.0" width="188" height="1" fill="white" fill-opacity="0.5" /><text x="2816" y="230.0" font-size="14" fill="white" font-family="monospace" dominant-baseline="initial">48</text><rect x="2618" y="175.5" width="188" height="1" fill="white" fill-opacity="0.2" /><rect x="2618" y="121.5" width="188" height="1" fill="white" fill-opacity="0.2" /><rect x="2618" y="67.0" width="188" height="1" fill="white" fill-opacity="0.2" /><rect x="2618" y="13.0" width="188" height="1" fill="white" fill-opacity="0.5" /><text x="2816" y="13.0" font-size="14" fill="white" font-family="monospace" dominant-baseline="initial">49</text><rect x="2856" y="14.0" width="188" height="867.5" fill="black" /><rect x="2856" y="880.5" width="188" height="1" fill="white" fill-opacity="0.5" /><text x="3054" y="880.5" font-size="14" fill="white" font-family="monospace" dominant-baseline="initial">49</text><rect x="2856" y="826.0" width="188" height="1" fill="white" fill-opacity="0.2" /><rect x="2856" y="772.0" width="188" height="1" fill="white" fill-opacity="0.2" /><rect x="2856" y="717.5" width="188" height="1" fill="white" fill-opacity="0.2" /><rect x="2856" y="663.5" width="188" height="1" fill="white" fill-opacity="0.5" /><text x="3054" y="663.5" font-size="14" fill="white" font-family="monospace" dominant-baseline="initial">50</text><rect x="2856" y="609.5" width="188" height="1" fill="white" fill-opacity="0.2" /><rect x="2856" y="555.0" width="188" height="1" fill="white" fill-opacity="0.2" /><rect x="2856" y="501.0" width="188" height="1" fill="white" fill-opacity="0.2" /><rect x="2856" y="446.5" width="188" height="1" fill="white" fill-opacity="0.5" /><text x="3054" y="446.5" font-size="14" fill="white" font-family="monospace" dominant-baseline="initial">51</text><rect x="2856" y="392.5" width="188" height="1" fill="white" fill-opacity="0.2" /><rect x="2856" y="338.0" width="188" height="1" fill="white" fill-opacity="0.2" /><rect x="2856" y="284.0" width="188" height="1" fill="white" fill-opacity="0.2" /><rect x="2856" y="230.0" width="188" height="1" fill="white" fill-opacity="0.5" /><text x="3054" y="230.0" font-size="14" fill="white" font-family="monospace" dominant-baseline="initial">52</text><rect x="2856" y="175.5" width="188" height="1" fill="white" fill-opacity="0.2" /><rect x="2856" y="121.5" width="188" height="1" fill="white" fill-opacity="0.2" /><rect x="2856" y="67.0" width="188" height="1" fill="white" fill-opacity="0.2" /><rect x="2856" y="13.0" width="188" height="1" fill="white" fill-opacity="0.5" /><text x="3054" y="13.0" font-size="14" fill="white" font-family="monospace" dominant-baseline="initial">53</text><rect x="2856" y="229.75" width="188" height="1" fill="aqua" fill-opacity="0.75" /><text x="2856" y="225.75" font-size="14" fill="aqua" fill-opacity="0.75" font-family="monospace">Phrase C</text><rect x="3094" y="14.0" width="188" height="867.5" fill="black" /><rect x="3094" y="880.5" width="188" height="1" fill="white" fill-opacity="0.5" /><text x="3292" y="880.5" font-size="14" fill="white" font-family="monospace" dominant-baseline="initial">53</text><rect x="3094" y="826.0" width="188" height="1" fill="white" fill-opacity="0.2" /><rect x="3094" y="772.0" width="188" height="1" fill="white" fill-opacity="0.2" /><rect x="3094" y="718.0" width="188" height="1" fill="white" fill-opacity="0.2" /><rect x="3094" y="663.5" width="188" height="1" fill="white" fill-opacity="0.5" /><text x="3292" y="663.5" font-size="14" fill="white" font-family="monospace" dominant-baseline="initial">54</text><rect x="3094" y="609.5" width="188" height="1" fill="white" fill-opacity="0.2" /><rect x="3094" y="555.0" width="188" height="1" fill="white" fill-opacity="0.2" /><rect x="3094" y="501.0" width="188" height="1" fill="white" fill-opacity="0.2" /><rect x="3094" y="446.5" width="188" height="1" fill="white" fill-opacity="0.5" /><text x="3292" y="446.5" font-size="14" fill="white" font-family="monospace" dominant-baseline="initial">55</text><rect x="3094" y="392.5" width="188" height="1" fill="white" fill-opacity="0.2" /><rect x="3094" y="338.0" width="188" height="1" fill="white" fill-opacity="0.2" /><rect x="3094" y="284.0" width="188" height="1" fill="white" fill-opacity="0.2" /><rect x="3094" y="230.0" width="188" height="1" fill="white" fill-opacity="0.5" /><text x="3292" y="230.0" font-size="14" fill="white" font-family="monospace" dominant-baseline="initial">56</text><rect x="3094" y="175.5" width="188" height="1" fill="white" fill-opacity="0.2" /><rect x="3094" y="121.5" width="188" height="1" fill="white" fill-opacity="0.2" /><rect x="3094" y="67.0" width="188" height="1" fill="white" fill-opacity="0.2" /><rect x="3094" y="13.0" width="188" height="1" fill="white" fill-opacity="0.5" /><text x="3292" y="13.0" font-size="14" fill="white" font-family="monospace" dominant-baseline="initial">57</text><rect x="3332" y="14.0" width="188" height="867.5" fill="black" /><rect x="3332" y="880.5" width="188" height="1" fill="white" fill-opacity="0.5" /><text x="3530" y="880.5" font-size="14" fill="white" font-family="monospace" dominant-baseline="initial">57</text><rect x="3332" y="826.0" width="188" height="1" fill="white" fill-opacity="0.2" /><rect x="3332" y="772.0" width="188" height="1" fill="white" fill-opacity="0.2" /><rect x="3332" y="718.0" width="188" height="1" fill="white" fill-opacity="0.2" /><rect x="3332" y="663.5" width="188" height="1" fill="white" fill-opacity="0.5" /><text x="3530" y="663.5" font-size="14" fill="white" font-family="monospace" dominant-baseline="initial">58</text><rect x="3332" y="609.5" width="188" height="1" fill="white" fill-opacity="0.2" /><rect x="3332" y="555.0" width="188" height="1" fill="white" fill-opacity="0.2" /><rect x="3332" y="501.0" width="188" height="1" fill="white" fill-opacity="0.2" /><rect x="3332" y="446.5" width="188" height="1" fill="white" fill-opacity="0.5" /><text x="3530" y="446.5" font-size="14" fill="white" font-family="monospace" dominant-baseline="initial">59</text><rect x="3332" y="392.5" width="188" height="1" fill="white" fill-opacity="0.2" /><rect x="3332" y="338.5" width="188" height="1" fill="white" fill-opacity="0.2" /><rect x="3332" y="284.0" width="188" height="1" fill="white" fill-opacity="0.2" /><rect x="3332" y="230.0" width="188" height="1" fill="white" fill-opacity="0.5" /><text x="3530" y="230.0" font-size="14" fill="white" font-family="monospace" dominant-baseline="initial">60</text><rect x="3332" y="175.5" width="188" height="1" fill="white" fill-opacity="0.2" /><rect x="3332" y="121.5" width="188" height="1" fill="white" fill-opacity="0.2" /><rect x="3332" y="67.0" width="188" height="1" fill="white" fill-opacity="0.2" /><rect x="3332" y="13.0" width="188" height="1" fill="white" fill-opacity="0.5" /><text x="3530" y="13.0" font-size="14" fill="white" font-family="monospace" dominant-baseline="initial">61</text><rect x="3332" y="229.85000000000036" width="188" height="1" fill="aqua" fill-opacity="0.75" /><text x="3332" y="225.85000000000036" font-size="14" fill="aqua" fill-opacity="0.75" font-family="monospace">Special</text><rect x="3570" y="14.0" width="188" height="867.5" fill="black" /><rect x="3570" y="880.5" width="188" height="1" fill="white" fill-opacity="0.5" /><text x="3768" y="880.5" font-size="14" fill="white" font-family="monospace" dominant-baseline="initial">61</text><rect x="3570" y="826.5" width="188" height="1" fill="white" fill-opacity="0.2" /><rect x="3570" y="772.0" width="188" height="1" fill="white" fill-opacity="0.2" /><rect x="3570" y="718.0" width="188" height="1" fill="white" fill-opacity="0.2" /><rect x="3570" y="663.5" width="188" height="1" fill="white" fill-opacity="0.5" /><text x="3768" y="663.5" font-size="14" fill="white" font-family="monospace" dominant-baseline="initial">62</text><rect x="3570" y="609.5" width="188" height="1" fill="white" fill-opacity="0.2" /><rect x="3570" y="555.0" width="188" height="1" fill="white" fill-opacity="0.2" /><rect x="3570" y="501.0" width="188" height="1" fill="white" fill-opacity="0.2" /><rect x="3570" y="446.5" width="188" height="1" fill="white" fill-opacity="0.5" /><text x="3768" y="446.5" font-size="14" fill="white" font-family="monospace" dominant-baseline="initial">63</text><rect x="3570" y="392.5" width="188" height="1" fill="white" fill-opacity="0.2" /><rect x="3570" y="338.5" width="188" height="1" fill="white" fill-opacity="0.2" /><rect x="3570" y="284.0" width="188" height="1" fill="white" fill-opacity="0.2" /><rect x="3570" y="230.0" width="188" height="1" fill="white" fill-opacity="0.5" /><text x="3768" y="230.0" font-size="14" fill="white" font-family="monospace" dominant-baseline="initial">64</text><rect x="3570" y="175.5" width="188" height="1" fill="white" fill-opacity="0.2" /><rect x="3570" y="121.5" width="188" height="1" fill="white" fill-opacity="0.2" /><rect x="3570" y="67.0" width="188" height="1" fill="white" fill-opacity="0.2" /><rect x="3570" y="13.0" width="188" height="1" fill="white" fill-opacity="0.5" /><text x="3768" y="13.0" font-size="14" fill="white" font-family="monospace" dominant-baseline="initial">65</text><rect x="3808" y="14.0" width="188" height="867.5" fill="black" /><rect x="3808" y="880.5" width="188" height="1" fill="white" fill-opacity="0.5" /><text x="4006" y="880.5" font-size="14" fill="white" font-family="monospace" dominant-baseline="initial">65</text><rect x="3808" y="826.5" width="188" height="1" fill="white" fill-opacity="0.2" /><rect x="3808" y="772.0" width="188" height="1" fill="white" fill-opacity="0.2" /><rect x="3808" y="718.0" width="188" height="1" fill="white" fill-opacity="0.2" /><rect x="3808" y="663.5" width="188" height="1" fill="white" fill-opacity="0.5" /><text x="4006" y="663.5" font-size="14" fill="white" font-family="monospace" dominant-baseline="initial">66</text><rect x="3808" y="609.5" width="188" height="1" fill="white" fill-opacity="0.2" /><rect x="3808" y="555.0" width="188" height="1" fill="white" fill-opacity="0.2" /><rect x="3808" y="501.0" width="188" height="1" fill="white" fill-opacity="0.2" /><rect x="3808" y="447.0" width="188" height="1" fill="white" fill-opacity="0.5" /><text x="4006" y="447.0" font-size="14" fill="white" font-family="monospace" dominant-baseline="initial">67</text><rect x="3808" y="392.5" width="188" height="1" fill="white" fill-opacity="0.2" /><rect x="3808" y="338.5" width="188" height="1" fill="white" fill-opacity="0.2" /><rect x="3808" y="284.0" width="188" height="1" fill="white" fill-opacity="0.2" /><rect x="3808" y="230.0" width="188" height="1" fill="white" fill-opacity="0.5" /><text x="4006" y="230.0" font-size="14" fill="white" font-family="monospace" dominant-baseline="initial">68</text><rect x="3808" y="175.5" width="188" height="1" fill="white" fill-opacity="0.2" /><rect x="3808" y="121.5" width="188" height="1" fill="white" fill-opacity="0.2" /><rect x="3808" y="67.5" width="188" height="1" fill="white" fill-opacity="0.2" /><rect x="3808" y="13.0" width="188" height="1" fill="white" fill-opacity="0.5" /><text x="4006" y="13.0" font-size="14" fill="white" font-family="monospace" dominant-baseline="initial">69</text><rect x="4046" y="14.0" width="188" height="867.5" fill="black" /><rect x="4046" y="880.5" width="188" height="1" fill="white" fill-opacity="0.5" /><text x="4244" y="880.5" font-size="14" fill="white" font-family="monospace" dominant-baseline="initial">69</text><rect x="4046" y="826.5" width="188" height="1" fill="white" fill-opacity="0.2" /><rect x="4046" y="772.0" width="188" height="1" fill="white" fill-opacity="0.2" /><rect x="4046" y="718.0" width="188" height="1" fill="white" fill-opacity="0.2" /><rect x="4046" y="663.5" width="188" height="1" fill="white" fill-opacity="0.5" /><text x="4244" y="663.5" font-size="14" fill="white" font-family="monospace" dominant-baseline="initial">70</text><rect x="4046" y="609.5" width="188" height="1" fill="white" fill-opacity="0.2" /><rect x="4046" y="555.0" width="188" height="1" fill="white" fill-opacity="0.2" /><rect x="4046" y="501.0" width="188" height="1" fill="white" fill-opacity="0.2" /><rect x="4046" y="447.0" width="188" height="1" fill="white" fill-opacity="0.5" /><text x="4244" y="447.0" font-size="14" fill="white" font-family="monospace" dominant-baseline="initial">71</text><rect x="4046" y="392.5" width="188" height="1" fill="white" fill-opacity="0.2" /><rect x="4046" y="338.5" width="188" height="1" fill="white" fill-opacity="0.2" /><rect x="4046" y="284.0" width="188" height="1" fill="white" fill-opacity="0.2" /><rect x="4046" y="230.0" width="188" height="1" fill="white" fill-opacity="0.5" /><text x="4244" y="230.0" font-size="14" fill="white" font-family="monospace" dominant-baseline="initial">72</text><rect x="4046" y="175.5" width="188" height="1" fill="white" fill-opacity="0.2" /><rect x="4046" y="121.5" width="188" height="1" fill="white" fill-opacity="0.2" /><rect x="4046" y="67.5" width="188" height="1" fill="white" fill-opacity="0.2" /><rect x="4046" y="13.0" width="188" height="1" fill="white" fill-opacity="0.5" /><text x="4244" y="13.0" font-size="14" fill="white" font-family="monospace" dominant-baseline="initial">73</text><rect x="4284" y="14.0" width="188" height="867.5" fill="black" /><rect x="4284" y="880.5" width="188" height="1" fill="white" fill-opacity="0.5" /><text x="4482" y="880.5" font-size="14" fill="white" font-family="monospace" dominant-baseline="initial">73</text><rect x="4284" y="826.5" width="188" height="1" fill="white" fill-opacity="0.2" /><rect x="4284" y="772.0" width="188" height="1" fill="white" fill-opacity="0.2" /><rect x="4284" y="718.0" width="188" height="1" fill="white" fill-opacity="0.2" /><rect x="4284" y="663.5" width="188" height="1" fill="white" fill-opacity="0.5" /><text x="4482" y="663.5" font-size="14" fill="white" font-family="monospace" dominant-baseline="initial">74</text><rect x="4284" y="609.5" width="188" height="1" fill="white" fill-opacity="0.2" /><rect x="4284" y="555.5" width="188" height="1" fill="white" fill-opacity="0.2" /><rect x="4284" y="501.0" width="188" height="1" fill="white" fill-opacity="0.2" /><rect x="4284" y="447.0" width="188" height="1" fill="white" fill-opacity="0.5" /><text x="4482" y="447.0" font-size="14" fill="white" font-family="monospace" dominant-baseline="initial">75</text><rect x="4284" y="392.5" width="188" height="1" fill="white" fill-opacity="0.2" /><rect x="4284" y="338.5" width="188" height="1" fill="white" fill-opacity="0.2" /><rect x="4284" y="284.0" width="188" height="1" fill="white" fill-opacity="0.2" /><rect x="4284" y="230.0" width="188" height="1" fill="white" fill-opacity="0.5" /><text x="4482" y="230.0" font-size="14" fill="white" font-family="monospace" dominant-baseline="initial">76</text><rect x="4284" y="176.0" width="188" height="1" fill="white" fill-opacity="0.2" /><rect x="4284" y="121.5" width="188" height="1" fill="white" fill-opacity="0.2" /><rect x="4284" y="67.5" width="188" height="1" fill="white" fill-opacity="0.2" /><rect x="4284" y="13.0" width="188" height="1" fill="white" fill-opacity="0.5" /><text x="4482" y="13.0" font-size="14" fill="white" font-family="monospace" dominant-baseline="initial">77</text><rect x="4284" y="230.0500000000011" width="188" height="1" fill="aqua" fill-opacity="0.75" /><text x="4284" y="226.0500000000011" font-size="14" fill="aqua" fill-opacity="0.75" font-family="monospace">Special</text><rect x="4522" y="14.0" width="188" height="867.5" fill="black" /><rect x="4522" y="880.5" width="188" height="1" fill="white" fill-opacity="0.5" /><text x="4720" y="880.5" font-size="14" fill="white" font-family="monospace" dominant-baseline="initial">77</text><rect x="4522" y="826.5" width="188" height="1" fill="white" fill-opacity="0.2" /><rect x="4522" y="772.0" width="188" height="1" fill="white" fill-opacity="0.2" /><rect x="4522" y="718.0" width="188" height="1" fill="white" fill-opacity="0.2" /><rect x="4522" y="663.5" width="188" height="1" fill="white" fill-opacity="0.5" /><text x="4720" y="663.5" font-size="14" fill="white" font-family="monospace" dominant-baseline="initial">78</text><rect x="4522" y="609.5" width="188" height="1" fill="white" fill-opacity="0.2" /><rect x="4522" y="555.5" width="188" height="1" fill="white" fill-opacity="0.2" /><rect x="4522" y="501.0" width="188" height="1" fill="white" fill-opacity="0.2" /><rect x="4522" y="447.0" width="188" height="1" fill="white" fill-opacity="0.5" /><text x="4720" y="447.0" font-size="14" fill="white" font-family="monospace" dominant-baseline="initial">79</text><rect x="4522" y="392.5" width="188" height="1" fill="white" fill-opacity="0.2" /><rect x="4522" y="338.5" width="188" height="1" fill="white" fill-opacity="0.2" /><rect x="4522" y="284.0" width="188" height="1" fill="white" fill-opacity="0.2" /><rect x="4522" y="230.0" width="188" height="1" fill="white" fill-opacity="0.5" /><text x="4720" y="230.0" font-size="14" fill="white" font-family="monospace" dominant-baseline="initial">80</text><rect x="4522" y="176.0" width="188" height="1" fill="white" fill-opacity="0.2" /><rect x="4522" y="121.5" width="188" height="1" fill="white" fill-opacity="0.2" /><rect x="4522" y="67.5" width="188" height="1" fill="white" fill-opacity="0.2" /><rect x="4522" y="13.0" width="188" height="1" fill="white" fill-opacity="0.5" /><text x="4720" y="13.0" font-size="14" fill="white" font-family="monospace" dominant-baseline="initial">81</text><rect x="4760" y="14.0" width="188" height="867.5" fill="black" /><rect x="4760" y="880.5" width="188" height="1" fill="white" fill-opacity="0.5" /><text x="4958" y="880.5" font-size="14" fill="white" font-family="monospace" dominant-baseline="initial">81</text><rect x="4760" y="826.5" width="188" height="1" fill="white" fill-opacity="0.2" /><rect x="4760" y="772.0" width="188" height="1" fill="white" fill-opacity="0.2" /><rect x="4760" y="718.0" width="188" height="1" fill="white" fill-opacity="0.2" /><rect x="4760" y="664.0" width="188" height="1" fill="white" fill-opacity="0.5" /><text x="4958" y="664.0" font-size="14" fill="white" font-family="monospace" dominant-baseline="initial">82</text><rect x="4760" y="609.5" width="188" height="1" fill="white" fill-opacity="0.2" /><rect x="4760" y="555.5" width="188" height="1" fill="white" fill-opacity="0.2" /><rect x="4760" y="501.0" width="188" height="1" fill="white" fill-opacity="0.2" /><rect x="4760" y="447.0" width="188" height="1" fill="white" fill-opacity="0.5" /><text x="4958" y="447.0" font-size="14" fill="white" font-family="monospace" dominant-baseline="initial">83</text><rect x="4760" y="392.5" width="188" height="1" fill="white" fill-opacity="0.2" /><rect x="4760" y="338.5" width="188" height="1" fill="white" fill-opacity="0.2" /><rect x="4760" y="284.5" width="188" height="1" fill="white" fill-opacity="0.2" /><rect x="4760" y="230.0" width="188" height="1" fill="white" fill-opacity="0.5" /><text x="4958" y="230.0" font-size="14" fill="white" font-family="monospace" dominant-baseline="initial">84</text><rect x="4760" y="176.0" width="188" height="1" fill="white" fill-opacity="0.2" /><rect x="4760" y="121.5" width="188" height="1" fill="white" fill-opacity="0.2" /><rect x="4760" y="67.5" width="188" height="1" fill="white" fill-opacity="0.2" /><rect x="4760" y="13.0" width="188" height="1" fill="white" fill-opacity="0.5" /><text x="4958" y="13.0" font-size="14" fill="white" font-family="monospace" dominant-baseline="initial">85</text><rect x="4998" y="14.0" width="188" height="867.5" fill="black" /><rect x="4998" y="880.5" width="188" height="1" fill="white" fill-opacity="0.5" /><text x="5196" y="880.5" font-size="14" fill="white" font-family="monospace" dominant-baseline="initial">85</text><rect x="4998" y="826.5" width="188" height="1" fill="white" fill-opacity="0.2" /><rect x="4998" y="772.0" width="188" height="1" fill="white" fill-opacity="0.2" /><rect x="4998" y="718.0" width="188" height="1" fill="white" fill-opacity="0.2" /><rect x="4998" y="664.0" width="188" height="1" fill="white" fill-opacity="0.5" /><text x="5196" y="664.0" font-size="14" fill="white" font-family="monospace" dominant-baseline="initial">86</text><rect x="4998" y="609.5" width="188" height="1" fill="white" fill-opacity="0.2" /><rect x="4998" y="555.5" width="188" height="1" fill="white" fill-opacity="0.2" /><rect x="4998" y="501.0" width="188" height="1" fill="white" fill-opacity="0.2" /><rect x="4998" y="447.0" width="188" height="1" fill="white" fill-opacity="0.5" /><text x="5196" y="447.0" font-size="14" fill="white" font-family="monospace" dominant-baseline="initial">87</text><rect x="4998" y="392.5" width="188" height="1" fill="white" fill-opacity="0.2" /><rect x="4998" y="338.5" width="188" height="1" fill="white" fill-opacity="0.2" /><rect x="4998" y="284.5" width="188" height="1" fill="white" fill-opacity="0.2" /><rect x="4998" y="230.0" width="188" height="1" fill="white" fill-opacity="0.5" /><text x="5196" y="230.0" font-size="14" fill="white" font-family="monospace" dominant-baseline="initial">88</text><rect x="4998" y="176.0" width="188" height="1" fill="white" fill-opacity="0.2" /><rect x="4998" y="121.5" width="188" height="1" fill="white" fill-opacity="0.2" /><rect x="4998" y="67.5" width="188" height="1" fill="white" fill-opacity="0.2" /><rect x="4998" y="13.0" width="188" height="1" fill="white" fill-opacity="0.5" /><text x="5196" y="13.0" font-size="14" fill="white" font-family="monospace" dominant-baseline="initial">89</text><rect x="5236" y="14.0" width="188" height="867.5" fill="black" /><rect x="5236" y="880.5" width="188" height="1" fill="white" fill-opacity="0.5" /><text x="5434" y="880.5" font-size="14" fill="white" font-family="monospace" dominant-baseline="initial">89</text><rect x="5236" y="826.5" width="188" height="1" fill="white" fill-opacity="0.2" /><rect x="5236" y="772.5" width="188" height="1" fill="white" fill-opacity="0.2" /><rect x="5236" y="718.0" width="188" height="1" fill="white" fill-opacity="0.2" /><rect x="5236" y="664.0" width="188" height="1" fill="white" fill-opacity="0.5" /><text x="5434" y="664.0" font-size="14" fill="white" font-family="monospace" dominant-baseline="initial">90</text><rect x="5236" y="609.5" width="188" height="1" fill="white" fill-opacity="0.2" /><rect x="5236" y="555.5" width="188" height="1" fill="white" fill-opacity="0.2" /><rect x="5236" y="501.0" width="188" height="1" fill="white" fill-opacity="0.2" /><rect x="5236" y="447.0" width="188" height="1" fill="white" fill-opacity="0.5" /><text x="5434" y="447.0" font-size="14" fill="white" font-family="monospace" dominant-baseline="initial">91</text><rect x="5236" y="393.0" width="188" height="1" fill="white" fill-opacity="0.2" /><rect x="5236" y="338.5" width="188" height="1" fill="white" fill-opacity="0.2" /><rect x="5236" y="284.5" width="188" height="1" fill="white" fill-opacity="0.2" /><rect x="5236" y="230.0" width="188" height="1" fill="white" fill-opacity="0.5" /><text x="5434" y="230.0" font-size="14" fill="white" font-family="monospace" dominant-baseline="initial">92</text><rect x="5236" y="176.0" width="188" height="1" fill="white" fill-opacity="0.2" /><rect x="5236" y="121.5" width="188" height="1" fill="white" fill-opacity="0.2" /><rect x="5236" y="67.5" width="188" height="1" fill="white" fill-opacity="0.2" /><rect x="5236" y="13.0" width="188" height="1" fill="white" fill-opacity="0.5" /><text x="5434" y="13.0" font-size="14" fill="white" font-family="monospace" dominant-baseline="initial">93</text><rect x="5236" y="663.9000000000015" width="188" height="1" fill="aqua" fill-opacity="0.75" /><text x="5236" y="659.9000000000015" font-size="14" fill="aqua" fill-opacity="0.75" font-family="monospace">Special</text><rect x="5474" y="239.5" width="188" height="642.0" fill="black" /><rect x="5474" y="880.5" width="188" height="1" fill="white" fill-opacity="0.5" /><text x="5672" y="880.5" font-size="14" fill="white" font-family="monospace" dominant-baseline="initial">93</text><rect x="5474" y="826.5" width="188" height="1" fill="white" fill-opacity="0.2" /><rect x="5474" y="772.5" width="188" height="1" fill="white" fill-opacity="0.2" /><rect x="5474" y="718.0" width="188" height="1" fill="white" fill-opacity="0.2" /><rect x="5474" y="664.0" width="188" height="1" fill="white" fill-opacity="0.5" /><text x="5672" y="664.0" font-size="14" fill="white" font-family="monospace" dominant-baseline="initial">94</text><rect x="5474" y="609.5" width="188" height="1" fill="white" fill-opacity="0.2" /><rect x="5474" y="555.5" width="188" height="1" fill="white" fill-opacity="0.2" /><rect x="5474" y="501.0" width="188" height="1" fill="white" fill-opacity="0.2" /><rect x="5474" y="447.0" width="188" height="1" fill="white" fill-opacity="0.5" /><text x="5672" y="447.0" font-size="14" fill="white" font-family="monospace" dominant-baseline="initial">95</text></svg>