<?xml version="1.0" encoding="UTF-8"?><svg xmlns="http://www.w3.org/2000/svg" xmlns:xlink="http://www.w3.org/1999/xlink"     width="2394" height="861.5" viewBox="0 0 2394 861.5"><defs></defs><rect x="127.0" y="159.0" width="12.0" height="3" fill="#35df39" stroke="#03aa10" /><rect x="114.0" y="212.0" width="12.0" height="3" fill="#ff3c3c" stroke="#c71f1f" /><rect x="114.0" y="225.0" width="12.0" height="3" fill="#ff3c3c" stroke="#c71f1f" /><rect x="140.0" y="251.5" width="12.0" height="3" fill="#80c9ff" stroke="#0b6cba" /><rect x="140.0" y="291.0" width="12.0" height="3" fill="#80c9ff" stroke="#0b6cba" /><rect x="127.0" y="317.5" width="12.0" height="3" fill="#35df39" stroke="#03aa10" /><rect x="127.0" y="331.0" width="12.0" height="3" fill="#35df39" stroke="#03aa10" /><rect x="114.0" y="357.5" width="12.0" height="3" fill="#ff3c3c" stroke="#c71f1f" /><rect x="114.0" y="397.0" width="12.0" height="3" fill="#ff3c3c" stroke="#c71f1f" /><rect x="114.0" y="423.5" width="12.0" height="3" fill="#ff3c3c" stroke="#c71f1f" /><rect x="114.0" y="437.0" width="12.0" height="3" fill="#ff3c3c" stroke="#c71f1f" /><rect x="140.0" y="463.5" width="12.0" height="3" fill="#80c9ff" stroke="#0b6cba" /><rect x="140.0" y="503.0" width="12.0" height="3" fill="#80c9ff" stroke="#0b6cba" /><rect x="153.0" y="529.5" width="12.0" height="3" fill="#fff874" stroke="#eb9c26" /><rect x="140.0" y="569.0" width="12.0" height="3" fill="#80c9ff" stroke="#0b6cba" /><rect x="127.0" y="609.0" width="12.0" height="3" fill="#35df39" stroke="#03aa10" /><rect x="114.0" y="635.5" width="12.0" height="3" fill="#ff3c3c" stroke="#c71f1f" /><rect x="114.0" y="648.5" width="12.0" height="3" fill="#ff3c3c" stroke="#c71f1f" /><rect x="140.0" y="675.0" width="12.0" height="3" fill="#80c9ff" stroke="#0b6cba" /><rect x="140.0" y="715.0" width="12.0" height="3" fill="#80c9ff" stroke="#0b6cba" /><rect x="127.0" y="741.0" width="12.0" height="3" fill="#35df39" stroke="#03aa10" /><rect x="127.0" y="754.5" width="12.0" height="3" fill="#35df39" stroke="#03aa10" /><rect x="114.0" y="781.0" width="12.0" height="3" fill="#ff3c3c" stroke="#c71f1f" /><rect x="114.0" y="820.5" width="12.0" height="3" fill="#ff3c3c" stroke="#c71f1f" /><rect x="228.0" y="0.0" width="12.0" height="3" fill="#ff3c3c" stroke="#c71f1f" /><rect x="228.0" y="13.5" width="12.0" height="3" fill="#ff3c3c" stroke="#c71f1f" /><rect x="254.0" y="40.0" width="12.0" height="3" fill="#80c9ff" stroke="#0b6cba" /><rect x="254.0" y="79.5" width="12.0" height="3" fill="#80c9ff" stroke="#0b6cba" /><rect x="267.0" y="106.0" width="12.0" height="3" fill="#fff874" stroke="#eb9c26" /><rect x="254.0" y="145.5" width="12.0" height="3" fill="#80c9ff" stroke="#0b6cba" /><rect x="241.0" y="212.0" width="12.0" height="3" fill="#35df39" stroke="#03aa10" /><rect x="241.0" y="225.0" width="12.0" height="3" fill="#35df39" stroke="#03aa10" /><rect x="267.0" y="251.5" width="12.0" height="3" fill="#fff874" stroke="#eb9c26" /><rect x="267.0" y="291.5" width="12.0" height="3" fill="#fff874" stroke="#eb9c26" /><rect x="254.0" y="318.0" width="12.0" height="3" fill="#80c9ff" stroke="#0b6cba" /><rect x="254.0" y="331.0" width="12.0" height="3" fill="#80c9ff" stroke="#0b6cba" /><rect x="241.0" y="357.5" width="12.0" height="3" fill="#35df39" stroke="#03aa10" /><rect x="241.0" y="397.0" width="12.0" height="3" fill="#35df39" stroke="#03aa10" /><rect x="241.0" y="423.5" width="12.0" height="3" fill="#35df39" stroke="#03aa10" /><rect x="241.0" y="437.0" width="12.0" height="3" fill="#35df39" stroke="#03aa10" /><rect x="267.0" y="463.5" width="12.0" height="3" fill="#fff874" stroke="#eb9c26" /><rect x="267.0" y="503.0" width="12.0" height="3" fill="#fff874" stroke="#eb9c26" /><rect x="280.0" y="529.5" width="12.0" height="3" fill="#ff83f4" stroke="#d002bc" /><rect x="267.0" y="569.0" width="12.0" height="3" fill="#fff874" stroke="#eb9c26" /><rect x="254.0" y="609.0" width="12.0" height="3" fill="#80c9ff" stroke="#0b6cba" /><rect x="241.0" y="635.5" width="12.0" height="3" fill="#35df39" stroke="#03aa10" /><rect x="241.0" y="648.5" width="12.0" height="3" fill="#35df39" stroke="#03aa10" /><rect x="267.0" y="675.0" width="12.0" height="3" fill="#fff874" stroke="#eb9c26" /><rect x="267.0" y="715.0" width="12.0" height="3" fill="#fff874" stroke="#eb9c26" /><rect x="254.0" y="741.5" width="12.0" height="3" fill="#80c9ff" stroke="#0b6cba" /><rect x="254.0" y="754.5" width="12.0" height="3" fill="#80c9ff" stroke="#0b6cba" /><rect x="241.0" y="781.0" width="12.0" height="3" fill="#35df39" stroke="#03aa10" /><rect x="241.0" y="820.5" width="12.0" height="3" fill="#35df39" stroke="#03aa10" /><rect x="355.0" y="0.0" width="12.0" height="3" fill="#35df39" stroke="#03aa10" /><rect x="355.0" y="13.5" width="12.0" height="3" fill="#35df39" stroke="#03aa10" /><rect x="381.0" y="40.0" width="12.0" height="3" fill="#fff874" stroke="#eb9c26" /><rect x="381.0" y="79.5" width="12.0" height="3" fill="#fff874" stroke="#eb9c26" /><rect x="394.0" y="106.0" width="12.0" height="3" fill="#ff83f4" stroke="#d002bc" /><rect x="381.0" y="146.0" width="12.0" height="3" fill="#fff874" stroke="#eb9c26" /><rect x="355.0" y="212.0" width="12.0" height="3" fill="#35df39" stroke="#03aa10" /><rect x="355.0" y="238.5" width="12.0" height="3" fill="#35df39" stroke="#03aa10" /><rect x="355.0" y="251.5" width="12.0" height="3" fill="#35df39" stroke="#03aa10" /><rect x="355.0" y="291.5" width="12.0" height="3" fill="#35df39" stroke="#03aa10" /><rect x="355.0" y="318.0" width="12.0" height="3" fill="#35df39" stroke="#03aa10" /><rect x="368.0" y="344.5" width="12.0" height="3" fill="#80c9ff" stroke="#0b6cba" /><rect x="355.0" y="423.5" width="12.0" height="3" fill="#35df39" stroke="#03aa10" /><rect x="355.0" y="437.0" width="12.0" height="3" fill="#35df39" stroke="#03aa10" /><rect x="355.0" y="463.5" width="12.0" height="3" fill="#35df39" stroke="#03aa10" /><rect x="355.0" y="490.0" width="12.0" height="3" fill="#35df39" stroke="#03aa10" /><rect x="355.0" y="516.5" width="12.0" height="3" fill="#35df39" stroke="#03aa10" /><rect x="381.0" y="543.0" width="12.0" height="3" fill="#fff874" stroke="#eb9c26" /><rect x="355.0" y="635.5" width="12.0" height="3" fill="#35df39" stroke="#03aa10" /><rect x="355.0" y="662.0" width="12.0" height="3" fill="#35df39" stroke="#03aa10" /><rect x="355.0" y="675.0" width="12.0" height="3" fill="#35df39" stroke="#03aa10" /><rect x="355.0" y="715.0" width="12.0" height="3" fill="#35df39" stroke="#03aa10" /><rect x="355.0" y="741.5" width="12.0" height="3" fill="#35df39" stroke="#03aa10" /><rect x="368.0" y="768.0" width="12.0" height="3" fill="#80c9ff" stroke="#0b6cba" /><rect x="469.0" y="0.0" width="12.0" height="3" fill="#35df39" stroke="#03aa10" /><rect x="469.0" y="13.5" width="12.0" height="3" fill="#35df39" stroke="#03aa10" /><rect x="469.0" y="40.0" width="12.0" height="3" fill="#35df39" stroke="#03aa10" /><rect x="469.0" y="66.5" width="12.0" height="3" fill="#35df39" stroke="#03aa10" /><rect x="469.0" y="93.0" width="12.0" height="3" fill="#35df39" stroke="#03aa10" /><rect x="495.0" y="119.5" width="12.0" height="3" fill="#fff874" stroke="#eb9c26" /><rect x="482.0" y="212.0" width="12.0" height="3" fill="#80c9ff" stroke="#0b6cba" /><rect x="482.0" y="238.5" width="12.0" height="3" fill="#80c9ff" stroke="#0b6cba" /><rect x="482.0" y="251.5" width="12.0" height="3" fill="#80c9ff" stroke="#0b6cba" /><rect x="482.0" y="291.5" width="12.0" height="3" fill="#80c9ff" stroke="#0b6cba" /><rect x="482.0" y="318.0" width="12.0" height="3" fill="#80c9ff" stroke="#0b6cba" /><rect x="495.0" y="344.5" width="12.0" height="3" fill="#fff874" stroke="#eb9c26" /><rect x="482.0" y="424.0" width="12.0" height="3" fill="#80c9ff" stroke="#0b6cba" /><rect x="482.0" y="437.0" width="12.0" height="3" fill="#80c9ff" stroke="#0b6cba" /><rect x="482.0" y="463.5" width="12.0" height="3" fill="#80c9ff" stroke="#0b6cba" /><rect x="482.0" y="490.0" width="12.0" height="3" fill="#80c9ff" stroke="#0b6cba" /><rect x="482.0" y="516.5" width="12.0" height="3" fill="#80c9ff" stroke="#0b6cba" /><rect x="508.0" y="543.0" width="12.0" height="3" fill="#ff83f4" stroke="#d002bc" /><rect x="482.0" y="635.5" width="12.0" height="3" fill="#80c9ff" stroke="#0b6cba" /><rect x="482.0" y="662.0" width="12.0" height="3" fill="#80c9ff" stroke="#0b6cba" /><rect x="482.0" y="675.0" width="12.0" height="3" fill="#80c9ff" stroke="#0b6cba" /><rect x="482.0" y="715.0" width="12.0" height="3" fill="#80c9ff" stroke="#0b6cba" /><rect x="482.0" y="741.5" width="12.0" height="3" fill="#80c9ff" stroke="#0b6cba" /><rect x="495.0" y="768.0" width="12.0" height="3" fill="#fff874" stroke="#eb9c26" /><rect x="596.0" y="0.0" width="12.0" height="3" fill="#80c9ff" stroke="#0b6cba" /><rect x="596.0" y="13.0" width="12.0" height="3" fill="#80c9ff" stroke="#0b6cba" /><rect x="596.0" y="39.5" width="12.0" height="3" fill="#80c9ff" stroke="#0b6cba" /><rect x="596.0" y="66.0" width="12.0" height="3" fill="#80c9ff" stroke="#0b6cba" /><rect x="596.0" y="92.5" width="12.0" height="3" fill="#80c9ff" stroke="#0b6cba" /><rect x="622.0" y="119.0" width="12.0" height="3" fill="#ff83f4" stroke="#d002bc" /><rect x="570.0" y="211.5" width="12.0" height="95.4" fill="#ff3c3c" stroke="#c71f1f" /><rect x="583.0" y="317.5" width="12.0" height="95.4" fill="#35df39" stroke="#03aa10" /><rect x="596.0" y="423.5" width="12.0" height="142.65" fill="#80c9ff" stroke="#0b6cba" /><rect x="583.0" y="582.0" width="12.0" height="3" fill="#35df39" stroke="#03aa10" /><rect x="570.0" y="635.0" width="12.0" height="95.4" fill="#ff3c3c" stroke="#c71f1f" /><rect x="583.0" y="741.0" width="12.0" height="106.0" fill="#35df39" stroke="#03aa10" /><rect x="710.0" y="0.0" width="12.0" height="142.65" fill="#80c9ff" stroke="#0b6cba" /><rect x="710.0" y="158.5" width="12.0" height="3" fill="#80c9ff" stroke="#0b6cba" /><rect x="697.0" y="211.5" width="12.0" height="95.4" fill="#35df39" stroke="#03aa10" /><rect x="684.0" y="317.5" width="12.0" height="95.4" fill="#ff3c3c" stroke="#c71f1f" /><rect x="710.0" y="423.5" width="12.0" height="95.4" fill="#80c9ff" stroke="#0b6cba" /><rect x="710.0" y="529.5" width="12.0" height="3" fill="#80c9ff" stroke="#0b6cba" /><rect x="697.0" y="582.0" width="12.0" height="3" fill="#35df39" stroke="#03aa10" /><rect x="697.0" y="635.0" width="12.0" height="95.4" fill="#35df39" stroke="#03aa10" /><rect x="684.0" y="741.0" width="12.0" height="106.0" fill="#ff3c3c" stroke="#c71f1f" /><rect x="824.0" y="0.0" width="12.0" height="95.4" fill="#80c9ff" stroke="#0b6cba" /><rect x="824.0" y="106.0" width="12.0" height="3" fill="#80c9ff" stroke="#0b6cba" /><rect x="811.0" y="158.5" width="12.0" height="3" fill="#35df39" stroke="#03aa10" /><rect x="811.0" y="211.5" width="12.0" height="3" fill="#35df39" stroke="#03aa10" /><rect x="798.0" y="238.0" width="12.0" height="3" fill="#ff3c3c" stroke="#c71f1f" /><rect x="798.0" y="264.5" width="12.0" height="3" fill="#ff3c3c" stroke="#c71f1f" /><rect x="811.0" y="291.0" width="12.0" height="3" fill="#35df39" stroke="#03aa10" /><rect x="798.0" y="317.5" width="12.0" height="3" fill="#ff3c3c" stroke="#c71f1f" /><rect x="811.0" y="344.0" width="12.0" height="3" fill="#35df39" stroke="#03aa10" /><rect x="824.0" y="410.0" width="12.0" height="95.4" fill="#80c9ff" stroke="#0b6cba" /><rect x="837.0" y="516.0" width="12.0" height="107.10000000000001" fill="#fff874" stroke="#eb9c26" /><rect x="811.0" y="635.0" width="12.0" height="3" fill="#35df39" stroke="#03aa10" /><rect x="798.0" y="661.5" width="12.0" height="3" fill="#ff3c3c" stroke="#c71f1f" /><rect x="798.0" y="688.0" width="12.0" height="3" fill="#ff3c3c" stroke="#c71f1f" /><rect x="811.0" y="714.5" width="12.0" height="3" fill="#35df39" stroke="#03aa10" /><rect x="798.0" y="741.0" width="12.0" height="3" fill="#ff3c3c" stroke="#c71f1f" /><rect x="811.0" y="767.5" width="12.0" height="3" fill="#35df39" stroke="#03aa10" /><rect x="824.0" y="833.5" width="12.0" height="13.5" fill="#80c9ff" stroke="#0b6cba" /><rect x="951.0" y="92.5" width="12.0" height="107.10000000000001" fill="#fff874" stroke="#eb9c26" /><rect x="938.0" y="211.5" width="12.0" height="3" fill="#80c9ff" stroke="#0b6cba" /><rect x="925.0" y="238.0" width="12.0" height="3" fill="#35df39" stroke="#03aa10" /><rect x="925.0" y="264.5" width="12.0" height="3" fill="#35df39" stroke="#03aa10" /><rect x="938.0" y="291.0" width="12.0" height="3" fill="#80c9ff" stroke="#0b6cba" /><rect x="925.0" y="317.5" width="12.0" height="3" fill="#35df39" stroke="#03aa10" /><rect x="925.0" y="344.0" width="12.0" height="3" fill="#35df39" stroke="#03aa10" /><rect x="938.0" y="370.5" width="12.0" height="3" fill="#80c9ff" stroke="#0b6cba" /><rect x="938.0" y="410.5" width="12.0" height="94.95" fill="#80c9ff" stroke="#0b6cba" /><rect x="951.0" y="516.0" width="12.0" height="107.55" fill="#fff874" stroke="#eb9c26" /><rect x="938.0" y="635.5" width="12.0" height="3" fill="#80c9ff" stroke="#0b6cba" /><rect x="925.0" y="661.5" width="12.0" height="3" fill="#35df39" stroke="#03aa10" /><rect x="925.0" y="688.0" width="12.0" height="3" fill="#35df39" stroke="#03aa10" /><rect x="938.0" y="714.5" width="12.0" height="3" fill="#80c9ff" stroke="#0b6cba" /><rect x="925.0" y="741.0" width="12.0" height="3" fill="#35df39" stroke="#03aa10" /><rect x="925.0" y="767.5" width="12.0" height="3" fill="#35df39" stroke="#03aa10" /><rect x="938.0" y="794.0" width="12.0" height="3" fill="#80c9ff" stroke="#0b6cba" /><rect x="938.0" y="0.0" width="12.0" height="72.64740566037736" fill="#80c9ff" stroke="#0b6cba" /><rect x="1026.0" y="0.0" width="12.0" height="3" fill="#ff3c3c" stroke="#c71f1f" /><rect x="1039.0" y="26.5" width="12.0" height="3" fill="#35df39" stroke="#03aa10" /><rect x="1052.0" y="53.0" width="12.0" height="3" fill="#80c9ff" stroke="#0b6cba" /><rect x="1065.0" y="106.0" width="12.0" height="3" fill="#fff874" stroke="#eb9c26" /><rect x="1039.0" y="198.5" width="12.0" height="3" fill="#35df39" stroke="#03aa10" /><rect x="1039.0" y="264.5" width="12.0" height="3" fill="#35df39" stroke="#03aa10" /><rect x="1039.0" y="291.0" width="12.0" height="3" fill="#35df39" stroke="#03aa10" /><rect x="1052.0" y="317.5" width="12.0" height="3" fill="#80c9ff" stroke="#0b6cba" /><rect x="1052.0" y="344.0" width="12.0" height="3" fill="#80c9ff" stroke="#0b6cba" /><rect x="1026.0" y="370.5" width="12.0" height="3" fill="#ff3c3c" stroke="#c71f1f" /><rect x="1026.0" y="397.0" width="12.0" height="3" fill="#ff3c3c" stroke="#c71f1f" /><rect x="1052.0" y="423.5" width="12.0" height="3" fill="#80c9ff" stroke="#0b6cba" /><rect x="1052.0" y="450.0" width="12.0" height="3" fill="#80c9ff" stroke="#0b6cba" /><rect x="1039.0" y="476.5" width="12.0" height="3" fill="#35df39" stroke="#03aa10" /><rect x="1039.0" y="503.0" width="12.0" height="3" fill="#35df39" stroke="#03aa10" /><rect x="1039.0" y="516.0" width="12.0" height="3" fill="#35df39" stroke="#03aa10" /><rect x="1052.0" y="582.5" width="12.0" height="3" fill="#80c9ff" stroke="#0b6cba" /><rect x="1052.0" y="609.0" width="12.0" height="3" fill="#80c9ff" stroke="#0b6cba" /><rect x="1065.0" y="635.5" width="12.0" height="3" fill="#fff874" stroke="#eb9c26" /><rect x="1065.0" y="662.0" width="12.0" height="3" fill="#fff874" stroke="#eb9c26" /><rect x="1052.0" y="688.5" width="12.0" height="3" fill="#80c9ff" stroke="#0b6cba" /><rect x="1065.0" y="714.5" width="12.0" height="3" fill="#fff874" stroke="#eb9c26" /><rect x="1065.0" y="728.0" width="12.0" height="3" fill="#fff874" stroke="#eb9c26" /><rect x="1052.0" y="807.5" width="12.0" height="3" fill="#80c9ff" stroke="#0b6cba" /><rect x="1052.0" y="834.0" width="12.0" height="3" fill="#80c9ff" stroke="#0b6cba" /><rect x="1153.0" y="79.5" width="12.0" height="3" fill="#35df39" stroke="#03aa10" /><rect x="1140.0" y="106.0" width="12.0" height="3" fill="#ff3c3c" stroke="#c71f1f" /><rect x="1140.0" y="132.5" width="12.0" height="3" fill="#ff3c3c" stroke="#c71f1f" /><rect x="1166.0" y="159.0" width="12.0" height="3" fill="#80c9ff" stroke="#0b6cba" /><rect x="1166.0" y="185.5" width="12.0" height="3" fill="#80c9ff" stroke="#0b6cba" /><rect x="1153.0" y="212.0" width="12.0" height="3" fill="#35df39" stroke="#03aa10" /><rect x="1153.0" y="238.5" width="12.0" height="3" fill="#35df39" stroke="#03aa10" /><rect x="1179.0" y="265.0" width="12.0" height="3" fill="#fff874" stroke="#eb9c26" /><rect x="1179.0" y="291.5" width="12.0" height="3" fill="#fff874" stroke="#eb9c26" /><rect x="1166.0" y="317.5" width="12.0" height="3" fill="#80c9ff" stroke="#0b6cba" /><rect x="1166.0" y="344.0" width="12.0" height="3" fill="#80c9ff" stroke="#0b6cba" /><rect x="1153.0" y="370.5" width="12.0" height="3" fill="#35df39" stroke="#03aa10" /><rect x="1140.0" y="397.0" width="12.0" height="3" fill="#ff3c3c" stroke="#c71f1f" /><rect x="1153.0" y="423.5" width="12.0" height="3" fill="#35df39" stroke="#03aa10" /><rect x="1140.0" y="503.0" width="12.0" height="3" fill="#ff3c3c" stroke="#c71f1f" /><rect x="1166.0" y="529.5" width="12.0" height="3" fill="#80c9ff" stroke="#0b6cba" /><rect x="1153.0" y="556.0" width="12.0" height="3" fill="#35df39" stroke="#03aa10" /><rect x="1153.0" y="609.0" width="12.0" height="3" fill="#35df39" stroke="#03aa10" /><rect x="1166.0" y="635.5" width="12.0" height="3" fill="#80c9ff" stroke="#0b6cba" /><rect x="1179.0" y="662.0" width="12.0" height="3" fill="#fff874" stroke="#eb9c26" /><rect x="1179.0" y="675.0" width="12.0" height="3" fill="#fff874" stroke="#eb9c26" /><rect x="1179.0" y="781.0" width="12.0" height="3" fill="#fff874" stroke="#eb9c26" /><rect x="1166.0" y="807.5" width="12.0" height="3" fill="#80c9ff" stroke="#0b6cba" /><rect x="1192.0" y="834.0" width="12.0" height="13.0" fill="#ff83f4" stroke="#d002bc" /><rect x="1280.0" y="132.5" width="12.0" height="3" fill="#80c9ff" stroke="#0b6cba" /><rect x="1267.0" y="212.0" width="12.0" height="3" fill="#35df39" stroke="#03aa10" /><rect x="1267.0" y="238.5" width="12.0" height="3" fill="#35df39" stroke="#03aa10" /><rect x="1254.0" y="265.0" width="12.0" height="3" fill="#ff3c3c" stroke="#c71f1f" /><rect x="1254.0" y="291.5" width="12.0" height="3" fill="#ff3c3c" stroke="#c71f1f" /><rect x="1280.0" y="318.0" width="12.0" height="3" fill="#80c9ff" stroke="#0b6cba" /><rect x="1280.0" y="344.5" width="12.0" height="3" fill="#80c9ff" stroke="#0b6cba" /><rect x="1254.0" y="370.5" width="12.0" height="3" fill="#ff3c3c" stroke="#c71f1f" /><rect x="1254.0" y="397.0" width="12.0" height="3" fill="#ff3c3c" stroke="#c71f1f" /><rect x="1280.0" y="423.5" width="12.0" height="3" fill="#80c9ff" stroke="#0b6cba" /><rect x="1280.0" y="450.0" width="12.0" height="3" fill="#80c9ff" stroke="#0b6cba" /><rect x="1267.0" y="476.5" width="12.0" height="3" fill="#35df39" stroke="#03aa10" /><rect x="1293.0" y="516.5" width="12.0" height="94.95" fill="#fff874" stroke="#eb9c26" /><rect x="1267.0" y="635.5" width="12.0" height="3" fill="#35df39" stroke="#03aa10" /><rect x="1267.0" y="662.0" width="12.0" height="3" fill="#35df39" stroke="#03aa10" /><rect x="1254.0" y="688.5" width="12.0" height="3" fill="#ff3c3c" stroke="#c71f1f" /><rect x="1254.0" y="715.0" width="12.0" height="3" fill="#ff3c3c" stroke="#c71f1f" /><rect x="1280.0" y="741.5" width="12.0" height="3" fill="#80c9ff" stroke="#0b6cba" /><rect x="1280.0" y="768.0" width="12.0" height="3" fill="#80c9ff" stroke="#0b6cba" /><rect x="1254.0" y="794.5" width="12.0" height="3" fill="#ff3c3c" stroke="#c71f1f" /><rect x="1254.0" y="820.5" width="12.0" height="3" fill="#ff3c3c" stroke="#c71f1f" /><rect x="1306.0" y="0.0" width="12.0" height="108.59536082474226" fill="#ff83f4" stroke="#d002bc" /><rect x="1394.0" y="0.0" width="12.0" height="3" fill="#80c9ff" stroke="#0b6cba" /><rect x="1394.0" y="26.5" width="12.0" height="3" fill="#80c9ff" stroke="#0b6cba" /><rect x="1381.0" y="53.0" width="12.0" height="3" fill="#35df39" stroke="#03aa10" /><rect x="1407.0" y="93.0" width="12.0" height="94.95" fill="#fff874" stroke="#eb9c26" /><rect x="1394.0" y="212.0" width="12.0" height="3" fill="#80c9ff" stroke="#0b6cba" /><rect x="1394.0" y="238.5" width="12.0" height="3" fill="#80c9ff" stroke="#0b6cba" /><rect x="1381.0" y="265.0" width="12.0" height="3" fill="#35df39" stroke="#03aa10" /><rect x="1394.0" y="304.5" width="12.0" height="95.4" fill="#80c9ff" stroke="#0b6cba" /><rect x="1407.0" y="423.5" width="12.0" height="3" fill="#fff874" stroke="#eb9c26" /><rect x="1407.0" y="450.0" width="12.0" height="3" fill="#fff874" stroke="#eb9c26" /><rect x="1394.0" y="476.5" width="12.0" height="3" fill="#80c9ff" stroke="#0b6cba" /><rect x="1407.0" y="516.5" width="12.0" height="95.4" fill="#fff874" stroke="#eb9c26" /><rect x="1394.0" y="635.5" width="12.0" height="3" fill="#80c9ff" stroke="#0b6cba" /><rect x="1394.0" y="662.0" width="12.0" height="3" fill="#80c9ff" stroke="#0b6cba" /><rect x="1381.0" y="688.5" width="12.0" height="3" fill="#35df39" stroke="#03aa10" /><rect x="1394.0" y="728.0" width="12.0" height="95.4" fill="#80c9ff" stroke="#0b6cba" /><rect x="1521.0" y="0.0" width="12.0" height="3" fill="#fff874" stroke="#eb9c26" /><rect x="1521.0" y="26.0" width="12.0" height="3" fill="#fff874" stroke="#eb9c26" /><rect x="1508.0" y="52.5" width="12.0" height="3" fill="#80c9ff" stroke="#0b6cba" /><rect x="1521.0" y="92.5" width="12.0" height="107.10000000000001" fill="#fff874" stroke="#eb9c26" /><rect x="1482.0" y="211.5" width="12.0" height="3" fill="#ff3c3c" stroke="#c71f1f" /><rect x="1482.0" y="225.0" width="12.0" height="3" fill="#ff3c3c" stroke="#c71f1f" /><rect x="1508.0" y="251.0" width="12.0" height="3" fill="#80c9ff" stroke="#0b6cba" /><rect x="1508.0" y="291.0" width="12.0" height="3" fill="#80c9ff" stroke="#0b6cba" /><rect x="1495.0" y="317.5" width="12.0" height="3" fill="#35df39" stroke="#03aa10" /><rect x="1495.0" y="330.5" width="12.0" height="3" fill="#35df39" stroke="#03aa10" /><rect x="1482.0" y="357.0" width="12.0" height="3" fill="#ff3c3c" stroke="#c71f1f" /><rect x="1482.0" y="397.0" width="12.0" height="3" fill="#ff3c3c" stroke="#c71f1f" /><rect x="1482.0" y="423.5" width="12.0" height="3" fill="#ff3c3c" stroke="#c71f1f" /><rect x="1482.0" y="436.5" width="12.0" height="3" fill="#ff3c3c" stroke="#c71f1f" /><rect x="1508.0" y="463.0" width="12.0" height="3" fill="#80c9ff" stroke="#0b6cba" /><rect x="1508.0" y="502.5" width="12.0" height="3" fill="#80c9ff" stroke="#0b6cba" /><rect x="1521.0" y="529.0" width="12.0" height="3" fill="#fff874" stroke="#eb9c26" /><rect x="1508.0" y="569.0" width="12.0" height="3" fill="#80c9ff" stroke="#0b6cba" /><rect x="1495.0" y="608.5" width="12.0" height="3" fill="#35df39" stroke="#03aa10" /><rect x="1482.0" y="635.0" width="12.0" height="3" fill="#ff3c3c" stroke="#c71f1f" /><rect x="1482.0" y="648.5" width="12.0" height="3" fill="#ff3c3c" stroke="#c71f1f" /><rect x="1508.0" y="675.0" width="12.0" height="3" fill="#80c9ff" stroke="#0b6cba" /><rect x="1508.0" y="714.5" width="12.0" height="3" fill="#80c9ff" stroke="#0b6cba" /><rect x="1495.0" y="741.0" width="12.0" height="3" fill="#35df39" stroke="#03aa10" /><rect x="1495.0" y="754.0" width="12.0" height="3" fill="#35df39" stroke="#03aa10" /><rect x="1482.0" y="780.5" width="12.0" height="3" fill="#ff3c3c" stroke="#c71f1f" /><rect x="1482.0" y="820.5" width="12.0" height="3" fill="#ff3c3c" stroke="#c71f1f" /><rect x="1596.0" y="0.0" width="12.0" height="3" fill="#ff3c3c" stroke="#c71f1f" /><rect x="1596.0" y="13.0" width="12.0" height="3" fill="#ff3c3c" stroke="#c71f1f" /><rect x="1622.0" y="39.5" width="12.0" height="3" fill="#80c9ff" stroke="#0b6cba" /><rect x="1622.0" y="79.0" width="12.0" height="3" fill="#80c9ff" stroke="#0b6cba" /><rect x="1635.0" y="105.5" width="12.0" height="3" fill="#fff874" stroke="#eb9c26" /><rect x="1622.0" y="145.5" width="12.0" height="3" fill="#80c9ff" stroke="#0b6cba" /><rect x="1622.0" y="211.5" width="12.0" height="3" fill="#80c9ff" stroke="#0b6cba" /><rect x="1622.0" y="225.0" width="12.0" height="3" fill="#80c9ff" stroke="#0b6cba" /><rect x="1622.0" y="238.0" width="12.0" height="3" fill="#80c9ff" stroke="#0b6cba" /><rect x="1648.0" y="264.5" width="12.0" height="3" fill="#ff83f4" stroke="#d002bc" /><rect x="1648.0" y="278.0" width="12.0" height="3" fill="#ff83f4" stroke="#d002bc" /><rect x="1648.0" y="291.0" width="12.0" height="3" fill="#ff83f4" stroke="#d002bc" /><rect x="1622.0" y="317.5" width="12.0" height="3" fill="#80c9ff" stroke="#0b6cba" /><rect x="1622.0" y="330.5" width="12.0" height="3" fill="#80c9ff" stroke="#0b6cba" /><rect x="1622.0" y="344.0" width="12.0" height="3" fill="#80c9ff" stroke="#0b6cba" /><rect x="1635.0" y="370.5" width="12.0" height="3" fill="#fff874" stroke="#eb9c26" /><rect x="1635.0" y="383.5" width="12.0" height="3" fill="#fff874" stroke="#eb9c26" /><rect x="1635.0" y="397.0" width="12.0" height="3" fill="#fff874" stroke="#eb9c26" /><rect x="1609.0" y="423.5" width="12.0" height="3" fill="#35df39" stroke="#03aa10" /><rect x="1609.0" y="436.5" width="12.0" height="3" fill="#35df39" stroke="#03aa10" /><rect x="1622.0" y="463.0" width="12.0" height="3" fill="#80c9ff" stroke="#0b6cba" /><rect x="1622.0" y="503.0" width="12.0" height="3" fill="#80c9ff" stroke="#0b6cba" /><rect x="1635.0" y="529.0" width="12.0" height="3" fill="#fff874" stroke="#eb9c26" /><rect x="1622.0" y="569.0" width="12.0" height="3" fill="#80c9ff" stroke="#0b6cba" /><rect x="1609.0" y="608.5" width="12.0" height="3" fill="#35df39" stroke="#03aa10" /><rect x="1622.0" y="635.0" width="12.0" height="3" fill="#80c9ff" stroke="#0b6cba" /><rect x="1622.0" y="648.5" width="12.0" height="3" fill="#80c9ff" stroke="#0b6cba" /><rect x="1622.0" y="661.5" width="12.0" height="3" fill="#80c9ff" stroke="#0b6cba" /><rect x="1596.0" y="688.0" width="12.0" height="3" fill="#ff3c3c" stroke="#c71f1f" /><rect x="1596.0" y="701.5" width="12.0" height="3" fill="#ff3c3c" stroke="#c71f1f" /><rect x="1596.0" y="714.5" width="12.0" height="3" fill="#ff3c3c" stroke="#c71f1f" /><rect x="1609.0" y="741.0" width="12.0" height="3" fill="#35df39" stroke="#03aa10" /><rect x="1609.0" y="754.0" width="12.0" height="3" fill="#35df39" stroke="#03aa10" /><rect x="1609.0" y="767.5" width="12.0" height="3" fill="#35df39" stroke="#03aa10" /><rect x="1635.0" y="794.0" width="12.0" height="3" fill="#fff874" stroke="#eb9c26" /><rect x="1635.0" y="807.0" width="12.0" height="3" fill="#fff874" stroke="#eb9c26" /><rect x="1635.0" y="820.5" width="12.0" height="3" fill="#fff874" stroke="#eb9c26" /><rect x="1723.0" y="0.0" width="12.0" height="3" fill="#35df39" stroke="#03aa10" /><rect x="1723.0" y="13.0" width="12.0" height="3" fill="#35df39" stroke="#03aa10" /><rect x="1736.0" y="39.5" width="12.0" height="3" fill="#80c9ff" stroke="#0b6cba" /><rect x="1736.0" y="79.5" width="12.0" height="3" fill="#80c9ff" stroke="#0b6cba" /><rect x="1749.0" y="106.0" width="12.0" height="3" fill="#fff874" stroke="#eb9c26" /><rect x="1736.0" y="145.5" width="12.0" height="3" fill="#80c9ff" stroke="#0b6cba" /><rect x="1723.0" y="185.0" width="12.0" height="3" fill="#35df39" stroke="#03aa10" /><rect x="1723.0" y="211.5" width="12.0" height="3" fill="#35df39" stroke="#03aa10" /><rect x="1723.0" y="238.0" width="12.0" height="3" fill="#35df39" stroke="#03aa10" /><rect x="1723.0" y="251.5" width="12.0" height="3" fill="#35df39" stroke="#03aa10" /><rect x="1723.0" y="291.0" width="12.0" height="3" fill="#35df39" stroke="#03aa10" /><rect x="1723.0" y="317.5" width="12.0" height="3" fill="#35df39" stroke="#03aa10" /><rect x="1736.0" y="344.0" width="12.0" height="3" fill="#80c9ff" stroke="#0b6cba" /><rect x="1723.0" y="423.5" width="12.0" height="3" fill="#35df39" stroke="#03aa10" /><rect x="1723.0" y="436.5" width="12.0" height="3" fill="#35df39" stroke="#03aa10" /><rect x="1723.0" y="463.0" width="12.0" height="3" fill="#35df39" stroke="#03aa10" /><rect x="1723.0" y="489.5" width="12.0" height="3" fill="#35df39" stroke="#03aa10" /><rect x="1723.0" y="516.0" width="12.0" height="3" fill="#35df39" stroke="#03aa10" /><rect x="1749.0" y="542.5" width="12.0" height="3" fill="#fff874" stroke="#eb9c26" /><rect x="1723.0" y="635.0" width="12.0" height="3" fill="#35df39" stroke="#03aa10" /><rect x="1723.0" y="661.5" width="12.0" height="3" fill="#35df39" stroke="#03aa10" /><rect x="1723.0" y="675.0" width="12.0" height="3" fill="#35df39" stroke="#03aa10" /><rect x="1723.0" y="714.5" width="12.0" height="3" fill="#35df39" stroke="#03aa10" /><rect x="1723.0" y="741.0" width="12.0" height="3" fill="#35df39" stroke="#03aa10" /><rect x="1736.0" y="767.5" width="12.0" height="3" fill="#80c9ff" stroke="#0b6cba" /><rect x="1837.0" y="0.0" width="12.0" height="3" fill="#35df39" stroke="#03aa10" /><rect x="1837.0" y="13.0" width="12.0" height="3" fill="#35df39" stroke="#03aa10" /><rect x="1837.0" y="39.5" width="12.0" height="3" fill="#35df39" stroke="#03aa10" /><rect x="1837.0" y="66.0" width="12.0" height="3" fill="#35df39" stroke="#03aa10" /><rect x="1837.0" y="92.5" width="12.0" height="3" fill="#35df39" stroke="#03aa10" /><rect x="1863.0" y="119.0" width="12.0" height="3" fill="#fff874" stroke="#eb9c26" /><rect x="1850.0" y="211.5" width="12.0" height="3" fill="#80c9ff" stroke="#0b6cba" /><rect x="1850.0" y="238.0" width="12.0" height="3" fill="#80c9ff" stroke="#0b6cba" /><rect x="1850.0" y="251.5" width="12.0" height="3" fill="#80c9ff" stroke="#0b6cba" /><rect x="1850.0" y="291.0" width="12.0" height="3" fill="#80c9ff" stroke="#0b6cba" /><rect x="1850.0" y="317.5" width="12.0" height="3" fill="#80c9ff" stroke="#0b6cba" /><rect x="1850.0" y="331.0" width="12.0" height="3" fill="#80c9ff" stroke="#0b6cba" /><rect x="1863.0" y="344.0" width="12.0" height="3" fill="#fff874" stroke="#eb9c26" /><rect x="1850.0" y="423.5" width="12.0" height="3" fill="#80c9ff" stroke="#0b6cba" /><rect x="1850.0" y="436.5" width="12.0" height="3" fill="#80c9ff" stroke="#0b6cba" /><rect x="1850.0" y="463.0" width="12.0" height="3" fill="#80c9ff" stroke="#0b6cba" /><rect x="1850.0" y="489.5" width="12.0" height="3" fill="#80c9ff" stroke="#0b6cba" /><rect x="1850.0" y="516.0" width="12.0" height="3" fill="#80c9ff" stroke="#0b6cba" /><rect x="1876.0" y="542.5" width="12.0" height="3" fill="#ff83f4" stroke="#d002bc" /><rect x="1850.0" y="635.0" width="12.0" height="3" fill="#80c9ff" stroke="#0b6cba" /><rect x="1850.0" y="661.5" width="12.0" height="3" fill="#80c9ff" stroke="#0b6cba" /><rect x="1850.0" y="675.0" width="12.0" height="3" fill="#80c9ff" stroke="#0b6cba" /><rect x="1850.0" y="714.5" width="12.0" height="3" fill="#80c9ff" stroke="#0b6cba" /><rect x="1850.0" y="741.0" width="12.0" height="3" fill="#80c9ff" stroke="#0b6cba" /><rect x="1863.0" y="767.5" width="12.0" height="3" fill="#fff874" stroke="#eb9c26" /><rect x="1964.0" y="0.0" width="12.0" height="3" fill="#80c9ff" stroke="#0b6cba" /><rect x="1964.0" y="13.0" width="12.0" height="3" fill="#80c9ff" stroke="#0b6cba" /><rect x="1964.0" y="39.5" width="12.0" height="3" fill="#80c9ff" stroke="#0b6cba" /><rect x="1964.0" y="66.0" width="12.0" height="3" fill="#80c9ff" stroke="#0b6cba" /><rect x="1964.0" y="92.5" width="12.0" height="3" fill="#80c9ff" stroke="#0b6cba" /><rect x="1990.0" y="119.0" width="12.0" height="3" fill="#ff83f4" stroke="#d002bc" /><rect x="1938.0" y="212.0" width="12.0" height="94.95" fill="#ff3c3c" stroke="#c71f1f" /><rect x="1951.0" y="317.5" width="12.0" height="95.4" fill="#35df39" stroke="#03aa10" /><rect x="1964.0" y="423.5" width="12.0" height="143.1" fill="#80c9ff" stroke="#0b6cba" /><rect x="1951.0" y="582.5" width="12.0" height="3" fill="#35df39" stroke="#03aa10" /><rect x="1938.0" y="635.5" width="12.0" height="94.95" fill="#ff3c3c" stroke="#c71f1f" /><rect x="1951.0" y="741.0" width="12.0" height="106.0" fill="#35df39" stroke="#03aa10" /><rect x="2078.0" y="0.0" width="12.0" height="143.1" fill="#80c9ff" stroke="#0b6cba" /><rect x="2078.0" y="159.0" width="12.0" height="3" fill="#80c9ff" stroke="#0b6cba" /><rect x="2065.0" y="212.0" width="12.0" height="94.95" fill="#35df39" stroke="#03aa10" /><rect x="2052.0" y="317.5" width="12.0" height="95.4" fill="#ff3c3c" stroke="#c71f1f" /><rect x="2078.0" y="423.5" width="12.0" height="95.4" fill="#80c9ff" stroke="#0b6cba" /><rect x="2078.0" y="529.5" width="12.0" height="3" fill="#80c9ff" stroke="#0b6cba" /><rect x="2065.0" y="582.5" width="12.0" height="3" fill="#35df39" stroke="#03aa10" /><rect x="2065.0" y="635.5" width="12.0" height="94.95" fill="#35df39" stroke="#03aa10" /><rect x="2052.0" y="741.0" width="12.0" height="106.0" fill="#ff3c3c" stroke="#c71f1f" /><rect x="2192.0" y="0.0" width="12.0" height="95.4" fill="#80c9ff" stroke="#0b6cba" /><rect x="2192.0" y="106.0" width="12.0" height="3" fill="#80c9ff" stroke="#0b6cba" /><rect x="2179.0" y="159.0" width="12.0" height="3" fill="#35df39" stroke="#03aa10" /><rect x="2166.0" y="423.5" width="12.0" height="3" fill="#ff3c3c" stroke="#c71f1f" /><rect x="2179.0" y="463.5" width="12.0" height="3" fill="#35df39" stroke="#03aa10" /><rect x="2179.0" y="490.0" width="12.0" height="3" fill="#35df39" stroke="#03aa10" /><rect x="2179.0" y="516.5" width="12.0" height="3" fill="#35df39" stroke="#03aa10" /><rect x="2192.0" y="543.0" width="12.0" height="3" fill="#80c9ff" stroke="#0b6cba" /><rect x="2192.0" y="556.0" width="12.0" height="3" fill="#80c9ff" stroke="#0b6cba" /><rect x="2205.0" y="582.5" width="12.0" height="3" fill="#fff874" stroke="#eb9c26" /><rect x="2192.0" y="635.5" width="12.0" height="3" fill="#80c9ff" stroke="#0b6cba" /><rect x="2192.0" y="648.5" width="12.0" height="3" fill="#80c9ff" stroke="#0b6cba" /><rect x="2192.0" y="662.0" width="12.0" height="3" fill="#80c9ff" stroke="#0b6cba" /><rect x="2218.0" y="688.5" width="12.0" height="3" fill="#ff83f4" stroke="#d002bc" /><rect x="2218.0" y="701.5" width="12.0" height="3" fill="#ff83f4" stroke="#d002bc" /><rect x="2218.0" y="715.0" width="12.0" height="3" fill="#ff83f4" stroke="#d002bc" /><rect x="2192.0" y="741.5" width="12.0" height="3" fill="#80c9ff" stroke="#0b6cba" /><rect x="2192.0" y="754.5" width="12.0" height="3" fill="#80c9ff" stroke="#0b6cba" /><rect x="2192.0" y="768.0" width="12.0" height="3" fill="#80c9ff" stroke="#0b6cba" /><rect x="2205.0" y="794.0" width="12.0" height="3" fill="#fff874" stroke="#eb9c26" /><rect x="2205.0" y="807.5" width="12.0" height="3" fill="#fff874" stroke="#eb9c26" /><rect x="2205.0" y="820.5" width="12.0" height="3" fill="#fff874" stroke="#eb9c26" /><rect x="2293.0" y="0.0" width="12.0" height="3" fill="#35df39" stroke="#03aa10" /><rect x="2293.0" y="13.5" width="12.0" height="3" fill="#35df39" stroke="#03aa10" /><rect x="2293.0" y="26.5" width="12.0" height="3" fill="#35df39" stroke="#03aa10" /></svg>