<?xml version="1.0" encoding="UTF-8"?><svg xmlns="http://www.w3.org/2000/svg" xmlns:xlink="http://www.w3.org/1999/xlink"     width="3570" height="1393.5" viewBox="0 0 3570 1393.5"><defs></defs><rect x="0" y="482.0" width="188" height="911.5" fill="black" /><rect x="0" y="1392.5" width="188" height="1" fill="white" fill-opacity="0.5" /><text x="198" y="1392.5" font-size="14" fill="white" font-family="monospace" dominant-baseline="initial">1</text><rect x="0" y="1335.5" width="188" height="1" fill="white" fill-opacity="0.2" /><rect x="0" y="1278.5" width="188" height="1" fill="white" fill-opacity="0.2" /><rect x="0" y="1221.5" width="188" height="1" fill="white" fill-opacity="0.2" /><rect x="0" y="1164.5" width="188" height="1" fill="white" fill-opacity="0.5" /><text x="198" y="1164.5" font-size="14" fill="white" font-family="monospace" dominant-baseline="initial">2</text><rect x="0" y="1107.5" width="188" height="1" fill="white" fill-opacity="0.2" /><rect x="0" y="1050.5" width="188" height="1" fill="white" fill-opacity="0.2" /><rect x="0" y="994.0" width="188" height="1" fill="white" fill-opacity="0.2" /><rect x="0" y="937.0" width="188" height="1" fill="white" fill-opacity="0.5" /><text x="198" y="937.0" font-size="14" fill="white" font-family="monospace" dominant-baseline="initial">3</text><rect x="0" y="880.0" width="188" height="1" fill="white" fill-opacity="0.2" /><rect x="0" y="823.0" width="188" height="1" fill="white" fill-opacity="0.2" /><rect x="0" y="766.0" width="188" height="1" fill="white" fill-opacity="0.2" /><rect x="0" y="709.0" width="188" height="1" fill="white" fill-opacity="0.5" /><text x="198" y="709.0" font-size="14" fill="white" font-family="monospace" dominant-baseline="initial">4</text><rect x="0" y="652.0" width="188" height="1" fill="white" fill-opacity="0.2" /><rect x="0" y="595.0" width="188" height="1" fill="white" fill-opacity="0.2" /><rect x="0" y="538.0" width="188" height="1" fill="white" fill-opacity="0.2" /><rect x="0" y="481.0" width="188" height="1" fill="white" fill-opacity="0.5" /><text x="198" y="481.0" font-size="14" fill="white" font-family="monospace" dominant-baseline="initial">5</text><rect x="0" y="1392.5" width="188" height="1" fill="aqua" fill-opacity="0.75" /><text x="0" y="1388.5" font-size="14" fill="aqua" fill-opacity="0.75" font-family="monospace">Intro</text><rect x="0" y="1392.5" width="188" height="1" fill="lime" fill-opacity="0.75" /><text x="198" y="1379.5" font-size="14" fill="lime" font-family="monospace" dominant-baseline="initial">158</text><rect x="238" y="482.0" width="188" height="911.5" fill="black" /><rect x="238" y="1392.5" width="188" height="1" fill="white" fill-opacity="0.5" /><text x="436" y="1392.5" font-size="14" fill="white" font-family="monospace" dominant-baseline="initial">5</text><rect x="238" y="1335.5" width="188" height="1" fill="white" fill-opacity="0.2" /><rect x="238" y="1278.5" width="188" height="1" fill="white" fill-opacity="0.2" /><rect x="238" y="1221.5" width="188" height="1" fill="white" fill-opacity="0.2" /><rect x="238" y="1165.0" width="188" height="1" fill="white" fill-opacity="0.5" /><text x="436" y="1165.0" font-size="14" fill="white" font-family="monospace" dominant-baseline="initial">6</text><rect x="238" y="1108.0" width="188" height="1" fill="white" fill-opacity="0.2" /><rect x="238" y="1051.0" width="188" height="1" fill="white" fill-opacity="0.2" /><rect x="238" y="994.0" width="188" height="1" fill="white" fill-opacity="0.2" /><rect x="238" y="937.0" width="188" height="1" fill="white" fill-opacity="0.5" /><text x="436" y="937.0" font-size="14" fill="white" font-family="monospace" dominant-baseline="initial">7</text><rect x="238" y="880.0" width="188" height="1" fill="white" fill-opacity="0.2" /><rect x="238" y="823.0" width="188" height="1" fill="white" fill-opacity="0.2" /><rect x="238" y="766.0" width="188" height="1" fill="white" fill-opacity="0.2" /><rect x="238" y="709.0" width="188" height="1" fill="white" fill-opacity="0.5" /><text x="436" y="709.0" font-size="14" fill="white" font-family="monospace" dominant-baseline="initial">8</text><rect x="238" y="652.0" width="188" height="1" fill="white" fill-opacity="0.2" /><rect x="238" y="595.0" width="188" height="1" fill="white" fill-opacity="0.2" /><rect x="238" y="538.0" width="188" height="1" fill="white" fill-opacity="0.2" /><rect x="238" y="481.0" width="188" height="1" fill="white" fill-opacity="0.5" /><text x="436" y="481.0" font-size="14" fill="white" font-family="monospace" dominant-baseline="initial">9</text><rect x="238" y="936.9000000000001" width="188" height="1" fill="aqua" fill-opacity="0.75" /><text x="238" y="932.9000000000001" font-size="14" fill="aqua" fill-opacity="0.75" font-family="monospace">Phrase A</text><rect x="476" y="482.5" width="188" height="911.0" fill="black" /><rect x="476" y="1392.5" width="188" height="1" fill="white" fill-opacity="0.5" /><text x="674" y="1392.5" font-size="14" fill="white" font-family="monospace" dominant-baseline="initial">9</text><rect x="476" y="1336.0" width="188" height="1" fill="white" fill-opacity="0.2" /><rect x="476" y="1279.0" width="188" height="1" fill="white" fill-opacity="0.2" /><rect x="476" y="1222.0" width="188" height="1" fill="white" fill-opacity="0.2" /><rect x="476" y="1165.0" width="188" height="1" fill="white" fill-opacity="0.5" /><text x="674" y="1165.0" font-size="14" fill="white" font-family="monospace" dominant-baseline="initial">10</text><rect x="476" y="1108.0" width="188" height="1" fill="white" fill-opacity="0.2" /><rect x="476" y="1051.0" width="188" height="1" fill="white" fill-opacity="0.2" /><rect x="476" y="994.0" width="188" height="1" fill="white" fill-opacity="0.2" /><rect x="476" y="937.0" width="188" height="1" fill="white" fill-opacity="0.5" /><text x="674" y="937.0" font-size="14" fill="white" font-family="monospace" dominant-baseline="initial">11</text><rect x="476" y="880.0" width="188" height="1" fill="white" fill-opacity="0.2" /><rect x="476" y="823.0" width="188" height="1" fill="white" fill-opacity="0.2" /><rect x="476" y="766.0" width="188" height="1" fill="white" fill-opacity="0.2" /><rect x="476" y="709.0" width="188" height="1" fill="white" fill-opacity="0.5" /><text x="674" y="709.0" font-size="14" fill="white" font-family="monospace" dominant-baseline="initial">12</text><rect x="476" y="652.0" width="188" height="1" fill="white" fill-opacity="0.2" /><rect x="476" y="595.5" width="188" height="1" fill="white" fill-opacity="0.2" /><rect x="476" y="538.5" width="188" height="1" fill="white" fill-opacity="0.2" /><rect x="476" y="481.5" width="188" height="1" fill="white" fill-opacity="0.5" /><text x="674" y="481.5" font-size="14" fill="white" font-family="monospace" dominant-baseline="initial">13</text><rect x="714" y="482.0" width="188" height="911.5" fill="black" /><rect x="714" y="1392.5" width="188" height="1" fill="white" fill-opacity="0.5" /><text x="912" y="1392.5" font-size="14" fill="white" font-family="monospace" dominant-baseline="initial">13</text><rect x="714" y="1335.5" width="188" height="1" fill="white" fill-opacity="0.2" /><rect x="714" y="1278.5" width="188" height="1" fill="white" fill-opacity="0.2" /><rect x="714" y="1221.5" width="188" height="1" fill="white" fill-opacity="0.2" /><rect x="714" y="1164.5" width="188" height="1" fill="white" fill-opacity="0.5" /><text x="912" y="1164.5" font-size="14" fill="white" font-family="monospace" dominant-baseline="initial">14</text><rect x="714" y="1107.5" width="188" height="1" fill="white" fill-opacity="0.2" /><rect x="714" y="1050.5" width="188" height="1" fill="white" fill-opacity="0.2" /><rect x="714" y="993.5" width="188" height="1" fill="white" fill-opacity="0.2" /><rect x="714" y="936.5" width="188" height="1" fill="white" fill-opacity="0.5" /><text x="912" y="936.5" font-size="14" fill="white" font-family="monospace" dominant-baseline="initial">15</text><rect x="714" y="879.5" width="188" height="1" fill="white" fill-opacity="0.2" /><rect x="714" y="822.5" width="188" height="1" fill="white" fill-opacity="0.2" /><rect x="714" y="765.5" width="188" height="1" fill="white" fill-opacity="0.2" /><rect x="714" y="709.0" width="188" height="1" fill="white" fill-opacity="0.5" /><text x="912" y="709.0" font-size="14" fill="white" font-family="monospace" dominant-baseline="initial">16</text><rect x="714" y="652.0" width="188" height="1" fill="white" fill-opacity="0.2" /><rect x="714" y="595.0" width="188" height="1" fill="white" fill-opacity="0.2" /><rect x="714" y="538.0" width="188" height="1" fill="white" fill-opacity="0.2" /><rect x="714" y="481.0" width="188" height="1" fill="white" fill-opacity="0.5" /><text x="912" y="481.0" font-size="14" fill="white" font-family="monospace" dominant-baseline="initial">17</text><rect x="952" y="482.0" width="188" height="911.5" fill="black" /><rect x="952" y="1392.5" width="188" height="1" fill="white" fill-opacity="0.5" /><text x="1150" y="1392.5" font-size="14" fill="white" font-family="monospace" dominant-baseline="initial">17</text><rect x="952" y="1335.5" width="188" height="1" fill="white" fill-opacity="0.2" /><rect x="952" y="1278.5" width="188" height="1" fill="white" fill-opacity="0.2" /><rect x="952" y="1221.5" width="188" height="1" fill="white" fill-opacity="0.2" /><rect x="952" y="1164.5" width="188" height="1" fill="white" fill-opacity="0.5" /><text x="1150" y="1164.5" font-size="14" fill="white" font-family="monospace" dominant-baseline="initial">18</text><rect x="952" y="1107.5" width="188" height="1" fill="white" fill-opacity="0.2" /><rect x="952" y="1050.5" width="188" height="1" fill="white" fill-opacity="0.2" /><rect x="952" y="993.5" width="188" height="1" fill="white" fill-opacity="0.2" /><rect x="952" y="936.5" width="188" height="1" fill="white" fill-opacity="0.5" /><text x="1150" y="936.5" font-size="14" fill="white" font-family="monospace" dominant-baseline="initial">19</text><rect x="952" y="880.0" width="188" height="1" fill="white" fill-opacity="0.2" /><rect x="952" y="823.0" width="188" height="1" fill="white" fill-opacity="0.2" /><rect x="952" y="766.0" width="188" height="1" fill="white" fill-opacity="0.2" /><rect x="952" y="709.0" width="188" height="1" fill="white" fill-opacity="0.5" /><text x="1150" y="709.0" font-size="14" fill="white" font-family="monospace" dominant-baseline="initial">20</text><rect x="952" y="652.0" width="188" height="1" fill="white" fill-opacity="0.2" /><rect x="952" y="595.0" width="188" height="1" fill="white" fill-opacity="0.2" /><rect x="952" y="538.0" width="188" height="1" fill="white" fill-opacity="0.2" /><rect x="952" y="481.0" width="188" height="1" fill="white" fill-opacity="0.5" /><text x="1150" y="481.0" font-size="14" fill="white" font-family="monospace" dominant-baseline="initial">21</text><rect x="1190" y="482.0" width="188" height="911.5" fill="black" /><rect x="1190" y="1392.5" width="188" height="1" fill="white" fill-opacity="0.5" /><text x="1388" y="1392.5" font-size="14" fill="white" font-family="monospace" dominant-baseline="initial">21</text><rect x="1190" y="1335.5" width="188" height="1" fill="white" fill-opacity="0.2" /><rect x="1190" y="1278.5" width="188" height="1" fill="white" fill-opacity="0.2" /><rect x="1190" y="1221.5" width="188" height="1" fill="white" fill-opacity="0.2" /><rect x="1190" y="1164.5" width="188" height="1" fill="white" fill-opacity="0.5" /><text x="1388" y="1164.5" font-size="14" fill="white" font-family="monospace" dominant-baseline="initial">22</text><rect x="1190" y="1107.5" width="188" height="1" fill="white" fill-opacity="0.2" /><rect x="1190" y="1051.0" width="188" height="1" fill="white" fill-opacity="0.2" /><rect x="1190" y="994.0" width="188" height="1" fill="white" fill-opacity="0.2" /><rect x="1190" y="937.0" width="188" height="1" fill="white" fill-opacity="0.5" /><text x="1388" y="937.0" font-size="14" fill="white" font-family="monospace" dominant-baseline="initial">23</text><rect x="1190" y="880.0" width="188" height="1" fill="white" fill-opacity="0.2" /><rect x="1190" y="823.0" width="188" height="1" fill="white" fill-opacity="0.2" /><rect x="1190" y="766.0" width="188" height="1" fill="white" fill-opacity="0.2" /><rect x="1190" y="709.0" width="188" height="1" fill="white" fill-opacity="0.5" /><text x="1388" y="709.0" font-size="14" fill="white" font-family="monospace" dominant-baseline="initial">24</text><rect x="1190" y="652.0" width="188" height="1" fill="white" fill-opacity="0.2" /><rect x="1190" y="595.0" width="188" height="1" fill="white" fill-opacity="0.2" /><rect x="1190" y="538.0" width="188" height="1" fill="white" fill-opacity="0.2" /><rect x="1190" y="481.0" width="188" height="1" fill="white" fill-opacity="0.5" /><text x="1388" y="481.0" font-size="14" fill="white" font-family="monospace" dominant-baseline="initial">25</text><rect x="1190" y="936.8000000000002" width="188" height="1" fill="aqua" fill-opacity="0.75" /><text x="1190" y="932.8000000000002" font-size="14" fill="aqua" fill-opacity="0.75" font-family="monospace">Phrase B</text><rect x="1428" y="482.5" width="188" height="911.0" fill="black" /><rect x="1428" y="1392.5" width="188" height="1" fill="white" fill-opacity="0.5" /><text x="1626" y="1392.5" font-size="14" fill="white" font-family="monospace" dominant-baseline="initial">25</text><rect x="1428" y="1335.5" width="188" height="1" fill="white" fill-opacity="0.2" /><rect x="1428" y="1278.5" width="188" height="1" fill="white" fill-opacity="0.2" /><rect x="1428" y="1222.0" width="188" height="1" fill="white" fill-opacity="0.2" /><rect x="1428" y="1165.0" width="188" height="1" fill="white" fill-opacity="0.5" /><text x="1626" y="1165.0" font-size="14" fill="white" font-family="monospace" dominant-baseline="initial">26</text><rect x="1428" y="1108.0" width="188" height="1" fill="white" fill-opacity="0.2" /><rect x="1428" y="1051.0" width="188" height="1" fill="white" fill-opacity="0.2" /><rect x="1428" y="994.0" width="188" height="1" fill="white" fill-opacity="0.2" /><rect x="1428" y="937.0" width="188" height="1" fill="white" fill-opacity="0.5" /><text x="1626" y="937.0" font-size="14" fill="white" font-family="monospace" dominant-baseline="initial">27</text><rect x="1428" y="880.0" width="188" height="1" fill="white" fill-opacity="0.2" /><rect x="1428" y="823.0" width="188" height="1" fill="white" fill-opacity="0.2" /><rect x="1428" y="766.0" width="188" height="1" fill="white" fill-opacity="0.2" /><rect x="1428" y="709.0" width="188" height="1" fill="white" fill-opacity="0.5" /><text x="1626" y="709.0" font-size="14" fill="white" font-family="monospace" dominant-baseline="initial">28</text><rect x="1428" y="652.0" width="188" height="1" fill="white" fill-opacity="0.2" /><rect x="1428" y="595.0" width="188" height="1" fill="white" fill-opacity="0.2" /><rect x="1428" y="538.0" width="188" height="1" fill="white" fill-opacity="0.2" /><rect x="1428" y="481.5" width="188" height="1" fill="white" fill-opacity="0.5" /><text x="1626" y="481.5" font-size="14" fill="white" font-family="monospace" dominant-baseline="initial">29</text><rect x="1666" y="482.0" width="188" height="911.5" fill="black" /><rect x="1666" y="1392.5" width="188" height="1" fill="white" fill-opacity="0.5" /><text x="1864" y="1392.5" font-size="14" fill="white" font-family="monospace" dominant-baseline="initial">29</text><rect x="1666" y="1335.5" width="188" height="1" fill="white" fill-opacity="0.2" /><rect x="1666" y="1278.5" width="188" height="1" fill="white" fill-opacity="0.2" /><rect x="1666" y="1221.5" width="188" height="1" fill="white" fill-opacity="0.2" /><rect x="1666" y="1164.5" width="188" height="1" fill="white" fill-opacity="0.5" /><text x="1864" y="1164.5" font-size="14" fill="white" font-family="monospace" dominant-baseline="initial">30</text><rect x="1666" y="1107.5" width="188" height="1" fill="white" fill-opacity="0.2" /><rect x="1666" y="1050.5" width="188" height="1" fill="white" fill-opacity="0.2" /><rect x="1666" y="993.5" width="188" height="1" fill="white" fill-opacity="0.2" /><rect x="1666" y="936.5" width="188" height="1" fill="white" fill-opacity="0.5" /><text x="1864" y="936.5" font-size="14" fill="white" font-family="monospace" dominant-baseline="initial">31</text><rect x="1666" y="879.5" width="188" height="1" fill="white" fill-opacity="0.2" /><rect x="1666" y="822.5" width="188" height="1" fill="white" fill-opacity="0.2" /><rect x="1666" y="765.5" width="188" height="1" fill="white" fill-opacity="0.2" /><rect x="1666" y="708.5" width="188" height="1" fill="white" fill-opacity="0.5" /><text x="1864" y="708.5" font-size="14" fill="white" font-family="monospace" dominant-baseline="initial">32</text><rect x="1666" y="652.0" width="188" height="1" fill="white" fill-opacity="0.2" /><rect x="1666" y="595.0" width="188" height="1" fill="white" fill-opacity="0.2" /><rect x="1666" y="538.0" width="188" height="1" fill="white" fill-opacity="0.2" /><rect x="1666" y="481.0" width="188" height="1" fill="white" fill-opacity="0.5" /><text x="1864" y="481.0" font-size="14" fill="white" font-family="monospace" dominant-baseline="initial">33</text><rect x="1666" y="936.5" width="188" height="1" fill="aqua" fill-opacity="0.75" /><text x="1666" y="932.5" font-size="14" fill="aqua" fill-opacity="0.75" font-family="monospace">Special</text><rect x="1904" y="482.0" width="188" height="911.5" fill="black" /><rect x="1904" y="1392.5" width="188" height="1" fill="white" fill-opacity="0.5" /><text x="2102" y="1392.5" font-size="14" fill="white" font-family="monospace" dominant-baseline="initial">33</text><rect x="1904" y="1335.5" width="188" height="1" fill="white" fill-opacity="0.2" /><rect x="1904" y="1278.5" width="188" height="1" fill="white" fill-opacity="0.2" /><rect x="1904" y="1221.5" width="188" height="1" fill="white" fill-opacity="0.2" /><rect x="1904" y="1164.5" width="188" height="1" fill="white" fill-opacity="0.5" /><text x="2102" y="1164.5" font-size="14" fill="white" font-family="monospace" dominant-baseline="initial">34</text><rect x="1904" y="1107.5" width="188" height="1" fill="white" fill-opacity="0.2" /><rect x="1904" y="1050.5" width="188" height="1" fill="white" fill-opacity="0.2" /><rect x="1904" y="993.5" width="188" height="1" fill="white" fill-opacity="0.2" /><rect x="1904" y="936.5" width="188" height="1" fill="white" fill-opacity="0.5" /><text x="2102" y="936.5" font-size="14" fill="white" font-family="monospace" dominant-baseline="initial">35</text><rect x="1904" y="879.5" width="188" height="1" fill="white" fill-opacity="0.2" /><rect x="1904" y="823.0" width="188" height="1" fill="white" fill-opacity="0.2" /><rect x="1904" y="766.0" width="188" height="1" fill="white" fill-opacity="0.2" /><rect x="1904" y="709.0" width="188" height="1" fill="white" fill-opacity="0.5" /><text x="2102" y="709.0" font-size="14" fill="white" font-family="monospace" dominant-baseline="initial">36</text><rect x="1904" y="652.0" width="188" height="1" fill="white" fill-opacity="0.2" /><rect x="1904" y="595.0" width="188" height="1" fill="white" fill-opacity="0.2" /><rect x="1904" y="538.0" width="188" height="1" fill="white" fill-opacity="0.2" /><rect x="1904" y="481.0" width="188" height="1" fill="white" fill-opacity="0.5" /><text x="2102" y="481.0" font-size="14" fill="white" font-family="monospace" dominant-baseline="initial">37</text><rect x="2142" y="482.0" width="188" height="911.5" fill="black" /><rect x="2142" y="1392.5" width="188" height="1" fill="white" fill-opacity="0.5" /><text x="2340" y="1392.5" font-size="14" fill="white" font-family="monospace" dominant-baseline="initial">37</text><rect x="2142" y="1335.5" width="188" height="1" fill="white" fill-opacity="0.2" /><rect x="2142" y="1278.5" width="188" height="1" fill="white" fill-opacity="0.2" /><rect x="2142" y="1221.5" width="188" height="1" fill="white" fill-opacity="0.2" /><rect x="2142" y="1164.5" width="188" height="1" fill="white" fill-opacity="0.5" /><text x="2340" y="1164.5" font-size="14" fill="white" font-family="monospace" dominant-baseline="initial">38</text><rect x="2142" y="1107.5" width="188" height="1" fill="white" fill-opacity="0.2" /><rect x="2142" y="1050.5" width="188" height="1" fill="white" fill-opacity="0.2" /><rect x="2142" y="994.0" width="188" height="1" fill="white" fill-opacity="0.2" /><rect x="2142" y="937.0" width="188" height="1" fill="white" fill-opacity="0.5" /><text x="2340" y="937.0" font-size="14" fill="white" font-family="monospace" dominant-baseline="initial">39</text><rect x="2142" y="880.0" width="188" height="1" fill="white" fill-opacity="0.2" /><rect x="2142" y="823.0" width="188" height="1" fill="white" fill-opacity="0.2" /><rect x="2142" y="766.0" width="188" height="1" fill="white" fill-opacity="0.2" /><rect x="2142" y="709.0" width="188" height="1" fill="white" fill-opacity="0.5" /><text x="2340" y="709.0" font-size="14" fill="white" font-family="monospace" dominant-baseline="initial">40</text><rect x="2142" y="652.0" width="188" height="1" fill="white" fill-opacity="0.2" /><rect x="2142" y="595.0" width="188" height="1" fill="white" fill-opacity="0.2" /><rect x="2142" y="538.0" width="188" height="1" fill="white" fill-opacity="0.2" /><rect x="2142" y="481.0" width="188" height="1" fill="white" fill-opacity="0.5" /><text x="2340" y="481.0" font-size="14" fill="white" font-family="monospace" dominant-baseline="initial">41</text><rect x="2142" y="936.8500000000004" width="188" height="1" fill="aqua" fill-opacity="0.75" /><text x="2142" y="932.8500000000004" font-size="14" fill="aqua" fill-opacity="0.75" font-family="monospace">Solo</text><rect x="2380" y="482.0" width="188" height="911.5" fill="black" /><rect x="2380" y="1392.5" width="188" height="1" fill="white" fill-opacity="0.5" /><text x="2578" y="1392.5" font-size="14" fill="white" font-family="monospace" dominant-baseline="initial">41</text><rect x="2380" y="1335.5" width="188" height="1" fill="white" fill-opacity="0.2" /><rect x="2380" y="1278.5" width="188" height="1" fill="white" fill-opacity="0.2" /><rect x="2380" y="1221.5" width="188" height="1" fill="white" fill-opacity="0.2" /><rect x="2380" y="1164.5" width="188" height="1" fill="white" fill-opacity="0.5" /><text x="2578" y="1164.5" font-size="14" fill="white" font-family="monospace" dominant-baseline="initial">42</text><rect x="2380" y="1108.0" width="188" height="1" fill="white" fill-opacity="0.2" /><rect x="2380" y="1051.0" width="188" height="1" fill="white" fill-opacity="0.2" /><rect x="2380" y="994.0" width="188" height="1" fill="white" fill-opacity="0.2" /><rect x="2380" y="937.0" width="188" height="1" fill="white" fill-opacity="0.5" /><text x="2578" y="937.0" font-size="14" fill="white" font-family="monospace" dominant-baseline="initial">43</text><rect x="2380" y="880.0" width="188" height="1" fill="white" fill-opacity="0.2" /><rect x="2380" y="823.0" width="188" height="1" fill="white" fill-opacity="0.2" /><rect x="2380" y="766.0" width="188" height="1" fill="white" fill-opacity="0.2" /><rect x="2380" y="709.0" width="188" height="1" fill="white" fill-opacity="0.5" /><text x="2578" y="709.0" font-size="14" fill="white" font-family="monospace" dominant-baseline="initial">44</text><rect x="2380" y="652.0" width="188" height="1" fill="white" fill-opacity="0.2" /><rect x="2380" y="595.0" width="188" height="1" fill="white" fill-opacity="0.2" /><rect x="2380" y="538.0" width="188" height="1" fill="white" fill-opacity="0.2" /><rect x="2380" y="481.0" width="188" height="1" fill="white" fill-opacity="0.5" /><text x="2578" y="481.0" font-size="14" fill="white" font-family="monospace" dominant-baseline="initial">45</text><rect x="2618" y="482.5" width="188" height="911.0" fill="black" /><rect x="2618" y="1392.5" width="188" height="1" fill="white" fill-opacity="0.5" /><text x="2816" y="1392.5" font-size="14" fill="white" font-family="monospace" dominant-baseline="initial">45</text><rect x="2618" y="1335.5" width="188" height="1" fill="white" fill-opacity="0.2" /><rect x="2618" y="1279.0" width="188" height="1" fill="white" fill-opacity="0.2" /><rect x="2618" y="1222.0" width="188" height="1" fill="white" fill-opacity="0.2" /><rect x="2618" y="1165.0" width="188" height="1" fill="white" fill-opacity="0.5" /><text x="2816" y="1165.0" font-size="14" fill="white" font-family="monospace" dominant-baseline="initial">46</text><rect x="2618" y="1108.0" width="188" height="1" fill="white" fill-opacity="0.2" /><rect x="2618" y="1051.0" width="188" height="1" fill="white" fill-opacity="0.2" /><rect x="2618" y="994.0" width="188" height="1" fill="white" fill-opacity="0.2" /><rect x="2618" y="937.0" width="188" height="1" fill="white" fill-opacity="0.5" /><text x="2816" y="937.0" font-size="14" fill="white" font-family="monospace" dominant-baseline="initial">47</text><rect x="2618" y="880.0" width="188" height="1" fill="white" fill-opacity="0.2" /><rect x="2618" y="823.0" width="188" height="1" fill="white" fill-opacity="0.2" /><rect x="2618" y="766.0" width="188" height="1" fill="white" fill-opacity="0.2" /><rect x="2618" y="709.0" width="188" height="1" fill="white" fill-opacity="0.5" /><text x="2816" y="709.0" font-size="14" fill="white" font-family="monospace" dominant-baseline="initial">48</text><rect x="2618" y="652.0" width="188" height="1" fill="white" fill-opacity="0.2" /><rect x="2618" y="595.0" width="188" height="1" fill="white" fill-opacity="0.2" /><rect x="2618" y="538.5" width="188" height="1" fill="white" fill-opacity="0.2" /><rect x="2618" y="481.5" width="188" height="1" fill="white" fill-opacity="0.5" /><text x="2816" y="481.5" font-size="14" fill="white" font-family="monospace" dominant-baseline="initial">49</text><rect x="2618" y="937.0500000000011" width="188" height="1" fill="aqua" fill-opacity="0.75" /><text x="2618" y="933.0500000000011" font-size="14" fill="aqua" fill-opacity="0.75" font-family="monospace">Special</text><rect x="2856" y="482.0" width="188" height="911.5" fill="black" /><rect x="2856" y="1392.5" width="188" height="1" fill="white" fill-opacity="0.5" /><text x="3054" y="1392.5" font-size="14" fill="white" font-family="monospace" dominant-baseline="initial">49</text><rect x="2856" y="1335.5" width="188" height="1" fill="white" fill-opacity="0.2" /><rect x="2856" y="1278.5" width="188" height="1" fill="white" fill-opacity="0.2" /><rect x="2856" y="1221.5" width="188" height="1" fill="white" fill-opacity="0.2" /><rect x="2856" y="1164.5" width="188" height="1" fill="white" fill-opacity="0.5" /><text x="3054" y="1164.5" font-size="14" fill="white" font-family="monospace" dominant-baseline="initial">50</text><rect x="2856" y="1107.5" width="188" height="1" fill="white" fill-opacity="0.2" /><rect x="2856" y="1050.5" width="188" height="1" fill="white" fill-opacity="0.2" /><rect x="2856" y="993.5" width="188" height="1" fill="white" fill-opacity="0.2" /><rect x="2856" y="936.5" width="188" height="1" fill="white" fill-opacity="0.5" /><text x="3054" y="936.5" font-size="14" fill="white" font-family="monospace" dominant-baseline="initial">51</text><rect x="2856" y="879.5" width="188" height="1" fill="white" fill-opacity="0.2" /><rect x="2856" y="822.5" width="188" height="1" fill="white" fill-opacity="0.2" /><rect x="2856" y="765.5" width="188" height="1" fill="white" fill-opacity="0.2" /><rect x="2856" y="709.0" width="188" height="1" fill="white" fill-opacity="0.5" /><text x="3054" y="709.0" font-size="14" fill="white" font-family="monospace" dominant-baseline="initial">52</text><rect x="2856" y="652.0" width="188" height="1" fill="white" fill-opacity="0.2" /><rect x="2856" y="595.0" width="188" height="1" fill="white" fill-opacity="0.2" /><rect x="2856" y="538.0" width="188" height="1" fill="white" fill-opacity="0.2" /><rect x="2856" y="481.0" width="188" height="1" fill="white" fill-opacity="0.5" /><text x="3054" y="481.0" font-size="14" fill="white" font-family="monospace" dominant-baseline="initial">53</text><rect x="3094" y="482.0" width="188" height="911.5" fill="black" /><rect x="3094" y="1392.5" width="188" height="1" fill="white" fill-opacity="0.5" /><text x="3292" y="1392.5" font-size="14" fill="white" font-family="monospace" dominant-baseline="initial">53</text><rect x="3094" y="1335.5" width="188" height="1" fill="white" fill-opacity="0.2" /><rect x="3094" y="1278.5" width="188" height="1" fill="white" fill-opacity="0.2" /><rect x="3094" y="1221.5" width="188" height="1" fill="white" fill-opacity="0.2" /><rect x="3094" y="1164.5" width="188" height="1" fill="white" fill-opacity="0.5" /><text x="3292" y="1164.5" font-size="14" fill="white" font-family="monospace" dominant-baseline="initial">54</text><rect x="3094" y="1107.5" width="188" height="1" fill="white" fill-opacity="0.2" /><rect x="3094" y="1050.5" width="188" height="1" fill="white" fill-opacity="0.2" /><rect x="3094" y="993.5" width="188" height="1" fill="white" fill-opacity="0.2" /><rect x="3094" y="936.5" width="188" height="1" fill="white" fill-opacity="0.5" /><text x="3292" y="936.5" font-size="14" fill="white" font-family="monospace" dominant-baseline="initial">55</text><rect x="3094" y="880.0" width="188" height="1" fill="white" fill-opacity="0.2" /><rect x="3094" y="823.0" width="188" height="1" fill="white" fill-opacity="0.2" /><rect x="3094" y="766.0" width="188" height="1" fill="white" fill-opacity="0.2" /><rect x="3094" y="709.0" width="188" height="1" fill="white" fill-opacity="0.5" /><text x="3292" y="709.0" font-size="14" fill="white" font-family="monospace" dominant-baseline="initial">56</text><rect x="3094" y="652.0" width="188" height="1" fill="white" fill-opacity="0.2" /><rect x="3094" y="595.0" width="188" height="1" fill="white" fill-opacity="0.2" /><rect x="3094" y="538.0" width="188" height="1" fill="white" fill-opacity="0.2" /><rect x="3094" y="481.0" width="188" height="1" fill="white" fill-opacity="0.5" /><text x="3292" y="481.0" font-size="14" fill="white" font-family="monospace" dominant-baseline="initial">57</text><rect x="3094" y="936.75" width="188" height="1" fill="aqua" fill-opacity="0.75" /><text x="3094" y="932.75" font-size="14" fill="aqua" fill-opacity="0.75" font-family="monospace">Outro</text><rect x="3332" y="14.0" width="188" height="1379.5" fill="black" /><rect x="3332" y="1392.5" width="188" height="1" fill="white" fill-opacity="0.5" /><text x="3530" y="1392.5" font-size="14" fill="white" font-family="monospace" dominant-baseline="initial">57</text><rect x="3332" y="1335.5" width="188" height="1" fill="white" fill-opacity="0.2" /><rect x="3332" y="1278.5" width="188" height="1" fill="white" fill-opacity="0.2" /><rect x="3332" y="1221.5" width="188" height="1" fill="white" fill-opacity="0.2" /><rect x="3332" y="1164.5" width="188" height="1" fill="white" fill-opacity="0.5" /><text x="3530" y="1164.5" font-size="14" fill="white" font-family="monospace" dominant-baseline="initial">58</text><rect x="3332" y="1107.5" width="188" height="1" fill="white" fill-opacity="0.2" /><rect x="3332" y="1051.0" width="188" height="1" fill="white" fill-opacity="0.2" /><rect x="3332" y="994.0" width="188" height="1" fill="white" fill-opacity="0.2" /><rect x="3332" y="937.0" width="188" height="1" fill="white" fill-opacity="0.5" /><text x="3530" y="937.0" font-size="14" fill="white" font-family="monospace" dominant-baseline="initial">59</text><rect x="3332" y="880.0" width="188" height="1" fill="white" fill-opacity="0.2" /><rect x="3332" y="823.0" width="188" height="1" fill="white" fill-opacity="0.2" /><rect x="3332" y="766.0" width="188" height="1" fill="white" fill-opacity="0.2" /><rect x="3332" y="709.0" width="188" height="1" fill="white" fill-opacity="0.5" /><text x="3530" y="709.0" font-size="14" fill="white" font-family="monospace" dominant-baseline="initial">60</text></svg>