<?xml version="1.0" encoding="UTF-8"?><svg xmlns="http://www.w3.org/2000/svg" xmlns:xlink="http://www.w3.org/1999/xlink"     width="1710" height="1393.5" viewBox="0 0 1710 1393.5"><defs></defs><rect x="0.0" y="455.5" width="12.0" height="3" fill="#ff3c3c" stroke="#c71f1f" /><rect x="26.0" y="455.5" width="12.0" height="3" fill="#80c9ff" stroke="#0b6cba" /><rect x="0.0" y="541.0" width="12.0" height="3" fill="#ff3c3c" stroke="#c71f1f" /><rect x="13.0" y="541.0" width="12.0" height="3" fill="#35df39" stroke="#03aa10" /><rect x="0.0" y="598.0" width="12.0" height="3" fill="#ff3c3c" stroke="#c71f1f" /><rect x="13.0" y="598.0" width="12.0" height="3" fill="#35df39" stroke="#03aa10" /><rect x="0.0" y="655.0" width="12.0" height="3" fill="#ff3c3c" stroke="#c71f1f" /><rect x="26.0" y="655.0" width="12.0" height="3" fill="#80c9ff" stroke="#0b6cba" /><rect x="0.0" y="740.5" width="12.0" height="3" fill="#ff3c3c" stroke="#c71f1f" /><rect x="26.0" y="740.5" width="12.0" height="3" fill="#80c9ff" stroke="#0b6cba" /><rect x="140.0" y="28.5" width="12.0" height="3" fill="#80c9ff" stroke="#0b6cba" /><rect x="166.0" y="28.5" width="12.0" height="3" fill="#ff83f4" stroke="#d002bc" /><rect x="153.0" y="114.0" width="12.0" height="3" fill="#fff874" stroke="#eb9c26" /><rect x="166.0" y="114.0" width="12.0" height="3" fill="#ff83f4" stroke="#d002bc" /><rect x="153.0" y="171.0" width="12.0" height="3" fill="#fff874" stroke="#eb9c26" /><rect x="166.0" y="171.0" width="12.0" height="3" fill="#ff83f4" stroke="#d002bc" /><rect x="140.0" y="227.5" width="12.0" height="3" fill="#80c9ff" stroke="#0b6cba" /><rect x="166.0" y="227.5" width="12.0" height="3" fill="#ff83f4" stroke="#d002bc" /><rect x="140.0" y="341.5" width="12.0" height="102.60000000000001" fill="#80c9ff" stroke="#0b6cba" /><rect x="166.0" y="341.5" width="12.0" height="102.60000000000001" fill="#ff83f4" stroke="#d002bc" /><rect x="114.0" y="455.5" width="12.0" height="3" fill="#ff3c3c" stroke="#c71f1f" /><rect x="114.0" y="484.0" width="12.0" height="3" fill="#ff3c3c" stroke="#c71f1f" /><rect x="127.0" y="484.0" width="12.0" height="3" fill="#35df39" stroke="#03aa10" /><rect x="127.0" y="512.5" width="12.0" height="3" fill="#35df39" stroke="#03aa10" /><rect x="140.0" y="541.0" width="12.0" height="3" fill="#80c9ff" stroke="#0b6cba" /><rect x="127.0" y="569.5" width="12.0" height="3" fill="#35df39" stroke="#03aa10" /><rect x="140.0" y="569.5" width="12.0" height="3" fill="#80c9ff" stroke="#0b6cba" /><rect x="127.0" y="598.0" width="12.0" height="3" fill="#35df39" stroke="#03aa10" /><rect x="140.0" y="626.5" width="12.0" height="3" fill="#80c9ff" stroke="#0b6cba" /><rect x="153.0" y="626.5" width="12.0" height="3" fill="#fff874" stroke="#eb9c26" /><rect x="153.0" y="683.5" width="12.0" height="3" fill="#fff874" stroke="#eb9c26" /><rect x="166.0" y="683.5" width="12.0" height="3" fill="#ff83f4" stroke="#d002bc" /><rect x="140.0" y="797.5" width="12.0" height="3" fill="#80c9ff" stroke="#0b6cba" /><rect x="166.0" y="854.5" width="12.0" height="3" fill="#ff83f4" stroke="#d002bc" /><rect x="140.0" y="883.0" width="12.0" height="28.5" fill="#80c9ff" stroke="#0b6cba" /><rect x="153.0" y="883.0" width="12.0" height="28.5" fill="#fff874" stroke="#eb9c26" /><rect x="241.0" y="256.0" width="12.0" height="3" fill="#35df39" stroke="#03aa10" /><rect x="254.0" y="256.0" width="12.0" height="3" fill="#80c9ff" stroke="#0b6cba" /><rect x="254.0" y="341.5" width="12.0" height="3" fill="#80c9ff" stroke="#0b6cba" /><rect x="267.0" y="341.5" width="12.0" height="3" fill="#fff874" stroke="#eb9c26" /><rect x="241.0" y="398.5" width="12.0" height="3" fill="#35df39" stroke="#03aa10" /><rect x="267.0" y="398.5" width="12.0" height="3" fill="#fff874" stroke="#eb9c26" /><rect x="254.0" y="455.5" width="12.0" height="3" fill="#80c9ff" stroke="#0b6cba" /><rect x="280.0" y="455.5" width="12.0" height="3" fill="#ff83f4" stroke="#d002bc" /><rect x="267.0" y="512.5" width="12.0" height="3" fill="#fff874" stroke="#eb9c26" /><rect x="241.0" y="541.0" width="12.0" height="3" fill="#35df39" stroke="#03aa10" /><rect x="267.0" y="541.0" width="12.0" height="3" fill="#fff874" stroke="#eb9c26" /><rect x="254.0" y="598.0" width="12.0" height="3" fill="#80c9ff" stroke="#0b6cba" /><rect x="267.0" y="598.0" width="12.0" height="3" fill="#fff874" stroke="#eb9c26" /><rect x="241.0" y="655.0" width="12.0" height="179.1" fill="#35df39" stroke="#03aa10" /><rect x="254.0" y="655.0" width="12.0" height="179.1" fill="#80c9ff" stroke="#0b6cba" /><rect x="254.0" y="854.0" width="12.0" height="3" fill="#80c9ff" stroke="#0b6cba" /><rect x="254.0" y="0.0" width="12.0" height="207.3195079086116" fill="#80c9ff" stroke="#0b6cba" /><rect x="267.0" y="0.0" width="12.0" height="207.3195079086116" fill="#fff874" stroke="#eb9c26" /><rect x="355.0" y="0.0" width="12.0" height="3" fill="#35df39" stroke="#03aa10" /><rect x="381.0" y="0.0" width="12.0" height="3" fill="#fff874" stroke="#eb9c26" /><rect x="368.0" y="57.0" width="12.0" height="3" fill="#80c9ff" stroke="#0b6cba" /><rect x="342.0" y="85.5" width="12.0" height="3" fill="#ff3c3c" stroke="#c71f1f" /><rect x="368.0" y="85.5" width="12.0" height="3" fill="#80c9ff" stroke="#0b6cba" /><rect x="355.0" y="142.5" width="12.0" height="3" fill="#35df39" stroke="#03aa10" /><rect x="368.0" y="142.5" width="12.0" height="3" fill="#80c9ff" stroke="#0b6cba" /><rect x="342.0" y="199.5" width="12.0" height="3" fill="#ff3c3c" stroke="#c71f1f" /><rect x="355.0" y="199.5" width="12.0" height="3" fill="#35df39" stroke="#03aa10" /><rect x="342.0" y="285.0" width="12.0" height="3" fill="#ff3c3c" stroke="#c71f1f" /><rect x="355.0" y="342.0" width="12.0" height="3" fill="#35df39" stroke="#03aa10" /><rect x="381.0" y="342.0" width="12.0" height="3" fill="#fff874" stroke="#eb9c26" /><rect x="368.0" y="399.0" width="12.0" height="3" fill="#80c9ff" stroke="#0b6cba" /><rect x="342.0" y="456.0" width="12.0" height="3" fill="#ff3c3c" stroke="#c71f1f" /><rect x="355.0" y="456.0" width="12.0" height="3" fill="#35df39" stroke="#03aa10" /><rect x="342.0" y="513.0" width="12.0" height="3" fill="#ff3c3c" stroke="#c71f1f" /><rect x="355.0" y="541.5" width="12.0" height="3" fill="#35df39" stroke="#03aa10" /><rect x="355.0" y="598.5" width="12.0" height="3" fill="#35df39" stroke="#03aa10" /><rect x="368.0" y="598.5" width="12.0" height="3" fill="#80c9ff" stroke="#0b6cba" /><rect x="368.0" y="655.0" width="12.0" height="3" fill="#80c9ff" stroke="#0b6cba" /><rect x="368.0" y="683.5" width="12.0" height="3" fill="#80c9ff" stroke="#0b6cba" /><rect x="381.0" y="683.5" width="12.0" height="3" fill="#fff874" stroke="#eb9c26" /><rect x="368.0" y="712.0" width="12.0" height="3" fill="#80c9ff" stroke="#0b6cba" /><rect x="381.0" y="712.0" width="12.0" height="3" fill="#fff874" stroke="#eb9c26" /><rect x="368.0" y="769.0" width="12.0" height="3" fill="#80c9ff" stroke="#0b6cba" /><rect x="368.0" y="797.5" width="12.0" height="3" fill="#80c9ff" stroke="#0b6cba" /><rect x="394.0" y="797.5" width="12.0" height="3" fill="#ff83f4" stroke="#d002bc" /><rect x="381.0" y="854.5" width="12.0" height="3" fill="#fff874" stroke="#eb9c26" /><rect x="394.0" y="854.5" width="12.0" height="3" fill="#ff83f4" stroke="#d002bc" /><rect x="469.0" y="0.0" width="12.0" height="3" fill="#35df39" stroke="#03aa10" /><rect x="495.0" y="0.0" width="12.0" height="3" fill="#fff874" stroke="#eb9c26" /><rect x="482.0" y="57.0" width="12.0" height="3" fill="#80c9ff" stroke="#0b6cba" /><rect x="495.0" y="57.0" width="12.0" height="3" fill="#fff874" stroke="#eb9c26" /><rect x="495.0" y="85.5" width="12.0" height="3" fill="#fff874" stroke="#eb9c26" /><rect x="482.0" y="142.5" width="12.0" height="282.15000000000003" fill="#80c9ff" stroke="#0b6cba" /><rect x="508.0" y="142.5" width="12.0" height="282.15000000000003" fill="#ff83f4" stroke="#d002bc" /><rect x="495.0" y="456.0" width="12.0" height="3" fill="#fff874" stroke="#eb9c26" /><rect x="508.0" y="456.0" width="12.0" height="3" fill="#ff83f4" stroke="#d002bc" /><rect x="495.0" y="512.5" width="12.0" height="3" fill="#fff874" stroke="#eb9c26" /><rect x="482.0" y="541.0" width="12.0" height="3" fill="#80c9ff" stroke="#0b6cba" /><rect x="495.0" y="541.0" width="12.0" height="3" fill="#fff874" stroke="#eb9c26" /><rect x="495.0" y="598.0" width="12.0" height="3" fill="#fff874" stroke="#eb9c26" /><rect x="508.0" y="598.0" width="12.0" height="3" fill="#ff83f4" stroke="#d002bc" /><rect x="495.0" y="626.5" width="12.0" height="3" fill="#fff874" stroke="#eb9c26" /><rect x="482.0" y="655.0" width="12.0" height="256.5" fill="#80c9ff" stroke="#0b6cba" /><rect x="495.0" y="655.0" width="12.0" height="256.5" fill="#fff874" stroke="#eb9c26" /><rect x="596.0" y="0.0" width="12.0" height="3" fill="#80c9ff" stroke="#0b6cba" /><rect x="622.0" y="0.0" width="12.0" height="3" fill="#ff83f4" stroke="#d002bc" /><rect x="609.0" y="57.0" width="12.0" height="3" fill="#fff874" stroke="#eb9c26" /><rect x="583.0" y="85.5" width="12.0" height="3" fill="#35df39" stroke="#03aa10" /><rect x="609.0" y="85.5" width="12.0" height="3" fill="#fff874" stroke="#eb9c26" /><rect x="596.0" y="142.5" width="12.0" height="3" fill="#80c9ff" stroke="#0b6cba" /><rect x="622.0" y="142.5" width="12.0" height="3" fill="#ff83f4" stroke="#d002bc" /><rect x="609.0" y="171.0" width="12.0" height="3" fill="#fff874" stroke="#eb9c26" /><rect x="583.0" y="199.5" width="12.0" height="230.4" fill="#35df39" stroke="#03aa10" /><rect x="609.0" y="199.5" width="12.0" height="230.4" fill="#fff874" stroke="#eb9c26" /><rect x="583.0" y="455.5" width="12.0" height="3" fill="#35df39" stroke="#03aa10" /><rect x="596.0" y="455.5" width="12.0" height="3" fill="#80c9ff" stroke="#0b6cba" /><rect x="609.0" y="512.5" width="12.0" height="3" fill="#fff874" stroke="#eb9c26" /><rect x="583.0" y="541.0" width="12.0" height="3" fill="#35df39" stroke="#03aa10" /><rect x="596.0" y="541.0" width="12.0" height="3" fill="#80c9ff" stroke="#0b6cba" /><rect x="609.0" y="598.0" width="12.0" height="3" fill="#fff874" stroke="#eb9c26" /><rect x="570.0" y="655.0" width="12.0" height="3" fill="#ff3c3c" stroke="#c71f1f" /><rect x="596.0" y="655.0" width="12.0" height="3" fill="#80c9ff" stroke="#0b6cba" /><rect x="596.0" y="712.0" width="12.0" height="3" fill="#80c9ff" stroke="#0b6cba" /><rect x="609.0" y="712.0" width="12.0" height="3" fill="#fff874" stroke="#eb9c26" /><rect x="570.0" y="769.0" width="12.0" height="3" fill="#ff3c3c" stroke="#c71f1f" /><rect x="596.0" y="769.0" width="12.0" height="3" fill="#80c9ff" stroke="#0b6cba" /><rect x="570.0" y="797.5" width="12.0" height="3" fill="#ff3c3c" stroke="#c71f1f" /><rect x="596.0" y="797.5" width="12.0" height="3" fill="#80c9ff" stroke="#0b6cba" /><rect x="596.0" y="854.5" width="12.0" height="3" fill="#80c9ff" stroke="#0b6cba" /><rect x="609.0" y="854.5" width="12.0" height="3" fill="#fff874" stroke="#eb9c26" /><rect x="684.0" y="0.0" width="12.0" height="3" fill="#ff3c3c" stroke="#c71f1f" /><rect x="697.0" y="0.0" width="12.0" height="3" fill="#35df39" stroke="#03aa10" /><rect x="710.0" y="57.0" width="12.0" height="3" fill="#80c9ff" stroke="#0b6cba" /><rect x="684.0" y="85.5" width="12.0" height="3" fill="#ff3c3c" stroke="#c71f1f" /><rect x="697.0" y="85.5" width="12.0" height="3" fill="#35df39" stroke="#03aa10" /><rect x="710.0" y="142.0" width="12.0" height="3" fill="#80c9ff" stroke="#0b6cba" /><rect x="697.0" y="199.0" width="12.0" height="3" fill="#35df39" stroke="#03aa10" /><rect x="697.0" y="227.5" width="12.0" height="3" fill="#35df39" stroke="#03aa10" /><rect x="710.0" y="227.5" width="12.0" height="3" fill="#80c9ff" stroke="#0b6cba" /><rect x="723.0" y="256.0" width="12.0" height="3" fill="#fff874" stroke="#eb9c26" /><rect x="697.0" y="284.5" width="12.0" height="170.55" fill="#35df39" stroke="#03aa10" /><rect x="723.0" y="284.5" width="12.0" height="170.55" fill="#fff874" stroke="#eb9c26" /><rect x="684.0" y="484.0" width="12.0" height="3" fill="#ff3c3c" stroke="#c71f1f" /><rect x="697.0" y="512.5" width="12.0" height="3" fill="#35df39" stroke="#03aa10" /><rect x="684.0" y="541.0" width="12.0" height="3" fill="#ff3c3c" stroke="#c71f1f" /><rect x="710.0" y="569.5" width="12.0" height="3" fill="#80c9ff" stroke="#0b6cba" /><rect x="684.0" y="598.0" width="12.0" height="3" fill="#ff3c3c" stroke="#c71f1f" /><rect x="710.0" y="626.5" width="12.0" height="3" fill="#80c9ff" stroke="#0b6cba" /><rect x="723.0" y="626.5" width="12.0" height="3" fill="#fff874" stroke="#eb9c26" /><rect x="723.0" y="655.0" width="12.0" height="3" fill="#fff874" stroke="#eb9c26" /><rect x="736.0" y="655.0" width="12.0" height="3" fill="#ff83f4" stroke="#d002bc" /><rect x="736.0" y="712.0" width="12.0" height="3" fill="#ff83f4" stroke="#d002bc" /><rect x="723.0" y="740.5" width="12.0" height="3" fill="#fff874" stroke="#eb9c26" /><rect x="697.0" y="769.0" width="12.0" height="3" fill="#35df39" stroke="#03aa10" /><rect x="710.0" y="769.0" width="12.0" height="3" fill="#80c9ff" stroke="#0b6cba" /><rect x="684.0" y="826.0" width="12.0" height="3" fill="#ff3c3c" stroke="#c71f1f" /><rect x="697.0" y="826.0" width="12.0" height="3" fill="#35df39" stroke="#03aa10" /><rect x="824.0" y="0.0" width="12.0" height="3" fill="#80c9ff" stroke="#0b6cba" /><rect x="837.0" y="0.0" width="12.0" height="3" fill="#fff874" stroke="#eb9c26" /><rect x="850.0" y="28.5" width="12.0" height="3" fill="#ff83f4" stroke="#d002bc" /><rect x="837.0" y="57.0" width="12.0" height="3" fill="#fff874" stroke="#eb9c26" /><rect x="824.0" y="85.5" width="12.0" height="3" fill="#80c9ff" stroke="#0b6cba" /><rect x="798.0" y="114.0" width="12.0" height="3" fill="#ff3c3c" stroke="#c71f1f" /><rect x="811.0" y="114.0" width="12.0" height="3" fill="#35df39" stroke="#03aa10" /><rect x="811.0" y="142.5" width="12.0" height="3" fill="#35df39" stroke="#03aa10" /><rect x="824.0" y="142.5" width="12.0" height="3" fill="#80c9ff" stroke="#0b6cba" /><rect x="798.0" y="199.5" width="12.0" height="230.85" fill="#ff3c3c" stroke="#c71f1f" /><rect x="824.0" y="199.5" width="12.0" height="230.85" fill="#80c9ff" stroke="#0b6cba" /><rect x="824.0" y="456.0" width="12.0" height="3" fill="#80c9ff" stroke="#0b6cba" /><rect x="837.0" y="456.0" width="12.0" height="3" fill="#fff874" stroke="#eb9c26" /><rect x="824.0" y="484.5" width="12.0" height="3" fill="#80c9ff" stroke="#0b6cba" /><rect x="811.0" y="513.0" width="12.0" height="3" fill="#35df39" stroke="#03aa10" /><rect x="798.0" y="541.5" width="12.0" height="3" fill="#ff3c3c" stroke="#c71f1f" /><rect x="811.0" y="541.5" width="12.0" height="3" fill="#35df39" stroke="#03aa10" /><rect x="824.0" y="627.0" width="12.0" height="3" fill="#80c9ff" stroke="#0b6cba" /><rect x="837.0" y="627.0" width="12.0" height="3" fill="#fff874" stroke="#eb9c26" /><rect x="824.0" y="655.5" width="12.0" height="3" fill="#80c9ff" stroke="#0b6cba" /><rect x="811.0" y="684.0" width="12.0" height="3" fill="#35df39" stroke="#03aa10" /><rect x="798.0" y="712.5" width="12.0" height="3" fill="#ff3c3c" stroke="#c71f1f" /><rect x="811.0" y="712.5" width="12.0" height="3" fill="#35df39" stroke="#03aa10" /><rect x="824.0" y="797.5" width="12.0" height="3" fill="#80c9ff" stroke="#0b6cba" /><rect x="837.0" y="797.5" width="12.0" height="3" fill="#fff874" stroke="#eb9c26" /><rect x="824.0" y="826.0" width="12.0" height="3" fill="#80c9ff" stroke="#0b6cba" /><rect x="811.0" y="854.5" width="12.0" height="3" fill="#35df39" stroke="#03aa10" /><rect x="798.0" y="883.0" width="12.0" height="3" fill="#ff3c3c" stroke="#c71f1f" /><rect x="811.0" y="883.0" width="12.0" height="3" fill="#35df39" stroke="#03aa10" /><rect x="951.0" y="0.0" width="12.0" height="3" fill="#fff874" stroke="#eb9c26" /><rect x="964.0" y="0.0" width="12.0" height="3" fill="#ff83f4" stroke="#d002bc" /><rect x="951.0" y="28.5" width="12.0" height="3" fill="#fff874" stroke="#eb9c26" /><rect x="938.0" y="57.0" width="12.0" height="3" fill="#80c9ff" stroke="#0b6cba" /><rect x="925.0" y="85.5" width="12.0" height="3" fill="#35df39" stroke="#03aa10" /><rect x="938.0" y="85.5" width="12.0" height="3" fill="#80c9ff" stroke="#0b6cba" /><rect x="951.0" y="171.0" width="12.0" height="3" fill="#fff874" stroke="#eb9c26" /><rect x="964.0" y="171.0" width="12.0" height="3" fill="#ff83f4" stroke="#d002bc" /><rect x="951.0" y="199.5" width="12.0" height="3" fill="#fff874" stroke="#eb9c26" /><rect x="938.0" y="228.0" width="12.0" height="3" fill="#80c9ff" stroke="#0b6cba" /><rect x="925.0" y="256.5" width="12.0" height="3" fill="#35df39" stroke="#03aa10" /><rect x="938.0" y="256.5" width="12.0" height="3" fill="#80c9ff" stroke="#0b6cba" /><rect x="951.0" y="342.0" width="12.0" height="3" fill="#fff874" stroke="#eb9c26" /><rect x="964.0" y="342.0" width="12.0" height="3" fill="#ff83f4" stroke="#d002bc" /><rect x="951.0" y="370.5" width="12.0" height="3" fill="#fff874" stroke="#eb9c26" /><rect x="938.0" y="399.0" width="12.0" height="3" fill="#80c9ff" stroke="#0b6cba" /><rect x="925.0" y="427.5" width="12.0" height="3" fill="#35df39" stroke="#03aa10" /><rect x="938.0" y="427.5" width="12.0" height="3" fill="#80c9ff" stroke="#0b6cba" /><rect x="912.0" y="484.5" width="12.0" height="3" fill="#ff3c3c" stroke="#c71f1f" /><rect x="912.0" y="541.5" width="12.0" height="3" fill="#ff3c3c" stroke="#c71f1f" /><rect x="925.0" y="541.5" width="12.0" height="3" fill="#35df39" stroke="#03aa10" /><rect x="912.0" y="598.0" width="12.0" height="3" fill="#ff3c3c" stroke="#c71f1f" /><rect x="938.0" y="598.0" width="12.0" height="3" fill="#80c9ff" stroke="#0b6cba" /><rect x="938.0" y="655.0" width="12.0" height="3" fill="#80c9ff" stroke="#0b6cba" /><rect x="964.0" y="655.0" width="12.0" height="3" fill="#ff83f4" stroke="#d002bc" /><rect x="938.0" y="740.5" width="12.0" height="3" fill="#80c9ff" stroke="#0b6cba" /><rect x="951.0" y="740.5" width="12.0" height="3" fill="#fff874" stroke="#eb9c26" /><rect x="938.0" y="797.5" width="12.0" height="3" fill="#80c9ff" stroke="#0b6cba" /><rect x="964.0" y="797.5" width="12.0" height="3" fill="#ff83f4" stroke="#d002bc" /><rect x="951.0" y="854.5" width="12.0" height="3" fill="#fff874" stroke="#eb9c26" /><rect x="964.0" y="854.5" width="12.0" height="3" fill="#ff83f4" stroke="#d002bc" /><rect x="1039.0" y="0.0" width="12.0" height="3" fill="#35df39" stroke="#03aa10" /><rect x="1065.0" y="0.0" width="12.0" height="3" fill="#fff874" stroke="#eb9c26" /><rect x="1052.0" y="57.0" width="12.0" height="3" fill="#80c9ff" stroke="#0b6cba" /><rect x="1065.0" y="85.5" width="12.0" height="3" fill="#fff874" stroke="#eb9c26" /><rect x="1039.0" y="142.5" width="12.0" height="3" fill="#35df39" stroke="#03aa10" /><rect x="1052.0" y="142.5" width="12.0" height="3" fill="#80c9ff" stroke="#0b6cba" /><rect x="1039.0" y="199.5" width="12.0" height="3" fill="#35df39" stroke="#03aa10" /><rect x="1052.0" y="199.5" width="12.0" height="3" fill="#80c9ff" stroke="#0b6cba" /><rect x="1039.0" y="285.0" width="12.0" height="3" fill="#35df39" stroke="#03aa10" /><rect x="1026.0" y="342.0" width="12.0" height="3" fill="#ff3c3c" stroke="#c71f1f" /><rect x="1039.0" y="342.0" width="12.0" height="3" fill="#35df39" stroke="#03aa10" /><rect x="1026.0" y="398.5" width="12.0" height="3" fill="#ff3c3c" stroke="#c71f1f" /><rect x="1039.0" y="569.5" width="12.0" height="3" fill="#35df39" stroke="#03aa10" /><rect x="1052.0" y="569.5" width="12.0" height="3" fill="#80c9ff" stroke="#0b6cba" /><rect x="1039.0" y="626.5" width="12.0" height="3" fill="#35df39" stroke="#03aa10" /><rect x="1065.0" y="626.5" width="12.0" height="3" fill="#fff874" stroke="#eb9c26" /><rect x="1039.0" y="669.5" width="12.0" height="3" fill="#35df39" stroke="#03aa10" /><rect x="1052.0" y="669.5" width="12.0" height="3" fill="#80c9ff" stroke="#0b6cba" /><rect x="1052.0" y="712.0" width="12.0" height="3" fill="#80c9ff" stroke="#0b6cba" /><rect x="1065.0" y="712.0" width="12.0" height="3" fill="#fff874" stroke="#eb9c26" /><rect x="1026.0" y="740.5" width="12.0" height="3" fill="#ff3c3c" stroke="#c71f1f" /><rect x="1052.0" y="740.5" width="12.0" height="3" fill="#80c9ff" stroke="#0b6cba" /><rect x="1039.0" y="797.5" width="12.0" height="3" fill="#35df39" stroke="#03aa10" /><rect x="1052.0" y="797.5" width="12.0" height="3" fill="#80c9ff" stroke="#0b6cba" /><rect x="1026.0" y="840.0" width="12.0" height="3" fill="#ff3c3c" stroke="#c71f1f" /><rect x="1039.0" y="840.0" width="12.0" height="3" fill="#35df39" stroke="#03aa10" /><rect x="1026.0" y="883.0" width="12.0" height="3" fill="#ff3c3c" stroke="#c71f1f" /><rect x="1052.0" y="883.0" width="12.0" height="3" fill="#80c9ff" stroke="#0b6cba" /><rect x="1140.0" y="14.0" width="12.0" height="3" fill="#ff3c3c" stroke="#c71f1f" /><rect x="1153.0" y="57.0" width="12.0" height="3" fill="#35df39" stroke="#03aa10" /><rect x="1166.0" y="57.0" width="12.0" height="3" fill="#80c9ff" stroke="#0b6cba" /><rect x="1179.0" y="85.5" width="12.0" height="3" fill="#fff874" stroke="#eb9c26" /><rect x="1179.0" y="114.0" width="12.0" height="3" fill="#fff874" stroke="#eb9c26" /><rect x="1192.0" y="114.0" width="12.0" height="3" fill="#ff83f4" stroke="#d002bc" /><rect x="1192.0" y="199.5" width="12.0" height="3" fill="#ff83f4" stroke="#d002bc" /><rect x="1166.0" y="228.0" width="12.0" height="3" fill="#80c9ff" stroke="#0b6cba" /><rect x="1179.0" y="228.0" width="12.0" height="3" fill="#fff874" stroke="#eb9c26" /><rect x="1179.0" y="256.0" width="12.0" height="3" fill="#fff874" stroke="#eb9c26" /><rect x="1166.0" y="284.5" width="12.0" height="3" fill="#80c9ff" stroke="#0b6cba" /><rect x="1153.0" y="313.0" width="12.0" height="3" fill="#35df39" stroke="#03aa10" /><rect x="1166.0" y="341.5" width="12.0" height="3" fill="#80c9ff" stroke="#0b6cba" /><rect x="1192.0" y="341.5" width="12.0" height="3" fill="#ff83f4" stroke="#d002bc" /><rect x="1192.0" y="370.0" width="12.0" height="3" fill="#ff83f4" stroke="#d002bc" /><rect x="1179.0" y="398.5" width="12.0" height="3" fill="#fff874" stroke="#eb9c26" /><rect x="1179.0" y="427.0" width="12.0" height="3" fill="#fff874" stroke="#eb9c26" /><rect x="1166.0" y="455.5" width="12.0" height="3" fill="#80c9ff" stroke="#0b6cba" /><rect x="1179.0" y="455.5" width="12.0" height="3" fill="#fff874" stroke="#eb9c26" /><rect x="1192.0" y="484.0" width="12.0" height="3" fill="#ff83f4" stroke="#d002bc" /><rect x="1166.0" y="512.5" width="12.0" height="3" fill="#80c9ff" stroke="#0b6cba" /><rect x="1179.0" y="512.5" width="12.0" height="3" fill="#fff874" stroke="#eb9c26" /><rect x="1179.0" y="541.0" width="12.0" height="3" fill="#fff874" stroke="#eb9c26" /><rect x="1153.0" y="569.5" width="12.0" height="3" fill="#35df39" stroke="#03aa10" /><rect x="1166.0" y="569.5" width="12.0" height="3" fill="#80c9ff" stroke="#0b6cba" /><rect x="1166.0" y="598.0" width="12.0" height="3" fill="#80c9ff" stroke="#0b6cba" /><rect x="1153.0" y="626.5" width="12.0" height="3" fill="#35df39" stroke="#03aa10" /><rect x="1166.0" y="626.5" width="12.0" height="3" fill="#80c9ff" stroke="#0b6cba" /><rect x="1153.0" y="655.0" width="12.0" height="3" fill="#35df39" stroke="#03aa10" /><rect x="1166.0" y="655.0" width="12.0" height="3" fill="#80c9ff" stroke="#0b6cba" /><rect x="1140.0" y="683.5" width="12.0" height="3" fill="#ff3c3c" stroke="#c71f1f" /><rect x="1153.0" y="712.0" width="12.0" height="3" fill="#35df39" stroke="#03aa10" /><rect x="1140.0" y="740.5" width="12.0" height="3" fill="#ff3c3c" stroke="#c71f1f" /><rect x="1140.0" y="769.0" width="12.0" height="3" fill="#ff3c3c" stroke="#c71f1f" /><rect x="1153.0" y="769.0" width="12.0" height="3" fill="#35df39" stroke="#03aa10" /><rect x="1166.0" y="797.5" width="12.0" height="3" fill="#80c9ff" stroke="#0b6cba" /><rect x="1153.0" y="826.0" width="12.0" height="3" fill="#35df39" stroke="#03aa10" /><rect x="1166.0" y="854.5" width="12.0" height="3" fill="#80c9ff" stroke="#0b6cba" /><rect x="1166.0" y="883.0" width="12.0" height="3" fill="#80c9ff" stroke="#0b6cba" /><rect x="1179.0" y="883.0" width="12.0" height="3" fill="#fff874" stroke="#eb9c26" /><rect x="1280.0" y="57.0" width="12.0" height="3" fill="#80c9ff" stroke="#0b6cba" /><rect x="1267.0" y="85.0" width="12.0" height="3" fill="#35df39" stroke="#03aa10" /><rect x="1254.0" y="113.5" width="12.0" height="3" fill="#ff3c3c" stroke="#c71f1f" /><rect x="1267.0" y="113.5" width="12.0" height="3" fill="#35df39" stroke="#03aa10" /><rect x="1280.0" y="142.0" width="12.0" height="3" fill="#80c9ff" stroke="#0b6cba" /><rect x="1267.0" y="170.5" width="12.0" height="3" fill="#35df39" stroke="#03aa10" /><rect x="1254.0" y="199.0" width="12.0" height="3" fill="#ff3c3c" stroke="#c71f1f" /><rect x="1254.0" y="227.5" width="12.0" height="3" fill="#ff3c3c" stroke="#c71f1f" /><rect x="1280.0" y="227.5" width="12.0" height="3" fill="#80c9ff" stroke="#0b6cba" /><rect x="1267.0" y="284.5" width="12.0" height="3" fill="#35df39" stroke="#03aa10" /><rect x="1254.0" y="299.0" width="12.0" height="3" fill="#ff3c3c" stroke="#c71f1f" /><rect x="1267.0" y="299.0" width="12.0" height="3" fill="#35df39" stroke="#03aa10" /><rect x="1267.0" y="455.5" width="12.0" height="3" fill="#35df39" stroke="#03aa10" /><rect x="1280.0" y="455.5" width="12.0" height="3" fill="#80c9ff" stroke="#0b6cba" /><rect x="1267.0" y="541.0" width="12.0" height="3" fill="#35df39" stroke="#03aa10" /><rect x="1280.0" y="541.0" width="12.0" height="3" fill="#80c9ff" stroke="#0b6cba" /><rect x="1267.0" y="598.0" width="12.0" height="3" fill="#35df39" stroke="#03aa10" /><rect x="1293.0" y="598.0" width="12.0" height="3" fill="#fff874" stroke="#eb9c26" /><rect x="1267.0" y="655.0" width="12.0" height="3" fill="#35df39" stroke="#03aa10" /><rect x="1280.0" y="655.0" width="12.0" height="3" fill="#80c9ff" stroke="#0b6cba" /><rect x="1267.0" y="712.0" width="12.0" height="3" fill="#35df39" stroke="#03aa10" /><rect x="1293.0" y="712.0" width="12.0" height="3" fill="#fff874" stroke="#eb9c26" /><rect x="1267.0" y="797.5" width="12.0" height="3" fill="#35df39" stroke="#03aa10" /><rect x="1280.0" y="797.5" width="12.0" height="3" fill="#80c9ff" stroke="#0b6cba" /><rect x="1267.0" y="854.0" width="12.0" height="3" fill="#35df39" stroke="#03aa10" /><rect x="1293.0" y="854.0" width="12.0" height="3" fill="#fff874" stroke="#eb9c26" /><rect x="1394.0" y="0.0" width="12.0" height="3" fill="#80c9ff" stroke="#0b6cba" /><rect x="1407.0" y="28.5" width="12.0" height="3" fill="#fff874" stroke="#eb9c26" /><rect x="1420.0" y="28.5" width="12.0" height="3" fill="#ff83f4" stroke="#d002bc" /><rect x="1394.0" y="57.0" width="12.0" height="3" fill="#80c9ff" stroke="#0b6cba" /><rect x="1394.0" y="85.5" width="12.0" height="3" fill="#80c9ff" stroke="#0b6cba" /><rect x="1407.0" y="85.5" width="12.0" height="3" fill="#fff874" stroke="#eb9c26" /><rect x="1381.0" y="142.5" width="12.0" height="3" fill="#35df39" stroke="#03aa10" /><rect x="1407.0" y="142.5" width="12.0" height="3" fill="#fff874" stroke="#eb9c26" /><rect x="1394.0" y="199.5" width="12.0" height="230.85" fill="#80c9ff" stroke="#0b6cba" /><rect x="1407.0" y="199.5" width="12.0" height="230.85" fill="#fff874" stroke="#eb9c26" /><rect x="1381.0" y="456.0" width="12.0" height="3" fill="#35df39" stroke="#03aa10" /><rect x="1394.0" y="456.0" width="12.0" height="3" fill="#80c9ff" stroke="#0b6cba" /><rect x="1407.0" y="484.5" width="12.0" height="3" fill="#fff874" stroke="#eb9c26" /><rect x="1420.0" y="513.0" width="12.0" height="3" fill="#ff83f4" stroke="#d002bc" /><rect x="1394.0" y="541.5" width="12.0" height="3" fill="#80c9ff" stroke="#0b6cba" /><rect x="1407.0" y="570.0" width="12.0" height="3" fill="#fff874" stroke="#eb9c26" /><rect x="1420.0" y="598.5" width="12.0" height="3" fill="#ff83f4" stroke="#d002bc" /><rect x="1381.0" y="627.0" width="12.0" height="3" fill="#35df39" stroke="#03aa10" /><rect x="1394.0" y="627.0" width="12.0" height="3" fill="#80c9ff" stroke="#0b6cba" /><rect x="1407.0" y="655.0" width="12.0" height="3" fill="#fff874" stroke="#eb9c26" /><rect x="1407.0" y="683.5" width="12.0" height="3" fill="#fff874" stroke="#eb9c26" /><rect x="1420.0" y="683.5" width="12.0" height="3" fill="#ff83f4" stroke="#d002bc" /><rect x="1420.0" y="712.0" width="12.0" height="3" fill="#ff83f4" stroke="#d002bc" /><rect x="1394.0" y="740.5" width="12.0" height="3" fill="#80c9ff" stroke="#0b6cba" /><rect x="1407.0" y="740.5" width="12.0" height="3" fill="#fff874" stroke="#eb9c26" /><rect x="1381.0" y="797.5" width="12.0" height="3" fill="#35df39" stroke="#03aa10" /><rect x="1394.0" y="797.5" width="12.0" height="3" fill="#80c9ff" stroke="#0b6cba" /><rect x="1381.0" y="854.5" width="12.0" height="3" fill="#35df39" stroke="#03aa10" /><rect x="1407.0" y="854.5" width="12.0" height="3" fill="#fff874" stroke="#eb9c26" /><rect x="1495.0" y="0.0" width="12.0" height="3" fill="#35df39" stroke="#03aa10" /><rect x="1508.0" y="0.0" width="12.0" height="3" fill="#80c9ff" stroke="#0b6cba" /><rect x="1495.0" y="57.0" width="12.0" height="3" fill="#35df39" stroke="#03aa10" /><rect x="1495.0" y="85.5" width="12.0" height="3" fill="#35df39" stroke="#03aa10" /><rect x="1482.0" y="142.5" width="12.0" height="3" fill="#ff3c3c" stroke="#c71f1f" /><rect x="1495.0" y="142.5" width="12.0" height="3" fill="#35df39" stroke="#03aa10" /><rect x="1495.0" y="199.5" width="12.0" height="230.85" fill="#35df39" stroke="#03aa10" /><rect x="1508.0" y="199.5" width="12.0" height="230.85" fill="#80c9ff" stroke="#0b6cba" /><rect x="1482.0" y="456.0" width="12.0" height="3" fill="#ff3c3c" stroke="#c71f1f" /><rect x="1508.0" y="456.0" width="12.0" height="3" fill="#80c9ff" stroke="#0b6cba" /><rect x="1482.0" y="541.0" width="12.0" height="3" fill="#ff3c3c" stroke="#c71f1f" /><rect x="1495.0" y="541.0" width="12.0" height="3" fill="#35df39" stroke="#03aa10" /><rect x="1482.0" y="598.0" width="12.0" height="3" fill="#ff3c3c" stroke="#c71f1f" /><rect x="1495.0" y="598.0" width="12.0" height="3" fill="#35df39" stroke="#03aa10" /><rect x="1482.0" y="655.0" width="12.0" height="3" fill="#ff3c3c" stroke="#c71f1f" /><rect x="1508.0" y="655.0" width="12.0" height="3" fill="#80c9ff" stroke="#0b6cba" /><rect x="1482.0" y="740.5" width="12.0" height="3" fill="#ff3c3c" stroke="#c71f1f" /><rect x="1508.0" y="740.5" width="12.0" height="3" fill="#80c9ff" stroke="#0b6cba" /><rect x="1622.0" y="28.5" width="12.0" height="3" fill="#80c9ff" stroke="#0b6cba" /><rect x="1648.0" y="28.5" width="12.0" height="3" fill="#ff83f4" stroke="#d002bc" /><rect x="1635.0" y="114.0" width="12.0" height="3" fill="#fff874" stroke="#eb9c26" /><rect x="1648.0" y="114.0" width="12.0" height="3" fill="#ff83f4" stroke="#d002bc" /><rect x="1635.0" y="171.0" width="12.0" height="3" fill="#fff874" stroke="#eb9c26" /><rect x="1648.0" y="171.0" width="12.0" height="3" fill="#ff83f4" stroke="#d002bc" /><rect x="1622.0" y="228.0" width="12.0" height="3" fill="#80c9ff" stroke="#0b6cba" /><rect x="1648.0" y="228.0" width="12.0" height="3" fill="#ff83f4" stroke="#d002bc" /><rect x="1622.0" y="341.5" width="12.0" height="115.65" fill="#80c9ff" stroke="#0b6cba" /><rect x="1648.0" y="341.5" width="12.0" height="115.65" fill="#ff83f4" stroke="#d002bc" /><rect x="1609.0" y="470.0" width="12.0" height="3" fill="#35df39" stroke="#03aa10" /><rect x="1622.0" y="470.0" width="12.0" height="3" fill="#80c9ff" stroke="#0b6cba" /></svg>