<?xml version="1.0" encoding="UTF-8"?><svg xmlns="http://www.w3.org/2000/svg" xmlns:xlink="http://www.w3.org/1999/xlink"     width="4284" height="868.0" viewBox="0 0 4284 868.0"><defs></defs><rect x="0" y="20.0" width="188" height="848.0" fill="black" /><rect x="0" y="867.0" width="188" height="1" fill="white" fill-opacity="0.5" /><text x="198" y="867.0" font-size="14" fill="white" font-family="monospace" dominant-baseline="initial">1</text><rect x="0" y="814.0" width="188" height="1" fill="white" fill-opacity="0.2" /><rect x="0" y="761.0" width="188" height="1" fill="white" fill-opacity="0.2" /><rect x="0" y="708.0" width="188" height="1" fill="white" fill-opacity="0.2" /><rect x="0" y="655.0" width="188" height="1" fill="white" fill-opacity="0.5" /><text x="198" y="655.0" font-size="14" fill="white" font-family="monospace" dominant-baseline="initial">2</text><rect x="0" y="602.0" width="188" height="1" fill="white" fill-opacity="0.2" /><rect x="0" y="549.0" width="188" height="1" fill="white" fill-opacity="0.2" /><rect x="0" y="496.0" width="188" height="1" fill="white" fill-opacity="0.2" /><rect x="0" y="443.0" width="188" height="1" fill="white" fill-opacity="0.5" /><text x="198" y="443.0" font-size="14" fill="white" font-family="monospace" dominant-baseline="initial">3</text><rect x="0" y="390.0" width="188" height="1" fill="white" fill-opacity="0.2" /><rect x="0" y="337.0" width="188" height="1" fill="white" fill-opacity="0.2" /><rect x="0" y="284.0" width="188" height="1" fill="white" fill-opacity="0.2" /><rect x="0" y="231.0" width="188" height="1" fill="white" fill-opacity="0.5" /><text x="198" y="231.0" font-size="14" fill="white" font-family="monospace" dominant-baseline="initial">4</text><rect x="0" y="178.0" width="188" height="1" fill="white" fill-opacity="0.2" /><rect x="0" y="125.0" width="188" height="1" fill="white" fill-opacity="0.2" /><rect x="0" y="72.0" width="188" height="1" fill="white" fill-opacity="0.2" /><rect x="0" y="19.0" width="188" height="1" fill="white" fill-opacity="0.5" /><text x="198" y="19.0" font-size="14" fill="white" font-family="monospace" dominant-baseline="initial">5</text><rect x="0" y="867.0" width="188" height="1" fill="aqua" fill-opacity="0.75" /><text x="0" y="863.0" font-size="14" fill="aqua" fill-opacity="0.75" font-family="monospace">Intro</text><rect x="0" y="867.0" width="188" height="1" fill="lime" fill-opacity="0.75" /><text x="198" y="854.0" font-size="14" fill="lime" font-family="monospace" dominant-baseline="initial">169.8</text><rect x="238" y="20.0" width="188" height="848.0" fill="black" /><rect x="238" y="867.0" width="188" height="1" fill="white" fill-opacity="0.5" /><text x="436" y="867.0" font-size="14" fill="white" font-family="monospace" dominant-baseline="initial">5</text><rect x="238" y="814.0" width="188" height="1" fill="white" fill-opacity="0.2" /><rect x="238" y="761.0" width="188" height="1" fill="white" fill-opacity="0.2" /><rect x="238" y="708.0" width="188" height="1" fill="white" fill-opacity="0.2" /><rect x="238" y="655.0" width="188" height="1" fill="white" fill-opacity="0.5" /><text x="436" y="655.0" font-size="14" fill="white" font-family="monospace" dominant-baseline="initial">6</text><rect x="238" y="602.0" width="188" height="1" fill="white" fill-opacity="0.2" /><rect x="238" y="549.0" width="188" height="1" fill="white" fill-opacity="0.2" /><rect x="238" y="496.0" width="188" height="1" fill="white" fill-opacity="0.2" /><rect x="238" y="443.0" width="188" height="1" fill="white" fill-opacity="0.5" /><text x="436" y="443.0" font-size="14" fill="white" font-family="monospace" dominant-baseline="initial">7</text><rect x="238" y="390.0" width="188" height="1" fill="white" fill-opacity="0.2" /><rect x="238" y="337.0" width="188" height="1" fill="white" fill-opacity="0.2" /><rect x="238" y="284.0" width="188" height="1" fill="white" fill-opacity="0.2" /><rect x="238" y="231.0" width="188" height="1" fill="white" fill-opacity="0.5" /><text x="436" y="231.0" font-size="14" fill="white" font-family="monospace" dominant-baseline="initial">8</text><rect x="238" y="178.0" width="188" height="1" fill="white" fill-opacity="0.2" /><rect x="238" y="125.0" width="188" height="1" fill="white" fill-opacity="0.2" /><rect x="238" y="72.0" width="188" height="1" fill="white" fill-opacity="0.2" /><rect x="238" y="19.0" width="188" height="1" fill="white" fill-opacity="0.5" /><text x="436" y="19.0" font-size="14" fill="white" font-family="monospace" dominant-baseline="initial">9</text><rect x="476" y="20.0" width="188" height="848.0" fill="black" /><rect x="476" y="867.0" width="188" height="1" fill="white" fill-opacity="0.5" /><text x="674" y="867.0" font-size="14" fill="white" font-family="monospace" dominant-baseline="initial">9</text><rect x="476" y="814.0" width="188" height="1" fill="white" fill-opacity="0.2" /><rect x="476" y="761.0" width="188" height="1" fill="white" fill-opacity="0.2" /><rect x="476" y="708.0" width="188" height="1" fill="white" fill-opacity="0.2" /><rect x="476" y="655.0" width="188" height="1" fill="white" fill-opacity="0.5" /><text x="674" y="655.0" font-size="14" fill="white" font-family="monospace" dominant-baseline="initial">10</text><rect x="476" y="602.0" width="188" height="1" fill="white" fill-opacity="0.2" /><rect x="476" y="549.0" width="188" height="1" fill="white" fill-opacity="0.2" /><rect x="476" y="496.0" width="188" height="1" fill="white" fill-opacity="0.2" /><rect x="476" y="443.0" width="188" height="1" fill="white" fill-opacity="0.5" /><text x="674" y="443.0" font-size="14" fill="white" font-family="monospace" dominant-baseline="initial">11</text><rect x="476" y="390.0" width="188" height="1" fill="white" fill-opacity="0.2" /><rect x="476" y="337.0" width="188" height="1" fill="white" fill-opacity="0.2" /><rect x="476" y="284.0" width="188" height="1" fill="white" fill-opacity="0.2" /><rect x="476" y="231.0" width="188" height="1" fill="white" fill-opacity="0.5" /><text x="674" y="231.0" font-size="14" fill="white" font-family="monospace" dominant-baseline="initial">12</text><rect x="476" y="178.0" width="188" height="1" fill="white" fill-opacity="0.2" /><rect x="476" y="125.0" width="188" height="1" fill="white" fill-opacity="0.2" /><rect x="476" y="72.0" width="188" height="1" fill="white" fill-opacity="0.2" /><rect x="476" y="19.0" width="188" height="1" fill="white" fill-opacity="0.5" /><text x="674" y="19.0" font-size="14" fill="white" font-family="monospace" dominant-baseline="initial">13</text><rect x="476" y="231.0" width="188" height="1" fill="lime" fill-opacity="0.75" /><text x="674" y="218.0" font-size="14" fill="lime" font-family="monospace" dominant-baseline="initial">170</text><rect x="714" y="21.0" width="188" height="847.0" fill="black" /><rect x="714" y="867.0" width="188" height="1" fill="white" fill-opacity="0.5" /><text x="912" y="867.0" font-size="14" fill="white" font-family="monospace" dominant-baseline="initial">13</text><rect x="714" y="814.0" width="188" height="1" fill="white" fill-opacity="0.2" /><rect x="714" y="761.0" width="188" height="1" fill="white" fill-opacity="0.2" /><rect x="714" y="708.5" width="188" height="1" fill="white" fill-opacity="0.2" /><rect x="714" y="655.5" width="188" height="1" fill="white" fill-opacity="0.5" /><text x="912" y="655.5" font-size="14" fill="white" font-family="monospace" dominant-baseline="initial">14</text><rect x="714" y="602.5" width="188" height="1" fill="white" fill-opacity="0.2" /><rect x="714" y="549.5" width="188" height="1" fill="white" fill-opacity="0.2" /><rect x="714" y="496.5" width="188" height="1" fill="white" fill-opacity="0.2" /><rect x="714" y="443.5" width="188" height="1" fill="white" fill-opacity="0.5" /><text x="912" y="443.5" font-size="14" fill="white" font-family="monospace" dominant-baseline="initial">15</text><rect x="714" y="390.5" width="188" height="1" fill="white" fill-opacity="0.2" /><rect x="714" y="337.5" width="188" height="1" fill="white" fill-opacity="0.2" /><rect x="714" y="284.5" width="188" height="1" fill="white" fill-opacity="0.2" /><rect x="714" y="232.0" width="188" height="1" fill="white" fill-opacity="0.5" /><text x="912" y="232.0" font-size="14" fill="white" font-family="monospace" dominant-baseline="initial">16</text><rect x="714" y="179.0" width="188" height="1" fill="white" fill-opacity="0.2" /><rect x="714" y="126.0" width="188" height="1" fill="white" fill-opacity="0.2" /><rect x="714" y="73.0" width="188" height="1" fill="white" fill-opacity="0.2" /><rect x="714" y="20.0" width="188" height="1" fill="white" fill-opacity="0.5" /><text x="912" y="20.0" font-size="14" fill="white" font-family="monospace" dominant-baseline="initial">17</text><rect x="714" y="655.3499999999999" width="188" height="1" fill="aqua" fill-opacity="0.75" /><text x="714" y="651.3499999999999" font-size="14" fill="aqua" fill-opacity="0.75" font-family="monospace">Phrase A</text><rect x="952" y="21.0" width="188" height="847.0" fill="black" /><rect x="952" y="867.0" width="188" height="1" fill="white" fill-opacity="0.5" /><text x="1150" y="867.0" font-size="14" fill="white" font-family="monospace" dominant-baseline="initial">17</text><rect x="952" y="814.0" width="188" height="1" fill="white" fill-opacity="0.2" /><rect x="952" y="761.0" width="188" height="1" fill="white" fill-opacity="0.2" /><rect x="952" y="708.0" width="188" height="1" fill="white" fill-opacity="0.2" /><rect x="952" y="655.5" width="188" height="1" fill="white" fill-opacity="0.5" /><text x="1150" y="655.5" font-size="14" fill="white" font-family="monospace" dominant-baseline="initial">18</text><rect x="952" y="602.5" width="188" height="1" fill="white" fill-opacity="0.2" /><rect x="952" y="549.5" width="188" height="1" fill="white" fill-opacity="0.2" /><rect x="952" y="496.5" width="188" height="1" fill="white" fill-opacity="0.2" /><rect x="952" y="443.5" width="188" height="1" fill="white" fill-opacity="0.5" /><text x="1150" y="443.5" font-size="14" fill="white" font-family="monospace" dominant-baseline="initial">19</text><rect x="952" y="390.5" width="188" height="1" fill="white" fill-opacity="0.2" /><rect x="952" y="337.5" width="188" height="1" fill="white" fill-opacity="0.2" /><rect x="952" y="284.5" width="188" height="1" fill="white" fill-opacity="0.2" /><rect x="952" y="231.5" width="188" height="1" fill="white" fill-opacity="0.5" /><text x="1150" y="231.5" font-size="14" fill="white" font-family="monospace" dominant-baseline="initial">20</text><rect x="952" y="179.0" width="188" height="1" fill="white" fill-opacity="0.2" /><rect x="952" y="126.0" width="188" height="1" fill="white" fill-opacity="0.2" /><rect x="952" y="73.0" width="188" height="1" fill="white" fill-opacity="0.2" /><rect x="952" y="20.0" width="188" height="1" fill="white" fill-opacity="0.5" /><text x="1150" y="20.0" font-size="14" fill="white" font-family="monospace" dominant-baseline="initial">21</text><rect x="1190" y="21.0" width="188" height="847.0" fill="black" /><rect x="1190" y="867.0" width="188" height="1" fill="white" fill-opacity="0.5" /><text x="1388" y="867.0" font-size="14" fill="white" font-family="monospace" dominant-baseline="initial">21</text><rect x="1190" y="814.0" width="188" height="1" fill="white" fill-opacity="0.2" /><rect x="1190" y="761.0" width="188" height="1" fill="white" fill-opacity="0.2" /><rect x="1190" y="708.0" width="188" height="1" fill="white" fill-opacity="0.2" /><rect x="1190" y="655.0" width="188" height="1" fill="white" fill-opacity="0.5" /><text x="1388" y="655.0" font-size="14" fill="white" font-family="monospace" dominant-baseline="initial">22</text><rect x="1190" y="602.5" width="188" height="1" fill="white" fill-opacity="0.2" /><rect x="1190" y="549.5" width="188" height="1" fill="white" fill-opacity="0.2" /><rect x="1190" y="496.5" width="188" height="1" fill="white" fill-opacity="0.2" /><rect x="1190" y="443.5" width="188" height="1" fill="white" fill-opacity="0.5" /><text x="1388" y="443.5" font-size="14" fill="white" font-family="monospace" dominant-baseline="initial">23</text><rect x="1190" y="390.5" width="188" height="1" fill="white" fill-opacity="0.2" /><rect x="1190" y="337.5" width="188" height="1" fill="white" fill-opacity="0.2" /><rect x="1190" y="284.5" width="188" height="1" fill="white" fill-opacity="0.2" /><rect x="1190" y="231.5" width="188" height="1" fill="white" fill-opacity="0.5" /><text x="1388" y="231.5" font-size="14" fill="white" font-family="monospace" dominant-baseline="initial">24</text><rect x="1190" y="178.5" width="188" height="1" fill="white" fill-opacity="0.2" /><rect x="1190" y="126.0" width="188" height="1" fill="white" fill-opacity="0.2" /><rect x="1190" y="73.0" width="188" height="1" fill="white" fill-opacity="0.2" /><rect x="1190" y="20.0" width="188" height="1" fill="white" fill-opacity="0.5" /><text x="1388" y="20.0" font-size="14" fill="white" font-family="monospace" dominant-baseline="initial">25</text><rect x="1428" y="21.0" width="188" height="847.0" fill="black" /><rect x="1428" y="867.0" width="188" height="1" fill="white" fill-opacity="0.5" /><text x="1626" y="867.0" font-size="14" fill="white" font-family="monospace" dominant-baseline="initial">25</text><rect x="1428" y="814.0" width="188" height="1" fill="white" fill-opacity="0.2" /><rect x="1428" y="761.0" width="188" height="1" fill="white" fill-opacity="0.2" /><rect x="1428" y="708.0" width="188" height="1" fill="white" fill-opacity="0.2" /><rect x="1428" y="655.0" width="188" height="1" fill="white" fill-opacity="0.5" /><text x="1626" y="655.0" font-size="14" fill="white" font-family="monospace" dominant-baseline="initial">26</text><rect x="1428" y="602.0" width="188" height="1" fill="white" fill-opacity="0.2" /><rect x="1428" y="549.5" width="188" height="1" fill="white" fill-opacity="0.2" /><rect x="1428" y="496.5" width="188" height="1" fill="white" fill-opacity="0.2" /><rect x="1428" y="443.5" width="188" height="1" fill="white" fill-opacity="0.5" /><text x="1626" y="443.5" font-size="14" fill="white" font-family="monospace" dominant-baseline="initial">27</text><rect x="1428" y="390.5" width="188" height="1" fill="white" fill-opacity="0.2" /><rect x="1428" y="337.5" width="188" height="1" fill="white" fill-opacity="0.2" /><rect x="1428" y="284.5" width="188" height="1" fill="white" fill-opacity="0.2" /><rect x="1428" y="231.5" width="188" height="1" fill="white" fill-opacity="0.5" /><text x="1626" y="231.5" font-size="14" fill="white" font-family="monospace" dominant-baseline="initial">28</text><rect x="1428" y="178.5" width="188" height="1" fill="white" fill-opacity="0.2" /><rect x="1428" y="125.5" width="188" height="1" fill="white" fill-opacity="0.2" /><rect x="1428" y="73.0" width="188" height="1" fill="white" fill-opacity="0.2" /><rect x="1428" y="20.0" width="188" height="1" fill="white" fill-opacity="0.5" /><text x="1626" y="20.0" font-size="14" fill="white" font-family="monospace" dominant-baseline="initial">29</text><rect x="1666" y="20.0" width="188" height="848.0" fill="black" /><rect x="1666" y="867.0" width="188" height="1" fill="white" fill-opacity="0.5" /><text x="1864" y="867.0" font-size="14" fill="white" font-family="monospace" dominant-baseline="initial">29</text><rect x="1666" y="814.0" width="188" height="1" fill="white" fill-opacity="0.2" /><rect x="1666" y="761.0" width="188" height="1" fill="white" fill-opacity="0.2" /><rect x="1666" y="708.0" width="188" height="1" fill="white" fill-opacity="0.2" /><rect x="1666" y="655.0" width="188" height="1" fill="white" fill-opacity="0.5" /><text x="1864" y="655.0" font-size="14" fill="white" font-family="monospace" dominant-baseline="initial">30</text><rect x="1666" y="602.0" width="188" height="1" fill="white" fill-opacity="0.2" /><rect x="1666" y="549.0" width="188" height="1" fill="white" fill-opacity="0.2" /><rect x="1666" y="496.0" width="188" height="1" fill="white" fill-opacity="0.2" /><rect x="1666" y="443.0" width="188" height="1" fill="white" fill-opacity="0.5" /><text x="1864" y="443.0" font-size="14" fill="white" font-family="monospace" dominant-baseline="initial">31</text><rect x="1666" y="390.0" width="188" height="1" fill="white" fill-opacity="0.2" /><rect x="1666" y="337.0" width="188" height="1" fill="white" fill-opacity="0.2" /><rect x="1666" y="284.0" width="188" height="1" fill="white" fill-opacity="0.2" /><rect x="1666" y="231.0" width="188" height="1" fill="white" fill-opacity="0.5" /><text x="1864" y="231.0" font-size="14" fill="white" font-family="monospace" dominant-baseline="initial">32</text><rect x="1666" y="178.0" width="188" height="1" fill="white" fill-opacity="0.2" /><rect x="1666" y="125.0" width="188" height="1" fill="white" fill-opacity="0.2" /><rect x="1666" y="72.0" width="188" height="1" fill="white" fill-opacity="0.2" /><rect x="1666" y="19.0" width="188" height="1" fill="white" fill-opacity="0.5" /><text x="1864" y="19.0" font-size="14" fill="white" font-family="monospace" dominant-baseline="initial">33</text><rect x="1666" y="655.1500000000005" width="188" height="1" fill="aqua" fill-opacity="0.75" /><text x="1666" y="651.1500000000005" font-size="14" fill="aqua" fill-opacity="0.75" font-family="monospace">Special</text><rect x="1666" y="655.0" width="188" height="1" fill="lime" fill-opacity="0.75" /><text x="1864" y="642.0" font-size="14" fill="lime" font-family="monospace" dominant-baseline="initial">169.8</text><rect x="1904" y="21.5" width="188" height="846.5" fill="black" /><rect x="1904" y="867.0" width="188" height="1" fill="white" fill-opacity="0.5" /><text x="2102" y="867.0" font-size="14" fill="white" font-family="monospace" dominant-baseline="initial">33</text><rect x="1904" y="814.0" width="188" height="1" fill="white" fill-opacity="0.2" /><rect x="1904" y="761.0" width="188" height="1" fill="white" fill-opacity="0.2" /><rect x="1904" y="708.5" width="188" height="1" fill="white" fill-opacity="0.2" /><rect x="1904" y="656.5" width="188" height="1" fill="white" fill-opacity="0.5" /><text x="2102" y="656.5" font-size="14" fill="white" font-family="monospace" dominant-baseline="initial">34</text><rect x="1904" y="603.5" width="188" height="1" fill="white" fill-opacity="0.2" /><rect x="1904" y="550.5" width="188" height="1" fill="white" fill-opacity="0.2" /><rect x="1904" y="497.5" width="188" height="1" fill="white" fill-opacity="0.2" /><rect x="1904" y="444.5" width="188" height="1" fill="white" fill-opacity="0.5" /><text x="2102" y="444.5" font-size="14" fill="white" font-family="monospace" dominant-baseline="initial">35</text><rect x="1904" y="391.5" width="188" height="1" fill="white" fill-opacity="0.2" /><rect x="1904" y="338.5" width="188" height="1" fill="white" fill-opacity="0.2" /><rect x="1904" y="285.5" width="188" height="1" fill="white" fill-opacity="0.2" /><rect x="1904" y="232.5" width="188" height="1" fill="white" fill-opacity="0.5" /><text x="2102" y="232.5" font-size="14" fill="white" font-family="monospace" dominant-baseline="initial">36</text><rect x="1904" y="179.5" width="188" height="1" fill="white" fill-opacity="0.2" /><rect x="1904" y="126.5" width="188" height="1" fill="white" fill-opacity="0.2" /><rect x="1904" y="73.5" width="188" height="1" fill="white" fill-opacity="0.2" /><rect x="1904" y="20.5" width="188" height="1" fill="white" fill-opacity="0.5" /><text x="2102" y="20.5" font-size="14" fill="white" font-family="monospace" dominant-baseline="initial">37</text><rect x="1904" y="761.0" width="188" height="1" fill="lime" fill-opacity="0.75" /><text x="2102" y="762.0" font-size="14" fill="lime" font-family="monospace" dominant-baseline="initial">172.0</text><rect x="1904" y="656.5" width="188" height="1" fill="lime" fill-opacity="0.75" /><text x="2102" y="643.5" font-size="14" fill="lime" font-family="monospace" dominant-baseline="initial">169.8</text><rect x="2142" y="20.0" width="188" height="848.0" fill="black" /><rect x="2142" y="867.0" width="188" height="1" fill="white" fill-opacity="0.5" /><text x="2340" y="867.0" font-size="14" fill="white" font-family="monospace" dominant-baseline="initial">37</text><rect x="2142" y="814.0" width="188" height="1" fill="white" fill-opacity="0.2" /><rect x="2142" y="761.0" width="188" height="1" fill="white" fill-opacity="0.2" /><rect x="2142" y="708.0" width="188" height="1" fill="white" fill-opacity="0.2" /><rect x="2142" y="655.0" width="188" height="1" fill="white" fill-opacity="0.5" /><text x="2340" y="655.0" font-size="14" fill="white" font-family="monospace" dominant-baseline="initial">38</text><rect x="2142" y="602.0" width="188" height="1" fill="white" fill-opacity="0.2" /><rect x="2142" y="549.0" width="188" height="1" fill="white" fill-opacity="0.2" /><rect x="2142" y="496.0" width="188" height="1" fill="white" fill-opacity="0.2" /><rect x="2142" y="443.0" width="188" height="1" fill="white" fill-opacity="0.5" /><text x="2340" y="443.0" font-size="14" fill="white" font-family="monospace" dominant-baseline="initial">39</text><rect x="2142" y="390.0" width="188" height="1" fill="white" fill-opacity="0.2" /><rect x="2142" y="337.0" width="188" height="1" fill="white" fill-opacity="0.2" /><rect x="2142" y="284.0" width="188" height="1" fill="white" fill-opacity="0.2" /><rect x="2142" y="231.0" width="188" height="1" fill="white" fill-opacity="0.5" /><text x="2340" y="231.0" font-size="14" fill="white" font-family="monospace" dominant-baseline="initial">40</text><rect x="2142" y="178.0" width="188" height="1" fill="white" fill-opacity="0.2" /><rect x="2142" y="125.0" width="188" height="1" fill="white" fill-opacity="0.2" /><rect x="2142" y="72.0" width="188" height="1" fill="white" fill-opacity="0.2" /><rect x="2142" y="19.0" width="188" height="1" fill="white" fill-opacity="0.5" /><text x="2340" y="19.0" font-size="14" fill="white" font-family="monospace" dominant-baseline="initial">41</text><rect x="2142" y="654.8000000000002" width="188" height="1" fill="aqua" fill-opacity="0.75" /><text x="2142" y="650.8000000000002" font-size="14" fill="aqua" fill-opacity="0.75" font-family="monospace">Phrase A</text><rect x="2380" y="20.5" width="188" height="847.5" fill="black" /><rect x="2380" y="867.0" width="188" height="1" fill="white" fill-opacity="0.5" /><text x="2578" y="867.0" font-size="14" fill="white" font-family="monospace" dominant-baseline="initial">41</text><rect x="2380" y="814.0" width="188" height="1" fill="white" fill-opacity="0.2" /><rect x="2380" y="761.0" width="188" height="1" fill="white" fill-opacity="0.2" /><rect x="2380" y="708.0" width="188" height="1" fill="white" fill-opacity="0.2" /><rect x="2380" y="655.0" width="188" height="1" fill="white" fill-opacity="0.5" /><text x="2578" y="655.0" font-size="14" fill="white" font-family="monospace" dominant-baseline="initial">42</text><rect x="2380" y="602.0" width="188" height="1" fill="white" fill-opacity="0.2" /><rect x="2380" y="549.0" width="188" height="1" fill="white" fill-opacity="0.2" /><rect x="2380" y="496.0" width="188" height="1" fill="white" fill-opacity="0.2" /><rect x="2380" y="443.0" width="188" height="1" fill="white" fill-opacity="0.5" /><text x="2578" y="443.0" font-size="14" fill="white" font-family="monospace" dominant-baseline="initial">43</text><rect x="2380" y="390.0" width="188" height="1" fill="white" fill-opacity="0.2" /><rect x="2380" y="337.0" width="188" height="1" fill="white" fill-opacity="0.2" /><rect x="2380" y="284.0" width="188" height="1" fill="white" fill-opacity="0.2" /><rect x="2380" y="231.0" width="188" height="1" fill="white" fill-opacity="0.5" /><text x="2578" y="231.0" font-size="14" fill="white" font-family="monospace" dominant-baseline="initial">44</text><rect x="2380" y="178.5" width="188" height="1" fill="white" fill-opacity="0.2" /><rect x="2380" y="125.5" width="188" height="1" fill="white" fill-opacity="0.2" /><rect x="2380" y="72.5" width="188" height="1" fill="white" fill-opacity="0.2" /><rect x="2380" y="19.5" width="188" height="1" fill="white" fill-opacity="0.5" /><text x="2578" y="19.5" font-size="14" fill="white" font-family="monospace" dominant-baseline="initial">45</text><rect x="2380" y="655.0" width="188" height="1" fill="lime" fill-opacity="0.75" /><text x="2578" y="642.0" font-size="14" fill="lime" font-family="monospace" dominant-baseline="initial">170</text><rect x="2618" y="21.0" width="188" height="847.0" fill="black" /><rect x="2618" y="867.0" width="188" height="1" fill="white" fill-opacity="0.5" /><text x="2816" y="867.0" font-size="14" fill="white" font-family="monospace" dominant-baseline="initial">45</text><rect x="2618" y="814.0" width="188" height="1" fill="white" fill-opacity="0.2" /><rect x="2618" y="761.0" width="188" height="1" fill="white" fill-opacity="0.2" /><rect x="2618" y="708.0" width="188" height="1" fill="white" fill-opacity="0.2" /><rect x="2618" y="655.0" width="188" height="1" fill="white" fill-opacity="0.5" /><text x="2816" y="655.0" font-size="14" fill="white" font-family="monospace" dominant-baseline="initial">46</text><rect x="2618" y="602.5" width="188" height="1" fill="white" fill-opacity="0.2" /><rect x="2618" y="549.5" width="188" height="1" fill="white" fill-opacity="0.2" /><rect x="2618" y="496.5" width="188" height="1" fill="white" fill-opacity="0.2" /><rect x="2618" y="443.5" width="188" height="1" fill="white" fill-opacity="0.5" /><text x="2816" y="443.5" font-size="14" fill="white" font-family="monospace" dominant-baseline="initial">47</text><rect x="2618" y="390.5" width="188" height="1" fill="white" fill-opacity="0.2" /><rect x="2618" y="337.5" width="188" height="1" fill="white" fill-opacity="0.2" /><rect x="2618" y="284.5" width="188" height="1" fill="white" fill-opacity="0.2" /><rect x="2618" y="231.5" width="188" height="1" fill="white" fill-opacity="0.5" /><text x="2816" y="231.5" font-size="14" fill="white" font-family="monospace" dominant-baseline="initial">48</text><rect x="2618" y="178.5" width="188" height="1" fill="white" fill-opacity="0.2" /><rect x="2618" y="126.0" width="188" height="1" fill="white" fill-opacity="0.2" /><rect x="2618" y="73.0" width="188" height="1" fill="white" fill-opacity="0.2" /><rect x="2618" y="20.0" width="188" height="1" fill="white" fill-opacity="0.5" /><text x="2816" y="20.0" font-size="14" fill="white" font-family="monospace" dominant-baseline="initial">49</text><rect x="2856" y="21.0" width="188" height="847.0" fill="black" /><rect x="2856" y="867.0" width="188" height="1" fill="white" fill-opacity="0.5" /><text x="3054" y="867.0" font-size="14" fill="white" font-family="monospace" dominant-baseline="initial">49</text><rect x="2856" y="814.0" width="188" height="1" fill="white" fill-opacity="0.2" /><rect x="2856" y="761.0" width="188" height="1" fill="white" fill-opacity="0.2" /><rect x="2856" y="708.0" width="188" height="1" fill="white" fill-opacity="0.2" /><rect x="2856" y="655.0" width="188" height="1" fill="white" fill-opacity="0.5" /><text x="3054" y="655.0" font-size="14" fill="white" font-family="monospace" dominant-baseline="initial">50</text><rect x="2856" y="602.0" width="188" height="1" fill="white" fill-opacity="0.2" /><rect x="2856" y="549.5" width="188" height="1" fill="white" fill-opacity="0.2" /><rect x="2856" y="496.5" width="188" height="1" fill="white" fill-opacity="0.2" /><rect x="2856" y="443.5" width="188" height="1" fill="white" fill-opacity="0.5" /><text x="3054" y="443.5" font-size="14" fill="white" font-family="monospace" dominant-baseline="initial">51</text><rect x="2856" y="390.5" width="188" height="1" fill="white" fill-opacity="0.2" /><rect x="2856" y="337.5" width="188" height="1" fill="white" fill-opacity="0.2" /><rect x="2856" y="284.5" width="188" height="1" fill="white" fill-opacity="0.2" /><rect x="2856" y="231.5" width="188" height="1" fill="white" fill-opacity="0.5" /><text x="3054" y="231.5" font-size="14" fill="white" font-family="monospace" dominant-baseline="initial">52</text><rect x="2856" y="178.5" width="188" height="1" fill="white" fill-opacity="0.2" /><rect x="2856" y="125.5" width="188" height="1" fill="white" fill-opacity="0.2" /><rect x="2856" y="73.0" width="188" height="1" fill="white" fill-opacity="0.2" /><rect x="2856" y="20.0" width="188" height="1" fill="white" fill-opacity="0.5" /><text x="3054" y="20.0" font-size="14" fill="white" font-family="monospace" dominant-baseline="initial">53</text><rect x="3094" y="22.5" width="188" height="845.5" fill="black" /><rect x="3094" y="867.0" width="188" height="1" fill="white" fill-opacity="0.5" /><text x="3292" y="867.0" font-size="14" fill="white" font-family="monospace" dominant-baseline="initial">53</text><rect x="3094" y="814.5" width="188" height="1" fill="white" fill-opacity="0.2" /><rect x="3094" y="762.0" width="188" height="1" fill="white" fill-opacity="0.2" /><rect x="3094" y="710.0" width="188" height="1" fill="white" fill-opacity="0.2" /><rect x="3094" y="657.5" width="188" height="1" fill="white" fill-opacity="0.5" /><text x="3292" y="657.5" font-size="14" fill="white" font-family="monospace" dominant-baseline="initial">54</text><rect x="3094" y="604.5" width="188" height="1" fill="white" fill-opacity="0.2" /><rect x="3094" y="551.5" width="188" height="1" fill="white" fill-opacity="0.2" /><rect x="3094" y="498.5" width="188" height="1" fill="white" fill-opacity="0.2" /><rect x="3094" y="445.5" width="188" height="1" fill="white" fill-opacity="0.5" /><text x="3292" y="445.5" font-size="14" fill="white" font-family="monospace" dominant-baseline="initial">55</text><rect x="3094" y="392.5" width="188" height="1" fill="white" fill-opacity="0.2" /><rect x="3094" y="339.5" width="188" height="1" fill="white" fill-opacity="0.2" /><rect x="3094" y="286.5" width="188" height="1" fill="white" fill-opacity="0.2" /><rect x="3094" y="233.5" width="188" height="1" fill="white" fill-opacity="0.5" /><text x="3292" y="233.5" font-size="14" fill="white" font-family="monospace" dominant-baseline="initial">56</text><rect x="3094" y="180.5" width="188" height="1" fill="white" fill-opacity="0.2" /><rect x="3094" y="127.5" width="188" height="1" fill="white" fill-opacity="0.2" /><rect x="3094" y="74.5" width="188" height="1" fill="white" fill-opacity="0.2" /><rect x="3094" y="21.5" width="188" height="1" fill="white" fill-opacity="0.5" /><text x="3292" y="21.5" font-size="14" fill="white" font-family="monospace" dominant-baseline="initial">57</text><rect x="3094" y="657.6000000000004" width="188" height="1" fill="aqua" fill-opacity="0.75" /><text x="3094" y="653.6000000000004" font-size="14" fill="aqua" fill-opacity="0.75" font-family="monospace">Special</text><rect x="3094" y="867.0" width="188" height="1" fill="lime" fill-opacity="0.75" /><text x="3292" y="854.0" font-size="14" fill="lime" font-family="monospace" dominant-baseline="initial">172.0</text><rect x="3094" y="657.5" width="188" height="1" fill="lime" fill-opacity="0.75" /><text x="3292" y="644.5" font-size="14" fill="lime" font-family="monospace" dominant-baseline="initial">169.8</text><rect x="3332" y="16.5" width="188" height="851.5" fill="black" /><rect x="3332" y="867.0" width="188" height="1" fill="white" fill-opacity="0.5" /><text x="3530" y="867.0" font-size="14" fill="white" font-family="monospace" dominant-baseline="initial">57</text><rect x="3332" y="814.0" width="188" height="1" fill="white" fill-opacity="0.2" /><rect x="3332" y="761.0" width="188" height="1" fill="white" fill-opacity="0.2" /><rect x="3332" y="708.5" width="188" height="1" fill="white" fill-opacity="0.2" /><rect x="3332" y="656.5" width="188" height="1" fill="white" fill-opacity="0.5" /><text x="3530" y="656.5" font-size="14" fill="white" font-family="monospace" dominant-baseline="initial">58</text><rect x="3332" y="603.0" width="188" height="1" fill="white" fill-opacity="0.2" /><rect x="3332" y="550.0" width="188" height="1" fill="white" fill-opacity="0.2" /><rect x="3332" y="496.5" width="188" height="1" fill="white" fill-opacity="0.2" /><rect x="3332" y="443.5" width="188" height="1" fill="white" fill-opacity="0.5" /><text x="3530" y="443.5" font-size="14" fill="white" font-family="monospace" dominant-baseline="initial">59</text><rect x="3332" y="390.0" width="188" height="1" fill="white" fill-opacity="0.2" /><rect x="3332" y="337.0" width="188" height="1" fill="white" fill-opacity="0.2" /><rect x="3332" y="283.5" width="188" height="1" fill="white" fill-opacity="0.2" /><rect x="3332" y="230.5" width="188" height="1" fill="white" fill-opacity="0.5" /><text x="3530" y="230.5" font-size="14" fill="white" font-family="monospace" dominant-baseline="initial">60</text><rect x="3332" y="177.0" width="188" height="1" fill="white" fill-opacity="0.2" /><rect x="3332" y="123.0" width="188" height="1" fill="white" fill-opacity="0.2" /><rect x="3332" y="69.5" width="188" height="1" fill="white" fill-opacity="0.2" /><rect x="3332" y="15.5" width="188" height="1" fill="white" fill-opacity="0.5" /><text x="3530" y="15.5" font-size="14" fill="white" font-family="monospace" dominant-baseline="initial">61</text><rect x="3332" y="761.0" width="188" height="1" fill="lime" fill-opacity="0.75" /><text x="3530" y="762.0" font-size="14" fill="lime" font-family="monospace" dominant-baseline="initial">172.0</text><rect x="3332" y="656.5" width="188" height="1" fill="lime" fill-opacity="0.75" /><text x="3530" y="643.5" font-size="14" fill="lime" font-family="monospace" dominant-baseline="initial">169</text><rect x="3332" y="230.5" width="188" height="1" fill="lime" fill-opacity="0.75" /><text x="3530" y="217.5" font-size="14" fill="lime" font-family="monospace" dominant-baseline="initial">168.0</text><rect x="3332" y="123.0" width="188" height="1" fill="lime" fill-opacity="0.75" /><text x="3530" y="124.0" font-size="14" fill="lime" font-family="monospace" dominant-baseline="initial">167.0</text><rect x="3570" y="32.5" width="188" height="835.5" fill="black" /><rect x="3570" y="867.0" width="188" height="1" fill="white" fill-opacity="0.5" /><text x="3768" y="867.0" font-size="14" fill="white" font-family="monospace" dominant-baseline="initial">61</text><rect x="3570" y="813.5" width="188" height="1" fill="white" fill-opacity="0.2" /><rect x="3570" y="760.5" width="188" height="1" fill="white" fill-opacity="0.2" /><rect x="3570" y="707.0" width="188" height="1" fill="white" fill-opacity="0.2" /><rect x="3570" y="654.0" width="188" height="1" fill="white" fill-opacity="0.5" /><text x="3768" y="654.0" font-size="14" fill="white" font-family="monospace" dominant-baseline="initial">62</text><rect x="3570" y="602.0" width="188" height="1" fill="white" fill-opacity="0.2" /><rect x="3570" y="550.5" width="188" height="1" fill="white" fill-opacity="0.2" /><rect x="3570" y="498.5" width="188" height="1" fill="white" fill-opacity="0.2" /><rect x="3570" y="447.0" width="188" height="1" fill="white" fill-opacity="0.5" /><text x="3768" y="447.0" font-size="14" fill="white" font-family="monospace" dominant-baseline="initial">63</text><rect x="3570" y="395.5" width="188" height="1" fill="white" fill-opacity="0.2" /><rect x="3570" y="343.5" width="188" height="1" fill="white" fill-opacity="0.2" /><rect x="3570" y="292.0" width="188" height="1" fill="white" fill-opacity="0.2" /><rect x="3570" y="240.0" width="188" height="1" fill="white" fill-opacity="0.5" /><text x="3768" y="240.0" font-size="14" fill="white" font-family="monospace" dominant-baseline="initial">64</text><rect x="3570" y="188.0" width="188" height="1" fill="white" fill-opacity="0.2" /><rect x="3570" y="136.0" width="188" height="1" fill="white" fill-opacity="0.2" /><rect x="3570" y="84.0" width="188" height="1" fill="white" fill-opacity="0.2" /><rect x="3570" y="31.5" width="188" height="1" fill="white" fill-opacity="0.5" /><text x="3768" y="31.5" font-size="14" fill="white" font-family="monospace" dominant-baseline="initial">65</text><rect x="3570" y="653.9000000000015" width="188" height="1" fill="aqua" fill-opacity="0.75" /><text x="3570" y="649.9000000000015" font-size="14" fill="aqua" fill-opacity="0.75" font-family="monospace">Special</text><rect x="3570" y="867.0" width="188" height="1" fill="lime" fill-opacity="0.75" /><text x="3768" y="854.0" font-size="14" fill="lime" font-family="monospace" dominant-baseline="initial">169</text><rect x="3570" y="654.0" width="188" height="1" fill="lime" fill-opacity="0.75" /><text x="3768" y="641.0" font-size="14" fill="lime" font-family="monospace" dominant-baseline="initial">174.0</text><rect x="3570" y="240.0" width="188" height="1" fill="lime" fill-opacity="0.75" /><text x="3768" y="227.0" font-size="14" fill="lime" font-family="monospace" dominant-baseline="initial">173</text><rect x="3570" y="84.0" width="188" height="1" fill="lime" fill-opacity="0.75" /><text x="3768" y="85.0" font-size="14" fill="lime" font-family="monospace" dominant-baseline="initial">172</text><rect x="3808" y="14.0" width="188" height="854.0" fill="black" /><rect x="3808" y="867.0" width="188" height="1" fill="white" fill-opacity="0.5" /><text x="4006" y="867.0" font-size="14" fill="white" font-family="monospace" dominant-baseline="initial">65</text><rect x="3808" y="815.0" width="188" height="1" fill="white" fill-opacity="0.2" /><rect x="3808" y="762.5" width="188" height="1" fill="white" fill-opacity="0.2" /><rect x="3808" y="710.0" width="188" height="1" fill="white" fill-opacity="0.2" /><rect x="3808" y="658.0" width="188" height="1" fill="white" fill-opacity="0.5" /><text x="4006" y="658.0" font-size="14" fill="white" font-family="monospace" dominant-baseline="initial">66</text><rect x="3808" y="605.0" width="188" height="1" fill="white" fill-opacity="0.2" /><rect x="3808" y="552.0" width="188" height="1" fill="white" fill-opacity="0.2" /><rect x="3808" y="499.0" width="188" height="1" fill="white" fill-opacity="0.2" /><rect x="3808" y="445.5" width="188" height="1" fill="white" fill-opacity="0.5" /><text x="4006" y="445.5" font-size="14" fill="white" font-family="monospace" dominant-baseline="initial">67</text><rect x="3808" y="392.0" width="188" height="1" fill="white" fill-opacity="0.2" /><rect x="3808" y="338.5" width="188" height="1" fill="white" fill-opacity="0.2" /><rect x="3808" y="284.0" width="188" height="1" fill="white" fill-opacity="0.2" /><rect x="3808" y="230.0" width="188" height="1" fill="white" fill-opacity="0.5" /><text x="4006" y="230.0" font-size="14" fill="white" font-family="monospace" dominant-baseline="initial">68</text><rect x="3808" y="175.5" width="188" height="1" fill="white" fill-opacity="0.2" /><rect x="3808" y="121.5" width="188" height="1" fill="white" fill-opacity="0.2" /><rect x="3808" y="67.5" width="188" height="1" fill="white" fill-opacity="0.2" /><rect x="3808" y="13.0" width="188" height="1" fill="white" fill-opacity="0.5" /><text x="4006" y="13.0" font-size="14" fill="white" font-family="monospace" dominant-baseline="initial">69</text><rect x="3808" y="658.0" width="188" height="1" fill="lime" fill-opacity="0.75" /><text x="4006" y="645.0" font-size="14" fill="lime" font-family="monospace" dominant-baseline="initial">170.0</text><rect x="3808" y="552.0" width="188" height="1" fill="lime" fill-opacity="0.75" /><text x="4006" y="553.0" font-size="14" fill="lime" font-family="monospace" dominant-baseline="initial">169.0</text><rect x="3808" y="445.5" width="188" height="1" fill="lime" fill-opacity="0.75" /><text x="4006" y="432.5" font-size="14" fill="lime" font-family="monospace" dominant-baseline="initial">168</text><rect x="3808" y="338.5" width="188" height="1" fill="lime" fill-opacity="0.75" /><text x="4006" y="339.5" font-size="14" fill="lime" font-family="monospace" dominant-baseline="initial">166</text><rect x="4046" y="318.0" width="188" height="550.0" fill="black" /><rect x="4046" y="867.0" width="188" height="1" fill="white" fill-opacity="0.5" /><text x="4244" y="867.0" font-size="14" fill="white" font-family="monospace" dominant-baseline="initial">69</text><rect x="4046" y="813.0" width="188" height="1" fill="white" fill-opacity="0.2" /><rect x="4046" y="758.5" width="188" height="1" fill="white" fill-opacity="0.2" /><rect x="4046" y="704.5" width="188" height="1" fill="white" fill-opacity="0.2" /><rect x="4046" y="650.0" width="188" height="1" fill="white" fill-opacity="0.5" /><text x="4244" y="650.0" font-size="14" fill="white" font-family="monospace" dominant-baseline="initial">70</text><rect x="4046" y="597.0" width="188" height="1" fill="white" fill-opacity="0.2" /><rect x="4046" y="543.5" width="188" height="1" fill="white" fill-opacity="0.2" /><rect x="4046" y="490.5" width="188" height="1" fill="white" fill-opacity="0.2" /><rect x="4046" y="438.0" width="188" height="1" fill="white" fill-opacity="0.5" /><text x="4244" y="438.0" font-size="14" fill="white" font-family="monospace" dominant-baseline="initial">71</text><rect x="4046" y="650.0" width="188" height="1" fill="lime" fill-opacity="0.75" /><text x="4244" y="637.0" font-size="14" fill="lime" font-family="monospace" dominant-baseline="initial">169.0</text><rect x="4046" y="490.5" width="188" height="1" fill="lime" fill-opacity="0.75" /><text x="4244" y="491.5" font-size="14" fill="lime" font-family="monospace" dominant-baseline="initial">171</text></svg>