<?xml version="1.0" encoding="UTF-8"?><svg xmlns="http://www.w3.org/2000/svg" xmlns:xlink="http://www.w3.org/1999/xlink"     width="1710" height="1624.5" viewBox="0 0 1710 1624.5"><defs></defs><rect x="13.0" y="610.0" width="12.0" height="137.25" fill="#35df39" stroke="#03aa10" /><rect x="39.0" y="610.0" width="12.0" height="137.25" fill="#fff874" stroke="#eb9c26" /><rect x="13.0" y="762.5" width="12.0" height="137.70000000000002" fill="#35df39" stroke="#03aa10" /><rect x="26.0" y="762.5" width="12.0" height="137.70000000000002" fill="#80c9ff" stroke="#0b6cba" /><rect x="0.0" y="915.5" width="12.0" height="137.25" fill="#ff3c3c" stroke="#c71f1f" /><rect x="13.0" y="915.5" width="12.0" height="137.25" fill="#35df39" stroke="#03aa10" /><rect x="13.0" y="1068.0" width="12.0" height="152.5" fill="#35df39" stroke="#03aa10" /><rect x="39.0" y="1068.0" width="12.0" height="152.5" fill="#fff874" stroke="#eb9c26" /><rect x="114.0" y="0.0" width="12.0" height="137.25" fill="#ff3c3c" stroke="#c71f1f" /><rect x="127.0" y="0.0" width="12.0" height="137.25" fill="#35df39" stroke="#03aa10" /><rect x="114.0" y="152.5" width="12.0" height="137.25" fill="#ff3c3c" stroke="#c71f1f" /><rect x="140.0" y="152.5" width="12.0" height="137.25" fill="#80c9ff" stroke="#0b6cba" /><rect x="140.0" y="305.0" width="12.0" height="549.0" fill="#80c9ff" stroke="#0b6cba" /><rect x="153.0" y="305.0" width="12.0" height="549.0" fill="#fff874" stroke="#eb9c26" /><rect x="127.0" y="915.0" width="12.0" height="3" fill="#35df39" stroke="#03aa10" /><rect x="153.0" y="972.5" width="12.0" height="3" fill="#fff874" stroke="#eb9c26" /><rect x="166.0" y="972.5" width="12.0" height="3" fill="#ff83f4" stroke="#d002bc" /><rect x="114.0" y="1029.5" width="12.0" height="3" fill="#ff3c3c" stroke="#c71f1f" /><rect x="127.0" y="1067.5" width="12.0" height="3" fill="#35df39" stroke="#03aa10" /><rect x="140.0" y="1067.5" width="12.0" height="3" fill="#80c9ff" stroke="#0b6cba" /><rect x="166.0" y="1125.0" width="12.0" height="3" fill="#ff83f4" stroke="#d002bc" /><rect x="114.0" y="1182.0" width="12.0" height="3" fill="#ff3c3c" stroke="#c71f1f" /><rect x="241.0" y="0.0" width="12.0" height="3" fill="#35df39" stroke="#03aa10" /><rect x="267.0" y="57.5" width="12.0" height="3" fill="#fff874" stroke="#eb9c26" /><rect x="280.0" y="57.5" width="12.0" height="3" fill="#ff83f4" stroke="#d002bc" /><rect x="228.0" y="114.5" width="12.0" height="3" fill="#ff3c3c" stroke="#c71f1f" /><rect x="241.0" y="152.5" width="12.0" height="3" fill="#35df39" stroke="#03aa10" /><rect x="254.0" y="152.5" width="12.0" height="3" fill="#80c9ff" stroke="#0b6cba" /><rect x="280.0" y="210.0" width="12.0" height="3" fill="#ff83f4" stroke="#d002bc" /><rect x="228.0" y="267.0" width="12.0" height="3" fill="#ff3c3c" stroke="#c71f1f" /><rect x="241.0" y="305.5" width="12.0" height="3" fill="#35df39" stroke="#03aa10" /><rect x="267.0" y="362.5" width="12.0" height="3" fill="#fff874" stroke="#eb9c26" /><rect x="280.0" y="362.5" width="12.0" height="3" fill="#ff83f4" stroke="#d002bc" /><rect x="228.0" y="419.5" width="12.0" height="3" fill="#ff3c3c" stroke="#c71f1f" /><rect x="241.0" y="458.0" width="12.0" height="3" fill="#35df39" stroke="#03aa10" /><rect x="254.0" y="458.0" width="12.0" height="3" fill="#80c9ff" stroke="#0b6cba" /><rect x="280.0" y="515.0" width="12.0" height="3" fill="#ff83f4" stroke="#d002bc" /><rect x="228.0" y="572.0" width="12.0" height="3" fill="#ff3c3c" stroke="#c71f1f" /><rect x="241.0" y="610.5" width="12.0" height="3" fill="#35df39" stroke="#03aa10" /><rect x="267.0" y="667.5" width="12.0" height="3" fill="#fff874" stroke="#eb9c26" /><rect x="280.0" y="667.5" width="12.0" height="3" fill="#ff83f4" stroke="#d002bc" /><rect x="228.0" y="725.0" width="12.0" height="3" fill="#ff3c3c" stroke="#c71f1f" /><rect x="241.0" y="763.0" width="12.0" height="3" fill="#35df39" stroke="#03aa10" /><rect x="254.0" y="763.0" width="12.0" height="3" fill="#80c9ff" stroke="#0b6cba" /><rect x="241.0" y="820.0" width="12.0" height="3" fill="#35df39" stroke="#03aa10" /><rect x="267.0" y="820.0" width="12.0" height="3" fill="#fff874" stroke="#eb9c26" /><rect x="267.0" y="858.0" width="12.0" height="3" fill="#fff874" stroke="#eb9c26" /><rect x="267.0" y="877.5" width="12.0" height="3" fill="#fff874" stroke="#eb9c26" /><rect x="254.0" y="896.5" width="12.0" height="3" fill="#80c9ff" stroke="#0b6cba" /><rect x="241.0" y="915.5" width="12.0" height="3" fill="#35df39" stroke="#03aa10" /><rect x="254.0" y="972.5" width="12.0" height="3" fill="#80c9ff" stroke="#0b6cba" /><rect x="280.0" y="972.5" width="12.0" height="3" fill="#ff83f4" stroke="#d002bc" /><rect x="228.0" y="1030.0" width="12.0" height="3" fill="#ff3c3c" stroke="#c71f1f" /><rect x="241.0" y="1068.0" width="12.0" height="3" fill="#35df39" stroke="#03aa10" /><rect x="254.0" y="1068.0" width="12.0" height="3" fill="#80c9ff" stroke="#0b6cba" /><rect x="280.0" y="1125.0" width="12.0" height="3" fill="#ff83f4" stroke="#d002bc" /><rect x="228.0" y="1182.5" width="12.0" height="3" fill="#ff3c3c" stroke="#c71f1f" /><rect x="355.0" y="0.0" width="12.0" height="3" fill="#35df39" stroke="#03aa10" /><rect x="368.0" y="57.0" width="12.0" height="3" fill="#80c9ff" stroke="#0b6cba" /><rect x="394.0" y="57.0" width="12.0" height="3" fill="#ff83f4" stroke="#d002bc" /><rect x="342.0" y="114.5" width="12.0" height="3" fill="#ff3c3c" stroke="#c71f1f" /><rect x="355.0" y="152.5" width="12.0" height="3" fill="#35df39" stroke="#03aa10" /><rect x="368.0" y="152.5" width="12.0" height="3" fill="#80c9ff" stroke="#0b6cba" /><rect x="394.0" y="210.0" width="12.0" height="3" fill="#ff83f4" stroke="#d002bc" /><rect x="342.0" y="267.0" width="12.0" height="3" fill="#ff3c3c" stroke="#c71f1f" /><rect x="355.0" y="305.0" width="12.0" height="3" fill="#35df39" stroke="#03aa10" /><rect x="368.0" y="362.5" width="12.0" height="3" fill="#80c9ff" stroke="#0b6cba" /><rect x="394.0" y="362.5" width="12.0" height="3" fill="#ff83f4" stroke="#d002bc" /><rect x="342.0" y="419.5" width="12.0" height="3" fill="#ff3c3c" stroke="#c71f1f" /><rect x="355.0" y="457.5" width="12.0" height="3" fill="#35df39" stroke="#03aa10" /><rect x="368.0" y="457.5" width="12.0" height="3" fill="#80c9ff" stroke="#0b6cba" /><rect x="394.0" y="515.0" width="12.0" height="3" fill="#ff83f4" stroke="#d002bc" /><rect x="342.0" y="572.0" width="12.0" height="3" fill="#ff3c3c" stroke="#c71f1f" /><rect x="342.0" y="610.0" width="12.0" height="3" fill="#ff3c3c" stroke="#c71f1f" /><rect x="355.0" y="610.0" width="12.0" height="3" fill="#35df39" stroke="#03aa10" /><rect x="368.0" y="610.0" width="12.0" height="3" fill="#80c9ff" stroke="#0b6cba" /><rect x="342.0" y="667.5" width="12.0" height="3" fill="#ff3c3c" stroke="#c71f1f" /><rect x="355.0" y="667.5" width="12.0" height="3" fill="#35df39" stroke="#03aa10" /><rect x="368.0" y="667.5" width="12.0" height="3" fill="#80c9ff" stroke="#0b6cba" /><rect x="342.0" y="724.5" width="12.0" height="171.9" fill="#ff3c3c" stroke="#c71f1f" /><rect x="355.0" y="724.5" width="12.0" height="171.9" fill="#35df39" stroke="#03aa10" /><rect x="368.0" y="724.5" width="12.0" height="171.9" fill="#80c9ff" stroke="#0b6cba" /><rect x="394.0" y="915.5" width="12.0" height="3" fill="#ff83f4" stroke="#d002bc" /><rect x="381.0" y="953.5" width="12.0" height="3" fill="#fff874" stroke="#eb9c26" /><rect x="368.0" y="991.5" width="12.0" height="3" fill="#80c9ff" stroke="#0b6cba" /><rect x="355.0" y="1029.5" width="12.0" height="3" fill="#35df39" stroke="#03aa10" /><rect x="381.0" y="1068.0" width="12.0" height="3" fill="#fff874" stroke="#eb9c26" /><rect x="368.0" y="1106.0" width="12.0" height="3" fill="#80c9ff" stroke="#0b6cba" /><rect x="381.0" y="1144.0" width="12.0" height="3" fill="#fff874" stroke="#eb9c26" /><rect x="394.0" y="1182.0" width="12.0" height="3" fill="#ff83f4" stroke="#d002bc" /><rect x="495.0" y="0.0" width="12.0" height="3" fill="#fff874" stroke="#eb9c26" /><rect x="482.0" y="38.0" width="12.0" height="3" fill="#80c9ff" stroke="#0b6cba" /><rect x="469.0" y="76.0" width="12.0" height="3" fill="#35df39" stroke="#03aa10" /><rect x="456.0" y="114.5" width="12.0" height="3" fill="#ff3c3c" stroke="#c71f1f" /><rect x="469.0" y="152.5" width="12.0" height="3" fill="#35df39" stroke="#03aa10" /><rect x="482.0" y="190.5" width="12.0" height="3" fill="#80c9ff" stroke="#0b6cba" /><rect x="469.0" y="228.5" width="12.0" height="3" fill="#35df39" stroke="#03aa10" /><rect x="456.0" y="267.0" width="12.0" height="3" fill="#ff3c3c" stroke="#c71f1f" /><rect x="456.0" y="305.0" width="12.0" height="3" fill="#ff3c3c" stroke="#c71f1f" /><rect x="469.0" y="343.0" width="12.0" height="3" fill="#35df39" stroke="#03aa10" /><rect x="482.0" y="381.0" width="12.0" height="3" fill="#80c9ff" stroke="#0b6cba" /><rect x="495.0" y="419.5" width="12.0" height="3" fill="#fff874" stroke="#eb9c26" /><rect x="482.0" y="457.5" width="12.0" height="3" fill="#80c9ff" stroke="#0b6cba" /><rect x="495.0" y="495.5" width="12.0" height="3" fill="#fff874" stroke="#eb9c26" /><rect x="482.0" y="533.5" width="12.0" height="3" fill="#80c9ff" stroke="#0b6cba" /><rect x="469.0" y="572.0" width="12.0" height="3" fill="#35df39" stroke="#03aa10" /><rect x="456.0" y="610.0" width="12.0" height="3" fill="#ff3c3c" stroke="#c71f1f" /><rect x="482.0" y="648.0" width="12.0" height="3" fill="#80c9ff" stroke="#0b6cba" /><rect x="495.0" y="686.5" width="12.0" height="3" fill="#fff874" stroke="#eb9c26" /><rect x="508.0" y="724.5" width="12.0" height="3" fill="#ff83f4" stroke="#d002bc" /><rect x="495.0" y="762.5" width="12.0" height="3" fill="#fff874" stroke="#eb9c26" /><rect x="482.0" y="800.5" width="12.0" height="3" fill="#80c9ff" stroke="#0b6cba" /><rect x="469.0" y="839.0" width="12.0" height="3" fill="#35df39" stroke="#03aa10" /><rect x="456.0" y="877.0" width="12.0" height="3" fill="#ff3c3c" stroke="#c71f1f" /><rect x="456.0" y="915.0" width="12.0" height="3" fill="#ff3c3c" stroke="#c71f1f" /><rect x="469.0" y="915.0" width="12.0" height="3" fill="#35df39" stroke="#03aa10" /><rect x="482.0" y="972.5" width="12.0" height="3" fill="#80c9ff" stroke="#0b6cba" /><rect x="495.0" y="972.5" width="12.0" height="3" fill="#fff874" stroke="#eb9c26" /><rect x="456.0" y="1029.5" width="12.0" height="3" fill="#ff3c3c" stroke="#c71f1f" /><rect x="469.0" y="1029.5" width="12.0" height="3" fill="#35df39" stroke="#03aa10" /><rect x="469.0" y="1067.5" width="12.0" height="3" fill="#35df39" stroke="#03aa10" /><rect x="482.0" y="1067.5" width="12.0" height="3" fill="#80c9ff" stroke="#0b6cba" /><rect x="495.0" y="1125.0" width="12.0" height="3" fill="#fff874" stroke="#eb9c26" /><rect x="508.0" y="1125.0" width="12.0" height="3" fill="#ff83f4" stroke="#d002bc" /><rect x="469.0" y="1182.0" width="12.0" height="3" fill="#35df39" stroke="#03aa10" /><rect x="482.0" y="1182.0" width="12.0" height="3" fill="#80c9ff" stroke="#0b6cba" /><rect x="570.0" y="0.0" width="12.0" height="3" fill="#ff3c3c" stroke="#c71f1f" /><rect x="583.0" y="0.0" width="12.0" height="3" fill="#35df39" stroke="#03aa10" /><rect x="596.0" y="57.5" width="12.0" height="3" fill="#80c9ff" stroke="#0b6cba" /><rect x="609.0" y="57.5" width="12.0" height="3" fill="#fff874" stroke="#eb9c26" /><rect x="570.0" y="114.5" width="12.0" height="3" fill="#ff3c3c" stroke="#c71f1f" /><rect x="583.0" y="114.5" width="12.0" height="3" fill="#35df39" stroke="#03aa10" /><rect x="583.0" y="152.5" width="12.0" height="3" fill="#35df39" stroke="#03aa10" /><rect x="596.0" y="152.5" width="12.0" height="3" fill="#80c9ff" stroke="#0b6cba" /><rect x="609.0" y="210.0" width="12.0" height="3" fill="#fff874" stroke="#eb9c26" /><rect x="622.0" y="210.0" width="12.0" height="3" fill="#ff83f4" stroke="#d002bc" /><rect x="583.0" y="267.0" width="12.0" height="3" fill="#35df39" stroke="#03aa10" /><rect x="596.0" y="267.0" width="12.0" height="3" fill="#80c9ff" stroke="#0b6cba" /><rect x="570.0" y="305.5" width="12.0" height="3" fill="#ff3c3c" stroke="#c71f1f" /><rect x="583.0" y="305.5" width="12.0" height="3" fill="#35df39" stroke="#03aa10" /><rect x="596.0" y="362.5" width="12.0" height="3" fill="#80c9ff" stroke="#0b6cba" /><rect x="609.0" y="362.5" width="12.0" height="3" fill="#fff874" stroke="#eb9c26" /><rect x="570.0" y="419.5" width="12.0" height="3" fill="#ff3c3c" stroke="#c71f1f" /><rect x="583.0" y="419.5" width="12.0" height="3" fill="#35df39" stroke="#03aa10" /><rect x="583.0" y="458.0" width="12.0" height="3" fill="#35df39" stroke="#03aa10" /><rect x="596.0" y="458.0" width="12.0" height="3" fill="#80c9ff" stroke="#0b6cba" /><rect x="609.0" y="515.0" width="12.0" height="3" fill="#fff874" stroke="#eb9c26" /><rect x="622.0" y="515.0" width="12.0" height="3" fill="#ff83f4" stroke="#d002bc" /><rect x="583.0" y="572.0" width="12.0" height="3" fill="#35df39" stroke="#03aa10" /><rect x="596.0" y="572.0" width="12.0" height="3" fill="#80c9ff" stroke="#0b6cba" /><rect x="570.0" y="610.5" width="12.0" height="3" fill="#ff3c3c" stroke="#c71f1f" /><rect x="583.0" y="610.5" width="12.0" height="3" fill="#35df39" stroke="#03aa10" /><rect x="596.0" y="610.5" width="12.0" height="3" fill="#80c9ff" stroke="#0b6cba" /><rect x="570.0" y="915.5" width="12.0" height="3" fill="#ff3c3c" stroke="#c71f1f" /><rect x="622.0" y="972.5" width="12.0" height="3" fill="#ff83f4" stroke="#d002bc" /><rect x="583.0" y="1030.0" width="12.0" height="3" fill="#35df39" stroke="#03aa10" /><rect x="596.0" y="1030.0" width="12.0" height="3" fill="#80c9ff" stroke="#0b6cba" /><rect x="570.0" y="1068.0" width="12.0" height="3" fill="#ff3c3c" stroke="#c71f1f" /><rect x="622.0" y="1125.0" width="12.0" height="3" fill="#ff83f4" stroke="#d002bc" /><rect x="583.0" y="1182.5" width="12.0" height="3" fill="#35df39" stroke="#03aa10" /><rect x="596.0" y="1182.5" width="12.0" height="3" fill="#80c9ff" stroke="#0b6cba" /><rect x="684.0" y="0.0" width="12.0" height="3" fill="#ff3c3c" stroke="#c71f1f" /><rect x="736.0" y="57.0" width="12.0" height="3" fill="#ff83f4" stroke="#d002bc" /><rect x="697.0" y="114.5" width="12.0" height="3" fill="#35df39" stroke="#03aa10" /><rect x="710.0" y="114.5" width="12.0" height="3" fill="#80c9ff" stroke="#0b6cba" /><rect x="684.0" y="152.5" width="12.0" height="3" fill="#ff3c3c" stroke="#c71f1f" /><rect x="736.0" y="210.0" width="12.0" height="3" fill="#ff83f4" stroke="#d002bc" /><rect x="697.0" y="267.0" width="12.0" height="3" fill="#35df39" stroke="#03aa10" /><rect x="710.0" y="267.0" width="12.0" height="3" fill="#80c9ff" stroke="#0b6cba" /><rect x="684.0" y="305.0" width="12.0" height="3" fill="#ff3c3c" stroke="#c71f1f" /><rect x="736.0" y="362.5" width="12.0" height="3" fill="#ff83f4" stroke="#d002bc" /><rect x="697.0" y="419.5" width="12.0" height="3" fill="#35df39" stroke="#03aa10" /><rect x="710.0" y="419.5" width="12.0" height="3" fill="#80c9ff" stroke="#0b6cba" /><rect x="684.0" y="457.5" width="12.0" height="3" fill="#ff3c3c" stroke="#c71f1f" /><rect x="736.0" y="515.0" width="12.0" height="3" fill="#ff83f4" stroke="#d002bc" /><rect x="697.0" y="572.0" width="12.0" height="3" fill="#35df39" stroke="#03aa10" /><rect x="710.0" y="572.0" width="12.0" height="3" fill="#80c9ff" stroke="#0b6cba" /><rect x="850.0" y="0.0" width="12.0" height="3" fill="#ff83f4" stroke="#d002bc" /><rect x="837.0" y="38.0" width="12.0" height="3" fill="#fff874" stroke="#eb9c26" /><rect x="824.0" y="76.0" width="12.0" height="3" fill="#80c9ff" stroke="#0b6cba" /><rect x="811.0" y="114.5" width="12.0" height="3" fill="#35df39" stroke="#03aa10" /><rect x="837.0" y="152.5" width="12.0" height="3" fill="#fff874" stroke="#eb9c26" /><rect x="824.0" y="190.5" width="12.0" height="3" fill="#80c9ff" stroke="#0b6cba" /><rect x="837.0" y="228.5" width="12.0" height="3" fill="#fff874" stroke="#eb9c26" /><rect x="850.0" y="267.0" width="12.0" height="3" fill="#ff83f4" stroke="#d002bc" /><rect x="837.0" y="305.0" width="12.0" height="3" fill="#fff874" stroke="#eb9c26" /><rect x="824.0" y="343.0" width="12.0" height="3" fill="#80c9ff" stroke="#0b6cba" /><rect x="811.0" y="381.0" width="12.0" height="3" fill="#35df39" stroke="#03aa10" /><rect x="798.0" y="419.5" width="12.0" height="3" fill="#ff3c3c" stroke="#c71f1f" /><rect x="811.0" y="457.5" width="12.0" height="3" fill="#35df39" stroke="#03aa10" /><rect x="824.0" y="495.5" width="12.0" height="3" fill="#80c9ff" stroke="#0b6cba" /><rect x="811.0" y="534.0" width="12.0" height="3" fill="#35df39" stroke="#03aa10" /><rect x="798.0" y="572.0" width="12.0" height="3" fill="#ff3c3c" stroke="#c71f1f" /><rect x="798.0" y="610.0" width="12.0" height="3" fill="#ff3c3c" stroke="#c71f1f" /><rect x="811.0" y="648.0" width="12.0" height="3" fill="#35df39" stroke="#03aa10" /><rect x="824.0" y="686.5" width="12.0" height="3" fill="#80c9ff" stroke="#0b6cba" /><rect x="837.0" y="724.5" width="12.0" height="3" fill="#fff874" stroke="#eb9c26" /><rect x="824.0" y="762.5" width="12.0" height="3" fill="#80c9ff" stroke="#0b6cba" /><rect x="837.0" y="800.5" width="12.0" height="3" fill="#fff874" stroke="#eb9c26" /><rect x="824.0" y="839.0" width="12.0" height="3" fill="#80c9ff" stroke="#0b6cba" /><rect x="811.0" y="877.0" width="12.0" height="3" fill="#35df39" stroke="#03aa10" /><rect x="798.0" y="915.0" width="12.0" height="3" fill="#ff3c3c" stroke="#c71f1f" /><rect x="824.0" y="953.5" width="12.0" height="3" fill="#80c9ff" stroke="#0b6cba" /><rect x="837.0" y="991.5" width="12.0" height="3" fill="#fff874" stroke="#eb9c26" /><rect x="850.0" y="1029.5" width="12.0" height="3" fill="#ff83f4" stroke="#d002bc" /><rect x="837.0" y="1067.5" width="12.0" height="3" fill="#fff874" stroke="#eb9c26" /><rect x="824.0" y="1106.0" width="12.0" height="3" fill="#80c9ff" stroke="#0b6cba" /><rect x="811.0" y="1144.0" width="12.0" height="3" fill="#35df39" stroke="#03aa10" /><rect x="798.0" y="1182.0" width="12.0" height="3" fill="#ff3c3c" stroke="#c71f1f" /><rect x="912.0" y="0.0" width="12.0" height="3" fill="#ff3c3c" stroke="#c71f1f" /><rect x="925.0" y="57.5" width="12.0" height="3" fill="#35df39" stroke="#03aa10" /><rect x="938.0" y="114.5" width="12.0" height="3" fill="#80c9ff" stroke="#0b6cba" /><rect x="951.0" y="133.5" width="12.0" height="3" fill="#fff874" stroke="#eb9c26" /><rect x="912.0" y="152.5" width="12.0" height="3" fill="#ff3c3c" stroke="#c71f1f" /><rect x="925.0" y="210.0" width="12.0" height="3" fill="#35df39" stroke="#03aa10" /><rect x="938.0" y="267.0" width="12.0" height="3" fill="#80c9ff" stroke="#0b6cba" /><rect x="951.0" y="286.0" width="12.0" height="3" fill="#fff874" stroke="#eb9c26" /><rect x="925.0" y="305.5" width="12.0" height="3" fill="#35df39" stroke="#03aa10" /><rect x="938.0" y="362.5" width="12.0" height="3" fill="#80c9ff" stroke="#0b6cba" /><rect x="951.0" y="419.5" width="12.0" height="3" fill="#fff874" stroke="#eb9c26" /><rect x="964.0" y="439.0" width="12.0" height="3" fill="#ff83f4" stroke="#d002bc" /><rect x="925.0" y="458.0" width="12.0" height="3" fill="#35df39" stroke="#03aa10" /><rect x="938.0" y="515.0" width="12.0" height="3" fill="#80c9ff" stroke="#0b6cba" /><rect x="951.0" y="572.0" width="12.0" height="3" fill="#fff874" stroke="#eb9c26" /><rect x="964.0" y="591.5" width="12.0" height="3" fill="#ff83f4" stroke="#d002bc" /><rect x="912.0" y="610.5" width="12.0" height="3" fill="#ff3c3c" stroke="#c71f1f" /><rect x="925.0" y="667.5" width="12.0" height="3" fill="#35df39" stroke="#03aa10" /><rect x="938.0" y="725.0" width="12.0" height="3" fill="#80c9ff" stroke="#0b6cba" /><rect x="951.0" y="744.0" width="12.0" height="3" fill="#fff874" stroke="#eb9c26" /><rect x="912.0" y="763.0" width="12.0" height="3" fill="#ff3c3c" stroke="#c71f1f" /><rect x="925.0" y="820.0" width="12.0" height="3" fill="#35df39" stroke="#03aa10" /><rect x="938.0" y="877.5" width="12.0" height="3" fill="#80c9ff" stroke="#0b6cba" /><rect x="951.0" y="896.5" width="12.0" height="3" fill="#fff874" stroke="#eb9c26" /><rect x="925.0" y="915.5" width="12.0" height="3" fill="#35df39" stroke="#03aa10" /><rect x="938.0" y="972.5" width="12.0" height="3" fill="#80c9ff" stroke="#0b6cba" /><rect x="951.0" y="1030.0" width="12.0" height="3" fill="#fff874" stroke="#eb9c26" /><rect x="964.0" y="1049.0" width="12.0" height="3" fill="#ff83f4" stroke="#d002bc" /><rect x="925.0" y="1068.0" width="12.0" height="3" fill="#35df39" stroke="#03aa10" /><rect x="938.0" y="1125.0" width="12.0" height="3" fill="#80c9ff" stroke="#0b6cba" /><rect x="951.0" y="1182.5" width="12.0" height="3" fill="#fff874" stroke="#eb9c26" /><rect x="964.0" y="1201.5" width="12.0" height="3" fill="#ff83f4" stroke="#d002bc" /><rect x="1026.0" y="0.0" width="12.0" height="3" fill="#ff3c3c" stroke="#c71f1f" /><rect x="1039.0" y="57.0" width="12.0" height="3" fill="#35df39" stroke="#03aa10" /><rect x="1052.0" y="114.5" width="12.0" height="3" fill="#80c9ff" stroke="#0b6cba" /><rect x="1065.0" y="133.5" width="12.0" height="3" fill="#fff874" stroke="#eb9c26" /><rect x="1026.0" y="152.5" width="12.0" height="3" fill="#ff3c3c" stroke="#c71f1f" /><rect x="1039.0" y="210.0" width="12.0" height="3" fill="#35df39" stroke="#03aa10" /><rect x="1052.0" y="267.0" width="12.0" height="3" fill="#80c9ff" stroke="#0b6cba" /><rect x="1065.0" y="286.0" width="12.0" height="3" fill="#fff874" stroke="#eb9c26" /><rect x="1052.0" y="305.0" width="12.0" height="3" fill="#80c9ff" stroke="#0b6cba" /><rect x="1026.0" y="362.5" width="12.0" height="3" fill="#ff3c3c" stroke="#c71f1f" /><rect x="1039.0" y="362.5" width="12.0" height="3" fill="#35df39" stroke="#03aa10" /><rect x="1052.0" y="419.5" width="12.0" height="3" fill="#80c9ff" stroke="#0b6cba" /><rect x="1026.0" y="457.5" width="12.0" height="3" fill="#ff3c3c" stroke="#c71f1f" /><rect x="1039.0" y="457.5" width="12.0" height="3" fill="#35df39" stroke="#03aa10" /><rect x="1052.0" y="457.5" width="12.0" height="3" fill="#80c9ff" stroke="#0b6cba" /><rect x="1026.0" y="515.0" width="12.0" height="3" fill="#ff3c3c" stroke="#c71f1f" /><rect x="1039.0" y="515.0" width="12.0" height="3" fill="#35df39" stroke="#03aa10" /><rect x="1052.0" y="515.0" width="12.0" height="3" fill="#80c9ff" stroke="#0b6cba" /><rect x="1052.0" y="572.0" width="12.0" height="3" fill="#80c9ff" stroke="#0b6cba" /><rect x="1065.0" y="610.0" width="12.0" height="3" fill="#fff874" stroke="#eb9c26" /><rect x="1026.0" y="667.5" width="12.0" height="3" fill="#ff3c3c" stroke="#c71f1f" /><rect x="1039.0" y="667.5" width="12.0" height="3" fill="#35df39" stroke="#03aa10" /><rect x="1052.0" y="724.5" width="12.0" height="3" fill="#80c9ff" stroke="#0b6cba" /><rect x="1078.0" y="762.5" width="12.0" height="3" fill="#ff83f4" stroke="#d002bc" /><rect x="1065.0" y="820.0" width="12.0" height="3" fill="#fff874" stroke="#eb9c26" /><rect x="1078.0" y="820.0" width="12.0" height="3" fill="#ff83f4" stroke="#d002bc" /><rect x="1052.0" y="877.0" width="12.0" height="3" fill="#80c9ff" stroke="#0b6cba" /><rect x="1078.0" y="877.0" width="12.0" height="3" fill="#ff83f4" stroke="#d002bc" /><rect x="1052.0" y="915.5" width="12.0" height="305.0" fill="#80c9ff" stroke="#0b6cba" /><rect x="1065.0" y="915.5" width="12.0" height="305.0" fill="#fff874" stroke="#eb9c26" /><rect x="1140.0" y="0.0" width="12.0" height="274.5" fill="#ff3c3c" stroke="#c71f1f" /><rect x="1166.0" y="0.0" width="12.0" height="274.5" fill="#80c9ff" stroke="#0b6cba" /><rect x="1153.0" y="305.0" width="12.0" height="274.5" fill="#35df39" stroke="#03aa10" /><rect x="1166.0" y="305.0" width="12.0" height="274.5" fill="#80c9ff" stroke="#0b6cba" /><rect x="1179.0" y="305.0" width="12.0" height="274.5" fill="#fff874" stroke="#eb9c26" /><rect x="1153.0" y="610.0" width="12.0" height="274.5" fill="#35df39" stroke="#03aa10" /><rect x="1166.0" y="610.0" width="12.0" height="274.5" fill="#80c9ff" stroke="#0b6cba" /><rect x="1140.0" y="915.0" width="12.0" height="137.25" fill="#ff3c3c" stroke="#c71f1f" /><rect x="1153.0" y="915.0" width="12.0" height="137.25" fill="#35df39" stroke="#03aa10" /><rect x="1140.0" y="1067.5" width="12.0" height="3" fill="#ff3c3c" stroke="#c71f1f" /><rect x="1166.0" y="1067.5" width="12.0" height="3" fill="#80c9ff" stroke="#0b6cba" /><rect x="1166.0" y="1144.0" width="12.0" height="3" fill="#80c9ff" stroke="#0b6cba" /><rect x="1179.0" y="1144.0" width="12.0" height="3" fill="#fff874" stroke="#eb9c26" /><rect x="1267.0" y="0.0" width="12.0" height="274.95" fill="#35df39" stroke="#03aa10" /><rect x="1280.0" y="0.0" width="12.0" height="274.95" fill="#80c9ff" stroke="#0b6cba" /><rect x="1254.0" y="305.5" width="12.0" height="205.65" fill="#ff3c3c" stroke="#c71f1f" /><rect x="1267.0" y="305.5" width="12.0" height="205.65" fill="#35df39" stroke="#03aa10" /><rect x="1280.0" y="305.5" width="12.0" height="205.65" fill="#80c9ff" stroke="#0b6cba" /><rect x="1254.0" y="534.0" width="12.0" height="3" fill="#ff3c3c" stroke="#c71f1f" /><rect x="1254.0" y="572.0" width="12.0" height="3" fill="#ff3c3c" stroke="#c71f1f" /><rect x="1267.0" y="572.0" width="12.0" height="3" fill="#35df39" stroke="#03aa10" /><rect x="1254.0" y="610.5" width="12.0" height="205.65" fill="#ff3c3c" stroke="#c71f1f" /><rect x="1280.0" y="610.5" width="12.0" height="205.65" fill="#80c9ff" stroke="#0b6cba" /><rect x="1293.0" y="839.0" width="12.0" height="3" fill="#fff874" stroke="#eb9c26" /><rect x="1267.0" y="915.5" width="12.0" height="206.1" fill="#35df39" stroke="#03aa10" /><rect x="1280.0" y="915.5" width="12.0" height="206.1" fill="#80c9ff" stroke="#0b6cba" /><rect x="1280.0" y="1144.5" width="12.0" height="3" fill="#80c9ff" stroke="#0b6cba" /><rect x="1267.0" y="1182.5" width="12.0" height="3" fill="#35df39" stroke="#03aa10" /><rect x="1280.0" y="1182.5" width="12.0" height="3" fill="#80c9ff" stroke="#0b6cba" /><rect x="1368.0" y="0.0" width="12.0" height="206.1" fill="#ff3c3c" stroke="#c71f1f" /><rect x="1394.0" y="0.0" width="12.0" height="206.1" fill="#80c9ff" stroke="#0b6cba" /><rect x="1381.0" y="229.0" width="12.0" height="3" fill="#35df39" stroke="#03aa10" /><rect x="1368.0" y="305.0" width="12.0" height="206.1" fill="#ff3c3c" stroke="#c71f1f" /><rect x="1381.0" y="305.0" width="12.0" height="206.1" fill="#35df39" stroke="#03aa10" /><rect x="1394.0" y="305.0" width="12.0" height="206.1" fill="#80c9ff" stroke="#0b6cba" /><rect x="1394.0" y="534.0" width="12.0" height="3" fill="#80c9ff" stroke="#0b6cba" /><rect x="1407.0" y="534.0" width="12.0" height="3" fill="#fff874" stroke="#eb9c26" /><rect x="1381.0" y="610.0" width="12.0" height="137.70000000000002" fill="#35df39" stroke="#03aa10" /><rect x="1368.0" y="763.0" width="12.0" height="3" fill="#ff3c3c" stroke="#c71f1f" /><rect x="1394.0" y="839.0" width="12.0" height="3" fill="#80c9ff" stroke="#0b6cba" /><rect x="1368.0" y="915.5" width="12.0" height="205.65" fill="#ff3c3c" stroke="#c71f1f" /><rect x="1381.0" y="915.5" width="12.0" height="205.65" fill="#35df39" stroke="#03aa10" /><rect x="1407.0" y="1144.0" width="12.0" height="3" fill="#fff874" stroke="#eb9c26" /><rect x="1495.0" y="0.0" width="12.0" height="205.65" fill="#35df39" stroke="#03aa10" /><rect x="1508.0" y="0.0" width="12.0" height="205.65" fill="#80c9ff" stroke="#0b6cba" /><rect x="1495.0" y="228.5" width="12.0" height="3" fill="#35df39" stroke="#03aa10" /><rect x="1482.0" y="305.0" width="12.0" height="137.25" fill="#ff3c3c" stroke="#c71f1f" /><rect x="1495.0" y="305.0" width="12.0" height="137.25" fill="#35df39" stroke="#03aa10" /><rect x="1508.0" y="457.5" width="12.0" height="3" fill="#80c9ff" stroke="#0b6cba" /><rect x="1521.0" y="457.5" width="12.0" height="3" fill="#fff874" stroke="#eb9c26" /><rect x="1495.0" y="610.0" width="12.0" height="103.05" fill="#35df39" stroke="#03aa10" /><rect x="1482.0" y="724.5" width="12.0" height="3" fill="#ff3c3c" stroke="#c71f1f" /><rect x="1482.0" y="762.5" width="12.0" height="3" fill="#ff3c3c" stroke="#c71f1f" /><rect x="1508.0" y="839.0" width="12.0" height="3" fill="#80c9ff" stroke="#0b6cba" /><rect x="1482.0" y="915.0" width="12.0" height="137.25" fill="#ff3c3c" stroke="#c71f1f" /><rect x="1508.0" y="915.0" width="12.0" height="137.25" fill="#80c9ff" stroke="#0b6cba" /><rect x="1508.0" y="1067.5" width="12.0" height="3" fill="#80c9ff" stroke="#0b6cba" /><rect x="1482.0" y="1144.0" width="12.0" height="3" fill="#ff3c3c" stroke="#c71f1f" /><rect x="1482.0" y="1182.0" width="12.0" height="3" fill="#ff3c3c" stroke="#c71f1f" /><rect x="1495.0" y="1182.0" width="12.0" height="3" fill="#35df39" stroke="#03aa10" /><rect x="1596.0" y="0.0" width="12.0" height="3" fill="#ff3c3c" stroke="#c71f1f" /><rect x="1622.0" y="0.0" width="12.0" height="3" fill="#80c9ff" stroke="#0b6cba" /><rect x="1622.0" y="57.5" width="12.0" height="3" fill="#80c9ff" stroke="#0b6cba" /><rect x="1635.0" y="57.5" width="12.0" height="3" fill="#fff874" stroke="#eb9c26" /><rect x="1635.0" y="114.5" width="12.0" height="3" fill="#fff874" stroke="#eb9c26" /><rect x="1648.0" y="114.5" width="12.0" height="3" fill="#ff83f4" stroke="#d002bc" /><rect x="1622.0" y="210.0" width="12.0" height="3" fill="#80c9ff" stroke="#0b6cba" /><rect x="1635.0" y="210.0" width="12.0" height="3" fill="#fff874" stroke="#eb9c26" /><rect x="1648.0" y="210.0" width="12.0" height="3" fill="#ff83f4" stroke="#d002bc" /></svg>