<?xml version="1.0" encoding="UTF-8"?><svg xmlns="http://www.w3.org/2000/svg" xmlns:xlink="http://www.w3.org/1999/xlink"     width="3192" height="1514.0" viewBox="0 0 3192 1514.0"><defs></defs><rect x="114.0" y="375.0" width="12.0" height="3" fill="#ff3c3c" stroke="#c71f1f" /><rect x="114.0" y="422.0" width="12.0" height="3" fill="#ff3c3c" stroke="#c71f1f" /><rect x="114.0" y="469.0" width="12.0" height="3" fill="#ff3c3c" stroke="#c71f1f" /><rect x="114.0" y="515.5" width="12.0" height="3" fill="#ff3c3c" stroke="#c71f1f" /><rect x="114.0" y="562.5" width="12.0" height="3" fill="#ff3c3c" stroke="#c71f1f" /><rect x="114.0" y="609.5" width="12.0" height="3" fill="#ff3c3c" stroke="#c71f1f" /><rect x="114.0" y="656.5" width="12.0" height="3" fill="#ff3c3c" stroke="#c71f1f" /><rect x="114.0" y="703.0" width="12.0" height="3" fill="#ff3c3c" stroke="#c71f1f" /><rect x="114.0" y="750.0" width="12.0" height="3" fill="#ff3c3c" stroke="#c71f1f" /><rect x="127.0" y="750.0" width="12.0" height="3" fill="#35df39" stroke="#03aa10" /><rect x="114.0" y="797.0" width="12.0" height="3" fill="#ff3c3c" stroke="#c71f1f" /><rect x="127.0" y="797.0" width="12.0" height="3" fill="#35df39" stroke="#03aa10" /><rect x="114.0" y="844.0" width="12.0" height="3" fill="#ff3c3c" stroke="#c71f1f" /><rect x="127.0" y="844.0" width="12.0" height="3" fill="#35df39" stroke="#03aa10" /><rect x="114.0" y="890.5" width="12.0" height="3" fill="#ff3c3c" stroke="#c71f1f" /><rect x="127.0" y="890.5" width="12.0" height="3" fill="#35df39" stroke="#03aa10" /><rect x="114.0" y="937.5" width="12.0" height="3" fill="#ff3c3c" stroke="#c71f1f" /><rect x="127.0" y="937.5" width="12.0" height="3" fill="#35df39" stroke="#03aa10" /><rect x="114.0" y="984.5" width="12.0" height="3" fill="#ff3c3c" stroke="#c71f1f" /><rect x="127.0" y="984.5" width="12.0" height="3" fill="#35df39" stroke="#03aa10" /><rect x="114.0" y="1031.5" width="12.0" height="3" fill="#ff3c3c" stroke="#c71f1f" /><rect x="127.0" y="1031.5" width="12.0" height="3" fill="#35df39" stroke="#03aa10" /><rect x="114.0" y="1078.0" width="12.0" height="3" fill="#ff3c3c" stroke="#c71f1f" /><rect x="127.0" y="1078.0" width="12.0" height="3" fill="#35df39" stroke="#03aa10" /><rect x="140.0" y="1125.0" width="12.0" height="3" fill="#80c9ff" stroke="#0b6cba" /><rect x="140.0" y="1172.0" width="12.0" height="3" fill="#80c9ff" stroke="#0b6cba" /><rect x="140.0" y="1219.0" width="12.0" height="3" fill="#80c9ff" stroke="#0b6cba" /><rect x="140.0" y="1265.5" width="12.0" height="3" fill="#80c9ff" stroke="#0b6cba" /><rect x="140.0" y="1312.5" width="12.0" height="3" fill="#80c9ff" stroke="#0b6cba" /><rect x="140.0" y="1359.5" width="12.0" height="3" fill="#80c9ff" stroke="#0b6cba" /><rect x="140.0" y="1406.5" width="12.0" height="3" fill="#80c9ff" stroke="#0b6cba" /><rect x="140.0" y="1453.0" width="12.0" height="3" fill="#80c9ff" stroke="#0b6cba" /><rect x="267.0" y="0.0" width="12.0" height="3" fill="#fff874" stroke="#eb9c26" /><rect x="267.0" y="94.0" width="12.0" height="3" fill="#fff874" stroke="#eb9c26" /><rect x="267.0" y="140.5" width="12.0" height="3" fill="#fff874" stroke="#eb9c26" /><rect x="254.0" y="328.0" width="12.0" height="3" fill="#80c9ff" stroke="#0b6cba" /><rect x="267.0" y="375.0" width="12.0" height="3" fill="#fff874" stroke="#eb9c26" /><rect x="267.0" y="469.0" width="12.0" height="3" fill="#fff874" stroke="#eb9c26" /><rect x="254.0" y="515.5" width="12.0" height="211.05" fill="#80c9ff" stroke="#0b6cba" /><rect x="267.0" y="515.5" width="12.0" height="211.05" fill="#fff874" stroke="#eb9c26" /><rect x="228.0" y="750.0" width="12.0" height="3" fill="#ff3c3c" stroke="#c71f1f" /><rect x="228.0" y="797.0" width="12.0" height="3" fill="#ff3c3c" stroke="#c71f1f" /><rect x="228.0" y="844.0" width="12.0" height="3" fill="#ff3c3c" stroke="#c71f1f" /><rect x="228.0" y="890.5" width="12.0" height="3" fill="#ff3c3c" stroke="#c71f1f" /><rect x="228.0" y="937.5" width="12.0" height="3" fill="#ff3c3c" stroke="#c71f1f" /><rect x="228.0" y="984.5" width="12.0" height="3" fill="#ff3c3c" stroke="#c71f1f" /><rect x="228.0" y="1031.5" width="12.0" height="3" fill="#ff3c3c" stroke="#c71f1f" /><rect x="228.0" y="1078.0" width="12.0" height="3" fill="#ff3c3c" stroke="#c71f1f" /><rect x="228.0" y="1125.0" width="12.0" height="3" fill="#ff3c3c" stroke="#c71f1f" /><rect x="241.0" y="1125.0" width="12.0" height="3" fill="#35df39" stroke="#03aa10" /><rect x="228.0" y="1172.0" width="12.0" height="3" fill="#ff3c3c" stroke="#c71f1f" /><rect x="241.0" y="1172.0" width="12.0" height="3" fill="#35df39" stroke="#03aa10" /><rect x="228.0" y="1219.0" width="12.0" height="3" fill="#ff3c3c" stroke="#c71f1f" /><rect x="241.0" y="1219.0" width="12.0" height="3" fill="#35df39" stroke="#03aa10" /><rect x="228.0" y="1265.5" width="12.0" height="3" fill="#ff3c3c" stroke="#c71f1f" /><rect x="241.0" y="1265.5" width="12.0" height="3" fill="#35df39" stroke="#03aa10" /><rect x="228.0" y="1312.5" width="12.0" height="3" fill="#ff3c3c" stroke="#c71f1f" /><rect x="241.0" y="1312.5" width="12.0" height="3" fill="#35df39" stroke="#03aa10" /><rect x="228.0" y="1359.5" width="12.0" height="3" fill="#ff3c3c" stroke="#c71f1f" /><rect x="241.0" y="1359.5" width="12.0" height="3" fill="#35df39" stroke="#03aa10" /><rect x="228.0" y="1406.5" width="12.0" height="3" fill="#ff3c3c" stroke="#c71f1f" /><rect x="241.0" y="1406.5" width="12.0" height="3" fill="#35df39" stroke="#03aa10" /><rect x="228.0" y="1453.0" width="12.0" height="3" fill="#ff3c3c" stroke="#c71f1f" /><rect x="241.0" y="1453.0" width="12.0" height="3" fill="#35df39" stroke="#03aa10" /><rect x="368.0" y="0.0" width="12.0" height="3" fill="#80c9ff" stroke="#0b6cba" /><rect x="368.0" y="47.0" width="12.0" height="3" fill="#80c9ff" stroke="#0b6cba" /><rect x="368.0" y="94.0" width="12.0" height="3" fill="#80c9ff" stroke="#0b6cba" /><rect x="368.0" y="140.5" width="12.0" height="3" fill="#80c9ff" stroke="#0b6cba" /><rect x="368.0" y="187.5" width="12.0" height="3" fill="#80c9ff" stroke="#0b6cba" /><rect x="368.0" y="234.5" width="12.0" height="3" fill="#80c9ff" stroke="#0b6cba" /><rect x="368.0" y="281.5" width="12.0" height="3" fill="#80c9ff" stroke="#0b6cba" /><rect x="368.0" y="328.0" width="12.0" height="3" fill="#80c9ff" stroke="#0b6cba" /><rect x="368.0" y="375.0" width="12.0" height="3" fill="#80c9ff" stroke="#0b6cba" /><rect x="381.0" y="375.0" width="12.0" height="3" fill="#fff874" stroke="#eb9c26" /><rect x="368.0" y="422.0" width="12.0" height="3" fill="#80c9ff" stroke="#0b6cba" /><rect x="381.0" y="422.0" width="12.0" height="3" fill="#fff874" stroke="#eb9c26" /><rect x="368.0" y="469.0" width="12.0" height="3" fill="#80c9ff" stroke="#0b6cba" /><rect x="381.0" y="469.0" width="12.0" height="3" fill="#fff874" stroke="#eb9c26" /><rect x="368.0" y="515.5" width="12.0" height="3" fill="#80c9ff" stroke="#0b6cba" /><rect x="381.0" y="515.5" width="12.0" height="3" fill="#fff874" stroke="#eb9c26" /><rect x="368.0" y="562.5" width="12.0" height="3" fill="#80c9ff" stroke="#0b6cba" /><rect x="381.0" y="562.5" width="12.0" height="3" fill="#fff874" stroke="#eb9c26" /><rect x="368.0" y="609.5" width="12.0" height="3" fill="#80c9ff" stroke="#0b6cba" /><rect x="381.0" y="609.5" width="12.0" height="3" fill="#fff874" stroke="#eb9c26" /><rect x="368.0" y="656.5" width="12.0" height="3" fill="#80c9ff" stroke="#0b6cba" /><rect x="381.0" y="656.5" width="12.0" height="3" fill="#fff874" stroke="#eb9c26" /><rect x="368.0" y="703.0" width="12.0" height="3" fill="#80c9ff" stroke="#0b6cba" /><rect x="381.0" y="703.0" width="12.0" height="3" fill="#fff874" stroke="#eb9c26" /><rect x="342.0" y="750.0" width="12.0" height="3" fill="#ff3c3c" stroke="#c71f1f" /><rect x="342.0" y="797.0" width="12.0" height="3" fill="#ff3c3c" stroke="#c71f1f" /><rect x="342.0" y="844.0" width="12.0" height="3" fill="#ff3c3c" stroke="#c71f1f" /><rect x="342.0" y="890.5" width="12.0" height="3" fill="#ff3c3c" stroke="#c71f1f" /><rect x="342.0" y="937.5" width="12.0" height="3" fill="#ff3c3c" stroke="#c71f1f" /><rect x="342.0" y="984.5" width="12.0" height="3" fill="#ff3c3c" stroke="#c71f1f" /><rect x="342.0" y="1031.5" width="12.0" height="3" fill="#ff3c3c" stroke="#c71f1f" /><rect x="342.0" y="1078.0" width="12.0" height="3" fill="#ff3c3c" stroke="#c71f1f" /><rect x="342.0" y="1125.0" width="12.0" height="3" fill="#ff3c3c" stroke="#c71f1f" /><rect x="355.0" y="1125.0" width="12.0" height="3" fill="#35df39" stroke="#03aa10" /><rect x="342.0" y="1172.0" width="12.0" height="3" fill="#ff3c3c" stroke="#c71f1f" /><rect x="355.0" y="1172.0" width="12.0" height="3" fill="#35df39" stroke="#03aa10" /><rect x="342.0" y="1219.0" width="12.0" height="3" fill="#ff3c3c" stroke="#c71f1f" /><rect x="355.0" y="1219.0" width="12.0" height="3" fill="#35df39" stroke="#03aa10" /><rect x="342.0" y="1265.5" width="12.0" height="3" fill="#ff3c3c" stroke="#c71f1f" /><rect x="355.0" y="1265.5" width="12.0" height="3" fill="#35df39" stroke="#03aa10" /><rect x="342.0" y="1312.5" width="12.0" height="3" fill="#ff3c3c" stroke="#c71f1f" /><rect x="355.0" y="1312.5" width="12.0" height="3" fill="#35df39" stroke="#03aa10" /><rect x="342.0" y="1359.5" width="12.0" height="3" fill="#ff3c3c" stroke="#c71f1f" /><rect x="355.0" y="1359.5" width="12.0" height="3" fill="#35df39" stroke="#03aa10" /><rect x="342.0" y="1406.5" width="12.0" height="3" fill="#ff3c3c" stroke="#c71f1f" /><rect x="355.0" y="1406.5" width="12.0" height="3" fill="#35df39" stroke="#03aa10" /><rect x="342.0" y="1453.0" width="12.0" height="3" fill="#ff3c3c" stroke="#c71f1f" /><rect x="355.0" y="1453.0" width="12.0" height="3" fill="#35df39" stroke="#03aa10" /><rect x="482.0" y="0.0" width="12.0" height="3" fill="#80c9ff" stroke="#0b6cba" /><rect x="482.0" y="47.0" width="12.0" height="3" fill="#80c9ff" stroke="#0b6cba" /><rect x="482.0" y="94.0" width="12.0" height="3" fill="#80c9ff" stroke="#0b6cba" /><rect x="482.0" y="140.5" width="12.0" height="3" fill="#80c9ff" stroke="#0b6cba" /><rect x="482.0" y="187.5" width="12.0" height="3" fill="#80c9ff" stroke="#0b6cba" /><rect x="482.0" y="234.5" width="12.0" height="3" fill="#80c9ff" stroke="#0b6cba" /><rect x="482.0" y="281.5" width="12.0" height="3" fill="#80c9ff" stroke="#0b6cba" /><rect x="482.0" y="328.0" width="12.0" height="3" fill="#80c9ff" stroke="#0b6cba" /><rect x="495.0" y="375.0" width="12.0" height="3" fill="#fff874" stroke="#eb9c26" /><rect x="495.0" y="469.0" width="12.0" height="3" fill="#fff874" stroke="#eb9c26" /><rect x="495.0" y="515.5" width="12.0" height="3" fill="#fff874" stroke="#eb9c26" /><rect x="482.0" y="703.0" width="12.0" height="3" fill="#80c9ff" stroke="#0b6cba" /><rect x="495.0" y="750.0" width="12.0" height="3" fill="#fff874" stroke="#eb9c26" /><rect x="495.0" y="844.0" width="12.0" height="3" fill="#fff874" stroke="#eb9c26" /><rect x="482.0" y="890.5" width="12.0" height="211.05" fill="#80c9ff" stroke="#0b6cba" /><rect x="495.0" y="890.5" width="12.0" height="211.05" fill="#fff874" stroke="#eb9c26" /><rect x="456.0" y="1125.0" width="12.0" height="3" fill="#ff3c3c" stroke="#c71f1f" /><rect x="469.0" y="1125.0" width="12.0" height="3" fill="#35df39" stroke="#03aa10" /><rect x="583.0" y="0.0" width="12.0" height="3" fill="#35df39" stroke="#03aa10" /><rect x="583.0" y="108.0" width="12.0" height="3" fill="#35df39" stroke="#03aa10" /><rect x="596.0" y="108.0" width="12.0" height="3" fill="#80c9ff" stroke="#0b6cba" /><rect x="570.0" y="180.0" width="12.0" height="3" fill="#ff3c3c" stroke="#c71f1f" /><rect x="583.0" y="180.0" width="12.0" height="3" fill="#35df39" stroke="#03aa10" /><rect x="583.0" y="216.0" width="12.0" height="3" fill="#35df39" stroke="#03aa10" /><rect x="596.0" y="216.0" width="12.0" height="3" fill="#80c9ff" stroke="#0b6cba" /><rect x="596.0" y="252.0" width="12.0" height="3" fill="#80c9ff" stroke="#0b6cba" /><rect x="583.0" y="288.0" width="12.0" height="3" fill="#35df39" stroke="#03aa10" /><rect x="570.0" y="324.0" width="12.0" height="3" fill="#ff3c3c" stroke="#c71f1f" /><rect x="583.0" y="324.0" width="12.0" height="3" fill="#35df39" stroke="#03aa10" /><rect x="697.0" y="0.0" width="12.0" height="3" fill="#35df39" stroke="#03aa10" /><rect x="697.0" y="108.0" width="12.0" height="3" fill="#35df39" stroke="#03aa10" /><rect x="710.0" y="108.0" width="12.0" height="3" fill="#80c9ff" stroke="#0b6cba" /><rect x="684.0" y="180.0" width="12.0" height="3" fill="#ff3c3c" stroke="#c71f1f" /><rect x="697.0" y="180.0" width="12.0" height="3" fill="#35df39" stroke="#03aa10" /><rect x="697.0" y="216.0" width="12.0" height="3" fill="#35df39" stroke="#03aa10" /><rect x="710.0" y="216.0" width="12.0" height="3" fill="#80c9ff" stroke="#0b6cba" /><rect x="697.0" y="270.0" width="12.0" height="3" fill="#35df39" stroke="#03aa10" /><rect x="710.0" y="270.0" width="12.0" height="3" fill="#80c9ff" stroke="#0b6cba" /><rect x="697.0" y="306.0" width="12.0" height="3" fill="#35df39" stroke="#03aa10" /><rect x="710.0" y="306.0" width="12.0" height="3" fill="#80c9ff" stroke="#0b6cba" /><rect x="697.0" y="396.0" width="12.0" height="3" fill="#35df39" stroke="#03aa10" /><rect x="710.0" y="396.0" width="12.0" height="3" fill="#80c9ff" stroke="#0b6cba" /><rect x="697.0" y="450.0" width="12.0" height="3" fill="#35df39" stroke="#03aa10" /><rect x="710.0" y="450.0" width="12.0" height="3" fill="#80c9ff" stroke="#0b6cba" /><rect x="697.0" y="486.0" width="12.0" height="3" fill="#35df39" stroke="#03aa10" /><rect x="710.0" y="486.0" width="12.0" height="3" fill="#80c9ff" stroke="#0b6cba" /><rect x="811.0" y="0.0" width="12.0" height="3" fill="#35df39" stroke="#03aa10" /><rect x="824.0" y="0.0" width="12.0" height="3" fill="#80c9ff" stroke="#0b6cba" /><rect x="824.0" y="54.0" width="12.0" height="3" fill="#80c9ff" stroke="#0b6cba" /><rect x="811.0" y="108.0" width="12.0" height="3" fill="#35df39" stroke="#03aa10" /><rect x="798.0" y="162.0" width="12.0" height="3" fill="#ff3c3c" stroke="#c71f1f" /><rect x="798.0" y="216.0" width="12.0" height="194.4" fill="#ff3c3c" stroke="#c71f1f" /><rect x="811.0" y="216.0" width="12.0" height="194.4" fill="#35df39" stroke="#03aa10" /><rect x="798.0" y="432.0" width="12.0" height="3" fill="#ff3c3c" stroke="#c71f1f" /><rect x="824.0" y="432.0" width="12.0" height="3" fill="#80c9ff" stroke="#0b6cba" /><rect x="824.0" y="468.0" width="12.0" height="3" fill="#80c9ff" stroke="#0b6cba" /><rect x="951.0" y="0.0" width="12.0" height="3" fill="#fff874" stroke="#eb9c26" /><rect x="951.0" y="18.0" width="12.0" height="3" fill="#fff874" stroke="#eb9c26" /><rect x="951.0" y="54.0" width="12.0" height="3" fill="#fff874" stroke="#eb9c26" /><rect x="938.0" y="90.0" width="12.0" height="3" fill="#80c9ff" stroke="#0b6cba" /><rect x="951.0" y="108.0" width="12.0" height="3" fill="#fff874" stroke="#eb9c26" /><rect x="925.0" y="144.0" width="12.0" height="3" fill="#35df39" stroke="#03aa10" /><rect x="938.0" y="144.0" width="12.0" height="3" fill="#80c9ff" stroke="#0b6cba" /><rect x="951.0" y="216.0" width="12.0" height="3" fill="#fff874" stroke="#eb9c26" /><rect x="951.0" y="234.0" width="12.0" height="3" fill="#fff874" stroke="#eb9c26" /><rect x="951.0" y="270.0" width="12.0" height="3" fill="#fff874" stroke="#eb9c26" /><rect x="938.0" y="306.0" width="12.0" height="3" fill="#80c9ff" stroke="#0b6cba" /><rect x="951.0" y="324.0" width="12.0" height="3" fill="#fff874" stroke="#eb9c26" /><rect x="925.0" y="360.0" width="12.0" height="3" fill="#35df39" stroke="#03aa10" /><rect x="938.0" y="360.0" width="12.0" height="3" fill="#80c9ff" stroke="#0b6cba" /><rect x="1065.0" y="0.0" width="12.0" height="3" fill="#fff874" stroke="#eb9c26" /><rect x="1065.0" y="18.0" width="12.0" height="3" fill="#fff874" stroke="#eb9c26" /><rect x="1065.0" y="54.0" width="12.0" height="3" fill="#fff874" stroke="#eb9c26" /><rect x="1052.0" y="90.0" width="12.0" height="3" fill="#80c9ff" stroke="#0b6cba" /><rect x="1065.0" y="108.0" width="12.0" height="3" fill="#fff874" stroke="#eb9c26" /><rect x="1039.0" y="144.0" width="12.0" height="3" fill="#35df39" stroke="#03aa10" /><rect x="1052.0" y="144.0" width="12.0" height="3" fill="#80c9ff" stroke="#0b6cba" /><rect x="1065.0" y="216.0" width="12.0" height="3" fill="#fff874" stroke="#eb9c26" /><rect x="1065.0" y="234.0" width="12.0" height="3" fill="#fff874" stroke="#eb9c26" /><rect x="1065.0" y="270.0" width="12.0" height="3" fill="#fff874" stroke="#eb9c26" /><rect x="1052.0" y="306.0" width="12.0" height="3" fill="#80c9ff" stroke="#0b6cba" /><rect x="1065.0" y="324.0" width="12.0" height="3" fill="#fff874" stroke="#eb9c26" /><rect x="1039.0" y="360.0" width="12.0" height="3" fill="#35df39" stroke="#03aa10" /><rect x="1052.0" y="360.0" width="12.0" height="3" fill="#80c9ff" stroke="#0b6cba" /><rect x="1166.0" y="0.0" width="12.0" height="3" fill="#80c9ff" stroke="#0b6cba" /><rect x="1166.0" y="18.0" width="12.0" height="3" fill="#80c9ff" stroke="#0b6cba" /><rect x="1166.0" y="54.0" width="12.0" height="3" fill="#80c9ff" stroke="#0b6cba" /><rect x="1153.0" y="90.0" width="12.0" height="3" fill="#35df39" stroke="#03aa10" /><rect x="1166.0" y="108.0" width="12.0" height="3" fill="#80c9ff" stroke="#0b6cba" /><rect x="1140.0" y="144.0" width="12.0" height="3" fill="#ff3c3c" stroke="#c71f1f" /><rect x="1153.0" y="144.0" width="12.0" height="3" fill="#35df39" stroke="#03aa10" /><rect x="1166.0" y="216.0" width="12.0" height="3" fill="#80c9ff" stroke="#0b6cba" /><rect x="1166.0" y="234.0" width="12.0" height="3" fill="#80c9ff" stroke="#0b6cba" /><rect x="1166.0" y="270.0" width="12.0" height="3" fill="#80c9ff" stroke="#0b6cba" /><rect x="1153.0" y="306.0" width="12.0" height="3" fill="#35df39" stroke="#03aa10" /><rect x="1166.0" y="324.0" width="12.0" height="3" fill="#80c9ff" stroke="#0b6cba" /><rect x="1140.0" y="360.0" width="12.0" height="3" fill="#ff3c3c" stroke="#c71f1f" /><rect x="1153.0" y="360.0" width="12.0" height="3" fill="#35df39" stroke="#03aa10" /><rect x="1280.0" y="0.0" width="12.0" height="3" fill="#80c9ff" stroke="#0b6cba" /><rect x="1280.0" y="18.0" width="12.0" height="3" fill="#80c9ff" stroke="#0b6cba" /><rect x="1280.0" y="54.0" width="12.0" height="3" fill="#80c9ff" stroke="#0b6cba" /><rect x="1267.0" y="90.0" width="12.0" height="3" fill="#35df39" stroke="#03aa10" /><rect x="1280.0" y="108.0" width="12.0" height="3" fill="#80c9ff" stroke="#0b6cba" /><rect x="1280.0" y="144.0" width="12.0" height="3" fill="#80c9ff" stroke="#0b6cba" /><rect x="1293.0" y="144.0" width="12.0" height="3" fill="#fff874" stroke="#eb9c26" /><rect x="1280.0" y="216.0" width="12.0" height="3" fill="#80c9ff" stroke="#0b6cba" /><rect x="1280.0" y="234.0" width="12.0" height="3" fill="#80c9ff" stroke="#0b6cba" /><rect x="1280.0" y="270.0" width="12.0" height="3" fill="#80c9ff" stroke="#0b6cba" /><rect x="1267.0" y="306.0" width="12.0" height="3" fill="#35df39" stroke="#03aa10" /><rect x="1280.0" y="324.0" width="12.0" height="3" fill="#80c9ff" stroke="#0b6cba" /><rect x="1267.0" y="360.0" width="12.0" height="3" fill="#35df39" stroke="#03aa10" /><rect x="1293.0" y="360.0" width="12.0" height="3" fill="#fff874" stroke="#eb9c26" /><rect x="1293.0" y="414.0" width="12.0" height="3" fill="#fff874" stroke="#eb9c26" /><rect x="1407.0" y="0.0" width="12.0" height="3" fill="#fff874" stroke="#eb9c26" /><rect x="1407.0" y="18.0" width="12.0" height="3" fill="#fff874" stroke="#eb9c26" /><rect x="1407.0" y="54.0" width="12.0" height="3" fill="#fff874" stroke="#eb9c26" /><rect x="1394.0" y="90.0" width="12.0" height="3" fill="#80c9ff" stroke="#0b6cba" /><rect x="1407.0" y="108.0" width="12.0" height="3" fill="#fff874" stroke="#eb9c26" /><rect x="1381.0" y="144.0" width="12.0" height="3" fill="#35df39" stroke="#03aa10" /><rect x="1407.0" y="216.0" width="12.0" height="3" fill="#fff874" stroke="#eb9c26" /><rect x="1407.0" y="234.0" width="12.0" height="3" fill="#fff874" stroke="#eb9c26" /><rect x="1407.0" y="270.0" width="12.0" height="3" fill="#fff874" stroke="#eb9c26" /><rect x="1394.0" y="306.0" width="12.0" height="3" fill="#80c9ff" stroke="#0b6cba" /><rect x="1407.0" y="324.0" width="12.0" height="3" fill="#fff874" stroke="#eb9c26" /><rect x="1394.0" y="360.0" width="12.0" height="3" fill="#80c9ff" stroke="#0b6cba" /><rect x="1407.0" y="360.0" width="12.0" height="3" fill="#fff874" stroke="#eb9c26" /><rect x="1508.0" y="18.0" width="12.0" height="3" fill="#80c9ff" stroke="#0b6cba" /><rect x="1508.0" y="36.0" width="12.0" height="3" fill="#80c9ff" stroke="#0b6cba" /><rect x="1508.0" y="54.0" width="12.0" height="3" fill="#80c9ff" stroke="#0b6cba" /><rect x="1521.0" y="72.0" width="12.0" height="3" fill="#fff874" stroke="#eb9c26" /><rect x="1508.0" y="90.0" width="12.0" height="3" fill="#80c9ff" stroke="#0b6cba" /><rect x="1521.0" y="108.0" width="12.0" height="3" fill="#fff874" stroke="#eb9c26" /><rect x="1521.0" y="126.0" width="12.0" height="3" fill="#fff874" stroke="#eb9c26" /><rect x="1521.0" y="144.0" width="12.0" height="3" fill="#fff874" stroke="#eb9c26" /><rect x="1521.0" y="162.0" width="12.0" height="3" fill="#fff874" stroke="#eb9c26" /><rect x="1508.0" y="180.0" width="12.0" height="3" fill="#80c9ff" stroke="#0b6cba" /><rect x="1495.0" y="198.0" width="12.0" height="3" fill="#35df39" stroke="#03aa10" /><rect x="1482.0" y="216.0" width="12.0" height="3" fill="#ff3c3c" stroke="#c71f1f" /><rect x="1482.0" y="234.0" width="12.0" height="3" fill="#ff3c3c" stroke="#c71f1f" /><rect x="1482.0" y="252.0" width="12.0" height="3" fill="#ff3c3c" stroke="#c71f1f" /><rect x="1482.0" y="270.0" width="12.0" height="3" fill="#ff3c3c" stroke="#c71f1f" /><rect x="1495.0" y="288.0" width="12.0" height="3" fill="#35df39" stroke="#03aa10" /><rect x="1482.0" y="306.0" width="12.0" height="3" fill="#ff3c3c" stroke="#c71f1f" /><rect x="1482.0" y="324.0" width="12.0" height="144.0" fill="#ff3c3c" stroke="#c71f1f" /><rect x="1495.0" y="324.0" width="12.0" height="144.0" fill="#35df39" stroke="#03aa10" /><rect x="1596.0" y="36.0" width="12.0" height="3" fill="#ff3c3c" stroke="#c71f1f" /><rect x="1622.0" y="72.0" width="12.0" height="3" fill="#80c9ff" stroke="#0b6cba" /><rect x="1635.0" y="72.0" width="12.0" height="3" fill="#fff874" stroke="#eb9c26" /><rect x="1635.0" y="144.0" width="12.0" height="3" fill="#fff874" stroke="#eb9c26" /><rect x="1635.0" y="162.0" width="12.0" height="3" fill="#fff874" stroke="#eb9c26" /><rect x="1635.0" y="198.0" width="12.0" height="3" fill="#fff874" stroke="#eb9c26" /><rect x="1622.0" y="234.0" width="12.0" height="3" fill="#80c9ff" stroke="#0b6cba" /><rect x="1635.0" y="252.0" width="12.0" height="3" fill="#fff874" stroke="#eb9c26" /><rect x="1609.0" y="288.0" width="12.0" height="3" fill="#35df39" stroke="#03aa10" /><rect x="1622.0" y="288.0" width="12.0" height="3" fill="#80c9ff" stroke="#0b6cba" /><rect x="1635.0" y="360.0" width="12.0" height="3" fill="#fff874" stroke="#eb9c26" /><rect x="1635.0" y="378.0" width="12.0" height="3" fill="#fff874" stroke="#eb9c26" /><rect x="1635.0" y="414.0" width="12.0" height="3" fill="#fff874" stroke="#eb9c26" /><rect x="1622.0" y="450.0" width="12.0" height="3" fill="#80c9ff" stroke="#0b6cba" /><rect x="1596.0" y="0.0" width="12.0" height="6.48" fill="#ff3c3c" stroke="#c71f1f" /><rect x="1609.0" y="0.0" width="12.0" height="6.48" fill="#35df39" stroke="#03aa10" /><rect x="1749.0" y="0.0" width="12.0" height="3" fill="#fff874" stroke="#eb9c26" /><rect x="1723.0" y="36.0" width="12.0" height="3" fill="#35df39" stroke="#03aa10" /><rect x="1736.0" y="36.0" width="12.0" height="3" fill="#80c9ff" stroke="#0b6cba" /><rect x="1749.0" y="108.0" width="12.0" height="3" fill="#fff874" stroke="#eb9c26" /><rect x="1749.0" y="126.0" width="12.0" height="3" fill="#fff874" stroke="#eb9c26" /><rect x="1749.0" y="162.0" width="12.0" height="3" fill="#fff874" stroke="#eb9c26" /><rect x="1736.0" y="198.0" width="12.0" height="3" fill="#80c9ff" stroke="#0b6cba" /><rect x="1749.0" y="216.0" width="12.0" height="3" fill="#fff874" stroke="#eb9c26" /><rect x="1723.0" y="252.0" width="12.0" height="3" fill="#35df39" stroke="#03aa10" /><rect x="1736.0" y="252.0" width="12.0" height="3" fill="#80c9ff" stroke="#0b6cba" /><rect x="1749.0" y="324.0" width="12.0" height="3" fill="#fff874" stroke="#eb9c26" /><rect x="1749.0" y="342.0" width="12.0" height="3" fill="#fff874" stroke="#eb9c26" /><rect x="1749.0" y="378.0" width="12.0" height="3" fill="#fff874" stroke="#eb9c26" /><rect x="1736.0" y="414.0" width="12.0" height="3" fill="#80c9ff" stroke="#0b6cba" /><rect x="1863.0" y="0.0" width="12.0" height="3" fill="#fff874" stroke="#eb9c26" /><rect x="1837.0" y="36.0" width="12.0" height="3" fill="#35df39" stroke="#03aa10" /><rect x="1850.0" y="36.0" width="12.0" height="3" fill="#80c9ff" stroke="#0b6cba" /><rect x="1850.0" y="108.0" width="12.0" height="3" fill="#80c9ff" stroke="#0b6cba" /><rect x="1850.0" y="126.0" width="12.0" height="3" fill="#80c9ff" stroke="#0b6cba" /><rect x="1850.0" y="162.0" width="12.0" height="3" fill="#80c9ff" stroke="#0b6cba" /><rect x="1837.0" y="198.0" width="12.0" height="3" fill="#35df39" stroke="#03aa10" /><rect x="1850.0" y="216.0" width="12.0" height="3" fill="#80c9ff" stroke="#0b6cba" /><rect x="1824.0" y="252.0" width="12.0" height="3" fill="#ff3c3c" stroke="#c71f1f" /><rect x="1837.0" y="252.0" width="12.0" height="3" fill="#35df39" stroke="#03aa10" /><rect x="1850.0" y="324.0" width="12.0" height="3" fill="#80c9ff" stroke="#0b6cba" /><rect x="1850.0" y="342.0" width="12.0" height="3" fill="#80c9ff" stroke="#0b6cba" /><rect x="1850.0" y="378.0" width="12.0" height="3" fill="#80c9ff" stroke="#0b6cba" /><rect x="1837.0" y="414.0" width="12.0" height="3" fill="#35df39" stroke="#03aa10" /><rect x="1964.0" y="0.0" width="12.0" height="3" fill="#80c9ff" stroke="#0b6cba" /><rect x="1938.0" y="36.0" width="12.0" height="3" fill="#ff3c3c" stroke="#c71f1f" /><rect x="1951.0" y="36.0" width="12.0" height="3" fill="#35df39" stroke="#03aa10" /><rect x="1964.0" y="108.0" width="12.0" height="3" fill="#80c9ff" stroke="#0b6cba" /><rect x="1964.0" y="126.0" width="12.0" height="3" fill="#80c9ff" stroke="#0b6cba" /><rect x="1964.0" y="162.0" width="12.0" height="3" fill="#80c9ff" stroke="#0b6cba" /><rect x="1951.0" y="198.0" width="12.0" height="3" fill="#35df39" stroke="#03aa10" /><rect x="1964.0" y="216.0" width="12.0" height="3" fill="#80c9ff" stroke="#0b6cba" /><rect x="1964.0" y="252.0" width="12.0" height="3" fill="#80c9ff" stroke="#0b6cba" /><rect x="1977.0" y="252.0" width="12.0" height="3" fill="#fff874" stroke="#eb9c26" /><rect x="1964.0" y="324.0" width="12.0" height="3" fill="#80c9ff" stroke="#0b6cba" /><rect x="1964.0" y="342.0" width="12.0" height="3" fill="#80c9ff" stroke="#0b6cba" /><rect x="1964.0" y="378.0" width="12.0" height="3" fill="#80c9ff" stroke="#0b6cba" /><rect x="1951.0" y="414.0" width="12.0" height="3" fill="#35df39" stroke="#03aa10" /><rect x="2065.0" y="0.0" width="12.0" height="3" fill="#35df39" stroke="#03aa10" /><rect x="2091.0" y="0.0" width="12.0" height="3" fill="#fff874" stroke="#eb9c26" /><rect x="2078.0" y="36.0" width="12.0" height="3" fill="#80c9ff" stroke="#0b6cba" /><rect x="2091.0" y="36.0" width="12.0" height="3" fill="#fff874" stroke="#eb9c26" /><rect x="2091.0" y="108.0" width="12.0" height="3" fill="#fff874" stroke="#eb9c26" /><rect x="2091.0" y="126.0" width="12.0" height="3" fill="#fff874" stroke="#eb9c26" /><rect x="2091.0" y="162.0" width="12.0" height="3" fill="#fff874" stroke="#eb9c26" /><rect x="2078.0" y="198.0" width="12.0" height="3" fill="#80c9ff" stroke="#0b6cba" /><rect x="2091.0" y="216.0" width="12.0" height="3" fill="#fff874" stroke="#eb9c26" /><rect x="2065.0" y="252.0" width="12.0" height="3" fill="#35df39" stroke="#03aa10" /><rect x="2078.0" y="252.0" width="12.0" height="3" fill="#80c9ff" stroke="#0b6cba" /><rect x="2091.0" y="324.0" width="12.0" height="3" fill="#fff874" stroke="#eb9c26" /><rect x="2091.0" y="342.0" width="12.0" height="3" fill="#fff874" stroke="#eb9c26" /><rect x="2091.0" y="378.0" width="12.0" height="3" fill="#fff874" stroke="#eb9c26" /><rect x="2078.0" y="414.0" width="12.0" height="3" fill="#80c9ff" stroke="#0b6cba" /><rect x="2205.0" y="0.0" width="12.0" height="3" fill="#fff874" stroke="#eb9c26" /><rect x="2179.0" y="36.0" width="12.0" height="3" fill="#35df39" stroke="#03aa10" /><rect x="2192.0" y="36.0" width="12.0" height="3" fill="#80c9ff" stroke="#0b6cba" /><rect x="2205.0" y="108.0" width="12.0" height="3" fill="#fff874" stroke="#eb9c26" /><rect x="2192.0" y="162.0" width="12.0" height="3" fill="#80c9ff" stroke="#0b6cba" /><rect x="2205.0" y="162.0" width="12.0" height="3" fill="#fff874" stroke="#eb9c26" /><rect x="2192.0" y="216.0" width="12.0" height="3" fill="#80c9ff" stroke="#0b6cba" /><rect x="2179.0" y="270.0" width="12.0" height="3" fill="#35df39" stroke="#03aa10" /><rect x="2205.0" y="270.0" width="12.0" height="3" fill="#fff874" stroke="#eb9c26" /><rect x="2179.0" y="324.0" width="12.0" height="3" fill="#35df39" stroke="#03aa10" /><rect x="2192.0" y="324.0" width="12.0" height="3" fill="#80c9ff" stroke="#0b6cba" /><rect x="2166.0" y="378.0" width="12.0" height="3" fill="#ff3c3c" stroke="#c71f1f" /><rect x="2192.0" y="378.0" width="12.0" height="3" fill="#80c9ff" stroke="#0b6cba" /><rect x="2280.0" y="0.0" width="12.0" height="3" fill="#ff3c3c" stroke="#c71f1f" /><rect x="2293.0" y="0.0" width="12.0" height="3" fill="#35df39" stroke="#03aa10" /><rect x="2280.0" y="54.0" width="12.0" height="3" fill="#ff3c3c" stroke="#c71f1f" /><rect x="2306.0" y="108.0" width="12.0" height="3" fill="#80c9ff" stroke="#0b6cba" /><rect x="2306.0" y="126.0" width="12.0" height="3" fill="#80c9ff" stroke="#0b6cba" /><rect x="2306.0" y="162.0" width="12.0" height="3" fill="#80c9ff" stroke="#0b6cba" /><rect x="2293.0" y="198.0" width="12.0" height="3" fill="#35df39" stroke="#03aa10" /><rect x="2306.0" y="216.0" width="12.0" height="3" fill="#80c9ff" stroke="#0b6cba" /><rect x="2280.0" y="252.0" width="12.0" height="3" fill="#ff3c3c" stroke="#c71f1f" /><rect x="2293.0" y="252.0" width="12.0" height="3" fill="#35df39" stroke="#03aa10" /><rect x="2306.0" y="324.0" width="12.0" height="3" fill="#80c9ff" stroke="#0b6cba" /><rect x="2306.0" y="342.0" width="12.0" height="3" fill="#80c9ff" stroke="#0b6cba" /><rect x="2306.0" y="378.0" width="12.0" height="3" fill="#80c9ff" stroke="#0b6cba" /><rect x="2293.0" y="414.0" width="12.0" height="3" fill="#35df39" stroke="#03aa10" /><rect x="2420.0" y="0.0" width="12.0" height="3" fill="#80c9ff" stroke="#0b6cba" /><rect x="2420.0" y="36.0" width="12.0" height="3" fill="#80c9ff" stroke="#0b6cba" /><rect x="2433.0" y="36.0" width="12.0" height="3" fill="#fff874" stroke="#eb9c26" /><rect x="2420.0" y="108.0" width="12.0" height="3" fill="#80c9ff" stroke="#0b6cba" /><rect x="2420.0" y="126.0" width="12.0" height="3" fill="#80c9ff" stroke="#0b6cba" /><rect x="2420.0" y="162.0" width="12.0" height="3" fill="#80c9ff" stroke="#0b6cba" /><rect x="2407.0" y="198.0" width="12.0" height="3" fill="#35df39" stroke="#03aa10" /><rect x="2420.0" y="216.0" width="12.0" height="3" fill="#80c9ff" stroke="#0b6cba" /><rect x="2394.0" y="252.0" width="12.0" height="3" fill="#ff3c3c" stroke="#c71f1f" /><rect x="2407.0" y="252.0" width="12.0" height="3" fill="#35df39" stroke="#03aa10" /><rect x="2394.0" y="270.0" width="12.0" height="3" fill="#ff3c3c" stroke="#c71f1f" /><rect x="2407.0" y="270.0" width="12.0" height="3" fill="#35df39" stroke="#03aa10" /><rect x="2394.0" y="288.0" width="12.0" height="3" fill="#ff3c3c" stroke="#c71f1f" /><rect x="2407.0" y="288.0" width="12.0" height="3" fill="#35df39" stroke="#03aa10" /><rect x="2407.0" y="306.0" width="12.0" height="3" fill="#35df39" stroke="#03aa10" /><rect x="2407.0" y="324.0" width="12.0" height="3" fill="#35df39" stroke="#03aa10" /><rect x="2407.0" y="342.0" width="12.0" height="3" fill="#35df39" stroke="#03aa10" /><rect x="2420.0" y="360.0" width="12.0" height="3" fill="#80c9ff" stroke="#0b6cba" /><rect x="2420.0" y="378.0" width="12.0" height="3" fill="#80c9ff" stroke="#0b6cba" /><rect x="2420.0" y="396.0" width="12.0" height="3" fill="#80c9ff" stroke="#0b6cba" /><rect x="2420.0" y="414.0" width="12.0" height="3" fill="#80c9ff" stroke="#0b6cba" /><rect x="2433.0" y="414.0" width="12.0" height="3" fill="#fff874" stroke="#eb9c26" /><rect x="2534.0" y="0.0" width="12.0" height="3" fill="#80c9ff" stroke="#0b6cba" /><rect x="2547.0" y="0.0" width="12.0" height="3" fill="#fff874" stroke="#eb9c26" /><rect x="2534.0" y="18.0" width="12.0" height="3" fill="#80c9ff" stroke="#0b6cba" /><rect x="2547.0" y="18.0" width="12.0" height="3" fill="#fff874" stroke="#eb9c26" /><rect x="2547.0" y="36.0" width="12.0" height="3" fill="#fff874" stroke="#eb9c26" /><rect x="2547.0" y="45.0" width="12.0" height="3" fill="#fff874" stroke="#eb9c26" /><rect x="2547.0" y="54.0" width="12.0" height="3" fill="#fff874" stroke="#eb9c26" /><rect x="2508.0" y="108.0" width="12.0" height="3" fill="#ff3c3c" stroke="#c71f1f" /><rect x="2521.0" y="108.0" width="12.0" height="3" fill="#35df39" stroke="#03aa10" /><rect x="2521.0" y="216.0" width="12.0" height="3" fill="#35df39" stroke="#03aa10" /><rect x="2521.0" y="324.0" width="12.0" height="3" fill="#35df39" stroke="#03aa10" /><rect x="2534.0" y="324.0" width="12.0" height="3" fill="#80c9ff" stroke="#0b6cba" /><rect x="2508.0" y="396.0" width="12.0" height="3" fill="#ff3c3c" stroke="#c71f1f" /><rect x="2521.0" y="396.0" width="12.0" height="3" fill="#35df39" stroke="#03aa10" /><rect x="2635.0" y="0.0" width="12.0" height="3" fill="#35df39" stroke="#03aa10" /><rect x="2648.0" y="0.0" width="12.0" height="3" fill="#80c9ff" stroke="#0b6cba" /><rect x="2648.0" y="36.0" width="12.0" height="3" fill="#80c9ff" stroke="#0b6cba" /><rect x="2635.0" y="72.0" width="12.0" height="3" fill="#35df39" stroke="#03aa10" /><rect x="2622.0" y="108.0" width="12.0" height="3" fill="#ff3c3c" stroke="#c71f1f" /><rect x="2635.0" y="108.0" width="12.0" height="3" fill="#35df39" stroke="#03aa10" /><rect x="2635.0" y="216.0" width="12.0" height="3" fill="#35df39" stroke="#03aa10" /><rect x="2635.0" y="324.0" width="12.0" height="3" fill="#35df39" stroke="#03aa10" /><rect x="2648.0" y="324.0" width="12.0" height="3" fill="#80c9ff" stroke="#0b6cba" /><rect x="2648.0" y="396.0" width="12.0" height="3" fill="#80c9ff" stroke="#0b6cba" /><rect x="2775.0" y="0.0" width="12.0" height="3" fill="#fff874" stroke="#eb9c26" /><rect x="2749.0" y="36.0" width="12.0" height="3" fill="#35df39" stroke="#03aa10" /><rect x="2775.0" y="36.0" width="12.0" height="3" fill="#fff874" stroke="#eb9c26" /><rect x="2749.0" y="72.0" width="12.0" height="3" fill="#35df39" stroke="#03aa10" /><rect x="2749.0" y="108.0" width="12.0" height="3" fill="#35df39" stroke="#03aa10" /><rect x="2762.0" y="108.0" width="12.0" height="3" fill="#80c9ff" stroke="#0b6cba" /><rect x="2762.0" y="216.0" width="12.0" height="3" fill="#80c9ff" stroke="#0b6cba" /><rect x="2762.0" y="324.0" width="12.0" height="3" fill="#80c9ff" stroke="#0b6cba" /><rect x="2775.0" y="324.0" width="12.0" height="3" fill="#fff874" stroke="#eb9c26" /><rect x="2889.0" y="0.0" width="12.0" height="3" fill="#fff874" stroke="#eb9c26" /><rect x="2876.0" y="36.0" width="12.0" height="3" fill="#80c9ff" stroke="#0b6cba" /><rect x="2863.0" y="72.0" width="12.0" height="3" fill="#35df39" stroke="#03aa10" /><rect x="2850.0" y="108.0" width="12.0" height="3" fill="#ff3c3c" stroke="#c71f1f" /><rect x="2850.0" y="126.0" width="12.0" height="3" fill="#ff3c3c" stroke="#c71f1f" /><rect x="2850.0" y="144.0" width="12.0" height="3" fill="#ff3c3c" stroke="#c71f1f" /><rect x="2850.0" y="162.0" width="12.0" height="3" fill="#ff3c3c" stroke="#c71f1f" /><rect x="2863.0" y="180.0" width="12.0" height="3" fill="#35df39" stroke="#03aa10" /><rect x="2876.0" y="198.0" width="12.0" height="3" fill="#80c9ff" stroke="#0b6cba" /><rect x="2863.0" y="216.0" width="12.0" height="3" fill="#35df39" stroke="#03aa10" /><rect x="2863.0" y="234.0" width="12.0" height="3" fill="#35df39" stroke="#03aa10" /><rect x="2863.0" y="252.0" width="12.0" height="3" fill="#35df39" stroke="#03aa10" /><rect x="2863.0" y="270.0" width="12.0" height="3" fill="#35df39" stroke="#03aa10" /><rect x="2876.0" y="288.0" width="12.0" height="3" fill="#80c9ff" stroke="#0b6cba" /><rect x="2889.0" y="306.0" width="12.0" height="3" fill="#fff874" stroke="#eb9c26" /><rect x="2876.0" y="324.0" width="12.0" height="3" fill="#80c9ff" stroke="#0b6cba" /><rect x="2876.0" y="342.0" width="12.0" height="3" fill="#80c9ff" stroke="#0b6cba" /><rect x="2876.0" y="360.0" width="12.0" height="3" fill="#80c9ff" stroke="#0b6cba" /><rect x="2876.0" y="378.0" width="12.0" height="3" fill="#80c9ff" stroke="#0b6cba" /><rect x="2889.0" y="396.0" width="12.0" height="3" fill="#fff874" stroke="#eb9c26" /><rect x="2876.0" y="414.0" width="12.0" height="3" fill="#80c9ff" stroke="#0b6cba" /><rect x="2977.0" y="0.0" width="12.0" height="3" fill="#35df39" stroke="#03aa10" /><rect x="2990.0" y="0.0" width="12.0" height="3" fill="#80c9ff" stroke="#0b6cba" /><rect x="2977.0" y="54.0" width="12.0" height="3" fill="#35df39" stroke="#03aa10" /><rect x="2990.0" y="54.0" width="12.0" height="3" fill="#80c9ff" stroke="#0b6cba" /><rect x="2977.0" y="90.0" width="12.0" height="3" fill="#35df39" stroke="#03aa10" /><rect x="2990.0" y="90.0" width="12.0" height="3" fill="#80c9ff" stroke="#0b6cba" /><rect x="2977.0" y="180.0" width="12.0" height="3" fill="#35df39" stroke="#03aa10" /><rect x="2990.0" y="180.0" width="12.0" height="3" fill="#80c9ff" stroke="#0b6cba" /><rect x="2977.0" y="234.0" width="12.0" height="3" fill="#35df39" stroke="#03aa10" /><rect x="2990.0" y="234.0" width="12.0" height="3" fill="#80c9ff" stroke="#0b6cba" /><rect x="2977.0" y="270.0" width="12.0" height="3" fill="#35df39" stroke="#03aa10" /><rect x="2990.0" y="270.0" width="12.0" height="3" fill="#80c9ff" stroke="#0b6cba" /><rect x="2977.0" y="360.0" width="12.0" height="3" fill="#35df39" stroke="#03aa10" /><rect x="2990.0" y="360.0" width="12.0" height="3" fill="#80c9ff" stroke="#0b6cba" /><rect x="2977.0" y="414.0" width="12.0" height="3" fill="#35df39" stroke="#03aa10" /><rect x="2990.0" y="414.0" width="12.0" height="3" fill="#80c9ff" stroke="#0b6cba" /><rect x="2977.0" y="450.0" width="12.0" height="3" fill="#35df39" stroke="#03aa10" /><rect x="2990.0" y="450.0" width="12.0" height="3" fill="#80c9ff" stroke="#0b6cba" /><rect x="2977.0" y="540.0" width="12.0" height="3" fill="#35df39" stroke="#03aa10" /><rect x="2990.0" y="540.0" width="12.0" height="3" fill="#80c9ff" stroke="#0b6cba" /><rect x="2977.0" y="594.0" width="12.0" height="3" fill="#35df39" stroke="#03aa10" /><rect x="2990.0" y="594.0" width="12.0" height="3" fill="#80c9ff" stroke="#0b6cba" /><rect x="2977.0" y="648.0" width="12.0" height="3" fill="#35df39" stroke="#03aa10" /><rect x="2990.0" y="648.0" width="12.0" height="3" fill="#80c9ff" stroke="#0b6cba" /><rect x="2977.0" y="684.0" width="12.0" height="3" fill="#35df39" stroke="#03aa10" /><rect x="2990.0" y="684.0" width="12.0" height="3" fill="#80c9ff" stroke="#0b6cba" /><rect x="2977.0" y="702.0" width="12.0" height="3" fill="#35df39" stroke="#03aa10" /><rect x="2990.0" y="702.0" width="12.0" height="3" fill="#80c9ff" stroke="#0b6cba" /></svg>