<?xml version="1.0" encoding="UTF-8"?><svg xmlns="http://www.w3.org/2000/svg" xmlns:xlink="http://www.w3.org/1999/xlink"     width="1938" height="1043.0" viewBox="0 0 1938 1043.0"><defs></defs><rect x="0" y="0" width="64" height="1028.5" fill="black" /><rect x="0" y="0.0" width="64" height="1" fill="white" fill-opacity="0.5" /><text x="74" y="14.0" font-size="14" fill="white" font-family="monospace" dominant-baseline="ideographic">1</text><rect x="0" y="64.5" width="64" height="1" fill="white" fill-opacity="0.2" /><rect x="0" y="128.5" width="64" height="1" fill="white" fill-opacity="0.2" /><rect x="0" y="193.0" width="64" height="1" fill="white" fill-opacity="0.2" /><rect x="0" y="257.0" width="64" height="1" fill="white" fill-opacity="0.5" /><text x="74" y="271.0" font-size="14" fill="white" font-family="monospace" dominant-baseline="ideographic">2</text><rect x="0" y="321.5" width="64" height="1" fill="white" fill-opacity="0.2" /><rect x="0" y="385.5" width="64" height="1" fill="white" fill-opacity="0.2" /><rect x="0" y="450.0" width="64" height="1" fill="white" fill-opacity="0.2" /><rect x="0" y="514.5" width="64" height="1" fill="white" fill-opacity="0.5" /><text x="74" y="528.5" font-size="14" fill="white" font-family="monospace" dominant-baseline="ideographic">3</text><rect x="0" y="578.5" width="64" height="1" fill="white" fill-opacity="0.2" /><rect x="0" y="643.0" width="64" height="1" fill="white" fill-opacity="0.2" /><rect x="0" y="707.0" width="64" height="1" fill="white" fill-opacity="0.2" /><rect x="0" y="771.5" width="64" height="1" fill="white" fill-opacity="0.5" /><text x="74" y="785.5" font-size="14" fill="white" font-family="monospace" dominant-baseline="ideographic">4</text><rect x="0" y="835.5" width="64" height="1" fill="white" fill-opacity="0.2" /><rect x="0" y="900.0" width="64" height="1" fill="white" fill-opacity="0.2" /><rect x="0" y="964.5" width="64" height="1" fill="white" fill-opacity="0.2" /><rect x="0" y="1028.5" width="64" height="1" fill="white" fill-opacity="0.5" /><text x="74" y="1042.5" font-size="14" fill="white" font-family="monospace" dominant-baseline="ideographic">5</text><rect x="0" y="0.0" width="64" height="1" fill="aqua" fill-opacity="0.75" /><text x="0" y="14.0" font-size="14" fill="aqua" fill-opacity="0.75" font-family="monospace">Intro</text><rect x="0" y="0.0" width="64" height="1" fill="lime" fill-opacity="0.75" /><text x="74" y="28.0" font-size="14" fill="lime" font-family="monospace" dominant-baseline="ideographic">140</text><rect x="114" y="0" width="64" height="1028.5" fill="black" /><rect x="114" y="0.0" width="64" height="1" fill="white" fill-opacity="0.5" /><text x="188" y="14.0" font-size="14" fill="white" font-family="monospace" dominant-baseline="ideographic">5</text><rect x="114" y="64.5" width="64" height="1" fill="white" fill-opacity="0.2" /><rect x="114" y="128.5" width="64" height="1" fill="white" fill-opacity="0.2" /><rect x="114" y="193.0" width="64" height="1" fill="white" fill-opacity="0.2" /><rect x="114" y="257.0" width="64" height="1" fill="white" fill-opacity="0.5" /><text x="188" y="271.0" font-size="14" fill="white" font-family="monospace" dominant-baseline="ideographic">6</text><rect x="114" y="321.5" width="64" height="1" fill="white" fill-opacity="0.2" /><rect x="114" y="386.0" width="64" height="1" fill="white" fill-opacity="0.2" /><rect x="114" y="450.0" width="64" height="1" fill="white" fill-opacity="0.2" /><rect x="114" y="514.5" width="64" height="1" fill="white" fill-opacity="0.5" /><text x="188" y="528.5" font-size="14" fill="white" font-family="monospace" dominant-baseline="ideographic">7</text><rect x="114" y="578.5" width="64" height="1" fill="white" fill-opacity="0.2" /><rect x="114" y="643.0" width="64" height="1" fill="white" fill-opacity="0.2" /><rect x="114" y="707.0" width="64" height="1" fill="white" fill-opacity="0.2" /><rect x="114" y="771.5" width="64" height="1" fill="white" fill-opacity="0.5" /><text x="188" y="785.5" font-size="14" fill="white" font-family="monospace" dominant-baseline="ideographic">8</text><rect x="114" y="836.0" width="64" height="1" fill="white" fill-opacity="0.2" /><rect x="114" y="900.0" width="64" height="1" fill="white" fill-opacity="0.2" /><rect x="114" y="964.5" width="64" height="1" fill="white" fill-opacity="0.2" /><rect x="114" y="1028.5" width="64" height="1" fill="white" fill-opacity="0.5" /><text x="188" y="1042.5" font-size="14" fill="white" font-family="monospace" dominant-baseline="ideographic">9</text><rect x="228" y="0" width="64" height="1028.5" fill="black" /><rect x="228" y="0.0" width="64" height="1" fill="white" fill-opacity="0.5" /><text x="302" y="14.0" font-size="14" fill="white" font-family="monospace" dominant-baseline="ideographic">9</text><rect x="228" y="64.5" width="64" height="1" fill="white" fill-opacity="0.2" /><rect x="228" y="128.5" width="64" height="1" fill="white" fill-opacity="0.2" /><rect x="228" y="193.0" width="64" height="1" fill="white" fill-opacity="0.2" /><rect x="228" y="257.5" width="64" height="1" fill="white" fill-opacity="0.5" /><text x="302" y="271.5" font-size="14" fill="white" font-family="monospace" dominant-baseline="ideographic">10</text><rect x="228" y="321.5" width="64" height="1" fill="white" fill-opacity="0.2" /><rect x="228" y="386.0" width="64" height="1" fill="white" fill-opacity="0.2" /><rect x="228" y="450.0" width="64" height="1" fill="white" fill-opacity="0.2" /><rect x="228" y="514.5" width="64" height="1" fill="white" fill-opacity="0.5" /><text x="302" y="528.5" font-size="14" fill="white" font-family="monospace" dominant-baseline="ideographic">11</text><rect x="228" y="578.5" width="64" height="1" fill="white" fill-opacity="0.2" /><rect x="228" y="643.0" width="64" height="1" fill="white" fill-opacity="0.2" /><rect x="228" y="707.5" width="64" height="1" fill="white" fill-opacity="0.2" /><rect x="228" y="771.5" width="64" height="1" fill="white" fill-opacity="0.5" /><text x="302" y="785.5" font-size="14" fill="white" font-family="monospace" dominant-baseline="ideographic">12</text><rect x="228" y="836.0" width="64" height="1" fill="white" fill-opacity="0.2" /><rect x="228" y="900.0" width="64" height="1" fill="white" fill-opacity="0.2" /><rect x="228" y="964.5" width="64" height="1" fill="white" fill-opacity="0.2" /><rect x="228" y="1028.5" width="64" height="1" fill="white" fill-opacity="0.5" /><text x="302" y="1042.5" font-size="14" fill="white" font-family="monospace" dominant-baseline="ideographic">13</text><rect x="228" y="257.3499999999999" width="64" height="1" fill="aqua" fill-opacity="0.75" /><text x="228" y="271.3499999999999" font-size="14" fill="aqua" fill-opacity="0.75" font-family="monospace">Special</text><rect x="342" y="0" width="64" height="1029.0" fill="black" /><rect x="342" y="0.0" width="64" height="1" fill="white" fill-opacity="0.5" /><text x="416" y="14.0" font-size="14" fill="white" font-family="monospace" dominant-baseline="ideographic">13</text><rect x="342" y="64.5" width="64" height="1" fill="white" fill-opacity="0.2" /><rect x="342" y="129.0" width="64" height="1" fill="white" fill-opacity="0.2" /><rect x="342" y="193.0" width="64" height="1" fill="white" fill-opacity="0.2" /><rect x="342" y="257.5" width="64" height="1" fill="white" fill-opacity="0.5" /><text x="416" y="271.5" font-size="14" fill="white" font-family="monospace" dominant-baseline="ideographic">14</text><rect x="342" y="321.5" width="64" height="1" fill="white" fill-opacity="0.2" /><rect x="342" y="386.0" width="64" height="1" fill="white" fill-opacity="0.2" /><rect x="342" y="450.0" width="64" height="1" fill="white" fill-opacity="0.2" /><rect x="342" y="514.5" width="64" height="1" fill="white" fill-opacity="0.5" /><text x="416" y="528.5" font-size="14" fill="white" font-family="monospace" dominant-baseline="ideographic">15</text><rect x="342" y="579.0" width="64" height="1" fill="white" fill-opacity="0.2" /><rect x="342" y="643.0" width="64" height="1" fill="white" fill-opacity="0.2" /><rect x="342" y="707.5" width="64" height="1" fill="white" fill-opacity="0.2" /><rect x="342" y="771.5" width="64" height="1" fill="white" fill-opacity="0.5" /><text x="416" y="785.5" font-size="14" fill="white" font-family="monospace" dominant-baseline="ideographic">16</text><rect x="342" y="836.0" width="64" height="1" fill="white" fill-opacity="0.2" /><rect x="342" y="900.0" width="64" height="1" fill="white" fill-opacity="0.2" /><rect x="342" y="964.5" width="64" height="1" fill="white" fill-opacity="0.2" /><rect x="342" y="1029.0" width="64" height="1" fill="white" fill-opacity="0.5" /><text x="416" y="1043.0" font-size="14" fill="white" font-family="monospace" dominant-baseline="ideographic">17</text><rect x="456" y="0" width="64" height="1028.5" fill="black" /><rect x="456" y="0.0" width="64" height="1" fill="white" fill-opacity="0.5" /><text x="530" y="14.0" font-size="14" fill="white" font-family="monospace" dominant-baseline="ideographic">17</text><rect x="456" y="64.0" width="64" height="1" fill="white" fill-opacity="0.2" /><rect x="456" y="128.5" width="64" height="1" fill="white" fill-opacity="0.2" /><rect x="456" y="192.5" width="64" height="1" fill="white" fill-opacity="0.2" /><rect x="456" y="257.0" width="64" height="1" fill="white" fill-opacity="0.5" /><text x="530" y="271.0" font-size="14" fill="white" font-family="monospace" dominant-baseline="ideographic">18</text><rect x="456" y="321.0" width="64" height="1" fill="white" fill-opacity="0.2" /><rect x="456" y="385.5" width="64" height="1" fill="white" fill-opacity="0.2" /><rect x="456" y="450.0" width="64" height="1" fill="white" fill-opacity="0.2" /><rect x="456" y="514.0" width="64" height="1" fill="white" fill-opacity="0.5" /><text x="530" y="528.0" font-size="14" fill="white" font-family="monospace" dominant-baseline="ideographic">19</text><rect x="456" y="578.5" width="64" height="1" fill="white" fill-opacity="0.2" /><rect x="456" y="642.5" width="64" height="1" fill="white" fill-opacity="0.2" /><rect x="456" y="707.0" width="64" height="1" fill="white" fill-opacity="0.2" /><rect x="456" y="771.0" width="64" height="1" fill="white" fill-opacity="0.5" /><text x="530" y="785.0" font-size="14" fill="white" font-family="monospace" dominant-baseline="ideographic">20</text><rect x="456" y="835.5" width="64" height="1" fill="white" fill-opacity="0.2" /><rect x="456" y="900.0" width="64" height="1" fill="white" fill-opacity="0.2" /><rect x="456" y="964.0" width="64" height="1" fill="white" fill-opacity="0.2" /><rect x="456" y="1028.5" width="64" height="1" fill="white" fill-opacity="0.5" /><text x="530" y="1042.5" font-size="14" fill="white" font-family="monospace" dominant-baseline="ideographic">21</text><rect x="456" y="256.9499999999998" width="64" height="1" fill="aqua" fill-opacity="0.75" /><text x="456" y="270.9499999999998" font-size="14" fill="aqua" fill-opacity="0.75" font-family="monospace">Phrase A</text><rect x="570" y="0" width="64" height="1028.5" fill="black" /><rect x="570" y="0.0" width="64" height="1" fill="white" fill-opacity="0.5" /><text x="644" y="14.0" font-size="14" fill="white" font-family="monospace" dominant-baseline="ideographic">21</text><rect x="570" y="64.0" width="64" height="1" fill="white" fill-opacity="0.2" /><rect x="570" y="128.5" width="64" height="1" fill="white" fill-opacity="0.2" /><rect x="570" y="192.5" width="64" height="1" fill="white" fill-opacity="0.2" /><rect x="570" y="257.0" width="64" height="1" fill="white" fill-opacity="0.5" /><text x="644" y="271.0" font-size="14" fill="white" font-family="monospace" dominant-baseline="ideographic">22</text><rect x="570" y="321.5" width="64" height="1" fill="white" fill-opacity="0.2" /><rect x="570" y="385.5" width="64" height="1" fill="white" fill-opacity="0.2" /><rect x="570" y="450.0" width="64" height="1" fill="white" fill-opacity="0.2" /><rect x="570" y="514.0" width="64" height="1" fill="white" fill-opacity="0.5" /><text x="644" y="528.0" font-size="14" fill="white" font-family="monospace" dominant-baseline="ideographic">23</text><rect x="570" y="578.5" width="64" height="1" fill="white" fill-opacity="0.2" /><rect x="570" y="642.5" width="64" height="1" fill="white" fill-opacity="0.2" /><rect x="570" y="707.0" width="64" height="1" fill="white" fill-opacity="0.2" /><rect x="570" y="771.5" width="64" height="1" fill="white" fill-opacity="0.5" /><text x="644" y="785.5" font-size="14" fill="white" font-family="monospace" dominant-baseline="ideographic">24</text><rect x="570" y="835.5" width="64" height="1" fill="white" fill-opacity="0.2" /><rect x="570" y="900.0" width="64" height="1" fill="white" fill-opacity="0.2" /><rect x="570" y="964.0" width="64" height="1" fill="white" fill-opacity="0.2" /><rect x="570" y="1028.5" width="64" height="1" fill="white" fill-opacity="0.5" /><text x="644" y="1042.5" font-size="14" fill="white" font-family="monospace" dominant-baseline="ideographic">25</text><rect x="684" y="0" width="64" height="1028.5" fill="black" /><rect x="684" y="0.0" width="64" height="1" fill="white" fill-opacity="0.5" /><text x="758" y="14.0" font-size="14" fill="white" font-family="monospace" dominant-baseline="ideographic">25</text><rect x="684" y="64.0" width="64" height="1" fill="white" fill-opacity="0.2" /><rect x="684" y="128.5" width="64" height="1" fill="white" fill-opacity="0.2" /><rect x="684" y="193.0" width="64" height="1" fill="white" fill-opacity="0.2" /><rect x="684" y="257.0" width="64" height="1" fill="white" fill-opacity="0.5" /><text x="758" y="271.0" font-size="14" fill="white" font-family="monospace" dominant-baseline="ideographic">26</text><rect x="684" y="321.5" width="64" height="1" fill="white" fill-opacity="0.2" /><rect x="684" y="385.5" width="64" height="1" fill="white" fill-opacity="0.2" /><rect x="684" y="450.0" width="64" height="1" fill="white" fill-opacity="0.2" /><rect x="684" y="514.0" width="64" height="1" fill="white" fill-opacity="0.5" /><text x="758" y="528.0" font-size="14" fill="white" font-family="monospace" dominant-baseline="ideographic">27</text><rect x="684" y="578.5" width="64" height="1" fill="white" fill-opacity="0.2" /><rect x="684" y="643.0" width="64" height="1" fill="white" fill-opacity="0.2" /><rect x="684" y="707.0" width="64" height="1" fill="white" fill-opacity="0.2" /><rect x="684" y="771.5" width="64" height="1" fill="white" fill-opacity="0.5" /><text x="758" y="785.5" font-size="14" fill="white" font-family="monospace" dominant-baseline="ideographic">28</text><rect x="684" y="835.5" width="64" height="1" fill="white" fill-opacity="0.2" /><rect x="684" y="900.0" width="64" height="1" fill="white" fill-opacity="0.2" /><rect x="684" y="964.0" width="64" height="1" fill="white" fill-opacity="0.2" /><rect x="684" y="1028.5" width="64" height="1" fill="white" fill-opacity="0.5" /><text x="758" y="1042.5" font-size="14" fill="white" font-family="monospace" dominant-baseline="ideographic">29</text><rect x="684" y="257.0499999999993" width="64" height="1" fill="aqua" fill-opacity="0.75" /><text x="684" y="271.0499999999993" font-size="14" fill="aqua" fill-opacity="0.75" font-family="monospace">Phrase A</text><rect x="798" y="0" width="64" height="1028.5" fill="black" /><rect x="798" y="0.0" width="64" height="1" fill="white" fill-opacity="0.5" /><text x="872" y="14.0" font-size="14" fill="white" font-family="monospace" dominant-baseline="ideographic">29</text><rect x="798" y="64.5" width="64" height="1" fill="white" fill-opacity="0.2" /><rect x="798" y="128.5" width="64" height="1" fill="white" fill-opacity="0.2" /><rect x="798" y="193.0" width="64" height="1" fill="white" fill-opacity="0.2" /><rect x="798" y="257.0" width="64" height="1" fill="white" fill-opacity="0.5" /><text x="872" y="271.0" font-size="14" fill="white" font-family="monospace" dominant-baseline="ideographic">30</text><rect x="798" y="321.5" width="64" height="1" fill="white" fill-opacity="0.2" /><rect x="798" y="385.5" width="64" height="1" fill="white" fill-opacity="0.2" /><rect x="798" y="450.0" width="64" height="1" fill="white" fill-opacity="0.2" /><rect x="798" y="514.5" width="64" height="1" fill="white" fill-opacity="0.5" /><text x="872" y="528.5" font-size="14" fill="white" font-family="monospace" dominant-baseline="ideographic">31</text><rect x="798" y="578.5" width="64" height="1" fill="white" fill-opacity="0.2" /><rect x="798" y="643.0" width="64" height="1" fill="white" fill-opacity="0.2" /><rect x="798" y="707.0" width="64" height="1" fill="white" fill-opacity="0.2" /><rect x="798" y="771.5" width="64" height="1" fill="white" fill-opacity="0.5" /><text x="872" y="785.5" font-size="14" fill="white" font-family="monospace" dominant-baseline="ideographic">32</text><rect x="798" y="835.5" width="64" height="1" fill="white" fill-opacity="0.2" /><rect x="798" y="900.0" width="64" height="1" fill="white" fill-opacity="0.2" /><rect x="798" y="964.5" width="64" height="1" fill="white" fill-opacity="0.2" /><rect x="798" y="1028.5" width="64" height="1" fill="white" fill-opacity="0.5" /><text x="872" y="1042.5" font-size="14" fill="white" font-family="monospace" dominant-baseline="ideographic">33</text><rect x="912" y="0" width="64" height="1028.5" fill="black" /><rect x="912" y="0.0" width="64" height="1" fill="white" fill-opacity="0.5" /><text x="986" y="14.0" font-size="14" fill="white" font-family="monospace" dominant-baseline="ideographic">33</text><rect x="912" y="64.5" width="64" height="1" fill="white" fill-opacity="0.2" /><rect x="912" y="128.5" width="64" height="1" fill="white" fill-opacity="0.2" /><rect x="912" y="193.0" width="64" height="1" fill="white" fill-opacity="0.2" /><rect x="912" y="257.0" width="64" height="1" fill="white" fill-opacity="0.5" /><text x="986" y="271.0" font-size="14" fill="white" font-family="monospace" dominant-baseline="ideographic">34</text><rect x="912" y="321.5" width="64" height="1" fill="white" fill-opacity="0.2" /><rect x="912" y="386.0" width="64" height="1" fill="white" fill-opacity="0.2" /><rect x="912" y="450.0" width="64" height="1" fill="white" fill-opacity="0.2" /><rect x="912" y="514.5" width="64" height="1" fill="white" fill-opacity="0.5" /><text x="986" y="528.5" font-size="14" fill="white" font-family="monospace" dominant-baseline="ideographic">35</text><rect x="912" y="578.5" width="64" height="1" fill="white" fill-opacity="0.2" /><rect x="912" y="643.0" width="64" height="1" fill="white" fill-opacity="0.2" /><rect x="912" y="707.0" width="64" height="1" fill="white" fill-opacity="0.2" /><rect x="912" y="771.5" width="64" height="1" fill="white" fill-opacity="0.5" /><text x="986" y="785.5" font-size="14" fill="white" font-family="monospace" dominant-baseline="ideographic">36</text><rect x="912" y="836.0" width="64" height="1" fill="white" fill-opacity="0.2" /><rect x="912" y="900.0" width="64" height="1" fill="white" fill-opacity="0.2" /><rect x="912" y="964.5" width="64" height="1" fill="white" fill-opacity="0.2" /><rect x="912" y="1028.5" width="64" height="1" fill="white" fill-opacity="0.5" /><text x="986" y="1042.5" font-size="14" fill="white" font-family="monospace" dominant-baseline="ideographic">37</text><rect x="912" y="257.14999999999964" width="64" height="1" fill="aqua" fill-opacity="0.75" /><text x="912" y="271.14999999999964" font-size="14" fill="aqua" fill-opacity="0.75" font-family="monospace">Phrase B</text><rect x="1026" y="0" width="64" height="1028.5" fill="black" /><rect x="1026" y="0.0" width="64" height="1" fill="white" fill-opacity="0.5" /><text x="1100" y="14.0" font-size="14" fill="white" font-family="monospace" dominant-baseline="ideographic">37</text><rect x="1026" y="64.5" width="64" height="1" fill="white" fill-opacity="0.2" /><rect x="1026" y="128.5" width="64" height="1" fill="white" fill-opacity="0.2" /><rect x="1026" y="193.0" width="64" height="1" fill="white" fill-opacity="0.2" /><rect x="1026" y="257.5" width="64" height="1" fill="white" fill-opacity="0.5" /><text x="1100" y="271.5" font-size="14" fill="white" font-family="monospace" dominant-baseline="ideographic">38</text><rect x="1026" y="321.5" width="64" height="1" fill="white" fill-opacity="0.2" /><rect x="1026" y="386.0" width="64" height="1" fill="white" fill-opacity="0.2" /><rect x="1026" y="450.0" width="64" height="1" fill="white" fill-opacity="0.2" /><rect x="1026" y="514.5" width="64" height="1" fill="white" fill-opacity="0.5" /><text x="1100" y="528.5" font-size="14" fill="white" font-family="monospace" dominant-baseline="ideographic">39</text><rect x="1026" y="578.5" width="64" height="1" fill="white" fill-opacity="0.2" /><rect x="1026" y="643.0" width="64" height="1" fill="white" fill-opacity="0.2" /><rect x="1026" y="707.5" width="64" height="1" fill="white" fill-opacity="0.2" /><rect x="1026" y="771.5" width="64" height="1" fill="white" fill-opacity="0.5" /><text x="1100" y="785.5" font-size="14" fill="white" font-family="monospace" dominant-baseline="ideographic">40</text><rect x="1026" y="836.0" width="64" height="1" fill="white" fill-opacity="0.2" /><rect x="1026" y="900.0" width="64" height="1" fill="white" fill-opacity="0.2" /><rect x="1026" y="964.5" width="64" height="1" fill="white" fill-opacity="0.2" /><rect x="1026" y="1028.5" width="64" height="1" fill="white" fill-opacity="0.5" /><text x="1100" y="1042.5" font-size="14" fill="white" font-family="monospace" dominant-baseline="ideographic">41</text><rect x="1140" y="0" width="64" height="1029.0" fill="black" /><rect x="1140" y="0.0" width="64" height="1" fill="white" fill-opacity="0.5" /><text x="1214" y="14.0" font-size="14" fill="white" font-family="monospace" dominant-baseline="ideographic">41</text><rect x="1140" y="64.5" width="64" height="1" fill="white" fill-opacity="0.2" /><rect x="1140" y="129.0" width="64" height="1" fill="white" fill-opacity="0.2" /><rect x="1140" y="193.0" width="64" height="1" fill="white" fill-opacity="0.2" /><rect x="1140" y="257.5" width="64" height="1" fill="white" fill-opacity="0.5" /><text x="1214" y="271.5" font-size="14" fill="white" font-family="monospace" dominant-baseline="ideographic">42</text><rect x="1140" y="321.5" width="64" height="1" fill="white" fill-opacity="0.2" /><rect x="1140" y="386.0" width="64" height="1" fill="white" fill-opacity="0.2" /><rect x="1140" y="450.0" width="64" height="1" fill="white" fill-opacity="0.2" /><rect x="1140" y="514.5" width="64" height="1" fill="white" fill-opacity="0.5" /><text x="1214" y="528.5" font-size="14" fill="white" font-family="monospace" dominant-baseline="ideographic">43</text><rect x="1140" y="579.0" width="64" height="1" fill="white" fill-opacity="0.2" /><rect x="1140" y="643.0" width="64" height="1" fill="white" fill-opacity="0.2" /><rect x="1140" y="707.5" width="64" height="1" fill="white" fill-opacity="0.2" /><rect x="1140" y="771.5" width="64" height="1" fill="white" fill-opacity="0.5" /><text x="1214" y="785.5" font-size="14" fill="white" font-family="monospace" dominant-baseline="ideographic">44</text><rect x="1140" y="836.0" width="64" height="1" fill="white" fill-opacity="0.2" /><rect x="1140" y="900.0" width="64" height="1" fill="white" fill-opacity="0.2" /><rect x="1140" y="964.5" width="64" height="1" fill="white" fill-opacity="0.2" /><rect x="1140" y="1029.0" width="64" height="1" fill="white" fill-opacity="0.5" /><text x="1214" y="1043.0" font-size="14" fill="white" font-family="monospace" dominant-baseline="ideographic">45</text><rect x="1140" y="514.5" width="64" height="1" fill="aqua" fill-opacity="0.75" /><text x="1140" y="528.5" font-size="14" fill="aqua" fill-opacity="0.75" font-family="monospace">Special</text><rect x="1254" y="0" width="64" height="1028.5" fill="black" /><rect x="1254" y="0.0" width="64" height="1" fill="white" fill-opacity="0.5" /><text x="1328" y="14.0" font-size="14" fill="white" font-family="monospace" dominant-baseline="ideographic">45</text><rect x="1254" y="64.0" width="64" height="1" fill="white" fill-opacity="0.2" /><rect x="1254" y="128.5" width="64" height="1" fill="white" fill-opacity="0.2" /><rect x="1254" y="192.5" width="64" height="1" fill="white" fill-opacity="0.2" /><rect x="1254" y="257.0" width="64" height="1" fill="white" fill-opacity="0.5" /><text x="1328" y="271.0" font-size="14" fill="white" font-family="monospace" dominant-baseline="ideographic">46</text><rect x="1254" y="321.0" width="64" height="1" fill="white" fill-opacity="0.2" /><rect x="1254" y="385.5" width="64" height="1" fill="white" fill-opacity="0.2" /><rect x="1254" y="450.0" width="64" height="1" fill="white" fill-opacity="0.2" /><rect x="1254" y="514.0" width="64" height="1" fill="white" fill-opacity="0.5" /><text x="1328" y="528.0" font-size="14" fill="white" font-family="monospace" dominant-baseline="ideographic">47</text><rect x="1254" y="578.5" width="64" height="1" fill="white" fill-opacity="0.2" /><rect x="1254" y="642.5" width="64" height="1" fill="white" fill-opacity="0.2" /><rect x="1254" y="707.0" width="64" height="1" fill="white" fill-opacity="0.2" /><rect x="1254" y="771.0" width="64" height="1" fill="white" fill-opacity="0.5" /><text x="1328" y="785.0" font-size="14" fill="white" font-family="monospace" dominant-baseline="ideographic">48</text><rect x="1254" y="835.5" width="64" height="1" fill="white" fill-opacity="0.2" /><rect x="1254" y="900.0" width="64" height="1" fill="white" fill-opacity="0.2" /><rect x="1254" y="964.0" width="64" height="1" fill="white" fill-opacity="0.2" /><rect x="1254" y="1028.5" width="64" height="1" fill="white" fill-opacity="0.5" /><text x="1328" y="1042.5" font-size="14" fill="white" font-family="monospace" dominant-baseline="ideographic">49</text><rect x="1368" y="0" width="64" height="1028.5" fill="black" /><rect x="1368" y="0.0" width="64" height="1" fill="white" fill-opacity="0.5" /><text x="1442" y="14.0" font-size="14" fill="white" font-family="monospace" dominant-baseline="ideographic">49</text><rect x="1368" y="64.0" width="64" height="1" fill="white" fill-opacity="0.2" /><rect x="1368" y="128.5" width="64" height="1" fill="white" fill-opacity="0.2" /><rect x="1368" y="192.5" width="64" height="1" fill="white" fill-opacity="0.2" /><rect x="1368" y="257.0" width="64" height="1" fill="white" fill-opacity="0.5" /><text x="1442" y="271.0" font-size="14" fill="white" font-family="monospace" dominant-baseline="ideographic">50</text><rect x="1368" y="321.5" width="64" height="1" fill="white" fill-opacity="0.2" /><rect x="1368" y="385.5" width="64" height="1" fill="white" fill-opacity="0.2" /><rect x="1368" y="450.0" width="64" height="1" fill="white" fill-opacity="0.2" /><rect x="1368" y="514.0" width="64" height="1" fill="white" fill-opacity="0.5" /><text x="1442" y="528.0" font-size="14" fill="white" font-family="monospace" dominant-baseline="ideographic">51</text><rect x="1368" y="578.5" width="64" height="1" fill="white" fill-opacity="0.2" /><rect x="1368" y="642.5" width="64" height="1" fill="white" fill-opacity="0.2" /><rect x="1368" y="707.0" width="64" height="1" fill="white" fill-opacity="0.2" /><rect x="1368" y="771.5" width="64" height="1" fill="white" fill-opacity="0.5" /><text x="1442" y="785.5" font-size="14" fill="white" font-family="monospace" dominant-baseline="ideographic">52</text><rect x="1368" y="835.5" width="64" height="1" fill="white" fill-opacity="0.2" /><rect x="1368" y="900.0" width="64" height="1" fill="white" fill-opacity="0.2" /><rect x="1368" y="964.0" width="64" height="1" fill="white" fill-opacity="0.2" /><rect x="1368" y="1028.5" width="64" height="1" fill="white" fill-opacity="0.5" /><text x="1442" y="1042.5" font-size="14" fill="white" font-family="monospace" dominant-baseline="ideographic">53</text><rect x="1482" y="0" width="64" height="1028.5" fill="black" /><rect x="1482" y="0.0" width="64" height="1" fill="white" fill-opacity="0.5" /><text x="1556" y="14.0" font-size="14" fill="white" font-family="monospace" dominant-baseline="ideographic">53</text><rect x="1482" y="64.0" width="64" height="1" fill="white" fill-opacity="0.2" /><rect x="1482" y="128.5" width="64" height="1" fill="white" fill-opacity="0.2" /><rect x="1482" y="193.0" width="64" height="1" fill="white" fill-opacity="0.2" /><rect x="1482" y="257.0" width="64" height="1" fill="white" fill-opacity="0.5" /><text x="1556" y="271.0" font-size="14" fill="white" font-family="monospace" dominant-baseline="ideographic">54</text><rect x="1482" y="321.5" width="64" height="1" fill="white" fill-opacity="0.2" /><rect x="1482" y="385.5" width="64" height="1" fill="white" fill-opacity="0.2" /><rect x="1482" y="450.0" width="64" height="1" fill="white" fill-opacity="0.2" /><rect x="1482" y="514.0" width="64" height="1" fill="white" fill-opacity="0.5" /><text x="1556" y="528.0" font-size="14" fill="white" font-family="monospace" dominant-baseline="ideographic">55</text><rect x="1482" y="578.5" width="64" height="1" fill="white" fill-opacity="0.2" /><rect x="1482" y="643.0" width="64" height="1" fill="white" fill-opacity="0.2" /><rect x="1482" y="707.0" width="64" height="1" fill="white" fill-opacity="0.2" /><rect x="1482" y="771.5" width="64" height="1" fill="white" fill-opacity="0.5" /><text x="1556" y="785.5" font-size="14" fill="white" font-family="monospace" dominant-baseline="ideographic">56</text><rect x="1482" y="835.5" width="64" height="1" fill="white" fill-opacity="0.2" /><rect x="1482" y="900.0" width="64" height="1" fill="white" fill-opacity="0.2" /><rect x="1482" y="964.0" width="64" height="1" fill="white" fill-opacity="0.2" /><rect x="1482" y="1028.5" width="64" height="1" fill="white" fill-opacity="0.5" /><text x="1556" y="1042.5" font-size="14" fill="white" font-family="monospace" dominant-baseline="ideographic">57</text><rect x="1482" y="-0.050000000001091394" width="64" height="1" fill="aqua" fill-opacity="0.75" /><text x="1482" y="13.949999999998909" font-size="14" fill="aqua" fill-opacity="0.75" font-family="monospace">Solo</text><rect x="1596" y="0" width="64" height="1028.5" fill="black" /><rect x="1596" y="0.0" width="64" height="1" fill="white" fill-opacity="0.5" /><text x="1670" y="14.0" font-size="14" fill="white" font-family="monospace" dominant-baseline="ideographic">57</text><rect x="1596" y="64.5" width="64" height="1" fill="white" fill-opacity="0.2" /><rect x="1596" y="128.5" width="64" height="1" fill="white" fill-opacity="0.2" /><rect x="1596" y="193.0" width="64" height="1" fill="white" fill-opacity="0.2" /><rect x="1596" y="257.0" width="64" height="1" fill="white" fill-opacity="0.5" /><text x="1670" y="271.0" font-size="14" fill="white" font-family="monospace" dominant-baseline="ideographic">58</text><rect x="1596" y="321.5" width="64" height="1" fill="white" fill-opacity="0.2" /><rect x="1596" y="385.5" width="64" height="1" fill="white" fill-opacity="0.2" /><rect x="1596" y="450.0" width="64" height="1" fill="white" fill-opacity="0.2" /><rect x="1596" y="514.5" width="64" height="1" fill="white" fill-opacity="0.5" /><text x="1670" y="528.5" font-size="14" fill="white" font-family="monospace" dominant-baseline="ideographic">59</text><rect x="1596" y="578.5" width="64" height="1" fill="white" fill-opacity="0.2" /><rect x="1596" y="643.0" width="64" height="1" fill="white" fill-opacity="0.2" /><rect x="1596" y="707.0" width="64" height="1" fill="white" fill-opacity="0.2" /><rect x="1596" y="771.5" width="64" height="1" fill="white" fill-opacity="0.5" /><text x="1670" y="785.5" font-size="14" fill="white" font-family="monospace" dominant-baseline="ideographic">60</text><rect x="1596" y="835.5" width="64" height="1" fill="white" fill-opacity="0.2" /><rect x="1596" y="900.0" width="64" height="1" fill="white" fill-opacity="0.2" /><rect x="1596" y="964.5" width="64" height="1" fill="white" fill-opacity="0.2" /><rect x="1596" y="1028.5" width="64" height="1" fill="white" fill-opacity="0.5" /><text x="1670" y="1042.5" font-size="14" fill="white" font-family="monospace" dominant-baseline="ideographic">61</text><rect x="1710" y="0" width="64" height="1028.5" fill="black" /><rect x="1710" y="0.0" width="64" height="1" fill="white" fill-opacity="0.5" /><text x="1784" y="14.0" font-size="14" fill="white" font-family="monospace" dominant-baseline="ideographic">61</text><rect x="1710" y="64.5" width="64" height="1" fill="white" fill-opacity="0.2" /><rect x="1710" y="128.5" width="64" height="1" fill="white" fill-opacity="0.2" /><rect x="1710" y="193.0" width="64" height="1" fill="white" fill-opacity="0.2" /><rect x="1710" y="257.0" width="64" height="1" fill="white" fill-opacity="0.5" /><text x="1784" y="271.0" font-size="14" fill="white" font-family="monospace" dominant-baseline="ideographic">62</text><rect x="1710" y="321.5" width="64" height="1" fill="white" fill-opacity="0.2" /><rect x="1710" y="386.0" width="64" height="1" fill="white" fill-opacity="0.2" /><rect x="1710" y="450.0" width="64" height="1" fill="white" fill-opacity="0.2" /><rect x="1710" y="514.5" width="64" height="1" fill="white" fill-opacity="0.5" /><text x="1784" y="528.5" font-size="14" fill="white" font-family="monospace" dominant-baseline="ideographic">63</text><rect x="1710" y="578.5" width="64" height="1" fill="white" fill-opacity="0.2" /><rect x="1710" y="643.0" width="64" height="1" fill="white" fill-opacity="0.2" /><rect x="1710" y="707.0" width="64" height="1" fill="white" fill-opacity="0.2" /><rect x="1710" y="771.5" width="64" height="1" fill="white" fill-opacity="0.5" /><text x="1784" y="785.5" font-size="14" fill="white" font-family="monospace" dominant-baseline="ideographic">64</text><rect x="1710" y="836.0" width="64" height="1" fill="white" fill-opacity="0.2" /><rect x="1710" y="900.0" width="64" height="1" fill="white" fill-opacity="0.2" /><rect x="1710" y="964.5" width="64" height="1" fill="white" fill-opacity="0.2" /><rect x="1710" y="1028.5" width="64" height="1" fill="white" fill-opacity="0.5" /><text x="1784" y="1042.5" font-size="14" fill="white" font-family="monospace" dominant-baseline="ideographic">65</text><rect x="1710" y="0.049999999999272404" width="64" height="1" fill="aqua" fill-opacity="0.75" /><text x="1710" y="14.049999999999272" font-size="14" fill="aqua" fill-opacity="0.75" font-family="monospace">Outro</text><rect x="1824" y="0" width="64" height="343.0" fill="black" /><rect x="1824" y="0.0" width="64" height="1" fill="white" fill-opacity="0.5" /><text x="1898" y="14.0" font-size="14" fill="white" font-family="monospace" dominant-baseline="ideographic">65</text><rect x="1824" y="64.5" width="64" height="1" fill="white" fill-opacity="0.2" /><rect x="1824" y="128.5" width="64" height="1" fill="white" fill-opacity="0.2" /><rect x="1824" y="193.0" width="64" height="1" fill="white" fill-opacity="0.2" /><rect x="1824" y="257.5" width="64" height="1" fill="white" fill-opacity="0.5" /><text x="1898" y="271.5" font-size="14" fill="white" font-family="monospace" dominant-baseline="ideographic">66</text></svg>