<?xml version="1.0" encoding="UTF-8"?><svg xmlns="http://www.w3.org/2000/svg" xmlns:xlink="http://www.w3.org/1999/xlink"     width="2280" height="814.0" viewBox="0 0 2280 814.0"><defs></defs><rect x="254.0" y="200.0" width="12.0" height="3" fill="#80c9ff" stroke="#0b6cba" /><rect x="267.0" y="250.0" width="12.0" height="3" fill="#fff874" stroke="#eb9c26" /><rect x="254.0" y="275.0" width="12.0" height="3" fill="#80c9ff" stroke="#0b6cba" /><rect x="254.0" y="325.0" width="12.0" height="3" fill="#80c9ff" stroke="#0b6cba" /><rect x="254.0" y="375.0" width="12.0" height="3" fill="#80c9ff" stroke="#0b6cba" /><rect x="254.0" y="425.0" width="12.0" height="3" fill="#80c9ff" stroke="#0b6cba" /><rect x="254.0" y="450.0" width="12.0" height="3" fill="#80c9ff" stroke="#0b6cba" /><rect x="368.0" y="200.0" width="12.0" height="3" fill="#80c9ff" stroke="#0b6cba" /><rect x="381.0" y="250.0" width="12.0" height="3" fill="#fff874" stroke="#eb9c26" /><rect x="368.0" y="275.0" width="12.0" height="3" fill="#80c9ff" stroke="#0b6cba" /><rect x="368.0" y="325.0" width="12.0" height="3" fill="#80c9ff" stroke="#0b6cba" /><rect x="368.0" y="375.0" width="12.0" height="3" fill="#80c9ff" stroke="#0b6cba" /><rect x="368.0" y="425.0" width="12.0" height="3" fill="#80c9ff" stroke="#0b6cba" /><rect x="368.0" y="450.0" width="12.0" height="3" fill="#80c9ff" stroke="#0b6cba" /><rect x="456.0" y="400.0" width="12.0" height="3" fill="#ff3c3c" stroke="#c71f1f" /><rect x="469.0" y="450.0" width="12.0" height="3" fill="#35df39" stroke="#03aa10" /><rect x="456.0" y="475.0" width="12.0" height="3" fill="#ff3c3c" stroke="#c71f1f" /><rect x="456.0" y="525.0" width="12.0" height="3" fill="#ff3c3c" stroke="#c71f1f" /><rect x="456.0" y="575.0" width="12.0" height="3" fill="#ff3c3c" stroke="#c71f1f" /><rect x="456.0" y="625.0" width="12.0" height="3" fill="#ff3c3c" stroke="#c71f1f" /><rect x="469.0" y="650.0" width="12.0" height="3" fill="#35df39" stroke="#03aa10" /><rect x="456.0" y="675.0" width="12.0" height="3" fill="#ff3c3c" stroke="#c71f1f" /><rect x="456.0" y="725.0" width="12.0" height="3" fill="#ff3c3c" stroke="#c71f1f" /><rect x="469.0" y="750.0" width="12.0" height="3" fill="#35df39" stroke="#03aa10" /><rect x="570.0" y="0.0" width="12.0" height="3" fill="#ff3c3c" stroke="#c71f1f" /><rect x="583.0" y="50.0" width="12.0" height="3" fill="#35df39" stroke="#03aa10" /><rect x="570.0" y="75.0" width="12.0" height="3" fill="#ff3c3c" stroke="#c71f1f" /><rect x="570.0" y="125.0" width="12.0" height="3" fill="#ff3c3c" stroke="#c71f1f" /><rect x="570.0" y="175.0" width="12.0" height="3" fill="#ff3c3c" stroke="#c71f1f" /><rect x="570.0" y="225.0" width="12.0" height="3" fill="#ff3c3c" stroke="#c71f1f" /><rect x="583.0" y="250.0" width="12.0" height="3" fill="#35df39" stroke="#03aa10" /><rect x="570.0" y="275.0" width="12.0" height="3" fill="#ff3c3c" stroke="#c71f1f" /><rect x="570.0" y="325.0" width="12.0" height="3" fill="#ff3c3c" stroke="#c71f1f" /><rect x="570.0" y="350.0" width="12.0" height="3" fill="#ff3c3c" stroke="#c71f1f" /><rect x="570.0" y="375.0" width="12.0" height="3" fill="#ff3c3c" stroke="#c71f1f" /><rect x="570.0" y="400.0" width="12.0" height="3" fill="#ff3c3c" stroke="#c71f1f" /><rect x="583.0" y="450.0" width="12.0" height="3" fill="#35df39" stroke="#03aa10" /><rect x="570.0" y="475.0" width="12.0" height="3" fill="#ff3c3c" stroke="#c71f1f" /><rect x="570.0" y="525.0" width="12.0" height="3" fill="#ff3c3c" stroke="#c71f1f" /><rect x="570.0" y="575.0" width="12.0" height="3" fill="#ff3c3c" stroke="#c71f1f" /><rect x="570.0" y="625.0" width="12.0" height="3" fill="#ff3c3c" stroke="#c71f1f" /><rect x="583.0" y="650.0" width="12.0" height="3" fill="#35df39" stroke="#03aa10" /><rect x="570.0" y="675.0" width="12.0" height="3" fill="#ff3c3c" stroke="#c71f1f" /><rect x="570.0" y="725.0" width="12.0" height="3" fill="#ff3c3c" stroke="#c71f1f" /><rect x="583.0" y="750.0" width="12.0" height="3" fill="#35df39" stroke="#03aa10" /><rect x="684.0" y="0.0" width="12.0" height="3" fill="#ff3c3c" stroke="#c71f1f" /><rect x="697.0" y="50.0" width="12.0" height="3" fill="#35df39" stroke="#03aa10" /><rect x="684.0" y="75.0" width="12.0" height="3" fill="#ff3c3c" stroke="#c71f1f" /><rect x="684.0" y="125.0" width="12.0" height="3" fill="#ff3c3c" stroke="#c71f1f" /><rect x="684.0" y="175.0" width="12.0" height="3" fill="#ff3c3c" stroke="#c71f1f" /><rect x="684.0" y="225.0" width="12.0" height="3" fill="#ff3c3c" stroke="#c71f1f" /><rect x="697.0" y="250.0" width="12.0" height="3" fill="#35df39" stroke="#03aa10" /><rect x="684.0" y="275.0" width="12.0" height="3" fill="#ff3c3c" stroke="#c71f1f" /><rect x="684.0" y="325.0" width="12.0" height="3" fill="#ff3c3c" stroke="#c71f1f" /><rect x="684.0" y="350.0" width="12.0" height="3" fill="#ff3c3c" stroke="#c71f1f" /><rect x="684.0" y="375.0" width="12.0" height="3" fill="#ff3c3c" stroke="#c71f1f" /><rect x="710.0" y="400.0" width="12.0" height="3" fill="#80c9ff" stroke="#0b6cba" /><rect x="723.0" y="450.0" width="12.0" height="3" fill="#fff874" stroke="#eb9c26" /><rect x="710.0" y="475.0" width="12.0" height="3" fill="#80c9ff" stroke="#0b6cba" /><rect x="710.0" y="525.0" width="12.0" height="3" fill="#80c9ff" stroke="#0b6cba" /><rect x="710.0" y="575.0" width="12.0" height="3" fill="#80c9ff" stroke="#0b6cba" /><rect x="710.0" y="625.0" width="12.0" height="3" fill="#80c9ff" stroke="#0b6cba" /><rect x="723.0" y="650.0" width="12.0" height="3" fill="#fff874" stroke="#eb9c26" /><rect x="710.0" y="675.0" width="12.0" height="3" fill="#80c9ff" stroke="#0b6cba" /><rect x="710.0" y="725.0" width="12.0" height="3" fill="#80c9ff" stroke="#0b6cba" /><rect x="723.0" y="750.0" width="12.0" height="3" fill="#fff874" stroke="#eb9c26" /><rect x="824.0" y="0.0" width="12.0" height="3" fill="#80c9ff" stroke="#0b6cba" /><rect x="837.0" y="50.0" width="12.0" height="3" fill="#fff874" stroke="#eb9c26" /><rect x="824.0" y="75.0" width="12.0" height="3" fill="#80c9ff" stroke="#0b6cba" /><rect x="824.0" y="125.0" width="12.0" height="3" fill="#80c9ff" stroke="#0b6cba" /><rect x="824.0" y="175.0" width="12.0" height="3" fill="#80c9ff" stroke="#0b6cba" /><rect x="824.0" y="225.0" width="12.0" height="3" fill="#80c9ff" stroke="#0b6cba" /><rect x="837.0" y="250.0" width="12.0" height="3" fill="#fff874" stroke="#eb9c26" /><rect x="824.0" y="275.0" width="12.0" height="3" fill="#80c9ff" stroke="#0b6cba" /><rect x="824.0" y="325.0" width="12.0" height="3" fill="#80c9ff" stroke="#0b6cba" /><rect x="824.0" y="350.0" width="12.0" height="3" fill="#80c9ff" stroke="#0b6cba" /><rect x="824.0" y="375.0" width="12.0" height="3" fill="#80c9ff" stroke="#0b6cba" /><rect x="824.0" y="400.0" width="12.0" height="3" fill="#80c9ff" stroke="#0b6cba" /><rect x="837.0" y="450.0" width="12.0" height="3" fill="#fff874" stroke="#eb9c26" /><rect x="824.0" y="475.0" width="12.0" height="3" fill="#80c9ff" stroke="#0b6cba" /><rect x="824.0" y="525.0" width="12.0" height="3" fill="#80c9ff" stroke="#0b6cba" /><rect x="824.0" y="575.0" width="12.0" height="3" fill="#80c9ff" stroke="#0b6cba" /><rect x="824.0" y="625.0" width="12.0" height="3" fill="#80c9ff" stroke="#0b6cba" /><rect x="837.0" y="650.0" width="12.0" height="3" fill="#fff874" stroke="#eb9c26" /><rect x="824.0" y="675.0" width="12.0" height="3" fill="#80c9ff" stroke="#0b6cba" /><rect x="824.0" y="725.0" width="12.0" height="3" fill="#80c9ff" stroke="#0b6cba" /><rect x="837.0" y="750.0" width="12.0" height="3" fill="#fff874" stroke="#eb9c26" /><rect x="938.0" y="0.0" width="12.0" height="3" fill="#80c9ff" stroke="#0b6cba" /><rect x="951.0" y="50.0" width="12.0" height="3" fill="#fff874" stroke="#eb9c26" /><rect x="938.0" y="75.0" width="12.0" height="3" fill="#80c9ff" stroke="#0b6cba" /><rect x="938.0" y="125.0" width="12.0" height="3" fill="#80c9ff" stroke="#0b6cba" /><rect x="938.0" y="175.0" width="12.0" height="3" fill="#80c9ff" stroke="#0b6cba" /><rect x="938.0" y="225.0" width="12.0" height="3" fill="#80c9ff" stroke="#0b6cba" /><rect x="951.0" y="250.0" width="12.0" height="3" fill="#fff874" stroke="#eb9c26" /><rect x="938.0" y="275.0" width="12.0" height="3" fill="#80c9ff" stroke="#0b6cba" /><rect x="938.0" y="325.0" width="12.0" height="3" fill="#80c9ff" stroke="#0b6cba" /><rect x="951.0" y="350.0" width="12.0" height="3" fill="#fff874" stroke="#eb9c26" /><rect x="1166.0" y="600.0" width="12.0" height="3" fill="#80c9ff" stroke="#0b6cba" /><rect x="1179.0" y="625.0" width="12.0" height="3" fill="#fff874" stroke="#eb9c26" /><rect x="1179.0" y="650.0" width="12.0" height="3" fill="#fff874" stroke="#eb9c26" /><rect x="1179.0" y="662.5" width="12.0" height="3" fill="#fff874" stroke="#eb9c26" /><rect x="1179.0" y="687.5" width="12.0" height="3" fill="#fff874" stroke="#eb9c26" /><rect x="1166.0" y="700.0" width="12.0" height="3" fill="#80c9ff" stroke="#0b6cba" /><rect x="1179.0" y="725.0" width="12.0" height="3" fill="#fff874" stroke="#eb9c26" /><rect x="1179.0" y="750.0" width="12.0" height="3" fill="#fff874" stroke="#eb9c26" /><rect x="1179.0" y="762.5" width="12.0" height="3" fill="#fff874" stroke="#eb9c26" /><rect x="1179.0" y="787.5" width="12.0" height="3" fill="#fff874" stroke="#eb9c26" /><rect x="1267.0" y="0.0" width="12.0" height="3" fill="#35df39" stroke="#03aa10" /><rect x="1293.0" y="25.0" width="12.0" height="3" fill="#fff874" stroke="#eb9c26" /><rect x="1293.0" y="50.0" width="12.0" height="3" fill="#fff874" stroke="#eb9c26" /><rect x="1293.0" y="62.5" width="12.0" height="3" fill="#fff874" stroke="#eb9c26" /><rect x="1293.0" y="87.5" width="12.0" height="3" fill="#fff874" stroke="#eb9c26" /><rect x="1267.0" y="100.0" width="12.0" height="3" fill="#35df39" stroke="#03aa10" /><rect x="1293.0" y="125.0" width="12.0" height="3" fill="#fff874" stroke="#eb9c26" /><rect x="1293.0" y="150.0" width="12.0" height="3" fill="#fff874" stroke="#eb9c26" /><rect x="1293.0" y="162.5" width="12.0" height="3" fill="#fff874" stroke="#eb9c26" /><rect x="1293.0" y="187.5" width="12.0" height="3" fill="#fff874" stroke="#eb9c26" /><rect x="1267.0" y="200.0" width="12.0" height="3" fill="#35df39" stroke="#03aa10" /><rect x="1280.0" y="225.0" width="12.0" height="3" fill="#80c9ff" stroke="#0b6cba" /><rect x="1280.0" y="250.0" width="12.0" height="3" fill="#80c9ff" stroke="#0b6cba" /><rect x="1280.0" y="262.5" width="12.0" height="3" fill="#80c9ff" stroke="#0b6cba" /><rect x="1280.0" y="287.5" width="12.0" height="3" fill="#80c9ff" stroke="#0b6cba" /><rect x="1267.0" y="300.0" width="12.0" height="3" fill="#35df39" stroke="#03aa10" /><rect x="1280.0" y="325.0" width="12.0" height="3" fill="#80c9ff" stroke="#0b6cba" /><rect x="1280.0" y="350.0" width="12.0" height="3" fill="#80c9ff" stroke="#0b6cba" /><rect x="1280.0" y="362.5" width="12.0" height="3" fill="#80c9ff" stroke="#0b6cba" /><rect x="1280.0" y="387.5" width="12.0" height="3" fill="#80c9ff" stroke="#0b6cba" /><rect x="1254.0" y="400.0" width="12.0" height="3" fill="#ff3c3c" stroke="#c71f1f" /><rect x="1280.0" y="425.0" width="12.0" height="3" fill="#80c9ff" stroke="#0b6cba" /><rect x="1280.0" y="450.0" width="12.0" height="3" fill="#80c9ff" stroke="#0b6cba" /><rect x="1280.0" y="462.5" width="12.0" height="3" fill="#80c9ff" stroke="#0b6cba" /><rect x="1280.0" y="487.5" width="12.0" height="3" fill="#80c9ff" stroke="#0b6cba" /><rect x="1254.0" y="500.0" width="12.0" height="3" fill="#ff3c3c" stroke="#c71f1f" /><rect x="1280.0" y="525.0" width="12.0" height="3" fill="#80c9ff" stroke="#0b6cba" /><rect x="1280.0" y="550.0" width="12.0" height="3" fill="#80c9ff" stroke="#0b6cba" /><rect x="1280.0" y="562.5" width="12.0" height="3" fill="#80c9ff" stroke="#0b6cba" /><rect x="1280.0" y="587.5" width="12.0" height="3" fill="#80c9ff" stroke="#0b6cba" /><rect x="1254.0" y="600.0" width="12.0" height="3" fill="#ff3c3c" stroke="#c71f1f" /><rect x="1267.0" y="625.0" width="12.0" height="3" fill="#35df39" stroke="#03aa10" /><rect x="1267.0" y="650.0" width="12.0" height="3" fill="#35df39" stroke="#03aa10" /><rect x="1267.0" y="662.5" width="12.0" height="3" fill="#35df39" stroke="#03aa10" /><rect x="1267.0" y="687.5" width="12.0" height="3" fill="#35df39" stroke="#03aa10" /><rect x="1254.0" y="700.0" width="12.0" height="3" fill="#ff3c3c" stroke="#c71f1f" /><rect x="1267.0" y="725.0" width="12.0" height="3" fill="#35df39" stroke="#03aa10" /><rect x="1267.0" y="750.0" width="12.0" height="3" fill="#35df39" stroke="#03aa10" /><rect x="1267.0" y="762.5" width="12.0" height="3" fill="#35df39" stroke="#03aa10" /><rect x="1267.0" y="787.5" width="12.0" height="3" fill="#35df39" stroke="#03aa10" /><rect x="1368.0" y="0.0" width="12.0" height="3" fill="#ff3c3c" stroke="#c71f1f" /><rect x="1394.0" y="25.0" width="12.0" height="3" fill="#80c9ff" stroke="#0b6cba" /><rect x="1394.0" y="50.0" width="12.0" height="3" fill="#80c9ff" stroke="#0b6cba" /><rect x="1394.0" y="62.5" width="12.0" height="3" fill="#80c9ff" stroke="#0b6cba" /><rect x="1394.0" y="87.5" width="12.0" height="3" fill="#80c9ff" stroke="#0b6cba" /><rect x="1368.0" y="100.0" width="12.0" height="3" fill="#ff3c3c" stroke="#c71f1f" /><rect x="1394.0" y="125.0" width="12.0" height="3" fill="#80c9ff" stroke="#0b6cba" /><rect x="1394.0" y="150.0" width="12.0" height="3" fill="#80c9ff" stroke="#0b6cba" /><rect x="1394.0" y="162.5" width="12.0" height="3" fill="#80c9ff" stroke="#0b6cba" /><rect x="1394.0" y="187.5" width="12.0" height="3" fill="#80c9ff" stroke="#0b6cba" /><rect x="1368.0" y="200.0" width="12.0" height="3" fill="#ff3c3c" stroke="#c71f1f" /><rect x="1381.0" y="225.0" width="12.0" height="3" fill="#35df39" stroke="#03aa10" /><rect x="1381.0" y="250.0" width="12.0" height="3" fill="#35df39" stroke="#03aa10" /><rect x="1381.0" y="262.5" width="12.0" height="3" fill="#35df39" stroke="#03aa10" /><rect x="1381.0" y="287.5" width="12.0" height="3" fill="#35df39" stroke="#03aa10" /><rect x="1368.0" y="300.0" width="12.0" height="3" fill="#ff3c3c" stroke="#c71f1f" /><rect x="1381.0" y="325.0" width="12.0" height="3" fill="#35df39" stroke="#03aa10" /><rect x="1381.0" y="350.0" width="12.0" height="3" fill="#35df39" stroke="#03aa10" /><rect x="1381.0" y="362.5" width="12.0" height="3" fill="#35df39" stroke="#03aa10" /><rect x="1381.0" y="387.5" width="12.0" height="3" fill="#35df39" stroke="#03aa10" /><rect x="1368.0" y="400.0" width="12.0" height="3" fill="#ff3c3c" stroke="#c71f1f" /><rect x="1394.0" y="425.0" width="12.0" height="3" fill="#80c9ff" stroke="#0b6cba" /><rect x="1394.0" y="450.0" width="12.0" height="3" fill="#80c9ff" stroke="#0b6cba" /><rect x="1394.0" y="462.5" width="12.0" height="3" fill="#80c9ff" stroke="#0b6cba" /><rect x="1394.0" y="487.5" width="12.0" height="3" fill="#80c9ff" stroke="#0b6cba" /><rect x="1368.0" y="500.0" width="12.0" height="3" fill="#ff3c3c" stroke="#c71f1f" /><rect x="1394.0" y="525.0" width="12.0" height="3" fill="#80c9ff" stroke="#0b6cba" /><rect x="1394.0" y="550.0" width="12.0" height="3" fill="#80c9ff" stroke="#0b6cba" /><rect x="1394.0" y="562.5" width="12.0" height="3" fill="#80c9ff" stroke="#0b6cba" /><rect x="1394.0" y="587.5" width="12.0" height="3" fill="#80c9ff" stroke="#0b6cba" /><rect x="1394.0" y="600.0" width="12.0" height="3" fill="#80c9ff" stroke="#0b6cba" /><rect x="1407.0" y="625.0" width="12.0" height="3" fill="#fff874" stroke="#eb9c26" /><rect x="1407.0" y="650.0" width="12.0" height="3" fill="#fff874" stroke="#eb9c26" /><rect x="1407.0" y="662.5" width="12.0" height="3" fill="#fff874" stroke="#eb9c26" /><rect x="1407.0" y="687.5" width="12.0" height="3" fill="#fff874" stroke="#eb9c26" /><rect x="1394.0" y="700.0" width="12.0" height="3" fill="#80c9ff" stroke="#0b6cba" /><rect x="1407.0" y="725.0" width="12.0" height="3" fill="#fff874" stroke="#eb9c26" /><rect x="1407.0" y="750.0" width="12.0" height="3" fill="#fff874" stroke="#eb9c26" /><rect x="1407.0" y="762.5" width="12.0" height="3" fill="#fff874" stroke="#eb9c26" /><rect x="1407.0" y="787.5" width="12.0" height="3" fill="#fff874" stroke="#eb9c26" /><rect x="1495.0" y="0.0" width="12.0" height="3" fill="#35df39" stroke="#03aa10" /><rect x="1521.0" y="25.0" width="12.0" height="3" fill="#fff874" stroke="#eb9c26" /><rect x="1521.0" y="50.0" width="12.0" height="3" fill="#fff874" stroke="#eb9c26" /><rect x="1521.0" y="62.5" width="12.0" height="3" fill="#fff874" stroke="#eb9c26" /><rect x="1521.0" y="87.5" width="12.0" height="3" fill="#fff874" stroke="#eb9c26" /><rect x="1495.0" y="100.0" width="12.0" height="3" fill="#35df39" stroke="#03aa10" /><rect x="1521.0" y="125.0" width="12.0" height="3" fill="#fff874" stroke="#eb9c26" /><rect x="1521.0" y="150.0" width="12.0" height="3" fill="#fff874" stroke="#eb9c26" /><rect x="1521.0" y="162.5" width="12.0" height="3" fill="#fff874" stroke="#eb9c26" /><rect x="1521.0" y="187.5" width="12.0" height="3" fill="#fff874" stroke="#eb9c26" /><rect x="1495.0" y="200.0" width="12.0" height="3" fill="#35df39" stroke="#03aa10" /><rect x="1508.0" y="225.0" width="12.0" height="3" fill="#80c9ff" stroke="#0b6cba" /><rect x="1508.0" y="250.0" width="12.0" height="3" fill="#80c9ff" stroke="#0b6cba" /><rect x="1508.0" y="262.5" width="12.0" height="3" fill="#80c9ff" stroke="#0b6cba" /><rect x="1508.0" y="287.5" width="12.0" height="3" fill="#80c9ff" stroke="#0b6cba" /><rect x="1495.0" y="300.0" width="12.0" height="3" fill="#35df39" stroke="#03aa10" /><rect x="1508.0" y="325.0" width="12.0" height="3" fill="#80c9ff" stroke="#0b6cba" /><rect x="1508.0" y="350.0" width="12.0" height="3" fill="#80c9ff" stroke="#0b6cba" /><rect x="1508.0" y="362.5" width="12.0" height="3" fill="#80c9ff" stroke="#0b6cba" /><rect x="1508.0" y="387.5" width="12.0" height="3" fill="#80c9ff" stroke="#0b6cba" /><rect x="1482.0" y="400.0" width="12.0" height="3" fill="#ff3c3c" stroke="#c71f1f" /><rect x="1508.0" y="425.0" width="12.0" height="3" fill="#80c9ff" stroke="#0b6cba" /><rect x="1508.0" y="450.0" width="12.0" height="3" fill="#80c9ff" stroke="#0b6cba" /><rect x="1508.0" y="462.5" width="12.0" height="3" fill="#80c9ff" stroke="#0b6cba" /><rect x="1508.0" y="487.5" width="12.0" height="3" fill="#80c9ff" stroke="#0b6cba" /><rect x="1482.0" y="500.0" width="12.0" height="3" fill="#ff3c3c" stroke="#c71f1f" /><rect x="1508.0" y="525.0" width="12.0" height="3" fill="#80c9ff" stroke="#0b6cba" /><rect x="1508.0" y="550.0" width="12.0" height="3" fill="#80c9ff" stroke="#0b6cba" /><rect x="1508.0" y="562.5" width="12.0" height="3" fill="#80c9ff" stroke="#0b6cba" /><rect x="1508.0" y="587.5" width="12.0" height="3" fill="#80c9ff" stroke="#0b6cba" /><rect x="1482.0" y="600.0" width="12.0" height="3" fill="#ff3c3c" stroke="#c71f1f" /><rect x="1495.0" y="625.0" width="12.0" height="3" fill="#35df39" stroke="#03aa10" /><rect x="1495.0" y="650.0" width="12.0" height="3" fill="#35df39" stroke="#03aa10" /><rect x="1495.0" y="662.5" width="12.0" height="3" fill="#35df39" stroke="#03aa10" /><rect x="1495.0" y="687.5" width="12.0" height="3" fill="#35df39" stroke="#03aa10" /><rect x="1482.0" y="700.0" width="12.0" height="3" fill="#ff3c3c" stroke="#c71f1f" /><rect x="1495.0" y="725.0" width="12.0" height="3" fill="#35df39" stroke="#03aa10" /><rect x="1495.0" y="750.0" width="12.0" height="3" fill="#35df39" stroke="#03aa10" /><rect x="1495.0" y="762.5" width="12.0" height="3" fill="#35df39" stroke="#03aa10" /><rect x="1495.0" y="787.5" width="12.0" height="3" fill="#35df39" stroke="#03aa10" /><rect x="1596.0" y="0.0" width="12.0" height="3" fill="#ff3c3c" stroke="#c71f1f" /><rect x="1622.0" y="25.0" width="12.0" height="3" fill="#80c9ff" stroke="#0b6cba" /><rect x="1622.0" y="50.0" width="12.0" height="3" fill="#80c9ff" stroke="#0b6cba" /><rect x="1622.0" y="62.5" width="12.0" height="3" fill="#80c9ff" stroke="#0b6cba" /><rect x="1622.0" y="87.5" width="12.0" height="3" fill="#80c9ff" stroke="#0b6cba" /><rect x="1596.0" y="100.0" width="12.0" height="3" fill="#ff3c3c" stroke="#c71f1f" /><rect x="1622.0" y="125.0" width="12.0" height="3" fill="#80c9ff" stroke="#0b6cba" /><rect x="1622.0" y="150.0" width="12.0" height="3" fill="#80c9ff" stroke="#0b6cba" /><rect x="1622.0" y="162.5" width="12.0" height="3" fill="#80c9ff" stroke="#0b6cba" /><rect x="1622.0" y="187.5" width="12.0" height="3" fill="#80c9ff" stroke="#0b6cba" /><rect x="1596.0" y="200.0" width="12.0" height="3" fill="#ff3c3c" stroke="#c71f1f" /><rect x="1609.0" y="225.0" width="12.0" height="3" fill="#35df39" stroke="#03aa10" /><rect x="1609.0" y="250.0" width="12.0" height="3" fill="#35df39" stroke="#03aa10" /><rect x="1609.0" y="262.5" width="12.0" height="3" fill="#35df39" stroke="#03aa10" /><rect x="1609.0" y="287.5" width="12.0" height="3" fill="#35df39" stroke="#03aa10" /><rect x="1596.0" y="300.0" width="12.0" height="3" fill="#ff3c3c" stroke="#c71f1f" /><rect x="1609.0" y="325.0" width="12.0" height="3" fill="#35df39" stroke="#03aa10" /><rect x="1609.0" y="350.0" width="12.0" height="3" fill="#35df39" stroke="#03aa10" /><rect x="1609.0" y="362.5" width="12.0" height="3" fill="#35df39" stroke="#03aa10" /><rect x="1609.0" y="387.5" width="12.0" height="3" fill="#35df39" stroke="#03aa10" /><rect x="1596.0" y="400.0" width="12.0" height="3" fill="#ff3c3c" stroke="#c71f1f" /><rect x="1622.0" y="425.0" width="12.0" height="3" fill="#80c9ff" stroke="#0b6cba" /><rect x="1622.0" y="450.0" width="12.0" height="3" fill="#80c9ff" stroke="#0b6cba" /><rect x="1622.0" y="462.5" width="12.0" height="3" fill="#80c9ff" stroke="#0b6cba" /><rect x="1622.0" y="487.5" width="12.0" height="3" fill="#80c9ff" stroke="#0b6cba" /><rect x="1596.0" y="500.0" width="12.0" height="3" fill="#ff3c3c" stroke="#c71f1f" /><rect x="1622.0" y="525.0" width="12.0" height="3" fill="#80c9ff" stroke="#0b6cba" /><rect x="1622.0" y="550.0" width="12.0" height="3" fill="#80c9ff" stroke="#0b6cba" /><rect x="1622.0" y="562.5" width="12.0" height="3" fill="#80c9ff" stroke="#0b6cba" /><rect x="1622.0" y="600.0" width="12.0" height="200.0" fill="#80c9ff" stroke="#0b6cba" /><rect x="1723.0" y="175.0" width="12.0" height="3" fill="#35df39" stroke="#03aa10" /><rect x="1736.0" y="175.0" width="12.0" height="3" fill="#80c9ff" stroke="#0b6cba" /><rect x="1723.0" y="200.0" width="12.0" height="345.6" fill="#35df39" stroke="#03aa10" /><rect x="1736.0" y="200.0" width="12.0" height="345.6" fill="#80c9ff" stroke="#0b6cba" /><rect x="1736.0" y="0.0" width="12.0" height="63.37855153203343" fill="#80c9ff" stroke="#0b6cba" /><rect x="1723.0" y="600.0" width="12.0" height="200.0" fill="#35df39" stroke="#03aa10" /><rect x="1736.0" y="600.0" width="12.0" height="200.0" fill="#80c9ff" stroke="#0b6cba" /><rect x="1837.0" y="175.0" width="12.0" height="3" fill="#35df39" stroke="#03aa10" /><rect x="1850.0" y="175.0" width="12.0" height="3" fill="#80c9ff" stroke="#0b6cba" /><rect x="1837.0" y="200.0" width="12.0" height="202.5" fill="#35df39" stroke="#03aa10" /><rect x="1850.0" y="200.0" width="12.0" height="202.5" fill="#80c9ff" stroke="#0b6cba" /><rect x="1850.0" y="425.0" width="12.0" height="3" fill="#80c9ff" stroke="#0b6cba" /><rect x="1863.0" y="425.0" width="12.0" height="3" fill="#fff874" stroke="#eb9c26" /><rect x="1850.0" y="450.0" width="12.0" height="3" fill="#80c9ff" stroke="#0b6cba" /><rect x="1863.0" y="450.0" width="12.0" height="3" fill="#fff874" stroke="#eb9c26" /><rect x="1850.0" y="475.0" width="12.0" height="3" fill="#80c9ff" stroke="#0b6cba" /><rect x="1863.0" y="475.0" width="12.0" height="3" fill="#fff874" stroke="#eb9c26" /><rect x="1850.0" y="500.0" width="12.0" height="3" fill="#80c9ff" stroke="#0b6cba" /><rect x="1863.0" y="500.0" width="12.0" height="3" fill="#fff874" stroke="#eb9c26" /><rect x="1850.0" y="525.0" width="12.0" height="3" fill="#80c9ff" stroke="#0b6cba" /><rect x="1863.0" y="525.0" width="12.0" height="3" fill="#fff874" stroke="#eb9c26" /><rect x="1850.0" y="550.0" width="12.0" height="3" fill="#80c9ff" stroke="#0b6cba" /><rect x="1863.0" y="550.0" width="12.0" height="3" fill="#fff874" stroke="#eb9c26" /><rect x="1850.0" y="575.0" width="12.0" height="3" fill="#80c9ff" stroke="#0b6cba" /><rect x="1863.0" y="575.0" width="12.0" height="3" fill="#fff874" stroke="#eb9c26" /><rect x="1837.0" y="600.0" width="12.0" height="3" fill="#35df39" stroke="#03aa10" /><rect x="1850.0" y="650.0" width="12.0" height="3" fill="#80c9ff" stroke="#0b6cba" /><rect x="1863.0" y="650.0" width="12.0" height="3" fill="#fff874" stroke="#eb9c26" /><rect x="1837.0" y="675.0" width="12.0" height="3" fill="#35df39" stroke="#03aa10" /><rect x="1837.0" y="725.0" width="12.0" height="3" fill="#35df39" stroke="#03aa10" /><rect x="1837.0" y="775.0" width="12.0" height="3" fill="#35df39" stroke="#03aa10" /><rect x="1837.0" y="0.0" width="12.0" height="63.37855153203343" fill="#35df39" stroke="#03aa10" /><rect x="1850.0" y="0.0" width="12.0" height="63.37855153203343" fill="#80c9ff" stroke="#0b6cba" /><rect x="1951.0" y="25.0" width="12.0" height="3" fill="#35df39" stroke="#03aa10" /><rect x="1964.0" y="50.0" width="12.0" height="3" fill="#80c9ff" stroke="#0b6cba" /><rect x="1977.0" y="50.0" width="12.0" height="3" fill="#fff874" stroke="#eb9c26" /><rect x="1951.0" y="75.0" width="12.0" height="3" fill="#35df39" stroke="#03aa10" /><rect x="1951.0" y="125.0" width="12.0" height="3" fill="#35df39" stroke="#03aa10" /><rect x="1964.0" y="150.0" width="12.0" height="3" fill="#80c9ff" stroke="#0b6cba" /><rect x="1977.0" y="150.0" width="12.0" height="3" fill="#fff874" stroke="#eb9c26" /><rect x="1951.0" y="200.0" width="12.0" height="3" fill="#35df39" stroke="#03aa10" /><rect x="1964.0" y="250.0" width="12.0" height="3" fill="#80c9ff" stroke="#0b6cba" /><rect x="1977.0" y="250.0" width="12.0" height="3" fill="#fff874" stroke="#eb9c26" /><rect x="1951.0" y="275.0" width="12.0" height="3" fill="#35df39" stroke="#03aa10" /><rect x="1951.0" y="325.0" width="12.0" height="3" fill="#35df39" stroke="#03aa10" /><rect x="1951.0" y="375.0" width="12.0" height="3" fill="#35df39" stroke="#03aa10" /><rect x="1951.0" y="425.0" width="12.0" height="3" fill="#35df39" stroke="#03aa10" /><rect x="1964.0" y="450.0" width="12.0" height="3" fill="#80c9ff" stroke="#0b6cba" /><rect x="1977.0" y="450.0" width="12.0" height="3" fill="#fff874" stroke="#eb9c26" /><rect x="1951.0" y="475.0" width="12.0" height="3" fill="#35df39" stroke="#03aa10" /><rect x="1951.0" y="525.0" width="12.0" height="3" fill="#35df39" stroke="#03aa10" /><rect x="1951.0" y="550.0" width="12.0" height="3" fill="#35df39" stroke="#03aa10" /><rect x="1951.0" y="575.0" width="12.0" height="3" fill="#35df39" stroke="#03aa10" /><rect x="1951.0" y="600.0" width="12.0" height="3" fill="#35df39" stroke="#03aa10" /><rect x="1964.0" y="650.0" width="12.0" height="3" fill="#80c9ff" stroke="#0b6cba" /><rect x="1977.0" y="650.0" width="12.0" height="3" fill="#fff874" stroke="#eb9c26" /><rect x="1951.0" y="675.0" width="12.0" height="3" fill="#35df39" stroke="#03aa10" /><rect x="1951.0" y="725.0" width="12.0" height="3" fill="#35df39" stroke="#03aa10" /><rect x="1951.0" y="775.0" width="12.0" height="3" fill="#35df39" stroke="#03aa10" /><rect x="2065.0" y="25.0" width="12.0" height="3" fill="#35df39" stroke="#03aa10" /><rect x="2078.0" y="50.0" width="12.0" height="3" fill="#80c9ff" stroke="#0b6cba" /><rect x="2091.0" y="50.0" width="12.0" height="3" fill="#fff874" stroke="#eb9c26" /><rect x="2065.0" y="75.0" width="12.0" height="3" fill="#35df39" stroke="#03aa10" /><rect x="2065.0" y="125.0" width="12.0" height="3" fill="#35df39" stroke="#03aa10" /><rect x="2078.0" y="150.0" width="12.0" height="3" fill="#80c9ff" stroke="#0b6cba" /><rect x="2091.0" y="150.0" width="12.0" height="3" fill="#fff874" stroke="#eb9c26" /><rect x="2065.0" y="200.0" width="12.0" height="3" fill="#35df39" stroke="#03aa10" /><rect x="2078.0" y="250.0" width="12.0" height="3" fill="#80c9ff" stroke="#0b6cba" /><rect x="2091.0" y="250.0" width="12.0" height="3" fill="#fff874" stroke="#eb9c26" /><rect x="2065.0" y="275.0" width="12.0" height="3" fill="#35df39" stroke="#03aa10" /><rect x="2065.0" y="325.0" width="12.0" height="3" fill="#35df39" stroke="#03aa10" /><rect x="2065.0" y="375.0" width="12.0" height="3" fill="#35df39" stroke="#03aa10" /><rect x="2065.0" y="425.0" width="12.0" height="3" fill="#35df39" stroke="#03aa10" /><rect x="2078.0" y="450.0" width="12.0" height="3" fill="#80c9ff" stroke="#0b6cba" /><rect x="2091.0" y="450.0" width="12.0" height="3" fill="#fff874" stroke="#eb9c26" /><rect x="2065.0" y="475.0" width="12.0" height="3" fill="#35df39" stroke="#03aa10" /><rect x="2065.0" y="525.0" width="12.0" height="3" fill="#35df39" stroke="#03aa10" /><rect x="2065.0" y="550.0" width="12.0" height="3" fill="#35df39" stroke="#03aa10" /><rect x="2065.0" y="575.0" width="12.0" height="3" fill="#35df39" stroke="#03aa10" /></svg>