<?xml version="1.0" encoding="UTF-8"?><svg xmlns="http://www.w3.org/2000/svg" xmlns:xlink="http://www.w3.org/1999/xlink"     width="3306" height="604.5" viewBox="0 0 3306 604.5"><defs></defs><rect x="39.0" y="295.0" width="12.0" height="117.45" fill="#fff874" stroke="#eb9c26" /><rect x="52.0" y="295.0" width="12.0" height="117.45" fill="#ff83f4" stroke="#d002bc" /><rect x="26.0" y="425.5" width="12.0" height="164.5" fill="#80c9ff" stroke="#0b6cba" /><rect x="39.0" y="425.5" width="12.0" height="164.5" fill="#fff874" stroke="#eb9c26" /><rect x="140.0" y="0.0" width="12.0" height="117.9" fill="#80c9ff" stroke="#0b6cba" /><rect x="166.0" y="0.0" width="12.0" height="117.9" fill="#ff83f4" stroke="#d002bc" /><rect x="127.0" y="131.0" width="12.0" height="147.6" fill="#35df39" stroke="#03aa10" /><rect x="153.0" y="131.0" width="12.0" height="147.6" fill="#fff874" stroke="#eb9c26" /><rect x="114.0" y="295.0" width="12.0" height="117.9" fill="#ff3c3c" stroke="#c71f1f" /><rect x="140.0" y="295.0" width="12.0" height="117.9" fill="#80c9ff" stroke="#0b6cba" /><rect x="114.0" y="426.0" width="12.0" height="3" fill="#ff3c3c" stroke="#c71f1f" /><rect x="127.0" y="426.0" width="12.0" height="3" fill="#35df39" stroke="#03aa10" /><rect x="140.0" y="516.5" width="12.0" height="3" fill="#80c9ff" stroke="#0b6cba" /><rect x="114.0" y="553.5" width="12.0" height="3" fill="#ff3c3c" stroke="#c71f1f" /><rect x="127.0" y="553.5" width="12.0" height="3" fill="#35df39" stroke="#03aa10" /><rect x="254.0" y="0.0" width="12.0" height="3" fill="#80c9ff" stroke="#0b6cba" /><rect x="267.0" y="0.0" width="12.0" height="3" fill="#fff874" stroke="#eb9c26" /><rect x="254.0" y="20.0" width="12.0" height="3" fill="#80c9ff" stroke="#0b6cba" /><rect x="267.0" y="20.0" width="12.0" height="3" fill="#fff874" stroke="#eb9c26" /><rect x="254.0" y="56.5" width="12.0" height="3" fill="#80c9ff" stroke="#0b6cba" /><rect x="241.0" y="73.5" width="12.0" height="3" fill="#35df39" stroke="#03aa10" /><rect x="228.0" y="110.5" width="12.0" height="3" fill="#ff3c3c" stroke="#c71f1f" /><rect x="241.0" y="110.5" width="12.0" height="3" fill="#35df39" stroke="#03aa10" /><rect x="228.0" y="130.5" width="12.0" height="3" fill="#ff3c3c" stroke="#c71f1f" /><rect x="241.0" y="130.5" width="12.0" height="3" fill="#35df39" stroke="#03aa10" /><rect x="254.0" y="167.5" width="12.0" height="3" fill="#80c9ff" stroke="#0b6cba" /><rect x="228.0" y="184.5" width="12.0" height="3" fill="#ff3c3c" stroke="#c71f1f" /><rect x="241.0" y="184.5" width="12.0" height="3" fill="#35df39" stroke="#03aa10" /><rect x="241.0" y="258.0" width="12.0" height="3" fill="#35df39" stroke="#03aa10" /><rect x="254.0" y="258.0" width="12.0" height="3" fill="#80c9ff" stroke="#0b6cba" /><rect x="267.0" y="315.0" width="12.0" height="3" fill="#fff874" stroke="#eb9c26" /><rect x="254.0" y="352.0" width="12.0" height="3" fill="#80c9ff" stroke="#0b6cba" /><rect x="267.0" y="352.0" width="12.0" height="3" fill="#fff874" stroke="#eb9c26" /><rect x="280.0" y="388.5" width="12.0" height="3" fill="#ff83f4" stroke="#d002bc" /><rect x="254.0" y="405.5" width="12.0" height="3" fill="#80c9ff" stroke="#0b6cba" /><rect x="228.0" y="442.5" width="12.0" height="3" fill="#ff3c3c" stroke="#c71f1f" /><rect x="241.0" y="442.5" width="12.0" height="3" fill="#35df39" stroke="#03aa10" /><rect x="241.0" y="516.0" width="12.0" height="3" fill="#35df39" stroke="#03aa10" /><rect x="254.0" y="516.0" width="12.0" height="3" fill="#80c9ff" stroke="#0b6cba" /><rect x="254.0" y="573.0" width="12.0" height="3" fill="#80c9ff" stroke="#0b6cba" /><rect x="267.0" y="573.0" width="12.0" height="3" fill="#fff874" stroke="#eb9c26" /><rect x="368.0" y="110.5" width="12.0" height="3" fill="#80c9ff" stroke="#0b6cba" /><rect x="368.0" y="147.5" width="12.0" height="3" fill="#80c9ff" stroke="#0b6cba" /><rect x="394.0" y="147.5" width="12.0" height="3" fill="#ff83f4" stroke="#d002bc" /><rect x="368.0" y="184.5" width="12.0" height="3" fill="#80c9ff" stroke="#0b6cba" /><rect x="394.0" y="184.5" width="12.0" height="3" fill="#ff83f4" stroke="#d002bc" /><rect x="368.0" y="221.5" width="12.0" height="3" fill="#80c9ff" stroke="#0b6cba" /><rect x="381.0" y="221.5" width="12.0" height="3" fill="#fff874" stroke="#eb9c26" /><rect x="368.0" y="241.5" width="12.0" height="3" fill="#80c9ff" stroke="#0b6cba" /><rect x="381.0" y="241.5" width="12.0" height="3" fill="#fff874" stroke="#eb9c26" /><rect x="381.0" y="278.0" width="12.0" height="3" fill="#fff874" stroke="#eb9c26" /><rect x="394.0" y="278.0" width="12.0" height="3" fill="#ff83f4" stroke="#d002bc" /><rect x="355.0" y="369.0" width="12.0" height="3" fill="#35df39" stroke="#03aa10" /><rect x="368.0" y="369.0" width="12.0" height="3" fill="#80c9ff" stroke="#0b6cba" /><rect x="381.0" y="369.0" width="12.0" height="3" fill="#fff874" stroke="#eb9c26" /><rect x="355.0" y="442.5" width="12.0" height="3" fill="#35df39" stroke="#03aa10" /><rect x="368.0" y="442.5" width="12.0" height="3" fill="#80c9ff" stroke="#0b6cba" /><rect x="368.0" y="479.5" width="12.0" height="3" fill="#80c9ff" stroke="#0b6cba" /><rect x="342.0" y="516.5" width="12.0" height="3" fill="#ff3c3c" stroke="#c71f1f" /><rect x="368.0" y="553.5" width="12.0" height="3" fill="#80c9ff" stroke="#0b6cba" /><rect x="456.0" y="0.0" width="12.0" height="3" fill="#ff3c3c" stroke="#c71f1f" /><rect x="469.0" y="0.0" width="12.0" height="3" fill="#35df39" stroke="#03aa10" /><rect x="469.0" y="20.0" width="12.0" height="3" fill="#35df39" stroke="#03aa10" /><rect x="456.0" y="37.0" width="12.0" height="3" fill="#ff3c3c" stroke="#c71f1f" /><rect x="508.0" y="74.0" width="12.0" height="3" fill="#ff83f4" stroke="#d002bc" /><rect x="456" y="74.0" width="64" height="3" fill="#ff72e7" stroke="#7c7c7c" /><rect x="469.0" y="111.0" width="12.0" height="3" fill="#35df39" stroke="#03aa10" /><rect x="482.0" y="111.0" width="12.0" height="3" fill="#80c9ff" stroke="#0b6cba" /><rect x="469.0" y="147.5" width="12.0" height="3" fill="#35df39" stroke="#03aa10" /><rect x="495.0" y="147.5" width="12.0" height="3" fill="#fff874" stroke="#eb9c26" /><rect x="469.0" y="221.5" width="12.0" height="3" fill="#35df39" stroke="#03aa10" /><rect x="482.0" y="221.5" width="12.0" height="3" fill="#80c9ff" stroke="#0b6cba" /><rect x="456.0" y="295.0" width="12.0" height="3" fill="#ff3c3c" stroke="#c71f1f" /><rect x="469.0" y="295.0" width="12.0" height="3" fill="#35df39" stroke="#03aa10" /><rect x="456.0" y="369.0" width="12.0" height="3" fill="#ff3c3c" stroke="#c71f1f" /><rect x="482.0" y="369.0" width="12.0" height="3" fill="#80c9ff" stroke="#0b6cba" /><rect x="456.0" y="443.0" width="12.0" height="3" fill="#ff3c3c" stroke="#c71f1f" /><rect x="469.0" y="443.0" width="12.0" height="3" fill="#35df39" stroke="#03aa10" /><rect x="469.0" y="516.5" width="12.0" height="3" fill="#35df39" stroke="#03aa10" /><rect x="482.0" y="516.5" width="12.0" height="3" fill="#80c9ff" stroke="#0b6cba" /><rect x="482.0" y="573.5" width="12.0" height="3" fill="#80c9ff" stroke="#0b6cba" /><rect x="495.0" y="573.5" width="12.0" height="3" fill="#fff874" stroke="#eb9c26" /><rect x="596.0" y="20.0" width="12.0" height="3" fill="#80c9ff" stroke="#0b6cba" /><rect x="609.0" y="36.5" width="12.0" height="3" fill="#fff874" stroke="#eb9c26" /><rect x="596.0" y="56.5" width="12.0" height="3" fill="#80c9ff" stroke="#0b6cba" /><rect x="609.0" y="73.5" width="12.0" height="3" fill="#fff874" stroke="#eb9c26" /><rect x="596.0" y="110.5" width="12.0" height="3" fill="#80c9ff" stroke="#0b6cba" /><rect x="596.0" y="147.5" width="12.0" height="3" fill="#80c9ff" stroke="#0b6cba" /><rect x="622.0" y="147.5" width="12.0" height="3" fill="#ff83f4" stroke="#d002bc" /><rect x="596.0" y="184.0" width="12.0" height="3" fill="#80c9ff" stroke="#0b6cba" /><rect x="622.0" y="184.0" width="12.0" height="3" fill="#ff83f4" stroke="#d002bc" /><rect x="596.0" y="221.0" width="12.0" height="3" fill="#80c9ff" stroke="#0b6cba" /><rect x="609.0" y="221.0" width="12.0" height="3" fill="#fff874" stroke="#eb9c26" /><rect x="596.0" y="241.0" width="12.0" height="3" fill="#80c9ff" stroke="#0b6cba" /><rect x="609.0" y="241.0" width="12.0" height="3" fill="#fff874" stroke="#eb9c26" /><rect x="609.0" y="278.0" width="12.0" height="3" fill="#fff874" stroke="#eb9c26" /><rect x="622.0" y="278.0" width="12.0" height="3" fill="#ff83f4" stroke="#d002bc" /><rect x="583.0" y="368.5" width="12.0" height="3" fill="#35df39" stroke="#03aa10" /><rect x="596.0" y="368.5" width="12.0" height="3" fill="#80c9ff" stroke="#0b6cba" /><rect x="609.0" y="368.5" width="12.0" height="3" fill="#fff874" stroke="#eb9c26" /><rect x="583.0" y="442.5" width="12.0" height="3" fill="#35df39" stroke="#03aa10" /><rect x="596.0" y="442.5" width="12.0" height="3" fill="#80c9ff" stroke="#0b6cba" /><rect x="596.0" y="479.5" width="12.0" height="3" fill="#80c9ff" stroke="#0b6cba" /><rect x="570.0" y="516.0" width="12.0" height="3" fill="#ff3c3c" stroke="#c71f1f" /><rect x="596.0" y="553.0" width="12.0" height="3" fill="#80c9ff" stroke="#0b6cba" /><rect x="684.0" y="0.0" width="12.0" height="3" fill="#ff3c3c" stroke="#c71f1f" /><rect x="697.0" y="0.0" width="12.0" height="3" fill="#35df39" stroke="#03aa10" /><rect x="697.0" y="20.0" width="12.0" height="3" fill="#35df39" stroke="#03aa10" /><rect x="684.0" y="37.0" width="12.0" height="3" fill="#ff3c3c" stroke="#c71f1f" /><rect x="736.0" y="73.5" width="12.0" height="3" fill="#ff83f4" stroke="#d002bc" /><rect x="684" y="73.5" width="64" height="3" fill="#ff72e7" stroke="#7c7c7c" /><rect x="697.0" y="110.5" width="12.0" height="3" fill="#35df39" stroke="#03aa10" /><rect x="710.0" y="110.5" width="12.0" height="3" fill="#80c9ff" stroke="#0b6cba" /><rect x="723.0" y="147.5" width="12.0" height="3" fill="#fff874" stroke="#eb9c26" /><rect x="710.0" y="167.5" width="12.0" height="3" fill="#80c9ff" stroke="#0b6cba" /><rect x="697.0" y="184.5" width="12.0" height="3" fill="#35df39" stroke="#03aa10" /><rect x="684.0" y="204.5" width="12.0" height="3" fill="#ff3c3c" stroke="#c71f1f" /><rect x="697.0" y="204.5" width="12.0" height="3" fill="#35df39" stroke="#03aa10" /><rect x="697.0" y="241.5" width="12.0" height="3" fill="#35df39" stroke="#03aa10" /><rect x="710.0" y="258.0" width="12.0" height="3" fill="#80c9ff" stroke="#0b6cba" /><rect x="697.0" y="278.0" width="12.0" height="3" fill="#35df39" stroke="#03aa10" /><rect x="723.0" y="278.0" width="12.0" height="3" fill="#fff874" stroke="#eb9c26" /><rect x="684.0" y="442.5" width="12.0" height="3" fill="#ff3c3c" stroke="#c71f1f" /><rect x="697.0" y="442.5" width="12.0" height="3" fill="#35df39" stroke="#03aa10" /><rect x="684.0" y="479.5" width="12.0" height="3" fill="#ff3c3c" stroke="#c71f1f" /><rect x="697.0" y="479.5" width="12.0" height="3" fill="#35df39" stroke="#03aa10" /><rect x="684.0" y="553.5" width="12.0" height="3" fill="#ff3c3c" stroke="#c71f1f" /><rect x="850.0" y="20.0" width="12.0" height="3" fill="#ff83f4" stroke="#d002bc" /><rect x="798" y="20.0" width="64" height="3" fill="#ff72e7" stroke="#7c7c7c" /><rect x="798.0" y="37.0" width="12.0" height="3" fill="#ff3c3c" stroke="#c71f1f" /><rect x="811.0" y="37.0" width="12.0" height="3" fill="#35df39" stroke="#03aa10" /><rect x="798.0" y="111.0" width="12.0" height="3" fill="#ff3c3c" stroke="#c71f1f" /><rect x="798.0" y="184.5" width="12.0" height="3" fill="#ff3c3c" stroke="#c71f1f" /><rect x="811.0" y="184.5" width="12.0" height="3" fill="#35df39" stroke="#03aa10" /><rect x="850.0" y="241.5" width="12.0" height="3" fill="#ff83f4" stroke="#d002bc" /><rect x="798" y="241.5" width="64" height="3" fill="#ff72e7" stroke="#7c7c7c" /><rect x="798.0" y="258.5" width="12.0" height="3" fill="#ff3c3c" stroke="#c71f1f" /><rect x="798.0" y="315.0" width="12.0" height="3" fill="#ff3c3c" stroke="#c71f1f" /><rect x="798.0" y="332.0" width="12.0" height="3" fill="#ff3c3c" stroke="#c71f1f" /><rect x="811.0" y="332.0" width="12.0" height="3" fill="#35df39" stroke="#03aa10" /><rect x="824.0" y="369.0" width="12.0" height="3" fill="#80c9ff" stroke="#0b6cba" /><rect x="811.0" y="406.0" width="12.0" height="3" fill="#35df39" stroke="#03aa10" /><rect x="798.0" y="443.0" width="12.0" height="3" fill="#ff3c3c" stroke="#c71f1f" /><rect x="811.0" y="443.0" width="12.0" height="3" fill="#35df39" stroke="#03aa10" /><rect x="798.0" y="479.5" width="12.0" height="3" fill="#ff3c3c" stroke="#c71f1f" /><rect x="811.0" y="479.5" width="12.0" height="3" fill="#35df39" stroke="#03aa10" /><rect x="798.0" y="553.5" width="12.0" height="3" fill="#ff3c3c" stroke="#c71f1f" /><rect x="912.0" y="36.5" width="12.0" height="3" fill="#ff3c3c" stroke="#c71f1f" /><rect x="925.0" y="36.5" width="12.0" height="3" fill="#35df39" stroke="#03aa10" /><rect x="938.0" y="110.5" width="12.0" height="3" fill="#80c9ff" stroke="#0b6cba" /><rect x="951.0" y="110.5" width="12.0" height="3" fill="#fff874" stroke="#eb9c26" /><rect x="938.0" y="167.5" width="12.0" height="3" fill="#80c9ff" stroke="#0b6cba" /><rect x="938.0" y="184.0" width="12.0" height="3" fill="#80c9ff" stroke="#0b6cba" /><rect x="951.0" y="221.0" width="12.0" height="3" fill="#fff874" stroke="#eb9c26" /><rect x="938.0" y="258.0" width="12.0" height="3" fill="#80c9ff" stroke="#0b6cba" /><rect x="951.0" y="278.0" width="12.0" height="3" fill="#fff874" stroke="#eb9c26" /><rect x="964.0" y="278.0" width="12.0" height="3" fill="#ff83f4" stroke="#d002bc" /><rect x="951.0" y="315.0" width="12.0" height="3" fill="#fff874" stroke="#eb9c26" /><rect x="938.0" y="332.0" width="12.0" height="3" fill="#80c9ff" stroke="#0b6cba" /><rect x="925.0" y="368.5" width="12.0" height="3" fill="#35df39" stroke="#03aa10" /><rect x="951.0" y="368.5" width="12.0" height="3" fill="#fff874" stroke="#eb9c26" /><rect x="912.0" y="405.5" width="12.0" height="3" fill="#ff3c3c" stroke="#c71f1f" /><rect x="925.0" y="442.5" width="12.0" height="3" fill="#35df39" stroke="#03aa10" /><rect x="938.0" y="442.5" width="12.0" height="3" fill="#80c9ff" stroke="#0b6cba" /><rect x="925.0" y="479.5" width="12.0" height="3" fill="#35df39" stroke="#03aa10" /><rect x="938.0" y="479.5" width="12.0" height="3" fill="#80c9ff" stroke="#0b6cba" /><rect x="925.0" y="553.0" width="12.0" height="3" fill="#35df39" stroke="#03aa10" /><rect x="1078.0" y="20.0" width="12.0" height="3" fill="#ff83f4" stroke="#d002bc" /><rect x="1026" y="20.0" width="64" height="3" fill="#ff72e7" stroke="#7c7c7c" /><rect x="1039.0" y="37.0" width="12.0" height="3" fill="#35df39" stroke="#03aa10" /><rect x="1052.0" y="37.0" width="12.0" height="3" fill="#80c9ff" stroke="#0b6cba" /><rect x="1039.0" y="110.5" width="12.0" height="3" fill="#35df39" stroke="#03aa10" /><rect x="1039.0" y="184.5" width="12.0" height="3" fill="#35df39" stroke="#03aa10" /><rect x="1052.0" y="184.5" width="12.0" height="3" fill="#80c9ff" stroke="#0b6cba" /><rect x="1078.0" y="241.5" width="12.0" height="3" fill="#ff83f4" stroke="#d002bc" /><rect x="1026" y="241.5" width="64" height="3" fill="#ff72e7" stroke="#7c7c7c" /><rect x="1039.0" y="258.0" width="12.0" height="3" fill="#35df39" stroke="#03aa10" /><rect x="1039.0" y="315.0" width="12.0" height="3" fill="#35df39" stroke="#03aa10" /><rect x="1039.0" y="332.0" width="12.0" height="3" fill="#35df39" stroke="#03aa10" /><rect x="1052.0" y="332.0" width="12.0" height="3" fill="#80c9ff" stroke="#0b6cba" /><rect x="1065.0" y="369.0" width="12.0" height="3" fill="#fff874" stroke="#eb9c26" /><rect x="1052.0" y="405.5" width="12.0" height="3" fill="#80c9ff" stroke="#0b6cba" /><rect x="1039.0" y="442.5" width="12.0" height="3" fill="#35df39" stroke="#03aa10" /><rect x="1052.0" y="442.5" width="12.0" height="3" fill="#80c9ff" stroke="#0b6cba" /><rect x="1039.0" y="479.5" width="12.0" height="3" fill="#35df39" stroke="#03aa10" /><rect x="1052.0" y="479.5" width="12.0" height="3" fill="#80c9ff" stroke="#0b6cba" /><rect x="1039.0" y="553.0" width="12.0" height="3" fill="#35df39" stroke="#03aa10" /><rect x="1153.0" y="37.0" width="12.0" height="3" fill="#35df39" stroke="#03aa10" /><rect x="1166.0" y="37.0" width="12.0" height="3" fill="#80c9ff" stroke="#0b6cba" /><rect x="1153.0" y="111.0" width="12.0" height="3" fill="#35df39" stroke="#03aa10" /><rect x="1140.0" y="147.5" width="12.0" height="3" fill="#ff3c3c" stroke="#c71f1f" /><rect x="1166.0" y="184.5" width="12.0" height="3" fill="#80c9ff" stroke="#0b6cba" /><rect x="1179.0" y="184.5" width="12.0" height="3" fill="#fff874" stroke="#eb9c26" /><rect x="1179.0" y="221.5" width="12.0" height="3" fill="#fff874" stroke="#eb9c26" /><rect x="1166.0" y="241.5" width="12.0" height="3" fill="#80c9ff" stroke="#0b6cba" /><rect x="1153.0" y="258.5" width="12.0" height="3" fill="#35df39" stroke="#03aa10" /><rect x="1153.0" y="278.5" width="12.0" height="3" fill="#35df39" stroke="#03aa10" /><rect x="1166.0" y="278.5" width="12.0" height="3" fill="#80c9ff" stroke="#0b6cba" /><rect x="1153.0" y="315.0" width="12.0" height="3" fill="#35df39" stroke="#03aa10" /><rect x="1166.0" y="332.0" width="12.0" height="3" fill="#80c9ff" stroke="#0b6cba" /><rect x="1140.0" y="352.0" width="12.0" height="3" fill="#ff3c3c" stroke="#c71f1f" /><rect x="1153.0" y="352.0" width="12.0" height="3" fill="#35df39" stroke="#03aa10" /><rect x="1153.0" y="389.0" width="12.0" height="3" fill="#35df39" stroke="#03aa10" /><rect x="1166.0" y="406.0" width="12.0" height="3" fill="#80c9ff" stroke="#0b6cba" /><rect x="1140.0" y="442.5" width="12.0" height="3" fill="#ff3c3c" stroke="#c71f1f" /><rect x="1153.0" y="442.5" width="12.0" height="3" fill="#35df39" stroke="#03aa10" /><rect x="1153.0" y="516.5" width="12.0" height="3" fill="#35df39" stroke="#03aa10" /><rect x="1166.0" y="516.5" width="12.0" height="3" fill="#80c9ff" stroke="#0b6cba" /><rect x="1166.0" y="573.5" width="12.0" height="3" fill="#80c9ff" stroke="#0b6cba" /><rect x="1179.0" y="573.5" width="12.0" height="3" fill="#fff874" stroke="#eb9c26" /><rect x="1280.0" y="110.5" width="12.0" height="3" fill="#80c9ff" stroke="#0b6cba" /><rect x="1280.0" y="147.5" width="12.0" height="3" fill="#80c9ff" stroke="#0b6cba" /><rect x="1306.0" y="147.5" width="12.0" height="3" fill="#ff83f4" stroke="#d002bc" /><rect x="1280.0" y="184.0" width="12.0" height="3" fill="#80c9ff" stroke="#0b6cba" /><rect x="1306.0" y="184.0" width="12.0" height="3" fill="#ff83f4" stroke="#d002bc" /><rect x="1280.0" y="221.0" width="12.0" height="3" fill="#80c9ff" stroke="#0b6cba" /><rect x="1293.0" y="221.0" width="12.0" height="3" fill="#fff874" stroke="#eb9c26" /><rect x="1280.0" y="241.0" width="12.0" height="3" fill="#80c9ff" stroke="#0b6cba" /><rect x="1293.0" y="241.0" width="12.0" height="3" fill="#fff874" stroke="#eb9c26" /><rect x="1293.0" y="278.0" width="12.0" height="3" fill="#fff874" stroke="#eb9c26" /><rect x="1306.0" y="278.0" width="12.0" height="3" fill="#ff83f4" stroke="#d002bc" /><rect x="1267.0" y="368.5" width="12.0" height="3" fill="#35df39" stroke="#03aa10" /><rect x="1280.0" y="368.5" width="12.0" height="3" fill="#80c9ff" stroke="#0b6cba" /><rect x="1293.0" y="368.5" width="12.0" height="3" fill="#fff874" stroke="#eb9c26" /><rect x="1267.0" y="442.5" width="12.0" height="3" fill="#35df39" stroke="#03aa10" /><rect x="1280.0" y="442.5" width="12.0" height="3" fill="#80c9ff" stroke="#0b6cba" /><rect x="1280.0" y="479.5" width="12.0" height="3" fill="#80c9ff" stroke="#0b6cba" /><rect x="1254.0" y="516.0" width="12.0" height="3" fill="#ff3c3c" stroke="#c71f1f" /><rect x="1280.0" y="553.0" width="12.0" height="3" fill="#80c9ff" stroke="#0b6cba" /><rect x="1368.0" y="0.0" width="12.0" height="3" fill="#ff3c3c" stroke="#c71f1f" /><rect x="1381.0" y="0.0" width="12.0" height="3" fill="#35df39" stroke="#03aa10" /><rect x="1381.0" y="20.0" width="12.0" height="3" fill="#35df39" stroke="#03aa10" /><rect x="1368.0" y="37.0" width="12.0" height="3" fill="#ff3c3c" stroke="#c71f1f" /><rect x="1420.0" y="73.5" width="12.0" height="3" fill="#ff83f4" stroke="#d002bc" /><rect x="1368" y="73.5" width="64" height="3" fill="#ff72e7" stroke="#7c7c7c" /><rect x="1381.0" y="110.5" width="12.0" height="3" fill="#35df39" stroke="#03aa10" /><rect x="1394.0" y="110.5" width="12.0" height="3" fill="#80c9ff" stroke="#0b6cba" /><rect x="1381.0" y="147.5" width="12.0" height="3" fill="#35df39" stroke="#03aa10" /><rect x="1407.0" y="147.5" width="12.0" height="3" fill="#fff874" stroke="#eb9c26" /><rect x="1381.0" y="221.5" width="12.0" height="3" fill="#35df39" stroke="#03aa10" /><rect x="1394.0" y="221.5" width="12.0" height="3" fill="#80c9ff" stroke="#0b6cba" /><rect x="1368.0" y="295.0" width="12.0" height="3" fill="#ff3c3c" stroke="#c71f1f" /><rect x="1381.0" y="295.0" width="12.0" height="3" fill="#35df39" stroke="#03aa10" /><rect x="1420.0" y="369.0" width="12.0" height="3" fill="#ff83f4" stroke="#d002bc" /><rect x="1368" y="369.0" width="64" height="3" fill="#ff72e7" stroke="#7c7c7c" /><rect x="1368.0" y="389.0" width="12.0" height="3" fill="#ff3c3c" stroke="#c71f1f" /><rect x="1394.0" y="389.0" width="12.0" height="3" fill="#80c9ff" stroke="#0b6cba" /><rect x="1368.0" y="442.5" width="12.0" height="3" fill="#ff3c3c" stroke="#c71f1f" /><rect x="1381.0" y="442.5" width="12.0" height="3" fill="#35df39" stroke="#03aa10" /><rect x="1381.0" y="516.5" width="12.0" height="3" fill="#35df39" stroke="#03aa10" /><rect x="1394.0" y="516.5" width="12.0" height="3" fill="#80c9ff" stroke="#0b6cba" /><rect x="1394.0" y="573.0" width="12.0" height="3" fill="#80c9ff" stroke="#0b6cba" /><rect x="1407.0" y="573.0" width="12.0" height="3" fill="#fff874" stroke="#eb9c26" /><rect x="1508.0" y="20.0" width="12.0" height="3" fill="#80c9ff" stroke="#0b6cba" /><rect x="1521.0" y="37.0" width="12.0" height="3" fill="#fff874" stroke="#eb9c26" /><rect x="1508.0" y="57.0" width="12.0" height="3" fill="#80c9ff" stroke="#0b6cba" /><rect x="1534.0" y="74.0" width="12.0" height="3" fill="#ff83f4" stroke="#d002bc" /><rect x="1521.0" y="94.0" width="12.0" height="3" fill="#fff874" stroke="#eb9c26" /><rect x="1508.0" y="130.5" width="12.0" height="3" fill="#80c9ff" stroke="#0b6cba" /><rect x="1508.0" y="147.5" width="12.0" height="3" fill="#80c9ff" stroke="#0b6cba" /><rect x="1534.0" y="147.5" width="12.0" height="3" fill="#ff83f4" stroke="#d002bc" /><rect x="1508.0" y="184.5" width="12.0" height="3" fill="#80c9ff" stroke="#0b6cba" /><rect x="1534.0" y="184.5" width="12.0" height="3" fill="#ff83f4" stroke="#d002bc" /><rect x="1508.0" y="221.5" width="12.0" height="3" fill="#80c9ff" stroke="#0b6cba" /><rect x="1521.0" y="221.5" width="12.0" height="3" fill="#fff874" stroke="#eb9c26" /><rect x="1508.0" y="241.5" width="12.0" height="3" fill="#80c9ff" stroke="#0b6cba" /><rect x="1521.0" y="241.5" width="12.0" height="3" fill="#fff874" stroke="#eb9c26" /><rect x="1521.0" y="278.5" width="12.0" height="3" fill="#fff874" stroke="#eb9c26" /><rect x="1534.0" y="278.5" width="12.0" height="3" fill="#ff83f4" stroke="#d002bc" /><rect x="1495.0" y="369.0" width="12.0" height="3" fill="#35df39" stroke="#03aa10" /><rect x="1508.0" y="369.0" width="12.0" height="3" fill="#80c9ff" stroke="#0b6cba" /><rect x="1521.0" y="369.0" width="12.0" height="3" fill="#fff874" stroke="#eb9c26" /><rect x="1495.0" y="442.5" width="12.0" height="3" fill="#35df39" stroke="#03aa10" /><rect x="1508.0" y="442.5" width="12.0" height="3" fill="#80c9ff" stroke="#0b6cba" /><rect x="1508.0" y="479.5" width="12.0" height="3" fill="#80c9ff" stroke="#0b6cba" /><rect x="1482.0" y="516.5" width="12.0" height="3" fill="#ff3c3c" stroke="#c71f1f" /><rect x="1508.0" y="553.5" width="12.0" height="3" fill="#80c9ff" stroke="#0b6cba" /><rect x="1596.0" y="0.0" width="12.0" height="3" fill="#ff3c3c" stroke="#c71f1f" /><rect x="1609.0" y="0.0" width="12.0" height="3" fill="#35df39" stroke="#03aa10" /><rect x="1609.0" y="20.0" width="12.0" height="3" fill="#35df39" stroke="#03aa10" /><rect x="1596.0" y="36.5" width="12.0" height="3" fill="#ff3c3c" stroke="#c71f1f" /><rect x="1648.0" y="73.5" width="12.0" height="3" fill="#ff83f4" stroke="#d002bc" /><rect x="1596" y="73.5" width="64" height="3" fill="#ff72e7" stroke="#7c7c7c" /><rect x="1609.0" y="110.5" width="12.0" height="3" fill="#35df39" stroke="#03aa10" /><rect x="1622.0" y="110.5" width="12.0" height="3" fill="#80c9ff" stroke="#0b6cba" /><rect x="1596.0" y="147.5" width="12.0" height="3" fill="#ff3c3c" stroke="#c71f1f" /><rect x="1622.0" y="167.5" width="12.0" height="3" fill="#80c9ff" stroke="#0b6cba" /><rect x="1609.0" y="184.0" width="12.0" height="3" fill="#35df39" stroke="#03aa10" /><rect x="1596.0" y="204.0" width="12.0" height="3" fill="#ff3c3c" stroke="#c71f1f" /><rect x="1622.0" y="204.0" width="12.0" height="3" fill="#80c9ff" stroke="#0b6cba" /><rect x="1635.0" y="241.0" width="12.0" height="3" fill="#fff874" stroke="#eb9c26" /><rect x="1622.0" y="258.0" width="12.0" height="3" fill="#80c9ff" stroke="#0b6cba" /><rect x="1596.0" y="278.0" width="12.0" height="3" fill="#ff3c3c" stroke="#c71f1f" /><rect x="1609.0" y="278.0" width="12.0" height="3" fill="#35df39" stroke="#03aa10" /><rect x="1622.0" y="442.5" width="12.0" height="3" fill="#80c9ff" stroke="#0b6cba" /><rect x="1635.0" y="442.5" width="12.0" height="3" fill="#fff874" stroke="#eb9c26" /><rect x="1635.0" y="479.5" width="12.0" height="3" fill="#fff874" stroke="#eb9c26" /><rect x="1609.0" y="516.0" width="12.0" height="3" fill="#35df39" stroke="#03aa10" /><rect x="1635.0" y="553.0" width="12.0" height="3" fill="#fff874" stroke="#eb9c26" /><rect x="1609.0" y="573.0" width="12.0" height="3" fill="#35df39" stroke="#03aa10" /><rect x="1622.0" y="573.0" width="12.0" height="3" fill="#80c9ff" stroke="#0b6cba" /><rect x="1736.0" y="20.0" width="12.0" height="3" fill="#80c9ff" stroke="#0b6cba" /><rect x="1723.0" y="37.0" width="12.0" height="3" fill="#35df39" stroke="#03aa10" /><rect x="1749.0" y="73.5" width="12.0" height="3" fill="#fff874" stroke="#eb9c26" /><rect x="1723.0" y="110.5" width="12.0" height="3" fill="#35df39" stroke="#03aa10" /><rect x="1723.0" y="130.5" width="12.0" height="3" fill="#35df39" stroke="#03aa10" /><rect x="1736.0" y="130.5" width="12.0" height="3" fill="#80c9ff" stroke="#0b6cba" /><rect x="1710.0" y="184.5" width="12.0" height="3" fill="#ff3c3c" stroke="#c71f1f" /><rect x="1736.0" y="184.5" width="12.0" height="3" fill="#80c9ff" stroke="#0b6cba" /><rect x="1710.0" y="241.0" width="12.0" height="3" fill="#ff3c3c" stroke="#c71f1f" /><rect x="1723.0" y="241.0" width="12.0" height="3" fill="#35df39" stroke="#03aa10" /><rect x="1723.0" y="278.0" width="12.0" height="3" fill="#35df39" stroke="#03aa10" /><rect x="1736.0" y="295.0" width="12.0" height="3" fill="#80c9ff" stroke="#0b6cba" /><rect x="1736.0" y="315.0" width="12.0" height="3" fill="#80c9ff" stroke="#0b6cba" /><rect x="1710.0" y="332.0" width="12.0" height="3" fill="#ff3c3c" stroke="#c71f1f" /><rect x="1736.0" y="352.0" width="12.0" height="3" fill="#80c9ff" stroke="#0b6cba" /><rect x="1723.0" y="389.0" width="12.0" height="3" fill="#35df39" stroke="#03aa10" /><rect x="1736.0" y="389.0" width="12.0" height="3" fill="#80c9ff" stroke="#0b6cba" /><rect x="1736.0" y="442.5" width="12.0" height="3" fill="#80c9ff" stroke="#0b6cba" /><rect x="1749.0" y="442.5" width="12.0" height="3" fill="#fff874" stroke="#eb9c26" /><rect x="1749.0" y="479.5" width="12.0" height="3" fill="#fff874" stroke="#eb9c26" /><rect x="1723.0" y="516.5" width="12.0" height="3" fill="#35df39" stroke="#03aa10" /><rect x="1749.0" y="553.0" width="12.0" height="3" fill="#fff874" stroke="#eb9c26" /><rect x="1837.0" y="0.0" width="12.0" height="3" fill="#35df39" stroke="#03aa10" /><rect x="1850.0" y="0.0" width="12.0" height="3" fill="#80c9ff" stroke="#0b6cba" /><rect x="1837.0" y="37.0" width="12.0" height="3" fill="#35df39" stroke="#03aa10" /><rect x="1850.0" y="74.0" width="12.0" height="3" fill="#80c9ff" stroke="#0b6cba" /><rect x="1863.0" y="74.0" width="12.0" height="3" fill="#fff874" stroke="#eb9c26" /><rect x="1863.0" y="111.0" width="12.0" height="3" fill="#fff874" stroke="#eb9c26" /><rect x="1876.0" y="147.5" width="12.0" height="3" fill="#ff83f4" stroke="#d002bc" /><rect x="1876.0" y="167.5" width="12.0" height="3" fill="#ff83f4" stroke="#d002bc" /><rect x="1850.0" y="184.5" width="12.0" height="3" fill="#80c9ff" stroke="#0b6cba" /><rect x="1863.0" y="184.5" width="12.0" height="3" fill="#fff874" stroke="#eb9c26" /><rect x="1876.0" y="221.5" width="12.0" height="3" fill="#ff83f4" stroke="#d002bc" /><rect x="1863.0" y="258.5" width="12.0" height="3" fill="#fff874" stroke="#eb9c26" /><rect x="1876.0" y="258.5" width="12.0" height="3" fill="#ff83f4" stroke="#d002bc" /><rect x="1850.0" y="295.0" width="12.0" height="3" fill="#80c9ff" stroke="#0b6cba" /><rect x="1863.0" y="295.0" width="12.0" height="3" fill="#fff874" stroke="#eb9c26" /><rect x="1824.0" y="369.0" width="12.0" height="3" fill="#ff3c3c" stroke="#c71f1f" /><rect x="1850.0" y="369.0" width="12.0" height="3" fill="#80c9ff" stroke="#0b6cba" /><rect x="1837.0" y="442.5" width="12.0" height="3" fill="#35df39" stroke="#03aa10" /><rect x="1850.0" y="442.5" width="12.0" height="3" fill="#80c9ff" stroke="#0b6cba" /><rect x="1850.0" y="499.5" width="12.0" height="3" fill="#80c9ff" stroke="#0b6cba" /><rect x="1837.0" y="536.5" width="12.0" height="3" fill="#35df39" stroke="#03aa10" /><rect x="1850.0" y="536.5" width="12.0" height="3" fill="#80c9ff" stroke="#0b6cba" /><rect x="1837.0" y="553.5" width="12.0" height="3" fill="#35df39" stroke="#03aa10" /><rect x="1850.0" y="553.5" width="12.0" height="3" fill="#80c9ff" stroke="#0b6cba" /><rect x="1938.0" y="147.5" width="12.0" height="3" fill="#ff3c3c" stroke="#c71f1f" /><rect x="1951.0" y="147.5" width="12.0" height="3" fill="#35df39" stroke="#03aa10" /><rect x="1938.0" y="184.0" width="12.0" height="3" fill="#ff3c3c" stroke="#c71f1f" /><rect x="1951.0" y="221.0" width="12.0" height="3" fill="#35df39" stroke="#03aa10" /><rect x="1951.0" y="258.0" width="12.0" height="3" fill="#35df39" stroke="#03aa10" /><rect x="1951.0" y="295.0" width="12.0" height="3" fill="#35df39" stroke="#03aa10" /><rect x="1964.0" y="295.0" width="12.0" height="3" fill="#80c9ff" stroke="#0b6cba" /><rect x="1951.0" y="315.0" width="12.0" height="3" fill="#35df39" stroke="#03aa10" /><rect x="1964.0" y="315.0" width="12.0" height="3" fill="#80c9ff" stroke="#0b6cba" /><rect x="1964.0" y="331.5" width="12.0" height="3" fill="#80c9ff" stroke="#0b6cba" /><rect x="1951.0" y="368.5" width="12.0" height="3" fill="#35df39" stroke="#03aa10" /><rect x="1964.0" y="368.5" width="12.0" height="3" fill="#80c9ff" stroke="#0b6cba" /><rect x="1977.0" y="405.5" width="12.0" height="3" fill="#fff874" stroke="#eb9c26" /><rect x="1977.0" y="442.5" width="12.0" height="3" fill="#fff874" stroke="#eb9c26" /><rect x="1990.0" y="442.5" width="12.0" height="3" fill="#ff83f4" stroke="#d002bc" /><rect x="1990.0" y="479.5" width="12.0" height="3" fill="#ff83f4" stroke="#d002bc" /><rect x="1977.0" y="516.0" width="12.0" height="3" fill="#fff874" stroke="#eb9c26" /><rect x="1964.0" y="553.0" width="12.0" height="3" fill="#80c9ff" stroke="#0b6cba" /><rect x="2078.0" y="0.0" width="12.0" height="3" fill="#80c9ff" stroke="#0b6cba" /><rect x="2091.0" y="0.0" width="12.0" height="3" fill="#fff874" stroke="#eb9c26" /><rect x="2078.0" y="20.0" width="12.0" height="3" fill="#80c9ff" stroke="#0b6cba" /><rect x="2091.0" y="20.0" width="12.0" height="3" fill="#fff874" stroke="#eb9c26" /><rect x="2078.0" y="37.0" width="12.0" height="3" fill="#80c9ff" stroke="#0b6cba" /><rect x="2065.0" y="73.5" width="12.0" height="3" fill="#35df39" stroke="#03aa10" /><rect x="2052.0" y="110.5" width="12.0" height="3" fill="#ff3c3c" stroke="#c71f1f" /><rect x="2052.0" y="147.5" width="12.0" height="3" fill="#ff3c3c" stroke="#c71f1f" /><rect x="2065.0" y="147.5" width="12.0" height="3" fill="#35df39" stroke="#03aa10" /><rect x="2065.0" y="184.5" width="12.0" height="3" fill="#35df39" stroke="#03aa10" /><rect x="2065.0" y="221.0" width="12.0" height="3" fill="#35df39" stroke="#03aa10" /><rect x="2078.0" y="221.0" width="12.0" height="3" fill="#80c9ff" stroke="#0b6cba" /><rect x="2065.0" y="241.0" width="12.0" height="3" fill="#35df39" stroke="#03aa10" /><rect x="2078.0" y="241.0" width="12.0" height="3" fill="#80c9ff" stroke="#0b6cba" /><rect x="2078.0" y="258.0" width="12.0" height="3" fill="#80c9ff" stroke="#0b6cba" /><rect x="2065.0" y="295.0" width="12.0" height="3" fill="#35df39" stroke="#03aa10" /><rect x="2078.0" y="295.0" width="12.0" height="3" fill="#80c9ff" stroke="#0b6cba" /><rect x="2078.0" y="332.0" width="12.0" height="3" fill="#80c9ff" stroke="#0b6cba" /><rect x="2091.0" y="369.0" width="12.0" height="3" fill="#fff874" stroke="#eb9c26" /><rect x="2078.0" y="405.5" width="12.0" height="3" fill="#80c9ff" stroke="#0b6cba" /><rect x="2104.0" y="405.5" width="12.0" height="3" fill="#ff83f4" stroke="#d002bc" /><rect x="2078.0" y="442.5" width="12.0" height="3" fill="#80c9ff" stroke="#0b6cba" /><rect x="2091.0" y="442.5" width="12.0" height="3" fill="#fff874" stroke="#eb9c26" /><rect x="2065.0" y="479.5" width="12.0" height="3" fill="#35df39" stroke="#03aa10" /><rect x="2078.0" y="516.5" width="12.0" height="3" fill="#80c9ff" stroke="#0b6cba" /><rect x="2091.0" y="553.0" width="12.0" height="3" fill="#fff874" stroke="#eb9c26" /><rect x="2179.0" y="0.0" width="12.0" height="3" fill="#35df39" stroke="#03aa10" /><rect x="2205.0" y="0.0" width="12.0" height="3" fill="#fff874" stroke="#eb9c26" /><rect x="2166.0" y="57.0" width="12.0" height="3" fill="#ff3c3c" stroke="#c71f1f" /><rect x="2179.0" y="57.0" width="12.0" height="3" fill="#35df39" stroke="#03aa10" /><rect x="2166.0" y="94.0" width="12.0" height="3" fill="#ff3c3c" stroke="#c71f1f" /><rect x="2179.0" y="94.0" width="12.0" height="3" fill="#35df39" stroke="#03aa10" /><rect x="2179.0" y="110.5" width="12.0" height="3" fill="#35df39" stroke="#03aa10" /><rect x="2166.0" y="147.5" width="12.0" height="3" fill="#ff3c3c" stroke="#c71f1f" /><rect x="2192.0" y="147.5" width="12.0" height="3" fill="#80c9ff" stroke="#0b6cba" /><rect x="2166.0" y="184.5" width="12.0" height="3" fill="#ff3c3c" stroke="#c71f1f" /><rect x="2192.0" y="184.5" width="12.0" height="3" fill="#80c9ff" stroke="#0b6cba" /><rect x="2179.0" y="221.5" width="12.0" height="3" fill="#35df39" stroke="#03aa10" /><rect x="2166.0" y="258.5" width="12.0" height="3" fill="#ff3c3c" stroke="#c71f1f" /><rect x="2192.0" y="258.5" width="12.0" height="3" fill="#80c9ff" stroke="#0b6cba" /><rect x="2179.0" y="295.0" width="12.0" height="3" fill="#35df39" stroke="#03aa10" /><rect x="2192.0" y="295.0" width="12.0" height="3" fill="#80c9ff" stroke="#0b6cba" /><rect x="2192.0" y="332.0" width="12.0" height="3" fill="#80c9ff" stroke="#0b6cba" /><rect x="2205.0" y="369.0" width="12.0" height="3" fill="#fff874" stroke="#eb9c26" /><rect x="2179.0" y="406.0" width="12.0" height="3" fill="#35df39" stroke="#03aa10" /><rect x="2192.0" y="406.0" width="12.0" height="3" fill="#80c9ff" stroke="#0b6cba" /><rect x="2192.0" y="442.5" width="12.0" height="3" fill="#80c9ff" stroke="#0b6cba" /><rect x="2205.0" y="479.5" width="12.0" height="3" fill="#fff874" stroke="#eb9c26" /><rect x="2218.0" y="499.5" width="12.0" height="3" fill="#ff83f4" stroke="#d002bc" /><rect x="2205.0" y="536.5" width="12.0" height="3" fill="#fff874" stroke="#eb9c26" /><rect x="2218.0" y="536.5" width="12.0" height="3" fill="#ff83f4" stroke="#d002bc" /><rect x="2192.0" y="573.5" width="12.0" height="3" fill="#80c9ff" stroke="#0b6cba" /><rect x="2205.0" y="573.5" width="12.0" height="3" fill="#fff874" stroke="#eb9c26" /><rect x="2319.0" y="20.0" width="12.0" height="3" fill="#fff874" stroke="#eb9c26" /><rect x="2306.0" y="37.0" width="12.0" height="3" fill="#80c9ff" stroke="#0b6cba" /><rect x="2293.0" y="74.0" width="12.0" height="3" fill="#35df39" stroke="#03aa10" /><rect x="2280.0" y="111.0" width="12.0" height="3" fill="#ff3c3c" stroke="#c71f1f" /><rect x="2280.0" y="148.0" width="12.0" height="3" fill="#ff3c3c" stroke="#c71f1f" /><rect x="2306.0" y="148.0" width="12.0" height="3" fill="#80c9ff" stroke="#0b6cba" /><rect x="2280.0" y="184.5" width="12.0" height="3" fill="#ff3c3c" stroke="#c71f1f" /><rect x="2306.0" y="184.5" width="12.0" height="3" fill="#80c9ff" stroke="#0b6cba" /><rect x="2293.0" y="221.5" width="12.0" height="3" fill="#35df39" stroke="#03aa10" /><rect x="2280.0" y="258.5" width="12.0" height="3" fill="#ff3c3c" stroke="#c71f1f" /><rect x="2293.0" y="295.5" width="12.0" height="3" fill="#35df39" stroke="#03aa10" /><rect x="2306.0" y="332.0" width="12.0" height="3" fill="#80c9ff" stroke="#0b6cba" /><rect x="2280.0" y="352.0" width="12.0" height="3" fill="#ff3c3c" stroke="#c71f1f" /><rect x="2293.0" y="352.0" width="12.0" height="3" fill="#35df39" stroke="#03aa10" /><rect x="2306.0" y="389.0" width="12.0" height="3" fill="#80c9ff" stroke="#0b6cba" /><rect x="2293.0" y="406.0" width="12.0" height="3" fill="#35df39" stroke="#03aa10" /><rect x="2306.0" y="426.0" width="12.0" height="3" fill="#80c9ff" stroke="#0b6cba" /><rect x="2293.0" y="443.0" width="12.0" height="3" fill="#35df39" stroke="#03aa10" /><rect x="2319.0" y="443.0" width="12.0" height="3" fill="#fff874" stroke="#eb9c26" /><rect x="2394.0" y="147.5" width="12.0" height="3" fill="#ff3c3c" stroke="#c71f1f" /><rect x="2407.0" y="147.5" width="12.0" height="3" fill="#35df39" stroke="#03aa10" /><rect x="2407.0" y="221.0" width="12.0" height="3" fill="#35df39" stroke="#03aa10" /><rect x="2420.0" y="221.0" width="12.0" height="3" fill="#80c9ff" stroke="#0b6cba" /><rect x="2420.0" y="278.0" width="12.0" height="3" fill="#80c9ff" stroke="#0b6cba" /><rect x="2433.0" y="278.0" width="12.0" height="3" fill="#fff874" stroke="#eb9c26" /><rect x="2420.0" y="405.5" width="12.0" height="3" fill="#80c9ff" stroke="#0b6cba" /><rect x="2420.0" y="442.5" width="12.0" height="3" fill="#80c9ff" stroke="#0b6cba" /><rect x="2446.0" y="442.5" width="12.0" height="3" fill="#ff83f4" stroke="#d002bc" /><rect x="2420.0" y="479.5" width="12.0" height="3" fill="#80c9ff" stroke="#0b6cba" /><rect x="2446.0" y="479.5" width="12.0" height="3" fill="#ff83f4" stroke="#d002bc" /><rect x="2420.0" y="516.5" width="12.0" height="3" fill="#80c9ff" stroke="#0b6cba" /><rect x="2433.0" y="516.5" width="12.0" height="3" fill="#fff874" stroke="#eb9c26" /><rect x="2420.0" y="536.5" width="12.0" height="3" fill="#80c9ff" stroke="#0b6cba" /><rect x="2433.0" y="536.5" width="12.0" height="3" fill="#fff874" stroke="#eb9c26" /><rect x="2433.0" y="573.0" width="12.0" height="3" fill="#fff874" stroke="#eb9c26" /><rect x="2446.0" y="573.0" width="12.0" height="3" fill="#ff83f4" stroke="#d002bc" /><rect x="2521.0" y="74.0" width="12.0" height="3" fill="#35df39" stroke="#03aa10" /><rect x="2534.0" y="74.0" width="12.0" height="3" fill="#80c9ff" stroke="#0b6cba" /><rect x="2547.0" y="74.0" width="12.0" height="3" fill="#fff874" stroke="#eb9c26" /><rect x="2521.0" y="147.5" width="12.0" height="3" fill="#35df39" stroke="#03aa10" /><rect x="2534.0" y="147.5" width="12.0" height="3" fill="#80c9ff" stroke="#0b6cba" /><rect x="2534.0" y="184.5" width="12.0" height="3" fill="#80c9ff" stroke="#0b6cba" /><rect x="2508.0" y="221.5" width="12.0" height="3" fill="#ff3c3c" stroke="#c71f1f" /><rect x="2534.0" y="258.5" width="12.0" height="3" fill="#80c9ff" stroke="#0b6cba" /><rect x="2508.0" y="295.0" width="12.0" height="3" fill="#ff3c3c" stroke="#c71f1f" /><rect x="2521.0" y="295.0" width="12.0" height="3" fill="#35df39" stroke="#03aa10" /><rect x="2521.0" y="315.0" width="12.0" height="3" fill="#35df39" stroke="#03aa10" /><rect x="2508.0" y="332.0" width="12.0" height="3" fill="#ff3c3c" stroke="#c71f1f" /><rect x="2560.0" y="369.0" width="12.0" height="3" fill="#ff83f4" stroke="#d002bc" /><rect x="2508" y="369.0" width="64" height="3" fill="#ff72e7" stroke="#7c7c7c" /><rect x="2521.0" y="406.0" width="12.0" height="3" fill="#35df39" stroke="#03aa10" /><rect x="2534.0" y="406.0" width="12.0" height="3" fill="#80c9ff" stroke="#0b6cba" /><rect x="2521.0" y="442.5" width="12.0" height="3" fill="#35df39" stroke="#03aa10" /><rect x="2547.0" y="442.5" width="12.0" height="3" fill="#fff874" stroke="#eb9c26" /><rect x="2560.0" y="516.5" width="12.0" height="3" fill="#ff83f4" stroke="#d002bc" /><rect x="2661.0" y="0.0" width="12.0" height="3" fill="#fff874" stroke="#eb9c26" /><rect x="2661.0" y="20.0" width="12.0" height="3" fill="#fff874" stroke="#eb9c26" /><rect x="2674.0" y="37.0" width="12.0" height="3" fill="#ff83f4" stroke="#d002bc" /><rect x="2661.0" y="57.0" width="12.0" height="3" fill="#fff874" stroke="#eb9c26" /><rect x="2648.0" y="94.0" width="12.0" height="3" fill="#80c9ff" stroke="#0b6cba" /><rect x="2622.0" y="111.0" width="12.0" height="3" fill="#ff3c3c" stroke="#c71f1f" /><rect x="2648.0" y="111.0" width="12.0" height="3" fill="#80c9ff" stroke="#0b6cba" /><rect x="2622.0" y="148.0" width="12.0" height="3" fill="#ff3c3c" stroke="#c71f1f" /><rect x="2635.0" y="148.0" width="12.0" height="3" fill="#35df39" stroke="#03aa10" /><rect x="2635.0" y="221.5" width="12.0" height="3" fill="#35df39" stroke="#03aa10" /><rect x="2648.0" y="221.5" width="12.0" height="3" fill="#80c9ff" stroke="#0b6cba" /><rect x="2648.0" y="278.5" width="12.0" height="3" fill="#80c9ff" stroke="#0b6cba" /><rect x="2661.0" y="278.5" width="12.0" height="3" fill="#fff874" stroke="#eb9c26" /><rect x="2648.0" y="315.5" width="12.0" height="3" fill="#80c9ff" stroke="#0b6cba" /><rect x="2661.0" y="332.0" width="12.0" height="3" fill="#fff874" stroke="#eb9c26" /><rect x="2674.0" y="352.0" width="12.0" height="3" fill="#ff83f4" stroke="#d002bc" /><rect x="2661.0" y="369.0" width="12.0" height="3" fill="#fff874" stroke="#eb9c26" /><rect x="2648.0" y="389.0" width="12.0" height="3" fill="#80c9ff" stroke="#0b6cba" /><rect x="2635.0" y="406.0" width="12.0" height="3" fill="#35df39" stroke="#03aa10" /><rect x="2661.0" y="406.0" width="12.0" height="3" fill="#fff874" stroke="#eb9c26" /><rect x="2648.0" y="443.0" width="12.0" height="3" fill="#80c9ff" stroke="#0b6cba" /><rect x="2674.0" y="443.0" width="12.0" height="3" fill="#ff83f4" stroke="#d002bc" /><rect x="2648.0" y="479.5" width="12.0" height="3" fill="#80c9ff" stroke="#0b6cba" /><rect x="2674.0" y="479.5" width="12.0" height="3" fill="#ff83f4" stroke="#d002bc" /><rect x="2648.0" y="516.5" width="12.0" height="3" fill="#80c9ff" stroke="#0b6cba" /><rect x="2661.0" y="516.5" width="12.0" height="3" fill="#fff874" stroke="#eb9c26" /><rect x="2648.0" y="536.5" width="12.0" height="3" fill="#80c9ff" stroke="#0b6cba" /><rect x="2661.0" y="536.5" width="12.0" height="3" fill="#fff874" stroke="#eb9c26" /><rect x="2661.0" y="573.5" width="12.0" height="3" fill="#fff874" stroke="#eb9c26" /><rect x="2674.0" y="573.5" width="12.0" height="3" fill="#ff83f4" stroke="#d002bc" /><rect x="2749.0" y="73.5" width="12.0" height="3" fill="#35df39" stroke="#03aa10" /><rect x="2762.0" y="73.5" width="12.0" height="3" fill="#80c9ff" stroke="#0b6cba" /><rect x="2775.0" y="73.5" width="12.0" height="3" fill="#fff874" stroke="#eb9c26" /><rect x="2749.0" y="147.5" width="12.0" height="3" fill="#35df39" stroke="#03aa10" /><rect x="2762.0" y="147.5" width="12.0" height="3" fill="#80c9ff" stroke="#0b6cba" /><rect x="2762.0" y="184.5" width="12.0" height="3" fill="#80c9ff" stroke="#0b6cba" /><rect x="2736.0" y="221.0" width="12.0" height="3" fill="#ff3c3c" stroke="#c71f1f" /><rect x="2762.0" y="258.0" width="12.0" height="3" fill="#80c9ff" stroke="#0b6cba" /><rect x="2736.0" y="295.0" width="12.0" height="3" fill="#ff3c3c" stroke="#c71f1f" /><rect x="2749.0" y="295.0" width="12.0" height="3" fill="#35df39" stroke="#03aa10" /><rect x="2749.0" y="315.0" width="12.0" height="3" fill="#35df39" stroke="#03aa10" /><rect x="2736.0" y="332.0" width="12.0" height="3" fill="#ff3c3c" stroke="#c71f1f" /><rect x="2788.0" y="368.5" width="12.0" height="3" fill="#ff83f4" stroke="#d002bc" /><rect x="2736" y="368.5" width="64" height="3" fill="#ff72e7" stroke="#7c7c7c" /><rect x="2749.0" y="405.5" width="12.0" height="3" fill="#35df39" stroke="#03aa10" /><rect x="2762.0" y="405.5" width="12.0" height="3" fill="#80c9ff" stroke="#0b6cba" /><rect x="2775.0" y="442.5" width="12.0" height="3" fill="#fff874" stroke="#eb9c26" /><rect x="2762.0" y="462.5" width="12.0" height="3" fill="#80c9ff" stroke="#0b6cba" /><rect x="2749.0" y="479.5" width="12.0" height="3" fill="#35df39" stroke="#03aa10" /><rect x="2736.0" y="499.5" width="12.0" height="3" fill="#ff3c3c" stroke="#c71f1f" /><rect x="2749.0" y="499.5" width="12.0" height="3" fill="#35df39" stroke="#03aa10" /><rect x="2749.0" y="536.5" width="12.0" height="3" fill="#35df39" stroke="#03aa10" /><rect x="2762.0" y="553.0" width="12.0" height="3" fill="#80c9ff" stroke="#0b6cba" /><rect x="2749.0" y="573.0" width="12.0" height="3" fill="#35df39" stroke="#03aa10" /><rect x="2775.0" y="573.0" width="12.0" height="3" fill="#fff874" stroke="#eb9c26" /><rect x="2850.0" y="147.5" width="12.0" height="3" fill="#ff3c3c" stroke="#c71f1f" /><rect x="2863.0" y="147.5" width="12.0" height="3" fill="#35df39" stroke="#03aa10" /><rect x="2850.0" y="184.5" width="12.0" height="3" fill="#ff3c3c" stroke="#c71f1f" /><rect x="2863.0" y="184.5" width="12.0" height="3" fill="#35df39" stroke="#03aa10" /><rect x="2876.0" y="221.5" width="12.0" height="3" fill="#80c9ff" stroke="#0b6cba" /><rect x="2850.0" y="258.5" width="12.0" height="3" fill="#ff3c3c" stroke="#c71f1f" /><rect x="2863.0" y="258.5" width="12.0" height="3" fill="#35df39" stroke="#03aa10" /><rect x="2863.0" y="295.0" width="12.0" height="3" fill="#35df39" stroke="#03aa10" /><rect x="2876.0" y="295.0" width="12.0" height="3" fill="#80c9ff" stroke="#0b6cba" /><rect x="2876.0" y="332.0" width="12.0" height="3" fill="#80c9ff" stroke="#0b6cba" /><rect x="2889.0" y="369.0" width="12.0" height="3" fill="#fff874" stroke="#eb9c26" /><rect x="2902.0" y="406.0" width="12.0" height="3" fill="#ff83f4" stroke="#d002bc" /><rect x="2876.0" y="442.5" width="12.0" height="3" fill="#80c9ff" stroke="#0b6cba" /><rect x="2889.0" y="479.5" width="12.0" height="3" fill="#fff874" stroke="#eb9c26" /><rect x="2902.0" y="499.5" width="12.0" height="3" fill="#ff83f4" stroke="#d002bc" /><rect x="2889.0" y="536.5" width="12.0" height="3" fill="#fff874" stroke="#eb9c26" /><rect x="2902.0" y="536.5" width="12.0" height="3" fill="#ff83f4" stroke="#d002bc" /><rect x="2876.0" y="573.5" width="12.0" height="3" fill="#80c9ff" stroke="#0b6cba" /><rect x="2889.0" y="573.5" width="12.0" height="3" fill="#fff874" stroke="#eb9c26" /><rect x="3003.0" y="20.0" width="12.0" height="3" fill="#fff874" stroke="#eb9c26" /><rect x="2990.0" y="37.0" width="12.0" height="3" fill="#80c9ff" stroke="#0b6cba" /><rect x="2977.0" y="74.0" width="12.0" height="3" fill="#35df39" stroke="#03aa10" /><rect x="2964.0" y="111.0" width="12.0" height="3" fill="#ff3c3c" stroke="#c71f1f" /><rect x="2964.0" y="148.0" width="12.0" height="3" fill="#ff3c3c" stroke="#c71f1f" /><rect x="2990.0" y="148.0" width="12.0" height="3" fill="#80c9ff" stroke="#0b6cba" /><rect x="2964.0" y="184.5" width="12.0" height="3" fill="#ff3c3c" stroke="#c71f1f" /><rect x="2990.0" y="184.5" width="12.0" height="3" fill="#80c9ff" stroke="#0b6cba" /><rect x="2977.0" y="221.5" width="12.0" height="3" fill="#35df39" stroke="#03aa10" /><rect x="2964.0" y="258.5" width="12.0" height="3" fill="#ff3c3c" stroke="#c71f1f" /><rect x="2977.0" y="258.5" width="12.0" height="3" fill="#35df39" stroke="#03aa10" /><rect x="2964.0" y="295.5" width="12.0" height="3" fill="#ff3c3c" stroke="#c71f1f" /><rect x="2990.0" y="332.0" width="12.0" height="3" fill="#80c9ff" stroke="#0b6cba" /><rect x="2964.0" y="352.0" width="12.0" height="3" fill="#ff3c3c" stroke="#c71f1f" /><rect x="2977.0" y="352.0" width="12.0" height="3" fill="#35df39" stroke="#03aa10" /><rect x="2990.0" y="389.0" width="12.0" height="3" fill="#80c9ff" stroke="#0b6cba" /><rect x="2977.0" y="406.0" width="12.0" height="3" fill="#35df39" stroke="#03aa10" /><rect x="2990.0" y="426.0" width="12.0" height="3" fill="#80c9ff" stroke="#0b6cba" /><rect x="2977.0" y="443.0" width="12.0" height="3" fill="#35df39" stroke="#03aa10" /><rect x="3003.0" y="443.0" width="12.0" height="3" fill="#fff874" stroke="#eb9c26" /><rect x="3091.0" y="0.0" width="12.0" height="3" fill="#35df39" stroke="#03aa10" /><rect x="3104.0" y="0.0" width="12.0" height="3" fill="#80c9ff" stroke="#0b6cba" /><rect x="3117.0" y="0.0" width="12.0" height="3" fill="#fff874" stroke="#eb9c26" /><rect x="3091.0" y="56.5" width="12.0" height="355.5" fill="#35df39" stroke="#03aa10" /><rect x="3104.0" y="56.5" width="12.0" height="355.5" fill="#80c9ff" stroke="#0b6cba" /><rect x="3117.0" y="56.5" width="12.0" height="355.5" fill="#fff874" stroke="#eb9c26" /><rect x="3078.0" y="451.5" width="12.0" height="3" fill="#ff3c3c" stroke="#c71f1f" /></svg>