<?xml version="1.0" encoding="UTF-8"?><svg xmlns="http://www.w3.org/2000/svg" xmlns:xlink="http://www.w3.org/1999/xlink"     width="1824" height="1364.0" viewBox="0 0 1824 1364.0"><defs></defs><rect x="0" y="0" width="64" height="1012.5" fill="black" /><rect x="0" y="0.0" width="64" height="1" fill="white" fill-opacity="0.5" /><text x="74" y="14.0" font-size="14" fill="white" font-family="monospace" dominant-baseline="ideographic">1</text><rect x="0" y="37.5" width="64" height="1" fill="white" fill-opacity="0.2" /><rect x="0" y="75.0" width="64" height="1" fill="white" fill-opacity="0.2" /><rect x="0" y="112.5" width="64" height="1" fill="white" fill-opacity="0.2" /><rect x="0" y="150.0" width="64" height="1" fill="white" fill-opacity="0.2" /><rect x="0" y="187.5" width="64" height="1" fill="white" fill-opacity="0.2" /><rect x="0" y="225.0" width="64" height="1" fill="white" fill-opacity="0.5" /><text x="74" y="239.0" font-size="14" fill="white" font-family="monospace" dominant-baseline="ideographic">2</text><rect x="0" y="262.5" width="64" height="1" fill="white" fill-opacity="0.2" /><rect x="0" y="300.0" width="64" height="1" fill="white" fill-opacity="0.2" /><rect x="0" y="337.5" width="64" height="1" fill="white" fill-opacity="0.2" /><rect x="0" y="375.0" width="64" height="1" fill="white" fill-opacity="0.2" /><rect x="0" y="412.5" width="64" height="1" fill="white" fill-opacity="0.2" /><rect x="0" y="450.0" width="64" height="1" fill="white" fill-opacity="0.5" /><text x="74" y="464.0" font-size="14" fill="white" font-family="monospace" dominant-baseline="ideographic">3</text><rect x="0" y="487.5" width="64" height="1" fill="white" fill-opacity="0.2" /><rect x="0" y="525.0" width="64" height="1" fill="white" fill-opacity="0.2" /><rect x="0" y="562.5" width="64" height="1" fill="white" fill-opacity="0.2" /><rect x="0" y="600.0" width="64" height="1" fill="white" fill-opacity="0.2" /><rect x="0" y="637.5" width="64" height="1" fill="white" fill-opacity="0.2" /><rect x="0" y="675.0" width="64" height="1" fill="white" fill-opacity="0.5" /><text x="74" y="689.0" font-size="14" fill="white" font-family="monospace" dominant-baseline="ideographic">4</text><rect x="0" y="712.5" width="64" height="1" fill="white" fill-opacity="0.2" /><rect x="0" y="750.0" width="64" height="1" fill="white" fill-opacity="0.2" /><rect x="0" y="787.5" width="64" height="1" fill="white" fill-opacity="0.2" /><rect x="0" y="825.0" width="64" height="1" fill="white" fill-opacity="0.2" /><rect x="0" y="862.5" width="64" height="1" fill="white" fill-opacity="0.2" /><rect x="0" y="900.0" width="64" height="1" fill="white" fill-opacity="0.2" /><rect x="0" y="937.5" width="64" height="1" fill="white" fill-opacity="0.2" /><rect x="0" y="975.0" width="64" height="1" fill="white" fill-opacity="0.2" /><rect x="0" y="1012.5" width="64" height="1" fill="white" fill-opacity="0.5" /><text x="74" y="1026.5" font-size="14" fill="white" font-family="monospace" dominant-baseline="ideographic">5</text><rect x="0" y="0.0" width="64" height="1" fill="aqua" fill-opacity="0.75" /><text x="0" y="14.0" font-size="14" fill="aqua" fill-opacity="0.75" font-family="monospace">Intro</text><rect x="0" y="0.0" width="64" height="1" fill="lime" fill-opacity="0.75" /><text x="74" y="28.0" font-size="14" fill="lime" font-family="monospace" dominant-baseline="ideographic">120</text><rect x="114" y="0" width="64" height="1012.5" fill="black" /><rect x="114" y="0.0" width="64" height="1" fill="white" fill-opacity="0.5" /><text x="188" y="14.0" font-size="14" fill="white" font-family="monospace" dominant-baseline="ideographic">5</text><rect x="114" y="37.5" width="64" height="1" fill="white" fill-opacity="0.2" /><rect x="114" y="75.0" width="64" height="1" fill="white" fill-opacity="0.2" /><rect x="114" y="112.5" width="64" height="1" fill="white" fill-opacity="0.2" /><rect x="114" y="150.0" width="64" height="1" fill="white" fill-opacity="0.2" /><rect x="114" y="187.5" width="64" height="1" fill="white" fill-opacity="0.2" /><rect x="114" y="225.0" width="64" height="1" fill="white" fill-opacity="0.2" /><rect x="114" y="262.5" width="64" height="1" fill="white" fill-opacity="0.2" /><rect x="114" y="300.0" width="64" height="1" fill="white" fill-opacity="0.2" /><rect x="114" y="337.5" width="64" height="1" fill="white" fill-opacity="0.5" /><text x="188" y="351.5" font-size="14" fill="white" font-family="monospace" dominant-baseline="ideographic">6</text><rect x="114" y="375.0" width="64" height="1" fill="white" fill-opacity="0.2" /><rect x="114" y="412.5" width="64" height="1" fill="white" fill-opacity="0.2" /><rect x="114" y="450.0" width="64" height="1" fill="white" fill-opacity="0.2" /><rect x="114" y="487.5" width="64" height="1" fill="white" fill-opacity="0.2" /><rect x="114" y="525.0" width="64" height="1" fill="white" fill-opacity="0.2" /><rect x="114" y="562.5" width="64" height="1" fill="white" fill-opacity="0.5" /><text x="188" y="576.5" font-size="14" fill="white" font-family="monospace" dominant-baseline="ideographic">7</text><rect x="114" y="600.0" width="64" height="1" fill="white" fill-opacity="0.2" /><rect x="114" y="637.5" width="64" height="1" fill="white" fill-opacity="0.2" /><rect x="114" y="675.0" width="64" height="1" fill="white" fill-opacity="0.2" /><rect x="114" y="712.5" width="64" height="1" fill="white" fill-opacity="0.2" /><rect x="114" y="750.0" width="64" height="1" fill="white" fill-opacity="0.2" /><rect x="114" y="787.5" width="64" height="1" fill="white" fill-opacity="0.5" /><text x="188" y="801.5" font-size="14" fill="white" font-family="monospace" dominant-baseline="ideographic">8</text><rect x="114" y="825.0" width="64" height="1" fill="white" fill-opacity="0.2" /><rect x="114" y="862.5" width="64" height="1" fill="white" fill-opacity="0.2" /><rect x="114" y="900.0" width="64" height="1" fill="white" fill-opacity="0.2" /><rect x="114" y="937.5" width="64" height="1" fill="white" fill-opacity="0.2" /><rect x="114" y="975.0" width="64" height="1" fill="white" fill-opacity="0.2" /><rect x="114" y="1012.5" width="64" height="1" fill="white" fill-opacity="0.5" /><text x="188" y="1026.5" font-size="14" fill="white" font-family="monospace" dominant-baseline="ideographic">9</text><rect x="114" y="787.5" width="64" height="1" fill="aqua" fill-opacity="0.75" /><text x="114" y="801.5" font-size="14" fill="aqua" fill-opacity="0.75" font-family="monospace">Phrase A</text><rect x="228" y="0" width="64" height="900.0" fill="black" /><rect x="228" y="0.0" width="64" height="1" fill="white" fill-opacity="0.5" /><text x="302" y="14.0" font-size="14" fill="white" font-family="monospace" dominant-baseline="ideographic">9</text><rect x="228" y="37.5" width="64" height="1" fill="white" fill-opacity="0.2" /><rect x="228" y="75.0" width="64" height="1" fill="white" fill-opacity="0.2" /><rect x="228" y="112.5" width="64" height="1" fill="white" fill-opacity="0.2" /><rect x="228" y="150.0" width="64" height="1" fill="white" fill-opacity="0.2" /><rect x="228" y="187.5" width="64" height="1" fill="white" fill-opacity="0.2" /><rect x="228" y="225.0" width="64" height="1" fill="white" fill-opacity="0.5" /><text x="302" y="239.0" font-size="14" fill="white" font-family="monospace" dominant-baseline="ideographic">10</text><rect x="228" y="262.5" width="64" height="1" fill="white" fill-opacity="0.2" /><rect x="228" y="300.0" width="64" height="1" fill="white" fill-opacity="0.2" /><rect x="228" y="337.5" width="64" height="1" fill="white" fill-opacity="0.2" /><rect x="228" y="375.0" width="64" height="1" fill="white" fill-opacity="0.2" /><rect x="228" y="412.5" width="64" height="1" fill="white" fill-opacity="0.2" /><rect x="228" y="450.0" width="64" height="1" fill="white" fill-opacity="0.5" /><text x="302" y="464.0" font-size="14" fill="white" font-family="monospace" dominant-baseline="ideographic">11</text><rect x="228" y="487.5" width="64" height="1" fill="white" fill-opacity="0.2" /><rect x="228" y="525.0" width="64" height="1" fill="white" fill-opacity="0.2" /><rect x="228" y="562.5" width="64" height="1" fill="white" fill-opacity="0.2" /><rect x="228" y="600.0" width="64" height="1" fill="white" fill-opacity="0.2" /><rect x="228" y="637.5" width="64" height="1" fill="white" fill-opacity="0.2" /><rect x="228" y="675.0" width="64" height="1" fill="white" fill-opacity="0.5" /><text x="302" y="689.0" font-size="14" fill="white" font-family="monospace" dominant-baseline="ideographic">12</text><rect x="228" y="712.5" width="64" height="1" fill="white" fill-opacity="0.2" /><rect x="228" y="750.0" width="64" height="1" fill="white" fill-opacity="0.2" /><rect x="228" y="787.5" width="64" height="1" fill="white" fill-opacity="0.2" /><rect x="228" y="825.0" width="64" height="1" fill="white" fill-opacity="0.2" /><rect x="228" y="862.5" width="64" height="1" fill="white" fill-opacity="0.2" /><rect x="228" y="900.0" width="64" height="1" fill="white" fill-opacity="0.5" /><text x="302" y="914.0" font-size="14" fill="white" font-family="monospace" dominant-baseline="ideographic">13</text><rect x="342" y="0" width="64" height="900.0" fill="black" /><rect x="342" y="0.0" width="64" height="1" fill="white" fill-opacity="0.5" /><text x="416" y="14.0" font-size="14" fill="white" font-family="monospace" dominant-baseline="ideographic">13</text><rect x="342" y="37.5" width="64" height="1" fill="white" fill-opacity="0.2" /><rect x="342" y="75.0" width="64" height="1" fill="white" fill-opacity="0.2" /><rect x="342" y="112.5" width="64" height="1" fill="white" fill-opacity="0.2" /><rect x="342" y="150.0" width="64" height="1" fill="white" fill-opacity="0.2" /><rect x="342" y="187.5" width="64" height="1" fill="white" fill-opacity="0.2" /><rect x="342" y="225.0" width="64" height="1" fill="white" fill-opacity="0.5" /><text x="416" y="239.0" font-size="14" fill="white" font-family="monospace" dominant-baseline="ideographic">14</text><rect x="342" y="262.5" width="64" height="1" fill="white" fill-opacity="0.2" /><rect x="342" y="300.0" width="64" height="1" fill="white" fill-opacity="0.2" /><rect x="342" y="337.5" width="64" height="1" fill="white" fill-opacity="0.2" /><rect x="342" y="375.0" width="64" height="1" fill="white" fill-opacity="0.2" /><rect x="342" y="412.5" width="64" height="1" fill="white" fill-opacity="0.2" /><rect x="342" y="450.0" width="64" height="1" fill="white" fill-opacity="0.5" /><text x="416" y="464.0" font-size="14" fill="white" font-family="monospace" dominant-baseline="ideographic">15</text><rect x="342" y="487.5" width="64" height="1" fill="white" fill-opacity="0.2" /><rect x="342" y="525.0" width="64" height="1" fill="white" fill-opacity="0.2" /><rect x="342" y="562.5" width="64" height="1" fill="white" fill-opacity="0.2" /><rect x="342" y="600.0" width="64" height="1" fill="white" fill-opacity="0.2" /><rect x="342" y="637.5" width="64" height="1" fill="white" fill-opacity="0.2" /><rect x="342" y="675.0" width="64" height="1" fill="white" fill-opacity="0.5" /><text x="416" y="689.0" font-size="14" fill="white" font-family="monospace" dominant-baseline="ideographic">16</text><rect x="342" y="712.5" width="64" height="1" fill="white" fill-opacity="0.2" /><rect x="342" y="750.0" width="64" height="1" fill="white" fill-opacity="0.2" /><rect x="342" y="787.5" width="64" height="1" fill="white" fill-opacity="0.2" /><rect x="342" y="825.0" width="64" height="1" fill="white" fill-opacity="0.2" /><rect x="342" y="862.5" width="64" height="1" fill="white" fill-opacity="0.2" /><rect x="342" y="900.0" width="64" height="1" fill="white" fill-opacity="0.5" /><text x="416" y="914.0" font-size="14" fill="white" font-family="monospace" dominant-baseline="ideographic">17</text><rect x="342" y="675.0" width="64" height="1" fill="aqua" fill-opacity="0.75" /><text x="342" y="689.0" font-size="14" fill="aqua" fill-opacity="0.75" font-family="monospace">Phrase A</text><rect x="456" y="0" width="64" height="900.0" fill="black" /><rect x="456" y="0.0" width="64" height="1" fill="white" fill-opacity="0.5" /><text x="530" y="14.0" font-size="14" fill="white" font-family="monospace" dominant-baseline="ideographic">17</text><rect x="456" y="37.5" width="64" height="1" fill="white" fill-opacity="0.2" /><rect x="456" y="75.0" width="64" height="1" fill="white" fill-opacity="0.2" /><rect x="456" y="112.5" width="64" height="1" fill="white" fill-opacity="0.2" /><rect x="456" y="150.0" width="64" height="1" fill="white" fill-opacity="0.2" /><rect x="456" y="187.5" width="64" height="1" fill="white" fill-opacity="0.2" /><rect x="456" y="225.0" width="64" height="1" fill="white" fill-opacity="0.5" /><text x="530" y="239.0" font-size="14" fill="white" font-family="monospace" dominant-baseline="ideographic">18</text><rect x="456" y="262.5" width="64" height="1" fill="white" fill-opacity="0.2" /><rect x="456" y="300.0" width="64" height="1" fill="white" fill-opacity="0.2" /><rect x="456" y="337.5" width="64" height="1" fill="white" fill-opacity="0.2" /><rect x="456" y="375.0" width="64" height="1" fill="white" fill-opacity="0.2" /><rect x="456" y="412.5" width="64" height="1" fill="white" fill-opacity="0.2" /><rect x="456" y="450.0" width="64" height="1" fill="white" fill-opacity="0.5" /><text x="530" y="464.0" font-size="14" fill="white" font-family="monospace" dominant-baseline="ideographic">19</text><rect x="456" y="487.5" width="64" height="1" fill="white" fill-opacity="0.2" /><rect x="456" y="525.0" width="64" height="1" fill="white" fill-opacity="0.2" /><rect x="456" y="562.5" width="64" height="1" fill="white" fill-opacity="0.2" /><rect x="456" y="600.0" width="64" height="1" fill="white" fill-opacity="0.2" /><rect x="456" y="637.5" width="64" height="1" fill="white" fill-opacity="0.2" /><rect x="456" y="675.0" width="64" height="1" fill="white" fill-opacity="0.5" /><text x="530" y="689.0" font-size="14" fill="white" font-family="monospace" dominant-baseline="ideographic">20</text><rect x="456" y="712.5" width="64" height="1" fill="white" fill-opacity="0.2" /><rect x="456" y="750.0" width="64" height="1" fill="white" fill-opacity="0.2" /><rect x="456" y="787.5" width="64" height="1" fill="white" fill-opacity="0.2" /><rect x="456" y="825.0" width="64" height="1" fill="white" fill-opacity="0.2" /><rect x="456" y="862.5" width="64" height="1" fill="white" fill-opacity="0.2" /><rect x="456" y="900.0" width="64" height="1" fill="white" fill-opacity="0.5" /><text x="530" y="914.0" font-size="14" fill="white" font-family="monospace" dominant-baseline="ideographic">21</text><rect x="570" y="0" width="64" height="900.0" fill="black" /><rect x="570" y="0.0" width="64" height="1" fill="white" fill-opacity="0.5" /><text x="644" y="14.0" font-size="14" fill="white" font-family="monospace" dominant-baseline="ideographic">21</text><rect x="570" y="37.5" width="64" height="1" fill="white" fill-opacity="0.2" /><rect x="570" y="75.0" width="64" height="1" fill="white" fill-opacity="0.2" /><rect x="570" y="112.5" width="64" height="1" fill="white" fill-opacity="0.2" /><rect x="570" y="150.0" width="64" height="1" fill="white" fill-opacity="0.2" /><rect x="570" y="187.5" width="64" height="1" fill="white" fill-opacity="0.2" /><rect x="570" y="225.0" width="64" height="1" fill="white" fill-opacity="0.5" /><text x="644" y="239.0" font-size="14" fill="white" font-family="monospace" dominant-baseline="ideographic">22</text><rect x="570" y="262.5" width="64" height="1" fill="white" fill-opacity="0.2" /><rect x="570" y="300.0" width="64" height="1" fill="white" fill-opacity="0.2" /><rect x="570" y="337.5" width="64" height="1" fill="white" fill-opacity="0.2" /><rect x="570" y="375.0" width="64" height="1" fill="white" fill-opacity="0.2" /><rect x="570" y="412.5" width="64" height="1" fill="white" fill-opacity="0.2" /><rect x="570" y="450.0" width="64" height="1" fill="white" fill-opacity="0.5" /><text x="644" y="464.0" font-size="14" fill="white" font-family="monospace" dominant-baseline="ideographic">23</text><rect x="570" y="487.5" width="64" height="1" fill="white" fill-opacity="0.2" /><rect x="570" y="525.0" width="64" height="1" fill="white" fill-opacity="0.2" /><rect x="570" y="562.5" width="64" height="1" fill="white" fill-opacity="0.2" /><rect x="570" y="600.0" width="64" height="1" fill="white" fill-opacity="0.2" /><rect x="570" y="637.5" width="64" height="1" fill="white" fill-opacity="0.2" /><rect x="570" y="675.0" width="64" height="1" fill="white" fill-opacity="0.5" /><text x="644" y="689.0" font-size="14" fill="white" font-family="monospace" dominant-baseline="ideographic">24</text><rect x="570" y="712.5" width="64" height="1" fill="white" fill-opacity="0.2" /><rect x="570" y="750.0" width="64" height="1" fill="white" fill-opacity="0.2" /><rect x="570" y="787.5" width="64" height="1" fill="white" fill-opacity="0.2" /><rect x="570" y="825.0" width="64" height="1" fill="white" fill-opacity="0.2" /><rect x="570" y="862.5" width="64" height="1" fill="white" fill-opacity="0.2" /><rect x="570" y="900.0" width="64" height="1" fill="white" fill-opacity="0.5" /><text x="644" y="914.0" font-size="14" fill="white" font-family="monospace" dominant-baseline="ideographic">25</text><rect x="570" y="675.0" width="64" height="1" fill="aqua" fill-opacity="0.75" /><text x="570" y="689.0" font-size="14" fill="aqua" fill-opacity="0.75" font-family="monospace">Intro</text><rect x="684" y="0" width="64" height="1012.5" fill="black" /><rect x="684" y="0.0" width="64" height="1" fill="white" fill-opacity="0.5" /><text x="758" y="14.0" font-size="14" fill="white" font-family="monospace" dominant-baseline="ideographic">25</text><rect x="684" y="37.5" width="64" height="1" fill="white" fill-opacity="0.2" /><rect x="684" y="75.0" width="64" height="1" fill="white" fill-opacity="0.2" /><rect x="684" y="112.5" width="64" height="1" fill="white" fill-opacity="0.2" /><rect x="684" y="150.0" width="64" height="1" fill="white" fill-opacity="0.2" /><rect x="684" y="187.5" width="64" height="1" fill="white" fill-opacity="0.2" /><rect x="684" y="225.0" width="64" height="1" fill="white" fill-opacity="0.5" /><text x="758" y="239.0" font-size="14" fill="white" font-family="monospace" dominant-baseline="ideographic">26</text><rect x="684" y="262.5" width="64" height="1" fill="white" fill-opacity="0.2" /><rect x="684" y="300.0" width="64" height="1" fill="white" fill-opacity="0.2" /><rect x="684" y="337.5" width="64" height="1" fill="white" fill-opacity="0.2" /><rect x="684" y="375.0" width="64" height="1" fill="white" fill-opacity="0.2" /><rect x="684" y="412.5" width="64" height="1" fill="white" fill-opacity="0.2" /><rect x="684" y="450.0" width="64" height="1" fill="white" fill-opacity="0.5" /><text x="758" y="464.0" font-size="14" fill="white" font-family="monospace" dominant-baseline="ideographic">27</text><rect x="684" y="487.5" width="64" height="1" fill="white" fill-opacity="0.2" /><rect x="684" y="525.0" width="64" height="1" fill="white" fill-opacity="0.2" /><rect x="684" y="562.5" width="64" height="1" fill="white" fill-opacity="0.2" /><rect x="684" y="600.0" width="64" height="1" fill="white" fill-opacity="0.2" /><rect x="684" y="637.5" width="64" height="1" fill="white" fill-opacity="0.2" /><rect x="684" y="675.0" width="64" height="1" fill="white" fill-opacity="0.5" /><text x="758" y="689.0" font-size="14" fill="white" font-family="monospace" dominant-baseline="ideographic">28</text><rect x="684" y="712.5" width="64" height="1" fill="white" fill-opacity="0.2" /><rect x="684" y="750.0" width="64" height="1" fill="white" fill-opacity="0.2" /><rect x="684" y="787.5" width="64" height="1" fill="white" fill-opacity="0.2" /><rect x="684" y="825.0" width="64" height="1" fill="white" fill-opacity="0.2" /><rect x="684" y="862.5" width="64" height="1" fill="white" fill-opacity="0.2" /><rect x="684" y="900.0" width="64" height="1" fill="white" fill-opacity="0.2" /><rect x="684" y="937.5" width="64" height="1" fill="white" fill-opacity="0.2" /><rect x="684" y="975.0" width="64" height="1" fill="white" fill-opacity="0.2" /><rect x="684" y="1012.5" width="64" height="1" fill="white" fill-opacity="0.5" /><text x="758" y="1026.5" font-size="14" fill="white" font-family="monospace" dominant-baseline="ideographic">29</text><rect x="684" y="675.0" width="64" height="1" fill="aqua" fill-opacity="0.75" /><text x="684" y="689.0" font-size="14" fill="aqua" fill-opacity="0.75" font-family="monospace">Special</text><rect x="798" y="0" width="64" height="1350.0" fill="black" /><rect x="798" y="0.0" width="64" height="1" fill="white" fill-opacity="0.5" /><text x="872" y="14.0" font-size="14" fill="white" font-family="monospace" dominant-baseline="ideographic">29</text><rect x="798" y="37.5" width="64" height="1" fill="white" fill-opacity="0.2" /><rect x="798" y="75.0" width="64" height="1" fill="white" fill-opacity="0.2" /><rect x="798" y="112.5" width="64" height="1" fill="white" fill-opacity="0.2" /><rect x="798" y="150.0" width="64" height="1" fill="white" fill-opacity="0.2" /><rect x="798" y="187.5" width="64" height="1" fill="white" fill-opacity="0.2" /><rect x="798" y="225.0" width="64" height="1" fill="white" fill-opacity="0.2" /><rect x="798" y="262.5" width="64" height="1" fill="white" fill-opacity="0.2" /><rect x="798" y="300.0" width="64" height="1" fill="white" fill-opacity="0.2" /><rect x="798" y="337.5" width="64" height="1" fill="white" fill-opacity="0.5" /><text x="872" y="351.5" font-size="14" fill="white" font-family="monospace" dominant-baseline="ideographic">30</text><rect x="798" y="375.0" width="64" height="1" fill="white" fill-opacity="0.2" /><rect x="798" y="412.5" width="64" height="1" fill="white" fill-opacity="0.2" /><rect x="798" y="450.0" width="64" height="1" fill="white" fill-opacity="0.2" /><rect x="798" y="487.5" width="64" height="1" fill="white" fill-opacity="0.2" /><rect x="798" y="525.0" width="64" height="1" fill="white" fill-opacity="0.2" /><rect x="798" y="562.5" width="64" height="1" fill="white" fill-opacity="0.2" /><rect x="798" y="600.0" width="64" height="1" fill="white" fill-opacity="0.2" /><rect x="798" y="637.5" width="64" height="1" fill="white" fill-opacity="0.2" /><rect x="798" y="675.0" width="64" height="1" fill="white" fill-opacity="0.5" /><text x="872" y="689.0" font-size="14" fill="white" font-family="monospace" dominant-baseline="ideographic">31</text><rect x="798" y="712.5" width="64" height="1" fill="white" fill-opacity="0.2" /><rect x="798" y="750.0" width="64" height="1" fill="white" fill-opacity="0.2" /><rect x="798" y="787.5" width="64" height="1" fill="white" fill-opacity="0.2" /><rect x="798" y="825.0" width="64" height="1" fill="white" fill-opacity="0.2" /><rect x="798" y="862.5" width="64" height="1" fill="white" fill-opacity="0.2" /><rect x="798" y="900.0" width="64" height="1" fill="white" fill-opacity="0.2" /><rect x="798" y="937.5" width="64" height="1" fill="white" fill-opacity="0.2" /><rect x="798" y="975.0" width="64" height="1" fill="white" fill-opacity="0.2" /><rect x="798" y="1012.5" width="64" height="1" fill="white" fill-opacity="0.5" /><text x="872" y="1026.5" font-size="14" fill="white" font-family="monospace" dominant-baseline="ideographic">32</text><rect x="798" y="1050.0" width="64" height="1" fill="white" fill-opacity="0.2" /><rect x="798" y="1087.5" width="64" height="1" fill="white" fill-opacity="0.2" /><rect x="798" y="1125.0" width="64" height="1" fill="white" fill-opacity="0.2" /><rect x="798" y="1162.5" width="64" height="1" fill="white" fill-opacity="0.2" /><rect x="798" y="1200.0" width="64" height="1" fill="white" fill-opacity="0.2" /><rect x="798" y="1237.5" width="64" height="1" fill="white" fill-opacity="0.2" /><rect x="798" y="1275.0" width="64" height="1" fill="white" fill-opacity="0.2" /><rect x="798" y="1312.5" width="64" height="1" fill="white" fill-opacity="0.2" /><rect x="798" y="1350.0" width="64" height="1" fill="white" fill-opacity="0.5" /><text x="872" y="1364.0" font-size="14" fill="white" font-family="monospace" dominant-baseline="ideographic">33</text><rect x="912" y="0" width="64" height="1087.5" fill="black" /><rect x="912" y="0.0" width="64" height="1" fill="white" fill-opacity="0.5" /><text x="986" y="14.0" font-size="14" fill="white" font-family="monospace" dominant-baseline="ideographic">33</text><rect x="912" y="37.5" width="64" height="1" fill="white" fill-opacity="0.2" /><rect x="912" y="75.0" width="64" height="1" fill="white" fill-opacity="0.2" /><rect x="912" y="112.5" width="64" height="1" fill="white" fill-opacity="0.2" /><rect x="912" y="150.0" width="64" height="1" fill="white" fill-opacity="0.2" /><rect x="912" y="187.5" width="64" height="1" fill="white" fill-opacity="0.2" /><rect x="912" y="225.0" width="64" height="1" fill="white" fill-opacity="0.2" /><rect x="912" y="262.5" width="64" height="1" fill="white" fill-opacity="0.2" /><rect x="912" y="300.0" width="64" height="1" fill="white" fill-opacity="0.2" /><rect x="912" y="337.5" width="64" height="1" fill="white" fill-opacity="0.5" /><text x="986" y="351.5" font-size="14" fill="white" font-family="monospace" dominant-baseline="ideographic">34</text><rect x="912" y="375.0" width="64" height="1" fill="white" fill-opacity="0.2" /><rect x="912" y="412.5" width="64" height="1" fill="white" fill-opacity="0.2" /><rect x="912" y="450.0" width="64" height="1" fill="white" fill-opacity="0.2" /><rect x="912" y="487.5" width="64" height="1" fill="white" fill-opacity="0.2" /><rect x="912" y="525.0" width="64" height="1" fill="white" fill-opacity="0.2" /><rect x="912" y="562.5" width="64" height="1" fill="white" fill-opacity="0.2" /><rect x="912" y="600.0" width="64" height="1" fill="white" fill-opacity="0.2" /><rect x="912" y="637.5" width="64" height="1" fill="white" fill-opacity="0.2" /><rect x="912" y="675.0" width="64" height="1" fill="white" fill-opacity="0.5" /><text x="986" y="689.0" font-size="14" fill="white" font-family="monospace" dominant-baseline="ideographic">35</text><rect x="912" y="750.0" width="64" height="1" fill="white" fill-opacity="0.2" /><rect x="912" y="825.0" width="64" height="1" fill="white" fill-opacity="0.2" /><rect x="912" y="900.0" width="64" height="1" fill="white" fill-opacity="0.2" /><rect x="912" y="975.0" width="64" height="1" fill="white" fill-opacity="0.5" /><text x="986" y="989.0" font-size="14" fill="white" font-family="monospace" dominant-baseline="ideographic">36</text><rect x="912" y="1012.5" width="64" height="1" fill="white" fill-opacity="0.2" /><rect x="912" y="1050.0" width="64" height="1" fill="white" fill-opacity="0.2" /><rect x="912" y="1087.5" width="64" height="1" fill="white" fill-opacity="0.5" /><text x="986" y="1101.5" font-size="14" fill="white" font-family="monospace" dominant-baseline="ideographic">37</text><rect x="912" y="675.0" width="64" height="1" fill="aqua" fill-opacity="0.75" /><text x="912" y="689.0" font-size="14" fill="aqua" fill-opacity="0.75" font-family="monospace">Solo</text><rect x="1026" y="0" width="64" height="825.0" fill="black" /><rect x="1026" y="0.0" width="64" height="1" fill="white" fill-opacity="0.5" /><text x="1100" y="14.0" font-size="14" fill="white" font-family="monospace" dominant-baseline="ideographic">37</text><rect x="1026" y="75.0" width="64" height="1" fill="white" fill-opacity="0.2" /><rect x="1026" y="150.0" width="64" height="1" fill="white" fill-opacity="0.2" /><rect x="1026" y="225.0" width="64" height="1" fill="white" fill-opacity="0.2" /><rect x="1026" y="300.0" width="64" height="1" fill="white" fill-opacity="0.5" /><text x="1100" y="314.0" font-size="14" fill="white" font-family="monospace" dominant-baseline="ideographic">38</text><rect x="1026" y="337.5" width="64" height="1" fill="white" fill-opacity="0.2" /><rect x="1026" y="375.0" width="64" height="1" fill="white" fill-opacity="0.2" /><rect x="1026" y="412.5" width="64" height="1" fill="white" fill-opacity="0.5" /><text x="1100" y="426.5" font-size="14" fill="white" font-family="monospace" dominant-baseline="ideographic">39</text><rect x="1026" y="487.5" width="64" height="1" fill="white" fill-opacity="0.2" /><rect x="1026" y="562.5" width="64" height="1" fill="white" fill-opacity="0.2" /><rect x="1026" y="637.5" width="64" height="1" fill="white" fill-opacity="0.2" /><rect x="1026" y="712.5" width="64" height="1" fill="white" fill-opacity="0.5" /><text x="1100" y="726.5" font-size="14" fill="white" font-family="monospace" dominant-baseline="ideographic">40</text><rect x="1026" y="750.0" width="64" height="1" fill="white" fill-opacity="0.2" /><rect x="1026" y="787.5" width="64" height="1" fill="white" fill-opacity="0.2" /><rect x="1026" y="825.0" width="64" height="1" fill="white" fill-opacity="0.5" /><text x="1100" y="839.0" font-size="14" fill="white" font-family="monospace" dominant-baseline="ideographic">41</text><rect x="1140" y="0" width="64" height="862.5" fill="black" /><rect x="1140" y="0.0" width="64" height="1" fill="white" fill-opacity="0.5" /><text x="1214" y="14.0" font-size="14" fill="white" font-family="monospace" dominant-baseline="ideographic">41</text><rect x="1140" y="75.0" width="64" height="1" fill="white" fill-opacity="0.2" /><rect x="1140" y="150.0" width="64" height="1" fill="white" fill-opacity="0.2" /><rect x="1140" y="225.0" width="64" height="1" fill="white" fill-opacity="0.2" /><rect x="1140" y="300.0" width="64" height="1" fill="white" fill-opacity="0.5" /><text x="1214" y="314.0" font-size="14" fill="white" font-family="monospace" dominant-baseline="ideographic">42</text><rect x="1140" y="337.5" width="64" height="1" fill="white" fill-opacity="0.2" /><rect x="1140" y="375.0" width="64" height="1" fill="white" fill-opacity="0.2" /><rect x="1140" y="412.5" width="64" height="1" fill="white" fill-opacity="0.5" /><text x="1214" y="426.5" font-size="14" fill="white" font-family="monospace" dominant-baseline="ideographic">43</text><rect x="1140" y="450.0" width="64" height="1" fill="white" fill-opacity="0.2" /><rect x="1140" y="487.5" width="64" height="1" fill="white" fill-opacity="0.2" /><rect x="1140" y="525.0" width="64" height="1" fill="white" fill-opacity="0.2" /><rect x="1140" y="562.5" width="64" height="1" fill="white" fill-opacity="0.2" /><rect x="1140" y="600.0" width="64" height="1" fill="white" fill-opacity="0.2" /><rect x="1140" y="637.5" width="64" height="1" fill="white" fill-opacity="0.5" /><text x="1214" y="651.5" font-size="14" fill="white" font-family="monospace" dominant-baseline="ideographic">44</text><rect x="1140" y="675.0" width="64" height="1" fill="white" fill-opacity="0.2" /><rect x="1140" y="712.5" width="64" height="1" fill="white" fill-opacity="0.2" /><rect x="1140" y="750.0" width="64" height="1" fill="white" fill-opacity="0.2" /><rect x="1140" y="787.5" width="64" height="1" fill="white" fill-opacity="0.2" /><rect x="1140" y="825.0" width="64" height="1" fill="white" fill-opacity="0.2" /><rect x="1140" y="862.5" width="64" height="1" fill="white" fill-opacity="0.5" /><text x="1214" y="876.5" font-size="14" fill="white" font-family="monospace" dominant-baseline="ideographic">45</text><rect x="1254" y="0" width="64" height="900.0" fill="black" /><rect x="1254" y="0.0" width="64" height="1" fill="white" fill-opacity="0.5" /><text x="1328" y="14.0" font-size="14" fill="white" font-family="monospace" dominant-baseline="ideographic">45</text><rect x="1254" y="37.5" width="64" height="1" fill="white" fill-opacity="0.2" /><rect x="1254" y="75.0" width="64" height="1" fill="white" fill-opacity="0.2" /><rect x="1254" y="112.5" width="64" height="1" fill="white" fill-opacity="0.2" /><rect x="1254" y="150.0" width="64" height="1" fill="white" fill-opacity="0.2" /><rect x="1254" y="187.5" width="64" height="1" fill="white" fill-opacity="0.2" /><rect x="1254" y="225.0" width="64" height="1" fill="white" fill-opacity="0.5" /><text x="1328" y="239.0" font-size="14" fill="white" font-family="monospace" dominant-baseline="ideographic">46</text><rect x="1254" y="262.5" width="64" height="1" fill="white" fill-opacity="0.2" /><rect x="1254" y="300.0" width="64" height="1" fill="white" fill-opacity="0.2" /><rect x="1254" y="337.5" width="64" height="1" fill="white" fill-opacity="0.2" /><rect x="1254" y="375.0" width="64" height="1" fill="white" fill-opacity="0.2" /><rect x="1254" y="412.5" width="64" height="1" fill="white" fill-opacity="0.2" /><rect x="1254" y="450.0" width="64" height="1" fill="white" fill-opacity="0.5" /><text x="1328" y="464.0" font-size="14" fill="white" font-family="monospace" dominant-baseline="ideographic">47</text><rect x="1254" y="487.5" width="64" height="1" fill="white" fill-opacity="0.2" /><rect x="1254" y="525.0" width="64" height="1" fill="white" fill-opacity="0.2" /><rect x="1254" y="562.5" width="64" height="1" fill="white" fill-opacity="0.2" /><rect x="1254" y="600.0" width="64" height="1" fill="white" fill-opacity="0.2" /><rect x="1254" y="637.5" width="64" height="1" fill="white" fill-opacity="0.2" /><rect x="1254" y="675.0" width="64" height="1" fill="white" fill-opacity="0.5" /><text x="1328" y="689.0" font-size="14" fill="white" font-family="monospace" dominant-baseline="ideographic">48</text><rect x="1254" y="712.5" width="64" height="1" fill="white" fill-opacity="0.2" /><rect x="1254" y="750.0" width="64" height="1" fill="white" fill-opacity="0.2" /><rect x="1254" y="787.5" width="64" height="1" fill="white" fill-opacity="0.2" /><rect x="1254" y="825.0" width="64" height="1" fill="white" fill-opacity="0.2" /><rect x="1254" y="862.5" width="64" height="1" fill="white" fill-opacity="0.2" /><rect x="1254" y="900.0" width="64" height="1" fill="white" fill-opacity="0.5" /><text x="1328" y="914.0" font-size="14" fill="white" font-family="monospace" dominant-baseline="ideographic">49</text><rect x="1254" y="225.0" width="64" height="1" fill="aqua" fill-opacity="0.75" /><text x="1254" y="239.0" font-size="14" fill="aqua" fill-opacity="0.75" font-family="monospace">Solo</text><rect x="1368" y="0" width="64" height="900.0" fill="black" /><rect x="1368" y="0.0" width="64" height="1" fill="white" fill-opacity="0.5" /><text x="1442" y="14.0" font-size="14" fill="white" font-family="monospace" dominant-baseline="ideographic">49</text><rect x="1368" y="37.5" width="64" height="1" fill="white" fill-opacity="0.2" /><rect x="1368" y="75.0" width="64" height="1" fill="white" fill-opacity="0.2" /><rect x="1368" y="112.5" width="64" height="1" fill="white" fill-opacity="0.2" /><rect x="1368" y="150.0" width="64" height="1" fill="white" fill-opacity="0.2" /><rect x="1368" y="187.5" width="64" height="1" fill="white" fill-opacity="0.2" /><rect x="1368" y="225.0" width="64" height="1" fill="white" fill-opacity="0.5" /><text x="1442" y="239.0" font-size="14" fill="white" font-family="monospace" dominant-baseline="ideographic">50</text><rect x="1368" y="262.5" width="64" height="1" fill="white" fill-opacity="0.2" /><rect x="1368" y="300.0" width="64" height="1" fill="white" fill-opacity="0.2" /><rect x="1368" y="337.5" width="64" height="1" fill="white" fill-opacity="0.2" /><rect x="1368" y="375.0" width="64" height="1" fill="white" fill-opacity="0.2" /><rect x="1368" y="412.5" width="64" height="1" fill="white" fill-opacity="0.2" /><rect x="1368" y="450.0" width="64" height="1" fill="white" fill-opacity="0.5" /><text x="1442" y="464.0" font-size="14" fill="white" font-family="monospace" dominant-baseline="ideographic">51</text><rect x="1368" y="487.5" width="64" height="1" fill="white" fill-opacity="0.2" /><rect x="1368" y="525.0" width="64" height="1" fill="white" fill-opacity="0.2" /><rect x="1368" y="562.5" width="64" height="1" fill="white" fill-opacity="0.2" /><rect x="1368" y="600.0" width="64" height="1" fill="white" fill-opacity="0.2" /><rect x="1368" y="637.5" width="64" height="1" fill="white" fill-opacity="0.2" /><rect x="1368" y="675.0" width="64" height="1" fill="white" fill-opacity="0.5" /><text x="1442" y="689.0" font-size="14" fill="white" font-family="monospace" dominant-baseline="ideographic">52</text><rect x="1368" y="712.5" width="64" height="1" fill="white" fill-opacity="0.2" /><rect x="1368" y="750.0" width="64" height="1" fill="white" fill-opacity="0.2" /><rect x="1368" y="787.5" width="64" height="1" fill="white" fill-opacity="0.2" /><rect x="1368" y="825.0" width="64" height="1" fill="white" fill-opacity="0.2" /><rect x="1368" y="862.5" width="64" height="1" fill="white" fill-opacity="0.2" /><rect x="1368" y="900.0" width="64" height="1" fill="white" fill-opacity="0.5" /><text x="1442" y="914.0" font-size="14" fill="white" font-family="monospace" dominant-baseline="ideographic">53</text><rect x="1482" y="0" width="64" height="1237.5" fill="black" /><rect x="1482" y="0.0" width="64" height="1" fill="white" fill-opacity="0.5" /><text x="1556" y="14.0" font-size="14" fill="white" font-family="monospace" dominant-baseline="ideographic">53</text><rect x="1482" y="37.5" width="64" height="1" fill="white" fill-opacity="0.2" /><rect x="1482" y="75.0" width="64" height="1" fill="white" fill-opacity="0.2" /><rect x="1482" y="112.5" width="64" height="1" fill="white" fill-opacity="0.2" /><rect x="1482" y="150.0" width="64" height="1" fill="white" fill-opacity="0.2" /><rect x="1482" y="187.5" width="64" height="1" fill="white" fill-opacity="0.2" /><rect x="1482" y="225.0" width="64" height="1" fill="white" fill-opacity="0.5" /><text x="1556" y="239.0" font-size="14" fill="white" font-family="monospace" dominant-baseline="ideographic">54</text><rect x="1482" y="262.5" width="64" height="1" fill="white" fill-opacity="0.2" /><rect x="1482" y="300.0" width="64" height="1" fill="white" fill-opacity="0.2" /><rect x="1482" y="337.5" width="64" height="1" fill="white" fill-opacity="0.2" /><rect x="1482" y="375.0" width="64" height="1" fill="white" fill-opacity="0.2" /><rect x="1482" y="412.5" width="64" height="1" fill="white" fill-opacity="0.2" /><rect x="1482" y="450.0" width="64" height="1" fill="white" fill-opacity="0.2" /><rect x="1482" y="487.5" width="64" height="1" fill="white" fill-opacity="0.2" /><rect x="1482" y="525.0" width="64" height="1" fill="white" fill-opacity="0.2" /><rect x="1482" y="562.5" width="64" height="1" fill="white" fill-opacity="0.5" /><text x="1556" y="576.5" font-size="14" fill="white" font-family="monospace" dominant-baseline="ideographic">55</text><rect x="1482" y="600.0" width="64" height="1" fill="white" fill-opacity="0.2" /><rect x="1482" y="637.5" width="64" height="1" fill="white" fill-opacity="0.2" /><rect x="1482" y="675.0" width="64" height="1" fill="white" fill-opacity="0.2" /><rect x="1482" y="712.5" width="64" height="1" fill="white" fill-opacity="0.2" /><rect x="1482" y="750.0" width="64" height="1" fill="white" fill-opacity="0.2" /><rect x="1482" y="787.5" width="64" height="1" fill="white" fill-opacity="0.2" /><rect x="1482" y="825.0" width="64" height="1" fill="white" fill-opacity="0.2" /><rect x="1482" y="862.5" width="64" height="1" fill="white" fill-opacity="0.2" /><rect x="1482" y="900.0" width="64" height="1" fill="white" fill-opacity="0.5" /><text x="1556" y="914.0" font-size="14" fill="white" font-family="monospace" dominant-baseline="ideographic">56</text><rect x="1482" y="937.5" width="64" height="1" fill="white" fill-opacity="0.2" /><rect x="1482" y="975.0" width="64" height="1" fill="white" fill-opacity="0.2" /><rect x="1482" y="1012.5" width="64" height="1" fill="white" fill-opacity="0.2" /><rect x="1482" y="1050.0" width="64" height="1" fill="white" fill-opacity="0.2" /><rect x="1482" y="1087.5" width="64" height="1" fill="white" fill-opacity="0.2" /><rect x="1482" y="1125.0" width="64" height="1" fill="white" fill-opacity="0.2" /><rect x="1482" y="1162.5" width="64" height="1" fill="white" fill-opacity="0.2" /><rect x="1482" y="1200.0" width="64" height="1" fill="white" fill-opacity="0.2" /><rect x="1482" y="1237.5" width="64" height="1" fill="white" fill-opacity="0.5" /><text x="1556" y="1251.5" font-size="14" fill="white" font-family="monospace" dominant-baseline="ideographic">57</text><rect x="1482" y="225.0" width="64" height="1" fill="aqua" fill-opacity="0.75" /><text x="1482" y="239.0" font-size="14" fill="aqua" fill-opacity="0.75" font-family="monospace">Special</text><rect x="1596" y="0" width="64" height="1350.0" fill="black" /><rect x="1596" y="0.0" width="64" height="1" fill="white" fill-opacity="0.5" /><text x="1670" y="14.0" font-size="14" fill="white" font-family="monospace" dominant-baseline="ideographic">57</text><rect x="1596" y="37.5" width="64" height="1" fill="white" fill-opacity="0.2" /><rect x="1596" y="75.0" width="64" height="1" fill="white" fill-opacity="0.2" /><rect x="1596" y="112.5" width="64" height="1" fill="white" fill-opacity="0.2" /><rect x="1596" y="150.0" width="64" height="1" fill="white" fill-opacity="0.2" /><rect x="1596" y="187.5" width="64" height="1" fill="white" fill-opacity="0.2" /><rect x="1596" y="225.0" width="64" height="1" fill="white" fill-opacity="0.2" /><rect x="1596" y="262.5" width="64" height="1" fill="white" fill-opacity="0.2" /><rect x="1596" y="300.0" width="64" height="1" fill="white" fill-opacity="0.2" /><rect x="1596" y="337.5" width="64" height="1" fill="white" fill-opacity="0.5" /><text x="1670" y="351.5" font-size="14" fill="white" font-family="monospace" dominant-baseline="ideographic">58</text><rect x="1596" y="375.0" width="64" height="1" fill="white" fill-opacity="0.2" /><rect x="1596" y="412.5" width="64" height="1" fill="white" fill-opacity="0.2" /><rect x="1596" y="450.0" width="64" height="1" fill="white" fill-opacity="0.2" /><rect x="1596" y="487.5" width="64" height="1" fill="white" fill-opacity="0.2" /><rect x="1596" y="525.0" width="64" height="1" fill="white" fill-opacity="0.2" /><rect x="1596" y="562.5" width="64" height="1" fill="white" fill-opacity="0.2" /><rect x="1596" y="600.0" width="64" height="1" fill="white" fill-opacity="0.2" /><rect x="1596" y="637.5" width="64" height="1" fill="white" fill-opacity="0.2" /><rect x="1596" y="675.0" width="64" height="1" fill="white" fill-opacity="0.5" /><text x="1670" y="689.0" font-size="14" fill="white" font-family="monospace" dominant-baseline="ideographic">59</text><rect x="1596" y="712.5" width="64" height="1" fill="white" fill-opacity="0.2" /><rect x="1596" y="750.0" width="64" height="1" fill="white" fill-opacity="0.2" /><rect x="1596" y="787.5" width="64" height="1" fill="white" fill-opacity="0.2" /><rect x="1596" y="825.0" width="64" height="1" fill="white" fill-opacity="0.2" /><rect x="1596" y="862.5" width="64" height="1" fill="white" fill-opacity="0.2" /><rect x="1596" y="900.0" width="64" height="1" fill="white" fill-opacity="0.2" /><rect x="1596" y="937.5" width="64" height="1" fill="white" fill-opacity="0.2" /><rect x="1596" y="975.0" width="64" height="1" fill="white" fill-opacity="0.2" /><rect x="1596" y="1012.5" width="64" height="1" fill="white" fill-opacity="0.5" /><text x="1670" y="1026.5" font-size="14" fill="white" font-family="monospace" dominant-baseline="ideographic">60</text><rect x="1596" y="1050.0" width="64" height="1" fill="white" fill-opacity="0.2" /><rect x="1596" y="1087.5" width="64" height="1" fill="white" fill-opacity="0.2" /><rect x="1596" y="1125.0" width="64" height="1" fill="white" fill-opacity="0.2" /><rect x="1596" y="1162.5" width="64" height="1" fill="white" fill-opacity="0.2" /><rect x="1596" y="1200.0" width="64" height="1" fill="white" fill-opacity="0.2" /><rect x="1596" y="1237.5" width="64" height="1" fill="white" fill-opacity="0.2" /><rect x="1596" y="1275.0" width="64" height="1" fill="white" fill-opacity="0.2" /><rect x="1596" y="1312.5" width="64" height="1" fill="white" fill-opacity="0.2" /><rect x="1596" y="1350.0" width="64" height="1" fill="white" fill-opacity="0.5" /><text x="1670" y="1364.0" font-size="14" fill="white" font-family="monospace" dominant-baseline="ideographic">61</text><rect x="1710" y="0" width="64" height="550.0" fill="black" /><rect x="1710" y="0.0" width="64" height="1" fill="white" fill-opacity="0.5" /><text x="1784" y="14.0" font-size="14" fill="white" font-family="monospace" dominant-baseline="ideographic">61</text><rect x="1710" y="37.5" width="64" height="1" fill="white" fill-opacity="0.2" /><rect x="1710" y="75.0" width="64" height="1" fill="white" fill-opacity="0.2" /><rect x="1710" y="112.5" width="64" height="1" fill="white" fill-opacity="0.2" /><rect x="1710" y="150.0" width="64" height="1" fill="white" fill-opacity="0.2" /><rect x="1710" y="187.5" width="64" height="1" fill="white" fill-opacity="0.2" /><rect x="1710" y="225.0" width="64" height="1" fill="white" fill-opacity="0.2" /><rect x="1710" y="262.5" width="64" height="1" fill="white" fill-opacity="0.2" /><rect x="1710" y="300.0" width="64" height="1" fill="white" fill-opacity="0.2" /><rect x="1710" y="337.5" width="64" height="1" fill="white" fill-opacity="0.5" /><text x="1784" y="351.5" font-size="14" fill="white" font-family="monospace" dominant-baseline="ideographic">62</text><rect x="1710" y="0.0" width="64" height="1" fill="aqua" fill-opacity="0.75" /><text x="1710" y="14.0" font-size="14" fill="aqua" fill-opacity="0.75" font-family="monospace">Outro</text></svg>