<?xml version="1.0" encoding="UTF-8"?><svg xmlns="http://www.w3.org/2000/svg" xmlns:xlink="http://www.w3.org/1999/xlink"     width="3808" height="1000.5" viewBox="0 0 3808 1000.5"><defs></defs><rect x="0" y="14.0" width="188" height="986.5" fill="black" /><rect x="0" y="999.5" width="188" height="1" fill="white" fill-opacity="0.5" /><text x="198" y="999.5" font-size="14" fill="white" font-family="monospace" dominant-baseline="initial">1</text><rect x="0" y="938.0" width="188" height="1" fill="white" fill-opacity="0.2" /><rect x="0" y="876.0" width="188" height="1" fill="white" fill-opacity="0.2" /><rect x="0" y="814.5" width="188" height="1" fill="white" fill-opacity="0.2" /><rect x="0" y="753.0" width="188" height="1" fill="white" fill-opacity="0.5" /><text x="198" y="753.0" font-size="14" fill="white" font-family="monospace" dominant-baseline="initial">2</text><rect x="0" y="691.5" width="188" height="1" fill="white" fill-opacity="0.2" /><rect x="0" y="629.5" width="188" height="1" fill="white" fill-opacity="0.2" /><rect x="0" y="568.0" width="188" height="1" fill="white" fill-opacity="0.2" /><rect x="0" y="506.5" width="188" height="1" fill="white" fill-opacity="0.5" /><text x="198" y="506.5" font-size="14" fill="white" font-family="monospace" dominant-baseline="initial">3</text><rect x="0" y="444.5" width="188" height="1" fill="white" fill-opacity="0.2" /><rect x="0" y="383.0" width="188" height="1" fill="white" fill-opacity="0.2" /><rect x="0" y="321.5" width="188" height="1" fill="white" fill-opacity="0.2" /><rect x="0" y="260.0" width="188" height="1" fill="white" fill-opacity="0.5" /><text x="198" y="260.0" font-size="14" fill="white" font-family="monospace" dominant-baseline="initial">4</text><rect x="0" y="198.0" width="188" height="1" fill="white" fill-opacity="0.2" /><rect x="0" y="136.5" width="188" height="1" fill="white" fill-opacity="0.2" /><rect x="0" y="75.0" width="188" height="1" fill="white" fill-opacity="0.2" /><rect x="0" y="13.0" width="188" height="1" fill="white" fill-opacity="0.5" /><text x="198" y="13.0" font-size="14" fill="white" font-family="monospace" dominant-baseline="initial">5</text><rect x="0" y="999.5" width="188" height="1" fill="aqua" fill-opacity="0.75" /><text x="0" y="995.5" font-size="14" fill="aqua" fill-opacity="0.75" font-family="monospace">Intro</text><rect x="0" y="999.5" width="188" height="1" fill="lime" fill-opacity="0.75" /><text x="198" y="986.5" font-size="14" fill="lime" font-family="monospace" dominant-baseline="initial">146</text><rect x="238" y="14.5" width="188" height="986.0" fill="black" /><rect x="238" y="999.5" width="188" height="1" fill="white" fill-opacity="0.5" /><text x="436" y="999.5" font-size="14" fill="white" font-family="monospace" dominant-baseline="initial">5</text><rect x="238" y="938.0" width="188" height="1" fill="white" fill-opacity="0.2" /><rect x="238" y="876.5" width="188" height="1" fill="white" fill-opacity="0.2" /><rect x="238" y="815.0" width="188" height="1" fill="white" fill-opacity="0.2" /><rect x="238" y="753.0" width="188" height="1" fill="white" fill-opacity="0.5" /><text x="436" y="753.0" font-size="14" fill="white" font-family="monospace" dominant-baseline="initial">6</text><rect x="238" y="691.5" width="188" height="1" fill="white" fill-opacity="0.2" /><rect x="238" y="630.0" width="188" height="1" fill="white" fill-opacity="0.2" /><rect x="238" y="568.0" width="188" height="1" fill="white" fill-opacity="0.2" /><rect x="238" y="506.5" width="188" height="1" fill="white" fill-opacity="0.5" /><text x="436" y="506.5" font-size="14" fill="white" font-family="monospace" dominant-baseline="initial">7</text><rect x="238" y="445.0" width="188" height="1" fill="white" fill-opacity="0.2" /><rect x="238" y="383.5" width="188" height="1" fill="white" fill-opacity="0.2" /><rect x="238" y="321.5" width="188" height="1" fill="white" fill-opacity="0.2" /><rect x="238" y="260.0" width="188" height="1" fill="white" fill-opacity="0.5" /><text x="436" y="260.0" font-size="14" fill="white" font-family="monospace" dominant-baseline="initial">8</text><rect x="238" y="198.5" width="188" height="1" fill="white" fill-opacity="0.2" /><rect x="238" y="136.5" width="188" height="1" fill="white" fill-opacity="0.2" /><rect x="238" y="75.0" width="188" height="1" fill="white" fill-opacity="0.2" /><rect x="238" y="13.5" width="188" height="1" fill="white" fill-opacity="0.5" /><text x="436" y="13.5" font-size="14" fill="white" font-family="monospace" dominant-baseline="initial">9</text><rect x="238" y="753.1500000000001" width="188" height="1" fill="aqua" fill-opacity="0.75" /><text x="238" y="749.1500000000001" font-size="14" fill="aqua" fill-opacity="0.75" font-family="monospace">Phrase A</text><rect x="476" y="14.0" width="188" height="986.5" fill="black" /><rect x="476" y="999.5" width="188" height="1" fill="white" fill-opacity="0.5" /><text x="674" y="999.5" font-size="14" fill="white" font-family="monospace" dominant-baseline="initial">9</text><rect x="476" y="938.0" width="188" height="1" fill="white" fill-opacity="0.2" /><rect x="476" y="876.0" width="188" height="1" fill="white" fill-opacity="0.2" /><rect x="476" y="814.5" width="188" height="1" fill="white" fill-opacity="0.2" /><rect x="476" y="753.0" width="188" height="1" fill="white" fill-opacity="0.5" /><text x="674" y="753.0" font-size="14" fill="white" font-family="monospace" dominant-baseline="initial">10</text><rect x="476" y="691.0" width="188" height="1" fill="white" fill-opacity="0.2" /><rect x="476" y="629.5" width="188" height="1" fill="white" fill-opacity="0.2" /><rect x="476" y="568.0" width="188" height="1" fill="white" fill-opacity="0.2" /><rect x="476" y="506.5" width="188" height="1" fill="white" fill-opacity="0.5" /><text x="674" y="506.5" font-size="14" fill="white" font-family="monospace" dominant-baseline="initial">11</text><rect x="476" y="444.5" width="188" height="1" fill="white" fill-opacity="0.2" /><rect x="476" y="383.0" width="188" height="1" fill="white" fill-opacity="0.2" /><rect x="476" y="321.5" width="188" height="1" fill="white" fill-opacity="0.2" /><rect x="476" y="259.5" width="188" height="1" fill="white" fill-opacity="0.5" /><text x="674" y="259.5" font-size="14" fill="white" font-family="monospace" dominant-baseline="initial">12</text><rect x="476" y="198.0" width="188" height="1" fill="white" fill-opacity="0.2" /><rect x="476" y="136.5" width="188" height="1" fill="white" fill-opacity="0.2" /><rect x="476" y="74.5" width="188" height="1" fill="white" fill-opacity="0.2" /><rect x="476" y="13.0" width="188" height="1" fill="white" fill-opacity="0.5" /><text x="674" y="13.0" font-size="14" fill="white" font-family="monospace" dominant-baseline="initial">13</text><rect x="714" y="14.5" width="188" height="986.0" fill="black" /><rect x="714" y="999.5" width="188" height="1" fill="white" fill-opacity="0.5" /><text x="912" y="999.5" font-size="14" fill="white" font-family="monospace" dominant-baseline="initial">13</text><rect x="714" y="938.0" width="188" height="1" fill="white" fill-opacity="0.2" /><rect x="714" y="876.5" width="188" height="1" fill="white" fill-opacity="0.2" /><rect x="714" y="814.5" width="188" height="1" fill="white" fill-opacity="0.2" /><rect x="714" y="753.0" width="188" height="1" fill="white" fill-opacity="0.5" /><text x="912" y="753.0" font-size="14" fill="white" font-family="monospace" dominant-baseline="initial">14</text><rect x="714" y="691.5" width="188" height="1" fill="white" fill-opacity="0.2" /><rect x="714" y="629.5" width="188" height="1" fill="white" fill-opacity="0.2" /><rect x="714" y="568.0" width="188" height="1" fill="white" fill-opacity="0.2" /><rect x="714" y="506.5" width="188" height="1" fill="white" fill-opacity="0.5" /><text x="912" y="506.5" font-size="14" fill="white" font-family="monospace" dominant-baseline="initial">15</text><rect x="714" y="445.0" width="188" height="1" fill="white" fill-opacity="0.2" /><rect x="714" y="383.0" width="188" height="1" fill="white" fill-opacity="0.2" /><rect x="714" y="321.5" width="188" height="1" fill="white" fill-opacity="0.2" /><rect x="714" y="260.0" width="188" height="1" fill="white" fill-opacity="0.5" /><text x="912" y="260.0" font-size="14" fill="white" font-family="monospace" dominant-baseline="initial">16</text><rect x="714" y="198.0" width="188" height="1" fill="white" fill-opacity="0.2" /><rect x="714" y="136.5" width="188" height="1" fill="white" fill-opacity="0.2" /><rect x="714" y="75.0" width="188" height="1" fill="white" fill-opacity="0.2" /><rect x="714" y="13.5" width="188" height="1" fill="white" fill-opacity="0.5" /><text x="912" y="13.5" font-size="14" fill="white" font-family="monospace" dominant-baseline="initial">17</text><rect x="714" y="753.0" width="188" height="1" fill="aqua" fill-opacity="0.75" /><text x="714" y="749.0" font-size="14" fill="aqua" fill-opacity="0.75" font-family="monospace">Phrase B</text><rect x="952" y="14.0" width="188" height="986.5" fill="black" /><rect x="952" y="999.5" width="188" height="1" fill="white" fill-opacity="0.5" /><text x="1150" y="999.5" font-size="14" fill="white" font-family="monospace" dominant-baseline="initial">17</text><rect x="952" y="937.5" width="188" height="1" fill="white" fill-opacity="0.2" /><rect x="952" y="876.0" width="188" height="1" fill="white" fill-opacity="0.2" /><rect x="952" y="814.5" width="188" height="1" fill="white" fill-opacity="0.2" /><rect x="952" y="752.5" width="188" height="1" fill="white" fill-opacity="0.5" /><text x="1150" y="752.5" font-size="14" fill="white" font-family="monospace" dominant-baseline="initial">18</text><rect x="952" y="691.0" width="188" height="1" fill="white" fill-opacity="0.2" /><rect x="952" y="629.5" width="188" height="1" fill="white" fill-opacity="0.2" /><rect x="952" y="568.0" width="188" height="1" fill="white" fill-opacity="0.2" /><rect x="952" y="506.0" width="188" height="1" fill="white" fill-opacity="0.5" /><text x="1150" y="506.0" font-size="14" fill="white" font-family="monospace" dominant-baseline="initial">19</text><rect x="952" y="444.5" width="188" height="1" fill="white" fill-opacity="0.2" /><rect x="952" y="383.0" width="188" height="1" fill="white" fill-opacity="0.2" /><rect x="952" y="321.0" width="188" height="1" fill="white" fill-opacity="0.2" /><rect x="952" y="259.5" width="188" height="1" fill="white" fill-opacity="0.5" /><text x="1150" y="259.5" font-size="14" fill="white" font-family="monospace" dominant-baseline="initial">20</text><rect x="952" y="198.0" width="188" height="1" fill="white" fill-opacity="0.2" /><rect x="952" y="136.5" width="188" height="1" fill="white" fill-opacity="0.2" /><rect x="952" y="74.5" width="188" height="1" fill="white" fill-opacity="0.2" /><rect x="952" y="13.0" width="188" height="1" fill="white" fill-opacity="0.5" /><text x="1150" y="13.0" font-size="14" fill="white" font-family="monospace" dominant-baseline="initial">21</text><rect x="1190" y="14.0" width="188" height="986.5" fill="black" /><rect x="1190" y="999.5" width="188" height="1" fill="white" fill-opacity="0.5" /><text x="1388" y="999.5" font-size="14" fill="white" font-family="monospace" dominant-baseline="initial">21</text><rect x="1190" y="938.0" width="188" height="1" fill="white" fill-opacity="0.2" /><rect x="1190" y="876.0" width="188" height="1" fill="white" fill-opacity="0.2" /><rect x="1190" y="814.5" width="188" height="1" fill="white" fill-opacity="0.2" /><rect x="1190" y="753.0" width="188" height="1" fill="white" fill-opacity="0.5" /><text x="1388" y="753.0" font-size="14" fill="white" font-family="monospace" dominant-baseline="initial">22</text><rect x="1190" y="691.5" width="188" height="1" fill="white" fill-opacity="0.2" /><rect x="1190" y="629.5" width="188" height="1" fill="white" fill-opacity="0.2" /><rect x="1190" y="568.0" width="188" height="1" fill="white" fill-opacity="0.2" /><rect x="1190" y="506.5" width="188" height="1" fill="white" fill-opacity="0.5" /><text x="1388" y="506.5" font-size="14" fill="white" font-family="monospace" dominant-baseline="initial">23</text><rect x="1190" y="444.5" width="188" height="1" fill="white" fill-opacity="0.2" /><rect x="1190" y="383.0" width="188" height="1" fill="white" fill-opacity="0.2" /><rect x="1190" y="321.5" width="188" height="1" fill="white" fill-opacity="0.2" /><rect x="1190" y="260.0" width="188" height="1" fill="white" fill-opacity="0.5" /><text x="1388" y="260.0" font-size="14" fill="white" font-family="monospace" dominant-baseline="initial">24</text><rect x="1190" y="198.0" width="188" height="1" fill="white" fill-opacity="0.2" /><rect x="1190" y="136.5" width="188" height="1" fill="white" fill-opacity="0.2" /><rect x="1190" y="75.0" width="188" height="1" fill="white" fill-opacity="0.2" /><rect x="1190" y="13.0" width="188" height="1" fill="white" fill-opacity="0.5" /><text x="1388" y="13.0" font-size="14" fill="white" font-family="monospace" dominant-baseline="initial">25</text><rect x="1190" y="506.40000000000055" width="188" height="1" fill="aqua" fill-opacity="0.75" /><text x="1190" y="502.40000000000055" font-size="14" fill="aqua" fill-opacity="0.75" font-family="monospace">Phrase A</text><rect x="1428" y="14.5" width="188" height="986.0" fill="black" /><rect x="1428" y="999.5" width="188" height="1" fill="white" fill-opacity="0.5" /><text x="1626" y="999.5" font-size="14" fill="white" font-family="monospace" dominant-baseline="initial">25</text><rect x="1428" y="938.0" width="188" height="1" fill="white" fill-opacity="0.2" /><rect x="1428" y="876.5" width="188" height="1" fill="white" fill-opacity="0.2" /><rect x="1428" y="815.0" width="188" height="1" fill="white" fill-opacity="0.2" /><rect x="1428" y="753.0" width="188" height="1" fill="white" fill-opacity="0.5" /><text x="1626" y="753.0" font-size="14" fill="white" font-family="monospace" dominant-baseline="initial">26</text><rect x="1428" y="691.5" width="188" height="1" fill="white" fill-opacity="0.2" /><rect x="1428" y="630.0" width="188" height="1" fill="white" fill-opacity="0.2" /><rect x="1428" y="568.0" width="188" height="1" fill="white" fill-opacity="0.2" /><rect x="1428" y="506.5" width="188" height="1" fill="white" fill-opacity="0.5" /><text x="1626" y="506.5" font-size="14" fill="white" font-family="monospace" dominant-baseline="initial">27</text><rect x="1428" y="445.0" width="188" height="1" fill="white" fill-opacity="0.2" /><rect x="1428" y="383.5" width="188" height="1" fill="white" fill-opacity="0.2" /><rect x="1428" y="321.5" width="188" height="1" fill="white" fill-opacity="0.2" /><rect x="1428" y="260.0" width="188" height="1" fill="white" fill-opacity="0.5" /><text x="1626" y="260.0" font-size="14" fill="white" font-family="monospace" dominant-baseline="initial">28</text><rect x="1428" y="198.5" width="188" height="1" fill="white" fill-opacity="0.2" /><rect x="1428" y="136.5" width="188" height="1" fill="white" fill-opacity="0.2" /><rect x="1428" y="75.0" width="188" height="1" fill="white" fill-opacity="0.2" /><rect x="1428" y="13.5" width="188" height="1" fill="white" fill-opacity="0.5" /><text x="1626" y="13.5" font-size="14" fill="white" font-family="monospace" dominant-baseline="initial">29</text><rect x="1666" y="14.0" width="188" height="986.5" fill="black" /><rect x="1666" y="999.5" width="188" height="1" fill="white" fill-opacity="0.5" /><text x="1864" y="999.5" font-size="14" fill="white" font-family="monospace" dominant-baseline="initial">29</text><rect x="1666" y="938.0" width="188" height="1" fill="white" fill-opacity="0.2" /><rect x="1666" y="876.0" width="188" height="1" fill="white" fill-opacity="0.2" /><rect x="1666" y="814.5" width="188" height="1" fill="white" fill-opacity="0.2" /><rect x="1666" y="753.0" width="188" height="1" fill="white" fill-opacity="0.5" /><text x="1864" y="753.0" font-size="14" fill="white" font-family="monospace" dominant-baseline="initial">30</text><rect x="1666" y="691.0" width="188" height="1" fill="white" fill-opacity="0.2" /><rect x="1666" y="629.5" width="188" height="1" fill="white" fill-opacity="0.2" /><rect x="1666" y="568.0" width="188" height="1" fill="white" fill-opacity="0.2" /><rect x="1666" y="506.5" width="188" height="1" fill="white" fill-opacity="0.5" /><text x="1864" y="506.5" font-size="14" fill="white" font-family="monospace" dominant-baseline="initial">31</text><rect x="1666" y="444.5" width="188" height="1" fill="white" fill-opacity="0.2" /><rect x="1666" y="383.0" width="188" height="1" fill="white" fill-opacity="0.2" /><rect x="1666" y="321.5" width="188" height="1" fill="white" fill-opacity="0.2" /><rect x="1666" y="259.5" width="188" height="1" fill="white" fill-opacity="0.5" /><text x="1864" y="259.5" font-size="14" fill="white" font-family="monospace" dominant-baseline="initial">32</text><rect x="1666" y="198.0" width="188" height="1" fill="white" fill-opacity="0.2" /><rect x="1666" y="136.5" width="188" height="1" fill="white" fill-opacity="0.2" /><rect x="1666" y="75.0" width="188" height="1" fill="white" fill-opacity="0.2" /><rect x="1666" y="13.0" width="188" height="1" fill="white" fill-opacity="0.5" /><text x="1864" y="13.0" font-size="14" fill="white" font-family="monospace" dominant-baseline="initial">33</text><rect x="1666" y="999.4500000000007" width="188" height="1" fill="aqua" fill-opacity="0.75" /><text x="1666" y="995.4500000000007" font-size="14" fill="aqua" fill-opacity="0.75" font-family="monospace">Special</text><rect x="1904" y="14.5" width="188" height="986.0" fill="black" /><rect x="1904" y="999.5" width="188" height="1" fill="white" fill-opacity="0.5" /><text x="2102" y="999.5" font-size="14" fill="white" font-family="monospace" dominant-baseline="initial">33</text><rect x="1904" y="938.0" width="188" height="1" fill="white" fill-opacity="0.2" /><rect x="1904" y="876.5" width="188" height="1" fill="white" fill-opacity="0.2" /><rect x="1904" y="814.5" width="188" height="1" fill="white" fill-opacity="0.2" /><rect x="1904" y="753.0" width="188" height="1" fill="white" fill-opacity="0.5" /><text x="2102" y="753.0" font-size="14" fill="white" font-family="monospace" dominant-baseline="initial">34</text><rect x="1904" y="691.5" width="188" height="1" fill="white" fill-opacity="0.2" /><rect x="1904" y="629.5" width="188" height="1" fill="white" fill-opacity="0.2" /><rect x="1904" y="568.0" width="188" height="1" fill="white" fill-opacity="0.2" /><rect x="1904" y="506.5" width="188" height="1" fill="white" fill-opacity="0.5" /><text x="2102" y="506.5" font-size="14" fill="white" font-family="monospace" dominant-baseline="initial">35</text><rect x="1904" y="445.0" width="188" height="1" fill="white" fill-opacity="0.2" /><rect x="1904" y="383.0" width="188" height="1" fill="white" fill-opacity="0.2" /><rect x="1904" y="321.5" width="188" height="1" fill="white" fill-opacity="0.2" /><rect x="1904" y="260.0" width="188" height="1" fill="white" fill-opacity="0.5" /><text x="2102" y="260.0" font-size="14" fill="white" font-family="monospace" dominant-baseline="initial">36</text><rect x="1904" y="198.0" width="188" height="1" fill="white" fill-opacity="0.2" /><rect x="1904" y="136.5" width="188" height="1" fill="white" fill-opacity="0.2" /><rect x="1904" y="75.0" width="188" height="1" fill="white" fill-opacity="0.2" /><rect x="1904" y="13.5" width="188" height="1" fill="white" fill-opacity="0.5" /><text x="2102" y="13.5" font-size="14" fill="white" font-family="monospace" dominant-baseline="initial">37</text><rect x="2142" y="168.0" width="188" height="832.5" fill="black" /><rect x="2142" y="999.5" width="188" height="1" fill="white" fill-opacity="0.5" /><text x="2340" y="999.5" font-size="14" fill="white" font-family="monospace" dominant-baseline="initial">37</text><rect x="2142" y="968.5" width="188" height="1" fill="white" fill-opacity="0.2" /><rect x="2142" y="937.5" width="188" height="1" fill="white" fill-opacity="0.2" /><rect x="2142" y="907.0" width="188" height="1" fill="white" fill-opacity="0.2" /><rect x="2142" y="876.0" width="188" height="1" fill="white" fill-opacity="0.2" /><rect x="2142" y="845.0" width="188" height="1" fill="white" fill-opacity="0.2" /><rect x="2142" y="814.5" width="188" height="1" fill="white" fill-opacity="0.5" /><text x="2340" y="814.5" font-size="14" fill="white" font-family="monospace" dominant-baseline="initial">38</text><rect x="2142" y="783.5" width="188" height="1" fill="white" fill-opacity="0.2" /><rect x="2142" y="752.5" width="188" height="1" fill="white" fill-opacity="0.2" /><rect x="2142" y="722.0" width="188" height="1" fill="white" fill-opacity="0.2" /><rect x="2142" y="691.0" width="188" height="1" fill="white" fill-opacity="0.2" /><rect x="2142" y="660.5" width="188" height="1" fill="white" fill-opacity="0.2" /><rect x="2142" y="629.5" width="188" height="1" fill="white" fill-opacity="0.5" /><text x="2340" y="629.5" font-size="14" fill="white" font-family="monospace" dominant-baseline="initial">39</text><rect x="2142" y="598.5" width="188" height="1" fill="white" fill-opacity="0.2" /><rect x="2142" y="568.0" width="188" height="1" fill="white" fill-opacity="0.2" /><rect x="2142" y="537.0" width="188" height="1" fill="white" fill-opacity="0.2" /><rect x="2142" y="506.0" width="188" height="1" fill="white" fill-opacity="0.2" /><rect x="2142" y="475.5" width="188" height="1" fill="white" fill-opacity="0.2" /><rect x="2142" y="444.5" width="188" height="1" fill="white" fill-opacity="0.5" /><text x="2340" y="444.5" font-size="14" fill="white" font-family="monospace" dominant-baseline="initial">40</text><rect x="2142" y="413.5" width="188" height="1" fill="white" fill-opacity="0.2" /><rect x="2142" y="383.0" width="188" height="1" fill="white" fill-opacity="0.2" /><rect x="2142" y="352.0" width="188" height="1" fill="white" fill-opacity="0.2" /><rect x="2142" y="321.0" width="188" height="1" fill="white" fill-opacity="0.2" /><rect x="2142" y="290.5" width="188" height="1" fill="white" fill-opacity="0.2" /><rect x="2142" y="259.5" width="188" height="1" fill="white" fill-opacity="0.2" /><rect x="2142" y="229.0" width="188" height="1" fill="white" fill-opacity="0.2" /><rect x="2142" y="198.0" width="188" height="1" fill="white" fill-opacity="0.2" /><rect x="2142" y="167.0" width="188" height="1" fill="white" fill-opacity="0.5" /><text x="2340" y="167.0" font-size="14" fill="white" font-family="monospace" dominant-baseline="initial">41</text><rect x="2142" y="999.3000000000011" width="188" height="1" fill="aqua" fill-opacity="0.75" /><text x="2142" y="995.3000000000011" font-size="14" fill="aqua" fill-opacity="0.75" font-family="monospace">Phrase C</text><rect x="2380" y="168.5" width="188" height="832.0" fill="black" /><rect x="2380" y="999.5" width="188" height="1" fill="white" fill-opacity="0.5" /><text x="2578" y="999.5" font-size="14" fill="white" font-family="monospace" dominant-baseline="initial">41</text><rect x="2380" y="969.0" width="188" height="1" fill="white" fill-opacity="0.2" /><rect x="2380" y="938.0" width="188" height="1" fill="white" fill-opacity="0.2" /><rect x="2380" y="907.0" width="188" height="1" fill="white" fill-opacity="0.2" /><rect x="2380" y="876.5" width="188" height="1" fill="white" fill-opacity="0.2" /><rect x="2380" y="845.5" width="188" height="1" fill="white" fill-opacity="0.2" /><rect x="2380" y="814.5" width="188" height="1" fill="white" fill-opacity="0.5" /><text x="2578" y="814.5" font-size="14" fill="white" font-family="monospace" dominant-baseline="initial">42</text><rect x="2380" y="784.0" width="188" height="1" fill="white" fill-opacity="0.2" /><rect x="2380" y="753.0" width="188" height="1" fill="white" fill-opacity="0.2" /><rect x="2380" y="722.0" width="188" height="1" fill="white" fill-opacity="0.2" /><rect x="2380" y="691.5" width="188" height="1" fill="white" fill-opacity="0.2" /><rect x="2380" y="660.5" width="188" height="1" fill="white" fill-opacity="0.2" /><rect x="2380" y="630.0" width="188" height="1" fill="white" fill-opacity="0.5" /><text x="2578" y="630.0" font-size="14" fill="white" font-family="monospace" dominant-baseline="initial">43</text><rect x="2380" y="599.0" width="188" height="1" fill="white" fill-opacity="0.2" /><rect x="2380" y="568.0" width="188" height="1" fill="white" fill-opacity="0.2" /><rect x="2380" y="537.5" width="188" height="1" fill="white" fill-opacity="0.2" /><rect x="2380" y="506.5" width="188" height="1" fill="white" fill-opacity="0.2" /><rect x="2380" y="475.5" width="188" height="1" fill="white" fill-opacity="0.2" /><rect x="2380" y="445.0" width="188" height="1" fill="white" fill-opacity="0.2" /><rect x="2380" y="414.0" width="188" height="1" fill="white" fill-opacity="0.2" /><rect x="2380" y="383.0" width="188" height="1" fill="white" fill-opacity="0.2" /><rect x="2380" y="352.5" width="188" height="1" fill="white" fill-opacity="0.5" /><text x="2578" y="352.5" font-size="14" fill="white" font-family="monospace" dominant-baseline="initial">44</text><rect x="2380" y="321.5" width="188" height="1" fill="white" fill-opacity="0.2" /><rect x="2380" y="290.5" width="188" height="1" fill="white" fill-opacity="0.2" /><rect x="2380" y="260.0" width="188" height="1" fill="white" fill-opacity="0.2" /><rect x="2380" y="229.0" width="188" height="1" fill="white" fill-opacity="0.2" /><rect x="2380" y="198.0" width="188" height="1" fill="white" fill-opacity="0.2" /><rect x="2380" y="167.5" width="188" height="1" fill="white" fill-opacity="0.5" /><text x="2578" y="167.5" font-size="14" fill="white" font-family="monospace" dominant-baseline="initial">45</text><rect x="2380" y="352.35000000000036" width="188" height="1" fill="aqua" fill-opacity="0.75" /><text x="2380" y="348.35000000000036" font-size="14" fill="aqua" fill-opacity="0.75" font-family="monospace">Special</text><rect x="2618" y="76.0" width="188" height="924.5" fill="black" /><rect x="2618" y="999.5" width="188" height="1" fill="white" fill-opacity="0.5" /><text x="2816" y="999.5" font-size="14" fill="white" font-family="monospace" dominant-baseline="initial">45</text><rect x="2618" y="938.0" width="188" height="1" fill="white" fill-opacity="0.2" /><rect x="2618" y="876.0" width="188" height="1" fill="white" fill-opacity="0.2" /><rect x="2618" y="814.5" width="188" height="1" fill="white" fill-opacity="0.2" /><rect x="2618" y="753.0" width="188" height="1" fill="white" fill-opacity="0.5" /><text x="2816" y="753.0" font-size="14" fill="white" font-family="monospace" dominant-baseline="initial">46</text><rect x="2618" y="722.0" width="188" height="1" fill="white" fill-opacity="0.2" /><rect x="2618" y="691.0" width="188" height="1" fill="white" fill-opacity="0.2" /><rect x="2618" y="660.5" width="188" height="1" fill="white" fill-opacity="0.2" /><rect x="2618" y="629.5" width="188" height="1" fill="white" fill-opacity="0.2" /><rect x="2618" y="598.5" width="188" height="1" fill="white" fill-opacity="0.2" /><rect x="2618" y="568.0" width="188" height="1" fill="white" fill-opacity="0.5" /><text x="2816" y="568.0" font-size="14" fill="white" font-family="monospace" dominant-baseline="initial">47</text><rect x="2618" y="506.5" width="188" height="1" fill="white" fill-opacity="0.2" /><rect x="2618" y="444.5" width="188" height="1" fill="white" fill-opacity="0.2" /><rect x="2618" y="383.0" width="188" height="1" fill="white" fill-opacity="0.2" /><rect x="2618" y="321.5" width="188" height="1" fill="white" fill-opacity="0.5" /><text x="2816" y="321.5" font-size="14" fill="white" font-family="monospace" dominant-baseline="initial">48</text><rect x="2618" y="259.5" width="188" height="1" fill="white" fill-opacity="0.2" /><rect x="2618" y="198.0" width="188" height="1" fill="white" fill-opacity="0.2" /><rect x="2618" y="136.5" width="188" height="1" fill="white" fill-opacity="0.2" /><rect x="2618" y="75.0" width="188" height="1" fill="white" fill-opacity="0.5" /><text x="2816" y="75.0" font-size="14" fill="white" font-family="monospace" dominant-baseline="initial">49</text><rect x="2856" y="137.5" width="188" height="863.0" fill="black" /><rect x="2856" y="999.5" width="188" height="1" fill="white" fill-opacity="0.5" /><text x="3054" y="999.5" font-size="14" fill="white" font-family="monospace" dominant-baseline="initial">49</text><rect x="2856" y="937.5" width="188" height="1" fill="white" fill-opacity="0.2" /><rect x="2856" y="876.0" width="188" height="1" fill="white" fill-opacity="0.5" /><text x="3054" y="876.0" font-size="14" fill="white" font-family="monospace" dominant-baseline="initial">50</text><rect x="2856" y="814.5" width="188" height="1" fill="white" fill-opacity="0.2" /><rect x="2856" y="752.5" width="188" height="1" fill="white" fill-opacity="0.2" /><rect x="2856" y="691.0" width="188" height="1" fill="white" fill-opacity="0.2" /><rect x="2856" y="629.5" width="188" height="1" fill="white" fill-opacity="0.5" /><text x="3054" y="629.5" font-size="14" fill="white" font-family="monospace" dominant-baseline="initial">51</text><rect x="2856" y="568.0" width="188" height="1" fill="white" fill-opacity="0.2" /><rect x="2856" y="506.0" width="188" height="1" fill="white" fill-opacity="0.2" /><rect x="2856" y="444.5" width="188" height="1" fill="white" fill-opacity="0.2" /><rect x="2856" y="383.0" width="188" height="1" fill="white" fill-opacity="0.5" /><text x="3054" y="383.0" font-size="14" fill="white" font-family="monospace" dominant-baseline="initial">52</text><rect x="2856" y="321.0" width="188" height="1" fill="white" fill-opacity="0.2" /><rect x="2856" y="259.5" width="188" height="1" fill="white" fill-opacity="0.2" /><rect x="2856" y="198.0" width="188" height="1" fill="white" fill-opacity="0.2" /><rect x="2856" y="136.5" width="188" height="1" fill="white" fill-opacity="0.5" /><text x="3054" y="136.5" font-size="14" fill="white" font-family="monospace" dominant-baseline="initial">53</text><rect x="2856" y="876.0" width="188" height="1" fill="aqua" fill-opacity="0.75" /><text x="2856" y="872.0" font-size="14" fill="aqua" fill-opacity="0.75" font-family="monospace">Phrase D</text><rect x="3094" y="14.0" width="188" height="986.5" fill="black" /><rect x="3094" y="999.5" width="188" height="1" fill="white" fill-opacity="0.5" /><text x="3292" y="999.5" font-size="14" fill="white" font-family="monospace" dominant-baseline="initial">53</text><rect x="3094" y="937.5" width="188" height="1" fill="white" fill-opacity="0.2" /><rect x="3094" y="876.0" width="188" height="1" fill="white" fill-opacity="0.2" /><rect x="3094" y="814.5" width="188" height="1" fill="white" fill-opacity="0.2" /><rect x="3094" y="752.5" width="188" height="1" fill="white" fill-opacity="0.5" /><text x="3292" y="752.5" font-size="14" fill="white" font-family="monospace" dominant-baseline="initial">54</text><rect x="3094" y="691.0" width="188" height="1" fill="white" fill-opacity="0.2" /><rect x="3094" y="629.5" width="188" height="1" fill="white" fill-opacity="0.2" /><rect x="3094" y="568.0" width="188" height="1" fill="white" fill-opacity="0.2" /><rect x="3094" y="506.0" width="188" height="1" fill="white" fill-opacity="0.5" /><text x="3292" y="506.0" font-size="14" fill="white" font-family="monospace" dominant-baseline="initial">55</text><rect x="3094" y="444.5" width="188" height="1" fill="white" fill-opacity="0.2" /><rect x="3094" y="383.0" width="188" height="1" fill="white" fill-opacity="0.2" /><rect x="3094" y="321.0" width="188" height="1" fill="white" fill-opacity="0.2" /><rect x="3094" y="259.5" width="188" height="1" fill="white" fill-opacity="0.5" /><text x="3292" y="259.5" font-size="14" fill="white" font-family="monospace" dominant-baseline="initial">56</text><rect x="3094" y="198.0" width="188" height="1" fill="white" fill-opacity="0.2" /><rect x="3094" y="136.0" width="188" height="1" fill="white" fill-opacity="0.2" /><rect x="3094" y="74.5" width="188" height="1" fill="white" fill-opacity="0.2" /><rect x="3094" y="13.0" width="188" height="1" fill="white" fill-opacity="0.5" /><text x="3292" y="13.0" font-size="14" fill="white" font-family="monospace" dominant-baseline="initial">57</text><rect x="3094" y="752.75" width="188" height="1" fill="aqua" fill-opacity="0.75" /><text x="3094" y="748.75" font-size="14" fill="aqua" fill-opacity="0.75" font-family="monospace">Phrase B</text><rect x="3332" y="14.0" width="188" height="986.5" fill="black" /><rect x="3332" y="999.5" width="188" height="1" fill="white" fill-opacity="0.5" /><text x="3530" y="999.5" font-size="14" fill="white" font-family="monospace" dominant-baseline="initial">57</text><rect x="3332" y="938.0" width="188" height="1" fill="white" fill-opacity="0.2" /><rect x="3332" y="876.0" width="188" height="1" fill="white" fill-opacity="0.2" /><rect x="3332" y="814.5" width="188" height="1" fill="white" fill-opacity="0.2" /><rect x="3332" y="753.0" width="188" height="1" fill="white" fill-opacity="0.5" /><text x="3530" y="753.0" font-size="14" fill="white" font-family="monospace" dominant-baseline="initial">58</text><rect x="3332" y="691.0" width="188" height="1" fill="white" fill-opacity="0.2" /><rect x="3332" y="629.5" width="188" height="1" fill="white" fill-opacity="0.2" /><rect x="3332" y="568.0" width="188" height="1" fill="white" fill-opacity="0.2" /><rect x="3332" y="506.5" width="188" height="1" fill="white" fill-opacity="0.5" /><text x="3530" y="506.5" font-size="14" fill="white" font-family="monospace" dominant-baseline="initial">59</text><rect x="3332" y="444.5" width="188" height="1" fill="white" fill-opacity="0.2" /><rect x="3332" y="383.0" width="188" height="1" fill="white" fill-opacity="0.2" /><rect x="3332" y="321.5" width="188" height="1" fill="white" fill-opacity="0.2" /><rect x="3332" y="259.5" width="188" height="1" fill="white" fill-opacity="0.5" /><text x="3530" y="259.5" font-size="14" fill="white" font-family="monospace" dominant-baseline="initial">60</text><rect x="3332" y="198.0" width="188" height="1" fill="white" fill-opacity="0.2" /><rect x="3332" y="136.5" width="188" height="1" fill="white" fill-opacity="0.2" /><rect x="3332" y="75.0" width="188" height="1" fill="white" fill-opacity="0.2" /><rect x="3332" y="13.0" width="188" height="1" fill="white" fill-opacity="0.5" /><text x="3530" y="13.0" font-size="14" fill="white" font-family="monospace" dominant-baseline="initial">61</text><rect x="3570" y="684.0" width="188" height="316.5" fill="black" /><rect x="3570" y="999.5" width="188" height="1" fill="white" fill-opacity="0.5" /><text x="3768" y="999.5" font-size="14" fill="white" font-family="monospace" dominant-baseline="initial">61</text></svg>