<?xml version="1.0" encoding="UTF-8"?><svg xmlns="http://www.w3.org/2000/svg" xmlns:xlink="http://www.w3.org/1999/xlink"     width="2280" height="760.5" viewBox="0 0 2280 760.5"><defs></defs><rect x="0" y="0" width="64" height="746.0" fill="black" /><rect x="0" y="0.0" width="64" height="1" fill="white" fill-opacity="0.5" /><text x="74" y="14.0" font-size="14" fill="white" font-family="monospace" dominant-baseline="ideographic">1</text><rect x="0" y="46.5" width="64" height="1" fill="white" fill-opacity="0.2" /><rect x="0" y="93.5" width="64" height="1" fill="white" fill-opacity="0.2" /><rect x="0" y="140.0" width="64" height="1" fill="white" fill-opacity="0.2" /><rect x="0" y="186.5" width="64" height="1" fill="white" fill-opacity="0.5" /><text x="74" y="200.5" font-size="14" fill="white" font-family="monospace" dominant-baseline="ideographic">2</text><rect x="0" y="233.0" width="64" height="1" fill="white" fill-opacity="0.2" /><rect x="0" y="280.0" width="64" height="1" fill="white" fill-opacity="0.2" /><rect x="0" y="326.5" width="64" height="1" fill="white" fill-opacity="0.2" /><rect x="0" y="373.0" width="64" height="1" fill="white" fill-opacity="0.5" /><text x="74" y="387.0" font-size="14" fill="white" font-family="monospace" dominant-baseline="ideographic">3</text><rect x="0" y="419.5" width="64" height="1" fill="white" fill-opacity="0.2" /><rect x="0" y="466.5" width="64" height="1" fill="white" fill-opacity="0.2" /><rect x="0" y="513.0" width="64" height="1" fill="white" fill-opacity="0.2" /><rect x="0" y="559.5" width="64" height="1" fill="white" fill-opacity="0.5" /><text x="74" y="573.5" font-size="14" fill="white" font-family="monospace" dominant-baseline="ideographic">4</text><rect x="0" y="606.0" width="64" height="1" fill="white" fill-opacity="0.2" /><rect x="0" y="653.0" width="64" height="1" fill="white" fill-opacity="0.2" /><rect x="0" y="699.5" width="64" height="1" fill="white" fill-opacity="0.2" /><rect x="0" y="746.0" width="64" height="1" fill="white" fill-opacity="0.5" /><text x="74" y="760.0" font-size="14" fill="white" font-family="monospace" dominant-baseline="ideographic">5</text><rect x="0" y="0.0" width="64" height="1" fill="aqua" fill-opacity="0.75" /><text x="0" y="14.0" font-size="14" fill="aqua" fill-opacity="0.75" font-family="monospace">Intro</text><rect x="0" y="0.0" width="64" height="1" fill="lime" fill-opacity="0.75" /><text x="74" y="28.0" font-size="14" fill="lime" font-family="monospace" dominant-baseline="ideographic">193</text><rect x="114" y="0" width="64" height="746.0" fill="black" /><rect x="114" y="0.0" width="64" height="1" fill="white" fill-opacity="0.5" /><text x="188" y="14.0" font-size="14" fill="white" font-family="monospace" dominant-baseline="ideographic">5</text><rect x="114" y="46.5" width="64" height="1" fill="white" fill-opacity="0.2" /><rect x="114" y="93.5" width="64" height="1" fill="white" fill-opacity="0.2" /><rect x="114" y="140.0" width="64" height="1" fill="white" fill-opacity="0.2" /><rect x="114" y="186.5" width="64" height="1" fill="white" fill-opacity="0.5" /><text x="188" y="200.5" font-size="14" fill="white" font-family="monospace" dominant-baseline="ideographic">6</text><rect x="114" y="233.5" width="64" height="1" fill="white" fill-opacity="0.2" /><rect x="114" y="280.0" width="64" height="1" fill="white" fill-opacity="0.2" /><rect x="114" y="326.5" width="64" height="1" fill="white" fill-opacity="0.2" /><rect x="114" y="373.0" width="64" height="1" fill="white" fill-opacity="0.5" /><text x="188" y="387.0" font-size="14" fill="white" font-family="monospace" dominant-baseline="ideographic">7</text><rect x="114" y="420.0" width="64" height="1" fill="white" fill-opacity="0.2" /><rect x="114" y="466.5" width="64" height="1" fill="white" fill-opacity="0.2" /><rect x="114" y="513.0" width="64" height="1" fill="white" fill-opacity="0.2" /><rect x="114" y="559.5" width="64" height="1" fill="white" fill-opacity="0.5" /><text x="188" y="573.5" font-size="14" fill="white" font-family="monospace" dominant-baseline="ideographic">8</text><rect x="114" y="606.5" width="64" height="1" fill="white" fill-opacity="0.2" /><rect x="114" y="653.0" width="64" height="1" fill="white" fill-opacity="0.2" /><rect x="114" y="699.5" width="64" height="1" fill="white" fill-opacity="0.2" /><rect x="114" y="746.0" width="64" height="1" fill="white" fill-opacity="0.5" /><text x="188" y="760.0" font-size="14" fill="white" font-family="monospace" dominant-baseline="ideographic">9</text><rect x="228" y="0" width="64" height="746.5" fill="black" /><rect x="228" y="0.0" width="64" height="1" fill="white" fill-opacity="0.5" /><text x="302" y="14.0" font-size="14" fill="white" font-family="monospace" dominant-baseline="ideographic">9</text><rect x="228" y="47.0" width="64" height="1" fill="white" fill-opacity="0.2" /><rect x="228" y="93.5" width="64" height="1" fill="white" fill-opacity="0.2" /><rect x="228" y="140.0" width="64" height="1" fill="white" fill-opacity="0.2" /><rect x="228" y="187.0" width="64" height="1" fill="white" fill-opacity="0.5" /><text x="302" y="201.0" font-size="14" fill="white" font-family="monospace" dominant-baseline="ideographic">10</text><rect x="228" y="233.5" width="64" height="1" fill="white" fill-opacity="0.2" /><rect x="228" y="280.0" width="64" height="1" fill="white" fill-opacity="0.2" /><rect x="228" y="326.5" width="64" height="1" fill="white" fill-opacity="0.2" /><rect x="228" y="373.5" width="64" height="1" fill="white" fill-opacity="0.5" /><text x="302" y="387.5" font-size="14" fill="white" font-family="monospace" dominant-baseline="ideographic">11</text><rect x="228" y="420.0" width="64" height="1" fill="white" fill-opacity="0.2" /><rect x="228" y="466.5" width="64" height="1" fill="white" fill-opacity="0.2" /><rect x="228" y="513.0" width="64" height="1" fill="white" fill-opacity="0.2" /><rect x="228" y="560.0" width="64" height="1" fill="white" fill-opacity="0.5" /><text x="302" y="574.0" font-size="14" fill="white" font-family="monospace" dominant-baseline="ideographic">12</text><rect x="228" y="606.5" width="64" height="1" fill="white" fill-opacity="0.2" /><rect x="228" y="653.0" width="64" height="1" fill="white" fill-opacity="0.2" /><rect x="228" y="699.5" width="64" height="1" fill="white" fill-opacity="0.2" /><rect x="228" y="746.5" width="64" height="1" fill="white" fill-opacity="0.5" /><text x="302" y="760.5" font-size="14" fill="white" font-family="monospace" dominant-baseline="ideographic">13</text><rect x="228" y="186.79999999999995" width="64" height="1" fill="aqua" fill-opacity="0.75" /><text x="228" y="200.79999999999995" font-size="14" fill="aqua" fill-opacity="0.75" font-family="monospace">Phrase A</text><rect x="342" y="0" width="64" height="746.0" fill="black" /><rect x="342" y="0.0" width="64" height="1" fill="white" fill-opacity="0.5" /><text x="416" y="14.0" font-size="14" fill="white" font-family="monospace" dominant-baseline="ideographic">13</text><rect x="342" y="46.5" width="64" height="1" fill="white" fill-opacity="0.2" /><rect x="342" y="93.0" width="64" height="1" fill="white" fill-opacity="0.2" /><rect x="342" y="139.5" width="64" height="1" fill="white" fill-opacity="0.2" /><rect x="342" y="186.5" width="64" height="1" fill="white" fill-opacity="0.5" /><text x="416" y="200.5" font-size="14" fill="white" font-family="monospace" dominant-baseline="ideographic">14</text><rect x="342" y="233.0" width="64" height="1" fill="white" fill-opacity="0.2" /><rect x="342" y="279.5" width="64" height="1" fill="white" fill-opacity="0.2" /><rect x="342" y="326.5" width="64" height="1" fill="white" fill-opacity="0.2" /><rect x="342" y="373.0" width="64" height="1" fill="white" fill-opacity="0.5" /><text x="416" y="387.0" font-size="14" fill="white" font-family="monospace" dominant-baseline="ideographic">15</text><rect x="342" y="419.5" width="64" height="1" fill="white" fill-opacity="0.2" /><rect x="342" y="466.0" width="64" height="1" fill="white" fill-opacity="0.2" /><rect x="342" y="513.0" width="64" height="1" fill="white" fill-opacity="0.2" /><rect x="342" y="559.5" width="64" height="1" fill="white" fill-opacity="0.5" /><text x="416" y="573.5" font-size="14" fill="white" font-family="monospace" dominant-baseline="ideographic">16</text><rect x="342" y="606.0" width="64" height="1" fill="white" fill-opacity="0.2" /><rect x="342" y="652.5" width="64" height="1" fill="white" fill-opacity="0.2" /><rect x="342" y="699.5" width="64" height="1" fill="white" fill-opacity="0.2" /><rect x="342" y="746.0" width="64" height="1" fill="white" fill-opacity="0.5" /><text x="416" y="760.0" font-size="14" fill="white" font-family="monospace" dominant-baseline="ideographic">17</text><rect x="456" y="0" width="64" height="746.0" fill="black" /><rect x="456" y="0.0" width="64" height="1" fill="white" fill-opacity="0.5" /><text x="530" y="14.0" font-size="14" fill="white" font-family="monospace" dominant-baseline="ideographic">17</text><rect x="456" y="46.5" width="64" height="1" fill="white" fill-opacity="0.2" /><rect x="456" y="93.0" width="64" height="1" fill="white" fill-opacity="0.2" /><rect x="456" y="140.0" width="64" height="1" fill="white" fill-opacity="0.2" /><rect x="456" y="186.5" width="64" height="1" fill="white" fill-opacity="0.5" /><text x="530" y="200.5" font-size="14" fill="white" font-family="monospace" dominant-baseline="ideographic">18</text><rect x="456" y="233.0" width="64" height="1" fill="white" fill-opacity="0.2" /><rect x="456" y="279.5" width="64" height="1" fill="white" fill-opacity="0.2" /><rect x="456" y="326.5" width="64" height="1" fill="white" fill-opacity="0.2" /><rect x="456" y="373.0" width="64" height="1" fill="white" fill-opacity="0.5" /><text x="530" y="387.0" font-size="14" fill="white" font-family="monospace" dominant-baseline="ideographic">19</text><rect x="456" y="419.5" width="64" height="1" fill="white" fill-opacity="0.2" /><rect x="456" y="466.5" width="64" height="1" fill="white" fill-opacity="0.2" /><rect x="456" y="513.0" width="64" height="1" fill="white" fill-opacity="0.2" /><rect x="456" y="559.5" width="64" height="1" fill="white" fill-opacity="0.5" /><text x="530" y="573.5" font-size="14" fill="white" font-family="monospace" dominant-baseline="ideographic">20</text><rect x="456" y="606.0" width="64" height="1" fill="white" fill-opacity="0.2" /><rect x="456" y="653.0" width="64" height="1" fill="white" fill-opacity="0.2" /><rect x="456" y="699.5" width="64" height="1" fill="white" fill-opacity="0.2" /><rect x="456" y="746.0" width="64" height="1" fill="white" fill-opacity="0.5" /><text x="530" y="760.0" font-size="14" fill="white" font-family="monospace" dominant-baseline="ideographic">21</text><rect x="456" y="186.5" width="64" height="1" fill="aqua" fill-opacity="0.75" /><text x="456" y="200.5" font-size="14" fill="aqua" fill-opacity="0.75" font-family="monospace">Phrase B</text><rect x="570" y="0" width="64" height="746.0" fill="black" /><rect x="570" y="0.0" width="64" height="1" fill="white" fill-opacity="0.5" /><text x="644" y="14.0" font-size="14" fill="white" font-family="monospace" dominant-baseline="ideographic">21</text><rect x="570" y="46.5" width="64" height="1" fill="white" fill-opacity="0.2" /><rect x="570" y="93.5" width="64" height="1" fill="white" fill-opacity="0.2" /><rect x="570" y="140.0" width="64" height="1" fill="white" fill-opacity="0.2" /><rect x="570" y="186.5" width="64" height="1" fill="white" fill-opacity="0.5" /><text x="644" y="200.5" font-size="14" fill="white" font-family="monospace" dominant-baseline="ideographic">22</text><rect x="570" y="233.0" width="64" height="1" fill="white" fill-opacity="0.2" /><rect x="570" y="280.0" width="64" height="1" fill="white" fill-opacity="0.2" /><rect x="570" y="326.5" width="64" height="1" fill="white" fill-opacity="0.2" /><rect x="570" y="373.0" width="64" height="1" fill="white" fill-opacity="0.5" /><text x="644" y="387.0" font-size="14" fill="white" font-family="monospace" dominant-baseline="ideographic">23</text><rect x="570" y="419.5" width="64" height="1" fill="white" fill-opacity="0.2" /><rect x="570" y="466.5" width="64" height="1" fill="white" fill-opacity="0.2" /><rect x="570" y="513.0" width="64" height="1" fill="white" fill-opacity="0.2" /><rect x="570" y="559.5" width="64" height="1" fill="white" fill-opacity="0.5" /><text x="644" y="573.5" font-size="14" fill="white" font-family="monospace" dominant-baseline="ideographic">24</text><rect x="570" y="606.5" width="64" height="1" fill="white" fill-opacity="0.2" /><rect x="570" y="653.0" width="64" height="1" fill="white" fill-opacity="0.2" /><rect x="570" y="699.5" width="64" height="1" fill="white" fill-opacity="0.2" /><rect x="570" y="746.0" width="64" height="1" fill="white" fill-opacity="0.5" /><text x="644" y="760.0" font-size="14" fill="white" font-family="monospace" dominant-baseline="ideographic">25</text><rect x="684" y="0" width="64" height="746.5" fill="black" /><rect x="684" y="0.0" width="64" height="1" fill="white" fill-opacity="0.5" /><text x="758" y="14.0" font-size="14" fill="white" font-family="monospace" dominant-baseline="ideographic">25</text><rect x="684" y="47.0" width="64" height="1" fill="white" fill-opacity="0.2" /><rect x="684" y="93.5" width="64" height="1" fill="white" fill-opacity="0.2" /><rect x="684" y="140.0" width="64" height="1" fill="white" fill-opacity="0.2" /><rect x="684" y="186.5" width="64" height="1" fill="white" fill-opacity="0.5" /><text x="758" y="200.5" font-size="14" fill="white" font-family="monospace" dominant-baseline="ideographic">26</text><rect x="684" y="233.5" width="64" height="1" fill="white" fill-opacity="0.2" /><rect x="684" y="280.0" width="64" height="1" fill="white" fill-opacity="0.2" /><rect x="684" y="326.5" width="64" height="1" fill="white" fill-opacity="0.2" /><rect x="684" y="373.0" width="64" height="1" fill="white" fill-opacity="0.5" /><text x="758" y="387.0" font-size="14" fill="white" font-family="monospace" dominant-baseline="ideographic">27</text><rect x="684" y="420.0" width="64" height="1" fill="white" fill-opacity="0.2" /><rect x="684" y="466.5" width="64" height="1" fill="white" fill-opacity="0.2" /><rect x="684" y="513.0" width="64" height="1" fill="white" fill-opacity="0.2" /><rect x="684" y="560.0" width="64" height="1" fill="white" fill-opacity="0.5" /><text x="758" y="574.0" font-size="14" fill="white" font-family="monospace" dominant-baseline="ideographic">28</text><rect x="684" y="606.5" width="64" height="1" fill="white" fill-opacity="0.2" /><rect x="684" y="653.0" width="64" height="1" fill="white" fill-opacity="0.2" /><rect x="684" y="699.5" width="64" height="1" fill="white" fill-opacity="0.2" /><rect x="684" y="746.5" width="64" height="1" fill="white" fill-opacity="0.5" /><text x="758" y="760.5" font-size="14" fill="white" font-family="monospace" dominant-baseline="ideographic">29</text><rect x="798" y="0" width="64" height="746.0" fill="black" /><rect x="798" y="0.0" width="64" height="1" fill="white" fill-opacity="0.5" /><text x="872" y="14.0" font-size="14" fill="white" font-family="monospace" dominant-baseline="ideographic">29</text><rect x="798" y="46.5" width="64" height="1" fill="white" fill-opacity="0.2" /><rect x="798" y="93.0" width="64" height="1" fill="white" fill-opacity="0.2" /><rect x="798" y="139.5" width="64" height="1" fill="white" fill-opacity="0.2" /><rect x="798" y="186.5" width="64" height="1" fill="white" fill-opacity="0.5" /><text x="872" y="200.5" font-size="14" fill="white" font-family="monospace" dominant-baseline="ideographic">30</text><rect x="798" y="233.0" width="64" height="1" fill="white" fill-opacity="0.2" /><rect x="798" y="279.5" width="64" height="1" fill="white" fill-opacity="0.2" /><rect x="798" y="326.0" width="64" height="1" fill="white" fill-opacity="0.2" /><rect x="798" y="373.0" width="64" height="1" fill="white" fill-opacity="0.5" /><text x="872" y="387.0" font-size="14" fill="white" font-family="monospace" dominant-baseline="ideographic">31</text><rect x="798" y="419.5" width="64" height="1" fill="white" fill-opacity="0.2" /><rect x="798" y="466.0" width="64" height="1" fill="white" fill-opacity="0.2" /><rect x="798" y="512.5" width="64" height="1" fill="white" fill-opacity="0.2" /><rect x="798" y="559.5" width="64" height="1" fill="white" fill-opacity="0.5" /><text x="872" y="573.5" font-size="14" fill="white" font-family="monospace" dominant-baseline="ideographic">32</text><rect x="798" y="606.0" width="64" height="1" fill="white" fill-opacity="0.2" /><rect x="798" y="652.5" width="64" height="1" fill="white" fill-opacity="0.2" /><rect x="798" y="699.5" width="64" height="1" fill="white" fill-opacity="0.2" /><rect x="798" y="746.0" width="64" height="1" fill="white" fill-opacity="0.5" /><text x="872" y="760.0" font-size="14" fill="white" font-family="monospace" dominant-baseline="ideographic">33</text><rect x="912" y="0" width="64" height="746.0" fill="black" /><rect x="912" y="0.0" width="64" height="1" fill="white" fill-opacity="0.5" /><text x="986" y="14.0" font-size="14" fill="white" font-family="monospace" dominant-baseline="ideographic">33</text><rect x="912" y="46.5" width="64" height="1" fill="white" fill-opacity="0.2" /><rect x="912" y="93.0" width="64" height="1" fill="white" fill-opacity="0.2" /><rect x="912" y="140.0" width="64" height="1" fill="white" fill-opacity="0.2" /><rect x="912" y="186.5" width="64" height="1" fill="white" fill-opacity="0.5" /><text x="986" y="200.5" font-size="14" fill="white" font-family="monospace" dominant-baseline="ideographic">34</text><rect x="912" y="233.0" width="64" height="1" fill="white" fill-opacity="0.2" /><rect x="912" y="279.5" width="64" height="1" fill="white" fill-opacity="0.2" /><rect x="912" y="326.5" width="64" height="1" fill="white" fill-opacity="0.2" /><rect x="912" y="373.0" width="64" height="1" fill="white" fill-opacity="0.5" /><text x="986" y="387.0" font-size="14" fill="white" font-family="monospace" dominant-baseline="ideographic">35</text><rect x="912" y="419.5" width="64" height="1" fill="white" fill-opacity="0.2" /><rect x="912" y="466.0" width="64" height="1" fill="white" fill-opacity="0.2" /><rect x="912" y="513.0" width="64" height="1" fill="white" fill-opacity="0.2" /><rect x="912" y="559.5" width="64" height="1" fill="white" fill-opacity="0.5" /><text x="986" y="573.5" font-size="14" fill="white" font-family="monospace" dominant-baseline="ideographic">36</text><rect x="912" y="606.0" width="64" height="1" fill="white" fill-opacity="0.2" /><rect x="912" y="652.5" width="64" height="1" fill="white" fill-opacity="0.2" /><rect x="912" y="699.5" width="64" height="1" fill="white" fill-opacity="0.2" /><rect x="912" y="746.0" width="64" height="1" fill="white" fill-opacity="0.5" /><text x="986" y="760.0" font-size="14" fill="white" font-family="monospace" dominant-baseline="ideographic">37</text><rect x="912" y="186.39999999999964" width="64" height="1" fill="aqua" fill-opacity="0.75" /><text x="912" y="200.39999999999964" font-size="14" fill="aqua" fill-opacity="0.75" font-family="monospace">Phrase C</text><rect x="1026" y="0" width="64" height="746.0" fill="black" /><rect x="1026" y="0.0" width="64" height="1" fill="white" fill-opacity="0.5" /><text x="1100" y="14.0" font-size="14" fill="white" font-family="monospace" dominant-baseline="ideographic">37</text><rect x="1026" y="46.5" width="64" height="1" fill="white" fill-opacity="0.2" /><rect x="1026" y="93.5" width="64" height="1" fill="white" fill-opacity="0.2" /><rect x="1026" y="140.0" width="64" height="1" fill="white" fill-opacity="0.2" /><rect x="1026" y="186.5" width="64" height="1" fill="white" fill-opacity="0.5" /><text x="1100" y="200.5" font-size="14" fill="white" font-family="monospace" dominant-baseline="ideographic">38</text><rect x="1026" y="233.0" width="64" height="1" fill="white" fill-opacity="0.2" /><rect x="1026" y="280.0" width="64" height="1" fill="white" fill-opacity="0.2" /><rect x="1026" y="326.5" width="64" height="1" fill="white" fill-opacity="0.2" /><rect x="1026" y="373.0" width="64" height="1" fill="white" fill-opacity="0.5" /><text x="1100" y="387.0" font-size="14" fill="white" font-family="monospace" dominant-baseline="ideographic">39</text><rect x="1026" y="419.5" width="64" height="1" fill="white" fill-opacity="0.2" /><rect x="1026" y="466.5" width="64" height="1" fill="white" fill-opacity="0.2" /><rect x="1026" y="513.0" width="64" height="1" fill="white" fill-opacity="0.2" /><rect x="1026" y="559.5" width="64" height="1" fill="white" fill-opacity="0.5" /><text x="1100" y="573.5" font-size="14" fill="white" font-family="monospace" dominant-baseline="ideographic">40</text><rect x="1026" y="606.0" width="64" height="1" fill="white" fill-opacity="0.2" /><rect x="1026" y="653.0" width="64" height="1" fill="white" fill-opacity="0.2" /><rect x="1026" y="699.5" width="64" height="1" fill="white" fill-opacity="0.2" /><rect x="1026" y="746.0" width="64" height="1" fill="white" fill-opacity="0.5" /><text x="1100" y="760.0" font-size="14" fill="white" font-family="monospace" dominant-baseline="ideographic">41</text><rect x="1140" y="0" width="64" height="746.0" fill="black" /><rect x="1140" y="0.0" width="64" height="1" fill="white" fill-opacity="0.5" /><text x="1214" y="14.0" font-size="14" fill="white" font-family="monospace" dominant-baseline="ideographic">41</text><rect x="1140" y="47.0" width="64" height="1" fill="white" fill-opacity="0.2" /><rect x="1140" y="93.5" width="64" height="1" fill="white" fill-opacity="0.2" /><rect x="1140" y="140.0" width="64" height="1" fill="white" fill-opacity="0.2" /><rect x="1140" y="186.5" width="64" height="1" fill="white" fill-opacity="0.5" /><text x="1214" y="200.5" font-size="14" fill="white" font-family="monospace" dominant-baseline="ideographic">42</text><rect x="1140" y="233.5" width="64" height="1" fill="white" fill-opacity="0.2" /><rect x="1140" y="280.0" width="64" height="1" fill="white" fill-opacity="0.2" /><rect x="1140" y="326.5" width="64" height="1" fill="white" fill-opacity="0.2" /><rect x="1140" y="373.0" width="64" height="1" fill="white" fill-opacity="0.5" /><text x="1214" y="387.0" font-size="14" fill="white" font-family="monospace" dominant-baseline="ideographic">43</text><rect x="1140" y="420.0" width="64" height="1" fill="white" fill-opacity="0.2" /><rect x="1140" y="466.5" width="64" height="1" fill="white" fill-opacity="0.2" /><rect x="1140" y="513.0" width="64" height="1" fill="white" fill-opacity="0.2" /><rect x="1140" y="559.5" width="64" height="1" fill="white" fill-opacity="0.5" /><text x="1214" y="573.5" font-size="14" fill="white" font-family="monospace" dominant-baseline="ideographic">44</text><rect x="1140" y="606.5" width="64" height="1" fill="white" fill-opacity="0.2" /><rect x="1140" y="653.0" width="64" height="1" fill="white" fill-opacity="0.2" /><rect x="1140" y="699.5" width="64" height="1" fill="white" fill-opacity="0.2" /><rect x="1140" y="746.0" width="64" height="1" fill="white" fill-opacity="0.5" /><text x="1214" y="760.0" font-size="14" fill="white" font-family="monospace" dominant-baseline="ideographic">45</text><rect x="1254" y="0" width="64" height="746.5" fill="black" /><rect x="1254" y="0.0" width="64" height="1" fill="white" fill-opacity="0.5" /><text x="1328" y="14.0" font-size="14" fill="white" font-family="monospace" dominant-baseline="ideographic">45</text><rect x="1254" y="47.0" width="64" height="1" fill="white" fill-opacity="0.2" /><rect x="1254" y="93.5" width="64" height="1" fill="white" fill-opacity="0.2" /><rect x="1254" y="140.0" width="64" height="1" fill="white" fill-opacity="0.2" /><rect x="1254" y="187.0" width="64" height="1" fill="white" fill-opacity="0.5" /><text x="1328" y="201.0" font-size="14" fill="white" font-family="monospace" dominant-baseline="ideographic">46</text><rect x="1254" y="233.5" width="64" height="1" fill="white" fill-opacity="0.2" /><rect x="1254" y="280.0" width="64" height="1" fill="white" fill-opacity="0.2" /><rect x="1254" y="326.5" width="64" height="1" fill="white" fill-opacity="0.2" /><rect x="1254" y="373.5" width="64" height="1" fill="white" fill-opacity="0.5" /><text x="1328" y="387.5" font-size="14" fill="white" font-family="monospace" dominant-baseline="ideographic">47</text><rect x="1254" y="420.0" width="64" height="1" fill="white" fill-opacity="0.2" /><rect x="1254" y="466.5" width="64" height="1" fill="white" fill-opacity="0.2" /><rect x="1254" y="513.0" width="64" height="1" fill="white" fill-opacity="0.2" /><rect x="1254" y="560.0" width="64" height="1" fill="white" fill-opacity="0.5" /><text x="1328" y="574.0" font-size="14" fill="white" font-family="monospace" dominant-baseline="ideographic">48</text><rect x="1254" y="606.5" width="64" height="1" fill="white" fill-opacity="0.2" /><rect x="1254" y="653.0" width="64" height="1" fill="white" fill-opacity="0.2" /><rect x="1254" y="699.5" width="64" height="1" fill="white" fill-opacity="0.2" /><rect x="1254" y="746.5" width="64" height="1" fill="white" fill-opacity="0.5" /><text x="1328" y="760.5" font-size="14" fill="white" font-family="monospace" dominant-baseline="ideographic">49</text><rect x="1368" y="0" width="64" height="746.0" fill="black" /><rect x="1368" y="0.0" width="64" height="1" fill="white" fill-opacity="0.5" /><text x="1442" y="14.0" font-size="14" fill="white" font-family="monospace" dominant-baseline="ideographic">49</text><rect x="1368" y="46.5" width="64" height="1" fill="white" fill-opacity="0.2" /><rect x="1368" y="93.0" width="64" height="1" fill="white" fill-opacity="0.2" /><rect x="1368" y="139.5" width="64" height="1" fill="white" fill-opacity="0.2" /><rect x="1368" y="186.5" width="64" height="1" fill="white" fill-opacity="0.5" /><text x="1442" y="200.5" font-size="14" fill="white" font-family="monospace" dominant-baseline="ideographic">50</text><rect x="1368" y="233.0" width="64" height="1" fill="white" fill-opacity="0.2" /><rect x="1368" y="279.5" width="64" height="1" fill="white" fill-opacity="0.2" /><rect x="1368" y="326.5" width="64" height="1" fill="white" fill-opacity="0.2" /><rect x="1368" y="373.0" width="64" height="1" fill="white" fill-opacity="0.5" /><text x="1442" y="387.0" font-size="14" fill="white" font-family="monospace" dominant-baseline="ideographic">51</text><rect x="1368" y="419.5" width="64" height="1" fill="white" fill-opacity="0.2" /><rect x="1368" y="466.0" width="64" height="1" fill="white" fill-opacity="0.2" /><rect x="1368" y="513.0" width="64" height="1" fill="white" fill-opacity="0.2" /><rect x="1368" y="559.5" width="64" height="1" fill="white" fill-opacity="0.5" /><text x="1442" y="573.5" font-size="14" fill="white" font-family="monospace" dominant-baseline="ideographic">52</text><rect x="1368" y="606.0" width="64" height="1" fill="white" fill-opacity="0.2" /><rect x="1368" y="652.5" width="64" height="1" fill="white" fill-opacity="0.2" /><rect x="1368" y="699.5" width="64" height="1" fill="white" fill-opacity="0.2" /><rect x="1368" y="746.0" width="64" height="1" fill="white" fill-opacity="0.5" /><text x="1442" y="760.0" font-size="14" fill="white" font-family="monospace" dominant-baseline="ideographic">53</text><rect x="1368" y="186.29999999999927" width="64" height="1" fill="aqua" fill-opacity="0.75" /><text x="1368" y="200.29999999999927" font-size="14" fill="aqua" fill-opacity="0.75" font-family="monospace">Special</text><rect x="1482" y="0" width="64" height="746.0" fill="black" /><rect x="1482" y="0.0" width="64" height="1" fill="white" fill-opacity="0.5" /><text x="1556" y="14.0" font-size="14" fill="white" font-family="monospace" dominant-baseline="ideographic">53</text><rect x="1482" y="46.5" width="64" height="1" fill="white" fill-opacity="0.2" /><rect x="1482" y="93.0" width="64" height="1" fill="white" fill-opacity="0.2" /><rect x="1482" y="140.0" width="64" height="1" fill="white" fill-opacity="0.2" /><rect x="1482" y="186.5" width="64" height="1" fill="white" fill-opacity="0.5" /><text x="1556" y="200.5" font-size="14" fill="white" font-family="monospace" dominant-baseline="ideographic">54</text><rect x="1482" y="233.0" width="64" height="1" fill="white" fill-opacity="0.2" /><rect x="1482" y="279.5" width="64" height="1" fill="white" fill-opacity="0.2" /><rect x="1482" y="326.5" width="64" height="1" fill="white" fill-opacity="0.2" /><rect x="1482" y="373.0" width="64" height="1" fill="white" fill-opacity="0.5" /><text x="1556" y="387.0" font-size="14" fill="white" font-family="monospace" dominant-baseline="ideographic">55</text><rect x="1482" y="419.5" width="64" height="1" fill="white" fill-opacity="0.2" /><rect x="1482" y="466.5" width="64" height="1" fill="white" fill-opacity="0.2" /><rect x="1482" y="513.0" width="64" height="1" fill="white" fill-opacity="0.2" /><rect x="1482" y="559.5" width="64" height="1" fill="white" fill-opacity="0.5" /><text x="1556" y="573.5" font-size="14" fill="white" font-family="monospace" dominant-baseline="ideographic">56</text><rect x="1482" y="606.0" width="64" height="1" fill="white" fill-opacity="0.2" /><rect x="1482" y="653.0" width="64" height="1" fill="white" fill-opacity="0.2" /><rect x="1482" y="699.5" width="64" height="1" fill="white" fill-opacity="0.2" /><rect x="1482" y="746.0" width="64" height="1" fill="white" fill-opacity="0.5" /><text x="1556" y="760.0" font-size="14" fill="white" font-family="monospace" dominant-baseline="ideographic">57</text><rect x="1596" y="0" width="64" height="746.0" fill="black" /><rect x="1596" y="0.0" width="64" height="1" fill="white" fill-opacity="0.5" /><text x="1670" y="14.0" font-size="14" fill="white" font-family="monospace" dominant-baseline="ideographic">57</text><rect x="1596" y="46.5" width="64" height="1" fill="white" fill-opacity="0.2" /><rect x="1596" y="93.5" width="64" height="1" fill="white" fill-opacity="0.2" /><rect x="1596" y="140.0" width="64" height="1" fill="white" fill-opacity="0.2" /><rect x="1596" y="186.5" width="64" height="1" fill="white" fill-opacity="0.5" /><text x="1670" y="200.5" font-size="14" fill="white" font-family="monospace" dominant-baseline="ideographic">58</text><rect x="1596" y="233.0" width="64" height="1" fill="white" fill-opacity="0.2" /><rect x="1596" y="280.0" width="64" height="1" fill="white" fill-opacity="0.2" /><rect x="1596" y="326.5" width="64" height="1" fill="white" fill-opacity="0.2" /><rect x="1596" y="373.0" width="64" height="1" fill="white" fill-opacity="0.5" /><text x="1670" y="387.0" font-size="14" fill="white" font-family="monospace" dominant-baseline="ideographic">59</text><rect x="1596" y="420.0" width="64" height="1" fill="white" fill-opacity="0.2" /><rect x="1596" y="466.5" width="64" height="1" fill="white" fill-opacity="0.2" /><rect x="1596" y="513.0" width="64" height="1" fill="white" fill-opacity="0.2" /><rect x="1596" y="559.5" width="64" height="1" fill="white" fill-opacity="0.5" /><text x="1670" y="573.5" font-size="14" fill="white" font-family="monospace" dominant-baseline="ideographic">60</text><rect x="1596" y="606.5" width="64" height="1" fill="white" fill-opacity="0.2" /><rect x="1596" y="653.0" width="64" height="1" fill="white" fill-opacity="0.2" /><rect x="1596" y="699.5" width="64" height="1" fill="white" fill-opacity="0.2" /><rect x="1596" y="746.0" width="64" height="1" fill="white" fill-opacity="0.5" /><text x="1670" y="760.0" font-size="14" fill="white" font-family="monospace" dominant-baseline="ideographic">61</text><rect x="1710" y="0" width="64" height="746.5" fill="black" /><rect x="1710" y="0.0" width="64" height="1" fill="white" fill-opacity="0.5" /><text x="1784" y="14.0" font-size="14" fill="white" font-family="monospace" dominant-baseline="ideographic">61</text><rect x="1710" y="47.0" width="64" height="1" fill="white" fill-opacity="0.2" /><rect x="1710" y="93.5" width="64" height="1" fill="white" fill-opacity="0.2" /><rect x="1710" y="140.0" width="64" height="1" fill="white" fill-opacity="0.2" /><rect x="1710" y="186.5" width="64" height="1" fill="white" fill-opacity="0.5" /><text x="1784" y="200.5" font-size="14" fill="white" font-family="monospace" dominant-baseline="ideographic">62</text><rect x="1710" y="233.5" width="64" height="1" fill="white" fill-opacity="0.2" /><rect x="1710" y="280.0" width="64" height="1" fill="white" fill-opacity="0.2" /><rect x="1710" y="326.5" width="64" height="1" fill="white" fill-opacity="0.2" /><rect x="1710" y="373.0" width="64" height="1" fill="white" fill-opacity="0.5" /><text x="1784" y="387.0" font-size="14" fill="white" font-family="monospace" dominant-baseline="ideographic">63</text><rect x="1710" y="420.0" width="64" height="1" fill="white" fill-opacity="0.2" /><rect x="1710" y="466.5" width="64" height="1" fill="white" fill-opacity="0.2" /><rect x="1710" y="513.0" width="64" height="1" fill="white" fill-opacity="0.2" /><rect x="1710" y="560.0" width="64" height="1" fill="white" fill-opacity="0.5" /><text x="1784" y="574.0" font-size="14" fill="white" font-family="monospace" dominant-baseline="ideographic">64</text><rect x="1710" y="606.5" width="64" height="1" fill="white" fill-opacity="0.2" /><rect x="1710" y="653.0" width="64" height="1" fill="white" fill-opacity="0.2" /><rect x="1710" y="699.5" width="64" height="1" fill="white" fill-opacity="0.2" /><rect x="1710" y="746.5" width="64" height="1" fill="white" fill-opacity="0.5" /><text x="1784" y="760.5" font-size="14" fill="white" font-family="monospace" dominant-baseline="ideographic">65</text><rect x="1824" y="0" width="64" height="746.0" fill="black" /><rect x="1824" y="0.0" width="64" height="1" fill="white" fill-opacity="0.5" /><text x="1898" y="14.0" font-size="14" fill="white" font-family="monospace" dominant-baseline="ideographic">65</text><rect x="1824" y="46.5" width="64" height="1" fill="white" fill-opacity="0.2" /><rect x="1824" y="93.0" width="64" height="1" fill="white" fill-opacity="0.2" /><rect x="1824" y="139.5" width="64" height="1" fill="white" fill-opacity="0.2" /><rect x="1824" y="186.5" width="64" height="1" fill="white" fill-opacity="0.5" /><text x="1898" y="200.5" font-size="14" fill="white" font-family="monospace" dominant-baseline="ideographic">66</text><rect x="1824" y="233.0" width="64" height="1" fill="white" fill-opacity="0.2" /><rect x="1824" y="279.5" width="64" height="1" fill="white" fill-opacity="0.2" /><rect x="1824" y="326.0" width="64" height="1" fill="white" fill-opacity="0.2" /><rect x="1824" y="373.0" width="64" height="1" fill="white" fill-opacity="0.5" /><text x="1898" y="387.0" font-size="14" fill="white" font-family="monospace" dominant-baseline="ideographic">67</text><rect x="1824" y="419.5" width="64" height="1" fill="white" fill-opacity="0.2" /><rect x="1824" y="466.0" width="64" height="1" fill="white" fill-opacity="0.2" /><rect x="1824" y="512.5" width="64" height="1" fill="white" fill-opacity="0.2" /><rect x="1824" y="559.5" width="64" height="1" fill="white" fill-opacity="0.5" /><text x="1898" y="573.5" font-size="14" fill="white" font-family="monospace" dominant-baseline="ideographic">68</text><rect x="1824" y="606.0" width="64" height="1" fill="white" fill-opacity="0.2" /><rect x="1824" y="652.5" width="64" height="1" fill="white" fill-opacity="0.2" /><rect x="1824" y="699.5" width="64" height="1" fill="white" fill-opacity="0.2" /><rect x="1824" y="746.0" width="64" height="1" fill="white" fill-opacity="0.5" /><text x="1898" y="760.0" font-size="14" fill="white" font-family="monospace" dominant-baseline="ideographic">69</text><rect x="1824" y="186.35000000000036" width="64" height="1" fill="aqua" fill-opacity="0.75" /><text x="1824" y="200.35000000000036" font-size="14" fill="aqua" fill-opacity="0.75" font-family="monospace">Phrase A</text><rect x="1938" y="0" width="64" height="746.0" fill="black" /><rect x="1938" y="0.0" width="64" height="1" fill="white" fill-opacity="0.5" /><text x="2012" y="14.0" font-size="14" fill="white" font-family="monospace" dominant-baseline="ideographic">69</text><rect x="1938" y="46.5" width="64" height="1" fill="white" fill-opacity="0.2" /><rect x="1938" y="93.0" width="64" height="1" fill="white" fill-opacity="0.2" /><rect x="1938" y="140.0" width="64" height="1" fill="white" fill-opacity="0.2" /><rect x="1938" y="186.5" width="64" height="1" fill="white" fill-opacity="0.5" /><text x="2012" y="200.5" font-size="14" fill="white" font-family="monospace" dominant-baseline="ideographic">70</text><rect x="1938" y="233.0" width="64" height="1" fill="white" fill-opacity="0.2" /><rect x="1938" y="279.5" width="64" height="1" fill="white" fill-opacity="0.2" /><rect x="1938" y="326.5" width="64" height="1" fill="white" fill-opacity="0.2" /><rect x="1938" y="373.0" width="64" height="1" fill="white" fill-opacity="0.5" /><text x="2012" y="387.0" font-size="14" fill="white" font-family="monospace" dominant-baseline="ideographic">71</text><rect x="1938" y="419.5" width="64" height="1" fill="white" fill-opacity="0.2" /><rect x="1938" y="466.0" width="64" height="1" fill="white" fill-opacity="0.2" /><rect x="1938" y="513.0" width="64" height="1" fill="white" fill-opacity="0.2" /><rect x="1938" y="559.5" width="64" height="1" fill="white" fill-opacity="0.5" /><text x="2012" y="573.5" font-size="14" fill="white" font-family="monospace" dominant-baseline="ideographic">72</text><rect x="1938" y="606.0" width="64" height="1" fill="white" fill-opacity="0.2" /><rect x="1938" y="653.0" width="64" height="1" fill="white" fill-opacity="0.2" /><rect x="1938" y="699.5" width="64" height="1" fill="white" fill-opacity="0.2" /><rect x="1938" y="746.0" width="64" height="1" fill="white" fill-opacity="0.5" /><text x="2012" y="760.0" font-size="14" fill="white" font-family="monospace" dominant-baseline="ideographic">73</text><rect x="2052" y="0" width="64" height="746.0" fill="black" /><rect x="2052" y="0.0" width="64" height="1" fill="white" fill-opacity="0.5" /><text x="2126" y="14.0" font-size="14" fill="white" font-family="monospace" dominant-baseline="ideographic">73</text><rect x="2052" y="46.5" width="64" height="1" fill="white" fill-opacity="0.2" /><rect x="2052" y="93.5" width="64" height="1" fill="white" fill-opacity="0.2" /><rect x="2052" y="140.0" width="64" height="1" fill="white" fill-opacity="0.2" /><rect x="2052" y="186.5" width="64" height="1" fill="white" fill-opacity="0.5" /><text x="2126" y="200.5" font-size="14" fill="white" font-family="monospace" dominant-baseline="ideographic">74</text><rect x="2052" y="233.0" width="64" height="1" fill="white" fill-opacity="0.2" /><rect x="2052" y="280.0" width="64" height="1" fill="white" fill-opacity="0.2" /><rect x="2052" y="326.5" width="64" height="1" fill="white" fill-opacity="0.2" /><rect x="2052" y="373.0" width="64" height="1" fill="white" fill-opacity="0.5" /><text x="2126" y="387.0" font-size="14" fill="white" font-family="monospace" dominant-baseline="ideographic">75</text><rect x="2052" y="419.5" width="64" height="1" fill="white" fill-opacity="0.2" /><rect x="2052" y="466.5" width="64" height="1" fill="white" fill-opacity="0.2" /><rect x="2052" y="513.0" width="64" height="1" fill="white" fill-opacity="0.2" /><rect x="2052" y="559.5" width="64" height="1" fill="white" fill-opacity="0.5" /><text x="2126" y="573.5" font-size="14" fill="white" font-family="monospace" dominant-baseline="ideographic">76</text><rect x="2052" y="606.0" width="64" height="1" fill="white" fill-opacity="0.2" /><rect x="2052" y="653.0" width="64" height="1" fill="white" fill-opacity="0.2" /><rect x="2052" y="699.5" width="64" height="1" fill="white" fill-opacity="0.2" /><rect x="2052" y="746.0" width="64" height="1" fill="white" fill-opacity="0.5" /><text x="2126" y="760.0" font-size="14" fill="white" font-family="monospace" dominant-baseline="ideographic">77</text><rect x="2052" y="186.54999999999927" width="64" height="1" fill="aqua" fill-opacity="0.75" /><text x="2052" y="200.54999999999927" font-size="14" fill="aqua" fill-opacity="0.75" font-family="monospace">Outro</text><rect x="2166" y="0" width="64" height="707.5" fill="black" /><rect x="2166" y="0.0" width="64" height="1" fill="white" fill-opacity="0.5" /><text x="2240" y="14.0" font-size="14" fill="white" font-family="monospace" dominant-baseline="ideographic">77</text><rect x="2166" y="47.0" width="64" height="1" fill="white" fill-opacity="0.2" /><rect x="2166" y="93.5" width="64" height="1" fill="white" fill-opacity="0.2" /><rect x="2166" y="140.0" width="64" height="1" fill="white" fill-opacity="0.2" /><rect x="2166" y="186.5" width="64" height="1" fill="white" fill-opacity="0.5" /><text x="2240" y="200.5" font-size="14" fill="white" font-family="monospace" dominant-baseline="ideographic">78</text><rect x="2166" y="233.5" width="64" height="1" fill="white" fill-opacity="0.2" /><rect x="2166" y="280.0" width="64" height="1" fill="white" fill-opacity="0.2" /><rect x="2166" y="326.5" width="64" height="1" fill="white" fill-opacity="0.2" /><rect x="2166" y="373.0" width="64" height="1" fill="white" fill-opacity="0.5" /><text x="2240" y="387.0" font-size="14" fill="white" font-family="monospace" dominant-baseline="ideographic">79</text><rect x="2166" y="420.0" width="64" height="1" fill="white" fill-opacity="0.2" /><rect x="2166" y="466.5" width="64" height="1" fill="white" fill-opacity="0.2" /><rect x="2166" y="513.0" width="64" height="1" fill="white" fill-opacity="0.2" /><rect x="2166" y="559.5" width="64" height="1" fill="white" fill-opacity="0.5" /><text x="2240" y="573.5" font-size="14" fill="white" font-family="monospace" dominant-baseline="ideographic">80</text></svg>