<?xml version="1.0" encoding="UTF-8"?><svg xmlns="http://www.w3.org/2000/svg" xmlns:xlink="http://www.w3.org/1999/xlink"     width="2166" height="851.5" viewBox="0 0 2166 851.5"><defs></defs><rect x="0" y="0" width="64" height="837.0" fill="black" /><rect x="0" y="0.0" width="64" height="1" fill="white" fill-opacity="0.5" /><text x="74" y="14.0" font-size="14" fill="white" font-family="monospace" dominant-baseline="ideographic">1</text><rect x="0" y="52.5" width="64" height="1" fill="white" fill-opacity="0.2" /><rect x="0" y="104.5" width="64" height="1" fill="white" fill-opacity="0.2" /><rect x="0" y="157.0" width="64" height="1" fill="white" fill-opacity="0.2" /><rect x="0" y="209.5" width="64" height="1" fill="white" fill-opacity="0.5" /><text x="74" y="223.5" font-size="14" fill="white" font-family="monospace" dominant-baseline="ideographic">2</text><rect x="0" y="261.5" width="64" height="1" fill="white" fill-opacity="0.2" /><rect x="0" y="314.0" width="64" height="1" fill="white" fill-opacity="0.2" /><rect x="0" y="366.5" width="64" height="1" fill="white" fill-opacity="0.2" /><rect x="0" y="418.5" width="64" height="1" fill="white" fill-opacity="0.5" /><text x="74" y="432.5" font-size="14" fill="white" font-family="monospace" dominant-baseline="ideographic">3</text><rect x="0" y="471.0" width="64" height="1" fill="white" fill-opacity="0.2" /><rect x="0" y="523.5" width="64" height="1" fill="white" fill-opacity="0.2" /><rect x="0" y="575.5" width="64" height="1" fill="white" fill-opacity="0.2" /><rect x="0" y="628.0" width="64" height="1" fill="white" fill-opacity="0.5" /><text x="74" y="642.0" font-size="14" fill="white" font-family="monospace" dominant-baseline="ideographic">4</text><rect x="0" y="680.0" width="64" height="1" fill="white" fill-opacity="0.2" /><rect x="0" y="732.5" width="64" height="1" fill="white" fill-opacity="0.2" /><rect x="0" y="785.0" width="64" height="1" fill="white" fill-opacity="0.2" /><rect x="0" y="837.0" width="64" height="1" fill="white" fill-opacity="0.5" /><text x="74" y="851.0" font-size="14" fill="white" font-family="monospace" dominant-baseline="ideographic">5</text><rect x="0" y="0.0" width="64" height="1" fill="aqua" fill-opacity="0.75" /><text x="0" y="14.0" font-size="14" fill="aqua" fill-opacity="0.75" font-family="monospace">Phrase A</text><rect x="0" y="0.0" width="64" height="1" fill="lime" fill-opacity="0.75" /><text x="74" y="28.0" font-size="14" fill="lime" font-family="monospace" dominant-baseline="ideographic">172</text><rect x="114" y="0" width="64" height="837.5" fill="black" /><rect x="114" y="0.0" width="64" height="1" fill="white" fill-opacity="0.5" /><text x="188" y="14.0" font-size="14" fill="white" font-family="monospace" dominant-baseline="ideographic">5</text><rect x="114" y="52.5" width="64" height="1" fill="white" fill-opacity="0.2" /><rect x="114" y="105.0" width="64" height="1" fill="white" fill-opacity="0.2" /><rect x="114" y="157.0" width="64" height="1" fill="white" fill-opacity="0.2" /><rect x="114" y="209.5" width="64" height="1" fill="white" fill-opacity="0.5" /><text x="188" y="223.5" font-size="14" fill="white" font-family="monospace" dominant-baseline="ideographic">6</text><rect x="114" y="262.0" width="64" height="1" fill="white" fill-opacity="0.2" /><rect x="114" y="314.0" width="64" height="1" fill="white" fill-opacity="0.2" /><rect x="114" y="366.5" width="64" height="1" fill="white" fill-opacity="0.2" /><rect x="114" y="419.0" width="64" height="1" fill="white" fill-opacity="0.5" /><text x="188" y="433.0" font-size="14" fill="white" font-family="monospace" dominant-baseline="ideographic">7</text><rect x="114" y="471.0" width="64" height="1" fill="white" fill-opacity="0.2" /><rect x="114" y="523.5" width="64" height="1" fill="white" fill-opacity="0.2" /><rect x="114" y="576.0" width="64" height="1" fill="white" fill-opacity="0.2" /><rect x="114" y="628.0" width="64" height="1" fill="white" fill-opacity="0.5" /><text x="188" y="642.0" font-size="14" fill="white" font-family="monospace" dominant-baseline="ideographic">8</text><rect x="114" y="680.5" width="64" height="1" fill="white" fill-opacity="0.2" /><rect x="114" y="733.0" width="64" height="1" fill="white" fill-opacity="0.2" /><rect x="114" y="785.0" width="64" height="1" fill="white" fill-opacity="0.2" /><rect x="114" y="837.5" width="64" height="1" fill="white" fill-opacity="0.5" /><text x="188" y="851.5" font-size="14" fill="white" font-family="monospace" dominant-baseline="ideographic">9</text><rect x="228" y="0" width="64" height="837.0" fill="black" /><rect x="228" y="0.0" width="64" height="1" fill="white" fill-opacity="0.5" /><text x="302" y="14.0" font-size="14" fill="white" font-family="monospace" dominant-baseline="ideographic">9</text><rect x="228" y="52.0" width="64" height="1" fill="white" fill-opacity="0.2" /><rect x="228" y="104.5" width="64" height="1" fill="white" fill-opacity="0.2" /><rect x="228" y="157.0" width="64" height="1" fill="white" fill-opacity="0.2" /><rect x="228" y="209.0" width="64" height="1" fill="white" fill-opacity="0.5" /><text x="302" y="223.0" font-size="14" fill="white" font-family="monospace" dominant-baseline="ideographic">10</text><rect x="228" y="261.5" width="64" height="1" fill="white" fill-opacity="0.2" /><rect x="228" y="314.0" width="64" height="1" fill="white" fill-opacity="0.2" /><rect x="228" y="366.0" width="64" height="1" fill="white" fill-opacity="0.2" /><rect x="228" y="418.5" width="64" height="1" fill="white" fill-opacity="0.5" /><text x="302" y="432.5" font-size="14" fill="white" font-family="monospace" dominant-baseline="ideographic">11</text><rect x="228" y="471.0" width="64" height="1" fill="white" fill-opacity="0.2" /><rect x="228" y="523.0" width="64" height="1" fill="white" fill-opacity="0.2" /><rect x="228" y="575.5" width="64" height="1" fill="white" fill-opacity="0.2" /><rect x="228" y="628.0" width="64" height="1" fill="white" fill-opacity="0.5" /><text x="302" y="642.0" font-size="14" fill="white" font-family="monospace" dominant-baseline="ideographic">12</text><rect x="228" y="680.0" width="64" height="1" fill="white" fill-opacity="0.2" /><rect x="228" y="732.5" width="64" height="1" fill="white" fill-opacity="0.2" /><rect x="228" y="785.0" width="64" height="1" fill="white" fill-opacity="0.2" /><rect x="228" y="837.0" width="64" height="1" fill="white" fill-opacity="0.5" /><text x="302" y="851.0" font-size="14" fill="white" font-family="monospace" dominant-baseline="ideographic">13</text><rect x="228" y="627.8499999999999" width="64" height="1" fill="aqua" fill-opacity="0.75" /><text x="228" y="641.8499999999999" font-size="14" fill="aqua" fill-opacity="0.75" font-family="monospace">Intro</text><rect x="342" y="0" width="64" height="837.5" fill="black" /><rect x="342" y="0.0" width="64" height="1" fill="white" fill-opacity="0.5" /><text x="416" y="14.0" font-size="14" fill="white" font-family="monospace" dominant-baseline="ideographic">13</text><rect x="342" y="52.5" width="64" height="1" fill="white" fill-opacity="0.2" /><rect x="342" y="105.0" width="64" height="1" fill="white" fill-opacity="0.2" /><rect x="342" y="157.0" width="64" height="1" fill="white" fill-opacity="0.2" /><rect x="342" y="209.5" width="64" height="1" fill="white" fill-opacity="0.5" /><text x="416" y="223.5" font-size="14" fill="white" font-family="monospace" dominant-baseline="ideographic">14</text><rect x="342" y="262.0" width="64" height="1" fill="white" fill-opacity="0.2" /><rect x="342" y="314.0" width="64" height="1" fill="white" fill-opacity="0.2" /><rect x="342" y="366.5" width="64" height="1" fill="white" fill-opacity="0.2" /><rect x="342" y="418.5" width="64" height="1" fill="white" fill-opacity="0.5" /><text x="416" y="432.5" font-size="14" fill="white" font-family="monospace" dominant-baseline="ideographic">15</text><rect x="342" y="471.0" width="64" height="1" fill="white" fill-opacity="0.2" /><rect x="342" y="523.5" width="64" height="1" fill="white" fill-opacity="0.2" /><rect x="342" y="575.5" width="64" height="1" fill="white" fill-opacity="0.2" /><rect x="342" y="628.0" width="64" height="1" fill="white" fill-opacity="0.5" /><text x="416" y="642.0" font-size="14" fill="white" font-family="monospace" dominant-baseline="ideographic">16</text><rect x="342" y="680.5" width="64" height="1" fill="white" fill-opacity="0.2" /><rect x="342" y="732.5" width="64" height="1" fill="white" fill-opacity="0.2" /><rect x="342" y="785.0" width="64" height="1" fill="white" fill-opacity="0.2" /><rect x="342" y="837.5" width="64" height="1" fill="white" fill-opacity="0.5" /><text x="416" y="851.5" font-size="14" fill="white" font-family="monospace" dominant-baseline="ideographic">17</text><rect x="456" y="0" width="64" height="837.0" fill="black" /><rect x="456" y="0.0" width="64" height="1" fill="white" fill-opacity="0.5" /><text x="530" y="14.0" font-size="14" fill="white" font-family="monospace" dominant-baseline="ideographic">17</text><rect x="456" y="52.0" width="64" height="1" fill="white" fill-opacity="0.2" /><rect x="456" y="104.5" width="64" height="1" fill="white" fill-opacity="0.2" /><rect x="456" y="157.0" width="64" height="1" fill="white" fill-opacity="0.2" /><rect x="456" y="209.0" width="64" height="1" fill="white" fill-opacity="0.5" /><text x="530" y="223.0" font-size="14" fill="white" font-family="monospace" dominant-baseline="ideographic">18</text><rect x="456" y="261.5" width="64" height="1" fill="white" fill-opacity="0.2" /><rect x="456" y="314.0" width="64" height="1" fill="white" fill-opacity="0.2" /><rect x="456" y="366.0" width="64" height="1" fill="white" fill-opacity="0.2" /><rect x="456" y="418.5" width="64" height="1" fill="white" fill-opacity="0.5" /><text x="530" y="432.5" font-size="14" fill="white" font-family="monospace" dominant-baseline="ideographic">19</text><rect x="456" y="471.0" width="64" height="1" fill="white" fill-opacity="0.2" /><rect x="456" y="523.0" width="64" height="1" fill="white" fill-opacity="0.2" /><rect x="456" y="575.5" width="64" height="1" fill="white" fill-opacity="0.2" /><rect x="456" y="627.5" width="64" height="1" fill="white" fill-opacity="0.5" /><text x="530" y="641.5" font-size="14" fill="white" font-family="monospace" dominant-baseline="ideographic">20</text><rect x="456" y="680.0" width="64" height="1" fill="white" fill-opacity="0.2" /><rect x="456" y="732.5" width="64" height="1" fill="white" fill-opacity="0.2" /><rect x="456" y="784.5" width="64" height="1" fill="white" fill-opacity="0.2" /><rect x="456" y="837.0" width="64" height="1" fill="white" fill-opacity="0.5" /><text x="530" y="851.0" font-size="14" fill="white" font-family="monospace" dominant-baseline="ideographic">21</text><rect x="456" y="627.7999999999997" width="64" height="1" fill="aqua" fill-opacity="0.75" /><text x="456" y="641.7999999999997" font-size="14" fill="aqua" fill-opacity="0.75" font-family="monospace">Phrase B</text><rect x="570" y="0" width="64" height="837.5" fill="black" /><rect x="570" y="0.0" width="64" height="1" fill="white" fill-opacity="0.5" /><text x="644" y="14.0" font-size="14" fill="white" font-family="monospace" dominant-baseline="ideographic">21</text><rect x="570" y="52.5" width="64" height="1" fill="white" fill-opacity="0.2" /><rect x="570" y="104.5" width="64" height="1" fill="white" fill-opacity="0.2" /><rect x="570" y="157.0" width="64" height="1" fill="white" fill-opacity="0.2" /><rect x="570" y="209.5" width="64" height="1" fill="white" fill-opacity="0.5" /><text x="644" y="223.5" font-size="14" fill="white" font-family="monospace" dominant-baseline="ideographic">22</text><rect x="570" y="261.5" width="64" height="1" fill="white" fill-opacity="0.2" /><rect x="570" y="314.0" width="64" height="1" fill="white" fill-opacity="0.2" /><rect x="570" y="366.5" width="64" height="1" fill="white" fill-opacity="0.2" /><rect x="570" y="418.5" width="64" height="1" fill="white" fill-opacity="0.5" /><text x="644" y="432.5" font-size="14" fill="white" font-family="monospace" dominant-baseline="ideographic">23</text><rect x="570" y="471.0" width="64" height="1" fill="white" fill-opacity="0.2" /><rect x="570" y="523.5" width="64" height="1" fill="white" fill-opacity="0.2" /><rect x="570" y="575.5" width="64" height="1" fill="white" fill-opacity="0.2" /><rect x="570" y="628.0" width="64" height="1" fill="white" fill-opacity="0.5" /><text x="644" y="642.0" font-size="14" fill="white" font-family="monospace" dominant-baseline="ideographic">24</text><rect x="570" y="680.5" width="64" height="1" fill="white" fill-opacity="0.2" /><rect x="570" y="732.5" width="64" height="1" fill="white" fill-opacity="0.2" /><rect x="570" y="785.0" width="64" height="1" fill="white" fill-opacity="0.2" /><rect x="570" y="837.5" width="64" height="1" fill="white" fill-opacity="0.5" /><text x="644" y="851.5" font-size="14" fill="white" font-family="monospace" dominant-baseline="ideographic">25</text><rect x="684" y="0" width="64" height="837.0" fill="black" /><rect x="684" y="0.0" width="64" height="1" fill="white" fill-opacity="0.5" /><text x="758" y="14.0" font-size="14" fill="white" font-family="monospace" dominant-baseline="ideographic">25</text><rect x="684" y="52.0" width="64" height="1" fill="white" fill-opacity="0.2" /><rect x="684" y="104.5" width="64" height="1" fill="white" fill-opacity="0.2" /><rect x="684" y="156.5" width="64" height="1" fill="white" fill-opacity="0.2" /><rect x="684" y="209.0" width="64" height="1" fill="white" fill-opacity="0.5" /><text x="758" y="223.0" font-size="14" fill="white" font-family="monospace" dominant-baseline="ideographic">26</text><rect x="684" y="261.5" width="64" height="1" fill="white" fill-opacity="0.2" /><rect x="684" y="313.5" width="64" height="1" fill="white" fill-opacity="0.2" /><rect x="684" y="366.0" width="64" height="1" fill="white" fill-opacity="0.2" /><rect x="684" y="418.5" width="64" height="1" fill="white" fill-opacity="0.5" /><text x="758" y="432.5" font-size="14" fill="white" font-family="monospace" dominant-baseline="ideographic">27</text><rect x="684" y="470.5" width="64" height="1" fill="white" fill-opacity="0.2" /><rect x="684" y="523.0" width="64" height="1" fill="white" fill-opacity="0.2" /><rect x="684" y="575.5" width="64" height="1" fill="white" fill-opacity="0.2" /><rect x="684" y="627.5" width="64" height="1" fill="white" fill-opacity="0.5" /><text x="758" y="641.5" font-size="14" fill="white" font-family="monospace" dominant-baseline="ideographic">28</text><rect x="684" y="680.0" width="64" height="1" fill="white" fill-opacity="0.2" /><rect x="684" y="732.5" width="64" height="1" fill="white" fill-opacity="0.2" /><rect x="684" y="784.5" width="64" height="1" fill="white" fill-opacity="0.2" /><rect x="684" y="837.0" width="64" height="1" fill="white" fill-opacity="0.5" /><text x="758" y="851.0" font-size="14" fill="white" font-family="monospace" dominant-baseline="ideographic">29</text><rect x="798" y="0" width="64" height="837.0" fill="black" /><rect x="798" y="0.0" width="64" height="1" fill="white" fill-opacity="0.5" /><text x="872" y="14.0" font-size="14" fill="white" font-family="monospace" dominant-baseline="ideographic">29</text><rect x="798" y="52.5" width="64" height="1" fill="white" fill-opacity="0.2" /><rect x="798" y="104.5" width="64" height="1" fill="white" fill-opacity="0.2" /><rect x="798" y="157.0" width="64" height="1" fill="white" fill-opacity="0.2" /><rect x="798" y="209.5" width="64" height="1" fill="white" fill-opacity="0.5" /><text x="872" y="223.5" font-size="14" fill="white" font-family="monospace" dominant-baseline="ideographic">30</text><rect x="798" y="261.5" width="64" height="1" fill="white" fill-opacity="0.2" /><rect x="798" y="314.0" width="64" height="1" fill="white" fill-opacity="0.2" /><rect x="798" y="366.0" width="64" height="1" fill="white" fill-opacity="0.2" /><rect x="798" y="418.5" width="64" height="1" fill="white" fill-opacity="0.5" /><text x="872" y="432.5" font-size="14" fill="white" font-family="monospace" dominant-baseline="ideographic">31</text><rect x="798" y="471.0" width="64" height="1" fill="white" fill-opacity="0.2" /><rect x="798" y="523.0" width="64" height="1" fill="white" fill-opacity="0.2" /><rect x="798" y="575.5" width="64" height="1" fill="white" fill-opacity="0.2" /><rect x="798" y="628.0" width="64" height="1" fill="white" fill-opacity="0.5" /><text x="872" y="642.0" font-size="14" fill="white" font-family="monospace" dominant-baseline="ideographic">32</text><rect x="798" y="680.0" width="64" height="1" fill="white" fill-opacity="0.2" /><rect x="798" y="732.5" width="64" height="1" fill="white" fill-opacity="0.2" /><rect x="798" y="785.0" width="64" height="1" fill="white" fill-opacity="0.2" /><rect x="798" y="837.0" width="64" height="1" fill="white" fill-opacity="0.5" /><text x="872" y="851.0" font-size="14" fill="white" font-family="monospace" dominant-baseline="ideographic">33</text><rect x="912" y="0" width="64" height="837.5" fill="black" /><rect x="912" y="0.0" width="64" height="1" fill="white" fill-opacity="0.5" /><text x="986" y="14.0" font-size="14" fill="white" font-family="monospace" dominant-baseline="ideographic">33</text><rect x="912" y="52.5" width="64" height="1" fill="white" fill-opacity="0.2" /><rect x="912" y="105.0" width="64" height="1" fill="white" fill-opacity="0.2" /><rect x="912" y="157.0" width="64" height="1" fill="white" fill-opacity="0.2" /><rect x="912" y="209.5" width="64" height="1" fill="white" fill-opacity="0.5" /><text x="986" y="223.5" font-size="14" fill="white" font-family="monospace" dominant-baseline="ideographic">34</text><rect x="912" y="262.0" width="64" height="1" fill="white" fill-opacity="0.2" /><rect x="912" y="314.0" width="64" height="1" fill="white" fill-opacity="0.2" /><rect x="912" y="366.5" width="64" height="1" fill="white" fill-opacity="0.2" /><rect x="912" y="419.0" width="64" height="1" fill="white" fill-opacity="0.5" /><text x="986" y="433.0" font-size="14" fill="white" font-family="monospace" dominant-baseline="ideographic">35</text><rect x="912" y="471.0" width="64" height="1" fill="white" fill-opacity="0.2" /><rect x="912" y="523.5" width="64" height="1" fill="white" fill-opacity="0.2" /><rect x="912" y="576.0" width="64" height="1" fill="white" fill-opacity="0.2" /><rect x="912" y="628.0" width="64" height="1" fill="white" fill-opacity="0.5" /><text x="986" y="642.0" font-size="14" fill="white" font-family="monospace" dominant-baseline="ideographic">36</text><rect x="912" y="680.5" width="64" height="1" fill="white" fill-opacity="0.2" /><rect x="912" y="732.5" width="64" height="1" fill="white" fill-opacity="0.2" /><rect x="912" y="785.0" width="64" height="1" fill="white" fill-opacity="0.2" /><rect x="912" y="837.5" width="64" height="1" fill="white" fill-opacity="0.5" /><text x="986" y="851.5" font-size="14" fill="white" font-family="monospace" dominant-baseline="ideographic">37</text><rect x="912" y="628.0499999999993" width="64" height="1" fill="aqua" fill-opacity="0.75" /><text x="912" y="642.0499999999993" font-size="14" fill="aqua" fill-opacity="0.75" font-family="monospace">Phrase C</text><rect x="1026" y="0" width="64" height="837.0" fill="black" /><rect x="1026" y="0.0" width="64" height="1" fill="white" fill-opacity="0.5" /><text x="1100" y="14.0" font-size="14" fill="white" font-family="monospace" dominant-baseline="ideographic">37</text><rect x="1026" y="52.0" width="64" height="1" fill="white" fill-opacity="0.2" /><rect x="1026" y="104.5" width="64" height="1" fill="white" fill-opacity="0.2" /><rect x="1026" y="157.0" width="64" height="1" fill="white" fill-opacity="0.2" /><rect x="1026" y="209.0" width="64" height="1" fill="white" fill-opacity="0.5" /><text x="1100" y="223.0" font-size="14" fill="white" font-family="monospace" dominant-baseline="ideographic">38</text><rect x="1026" y="261.5" width="64" height="1" fill="white" fill-opacity="0.2" /><rect x="1026" y="314.0" width="64" height="1" fill="white" fill-opacity="0.2" /><rect x="1026" y="366.0" width="64" height="1" fill="white" fill-opacity="0.2" /><rect x="1026" y="418.5" width="64" height="1" fill="white" fill-opacity="0.5" /><text x="1100" y="432.5" font-size="14" fill="white" font-family="monospace" dominant-baseline="ideographic">39</text><rect x="1026" y="471.0" width="64" height="1" fill="white" fill-opacity="0.2" /><rect x="1026" y="523.0" width="64" height="1" fill="white" fill-opacity="0.2" /><rect x="1026" y="575.5" width="64" height="1" fill="white" fill-opacity="0.2" /><rect x="1026" y="628.0" width="64" height="1" fill="white" fill-opacity="0.5" /><text x="1100" y="642.0" font-size="14" fill="white" font-family="monospace" dominant-baseline="ideographic">40</text><rect x="1026" y="680.0" width="64" height="1" fill="white" fill-opacity="0.2" /><rect x="1026" y="732.5" width="64" height="1" fill="white" fill-opacity="0.2" /><rect x="1026" y="785.0" width="64" height="1" fill="white" fill-opacity="0.2" /><rect x="1026" y="837.0" width="64" height="1" fill="white" fill-opacity="0.5" /><text x="1100" y="851.0" font-size="14" fill="white" font-family="monospace" dominant-baseline="ideographic">41</text><rect x="1140" y="0" width="64" height="837.5" fill="black" /><rect x="1140" y="0.0" width="64" height="1" fill="white" fill-opacity="0.5" /><text x="1214" y="14.0" font-size="14" fill="white" font-family="monospace" dominant-baseline="ideographic">41</text><rect x="1140" y="52.5" width="64" height="1" fill="white" fill-opacity="0.2" /><rect x="1140" y="104.5" width="64" height="1" fill="white" fill-opacity="0.2" /><rect x="1140" y="157.0" width="64" height="1" fill="white" fill-opacity="0.2" /><rect x="1140" y="209.5" width="64" height="1" fill="white" fill-opacity="0.5" /><text x="1214" y="223.5" font-size="14" fill="white" font-family="monospace" dominant-baseline="ideographic">42</text><rect x="1140" y="261.5" width="64" height="1" fill="white" fill-opacity="0.2" /><rect x="1140" y="314.0" width="64" height="1" fill="white" fill-opacity="0.2" /><rect x="1140" y="366.5" width="64" height="1" fill="white" fill-opacity="0.2" /><rect x="1140" y="418.5" width="64" height="1" fill="white" fill-opacity="0.5" /><text x="1214" y="432.5" font-size="14" fill="white" font-family="monospace" dominant-baseline="ideographic">43</text><rect x="1140" y="471.0" width="64" height="1" fill="white" fill-opacity="0.2" /><rect x="1140" y="523.5" width="64" height="1" fill="white" fill-opacity="0.2" /><rect x="1140" y="575.5" width="64" height="1" fill="white" fill-opacity="0.2" /><rect x="1140" y="628.0" width="64" height="1" fill="white" fill-opacity="0.5" /><text x="1214" y="642.0" font-size="14" fill="white" font-family="monospace" dominant-baseline="ideographic">44</text><rect x="1140" y="680.5" width="64" height="1" fill="white" fill-opacity="0.2" /><rect x="1140" y="732.5" width="64" height="1" fill="white" fill-opacity="0.2" /><rect x="1140" y="785.0" width="64" height="1" fill="white" fill-opacity="0.2" /><rect x="1140" y="837.5" width="64" height="1" fill="white" fill-opacity="0.5" /><text x="1214" y="851.5" font-size="14" fill="white" font-family="monospace" dominant-baseline="ideographic">45</text><rect x="1140" y="628.0" width="64" height="1" fill="aqua" fill-opacity="0.75" /><text x="1140" y="642.0" font-size="14" fill="aqua" fill-opacity="0.75" font-family="monospace">Special</text><rect x="1254" y="0" width="64" height="837.0" fill="black" /><rect x="1254" y="0.0" width="64" height="1" fill="white" fill-opacity="0.5" /><text x="1328" y="14.0" font-size="14" fill="white" font-family="monospace" dominant-baseline="ideographic">45</text><rect x="1254" y="52.0" width="64" height="1" fill="white" fill-opacity="0.2" /><rect x="1254" y="104.5" width="64" height="1" fill="white" fill-opacity="0.2" /><rect x="1254" y="157.0" width="64" height="1" fill="white" fill-opacity="0.2" /><rect x="1254" y="209.0" width="64" height="1" fill="white" fill-opacity="0.5" /><text x="1328" y="223.0" font-size="14" fill="white" font-family="monospace" dominant-baseline="ideographic">46</text><rect x="1254" y="261.5" width="64" height="1" fill="white" fill-opacity="0.2" /><rect x="1254" y="314.0" width="64" height="1" fill="white" fill-opacity="0.2" /><rect x="1254" y="366.0" width="64" height="1" fill="white" fill-opacity="0.2" /><rect x="1254" y="418.5" width="64" height="1" fill="white" fill-opacity="0.5" /><text x="1328" y="432.5" font-size="14" fill="white" font-family="monospace" dominant-baseline="ideographic">47</text><rect x="1254" y="470.5" width="64" height="1" fill="white" fill-opacity="0.2" /><rect x="1254" y="523.0" width="64" height="1" fill="white" fill-opacity="0.2" /><rect x="1254" y="575.5" width="64" height="1" fill="white" fill-opacity="0.2" /><rect x="1254" y="627.5" width="64" height="1" fill="white" fill-opacity="0.5" /><text x="1328" y="641.5" font-size="14" fill="white" font-family="monospace" dominant-baseline="ideographic">48</text><rect x="1254" y="680.0" width="64" height="1" fill="white" fill-opacity="0.2" /><rect x="1254" y="732.5" width="64" height="1" fill="white" fill-opacity="0.2" /><rect x="1254" y="784.5" width="64" height="1" fill="white" fill-opacity="0.2" /><rect x="1254" y="837.0" width="64" height="1" fill="white" fill-opacity="0.5" /><text x="1328" y="851.0" font-size="14" fill="white" font-family="monospace" dominant-baseline="ideographic">49</text><rect x="1368" y="0" width="64" height="837.0" fill="black" /><rect x="1368" y="0.0" width="64" height="1" fill="white" fill-opacity="0.5" /><text x="1442" y="14.0" font-size="14" fill="white" font-family="monospace" dominant-baseline="ideographic">49</text><rect x="1368" y="52.5" width="64" height="1" fill="white" fill-opacity="0.2" /><rect x="1368" y="104.5" width="64" height="1" fill="white" fill-opacity="0.2" /><rect x="1368" y="157.0" width="64" height="1" fill="white" fill-opacity="0.2" /><rect x="1368" y="209.5" width="64" height="1" fill="white" fill-opacity="0.5" /><text x="1442" y="223.5" font-size="14" fill="white" font-family="monospace" dominant-baseline="ideographic">50</text><rect x="1368" y="261.5" width="64" height="1" fill="white" fill-opacity="0.2" /><rect x="1368" y="314.0" width="64" height="1" fill="white" fill-opacity="0.2" /><rect x="1368" y="366.5" width="64" height="1" fill="white" fill-opacity="0.2" /><rect x="1368" y="418.5" width="64" height="1" fill="white" fill-opacity="0.5" /><text x="1442" y="432.5" font-size="14" fill="white" font-family="monospace" dominant-baseline="ideographic">51</text><rect x="1368" y="471.0" width="64" height="1" fill="white" fill-opacity="0.2" /><rect x="1368" y="523.5" width="64" height="1" fill="white" fill-opacity="0.2" /><rect x="1368" y="575.5" width="64" height="1" fill="white" fill-opacity="0.2" /><rect x="1368" y="628.0" width="64" height="1" fill="white" fill-opacity="0.5" /><text x="1442" y="642.0" font-size="14" fill="white" font-family="monospace" dominant-baseline="ideographic">52</text><rect x="1368" y="680.0" width="64" height="1" fill="white" fill-opacity="0.2" /><rect x="1368" y="732.5" width="64" height="1" fill="white" fill-opacity="0.2" /><rect x="1368" y="785.0" width="64" height="1" fill="white" fill-opacity="0.2" /><rect x="1368" y="837.0" width="64" height="1" fill="white" fill-opacity="0.5" /><text x="1442" y="851.0" font-size="14" fill="white" font-family="monospace" dominant-baseline="ideographic">53</text><rect x="1482" y="0" width="64" height="837.5" fill="black" /><rect x="1482" y="0.0" width="64" height="1" fill="white" fill-opacity="0.5" /><text x="1556" y="14.0" font-size="14" fill="white" font-family="monospace" dominant-baseline="ideographic">53</text><rect x="1482" y="52.5" width="64" height="1" fill="white" fill-opacity="0.2" /><rect x="1482" y="105.0" width="64" height="1" fill="white" fill-opacity="0.2" /><rect x="1482" y="157.0" width="64" height="1" fill="white" fill-opacity="0.2" /><rect x="1482" y="209.5" width="64" height="1" fill="white" fill-opacity="0.5" /><text x="1556" y="223.5" font-size="14" fill="white" font-family="monospace" dominant-baseline="ideographic">54</text><rect x="1482" y="262.0" width="64" height="1" fill="white" fill-opacity="0.2" /><rect x="1482" y="314.0" width="64" height="1" fill="white" fill-opacity="0.2" /><rect x="1482" y="366.5" width="64" height="1" fill="white" fill-opacity="0.2" /><rect x="1482" y="419.0" width="64" height="1" fill="white" fill-opacity="0.5" /><text x="1556" y="433.0" font-size="14" fill="white" font-family="monospace" dominant-baseline="ideographic">55</text><rect x="1482" y="471.0" width="64" height="1" fill="white" fill-opacity="0.2" /><rect x="1482" y="523.5" width="64" height="1" fill="white" fill-opacity="0.2" /><rect x="1482" y="576.0" width="64" height="1" fill="white" fill-opacity="0.2" /><rect x="1482" y="628.0" width="64" height="1" fill="white" fill-opacity="0.5" /><text x="1556" y="642.0" font-size="14" fill="white" font-family="monospace" dominant-baseline="ideographic">56</text><rect x="1482" y="680.5" width="64" height="1" fill="white" fill-opacity="0.2" /><rect x="1482" y="733.0" width="64" height="1" fill="white" fill-opacity="0.2" /><rect x="1482" y="785.0" width="64" height="1" fill="white" fill-opacity="0.2" /><rect x="1482" y="837.5" width="64" height="1" fill="white" fill-opacity="0.5" /><text x="1556" y="851.5" font-size="14" fill="white" font-family="monospace" dominant-baseline="ideographic">57</text><rect x="1596" y="0" width="64" height="837.0" fill="black" /><rect x="1596" y="0.0" width="64" height="1" fill="white" fill-opacity="0.5" /><text x="1670" y="14.0" font-size="14" fill="white" font-family="monospace" dominant-baseline="ideographic">57</text><rect x="1596" y="52.0" width="64" height="1" fill="white" fill-opacity="0.2" /><rect x="1596" y="104.5" width="64" height="1" fill="white" fill-opacity="0.2" /><rect x="1596" y="157.0" width="64" height="1" fill="white" fill-opacity="0.2" /><rect x="1596" y="209.0" width="64" height="1" fill="white" fill-opacity="0.5" /><text x="1670" y="223.0" font-size="14" fill="white" font-family="monospace" dominant-baseline="ideographic">58</text><rect x="1596" y="261.5" width="64" height="1" fill="white" fill-opacity="0.2" /><rect x="1596" y="314.0" width="64" height="1" fill="white" fill-opacity="0.2" /><rect x="1596" y="366.0" width="64" height="1" fill="white" fill-opacity="0.2" /><rect x="1596" y="418.5" width="64" height="1" fill="white" fill-opacity="0.5" /><text x="1670" y="432.5" font-size="14" fill="white" font-family="monospace" dominant-baseline="ideographic">59</text><rect x="1596" y="471.0" width="64" height="1" fill="white" fill-opacity="0.2" /><rect x="1596" y="523.0" width="64" height="1" fill="white" fill-opacity="0.2" /><rect x="1596" y="575.5" width="64" height="1" fill="white" fill-opacity="0.2" /><rect x="1596" y="628.0" width="64" height="1" fill="white" fill-opacity="0.5" /><text x="1670" y="642.0" font-size="14" fill="white" font-family="monospace" dominant-baseline="ideographic">60</text><rect x="1596" y="680.0" width="64" height="1" fill="white" fill-opacity="0.2" /><rect x="1596" y="732.5" width="64" height="1" fill="white" fill-opacity="0.2" /><rect x="1596" y="785.0" width="64" height="1" fill="white" fill-opacity="0.2" /><rect x="1596" y="837.0" width="64" height="1" fill="white" fill-opacity="0.5" /><text x="1670" y="851.0" font-size="14" fill="white" font-family="monospace" dominant-baseline="ideographic">61</text><rect x="1710" y="0" width="64" height="837.5" fill="black" /><rect x="1710" y="0.0" width="64" height="1" fill="white" fill-opacity="0.5" /><text x="1784" y="14.0" font-size="14" fill="white" font-family="monospace" dominant-baseline="ideographic">61</text><rect x="1710" y="52.5" width="64" height="1" fill="white" fill-opacity="0.2" /><rect x="1710" y="105.0" width="64" height="1" fill="white" fill-opacity="0.2" /><rect x="1710" y="157.0" width="64" height="1" fill="white" fill-opacity="0.2" /><rect x="1710" y="209.5" width="64" height="1" fill="white" fill-opacity="0.5" /><text x="1784" y="223.5" font-size="14" fill="white" font-family="monospace" dominant-baseline="ideographic">62</text><rect x="1710" y="262.0" width="64" height="1" fill="white" fill-opacity="0.2" /><rect x="1710" y="314.0" width="64" height="1" fill="white" fill-opacity="0.2" /><rect x="1710" y="366.5" width="64" height="1" fill="white" fill-opacity="0.2" /><rect x="1710" y="418.5" width="64" height="1" fill="white" fill-opacity="0.5" /><text x="1784" y="432.5" font-size="14" fill="white" font-family="monospace" dominant-baseline="ideographic">63</text><rect x="1710" y="471.0" width="64" height="1" fill="white" fill-opacity="0.2" /><rect x="1710" y="523.5" width="64" height="1" fill="white" fill-opacity="0.2" /><rect x="1710" y="575.5" width="64" height="1" fill="white" fill-opacity="0.2" /><rect x="1710" y="628.0" width="64" height="1" fill="white" fill-opacity="0.5" /><text x="1784" y="642.0" font-size="14" fill="white" font-family="monospace" dominant-baseline="ideographic">64</text><rect x="1710" y="680.5" width="64" height="1" fill="white" fill-opacity="0.2" /><rect x="1710" y="732.5" width="64" height="1" fill="white" fill-opacity="0.2" /><rect x="1710" y="785.0" width="64" height="1" fill="white" fill-opacity="0.2" /><rect x="1710" y="837.5" width="64" height="1" fill="white" fill-opacity="0.5" /><text x="1784" y="851.5" font-size="14" fill="white" font-family="monospace" dominant-baseline="ideographic">65</text><rect x="1824" y="0" width="64" height="837.0" fill="black" /><rect x="1824" y="0.0" width="64" height="1" fill="white" fill-opacity="0.5" /><text x="1898" y="14.0" font-size="14" fill="white" font-family="monospace" dominant-baseline="ideographic">65</text><rect x="1824" y="52.0" width="64" height="1" fill="white" fill-opacity="0.2" /><rect x="1824" y="104.5" width="64" height="1" fill="white" fill-opacity="0.2" /><rect x="1824" y="157.0" width="64" height="1" fill="white" fill-opacity="0.2" /><rect x="1824" y="209.0" width="64" height="1" fill="white" fill-opacity="0.5" /><text x="1898" y="223.0" font-size="14" fill="white" font-family="monospace" dominant-baseline="ideographic">66</text><rect x="1824" y="261.5" width="64" height="1" fill="white" fill-opacity="0.2" /><rect x="1824" y="314.0" width="64" height="1" fill="white" fill-opacity="0.2" /><rect x="1824" y="366.0" width="64" height="1" fill="white" fill-opacity="0.2" /><rect x="1824" y="418.5" width="64" height="1" fill="white" fill-opacity="0.5" /><text x="1898" y="432.5" font-size="14" fill="white" font-family="monospace" dominant-baseline="ideographic">67</text><rect x="1824" y="471.0" width="64" height="1" fill="white" fill-opacity="0.2" /><rect x="1824" y="523.0" width="64" height="1" fill="white" fill-opacity="0.2" /><rect x="1824" y="575.5" width="64" height="1" fill="white" fill-opacity="0.2" /><rect x="1824" y="627.5" width="64" height="1" fill="white" fill-opacity="0.5" /><text x="1898" y="641.5" font-size="14" fill="white" font-family="monospace" dominant-baseline="ideographic">68</text><rect x="1824" y="680.0" width="64" height="1" fill="white" fill-opacity="0.2" /><rect x="1824" y="732.5" width="64" height="1" fill="white" fill-opacity="0.2" /><rect x="1824" y="784.5" width="64" height="1" fill="white" fill-opacity="0.2" /><rect x="1824" y="837.0" width="64" height="1" fill="white" fill-opacity="0.5" /><text x="1898" y="851.0" font-size="14" fill="white" font-family="monospace" dominant-baseline="ideographic">69</text><rect x="1824" y="209.1999999999989" width="64" height="1" fill="aqua" fill-opacity="0.75" /><text x="1824" y="223.1999999999989" font-size="14" fill="aqua" fill-opacity="0.75" font-family="monospace">Phrase A</text><rect x="1938" y="0" width="64" height="837.5" fill="black" /><rect x="1938" y="0.0" width="64" height="1" fill="white" fill-opacity="0.5" /><text x="2012" y="14.0" font-size="14" fill="white" font-family="monospace" dominant-baseline="ideographic">69</text><rect x="1938" y="52.5" width="64" height="1" fill="white" fill-opacity="0.2" /><rect x="1938" y="104.5" width="64" height="1" fill="white" fill-opacity="0.2" /><rect x="1938" y="157.0" width="64" height="1" fill="white" fill-opacity="0.2" /><rect x="1938" y="209.5" width="64" height="1" fill="white" fill-opacity="0.5" /><text x="2012" y="223.5" font-size="14" fill="white" font-family="monospace" dominant-baseline="ideographic">70</text><rect x="1938" y="261.5" width="64" height="1" fill="white" fill-opacity="0.2" /><rect x="1938" y="314.0" width="64" height="1" fill="white" fill-opacity="0.2" /><rect x="1938" y="366.5" width="64" height="1" fill="white" fill-opacity="0.2" /><rect x="1938" y="418.5" width="64" height="1" fill="white" fill-opacity="0.5" /><text x="2012" y="432.5" font-size="14" fill="white" font-family="monospace" dominant-baseline="ideographic">71</text><rect x="1938" y="471.0" width="64" height="1" fill="white" fill-opacity="0.2" /><rect x="1938" y="523.5" width="64" height="1" fill="white" fill-opacity="0.2" /><rect x="1938" y="575.5" width="64" height="1" fill="white" fill-opacity="0.2" /><rect x="1938" y="628.0" width="64" height="1" fill="white" fill-opacity="0.5" /><text x="2012" y="642.0" font-size="14" fill="white" font-family="monospace" dominant-baseline="ideographic">72</text><rect x="1938" y="680.5" width="64" height="1" fill="white" fill-opacity="0.2" /><rect x="1938" y="732.5" width="64" height="1" fill="white" fill-opacity="0.2" /><rect x="1938" y="785.0" width="64" height="1" fill="white" fill-opacity="0.2" /><rect x="1938" y="837.5" width="64" height="1" fill="white" fill-opacity="0.5" /><text x="2012" y="851.5" font-size="14" fill="white" font-family="monospace" dominant-baseline="ideographic">73</text><rect x="2052" y="0" width="64" height="134.0" fill="black" /><rect x="2052" y="0.0" width="64" height="1" fill="white" fill-opacity="0.5" /><text x="2126" y="14.0" font-size="14" fill="white" font-family="monospace" dominant-baseline="ideographic">73</text></svg>