<?xml version="1.0" encoding="UTF-8"?><svg xmlns="http://www.w3.org/2000/svg" xmlns:xlink="http://www.w3.org/1999/xlink"     width="3192" height="696.5" viewBox="0 0 3192 696.5"><defs></defs><rect x="0.0" y="341.0" width="12.0" height="3" fill="#ff3c3c" stroke="#c71f1f" /><rect x="0.0" y="362.5" width="12.0" height="3" fill="#ff3c3c" stroke="#c71f1f" /><rect x="26.0" y="405.0" width="12.0" height="3" fill="#80c9ff" stroke="#0b6cba" /><rect x="26.0" y="426.5" width="12.0" height="3" fill="#80c9ff" stroke="#0b6cba" /><rect x="0.0" y="469.0" width="12.0" height="3" fill="#ff3c3c" stroke="#c71f1f" /><rect x="0.0" y="490.5" width="12.0" height="3" fill="#ff3c3c" stroke="#c71f1f" /><rect x="13.0" y="533.0" width="12.0" height="3" fill="#35df39" stroke="#03aa10" /><rect x="13.0" y="554.5" width="12.0" height="3" fill="#35df39" stroke="#03aa10" /><rect x="26.0" y="597.0" width="12.0" height="3" fill="#80c9ff" stroke="#0b6cba" /><rect x="26.0" y="618.5" width="12.0" height="3" fill="#80c9ff" stroke="#0b6cba" /><rect x="26.0" y="640.0" width="12.0" height="3" fill="#80c9ff" stroke="#0b6cba" /><rect x="26.0" y="661.0" width="12.0" height="3" fill="#80c9ff" stroke="#0b6cba" /><rect x="114.0" y="0.0" width="12.0" height="3" fill="#ff3c3c" stroke="#c71f1f" /><rect x="114.0" y="21.5" width="12.0" height="3" fill="#ff3c3c" stroke="#c71f1f" /><rect x="140.0" y="64.0" width="12.0" height="3" fill="#80c9ff" stroke="#0b6cba" /><rect x="140.0" y="85.5" width="12.0" height="3" fill="#80c9ff" stroke="#0b6cba" /><rect x="114.0" y="128.0" width="12.0" height="3" fill="#ff3c3c" stroke="#c71f1f" /><rect x="114.0" y="149.5" width="12.0" height="3" fill="#ff3c3c" stroke="#c71f1f" /><rect x="140.0" y="170.5" width="12.0" height="76.95" fill="#80c9ff" stroke="#0b6cba" /><rect x="127.0" y="256.0" width="12.0" height="76.5" fill="#35df39" stroke="#03aa10" /><rect x="140.0" y="341.0" width="12.0" height="3" fill="#80c9ff" stroke="#0b6cba" /><rect x="140.0" y="362.5" width="12.0" height="3" fill="#80c9ff" stroke="#0b6cba" /><rect x="127.0" y="384.0" width="12.0" height="3" fill="#35df39" stroke="#03aa10" /><rect x="127.0" y="405.0" width="12.0" height="3" fill="#35df39" stroke="#03aa10" /><rect x="140.0" y="426.5" width="12.0" height="3" fill="#80c9ff" stroke="#0b6cba" /><rect x="140.0" y="448.0" width="12.0" height="3" fill="#80c9ff" stroke="#0b6cba" /><rect x="114.0" y="469.0" width="12.0" height="3" fill="#ff3c3c" stroke="#c71f1f" /><rect x="140.0" y="490.5" width="12.0" height="3" fill="#80c9ff" stroke="#0b6cba" /><rect x="140.0" y="533.0" width="12.0" height="3" fill="#80c9ff" stroke="#0b6cba" /><rect x="127.0" y="554.5" width="12.0" height="3" fill="#35df39" stroke="#03aa10" /><rect x="127.0" y="576.0" width="12.0" height="3" fill="#35df39" stroke="#03aa10" /><rect x="140.0" y="597.0" width="12.0" height="3" fill="#80c9ff" stroke="#0b6cba" /><rect x="140.0" y="618.5" width="12.0" height="3" fill="#80c9ff" stroke="#0b6cba" /><rect x="114.0" y="640.0" width="12.0" height="3" fill="#ff3c3c" stroke="#c71f1f" /><rect x="127.0" y="661.0" width="12.0" height="3" fill="#35df39" stroke="#03aa10" /><rect x="228.0" y="0.0" width="12.0" height="3" fill="#ff3c3c" stroke="#c71f1f" /><rect x="228.0" y="21.5" width="12.0" height="3" fill="#ff3c3c" stroke="#c71f1f" /><rect x="241.0" y="42.5" width="12.0" height="3" fill="#35df39" stroke="#03aa10" /><rect x="241.0" y="64.0" width="12.0" height="3" fill="#35df39" stroke="#03aa10" /><rect x="254.0" y="85.0" width="12.0" height="3" fill="#80c9ff" stroke="#0b6cba" /><rect x="254.0" y="106.5" width="12.0" height="3" fill="#80c9ff" stroke="#0b6cba" /><rect x="228.0" y="128.0" width="12.0" height="3" fill="#ff3c3c" stroke="#c71f1f" /><rect x="228.0" y="149.0" width="12.0" height="3" fill="#ff3c3c" stroke="#c71f1f" /><rect x="241.0" y="170.5" width="12.0" height="3" fill="#35df39" stroke="#03aa10" /><rect x="241.0" y="192.0" width="12.0" height="3" fill="#35df39" stroke="#03aa10" /><rect x="254.0" y="213.0" width="12.0" height="3" fill="#80c9ff" stroke="#0b6cba" /><rect x="254.0" y="234.5" width="12.0" height="3" fill="#80c9ff" stroke="#0b6cba" /><rect x="267.0" y="256.0" width="12.0" height="3" fill="#fff874" stroke="#eb9c26" /><rect x="267.0" y="277.0" width="12.0" height="3" fill="#fff874" stroke="#eb9c26" /><rect x="241.0" y="298.5" width="12.0" height="3" fill="#35df39" stroke="#03aa10" /><rect x="241.0" y="320.0" width="12.0" height="3" fill="#35df39" stroke="#03aa10" /><rect x="254.0" y="341.0" width="12.0" height="3" fill="#80c9ff" stroke="#0b6cba" /><rect x="254.0" y="362.5" width="12.0" height="3" fill="#80c9ff" stroke="#0b6cba" /><rect x="241.0" y="384.0" width="12.0" height="3" fill="#35df39" stroke="#03aa10" /><rect x="241.0" y="405.0" width="12.0" height="3" fill="#35df39" stroke="#03aa10" /><rect x="254.0" y="426.5" width="12.0" height="3" fill="#80c9ff" stroke="#0b6cba" /><rect x="254.0" y="448.0" width="12.0" height="3" fill="#80c9ff" stroke="#0b6cba" /><rect x="228.0" y="469.0" width="12.0" height="3" fill="#ff3c3c" stroke="#c71f1f" /><rect x="254.0" y="490.5" width="12.0" height="3" fill="#80c9ff" stroke="#0b6cba" /><rect x="254.0" y="533.0" width="12.0" height="3" fill="#80c9ff" stroke="#0b6cba" /><rect x="241.0" y="554.5" width="12.0" height="3" fill="#35df39" stroke="#03aa10" /><rect x="241.0" y="576.0" width="12.0" height="3" fill="#35df39" stroke="#03aa10" /><rect x="254.0" y="597.0" width="12.0" height="3" fill="#80c9ff" stroke="#0b6cba" /><rect x="254.0" y="618.5" width="12.0" height="3" fill="#80c9ff" stroke="#0b6cba" /><rect x="228.0" y="639.5" width="12.0" height="3" fill="#ff3c3c" stroke="#c71f1f" /><rect x="241.0" y="661.0" width="12.0" height="3" fill="#35df39" stroke="#03aa10" /><rect x="342.0" y="0.0" width="12.0" height="3" fill="#ff3c3c" stroke="#c71f1f" /><rect x="342.0" y="21.0" width="12.0" height="3" fill="#ff3c3c" stroke="#c71f1f" /><rect x="355.0" y="42.5" width="12.0" height="3" fill="#35df39" stroke="#03aa10" /><rect x="355.0" y="64.0" width="12.0" height="3" fill="#35df39" stroke="#03aa10" /><rect x="368.0" y="85.0" width="12.0" height="3" fill="#80c9ff" stroke="#0b6cba" /><rect x="368.0" y="106.5" width="12.0" height="3" fill="#80c9ff" stroke="#0b6cba" /><rect x="342.0" y="128.0" width="12.0" height="3" fill="#ff3c3c" stroke="#c71f1f" /><rect x="342.0" y="149.0" width="12.0" height="3" fill="#ff3c3c" stroke="#c71f1f" /><rect x="355.0" y="170.5" width="12.0" height="3" fill="#35df39" stroke="#03aa10" /><rect x="355.0" y="192.0" width="12.0" height="3" fill="#35df39" stroke="#03aa10" /><rect x="368.0" y="213.0" width="12.0" height="3" fill="#80c9ff" stroke="#0b6cba" /><rect x="368.0" y="234.5" width="12.0" height="3" fill="#80c9ff" stroke="#0b6cba" /><rect x="381.0" y="256.0" width="12.0" height="76.5" fill="#fff874" stroke="#eb9c26" /><rect x="355.0" y="341.0" width="12.0" height="3" fill="#35df39" stroke="#03aa10" /><rect x="355.0" y="384.0" width="12.0" height="3" fill="#35df39" stroke="#03aa10" /><rect x="355.0" y="490.5" width="12.0" height="3" fill="#35df39" stroke="#03aa10" /><rect x="355.0" y="554.5" width="12.0" height="3" fill="#35df39" stroke="#03aa10" /><rect x="355.0" y="618.5" width="12.0" height="3" fill="#35df39" stroke="#03aa10" /><rect x="355.0" y="639.5" width="12.0" height="3" fill="#35df39" stroke="#03aa10" /><rect x="355.0" y="661.0" width="12.0" height="3" fill="#35df39" stroke="#03aa10" /><rect x="469.0" y="0.0" width="12.0" height="3" fill="#35df39" stroke="#03aa10" /><rect x="469.0" y="42.5" width="12.0" height="3" fill="#35df39" stroke="#03aa10" /><rect x="469.0" y="149.0" width="12.0" height="3" fill="#35df39" stroke="#03aa10" /><rect x="469.0" y="213.0" width="12.0" height="3" fill="#35df39" stroke="#03aa10" /><rect x="469.0" y="277.0" width="12.0" height="3" fill="#35df39" stroke="#03aa10" /><rect x="469.0" y="298.5" width="12.0" height="3" fill="#35df39" stroke="#03aa10" /><rect x="469.0" y="320.0" width="12.0" height="3" fill="#35df39" stroke="#03aa10" /><rect x="482.0" y="341.0" width="12.0" height="3" fill="#80c9ff" stroke="#0b6cba" /><rect x="482.0" y="383.5" width="12.0" height="3" fill="#80c9ff" stroke="#0b6cba" /><rect x="482.0" y="490.5" width="12.0" height="3" fill="#80c9ff" stroke="#0b6cba" /><rect x="482.0" y="533.0" width="12.0" height="3" fill="#80c9ff" stroke="#0b6cba" /><rect x="482.0" y="554.5" width="12.0" height="3" fill="#80c9ff" stroke="#0b6cba" /><rect x="482.0" y="575.5" width="12.0" height="3" fill="#80c9ff" stroke="#0b6cba" /><rect x="482.0" y="597.0" width="12.0" height="3" fill="#80c9ff" stroke="#0b6cba" /><rect x="482.0" y="618.5" width="12.0" height="3" fill="#80c9ff" stroke="#0b6cba" /><rect x="482.0" y="639.5" width="12.0" height="3" fill="#80c9ff" stroke="#0b6cba" /><rect x="482.0" y="661.0" width="12.0" height="3" fill="#80c9ff" stroke="#0b6cba" /><rect x="596.0" y="0.0" width="12.0" height="3" fill="#80c9ff" stroke="#0b6cba" /><rect x="596.0" y="42.5" width="12.0" height="3" fill="#80c9ff" stroke="#0b6cba" /><rect x="596.0" y="149.0" width="12.0" height="3" fill="#80c9ff" stroke="#0b6cba" /><rect x="596.0" y="192.0" width="12.0" height="3" fill="#80c9ff" stroke="#0b6cba" /><rect x="596.0" y="213.0" width="12.0" height="3" fill="#80c9ff" stroke="#0b6cba" /><rect x="596.0" y="234.5" width="12.0" height="3" fill="#80c9ff" stroke="#0b6cba" /><rect x="583.0" y="255.5" width="12.0" height="3" fill="#35df39" stroke="#03aa10" /><rect x="583.0" y="277.0" width="12.0" height="3" fill="#35df39" stroke="#03aa10" /><rect x="596.0" y="298.5" width="12.0" height="3" fill="#80c9ff" stroke="#0b6cba" /><rect x="570.0" y="341.0" width="12.0" height="3" fill="#ff3c3c" stroke="#c71f1f" /><rect x="570.0" y="362.5" width="12.0" height="3" fill="#ff3c3c" stroke="#c71f1f" /><rect x="596.0" y="383.5" width="12.0" height="3" fill="#80c9ff" stroke="#0b6cba" /><rect x="583.0" y="426.5" width="12.0" height="3" fill="#35df39" stroke="#03aa10" /><rect x="583.0" y="447.5" width="12.0" height="3" fill="#35df39" stroke="#03aa10" /><rect x="570.0" y="490.5" width="12.0" height="3" fill="#ff3c3c" stroke="#c71f1f" /><rect x="570.0" y="533.0" width="12.0" height="3" fill="#ff3c3c" stroke="#c71f1f" /><rect x="596.0" y="554.5" width="12.0" height="3" fill="#80c9ff" stroke="#0b6cba" /><rect x="583.0" y="597.0" width="12.0" height="3" fill="#35df39" stroke="#03aa10" /><rect x="583.0" y="618.5" width="12.0" height="3" fill="#35df39" stroke="#03aa10" /><rect x="570.0" y="639.5" width="12.0" height="3" fill="#ff3c3c" stroke="#c71f1f" /><rect x="570.0" y="661.0" width="12.0" height="3" fill="#ff3c3c" stroke="#c71f1f" /><rect x="684.0" y="0.0" width="12.0" height="3" fill="#ff3c3c" stroke="#c71f1f" /><rect x="684.0" y="42.5" width="12.0" height="3" fill="#ff3c3c" stroke="#c71f1f" /><rect x="684.0" y="64.0" width="12.0" height="3" fill="#ff3c3c" stroke="#c71f1f" /><rect x="697.0" y="85.0" width="12.0" height="3" fill="#35df39" stroke="#03aa10" /><rect x="710.0" y="127.5" width="12.0" height="3" fill="#80c9ff" stroke="#0b6cba" /><rect x="697.0" y="149.0" width="12.0" height="3" fill="#35df39" stroke="#03aa10" /><rect x="697.0" y="213.0" width="12.0" height="3" fill="#35df39" stroke="#03aa10" /><rect x="710.0" y="255.5" width="12.0" height="3" fill="#80c9ff" stroke="#0b6cba" /><rect x="723.0" y="298.5" width="12.0" height="3" fill="#fff874" stroke="#eb9c26" /><rect x="697.0" y="341.0" width="12.0" height="3" fill="#35df39" stroke="#03aa10" /><rect x="697.0" y="362.5" width="12.0" height="3" fill="#35df39" stroke="#03aa10" /><rect x="697.0" y="383.5" width="12.0" height="3" fill="#35df39" stroke="#03aa10" /><rect x="697.0" y="405.0" width="12.0" height="3" fill="#35df39" stroke="#03aa10" /><rect x="697.0" y="447.5" width="12.0" height="3" fill="#35df39" stroke="#03aa10" /><rect x="697.0" y="469.0" width="12.0" height="3" fill="#35df39" stroke="#03aa10" /><rect x="697.0" y="490.5" width="12.0" height="3" fill="#35df39" stroke="#03aa10" /><rect x="710.0" y="511.5" width="12.0" height="3" fill="#80c9ff" stroke="#0b6cba" /><rect x="710.0" y="533.0" width="12.0" height="3" fill="#80c9ff" stroke="#0b6cba" /><rect x="710.0" y="554.5" width="12.0" height="3" fill="#80c9ff" stroke="#0b6cba" /><rect x="710.0" y="575.5" width="12.0" height="3" fill="#80c9ff" stroke="#0b6cba" /><rect x="710.0" y="618.5" width="12.0" height="3" fill="#80c9ff" stroke="#0b6cba" /><rect x="710.0" y="639.5" width="12.0" height="3" fill="#80c9ff" stroke="#0b6cba" /><rect x="710.0" y="661.0" width="12.0" height="3" fill="#80c9ff" stroke="#0b6cba" /><rect x="837.0" y="0.0" width="12.0" height="3" fill="#fff874" stroke="#eb9c26" /><rect x="837.0" y="21.5" width="12.0" height="3" fill="#fff874" stroke="#eb9c26" /><rect x="837.0" y="43.0" width="12.0" height="3" fill="#fff874" stroke="#eb9c26" /><rect x="824.0" y="64.0" width="12.0" height="3" fill="#80c9ff" stroke="#0b6cba" /><rect x="824.0" y="85.5" width="12.0" height="3" fill="#80c9ff" stroke="#0b6cba" /><rect x="824.0" y="107.0" width="12.0" height="3" fill="#80c9ff" stroke="#0b6cba" /><rect x="811.0" y="128.0" width="12.0" height="3" fill="#35df39" stroke="#03aa10" /><rect x="824.0" y="149.5" width="12.0" height="3" fill="#80c9ff" stroke="#0b6cba" /><rect x="811.0" y="171.0" width="12.0" height="3" fill="#35df39" stroke="#03aa10" /><rect x="798.0" y="341.5" width="12.0" height="3" fill="#ff3c3c" stroke="#c71f1f" /><rect x="798.0" y="363.0" width="12.0" height="3" fill="#ff3c3c" stroke="#c71f1f" /><rect x="798.0" y="384.0" width="12.0" height="3" fill="#ff3c3c" stroke="#c71f1f" /><rect x="798.0" y="405.5" width="12.0" height="3" fill="#ff3c3c" stroke="#c71f1f" /><rect x="811.0" y="427.0" width="12.0" height="3" fill="#35df39" stroke="#03aa10" /><rect x="811.0" y="448.0" width="12.0" height="3" fill="#35df39" stroke="#03aa10" /><rect x="811.0" y="469.5" width="12.0" height="3" fill="#35df39" stroke="#03aa10" /><rect x="811.0" y="491.0" width="12.0" height="3" fill="#35df39" stroke="#03aa10" /><rect x="798.0" y="512.0" width="12.0" height="3" fill="#ff3c3c" stroke="#c71f1f" /><rect x="798.0" y="533.5" width="12.0" height="3" fill="#ff3c3c" stroke="#c71f1f" /><rect x="798.0" y="554.5" width="12.0" height="3" fill="#ff3c3c" stroke="#c71f1f" /><rect x="798.0" y="576.0" width="12.0" height="3" fill="#ff3c3c" stroke="#c71f1f" /><rect x="824.0" y="597.5" width="12.0" height="3" fill="#80c9ff" stroke="#0b6cba" /><rect x="824.0" y="618.5" width="12.0" height="3" fill="#80c9ff" stroke="#0b6cba" /><rect x="824.0" y="640.0" width="12.0" height="3" fill="#80c9ff" stroke="#0b6cba" /><rect x="824.0" y="661.5" width="12.0" height="3" fill="#80c9ff" stroke="#0b6cba" /><rect x="912.0" y="0.0" width="12.0" height="3" fill="#ff3c3c" stroke="#c71f1f" /><rect x="912.0" y="21.5" width="12.0" height="3" fill="#ff3c3c" stroke="#c71f1f" /><rect x="912.0" y="43.0" width="12.0" height="3" fill="#ff3c3c" stroke="#c71f1f" /><rect x="912.0" y="64.0" width="12.0" height="3" fill="#ff3c3c" stroke="#c71f1f" /><rect x="912.0" y="85.5" width="12.0" height="3" fill="#ff3c3c" stroke="#c71f1f" /><rect x="912.0" y="107.0" width="12.0" height="3" fill="#ff3c3c" stroke="#c71f1f" /><rect x="925.0" y="128.0" width="12.0" height="3" fill="#35df39" stroke="#03aa10" /><rect x="925.0" y="149.5" width="12.0" height="3" fill="#35df39" stroke="#03aa10" /><rect x="912.0" y="171.0" width="12.0" height="3" fill="#ff3c3c" stroke="#c71f1f" /><rect x="912.0" y="192.0" width="12.0" height="3" fill="#ff3c3c" stroke="#c71f1f" /><rect x="912.0" y="213.5" width="12.0" height="3" fill="#ff3c3c" stroke="#c71f1f" /><rect x="912.0" y="235.0" width="12.0" height="3" fill="#ff3c3c" stroke="#c71f1f" /><rect x="912.0" y="256.0" width="12.0" height="3" fill="#ff3c3c" stroke="#c71f1f" /><rect x="912.0" y="277.5" width="12.0" height="3" fill="#ff3c3c" stroke="#c71f1f" /><rect x="938.0" y="299.0" width="12.0" height="3" fill="#80c9ff" stroke="#0b6cba" /><rect x="938.0" y="320.0" width="12.0" height="3" fill="#80c9ff" stroke="#0b6cba" /><rect x="912.0" y="341.5" width="12.0" height="3" fill="#ff3c3c" stroke="#c71f1f" /><rect x="912.0" y="363.0" width="12.0" height="3" fill="#ff3c3c" stroke="#c71f1f" /><rect x="912.0" y="384.0" width="12.0" height="3" fill="#ff3c3c" stroke="#c71f1f" /><rect x="912.0" y="405.5" width="12.0" height="3" fill="#ff3c3c" stroke="#c71f1f" /><rect x="925.0" y="426.5" width="12.0" height="3" fill="#35df39" stroke="#03aa10" /><rect x="925.0" y="448.0" width="12.0" height="3" fill="#35df39" stroke="#03aa10" /><rect x="925.0" y="469.5" width="12.0" height="3" fill="#35df39" stroke="#03aa10" /><rect x="925.0" y="490.5" width="12.0" height="3" fill="#35df39" stroke="#03aa10" /><rect x="912.0" y="512.0" width="12.0" height="3" fill="#ff3c3c" stroke="#c71f1f" /><rect x="912.0" y="533.5" width="12.0" height="3" fill="#ff3c3c" stroke="#c71f1f" /><rect x="912.0" y="554.5" width="12.0" height="3" fill="#ff3c3c" stroke="#c71f1f" /><rect x="912.0" y="576.0" width="12.0" height="3" fill="#ff3c3c" stroke="#c71f1f" /><rect x="938.0" y="597.5" width="12.0" height="3" fill="#80c9ff" stroke="#0b6cba" /><rect x="938.0" y="618.5" width="12.0" height="3" fill="#80c9ff" stroke="#0b6cba" /><rect x="938.0" y="640.0" width="12.0" height="3" fill="#80c9ff" stroke="#0b6cba" /><rect x="938.0" y="661.5" width="12.0" height="3" fill="#80c9ff" stroke="#0b6cba" /><rect x="1039.0" y="0.0" width="12.0" height="3" fill="#35df39" stroke="#03aa10" /><rect x="1039.0" y="21.5" width="12.0" height="3" fill="#35df39" stroke="#03aa10" /><rect x="1039.0" y="43.0" width="12.0" height="3" fill="#35df39" stroke="#03aa10" /><rect x="1039.0" y="64.0" width="12.0" height="3" fill="#35df39" stroke="#03aa10" /><rect x="1039.0" y="85.5" width="12.0" height="3" fill="#35df39" stroke="#03aa10" /><rect x="1039.0" y="107.0" width="12.0" height="3" fill="#35df39" stroke="#03aa10" /><rect x="1052.0" y="128.0" width="12.0" height="3" fill="#80c9ff" stroke="#0b6cba" /><rect x="1052.0" y="149.5" width="12.0" height="3" fill="#80c9ff" stroke="#0b6cba" /><rect x="1039.0" y="171.0" width="12.0" height="3" fill="#35df39" stroke="#03aa10" /><rect x="1039.0" y="192.0" width="12.0" height="3" fill="#35df39" stroke="#03aa10" /><rect x="1039.0" y="213.5" width="12.0" height="3" fill="#35df39" stroke="#03aa10" /><rect x="1039.0" y="235.0" width="12.0" height="3" fill="#35df39" stroke="#03aa10" /><rect x="1039.0" y="256.0" width="12.0" height="3" fill="#35df39" stroke="#03aa10" /><rect x="1039.0" y="277.5" width="12.0" height="3" fill="#35df39" stroke="#03aa10" /><rect x="1065.0" y="298.5" width="12.0" height="3" fill="#fff874" stroke="#eb9c26" /><rect x="1065.0" y="320.0" width="12.0" height="3" fill="#fff874" stroke="#eb9c26" /><rect x="1065.0" y="341.5" width="12.0" height="3" fill="#fff874" stroke="#eb9c26" /><rect x="1065.0" y="362.5" width="12.0" height="3" fill="#fff874" stroke="#eb9c26" /><rect x="1065.0" y="384.0" width="12.0" height="3" fill="#fff874" stroke="#eb9c26" /><rect x="1065.0" y="405.5" width="12.0" height="3" fill="#fff874" stroke="#eb9c26" /><rect x="1052.0" y="426.5" width="12.0" height="3" fill="#80c9ff" stroke="#0b6cba" /><rect x="1052.0" y="448.0" width="12.0" height="3" fill="#80c9ff" stroke="#0b6cba" /><rect x="1052.0" y="469.5" width="12.0" height="3" fill="#80c9ff" stroke="#0b6cba" /><rect x="1052.0" y="490.5" width="12.0" height="3" fill="#80c9ff" stroke="#0b6cba" /><rect x="1039.0" y="512.0" width="12.0" height="3" fill="#35df39" stroke="#03aa10" /><rect x="1039.0" y="533.5" width="12.0" height="3" fill="#35df39" stroke="#03aa10" /><rect x="1039.0" y="554.5" width="12.0" height="3" fill="#35df39" stroke="#03aa10" /><rect x="1039.0" y="576.0" width="12.0" height="3" fill="#35df39" stroke="#03aa10" /><rect x="1026.0" y="597.5" width="12.0" height="3" fill="#ff3c3c" stroke="#c71f1f" /><rect x="1026.0" y="618.5" width="12.0" height="3" fill="#ff3c3c" stroke="#c71f1f" /><rect x="1026.0" y="640.0" width="12.0" height="3" fill="#ff3c3c" stroke="#c71f1f" /><rect x="1026.0" y="661.5" width="12.0" height="3" fill="#ff3c3c" stroke="#c71f1f" /><rect x="1153.0" y="0.0" width="12.0" height="3" fill="#35df39" stroke="#03aa10" /><rect x="1166.0" y="341.5" width="12.0" height="3" fill="#80c9ff" stroke="#0b6cba" /><rect x="1140.0" y="384.0" width="12.0" height="3" fill="#ff3c3c" stroke="#c71f1f" /><rect x="1153.0" y="405.5" width="12.0" height="3" fill="#35df39" stroke="#03aa10" /><rect x="1166.0" y="469.5" width="12.0" height="3" fill="#80c9ff" stroke="#0b6cba" /><rect x="1140.0" y="512.0" width="12.0" height="3" fill="#ff3c3c" stroke="#c71f1f" /><rect x="1153.0" y="533.5" width="12.0" height="3" fill="#35df39" stroke="#03aa10" /><rect x="1166.0" y="597.5" width="12.0" height="3" fill="#80c9ff" stroke="#0b6cba" /><rect x="1166.0" y="618.5" width="12.0" height="3" fill="#80c9ff" stroke="#0b6cba" /><rect x="1153.0" y="640.0" width="12.0" height="3" fill="#35df39" stroke="#03aa10" /><rect x="1280.0" y="0.0" width="12.0" height="3" fill="#80c9ff" stroke="#0b6cba" /><rect x="1254.0" y="42.5" width="12.0" height="3" fill="#ff3c3c" stroke="#c71f1f" /><rect x="1267.0" y="64.0" width="12.0" height="3" fill="#35df39" stroke="#03aa10" /><rect x="1280.0" y="128.0" width="12.0" height="3" fill="#80c9ff" stroke="#0b6cba" /><rect x="1254.0" y="170.5" width="12.0" height="3" fill="#ff3c3c" stroke="#c71f1f" /><rect x="1254.0" y="192.0" width="12.0" height="3" fill="#ff3c3c" stroke="#c71f1f" /><rect x="1267.0" y="213.5" width="12.0" height="3" fill="#35df39" stroke="#03aa10" /><rect x="1267.0" y="234.5" width="12.0" height="3" fill="#35df39" stroke="#03aa10" /><rect x="1280.0" y="256.0" width="12.0" height="3" fill="#80c9ff" stroke="#0b6cba" /><rect x="1280.0" y="277.5" width="12.0" height="3" fill="#80c9ff" stroke="#0b6cba" /><rect x="1267.0" y="298.5" width="12.0" height="3" fill="#35df39" stroke="#03aa10" /><rect x="1267.0" y="320.0" width="12.0" height="3" fill="#35df39" stroke="#03aa10" /><rect x="1280.0" y="341.5" width="12.0" height="3" fill="#80c9ff" stroke="#0b6cba" /><rect x="1267.0" y="384.0" width="12.0" height="3" fill="#35df39" stroke="#03aa10" /><rect x="1267.0" y="426.5" width="12.0" height="3" fill="#35df39" stroke="#03aa10" /><rect x="1267.0" y="469.5" width="12.0" height="3" fill="#35df39" stroke="#03aa10" /><rect x="1280.0" y="490.5" width="12.0" height="3" fill="#80c9ff" stroke="#0b6cba" /><rect x="1267.0" y="554.5" width="12.0" height="3" fill="#35df39" stroke="#03aa10" /><rect x="1280.0" y="597.0" width="12.0" height="3" fill="#80c9ff" stroke="#0b6cba" /><rect x="1267.0" y="640.0" width="12.0" height="3" fill="#35df39" stroke="#03aa10" /><rect x="1407.0" y="0.0" width="12.0" height="3" fill="#fff874" stroke="#eb9c26" /><rect x="1394.0" y="42.5" width="12.0" height="3" fill="#80c9ff" stroke="#0b6cba" /><rect x="1394.0" y="85.5" width="12.0" height="3" fill="#80c9ff" stroke="#0b6cba" /><rect x="1394.0" y="128.0" width="12.0" height="3" fill="#80c9ff" stroke="#0b6cba" /><rect x="1407.0" y="149.5" width="12.0" height="3" fill="#fff874" stroke="#eb9c26" /><rect x="1420.0" y="213.5" width="12.0" height="3" fill="#ff83f4" stroke="#d002bc" /><rect x="1407.0" y="256.0" width="12.0" height="3" fill="#fff874" stroke="#eb9c26" /><rect x="1394.0" y="298.5" width="12.0" height="3" fill="#80c9ff" stroke="#0b6cba" /><rect x="1394.0" y="341.5" width="12.0" height="3" fill="#80c9ff" stroke="#0b6cba" /><rect x="1381.0" y="384.0" width="12.0" height="3" fill="#35df39" stroke="#03aa10" /><rect x="1381.0" y="426.5" width="12.0" height="3" fill="#35df39" stroke="#03aa10" /><rect x="1381.0" y="469.0" width="12.0" height="3" fill="#35df39" stroke="#03aa10" /><rect x="1394.0" y="490.5" width="12.0" height="3" fill="#80c9ff" stroke="#0b6cba" /><rect x="1394.0" y="554.5" width="12.0" height="3" fill="#80c9ff" stroke="#0b6cba" /><rect x="1381.0" y="597.0" width="12.0" height="3" fill="#35df39" stroke="#03aa10" /><rect x="1381.0" y="640.0" width="12.0" height="3" fill="#35df39" stroke="#03aa10" /><rect x="1482.0" y="0.0" width="12.0" height="3" fill="#ff3c3c" stroke="#c71f1f" /><rect x="1482.0" y="21.5" width="12.0" height="3" fill="#ff3c3c" stroke="#c71f1f" /><rect x="1495.0" y="42.5" width="12.0" height="3" fill="#35df39" stroke="#03aa10" /><rect x="1495.0" y="64.0" width="12.0" height="3" fill="#35df39" stroke="#03aa10" /><rect x="1508.0" y="85.5" width="12.0" height="3" fill="#80c9ff" stroke="#0b6cba" /><rect x="1508.0" y="106.5" width="12.0" height="3" fill="#80c9ff" stroke="#0b6cba" /><rect x="1521.0" y="128.0" width="12.0" height="3" fill="#fff874" stroke="#eb9c26" /><rect x="1521.0" y="149.5" width="12.0" height="3" fill="#fff874" stroke="#eb9c26" /><rect x="1521.0" y="192.0" width="12.0" height="3" fill="#fff874" stroke="#eb9c26" /><rect x="1508.0" y="213.5" width="12.0" height="3" fill="#80c9ff" stroke="#0b6cba" /><rect x="1508.0" y="234.5" width="12.0" height="3" fill="#80c9ff" stroke="#0b6cba" /><rect x="1495.0" y="256.0" width="12.0" height="3" fill="#35df39" stroke="#03aa10" /><rect x="1495.0" y="277.5" width="12.0" height="3" fill="#35df39" stroke="#03aa10" /><rect x="1482.0" y="298.5" width="12.0" height="3" fill="#ff3c3c" stroke="#c71f1f" /><rect x="1482.0" y="320.0" width="12.0" height="3" fill="#ff3c3c" stroke="#c71f1f" /><rect x="1508.0" y="341.0" width="12.0" height="153.9" fill="#80c9ff" stroke="#0b6cba" /><rect x="1495.0" y="512.0" width="12.0" height="170.5" fill="#35df39" stroke="#03aa10" /><rect x="1609.0" y="0.0" width="12.0" height="115.2" fill="#35df39" stroke="#03aa10" /><rect x="1596.0" y="128.0" width="12.0" height="3" fill="#ff3c3c" stroke="#c71f1f" /><rect x="1609.0" y="149.5" width="12.0" height="3" fill="#35df39" stroke="#03aa10" /><rect x="1622.0" y="170.5" width="12.0" height="134.55" fill="#80c9ff" stroke="#0b6cba" /><rect x="1635.0" y="341.0" width="12.0" height="3" fill="#fff874" stroke="#eb9c26" /><rect x="1622.0" y="405.0" width="12.0" height="3" fill="#80c9ff" stroke="#0b6cba" /><rect x="1635.0" y="469.0" width="12.0" height="3" fill="#fff874" stroke="#eb9c26" /><rect x="1622.0" y="512.0" width="12.0" height="3" fill="#80c9ff" stroke="#0b6cba" /><rect x="1609.0" y="576.0" width="12.0" height="3" fill="#35df39" stroke="#03aa10" /><rect x="1622.0" y="640.0" width="12.0" height="3" fill="#80c9ff" stroke="#0b6cba" /><rect x="1723.0" y="0.0" width="12.0" height="3" fill="#35df39" stroke="#03aa10" /><rect x="1710.0" y="64.0" width="12.0" height="3" fill="#ff3c3c" stroke="#c71f1f" /><rect x="1723.0" y="128.0" width="12.0" height="3" fill="#35df39" stroke="#03aa10" /><rect x="1736.0" y="170.5" width="12.0" height="3" fill="#80c9ff" stroke="#0b6cba" /><rect x="1723.0" y="277.0" width="12.0" height="3" fill="#35df39" stroke="#03aa10" /><rect x="1710.0" y="341.0" width="12.0" height="153.9" fill="#ff3c3c" stroke="#c71f1f" /><rect x="1723.0" y="512.0" width="12.0" height="114.75" fill="#35df39" stroke="#03aa10" /><rect x="1710.0" y="639.5" width="12.0" height="3" fill="#ff3c3c" stroke="#c71f1f" /><rect x="1837.0" y="0.0" width="12.0" height="3" fill="#35df39" stroke="#03aa10" /><rect x="1824.0" y="42.5" width="12.0" height="3" fill="#ff3c3c" stroke="#c71f1f" /><rect x="1824.0" y="85.0" width="12.0" height="3" fill="#ff3c3c" stroke="#c71f1f" /><rect x="1837.0" y="128.0" width="12.0" height="3" fill="#35df39" stroke="#03aa10" /><rect x="1837.0" y="149.0" width="12.0" height="3" fill="#35df39" stroke="#03aa10" /><rect x="1850.0" y="213.0" width="12.0" height="3" fill="#80c9ff" stroke="#0b6cba" /><rect x="1850.0" y="256.0" width="12.0" height="3" fill="#80c9ff" stroke="#0b6cba" /><rect x="1863.0" y="298.5" width="12.0" height="3" fill="#fff874" stroke="#eb9c26" /><rect x="1850.0" y="341.0" width="12.0" height="153.45000000000002" fill="#80c9ff" stroke="#0b6cba" /><rect x="1850.0" y="511.5" width="12.0" height="3" fill="#80c9ff" stroke="#0b6cba" /><rect x="1837.0" y="575.5" width="12.0" height="3" fill="#35df39" stroke="#03aa10" /><rect x="1837.0" y="639.5" width="12.0" height="3" fill="#35df39" stroke="#03aa10" /><rect x="1837.0" y="661.0" width="12.0" height="3" fill="#35df39" stroke="#03aa10" /><rect x="1938.0" y="0.0" width="12.0" height="3" fill="#ff3c3c" stroke="#c71f1f" /><rect x="1964.0" y="85.0" width="12.0" height="3" fill="#80c9ff" stroke="#0b6cba" /><rect x="1938.0" y="128.0" width="12.0" height="3" fill="#ff3c3c" stroke="#c71f1f" /><rect x="1938.0" y="149.0" width="12.0" height="3" fill="#ff3c3c" stroke="#c71f1f" /><rect x="1938.0" y="213.0" width="12.0" height="3" fill="#ff3c3c" stroke="#c71f1f" /><rect x="1938.0" y="234.5" width="12.0" height="3" fill="#ff3c3c" stroke="#c71f1f" /><rect x="1951.0" y="256.0" width="12.0" height="3" fill="#35df39" stroke="#03aa10" /><rect x="1951.0" y="277.0" width="12.0" height="3" fill="#35df39" stroke="#03aa10" /><rect x="1964.0" y="298.5" width="12.0" height="3" fill="#80c9ff" stroke="#0b6cba" /><rect x="1964.0" y="320.0" width="12.0" height="3" fill="#80c9ff" stroke="#0b6cba" /><rect x="1951.0" y="341.0" width="12.0" height="115.2" fill="#35df39" stroke="#03aa10" /><rect x="1964.0" y="469.0" width="12.0" height="3" fill="#80c9ff" stroke="#0b6cba" /><rect x="1951.0" y="511.5" width="12.0" height="115.2" fill="#35df39" stroke="#03aa10" /><rect x="1977.0" y="639.5" width="12.0" height="3" fill="#fff874" stroke="#eb9c26" /><rect x="1964.0" y="661.0" width="12.0" height="3" fill="#80c9ff" stroke="#0b6cba" /><rect x="2065.0" y="0.0" width="12.0" height="3" fill="#35df39" stroke="#03aa10" /><rect x="2078.0" y="341.0" width="12.0" height="3" fill="#80c9ff" stroke="#0b6cba" /><rect x="2065.0" y="362.5" width="12.0" height="3" fill="#35df39" stroke="#03aa10" /><rect x="2078.0" y="405.0" width="12.0" height="3" fill="#80c9ff" stroke="#0b6cba" /><rect x="2065.0" y="426.5" width="12.0" height="3" fill="#35df39" stroke="#03aa10" /><rect x="2078.0" y="469.0" width="12.0" height="3" fill="#80c9ff" stroke="#0b6cba" /><rect x="2065.0" y="490.5" width="12.0" height="3" fill="#35df39" stroke="#03aa10" /><rect x="2078.0" y="533.0" width="12.0" height="3" fill="#80c9ff" stroke="#0b6cba" /><rect x="2065.0" y="554.5" width="12.0" height="3" fill="#35df39" stroke="#03aa10" /><rect x="2052.0" y="575.5" width="12.0" height="3" fill="#ff3c3c" stroke="#c71f1f" /><rect x="2192.0" y="0.0" width="12.0" height="3" fill="#80c9ff" stroke="#0b6cba" /><rect x="2179.0" y="21.5" width="12.0" height="3" fill="#35df39" stroke="#03aa10" /><rect x="2192.0" y="64.0" width="12.0" height="3" fill="#80c9ff" stroke="#0b6cba" /><rect x="2179.0" y="85.5" width="12.0" height="3" fill="#35df39" stroke="#03aa10" /><rect x="2192.0" y="128.0" width="12.0" height="3" fill="#80c9ff" stroke="#0b6cba" /><rect x="2179.0" y="149.5" width="12.0" height="3" fill="#35df39" stroke="#03aa10" /><rect x="2166.0" y="170.5" width="12.0" height="3" fill="#ff3c3c" stroke="#c71f1f" /><rect x="2166.0" y="192.0" width="12.0" height="3" fill="#ff3c3c" stroke="#c71f1f" /><rect x="2179.0" y="213.5" width="12.0" height="3" fill="#35df39" stroke="#03aa10" /><rect x="2179.0" y="234.5" width="12.0" height="3" fill="#35df39" stroke="#03aa10" /><rect x="2192.0" y="256.0" width="12.0" height="3" fill="#80c9ff" stroke="#0b6cba" /><rect x="2192.0" y="277.5" width="12.0" height="3" fill="#80c9ff" stroke="#0b6cba" /><rect x="2205.0" y="298.5" width="12.0" height="3" fill="#fff874" stroke="#eb9c26" /><rect x="2192.0" y="341.5" width="12.0" height="3" fill="#80c9ff" stroke="#0b6cba" /><rect x="2179.0" y="384.0" width="12.0" height="3" fill="#35df39" stroke="#03aa10" /><rect x="2205.0" y="426.5" width="12.0" height="3" fill="#fff874" stroke="#eb9c26" /><rect x="2192.0" y="469.5" width="12.0" height="3" fill="#80c9ff" stroke="#0b6cba" /><rect x="2218.0" y="512.0" width="12.0" height="3" fill="#ff83f4" stroke="#d002bc" /><rect x="2205.0" y="554.5" width="12.0" height="3" fill="#fff874" stroke="#eb9c26" /><rect x="2192.0" y="597.5" width="12.0" height="3" fill="#80c9ff" stroke="#0b6cba" /><rect x="2192.0" y="618.5" width="12.0" height="3" fill="#80c9ff" stroke="#0b6cba" /><rect x="2205.0" y="640.0" width="12.0" height="3" fill="#fff874" stroke="#eb9c26" /><rect x="2205.0" y="661.5" width="12.0" height="3" fill="#fff874" stroke="#eb9c26" /><rect x="2332.0" y="0.0" width="12.0" height="3" fill="#ff83f4" stroke="#d002bc" /><rect x="2332.0" y="21.5" width="12.0" height="3" fill="#ff83f4" stroke="#d002bc" /><rect x="2332.0" y="42.5" width="12.0" height="3" fill="#ff83f4" stroke="#d002bc" /><rect x="2332.0" y="64.0" width="12.0" height="3" fill="#ff83f4" stroke="#d002bc" /><rect x="2319.0" y="85.5" width="12.0" height="3" fill="#fff874" stroke="#eb9c26" /><rect x="2319.0" y="106.5" width="12.0" height="3" fill="#fff874" stroke="#eb9c26" /><rect x="2319.0" y="128.0" width="12.0" height="3" fill="#fff874" stroke="#eb9c26" /><rect x="2319.0" y="149.5" width="12.0" height="3" fill="#fff874" stroke="#eb9c26" /><rect x="2306.0" y="170.5" width="12.0" height="3" fill="#80c9ff" stroke="#0b6cba" /><rect x="2306.0" y="192.0" width="12.0" height="3" fill="#80c9ff" stroke="#0b6cba" /><rect x="2319.0" y="213.5" width="12.0" height="3" fill="#fff874" stroke="#eb9c26" /><rect x="2306.0" y="234.5" width="12.0" height="3" fill="#80c9ff" stroke="#0b6cba" /><rect x="2280.0" y="341.5" width="12.0" height="3" fill="#ff3c3c" stroke="#c71f1f" /><rect x="2280.0" y="362.5" width="12.0" height="3" fill="#ff3c3c" stroke="#c71f1f" /><rect x="2280.0" y="384.0" width="12.0" height="3" fill="#ff3c3c" stroke="#c71f1f" /><rect x="2280.0" y="405.5" width="12.0" height="3" fill="#ff3c3c" stroke="#c71f1f" /><rect x="2293.0" y="426.5" width="12.0" height="3" fill="#35df39" stroke="#03aa10" /><rect x="2293.0" y="448.0" width="12.0" height="3" fill="#35df39" stroke="#03aa10" /><rect x="2306.0" y="469.5" width="12.0" height="3" fill="#80c9ff" stroke="#0b6cba" /><rect x="2306.0" y="490.5" width="12.0" height="3" fill="#80c9ff" stroke="#0b6cba" /><rect x="2293.0" y="512.0" width="12.0" height="3" fill="#35df39" stroke="#03aa10" /><rect x="2293.0" y="533.5" width="12.0" height="3" fill="#35df39" stroke="#03aa10" /><rect x="2306.0" y="554.5" width="12.0" height="3" fill="#80c9ff" stroke="#0b6cba" /><rect x="2306.0" y="576.0" width="12.0" height="3" fill="#80c9ff" stroke="#0b6cba" /><rect x="2293.0" y="597.0" width="12.0" height="3" fill="#35df39" stroke="#03aa10" /><rect x="2293.0" y="618.5" width="12.0" height="3" fill="#35df39" stroke="#03aa10" /><rect x="2319.0" y="640.0" width="12.0" height="3" fill="#fff874" stroke="#eb9c26" /><rect x="2306.0" y="661.0" width="12.0" height="3" fill="#80c9ff" stroke="#0b6cba" /><rect x="2433.0" y="0.0" width="12.0" height="3" fill="#fff874" stroke="#eb9c26" /><rect x="2407.0" y="64.0" width="12.0" height="3" fill="#35df39" stroke="#03aa10" /><rect x="2420.0" y="85.5" width="12.0" height="3" fill="#80c9ff" stroke="#0b6cba" /><rect x="2407.0" y="106.5" width="12.0" height="3" fill="#35df39" stroke="#03aa10" /><rect x="2433.0" y="128.0" width="12.0" height="3" fill="#fff874" stroke="#eb9c26" /><rect x="2407.0" y="149.5" width="12.0" height="3" fill="#35df39" stroke="#03aa10" /><rect x="2433.0" y="170.5" width="12.0" height="3" fill="#fff874" stroke="#eb9c26" /><rect x="2433.0" y="192.0" width="12.0" height="3" fill="#fff874" stroke="#eb9c26" /><rect x="2433.0" y="234.5" width="12.0" height="3" fill="#fff874" stroke="#eb9c26" /><rect x="2420.0" y="256.0" width="12.0" height="3" fill="#80c9ff" stroke="#0b6cba" /><rect x="2420.0" y="277.5" width="12.0" height="3" fill="#80c9ff" stroke="#0b6cba" /><rect x="2407.0" y="320.0" width="12.0" height="3" fill="#35df39" stroke="#03aa10" /><rect x="2407.0" y="341.5" width="12.0" height="341.0" fill="#35df39" stroke="#03aa10" /><rect x="2508.0" y="0.0" width="12.0" height="3" fill="#ff3c3c" stroke="#c71f1f" /><rect x="2508.0" y="21.5" width="12.0" height="3" fill="#ff3c3c" stroke="#c71f1f" /><rect x="2534.0" y="42.5" width="12.0" height="3" fill="#80c9ff" stroke="#0b6cba" /><rect x="2508.0" y="85.5" width="12.0" height="3" fill="#ff3c3c" stroke="#c71f1f" /><rect x="2521.0" y="106.5" width="12.0" height="3" fill="#35df39" stroke="#03aa10" /><rect x="2508.0" y="149.5" width="12.0" height="3" fill="#ff3c3c" stroke="#c71f1f" /><rect x="2508.0" y="192.0" width="12.0" height="3" fill="#ff3c3c" stroke="#c71f1f" /><rect x="2521.0" y="213.5" width="12.0" height="3" fill="#35df39" stroke="#03aa10" /><rect x="2534.0" y="256.0" width="12.0" height="3" fill="#80c9ff" stroke="#0b6cba" /><rect x="2534.0" y="277.5" width="12.0" height="3" fill="#80c9ff" stroke="#0b6cba" /><rect x="2534.0" y="298.5" width="12.0" height="3" fill="#80c9ff" stroke="#0b6cba" /><rect x="2521.0" y="341.0" width="12.0" height="3" fill="#35df39" stroke="#03aa10" /><rect x="2521.0" y="362.5" width="12.0" height="3" fill="#35df39" stroke="#03aa10" /><rect x="2521.0" y="384.0" width="12.0" height="3" fill="#35df39" stroke="#03aa10" /><rect x="2521.0" y="405.0" width="12.0" height="3" fill="#35df39" stroke="#03aa10" /><rect x="2521.0" y="426.5" width="12.0" height="3" fill="#35df39" stroke="#03aa10" /><rect x="2521.0" y="448.0" width="12.0" height="3" fill="#35df39" stroke="#03aa10" /><rect x="2521.0" y="469.0" width="12.0" height="3" fill="#35df39" stroke="#03aa10" /><rect x="2521.0" y="490.5" width="12.0" height="3" fill="#35df39" stroke="#03aa10" /><rect x="2508.0" y="512.0" width="12.0" height="3" fill="#ff3c3c" stroke="#c71f1f" /><rect x="2508.0" y="533.0" width="12.0" height="3" fill="#ff3c3c" stroke="#c71f1f" /><rect x="2508.0" y="554.5" width="12.0" height="3" fill="#ff3c3c" stroke="#c71f1f" /><rect x="2508.0" y="576.0" width="12.0" height="3" fill="#ff3c3c" stroke="#c71f1f" /><rect x="2534.0" y="597.0" width="12.0" height="3" fill="#80c9ff" stroke="#0b6cba" /><rect x="2534.0" y="618.5" width="12.0" height="3" fill="#80c9ff" stroke="#0b6cba" /><rect x="2534.0" y="640.0" width="12.0" height="3" fill="#80c9ff" stroke="#0b6cba" /><rect x="2534.0" y="661.0" width="12.0" height="3" fill="#80c9ff" stroke="#0b6cba" /><rect x="2661.0" y="0.0" width="12.0" height="3" fill="#fff874" stroke="#eb9c26" /><rect x="2661.0" y="21.5" width="12.0" height="3" fill="#fff874" stroke="#eb9c26" /><rect x="2635.0" y="42.5" width="12.0" height="3" fill="#35df39" stroke="#03aa10" /><rect x="2635.0" y="64.0" width="12.0" height="3" fill="#35df39" stroke="#03aa10" /><rect x="2648.0" y="85.5" width="12.0" height="3" fill="#80c9ff" stroke="#0b6cba" /><rect x="2648.0" y="106.5" width="12.0" height="3" fill="#80c9ff" stroke="#0b6cba" /><rect x="2648.0" y="128.0" width="12.0" height="3" fill="#80c9ff" stroke="#0b6cba" /><rect x="2648.0" y="149.5" width="12.0" height="3" fill="#80c9ff" stroke="#0b6cba" /><rect x="2635.0" y="170.5" width="12.0" height="3" fill="#35df39" stroke="#03aa10" /><rect x="2635.0" y="341.0" width="12.0" height="3" fill="#35df39" stroke="#03aa10" /><rect x="2635.0" y="384.0" width="12.0" height="3" fill="#35df39" stroke="#03aa10" /><rect x="2635.0" y="490.5" width="12.0" height="3" fill="#35df39" stroke="#03aa10" /><rect x="2635.0" y="533.0" width="12.0" height="3" fill="#35df39" stroke="#03aa10" /><rect x="2635.0" y="554.5" width="12.0" height="3" fill="#35df39" stroke="#03aa10" /><rect x="2635.0" y="576.0" width="12.0" height="3" fill="#35df39" stroke="#03aa10" /><rect x="2635.0" y="597.0" width="12.0" height="3" fill="#35df39" stroke="#03aa10" /><rect x="2635.0" y="618.5" width="12.0" height="3" fill="#35df39" stroke="#03aa10" /><rect x="2635.0" y="640.0" width="12.0" height="3" fill="#35df39" stroke="#03aa10" /><rect x="2635.0" y="661.0" width="12.0" height="3" fill="#35df39" stroke="#03aa10" /><rect x="2749.0" y="0.0" width="12.0" height="3" fill="#35df39" stroke="#03aa10" /><rect x="2736.0" y="42.5" width="12.0" height="3" fill="#ff3c3c" stroke="#c71f1f" /><rect x="2736.0" y="85.0" width="12.0" height="3" fill="#ff3c3c" stroke="#c71f1f" /><rect x="2749.0" y="128.0" width="12.0" height="3" fill="#35df39" stroke="#03aa10" /><rect x="2749.0" y="149.0" width="12.0" height="3" fill="#35df39" stroke="#03aa10" /><rect x="2762.0" y="213.0" width="12.0" height="3" fill="#80c9ff" stroke="#0b6cba" /><rect x="2762.0" y="256.0" width="12.0" height="3" fill="#80c9ff" stroke="#0b6cba" /><rect x="2775.0" y="298.5" width="12.0" height="3" fill="#fff874" stroke="#eb9c26" /><rect x="2762.0" y="384.0" width="12.0" height="115.2" fill="#80c9ff" stroke="#0b6cba" /><rect x="2762.0" y="512.0" width="12.0" height="3" fill="#80c9ff" stroke="#0b6cba" /><rect x="2749.0" y="576.0" width="12.0" height="3" fill="#35df39" stroke="#03aa10" /><rect x="2749.0" y="639.5" width="12.0" height="3" fill="#35df39" stroke="#03aa10" /><rect x="2749.0" y="661.0" width="12.0" height="3" fill="#35df39" stroke="#03aa10" /><rect x="2850.0" y="0.0" width="12.0" height="3" fill="#ff3c3c" stroke="#c71f1f" /><rect x="2876.0" y="85.0" width="12.0" height="3" fill="#80c9ff" stroke="#0b6cba" /><rect x="2850.0" y="128.0" width="12.0" height="3" fill="#ff3c3c" stroke="#c71f1f" /><rect x="2850.0" y="149.0" width="12.0" height="3" fill="#ff3c3c" stroke="#c71f1f" /><rect x="2850.0" y="213.0" width="12.0" height="3" fill="#ff3c3c" stroke="#c71f1f" /><rect x="2850.0" y="234.5" width="12.0" height="3" fill="#ff3c3c" stroke="#c71f1f" /><rect x="2863.0" y="256.0" width="12.0" height="3" fill="#35df39" stroke="#03aa10" /><rect x="2863.0" y="277.0" width="12.0" height="3" fill="#35df39" stroke="#03aa10" /><rect x="2876.0" y="298.5" width="12.0" height="3" fill="#80c9ff" stroke="#0b6cba" /><rect x="2876.0" y="320.0" width="12.0" height="3" fill="#80c9ff" stroke="#0b6cba" /><rect x="2863.0" y="341.0" width="12.0" height="115.2" fill="#35df39" stroke="#03aa10" /><rect x="2876.0" y="469.0" width="12.0" height="3" fill="#80c9ff" stroke="#0b6cba" /><rect x="2863.0" y="511.5" width="12.0" height="115.2" fill="#35df39" stroke="#03aa10" /><rect x="2889.0" y="639.5" width="12.0" height="3" fill="#fff874" stroke="#eb9c26" /><rect x="2876.0" y="661.0" width="12.0" height="3" fill="#80c9ff" stroke="#0b6cba" /><rect x="2977.0" y="0.0" width="12.0" height="3" fill="#35df39" stroke="#03aa10" /><rect x="2990.0" y="341.0" width="12.0" height="3" fill="#80c9ff" stroke="#0b6cba" /><rect x="2977.0" y="362.5" width="12.0" height="3" fill="#35df39" stroke="#03aa10" /><rect x="2990.0" y="405.0" width="12.0" height="3" fill="#80c9ff" stroke="#0b6cba" /><rect x="2977.0" y="426.5" width="12.0" height="3" fill="#35df39" stroke="#03aa10" /><rect x="2990.0" y="469.0" width="12.0" height="3" fill="#80c9ff" stroke="#0b6cba" /><rect x="2977.0" y="490.5" width="12.0" height="3" fill="#35df39" stroke="#03aa10" /><rect x="2990.0" y="533.0" width="12.0" height="3" fill="#80c9ff" stroke="#0b6cba" /><rect x="2977.0" y="554.5" width="12.0" height="3" fill="#35df39" stroke="#03aa10" /><rect x="2964.0" y="575.5" width="12.0" height="3" fill="#ff3c3c" stroke="#c71f1f" /><rect x="3104.0" y="0.0" width="12.0" height="3" fill="#80c9ff" stroke="#0b6cba" /><rect x="3091.0" y="21.5" width="12.0" height="3" fill="#35df39" stroke="#03aa10" /><rect x="3117.0" y="64.0" width="12.0" height="3" fill="#fff874" stroke="#eb9c26" /><rect x="3104.0" y="85.5" width="12.0" height="3" fill="#80c9ff" stroke="#0b6cba" /><rect x="3130.0" y="128.0" width="12.0" height="3" fill="#ff83f4" stroke="#d002bc" /><rect x="3117.0" y="149.5" width="12.0" height="3" fill="#fff874" stroke="#eb9c26" /><rect x="3104.0" y="171.0" width="12.0" height="3" fill="#80c9ff" stroke="#0b6cba" /><rect x="3104.0" y="192.0" width="12.0" height="3" fill="#80c9ff" stroke="#0b6cba" /><rect x="3104.0" y="213.5" width="12.0" height="3" fill="#80c9ff" stroke="#0b6cba" /><rect x="3104.0" y="235.0" width="12.0" height="3" fill="#80c9ff" stroke="#0b6cba" /></svg>