<?xml version="1.0" encoding="UTF-8"?><svg xmlns="http://www.w3.org/2000/svg" xmlns:xlink="http://www.w3.org/1999/xlink"     width="5236" height="954.5" viewBox="0 0 5236 954.5"><defs></defs><rect x="0" y="115.0" width="188" height="839.5" fill="black" /><rect x="0" y="953.5" width="188" height="1" fill="white" fill-opacity="0.5" /><text x="198" y="953.5" font-size="14" fill="white" font-family="monospace" dominant-baseline="initial">1</text><rect x="0" y="886.5" width="188" height="1" fill="white" fill-opacity="0.2" /><rect x="0" y="819.0" width="188" height="1" fill="white" fill-opacity="0.2" /><rect x="0" y="752.0" width="188" height="1" fill="white" fill-opacity="0.5" /><text x="198" y="752.0" font-size="14" fill="white" font-family="monospace" dominant-baseline="initial">2</text><rect x="0" y="685.0" width="188" height="1" fill="white" fill-opacity="0.2" /><rect x="0" y="617.5" width="188" height="1" fill="white" fill-opacity="0.2" /><rect x="0" y="550.5" width="188" height="1" fill="white" fill-opacity="0.5" /><text x="198" y="550.5" font-size="14" fill="white" font-family="monospace" dominant-baseline="initial">3</text><rect x="0" y="483.5" width="188" height="1" fill="white" fill-opacity="0.2" /><rect x="0" y="416.0" width="188" height="1" fill="white" fill-opacity="0.2" /><rect x="0" y="349.0" width="188" height="1" fill="white" fill-opacity="0.5" /><text x="198" y="349.0" font-size="14" fill="white" font-family="monospace" dominant-baseline="initial">4</text><rect x="0" y="315.5" width="188" height="1" fill="white" fill-opacity="0.2" /><rect x="0" y="282.0" width="188" height="1" fill="white" fill-opacity="0.2" /><rect x="0" y="248.5" width="188" height="1" fill="white" fill-opacity="0.2" /><rect x="0" y="214.5" width="188" height="1" fill="white" fill-opacity="0.2" /><rect x="0" y="181.0" width="188" height="1" fill="white" fill-opacity="0.2" /><rect x="0" y="147.5" width="188" height="1" fill="white" fill-opacity="0.2" /><rect x="0" y="114.0" width="188" height="1" fill="white" fill-opacity="0.5" /><text x="198" y="114.0" font-size="14" fill="white" font-family="monospace" dominant-baseline="initial">5</text><rect x="0" y="953.5" width="188" height="1" fill="aqua" fill-opacity="0.75" /><text x="0" y="949.5" font-size="14" fill="aqua" fill-opacity="0.75" font-family="monospace">Intro</text><rect x="0" y="953.5" width="188" height="1" fill="lime" fill-opacity="0.75" /><text x="198" y="940.5" font-size="14" fill="lime" font-family="monospace" dominant-baseline="initial">134</text><rect x="238" y="14.0" width="188" height="940.5" fill="black" /><rect x="238" y="953.5" width="188" height="1" fill="white" fill-opacity="0.5" /><text x="436" y="953.5" font-size="14" fill="white" font-family="monospace" dominant-baseline="initial">5</text><rect x="238" y="920.0" width="188" height="1" fill="white" fill-opacity="0.2" /><rect x="238" y="886.5" width="188" height="1" fill="white" fill-opacity="0.2" /><rect x="238" y="852.5" width="188" height="1" fill="white" fill-opacity="0.2" /><rect x="238" y="819.0" width="188" height="1" fill="white" fill-opacity="0.2" /><rect x="238" y="785.5" width="188" height="1" fill="white" fill-opacity="0.2" /><rect x="238" y="752.0" width="188" height="1" fill="white" fill-opacity="0.2" /><rect x="238" y="718.5" width="188" height="1" fill="white" fill-opacity="0.5" /><text x="436" y="718.5" font-size="14" fill="white" font-family="monospace" dominant-baseline="initial">6</text><rect x="238" y="685.0" width="188" height="1" fill="white" fill-opacity="0.2" /><rect x="238" y="651.0" width="188" height="1" fill="white" fill-opacity="0.2" /><rect x="238" y="617.5" width="188" height="1" fill="white" fill-opacity="0.2" /><rect x="238" y="584.0" width="188" height="1" fill="white" fill-opacity="0.2" /><rect x="238" y="550.5" width="188" height="1" fill="white" fill-opacity="0.2" /><rect x="238" y="517.0" width="188" height="1" fill="white" fill-opacity="0.2" /><rect x="238" y="483.5" width="188" height="1" fill="white" fill-opacity="0.5" /><text x="436" y="483.5" font-size="14" fill="white" font-family="monospace" dominant-baseline="initial">7</text><rect x="238" y="449.5" width="188" height="1" fill="white" fill-opacity="0.2" /><rect x="238" y="416.0" width="188" height="1" fill="white" fill-opacity="0.2" /><rect x="238" y="382.5" width="188" height="1" fill="white" fill-opacity="0.2" /><rect x="238" y="349.0" width="188" height="1" fill="white" fill-opacity="0.2" /><rect x="238" y="315.5" width="188" height="1" fill="white" fill-opacity="0.2" /><rect x="238" y="282.0" width="188" height="1" fill="white" fill-opacity="0.2" /><rect x="238" y="248.0" width="188" height="1" fill="white" fill-opacity="0.5" /><text x="436" y="248.0" font-size="14" fill="white" font-family="monospace" dominant-baseline="initial">8</text><rect x="238" y="214.5" width="188" height="1" fill="white" fill-opacity="0.2" /><rect x="238" y="181.0" width="188" height="1" fill="white" fill-opacity="0.2" /><rect x="238" y="147.5" width="188" height="1" fill="white" fill-opacity="0.2" /><rect x="238" y="114.0" width="188" height="1" fill="white" fill-opacity="0.2" /><rect x="238" y="80.5" width="188" height="1" fill="white" fill-opacity="0.2" /><rect x="238" y="46.5" width="188" height="1" fill="white" fill-opacity="0.2" /><rect x="238" y="13.0" width="188" height="1" fill="white" fill-opacity="0.5" /><text x="436" y="13.0" font-size="14" fill="white" font-family="monospace" dominant-baseline="initial">9</text><rect x="476" y="14.5" width="188" height="940.0" fill="black" /><rect x="476" y="953.5" width="188" height="1" fill="white" fill-opacity="0.5" /><text x="674" y="953.5" font-size="14" fill="white" font-family="monospace" dominant-baseline="initial">9</text><rect x="476" y="920.0" width="188" height="1" fill="white" fill-opacity="0.2" /><rect x="476" y="886.5" width="188" height="1" fill="white" fill-opacity="0.2" /><rect x="476" y="853.0" width="188" height="1" fill="white" fill-opacity="0.2" /><rect x="476" y="819.5" width="188" height="1" fill="white" fill-opacity="0.2" /><rect x="476" y="785.5" width="188" height="1" fill="white" fill-opacity="0.2" /><rect x="476" y="752.0" width="188" height="1" fill="white" fill-opacity="0.2" /><rect x="476" y="718.5" width="188" height="1" fill="white" fill-opacity="0.5" /><text x="674" y="718.5" font-size="14" fill="white" font-family="monospace" dominant-baseline="initial">10</text><rect x="476" y="685.0" width="188" height="1" fill="white" fill-opacity="0.2" /><rect x="476" y="651.5" width="188" height="1" fill="white" fill-opacity="0.2" /><rect x="476" y="618.0" width="188" height="1" fill="white" fill-opacity="0.2" /><rect x="476" y="584.0" width="188" height="1" fill="white" fill-opacity="0.2" /><rect x="476" y="550.5" width="188" height="1" fill="white" fill-opacity="0.2" /><rect x="476" y="517.0" width="188" height="1" fill="white" fill-opacity="0.2" /><rect x="476" y="483.5" width="188" height="1" fill="white" fill-opacity="0.5" /><text x="674" y="483.5" font-size="14" fill="white" font-family="monospace" dominant-baseline="initial">11</text><rect x="476" y="450.0" width="188" height="1" fill="white" fill-opacity="0.2" /><rect x="476" y="416.5" width="188" height="1" fill="white" fill-opacity="0.2" /><rect x="476" y="383.0" width="188" height="1" fill="white" fill-opacity="0.2" /><rect x="476" y="349.0" width="188" height="1" fill="white" fill-opacity="0.2" /><rect x="476" y="315.5" width="188" height="1" fill="white" fill-opacity="0.2" /><rect x="476" y="282.0" width="188" height="1" fill="white" fill-opacity="0.2" /><rect x="476" y="248.5" width="188" height="1" fill="white" fill-opacity="0.5" /><text x="674" y="248.5" font-size="14" fill="white" font-family="monospace" dominant-baseline="initial">12</text><rect x="476" y="215.0" width="188" height="1" fill="white" fill-opacity="0.2" /><rect x="476" y="181.5" width="188" height="1" fill="white" fill-opacity="0.2" /><rect x="476" y="147.5" width="188" height="1" fill="white" fill-opacity="0.2" /><rect x="476" y="114.0" width="188" height="1" fill="white" fill-opacity="0.2" /><rect x="476" y="80.5" width="188" height="1" fill="white" fill-opacity="0.2" /><rect x="476" y="47.0" width="188" height="1" fill="white" fill-opacity="0.2" /><rect x="476" y="13.5" width="188" height="1" fill="white" fill-opacity="0.5" /><text x="674" y="13.5" font-size="14" fill="white" font-family="monospace" dominant-baseline="initial">13</text><rect x="476" y="248.45000000000027" width="188" height="1" fill="aqua" fill-opacity="0.75" /><text x="476" y="244.45000000000027" font-size="14" fill="aqua" fill-opacity="0.75" font-family="monospace">Phrase A</text><rect x="714" y="14.0" width="188" height="940.5" fill="black" /><rect x="714" y="953.5" width="188" height="1" fill="white" fill-opacity="0.5" /><text x="912" y="953.5" font-size="14" fill="white" font-family="monospace" dominant-baseline="initial">13</text><rect x="714" y="920.0" width="188" height="1" fill="white" fill-opacity="0.2" /><rect x="714" y="886.0" width="188" height="1" fill="white" fill-opacity="0.2" /><rect x="714" y="852.5" width="188" height="1" fill="white" fill-opacity="0.2" /><rect x="714" y="819.0" width="188" height="1" fill="white" fill-opacity="0.2" /><rect x="714" y="785.5" width="188" height="1" fill="white" fill-opacity="0.2" /><rect x="714" y="752.0" width="188" height="1" fill="white" fill-opacity="0.2" /><rect x="714" y="718.5" width="188" height="1" fill="white" fill-opacity="0.5" /><text x="912" y="718.5" font-size="14" fill="white" font-family="monospace" dominant-baseline="initial">14</text><rect x="714" y="684.5" width="188" height="1" fill="white" fill-opacity="0.2" /><rect x="714" y="651.0" width="188" height="1" fill="white" fill-opacity="0.2" /><rect x="714" y="617.5" width="188" height="1" fill="white" fill-opacity="0.2" /><rect x="714" y="584.0" width="188" height="1" fill="white" fill-opacity="0.2" /><rect x="714" y="550.5" width="188" height="1" fill="white" fill-opacity="0.2" /><rect x="714" y="517.0" width="188" height="1" fill="white" fill-opacity="0.2" /><rect x="714" y="483.0" width="188" height="1" fill="white" fill-opacity="0.5" /><text x="912" y="483.0" font-size="14" fill="white" font-family="monospace" dominant-baseline="initial">15</text><rect x="714" y="449.5" width="188" height="1" fill="white" fill-opacity="0.2" /><rect x="714" y="416.0" width="188" height="1" fill="white" fill-opacity="0.2" /><rect x="714" y="382.5" width="188" height="1" fill="white" fill-opacity="0.2" /><rect x="714" y="349.0" width="188" height="1" fill="white" fill-opacity="0.2" /><rect x="714" y="315.5" width="188" height="1" fill="white" fill-opacity="0.2" /><rect x="714" y="281.5" width="188" height="1" fill="white" fill-opacity="0.2" /><rect x="714" y="248.0" width="188" height="1" fill="white" fill-opacity="0.5" /><text x="912" y="248.0" font-size="14" fill="white" font-family="monospace" dominant-baseline="initial">16</text><rect x="714" y="214.5" width="188" height="1" fill="white" fill-opacity="0.2" /><rect x="714" y="181.0" width="188" height="1" fill="white" fill-opacity="0.2" /><rect x="714" y="147.5" width="188" height="1" fill="white" fill-opacity="0.2" /><rect x="714" y="114.0" width="188" height="1" fill="white" fill-opacity="0.2" /><rect x="714" y="80.0" width="188" height="1" fill="white" fill-opacity="0.2" /><rect x="714" y="46.5" width="188" height="1" fill="white" fill-opacity="0.2" /><rect x="714" y="13.0" width="188" height="1" fill="white" fill-opacity="0.5" /><text x="912" y="13.0" font-size="14" fill="white" font-family="monospace" dominant-baseline="initial">17</text><rect x="952" y="48.0" width="188" height="906.5" fill="black" /><rect x="952" y="953.5" width="188" height="1" fill="white" fill-opacity="0.5" /><text x="1150" y="953.5" font-size="14" fill="white" font-family="monospace" dominant-baseline="initial">17</text><rect x="952" y="920.0" width="188" height="1" fill="white" fill-opacity="0.2" /><rect x="952" y="886.5" width="188" height="1" fill="white" fill-opacity="0.2" /><rect x="952" y="853.0" width="188" height="1" fill="white" fill-opacity="0.2" /><rect x="952" y="819.0" width="188" height="1" fill="white" fill-opacity="0.2" /><rect x="952" y="785.5" width="188" height="1" fill="white" fill-opacity="0.2" /><rect x="952" y="752.0" width="188" height="1" fill="white" fill-opacity="0.2" /><rect x="952" y="718.5" width="188" height="1" fill="white" fill-opacity="0.5" /><text x="1150" y="718.5" font-size="14" fill="white" font-family="monospace" dominant-baseline="initial">18</text><rect x="952" y="685.0" width="188" height="1" fill="white" fill-opacity="0.2" /><rect x="952" y="651.5" width="188" height="1" fill="white" fill-opacity="0.2" /><rect x="952" y="617.5" width="188" height="1" fill="white" fill-opacity="0.2" /><rect x="952" y="584.0" width="188" height="1" fill="white" fill-opacity="0.2" /><rect x="952" y="550.5" width="188" height="1" fill="white" fill-opacity="0.2" /><rect x="952" y="517.0" width="188" height="1" fill="white" fill-opacity="0.2" /><rect x="952" y="483.5" width="188" height="1" fill="white" fill-opacity="0.5" /><text x="1150" y="483.5" font-size="14" fill="white" font-family="monospace" dominant-baseline="initial">19</text><rect x="952" y="450.0" width="188" height="1" fill="white" fill-opacity="0.2" /><rect x="952" y="416.0" width="188" height="1" fill="white" fill-opacity="0.2" /><rect x="952" y="382.5" width="188" height="1" fill="white" fill-opacity="0.2" /><rect x="952" y="349.0" width="188" height="1" fill="white" fill-opacity="0.2" /><rect x="952" y="315.5" width="188" height="1" fill="white" fill-opacity="0.2" /><rect x="952" y="282.0" width="188" height="1" fill="white" fill-opacity="0.2" /><rect x="952" y="248.5" width="188" height="1" fill="white" fill-opacity="0.5" /><text x="1150" y="248.5" font-size="14" fill="white" font-family="monospace" dominant-baseline="initial">20</text><rect x="952" y="181.0" width="188" height="1" fill="white" fill-opacity="0.2" /><rect x="952" y="114.0" width="188" height="1" fill="white" fill-opacity="0.2" /><rect x="952" y="47.0" width="188" height="1" fill="white" fill-opacity="0.5" /><text x="1150" y="47.0" font-size="14" fill="white" font-family="monospace" dominant-baseline="initial">21</text><rect x="952" y="248.40000000000055" width="188" height="1" fill="aqua" fill-opacity="0.75" /><text x="952" y="244.40000000000055" font-size="14" fill="aqua" fill-opacity="0.75" font-family="monospace">Phrase B</text><rect x="1190" y="148.5" width="188" height="806.0" fill="black" /><rect x="1190" y="953.5" width="188" height="1" fill="white" fill-opacity="0.5" /><text x="1388" y="953.5" font-size="14" fill="white" font-family="monospace" dominant-baseline="initial">21</text><rect x="1190" y="886.0" width="188" height="1" fill="white" fill-opacity="0.2" /><rect x="1190" y="819.0" width="188" height="1" fill="white" fill-opacity="0.2" /><rect x="1190" y="752.0" width="188" height="1" fill="white" fill-opacity="0.5" /><text x="1388" y="752.0" font-size="14" fill="white" font-family="monospace" dominant-baseline="initial">22</text><rect x="1190" y="684.5" width="188" height="1" fill="white" fill-opacity="0.2" /><rect x="1190" y="617.5" width="188" height="1" fill="white" fill-opacity="0.2" /><rect x="1190" y="550.5" width="188" height="1" fill="white" fill-opacity="0.5" /><text x="1388" y="550.5" font-size="14" fill="white" font-family="monospace" dominant-baseline="initial">23</text><rect x="1190" y="483.0" width="188" height="1" fill="white" fill-opacity="0.2" /><rect x="1190" y="416.0" width="188" height="1" fill="white" fill-opacity="0.2" /><rect x="1190" y="349.0" width="188" height="1" fill="white" fill-opacity="0.5" /><text x="1388" y="349.0" font-size="14" fill="white" font-family="monospace" dominant-baseline="initial">24</text><rect x="1190" y="281.5" width="188" height="1" fill="white" fill-opacity="0.2" /><rect x="1190" y="214.5" width="188" height="1" fill="white" fill-opacity="0.2" /><rect x="1190" y="147.5" width="188" height="1" fill="white" fill-opacity="0.5" /><text x="1388" y="147.5" font-size="14" fill="white" font-family="monospace" dominant-baseline="initial">25</text><rect x="1428" y="148.5" width="188" height="806.0" fill="black" /><rect x="1428" y="953.5" width="188" height="1" fill="white" fill-opacity="0.5" /><text x="1626" y="953.5" font-size="14" fill="white" font-family="monospace" dominant-baseline="initial">25</text><rect x="1428" y="886.0" width="188" height="1" fill="white" fill-opacity="0.2" /><rect x="1428" y="819.0" width="188" height="1" fill="white" fill-opacity="0.2" /><rect x="1428" y="752.0" width="188" height="1" fill="white" fill-opacity="0.5" /><text x="1626" y="752.0" font-size="14" fill="white" font-family="monospace" dominant-baseline="initial">26</text><rect x="1428" y="684.5" width="188" height="1" fill="white" fill-opacity="0.2" /><rect x="1428" y="617.5" width="188" height="1" fill="white" fill-opacity="0.2" /><rect x="1428" y="550.5" width="188" height="1" fill="white" fill-opacity="0.5" /><text x="1626" y="550.5" font-size="14" fill="white" font-family="monospace" dominant-baseline="initial">27</text><rect x="1428" y="483.0" width="188" height="1" fill="white" fill-opacity="0.2" /><rect x="1428" y="416.0" width="188" height="1" fill="white" fill-opacity="0.2" /><rect x="1428" y="349.0" width="188" height="1" fill="white" fill-opacity="0.5" /><text x="1626" y="349.0" font-size="14" fill="white" font-family="monospace" dominant-baseline="initial">28</text><rect x="1428" y="281.5" width="188" height="1" fill="white" fill-opacity="0.2" /><rect x="1428" y="214.5" width="188" height="1" fill="white" fill-opacity="0.2" /><rect x="1428" y="147.5" width="188" height="1" fill="white" fill-opacity="0.5" /><text x="1626" y="147.5" font-size="14" fill="white" font-family="monospace" dominant-baseline="initial">29</text><rect x="1666" y="148.5" width="188" height="806.0" fill="black" /><rect x="1666" y="953.5" width="188" height="1" fill="white" fill-opacity="0.5" /><text x="1864" y="953.5" font-size="14" fill="white" font-family="monospace" dominant-baseline="initial">29</text><rect x="1666" y="886.0" width="188" height="1" fill="white" fill-opacity="0.2" /><rect x="1666" y="819.0" width="188" height="1" fill="white" fill-opacity="0.2" /><rect x="1666" y="752.0" width="188" height="1" fill="white" fill-opacity="0.5" /><text x="1864" y="752.0" font-size="14" fill="white" font-family="monospace" dominant-baseline="initial">30</text><rect x="1666" y="684.5" width="188" height="1" fill="white" fill-opacity="0.2" /><rect x="1666" y="617.5" width="188" height="1" fill="white" fill-opacity="0.2" /><rect x="1666" y="550.5" width="188" height="1" fill="white" fill-opacity="0.5" /><text x="1864" y="550.5" font-size="14" fill="white" font-family="monospace" dominant-baseline="initial">31</text><rect x="1666" y="483.0" width="188" height="1" fill="white" fill-opacity="0.2" /><rect x="1666" y="416.0" width="188" height="1" fill="white" fill-opacity="0.2" /><rect x="1666" y="349.0" width="188" height="1" fill="white" fill-opacity="0.5" /><text x="1864" y="349.0" font-size="14" fill="white" font-family="monospace" dominant-baseline="initial">32</text><rect x="1666" y="282.0" width="188" height="1" fill="white" fill-opacity="0.2" /><rect x="1666" y="214.5" width="188" height="1" fill="white" fill-opacity="0.2" /><rect x="1666" y="147.5" width="188" height="1" fill="white" fill-opacity="0.5" /><text x="1864" y="147.5" font-size="14" fill="white" font-family="monospace" dominant-baseline="initial">33</text><rect x="1666" y="953.4000000000005" width="188" height="1" fill="aqua" fill-opacity="0.75" /><text x="1666" y="949.4000000000005" font-size="14" fill="aqua" fill-opacity="0.75" font-family="monospace">Phrase C</text><rect x="1904" y="148.5" width="188" height="806.0" fill="black" /><rect x="1904" y="953.5" width="188" height="1" fill="white" fill-opacity="0.5" /><text x="2102" y="953.5" font-size="14" fill="white" font-family="monospace" dominant-baseline="initial">33</text><rect x="1904" y="886.5" width="188" height="1" fill="white" fill-opacity="0.2" /><rect x="1904" y="819.0" width="188" height="1" fill="white" fill-opacity="0.2" /><rect x="1904" y="752.0" width="188" height="1" fill="white" fill-opacity="0.5" /><text x="2102" y="752.0" font-size="14" fill="white" font-family="monospace" dominant-baseline="initial">34</text><rect x="1904" y="685.0" width="188" height="1" fill="white" fill-opacity="0.2" /><rect x="1904" y="617.5" width="188" height="1" fill="white" fill-opacity="0.2" /><rect x="1904" y="550.5" width="188" height="1" fill="white" fill-opacity="0.5" /><text x="2102" y="550.5" font-size="14" fill="white" font-family="monospace" dominant-baseline="initial">35</text><rect x="1904" y="483.5" width="188" height="1" fill="white" fill-opacity="0.2" /><rect x="1904" y="416.0" width="188" height="1" fill="white" fill-opacity="0.2" /><rect x="1904" y="349.0" width="188" height="1" fill="white" fill-opacity="0.5" /><text x="2102" y="349.0" font-size="14" fill="white" font-family="monospace" dominant-baseline="initial">36</text><rect x="1904" y="282.0" width="188" height="1" fill="white" fill-opacity="0.2" /><rect x="1904" y="214.5" width="188" height="1" fill="white" fill-opacity="0.2" /><rect x="1904" y="147.5" width="188" height="1" fill="white" fill-opacity="0.5" /><text x="2102" y="147.5" font-size="14" fill="white" font-family="monospace" dominant-baseline="initial">37</text><rect x="2142" y="148.5" width="188" height="806.0" fill="black" /><rect x="2142" y="953.5" width="188" height="1" fill="white" fill-opacity="0.5" /><text x="2340" y="953.5" font-size="14" fill="white" font-family="monospace" dominant-baseline="initial">37</text><rect x="2142" y="886.5" width="188" height="1" fill="white" fill-opacity="0.2" /><rect x="2142" y="819.0" width="188" height="1" fill="white" fill-opacity="0.2" /><rect x="2142" y="752.0" width="188" height="1" fill="white" fill-opacity="0.5" /><text x="2340" y="752.0" font-size="14" fill="white" font-family="monospace" dominant-baseline="initial">38</text><rect x="2142" y="685.0" width="188" height="1" fill="white" fill-opacity="0.2" /><rect x="2142" y="617.5" width="188" height="1" fill="white" fill-opacity="0.2" /><rect x="2142" y="550.5" width="188" height="1" fill="white" fill-opacity="0.5" /><text x="2340" y="550.5" font-size="14" fill="white" font-family="monospace" dominant-baseline="initial">39</text><rect x="2142" y="483.5" width="188" height="1" fill="white" fill-opacity="0.2" /><rect x="2142" y="416.0" width="188" height="1" fill="white" fill-opacity="0.2" /><rect x="2142" y="349.0" width="188" height="1" fill="white" fill-opacity="0.5" /><text x="2340" y="349.0" font-size="14" fill="white" font-family="monospace" dominant-baseline="initial">40</text><rect x="2142" y="282.0" width="188" height="1" fill="white" fill-opacity="0.2" /><rect x="2142" y="214.5" width="188" height="1" fill="white" fill-opacity="0.2" /><rect x="2142" y="147.5" width="188" height="1" fill="white" fill-opacity="0.5" /><text x="2340" y="147.5" font-size="14" fill="white" font-family="monospace" dominant-baseline="initial">41</text><rect x="2142" y="953.5" width="188" height="1" fill="aqua" fill-opacity="0.75" /><text x="2142" y="949.5" font-size="14" fill="aqua" fill-opacity="0.75" font-family="monospace">Phrase D</text><rect x="2380" y="148.5" width="188" height="806.0" fill="black" /><rect x="2380" y="953.5" width="188" height="1" fill="white" fill-opacity="0.5" /><text x="2578" y="953.5" font-size="14" fill="white" font-family="monospace" dominant-baseline="initial">41</text><rect x="2380" y="886.5" width="188" height="1" fill="white" fill-opacity="0.2" /><rect x="2380" y="819.0" width="188" height="1" fill="white" fill-opacity="0.2" /><rect x="2380" y="752.0" width="188" height="1" fill="white" fill-opacity="0.5" /><text x="2578" y="752.0" font-size="14" fill="white" font-family="monospace" dominant-baseline="initial">42</text><rect x="2380" y="685.0" width="188" height="1" fill="white" fill-opacity="0.2" /><rect x="2380" y="617.5" width="188" height="1" fill="white" fill-opacity="0.2" /><rect x="2380" y="550.5" width="188" height="1" fill="white" fill-opacity="0.5" /><text x="2578" y="550.5" font-size="14" fill="white" font-family="monospace" dominant-baseline="initial">43</text><rect x="2380" y="483.5" width="188" height="1" fill="white" fill-opacity="0.2" /><rect x="2380" y="416.0" width="188" height="1" fill="white" fill-opacity="0.2" /><rect x="2380" y="349.0" width="188" height="1" fill="white" fill-opacity="0.5" /><text x="2578" y="349.0" font-size="14" fill="white" font-family="monospace" dominant-baseline="initial">44</text><rect x="2380" y="282.0" width="188" height="1" fill="white" fill-opacity="0.2" /><rect x="2380" y="214.5" width="188" height="1" fill="white" fill-opacity="0.2" /><rect x="2380" y="147.5" width="188" height="1" fill="white" fill-opacity="0.5" /><text x="2578" y="147.5" font-size="14" fill="white" font-family="monospace" dominant-baseline="initial">45</text><rect x="2618" y="148.5" width="188" height="806.0" fill="black" /><rect x="2618" y="953.5" width="188" height="1" fill="white" fill-opacity="0.5" /><text x="2816" y="953.5" font-size="14" fill="white" font-family="monospace" dominant-baseline="initial">45</text><rect x="2618" y="886.5" width="188" height="1" fill="white" fill-opacity="0.2" /><rect x="2618" y="819.0" width="188" height="1" fill="white" fill-opacity="0.2" /><rect x="2618" y="752.0" width="188" height="1" fill="white" fill-opacity="0.5" /><text x="2816" y="752.0" font-size="14" fill="white" font-family="monospace" dominant-baseline="initial">46</text><rect x="2618" y="685.0" width="188" height="1" fill="white" fill-opacity="0.2" /><rect x="2618" y="617.5" width="188" height="1" fill="white" fill-opacity="0.2" /><rect x="2618" y="550.5" width="188" height="1" fill="white" fill-opacity="0.5" /><text x="2816" y="550.5" font-size="14" fill="white" font-family="monospace" dominant-baseline="initial">47</text><rect x="2618" y="483.5" width="188" height="1" fill="white" fill-opacity="0.2" /><rect x="2618" y="416.0" width="188" height="1" fill="white" fill-opacity="0.2" /><rect x="2618" y="349.0" width="188" height="1" fill="white" fill-opacity="0.5" /><text x="2816" y="349.0" font-size="14" fill="white" font-family="monospace" dominant-baseline="initial">48</text><rect x="2618" y="282.0" width="188" height="1" fill="white" fill-opacity="0.2" /><rect x="2618" y="214.5" width="188" height="1" fill="white" fill-opacity="0.2" /><rect x="2618" y="147.5" width="188" height="1" fill="white" fill-opacity="0.5" /><text x="2816" y="147.5" font-size="14" fill="white" font-family="monospace" dominant-baseline="initial">49</text><rect x="2618" y="752.0" width="188" height="1" fill="aqua" fill-opacity="0.75" /><text x="2618" y="748.0" font-size="14" fill="aqua" fill-opacity="0.75" font-family="monospace">Special</text><rect x="2856" y="148.5" width="188" height="806.0" fill="black" /><rect x="2856" y="953.5" width="188" height="1" fill="white" fill-opacity="0.5" /><text x="3054" y="953.5" font-size="14" fill="white" font-family="monospace" dominant-baseline="initial">49</text><rect x="2856" y="886.5" width="188" height="1" fill="white" fill-opacity="0.2" /><rect x="2856" y="819.0" width="188" height="1" fill="white" fill-opacity="0.2" /><rect x="2856" y="752.0" width="188" height="1" fill="white" fill-opacity="0.5" /><text x="3054" y="752.0" font-size="14" fill="white" font-family="monospace" dominant-baseline="initial">50</text><rect x="2856" y="685.0" width="188" height="1" fill="white" fill-opacity="0.2" /><rect x="2856" y="617.5" width="188" height="1" fill="white" fill-opacity="0.2" /><rect x="2856" y="550.5" width="188" height="1" fill="white" fill-opacity="0.5" /><text x="3054" y="550.5" font-size="14" fill="white" font-family="monospace" dominant-baseline="initial">51</text><rect x="2856" y="483.5" width="188" height="1" fill="white" fill-opacity="0.2" /><rect x="2856" y="416.0" width="188" height="1" fill="white" fill-opacity="0.2" /><rect x="2856" y="349.0" width="188" height="1" fill="white" fill-opacity="0.5" /><text x="3054" y="349.0" font-size="14" fill="white" font-family="monospace" dominant-baseline="initial">52</text><rect x="2856" y="282.0" width="188" height="1" fill="white" fill-opacity="0.2" /><rect x="2856" y="214.5" width="188" height="1" fill="white" fill-opacity="0.2" /><rect x="2856" y="147.5" width="188" height="1" fill="white" fill-opacity="0.5" /><text x="3054" y="147.5" font-size="14" fill="white" font-family="monospace" dominant-baseline="initial">53</text><rect x="3094" y="148.5" width="188" height="806.0" fill="black" /><rect x="3094" y="953.5" width="188" height="1" fill="white" fill-opacity="0.5" /><text x="3292" y="953.5" font-size="14" fill="white" font-family="monospace" dominant-baseline="initial">53</text><rect x="3094" y="886.5" width="188" height="1" fill="white" fill-opacity="0.2" /><rect x="3094" y="819.5" width="188" height="1" fill="white" fill-opacity="0.2" /><rect x="3094" y="752.0" width="188" height="1" fill="white" fill-opacity="0.5" /><text x="3292" y="752.0" font-size="14" fill="white" font-family="monospace" dominant-baseline="initial">54</text><rect x="3094" y="685.0" width="188" height="1" fill="white" fill-opacity="0.2" /><rect x="3094" y="618.0" width="188" height="1" fill="white" fill-opacity="0.2" /><rect x="3094" y="550.5" width="188" height="1" fill="white" fill-opacity="0.5" /><text x="3292" y="550.5" font-size="14" fill="white" font-family="monospace" dominant-baseline="initial">55</text><rect x="3094" y="483.5" width="188" height="1" fill="white" fill-opacity="0.2" /><rect x="3094" y="416.5" width="188" height="1" fill="white" fill-opacity="0.2" /><rect x="3094" y="349.0" width="188" height="1" fill="white" fill-opacity="0.5" /><text x="3292" y="349.0" font-size="14" fill="white" font-family="monospace" dominant-baseline="initial">56</text><rect x="3094" y="282.0" width="188" height="1" fill="white" fill-opacity="0.2" /><rect x="3094" y="215.0" width="188" height="1" fill="white" fill-opacity="0.2" /><rect x="3094" y="147.5" width="188" height="1" fill="white" fill-opacity="0.5" /><text x="3292" y="147.5" font-size="14" fill="white" font-family="monospace" dominant-baseline="initial">57</text><rect x="3332" y="148.5" width="188" height="806.0" fill="black" /><rect x="3332" y="953.5" width="188" height="1" fill="white" fill-opacity="0.5" /><text x="3530" y="953.5" font-size="14" fill="white" font-family="monospace" dominant-baseline="initial">57</text><rect x="3332" y="886.5" width="188" height="1" fill="white" fill-opacity="0.2" /><rect x="3332" y="819.5" width="188" height="1" fill="white" fill-opacity="0.2" /><rect x="3332" y="752.0" width="188" height="1" fill="white" fill-opacity="0.5" /><text x="3530" y="752.0" font-size="14" fill="white" font-family="monospace" dominant-baseline="initial">58</text><rect x="3332" y="685.0" width="188" height="1" fill="white" fill-opacity="0.2" /><rect x="3332" y="618.0" width="188" height="1" fill="white" fill-opacity="0.2" /><rect x="3332" y="550.5" width="188" height="1" fill="white" fill-opacity="0.5" /><text x="3530" y="550.5" font-size="14" fill="white" font-family="monospace" dominant-baseline="initial">59</text><rect x="3332" y="483.5" width="188" height="1" fill="white" fill-opacity="0.2" /><rect x="3332" y="416.5" width="188" height="1" fill="white" fill-opacity="0.2" /><rect x="3332" y="349.0" width="188" height="1" fill="white" fill-opacity="0.5" /><text x="3530" y="349.0" font-size="14" fill="white" font-family="monospace" dominant-baseline="initial">60</text><rect x="3332" y="282.0" width="188" height="1" fill="white" fill-opacity="0.2" /><rect x="3332" y="215.0" width="188" height="1" fill="white" fill-opacity="0.2" /><rect x="3332" y="147.5" width="188" height="1" fill="white" fill-opacity="0.5" /><text x="3530" y="147.5" font-size="14" fill="white" font-family="monospace" dominant-baseline="initial">61</text><rect x="3570" y="148.5" width="188" height="806.0" fill="black" /><rect x="3570" y="953.5" width="188" height="1" fill="white" fill-opacity="0.5" /><text x="3768" y="953.5" font-size="14" fill="white" font-family="monospace" dominant-baseline="initial">61</text><rect x="3570" y="886.5" width="188" height="1" fill="white" fill-opacity="0.2" /><rect x="3570" y="819.5" width="188" height="1" fill="white" fill-opacity="0.2" /><rect x="3570" y="752.0" width="188" height="1" fill="white" fill-opacity="0.5" /><text x="3768" y="752.0" font-size="14" fill="white" font-family="monospace" dominant-baseline="initial">62</text><rect x="3570" y="685.0" width="188" height="1" fill="white" fill-opacity="0.2" /><rect x="3570" y="618.0" width="188" height="1" fill="white" fill-opacity="0.2" /><rect x="3570" y="550.5" width="188" height="1" fill="white" fill-opacity="0.5" /><text x="3768" y="550.5" font-size="14" fill="white" font-family="monospace" dominant-baseline="initial">63</text><rect x="3570" y="483.5" width="188" height="1" fill="white" fill-opacity="0.2" /><rect x="3570" y="416.5" width="188" height="1" fill="white" fill-opacity="0.2" /><rect x="3570" y="349.0" width="188" height="1" fill="white" fill-opacity="0.5" /><text x="3768" y="349.0" font-size="14" fill="white" font-family="monospace" dominant-baseline="initial">64</text><rect x="3570" y="282.0" width="188" height="1" fill="white" fill-opacity="0.2" /><rect x="3570" y="215.0" width="188" height="1" fill="white" fill-opacity="0.2" /><rect x="3570" y="147.5" width="188" height="1" fill="white" fill-opacity="0.5" /><text x="3768" y="147.5" font-size="14" fill="white" font-family="monospace" dominant-baseline="initial">65</text><rect x="3570" y="752.2000000000007" width="188" height="1" fill="aqua" fill-opacity="0.75" /><text x="3570" y="748.2000000000007" font-size="14" fill="aqua" fill-opacity="0.75" font-family="monospace">Special</text><rect x="3808" y="148.5" width="188" height="806.0" fill="black" /><rect x="3808" y="953.5" width="188" height="1" fill="white" fill-opacity="0.5" /><text x="4006" y="953.5" font-size="14" fill="white" font-family="monospace" dominant-baseline="initial">65</text><rect x="3808" y="886.5" width="188" height="1" fill="white" fill-opacity="0.2" /><rect x="3808" y="819.5" width="188" height="1" fill="white" fill-opacity="0.2" /><rect x="3808" y="752.0" width="188" height="1" fill="white" fill-opacity="0.5" /><text x="4006" y="752.0" font-size="14" fill="white" font-family="monospace" dominant-baseline="initial">66</text><rect x="3808" y="685.0" width="188" height="1" fill="white" fill-opacity="0.2" /><rect x="3808" y="618.0" width="188" height="1" fill="white" fill-opacity="0.2" /><rect x="3808" y="550.5" width="188" height="1" fill="white" fill-opacity="0.5" /><text x="4006" y="550.5" font-size="14" fill="white" font-family="monospace" dominant-baseline="initial">67</text><rect x="3808" y="483.5" width="188" height="1" fill="white" fill-opacity="0.2" /><rect x="3808" y="416.5" width="188" height="1" fill="white" fill-opacity="0.2" /><rect x="3808" y="349.0" width="188" height="1" fill="white" fill-opacity="0.5" /><text x="4006" y="349.0" font-size="14" fill="white" font-family="monospace" dominant-baseline="initial">68</text><rect x="3808" y="282.0" width="188" height="1" fill="white" fill-opacity="0.2" /><rect x="3808" y="215.0" width="188" height="1" fill="white" fill-opacity="0.2" /><rect x="3808" y="147.5" width="188" height="1" fill="white" fill-opacity="0.5" /><text x="4006" y="147.5" font-size="14" fill="white" font-family="monospace" dominant-baseline="initial">69</text><rect x="4046" y="148.5" width="188" height="806.0" fill="black" /><rect x="4046" y="953.5" width="188" height="1" fill="white" fill-opacity="0.5" /><text x="4244" y="953.5" font-size="14" fill="white" font-family="monospace" dominant-baseline="initial">69</text><rect x="4046" y="886.5" width="188" height="1" fill="white" fill-opacity="0.2" /><rect x="4046" y="819.5" width="188" height="1" fill="white" fill-opacity="0.2" /><rect x="4046" y="752.0" width="188" height="1" fill="white" fill-opacity="0.5" /><text x="4244" y="752.0" font-size="14" fill="white" font-family="monospace" dominant-baseline="initial">70</text><rect x="4046" y="685.0" width="188" height="1" fill="white" fill-opacity="0.2" /><rect x="4046" y="618.0" width="188" height="1" fill="white" fill-opacity="0.2" /><rect x="4046" y="550.5" width="188" height="1" fill="white" fill-opacity="0.5" /><text x="4244" y="550.5" font-size="14" fill="white" font-family="monospace" dominant-baseline="initial">71</text><rect x="4046" y="483.5" width="188" height="1" fill="white" fill-opacity="0.2" /><rect x="4046" y="416.5" width="188" height="1" fill="white" fill-opacity="0.2" /><rect x="4046" y="349.0" width="188" height="1" fill="white" fill-opacity="0.5" /><text x="4244" y="349.0" font-size="14" fill="white" font-family="monospace" dominant-baseline="initial">72</text><rect x="4046" y="282.0" width="188" height="1" fill="white" fill-opacity="0.2" /><rect x="4046" y="215.0" width="188" height="1" fill="white" fill-opacity="0.2" /><rect x="4046" y="147.5" width="188" height="1" fill="white" fill-opacity="0.5" /><text x="4244" y="147.5" font-size="14" fill="white" font-family="monospace" dominant-baseline="initial">73</text><rect x="4284" y="81.5" width="188" height="873.0" fill="black" /><rect x="4284" y="953.5" width="188" height="1" fill="white" fill-opacity="0.5" /><text x="4482" y="953.5" font-size="14" fill="white" font-family="monospace" dominant-baseline="initial">73</text><rect x="4284" y="886.5" width="188" height="1" fill="white" fill-opacity="0.2" /><rect x="4284" y="819.5" width="188" height="1" fill="white" fill-opacity="0.2" /><rect x="4284" y="752.0" width="188" height="1" fill="white" fill-opacity="0.5" /><text x="4482" y="752.0" font-size="14" fill="white" font-family="monospace" dominant-baseline="initial">74</text><rect x="4284" y="707.5" width="188" height="1" fill="white" fill-opacity="0.2" /><rect x="4284" y="662.5" width="188" height="1" fill="white" fill-opacity="0.2" /><rect x="4284" y="618.0" width="188" height="1" fill="white" fill-opacity="0.2" /><rect x="4284" y="573.0" width="188" height="1" fill="white" fill-opacity="0.2" /><rect x="4284" y="528.5" width="188" height="1" fill="white" fill-opacity="0.5" /><text x="4482" y="528.5" font-size="14" fill="white" font-family="monospace" dominant-baseline="initial">75</text><rect x="4284" y="483.5" width="188" height="1" fill="white" fill-opacity="0.2" /><rect x="4284" y="439.0" width="188" height="1" fill="white" fill-opacity="0.2" /><rect x="4284" y="394.0" width="188" height="1" fill="white" fill-opacity="0.2" /><rect x="4284" y="349.5" width="188" height="1" fill="white" fill-opacity="0.2" /><rect x="4284" y="304.5" width="188" height="1" fill="white" fill-opacity="0.5" /><text x="4482" y="304.5" font-size="14" fill="white" font-family="monospace" dominant-baseline="initial">76</text><rect x="4284" y="259.5" width="188" height="1" fill="white" fill-opacity="0.2" /><rect x="4284" y="215.0" width="188" height="1" fill="white" fill-opacity="0.2" /><rect x="4284" y="170.0" width="188" height="1" fill="white" fill-opacity="0.2" /><rect x="4284" y="125.5" width="188" height="1" fill="white" fill-opacity="0.2" /><rect x="4284" y="80.5" width="188" height="1" fill="white" fill-opacity="0.5" /><text x="4482" y="80.5" font-size="14" fill="white" font-family="monospace" dominant-baseline="initial">77</text><rect x="4284" y="752.2000000000007" width="188" height="1" fill="aqua" fill-opacity="0.75" /><text x="4284" y="748.2000000000007" font-size="14" fill="aqua" fill-opacity="0.75" font-family="monospace">Phrase E</text><rect x="4284" y="752.0" width="188" height="1" fill="lime" fill-opacity="0.75" /><text x="4482" y="739.0" font-size="14" fill="lime" font-family="monospace" dominant-baseline="initial">201</text><rect x="4522" y="238.0" width="188" height="716.5" fill="black" /><rect x="4522" y="953.5" width="188" height="1" fill="white" fill-opacity="0.5" /><text x="4720" y="953.5" font-size="14" fill="white" font-family="monospace" dominant-baseline="initial">77</text><rect x="4522" y="909.0" width="188" height="1" fill="white" fill-opacity="0.2" /><rect x="4522" y="864.0" width="188" height="1" fill="white" fill-opacity="0.2" /><rect x="4522" y="819.5" width="188" height="1" fill="white" fill-opacity="0.5" /><text x="4720" y="819.5" font-size="14" fill="white" font-family="monospace" dominant-baseline="initial">78</text><rect x="4522" y="774.5" width="188" height="1" fill="white" fill-opacity="0.2" /><rect x="4522" y="729.5" width="188" height="1" fill="white" fill-opacity="0.2" /><rect x="4522" y="685.0" width="188" height="1" fill="white" fill-opacity="0.5" /><text x="4720" y="685.0" font-size="14" fill="white" font-family="monospace" dominant-baseline="initial">79</text><rect x="4522" y="640.0" width="188" height="1" fill="white" fill-opacity="0.2" /><rect x="4522" y="595.5" width="188" height="1" fill="white" fill-opacity="0.2" /><rect x="4522" y="550.5" width="188" height="1" fill="white" fill-opacity="0.2" /><rect x="4522" y="506.0" width="188" height="1" fill="white" fill-opacity="0.2" /><rect x="4522" y="461.0" width="188" height="1" fill="white" fill-opacity="0.5" /><text x="4720" y="461.0" font-size="14" fill="white" font-family="monospace" dominant-baseline="initial">80</text><rect x="4522" y="416.5" width="188" height="1" fill="white" fill-opacity="0.2" /><rect x="4522" y="371.5" width="188" height="1" fill="white" fill-opacity="0.2" /><rect x="4522" y="326.5" width="188" height="1" fill="white" fill-opacity="0.2" /><rect x="4522" y="282.0" width="188" height="1" fill="white" fill-opacity="0.2" /><rect x="4522" y="237.0" width="188" height="1" fill="white" fill-opacity="0.5" /><text x="4720" y="237.0" font-size="14" fill="white" font-family="monospace" dominant-baseline="initial">81</text><rect x="4760" y="238.5" width="188" height="716.0" fill="black" /><rect x="4760" y="953.5" width="188" height="1" fill="white" fill-opacity="0.5" /><text x="4958" y="953.5" font-size="14" fill="white" font-family="monospace" dominant-baseline="initial">81</text><rect x="4760" y="909.0" width="188" height="1" fill="white" fill-opacity="0.2" /><rect x="4760" y="864.0" width="188" height="1" fill="white" fill-opacity="0.2" /><rect x="4760" y="819.5" width="188" height="1" fill="white" fill-opacity="0.2" /><rect x="4760" y="774.5" width="188" height="1" fill="white" fill-opacity="0.2" /><rect x="4760" y="730.0" width="188" height="1" fill="white" fill-opacity="0.5" /><text x="4958" y="730.0" font-size="14" fill="white" font-family="monospace" dominant-baseline="initial">82</text><rect x="4760" y="685.0" width="188" height="1" fill="white" fill-opacity="0.2" /><rect x="4760" y="640.0" width="188" height="1" fill="white" fill-opacity="0.2" /><rect x="4760" y="595.5" width="188" height="1" fill="white" fill-opacity="0.5" /><text x="4958" y="595.5" font-size="14" fill="white" font-family="monospace" dominant-baseline="initial">83</text><rect x="4760" y="550.5" width="188" height="1" fill="white" fill-opacity="0.2" /><rect x="4760" y="506.0" width="188" height="1" fill="white" fill-opacity="0.2" /><rect x="4760" y="461.0" width="188" height="1" fill="white" fill-opacity="0.5" /><text x="4958" y="461.0" font-size="14" fill="white" font-family="monospace" dominant-baseline="initial">84</text><rect x="4760" y="416.5" width="188" height="1" fill="white" fill-opacity="0.2" /><rect x="4760" y="371.5" width="188" height="1" fill="white" fill-opacity="0.2" /><rect x="4760" y="327.0" width="188" height="1" fill="white" fill-opacity="0.2" /><rect x="4760" y="282.0" width="188" height="1" fill="white" fill-opacity="0.2" /><rect x="4760" y="237.5" width="188" height="1" fill="white" fill-opacity="0.5" /><text x="4958" y="237.5" font-size="14" fill="white" font-family="monospace" dominant-baseline="initial">85</text><rect x="4998" y="507.5" width="188" height="447.0" fill="black" /><rect x="4998" y="953.5" width="188" height="1" fill="white" fill-opacity="0.5" /><text x="5196" y="953.5" font-size="14" fill="white" font-family="monospace" dominant-baseline="initial">85</text><rect x="4998" y="908.5" width="188" height="1" fill="white" fill-opacity="0.2" /><rect x="4998" y="863.5" width="188" height="1" fill="white" fill-opacity="0.2" /><rect x="4998" y="819.0" width="188" height="1" fill="white" fill-opacity="0.2" /><rect x="4998" y="774.0" width="188" height="1" fill="white" fill-opacity="0.2" /><rect x="4998" y="729.5" width="188" height="1" fill="white" fill-opacity="0.5" /><text x="5196" y="729.5" font-size="14" fill="white" font-family="monospace" dominant-baseline="initial">86</text></svg>