<?xml version="1.0" encoding="UTF-8"?><svg xmlns="http://www.w3.org/2000/svg" xmlns:xlink="http://www.w3.org/1999/xlink"     width="2508" height="954.5" viewBox="0 0 2508 954.5"><defs></defs><rect x="0" y="0" width="64" height="839.5" fill="black" /><rect x="0" y="0.0" width="64" height="1" fill="white" fill-opacity="0.5" /><text x="74" y="14.0" font-size="14" fill="white" font-family="monospace" dominant-baseline="ideographic">1</text><rect x="0" y="67.0" width="64" height="1" fill="white" fill-opacity="0.2" /><rect x="0" y="134.5" width="64" height="1" fill="white" fill-opacity="0.2" /><rect x="0" y="201.5" width="64" height="1" fill="white" fill-opacity="0.5" /><text x="74" y="215.5" font-size="14" fill="white" font-family="monospace" dominant-baseline="ideographic">2</text><rect x="0" y="268.5" width="64" height="1" fill="white" fill-opacity="0.2" /><rect x="0" y="336.0" width="64" height="1" fill="white" fill-opacity="0.2" /><rect x="0" y="403.0" width="64" height="1" fill="white" fill-opacity="0.5" /><text x="74" y="417.0" font-size="14" fill="white" font-family="monospace" dominant-baseline="ideographic">3</text><rect x="0" y="470.0" width="64" height="1" fill="white" fill-opacity="0.2" /><rect x="0" y="537.5" width="64" height="1" fill="white" fill-opacity="0.2" /><rect x="0" y="604.5" width="64" height="1" fill="white" fill-opacity="0.5" /><text x="74" y="618.5" font-size="14" fill="white" font-family="monospace" dominant-baseline="ideographic">4</text><rect x="0" y="638.0" width="64" height="1" fill="white" fill-opacity="0.2" /><rect x="0" y="671.5" width="64" height="1" fill="white" fill-opacity="0.2" /><rect x="0" y="705.0" width="64" height="1" fill="white" fill-opacity="0.2" /><rect x="0" y="739.0" width="64" height="1" fill="white" fill-opacity="0.2" /><rect x="0" y="772.5" width="64" height="1" fill="white" fill-opacity="0.2" /><rect x="0" y="806.0" width="64" height="1" fill="white" fill-opacity="0.2" /><rect x="0" y="839.5" width="64" height="1" fill="white" fill-opacity="0.5" /><text x="74" y="853.5" font-size="14" fill="white" font-family="monospace" dominant-baseline="ideographic">5</text><rect x="0" y="0.0" width="64" height="1" fill="aqua" fill-opacity="0.75" /><text x="0" y="14.0" font-size="14" fill="aqua" fill-opacity="0.75" font-family="monospace">Intro</text><rect x="0" y="0.0" width="64" height="1" fill="lime" fill-opacity="0.75" /><text x="74" y="28.0" font-size="14" fill="lime" font-family="monospace" dominant-baseline="ideographic">134</text><rect x="114" y="0" width="64" height="940.5" fill="black" /><rect x="114" y="0.0" width="64" height="1" fill="white" fill-opacity="0.5" /><text x="188" y="14.0" font-size="14" fill="white" font-family="monospace" dominant-baseline="ideographic">5</text><rect x="114" y="33.5" width="64" height="1" fill="white" fill-opacity="0.2" /><rect x="114" y="67.0" width="64" height="1" fill="white" fill-opacity="0.2" /><rect x="114" y="101.0" width="64" height="1" fill="white" fill-opacity="0.2" /><rect x="114" y="134.5" width="64" height="1" fill="white" fill-opacity="0.2" /><rect x="114" y="168.0" width="64" height="1" fill="white" fill-opacity="0.2" /><rect x="114" y="201.5" width="64" height="1" fill="white" fill-opacity="0.2" /><rect x="114" y="235.0" width="64" height="1" fill="white" fill-opacity="0.5" /><text x="188" y="249.0" font-size="14" fill="white" font-family="monospace" dominant-baseline="ideographic">6</text><rect x="114" y="268.5" width="64" height="1" fill="white" fill-opacity="0.2" /><rect x="114" y="302.5" width="64" height="1" fill="white" fill-opacity="0.2" /><rect x="114" y="336.0" width="64" height="1" fill="white" fill-opacity="0.2" /><rect x="114" y="369.5" width="64" height="1" fill="white" fill-opacity="0.2" /><rect x="114" y="403.0" width="64" height="1" fill="white" fill-opacity="0.2" /><rect x="114" y="436.5" width="64" height="1" fill="white" fill-opacity="0.2" /><rect x="114" y="470.0" width="64" height="1" fill="white" fill-opacity="0.5" /><text x="188" y="484.0" font-size="14" fill="white" font-family="monospace" dominant-baseline="ideographic">7</text><rect x="114" y="504.0" width="64" height="1" fill="white" fill-opacity="0.2" /><rect x="114" y="537.5" width="64" height="1" fill="white" fill-opacity="0.2" /><rect x="114" y="571.0" width="64" height="1" fill="white" fill-opacity="0.2" /><rect x="114" y="604.5" width="64" height="1" fill="white" fill-opacity="0.2" /><rect x="114" y="638.0" width="64" height="1" fill="white" fill-opacity="0.2" /><rect x="114" y="671.5" width="64" height="1" fill="white" fill-opacity="0.2" /><rect x="114" y="705.5" width="64" height="1" fill="white" fill-opacity="0.5" /><text x="188" y="719.5" font-size="14" fill="white" font-family="monospace" dominant-baseline="ideographic">8</text><rect x="114" y="739.0" width="64" height="1" fill="white" fill-opacity="0.2" /><rect x="114" y="772.5" width="64" height="1" fill="white" fill-opacity="0.2" /><rect x="114" y="806.0" width="64" height="1" fill="white" fill-opacity="0.2" /><rect x="114" y="839.5" width="64" height="1" fill="white" fill-opacity="0.2" /><rect x="114" y="873.0" width="64" height="1" fill="white" fill-opacity="0.2" /><rect x="114" y="907.0" width="64" height="1" fill="white" fill-opacity="0.2" /><rect x="114" y="940.5" width="64" height="1" fill="white" fill-opacity="0.5" /><text x="188" y="954.5" font-size="14" fill="white" font-family="monospace" dominant-baseline="ideographic">9</text><rect x="228" y="0" width="64" height="940.0" fill="black" /><rect x="228" y="0.0" width="64" height="1" fill="white" fill-opacity="0.5" /><text x="302" y="14.0" font-size="14" fill="white" font-family="monospace" dominant-baseline="ideographic">9</text><rect x="228" y="33.5" width="64" height="1" fill="white" fill-opacity="0.2" /><rect x="228" y="67.0" width="64" height="1" fill="white" fill-opacity="0.2" /><rect x="228" y="100.5" width="64" height="1" fill="white" fill-opacity="0.2" /><rect x="228" y="134.0" width="64" height="1" fill="white" fill-opacity="0.2" /><rect x="228" y="168.0" width="64" height="1" fill="white" fill-opacity="0.2" /><rect x="228" y="201.5" width="64" height="1" fill="white" fill-opacity="0.2" /><rect x="228" y="235.0" width="64" height="1" fill="white" fill-opacity="0.5" /><text x="302" y="249.0" font-size="14" fill="white" font-family="monospace" dominant-baseline="ideographic">10</text><rect x="228" y="268.5" width="64" height="1" fill="white" fill-opacity="0.2" /><rect x="228" y="302.0" width="64" height="1" fill="white" fill-opacity="0.2" /><rect x="228" y="335.5" width="64" height="1" fill="white" fill-opacity="0.2" /><rect x="228" y="369.5" width="64" height="1" fill="white" fill-opacity="0.2" /><rect x="228" y="403.0" width="64" height="1" fill="white" fill-opacity="0.2" /><rect x="228" y="436.5" width="64" height="1" fill="white" fill-opacity="0.2" /><rect x="228" y="470.0" width="64" height="1" fill="white" fill-opacity="0.5" /><text x="302" y="484.0" font-size="14" fill="white" font-family="monospace" dominant-baseline="ideographic">11</text><rect x="228" y="503.5" width="64" height="1" fill="white" fill-opacity="0.2" /><rect x="228" y="537.0" width="64" height="1" fill="white" fill-opacity="0.2" /><rect x="228" y="570.5" width="64" height="1" fill="white" fill-opacity="0.2" /><rect x="228" y="604.5" width="64" height="1" fill="white" fill-opacity="0.2" /><rect x="228" y="638.0" width="64" height="1" fill="white" fill-opacity="0.2" /><rect x="228" y="671.5" width="64" height="1" fill="white" fill-opacity="0.2" /><rect x="228" y="705.0" width="64" height="1" fill="white" fill-opacity="0.5" /><text x="302" y="719.0" font-size="14" fill="white" font-family="monospace" dominant-baseline="ideographic">12</text><rect x="228" y="738.5" width="64" height="1" fill="white" fill-opacity="0.2" /><rect x="228" y="772.0" width="64" height="1" fill="white" fill-opacity="0.2" /><rect x="228" y="806.0" width="64" height="1" fill="white" fill-opacity="0.2" /><rect x="228" y="839.5" width="64" height="1" fill="white" fill-opacity="0.2" /><rect x="228" y="873.0" width="64" height="1" fill="white" fill-opacity="0.2" /><rect x="228" y="906.5" width="64" height="1" fill="white" fill-opacity="0.2" /><rect x="228" y="940.0" width="64" height="1" fill="white" fill-opacity="0.5" /><text x="302" y="954.0" font-size="14" fill="white" font-family="monospace" dominant-baseline="ideographic">13</text><rect x="228" y="705.0499999999997" width="64" height="1" fill="aqua" fill-opacity="0.75" /><text x="228" y="719.0499999999997" font-size="14" fill="aqua" fill-opacity="0.75" font-family="monospace">Phrase A</text><rect x="342" y="0" width="64" height="940.5" fill="black" /><rect x="342" y="0.0" width="64" height="1" fill="white" fill-opacity="0.5" /><text x="416" y="14.0" font-size="14" fill="white" font-family="monospace" dominant-baseline="ideographic">13</text><rect x="342" y="33.5" width="64" height="1" fill="white" fill-opacity="0.2" /><rect x="342" y="67.5" width="64" height="1" fill="white" fill-opacity="0.2" /><rect x="342" y="101.0" width="64" height="1" fill="white" fill-opacity="0.2" /><rect x="342" y="134.5" width="64" height="1" fill="white" fill-opacity="0.2" /><rect x="342" y="168.0" width="64" height="1" fill="white" fill-opacity="0.2" /><rect x="342" y="201.5" width="64" height="1" fill="white" fill-opacity="0.2" /><rect x="342" y="235.0" width="64" height="1" fill="white" fill-opacity="0.5" /><text x="416" y="249.0" font-size="14" fill="white" font-family="monospace" dominant-baseline="ideographic">14</text><rect x="342" y="269.0" width="64" height="1" fill="white" fill-opacity="0.2" /><rect x="342" y="302.5" width="64" height="1" fill="white" fill-opacity="0.2" /><rect x="342" y="336.0" width="64" height="1" fill="white" fill-opacity="0.2" /><rect x="342" y="369.5" width="64" height="1" fill="white" fill-opacity="0.2" /><rect x="342" y="403.0" width="64" height="1" fill="white" fill-opacity="0.2" /><rect x="342" y="436.5" width="64" height="1" fill="white" fill-opacity="0.2" /><rect x="342" y="470.5" width="64" height="1" fill="white" fill-opacity="0.5" /><text x="416" y="484.5" font-size="14" fill="white" font-family="monospace" dominant-baseline="ideographic">15</text><rect x="342" y="504.0" width="64" height="1" fill="white" fill-opacity="0.2" /><rect x="342" y="537.5" width="64" height="1" fill="white" fill-opacity="0.2" /><rect x="342" y="571.0" width="64" height="1" fill="white" fill-opacity="0.2" /><rect x="342" y="604.5" width="64" height="1" fill="white" fill-opacity="0.2" /><rect x="342" y="638.0" width="64" height="1" fill="white" fill-opacity="0.2" /><rect x="342" y="672.0" width="64" height="1" fill="white" fill-opacity="0.2" /><rect x="342" y="705.5" width="64" height="1" fill="white" fill-opacity="0.5" /><text x="416" y="719.5" font-size="14" fill="white" font-family="monospace" dominant-baseline="ideographic">16</text><rect x="342" y="739.0" width="64" height="1" fill="white" fill-opacity="0.2" /><rect x="342" y="772.5" width="64" height="1" fill="white" fill-opacity="0.2" /><rect x="342" y="806.0" width="64" height="1" fill="white" fill-opacity="0.2" /><rect x="342" y="839.5" width="64" height="1" fill="white" fill-opacity="0.2" /><rect x="342" y="873.5" width="64" height="1" fill="white" fill-opacity="0.2" /><rect x="342" y="907.0" width="64" height="1" fill="white" fill-opacity="0.2" /><rect x="342" y="940.5" width="64" height="1" fill="white" fill-opacity="0.5" /><text x="416" y="954.5" font-size="14" fill="white" font-family="monospace" dominant-baseline="ideographic">17</text><rect x="456" y="0" width="64" height="906.5" fill="black" /><rect x="456" y="0.0" width="64" height="1" fill="white" fill-opacity="0.5" /><text x="530" y="14.0" font-size="14" fill="white" font-family="monospace" dominant-baseline="ideographic">17</text><rect x="456" y="33.5" width="64" height="1" fill="white" fill-opacity="0.2" /><rect x="456" y="67.0" width="64" height="1" fill="white" fill-opacity="0.2" /><rect x="456" y="100.5" width="64" height="1" fill="white" fill-opacity="0.2" /><rect x="456" y="134.5" width="64" height="1" fill="white" fill-opacity="0.2" /><rect x="456" y="168.0" width="64" height="1" fill="white" fill-opacity="0.2" /><rect x="456" y="201.5" width="64" height="1" fill="white" fill-opacity="0.2" /><rect x="456" y="235.0" width="64" height="1" fill="white" fill-opacity="0.5" /><text x="530" y="249.0" font-size="14" fill="white" font-family="monospace" dominant-baseline="ideographic">18</text><rect x="456" y="268.5" width="64" height="1" fill="white" fill-opacity="0.2" /><rect x="456" y="302.0" width="64" height="1" fill="white" fill-opacity="0.2" /><rect x="456" y="336.0" width="64" height="1" fill="white" fill-opacity="0.2" /><rect x="456" y="369.5" width="64" height="1" fill="white" fill-opacity="0.2" /><rect x="456" y="403.0" width="64" height="1" fill="white" fill-opacity="0.2" /><rect x="456" y="436.5" width="64" height="1" fill="white" fill-opacity="0.2" /><rect x="456" y="470.0" width="64" height="1" fill="white" fill-opacity="0.5" /><text x="530" y="484.0" font-size="14" fill="white" font-family="monospace" dominant-baseline="ideographic">19</text><rect x="456" y="503.5" width="64" height="1" fill="white" fill-opacity="0.2" /><rect x="456" y="537.5" width="64" height="1" fill="white" fill-opacity="0.2" /><rect x="456" y="571.0" width="64" height="1" fill="white" fill-opacity="0.2" /><rect x="456" y="604.5" width="64" height="1" fill="white" fill-opacity="0.2" /><rect x="456" y="638.0" width="64" height="1" fill="white" fill-opacity="0.2" /><rect x="456" y="671.5" width="64" height="1" fill="white" fill-opacity="0.2" /><rect x="456" y="705.0" width="64" height="1" fill="white" fill-opacity="0.5" /><text x="530" y="719.0" font-size="14" fill="white" font-family="monospace" dominant-baseline="ideographic">20</text><rect x="456" y="772.5" width="64" height="1" fill="white" fill-opacity="0.2" /><rect x="456" y="839.5" width="64" height="1" fill="white" fill-opacity="0.2" /><rect x="456" y="906.5" width="64" height="1" fill="white" fill-opacity="0.5" /><text x="530" y="920.5" font-size="14" fill="white" font-family="monospace" dominant-baseline="ideographic">21</text><rect x="456" y="705.0999999999995" width="64" height="1" fill="aqua" fill-opacity="0.75" /><text x="456" y="719.0999999999995" font-size="14" fill="aqua" fill-opacity="0.75" font-family="monospace">Phrase B</text><rect x="570" y="0" width="64" height="806.0" fill="black" /><rect x="570" y="0.0" width="64" height="1" fill="white" fill-opacity="0.5" /><text x="644" y="14.0" font-size="14" fill="white" font-family="monospace" dominant-baseline="ideographic">21</text><rect x="570" y="67.5" width="64" height="1" fill="white" fill-opacity="0.2" /><rect x="570" y="134.5" width="64" height="1" fill="white" fill-opacity="0.2" /><rect x="570" y="201.5" width="64" height="1" fill="white" fill-opacity="0.5" /><text x="644" y="215.5" font-size="14" fill="white" font-family="monospace" dominant-baseline="ideographic">22</text><rect x="570" y="269.0" width="64" height="1" fill="white" fill-opacity="0.2" /><rect x="570" y="336.0" width="64" height="1" fill="white" fill-opacity="0.2" /><rect x="570" y="403.0" width="64" height="1" fill="white" fill-opacity="0.5" /><text x="644" y="417.0" font-size="14" fill="white" font-family="monospace" dominant-baseline="ideographic">23</text><rect x="570" y="470.5" width="64" height="1" fill="white" fill-opacity="0.2" /><rect x="570" y="537.5" width="64" height="1" fill="white" fill-opacity="0.2" /><rect x="570" y="604.5" width="64" height="1" fill="white" fill-opacity="0.5" /><text x="644" y="618.5" font-size="14" fill="white" font-family="monospace" dominant-baseline="ideographic">24</text><rect x="570" y="672.0" width="64" height="1" fill="white" fill-opacity="0.2" /><rect x="570" y="739.0" width="64" height="1" fill="white" fill-opacity="0.2" /><rect x="570" y="806.0" width="64" height="1" fill="white" fill-opacity="0.5" /><text x="644" y="820.0" font-size="14" fill="white" font-family="monospace" dominant-baseline="ideographic">25</text><rect x="684" y="0" width="64" height="806.0" fill="black" /><rect x="684" y="0.0" width="64" height="1" fill="white" fill-opacity="0.5" /><text x="758" y="14.0" font-size="14" fill="white" font-family="monospace" dominant-baseline="ideographic">25</text><rect x="684" y="67.5" width="64" height="1" fill="white" fill-opacity="0.2" /><rect x="684" y="134.5" width="64" height="1" fill="white" fill-opacity="0.2" /><rect x="684" y="201.5" width="64" height="1" fill="white" fill-opacity="0.5" /><text x="758" y="215.5" font-size="14" fill="white" font-family="monospace" dominant-baseline="ideographic">26</text><rect x="684" y="269.0" width="64" height="1" fill="white" fill-opacity="0.2" /><rect x="684" y="336.0" width="64" height="1" fill="white" fill-opacity="0.2" /><rect x="684" y="403.0" width="64" height="1" fill="white" fill-opacity="0.5" /><text x="758" y="417.0" font-size="14" fill="white" font-family="monospace" dominant-baseline="ideographic">27</text><rect x="684" y="470.5" width="64" height="1" fill="white" fill-opacity="0.2" /><rect x="684" y="537.5" width="64" height="1" fill="white" fill-opacity="0.2" /><rect x="684" y="604.5" width="64" height="1" fill="white" fill-opacity="0.5" /><text x="758" y="618.5" font-size="14" fill="white" font-family="monospace" dominant-baseline="ideographic">28</text><rect x="684" y="672.0" width="64" height="1" fill="white" fill-opacity="0.2" /><rect x="684" y="739.0" width="64" height="1" fill="white" fill-opacity="0.2" /><rect x="684" y="806.0" width="64" height="1" fill="white" fill-opacity="0.5" /><text x="758" y="820.0" font-size="14" fill="white" font-family="monospace" dominant-baseline="ideographic">29</text><rect x="798" y="0" width="64" height="806.0" fill="black" /><rect x="798" y="0.0" width="64" height="1" fill="white" fill-opacity="0.5" /><text x="872" y="14.0" font-size="14" fill="white" font-family="monospace" dominant-baseline="ideographic">29</text><rect x="798" y="67.5" width="64" height="1" fill="white" fill-opacity="0.2" /><rect x="798" y="134.5" width="64" height="1" fill="white" fill-opacity="0.2" /><rect x="798" y="201.5" width="64" height="1" fill="white" fill-opacity="0.5" /><text x="872" y="215.5" font-size="14" fill="white" font-family="monospace" dominant-baseline="ideographic">30</text><rect x="798" y="269.0" width="64" height="1" fill="white" fill-opacity="0.2" /><rect x="798" y="336.0" width="64" height="1" fill="white" fill-opacity="0.2" /><rect x="798" y="403.0" width="64" height="1" fill="white" fill-opacity="0.5" /><text x="872" y="417.0" font-size="14" fill="white" font-family="monospace" dominant-baseline="ideographic">31</text><rect x="798" y="470.5" width="64" height="1" fill="white" fill-opacity="0.2" /><rect x="798" y="537.5" width="64" height="1" fill="white" fill-opacity="0.2" /><rect x="798" y="604.5" width="64" height="1" fill="white" fill-opacity="0.5" /><text x="872" y="618.5" font-size="14" fill="white" font-family="monospace" dominant-baseline="ideographic">32</text><rect x="798" y="671.5" width="64" height="1" fill="white" fill-opacity="0.2" /><rect x="798" y="739.0" width="64" height="1" fill="white" fill-opacity="0.2" /><rect x="798" y="806.0" width="64" height="1" fill="white" fill-opacity="0.5" /><text x="872" y="820.0" font-size="14" fill="white" font-family="monospace" dominant-baseline="ideographic">33</text><rect x="798" y="0.0999999999994543" width="64" height="1" fill="aqua" fill-opacity="0.75" /><text x="798" y="14.099999999999454" font-size="14" fill="aqua" fill-opacity="0.75" font-family="monospace">Phrase C</text><rect x="912" y="0" width="64" height="806.0" fill="black" /><rect x="912" y="0.0" width="64" height="1" fill="white" fill-opacity="0.5" /><text x="986" y="14.0" font-size="14" fill="white" font-family="monospace" dominant-baseline="ideographic">33</text><rect x="912" y="67.0" width="64" height="1" fill="white" fill-opacity="0.2" /><rect x="912" y="134.5" width="64" height="1" fill="white" fill-opacity="0.2" /><rect x="912" y="201.5" width="64" height="1" fill="white" fill-opacity="0.5" /><text x="986" y="215.5" font-size="14" fill="white" font-family="monospace" dominant-baseline="ideographic">34</text><rect x="912" y="268.5" width="64" height="1" fill="white" fill-opacity="0.2" /><rect x="912" y="336.0" width="64" height="1" fill="white" fill-opacity="0.2" /><rect x="912" y="403.0" width="64" height="1" fill="white" fill-opacity="0.5" /><text x="986" y="417.0" font-size="14" fill="white" font-family="monospace" dominant-baseline="ideographic">35</text><rect x="912" y="470.0" width="64" height="1" fill="white" fill-opacity="0.2" /><rect x="912" y="537.5" width="64" height="1" fill="white" fill-opacity="0.2" /><rect x="912" y="604.5" width="64" height="1" fill="white" fill-opacity="0.5" /><text x="986" y="618.5" font-size="14" fill="white" font-family="monospace" dominant-baseline="ideographic">36</text><rect x="912" y="671.5" width="64" height="1" fill="white" fill-opacity="0.2" /><rect x="912" y="739.0" width="64" height="1" fill="white" fill-opacity="0.2" /><rect x="912" y="806.0" width="64" height="1" fill="white" fill-opacity="0.5" /><text x="986" y="820.0" font-size="14" fill="white" font-family="monospace" dominant-baseline="ideographic">37</text><rect x="1026" y="0" width="64" height="806.0" fill="black" /><rect x="1026" y="0.0" width="64" height="1" fill="white" fill-opacity="0.5" /><text x="1100" y="14.0" font-size="14" fill="white" font-family="monospace" dominant-baseline="ideographic">37</text><rect x="1026" y="67.0" width="64" height="1" fill="white" fill-opacity="0.2" /><rect x="1026" y="134.5" width="64" height="1" fill="white" fill-opacity="0.2" /><rect x="1026" y="201.5" width="64" height="1" fill="white" fill-opacity="0.5" /><text x="1100" y="215.5" font-size="14" fill="white" font-family="monospace" dominant-baseline="ideographic">38</text><rect x="1026" y="268.5" width="64" height="1" fill="white" fill-opacity="0.2" /><rect x="1026" y="336.0" width="64" height="1" fill="white" fill-opacity="0.2" /><rect x="1026" y="403.0" width="64" height="1" fill="white" fill-opacity="0.5" /><text x="1100" y="417.0" font-size="14" fill="white" font-family="monospace" dominant-baseline="ideographic">39</text><rect x="1026" y="470.0" width="64" height="1" fill="white" fill-opacity="0.2" /><rect x="1026" y="537.5" width="64" height="1" fill="white" fill-opacity="0.2" /><rect x="1026" y="604.5" width="64" height="1" fill="white" fill-opacity="0.5" /><text x="1100" y="618.5" font-size="14" fill="white" font-family="monospace" dominant-baseline="ideographic">40</text><rect x="1026" y="671.5" width="64" height="1" fill="white" fill-opacity="0.2" /><rect x="1026" y="739.0" width="64" height="1" fill="white" fill-opacity="0.2" /><rect x="1026" y="806.0" width="64" height="1" fill="white" fill-opacity="0.5" /><text x="1100" y="820.0" font-size="14" fill="white" font-family="monospace" dominant-baseline="ideographic">41</text><rect x="1026" y="0.0" width="64" height="1" fill="aqua" fill-opacity="0.75" /><text x="1026" y="14.0" font-size="14" fill="aqua" fill-opacity="0.75" font-family="monospace">Phrase D</text><rect x="1140" y="0" width="64" height="806.0" fill="black" /><rect x="1140" y="0.0" width="64" height="1" fill="white" fill-opacity="0.5" /><text x="1214" y="14.0" font-size="14" fill="white" font-family="monospace" dominant-baseline="ideographic">41</text><rect x="1140" y="67.0" width="64" height="1" fill="white" fill-opacity="0.2" /><rect x="1140" y="134.5" width="64" height="1" fill="white" fill-opacity="0.2" /><rect x="1140" y="201.5" width="64" height="1" fill="white" fill-opacity="0.5" /><text x="1214" y="215.5" font-size="14" fill="white" font-family="monospace" dominant-baseline="ideographic">42</text><rect x="1140" y="268.5" width="64" height="1" fill="white" fill-opacity="0.2" /><rect x="1140" y="336.0" width="64" height="1" fill="white" fill-opacity="0.2" /><rect x="1140" y="403.0" width="64" height="1" fill="white" fill-opacity="0.5" /><text x="1214" y="417.0" font-size="14" fill="white" font-family="monospace" dominant-baseline="ideographic">43</text><rect x="1140" y="470.0" width="64" height="1" fill="white" fill-opacity="0.2" /><rect x="1140" y="537.5" width="64" height="1" fill="white" fill-opacity="0.2" /><rect x="1140" y="604.5" width="64" height="1" fill="white" fill-opacity="0.5" /><text x="1214" y="618.5" font-size="14" fill="white" font-family="monospace" dominant-baseline="ideographic">44</text><rect x="1140" y="671.5" width="64" height="1" fill="white" fill-opacity="0.2" /><rect x="1140" y="739.0" width="64" height="1" fill="white" fill-opacity="0.2" /><rect x="1140" y="806.0" width="64" height="1" fill="white" fill-opacity="0.5" /><text x="1214" y="820.0" font-size="14" fill="white" font-family="monospace" dominant-baseline="ideographic">45</text><rect x="1254" y="0" width="64" height="806.0" fill="black" /><rect x="1254" y="0.0" width="64" height="1" fill="white" fill-opacity="0.5" /><text x="1328" y="14.0" font-size="14" fill="white" font-family="monospace" dominant-baseline="ideographic">45</text><rect x="1254" y="67.0" width="64" height="1" fill="white" fill-opacity="0.2" /><rect x="1254" y="134.5" width="64" height="1" fill="white" fill-opacity="0.2" /><rect x="1254" y="201.5" width="64" height="1" fill="white" fill-opacity="0.5" /><text x="1328" y="215.5" font-size="14" fill="white" font-family="monospace" dominant-baseline="ideographic">46</text><rect x="1254" y="268.5" width="64" height="1" fill="white" fill-opacity="0.2" /><rect x="1254" y="336.0" width="64" height="1" fill="white" fill-opacity="0.2" /><rect x="1254" y="403.0" width="64" height="1" fill="white" fill-opacity="0.5" /><text x="1328" y="417.0" font-size="14" fill="white" font-family="monospace" dominant-baseline="ideographic">47</text><rect x="1254" y="470.0" width="64" height="1" fill="white" fill-opacity="0.2" /><rect x="1254" y="537.5" width="64" height="1" fill="white" fill-opacity="0.2" /><rect x="1254" y="604.5" width="64" height="1" fill="white" fill-opacity="0.5" /><text x="1328" y="618.5" font-size="14" fill="white" font-family="monospace" dominant-baseline="ideographic">48</text><rect x="1254" y="671.5" width="64" height="1" fill="white" fill-opacity="0.2" /><rect x="1254" y="739.0" width="64" height="1" fill="white" fill-opacity="0.2" /><rect x="1254" y="806.0" width="64" height="1" fill="white" fill-opacity="0.5" /><text x="1328" y="820.0" font-size="14" fill="white" font-family="monospace" dominant-baseline="ideographic">49</text><rect x="1254" y="201.5" width="64" height="1" fill="aqua" fill-opacity="0.75" /><text x="1254" y="215.5" font-size="14" fill="aqua" fill-opacity="0.75" font-family="monospace">Special</text><rect x="1368" y="0" width="64" height="806.0" fill="black" /><rect x="1368" y="0.0" width="64" height="1" fill="white" fill-opacity="0.5" /><text x="1442" y="14.0" font-size="14" fill="white" font-family="monospace" dominant-baseline="ideographic">49</text><rect x="1368" y="67.0" width="64" height="1" fill="white" fill-opacity="0.2" /><rect x="1368" y="134.5" width="64" height="1" fill="white" fill-opacity="0.2" /><rect x="1368" y="201.5" width="64" height="1" fill="white" fill-opacity="0.5" /><text x="1442" y="215.5" font-size="14" fill="white" font-family="monospace" dominant-baseline="ideographic">50</text><rect x="1368" y="268.5" width="64" height="1" fill="white" fill-opacity="0.2" /><rect x="1368" y="336.0" width="64" height="1" fill="white" fill-opacity="0.2" /><rect x="1368" y="403.0" width="64" height="1" fill="white" fill-opacity="0.5" /><text x="1442" y="417.0" font-size="14" fill="white" font-family="monospace" dominant-baseline="ideographic">51</text><rect x="1368" y="470.0" width="64" height="1" fill="white" fill-opacity="0.2" /><rect x="1368" y="537.5" width="64" height="1" fill="white" fill-opacity="0.2" /><rect x="1368" y="604.5" width="64" height="1" fill="white" fill-opacity="0.5" /><text x="1442" y="618.5" font-size="14" fill="white" font-family="monospace" dominant-baseline="ideographic">52</text><rect x="1368" y="671.5" width="64" height="1" fill="white" fill-opacity="0.2" /><rect x="1368" y="739.0" width="64" height="1" fill="white" fill-opacity="0.2" /><rect x="1368" y="806.0" width="64" height="1" fill="white" fill-opacity="0.5" /><text x="1442" y="820.0" font-size="14" fill="white" font-family="monospace" dominant-baseline="ideographic">53</text><rect x="1482" y="0" width="64" height="806.0" fill="black" /><rect x="1482" y="0.0" width="64" height="1" fill="white" fill-opacity="0.5" /><text x="1556" y="14.0" font-size="14" fill="white" font-family="monospace" dominant-baseline="ideographic">53</text><rect x="1482" y="67.0" width="64" height="1" fill="white" fill-opacity="0.2" /><rect x="1482" y="134.0" width="64" height="1" fill="white" fill-opacity="0.2" /><rect x="1482" y="201.5" width="64" height="1" fill="white" fill-opacity="0.5" /><text x="1556" y="215.5" font-size="14" fill="white" font-family="monospace" dominant-baseline="ideographic">54</text><rect x="1482" y="268.5" width="64" height="1" fill="white" fill-opacity="0.2" /><rect x="1482" y="335.5" width="64" height="1" fill="white" fill-opacity="0.2" /><rect x="1482" y="403.0" width="64" height="1" fill="white" fill-opacity="0.5" /><text x="1556" y="417.0" font-size="14" fill="white" font-family="monospace" dominant-baseline="ideographic">55</text><rect x="1482" y="470.0" width="64" height="1" fill="white" fill-opacity="0.2" /><rect x="1482" y="537.0" width="64" height="1" fill="white" fill-opacity="0.2" /><rect x="1482" y="604.5" width="64" height="1" fill="white" fill-opacity="0.5" /><text x="1556" y="618.5" font-size="14" fill="white" font-family="monospace" dominant-baseline="ideographic">56</text><rect x="1482" y="671.5" width="64" height="1" fill="white" fill-opacity="0.2" /><rect x="1482" y="738.5" width="64" height="1" fill="white" fill-opacity="0.2" /><rect x="1482" y="806.0" width="64" height="1" fill="white" fill-opacity="0.5" /><text x="1556" y="820.0" font-size="14" fill="white" font-family="monospace" dominant-baseline="ideographic">57</text><rect x="1596" y="0" width="64" height="806.0" fill="black" /><rect x="1596" y="0.0" width="64" height="1" fill="white" fill-opacity="0.5" /><text x="1670" y="14.0" font-size="14" fill="white" font-family="monospace" dominant-baseline="ideographic">57</text><rect x="1596" y="67.0" width="64" height="1" fill="white" fill-opacity="0.2" /><rect x="1596" y="134.0" width="64" height="1" fill="white" fill-opacity="0.2" /><rect x="1596" y="201.5" width="64" height="1" fill="white" fill-opacity="0.5" /><text x="1670" y="215.5" font-size="14" fill="white" font-family="monospace" dominant-baseline="ideographic">58</text><rect x="1596" y="268.5" width="64" height="1" fill="white" fill-opacity="0.2" /><rect x="1596" y="335.5" width="64" height="1" fill="white" fill-opacity="0.2" /><rect x="1596" y="403.0" width="64" height="1" fill="white" fill-opacity="0.5" /><text x="1670" y="417.0" font-size="14" fill="white" font-family="monospace" dominant-baseline="ideographic">59</text><rect x="1596" y="470.0" width="64" height="1" fill="white" fill-opacity="0.2" /><rect x="1596" y="537.0" width="64" height="1" fill="white" fill-opacity="0.2" /><rect x="1596" y="604.5" width="64" height="1" fill="white" fill-opacity="0.5" /><text x="1670" y="618.5" font-size="14" fill="white" font-family="monospace" dominant-baseline="ideographic">60</text><rect x="1596" y="671.5" width="64" height="1" fill="white" fill-opacity="0.2" /><rect x="1596" y="738.5" width="64" height="1" fill="white" fill-opacity="0.2" /><rect x="1596" y="806.0" width="64" height="1" fill="white" fill-opacity="0.5" /><text x="1670" y="820.0" font-size="14" fill="white" font-family="monospace" dominant-baseline="ideographic">61</text><rect x="1710" y="0" width="64" height="806.0" fill="black" /><rect x="1710" y="0.0" width="64" height="1" fill="white" fill-opacity="0.5" /><text x="1784" y="14.0" font-size="14" fill="white" font-family="monospace" dominant-baseline="ideographic">61</text><rect x="1710" y="67.0" width="64" height="1" fill="white" fill-opacity="0.2" /><rect x="1710" y="134.0" width="64" height="1" fill="white" fill-opacity="0.2" /><rect x="1710" y="201.5" width="64" height="1" fill="white" fill-opacity="0.5" /><text x="1784" y="215.5" font-size="14" fill="white" font-family="monospace" dominant-baseline="ideographic">62</text><rect x="1710" y="268.5" width="64" height="1" fill="white" fill-opacity="0.2" /><rect x="1710" y="335.5" width="64" height="1" fill="white" fill-opacity="0.2" /><rect x="1710" y="403.0" width="64" height="1" fill="white" fill-opacity="0.5" /><text x="1784" y="417.0" font-size="14" fill="white" font-family="monospace" dominant-baseline="ideographic">63</text><rect x="1710" y="470.0" width="64" height="1" fill="white" fill-opacity="0.2" /><rect x="1710" y="537.0" width="64" height="1" fill="white" fill-opacity="0.2" /><rect x="1710" y="604.5" width="64" height="1" fill="white" fill-opacity="0.5" /><text x="1784" y="618.5" font-size="14" fill="white" font-family="monospace" dominant-baseline="ideographic">64</text><rect x="1710" y="671.5" width="64" height="1" fill="white" fill-opacity="0.2" /><rect x="1710" y="738.5" width="64" height="1" fill="white" fill-opacity="0.2" /><rect x="1710" y="806.0" width="64" height="1" fill="white" fill-opacity="0.5" /><text x="1784" y="820.0" font-size="14" fill="white" font-family="monospace" dominant-baseline="ideographic">65</text><rect x="1710" y="201.29999999999927" width="64" height="1" fill="aqua" fill-opacity="0.75" /><text x="1710" y="215.29999999999927" font-size="14" fill="aqua" fill-opacity="0.75" font-family="monospace">Special</text><rect x="1824" y="0" width="64" height="806.0" fill="black" /><rect x="1824" y="0.0" width="64" height="1" fill="white" fill-opacity="0.5" /><text x="1898" y="14.0" font-size="14" fill="white" font-family="monospace" dominant-baseline="ideographic">65</text><rect x="1824" y="67.0" width="64" height="1" fill="white" fill-opacity="0.2" /><rect x="1824" y="134.0" width="64" height="1" fill="white" fill-opacity="0.2" /><rect x="1824" y="201.5" width="64" height="1" fill="white" fill-opacity="0.5" /><text x="1898" y="215.5" font-size="14" fill="white" font-family="monospace" dominant-baseline="ideographic">66</text><rect x="1824" y="268.5" width="64" height="1" fill="white" fill-opacity="0.2" /><rect x="1824" y="335.5" width="64" height="1" fill="white" fill-opacity="0.2" /><rect x="1824" y="403.0" width="64" height="1" fill="white" fill-opacity="0.5" /><text x="1898" y="417.0" font-size="14" fill="white" font-family="monospace" dominant-baseline="ideographic">67</text><rect x="1824" y="470.0" width="64" height="1" fill="white" fill-opacity="0.2" /><rect x="1824" y="537.0" width="64" height="1" fill="white" fill-opacity="0.2" /><rect x="1824" y="604.5" width="64" height="1" fill="white" fill-opacity="0.5" /><text x="1898" y="618.5" font-size="14" fill="white" font-family="monospace" dominant-baseline="ideographic">68</text><rect x="1824" y="671.5" width="64" height="1" fill="white" fill-opacity="0.2" /><rect x="1824" y="738.5" width="64" height="1" fill="white" fill-opacity="0.2" /><rect x="1824" y="806.0" width="64" height="1" fill="white" fill-opacity="0.5" /><text x="1898" y="820.0" font-size="14" fill="white" font-family="monospace" dominant-baseline="ideographic">69</text><rect x="1938" y="0" width="64" height="806.0" fill="black" /><rect x="1938" y="0.0" width="64" height="1" fill="white" fill-opacity="0.5" /><text x="2012" y="14.0" font-size="14" fill="white" font-family="monospace" dominant-baseline="ideographic">69</text><rect x="1938" y="67.0" width="64" height="1" fill="white" fill-opacity="0.2" /><rect x="1938" y="134.0" width="64" height="1" fill="white" fill-opacity="0.2" /><rect x="1938" y="201.5" width="64" height="1" fill="white" fill-opacity="0.5" /><text x="2012" y="215.5" font-size="14" fill="white" font-family="monospace" dominant-baseline="ideographic">70</text><rect x="1938" y="268.5" width="64" height="1" fill="white" fill-opacity="0.2" /><rect x="1938" y="335.5" width="64" height="1" fill="white" fill-opacity="0.2" /><rect x="1938" y="403.0" width="64" height="1" fill="white" fill-opacity="0.5" /><text x="2012" y="417.0" font-size="14" fill="white" font-family="monospace" dominant-baseline="ideographic">71</text><rect x="1938" y="470.0" width="64" height="1" fill="white" fill-opacity="0.2" /><rect x="1938" y="537.0" width="64" height="1" fill="white" fill-opacity="0.2" /><rect x="1938" y="604.5" width="64" height="1" fill="white" fill-opacity="0.5" /><text x="2012" y="618.5" font-size="14" fill="white" font-family="monospace" dominant-baseline="ideographic">72</text><rect x="1938" y="671.5" width="64" height="1" fill="white" fill-opacity="0.2" /><rect x="1938" y="738.5" width="64" height="1" fill="white" fill-opacity="0.2" /><rect x="1938" y="806.0" width="64" height="1" fill="white" fill-opacity="0.5" /><text x="2012" y="820.0" font-size="14" fill="white" font-family="monospace" dominant-baseline="ideographic">73</text><rect x="2052" y="0" width="64" height="873.0" fill="black" /><rect x="2052" y="0.0" width="64" height="1" fill="white" fill-opacity="0.5" /><text x="2126" y="14.0" font-size="14" fill="white" font-family="monospace" dominant-baseline="ideographic">73</text><rect x="2052" y="67.0" width="64" height="1" fill="white" fill-opacity="0.2" /><rect x="2052" y="134.0" width="64" height="1" fill="white" fill-opacity="0.2" /><rect x="2052" y="201.5" width="64" height="1" fill="white" fill-opacity="0.5" /><text x="2126" y="215.5" font-size="14" fill="white" font-family="monospace" dominant-baseline="ideographic">74</text><rect x="2052" y="246.0" width="64" height="1" fill="white" fill-opacity="0.2" /><rect x="2052" y="291.0" width="64" height="1" fill="white" fill-opacity="0.2" /><rect x="2052" y="335.5" width="64" height="1" fill="white" fill-opacity="0.2" /><rect x="2052" y="380.5" width="64" height="1" fill="white" fill-opacity="0.2" /><rect x="2052" y="425.0" width="64" height="1" fill="white" fill-opacity="0.5" /><text x="2126" y="439.0" font-size="14" fill="white" font-family="monospace" dominant-baseline="ideographic">75</text><rect x="2052" y="470.0" width="64" height="1" fill="white" fill-opacity="0.2" /><rect x="2052" y="514.5" width="64" height="1" fill="white" fill-opacity="0.2" /><rect x="2052" y="559.5" width="64" height="1" fill="white" fill-opacity="0.2" /><rect x="2052" y="604.0" width="64" height="1" fill="white" fill-opacity="0.2" /><rect x="2052" y="649.0" width="64" height="1" fill="white" fill-opacity="0.5" /><text x="2126" y="663.0" font-size="14" fill="white" font-family="monospace" dominant-baseline="ideographic">76</text><rect x="2052" y="694.0" width="64" height="1" fill="white" fill-opacity="0.2" /><rect x="2052" y="738.5" width="64" height="1" fill="white" fill-opacity="0.2" /><rect x="2052" y="783.5" width="64" height="1" fill="white" fill-opacity="0.2" /><rect x="2052" y="828.0" width="64" height="1" fill="white" fill-opacity="0.2" /><rect x="2052" y="873.0" width="64" height="1" fill="white" fill-opacity="0.5" /><text x="2126" y="887.0" font-size="14" fill="white" font-family="monospace" dominant-baseline="ideographic">77</text><rect x="2052" y="201.29999999999927" width="64" height="1" fill="aqua" fill-opacity="0.75" /><text x="2052" y="215.29999999999927" font-size="14" fill="aqua" fill-opacity="0.75" font-family="monospace">Phrase E</text><rect x="2052" y="201.5" width="64" height="1" fill="lime" fill-opacity="0.75" /><text x="2126" y="229.5" font-size="14" fill="lime" font-family="monospace" dominant-baseline="ideographic">201</text><rect x="2166" y="0" width="64" height="716.5" fill="black" /><rect x="2166" y="0.0" width="64" height="1" fill="white" fill-opacity="0.5" /><text x="2240" y="14.0" font-size="14" fill="white" font-family="monospace" dominant-baseline="ideographic">77</text><rect x="2166" y="44.5" width="64" height="1" fill="white" fill-opacity="0.2" /><rect x="2166" y="89.5" width="64" height="1" fill="white" fill-opacity="0.2" /><rect x="2166" y="134.0" width="64" height="1" fill="white" fill-opacity="0.5" /><text x="2240" y="148.0" font-size="14" fill="white" font-family="monospace" dominant-baseline="ideographic">78</text><rect x="2166" y="179.0" width="64" height="1" fill="white" fill-opacity="0.2" /><rect x="2166" y="224.0" width="64" height="1" fill="white" fill-opacity="0.2" /><rect x="2166" y="268.5" width="64" height="1" fill="white" fill-opacity="0.5" /><text x="2240" y="282.5" font-size="14" fill="white" font-family="monospace" dominant-baseline="ideographic">79</text><rect x="2166" y="313.5" width="64" height="1" fill="white" fill-opacity="0.2" /><rect x="2166" y="358.0" width="64" height="1" fill="white" fill-opacity="0.2" /><rect x="2166" y="403.0" width="64" height="1" fill="white" fill-opacity="0.2" /><rect x="2166" y="447.5" width="64" height="1" fill="white" fill-opacity="0.2" /><rect x="2166" y="492.5" width="64" height="1" fill="white" fill-opacity="0.5" /><text x="2240" y="506.5" font-size="14" fill="white" font-family="monospace" dominant-baseline="ideographic">80</text><rect x="2166" y="537.0" width="64" height="1" fill="white" fill-opacity="0.2" /><rect x="2166" y="582.0" width="64" height="1" fill="white" fill-opacity="0.2" /><rect x="2166" y="627.0" width="64" height="1" fill="white" fill-opacity="0.2" /><rect x="2166" y="671.5" width="64" height="1" fill="white" fill-opacity="0.2" /><rect x="2166" y="716.5" width="64" height="1" fill="white" fill-opacity="0.5" /><text x="2240" y="730.5" font-size="14" fill="white" font-family="monospace" dominant-baseline="ideographic">81</text><rect x="2280" y="0" width="64" height="716.0" fill="black" /><rect x="2280" y="0.0" width="64" height="1" fill="white" fill-opacity="0.5" /><text x="2354" y="14.0" font-size="14" fill="white" font-family="monospace" dominant-baseline="ideographic">81</text><rect x="2280" y="44.5" width="64" height="1" fill="white" fill-opacity="0.2" /><rect x="2280" y="89.5" width="64" height="1" fill="white" fill-opacity="0.2" /><rect x="2280" y="134.0" width="64" height="1" fill="white" fill-opacity="0.2" /><rect x="2280" y="179.0" width="64" height="1" fill="white" fill-opacity="0.2" /><rect x="2280" y="223.5" width="64" height="1" fill="white" fill-opacity="0.5" /><text x="2354" y="237.5" font-size="14" fill="white" font-family="monospace" dominant-baseline="ideographic">82</text><rect x="2280" y="268.5" width="64" height="1" fill="white" fill-opacity="0.2" /><rect x="2280" y="313.5" width="64" height="1" fill="white" fill-opacity="0.2" /><rect x="2280" y="358.0" width="64" height="1" fill="white" fill-opacity="0.5" /><text x="2354" y="372.0" font-size="14" fill="white" font-family="monospace" dominant-baseline="ideographic">83</text><rect x="2280" y="403.0" width="64" height="1" fill="white" fill-opacity="0.2" /><rect x="2280" y="447.5" width="64" height="1" fill="white" fill-opacity="0.2" /><rect x="2280" y="492.5" width="64" height="1" fill="white" fill-opacity="0.5" /><text x="2354" y="506.5" font-size="14" fill="white" font-family="monospace" dominant-baseline="ideographic">84</text><rect x="2280" y="537.0" width="64" height="1" fill="white" fill-opacity="0.2" /><rect x="2280" y="582.0" width="64" height="1" fill="white" fill-opacity="0.2" /><rect x="2280" y="626.5" width="64" height="1" fill="white" fill-opacity="0.2" /><rect x="2280" y="671.5" width="64" height="1" fill="white" fill-opacity="0.2" /><rect x="2280" y="716.0" width="64" height="1" fill="white" fill-opacity="0.5" /><text x="2354" y="730.0" font-size="14" fill="white" font-family="monospace" dominant-baseline="ideographic">85</text><rect x="2394" y="0" width="64" height="447.0" fill="black" /><rect x="2394" y="0.0" width="64" height="1" fill="white" fill-opacity="0.5" /><text x="2468" y="14.0" font-size="14" fill="white" font-family="monospace" dominant-baseline="ideographic">85</text><rect x="2394" y="45.0" width="64" height="1" fill="white" fill-opacity="0.2" /><rect x="2394" y="90.0" width="64" height="1" fill="white" fill-opacity="0.2" /><rect x="2394" y="134.5" width="64" height="1" fill="white" fill-opacity="0.2" /><rect x="2394" y="179.5" width="64" height="1" fill="white" fill-opacity="0.2" /><rect x="2394" y="224.0" width="64" height="1" fill="white" fill-opacity="0.5" /><text x="2468" y="238.0" font-size="14" fill="white" font-family="monospace" dominant-baseline="ideographic">86</text></svg>