<?xml version="1.0" encoding="UTF-8"?><svg xmlns="http://www.w3.org/2000/svg" xmlns:xlink="http://www.w3.org/1999/xlink"     width="2394" height="1465.5" viewBox="0 0 2394 1465.5"><defs></defs><rect x="0" y="0" width="64" height="697.0" fill="black" /><rect x="0" y="0.0" width="64" height="1" fill="white" fill-opacity="0.5" /><text x="74" y="14.0" font-size="14" fill="white" font-family="monospace" dominant-baseline="ideographic">1</text><rect x="0" y="58.0" width="64" height="1" fill="white" fill-opacity="0.2" /><rect x="0" y="116.0" width="64" height="1" fill="white" fill-opacity="0.2" /><rect x="0" y="174.0" width="64" height="1" fill="white" fill-opacity="0.5" /><text x="74" y="188.0" font-size="14" fill="white" font-family="monospace" dominant-baseline="ideographic">2</text><rect x="0" y="232.5" width="64" height="1" fill="white" fill-opacity="0.2" /><rect x="0" y="290.5" width="64" height="1" fill="white" fill-opacity="0.2" /><rect x="0" y="348.5" width="64" height="1" fill="white" fill-opacity="0.5" /><text x="74" y="362.5" font-size="14" fill="white" font-family="monospace" dominant-baseline="ideographic">3</text><rect x="0" y="406.5" width="64" height="1" fill="white" fill-opacity="0.2" /><rect x="0" y="464.5" width="64" height="1" fill="white" fill-opacity="0.2" /><rect x="0" y="522.5" width="64" height="1" fill="white" fill-opacity="0.5" /><text x="74" y="536.5" font-size="14" fill="white" font-family="monospace" dominant-baseline="ideographic">4</text><rect x="0" y="580.5" width="64" height="1" fill="white" fill-opacity="0.2" /><rect x="0" y="638.5" width="64" height="1" fill="white" fill-opacity="0.2" /><rect x="0" y="697.0" width="64" height="1" fill="white" fill-opacity="0.5" /><text x="74" y="711.0" font-size="14" fill="white" font-family="monospace" dominant-baseline="ideographic">5</text><rect x="0" y="0.0" width="64" height="1" fill="aqua" fill-opacity="0.75" /><text x="0" y="14.0" font-size="14" fill="aqua" fill-opacity="0.75" font-family="monospace">Intro</text><rect x="0" y="0.0" width="64" height="1" fill="lime" fill-opacity="0.75" /><text x="74" y="28.0" font-size="14" fill="lime" font-family="monospace" dominant-baseline="ideographic">155</text><rect x="114" y="0" width="64" height="696.5" fill="black" /><rect x="114" y="0.0" width="64" height="1" fill="white" fill-opacity="0.5" /><text x="188" y="14.0" font-size="14" fill="white" font-family="monospace" dominant-baseline="ideographic">5</text><rect x="114" y="58.0" width="64" height="1" fill="white" fill-opacity="0.2" /><rect x="114" y="116.0" width="64" height="1" fill="white" fill-opacity="0.2" /><rect x="114" y="174.0" width="64" height="1" fill="white" fill-opacity="0.5" /><text x="188" y="188.0" font-size="14" fill="white" font-family="monospace" dominant-baseline="ideographic">6</text><rect x="114" y="232.0" width="64" height="1" fill="white" fill-opacity="0.2" /><rect x="114" y="290.0" width="64" height="1" fill="white" fill-opacity="0.2" /><rect x="114" y="348.0" width="64" height="1" fill="white" fill-opacity="0.5" /><text x="188" y="362.0" font-size="14" fill="white" font-family="monospace" dominant-baseline="ideographic">7</text><rect x="114" y="406.0" width="64" height="1" fill="white" fill-opacity="0.2" /><rect x="114" y="464.5" width="64" height="1" fill="white" fill-opacity="0.2" /><rect x="114" y="522.5" width="64" height="1" fill="white" fill-opacity="0.5" /><text x="188" y="536.5" font-size="14" fill="white" font-family="monospace" dominant-baseline="ideographic">8</text><rect x="114" y="580.5" width="64" height="1" fill="white" fill-opacity="0.2" /><rect x="114" y="638.5" width="64" height="1" fill="white" fill-opacity="0.2" /><rect x="114" y="696.5" width="64" height="1" fill="white" fill-opacity="0.5" /><text x="188" y="710.5" font-size="14" fill="white" font-family="monospace" dominant-baseline="ideographic">9</text><rect x="228" y="0" width="64" height="697.0" fill="black" /><rect x="228" y="0.0" width="64" height="1" fill="white" fill-opacity="0.5" /><text x="302" y="14.0" font-size="14" fill="white" font-family="monospace" dominant-baseline="ideographic">9</text><rect x="228" y="58.0" width="64" height="1" fill="white" fill-opacity="0.2" /><rect x="228" y="116.0" width="64" height="1" fill="white" fill-opacity="0.2" /><rect x="228" y="174.0" width="64" height="1" fill="white" fill-opacity="0.5" /><text x="302" y="188.0" font-size="14" fill="white" font-family="monospace" dominant-baseline="ideographic">10</text><rect x="228" y="232.5" width="64" height="1" fill="white" fill-opacity="0.2" /><rect x="228" y="290.5" width="64" height="1" fill="white" fill-opacity="0.2" /><rect x="228" y="348.5" width="64" height="1" fill="white" fill-opacity="0.5" /><text x="302" y="362.5" font-size="14" fill="white" font-family="monospace" dominant-baseline="ideographic">11</text><rect x="228" y="406.5" width="64" height="1" fill="white" fill-opacity="0.2" /><rect x="228" y="464.5" width="64" height="1" fill="white" fill-opacity="0.2" /><rect x="228" y="522.5" width="64" height="1" fill="white" fill-opacity="0.5" /><text x="302" y="536.5" font-size="14" fill="white" font-family="monospace" dominant-baseline="ideographic">12</text><rect x="228" y="580.5" width="64" height="1" fill="white" fill-opacity="0.2" /><rect x="228" y="639.0" width="64" height="1" fill="white" fill-opacity="0.2" /><rect x="228" y="697.0" width="64" height="1" fill="white" fill-opacity="0.5" /><text x="302" y="711.0" font-size="14" fill="white" font-family="monospace" dominant-baseline="ideographic">13</text><rect x="342" y="0" width="64" height="696.5" fill="black" /><rect x="342" y="0.0" width="64" height="1" fill="white" fill-opacity="0.5" /><text x="416" y="14.0" font-size="14" fill="white" font-family="monospace" dominant-baseline="ideographic">13</text><rect x="342" y="58.0" width="64" height="1" fill="white" fill-opacity="0.2" /><rect x="342" y="116.0" width="64" height="1" fill="white" fill-opacity="0.2" /><rect x="342" y="174.0" width="64" height="1" fill="white" fill-opacity="0.5" /><text x="416" y="188.0" font-size="14" fill="white" font-family="monospace" dominant-baseline="ideographic">14</text><rect x="342" y="232.0" width="64" height="1" fill="white" fill-opacity="0.2" /><rect x="342" y="290.0" width="64" height="1" fill="white" fill-opacity="0.2" /><rect x="342" y="348.0" width="64" height="1" fill="white" fill-opacity="0.5" /><text x="416" y="362.0" font-size="14" fill="white" font-family="monospace" dominant-baseline="ideographic">15</text><rect x="342" y="406.5" width="64" height="1" fill="white" fill-opacity="0.2" /><rect x="342" y="464.5" width="64" height="1" fill="white" fill-opacity="0.2" /><rect x="342" y="522.5" width="64" height="1" fill="white" fill-opacity="0.5" /><text x="416" y="536.5" font-size="14" fill="white" font-family="monospace" dominant-baseline="ideographic">16</text><rect x="342" y="580.5" width="64" height="1" fill="white" fill-opacity="0.2" /><rect x="342" y="638.5" width="64" height="1" fill="white" fill-opacity="0.2" /><rect x="342" y="696.5" width="64" height="1" fill="white" fill-opacity="0.5" /><text x="416" y="710.5" font-size="14" fill="white" font-family="monospace" dominant-baseline="ideographic">17</text><rect x="456" y="0" width="64" height="697.0" fill="black" /><rect x="456" y="0.0" width="64" height="1" fill="white" fill-opacity="0.5" /><text x="530" y="14.0" font-size="14" fill="white" font-family="monospace" dominant-baseline="ideographic">17</text><rect x="456" y="58.0" width="64" height="1" fill="white" fill-opacity="0.2" /><rect x="456" y="116.0" width="64" height="1" fill="white" fill-opacity="0.2" /><rect x="456" y="174.5" width="64" height="1" fill="white" fill-opacity="0.5" /><text x="530" y="188.5" font-size="14" fill="white" font-family="monospace" dominant-baseline="ideographic">18</text><rect x="456" y="232.5" width="64" height="1" fill="white" fill-opacity="0.2" /><rect x="456" y="290.5" width="64" height="1" fill="white" fill-opacity="0.2" /><rect x="456" y="348.5" width="64" height="1" fill="white" fill-opacity="0.5" /><text x="530" y="362.5" font-size="14" fill="white" font-family="monospace" dominant-baseline="ideographic">19</text><rect x="456" y="406.5" width="64" height="1" fill="white" fill-opacity="0.2" /><rect x="456" y="464.5" width="64" height="1" fill="white" fill-opacity="0.2" /><rect x="456" y="522.5" width="64" height="1" fill="white" fill-opacity="0.5" /><text x="530" y="536.5" font-size="14" fill="white" font-family="monospace" dominant-baseline="ideographic">20</text><rect x="456" y="580.5" width="64" height="1" fill="white" fill-opacity="0.2" /><rect x="456" y="639.0" width="64" height="1" fill="white" fill-opacity="0.2" /><rect x="456" y="697.0" width="64" height="1" fill="white" fill-opacity="0.5" /><text x="530" y="711.0" font-size="14" fill="white" font-family="monospace" dominant-baseline="ideographic">21</text><rect x="456" y="522.5999999999999" width="64" height="1" fill="aqua" fill-opacity="0.75" /><text x="456" y="536.5999999999999" font-size="14" fill="aqua" fill-opacity="0.75" font-family="monospace">Special</text><rect x="570" y="0" width="64" height="696.5" fill="black" /><rect x="570" y="0.0" width="64" height="1" fill="white" fill-opacity="0.5" /><text x="644" y="14.0" font-size="14" fill="white" font-family="monospace" dominant-baseline="ideographic">21</text><rect x="570" y="58.0" width="64" height="1" fill="white" fill-opacity="0.2" /><rect x="570" y="116.0" width="64" height="1" fill="white" fill-opacity="0.2" /><rect x="570" y="174.0" width="64" height="1" fill="white" fill-opacity="0.5" /><text x="644" y="188.0" font-size="14" fill="white" font-family="monospace" dominant-baseline="ideographic">22</text><rect x="570" y="232.0" width="64" height="1" fill="white" fill-opacity="0.2" /><rect x="570" y="290.0" width="64" height="1" fill="white" fill-opacity="0.2" /><rect x="570" y="348.5" width="64" height="1" fill="white" fill-opacity="0.5" /><text x="644" y="362.5" font-size="14" fill="white" font-family="monospace" dominant-baseline="ideographic">23</text><rect x="570" y="406.5" width="64" height="1" fill="white" fill-opacity="0.2" /><rect x="570" y="464.5" width="64" height="1" fill="white" fill-opacity="0.2" /><rect x="570" y="522.5" width="64" height="1" fill="white" fill-opacity="0.5" /><text x="644" y="536.5" font-size="14" fill="white" font-family="monospace" dominant-baseline="ideographic">24</text><rect x="570" y="580.5" width="64" height="1" fill="white" fill-opacity="0.2" /><rect x="570" y="638.5" width="64" height="1" fill="white" fill-opacity="0.2" /><rect x="570" y="696.5" width="64" height="1" fill="white" fill-opacity="0.5" /><text x="644" y="710.5" font-size="14" fill="white" font-family="monospace" dominant-baseline="ideographic">25</text><rect x="684" y="0" width="64" height="697.0" fill="black" /><rect x="684" y="0.0" width="64" height="1" fill="white" fill-opacity="0.5" /><text x="758" y="14.0" font-size="14" fill="white" font-family="monospace" dominant-baseline="ideographic">25</text><rect x="684" y="58.0" width="64" height="1" fill="white" fill-opacity="0.2" /><rect x="684" y="116.5" width="64" height="1" fill="white" fill-opacity="0.2" /><rect x="684" y="174.5" width="64" height="1" fill="white" fill-opacity="0.5" /><text x="758" y="188.5" font-size="14" fill="white" font-family="monospace" dominant-baseline="ideographic">26</text><rect x="684" y="232.5" width="64" height="1" fill="white" fill-opacity="0.2" /><rect x="684" y="290.5" width="64" height="1" fill="white" fill-opacity="0.2" /><rect x="684" y="348.5" width="64" height="1" fill="white" fill-opacity="0.5" /><text x="758" y="362.5" font-size="14" fill="white" font-family="monospace" dominant-baseline="ideographic">27</text><rect x="684" y="406.5" width="64" height="1" fill="white" fill-opacity="0.2" /><rect x="684" y="464.5" width="64" height="1" fill="white" fill-opacity="0.2" /><rect x="684" y="522.5" width="64" height="1" fill="white" fill-opacity="0.5" /><text x="758" y="536.5" font-size="14" fill="white" font-family="monospace" dominant-baseline="ideographic">28</text><rect x="684" y="581.0" width="64" height="1" fill="white" fill-opacity="0.2" /><rect x="684" y="639.0" width="64" height="1" fill="white" fill-opacity="0.2" /><rect x="684" y="697.0" width="64" height="1" fill="white" fill-opacity="0.5" /><text x="758" y="711.0" font-size="14" fill="white" font-family="monospace" dominant-baseline="ideographic">29</text><rect x="798" y="0" width="64" height="696.5" fill="black" /><rect x="798" y="0.0" width="64" height="1" fill="white" fill-opacity="0.5" /><text x="872" y="14.0" font-size="14" fill="white" font-family="monospace" dominant-baseline="ideographic">29</text><rect x="798" y="58.0" width="64" height="1" fill="white" fill-opacity="0.2" /><rect x="798" y="116.0" width="64" height="1" fill="white" fill-opacity="0.2" /><rect x="798" y="174.0" width="64" height="1" fill="white" fill-opacity="0.5" /><text x="872" y="188.0" font-size="14" fill="white" font-family="monospace" dominant-baseline="ideographic">30</text><rect x="798" y="232.0" width="64" height="1" fill="white" fill-opacity="0.2" /><rect x="798" y="290.0" width="64" height="1" fill="white" fill-opacity="0.2" /><rect x="798" y="348.5" width="64" height="1" fill="white" fill-opacity="0.5" /><text x="872" y="362.5" font-size="14" fill="white" font-family="monospace" dominant-baseline="ideographic">31</text><rect x="798" y="406.5" width="64" height="1" fill="white" fill-opacity="0.2" /><rect x="798" y="464.5" width="64" height="1" fill="white" fill-opacity="0.2" /><rect x="798" y="522.5" width="64" height="1" fill="white" fill-opacity="0.5" /><text x="872" y="536.5" font-size="14" fill="white" font-family="monospace" dominant-baseline="ideographic">32</text><rect x="798" y="580.5" width="64" height="1" fill="white" fill-opacity="0.2" /><rect x="798" y="638.5" width="64" height="1" fill="white" fill-opacity="0.2" /><rect x="798" y="696.5" width="64" height="1" fill="white" fill-opacity="0.5" /><text x="872" y="710.5" font-size="14" fill="white" font-family="monospace" dominant-baseline="ideographic">33</text><rect x="798" y="-0.1000000000003638" width="64" height="1" fill="aqua" fill-opacity="0.75" /><text x="798" y="13.899999999999636" font-size="14" fill="aqua" fill-opacity="0.75" font-family="monospace">Phrase A</text><rect x="912" y="0" width="64" height="697.0" fill="black" /><rect x="912" y="0.0" width="64" height="1" fill="white" fill-opacity="0.5" /><text x="986" y="14.0" font-size="14" fill="white" font-family="monospace" dominant-baseline="ideographic">33</text><rect x="912" y="58.0" width="64" height="1" fill="white" fill-opacity="0.2" /><rect x="912" y="116.5" width="64" height="1" fill="white" fill-opacity="0.2" /><rect x="912" y="174.5" width="64" height="1" fill="white" fill-opacity="0.5" /><text x="986" y="188.5" font-size="14" fill="white" font-family="monospace" dominant-baseline="ideographic">34</text><rect x="912" y="232.5" width="64" height="1" fill="white" fill-opacity="0.2" /><rect x="912" y="290.5" width="64" height="1" fill="white" fill-opacity="0.2" /><rect x="912" y="348.5" width="64" height="1" fill="white" fill-opacity="0.5" /><text x="986" y="362.5" font-size="14" fill="white" font-family="monospace" dominant-baseline="ideographic">35</text><rect x="912" y="406.5" width="64" height="1" fill="white" fill-opacity="0.2" /><rect x="912" y="464.5" width="64" height="1" fill="white" fill-opacity="0.2" /><rect x="912" y="523.0" width="64" height="1" fill="white" fill-opacity="0.5" /><text x="986" y="537.0" font-size="14" fill="white" font-family="monospace" dominant-baseline="ideographic">36</text><rect x="912" y="581.0" width="64" height="1" fill="white" fill-opacity="0.2" /><rect x="912" y="639.0" width="64" height="1" fill="white" fill-opacity="0.2" /><rect x="912" y="697.0" width="64" height="1" fill="white" fill-opacity="0.5" /><text x="986" y="711.0" font-size="14" fill="white" font-family="monospace" dominant-baseline="ideographic">37</text><rect x="1026" y="0" width="64" height="696.5" fill="black" /><rect x="1026" y="0.0" width="64" height="1" fill="white" fill-opacity="0.5" /><text x="1100" y="14.0" font-size="14" fill="white" font-family="monospace" dominant-baseline="ideographic">37</text><rect x="1026" y="58.0" width="64" height="1" fill="white" fill-opacity="0.2" /><rect x="1026" y="116.0" width="64" height="1" fill="white" fill-opacity="0.2" /><rect x="1026" y="174.0" width="64" height="1" fill="white" fill-opacity="0.5" /><text x="1100" y="188.0" font-size="14" fill="white" font-family="monospace" dominant-baseline="ideographic">38</text><rect x="1026" y="232.0" width="64" height="1" fill="white" fill-opacity="0.2" /><rect x="1026" y="290.5" width="64" height="1" fill="white" fill-opacity="0.2" /><rect x="1026" y="348.5" width="64" height="1" fill="white" fill-opacity="0.5" /><text x="1100" y="362.5" font-size="14" fill="white" font-family="monospace" dominant-baseline="ideographic">39</text><rect x="1026" y="406.5" width="64" height="1" fill="white" fill-opacity="0.2" /><rect x="1026" y="464.5" width="64" height="1" fill="white" fill-opacity="0.2" /><rect x="1026" y="522.5" width="64" height="1" fill="white" fill-opacity="0.5" /><text x="1100" y="536.5" font-size="14" fill="white" font-family="monospace" dominant-baseline="ideographic">40</text><rect x="1026" y="580.5" width="64" height="1" fill="white" fill-opacity="0.2" /><rect x="1026" y="638.5" width="64" height="1" fill="white" fill-opacity="0.2" /><rect x="1026" y="696.5" width="64" height="1" fill="white" fill-opacity="0.5" /><text x="1100" y="710.5" font-size="14" fill="white" font-family="monospace" dominant-baseline="ideographic">41</text><rect x="1026" y="-0.1000000000003638" width="64" height="1" fill="aqua" fill-opacity="0.75" /><text x="1026" y="13.899999999999636" font-size="14" fill="aqua" fill-opacity="0.75" font-family="monospace">Phrase A</text><rect x="1140" y="0" width="64" height="697.0" fill="black" /><rect x="1140" y="0.0" width="64" height="1" fill="white" fill-opacity="0.5" /><text x="1214" y="14.0" font-size="14" fill="white" font-family="monospace" dominant-baseline="ideographic">41</text><rect x="1140" y="58.5" width="64" height="1" fill="white" fill-opacity="0.2" /><rect x="1140" y="116.5" width="64" height="1" fill="white" fill-opacity="0.2" /><rect x="1140" y="174.5" width="64" height="1" fill="white" fill-opacity="0.5" /><text x="1214" y="188.5" font-size="14" fill="white" font-family="monospace" dominant-baseline="ideographic">42</text><rect x="1140" y="232.5" width="64" height="1" fill="white" fill-opacity="0.2" /><rect x="1140" y="290.5" width="64" height="1" fill="white" fill-opacity="0.2" /><rect x="1140" y="348.5" width="64" height="1" fill="white" fill-opacity="0.5" /><text x="1214" y="362.5" font-size="14" fill="white" font-family="monospace" dominant-baseline="ideographic">43</text><rect x="1140" y="406.5" width="64" height="1" fill="white" fill-opacity="0.2" /><rect x="1140" y="464.5" width="64" height="1" fill="white" fill-opacity="0.2" /><rect x="1140" y="523.0" width="64" height="1" fill="white" fill-opacity="0.5" /><text x="1214" y="537.0" font-size="14" fill="white" font-family="monospace" dominant-baseline="ideographic">44</text><rect x="1140" y="581.0" width="64" height="1" fill="white" fill-opacity="0.2" /><rect x="1140" y="639.0" width="64" height="1" fill="white" fill-opacity="0.2" /><rect x="1140" y="697.0" width="64" height="1" fill="white" fill-opacity="0.5" /><text x="1214" y="711.0" font-size="14" fill="white" font-family="monospace" dominant-baseline="ideographic">45</text><rect x="1254" y="0" width="64" height="1277.5" fill="black" /><rect x="1254" y="0.0" width="64" height="1" fill="white" fill-opacity="0.5" /><text x="1328" y="14.0" font-size="14" fill="white" font-family="monospace" dominant-baseline="ideographic">45</text><rect x="1254" y="58.0" width="64" height="1" fill="white" fill-opacity="0.2" /><rect x="1254" y="116.0" width="64" height="1" fill="white" fill-opacity="0.2" /><rect x="1254" y="174.0" width="64" height="1" fill="white" fill-opacity="0.2" /><rect x="1254" y="232.5" width="64" height="1" fill="white" fill-opacity="0.2" /><rect x="1254" y="290.5" width="64" height="1" fill="white" fill-opacity="0.2" /><rect x="1254" y="348.5" width="64" height="1" fill="white" fill-opacity="0.2" /><rect x="1254" y="406.5" width="64" height="1" fill="white" fill-opacity="0.5" /><text x="1328" y="420.5" font-size="14" fill="white" font-family="monospace" dominant-baseline="ideographic">46</text><rect x="1254" y="464.5" width="64" height="1" fill="white" fill-opacity="0.2" /><rect x="1254" y="522.5" width="64" height="1" fill="white" fill-opacity="0.2" /><rect x="1254" y="580.5" width="64" height="1" fill="white" fill-opacity="0.2" /><rect x="1254" y="638.5" width="64" height="1" fill="white" fill-opacity="0.2" /><rect x="1254" y="697.0" width="64" height="1" fill="white" fill-opacity="0.2" /><rect x="1254" y="755.0" width="64" height="1" fill="white" fill-opacity="0.2" /><rect x="1254" y="813.0" width="64" height="1" fill="white" fill-opacity="0.5" /><text x="1328" y="827.0" font-size="14" fill="white" font-family="monospace" dominant-baseline="ideographic">47</text><rect x="1254" y="871.0" width="64" height="1" fill="white" fill-opacity="0.2" /><rect x="1254" y="929.0" width="64" height="1" fill="white" fill-opacity="0.2" /><rect x="1254" y="987.0" width="64" height="1" fill="white" fill-opacity="0.2" /><rect x="1254" y="1045.0" width="64" height="1" fill="white" fill-opacity="0.5" /><text x="1328" y="1059.0" font-size="14" fill="white" font-family="monospace" dominant-baseline="ideographic">48</text><rect x="1254" y="1103.0" width="64" height="1" fill="white" fill-opacity="0.2" /><rect x="1254" y="1161.5" width="64" height="1" fill="white" fill-opacity="0.2" /><rect x="1254" y="1219.5" width="64" height="1" fill="white" fill-opacity="0.2" /><rect x="1254" y="1277.5" width="64" height="1" fill="white" fill-opacity="0.5" /><text x="1328" y="1291.5" font-size="14" fill="white" font-family="monospace" dominant-baseline="ideographic">49</text><rect x="1254" y="0.049999999999272404" width="64" height="1" fill="aqua" fill-opacity="0.75" /><text x="1254" y="14.049999999999272" font-size="14" fill="aqua" fill-opacity="0.75" font-family="monospace">Phrase B</text><rect x="1368" y="0" width="64" height="1277.5" fill="black" /><rect x="1368" y="0.0" width="64" height="1" fill="white" fill-opacity="0.5" /><text x="1442" y="14.0" font-size="14" fill="white" font-family="monospace" dominant-baseline="ideographic">49</text><rect x="1368" y="58.0" width="64" height="1" fill="white" fill-opacity="0.2" /><rect x="1368" y="116.0" width="64" height="1" fill="white" fill-opacity="0.2" /><rect x="1368" y="174.0" width="64" height="1" fill="white" fill-opacity="0.2" /><rect x="1368" y="232.0" width="64" height="1" fill="white" fill-opacity="0.5" /><text x="1442" y="246.0" font-size="14" fill="white" font-family="monospace" dominant-baseline="ideographic">50</text><rect x="1368" y="290.0" width="64" height="1" fill="white" fill-opacity="0.2" /><rect x="1368" y="348.5" width="64" height="1" fill="white" fill-opacity="0.2" /><rect x="1368" y="406.5" width="64" height="1" fill="white" fill-opacity="0.2" /><rect x="1368" y="464.5" width="64" height="1" fill="white" fill-opacity="0.5" /><text x="1442" y="478.5" font-size="14" fill="white" font-family="monospace" dominant-baseline="ideographic">51</text><rect x="1368" y="522.5" width="64" height="1" fill="white" fill-opacity="0.2" /><rect x="1368" y="580.5" width="64" height="1" fill="white" fill-opacity="0.2" /><rect x="1368" y="638.5" width="64" height="1" fill="white" fill-opacity="0.2" /><rect x="1368" y="696.5" width="64" height="1" fill="white" fill-opacity="0.2" /><rect x="1368" y="755.0" width="64" height="1" fill="white" fill-opacity="0.2" /><rect x="1368" y="813.0" width="64" height="1" fill="white" fill-opacity="0.2" /><rect x="1368" y="871.0" width="64" height="1" fill="white" fill-opacity="0.5" /><text x="1442" y="885.0" font-size="14" fill="white" font-family="monospace" dominant-baseline="ideographic">52</text><rect x="1368" y="929.0" width="64" height="1" fill="white" fill-opacity="0.2" /><rect x="1368" y="987.0" width="64" height="1" fill="white" fill-opacity="0.2" /><rect x="1368" y="1045.0" width="64" height="1" fill="white" fill-opacity="0.2" /><rect x="1368" y="1103.0" width="64" height="1" fill="white" fill-opacity="0.2" /><rect x="1368" y="1161.0" width="64" height="1" fill="white" fill-opacity="0.2" /><rect x="1368" y="1219.5" width="64" height="1" fill="white" fill-opacity="0.2" /><rect x="1368" y="1277.5" width="64" height="1" fill="white" fill-opacity="0.5" /><text x="1442" y="1291.5" font-size="14" fill="white" font-family="monospace" dominant-baseline="ideographic">53</text><rect x="1368" y="464.5" width="64" height="1" fill="aqua" fill-opacity="0.75" /><text x="1368" y="478.5" font-size="14" fill="aqua" fill-opacity="0.75" font-family="monospace">Phrase B</text><rect x="1482" y="0" width="64" height="929.0" fill="black" /><rect x="1482" y="0.0" width="64" height="1" fill="white" fill-opacity="0.5" /><text x="1556" y="14.0" font-size="14" fill="white" font-family="monospace" dominant-baseline="ideographic">53</text><rect x="1482" y="58.0" width="64" height="1" fill="white" fill-opacity="0.2" /><rect x="1482" y="116.0" width="64" height="1" fill="white" fill-opacity="0.2" /><rect x="1482" y="174.0" width="64" height="1" fill="white" fill-opacity="0.2" /><rect x="1482" y="232.0" width="64" height="1" fill="white" fill-opacity="0.5" /><text x="1556" y="246.0" font-size="14" fill="white" font-family="monospace" dominant-baseline="ideographic">54</text><rect x="1482" y="290.0" width="64" height="1" fill="white" fill-opacity="0.2" /><rect x="1482" y="348.0" width="64" height="1" fill="white" fill-opacity="0.2" /><rect x="1482" y="406.5" width="64" height="1" fill="white" fill-opacity="0.2" /><rect x="1482" y="464.5" width="64" height="1" fill="white" fill-opacity="0.5" /><text x="1556" y="478.5" font-size="14" fill="white" font-family="monospace" dominant-baseline="ideographic">55</text><rect x="1482" y="522.5" width="64" height="1" fill="white" fill-opacity="0.2" /><rect x="1482" y="580.5" width="64" height="1" fill="white" fill-opacity="0.2" /><rect x="1482" y="638.5" width="64" height="1" fill="white" fill-opacity="0.2" /><rect x="1482" y="696.5" width="64" height="1" fill="white" fill-opacity="0.5" /><text x="1556" y="710.5" font-size="14" fill="white" font-family="monospace" dominant-baseline="ideographic">56</text><rect x="1482" y="754.5" width="64" height="1" fill="white" fill-opacity="0.2" /><rect x="1482" y="812.5" width="64" height="1" fill="white" fill-opacity="0.2" /><rect x="1482" y="871.0" width="64" height="1" fill="white" fill-opacity="0.2" /><rect x="1482" y="929.0" width="64" height="1" fill="white" fill-opacity="0.5" /><text x="1556" y="943.0" font-size="14" fill="white" font-family="monospace" dominant-baseline="ideographic">57</text><rect x="1596" y="0" width="64" height="1451.5" fill="black" /><rect x="1596" y="0.0" width="64" height="1" fill="white" fill-opacity="0.5" /><text x="1670" y="14.0" font-size="14" fill="white" font-family="monospace" dominant-baseline="ideographic">57</text><rect x="1596" y="58.0" width="64" height="1" fill="white" fill-opacity="0.2" /><rect x="1596" y="116.0" width="64" height="1" fill="white" fill-opacity="0.2" /><rect x="1596" y="174.0" width="64" height="1" fill="white" fill-opacity="0.2" /><rect x="1596" y="232.0" width="64" height="1" fill="white" fill-opacity="0.2" /><rect x="1596" y="290.0" width="64" height="1" fill="white" fill-opacity="0.2" /><rect x="1596" y="348.5" width="64" height="1" fill="white" fill-opacity="0.2" /><rect x="1596" y="406.5" width="64" height="1" fill="white" fill-opacity="0.5" /><text x="1670" y="420.5" font-size="14" fill="white" font-family="monospace" dominant-baseline="ideographic">58</text><rect x="1596" y="464.5" width="64" height="1" fill="white" fill-opacity="0.2" /><rect x="1596" y="522.5" width="64" height="1" fill="white" fill-opacity="0.2" /><rect x="1596" y="580.5" width="64" height="1" fill="white" fill-opacity="0.2" /><rect x="1596" y="638.5" width="64" height="1" fill="white" fill-opacity="0.2" /><rect x="1596" y="696.5" width="64" height="1" fill="white" fill-opacity="0.2" /><rect x="1596" y="754.5" width="64" height="1" fill="white" fill-opacity="0.2" /><rect x="1596" y="813.0" width="64" height="1" fill="white" fill-opacity="0.5" /><text x="1670" y="827.0" font-size="14" fill="white" font-family="monospace" dominant-baseline="ideographic">59</text><rect x="1596" y="871.0" width="64" height="1" fill="white" fill-opacity="0.2" /><rect x="1596" y="929.0" width="64" height="1" fill="white" fill-opacity="0.2" /><rect x="1596" y="987.0" width="64" height="1" fill="white" fill-opacity="0.2" /><rect x="1596" y="1045.0" width="64" height="1" fill="white" fill-opacity="0.2" /><rect x="1596" y="1103.0" width="64" height="1" fill="white" fill-opacity="0.2" /><rect x="1596" y="1161.0" width="64" height="1" fill="white" fill-opacity="0.2" /><rect x="1596" y="1219.0" width="64" height="1" fill="white" fill-opacity="0.5" /><text x="1670" y="1233.0" font-size="14" fill="white" font-family="monospace" dominant-baseline="ideographic">60</text><rect x="1596" y="1277.5" width="64" height="1" fill="white" fill-opacity="0.2" /><rect x="1596" y="1335.5" width="64" height="1" fill="white" fill-opacity="0.2" /><rect x="1596" y="1393.5" width="64" height="1" fill="white" fill-opacity="0.2" /><rect x="1596" y="1451.5" width="64" height="1" fill="white" fill-opacity="0.5" /><text x="1670" y="1465.5" font-size="14" fill="white" font-family="monospace" dominant-baseline="ideographic">61</text><rect x="1596" y="-0.2000000000007276" width="64" height="1" fill="aqua" fill-opacity="0.75" /><text x="1596" y="13.799999999999272" font-size="14" fill="aqua" fill-opacity="0.75" font-family="monospace">Special</text><rect x="1710" y="0" width="64" height="1451.5" fill="black" /><rect x="1710" y="0.0" width="64" height="1" fill="white" fill-opacity="0.5" /><text x="1784" y="14.0" font-size="14" fill="white" font-family="monospace" dominant-baseline="ideographic">61</text><rect x="1710" y="58.0" width="64" height="1" fill="white" fill-opacity="0.2" /><rect x="1710" y="116.0" width="64" height="1" fill="white" fill-opacity="0.2" /><rect x="1710" y="174.0" width="64" height="1" fill="white" fill-opacity="0.2" /><rect x="1710" y="232.0" width="64" height="1" fill="white" fill-opacity="0.5" /><text x="1784" y="246.0" font-size="14" fill="white" font-family="monospace" dominant-baseline="ideographic">62</text><rect x="1710" y="290.5" width="64" height="1" fill="white" fill-opacity="0.2" /><rect x="1710" y="348.5" width="64" height="1" fill="white" fill-opacity="0.2" /><rect x="1710" y="406.5" width="64" height="1" fill="white" fill-opacity="0.2" /><rect x="1710" y="464.5" width="64" height="1" fill="white" fill-opacity="0.2" /><rect x="1710" y="522.5" width="64" height="1" fill="white" fill-opacity="0.2" /><rect x="1710" y="580.5" width="64" height="1" fill="white" fill-opacity="0.2" /><rect x="1710" y="638.5" width="64" height="1" fill="white" fill-opacity="0.5" /><text x="1784" y="652.5" font-size="14" fill="white" font-family="monospace" dominant-baseline="ideographic">63</text><rect x="1710" y="696.5" width="64" height="1" fill="white" fill-opacity="0.2" /><rect x="1710" y="755.0" width="64" height="1" fill="white" fill-opacity="0.2" /><rect x="1710" y="813.0" width="64" height="1" fill="white" fill-opacity="0.2" /><rect x="1710" y="871.0" width="64" height="1" fill="white" fill-opacity="0.2" /><rect x="1710" y="929.0" width="64" height="1" fill="white" fill-opacity="0.2" /><rect x="1710" y="987.0" width="64" height="1" fill="white" fill-opacity="0.2" /><rect x="1710" y="1045.0" width="64" height="1" fill="white" fill-opacity="0.5" /><text x="1784" y="1059.0" font-size="14" fill="white" font-family="monospace" dominant-baseline="ideographic">64</text><rect x="1710" y="1103.0" width="64" height="1" fill="white" fill-opacity="0.2" /><rect x="1710" y="1161.5" width="64" height="1" fill="white" fill-opacity="0.2" /><rect x="1710" y="1219.5" width="64" height="1" fill="white" fill-opacity="0.2" /><rect x="1710" y="1277.5" width="64" height="1" fill="white" fill-opacity="0.2" /><rect x="1710" y="1335.5" width="64" height="1" fill="white" fill-opacity="0.2" /><rect x="1710" y="1393.5" width="64" height="1" fill="white" fill-opacity="0.2" /><rect x="1710" y="1451.5" width="64" height="1" fill="white" fill-opacity="0.5" /><text x="1784" y="1465.5" font-size="14" fill="white" font-family="monospace" dominant-baseline="ideographic">65</text><rect x="1824" y="0" width="64" height="813.0" fill="black" /><rect x="1824" y="0.0" width="64" height="1" fill="white" fill-opacity="0.5" /><text x="1898" y="14.0" font-size="14" fill="white" font-family="monospace" dominant-baseline="ideographic">65</text><rect x="1824" y="58.0" width="64" height="1" fill="white" fill-opacity="0.2" /><rect x="1824" y="116.0" width="64" height="1" fill="white" fill-opacity="0.2" /><rect x="1824" y="174.5" width="64" height="1" fill="white" fill-opacity="0.2" /><rect x="1824" y="232.5" width="64" height="1" fill="white" fill-opacity="0.5" /><text x="1898" y="246.5" font-size="14" fill="white" font-family="monospace" dominant-baseline="ideographic">66</text><rect x="1824" y="290.5" width="64" height="1" fill="white" fill-opacity="0.2" /><rect x="1824" y="348.5" width="64" height="1" fill="white" fill-opacity="0.2" /><rect x="1824" y="406.5" width="64" height="1" fill="white" fill-opacity="0.2" /><rect x="1824" y="464.5" width="64" height="1" fill="white" fill-opacity="0.5" /><text x="1898" y="478.5" font-size="14" fill="white" font-family="monospace" dominant-baseline="ideographic">67</text><rect x="1824" y="522.5" width="64" height="1" fill="white" fill-opacity="0.2" /><rect x="1824" y="580.5" width="64" height="1" fill="white" fill-opacity="0.2" /><rect x="1824" y="639.0" width="64" height="1" fill="white" fill-opacity="0.5" /><text x="1898" y="653.0" font-size="14" fill="white" font-family="monospace" dominant-baseline="ideographic">68</text><rect x="1824" y="697.0" width="64" height="1" fill="white" fill-opacity="0.2" /><rect x="1824" y="755.0" width="64" height="1" fill="white" fill-opacity="0.2" /><rect x="1824" y="813.0" width="64" height="1" fill="white" fill-opacity="0.5" /><text x="1898" y="827.0" font-size="14" fill="white" font-family="monospace" dominant-baseline="ideographic">69</text><rect x="1824" y="464.59999999999854" width="64" height="1" fill="aqua" fill-opacity="0.75" /><text x="1824" y="478.59999999999854" font-size="14" fill="aqua" fill-opacity="0.75" font-family="monospace">Special</text><rect x="1938" y="0" width="64" height="697.0" fill="black" /><rect x="1938" y="0.0" width="64" height="1" fill="white" fill-opacity="0.5" /><text x="2012" y="14.0" font-size="14" fill="white" font-family="monospace" dominant-baseline="ideographic">69</text><rect x="1938" y="58.0" width="64" height="1" fill="white" fill-opacity="0.2" /><rect x="1938" y="116.0" width="64" height="1" fill="white" fill-opacity="0.2" /><rect x="1938" y="174.0" width="64" height="1" fill="white" fill-opacity="0.5" /><text x="2012" y="188.0" font-size="14" fill="white" font-family="monospace" dominant-baseline="ideographic">70</text><rect x="1938" y="232.0" width="64" height="1" fill="white" fill-opacity="0.2" /><rect x="1938" y="290.5" width="64" height="1" fill="white" fill-opacity="0.2" /><rect x="1938" y="348.5" width="64" height="1" fill="white" fill-opacity="0.5" /><text x="2012" y="362.5" font-size="14" fill="white" font-family="monospace" dominant-baseline="ideographic">71</text><rect x="1938" y="406.5" width="64" height="1" fill="white" fill-opacity="0.2" /><rect x="1938" y="464.5" width="64" height="1" fill="white" fill-opacity="0.2" /><rect x="1938" y="522.5" width="64" height="1" fill="white" fill-opacity="0.5" /><text x="2012" y="536.5" font-size="14" fill="white" font-family="monospace" dominant-baseline="ideographic">72</text><rect x="1938" y="580.5" width="64" height="1" fill="white" fill-opacity="0.2" /><rect x="1938" y="638.5" width="64" height="1" fill="white" fill-opacity="0.2" /><rect x="1938" y="697.0" width="64" height="1" fill="white" fill-opacity="0.5" /><text x="2012" y="711.0" font-size="14" fill="white" font-family="monospace" dominant-baseline="ideographic">73</text><rect x="2052" y="0" width="64" height="754.5" fill="black" /><rect x="2052" y="0.0" width="64" height="1" fill="white" fill-opacity="0.5" /><text x="2126" y="14.0" font-size="14" fill="white" font-family="monospace" dominant-baseline="ideographic">73</text><rect x="2052" y="58.0" width="64" height="1" fill="white" fill-opacity="0.2" /><rect x="2052" y="116.0" width="64" height="1" fill="white" fill-opacity="0.2" /><rect x="2052" y="174.0" width="64" height="1" fill="white" fill-opacity="0.5" /><text x="2126" y="188.0" font-size="14" fill="white" font-family="monospace" dominant-baseline="ideographic">74</text><rect x="2052" y="232.0" width="64" height="1" fill="white" fill-opacity="0.2" /><rect x="2052" y="290.0" width="64" height="1" fill="white" fill-opacity="0.2" /><rect x="2052" y="348.0" width="64" height="1" fill="white" fill-opacity="0.5" /><text x="2126" y="362.0" font-size="14" fill="white" font-family="monospace" dominant-baseline="ideographic">75</text><rect x="2052" y="406.0" width="64" height="1" fill="white" fill-opacity="0.2" /><rect x="2052" y="464.5" width="64" height="1" fill="white" fill-opacity="0.2" /><rect x="2052" y="522.5" width="64" height="1" fill="white" fill-opacity="0.5" /><text x="2126" y="536.5" font-size="14" fill="white" font-family="monospace" dominant-baseline="ideographic">76</text><rect x="2052" y="580.5" width="64" height="1" fill="white" fill-opacity="0.2" /><rect x="2052" y="638.5" width="64" height="1" fill="white" fill-opacity="0.2" /><rect x="2052" y="696.5" width="64" height="1" fill="white" fill-opacity="0.2" /><rect x="2052" y="754.5" width="64" height="1" fill="white" fill-opacity="0.5" /><text x="2126" y="768.5" font-size="14" fill="white" font-family="monospace" dominant-baseline="ideographic">77</text><rect x="2052" y="522.3999999999996" width="64" height="1" fill="aqua" fill-opacity="0.75" /><text x="2052" y="536.3999999999996" font-size="14" fill="aqua" fill-opacity="0.75" font-family="monospace">Outro</text><rect x="2166" y="0" width="64" height="929.0" fill="black" /><rect x="2166" y="0.0" width="64" height="1" fill="white" fill-opacity="0.5" /><text x="2240" y="14.0" font-size="14" fill="white" font-family="monospace" dominant-baseline="ideographic">77</text><rect x="2166" y="58.0" width="64" height="1" fill="white" fill-opacity="0.2" /><rect x="2166" y="116.0" width="64" height="1" fill="white" fill-opacity="0.2" /><rect x="2166" y="174.5" width="64" height="1" fill="white" fill-opacity="0.2" /><rect x="2166" y="232.5" width="64" height="1" fill="white" fill-opacity="0.5" /><text x="2240" y="246.5" font-size="14" fill="white" font-family="monospace" dominant-baseline="ideographic">78</text><rect x="2166" y="290.5" width="64" height="1" fill="white" fill-opacity="0.2" /><rect x="2166" y="348.5" width="64" height="1" fill="white" fill-opacity="0.2" /><rect x="2166" y="406.5" width="64" height="1" fill="white" fill-opacity="0.2" /><rect x="2166" y="464.5" width="64" height="1" fill="white" fill-opacity="0.5" /><text x="2240" y="478.5" font-size="14" fill="white" font-family="monospace" dominant-baseline="ideographic">79</text><rect x="2166" y="522.5" width="64" height="1" fill="white" fill-opacity="0.2" /><rect x="2166" y="580.5" width="64" height="1" fill="white" fill-opacity="0.2" /><rect x="2166" y="639.0" width="64" height="1" fill="white" fill-opacity="0.2" /><rect x="2166" y="697.0" width="64" height="1" fill="white" fill-opacity="0.5" /><text x="2240" y="711.0" font-size="14" fill="white" font-family="monospace" dominant-baseline="ideographic">80</text><rect x="2166" y="755.0" width="64" height="1" fill="white" fill-opacity="0.2" /><rect x="2166" y="813.0" width="64" height="1" fill="white" fill-opacity="0.2" /><rect x="2166" y="871.0" width="64" height="1" fill="white" fill-opacity="0.2" /><rect x="2166" y="929.0" width="64" height="1" fill="white" fill-opacity="0.5" /><text x="2240" y="943.0" font-size="14" fill="white" font-family="monospace" dominant-baseline="ideographic">81</text><rect x="2280" y="0" width="64" height="629.0" fill="black" /><rect x="2280" y="0.0" width="64" height="1" fill="white" fill-opacity="0.5" /><text x="2354" y="14.0" font-size="14" fill="white" font-family="monospace" dominant-baseline="ideographic">81</text><rect x="2280" y="58.0" width="64" height="1" fill="white" fill-opacity="0.2" /><rect x="2280" y="116.5" width="64" height="1" fill="white" fill-opacity="0.2" /><rect x="2280" y="174.5" width="64" height="1" fill="white" fill-opacity="0.2" /><rect x="2280" y="232.5" width="64" height="1" fill="white" fill-opacity="0.5" /><text x="2354" y="246.5" font-size="14" fill="white" font-family="monospace" dominant-baseline="ideographic">82</text></svg>