<?xml version="1.0" encoding="UTF-8"?><svg xmlns="http://www.w3.org/2000/svg" xmlns:xlink="http://www.w3.org/1999/xlink"     width="4522" height="882.0" viewBox="0 0 4522 882.0"><defs></defs><rect x="0" y="35.0" width="188" height="847.0" fill="black" /><rect x="0" y="881.0" width="188" height="1" fill="white" fill-opacity="0.5" /><text x="198" y="881.0" font-size="14" fill="white" font-family="monospace" dominant-baseline="initial">1</text><rect x="0" y="828.0" width="188" height="1" fill="white" fill-opacity="0.2" /><rect x="0" y="775.0" width="188" height="1" fill="white" fill-opacity="0.2" /><rect x="0" y="722.0" width="188" height="1" fill="white" fill-opacity="0.2" /><rect x="0" y="669.0" width="188" height="1" fill="white" fill-opacity="0.5" /><text x="198" y="669.0" font-size="14" fill="white" font-family="monospace" dominant-baseline="initial">2</text><rect x="0" y="616.5" width="188" height="1" fill="white" fill-opacity="0.2" /><rect x="0" y="563.5" width="188" height="1" fill="white" fill-opacity="0.2" /><rect x="0" y="510.5" width="188" height="1" fill="white" fill-opacity="0.2" /><rect x="0" y="457.5" width="188" height="1" fill="white" fill-opacity="0.5" /><text x="198" y="457.5" font-size="14" fill="white" font-family="monospace" dominant-baseline="initial">3</text><rect x="0" y="404.5" width="188" height="1" fill="white" fill-opacity="0.2" /><rect x="0" y="351.5" width="188" height="1" fill="white" fill-opacity="0.2" /><rect x="0" y="298.5" width="188" height="1" fill="white" fill-opacity="0.2" /><rect x="0" y="245.5" width="188" height="1" fill="white" fill-opacity="0.5" /><text x="198" y="245.5" font-size="14" fill="white" font-family="monospace" dominant-baseline="initial">4</text><rect x="0" y="193.0" width="188" height="1" fill="white" fill-opacity="0.2" /><rect x="0" y="140.0" width="188" height="1" fill="white" fill-opacity="0.2" /><rect x="0" y="87.0" width="188" height="1" fill="white" fill-opacity="0.2" /><rect x="0" y="34.0" width="188" height="1" fill="white" fill-opacity="0.5" /><text x="198" y="34.0" font-size="14" fill="white" font-family="monospace" dominant-baseline="initial">5</text><rect x="0" y="881.0" width="188" height="1" fill="aqua" fill-opacity="0.75" /><text x="0" y="877.0" font-size="14" fill="aqua" fill-opacity="0.75" font-family="monospace">Intro</text><rect x="0" y="881.0" width="188" height="1" fill="lime" fill-opacity="0.75" /><text x="198" y="868.0" font-size="14" fill="lime" font-family="monospace" dominant-baseline="initial">170</text><rect x="238" y="35.0" width="188" height="847.0" fill="black" /><rect x="238" y="881.0" width="188" height="1" fill="white" fill-opacity="0.5" /><text x="436" y="881.0" font-size="14" fill="white" font-family="monospace" dominant-baseline="initial">5</text><rect x="238" y="828.0" width="188" height="1" fill="white" fill-opacity="0.2" /><rect x="238" y="775.0" width="188" height="1" fill="white" fill-opacity="0.2" /><rect x="238" y="722.0" width="188" height="1" fill="white" fill-opacity="0.2" /><rect x="238" y="669.0" width="188" height="1" fill="white" fill-opacity="0.5" /><text x="436" y="669.0" font-size="14" fill="white" font-family="monospace" dominant-baseline="initial">6</text><rect x="238" y="616.0" width="188" height="1" fill="white" fill-opacity="0.2" /><rect x="238" y="563.5" width="188" height="1" fill="white" fill-opacity="0.2" /><rect x="238" y="510.5" width="188" height="1" fill="white" fill-opacity="0.2" /><rect x="238" y="457.5" width="188" height="1" fill="white" fill-opacity="0.5" /><text x="436" y="457.5" font-size="14" fill="white" font-family="monospace" dominant-baseline="initial">7</text><rect x="238" y="404.5" width="188" height="1" fill="white" fill-opacity="0.2" /><rect x="238" y="351.5" width="188" height="1" fill="white" fill-opacity="0.2" /><rect x="238" y="298.5" width="188" height="1" fill="white" fill-opacity="0.2" /><rect x="238" y="245.5" width="188" height="1" fill="white" fill-opacity="0.5" /><text x="436" y="245.5" font-size="14" fill="white" font-family="monospace" dominant-baseline="initial">8</text><rect x="238" y="192.5" width="188" height="1" fill="white" fill-opacity="0.2" /><rect x="238" y="140.0" width="188" height="1" fill="white" fill-opacity="0.2" /><rect x="238" y="87.0" width="188" height="1" fill="white" fill-opacity="0.2" /><rect x="238" y="34.0" width="188" height="1" fill="white" fill-opacity="0.5" /><text x="436" y="34.0" font-size="14" fill="white" font-family="monospace" dominant-baseline="initial">9</text><rect x="476" y="35.0" width="188" height="847.0" fill="black" /><rect x="476" y="881.0" width="188" height="1" fill="white" fill-opacity="0.5" /><text x="674" y="881.0" font-size="14" fill="white" font-family="monospace" dominant-baseline="initial">9</text><rect x="476" y="828.0" width="188" height="1" fill="white" fill-opacity="0.2" /><rect x="476" y="775.0" width="188" height="1" fill="white" fill-opacity="0.2" /><rect x="476" y="722.0" width="188" height="1" fill="white" fill-opacity="0.2" /><rect x="476" y="669.0" width="188" height="1" fill="white" fill-opacity="0.5" /><text x="674" y="669.0" font-size="14" fill="white" font-family="monospace" dominant-baseline="initial">10</text><rect x="476" y="616.0" width="188" height="1" fill="white" fill-opacity="0.2" /><rect x="476" y="563.0" width="188" height="1" fill="white" fill-opacity="0.2" /><rect x="476" y="510.5" width="188" height="1" fill="white" fill-opacity="0.2" /><rect x="476" y="457.5" width="188" height="1" fill="white" fill-opacity="0.5" /><text x="674" y="457.5" font-size="14" fill="white" font-family="monospace" dominant-baseline="initial">11</text><rect x="476" y="404.5" width="188" height="1" fill="white" fill-opacity="0.2" /><rect x="476" y="351.5" width="188" height="1" fill="white" fill-opacity="0.2" /><rect x="476" y="298.5" width="188" height="1" fill="white" fill-opacity="0.2" /><rect x="476" y="245.5" width="188" height="1" fill="white" fill-opacity="0.5" /><text x="674" y="245.5" font-size="14" fill="white" font-family="monospace" dominant-baseline="initial">12</text><rect x="476" y="192.5" width="188" height="1" fill="white" fill-opacity="0.2" /><rect x="476" y="139.5" width="188" height="1" fill="white" fill-opacity="0.2" /><rect x="476" y="87.0" width="188" height="1" fill="white" fill-opacity="0.2" /><rect x="476" y="34.0" width="188" height="1" fill="white" fill-opacity="0.5" /><text x="674" y="34.0" font-size="14" fill="white" font-family="monospace" dominant-baseline="initial">13</text><rect x="714" y="14.0" width="188" height="868.0" fill="black" /><rect x="714" y="881.0" width="188" height="1" fill="white" fill-opacity="0.5" /><text x="912" y="881.0" font-size="14" fill="white" font-family="monospace" dominant-baseline="initial">13</text><rect x="714" y="828.0" width="188" height="1" fill="white" fill-opacity="0.2" /><rect x="714" y="775.0" width="188" height="1" fill="white" fill-opacity="0.2" /><rect x="714" y="722.0" width="188" height="1" fill="white" fill-opacity="0.2" /><rect x="714" y="669.0" width="188" height="1" fill="white" fill-opacity="0.5" /><text x="912" y="669.0" font-size="14" fill="white" font-family="monospace" dominant-baseline="initial">14</text><rect x="714" y="613.5" width="188" height="1" fill="white" fill-opacity="0.2" /><rect x="714" y="558.0" width="188" height="1" fill="white" fill-opacity="0.2" /><rect x="714" y="502.5" width="188" height="1" fill="white" fill-opacity="0.2" /><rect x="714" y="447.0" width="188" height="1" fill="white" fill-opacity="0.5" /><text x="912" y="447.0" font-size="14" fill="white" font-family="monospace" dominant-baseline="initial">15</text><rect x="714" y="391.5" width="188" height="1" fill="white" fill-opacity="0.2" /><rect x="714" y="335.5" width="188" height="1" fill="white" fill-opacity="0.2" /><rect x="714" y="280.0" width="188" height="1" fill="white" fill-opacity="0.2" /><rect x="714" y="224.5" width="188" height="1" fill="white" fill-opacity="0.5" /><text x="912" y="224.5" font-size="14" fill="white" font-family="monospace" dominant-baseline="initial">16</text><rect x="714" y="171.5" width="188" height="1" fill="white" fill-opacity="0.2" /><rect x="714" y="118.5" width="188" height="1" fill="white" fill-opacity="0.2" /><rect x="714" y="66.0" width="188" height="1" fill="white" fill-opacity="0.2" /><rect x="714" y="13.0" width="188" height="1" fill="white" fill-opacity="0.5" /><text x="912" y="13.0" font-size="14" fill="white" font-family="monospace" dominant-baseline="initial">17</text><rect x="714" y="224.60000000000036" width="188" height="1" fill="aqua" fill-opacity="0.75" /><text x="714" y="220.60000000000036" font-size="14" fill="aqua" fill-opacity="0.75" font-family="monospace">Phrase A</text><rect x="714" y="669.0" width="188" height="1" fill="lime" fill-opacity="0.75" /><text x="912" y="656.0" font-size="14" fill="lime" font-family="monospace" dominant-baseline="initial">162</text><rect x="714" y="224.5" width="188" height="1" fill="lime" fill-opacity="0.75" /><text x="912" y="211.5" font-size="14" fill="lime" font-family="monospace" dominant-baseline="initial">170</text><rect x="952" y="35.0" width="188" height="847.0" fill="black" /><rect x="952" y="881.0" width="188" height="1" fill="white" fill-opacity="0.5" /><text x="1150" y="881.0" font-size="14" fill="white" font-family="monospace" dominant-baseline="initial">17</text><rect x="952" y="828.0" width="188" height="1" fill="white" fill-opacity="0.2" /><rect x="952" y="775.0" width="188" height="1" fill="white" fill-opacity="0.2" /><rect x="952" y="722.0" width="188" height="1" fill="white" fill-opacity="0.2" /><rect x="952" y="669.0" width="188" height="1" fill="white" fill-opacity="0.5" /><text x="1150" y="669.0" font-size="14" fill="white" font-family="monospace" dominant-baseline="initial">18</text><rect x="952" y="616.0" width="188" height="1" fill="white" fill-opacity="0.2" /><rect x="952" y="563.0" width="188" height="1" fill="white" fill-opacity="0.2" /><rect x="952" y="510.5" width="188" height="1" fill="white" fill-opacity="0.2" /><rect x="952" y="457.5" width="188" height="1" fill="white" fill-opacity="0.5" /><text x="1150" y="457.5" font-size="14" fill="white" font-family="monospace" dominant-baseline="initial">19</text><rect x="952" y="404.5" width="188" height="1" fill="white" fill-opacity="0.2" /><rect x="952" y="351.5" width="188" height="1" fill="white" fill-opacity="0.2" /><rect x="952" y="298.5" width="188" height="1" fill="white" fill-opacity="0.2" /><rect x="952" y="245.5" width="188" height="1" fill="white" fill-opacity="0.5" /><text x="1150" y="245.5" font-size="14" fill="white" font-family="monospace" dominant-baseline="initial">20</text><rect x="952" y="192.5" width="188" height="1" fill="white" fill-opacity="0.2" /><rect x="952" y="139.5" width="188" height="1" fill="white" fill-opacity="0.2" /><rect x="952" y="86.5" width="188" height="1" fill="white" fill-opacity="0.2" /><rect x="952" y="34.0" width="188" height="1" fill="white" fill-opacity="0.5" /><text x="1150" y="34.0" font-size="14" fill="white" font-family="monospace" dominant-baseline="initial">21</text><rect x="1190" y="34.5" width="188" height="847.5" fill="black" /><rect x="1190" y="881.0" width="188" height="1" fill="white" fill-opacity="0.5" /><text x="1388" y="881.0" font-size="14" fill="white" font-family="monospace" dominant-baseline="initial">21</text><rect x="1190" y="828.0" width="188" height="1" fill="white" fill-opacity="0.2" /><rect x="1190" y="775.0" width="188" height="1" fill="white" fill-opacity="0.2" /><rect x="1190" y="722.0" width="188" height="1" fill="white" fill-opacity="0.2" /><rect x="1190" y="669.0" width="188" height="1" fill="white" fill-opacity="0.5" /><text x="1388" y="669.0" font-size="14" fill="white" font-family="monospace" dominant-baseline="initial">22</text><rect x="1190" y="616.0" width="188" height="1" fill="white" fill-opacity="0.2" /><rect x="1190" y="563.0" width="188" height="1" fill="white" fill-opacity="0.2" /><rect x="1190" y="510.0" width="188" height="1" fill="white" fill-opacity="0.2" /><rect x="1190" y="457.5" width="188" height="1" fill="white" fill-opacity="0.5" /><text x="1388" y="457.5" font-size="14" fill="white" font-family="monospace" dominant-baseline="initial">23</text><rect x="1190" y="404.5" width="188" height="1" fill="white" fill-opacity="0.2" /><rect x="1190" y="351.5" width="188" height="1" fill="white" fill-opacity="0.2" /><rect x="1190" y="298.5" width="188" height="1" fill="white" fill-opacity="0.2" /><rect x="1190" y="245.5" width="188" height="1" fill="white" fill-opacity="0.5" /><text x="1388" y="245.5" font-size="14" fill="white" font-family="monospace" dominant-baseline="initial">24</text><rect x="1190" y="192.5" width="188" height="1" fill="white" fill-opacity="0.2" /><rect x="1190" y="139.5" width="188" height="1" fill="white" fill-opacity="0.2" /><rect x="1190" y="86.5" width="188" height="1" fill="white" fill-opacity="0.2" /><rect x="1190" y="33.5" width="188" height="1" fill="white" fill-opacity="0.5" /><text x="1388" y="33.5" font-size="14" fill="white" font-family="monospace" dominant-baseline="initial">25</text><rect x="1190" y="245.5" width="188" height="1" fill="aqua" fill-opacity="0.75" /><text x="1190" y="241.5" font-size="14" fill="aqua" fill-opacity="0.75" font-family="monospace">Phrase B</text><rect x="1428" y="35.0" width="188" height="847.0" fill="black" /><rect x="1428" y="881.0" width="188" height="1" fill="white" fill-opacity="0.5" /><text x="1626" y="881.0" font-size="14" fill="white" font-family="monospace" dominant-baseline="initial">25</text><rect x="1428" y="828.5" width="188" height="1" fill="white" fill-opacity="0.2" /><rect x="1428" y="775.5" width="188" height="1" fill="white" fill-opacity="0.2" /><rect x="1428" y="722.5" width="188" height="1" fill="white" fill-opacity="0.2" /><rect x="1428" y="669.5" width="188" height="1" fill="white" fill-opacity="0.5" /><text x="1626" y="669.5" font-size="14" fill="white" font-family="monospace" dominant-baseline="initial">26</text><rect x="1428" y="616.5" width="188" height="1" fill="white" fill-opacity="0.2" /><rect x="1428" y="563.5" width="188" height="1" fill="white" fill-opacity="0.2" /><rect x="1428" y="510.5" width="188" height="1" fill="white" fill-opacity="0.2" /><rect x="1428" y="457.5" width="188" height="1" fill="white" fill-opacity="0.5" /><text x="1626" y="457.5" font-size="14" fill="white" font-family="monospace" dominant-baseline="initial">27</text><rect x="1428" y="405.0" width="188" height="1" fill="white" fill-opacity="0.2" /><rect x="1428" y="352.0" width="188" height="1" fill="white" fill-opacity="0.2" /><rect x="1428" y="299.0" width="188" height="1" fill="white" fill-opacity="0.2" /><rect x="1428" y="246.0" width="188" height="1" fill="white" fill-opacity="0.5" /><text x="1626" y="246.0" font-size="14" fill="white" font-family="monospace" dominant-baseline="initial">28</text><rect x="1428" y="193.0" width="188" height="1" fill="white" fill-opacity="0.2" /><rect x="1428" y="140.0" width="188" height="1" fill="white" fill-opacity="0.2" /><rect x="1428" y="87.0" width="188" height="1" fill="white" fill-opacity="0.2" /><rect x="1428" y="34.0" width="188" height="1" fill="white" fill-opacity="0.5" /><text x="1626" y="34.0" font-size="14" fill="white" font-family="monospace" dominant-baseline="initial">29</text><rect x="1666" y="35.0" width="188" height="847.0" fill="black" /><rect x="1666" y="881.0" width="188" height="1" fill="white" fill-opacity="0.5" /><text x="1864" y="881.0" font-size="14" fill="white" font-family="monospace" dominant-baseline="initial">29</text><rect x="1666" y="828.0" width="188" height="1" fill="white" fill-opacity="0.2" /><rect x="1666" y="775.5" width="188" height="1" fill="white" fill-opacity="0.2" /><rect x="1666" y="722.5" width="188" height="1" fill="white" fill-opacity="0.2" /><rect x="1666" y="669.5" width="188" height="1" fill="white" fill-opacity="0.5" /><text x="1864" y="669.5" font-size="14" fill="white" font-family="monospace" dominant-baseline="initial">30</text><rect x="1666" y="616.5" width="188" height="1" fill="white" fill-opacity="0.2" /><rect x="1666" y="563.5" width="188" height="1" fill="white" fill-opacity="0.2" /><rect x="1666" y="510.5" width="188" height="1" fill="white" fill-opacity="0.2" /><rect x="1666" y="457.5" width="188" height="1" fill="white" fill-opacity="0.5" /><text x="1864" y="457.5" font-size="14" fill="white" font-family="monospace" dominant-baseline="initial">31</text><rect x="1666" y="404.5" width="188" height="1" fill="white" fill-opacity="0.2" /><rect x="1666" y="352.0" width="188" height="1" fill="white" fill-opacity="0.2" /><rect x="1666" y="299.0" width="188" height="1" fill="white" fill-opacity="0.2" /><rect x="1666" y="246.0" width="188" height="1" fill="white" fill-opacity="0.5" /><text x="1864" y="246.0" font-size="14" fill="white" font-family="monospace" dominant-baseline="initial">32</text><rect x="1666" y="193.0" width="188" height="1" fill="white" fill-opacity="0.2" /><rect x="1666" y="140.0" width="188" height="1" fill="white" fill-opacity="0.2" /><rect x="1666" y="87.0" width="188" height="1" fill="white" fill-opacity="0.2" /><rect x="1666" y="34.0" width="188" height="1" fill="white" fill-opacity="0.5" /><text x="1864" y="34.0" font-size="14" fill="white" font-family="monospace" dominant-baseline="initial">33</text><rect x="1666" y="245.90000000000055" width="188" height="1" fill="aqua" fill-opacity="0.75" /><text x="1666" y="241.90000000000055" font-size="14" fill="aqua" fill-opacity="0.75" font-family="monospace">Special</text><rect x="1904" y="35.0" width="188" height="847.0" fill="black" /><rect x="1904" y="881.0" width="188" height="1" fill="white" fill-opacity="0.5" /><text x="2102" y="881.0" font-size="14" fill="white" font-family="monospace" dominant-baseline="initial">33</text><rect x="1904" y="828.0" width="188" height="1" fill="white" fill-opacity="0.2" /><rect x="1904" y="775.0" width="188" height="1" fill="white" fill-opacity="0.2" /><rect x="1904" y="722.5" width="188" height="1" fill="white" fill-opacity="0.2" /><rect x="1904" y="669.5" width="188" height="1" fill="white" fill-opacity="0.5" /><text x="2102" y="669.5" font-size="14" fill="white" font-family="monospace" dominant-baseline="initial">34</text><rect x="1904" y="616.5" width="188" height="1" fill="white" fill-opacity="0.2" /><rect x="1904" y="563.5" width="188" height="1" fill="white" fill-opacity="0.2" /><rect x="1904" y="510.5" width="188" height="1" fill="white" fill-opacity="0.2" /><rect x="1904" y="457.5" width="188" height="1" fill="white" fill-opacity="0.5" /><text x="2102" y="457.5" font-size="14" fill="white" font-family="monospace" dominant-baseline="initial">35</text><rect x="1904" y="404.5" width="188" height="1" fill="white" fill-opacity="0.2" /><rect x="1904" y="351.5" width="188" height="1" fill="white" fill-opacity="0.2" /><rect x="1904" y="299.0" width="188" height="1" fill="white" fill-opacity="0.2" /><rect x="1904" y="246.0" width="188" height="1" fill="white" fill-opacity="0.5" /><text x="2102" y="246.0" font-size="14" fill="white" font-family="monospace" dominant-baseline="initial">36</text><rect x="1904" y="193.0" width="188" height="1" fill="white" fill-opacity="0.2" /><rect x="1904" y="140.0" width="188" height="1" fill="white" fill-opacity="0.2" /><rect x="1904" y="87.0" width="188" height="1" fill="white" fill-opacity="0.2" /><rect x="1904" y="34.0" width="188" height="1" fill="white" fill-opacity="0.5" /><text x="2102" y="34.0" font-size="14" fill="white" font-family="monospace" dominant-baseline="initial">37</text><rect x="2142" y="35.0" width="188" height="847.0" fill="black" /><rect x="2142" y="881.0" width="188" height="1" fill="white" fill-opacity="0.5" /><text x="2340" y="881.0" font-size="14" fill="white" font-family="monospace" dominant-baseline="initial">37</text><rect x="2142" y="828.0" width="188" height="1" fill="white" fill-opacity="0.2" /><rect x="2142" y="775.0" width="188" height="1" fill="white" fill-opacity="0.2" /><rect x="2142" y="722.0" width="188" height="1" fill="white" fill-opacity="0.2" /><rect x="2142" y="669.5" width="188" height="1" fill="white" fill-opacity="0.5" /><text x="2340" y="669.5" font-size="14" fill="white" font-family="monospace" dominant-baseline="initial">38</text><rect x="2142" y="616.5" width="188" height="1" fill="white" fill-opacity="0.2" /><rect x="2142" y="563.5" width="188" height="1" fill="white" fill-opacity="0.2" /><rect x="2142" y="510.5" width="188" height="1" fill="white" fill-opacity="0.2" /><rect x="2142" y="457.5" width="188" height="1" fill="white" fill-opacity="0.5" /><text x="2340" y="457.5" font-size="14" fill="white" font-family="monospace" dominant-baseline="initial">39</text><rect x="2142" y="404.5" width="188" height="1" fill="white" fill-opacity="0.2" /><rect x="2142" y="351.5" width="188" height="1" fill="white" fill-opacity="0.2" /><rect x="2142" y="298.5" width="188" height="1" fill="white" fill-opacity="0.2" /><rect x="2142" y="246.0" width="188" height="1" fill="white" fill-opacity="0.5" /><text x="2340" y="246.0" font-size="14" fill="white" font-family="monospace" dominant-baseline="initial">40</text><rect x="2142" y="193.0" width="188" height="1" fill="white" fill-opacity="0.2" /><rect x="2142" y="140.0" width="188" height="1" fill="white" fill-opacity="0.2" /><rect x="2142" y="87.0" width="188" height="1" fill="white" fill-opacity="0.2" /><rect x="2142" y="34.0" width="188" height="1" fill="white" fill-opacity="0.5" /><text x="2340" y="34.0" font-size="14" fill="white" font-family="monospace" dominant-baseline="initial">41</text><rect x="2380" y="35.0" width="188" height="847.0" fill="black" /><rect x="2380" y="881.0" width="188" height="1" fill="white" fill-opacity="0.5" /><text x="2578" y="881.0" font-size="14" fill="white" font-family="monospace" dominant-baseline="initial">41</text><rect x="2380" y="828.0" width="188" height="1" fill="white" fill-opacity="0.2" /><rect x="2380" y="775.0" width="188" height="1" fill="white" fill-opacity="0.2" /><rect x="2380" y="722.0" width="188" height="1" fill="white" fill-opacity="0.2" /><rect x="2380" y="669.0" width="188" height="1" fill="white" fill-opacity="0.5" /><text x="2578" y="669.0" font-size="14" fill="white" font-family="monospace" dominant-baseline="initial">42</text><rect x="2380" y="616.5" width="188" height="1" fill="white" fill-opacity="0.2" /><rect x="2380" y="563.5" width="188" height="1" fill="white" fill-opacity="0.2" /><rect x="2380" y="510.5" width="188" height="1" fill="white" fill-opacity="0.2" /><rect x="2380" y="457.5" width="188" height="1" fill="white" fill-opacity="0.5" /><text x="2578" y="457.5" font-size="14" fill="white" font-family="monospace" dominant-baseline="initial">43</text><rect x="2380" y="404.5" width="188" height="1" fill="white" fill-opacity="0.2" /><rect x="2380" y="351.5" width="188" height="1" fill="white" fill-opacity="0.2" /><rect x="2380" y="298.5" width="188" height="1" fill="white" fill-opacity="0.2" /><rect x="2380" y="245.5" width="188" height="1" fill="white" fill-opacity="0.5" /><text x="2578" y="245.5" font-size="14" fill="white" font-family="monospace" dominant-baseline="initial">44</text><rect x="2380" y="193.0" width="188" height="1" fill="white" fill-opacity="0.2" /><rect x="2380" y="140.0" width="188" height="1" fill="white" fill-opacity="0.2" /><rect x="2380" y="87.0" width="188" height="1" fill="white" fill-opacity="0.2" /><rect x="2380" y="34.0" width="188" height="1" fill="white" fill-opacity="0.5" /><text x="2578" y="34.0" font-size="14" fill="white" font-family="monospace" dominant-baseline="initial">45</text><rect x="2618" y="35.0" width="188" height="847.0" fill="black" /><rect x="2618" y="881.0" width="188" height="1" fill="white" fill-opacity="0.5" /><text x="2816" y="881.0" font-size="14" fill="white" font-family="monospace" dominant-baseline="initial">45</text><rect x="2618" y="828.0" width="188" height="1" fill="white" fill-opacity="0.2" /><rect x="2618" y="775.0" width="188" height="1" fill="white" fill-opacity="0.2" /><rect x="2618" y="722.0" width="188" height="1" fill="white" fill-opacity="0.2" /><rect x="2618" y="669.0" width="188" height="1" fill="white" fill-opacity="0.5" /><text x="2816" y="669.0" font-size="14" fill="white" font-family="monospace" dominant-baseline="initial">46</text><rect x="2618" y="616.0" width="188" height="1" fill="white" fill-opacity="0.2" /><rect x="2618" y="563.5" width="188" height="1" fill="white" fill-opacity="0.2" /><rect x="2618" y="510.5" width="188" height="1" fill="white" fill-opacity="0.2" /><rect x="2618" y="457.5" width="188" height="1" fill="white" fill-opacity="0.5" /><text x="2816" y="457.5" font-size="14" fill="white" font-family="monospace" dominant-baseline="initial">47</text><rect x="2618" y="404.5" width="188" height="1" fill="white" fill-opacity="0.2" /><rect x="2618" y="351.5" width="188" height="1" fill="white" fill-opacity="0.2" /><rect x="2618" y="298.5" width="188" height="1" fill="white" fill-opacity="0.2" /><rect x="2618" y="245.5" width="188" height="1" fill="white" fill-opacity="0.5" /><text x="2816" y="245.5" font-size="14" fill="white" font-family="monospace" dominant-baseline="initial">48</text><rect x="2618" y="192.5" width="188" height="1" fill="white" fill-opacity="0.2" /><rect x="2618" y="140.0" width="188" height="1" fill="white" fill-opacity="0.2" /><rect x="2618" y="87.0" width="188" height="1" fill="white" fill-opacity="0.2" /><rect x="2618" y="34.0" width="188" height="1" fill="white" fill-opacity="0.5" /><text x="2816" y="34.0" font-size="14" fill="white" font-family="monospace" dominant-baseline="initial">49</text><rect x="2618" y="245.70000000000073" width="188" height="1" fill="aqua" fill-opacity="0.75" /><text x="2618" y="241.70000000000073" font-size="14" fill="aqua" fill-opacity="0.75" font-family="monospace">Phrase C</text><rect x="2856" y="35.0" width="188" height="847.0" fill="black" /><rect x="2856" y="881.0" width="188" height="1" fill="white" fill-opacity="0.5" /><text x="3054" y="881.0" font-size="14" fill="white" font-family="monospace" dominant-baseline="initial">49</text><rect x="2856" y="828.0" width="188" height="1" fill="white" fill-opacity="0.2" /><rect x="2856" y="775.0" width="188" height="1" fill="white" fill-opacity="0.2" /><rect x="2856" y="722.0" width="188" height="1" fill="white" fill-opacity="0.2" /><rect x="2856" y="669.0" width="188" height="1" fill="white" fill-opacity="0.5" /><text x="3054" y="669.0" font-size="14" fill="white" font-family="monospace" dominant-baseline="initial">50</text><rect x="2856" y="616.0" width="188" height="1" fill="white" fill-opacity="0.2" /><rect x="2856" y="563.0" width="188" height="1" fill="white" fill-opacity="0.2" /><rect x="2856" y="510.5" width="188" height="1" fill="white" fill-opacity="0.2" /><rect x="2856" y="457.5" width="188" height="1" fill="white" fill-opacity="0.5" /><text x="3054" y="457.5" font-size="14" fill="white" font-family="monospace" dominant-baseline="initial">51</text><rect x="2856" y="404.5" width="188" height="1" fill="white" fill-opacity="0.2" /><rect x="2856" y="351.5" width="188" height="1" fill="white" fill-opacity="0.2" /><rect x="2856" y="298.5" width="188" height="1" fill="white" fill-opacity="0.2" /><rect x="2856" y="245.5" width="188" height="1" fill="white" fill-opacity="0.5" /><text x="3054" y="245.5" font-size="14" fill="white" font-family="monospace" dominant-baseline="initial">52</text><rect x="2856" y="192.5" width="188" height="1" fill="white" fill-opacity="0.2" /><rect x="2856" y="139.5" width="188" height="1" fill="white" fill-opacity="0.2" /><rect x="2856" y="87.0" width="188" height="1" fill="white" fill-opacity="0.2" /><rect x="2856" y="34.0" width="188" height="1" fill="white" fill-opacity="0.5" /><text x="3054" y="34.0" font-size="14" fill="white" font-family="monospace" dominant-baseline="initial">53</text><rect x="3094" y="35.0" width="188" height="847.0" fill="black" /><rect x="3094" y="881.0" width="188" height="1" fill="white" fill-opacity="0.5" /><text x="3292" y="881.0" font-size="14" fill="white" font-family="monospace" dominant-baseline="initial">53</text><rect x="3094" y="828.0" width="188" height="1" fill="white" fill-opacity="0.2" /><rect x="3094" y="775.0" width="188" height="1" fill="white" fill-opacity="0.2" /><rect x="3094" y="722.0" width="188" height="1" fill="white" fill-opacity="0.2" /><rect x="3094" y="669.0" width="188" height="1" fill="white" fill-opacity="0.5" /><text x="3292" y="669.0" font-size="14" fill="white" font-family="monospace" dominant-baseline="initial">54</text><rect x="3094" y="616.0" width="188" height="1" fill="white" fill-opacity="0.2" /><rect x="3094" y="563.0" width="188" height="1" fill="white" fill-opacity="0.2" /><rect x="3094" y="510.0" width="188" height="1" fill="white" fill-opacity="0.2" /><rect x="3094" y="457.5" width="188" height="1" fill="white" fill-opacity="0.5" /><text x="3292" y="457.5" font-size="14" fill="white" font-family="monospace" dominant-baseline="initial">55</text><rect x="3094" y="404.5" width="188" height="1" fill="white" fill-opacity="0.2" /><rect x="3094" y="351.5" width="188" height="1" fill="white" fill-opacity="0.2" /><rect x="3094" y="298.5" width="188" height="1" fill="white" fill-opacity="0.2" /><rect x="3094" y="245.5" width="188" height="1" fill="white" fill-opacity="0.5" /><text x="3292" y="245.5" font-size="14" fill="white" font-family="monospace" dominant-baseline="initial">56</text><rect x="3094" y="192.5" width="188" height="1" fill="white" fill-opacity="0.2" /><rect x="3094" y="139.5" width="188" height="1" fill="white" fill-opacity="0.2" /><rect x="3094" y="86.5" width="188" height="1" fill="white" fill-opacity="0.2" /><rect x="3094" y="34.0" width="188" height="1" fill="white" fill-opacity="0.5" /><text x="3292" y="34.0" font-size="14" fill="white" font-family="monospace" dominant-baseline="initial">57</text><rect x="3094" y="245.60000000000036" width="188" height="1" fill="aqua" fill-opacity="0.75" /><text x="3094" y="241.60000000000036" font-size="14" fill="aqua" fill-opacity="0.75" font-family="monospace">Phrase D</text><rect x="3332" y="34.5" width="188" height="847.5" fill="black" /><rect x="3332" y="881.0" width="188" height="1" fill="white" fill-opacity="0.5" /><text x="3530" y="881.0" font-size="14" fill="white" font-family="monospace" dominant-baseline="initial">57</text><rect x="3332" y="828.0" width="188" height="1" fill="white" fill-opacity="0.2" /><rect x="3332" y="775.0" width="188" height="1" fill="white" fill-opacity="0.2" /><rect x="3332" y="722.0" width="188" height="1" fill="white" fill-opacity="0.2" /><rect x="3332" y="669.0" width="188" height="1" fill="white" fill-opacity="0.5" /><text x="3530" y="669.0" font-size="14" fill="white" font-family="monospace" dominant-baseline="initial">58</text><rect x="3332" y="616.0" width="188" height="1" fill="white" fill-opacity="0.2" /><rect x="3332" y="563.0" width="188" height="1" fill="white" fill-opacity="0.2" /><rect x="3332" y="510.0" width="188" height="1" fill="white" fill-opacity="0.2" /><rect x="3332" y="457.0" width="188" height="1" fill="white" fill-opacity="0.5" /><text x="3530" y="457.0" font-size="14" fill="white" font-family="monospace" dominant-baseline="initial">59</text><rect x="3332" y="404.5" width="188" height="1" fill="white" fill-opacity="0.2" /><rect x="3332" y="351.5" width="188" height="1" fill="white" fill-opacity="0.2" /><rect x="3332" y="298.5" width="188" height="1" fill="white" fill-opacity="0.2" /><rect x="3332" y="245.5" width="188" height="1" fill="white" fill-opacity="0.5" /><text x="3530" y="245.5" font-size="14" fill="white" font-family="monospace" dominant-baseline="initial">60</text><rect x="3332" y="192.5" width="188" height="1" fill="white" fill-opacity="0.2" /><rect x="3332" y="139.5" width="188" height="1" fill="white" fill-opacity="0.2" /><rect x="3332" y="86.5" width="188" height="1" fill="white" fill-opacity="0.2" /><rect x="3332" y="33.5" width="188" height="1" fill="white" fill-opacity="0.5" /><text x="3530" y="33.5" font-size="14" fill="white" font-family="monospace" dominant-baseline="initial">61</text><rect x="3570" y="35.0" width="188" height="847.0" fill="black" /><rect x="3570" y="881.0" width="188" height="1" fill="white" fill-opacity="0.5" /><text x="3768" y="881.0" font-size="14" fill="white" font-family="monospace" dominant-baseline="initial">61</text><rect x="3570" y="828.5" width="188" height="1" fill="white" fill-opacity="0.2" /><rect x="3570" y="775.5" width="188" height="1" fill="white" fill-opacity="0.2" /><rect x="3570" y="722.5" width="188" height="1" fill="white" fill-opacity="0.2" /><rect x="3570" y="669.5" width="188" height="1" fill="white" fill-opacity="0.5" /><text x="3768" y="669.5" font-size="14" fill="white" font-family="monospace" dominant-baseline="initial">62</text><rect x="3570" y="616.5" width="188" height="1" fill="white" fill-opacity="0.2" /><rect x="3570" y="563.5" width="188" height="1" fill="white" fill-opacity="0.2" /><rect x="3570" y="510.5" width="188" height="1" fill="white" fill-opacity="0.2" /><rect x="3570" y="457.5" width="188" height="1" fill="white" fill-opacity="0.5" /><text x="3768" y="457.5" font-size="14" fill="white" font-family="monospace" dominant-baseline="initial">63</text><rect x="3570" y="404.5" width="188" height="1" fill="white" fill-opacity="0.2" /><rect x="3570" y="352.0" width="188" height="1" fill="white" fill-opacity="0.2" /><rect x="3570" y="299.0" width="188" height="1" fill="white" fill-opacity="0.2" /><rect x="3570" y="246.0" width="188" height="1" fill="white" fill-opacity="0.5" /><text x="3768" y="246.0" font-size="14" fill="white" font-family="monospace" dominant-baseline="initial">64</text><rect x="3570" y="193.0" width="188" height="1" fill="white" fill-opacity="0.2" /><rect x="3570" y="140.0" width="188" height="1" fill="white" fill-opacity="0.2" /><rect x="3570" y="87.0" width="188" height="1" fill="white" fill-opacity="0.2" /><rect x="3570" y="34.0" width="188" height="1" fill="white" fill-opacity="0.5" /><text x="3768" y="34.0" font-size="14" fill="white" font-family="monospace" dominant-baseline="initial">65</text><rect x="3808" y="35.0" width="188" height="847.0" fill="black" /><rect x="3808" y="881.0" width="188" height="1" fill="white" fill-opacity="0.5" /><text x="4006" y="881.0" font-size="14" fill="white" font-family="monospace" dominant-baseline="initial">65</text><rect x="3808" y="828.0" width="188" height="1" fill="white" fill-opacity="0.2" /><rect x="3808" y="775.5" width="188" height="1" fill="white" fill-opacity="0.2" /><rect x="3808" y="722.5" width="188" height="1" fill="white" fill-opacity="0.2" /><rect x="3808" y="669.5" width="188" height="1" fill="white" fill-opacity="0.5" /><text x="4006" y="669.5" font-size="14" fill="white" font-family="monospace" dominant-baseline="initial">66</text><rect x="3808" y="616.5" width="188" height="1" fill="white" fill-opacity="0.2" /><rect x="3808" y="563.5" width="188" height="1" fill="white" fill-opacity="0.2" /><rect x="3808" y="510.5" width="188" height="1" fill="white" fill-opacity="0.2" /><rect x="3808" y="457.5" width="188" height="1" fill="white" fill-opacity="0.5" /><text x="4006" y="457.5" font-size="14" fill="white" font-family="monospace" dominant-baseline="initial">67</text><rect x="3808" y="404.5" width="188" height="1" fill="white" fill-opacity="0.2" /><rect x="3808" y="351.5" width="188" height="1" fill="white" fill-opacity="0.2" /><rect x="3808" y="299.0" width="188" height="1" fill="white" fill-opacity="0.2" /><rect x="3808" y="246.0" width="188" height="1" fill="white" fill-opacity="0.5" /><text x="4006" y="246.0" font-size="14" fill="white" font-family="monospace" dominant-baseline="initial">68</text><rect x="3808" y="193.0" width="188" height="1" fill="white" fill-opacity="0.2" /><rect x="3808" y="140.0" width="188" height="1" fill="white" fill-opacity="0.2" /><rect x="3808" y="87.0" width="188" height="1" fill="white" fill-opacity="0.2" /><rect x="3808" y="34.0" width="188" height="1" fill="white" fill-opacity="0.5" /><text x="4006" y="34.0" font-size="14" fill="white" font-family="monospace" dominant-baseline="initial">69</text><rect x="3808" y="881.2000000000007" width="188" height="1" fill="aqua" fill-opacity="0.75" /><text x="3808" y="877.2000000000007" font-size="14" fill="aqua" fill-opacity="0.75" font-family="monospace">Outro</text><rect x="4046" y="35.0" width="188" height="847.0" fill="black" /><rect x="4046" y="881.0" width="188" height="1" fill="white" fill-opacity="0.5" /><text x="4244" y="881.0" font-size="14" fill="white" font-family="monospace" dominant-baseline="initial">69</text><rect x="4046" y="828.0" width="188" height="1" fill="white" fill-opacity="0.2" /><rect x="4046" y="775.0" width="188" height="1" fill="white" fill-opacity="0.2" /><rect x="4046" y="722.5" width="188" height="1" fill="white" fill-opacity="0.2" /><rect x="4046" y="669.5" width="188" height="1" fill="white" fill-opacity="0.5" /><text x="4244" y="669.5" font-size="14" fill="white" font-family="monospace" dominant-baseline="initial">70</text><rect x="4046" y="616.5" width="188" height="1" fill="white" fill-opacity="0.2" /><rect x="4046" y="563.5" width="188" height="1" fill="white" fill-opacity="0.2" /><rect x="4046" y="510.5" width="188" height="1" fill="white" fill-opacity="0.2" /><rect x="4046" y="457.5" width="188" height="1" fill="white" fill-opacity="0.5" /><text x="4244" y="457.5" font-size="14" fill="white" font-family="monospace" dominant-baseline="initial">71</text><rect x="4046" y="404.5" width="188" height="1" fill="white" fill-opacity="0.2" /><rect x="4046" y="351.5" width="188" height="1" fill="white" fill-opacity="0.2" /><rect x="4046" y="298.5" width="188" height="1" fill="white" fill-opacity="0.2" /><rect x="4046" y="246.0" width="188" height="1" fill="white" fill-opacity="0.5" /><text x="4244" y="246.0" font-size="14" fill="white" font-family="monospace" dominant-baseline="initial">72</text><rect x="4046" y="193.0" width="188" height="1" fill="white" fill-opacity="0.2" /><rect x="4046" y="140.0" width="188" height="1" fill="white" fill-opacity="0.2" /><rect x="4046" y="87.0" width="188" height="1" fill="white" fill-opacity="0.2" /><rect x="4046" y="34.0" width="188" height="1" fill="white" fill-opacity="0.5" /><text x="4244" y="34.0" font-size="14" fill="white" font-family="monospace" dominant-baseline="initial">73</text><rect x="4284" y="401.5" width="188" height="480.5" fill="black" /><rect x="4284" y="881.0" width="188" height="1" fill="white" fill-opacity="0.5" /><text x="4482" y="881.0" font-size="14" fill="white" font-family="monospace" dominant-baseline="initial">73</text></svg>