<?xml version="1.0" encoding="UTF-8"?><svg xmlns="http://www.w3.org/2000/svg" xmlns:xlink="http://www.w3.org/1999/xlink"     width="2856" height="1057.5" viewBox="0 0 2856 1057.5"><defs></defs><rect x="0" y="14.0" width="188" height="1043.5" fill="black" /><rect x="0" y="1056.5" width="188" height="1" fill="white" fill-opacity="0.5" /><text x="198" y="1056.5" font-size="14" fill="white" font-family="monospace" dominant-baseline="initial">1</text><rect x="0" y="991.5" width="188" height="1" fill="white" fill-opacity="0.2" /><rect x="0" y="926.0" width="188" height="1" fill="white" fill-opacity="0.2" /><rect x="0" y="861.0" width="188" height="1" fill="white" fill-opacity="0.2" /><rect x="0" y="795.5" width="188" height="1" fill="white" fill-opacity="0.5" /><text x="198" y="795.5" font-size="14" fill="white" font-family="monospace" dominant-baseline="initial">2</text><rect x="0" y="730.5" width="188" height="1" fill="white" fill-opacity="0.2" /><rect x="0" y="665.0" width="188" height="1" fill="white" fill-opacity="0.2" /><rect x="0" y="600.0" width="188" height="1" fill="white" fill-opacity="0.2" /><rect x="0" y="535.0" width="188" height="1" fill="white" fill-opacity="0.5" /><text x="198" y="535.0" font-size="14" fill="white" font-family="monospace" dominant-baseline="initial">3</text><rect x="0" y="469.5" width="188" height="1" fill="white" fill-opacity="0.2" /><rect x="0" y="404.5" width="188" height="1" fill="white" fill-opacity="0.2" /><rect x="0" y="339.0" width="188" height="1" fill="white" fill-opacity="0.2" /><rect x="0" y="274.0" width="188" height="1" fill="white" fill-opacity="0.5" /><text x="198" y="274.0" font-size="14" fill="white" font-family="monospace" dominant-baseline="initial">4</text><rect x="0" y="208.5" width="188" height="1" fill="white" fill-opacity="0.2" /><rect x="0" y="143.5" width="188" height="1" fill="white" fill-opacity="0.2" /><rect x="0" y="78.0" width="188" height="1" fill="white" fill-opacity="0.2" /><rect x="0" y="13.0" width="188" height="1" fill="white" fill-opacity="0.5" /><text x="198" y="13.0" font-size="14" fill="white" font-family="monospace" dominant-baseline="initial">5</text><rect x="0" y="1056.5" width="188" height="1" fill="aqua" fill-opacity="0.75" /><text x="0" y="1052.5" font-size="14" fill="aqua" fill-opacity="0.75" font-family="monospace">Intro</text><rect x="0" y="1056.5" width="188" height="1" fill="lime" fill-opacity="0.75" /><text x="198" y="1043.5" font-size="14" fill="lime" font-family="monospace" dominant-baseline="initial">138</text><rect x="238" y="14.0" width="188" height="1043.5" fill="black" /><rect x="238" y="1056.5" width="188" height="1" fill="white" fill-opacity="0.5" /><text x="436" y="1056.5" font-size="14" fill="white" font-family="monospace" dominant-baseline="initial">5</text><rect x="238" y="991.5" width="188" height="1" fill="white" fill-opacity="0.2" /><rect x="238" y="926.0" width="188" height="1" fill="white" fill-opacity="0.2" /><rect x="238" y="861.0" width="188" height="1" fill="white" fill-opacity="0.2" /><rect x="238" y="795.5" width="188" height="1" fill="white" fill-opacity="0.5" /><text x="436" y="795.5" font-size="14" fill="white" font-family="monospace" dominant-baseline="initial">6</text><rect x="238" y="730.5" width="188" height="1" fill="white" fill-opacity="0.2" /><rect x="238" y="665.0" width="188" height="1" fill="white" fill-opacity="0.2" /><rect x="238" y="600.0" width="188" height="1" fill="white" fill-opacity="0.2" /><rect x="238" y="535.0" width="188" height="1" fill="white" fill-opacity="0.5" /><text x="436" y="535.0" font-size="14" fill="white" font-family="monospace" dominant-baseline="initial">7</text><rect x="238" y="469.5" width="188" height="1" fill="white" fill-opacity="0.2" /><rect x="238" y="404.5" width="188" height="1" fill="white" fill-opacity="0.2" /><rect x="238" y="339.0" width="188" height="1" fill="white" fill-opacity="0.2" /><rect x="238" y="274.0" width="188" height="1" fill="white" fill-opacity="0.5" /><text x="436" y="274.0" font-size="14" fill="white" font-family="monospace" dominant-baseline="initial">8</text><rect x="238" y="208.5" width="188" height="1" fill="white" fill-opacity="0.2" /><rect x="238" y="143.5" width="188" height="1" fill="white" fill-opacity="0.2" /><rect x="238" y="78.5" width="188" height="1" fill="white" fill-opacity="0.2" /><rect x="238" y="13.0" width="188" height="1" fill="white" fill-opacity="0.5" /><text x="436" y="13.0" font-size="14" fill="white" font-family="monospace" dominant-baseline="initial">9</text><rect x="476" y="14.0" width="188" height="1043.5" fill="black" /><rect x="476" y="1056.5" width="188" height="1" fill="white" fill-opacity="0.5" /><text x="674" y="1056.5" font-size="14" fill="white" font-family="monospace" dominant-baseline="initial">9</text><rect x="476" y="991.5" width="188" height="1" fill="white" fill-opacity="0.2" /><rect x="476" y="926.0" width="188" height="1" fill="white" fill-opacity="0.2" /><rect x="476" y="861.0" width="188" height="1" fill="white" fill-opacity="0.2" /><rect x="476" y="795.5" width="188" height="1" fill="white" fill-opacity="0.5" /><text x="674" y="795.5" font-size="14" fill="white" font-family="monospace" dominant-baseline="initial">10</text><rect x="476" y="730.5" width="188" height="1" fill="white" fill-opacity="0.2" /><rect x="476" y="665.0" width="188" height="1" fill="white" fill-opacity="0.2" /><rect x="476" y="600.0" width="188" height="1" fill="white" fill-opacity="0.2" /><rect x="476" y="535.0" width="188" height="1" fill="white" fill-opacity="0.5" /><text x="674" y="535.0" font-size="14" fill="white" font-family="monospace" dominant-baseline="initial">11</text><rect x="476" y="469.5" width="188" height="1" fill="white" fill-opacity="0.2" /><rect x="476" y="404.5" width="188" height="1" fill="white" fill-opacity="0.2" /><rect x="476" y="339.0" width="188" height="1" fill="white" fill-opacity="0.2" /><rect x="476" y="274.0" width="188" height="1" fill="white" fill-opacity="0.5" /><text x="674" y="274.0" font-size="14" fill="white" font-family="monospace" dominant-baseline="initial">12</text><rect x="476" y="208.5" width="188" height="1" fill="white" fill-opacity="0.2" /><rect x="476" y="143.5" width="188" height="1" fill="white" fill-opacity="0.2" /><rect x="476" y="78.5" width="188" height="1" fill="white" fill-opacity="0.2" /><rect x="476" y="13.0" width="188" height="1" fill="white" fill-opacity="0.5" /><text x="674" y="13.0" font-size="14" fill="white" font-family="monospace" dominant-baseline="initial">13</text><rect x="714" y="14.0" width="188" height="1043.5" fill="black" /><rect x="714" y="1056.5" width="188" height="1" fill="white" fill-opacity="0.5" /><text x="912" y="1056.5" font-size="14" fill="white" font-family="monospace" dominant-baseline="initial">13</text><rect x="714" y="991.5" width="188" height="1" fill="white" fill-opacity="0.2" /><rect x="714" y="926.0" width="188" height="1" fill="white" fill-opacity="0.2" /><rect x="714" y="861.0" width="188" height="1" fill="white" fill-opacity="0.2" /><rect x="714" y="795.5" width="188" height="1" fill="white" fill-opacity="0.5" /><text x="912" y="795.5" font-size="14" fill="white" font-family="monospace" dominant-baseline="initial">14</text><rect x="714" y="730.5" width="188" height="1" fill="white" fill-opacity="0.2" /><rect x="714" y="665.5" width="188" height="1" fill="white" fill-opacity="0.2" /><rect x="714" y="600.0" width="188" height="1" fill="white" fill-opacity="0.2" /><rect x="714" y="535.0" width="188" height="1" fill="white" fill-opacity="0.5" /><text x="912" y="535.0" font-size="14" fill="white" font-family="monospace" dominant-baseline="initial">15</text><rect x="714" y="469.5" width="188" height="1" fill="white" fill-opacity="0.2" /><rect x="714" y="404.5" width="188" height="1" fill="white" fill-opacity="0.2" /><rect x="714" y="339.0" width="188" height="1" fill="white" fill-opacity="0.2" /><rect x="714" y="274.0" width="188" height="1" fill="white" fill-opacity="0.5" /><text x="912" y="274.0" font-size="14" fill="white" font-family="monospace" dominant-baseline="initial">16</text><rect x="714" y="208.5" width="188" height="1" fill="white" fill-opacity="0.2" /><rect x="714" y="143.5" width="188" height="1" fill="white" fill-opacity="0.2" /><rect x="714" y="78.5" width="188" height="1" fill="white" fill-opacity="0.2" /><rect x="714" y="13.0" width="188" height="1" fill="white" fill-opacity="0.5" /><text x="912" y="13.0" font-size="14" fill="white" font-family="monospace" dominant-baseline="initial">17</text><rect x="714" y="534.8000000000002" width="188" height="1" fill="aqua" fill-opacity="0.75" /><text x="714" y="530.8000000000002" font-size="14" fill="aqua" fill-opacity="0.75" font-family="monospace">Phrase A</text><rect x="952" y="14.0" width="188" height="1043.5" fill="black" /><rect x="952" y="1056.5" width="188" height="1" fill="white" fill-opacity="0.5" /><text x="1150" y="1056.5" font-size="14" fill="white" font-family="monospace" dominant-baseline="initial">17</text><rect x="952" y="991.5" width="188" height="1" fill="white" fill-opacity="0.2" /><rect x="952" y="926.0" width="188" height="1" fill="white" fill-opacity="0.2" /><rect x="952" y="861.0" width="188" height="1" fill="white" fill-opacity="0.2" /><rect x="952" y="795.5" width="188" height="1" fill="white" fill-opacity="0.5" /><text x="1150" y="795.5" font-size="14" fill="white" font-family="monospace" dominant-baseline="initial">18</text><rect x="952" y="730.5" width="188" height="1" fill="white" fill-opacity="0.2" /><rect x="952" y="665.5" width="188" height="1" fill="white" fill-opacity="0.2" /><rect x="952" y="600.0" width="188" height="1" fill="white" fill-opacity="0.2" /><rect x="952" y="535.0" width="188" height="1" fill="white" fill-opacity="0.5" /><text x="1150" y="535.0" font-size="14" fill="white" font-family="monospace" dominant-baseline="initial">19</text><rect x="952" y="469.5" width="188" height="1" fill="white" fill-opacity="0.2" /><rect x="952" y="404.5" width="188" height="1" fill="white" fill-opacity="0.2" /><rect x="952" y="339.0" width="188" height="1" fill="white" fill-opacity="0.2" /><rect x="952" y="274.0" width="188" height="1" fill="white" fill-opacity="0.5" /><text x="1150" y="274.0" font-size="14" fill="white" font-family="monospace" dominant-baseline="initial">20</text><rect x="952" y="209.0" width="188" height="1" fill="white" fill-opacity="0.2" /><rect x="952" y="143.5" width="188" height="1" fill="white" fill-opacity="0.2" /><rect x="952" y="78.5" width="188" height="1" fill="white" fill-opacity="0.2" /><rect x="952" y="13.0" width="188" height="1" fill="white" fill-opacity="0.5" /><text x="1150" y="13.0" font-size="14" fill="white" font-family="monospace" dominant-baseline="initial">21</text><rect x="1190" y="14.0" width="188" height="1043.5" fill="black" /><rect x="1190" y="1056.5" width="188" height="1" fill="white" fill-opacity="0.5" /><text x="1388" y="1056.5" font-size="14" fill="white" font-family="monospace" dominant-baseline="initial">21</text><rect x="1190" y="991.5" width="188" height="1" fill="white" fill-opacity="0.2" /><rect x="1190" y="926.0" width="188" height="1" fill="white" fill-opacity="0.2" /><rect x="1190" y="861.0" width="188" height="1" fill="white" fill-opacity="0.2" /><rect x="1190" y="795.5" width="188" height="1" fill="white" fill-opacity="0.5" /><text x="1388" y="795.5" font-size="14" fill="white" font-family="monospace" dominant-baseline="initial">22</text><rect x="1190" y="730.5" width="188" height="1" fill="white" fill-opacity="0.2" /><rect x="1190" y="665.5" width="188" height="1" fill="white" fill-opacity="0.2" /><rect x="1190" y="600.0" width="188" height="1" fill="white" fill-opacity="0.2" /><rect x="1190" y="535.0" width="188" height="1" fill="white" fill-opacity="0.5" /><text x="1388" y="535.0" font-size="14" fill="white" font-family="monospace" dominant-baseline="initial">23</text><rect x="1190" y="469.5" width="188" height="1" fill="white" fill-opacity="0.2" /><rect x="1190" y="404.5" width="188" height="1" fill="white" fill-opacity="0.2" /><rect x="1190" y="339.0" width="188" height="1" fill="white" fill-opacity="0.2" /><rect x="1190" y="274.0" width="188" height="1" fill="white" fill-opacity="0.5" /><text x="1388" y="274.0" font-size="14" fill="white" font-family="monospace" dominant-baseline="initial">24</text><rect x="1190" y="209.0" width="188" height="1" fill="white" fill-opacity="0.2" /><rect x="1190" y="143.5" width="188" height="1" fill="white" fill-opacity="0.2" /><rect x="1190" y="78.5" width="188" height="1" fill="white" fill-opacity="0.2" /><rect x="1190" y="13.0" width="188" height="1" fill="white" fill-opacity="0.5" /><text x="1388" y="13.0" font-size="14" fill="white" font-family="monospace" dominant-baseline="initial">25</text><rect x="1190" y="534.8500000000004" width="188" height="1" fill="aqua" fill-opacity="0.75" /><text x="1190" y="530.8500000000004" font-size="14" fill="aqua" fill-opacity="0.75" font-family="monospace">Phrase B</text><rect x="1428" y="14.0" width="188" height="1043.5" fill="black" /><rect x="1428" y="1056.5" width="188" height="1" fill="white" fill-opacity="0.5" /><text x="1626" y="1056.5" font-size="14" fill="white" font-family="monospace" dominant-baseline="initial">25</text><rect x="1428" y="991.5" width="188" height="1" fill="white" fill-opacity="0.2" /><rect x="1428" y="926.0" width="188" height="1" fill="white" fill-opacity="0.2" /><rect x="1428" y="861.0" width="188" height="1" fill="white" fill-opacity="0.2" /><rect x="1428" y="796.0" width="188" height="1" fill="white" fill-opacity="0.5" /><text x="1626" y="796.0" font-size="14" fill="white" font-family="monospace" dominant-baseline="initial">26</text><rect x="1428" y="730.5" width="188" height="1" fill="white" fill-opacity="0.2" /><rect x="1428" y="665.5" width="188" height="1" fill="white" fill-opacity="0.2" /><rect x="1428" y="600.0" width="188" height="1" fill="white" fill-opacity="0.2" /><rect x="1428" y="535.0" width="188" height="1" fill="white" fill-opacity="0.5" /><text x="1626" y="535.0" font-size="14" fill="white" font-family="monospace" dominant-baseline="initial">27</text><rect x="1428" y="469.5" width="188" height="1" fill="white" fill-opacity="0.2" /><rect x="1428" y="404.5" width="188" height="1" fill="white" fill-opacity="0.2" /><rect x="1428" y="339.0" width="188" height="1" fill="white" fill-opacity="0.2" /><rect x="1428" y="274.0" width="188" height="1" fill="white" fill-opacity="0.5" /><text x="1626" y="274.0" font-size="14" fill="white" font-family="monospace" dominant-baseline="initial">28</text><rect x="1428" y="209.0" width="188" height="1" fill="white" fill-opacity="0.2" /><rect x="1428" y="143.5" width="188" height="1" fill="white" fill-opacity="0.2" /><rect x="1428" y="78.5" width="188" height="1" fill="white" fill-opacity="0.2" /><rect x="1428" y="13.0" width="188" height="1" fill="white" fill-opacity="0.5" /><text x="1626" y="13.0" font-size="14" fill="white" font-family="monospace" dominant-baseline="initial">29</text><rect x="1666" y="14.0" width="188" height="1043.5" fill="black" /><rect x="1666" y="1056.5" width="188" height="1" fill="white" fill-opacity="0.5" /><text x="1864" y="1056.5" font-size="14" fill="white" font-family="monospace" dominant-baseline="initial">29</text><rect x="1666" y="991.5" width="188" height="1" fill="white" fill-opacity="0.2" /><rect x="1666" y="926.0" width="188" height="1" fill="white" fill-opacity="0.2" /><rect x="1666" y="861.0" width="188" height="1" fill="white" fill-opacity="0.2" /><rect x="1666" y="796.0" width="188" height="1" fill="white" fill-opacity="0.5" /><text x="1864" y="796.0" font-size="14" fill="white" font-family="monospace" dominant-baseline="initial">30</text><rect x="1666" y="730.5" width="188" height="1" fill="white" fill-opacity="0.2" /><rect x="1666" y="665.5" width="188" height="1" fill="white" fill-opacity="0.2" /><rect x="1666" y="600.0" width="188" height="1" fill="white" fill-opacity="0.2" /><rect x="1666" y="535.0" width="188" height="1" fill="white" fill-opacity="0.5" /><text x="1864" y="535.0" font-size="14" fill="white" font-family="monospace" dominant-baseline="initial">31</text><rect x="1666" y="469.5" width="188" height="1" fill="white" fill-opacity="0.2" /><rect x="1666" y="404.5" width="188" height="1" fill="white" fill-opacity="0.2" /><rect x="1666" y="339.5" width="188" height="1" fill="white" fill-opacity="0.2" /><rect x="1666" y="274.0" width="188" height="1" fill="white" fill-opacity="0.5" /><text x="1864" y="274.0" font-size="14" fill="white" font-family="monospace" dominant-baseline="initial">32</text><rect x="1666" y="209.0" width="188" height="1" fill="white" fill-opacity="0.2" /><rect x="1666" y="143.5" width="188" height="1" fill="white" fill-opacity="0.2" /><rect x="1666" y="78.5" width="188" height="1" fill="white" fill-opacity="0.2" /><rect x="1666" y="13.0" width="188" height="1" fill="white" fill-opacity="0.5" /><text x="1864" y="13.0" font-size="14" fill="white" font-family="monospace" dominant-baseline="initial">33</text><rect x="1666" y="534.9000000000005" width="188" height="1" fill="aqua" fill-opacity="0.75" /><text x="1666" y="530.9000000000005" font-size="14" fill="aqua" fill-opacity="0.75" font-family="monospace">Special</text><rect x="1904" y="14.0" width="188" height="1043.5" fill="black" /><rect x="1904" y="1056.5" width="188" height="1" fill="white" fill-opacity="0.5" /><text x="2102" y="1056.5" font-size="14" fill="white" font-family="monospace" dominant-baseline="initial">33</text><rect x="1904" y="991.5" width="188" height="1" fill="white" fill-opacity="0.2" /><rect x="1904" y="926.5" width="188" height="1" fill="white" fill-opacity="0.2" /><rect x="1904" y="861.0" width="188" height="1" fill="white" fill-opacity="0.2" /><rect x="1904" y="796.0" width="188" height="1" fill="white" fill-opacity="0.5" /><text x="2102" y="796.0" font-size="14" fill="white" font-family="monospace" dominant-baseline="initial">34</text><rect x="1904" y="730.5" width="188" height="1" fill="white" fill-opacity="0.2" /><rect x="1904" y="665.5" width="188" height="1" fill="white" fill-opacity="0.2" /><rect x="1904" y="600.0" width="188" height="1" fill="white" fill-opacity="0.2" /><rect x="1904" y="535.0" width="188" height="1" fill="white" fill-opacity="0.5" /><text x="2102" y="535.0" font-size="14" fill="white" font-family="monospace" dominant-baseline="initial">35</text><rect x="1904" y="469.5" width="188" height="1" fill="white" fill-opacity="0.2" /><rect x="1904" y="404.5" width="188" height="1" fill="white" fill-opacity="0.2" /><rect x="1904" y="339.5" width="188" height="1" fill="white" fill-opacity="0.2" /><rect x="1904" y="274.0" width="188" height="1" fill="white" fill-opacity="0.5" /><text x="2102" y="274.0" font-size="14" fill="white" font-family="monospace" dominant-baseline="initial">36</text><rect x="1904" y="209.0" width="188" height="1" fill="white" fill-opacity="0.2" /><rect x="1904" y="143.5" width="188" height="1" fill="white" fill-opacity="0.2" /><rect x="1904" y="78.5" width="188" height="1" fill="white" fill-opacity="0.2" /><rect x="1904" y="13.0" width="188" height="1" fill="white" fill-opacity="0.5" /><text x="2102" y="13.0" font-size="14" fill="white" font-family="monospace" dominant-baseline="initial">37</text><rect x="2142" y="14.0" width="188" height="1043.5" fill="black" /><rect x="2142" y="1056.5" width="188" height="1" fill="white" fill-opacity="0.5" /><text x="2340" y="1056.5" font-size="14" fill="white" font-family="monospace" dominant-baseline="initial">37</text><rect x="2142" y="991.5" width="188" height="1" fill="white" fill-opacity="0.2" /><rect x="2142" y="926.5" width="188" height="1" fill="white" fill-opacity="0.2" /><rect x="2142" y="861.0" width="188" height="1" fill="white" fill-opacity="0.2" /><rect x="2142" y="796.0" width="188" height="1" fill="white" fill-opacity="0.5" /><text x="2340" y="796.0" font-size="14" fill="white" font-family="monospace" dominant-baseline="initial">38</text><rect x="2142" y="730.5" width="188" height="1" fill="white" fill-opacity="0.2" /><rect x="2142" y="665.5" width="188" height="1" fill="white" fill-opacity="0.2" /><rect x="2142" y="600.0" width="188" height="1" fill="white" fill-opacity="0.2" /><rect x="2142" y="535.0" width="188" height="1" fill="white" fill-opacity="0.5" /><text x="2340" y="535.0" font-size="14" fill="white" font-family="monospace" dominant-baseline="initial">39</text><rect x="2142" y="470.0" width="188" height="1" fill="white" fill-opacity="0.2" /><rect x="2142" y="404.5" width="188" height="1" fill="white" fill-opacity="0.2" /><rect x="2142" y="339.5" width="188" height="1" fill="white" fill-opacity="0.2" /><rect x="2142" y="274.0" width="188" height="1" fill="white" fill-opacity="0.5" /><text x="2340" y="274.0" font-size="14" fill="white" font-family="monospace" dominant-baseline="initial">40</text><rect x="2142" y="209.0" width="188" height="1" fill="white" fill-opacity="0.2" /><rect x="2142" y="143.5" width="188" height="1" fill="white" fill-opacity="0.2" /><rect x="2142" y="78.5" width="188" height="1" fill="white" fill-opacity="0.2" /><rect x="2142" y="13.0" width="188" height="1" fill="white" fill-opacity="0.5" /><text x="2340" y="13.0" font-size="14" fill="white" font-family="monospace" dominant-baseline="initial">41</text><rect x="2142" y="534.9500000000007" width="188" height="1" fill="aqua" fill-opacity="0.75" /><text x="2142" y="530.9500000000007" font-size="14" fill="aqua" fill-opacity="0.75" font-family="monospace">Solo</text><rect x="2380" y="14.5" width="188" height="1043.0" fill="black" /><rect x="2380" y="1056.5" width="188" height="1" fill="white" fill-opacity="0.5" /><text x="2578" y="1056.5" font-size="14" fill="white" font-family="monospace" dominant-baseline="initial">41</text><rect x="2380" y="991.5" width="188" height="1" fill="white" fill-opacity="0.2" /><rect x="2380" y="926.5" width="188" height="1" fill="white" fill-opacity="0.2" /><rect x="2380" y="861.0" width="188" height="1" fill="white" fill-opacity="0.2" /><rect x="2380" y="796.0" width="188" height="1" fill="white" fill-opacity="0.5" /><text x="2578" y="796.0" font-size="14" fill="white" font-family="monospace" dominant-baseline="initial">42</text><rect x="2380" y="730.5" width="188" height="1" fill="white" fill-opacity="0.2" /><rect x="2380" y="665.5" width="188" height="1" fill="white" fill-opacity="0.2" /><rect x="2380" y="600.0" width="188" height="1" fill="white" fill-opacity="0.2" /><rect x="2380" y="535.0" width="188" height="1" fill="white" fill-opacity="0.5" /><text x="2578" y="535.0" font-size="14" fill="white" font-family="monospace" dominant-baseline="initial">43</text><rect x="2380" y="470.0" width="188" height="1" fill="white" fill-opacity="0.2" /><rect x="2380" y="404.5" width="188" height="1" fill="white" fill-opacity="0.2" /><rect x="2380" y="339.5" width="188" height="1" fill="white" fill-opacity="0.2" /><rect x="2380" y="274.0" width="188" height="1" fill="white" fill-opacity="0.5" /><text x="2578" y="274.0" font-size="14" fill="white" font-family="monospace" dominant-baseline="initial">44</text><rect x="2380" y="209.0" width="188" height="1" fill="white" fill-opacity="0.2" /><rect x="2380" y="143.5" width="188" height="1" fill="white" fill-opacity="0.2" /><rect x="2380" y="78.5" width="188" height="1" fill="white" fill-opacity="0.2" /><rect x="2380" y="13.5" width="188" height="1" fill="white" fill-opacity="0.5" /><text x="2578" y="13.5" font-size="14" fill="white" font-family="monospace" dominant-baseline="initial">45</text><rect x="2618" y="135.5" width="188" height="922.0" fill="black" /><rect x="2618" y="1056.5" width="188" height="1" fill="white" fill-opacity="0.5" /><text x="2816" y="1056.5" font-size="14" fill="white" font-family="monospace" dominant-baseline="initial">45</text><rect x="2618" y="991.0" width="188" height="1" fill="white" fill-opacity="0.2" /><rect x="2618" y="926.0" width="188" height="1" fill="white" fill-opacity="0.2" /><rect x="2618" y="860.5" width="188" height="1" fill="white" fill-opacity="0.2" /><rect x="2618" y="795.5" width="188" height="1" fill="white" fill-opacity="0.5" /><text x="2816" y="795.5" font-size="14" fill="white" font-family="monospace" dominant-baseline="initial">46</text><rect x="2618" y="730.0" width="188" height="1" fill="white" fill-opacity="0.2" /><rect x="2618" y="665.0" width="188" height="1" fill="white" fill-opacity="0.2" /><rect x="2618" y="599.5" width="188" height="1" fill="white" fill-opacity="0.2" /><rect x="2618" y="534.5" width="188" height="1" fill="white" fill-opacity="0.5" /><text x="2816" y="534.5" font-size="14" fill="white" font-family="monospace" dominant-baseline="initial">47</text><rect x="2618" y="469.5" width="188" height="1" fill="white" fill-opacity="0.2" /><rect x="2618" y="404.0" width="188" height="1" fill="white" fill-opacity="0.2" /><rect x="2618" y="339.0" width="188" height="1" fill="white" fill-opacity="0.2" /><rect x="2618" y="273.5" width="188" height="1" fill="white" fill-opacity="0.5" /><text x="2816" y="273.5" font-size="14" fill="white" font-family="monospace" dominant-baseline="initial">48</text></svg>