<?xml version="1.0" encoding="UTF-8"?><svg xmlns="http://www.w3.org/2000/svg" xmlns:xlink="http://www.w3.org/1999/xlink"     width="1368" height="1057.5" viewBox="0 0 1368 1057.5"><defs></defs><rect x="52.0" y="456.5" width="12.0" height="3" fill="#ff83f4" stroke="#d002bc" /><rect x="0" y="456.5" width="64" height="3" fill="#ff72e7" stroke="#7c7c7c" /><rect x="26.0" y="489.0" width="12.0" height="3" fill="#80c9ff" stroke="#0b6cba" /><rect x="39.0" y="489.0" width="12.0" height="3" fill="#fff874" stroke="#eb9c26" /><rect x="39.0" y="554.5" width="12.0" height="3" fill="#fff874" stroke="#eb9c26" /><rect x="26.0" y="587.0" width="12.0" height="3" fill="#80c9ff" stroke="#0b6cba" /><rect x="39.0" y="587.0" width="12.0" height="3" fill="#fff874" stroke="#eb9c26" /><rect x="52.0" y="619.5" width="12.0" height="3" fill="#ff83f4" stroke="#d002bc" /><rect x="0" y="619.5" width="64" height="3" fill="#ff72e7" stroke="#7c7c7c" /><rect x="52.0" y="636.0" width="12.0" height="3" fill="#ff83f4" stroke="#d002bc" /><rect x="0" y="636.0" width="64" height="3" fill="#ff72e7" stroke="#7c7c7c" /><rect x="13.0" y="652.0" width="12.0" height="3" fill="#35df39" stroke="#03aa10" /><rect x="26.0" y="652.0" width="12.0" height="3" fill="#80c9ff" stroke="#0b6cba" /><rect x="13.0" y="685.0" width="12.0" height="3" fill="#35df39" stroke="#03aa10" /><rect x="52.0" y="717.5" width="12.0" height="3" fill="#ff83f4" stroke="#d002bc" /><rect x="0" y="717.5" width="64" height="3" fill="#ff72e7" stroke="#7c7c7c" /><rect x="0.0" y="750.0" width="12.0" height="3" fill="#ff3c3c" stroke="#c71f1f" /><rect x="13.0" y="750.0" width="12.0" height="3" fill="#35df39" stroke="#03aa10" /><rect x="13.0" y="815.0" width="12.0" height="3" fill="#35df39" stroke="#03aa10" /><rect x="0.0" y="848.0" width="12.0" height="3" fill="#ff3c3c" stroke="#c71f1f" /><rect x="13.0" y="848.0" width="12.0" height="3" fill="#35df39" stroke="#03aa10" /><rect x="0.0" y="880.5" width="12.0" height="3" fill="#ff3c3c" stroke="#c71f1f" /><rect x="0.0" y="896.5" width="12.0" height="3" fill="#ff3c3c" stroke="#c71f1f" /><rect x="0.0" y="913.0" width="12.0" height="3" fill="#ff3c3c" stroke="#c71f1f" /><rect x="26.0" y="913.0" width="12.0" height="3" fill="#80c9ff" stroke="#0b6cba" /><rect x="0.0" y="945.5" width="12.0" height="3" fill="#ff3c3c" stroke="#c71f1f" /><rect x="13.0" y="945.5" width="12.0" height="3" fill="#35df39" stroke="#03aa10" /><rect x="13.0" y="978.5" width="12.0" height="3" fill="#35df39" stroke="#03aa10" /><rect x="26.0" y="978.5" width="12.0" height="3" fill="#80c9ff" stroke="#0b6cba" /><rect x="52.0" y="1011.0" width="12.0" height="3" fill="#ff83f4" stroke="#d002bc" /><rect x="0" y="1011.0" width="64" height="3" fill="#ff72e7" stroke="#7c7c7c" /><rect x="52.0" y="1027.0" width="12.0" height="3" fill="#ff83f4" stroke="#d002bc" /><rect x="0" y="1027.0" width="64" height="3" fill="#ff72e7" stroke="#7c7c7c" /><rect x="140.0" y="0.0" width="12.0" height="3" fill="#80c9ff" stroke="#0b6cba" /><rect x="153.0" y="0.0" width="12.0" height="3" fill="#fff874" stroke="#eb9c26" /><rect x="140.0" y="65.0" width="12.0" height="3" fill="#80c9ff" stroke="#0b6cba" /><rect x="153.0" y="65.0" width="12.0" height="3" fill="#fff874" stroke="#eb9c26" /><rect x="166.0" y="98.0" width="12.0" height="3" fill="#ff83f4" stroke="#d002bc" /><rect x="114" y="98.0" width="64" height="3" fill="#ff72e7" stroke="#7c7c7c" /><rect x="166.0" y="114.0" width="12.0" height="3" fill="#ff83f4" stroke="#d002bc" /><rect x="114" y="114.0" width="64" height="3" fill="#ff72e7" stroke="#7c7c7c" /><rect x="127.0" y="130.5" width="12.0" height="3" fill="#35df39" stroke="#03aa10" /><rect x="140.0" y="130.5" width="12.0" height="3" fill="#80c9ff" stroke="#0b6cba" /><rect x="114.0" y="163.0" width="12.0" height="3" fill="#ff3c3c" stroke="#c71f1f" /><rect x="127.0" y="163.0" width="12.0" height="3" fill="#35df39" stroke="#03aa10" /><rect x="140.0" y="195.5" width="12.0" height="3" fill="#80c9ff" stroke="#0b6cba" /><rect x="127.0" y="228.0" width="12.0" height="3" fill="#35df39" stroke="#03aa10" /><rect x="153.0" y="228.0" width="12.0" height="3" fill="#fff874" stroke="#eb9c26" /><rect x="140.0" y="293.5" width="12.0" height="3" fill="#80c9ff" stroke="#0b6cba" /><rect x="153.0" y="293.5" width="12.0" height="3" fill="#fff874" stroke="#eb9c26" /><rect x="127.0" y="326.0" width="12.0" height="3" fill="#35df39" stroke="#03aa10" /><rect x="153.0" y="326.0" width="12.0" height="3" fill="#fff874" stroke="#eb9c26" /><rect x="166.0" y="358.5" width="12.0" height="3" fill="#ff83f4" stroke="#d002bc" /><rect x="114" y="358.5" width="64" height="3" fill="#ff72e7" stroke="#7c7c7c" /><rect x="166.0" y="375.0" width="12.0" height="3" fill="#ff83f4" stroke="#d002bc" /><rect x="114" y="375.0" width="64" height="3" fill="#ff72e7" stroke="#7c7c7c" /><rect x="140.0" y="391.5" width="12.0" height="3" fill="#80c9ff" stroke="#0b6cba" /><rect x="153.0" y="391.5" width="12.0" height="3" fill="#fff874" stroke="#eb9c26" /><rect x="127.0" y="424.0" width="12.0" height="3" fill="#35df39" stroke="#03aa10" /><rect x="153.0" y="424.0" width="12.0" height="3" fill="#fff874" stroke="#eb9c26" /><rect x="166.0" y="489.0" width="12.0" height="3" fill="#ff83f4" stroke="#d002bc" /><rect x="114" y="489.0" width="64" height="3" fill="#ff72e7" stroke="#7c7c7c" /><rect x="166.0" y="505.5" width="12.0" height="3" fill="#ff83f4" stroke="#d002bc" /><rect x="114" y="505.5" width="64" height="3" fill="#ff72e7" stroke="#7c7c7c" /><rect x="140.0" y="521.5" width="12.0" height="3" fill="#80c9ff" stroke="#0b6cba" /><rect x="153.0" y="521.5" width="12.0" height="3" fill="#fff874" stroke="#eb9c26" /><rect x="140.0" y="587.0" width="12.0" height="3" fill="#80c9ff" stroke="#0b6cba" /><rect x="153.0" y="587.0" width="12.0" height="3" fill="#fff874" stroke="#eb9c26" /><rect x="166.0" y="619.5" width="12.0" height="3" fill="#ff83f4" stroke="#d002bc" /><rect x="114" y="619.5" width="64" height="3" fill="#ff72e7" stroke="#7c7c7c" /><rect x="166.0" y="636.0" width="12.0" height="3" fill="#ff83f4" stroke="#d002bc" /><rect x="114" y="636.0" width="64" height="3" fill="#ff72e7" stroke="#7c7c7c" /><rect x="127.0" y="652.0" width="12.0" height="3" fill="#35df39" stroke="#03aa10" /><rect x="140.0" y="652.0" width="12.0" height="3" fill="#80c9ff" stroke="#0b6cba" /><rect x="127.0" y="685.0" width="12.0" height="3" fill="#35df39" stroke="#03aa10" /><rect x="166.0" y="717.5" width="12.0" height="3" fill="#ff83f4" stroke="#d002bc" /><rect x="114" y="717.5" width="64" height="3" fill="#ff72e7" stroke="#7c7c7c" /><rect x="114.0" y="750.0" width="12.0" height="3" fill="#ff3c3c" stroke="#c71f1f" /><rect x="127.0" y="750.0" width="12.0" height="3" fill="#35df39" stroke="#03aa10" /><rect x="127.0" y="815.0" width="12.0" height="3" fill="#35df39" stroke="#03aa10" /><rect x="114.0" y="848.0" width="12.0" height="3" fill="#ff3c3c" stroke="#c71f1f" /><rect x="127.0" y="848.0" width="12.0" height="3" fill="#35df39" stroke="#03aa10" /><rect x="114.0" y="880.5" width="12.0" height="3" fill="#ff3c3c" stroke="#c71f1f" /><rect x="114.0" y="896.5" width="12.0" height="3" fill="#ff3c3c" stroke="#c71f1f" /><rect x="114.0" y="913.0" width="12.0" height="3" fill="#ff3c3c" stroke="#c71f1f" /><rect x="140.0" y="913.0" width="12.0" height="3" fill="#80c9ff" stroke="#0b6cba" /><rect x="114.0" y="945.5" width="12.0" height="3" fill="#ff3c3c" stroke="#c71f1f" /><rect x="127.0" y="945.5" width="12.0" height="3" fill="#35df39" stroke="#03aa10" /><rect x="166.0" y="1011.0" width="12.0" height="3" fill="#ff83f4" stroke="#d002bc" /><rect x="114" y="1011.0" width="64" height="3" fill="#ff72e7" stroke="#7c7c7c" /><rect x="166.0" y="1027.0" width="12.0" height="3" fill="#ff83f4" stroke="#d002bc" /><rect x="114" y="1027.0" width="64" height="3" fill="#ff72e7" stroke="#7c7c7c" /><rect x="254.0" y="0.0" width="12.0" height="3" fill="#80c9ff" stroke="#0b6cba" /><rect x="267.0" y="0.0" width="12.0" height="3" fill="#fff874" stroke="#eb9c26" /><rect x="254.0" y="65.0" width="12.0" height="3" fill="#80c9ff" stroke="#0b6cba" /><rect x="267.0" y="65.0" width="12.0" height="3" fill="#fff874" stroke="#eb9c26" /><rect x="280.0" y="98.0" width="12.0" height="3" fill="#ff83f4" stroke="#d002bc" /><rect x="228" y="98.0" width="64" height="3" fill="#ff72e7" stroke="#7c7c7c" /><rect x="280.0" y="114.0" width="12.0" height="3" fill="#ff83f4" stroke="#d002bc" /><rect x="228" y="114.0" width="64" height="3" fill="#ff72e7" stroke="#7c7c7c" /><rect x="241.0" y="130.5" width="12.0" height="3" fill="#35df39" stroke="#03aa10" /><rect x="254.0" y="130.5" width="12.0" height="3" fill="#80c9ff" stroke="#0b6cba" /><rect x="228.0" y="163.0" width="12.0" height="3" fill="#ff3c3c" stroke="#c71f1f" /><rect x="241.0" y="163.0" width="12.0" height="3" fill="#35df39" stroke="#03aa10" /><rect x="254.0" y="195.5" width="12.0" height="3" fill="#80c9ff" stroke="#0b6cba" /><rect x="241.0" y="228.0" width="12.0" height="3" fill="#35df39" stroke="#03aa10" /><rect x="267.0" y="228.0" width="12.0" height="3" fill="#fff874" stroke="#eb9c26" /><rect x="254.0" y="293.5" width="12.0" height="3" fill="#80c9ff" stroke="#0b6cba" /><rect x="267.0" y="293.5" width="12.0" height="3" fill="#fff874" stroke="#eb9c26" /><rect x="241.0" y="326.0" width="12.0" height="3" fill="#35df39" stroke="#03aa10" /><rect x="267.0" y="326.0" width="12.0" height="3" fill="#fff874" stroke="#eb9c26" /><rect x="280.0" y="358.5" width="12.0" height="3" fill="#ff83f4" stroke="#d002bc" /><rect x="228" y="358.5" width="64" height="3" fill="#ff72e7" stroke="#7c7c7c" /><rect x="280.0" y="375.0" width="12.0" height="3" fill="#ff83f4" stroke="#d002bc" /><rect x="228" y="375.0" width="64" height="3" fill="#ff72e7" stroke="#7c7c7c" /><rect x="254.0" y="391.5" width="12.0" height="3" fill="#80c9ff" stroke="#0b6cba" /><rect x="267.0" y="391.5" width="12.0" height="3" fill="#fff874" stroke="#eb9c26" /><rect x="241.0" y="424.0" width="12.0" height="3" fill="#35df39" stroke="#03aa10" /><rect x="267.0" y="424.0" width="12.0" height="3" fill="#fff874" stroke="#eb9c26" /><rect x="280.0" y="489.0" width="12.0" height="3" fill="#ff83f4" stroke="#d002bc" /><rect x="228" y="489.0" width="64" height="3" fill="#ff72e7" stroke="#7c7c7c" /><rect x="280.0" y="505.5" width="12.0" height="3" fill="#ff83f4" stroke="#d002bc" /><rect x="228" y="505.5" width="64" height="3" fill="#ff72e7" stroke="#7c7c7c" /><rect x="228.0" y="521.5" width="12.0" height="3" fill="#ff3c3c" stroke="#c71f1f" /><rect x="241.0" y="521.5" width="12.0" height="3" fill="#35df39" stroke="#03aa10" /><rect x="228.0" y="587.0" width="12.0" height="3" fill="#ff3c3c" stroke="#c71f1f" /><rect x="241.0" y="619.5" width="12.0" height="3" fill="#35df39" stroke="#03aa10" /><rect x="254.0" y="619.5" width="12.0" height="3" fill="#80c9ff" stroke="#0b6cba" /><rect x="228.0" y="652.0" width="12.0" height="3" fill="#ff3c3c" stroke="#c71f1f" /><rect x="228.0" y="684.5" width="12.0" height="3" fill="#ff3c3c" stroke="#c71f1f" /><rect x="241.0" y="684.5" width="12.0" height="3" fill="#35df39" stroke="#03aa10" /><rect x="228.0" y="717.5" width="12.0" height="3" fill="#ff3c3c" stroke="#c71f1f" /><rect x="228.0" y="750.0" width="12.0" height="88.2" fill="#ff3c3c" stroke="#c71f1f" /><rect x="254.0" y="750.0" width="12.0" height="88.2" fill="#80c9ff" stroke="#0b6cba" /><rect x="280.0" y="848.0" width="12.0" height="3" fill="#ff83f4" stroke="#d002bc" /><rect x="228" y="848.0" width="64" height="3" fill="#ff72e7" stroke="#7c7c7c" /><rect x="241.0" y="880.5" width="12.0" height="3" fill="#35df39" stroke="#03aa10" /><rect x="267.0" y="880.5" width="12.0" height="3" fill="#fff874" stroke="#eb9c26" /><rect x="254.0" y="945.5" width="12.0" height="3" fill="#80c9ff" stroke="#0b6cba" /><rect x="267.0" y="945.5" width="12.0" height="3" fill="#fff874" stroke="#eb9c26" /><rect x="241.0" y="978.0" width="12.0" height="3" fill="#35df39" stroke="#03aa10" /><rect x="267.0" y="978.0" width="12.0" height="3" fill="#fff874" stroke="#eb9c26" /><rect x="228.0" y="1011.0" width="12.0" height="3" fill="#ff3c3c" stroke="#c71f1f" /><rect x="228.0" y="1027.0" width="12.0" height="3" fill="#ff3c3c" stroke="#c71f1f" /><rect x="342.0" y="0.0" width="12.0" height="3" fill="#ff3c3c" stroke="#c71f1f" /><rect x="355.0" y="0.0" width="12.0" height="3" fill="#35df39" stroke="#03aa10" /><rect x="342.0" y="65.0" width="12.0" height="3" fill="#ff3c3c" stroke="#c71f1f" /><rect x="355.0" y="98.0" width="12.0" height="3" fill="#35df39" stroke="#03aa10" /><rect x="368.0" y="98.0" width="12.0" height="3" fill="#80c9ff" stroke="#0b6cba" /><rect x="342.0" y="130.5" width="12.0" height="3" fill="#ff3c3c" stroke="#c71f1f" /><rect x="342.0" y="163.0" width="12.0" height="3" fill="#ff3c3c" stroke="#c71f1f" /><rect x="355.0" y="163.0" width="12.0" height="3" fill="#35df39" stroke="#03aa10" /><rect x="342.0" y="195.5" width="12.0" height="3" fill="#ff3c3c" stroke="#c71f1f" /><rect x="342.0" y="228.0" width="12.0" height="88.2" fill="#ff3c3c" stroke="#c71f1f" /><rect x="368.0" y="228.0" width="12.0" height="88.2" fill="#80c9ff" stroke="#0b6cba" /><rect x="394.0" y="326.0" width="12.0" height="3" fill="#ff83f4" stroke="#d002bc" /><rect x="342" y="326.0" width="64" height="3" fill="#ff72e7" stroke="#7c7c7c" /><rect x="355.0" y="358.5" width="12.0" height="3" fill="#35df39" stroke="#03aa10" /><rect x="381.0" y="358.5" width="12.0" height="3" fill="#fff874" stroke="#eb9c26" /><rect x="368.0" y="424.0" width="12.0" height="3" fill="#80c9ff" stroke="#0b6cba" /><rect x="381.0" y="424.0" width="12.0" height="3" fill="#fff874" stroke="#eb9c26" /><rect x="355.0" y="456.5" width="12.0" height="3" fill="#35df39" stroke="#03aa10" /><rect x="381.0" y="456.5" width="12.0" height="3" fill="#fff874" stroke="#eb9c26" /><rect x="342.0" y="489.0" width="12.0" height="3" fill="#ff3c3c" stroke="#c71f1f" /><rect x="342.0" y="505.5" width="12.0" height="3" fill="#ff3c3c" stroke="#c71f1f" /><rect x="355.0" y="521.5" width="12.0" height="3" fill="#35df39" stroke="#03aa10" /><rect x="368.0" y="521.5" width="12.0" height="3" fill="#80c9ff" stroke="#0b6cba" /><rect x="342.0" y="554.5" width="12.0" height="3" fill="#ff3c3c" stroke="#c71f1f" /><rect x="355.0" y="587.0" width="12.0" height="3" fill="#35df39" stroke="#03aa10" /><rect x="342.0" y="619.5" width="12.0" height="3" fill="#ff3c3c" stroke="#c71f1f" /><rect x="355.0" y="636.0" width="12.0" height="3" fill="#35df39" stroke="#03aa10" /><rect x="368.0" y="636.0" width="12.0" height="3" fill="#80c9ff" stroke="#0b6cba" /><rect x="355.0" y="684.5" width="12.0" height="3" fill="#35df39" stroke="#03aa10" /><rect x="342.0" y="717.5" width="12.0" height="3" fill="#ff3c3c" stroke="#c71f1f" /><rect x="355.0" y="750.0" width="12.0" height="3" fill="#35df39" stroke="#03aa10" /><rect x="381.0" y="750.0" width="12.0" height="3" fill="#fff874" stroke="#eb9c26" /><rect x="355.0" y="815.0" width="12.0" height="3" fill="#35df39" stroke="#03aa10" /><rect x="368.0" y="848.0" width="12.0" height="3" fill="#80c9ff" stroke="#0b6cba" /><rect x="355.0" y="880.5" width="12.0" height="3" fill="#35df39" stroke="#03aa10" /><rect x="368.0" y="896.5" width="12.0" height="3" fill="#80c9ff" stroke="#0b6cba" /><rect x="381.0" y="896.5" width="12.0" height="3" fill="#fff874" stroke="#eb9c26" /><rect x="368.0" y="945.5" width="12.0" height="3" fill="#80c9ff" stroke="#0b6cba" /><rect x="355.0" y="978.0" width="12.0" height="3" fill="#35df39" stroke="#03aa10" /><rect x="355.0" y="1011.0" width="12.0" height="3" fill="#35df39" stroke="#03aa10" /><rect x="368.0" y="1011.0" width="12.0" height="3" fill="#80c9ff" stroke="#0b6cba" /><rect x="456.0" y="32.5" width="12.0" height="3" fill="#ff3c3c" stroke="#c71f1f" /><rect x="469.0" y="65.0" width="12.0" height="3" fill="#35df39" stroke="#03aa10" /><rect x="456.0" y="97.5" width="12.0" height="3" fill="#ff3c3c" stroke="#c71f1f" /><rect x="469.0" y="114.0" width="12.0" height="3" fill="#35df39" stroke="#03aa10" /><rect x="482.0" y="114.0" width="12.0" height="3" fill="#80c9ff" stroke="#0b6cba" /><rect x="469.0" y="163.0" width="12.0" height="3" fill="#35df39" stroke="#03aa10" /><rect x="456.0" y="195.5" width="12.0" height="3" fill="#ff3c3c" stroke="#c71f1f" /><rect x="456.0" y="228.0" width="12.0" height="3" fill="#ff3c3c" stroke="#c71f1f" /><rect x="469.0" y="228.0" width="12.0" height="3" fill="#35df39" stroke="#03aa10" /><rect x="482.0" y="261.0" width="12.0" height="3" fill="#80c9ff" stroke="#0b6cba" /><rect x="495.0" y="293.5" width="12.0" height="3" fill="#fff874" stroke="#eb9c26" /><rect x="482.0" y="326.0" width="12.0" height="3" fill="#80c9ff" stroke="#0b6cba" /><rect x="508.0" y="326.0" width="12.0" height="3" fill="#ff83f4" stroke="#d002bc" /><rect x="482.0" y="358.5" width="12.0" height="3" fill="#80c9ff" stroke="#0b6cba" /><rect x="508.0" y="358.5" width="12.0" height="3" fill="#ff83f4" stroke="#d002bc" /><rect x="482.0" y="375.0" width="12.0" height="3" fill="#80c9ff" stroke="#0b6cba" /><rect x="508.0" y="375.0" width="12.0" height="3" fill="#ff83f4" stroke="#d002bc" /><rect x="482.0" y="391.0" width="12.0" height="3" fill="#80c9ff" stroke="#0b6cba" /><rect x="495.0" y="391.0" width="12.0" height="3" fill="#fff874" stroke="#eb9c26" /><rect x="482.0" y="424.0" width="12.0" height="3" fill="#80c9ff" stroke="#0b6cba" /><rect x="508.0" y="424.0" width="12.0" height="3" fill="#ff83f4" stroke="#d002bc" /><rect x="508.0" y="489.0" width="12.0" height="3" fill="#ff83f4" stroke="#d002bc" /><rect x="456" y="489.0" width="64" height="3" fill="#ff72e7" stroke="#7c7c7c" /><rect x="508.0" y="505.5" width="12.0" height="3" fill="#ff83f4" stroke="#d002bc" /><rect x="456" y="505.5" width="64" height="3" fill="#ff72e7" stroke="#7c7c7c" /><rect x="469.0" y="521.5" width="12.0" height="3" fill="#35df39" stroke="#03aa10" /><rect x="482.0" y="521.5" width="12.0" height="3" fill="#80c9ff" stroke="#0b6cba" /><rect x="456.0" y="554.5" width="12.0" height="3" fill="#ff3c3c" stroke="#c71f1f" /><rect x="469.0" y="587.0" width="12.0" height="3" fill="#35df39" stroke="#03aa10" /><rect x="456.0" y="619.5" width="12.0" height="3" fill="#ff3c3c" stroke="#c71f1f" /><rect x="469.0" y="636.0" width="12.0" height="3" fill="#35df39" stroke="#03aa10" /><rect x="482.0" y="636.0" width="12.0" height="3" fill="#80c9ff" stroke="#0b6cba" /><rect x="469.0" y="684.5" width="12.0" height="3" fill="#35df39" stroke="#03aa10" /><rect x="456.0" y="717.5" width="12.0" height="3" fill="#ff3c3c" stroke="#c71f1f" /><rect x="469.0" y="750.0" width="12.0" height="3" fill="#35df39" stroke="#03aa10" /><rect x="495.0" y="750.0" width="12.0" height="3" fill="#fff874" stroke="#eb9c26" /><rect x="469.0" y="815.0" width="12.0" height="3" fill="#35df39" stroke="#03aa10" /><rect x="482.0" y="847.5" width="12.0" height="3" fill="#80c9ff" stroke="#0b6cba" /><rect x="469.0" y="880.5" width="12.0" height="3" fill="#35df39" stroke="#03aa10" /><rect x="456.0" y="913.0" width="12.0" height="3" fill="#ff3c3c" stroke="#c71f1f" /><rect x="482.0" y="913.0" width="12.0" height="3" fill="#80c9ff" stroke="#0b6cba" /><rect x="469.0" y="978.0" width="12.0" height="3" fill="#35df39" stroke="#03aa10" /><rect x="469.0" y="1011.0" width="12.0" height="3" fill="#35df39" stroke="#03aa10" /><rect x="482.0" y="1011.0" width="12.0" height="3" fill="#80c9ff" stroke="#0b6cba" /><rect x="570.0" y="32.5" width="12.0" height="3" fill="#ff3c3c" stroke="#c71f1f" /><rect x="583.0" y="65.0" width="12.0" height="3" fill="#35df39" stroke="#03aa10" /><rect x="570.0" y="97.5" width="12.0" height="3" fill="#ff3c3c" stroke="#c71f1f" /><rect x="583.0" y="114.0" width="12.0" height="3" fill="#35df39" stroke="#03aa10" /><rect x="596.0" y="114.0" width="12.0" height="3" fill="#80c9ff" stroke="#0b6cba" /><rect x="583.0" y="163.0" width="12.0" height="3" fill="#35df39" stroke="#03aa10" /><rect x="570.0" y="195.5" width="12.0" height="3" fill="#ff3c3c" stroke="#c71f1f" /><rect x="570.0" y="228.0" width="12.0" height="3" fill="#ff3c3c" stroke="#c71f1f" /><rect x="583.0" y="228.0" width="12.0" height="3" fill="#35df39" stroke="#03aa10" /><rect x="596.0" y="261.0" width="12.0" height="3" fill="#80c9ff" stroke="#0b6cba" /><rect x="609.0" y="293.5" width="12.0" height="3" fill="#fff874" stroke="#eb9c26" /><rect x="596.0" y="326.0" width="12.0" height="3" fill="#80c9ff" stroke="#0b6cba" /><rect x="622.0" y="326.0" width="12.0" height="3" fill="#ff83f4" stroke="#d002bc" /><rect x="596.0" y="358.5" width="12.0" height="3" fill="#80c9ff" stroke="#0b6cba" /><rect x="622.0" y="358.5" width="12.0" height="3" fill="#ff83f4" stroke="#d002bc" /><rect x="596.0" y="375.0" width="12.0" height="3" fill="#80c9ff" stroke="#0b6cba" /><rect x="622.0" y="375.0" width="12.0" height="3" fill="#ff83f4" stroke="#d002bc" /><rect x="596.0" y="391.0" width="12.0" height="3" fill="#80c9ff" stroke="#0b6cba" /><rect x="609.0" y="391.0" width="12.0" height="3" fill="#fff874" stroke="#eb9c26" /><rect x="596.0" y="424.0" width="12.0" height="3" fill="#80c9ff" stroke="#0b6cba" /><rect x="622.0" y="424.0" width="12.0" height="3" fill="#ff83f4" stroke="#d002bc" /><rect x="622.0" y="489.0" width="12.0" height="3" fill="#ff83f4" stroke="#d002bc" /><rect x="570" y="489.0" width="64" height="3" fill="#ff72e7" stroke="#7c7c7c" /><rect x="622.0" y="505.5" width="12.0" height="3" fill="#ff83f4" stroke="#d002bc" /><rect x="570" y="505.5" width="64" height="3" fill="#ff72e7" stroke="#7c7c7c" /><rect x="583.0" y="521.5" width="12.0" height="3" fill="#35df39" stroke="#03aa10" /><rect x="596.0" y="521.5" width="12.0" height="3" fill="#80c9ff" stroke="#0b6cba" /><rect x="583.0" y="554.0" width="12.0" height="3" fill="#35df39" stroke="#03aa10" /><rect x="596.0" y="554.0" width="12.0" height="3" fill="#80c9ff" stroke="#0b6cba" /><rect x="622.0" y="587.0" width="12.0" height="3" fill="#ff83f4" stroke="#d002bc" /><rect x="570" y="587.0" width="64" height="3" fill="#ff72e7" stroke="#7c7c7c" /><rect x="622.0" y="603.0" width="12.0" height="3" fill="#ff83f4" stroke="#d002bc" /><rect x="570" y="603.0" width="64" height="3" fill="#ff72e7" stroke="#7c7c7c" /><rect x="622.0" y="619.5" width="12.0" height="3" fill="#ff83f4" stroke="#d002bc" /><rect x="570" y="619.5" width="64" height="3" fill="#ff72e7" stroke="#7c7c7c" /><rect x="622.0" y="636.0" width="12.0" height="3" fill="#ff83f4" stroke="#d002bc" /><rect x="570" y="636.0" width="64" height="3" fill="#ff72e7" stroke="#7c7c7c" /><rect x="596.0" y="652.0" width="12.0" height="3" fill="#80c9ff" stroke="#0b6cba" /><rect x="609.0" y="652.0" width="12.0" height="3" fill="#fff874" stroke="#eb9c26" /><rect x="596.0" y="684.5" width="12.0" height="3" fill="#80c9ff" stroke="#0b6cba" /><rect x="609.0" y="684.5" width="12.0" height="3" fill="#fff874" stroke="#eb9c26" /><rect x="622.0" y="717.5" width="12.0" height="3" fill="#ff83f4" stroke="#d002bc" /><rect x="570" y="717.5" width="64" height="3" fill="#ff72e7" stroke="#7c7c7c" /><rect x="622.0" y="733.5" width="12.0" height="3" fill="#ff83f4" stroke="#d002bc" /><rect x="570" y="733.5" width="64" height="3" fill="#ff72e7" stroke="#7c7c7c" /><rect x="622.0" y="750.0" width="12.0" height="3" fill="#ff83f4" stroke="#d002bc" /><rect x="570" y="750.0" width="64" height="3" fill="#ff72e7" stroke="#7c7c7c" /><rect x="622.0" y="766.0" width="12.0" height="3" fill="#ff83f4" stroke="#d002bc" /><rect x="570" y="766.0" width="64" height="3" fill="#ff72e7" stroke="#7c7c7c" /><rect x="596.0" y="782.5" width="12.0" height="3" fill="#80c9ff" stroke="#0b6cba" /><rect x="609.0" y="782.5" width="12.0" height="3" fill="#fff874" stroke="#eb9c26" /><rect x="622.0" y="782.5" width="12.0" height="3" fill="#ff83f4" stroke="#d002bc" /><rect x="596.0" y="847.5" width="12.0" height="3" fill="#80c9ff" stroke="#0b6cba" /><rect x="570.0" y="880.5" width="12.0" height="3" fill="#ff3c3c" stroke="#c71f1f" /><rect x="583.0" y="880.5" width="12.0" height="3" fill="#35df39" stroke="#03aa10" /><rect x="596.0" y="880.5" width="12.0" height="3" fill="#80c9ff" stroke="#0b6cba" /><rect x="570.0" y="945.5" width="12.0" height="3" fill="#ff3c3c" stroke="#c71f1f" /><rect x="596.0" y="945.5" width="12.0" height="3" fill="#80c9ff" stroke="#0b6cba" /><rect x="570.0" y="978.0" width="12.0" height="3" fill="#ff3c3c" stroke="#c71f1f" /><rect x="583.0" y="978.0" width="12.0" height="3" fill="#35df39" stroke="#03aa10" /><rect x="596.0" y="978.0" width="12.0" height="3" fill="#80c9ff" stroke="#0b6cba" /><rect x="570.0" y="1011.0" width="12.0" height="3" fill="#ff3c3c" stroke="#c71f1f" /><rect x="570.0" y="1027.0" width="12.0" height="3" fill="#ff3c3c" stroke="#c71f1f" /><rect x="697.0" y="0.0" width="12.0" height="3" fill="#35df39" stroke="#03aa10" /><rect x="710.0" y="0.0" width="12.0" height="3" fill="#80c9ff" stroke="#0b6cba" /><rect x="697.0" y="32.5" width="12.0" height="3" fill="#35df39" stroke="#03aa10" /><rect x="710.0" y="32.5" width="12.0" height="3" fill="#80c9ff" stroke="#0b6cba" /><rect x="736.0" y="65.0" width="12.0" height="3" fill="#ff83f4" stroke="#d002bc" /><rect x="684" y="65.0" width="64" height="3" fill="#ff72e7" stroke="#7c7c7c" /><rect x="736.0" y="81.5" width="12.0" height="3" fill="#ff83f4" stroke="#d002bc" /><rect x="684" y="81.5" width="64" height="3" fill="#ff72e7" stroke="#7c7c7c" /><rect x="736.0" y="97.5" width="12.0" height="3" fill="#ff83f4" stroke="#d002bc" /><rect x="684" y="97.5" width="64" height="3" fill="#ff72e7" stroke="#7c7c7c" /><rect x="736.0" y="114.0" width="12.0" height="3" fill="#ff83f4" stroke="#d002bc" /><rect x="684" y="114.0" width="64" height="3" fill="#ff72e7" stroke="#7c7c7c" /><rect x="710.0" y="130.5" width="12.0" height="3" fill="#80c9ff" stroke="#0b6cba" /><rect x="723.0" y="130.5" width="12.0" height="3" fill="#fff874" stroke="#eb9c26" /><rect x="710.0" y="163.0" width="12.0" height="3" fill="#80c9ff" stroke="#0b6cba" /><rect x="723.0" y="163.0" width="12.0" height="3" fill="#fff874" stroke="#eb9c26" /><rect x="736.0" y="195.5" width="12.0" height="3" fill="#ff83f4" stroke="#d002bc" /><rect x="684" y="195.5" width="64" height="3" fill="#ff72e7" stroke="#7c7c7c" /><rect x="736.0" y="212.0" width="12.0" height="3" fill="#ff83f4" stroke="#d002bc" /><rect x="684" y="212.0" width="64" height="3" fill="#ff72e7" stroke="#7c7c7c" /><rect x="736.0" y="228.0" width="12.0" height="3" fill="#ff83f4" stroke="#d002bc" /><rect x="684" y="228.0" width="64" height="3" fill="#ff72e7" stroke="#7c7c7c" /><rect x="736.0" y="244.5" width="12.0" height="3" fill="#ff83f4" stroke="#d002bc" /><rect x="684" y="244.5" width="64" height="3" fill="#ff72e7" stroke="#7c7c7c" /><rect x="697.0" y="260.5" width="12.0" height="3" fill="#35df39" stroke="#03aa10" /><rect x="710.0" y="260.5" width="12.0" height="3" fill="#80c9ff" stroke="#0b6cba" /><rect x="723.0" y="260.5" width="12.0" height="3" fill="#fff874" stroke="#eb9c26" /><rect x="684.0" y="326.0" width="12.0" height="3" fill="#ff3c3c" stroke="#c71f1f" /><rect x="684.0" y="358.5" width="12.0" height="3" fill="#ff3c3c" stroke="#c71f1f" /><rect x="697.0" y="358.5" width="12.0" height="3" fill="#35df39" stroke="#03aa10" /><rect x="710.0" y="358.5" width="12.0" height="3" fill="#80c9ff" stroke="#0b6cba" /><rect x="684.0" y="391.0" width="12.0" height="3" fill="#ff3c3c" stroke="#c71f1f" /><rect x="710.0" y="391.0" width="12.0" height="3" fill="#80c9ff" stroke="#0b6cba" /><rect x="684.0" y="424.0" width="12.0" height="3" fill="#ff3c3c" stroke="#c71f1f" /><rect x="697.0" y="424.0" width="12.0" height="3" fill="#35df39" stroke="#03aa10" /><rect x="710.0" y="424.0" width="12.0" height="3" fill="#80c9ff" stroke="#0b6cba" /><rect x="684.0" y="489.0" width="12.0" height="3" fill="#ff3c3c" stroke="#c71f1f" /><rect x="684.0" y="505.5" width="12.0" height="3" fill="#ff3c3c" stroke="#c71f1f" /><rect x="697.0" y="521.5" width="12.0" height="3" fill="#35df39" stroke="#03aa10" /><rect x="710.0" y="521.5" width="12.0" height="3" fill="#80c9ff" stroke="#0b6cba" /><rect x="710.0" y="554.0" width="12.0" height="3" fill="#80c9ff" stroke="#0b6cba" /><rect x="736.0" y="587.0" width="12.0" height="3" fill="#ff83f4" stroke="#d002bc" /><rect x="684" y="587.0" width="64" height="3" fill="#ff72e7" stroke="#7c7c7c" /><rect x="736.0" y="603.0" width="12.0" height="3" fill="#ff83f4" stroke="#d002bc" /><rect x="684" y="603.0" width="64" height="3" fill="#ff72e7" stroke="#7c7c7c" /><rect x="736.0" y="619.5" width="12.0" height="3" fill="#ff83f4" stroke="#d002bc" /><rect x="684" y="619.5" width="64" height="3" fill="#ff72e7" stroke="#7c7c7c" /><rect x="736.0" y="635.5" width="12.0" height="3" fill="#ff83f4" stroke="#d002bc" /><rect x="684" y="635.5" width="64" height="3" fill="#ff72e7" stroke="#7c7c7c" /><rect x="697.0" y="652.0" width="12.0" height="3" fill="#35df39" stroke="#03aa10" /><rect x="710.0" y="652.0" width="12.0" height="3" fill="#80c9ff" stroke="#0b6cba" /><rect x="697.0" y="684.5" width="12.0" height="3" fill="#35df39" stroke="#03aa10" /><rect x="736.0" y="717.5" width="12.0" height="3" fill="#ff83f4" stroke="#d002bc" /><rect x="684" y="717.5" width="64" height="3" fill="#ff72e7" stroke="#7c7c7c" /><rect x="736.0" y="733.5" width="12.0" height="3" fill="#ff83f4" stroke="#d002bc" /><rect x="684" y="733.5" width="64" height="3" fill="#ff72e7" stroke="#7c7c7c" /><rect x="736.0" y="750.0" width="12.0" height="3" fill="#ff83f4" stroke="#d002bc" /><rect x="684" y="750.0" width="64" height="3" fill="#ff72e7" stroke="#7c7c7c" /><rect x="736.0" y="766.0" width="12.0" height="3" fill="#ff83f4" stroke="#d002bc" /><rect x="684" y="766.0" width="64" height="3" fill="#ff72e7" stroke="#7c7c7c" /><rect x="697.0" y="782.5" width="12.0" height="3" fill="#35df39" stroke="#03aa10" /><rect x="710.0" y="782.5" width="12.0" height="3" fill="#80c9ff" stroke="#0b6cba" /><rect x="723.0" y="782.5" width="12.0" height="3" fill="#fff874" stroke="#eb9c26" /><rect x="684.0" y="847.5" width="12.0" height="3" fill="#ff3c3c" stroke="#c71f1f" /><rect x="684.0" y="880.5" width="12.0" height="3" fill="#ff3c3c" stroke="#c71f1f" /><rect x="697.0" y="880.5" width="12.0" height="3" fill="#35df39" stroke="#03aa10" /><rect x="710.0" y="880.5" width="12.0" height="3" fill="#80c9ff" stroke="#0b6cba" /><rect x="684.0" y="945.5" width="12.0" height="3" fill="#ff3c3c" stroke="#c71f1f" /><rect x="697.0" y="945.5" width="12.0" height="3" fill="#35df39" stroke="#03aa10" /><rect x="710.0" y="945.5" width="12.0" height="3" fill="#80c9ff" stroke="#0b6cba" /><rect x="736.0" y="978.0" width="12.0" height="3" fill="#ff83f4" stroke="#d002bc" /><rect x="684" y="978.0" width="64" height="3" fill="#ff72e7" stroke="#7c7c7c" /><rect x="684.0" y="1010.5" width="12.0" height="3" fill="#ff3c3c" stroke="#c71f1f" /><rect x="697.0" y="1010.5" width="12.0" height="3" fill="#35df39" stroke="#03aa10" /><rect x="798.0" y="32.5" width="12.0" height="3" fill="#ff3c3c" stroke="#c71f1f" /><rect x="798.0" y="65.0" width="12.0" height="3" fill="#ff3c3c" stroke="#c71f1f" /><rect x="811.0" y="65.0" width="12.0" height="3" fill="#35df39" stroke="#03aa10" /><rect x="811.0" y="97.5" width="12.0" height="3" fill="#35df39" stroke="#03aa10" /><rect x="798.0" y="130.5" width="12.0" height="3" fill="#ff3c3c" stroke="#c71f1f" /><rect x="811.0" y="130.5" width="12.0" height="3" fill="#35df39" stroke="#03aa10" /><rect x="798.0" y="163.0" width="12.0" height="3" fill="#ff3c3c" stroke="#c71f1f" /><rect x="798.0" y="195.5" width="12.0" height="3" fill="#ff3c3c" stroke="#c71f1f" /><rect x="811.0" y="195.5" width="12.0" height="3" fill="#35df39" stroke="#03aa10" /><rect x="850.0" y="228.0" width="12.0" height="3" fill="#ff83f4" stroke="#d002bc" /><rect x="798" y="228.0" width="64" height="3" fill="#ff72e7" stroke="#7c7c7c" /><rect x="850.0" y="244.5" width="12.0" height="3" fill="#ff83f4" stroke="#d002bc" /><rect x="798" y="244.5" width="64" height="3" fill="#ff72e7" stroke="#7c7c7c" /><rect x="811.0" y="260.5" width="12.0" height="3" fill="#35df39" stroke="#03aa10" /><rect x="824.0" y="260.5" width="12.0" height="3" fill="#80c9ff" stroke="#0b6cba" /><rect x="811.0" y="293.5" width="12.0" height="3" fill="#35df39" stroke="#03aa10" /><rect x="811.0" y="326.0" width="12.0" height="3" fill="#35df39" stroke="#03aa10" /><rect x="824.0" y="326.0" width="12.0" height="3" fill="#80c9ff" stroke="#0b6cba" /><rect x="824.0" y="358.5" width="12.0" height="3" fill="#80c9ff" stroke="#0b6cba" /><rect x="811.0" y="391.0" width="12.0" height="3" fill="#35df39" stroke="#03aa10" /><rect x="824.0" y="391.0" width="12.0" height="3" fill="#80c9ff" stroke="#0b6cba" /><rect x="837.0" y="424.0" width="12.0" height="3" fill="#fff874" stroke="#eb9c26" /><rect x="837.0" y="440.0" width="12.0" height="3" fill="#fff874" stroke="#eb9c26" /><rect x="824.0" y="456.5" width="12.0" height="3" fill="#80c9ff" stroke="#0b6cba" /><rect x="850.0" y="456.5" width="12.0" height="3" fill="#ff83f4" stroke="#d002bc" /><rect x="824.0" y="521.5" width="12.0" height="3" fill="#80c9ff" stroke="#0b6cba" /><rect x="837.0" y="521.5" width="12.0" height="3" fill="#fff874" stroke="#eb9c26" /><rect x="850.0" y="587.0" width="12.0" height="3" fill="#ff83f4" stroke="#d002bc" /><rect x="798" y="587.0" width="64" height="3" fill="#ff72e7" stroke="#7c7c7c" /><rect x="798.0" y="619.5" width="12.0" height="3" fill="#ff3c3c" stroke="#c71f1f" /><rect x="811.0" y="619.5" width="12.0" height="3" fill="#35df39" stroke="#03aa10" /><rect x="798.0" y="684.5" width="12.0" height="3" fill="#ff3c3c" stroke="#c71f1f" /><rect x="811.0" y="684.5" width="12.0" height="3" fill="#35df39" stroke="#03aa10" /><rect x="850.0" y="717.0" width="12.0" height="3" fill="#ff83f4" stroke="#d002bc" /><rect x="798" y="717.0" width="64" height="3" fill="#ff72e7" stroke="#7c7c7c" /><rect x="811.0" y="750.0" width="12.0" height="3" fill="#35df39" stroke="#03aa10" /><rect x="837.0" y="750.0" width="12.0" height="3" fill="#fff874" stroke="#eb9c26" /><rect x="824.0" y="815.0" width="12.0" height="3" fill="#80c9ff" stroke="#0b6cba" /><rect x="811.0" y="847.5" width="12.0" height="3" fill="#35df39" stroke="#03aa10" /><rect x="837.0" y="847.5" width="12.0" height="3" fill="#fff874" stroke="#eb9c26" /><rect x="824.0" y="880.5" width="12.0" height="3" fill="#80c9ff" stroke="#0b6cba" /><rect x="824.0" y="896.5" width="12.0" height="3" fill="#80c9ff" stroke="#0b6cba" /><rect x="798.0" y="913.0" width="12.0" height="3" fill="#ff3c3c" stroke="#c71f1f" /><rect x="811.0" y="913.0" width="12.0" height="3" fill="#35df39" stroke="#03aa10" /><rect x="824.0" y="945.5" width="12.0" height="3" fill="#80c9ff" stroke="#0b6cba" /><rect x="811.0" y="978.0" width="12.0" height="3" fill="#35df39" stroke="#03aa10" /><rect x="824.0" y="978.0" width="12.0" height="3" fill="#80c9ff" stroke="#0b6cba" /><rect x="850.0" y="1010.5" width="12.0" height="3" fill="#ff83f4" stroke="#d002bc" /><rect x="798" y="1010.5" width="64" height="3" fill="#ff72e7" stroke="#7c7c7c" /><rect x="850.0" y="1027.0" width="12.0" height="3" fill="#ff83f4" stroke="#d002bc" /><rect x="798" y="1027.0" width="64" height="3" fill="#ff72e7" stroke="#7c7c7c" /><rect x="938.0" y="0.0" width="12.0" height="3" fill="#80c9ff" stroke="#0b6cba" /><rect x="951.0" y="0.0" width="12.0" height="3" fill="#fff874" stroke="#eb9c26" /><rect x="964.0" y="65.0" width="12.0" height="3" fill="#ff83f4" stroke="#d002bc" /><rect x="912" y="65.0" width="64" height="3" fill="#ff72e7" stroke="#7c7c7c" /><rect x="912.0" y="97.5" width="12.0" height="3" fill="#ff3c3c" stroke="#c71f1f" /><rect x="925.0" y="97.5" width="12.0" height="3" fill="#35df39" stroke="#03aa10" /><rect x="912.0" y="163.0" width="12.0" height="3" fill="#ff3c3c" stroke="#c71f1f" /><rect x="925.0" y="163.0" width="12.0" height="3" fill="#35df39" stroke="#03aa10" /><rect x="964.0" y="195.5" width="12.0" height="3" fill="#ff83f4" stroke="#d002bc" /><rect x="912" y="195.5" width="64" height="3" fill="#ff72e7" stroke="#7c7c7c" /><rect x="925.0" y="228.0" width="12.0" height="3" fill="#35df39" stroke="#03aa10" /><rect x="951.0" y="228.0" width="12.0" height="3" fill="#fff874" stroke="#eb9c26" /><rect x="938.0" y="293.5" width="12.0" height="3" fill="#80c9ff" stroke="#0b6cba" /><rect x="925.0" y="326.0" width="12.0" height="3" fill="#35df39" stroke="#03aa10" /><rect x="951.0" y="326.0" width="12.0" height="3" fill="#fff874" stroke="#eb9c26" /><rect x="938.0" y="358.5" width="12.0" height="3" fill="#80c9ff" stroke="#0b6cba" /><rect x="938.0" y="375.0" width="12.0" height="3" fill="#80c9ff" stroke="#0b6cba" /><rect x="938.0" y="391.0" width="12.0" height="3" fill="#80c9ff" stroke="#0b6cba" /><rect x="951.0" y="391.0" width="12.0" height="3" fill="#fff874" stroke="#eb9c26" /><rect x="938.0" y="423.5" width="12.0" height="3" fill="#80c9ff" stroke="#0b6cba" /><rect x="925.0" y="456.5" width="12.0" height="3" fill="#35df39" stroke="#03aa10" /><rect x="938.0" y="456.5" width="12.0" height="3" fill="#80c9ff" stroke="#0b6cba" /><rect x="964.0" y="489.0" width="12.0" height="3" fill="#ff83f4" stroke="#d002bc" /><rect x="912" y="489.0" width="64" height="3" fill="#ff72e7" stroke="#7c7c7c" /><rect x="964.0" y="505.0" width="12.0" height="3" fill="#ff83f4" stroke="#d002bc" /><rect x="912" y="505.0" width="64" height="3" fill="#ff72e7" stroke="#7c7c7c" /><rect x="938.0" y="521.5" width="12.0" height="3" fill="#80c9ff" stroke="#0b6cba" /><rect x="951.0" y="521.5" width="12.0" height="3" fill="#fff874" stroke="#eb9c26" /><rect x="964.0" y="587.0" width="12.0" height="3" fill="#ff83f4" stroke="#d002bc" /><rect x="912" y="587.0" width="64" height="3" fill="#ff72e7" stroke="#7c7c7c" /><rect x="912.0" y="619.5" width="12.0" height="3" fill="#ff3c3c" stroke="#c71f1f" /><rect x="925.0" y="619.5" width="12.0" height="3" fill="#35df39" stroke="#03aa10" /><rect x="912.0" y="684.5" width="12.0" height="3" fill="#ff3c3c" stroke="#c71f1f" /><rect x="925.0" y="684.5" width="12.0" height="3" fill="#35df39" stroke="#03aa10" /><rect x="964.0" y="717.0" width="12.0" height="3" fill="#ff83f4" stroke="#d002bc" /><rect x="912" y="717.0" width="64" height="3" fill="#ff72e7" stroke="#7c7c7c" /><rect x="925.0" y="750.0" width="12.0" height="3" fill="#35df39" stroke="#03aa10" /><rect x="951.0" y="750.0" width="12.0" height="3" fill="#fff874" stroke="#eb9c26" /><rect x="938.0" y="815.0" width="12.0" height="3" fill="#80c9ff" stroke="#0b6cba" /><rect x="925.0" y="847.5" width="12.0" height="3" fill="#35df39" stroke="#03aa10" /><rect x="951.0" y="847.5" width="12.0" height="3" fill="#fff874" stroke="#eb9c26" /><rect x="938.0" y="880.0" width="12.0" height="3" fill="#80c9ff" stroke="#0b6cba" /><rect x="938.0" y="896.5" width="12.0" height="3" fill="#80c9ff" stroke="#0b6cba" /><rect x="912.0" y="913.0" width="12.0" height="3" fill="#ff3c3c" stroke="#c71f1f" /><rect x="925.0" y="913.0" width="12.0" height="3" fill="#35df39" stroke="#03aa10" /><rect x="938.0" y="945.5" width="12.0" height="3" fill="#80c9ff" stroke="#0b6cba" /><rect x="925.0" y="978.0" width="12.0" height="3" fill="#35df39" stroke="#03aa10" /><rect x="938.0" y="978.0" width="12.0" height="3" fill="#80c9ff" stroke="#0b6cba" /><rect x="964.0" y="1010.5" width="12.0" height="3" fill="#ff83f4" stroke="#d002bc" /><rect x="912" y="1010.5" width="64" height="3" fill="#ff72e7" stroke="#7c7c7c" /><rect x="964.0" y="1027.0" width="12.0" height="3" fill="#ff83f4" stroke="#d002bc" /><rect x="912" y="1027.0" width="64" height="3" fill="#ff72e7" stroke="#7c7c7c" /><rect x="1039.0" y="0.0" width="12.0" height="3" fill="#35df39" stroke="#03aa10" /><rect x="1052.0" y="0.0" width="12.0" height="3" fill="#80c9ff" stroke="#0b6cba" /><rect x="1065.0" y="0.0" width="12.0" height="3" fill="#fff874" stroke="#eb9c26" /><rect x="1078.0" y="65.0" width="12.0" height="3" fill="#ff83f4" stroke="#d002bc" /><rect x="1026" y="65.0" width="64" height="3" fill="#ff72e7" stroke="#7c7c7c" /><rect x="1026.0" y="97.5" width="12.0" height="3" fill="#ff3c3c" stroke="#c71f1f" /><rect x="1039.0" y="97.5" width="12.0" height="3" fill="#35df39" stroke="#03aa10" /><rect x="1052.0" y="97.5" width="12.0" height="3" fill="#80c9ff" stroke="#0b6cba" /><rect x="1026.0" y="163.0" width="12.0" height="3" fill="#ff3c3c" stroke="#c71f1f" /><rect x="1039.0" y="163.0" width="12.0" height="3" fill="#35df39" stroke="#03aa10" /><rect x="1052.0" y="163.0" width="12.0" height="3" fill="#80c9ff" stroke="#0b6cba" /><rect x="1078.0" y="195.5" width="12.0" height="3" fill="#ff83f4" stroke="#d002bc" /><rect x="1026" y="195.5" width="64" height="3" fill="#ff72e7" stroke="#7c7c7c" /><rect x="1039.0" y="228.0" width="12.0" height="3" fill="#35df39" stroke="#03aa10" /><rect x="1065.0" y="228.0" width="12.0" height="3" fill="#fff874" stroke="#eb9c26" /><rect x="1052.0" y="293.5" width="12.0" height="3" fill="#80c9ff" stroke="#0b6cba" /><rect x="1065.0" y="293.5" width="12.0" height="3" fill="#fff874" stroke="#eb9c26" /><rect x="1039.0" y="326.0" width="12.0" height="3" fill="#35df39" stroke="#03aa10" /><rect x="1052.0" y="326.0" width="12.0" height="3" fill="#80c9ff" stroke="#0b6cba" /><rect x="1026.0" y="358.5" width="12.0" height="3" fill="#ff3c3c" stroke="#c71f1f" /><rect x="1026.0" y="375.0" width="12.0" height="3" fill="#ff3c3c" stroke="#c71f1f" /><rect x="1026.0" y="391.0" width="12.0" height="3" fill="#ff3c3c" stroke="#c71f1f" /><rect x="1039.0" y="391.0" width="12.0" height="3" fill="#35df39" stroke="#03aa10" /><rect x="1026.0" y="456.5" width="12.0" height="3" fill="#ff3c3c" stroke="#c71f1f" /><rect x="1039.0" y="456.5" width="12.0" height="3" fill="#35df39" stroke="#03aa10" /><rect x="1078.0" y="489.0" width="12.0" height="3" fill="#ff83f4" stroke="#d002bc" /><rect x="1026" y="489.0" width="64" height="3" fill="#ff72e7" stroke="#7c7c7c" /><rect x="1078.0" y="505.0" width="12.0" height="3" fill="#ff83f4" stroke="#d002bc" /><rect x="1026" y="505.0" width="64" height="3" fill="#ff72e7" stroke="#7c7c7c" /><rect x="1065.0" y="521.5" width="12.0" height="88.2" fill="#fff874" stroke="#eb9c26" /><rect x="1078.0" y="521.5" width="12.0" height="88.2" fill="#ff83f4" stroke="#d002bc" /><rect x="1052.0" y="619.5" width="12.0" height="117.45" fill="#80c9ff" stroke="#0b6cba" /><rect x="1065.0" y="619.5" width="12.0" height="117.45" fill="#fff874" stroke="#eb9c26" /><rect x="1052.0" y="750.0" width="12.0" height="3" fill="#80c9ff" stroke="#0b6cba" /><rect x="1039.0" y="815.0" width="12.0" height="3" fill="#35df39" stroke="#03aa10" /><rect x="1052.0" y="815.0" width="12.0" height="3" fill="#80c9ff" stroke="#0b6cba" /><rect x="1052.0" y="847.5" width="12.0" height="3" fill="#80c9ff" stroke="#0b6cba" /><rect x="1039.0" y="880.0" width="12.0" height="3" fill="#35df39" stroke="#03aa10" /><rect x="1039.0" y="896.5" width="12.0" height="3" fill="#35df39" stroke="#03aa10" /><rect x="1026.0" y="913.0" width="12.0" height="3" fill="#ff3c3c" stroke="#c71f1f" /><rect x="1026.0" y="929.0" width="12.0" height="3" fill="#ff3c3c" stroke="#c71f1f" /><rect x="1039.0" y="945.5" width="12.0" height="3" fill="#35df39" stroke="#03aa10" /><rect x="1052.0" y="945.5" width="12.0" height="3" fill="#80c9ff" stroke="#0b6cba" /><rect x="1065.0" y="1010.5" width="12.0" height="3" fill="#fff874" stroke="#eb9c26" /><rect x="1153.0" y="0.0" width="12.0" height="3" fill="#35df39" stroke="#03aa10" /><rect x="1166.0" y="0.0" width="12.0" height="3" fill="#80c9ff" stroke="#0b6cba" /><rect x="1140.0" y="32.5" width="12.0" height="3" fill="#ff3c3c" stroke="#c71f1f" /><rect x="1166.0" y="65.0" width="12.0" height="3" fill="#80c9ff" stroke="#0b6cba" /><rect x="1140.0" y="97.5" width="12.0" height="3" fill="#ff3c3c" stroke="#c71f1f" /><rect x="1153.0" y="97.5" width="12.0" height="3" fill="#35df39" stroke="#03aa10" /><rect x="1153.0" y="130.0" width="12.0" height="3" fill="#35df39" stroke="#03aa10" /><rect x="1153.0" y="146.5" width="12.0" height="3" fill="#35df39" stroke="#03aa10" /><rect x="1140.0" y="163.0" width="12.0" height="3" fill="#ff3c3c" stroke="#c71f1f" /><rect x="1140.0" y="179.0" width="12.0" height="3" fill="#ff3c3c" stroke="#c71f1f" /><rect x="1166.0" y="195.5" width="12.0" height="3" fill="#80c9ff" stroke="#0b6cba" /><rect x="1166.0" y="211.5" width="12.0" height="3" fill="#80c9ff" stroke="#0b6cba" /><rect x="1153.0" y="228.0" width="12.0" height="3" fill="#35df39" stroke="#03aa10" /><rect x="1153.0" y="244.5" width="12.0" height="3" fill="#35df39" stroke="#03aa10" /><rect x="1153.0" y="260.5" width="12.0" height="3" fill="#35df39" stroke="#03aa10" /><rect x="1166.0" y="260.5" width="12.0" height="3" fill="#80c9ff" stroke="#0b6cba" /><rect x="1153.0" y="277.0" width="12.0" height="3" fill="#35df39" stroke="#03aa10" /><rect x="1166.0" y="277.0" width="12.0" height="3" fill="#80c9ff" stroke="#0b6cba" /><rect x="1140.0" y="293.0" width="12.0" height="3" fill="#ff3c3c" stroke="#c71f1f" /><rect x="1140.0" y="309.5" width="12.0" height="3" fill="#ff3c3c" stroke="#c71f1f" /><rect x="1140.0" y="326.0" width="12.0" height="3" fill="#ff3c3c" stroke="#c71f1f" /><rect x="1166.0" y="326.0" width="12.0" height="3" fill="#80c9ff" stroke="#0b6cba" /><rect x="1140.0" y="342.0" width="12.0" height="3" fill="#ff3c3c" stroke="#c71f1f" /><rect x="1166.0" y="342.0" width="12.0" height="3" fill="#80c9ff" stroke="#0b6cba" /><rect x="1140.0" y="358.5" width="12.0" height="3" fill="#ff3c3c" stroke="#c71f1f" /><rect x="1153.0" y="358.5" width="12.0" height="3" fill="#35df39" stroke="#03aa10" /><rect x="1140.0" y="375.0" width="12.0" height="3" fill="#ff3c3c" stroke="#c71f1f" /><rect x="1153.0" y="375.0" width="12.0" height="3" fill="#35df39" stroke="#03aa10" /><rect x="1140.0" y="391.0" width="12.0" height="3" fill="#ff3c3c" stroke="#c71f1f" /><rect x="1153.0" y="423.5" width="12.0" height="88.2" fill="#35df39" stroke="#03aa10" /><rect x="1166.0" y="423.5" width="12.0" height="88.2" fill="#80c9ff" stroke="#0b6cba" /><rect x="1192.0" y="521.5" width="12.0" height="3" fill="#ff83f4" stroke="#d002bc" /><rect x="1140" y="521.5" width="64" height="3" fill="#ff72e7" stroke="#7c7c7c" /><rect x="1153.0" y="554.0" width="12.0" height="3" fill="#35df39" stroke="#03aa10" /><rect x="1166.0" y="586.5" width="12.0" height="3" fill="#80c9ff" stroke="#0b6cba" /><rect x="1179.0" y="603.0" width="12.0" height="3" fill="#fff874" stroke="#eb9c26" /><rect x="1192.0" y="635.5" width="12.0" height="3" fill="#ff83f4" stroke="#d002bc" /><rect x="1166.0" y="668.0" width="12.0" height="3" fill="#80c9ff" stroke="#0b6cba" /><rect x="1166.0" y="684.5" width="12.0" height="3" fill="#80c9ff" stroke="#0b6cba" /><rect x="1179.0" y="701.0" width="12.0" height="3" fill="#fff874" stroke="#eb9c26" /><rect x="1179.0" y="717.0" width="12.0" height="3" fill="#fff874" stroke="#eb9c26" /><rect x="1179.0" y="750.0" width="12.0" height="87.75" fill="#fff874" stroke="#eb9c26" /><rect x="1192.0" y="750.0" width="12.0" height="87.75" fill="#ff83f4" stroke="#d002bc" /><rect x="1179.0" y="847.5" width="12.0" height="3" fill="#fff874" stroke="#eb9c26" /><rect x="1192.0" y="847.5" width="12.0" height="3" fill="#ff83f4" stroke="#d002bc" /><rect x="1153.0" y="880.0" width="12.0" height="3" fill="#35df39" stroke="#03aa10" /><rect x="1153.0" y="896.5" width="12.0" height="3" fill="#35df39" stroke="#03aa10" /><rect x="1166.0" y="913.0" width="12.0" height="3" fill="#80c9ff" stroke="#0b6cba" /><rect x="1179.0" y="913.0" width="12.0" height="3" fill="#fff874" stroke="#eb9c26" /><rect x="1153.0" y="945.5" width="12.0" height="97.5" fill="#35df39" stroke="#03aa10" /><rect x="1179.0" y="945.5" width="12.0" height="97.5" fill="#fff874" stroke="#eb9c26" /><rect x="1293.0" y="0.0" width="12.0" height="3" fill="#fff874" stroke="#eb9c26" /><rect x="1280.0" y="33.0" width="12.0" height="3" fill="#80c9ff" stroke="#0b6cba" /><rect x="1267.0" y="65.5" width="12.0" height="3" fill="#35df39" stroke="#03aa10" /><rect x="1293.0" y="98.0" width="12.0" height="3" fill="#fff874" stroke="#eb9c26" /><rect x="1306.0" y="98.0" width="12.0" height="3" fill="#ff83f4" stroke="#d002bc" /><rect x="1293.0" y="163.5" width="12.0" height="3" fill="#fff874" stroke="#eb9c26" /><rect x="1280.0" y="196.0" width="12.0" height="3" fill="#80c9ff" stroke="#0b6cba" /><rect x="1267.0" y="228.5" width="12.0" height="3" fill="#35df39" stroke="#03aa10" /><rect x="1280.0" y="228.5" width="12.0" height="3" fill="#80c9ff" stroke="#0b6cba" /><rect x="1267.0" y="293.5" width="12.0" height="3" fill="#35df39" stroke="#03aa10" /><rect x="1254.0" y="326.5" width="12.0" height="3" fill="#ff3c3c" stroke="#c71f1f" /><rect x="1267.0" y="326.5" width="12.0" height="3" fill="#35df39" stroke="#03aa10" /><rect x="1267.0" y="391.5" width="12.0" height="117.45" fill="#35df39" stroke="#03aa10" /><rect x="1280.0" y="391.5" width="12.0" height="117.45" fill="#80c9ff" stroke="#0b6cba" /><rect x="1254.0" y="522.0" width="12.0" height="3" fill="#ff3c3c" stroke="#c71f1f" /><rect x="1267.0" y="522.0" width="12.0" height="3" fill="#35df39" stroke="#03aa10" /><rect x="1280.0" y="522.0" width="12.0" height="3" fill="#80c9ff" stroke="#0b6cba" /></svg>