<?xml version="1.0" encoding="UTF-8"?><svg xmlns="http://www.w3.org/2000/svg" xmlns:xlink="http://www.w3.org/1999/xlink"     width="2394" height="914.0" viewBox="0 0 2394 914.0"><defs></defs><rect x="0.0" y="197.0" width="12.0" height="3" fill="#ff3c3c" stroke="#c71f1f" /><rect x="0.0" y="211.0" width="12.0" height="3" fill="#ff3c3c" stroke="#c71f1f" /><rect x="0.0" y="225.0" width="12.0" height="152.1" fill="#ff3c3c" stroke="#c71f1f" /><rect x="0.0" y="394.0" width="12.0" height="3" fill="#ff3c3c" stroke="#c71f1f" /><rect x="0.0" y="422.0" width="12.0" height="3" fill="#ff3c3c" stroke="#c71f1f" /><rect x="0.0" y="436.0" width="12.0" height="3" fill="#ff3c3c" stroke="#c71f1f" /><rect x="13.0" y="450.0" width="12.0" height="152.1" fill="#35df39" stroke="#03aa10" /><rect x="13.0" y="619.0" width="12.0" height="3" fill="#35df39" stroke="#03aa10" /><rect x="13.0" y="647.0" width="12.0" height="3" fill="#35df39" stroke="#03aa10" /><rect x="13.0" y="661.0" width="12.0" height="3" fill="#35df39" stroke="#03aa10" /><rect x="39.0" y="675.0" width="12.0" height="152.1" fill="#fff874" stroke="#eb9c26" /><rect x="26.0" y="844.0" width="12.0" height="3" fill="#80c9ff" stroke="#0b6cba" /><rect x="26.0" y="872.0" width="12.0" height="3" fill="#80c9ff" stroke="#0b6cba" /><rect x="140.0" y="0.0" width="12.0" height="152.1" fill="#80c9ff" stroke="#0b6cba" /><rect x="140.0" y="169.0" width="12.0" height="3" fill="#80c9ff" stroke="#0b6cba" /><rect x="127.0" y="225.0" width="12.0" height="3" fill="#35df39" stroke="#03aa10" /><rect x="140.0" y="253.0" width="12.0" height="3" fill="#80c9ff" stroke="#0b6cba" /><rect x="153.0" y="281.5" width="12.0" height="3" fill="#fff874" stroke="#eb9c26" /><rect x="127.0" y="309.5" width="12.0" height="3" fill="#35df39" stroke="#03aa10" /><rect x="140.0" y="337.5" width="12.0" height="3" fill="#80c9ff" stroke="#0b6cba" /><rect x="153.0" y="365.5" width="12.0" height="3" fill="#fff874" stroke="#eb9c26" /><rect x="127.0" y="394.0" width="12.0" height="3" fill="#35df39" stroke="#03aa10" /><rect x="153.0" y="422.0" width="12.0" height="3" fill="#fff874" stroke="#eb9c26" /><rect x="114.0" y="450.0" width="12.0" height="3" fill="#ff3c3c" stroke="#c71f1f" /><rect x="127.0" y="478.0" width="12.0" height="3" fill="#35df39" stroke="#03aa10" /><rect x="140.0" y="506.5" width="12.0" height="3" fill="#80c9ff" stroke="#0b6cba" /><rect x="114.0" y="534.5" width="12.0" height="3" fill="#ff3c3c" stroke="#c71f1f" /><rect x="127.0" y="562.5" width="12.0" height="3" fill="#35df39" stroke="#03aa10" /><rect x="140.0" y="590.5" width="12.0" height="3" fill="#80c9ff" stroke="#0b6cba" /><rect x="114.0" y="619.0" width="12.0" height="3" fill="#ff3c3c" stroke="#c71f1f" /><rect x="140.0" y="647.0" width="12.0" height="3" fill="#80c9ff" stroke="#0b6cba" /><rect x="127.0" y="675.0" width="12.0" height="3" fill="#35df39" stroke="#03aa10" /><rect x="127.0" y="703.0" width="12.0" height="3" fill="#35df39" stroke="#03aa10" /><rect x="140.0" y="731.5" width="12.0" height="3" fill="#80c9ff" stroke="#0b6cba" /><rect x="127.0" y="759.5" width="12.0" height="3" fill="#35df39" stroke="#03aa10" /><rect x="114.0" y="787.5" width="12.0" height="3" fill="#ff3c3c" stroke="#c71f1f" /><rect x="114.0" y="815.5" width="12.0" height="3" fill="#ff3c3c" stroke="#c71f1f" /><rect x="127.0" y="844.0" width="12.0" height="3" fill="#35df39" stroke="#03aa10" /><rect x="114.0" y="872.0" width="12.0" height="3" fill="#ff3c3c" stroke="#c71f1f" /><rect x="254.0" y="0.0" width="12.0" height="3" fill="#80c9ff" stroke="#0b6cba" /><rect x="254.0" y="28.0" width="12.0" height="3" fill="#80c9ff" stroke="#0b6cba" /><rect x="254.0" y="56.5" width="12.0" height="3" fill="#80c9ff" stroke="#0b6cba" /><rect x="254.0" y="84.5" width="12.0" height="3" fill="#80c9ff" stroke="#0b6cba" /><rect x="241.0" y="169.0" width="12.0" height="3" fill="#35df39" stroke="#03aa10" /><rect x="228.0" y="225.0" width="12.0" height="3" fill="#ff3c3c" stroke="#c71f1f" /><rect x="254.0" y="253.0" width="12.0" height="3" fill="#80c9ff" stroke="#0b6cba" /><rect x="241.0" y="281.5" width="12.0" height="3" fill="#35df39" stroke="#03aa10" /><rect x="228.0" y="309.5" width="12.0" height="3" fill="#ff3c3c" stroke="#c71f1f" /><rect x="254.0" y="337.5" width="12.0" height="3" fill="#80c9ff" stroke="#0b6cba" /><rect x="241.0" y="365.5" width="12.0" height="3" fill="#35df39" stroke="#03aa10" /><rect x="228.0" y="394.0" width="12.0" height="3" fill="#ff3c3c" stroke="#c71f1f" /><rect x="254.0" y="422.0" width="12.0" height="3" fill="#80c9ff" stroke="#0b6cba" /><rect x="241.0" y="450.0" width="12.0" height="3" fill="#35df39" stroke="#03aa10" /><rect x="267.0" y="478.0" width="12.0" height="3" fill="#fff874" stroke="#eb9c26" /><rect x="254.0" y="506.5" width="12.0" height="3" fill="#80c9ff" stroke="#0b6cba" /><rect x="241.0" y="534.5" width="12.0" height="3" fill="#35df39" stroke="#03aa10" /><rect x="267.0" y="562.5" width="12.0" height="3" fill="#fff874" stroke="#eb9c26" /><rect x="254.0" y="590.5" width="12.0" height="3" fill="#80c9ff" stroke="#0b6cba" /><rect x="241.0" y="619.0" width="12.0" height="3" fill="#35df39" stroke="#03aa10" /><rect x="267.0" y="647.0" width="12.0" height="3" fill="#fff874" stroke="#eb9c26" /><rect x="254.0" y="675.0" width="12.0" height="3" fill="#80c9ff" stroke="#0b6cba" /><rect x="254.0" y="703.0" width="12.0" height="3" fill="#80c9ff" stroke="#0b6cba" /><rect x="254.0" y="731.5" width="12.0" height="3" fill="#80c9ff" stroke="#0b6cba" /><rect x="267.0" y="787.5" width="12.0" height="3" fill="#fff874" stroke="#eb9c26" /><rect x="267.0" y="815.5" width="12.0" height="3" fill="#fff874" stroke="#eb9c26" /><rect x="267.0" y="844.0" width="12.0" height="3" fill="#fff874" stroke="#eb9c26" /><rect x="394.0" y="0.0" width="12.0" height="3" fill="#ff83f4" stroke="#d002bc" /><rect x="394.0" y="28.0" width="12.0" height="3" fill="#ff83f4" stroke="#d002bc" /><rect x="381.0" y="84.5" width="12.0" height="76.05" fill="#fff874" stroke="#eb9c26" /><rect x="381.0" y="169.0" width="12.0" height="3" fill="#fff874" stroke="#eb9c26" /><rect x="355.0" y="225.0" width="12.0" height="3" fill="#35df39" stroke="#03aa10" /><rect x="368.0" y="253.0" width="12.0" height="3" fill="#80c9ff" stroke="#0b6cba" /><rect x="381.0" y="281.5" width="12.0" height="3" fill="#fff874" stroke="#eb9c26" /><rect x="355.0" y="309.5" width="12.0" height="3" fill="#35df39" stroke="#03aa10" /><rect x="368.0" y="337.5" width="12.0" height="3" fill="#80c9ff" stroke="#0b6cba" /><rect x="381.0" y="365.5" width="12.0" height="3" fill="#fff874" stroke="#eb9c26" /><rect x="355.0" y="394.0" width="12.0" height="3" fill="#35df39" stroke="#03aa10" /><rect x="381.0" y="422.0" width="12.0" height="3" fill="#fff874" stroke="#eb9c26" /><rect x="342.0" y="450.0" width="12.0" height="3" fill="#ff3c3c" stroke="#c71f1f" /><rect x="355.0" y="478.0" width="12.0" height="3" fill="#35df39" stroke="#03aa10" /><rect x="368.0" y="506.5" width="12.0" height="3" fill="#80c9ff" stroke="#0b6cba" /><rect x="342.0" y="534.5" width="12.0" height="3" fill="#ff3c3c" stroke="#c71f1f" /><rect x="355.0" y="562.5" width="12.0" height="3" fill="#35df39" stroke="#03aa10" /><rect x="368.0" y="590.5" width="12.0" height="3" fill="#80c9ff" stroke="#0b6cba" /><rect x="342.0" y="619.0" width="12.0" height="3" fill="#ff3c3c" stroke="#c71f1f" /><rect x="368.0" y="647.0" width="12.0" height="3" fill="#80c9ff" stroke="#0b6cba" /><rect x="355.0" y="675.0" width="12.0" height="3" fill="#35df39" stroke="#03aa10" /><rect x="355.0" y="703.0" width="12.0" height="3" fill="#35df39" stroke="#03aa10" /><rect x="368.0" y="731.5" width="12.0" height="3" fill="#80c9ff" stroke="#0b6cba" /><rect x="355.0" y="759.5" width="12.0" height="3" fill="#35df39" stroke="#03aa10" /><rect x="342.0" y="787.5" width="12.0" height="3" fill="#ff3c3c" stroke="#c71f1f" /><rect x="342.0" y="815.5" width="12.0" height="3" fill="#ff3c3c" stroke="#c71f1f" /><rect x="355.0" y="844.0" width="12.0" height="3" fill="#35df39" stroke="#03aa10" /><rect x="342.0" y="872.0" width="12.0" height="3" fill="#ff3c3c" stroke="#c71f1f" /><rect x="482.0" y="0.0" width="12.0" height="3" fill="#80c9ff" stroke="#0b6cba" /><rect x="482.0" y="28.0" width="12.0" height="3" fill="#80c9ff" stroke="#0b6cba" /><rect x="482.0" y="56.5" width="12.0" height="3" fill="#80c9ff" stroke="#0b6cba" /><rect x="482.0" y="84.5" width="12.0" height="3" fill="#80c9ff" stroke="#0b6cba" /><rect x="469.0" y="169.0" width="12.0" height="3" fill="#35df39" stroke="#03aa10" /><rect x="456.0" y="225.0" width="12.0" height="3" fill="#ff3c3c" stroke="#c71f1f" /><rect x="482.0" y="253.0" width="12.0" height="3" fill="#80c9ff" stroke="#0b6cba" /><rect x="469.0" y="281.5" width="12.0" height="3" fill="#35df39" stroke="#03aa10" /><rect x="456.0" y="309.5" width="12.0" height="3" fill="#ff3c3c" stroke="#c71f1f" /><rect x="482.0" y="337.5" width="12.0" height="3" fill="#80c9ff" stroke="#0b6cba" /><rect x="469.0" y="365.5" width="12.0" height="3" fill="#35df39" stroke="#03aa10" /><rect x="456.0" y="394.0" width="12.0" height="3" fill="#ff3c3c" stroke="#c71f1f" /><rect x="482.0" y="422.0" width="12.0" height="3" fill="#80c9ff" stroke="#0b6cba" /><rect x="469.0" y="450.0" width="12.0" height="3" fill="#35df39" stroke="#03aa10" /><rect x="495.0" y="478.0" width="12.0" height="3" fill="#fff874" stroke="#eb9c26" /><rect x="482.0" y="506.5" width="12.0" height="3" fill="#80c9ff" stroke="#0b6cba" /><rect x="469.0" y="534.5" width="12.0" height="3" fill="#35df39" stroke="#03aa10" /><rect x="495.0" y="562.5" width="12.0" height="3" fill="#fff874" stroke="#eb9c26" /><rect x="482.0" y="590.5" width="12.0" height="3" fill="#80c9ff" stroke="#0b6cba" /><rect x="469.0" y="619.0" width="12.0" height="3" fill="#35df39" stroke="#03aa10" /><rect x="495.0" y="647.0" width="12.0" height="3" fill="#fff874" stroke="#eb9c26" /><rect x="482.0" y="675.0" width="12.0" height="3" fill="#80c9ff" stroke="#0b6cba" /><rect x="482.0" y="703.0" width="12.0" height="3" fill="#80c9ff" stroke="#0b6cba" /><rect x="482.0" y="731.5" width="12.0" height="3" fill="#80c9ff" stroke="#0b6cba" /><rect x="495.0" y="787.5" width="12.0" height="3" fill="#fff874" stroke="#eb9c26" /><rect x="495.0" y="815.5" width="12.0" height="3" fill="#fff874" stroke="#eb9c26" /><rect x="495.0" y="844.0" width="12.0" height="3" fill="#fff874" stroke="#eb9c26" /><rect x="622.0" y="0.0" width="12.0" height="3" fill="#ff83f4" stroke="#d002bc" /><rect x="622.0" y="28.0" width="12.0" height="3" fill="#ff83f4" stroke="#d002bc" /><rect x="609.0" y="84.5" width="12.0" height="101.25" fill="#fff874" stroke="#eb9c26" /><rect x="596.0" y="197.0" width="12.0" height="3" fill="#80c9ff" stroke="#0b6cba" /><rect x="596.0" y="225.0" width="12.0" height="3" fill="#80c9ff" stroke="#0b6cba" /><rect x="583.0" y="253.0" width="12.0" height="3" fill="#35df39" stroke="#03aa10" /><rect x="609.0" y="281.5" width="12.0" height="3" fill="#fff874" stroke="#eb9c26" /><rect x="596.0" y="309.5" width="12.0" height="101.25" fill="#80c9ff" stroke="#0b6cba" /><rect x="609.0" y="422.0" width="12.0" height="3" fill="#fff874" stroke="#eb9c26" /><rect x="609.0" y="450.0" width="12.0" height="3" fill="#fff874" stroke="#eb9c26" /><rect x="609.0" y="478.0" width="12.0" height="3" fill="#fff874" stroke="#eb9c26" /><rect x="596.0" y="506.5" width="12.0" height="3" fill="#80c9ff" stroke="#0b6cba" /><rect x="596.0" y="534.5" width="12.0" height="3" fill="#80c9ff" stroke="#0b6cba" /><rect x="583.0" y="562.5" width="12.0" height="3" fill="#35df39" stroke="#03aa10" /><rect x="583.0" y="590.5" width="12.0" height="3" fill="#35df39" stroke="#03aa10" /><rect x="596.0" y="619.0" width="12.0" height="3" fill="#80c9ff" stroke="#0b6cba" /><rect x="596.0" y="647.0" width="12.0" height="3" fill="#80c9ff" stroke="#0b6cba" /><rect x="583.0" y="675.0" width="12.0" height="3" fill="#35df39" stroke="#03aa10" /><rect x="596.0" y="703.0" width="12.0" height="3" fill="#80c9ff" stroke="#0b6cba" /><rect x="609.0" y="731.5" width="12.0" height="3" fill="#fff874" stroke="#eb9c26" /><rect x="596.0" y="759.5" width="12.0" height="3" fill="#80c9ff" stroke="#0b6cba" /><rect x="583.0" y="787.5" width="12.0" height="3" fill="#35df39" stroke="#03aa10" /><rect x="596.0" y="815.5" width="12.0" height="3" fill="#80c9ff" stroke="#0b6cba" /><rect x="609.0" y="844.0" width="12.0" height="3" fill="#fff874" stroke="#eb9c26" /><rect x="596.0" y="872.0" width="12.0" height="3" fill="#80c9ff" stroke="#0b6cba" /><rect x="684.0" y="0.0" width="12.0" height="3" fill="#ff3c3c" stroke="#c71f1f" /><rect x="697.0" y="28.0" width="12.0" height="3" fill="#35df39" stroke="#03aa10" /><rect x="710.0" y="56.5" width="12.0" height="3" fill="#80c9ff" stroke="#0b6cba" /><rect x="697.0" y="84.5" width="12.0" height="3" fill="#35df39" stroke="#03aa10" /><rect x="710.0" y="112.5" width="12.0" height="3" fill="#80c9ff" stroke="#0b6cba" /><rect x="710.0" y="140.5" width="12.0" height="3" fill="#80c9ff" stroke="#0b6cba" /><rect x="697.0" y="169.0" width="12.0" height="3" fill="#35df39" stroke="#03aa10" /><rect x="684.0" y="197.0" width="12.0" height="3" fill="#ff3c3c" stroke="#c71f1f" /><rect x="710.0" y="225.0" width="12.0" height="3" fill="#80c9ff" stroke="#0b6cba" /><rect x="697.0" y="253.0" width="12.0" height="3" fill="#35df39" stroke="#03aa10" /><rect x="723.0" y="281.5" width="12.0" height="3" fill="#fff874" stroke="#eb9c26" /><rect x="710.0" y="309.5" width="12.0" height="101.25" fill="#80c9ff" stroke="#0b6cba" /><rect x="723.0" y="422.0" width="12.0" height="3" fill="#fff874" stroke="#eb9c26" /><rect x="723.0" y="450.0" width="12.0" height="3" fill="#fff874" stroke="#eb9c26" /><rect x="723.0" y="478.0" width="12.0" height="3" fill="#fff874" stroke="#eb9c26" /><rect x="710.0" y="506.5" width="12.0" height="3" fill="#80c9ff" stroke="#0b6cba" /><rect x="710.0" y="534.5" width="12.0" height="3" fill="#80c9ff" stroke="#0b6cba" /><rect x="697.0" y="562.5" width="12.0" height="3" fill="#35df39" stroke="#03aa10" /><rect x="697.0" y="590.5" width="12.0" height="3" fill="#35df39" stroke="#03aa10" /><rect x="710.0" y="619.0" width="12.0" height="3" fill="#80c9ff" stroke="#0b6cba" /><rect x="710.0" y="647.0" width="12.0" height="3" fill="#80c9ff" stroke="#0b6cba" /><rect x="697.0" y="675.0" width="12.0" height="3" fill="#35df39" stroke="#03aa10" /><rect x="710.0" y="703.0" width="12.0" height="3" fill="#80c9ff" stroke="#0b6cba" /><rect x="723.0" y="731.5" width="12.0" height="3" fill="#fff874" stroke="#eb9c26" /><rect x="710.0" y="759.5" width="12.0" height="3" fill="#80c9ff" stroke="#0b6cba" /><rect x="697.0" y="787.5" width="12.0" height="3" fill="#35df39" stroke="#03aa10" /><rect x="710.0" y="815.5" width="12.0" height="3" fill="#80c9ff" stroke="#0b6cba" /><rect x="723.0" y="844.0" width="12.0" height="3" fill="#fff874" stroke="#eb9c26" /><rect x="710.0" y="872.0" width="12.0" height="3" fill="#80c9ff" stroke="#0b6cba" /><rect x="798.0" y="0.0" width="12.0" height="3" fill="#ff3c3c" stroke="#c71f1f" /><rect x="811.0" y="28.0" width="12.0" height="3" fill="#35df39" stroke="#03aa10" /><rect x="824.0" y="56.5" width="12.0" height="3" fill="#80c9ff" stroke="#0b6cba" /><rect x="811.0" y="84.5" width="12.0" height="3" fill="#35df39" stroke="#03aa10" /><rect x="824.0" y="112.5" width="12.0" height="76.05" fill="#80c9ff" stroke="#0b6cba" /><rect x="824.0" y="197.0" width="12.0" height="3" fill="#80c9ff" stroke="#0b6cba" /><rect x="824.0" y="225.0" width="12.0" height="3" fill="#80c9ff" stroke="#0b6cba" /><rect x="811.0" y="253.0" width="12.0" height="3" fill="#35df39" stroke="#03aa10" /><rect x="837.0" y="281.5" width="12.0" height="3" fill="#fff874" stroke="#eb9c26" /><rect x="824.0" y="309.5" width="12.0" height="101.25" fill="#80c9ff" stroke="#0b6cba" /><rect x="837.0" y="422.0" width="12.0" height="3" fill="#fff874" stroke="#eb9c26" /><rect x="837.0" y="450.0" width="12.0" height="3" fill="#fff874" stroke="#eb9c26" /><rect x="837.0" y="478.0" width="12.0" height="3" fill="#fff874" stroke="#eb9c26" /><rect x="824.0" y="506.5" width="12.0" height="3" fill="#80c9ff" stroke="#0b6cba" /><rect x="824.0" y="534.5" width="12.0" height="3" fill="#80c9ff" stroke="#0b6cba" /><rect x="811.0" y="562.5" width="12.0" height="3" fill="#35df39" stroke="#03aa10" /><rect x="811.0" y="590.5" width="12.0" height="3" fill="#35df39" stroke="#03aa10" /><rect x="824.0" y="619.0" width="12.0" height="3" fill="#80c9ff" stroke="#0b6cba" /><rect x="824.0" y="647.0" width="12.0" height="3" fill="#80c9ff" stroke="#0b6cba" /><rect x="837.0" y="675.0" width="12.0" height="101.25" fill="#fff874" stroke="#eb9c26" /><rect x="824.0" y="787.5" width="12.0" height="3" fill="#80c9ff" stroke="#0b6cba" /><rect x="837.0" y="829.5" width="12.0" height="3" fill="#fff874" stroke="#eb9c26" /><rect x="824.0" y="872.0" width="12.0" height="3" fill="#80c9ff" stroke="#0b6cba" /><rect x="925.0" y="0.0" width="12.0" height="152.1" fill="#35df39" stroke="#03aa10" /><rect x="938.0" y="197.0" width="12.0" height="3" fill="#80c9ff" stroke="#0b6cba" /><rect x="938.0" y="225.0" width="12.0" height="3" fill="#80c9ff" stroke="#0b6cba" /><rect x="925.0" y="253.0" width="12.0" height="3" fill="#35df39" stroke="#03aa10" /><rect x="951.0" y="281.5" width="12.0" height="3" fill="#fff874" stroke="#eb9c26" /><rect x="938.0" y="309.5" width="12.0" height="126.45" fill="#80c9ff" stroke="#0b6cba" /><rect x="912.0" y="450.0" width="12.0" height="202.5" fill="#ff3c3c" stroke="#c71f1f" /><rect x="964.0" y="675.0" width="12.0" height="3" fill="#ff83f4" stroke="#d002bc" /><rect x="951.0" y="759.5" width="12.0" height="3" fill="#fff874" stroke="#eb9c26" /><rect x="951.0" y="787.5" width="12.0" height="3" fill="#fff874" stroke="#eb9c26" /><rect x="938.0" y="872.0" width="12.0" height="3" fill="#80c9ff" stroke="#0b6cba" /><rect x="1052.0" y="28.0" width="12.0" height="3" fill="#80c9ff" stroke="#0b6cba" /><rect x="1065.0" y="84.5" width="12.0" height="3" fill="#fff874" stroke="#eb9c26" /><rect x="1065.0" y="112.5" width="12.0" height="101.25" fill="#fff874" stroke="#eb9c26" /><rect x="1026.0" y="225.0" width="12.0" height="3" fill="#ff3c3c" stroke="#c71f1f" /><rect x="1039.0" y="309.5" width="12.0" height="3" fill="#35df39" stroke="#03aa10" /><rect x="1026.0" y="365.5" width="12.0" height="3" fill="#ff3c3c" stroke="#c71f1f" /><rect x="1052.0" y="422.0" width="12.0" height="3" fill="#80c9ff" stroke="#0b6cba" /><rect x="1052.0" y="506.5" width="12.0" height="3" fill="#80c9ff" stroke="#0b6cba" /><rect x="1039.0" y="562.5" width="12.0" height="3" fill="#35df39" stroke="#03aa10" /><rect x="1039.0" y="619.0" width="12.0" height="3" fill="#35df39" stroke="#03aa10" /><rect x="1026.0" y="675.0" width="12.0" height="3" fill="#ff3c3c" stroke="#c71f1f" /><rect x="1039.0" y="703.0" width="12.0" height="3" fill="#35df39" stroke="#03aa10" /><rect x="1026.0" y="731.5" width="12.0" height="3" fill="#ff3c3c" stroke="#c71f1f" /><rect x="1052.0" y="759.5" width="12.0" height="3" fill="#80c9ff" stroke="#0b6cba" /><rect x="1026.0" y="815.5" width="12.0" height="3" fill="#ff3c3c" stroke="#c71f1f" /><rect x="1052.0" y="872.0" width="12.0" height="3" fill="#80c9ff" stroke="#0b6cba" /><rect x="1166.0" y="56.5" width="12.0" height="3" fill="#80c9ff" stroke="#0b6cba" /><rect x="1153.0" y="112.5" width="12.0" height="3" fill="#35df39" stroke="#03aa10" /><rect x="1140.0" y="169.0" width="12.0" height="3" fill="#ff3c3c" stroke="#c71f1f" /><rect x="1140.0" y="225.0" width="12.0" height="3" fill="#ff3c3c" stroke="#c71f1f" /><rect x="1153.0" y="281.5" width="12.0" height="3" fill="#35df39" stroke="#03aa10" /><rect x="1166.0" y="309.5" width="12.0" height="3" fill="#80c9ff" stroke="#0b6cba" /><rect x="1153.0" y="365.5" width="12.0" height="3" fill="#35df39" stroke="#03aa10" /><rect x="1179.0" y="422.0" width="12.0" height="3" fill="#fff874" stroke="#eb9c26" /><rect x="1166.0" y="506.5" width="12.0" height="3" fill="#80c9ff" stroke="#0b6cba" /><rect x="1153.0" y="562.5" width="12.0" height="3" fill="#35df39" stroke="#03aa10" /><rect x="1140.0" y="619.0" width="12.0" height="3" fill="#ff3c3c" stroke="#c71f1f" /><rect x="1179.0" y="675.0" width="12.0" height="101.25" fill="#fff874" stroke="#eb9c26" /><rect x="1166.0" y="787.5" width="12.0" height="112.5" fill="#80c9ff" stroke="#0b6cba" /><rect x="1267.0" y="0.0" width="12.0" height="101.25" fill="#35df39" stroke="#03aa10" /><rect x="1254.0" y="112.5" width="12.0" height="101.25" fill="#ff3c3c" stroke="#c71f1f" /><rect x="1293.0" y="225.0" width="12.0" height="3" fill="#fff874" stroke="#eb9c26" /><rect x="1293.0" y="281.5" width="12.0" height="3" fill="#fff874" stroke="#eb9c26" /><rect x="1293.0" y="337.5" width="12.0" height="3" fill="#fff874" stroke="#eb9c26" /><rect x="1293.0" y="394.0" width="12.0" height="3" fill="#fff874" stroke="#eb9c26" /><rect x="1280.0" y="450.0" width="12.0" height="3" fill="#80c9ff" stroke="#0b6cba" /><rect x="1280.0" y="506.5" width="12.0" height="3" fill="#80c9ff" stroke="#0b6cba" /><rect x="1280.0" y="562.5" width="12.0" height="3" fill="#80c9ff" stroke="#0b6cba" /><rect x="1280.0" y="619.0" width="12.0" height="3" fill="#80c9ff" stroke="#0b6cba" /><rect x="1267.0" y="675.0" width="12.0" height="3" fill="#35df39" stroke="#03aa10" /><rect x="1267.0" y="731.5" width="12.0" height="3" fill="#35df39" stroke="#03aa10" /><rect x="1267.0" y="787.5" width="12.0" height="3" fill="#35df39" stroke="#03aa10" /><rect x="1267.0" y="844.0" width="12.0" height="3" fill="#35df39" stroke="#03aa10" /><rect x="1368.0" y="0.0" width="12.0" height="3" fill="#ff3c3c" stroke="#c71f1f" /><rect x="1368.0" y="56.5" width="12.0" height="3" fill="#ff3c3c" stroke="#c71f1f" /><rect x="1381.0" y="112.5" width="12.0" height="3" fill="#35df39" stroke="#03aa10" /><rect x="1394.0" y="169.0" width="12.0" height="3" fill="#80c9ff" stroke="#0b6cba" /><rect x="1420.0" y="225.0" width="12.0" height="3" fill="#ff83f4" stroke="#d002bc" /><rect x="1420.0" y="281.5" width="12.0" height="3" fill="#ff83f4" stroke="#d002bc" /><rect x="1420.0" y="337.5" width="12.0" height="3" fill="#ff83f4" stroke="#d002bc" /><rect x="1420.0" y="394.0" width="12.0" height="3" fill="#ff83f4" stroke="#d002bc" /><rect x="1407.0" y="450.0" width="12.0" height="3" fill="#fff874" stroke="#eb9c26" /><rect x="1407.0" y="506.5" width="12.0" height="3" fill="#fff874" stroke="#eb9c26" /><rect x="1407.0" y="562.5" width="12.0" height="3" fill="#fff874" stroke="#eb9c26" /><rect x="1407.0" y="619.0" width="12.0" height="3" fill="#fff874" stroke="#eb9c26" /><rect x="1394.0" y="675.0" width="12.0" height="3" fill="#80c9ff" stroke="#0b6cba" /><rect x="1394.0" y="731.5" width="12.0" height="3" fill="#80c9ff" stroke="#0b6cba" /><rect x="1394.0" y="787.5" width="12.0" height="3" fill="#80c9ff" stroke="#0b6cba" /><rect x="1394.0" y="844.0" width="12.0" height="3" fill="#80c9ff" stroke="#0b6cba" /><rect x="1495.0" y="0.0" width="12.0" height="3" fill="#35df39" stroke="#03aa10" /><rect x="1482.0" y="56.5" width="12.0" height="3" fill="#ff3c3c" stroke="#c71f1f" /><rect x="1495.0" y="112.5" width="12.0" height="3" fill="#35df39" stroke="#03aa10" /><rect x="1508.0" y="169.0" width="12.0" height="3" fill="#80c9ff" stroke="#0b6cba" /><rect x="1508.0" y="225.0" width="12.0" height="3" fill="#80c9ff" stroke="#0b6cba" /><rect x="1521.0" y="253.0" width="12.0" height="3" fill="#fff874" stroke="#eb9c26" /><rect x="1534.0" y="281.5" width="12.0" height="3" fill="#ff83f4" stroke="#d002bc" /><rect x="1508.0" y="309.5" width="12.0" height="3" fill="#80c9ff" stroke="#0b6cba" /><rect x="1521.0" y="337.5" width="12.0" height="3" fill="#fff874" stroke="#eb9c26" /><rect x="1534.0" y="365.5" width="12.0" height="3" fill="#ff83f4" stroke="#d002bc" /><rect x="1508.0" y="394.0" width="12.0" height="3" fill="#80c9ff" stroke="#0b6cba" /><rect x="1534.0" y="422.0" width="12.0" height="3" fill="#ff83f4" stroke="#d002bc" /><rect x="1495.0" y="450.0" width="12.0" height="3" fill="#35df39" stroke="#03aa10" /><rect x="1508.0" y="478.0" width="12.0" height="3" fill="#80c9ff" stroke="#0b6cba" /><rect x="1521.0" y="506.5" width="12.0" height="3" fill="#fff874" stroke="#eb9c26" /><rect x="1495.0" y="534.5" width="12.0" height="3" fill="#35df39" stroke="#03aa10" /><rect x="1508.0" y="562.5" width="12.0" height="3" fill="#80c9ff" stroke="#0b6cba" /><rect x="1521.0" y="590.5" width="12.0" height="3" fill="#fff874" stroke="#eb9c26" /><rect x="1495.0" y="619.0" width="12.0" height="3" fill="#35df39" stroke="#03aa10" /><rect x="1521.0" y="647.0" width="12.0" height="3" fill="#fff874" stroke="#eb9c26" /><rect x="1482.0" y="675.0" width="12.0" height="3" fill="#ff3c3c" stroke="#c71f1f" /><rect x="1495.0" y="703.0" width="12.0" height="3" fill="#35df39" stroke="#03aa10" /><rect x="1508.0" y="731.5" width="12.0" height="3" fill="#80c9ff" stroke="#0b6cba" /><rect x="1482.0" y="759.5" width="12.0" height="3" fill="#ff3c3c" stroke="#c71f1f" /><rect x="1495.0" y="787.5" width="12.0" height="3" fill="#35df39" stroke="#03aa10" /><rect x="1508.0" y="815.5" width="12.0" height="3" fill="#80c9ff" stroke="#0b6cba" /><rect x="1482.0" y="844.0" width="12.0" height="3" fill="#ff3c3c" stroke="#c71f1f" /><rect x="1508.0" y="872.0" width="12.0" height="3" fill="#80c9ff" stroke="#0b6cba" /><rect x="1609.0" y="0.0" width="12.0" height="3" fill="#35df39" stroke="#03aa10" /><rect x="1609.0" y="28.0" width="12.0" height="3" fill="#35df39" stroke="#03aa10" /><rect x="1622.0" y="56.5" width="12.0" height="3" fill="#80c9ff" stroke="#0b6cba" /><rect x="1609.0" y="84.5" width="12.0" height="3" fill="#35df39" stroke="#03aa10" /><rect x="1609.0" y="112.5" width="12.0" height="3" fill="#35df39" stroke="#03aa10" /><rect x="1622.0" y="140.5" width="12.0" height="3" fill="#80c9ff" stroke="#0b6cba" /><rect x="1609.0" y="169.0" width="12.0" height="3" fill="#35df39" stroke="#03aa10" /><rect x="1622.0" y="197.0" width="12.0" height="3" fill="#80c9ff" stroke="#0b6cba" /><rect x="1622.0" y="225.0" width="12.0" height="3" fill="#80c9ff" stroke="#0b6cba" /><rect x="1635.0" y="253.0" width="12.0" height="3" fill="#fff874" stroke="#eb9c26" /><rect x="1648.0" y="281.5" width="12.0" height="3" fill="#ff83f4" stroke="#d002bc" /><rect x="1622.0" y="309.5" width="12.0" height="3" fill="#80c9ff" stroke="#0b6cba" /><rect x="1635.0" y="337.5" width="12.0" height="3" fill="#fff874" stroke="#eb9c26" /><rect x="1648.0" y="365.5" width="12.0" height="3" fill="#ff83f4" stroke="#d002bc" /><rect x="1622.0" y="394.0" width="12.0" height="3" fill="#80c9ff" stroke="#0b6cba" /><rect x="1609.0" y="450.0" width="12.0" height="3" fill="#35df39" stroke="#03aa10" /><rect x="1622.0" y="478.0" width="12.0" height="3" fill="#80c9ff" stroke="#0b6cba" /><rect x="1635.0" y="506.5" width="12.0" height="3" fill="#fff874" stroke="#eb9c26" /><rect x="1609.0" y="534.5" width="12.0" height="3" fill="#35df39" stroke="#03aa10" /><rect x="1622.0" y="562.5" width="12.0" height="3" fill="#80c9ff" stroke="#0b6cba" /><rect x="1635.0" y="590.5" width="12.0" height="3" fill="#fff874" stroke="#eb9c26" /><rect x="1609.0" y="619.0" width="12.0" height="3" fill="#35df39" stroke="#03aa10" /><rect x="1635.0" y="647.0" width="12.0" height="3" fill="#fff874" stroke="#eb9c26" /><rect x="1596.0" y="675.0" width="12.0" height="3" fill="#ff3c3c" stroke="#c71f1f" /><rect x="1609.0" y="703.0" width="12.0" height="3" fill="#35df39" stroke="#03aa10" /><rect x="1622.0" y="731.5" width="12.0" height="3" fill="#80c9ff" stroke="#0b6cba" /><rect x="1596.0" y="759.5" width="12.0" height="3" fill="#ff3c3c" stroke="#c71f1f" /><rect x="1609.0" y="787.5" width="12.0" height="3" fill="#35df39" stroke="#03aa10" /><rect x="1622.0" y="815.5" width="12.0" height="3" fill="#80c9ff" stroke="#0b6cba" /><rect x="1596.0" y="844.0" width="12.0" height="3" fill="#ff3c3c" stroke="#c71f1f" /><rect x="1622.0" y="872.0" width="12.0" height="3" fill="#80c9ff" stroke="#0b6cba" /><rect x="1723.0" y="0.0" width="12.0" height="126.45" fill="#35df39" stroke="#03aa10" /><rect x="1736.0" y="140.5" width="12.0" height="3" fill="#80c9ff" stroke="#0b6cba" /><rect x="1736.0" y="225.0" width="12.0" height="3" fill="#80c9ff" stroke="#0b6cba" /><rect x="1723.0" y="253.0" width="12.0" height="3" fill="#35df39" stroke="#03aa10" /><rect x="1749.0" y="281.5" width="12.0" height="3" fill="#fff874" stroke="#eb9c26" /><rect x="1736.0" y="309.5" width="12.0" height="101.25" fill="#80c9ff" stroke="#0b6cba" /><rect x="1749.0" y="422.0" width="12.0" height="3" fill="#fff874" stroke="#eb9c26" /><rect x="1749.0" y="450.0" width="12.0" height="3" fill="#fff874" stroke="#eb9c26" /><rect x="1749.0" y="478.0" width="12.0" height="3" fill="#fff874" stroke="#eb9c26" /><rect x="1736.0" y="506.5" width="12.0" height="3" fill="#80c9ff" stroke="#0b6cba" /><rect x="1736.0" y="534.5" width="12.0" height="3" fill="#80c9ff" stroke="#0b6cba" /><rect x="1723.0" y="562.5" width="12.0" height="3" fill="#35df39" stroke="#03aa10" /><rect x="1723.0" y="590.5" width="12.0" height="3" fill="#35df39" stroke="#03aa10" /><rect x="1736.0" y="619.0" width="12.0" height="3" fill="#80c9ff" stroke="#0b6cba" /><rect x="1736.0" y="647.0" width="12.0" height="3" fill="#80c9ff" stroke="#0b6cba" /><rect x="1723.0" y="675.0" width="12.0" height="3" fill="#35df39" stroke="#03aa10" /><rect x="1736.0" y="703.0" width="12.0" height="3" fill="#80c9ff" stroke="#0b6cba" /><rect x="1749.0" y="731.5" width="12.0" height="3" fill="#fff874" stroke="#eb9c26" /><rect x="1736.0" y="759.5" width="12.0" height="3" fill="#80c9ff" stroke="#0b6cba" /><rect x="1723.0" y="787.5" width="12.0" height="3" fill="#35df39" stroke="#03aa10" /><rect x="1736.0" y="815.5" width="12.0" height="3" fill="#80c9ff" stroke="#0b6cba" /><rect x="1749.0" y="844.0" width="12.0" height="3" fill="#fff874" stroke="#eb9c26" /><rect x="1736.0" y="872.0" width="12.0" height="3" fill="#80c9ff" stroke="#0b6cba" /><rect x="1824.0" y="0.0" width="12.0" height="3" fill="#ff3c3c" stroke="#c71f1f" /><rect x="1837.0" y="28.0" width="12.0" height="3" fill="#35df39" stroke="#03aa10" /><rect x="1850.0" y="56.5" width="12.0" height="3" fill="#80c9ff" stroke="#0b6cba" /><rect x="1837.0" y="84.5" width="12.0" height="3" fill="#35df39" stroke="#03aa10" /><rect x="1850.0" y="112.5" width="12.0" height="3" fill="#80c9ff" stroke="#0b6cba" /><rect x="1850.0" y="140.5" width="12.0" height="3" fill="#80c9ff" stroke="#0b6cba" /><rect x="1837.0" y="169.0" width="12.0" height="3" fill="#35df39" stroke="#03aa10" /><rect x="1824.0" y="197.0" width="12.0" height="3" fill="#ff3c3c" stroke="#c71f1f" /><rect x="1850.0" y="225.0" width="12.0" height="3" fill="#80c9ff" stroke="#0b6cba" /><rect x="1837.0" y="253.0" width="12.0" height="3" fill="#35df39" stroke="#03aa10" /><rect x="1863.0" y="281.5" width="12.0" height="3" fill="#fff874" stroke="#eb9c26" /><rect x="1850.0" y="309.5" width="12.0" height="101.25" fill="#80c9ff" stroke="#0b6cba" /><rect x="1863.0" y="422.0" width="12.0" height="3" fill="#fff874" stroke="#eb9c26" /><rect x="1863.0" y="450.0" width="12.0" height="3" fill="#fff874" stroke="#eb9c26" /><rect x="1863.0" y="478.0" width="12.0" height="3" fill="#fff874" stroke="#eb9c26" /><rect x="1850.0" y="506.5" width="12.0" height="3" fill="#80c9ff" stroke="#0b6cba" /><rect x="1850.0" y="534.5" width="12.0" height="3" fill="#80c9ff" stroke="#0b6cba" /><rect x="1837.0" y="562.5" width="12.0" height="3" fill="#35df39" stroke="#03aa10" /><rect x="1837.0" y="590.5" width="12.0" height="3" fill="#35df39" stroke="#03aa10" /><rect x="1850.0" y="619.0" width="12.0" height="3" fill="#80c9ff" stroke="#0b6cba" /><rect x="1850.0" y="647.0" width="12.0" height="3" fill="#80c9ff" stroke="#0b6cba" /><rect x="1837.0" y="675.0" width="12.0" height="3" fill="#35df39" stroke="#03aa10" /><rect x="1850.0" y="703.0" width="12.0" height="3" fill="#80c9ff" stroke="#0b6cba" /><rect x="1863.0" y="731.5" width="12.0" height="3" fill="#fff874" stroke="#eb9c26" /><rect x="1850.0" y="759.5" width="12.0" height="3" fill="#80c9ff" stroke="#0b6cba" /><rect x="1837.0" y="787.5" width="12.0" height="3" fill="#35df39" stroke="#03aa10" /><rect x="1850.0" y="815.5" width="12.0" height="3" fill="#80c9ff" stroke="#0b6cba" /><rect x="1863.0" y="844.0" width="12.0" height="3" fill="#fff874" stroke="#eb9c26" /><rect x="1850.0" y="872.0" width="12.0" height="3" fill="#80c9ff" stroke="#0b6cba" /><rect x="1938.0" y="0.0" width="12.0" height="3" fill="#ff3c3c" stroke="#c71f1f" /><rect x="1951.0" y="28.0" width="12.0" height="3" fill="#35df39" stroke="#03aa10" /><rect x="1964.0" y="56.5" width="12.0" height="3" fill="#80c9ff" stroke="#0b6cba" /><rect x="1951.0" y="84.5" width="12.0" height="3" fill="#35df39" stroke="#03aa10" /><rect x="1964.0" y="112.5" width="12.0" height="76.05" fill="#80c9ff" stroke="#0b6cba" /><rect x="1964.0" y="197.0" width="12.0" height="3" fill="#80c9ff" stroke="#0b6cba" /><rect x="1964.0" y="225.0" width="12.0" height="3" fill="#80c9ff" stroke="#0b6cba" /><rect x="1951.0" y="253.0" width="12.0" height="3" fill="#35df39" stroke="#03aa10" /><rect x="1977.0" y="281.5" width="12.0" height="3" fill="#fff874" stroke="#eb9c26" /><rect x="1964.0" y="309.5" width="12.0" height="101.25" fill="#80c9ff" stroke="#0b6cba" /><rect x="1977.0" y="422.0" width="12.0" height="3" fill="#fff874" stroke="#eb9c26" /><rect x="1977.0" y="450.0" width="12.0" height="3" fill="#fff874" stroke="#eb9c26" /><rect x="1977.0" y="478.0" width="12.0" height="3" fill="#fff874" stroke="#eb9c26" /><rect x="1964.0" y="506.5" width="12.0" height="3" fill="#80c9ff" stroke="#0b6cba" /><rect x="1964.0" y="534.5" width="12.0" height="3" fill="#80c9ff" stroke="#0b6cba" /><rect x="1951.0" y="562.5" width="12.0" height="3" fill="#35df39" stroke="#03aa10" /><rect x="1951.0" y="590.5" width="12.0" height="3" fill="#35df39" stroke="#03aa10" /><rect x="1964.0" y="619.0" width="12.0" height="3" fill="#80c9ff" stroke="#0b6cba" /><rect x="1964.0" y="647.0" width="12.0" height="3" fill="#80c9ff" stroke="#0b6cba" /><rect x="1977.0" y="675.0" width="12.0" height="101.25" fill="#fff874" stroke="#eb9c26" /><rect x="1964.0" y="787.5" width="12.0" height="3" fill="#80c9ff" stroke="#0b6cba" /><rect x="1977.0" y="829.5" width="12.0" height="3" fill="#fff874" stroke="#eb9c26" /><rect x="1964.0" y="872.0" width="12.0" height="3" fill="#80c9ff" stroke="#0b6cba" /><rect x="2065.0" y="0.0" width="12.0" height="152.1" fill="#35df39" stroke="#03aa10" /><rect x="2078.0" y="197.0" width="12.0" height="3" fill="#80c9ff" stroke="#0b6cba" /><rect x="2078.0" y="225.0" width="12.0" height="3" fill="#80c9ff" stroke="#0b6cba" /><rect x="2065.0" y="253.0" width="12.0" height="3" fill="#35df39" stroke="#03aa10" /><rect x="2091.0" y="281.5" width="12.0" height="3" fill="#fff874" stroke="#eb9c26" /><rect x="2078.0" y="309.5" width="12.0" height="126.45" fill="#80c9ff" stroke="#0b6cba" /><rect x="2052.0" y="450.0" width="12.0" height="202.5" fill="#ff3c3c" stroke="#c71f1f" /><rect x="2104.0" y="675.0" width="12.0" height="3" fill="#ff83f4" stroke="#d002bc" /><rect x="2091.0" y="759.5" width="12.0" height="3" fill="#fff874" stroke="#eb9c26" /><rect x="2091.0" y="787.5" width="12.0" height="3" fill="#fff874" stroke="#eb9c26" /><rect x="2078.0" y="872.0" width="12.0" height="3" fill="#80c9ff" stroke="#0b6cba" /><rect x="2192.0" y="28.0" width="12.0" height="3" fill="#80c9ff" stroke="#0b6cba" /><rect x="2205.0" y="84.5" width="12.0" height="3" fill="#fff874" stroke="#eb9c26" /><rect x="2205.0" y="112.5" width="12.0" height="101.25" fill="#fff874" stroke="#eb9c26" /><rect x="2179.0" y="225.0" width="12.0" height="3" fill="#35df39" stroke="#03aa10" /><rect x="2179.0" y="239.0" width="12.0" height="3" fill="#35df39" stroke="#03aa10" /><rect x="2179.0" y="253.0" width="12.0" height="3" fill="#35df39" stroke="#03aa10" /><rect x="2179.0" y="267.0" width="12.0" height="3" fill="#35df39" stroke="#03aa10" /><rect x="2179.0" y="281.5" width="12.0" height="3" fill="#35df39" stroke="#03aa10" /><rect x="2192.0" y="365.5" width="12.0" height="3" fill="#80c9ff" stroke="#0b6cba" /><rect x="2179.0" y="450.0" width="12.0" height="3" fill="#35df39" stroke="#03aa10" /><rect x="2192.0" y="534.5" width="12.0" height="3" fill="#80c9ff" stroke="#0b6cba" /><rect x="2192.0" y="619.0" width="12.0" height="3" fill="#80c9ff" stroke="#0b6cba" /><rect x="2205.0" y="647.0" width="12.0" height="253.0" fill="#fff874" stroke="#eb9c26" /><rect x="2306.0" y="0.0" width="12.0" height="3" fill="#80c9ff" stroke="#0b6cba" /><rect x="2306.0" y="28.0" width="12.0" height="3" fill="#80c9ff" stroke="#0b6cba" /><rect x="2306.0" y="56.5" width="12.0" height="3" fill="#80c9ff" stroke="#0b6cba" /><rect x="2306.0" y="84.5" width="12.0" height="3" fill="#80c9ff" stroke="#0b6cba" /></svg>