<?xml version="1.0" encoding="UTF-8"?><svg xmlns="http://www.w3.org/2000/svg" xmlns:xlink="http://www.w3.org/1999/xlink"     width="2622" height="1075.0" viewBox="0 0 2622 1075.0"><defs></defs><rect x="0.0" y="257.0" width="12.0" height="3" fill="#ff3c3c" stroke="#c71f1f" /><rect x="0.0" y="273.0" width="12.0" height="3" fill="#ff3c3c" stroke="#c71f1f" /><rect x="13.0" y="305.5" width="12.0" height="3" fill="#35df39" stroke="#03aa10" /><rect x="13.0" y="321.5" width="12.0" height="3" fill="#35df39" stroke="#03aa10" /><rect x="0.0" y="353.5" width="12.0" height="3" fill="#ff3c3c" stroke="#c71f1f" /><rect x="0.0" y="369.5" width="12.0" height="3" fill="#ff3c3c" stroke="#c71f1f" /><rect x="13.0" y="402.0" width="12.0" height="3" fill="#35df39" stroke="#03aa10" /><rect x="13.0" y="418.0" width="12.0" height="3" fill="#35df39" stroke="#03aa10" /><rect x="26.0" y="450.0" width="12.0" height="3" fill="#80c9ff" stroke="#0b6cba" /><rect x="0.0" y="482.0" width="12.0" height="3" fill="#ff3c3c" stroke="#c71f1f" /><rect x="0.0" y="498.0" width="12.0" height="3" fill="#ff3c3c" stroke="#c71f1f" /><rect x="13.0" y="530.5" width="12.0" height="3" fill="#35df39" stroke="#03aa10" /><rect x="13.0" y="546.5" width="12.0" height="3" fill="#35df39" stroke="#03aa10" /><rect x="0.0" y="578.5" width="12.0" height="3" fill="#ff3c3c" stroke="#c71f1f" /><rect x="0.0" y="594.5" width="12.0" height="3" fill="#ff3c3c" stroke="#c71f1f" /><rect x="13.0" y="627.0" width="12.0" height="3" fill="#35df39" stroke="#03aa10" /><rect x="13.0" y="643.0" width="12.0" height="3" fill="#35df39" stroke="#03aa10" /><rect x="26.0" y="675.0" width="12.0" height="3" fill="#80c9ff" stroke="#0b6cba" /><rect x="0.0" y="707.0" width="12.0" height="3" fill="#ff3c3c" stroke="#c71f1f" /><rect x="0.0" y="723.0" width="12.0" height="3" fill="#ff3c3c" stroke="#c71f1f" /><rect x="13.0" y="755.5" width="12.0" height="3" fill="#35df39" stroke="#03aa10" /><rect x="13.0" y="771.5" width="12.0" height="3" fill="#35df39" stroke="#03aa10" /><rect x="0.0" y="803.5" width="12.0" height="3" fill="#ff3c3c" stroke="#c71f1f" /><rect x="0.0" y="819.5" width="12.0" height="3" fill="#ff3c3c" stroke="#c71f1f" /><rect x="13.0" y="852.0" width="12.0" height="3" fill="#35df39" stroke="#03aa10" /><rect x="13.0" y="868.0" width="12.0" height="3" fill="#35df39" stroke="#03aa10" /><rect x="26.0" y="900.0" width="12.0" height="3" fill="#80c9ff" stroke="#0b6cba" /><rect x="114.0" y="0.0" width="12.0" height="3" fill="#ff3c3c" stroke="#c71f1f" /><rect x="114.0" y="16.0" width="12.0" height="3" fill="#ff3c3c" stroke="#c71f1f" /><rect x="127.0" y="48.5" width="12.0" height="3" fill="#35df39" stroke="#03aa10" /><rect x="127.0" y="64.5" width="12.0" height="3" fill="#35df39" stroke="#03aa10" /><rect x="114.0" y="96.5" width="12.0" height="3" fill="#ff3c3c" stroke="#c71f1f" /><rect x="114.0" y="112.5" width="12.0" height="3" fill="#ff3c3c" stroke="#c71f1f" /><rect x="127.0" y="145.0" width="12.0" height="3" fill="#35df39" stroke="#03aa10" /><rect x="127.0" y="161.0" width="12.0" height="3" fill="#35df39" stroke="#03aa10" /><rect x="140.0" y="193.0" width="12.0" height="3" fill="#80c9ff" stroke="#0b6cba" /><rect x="127.0" y="225.0" width="12.0" height="3" fill="#35df39" stroke="#03aa10" /><rect x="127.0" y="241.0" width="12.0" height="3" fill="#35df39" stroke="#03aa10" /><rect x="140.0" y="273.5" width="12.0" height="3" fill="#80c9ff" stroke="#0b6cba" /><rect x="140.0" y="289.5" width="12.0" height="3" fill="#80c9ff" stroke="#0b6cba" /><rect x="127.0" y="321.5" width="12.0" height="3" fill="#35df39" stroke="#03aa10" /><rect x="127.0" y="337.5" width="12.0" height="3" fill="#35df39" stroke="#03aa10" /><rect x="140.0" y="370.0" width="12.0" height="3" fill="#80c9ff" stroke="#0b6cba" /><rect x="140.0" y="386.0" width="12.0" height="3" fill="#80c9ff" stroke="#0b6cba" /><rect x="153.0" y="418.0" width="12.0" height="3" fill="#fff874" stroke="#eb9c26" /><rect x="127.0" y="450.0" width="12.0" height="3" fill="#35df39" stroke="#03aa10" /><rect x="127.0" y="466.0" width="12.0" height="3" fill="#35df39" stroke="#03aa10" /><rect x="140.0" y="498.5" width="12.0" height="3" fill="#80c9ff" stroke="#0b6cba" /><rect x="140.0" y="514.5" width="12.0" height="3" fill="#80c9ff" stroke="#0b6cba" /><rect x="127.0" y="546.5" width="12.0" height="3" fill="#35df39" stroke="#03aa10" /><rect x="127.0" y="562.5" width="12.0" height="3" fill="#35df39" stroke="#03aa10" /><rect x="140.0" y="595.0" width="12.0" height="3" fill="#80c9ff" stroke="#0b6cba" /><rect x="140.0" y="611.0" width="12.0" height="3" fill="#80c9ff" stroke="#0b6cba" /><rect x="153.0" y="643.0" width="12.0" height="3" fill="#fff874" stroke="#eb9c26" /><rect x="140.0" y="675.0" width="12.0" height="3" fill="#80c9ff" stroke="#0b6cba" /><rect x="140.0" y="691.0" width="12.0" height="3" fill="#80c9ff" stroke="#0b6cba" /><rect x="114.0" y="739.5" width="12.0" height="3" fill="#ff3c3c" stroke="#c71f1f" /><rect x="127.0" y="803.5" width="12.0" height="130.5" fill="#35df39" stroke="#03aa10" /><rect x="140.0" y="948.5" width="12.0" height="3" fill="#80c9ff" stroke="#0b6cba" /><rect x="127.0" y="996.5" width="12.0" height="3" fill="#35df39" stroke="#03aa10" /><rect x="114.0" y="1045.0" width="12.0" height="3" fill="#ff3c3c" stroke="#c71f1f" /><rect x="241.0" y="71.0" width="12.0" height="3" fill="#35df39" stroke="#03aa10" /><rect x="241.0" y="82.5" width="12.0" height="3" fill="#35df39" stroke="#03aa10" /><rect x="241.0" y="94.5" width="12.0" height="3" fill="#35df39" stroke="#03aa10" /><rect x="241.0" y="106.5" width="12.0" height="138.6" fill="#35df39" stroke="#03aa10" /><rect x="254.0" y="260.5" width="12.0" height="3" fill="#80c9ff" stroke="#0b6cba" /><rect x="254.0" y="272.0" width="12.0" height="3" fill="#80c9ff" stroke="#0b6cba" /><rect x="254.0" y="284.0" width="12.0" height="3" fill="#80c9ff" stroke="#0b6cba" /><rect x="254.0" y="296.0" width="12.0" height="74.7" fill="#80c9ff" stroke="#0b6cba" /><rect x="241.0" y="379.0" width="12.0" height="3" fill="#35df39" stroke="#03aa10" /><rect x="254.0" y="379.0" width="12.0" height="3" fill="#80c9ff" stroke="#0b6cba" /><rect x="228.0" y="402.5" width="12.0" height="3" fill="#ff3c3c" stroke="#c71f1f" /><rect x="228.0" y="426.0" width="12.0" height="3" fill="#ff3c3c" stroke="#c71f1f" /><rect x="241.0" y="450.0" width="12.0" height="3" fill="#35df39" stroke="#03aa10" /><rect x="254.0" y="450.0" width="12.0" height="3" fill="#80c9ff" stroke="#0b6cba" /><rect x="228.0" y="473.5" width="12.0" height="3" fill="#ff3c3c" stroke="#c71f1f" /><rect x="228.0" y="497.0" width="12.0" height="3" fill="#ff3c3c" stroke="#c71f1f" /><rect x="241.0" y="521.0" width="12.0" height="3" fill="#35df39" stroke="#03aa10" /><rect x="254.0" y="521.0" width="12.0" height="3" fill="#80c9ff" stroke="#0b6cba" /><rect x="228.0" y="544.5" width="12.0" height="3" fill="#ff3c3c" stroke="#c71f1f" /><rect x="241.0" y="568.5" width="12.0" height="3" fill="#35df39" stroke="#03aa10" /><rect x="254.0" y="568.5" width="12.0" height="3" fill="#80c9ff" stroke="#0b6cba" /><rect x="228.0" y="592.0" width="12.0" height="3" fill="#ff3c3c" stroke="#c71f1f" /><rect x="228.0" y="615.5" width="12.0" height="3" fill="#ff3c3c" stroke="#c71f1f" /><rect x="241.0" y="639.5" width="12.0" height="3" fill="#35df39" stroke="#03aa10" /><rect x="254.0" y="639.5" width="12.0" height="3" fill="#80c9ff" stroke="#0b6cba" /><rect x="228.0" y="663.0" width="12.0" height="3" fill="#ff3c3c" stroke="#c71f1f" /><rect x="228.0" y="686.5" width="12.0" height="3" fill="#ff3c3c" stroke="#c71f1f" /><rect x="241.0" y="710.5" width="12.0" height="3" fill="#35df39" stroke="#03aa10" /><rect x="254.0" y="710.5" width="12.0" height="3" fill="#80c9ff" stroke="#0b6cba" /><rect x="228.0" y="734.0" width="12.0" height="3" fill="#ff3c3c" stroke="#c71f1f" /><rect x="368.0" y="71.5" width="12.0" height="3" fill="#80c9ff" stroke="#0b6cba" /><rect x="368.0" y="83.0" width="12.0" height="3" fill="#80c9ff" stroke="#0b6cba" /><rect x="368.0" y="95.0" width="12.0" height="3" fill="#80c9ff" stroke="#0b6cba" /><rect x="368.0" y="107.0" width="12.0" height="138.6" fill="#80c9ff" stroke="#0b6cba" /><rect x="381.0" y="261.0" width="12.0" height="3" fill="#fff874" stroke="#eb9c26" /><rect x="381.0" y="272.5" width="12.0" height="3" fill="#fff874" stroke="#eb9c26" /><rect x="381.0" y="284.5" width="12.0" height="3" fill="#fff874" stroke="#eb9c26" /><rect x="381.0" y="296.5" width="12.0" height="74.25" fill="#fff874" stroke="#eb9c26" /><rect x="355.0" y="379.0" width="12.0" height="3" fill="#35df39" stroke="#03aa10" /><rect x="368.0" y="379.0" width="12.0" height="3" fill="#80c9ff" stroke="#0b6cba" /><rect x="342.0" y="403.0" width="12.0" height="3" fill="#ff3c3c" stroke="#c71f1f" /><rect x="342.0" y="426.5" width="12.0" height="3" fill="#ff3c3c" stroke="#c71f1f" /><rect x="355.0" y="450.0" width="12.0" height="3" fill="#35df39" stroke="#03aa10" /><rect x="368.0" y="450.0" width="12.0" height="3" fill="#80c9ff" stroke="#0b6cba" /><rect x="342.0" y="474.0" width="12.0" height="3" fill="#ff3c3c" stroke="#c71f1f" /><rect x="342.0" y="497.5" width="12.0" height="3" fill="#ff3c3c" stroke="#c71f1f" /><rect x="355.0" y="521.5" width="12.0" height="3" fill="#35df39" stroke="#03aa10" /><rect x="368.0" y="521.5" width="12.0" height="3" fill="#80c9ff" stroke="#0b6cba" /><rect x="342.0" y="545.0" width="12.0" height="3" fill="#ff3c3c" stroke="#c71f1f" /><rect x="355.0" y="568.5" width="12.0" height="3" fill="#35df39" stroke="#03aa10" /><rect x="368.0" y="568.5" width="12.0" height="3" fill="#80c9ff" stroke="#0b6cba" /><rect x="342.0" y="592.5" width="12.0" height="3" fill="#ff3c3c" stroke="#c71f1f" /><rect x="342.0" y="616.0" width="12.0" height="3" fill="#ff3c3c" stroke="#c71f1f" /><rect x="355.0" y="639.5" width="12.0" height="3" fill="#35df39" stroke="#03aa10" /><rect x="368.0" y="639.5" width="12.0" height="3" fill="#80c9ff" stroke="#0b6cba" /><rect x="342.0" y="663.5" width="12.0" height="3" fill="#ff3c3c" stroke="#c71f1f" /><rect x="342.0" y="687.0" width="12.0" height="3" fill="#ff3c3c" stroke="#c71f1f" /><rect x="355.0" y="711.0" width="12.0" height="3" fill="#35df39" stroke="#03aa10" /><rect x="368.0" y="711.0" width="12.0" height="3" fill="#80c9ff" stroke="#0b6cba" /><rect x="342.0" y="734.5" width="12.0" height="3" fill="#ff3c3c" stroke="#c71f1f" /><rect x="469.0" y="0.0" width="12.0" height="93.60000000000001" fill="#35df39" stroke="#03aa10" /><rect x="469.0" y="104.0" width="12.0" height="117.0" fill="#35df39" stroke="#03aa10" /><rect x="482.0" y="234.0" width="12.0" height="94.05" fill="#80c9ff" stroke="#0b6cba" /><rect x="482.0" y="338.5" width="12.0" height="117.0" fill="#80c9ff" stroke="#0b6cba" /><rect x="495.0" y="468.5" width="12.0" height="175.5" fill="#fff874" stroke="#eb9c26" /><rect x="508.0" y="663.5" width="12.0" height="105.3" fill="#ff83f4" stroke="#d002bc" /><rect x="495.0" y="780.5" width="12.0" height="91.0" fill="#fff874" stroke="#eb9c26" /><rect x="622.0" y="0.0" width="12.0" height="175.5" fill="#ff83f4" stroke="#d002bc" /><rect x="570.0" y="195.0" width="12.0" height="3" fill="#ff3c3c" stroke="#c71f1f" /><rect x="583.0" y="221.0" width="12.0" height="3" fill="#35df39" stroke="#03aa10" /><rect x="583.0" y="234.0" width="12.0" height="3" fill="#35df39" stroke="#03aa10" /><rect x="596.0" y="260.0" width="12.0" height="3" fill="#80c9ff" stroke="#0b6cba" /><rect x="596.0" y="273.0" width="12.0" height="3" fill="#80c9ff" stroke="#0b6cba" /><rect x="609.0" y="299.0" width="12.0" height="3" fill="#fff874" stroke="#eb9c26" /><rect x="609.0" y="312.0" width="12.0" height="3" fill="#fff874" stroke="#eb9c26" /><rect x="622.0" y="338.0" width="12.0" height="3" fill="#ff83f4" stroke="#d002bc" /><rect x="570.0" y="390.0" width="12.0" height="3" fill="#ff3c3c" stroke="#c71f1f" /><rect x="583.0" y="416.0" width="12.0" height="3" fill="#35df39" stroke="#03aa10" /><rect x="583.0" y="429.0" width="12.0" height="3" fill="#35df39" stroke="#03aa10" /><rect x="596.0" y="455.0" width="12.0" height="3" fill="#80c9ff" stroke="#0b6cba" /><rect x="596.0" y="468.0" width="12.0" height="3" fill="#80c9ff" stroke="#0b6cba" /><rect x="609.0" y="494.0" width="12.0" height="3" fill="#fff874" stroke="#eb9c26" /><rect x="609.0" y="507.5" width="12.0" height="3" fill="#fff874" stroke="#eb9c26" /><rect x="622.0" y="533.5" width="12.0" height="3" fill="#ff83f4" stroke="#d002bc" /><rect x="570.0" y="585.5" width="12.0" height="3" fill="#ff3c3c" stroke="#c71f1f" /><rect x="583.0" y="611.5" width="12.0" height="3" fill="#35df39" stroke="#03aa10" /><rect x="583.0" y="624.5" width="12.0" height="3" fill="#35df39" stroke="#03aa10" /><rect x="596.0" y="650.5" width="12.0" height="3" fill="#80c9ff" stroke="#0b6cba" /><rect x="596.0" y="663.5" width="12.0" height="3" fill="#80c9ff" stroke="#0b6cba" /><rect x="609.0" y="689.5" width="12.0" height="3" fill="#fff874" stroke="#eb9c26" /><rect x="609.0" y="702.5" width="12.0" height="3" fill="#fff874" stroke="#eb9c26" /><rect x="622.0" y="728.5" width="12.0" height="3" fill="#ff83f4" stroke="#d002bc" /><rect x="684.0" y="0.0" width="12.0" height="3" fill="#ff3c3c" stroke="#c71f1f" /><rect x="697.0" y="26.0" width="12.0" height="3" fill="#35df39" stroke="#03aa10" /><rect x="697.0" y="39.0" width="12.0" height="3" fill="#35df39" stroke="#03aa10" /><rect x="710.0" y="65.0" width="12.0" height="3" fill="#80c9ff" stroke="#0b6cba" /><rect x="710.0" y="78.0" width="12.0" height="3" fill="#80c9ff" stroke="#0b6cba" /><rect x="723.0" y="104.0" width="12.0" height="3" fill="#fff874" stroke="#eb9c26" /><rect x="723.0" y="117.0" width="12.0" height="3" fill="#fff874" stroke="#eb9c26" /><rect x="736.0" y="143.0" width="12.0" height="3" fill="#ff83f4" stroke="#d002bc" /><rect x="736.0" y="169.0" width="12.0" height="3" fill="#ff83f4" stroke="#d002bc" /><rect x="684.0" y="247.0" width="12.0" height="3" fill="#ff3c3c" stroke="#c71f1f" /><rect x="684.0" y="260.0" width="12.0" height="3" fill="#ff3c3c" stroke="#c71f1f" /><rect x="684.0" y="273.0" width="12.0" height="3" fill="#ff3c3c" stroke="#c71f1f" /><rect x="697.0" y="299.0" width="12.0" height="81.9" fill="#35df39" stroke="#03aa10" /><rect x="710.0" y="390.0" width="12.0" height="3" fill="#80c9ff" stroke="#0b6cba" /><rect x="710.0" y="403.0" width="12.0" height="3" fill="#80c9ff" stroke="#0b6cba" /><rect x="710.0" y="416.0" width="12.0" height="3" fill="#80c9ff" stroke="#0b6cba" /><rect x="697.0" y="442.0" width="12.0" height="3" fill="#35df39" stroke="#03aa10" /><rect x="697.0" y="455.0" width="12.0" height="3" fill="#35df39" stroke="#03aa10" /><rect x="684.0" y="507.0" width="12.0" height="3" fill="#ff3c3c" stroke="#c71f1f" /><rect x="697.0" y="559.0" width="12.0" height="3" fill="#35df39" stroke="#03aa10" /><rect x="710.0" y="585.0" width="12.0" height="3" fill="#80c9ff" stroke="#0b6cba" /><rect x="710.0" y="598.0" width="12.0" height="3" fill="#80c9ff" stroke="#0b6cba" /><rect x="697.0" y="624.0" width="12.0" height="3" fill="#35df39" stroke="#03aa10" /><rect x="697.0" y="637.0" width="12.0" height="3" fill="#35df39" stroke="#03aa10" /><rect x="684.0" y="663.0" width="12.0" height="3" fill="#ff3c3c" stroke="#c71f1f" /><rect x="684.0" y="676.0" width="12.0" height="3" fill="#ff3c3c" stroke="#c71f1f" /><rect x="697.0" y="702.0" width="12.0" height="3" fill="#35df39" stroke="#03aa10" /><rect x="697.0" y="728.0" width="12.0" height="3" fill="#35df39" stroke="#03aa10" /><rect x="798.0" y="0.0" width="12.0" height="3" fill="#ff3c3c" stroke="#c71f1f" /><rect x="811.0" y="65.0" width="12.0" height="3" fill="#35df39" stroke="#03aa10" /><rect x="824.0" y="143.5" width="12.0" height="3" fill="#80c9ff" stroke="#0b6cba" /><rect x="824.0" y="156.5" width="12.0" height="3" fill="#80c9ff" stroke="#0b6cba" /><rect x="811.0" y="247.5" width="12.0" height="3" fill="#35df39" stroke="#03aa10" /><rect x="811.0" y="260.5" width="12.0" height="3" fill="#35df39" stroke="#03aa10" /><rect x="811.0" y="273.5" width="12.0" height="3" fill="#35df39" stroke="#03aa10" /><rect x="824.0" y="299.5" width="12.0" height="81.9" fill="#80c9ff" stroke="#0b6cba" /><rect x="837.0" y="390.5" width="12.0" height="3" fill="#fff874" stroke="#eb9c26" /><rect x="837.0" y="403.5" width="12.0" height="3" fill="#fff874" stroke="#eb9c26" /><rect x="837.0" y="416.5" width="12.0" height="3" fill="#fff874" stroke="#eb9c26" /><rect x="824.0" y="442.5" width="12.0" height="3" fill="#80c9ff" stroke="#0b6cba" /><rect x="824.0" y="455.5" width="12.0" height="3" fill="#80c9ff" stroke="#0b6cba" /><rect x="811.0" y="507.5" width="12.0" height="3" fill="#35df39" stroke="#03aa10" /><rect x="824.0" y="559.5" width="12.0" height="3" fill="#80c9ff" stroke="#0b6cba" /><rect x="837.0" y="585.5" width="12.0" height="3" fill="#fff874" stroke="#eb9c26" /><rect x="837.0" y="598.5" width="12.0" height="3" fill="#fff874" stroke="#eb9c26" /><rect x="824.0" y="624.5" width="12.0" height="3" fill="#80c9ff" stroke="#0b6cba" /><rect x="824.0" y="637.5" width="12.0" height="3" fill="#80c9ff" stroke="#0b6cba" /><rect x="811.0" y="663.5" width="12.0" height="3" fill="#35df39" stroke="#03aa10" /><rect x="811.0" y="676.5" width="12.0" height="3" fill="#35df39" stroke="#03aa10" /><rect x="824.0" y="702.5" width="12.0" height="3" fill="#80c9ff" stroke="#0b6cba" /><rect x="824.0" y="728.5" width="12.0" height="3" fill="#80c9ff" stroke="#0b6cba" /><rect x="912.0" y="0.0" width="12.0" height="3" fill="#ff3c3c" stroke="#c71f1f" /><rect x="925.0" y="65.0" width="12.0" height="3" fill="#35df39" stroke="#03aa10" /><rect x="938.0" y="143.0" width="12.0" height="3" fill="#80c9ff" stroke="#0b6cba" /><rect x="938.0" y="195.0" width="12.0" height="3" fill="#80c9ff" stroke="#0b6cba" /><rect x="951.0" y="260.0" width="12.0" height="3" fill="#fff874" stroke="#eb9c26" /><rect x="951.0" y="351.0" width="12.0" height="240.3" fill="#fff874" stroke="#eb9c26" /><rect x="964.0" y="634.0" width="12.0" height="85.05" fill="#ff83f4" stroke="#d002bc" /><rect x="938.0" y="728.5" width="12.0" height="3" fill="#80c9ff" stroke="#0b6cba" /><rect x="1052.0" y="0.0" width="12.0" height="3" fill="#80c9ff" stroke="#0b6cba" /><rect x="1026.0" y="52.0" width="12.0" height="3" fill="#ff3c3c" stroke="#c71f1f" /><rect x="1026.0" y="65.0" width="12.0" height="58.5" fill="#ff3c3c" stroke="#c71f1f" /><rect x="1039.0" y="130.0" width="12.0" height="3" fill="#35df39" stroke="#03aa10" /><rect x="1039.0" y="143.0" width="12.0" height="58.5" fill="#35df39" stroke="#03aa10" /><rect x="1052.0" y="208.0" width="12.0" height="3" fill="#80c9ff" stroke="#0b6cba" /><rect x="1052.0" y="221.0" width="12.0" height="70.2" fill="#80c9ff" stroke="#0b6cba" /><rect x="1065.0" y="299.0" width="12.0" height="3" fill="#fff874" stroke="#eb9c26" /><rect x="1039.0" y="390.0" width="12.0" height="3" fill="#35df39" stroke="#03aa10" /><rect x="1039.0" y="403.0" width="12.0" height="3" fill="#35df39" stroke="#03aa10" /><rect x="1039.0" y="416.0" width="12.0" height="3" fill="#35df39" stroke="#03aa10" /><rect x="1052.0" y="442.0" width="12.0" height="3" fill="#80c9ff" stroke="#0b6cba" /><rect x="1052.0" y="455.0" width="12.0" height="3" fill="#80c9ff" stroke="#0b6cba" /><rect x="1052.0" y="468.0" width="12.0" height="3" fill="#80c9ff" stroke="#0b6cba" /><rect x="1065.0" y="494.0" width="12.0" height="3" fill="#fff874" stroke="#eb9c26" /><rect x="1065.0" y="507.0" width="12.0" height="3" fill="#fff874" stroke="#eb9c26" /><rect x="1065.0" y="520.0" width="12.0" height="3" fill="#fff874" stroke="#eb9c26" /><rect x="1052.0" y="546.0" width="12.0" height="3" fill="#80c9ff" stroke="#0b6cba" /><rect x="1052.0" y="559.0" width="12.0" height="3" fill="#80c9ff" stroke="#0b6cba" /><rect x="1052.0" y="572.0" width="12.0" height="3" fill="#80c9ff" stroke="#0b6cba" /><rect x="1026.0" y="624.0" width="12.0" height="3" fill="#ff3c3c" stroke="#c71f1f" /><rect x="1026.0" y="650.0" width="12.0" height="3" fill="#ff3c3c" stroke="#c71f1f" /><rect x="1039.0" y="676.0" width="12.0" height="3" fill="#35df39" stroke="#03aa10" /><rect x="1039.0" y="702.0" width="12.0" height="3" fill="#35df39" stroke="#03aa10" /><rect x="1052.0" y="728.0" width="12.0" height="3" fill="#80c9ff" stroke="#0b6cba" /><rect x="1052.0" y="754.0" width="12.0" height="3" fill="#80c9ff" stroke="#0b6cba" /><rect x="1166.0" y="0.0" width="12.0" height="3" fill="#80c9ff" stroke="#0b6cba" /><rect x="1179.0" y="39.0" width="12.0" height="81.9" fill="#fff874" stroke="#eb9c26" /><rect x="1166.0" y="130.0" width="12.0" height="3" fill="#80c9ff" stroke="#0b6cba" /><rect x="1166.0" y="143.0" width="12.0" height="3" fill="#80c9ff" stroke="#0b6cba" /><rect x="1166.0" y="156.0" width="12.0" height="3" fill="#80c9ff" stroke="#0b6cba" /><rect x="1179.0" y="182.0" width="12.0" height="3" fill="#fff874" stroke="#eb9c26" /><rect x="1179.0" y="195.0" width="12.0" height="3" fill="#fff874" stroke="#eb9c26" /><rect x="1179.0" y="208.0" width="12.0" height="3" fill="#fff874" stroke="#eb9c26" /><rect x="1192.0" y="234.0" width="12.0" height="3" fill="#ff83f4" stroke="#d002bc" /><rect x="1179.0" y="273.0" width="12.0" height="3" fill="#fff874" stroke="#eb9c26" /><rect x="1179.0" y="299.0" width="12.0" height="3" fill="#fff874" stroke="#eb9c26" /><rect x="1166.0" y="325.0" width="12.0" height="3" fill="#80c9ff" stroke="#0b6cba" /><rect x="1179.0" y="390.0" width="12.0" height="3" fill="#fff874" stroke="#eb9c26" /><rect x="1179.0" y="416.0" width="12.0" height="3" fill="#fff874" stroke="#eb9c26" /><rect x="1153.0" y="442.0" width="12.0" height="3" fill="#35df39" stroke="#03aa10" /><rect x="1153.0" y="468.0" width="12.0" height="3" fill="#35df39" stroke="#03aa10" /><rect x="1166.0" y="494.0" width="12.0" height="3" fill="#80c9ff" stroke="#0b6cba" /><rect x="1166.0" y="520.0" width="12.0" height="3" fill="#80c9ff" stroke="#0b6cba" /><rect x="1166.0" y="546.0" width="12.0" height="3" fill="#80c9ff" stroke="#0b6cba" /><rect x="1179.0" y="585.0" width="12.0" height="3" fill="#fff874" stroke="#eb9c26" /><rect x="1153.0" y="624.0" width="12.0" height="3" fill="#35df39" stroke="#03aa10" /><rect x="1166.0" y="650.0" width="12.0" height="3" fill="#80c9ff" stroke="#0b6cba" /><rect x="1166.0" y="689.0" width="12.0" height="3" fill="#80c9ff" stroke="#0b6cba" /><rect x="1166.0" y="728.0" width="12.0" height="3" fill="#80c9ff" stroke="#0b6cba" /><rect x="1293.0" y="0.0" width="12.0" height="3" fill="#fff874" stroke="#eb9c26" /><rect x="1293.0" y="39.0" width="12.0" height="3" fill="#fff874" stroke="#eb9c26" /><rect x="1293.0" y="65.0" width="12.0" height="3" fill="#fff874" stroke="#eb9c26" /><rect x="1280.0" y="91.0" width="12.0" height="3" fill="#80c9ff" stroke="#0b6cba" /><rect x="1280.0" y="130.0" width="12.0" height="3" fill="#80c9ff" stroke="#0b6cba" /><rect x="1254.0" y="169.0" width="12.0" height="3" fill="#ff3c3c" stroke="#c71f1f" /><rect x="1267.0" y="195.0" width="12.0" height="3" fill="#35df39" stroke="#03aa10" /><rect x="1267.0" y="221.0" width="12.0" height="3" fill="#35df39" stroke="#03aa10" /><rect x="1254.0" y="247.0" width="12.0" height="3" fill="#ff3c3c" stroke="#c71f1f" /><rect x="1254.0" y="273.0" width="12.0" height="3" fill="#ff3c3c" stroke="#c71f1f" /><rect x="1280.0" y="299.0" width="12.0" height="3" fill="#80c9ff" stroke="#0b6cba" /><rect x="1280.0" y="325.0" width="12.0" height="3" fill="#80c9ff" stroke="#0b6cba" /><rect x="1280.0" y="377.5" width="12.0" height="3" fill="#80c9ff" stroke="#0b6cba" /><rect x="1280.0" y="455.5" width="12.0" height="3" fill="#80c9ff" stroke="#0b6cba" /><rect x="1280.0" y="481.5" width="12.0" height="3" fill="#80c9ff" stroke="#0b6cba" /><rect x="1267.0" y="507.5" width="12.0" height="3" fill="#35df39" stroke="#03aa10" /><rect x="1267.0" y="520.5" width="12.0" height="3" fill="#35df39" stroke="#03aa10" /><rect x="1267.0" y="533.5" width="12.0" height="3" fill="#35df39" stroke="#03aa10" /><rect x="1254.0" y="559.5" width="12.0" height="3" fill="#ff3c3c" stroke="#c71f1f" /><rect x="1254.0" y="572.5" width="12.0" height="3" fill="#ff3c3c" stroke="#c71f1f" /><rect x="1254.0" y="585.5" width="12.0" height="3" fill="#ff3c3c" stroke="#c71f1f" /><rect x="1267.0" y="611.5" width="12.0" height="3" fill="#35df39" stroke="#03aa10" /><rect x="1267.0" y="624.5" width="12.0" height="3" fill="#35df39" stroke="#03aa10" /><rect x="1267.0" y="637.5" width="12.0" height="3" fill="#35df39" stroke="#03aa10" /><rect x="1280.0" y="663.5" width="12.0" height="3" fill="#80c9ff" stroke="#0b6cba" /><rect x="1280.0" y="676.5" width="12.0" height="3" fill="#80c9ff" stroke="#0b6cba" /><rect x="1280.0" y="689.5" width="12.0" height="3" fill="#80c9ff" stroke="#0b6cba" /><rect x="1293.0" y="728.5" width="12.0" height="3" fill="#fff874" stroke="#eb9c26" /><rect x="1407.0" y="0.0" width="12.0" height="3" fill="#fff874" stroke="#eb9c26" /><rect x="1407.0" y="26.0" width="12.0" height="3" fill="#fff874" stroke="#eb9c26" /><rect x="1407.0" y="52.0" width="12.0" height="3" fill="#fff874" stroke="#eb9c26" /><rect x="1407.0" y="78.0" width="12.0" height="3" fill="#fff874" stroke="#eb9c26" /><rect x="1420.0" y="104.0" width="12.0" height="175.5" fill="#ff83f4" stroke="#d002bc" /><rect x="1394.0" y="299.0" width="12.0" height="3" fill="#80c9ff" stroke="#0b6cba" /><rect x="1394.0" y="325.0" width="12.0" height="3" fill="#80c9ff" stroke="#0b6cba" /><rect x="1394.0" y="351.0" width="12.0" height="3" fill="#80c9ff" stroke="#0b6cba" /><rect x="1368.0" y="442.0" width="12.0" height="3" fill="#ff3c3c" stroke="#c71f1f" /><rect x="1368.0" y="455.0" width="12.0" height="3" fill="#ff3c3c" stroke="#c71f1f" /><rect x="1368.0" y="468.0" width="12.0" height="3" fill="#ff3c3c" stroke="#c71f1f" /><rect x="1381.0" y="494.0" width="12.0" height="81.9" fill="#35df39" stroke="#03aa10" /><rect x="1394.0" y="585.0" width="12.0" height="3" fill="#80c9ff" stroke="#0b6cba" /><rect x="1394.0" y="598.0" width="12.0" height="3" fill="#80c9ff" stroke="#0b6cba" /><rect x="1394.0" y="611.0" width="12.0" height="3" fill="#80c9ff" stroke="#0b6cba" /><rect x="1381.0" y="637.0" width="12.0" height="3" fill="#35df39" stroke="#03aa10" /><rect x="1381.0" y="650.0" width="12.0" height="3" fill="#35df39" stroke="#03aa10" /><rect x="1368.0" y="702.5" width="12.0" height="3" fill="#ff3c3c" stroke="#c71f1f" /><rect x="1381.0" y="754.5" width="12.0" height="3" fill="#35df39" stroke="#03aa10" /><rect x="1508.0" y="0.0" width="12.0" height="3" fill="#80c9ff" stroke="#0b6cba" /><rect x="1508.0" y="13.0" width="12.0" height="3" fill="#80c9ff" stroke="#0b6cba" /><rect x="1495.0" y="39.0" width="12.0" height="3" fill="#35df39" stroke="#03aa10" /><rect x="1495.0" y="52.0" width="12.0" height="3" fill="#35df39" stroke="#03aa10" /><rect x="1482.0" y="78.0" width="12.0" height="3" fill="#ff3c3c" stroke="#c71f1f" /><rect x="1482.0" y="91.0" width="12.0" height="3" fill="#ff3c3c" stroke="#c71f1f" /><rect x="1495.0" y="117.0" width="12.0" height="3" fill="#35df39" stroke="#03aa10" /><rect x="1495.0" y="143.0" width="12.0" height="3" fill="#35df39" stroke="#03aa10" /><rect x="1482.0" y="195.0" width="12.0" height="3" fill="#ff3c3c" stroke="#c71f1f" /><rect x="1495.0" y="260.0" width="12.0" height="3" fill="#35df39" stroke="#03aa10" /><rect x="1508.0" y="338.0" width="12.0" height="3" fill="#80c9ff" stroke="#0b6cba" /><rect x="1508.0" y="351.0" width="12.0" height="3" fill="#80c9ff" stroke="#0b6cba" /><rect x="1495.0" y="442.0" width="12.0" height="3" fill="#35df39" stroke="#03aa10" /><rect x="1495.0" y="455.0" width="12.0" height="3" fill="#35df39" stroke="#03aa10" /><rect x="1495.0" y="468.0" width="12.0" height="3" fill="#35df39" stroke="#03aa10" /><rect x="1508.0" y="494.0" width="12.0" height="81.9" fill="#80c9ff" stroke="#0b6cba" /><rect x="1521.0" y="585.0" width="12.0" height="3" fill="#fff874" stroke="#eb9c26" /><rect x="1521.0" y="598.0" width="12.0" height="3" fill="#fff874" stroke="#eb9c26" /><rect x="1521.0" y="611.0" width="12.0" height="3" fill="#fff874" stroke="#eb9c26" /><rect x="1508.0" y="637.0" width="12.0" height="3" fill="#80c9ff" stroke="#0b6cba" /><rect x="1508.0" y="650.0" width="12.0" height="3" fill="#80c9ff" stroke="#0b6cba" /><rect x="1495.0" y="702.0" width="12.0" height="3" fill="#35df39" stroke="#03aa10" /><rect x="1508.0" y="754.0" width="12.0" height="3" fill="#80c9ff" stroke="#0b6cba" /><rect x="1635.0" y="0.0" width="12.0" height="3" fill="#fff874" stroke="#eb9c26" /><rect x="1635.0" y="13.0" width="12.0" height="3" fill="#fff874" stroke="#eb9c26" /><rect x="1622.0" y="39.0" width="12.0" height="3" fill="#80c9ff" stroke="#0b6cba" /><rect x="1622.0" y="52.0" width="12.0" height="3" fill="#80c9ff" stroke="#0b6cba" /><rect x="1609.0" y="78.0" width="12.0" height="3" fill="#35df39" stroke="#03aa10" /><rect x="1609.0" y="91.0" width="12.0" height="3" fill="#35df39" stroke="#03aa10" /><rect x="1622.0" y="117.0" width="12.0" height="3" fill="#80c9ff" stroke="#0b6cba" /><rect x="1622.0" y="143.0" width="12.0" height="3" fill="#80c9ff" stroke="#0b6cba" /><rect x="1596.0" y="195.0" width="12.0" height="3" fill="#ff3c3c" stroke="#c71f1f" /><rect x="1609.0" y="260.0" width="12.0" height="3" fill="#35df39" stroke="#03aa10" /><rect x="1622.0" y="338.5" width="12.0" height="3" fill="#80c9ff" stroke="#0b6cba" /><rect x="1622.0" y="390.5" width="12.0" height="3" fill="#80c9ff" stroke="#0b6cba" /><rect x="1635.0" y="455.5" width="12.0" height="3" fill="#fff874" stroke="#eb9c26" /><rect x="1635.0" y="533.5" width="12.0" height="3" fill="#fff874" stroke="#eb9c26" /><rect x="1635.0" y="546.5" width="12.0" height="3" fill="#fff874" stroke="#eb9c26" /><rect x="1710.0" y="481.0" width="12.0" height="3" fill="#ff3c3c" stroke="#c71f1f" /><rect x="1710.0" y="494.0" width="12.0" height="3" fill="#ff3c3c" stroke="#c71f1f" /><rect x="1710.0" y="507.0" width="12.0" height="3" fill="#ff3c3c" stroke="#c71f1f" /><rect x="1723.0" y="533.0" width="12.0" height="3" fill="#35df39" stroke="#03aa10" /><rect x="1723.0" y="546.0" width="12.0" height="3" fill="#35df39" stroke="#03aa10" /><rect x="1723.0" y="559.0" width="12.0" height="3" fill="#35df39" stroke="#03aa10" /><rect x="1736.0" y="585.0" width="12.0" height="3" fill="#80c9ff" stroke="#0b6cba" /><rect x="1736.0" y="598.0" width="12.0" height="3" fill="#80c9ff" stroke="#0b6cba" /><rect x="1710.0" y="637.5" width="12.0" height="3" fill="#ff3c3c" stroke="#c71f1f" /><rect x="1723.0" y="689.5" width="12.0" height="105.3" fill="#35df39" stroke="#03aa10" /><rect x="1736.0" y="806.5" width="12.0" height="3" fill="#80c9ff" stroke="#0b6cba" /><rect x="1723.0" y="845.5" width="12.0" height="3" fill="#35df39" stroke="#03aa10" /><rect x="1710.0" y="884.5" width="12.0" height="3" fill="#ff3c3c" stroke="#c71f1f" /><rect x="1837.0" y="71.0" width="12.0" height="3" fill="#35df39" stroke="#03aa10" /><rect x="1837.0" y="83.0" width="12.0" height="3" fill="#35df39" stroke="#03aa10" /><rect x="1837.0" y="94.5" width="12.0" height="3" fill="#35df39" stroke="#03aa10" /><rect x="1837.0" y="106.5" width="12.0" height="138.6" fill="#35df39" stroke="#03aa10" /><rect x="1850.0" y="260.5" width="12.0" height="3" fill="#80c9ff" stroke="#0b6cba" /><rect x="1850.0" y="272.0" width="12.0" height="3" fill="#80c9ff" stroke="#0b6cba" /><rect x="1850.0" y="284.0" width="12.0" height="3" fill="#80c9ff" stroke="#0b6cba" /><rect x="1850.0" y="296.0" width="12.0" height="74.7" fill="#80c9ff" stroke="#0b6cba" /><rect x="1837.0" y="379.0" width="12.0" height="3" fill="#35df39" stroke="#03aa10" /><rect x="1850.0" y="379.0" width="12.0" height="3" fill="#80c9ff" stroke="#0b6cba" /><rect x="1824.0" y="402.5" width="12.0" height="3" fill="#ff3c3c" stroke="#c71f1f" /><rect x="1824.0" y="426.0" width="12.0" height="3" fill="#ff3c3c" stroke="#c71f1f" /><rect x="1837.0" y="450.0" width="12.0" height="3" fill="#35df39" stroke="#03aa10" /><rect x="1850.0" y="450.0" width="12.0" height="3" fill="#80c9ff" stroke="#0b6cba" /><rect x="1824.0" y="473.5" width="12.0" height="3" fill="#ff3c3c" stroke="#c71f1f" /><rect x="1824.0" y="497.0" width="12.0" height="3" fill="#ff3c3c" stroke="#c71f1f" /><rect x="1837.0" y="521.0" width="12.0" height="3" fill="#35df39" stroke="#03aa10" /><rect x="1850.0" y="521.0" width="12.0" height="3" fill="#80c9ff" stroke="#0b6cba" /><rect x="1824.0" y="544.5" width="12.0" height="3" fill="#ff3c3c" stroke="#c71f1f" /><rect x="1837.0" y="568.5" width="12.0" height="3" fill="#35df39" stroke="#03aa10" /><rect x="1850.0" y="568.5" width="12.0" height="3" fill="#80c9ff" stroke="#0b6cba" /><rect x="1824.0" y="592.0" width="12.0" height="3" fill="#ff3c3c" stroke="#c71f1f" /><rect x="1824.0" y="615.5" width="12.0" height="3" fill="#ff3c3c" stroke="#c71f1f" /><rect x="1837.0" y="639.5" width="12.0" height="3" fill="#35df39" stroke="#03aa10" /><rect x="1850.0" y="639.5" width="12.0" height="3" fill="#80c9ff" stroke="#0b6cba" /><rect x="1824.0" y="663.0" width="12.0" height="3" fill="#ff3c3c" stroke="#c71f1f" /><rect x="1824.0" y="686.5" width="12.0" height="3" fill="#ff3c3c" stroke="#c71f1f" /><rect x="1837.0" y="710.5" width="12.0" height="3" fill="#35df39" stroke="#03aa10" /><rect x="1850.0" y="710.5" width="12.0" height="3" fill="#80c9ff" stroke="#0b6cba" /><rect x="1824.0" y="734.0" width="12.0" height="3" fill="#ff3c3c" stroke="#c71f1f" /><rect x="1964.0" y="71.0" width="12.0" height="3" fill="#80c9ff" stroke="#0b6cba" /><rect x="1964.0" y="82.5" width="12.0" height="3" fill="#80c9ff" stroke="#0b6cba" /><rect x="1964.0" y="94.5" width="12.0" height="3" fill="#80c9ff" stroke="#0b6cba" /><rect x="1964.0" y="106.5" width="12.0" height="138.6" fill="#80c9ff" stroke="#0b6cba" /><rect x="1977.0" y="260.5" width="12.0" height="3" fill="#fff874" stroke="#eb9c26" /><rect x="1977.0" y="272.0" width="12.0" height="3" fill="#fff874" stroke="#eb9c26" /><rect x="1977.0" y="284.0" width="12.0" height="3" fill="#fff874" stroke="#eb9c26" /><rect x="1977.0" y="296.0" width="12.0" height="74.25" fill="#fff874" stroke="#eb9c26" /><rect x="1951.0" y="378.5" width="12.0" height="3" fill="#35df39" stroke="#03aa10" /><rect x="1964.0" y="378.5" width="12.0" height="3" fill="#80c9ff" stroke="#0b6cba" /><rect x="1938.0" y="402.5" width="12.0" height="3" fill="#ff3c3c" stroke="#c71f1f" /><rect x="1938.0" y="426.0" width="12.0" height="3" fill="#ff3c3c" stroke="#c71f1f" /><rect x="1951.0" y="450.0" width="12.0" height="3" fill="#35df39" stroke="#03aa10" /><rect x="1964.0" y="450.0" width="12.0" height="3" fill="#80c9ff" stroke="#0b6cba" /><rect x="1938.0" y="473.5" width="12.0" height="3" fill="#ff3c3c" stroke="#c71f1f" /><rect x="1938.0" y="497.0" width="12.0" height="3" fill="#ff3c3c" stroke="#c71f1f" /><rect x="1951.0" y="521.0" width="12.0" height="3" fill="#35df39" stroke="#03aa10" /><rect x="1964.0" y="521.0" width="12.0" height="3" fill="#80c9ff" stroke="#0b6cba" /><rect x="1938.0" y="544.5" width="12.0" height="3" fill="#ff3c3c" stroke="#c71f1f" /><rect x="1951.0" y="568.0" width="12.0" height="3" fill="#35df39" stroke="#03aa10" /><rect x="1964.0" y="568.0" width="12.0" height="3" fill="#80c9ff" stroke="#0b6cba" /><rect x="1938.0" y="592.0" width="12.0" height="3" fill="#ff3c3c" stroke="#c71f1f" /><rect x="1938.0" y="615.5" width="12.0" height="3" fill="#ff3c3c" stroke="#c71f1f" /><rect x="1951.0" y="639.0" width="12.0" height="3" fill="#35df39" stroke="#03aa10" /><rect x="1964.0" y="639.0" width="12.0" height="3" fill="#80c9ff" stroke="#0b6cba" /><rect x="1938.0" y="663.0" width="12.0" height="3" fill="#ff3c3c" stroke="#c71f1f" /><rect x="1938.0" y="686.5" width="12.0" height="3" fill="#ff3c3c" stroke="#c71f1f" /><rect x="1951.0" y="710.5" width="12.0" height="3" fill="#35df39" stroke="#03aa10" /><rect x="1964.0" y="710.5" width="12.0" height="3" fill="#80c9ff" stroke="#0b6cba" /><rect x="1938.0" y="734.0" width="12.0" height="3" fill="#ff3c3c" stroke="#c71f1f" /><rect x="2065.0" y="0.0" width="12.0" height="93.60000000000001" fill="#35df39" stroke="#03aa10" /><rect x="2065.0" y="104.0" width="12.0" height="117.45" fill="#35df39" stroke="#03aa10" /><rect x="2078.0" y="234.5" width="12.0" height="93.60000000000001" fill="#80c9ff" stroke="#0b6cba" /><rect x="2078.0" y="338.5" width="12.0" height="117.0" fill="#80c9ff" stroke="#0b6cba" /><rect x="2091.0" y="468.5" width="12.0" height="379.0" fill="#fff874" stroke="#eb9c26" /><rect x="2166.0" y="189.5" width="12.0" height="3" fill="#ff3c3c" stroke="#c71f1f" /><rect x="2179.0" y="189.5" width="12.0" height="3" fill="#35df39" stroke="#03aa10" /><rect x="2179.0" y="284.0" width="12.0" height="3" fill="#35df39" stroke="#03aa10" /><rect x="2179.0" y="307.5" width="12.0" height="234.45000000000002" fill="#35df39" stroke="#03aa10" /><rect x="2166.0" y="568.0" width="12.0" height="3" fill="#ff3c3c" stroke="#c71f1f" /><rect x="2179.0" y="568.0" width="12.0" height="3" fill="#35df39" stroke="#03aa10" /><rect x="2205.0" y="0.0" width="12.0" height="56.85" fill="#fff874" stroke="#eb9c26" /><rect x="2306.0" y="0.0" width="12.0" height="3" fill="#80c9ff" stroke="#0b6cba" /><rect x="2306.0" y="23.5" width="12.0" height="234.45000000000002" fill="#80c9ff" stroke="#0b6cba" /><rect x="2280.0" y="284.0" width="12.0" height="3" fill="#ff3c3c" stroke="#c71f1f" /><rect x="2293.0" y="284.0" width="12.0" height="3" fill="#35df39" stroke="#03aa10" /><rect x="2293.0" y="379.0" width="12.0" height="3" fill="#35df39" stroke="#03aa10" /><rect x="2293.0" y="402.5" width="12.0" height="234.45000000000002" fill="#35df39" stroke="#03aa10" /><rect x="2280.0" y="663.0" width="12.0" height="3" fill="#ff3c3c" stroke="#c71f1f" /><rect x="2293.0" y="663.0" width="12.0" height="3" fill="#35df39" stroke="#03aa10" /><rect x="2420.0" y="0.0" width="12.0" height="3" fill="#80c9ff" stroke="#0b6cba" /><rect x="2420.0" y="23.5" width="12.0" height="3" fill="#80c9ff" stroke="#0b6cba" /><rect x="2394.0" y="94.5" width="12.0" height="3" fill="#ff3c3c" stroke="#c71f1f" /><rect x="2394.0" y="106.5" width="12.0" height="3" fill="#ff3c3c" stroke="#c71f1f" /><rect x="2394.0" y="118.5" width="12.0" height="3" fill="#ff3c3c" stroke="#c71f1f" /><rect x="2407.0" y="142.0" width="12.0" height="3" fill="#35df39" stroke="#03aa10" /><rect x="2407.0" y="154.0" width="12.0" height="3" fill="#35df39" stroke="#03aa10" /><rect x="2407.0" y="165.5" width="12.0" height="3" fill="#35df39" stroke="#03aa10" /><rect x="2433.0" y="189.5" width="12.0" height="3" fill="#fff874" stroke="#eb9c26" /><rect x="2420.0" y="260.5" width="12.0" height="3" fill="#80c9ff" stroke="#0b6cba" /><rect x="2407.0" y="331.5" width="12.0" height="3" fill="#35df39" stroke="#03aa10" /><rect x="2420.0" y="379.0" width="12.0" height="3" fill="#80c9ff" stroke="#0b6cba" /><rect x="2407.0" y="450.0" width="12.0" height="3" fill="#35df39" stroke="#03aa10" /><rect x="2394.0" y="521.0" width="12.0" height="3" fill="#ff3c3c" stroke="#c71f1f" /><rect x="2394.0" y="533.0" width="12.0" height="3" fill="#ff3c3c" stroke="#c71f1f" /><rect x="2521.0" y="0.0" width="12.0" height="3" fill="#35df39" stroke="#03aa10" /><rect x="2521.0" y="11.5" width="12.0" height="3" fill="#35df39" stroke="#03aa10" /><rect x="2521.0" y="23.5" width="12.0" height="3" fill="#35df39" stroke="#03aa10" /><rect x="2534.0" y="47.0" width="12.0" height="3" fill="#80c9ff" stroke="#0b6cba" /></svg>