<?xml version="1.0" encoding="UTF-8"?><svg xmlns="http://www.w3.org/2000/svg" xmlns:xlink="http://www.w3.org/1999/xlink"     width="1482" height="1454.0" viewBox="0 0 1482 1454.0"><defs></defs><rect x="114.0" y="360.0" width="12.0" height="3" fill="#ff3c3c" stroke="#c71f1f" /><rect x="127.0" y="360.0" width="12.0" height="3" fill="#35df39" stroke="#03aa10" /><rect x="127.0" y="427.5" width="12.0" height="3" fill="#35df39" stroke="#03aa10" /><rect x="140.0" y="427.5" width="12.0" height="3" fill="#80c9ff" stroke="#0b6cba" /><rect x="153.0" y="427.5" width="12.0" height="3" fill="#fff874" stroke="#eb9c26" /><rect x="140.0" y="495.0" width="12.0" height="3" fill="#80c9ff" stroke="#0b6cba" /><rect x="140.0" y="562.5" width="12.0" height="3" fill="#80c9ff" stroke="#0b6cba" /><rect x="166.0" y="562.5" width="12.0" height="3" fill="#ff83f4" stroke="#d002bc" /><rect x="140.0" y="607.5" width="12.0" height="3" fill="#80c9ff" stroke="#0b6cba" /><rect x="153.0" y="607.5" width="12.0" height="3" fill="#fff874" stroke="#eb9c26" /><rect x="114.0" y="675.0" width="12.0" height="3" fill="#ff3c3c" stroke="#c71f1f" /><rect x="140.0" y="675.0" width="12.0" height="3" fill="#80c9ff" stroke="#0b6cba" /><rect x="127.0" y="720.0" width="12.0" height="3" fill="#35df39" stroke="#03aa10" /><rect x="140.0" y="720.0" width="12.0" height="3" fill="#80c9ff" stroke="#0b6cba" /><rect x="166.0" y="742.5" width="12.0" height="3" fill="#ff83f4" stroke="#d002bc" /><rect x="140.0" y="787.5" width="12.0" height="3" fill="#80c9ff" stroke="#0b6cba" /><rect x="153.0" y="787.5" width="12.0" height="3" fill="#fff874" stroke="#eb9c26" /><rect x="114.0" y="855.0" width="12.0" height="3" fill="#ff3c3c" stroke="#c71f1f" /><rect x="127.0" y="855.0" width="12.0" height="3" fill="#35df39" stroke="#03aa10" /><rect x="140.0" y="855.0" width="12.0" height="3" fill="#80c9ff" stroke="#0b6cba" /><rect x="114.0" y="922.5" width="12.0" height="3" fill="#ff3c3c" stroke="#c71f1f" /><rect x="140.0" y="922.5" width="12.0" height="3" fill="#80c9ff" stroke="#0b6cba" /><rect x="127.0" y="967.5" width="12.0" height="3" fill="#35df39" stroke="#03aa10" /><rect x="140.0" y="967.5" width="12.0" height="3" fill="#80c9ff" stroke="#0b6cba" /><rect x="140.0" y="1035.0" width="12.0" height="3" fill="#80c9ff" stroke="#0b6cba" /><rect x="166.0" y="1035.0" width="12.0" height="3" fill="#ff83f4" stroke="#d002bc" /><rect x="114.0" y="1080.0" width="12.0" height="3" fill="#ff3c3c" stroke="#c71f1f" /><rect x="127.0" y="1080.0" width="12.0" height="3" fill="#35df39" stroke="#03aa10" /><rect x="140.0" y="1147.5" width="12.0" height="3" fill="#80c9ff" stroke="#0b6cba" /><rect x="153.0" y="1147.5" width="12.0" height="3" fill="#fff874" stroke="#eb9c26" /><rect x="166.0" y="1147.5" width="12.0" height="3" fill="#ff83f4" stroke="#d002bc" /><rect x="127.0" y="1207.5" width="12.0" height="3" fill="#35df39" stroke="#03aa10" /><rect x="153.0" y="1207.5" width="12.0" height="3" fill="#fff874" stroke="#eb9c26" /><rect x="140.0" y="1282.5" width="12.0" height="3" fill="#80c9ff" stroke="#0b6cba" /><rect x="127.0" y="1327.5" width="12.0" height="3" fill="#35df39" stroke="#03aa10" /><rect x="140.0" y="1327.5" width="12.0" height="3" fill="#80c9ff" stroke="#0b6cba" /><rect x="114.0" y="1395.0" width="12.0" height="3" fill="#ff3c3c" stroke="#c71f1f" /><rect x="140.0" y="1395.0" width="12.0" height="3" fill="#80c9ff" stroke="#0b6cba" /><rect x="241.0" y="0.0" width="12.0" height="3" fill="#35df39" stroke="#03aa10" /><rect x="254.0" y="0.0" width="12.0" height="3" fill="#80c9ff" stroke="#0b6cba" /><rect x="267.0" y="22.5" width="12.0" height="3" fill="#fff874" stroke="#eb9c26" /><rect x="241.0" y="67.5" width="12.0" height="3" fill="#35df39" stroke="#03aa10" /><rect x="254.0" y="67.5" width="12.0" height="3" fill="#80c9ff" stroke="#0b6cba" /><rect x="267.0" y="67.5" width="12.0" height="3" fill="#fff874" stroke="#eb9c26" /><rect x="254.0" y="135.0" width="12.0" height="3" fill="#80c9ff" stroke="#0b6cba" /><rect x="228.0" y="202.5" width="12.0" height="3" fill="#ff3c3c" stroke="#c71f1f" /><rect x="254.0" y="202.5" width="12.0" height="3" fill="#80c9ff" stroke="#0b6cba" /><rect x="254.0" y="247.5" width="12.0" height="3" fill="#80c9ff" stroke="#0b6cba" /><rect x="267.0" y="247.5" width="12.0" height="3" fill="#fff874" stroke="#eb9c26" /><rect x="280.0" y="247.5" width="12.0" height="3" fill="#ff83f4" stroke="#d002bc" /><rect x="241.0" y="315.0" width="12.0" height="3" fill="#35df39" stroke="#03aa10" /><rect x="267.0" y="315.0" width="12.0" height="3" fill="#fff874" stroke="#eb9c26" /><rect x="228.0" y="360.0" width="12.0" height="3" fill="#ff3c3c" stroke="#c71f1f" /><rect x="241.0" y="360.0" width="12.0" height="3" fill="#35df39" stroke="#03aa10" /><rect x="241.0" y="427.5" width="12.0" height="3" fill="#35df39" stroke="#03aa10" /><rect x="254.0" y="427.5" width="12.0" height="3" fill="#80c9ff" stroke="#0b6cba" /><rect x="267.0" y="427.5" width="12.0" height="3" fill="#fff874" stroke="#eb9c26" /><rect x="254.0" y="495.0" width="12.0" height="3" fill="#80c9ff" stroke="#0b6cba" /><rect x="254.0" y="562.5" width="12.0" height="3" fill="#80c9ff" stroke="#0b6cba" /><rect x="280.0" y="562.5" width="12.0" height="3" fill="#ff83f4" stroke="#d002bc" /><rect x="254.0" y="607.5" width="12.0" height="3" fill="#80c9ff" stroke="#0b6cba" /><rect x="267.0" y="607.5" width="12.0" height="3" fill="#fff874" stroke="#eb9c26" /><rect x="228.0" y="675.0" width="12.0" height="3" fill="#ff3c3c" stroke="#c71f1f" /><rect x="254.0" y="675.0" width="12.0" height="3" fill="#80c9ff" stroke="#0b6cba" /><rect x="241.0" y="720.0" width="12.0" height="3" fill="#35df39" stroke="#03aa10" /><rect x="254.0" y="720.0" width="12.0" height="3" fill="#80c9ff" stroke="#0b6cba" /><rect x="280.0" y="742.5" width="12.0" height="3" fill="#ff83f4" stroke="#d002bc" /><rect x="254.0" y="787.5" width="12.0" height="3" fill="#80c9ff" stroke="#0b6cba" /><rect x="267.0" y="787.5" width="12.0" height="3" fill="#fff874" stroke="#eb9c26" /><rect x="228.0" y="855.0" width="12.0" height="3" fill="#ff3c3c" stroke="#c71f1f" /><rect x="241.0" y="855.0" width="12.0" height="3" fill="#35df39" stroke="#03aa10" /><rect x="254.0" y="855.0" width="12.0" height="3" fill="#80c9ff" stroke="#0b6cba" /><rect x="228.0" y="922.5" width="12.0" height="3" fill="#ff3c3c" stroke="#c71f1f" /><rect x="254.0" y="922.5" width="12.0" height="3" fill="#80c9ff" stroke="#0b6cba" /><rect x="241.0" y="967.5" width="12.0" height="3" fill="#35df39" stroke="#03aa10" /><rect x="254.0" y="967.5" width="12.0" height="3" fill="#80c9ff" stroke="#0b6cba" /><rect x="254.0" y="1035.0" width="12.0" height="3" fill="#80c9ff" stroke="#0b6cba" /><rect x="280.0" y="1035.0" width="12.0" height="3" fill="#ff83f4" stroke="#d002bc" /><rect x="228.0" y="1080.0" width="12.0" height="3" fill="#ff3c3c" stroke="#c71f1f" /><rect x="241.0" y="1080.0" width="12.0" height="3" fill="#35df39" stroke="#03aa10" /><rect x="254.0" y="1147.5" width="12.0" height="3" fill="#80c9ff" stroke="#0b6cba" /><rect x="267.0" y="1147.5" width="12.0" height="3" fill="#fff874" stroke="#eb9c26" /><rect x="280.0" y="1147.5" width="12.0" height="3" fill="#ff83f4" stroke="#d002bc" /><rect x="241.0" y="1207.5" width="12.0" height="3" fill="#35df39" stroke="#03aa10" /><rect x="267.0" y="1207.5" width="12.0" height="3" fill="#fff874" stroke="#eb9c26" /><rect x="254.0" y="1282.5" width="12.0" height="3" fill="#80c9ff" stroke="#0b6cba" /><rect x="241.0" y="1327.5" width="12.0" height="3" fill="#35df39" stroke="#03aa10" /><rect x="254.0" y="1327.5" width="12.0" height="3" fill="#80c9ff" stroke="#0b6cba" /><rect x="228.0" y="1395.0" width="12.0" height="3" fill="#ff3c3c" stroke="#c71f1f" /><rect x="254.0" y="1395.0" width="12.0" height="3" fill="#80c9ff" stroke="#0b6cba" /><rect x="355.0" y="0.0" width="12.0" height="3" fill="#35df39" stroke="#03aa10" /><rect x="368.0" y="0.0" width="12.0" height="3" fill="#80c9ff" stroke="#0b6cba" /><rect x="381.0" y="22.5" width="12.0" height="3" fill="#fff874" stroke="#eb9c26" /><rect x="355.0" y="67.5" width="12.0" height="3" fill="#35df39" stroke="#03aa10" /><rect x="368.0" y="67.5" width="12.0" height="3" fill="#80c9ff" stroke="#0b6cba" /><rect x="381.0" y="67.5" width="12.0" height="3" fill="#fff874" stroke="#eb9c26" /><rect x="368.0" y="135.0" width="12.0" height="3" fill="#80c9ff" stroke="#0b6cba" /><rect x="342.0" y="202.5" width="12.0" height="3" fill="#ff3c3c" stroke="#c71f1f" /><rect x="368.0" y="202.5" width="12.0" height="3" fill="#80c9ff" stroke="#0b6cba" /><rect x="368.0" y="247.5" width="12.0" height="3" fill="#80c9ff" stroke="#0b6cba" /><rect x="381.0" y="247.5" width="12.0" height="3" fill="#fff874" stroke="#eb9c26" /><rect x="394.0" y="247.5" width="12.0" height="3" fill="#ff83f4" stroke="#d002bc" /><rect x="355.0" y="315.0" width="12.0" height="3" fill="#35df39" stroke="#03aa10" /><rect x="381.0" y="315.0" width="12.0" height="3" fill="#fff874" stroke="#eb9c26" /><rect x="368.0" y="360.0" width="12.0" height="3" fill="#80c9ff" stroke="#0b6cba" /><rect x="381.0" y="427.5" width="12.0" height="3" fill="#fff874" stroke="#eb9c26" /><rect x="394.0" y="427.5" width="12.0" height="3" fill="#ff83f4" stroke="#d002bc" /><rect x="381.0" y="487.5" width="12.0" height="3" fill="#fff874" stroke="#eb9c26" /><rect x="368.0" y="562.5" width="12.0" height="3" fill="#80c9ff" stroke="#0b6cba" /><rect x="394.0" y="562.5" width="12.0" height="3" fill="#ff83f4" stroke="#d002bc" /><rect x="368.0" y="607.5" width="12.0" height="3" fill="#80c9ff" stroke="#0b6cba" /><rect x="381.0" y="607.5" width="12.0" height="3" fill="#fff874" stroke="#eb9c26" /><rect x="368.0" y="675.0" width="12.0" height="3" fill="#80c9ff" stroke="#0b6cba" /><rect x="355.0" y="720.0" width="12.0" height="3" fill="#35df39" stroke="#03aa10" /><rect x="355.0" y="742.5" width="12.0" height="3" fill="#35df39" stroke="#03aa10" /><rect x="381.0" y="742.5" width="12.0" height="3" fill="#fff874" stroke="#eb9c26" /><rect x="368.0" y="787.5" width="12.0" height="3" fill="#80c9ff" stroke="#0b6cba" /><rect x="381.0" y="787.5" width="12.0" height="3" fill="#fff874" stroke="#eb9c26" /><rect x="355.0" y="855.0" width="12.0" height="3" fill="#35df39" stroke="#03aa10" /><rect x="368.0" y="855.0" width="12.0" height="3" fill="#80c9ff" stroke="#0b6cba" /><rect x="355.0" y="922.5" width="12.0" height="3" fill="#35df39" stroke="#03aa10" /><rect x="355.0" y="967.5" width="12.0" height="3" fill="#35df39" stroke="#03aa10" /><rect x="368.0" y="967.5" width="12.0" height="3" fill="#80c9ff" stroke="#0b6cba" /><rect x="381.0" y="967.5" width="12.0" height="3" fill="#fff874" stroke="#eb9c26" /><rect x="368.0" y="1035.0" width="12.0" height="3" fill="#80c9ff" stroke="#0b6cba" /><rect x="342.0" y="1080.0" width="12.0" height="3" fill="#ff3c3c" stroke="#c71f1f" /><rect x="342.0" y="1147.5" width="12.0" height="3" fill="#ff3c3c" stroke="#c71f1f" /><rect x="368.0" y="1147.5" width="12.0" height="3" fill="#80c9ff" stroke="#0b6cba" /><rect x="342.0" y="1207.5" width="12.0" height="3" fill="#ff3c3c" stroke="#c71f1f" /><rect x="355.0" y="1207.5" width="12.0" height="3" fill="#35df39" stroke="#03aa10" /><rect x="355.0" y="1282.5" width="12.0" height="3" fill="#35df39" stroke="#03aa10" /><rect x="381.0" y="1282.5" width="12.0" height="3" fill="#fff874" stroke="#eb9c26" /><rect x="355.0" y="1327.5" width="12.0" height="3" fill="#35df39" stroke="#03aa10" /><rect x="368.0" y="1327.5" width="12.0" height="3" fill="#80c9ff" stroke="#0b6cba" /><rect x="342.0" y="1395.0" width="12.0" height="3" fill="#ff3c3c" stroke="#c71f1f" /><rect x="355.0" y="1395.0" width="12.0" height="3" fill="#35df39" stroke="#03aa10" /><rect x="368.0" y="1395.0" width="12.0" height="3" fill="#80c9ff" stroke="#0b6cba" /><rect x="508.0" y="0.0" width="12.0" height="3" fill="#ff83f4" stroke="#d002bc" /><rect x="456" y="0.0" width="64" height="3" fill="#ff72e7" stroke="#7c7c7c" /><rect x="469.0" y="67.5" width="12.0" height="3" fill="#35df39" stroke="#03aa10" /><rect x="482.0" y="67.5" width="12.0" height="3" fill="#80c9ff" stroke="#0b6cba" /><rect x="469.0" y="135.0" width="12.0" height="3" fill="#35df39" stroke="#03aa10" /><rect x="495.0" y="135.0" width="12.0" height="3" fill="#fff874" stroke="#eb9c26" /><rect x="456.0" y="202.5" width="12.0" height="3" fill="#ff3c3c" stroke="#c71f1f" /><rect x="456.0" y="247.5" width="12.0" height="3" fill="#ff3c3c" stroke="#c71f1f" /><rect x="469.0" y="247.5" width="12.0" height="3" fill="#35df39" stroke="#03aa10" /><rect x="482.0" y="247.5" width="12.0" height="3" fill="#80c9ff" stroke="#0b6cba" /><rect x="469.0" y="315.0" width="12.0" height="3" fill="#35df39" stroke="#03aa10" /><rect x="495.0" y="315.0" width="12.0" height="3" fill="#fff874" stroke="#eb9c26" /><rect x="482.0" y="360.0" width="12.0" height="3" fill="#80c9ff" stroke="#0b6cba" /><rect x="495.0" y="427.5" width="12.0" height="3" fill="#fff874" stroke="#eb9c26" /><rect x="508.0" y="427.5" width="12.0" height="3" fill="#ff83f4" stroke="#d002bc" /><rect x="495.0" y="487.5" width="12.0" height="3" fill="#fff874" stroke="#eb9c26" /><rect x="482.0" y="562.5" width="12.0" height="3" fill="#80c9ff" stroke="#0b6cba" /><rect x="508.0" y="562.5" width="12.0" height="3" fill="#ff83f4" stroke="#d002bc" /><rect x="482.0" y="607.5" width="12.0" height="3" fill="#80c9ff" stroke="#0b6cba" /><rect x="495.0" y="607.5" width="12.0" height="3" fill="#fff874" stroke="#eb9c26" /><rect x="482.0" y="675.0" width="12.0" height="3" fill="#80c9ff" stroke="#0b6cba" /><rect x="469.0" y="720.0" width="12.0" height="3" fill="#35df39" stroke="#03aa10" /><rect x="469.0" y="742.5" width="12.0" height="3" fill="#35df39" stroke="#03aa10" /><rect x="495.0" y="742.5" width="12.0" height="3" fill="#fff874" stroke="#eb9c26" /><rect x="482.0" y="787.5" width="12.0" height="3" fill="#80c9ff" stroke="#0b6cba" /><rect x="495.0" y="787.5" width="12.0" height="3" fill="#fff874" stroke="#eb9c26" /><rect x="469.0" y="855.0" width="12.0" height="3" fill="#35df39" stroke="#03aa10" /><rect x="482.0" y="855.0" width="12.0" height="3" fill="#80c9ff" stroke="#0b6cba" /><rect x="469.0" y="922.5" width="12.0" height="3" fill="#35df39" stroke="#03aa10" /><rect x="469.0" y="967.5" width="12.0" height="3" fill="#35df39" stroke="#03aa10" /><rect x="482.0" y="967.5" width="12.0" height="3" fill="#80c9ff" stroke="#0b6cba" /><rect x="495.0" y="967.5" width="12.0" height="3" fill="#fff874" stroke="#eb9c26" /><rect x="482.0" y="1035.0" width="12.0" height="3" fill="#80c9ff" stroke="#0b6cba" /><rect x="456.0" y="1080.0" width="12.0" height="3" fill="#ff3c3c" stroke="#c71f1f" /><rect x="456.0" y="1147.5" width="12.0" height="3" fill="#ff3c3c" stroke="#c71f1f" /><rect x="482.0" y="1147.5" width="12.0" height="3" fill="#80c9ff" stroke="#0b6cba" /><rect x="456.0" y="1207.5" width="12.0" height="3" fill="#ff3c3c" stroke="#c71f1f" /><rect x="469.0" y="1207.5" width="12.0" height="3" fill="#35df39" stroke="#03aa10" /><rect x="469.0" y="1282.5" width="12.0" height="3" fill="#35df39" stroke="#03aa10" /><rect x="495.0" y="1282.5" width="12.0" height="3" fill="#fff874" stroke="#eb9c26" /><rect x="469.0" y="1327.5" width="12.0" height="3" fill="#35df39" stroke="#03aa10" /><rect x="482.0" y="1327.5" width="12.0" height="3" fill="#80c9ff" stroke="#0b6cba" /><rect x="456.0" y="1395.0" width="12.0" height="3" fill="#ff3c3c" stroke="#c71f1f" /><rect x="469.0" y="1395.0" width="12.0" height="3" fill="#35df39" stroke="#03aa10" /><rect x="482.0" y="1395.0" width="12.0" height="3" fill="#80c9ff" stroke="#0b6cba" /><rect x="622.0" y="0.0" width="12.0" height="3" fill="#ff83f4" stroke="#d002bc" /><rect x="570" y="0.0" width="64" height="3" fill="#ff72e7" stroke="#7c7c7c" /><rect x="583.0" y="67.5" width="12.0" height="3" fill="#35df39" stroke="#03aa10" /><rect x="596.0" y="67.5" width="12.0" height="3" fill="#80c9ff" stroke="#0b6cba" /><rect x="583.0" y="135.0" width="12.0" height="3" fill="#35df39" stroke="#03aa10" /><rect x="609.0" y="135.0" width="12.0" height="3" fill="#fff874" stroke="#eb9c26" /><rect x="570.0" y="202.5" width="12.0" height="3" fill="#ff3c3c" stroke="#c71f1f" /><rect x="570.0" y="247.5" width="12.0" height="3" fill="#ff3c3c" stroke="#c71f1f" /><rect x="583.0" y="247.5" width="12.0" height="3" fill="#35df39" stroke="#03aa10" /><rect x="596.0" y="247.5" width="12.0" height="3" fill="#80c9ff" stroke="#0b6cba" /><rect x="583.0" y="315.0" width="12.0" height="3" fill="#35df39" stroke="#03aa10" /><rect x="609.0" y="315.0" width="12.0" height="3" fill="#fff874" stroke="#eb9c26" /><rect x="596.0" y="360.0" width="12.0" height="3" fill="#80c9ff" stroke="#0b6cba" /><rect x="609.0" y="360.0" width="12.0" height="3" fill="#fff874" stroke="#eb9c26" /><rect x="622.0" y="360.0" width="12.0" height="3" fill="#ff83f4" stroke="#d002bc" /><rect x="609.0" y="405.0" width="12.0" height="3" fill="#fff874" stroke="#eb9c26" /><rect x="622.0" y="405.0" width="12.0" height="3" fill="#ff83f4" stroke="#d002bc" /><rect x="596.0" y="472.5" width="12.0" height="3" fill="#80c9ff" stroke="#0b6cba" /><rect x="622.0" y="472.5" width="12.0" height="3" fill="#ff83f4" stroke="#d002bc" /><rect x="583.0" y="517.5" width="12.0" height="3" fill="#35df39" stroke="#03aa10" /><rect x="596.0" y="517.5" width="12.0" height="3" fill="#80c9ff" stroke="#0b6cba" /><rect x="609.0" y="517.5" width="12.0" height="3" fill="#fff874" stroke="#eb9c26" /><rect x="570.0" y="990.0" width="12.0" height="81.0" fill="#ff3c3c" stroke="#c71f1f" /><rect x="596.0" y="990.0" width="12.0" height="81.0" fill="#80c9ff" stroke="#0b6cba" /><rect x="596.0" y="1080.0" width="12.0" height="3" fill="#80c9ff" stroke="#0b6cba" /><rect x="609.0" y="1080.0" width="12.0" height="3" fill="#fff874" stroke="#eb9c26" /><rect x="622.0" y="1080.0" width="12.0" height="3" fill="#ff83f4" stroke="#d002bc" /><rect x="609.0" y="1125.0" width="12.0" height="3" fill="#fff874" stroke="#eb9c26" /><rect x="622.0" y="1125.0" width="12.0" height="3" fill="#ff83f4" stroke="#d002bc" /><rect x="596.0" y="1192.5" width="12.0" height="3" fill="#80c9ff" stroke="#0b6cba" /><rect x="622.0" y="1192.5" width="12.0" height="3" fill="#ff83f4" stroke="#d002bc" /><rect x="583.0" y="1237.5" width="12.0" height="3" fill="#35df39" stroke="#03aa10" /><rect x="596.0" y="1237.5" width="12.0" height="3" fill="#80c9ff" stroke="#0b6cba" /><rect x="609.0" y="1237.5" width="12.0" height="3" fill="#fff874" stroke="#eb9c26" /><rect x="684.0" y="270.0" width="12.0" height="81.0" fill="#ff3c3c" stroke="#c71f1f" /><rect x="710.0" y="270.0" width="12.0" height="81.0" fill="#80c9ff" stroke="#0b6cba" /><rect x="710.0" y="360.0" width="12.0" height="3" fill="#80c9ff" stroke="#0b6cba" /><rect x="723.0" y="360.0" width="12.0" height="3" fill="#fff874" stroke="#eb9c26" /><rect x="736.0" y="360.0" width="12.0" height="3" fill="#ff83f4" stroke="#d002bc" /><rect x="723.0" y="405.0" width="12.0" height="3" fill="#fff874" stroke="#eb9c26" /><rect x="736.0" y="405.0" width="12.0" height="3" fill="#ff83f4" stroke="#d002bc" /><rect x="710.0" y="472.5" width="12.0" height="3" fill="#80c9ff" stroke="#0b6cba" /><rect x="736.0" y="472.5" width="12.0" height="3" fill="#ff83f4" stroke="#d002bc" /><rect x="697.0" y="517.5" width="12.0" height="3" fill="#35df39" stroke="#03aa10" /><rect x="710.0" y="517.5" width="12.0" height="3" fill="#80c9ff" stroke="#0b6cba" /><rect x="723.0" y="517.5" width="12.0" height="3" fill="#fff874" stroke="#eb9c26" /><rect x="697.0" y="742.5" width="12.0" height="3" fill="#35df39" stroke="#03aa10" /><rect x="723.0" y="742.5" width="12.0" height="3" fill="#fff874" stroke="#eb9c26" /><rect x="710.0" y="787.5" width="12.0" height="3" fill="#80c9ff" stroke="#0b6cba" /><rect x="723.0" y="787.5" width="12.0" height="3" fill="#fff874" stroke="#eb9c26" /><rect x="697.0" y="832.5" width="12.0" height="3" fill="#35df39" stroke="#03aa10" /><rect x="710.0" y="832.5" width="12.0" height="3" fill="#80c9ff" stroke="#0b6cba" /><rect x="684.0" y="877.5" width="12.0" height="101.25" fill="#ff3c3c" stroke="#c71f1f" /><rect x="697.0" y="877.5" width="12.0" height="101.25" fill="#35df39" stroke="#03aa10" /><rect x="710.0" y="877.5" width="12.0" height="101.25" fill="#80c9ff" stroke="#0b6cba" /><rect x="684.0" y="990.0" width="12.0" height="81.0" fill="#ff3c3c" stroke="#c71f1f" /><rect x="697.0" y="990.0" width="12.0" height="81.0" fill="#35df39" stroke="#03aa10" /><rect x="684.0" y="1080.0" width="12.0" height="3" fill="#ff3c3c" stroke="#c71f1f" /><rect x="684.0" y="1147.5" width="12.0" height="3" fill="#ff3c3c" stroke="#c71f1f" /><rect x="710.0" y="1147.5" width="12.0" height="3" fill="#80c9ff" stroke="#0b6cba" /><rect x="697.0" y="1237.5" width="12.0" height="3" fill="#35df39" stroke="#03aa10" /><rect x="710.0" y="1237.5" width="12.0" height="3" fill="#80c9ff" stroke="#0b6cba" /><rect x="710.0" y="1282.5" width="12.0" height="3" fill="#80c9ff" stroke="#0b6cba" /><rect x="736.0" y="1282.5" width="12.0" height="3" fill="#ff83f4" stroke="#d002bc" /><rect x="697.0" y="1327.5" width="12.0" height="3" fill="#35df39" stroke="#03aa10" /><rect x="710.0" y="1395.0" width="12.0" height="3" fill="#80c9ff" stroke="#0b6cba" /><rect x="723.0" y="1395.0" width="12.0" height="3" fill="#fff874" stroke="#eb9c26" /><rect x="736.0" y="1395.0" width="12.0" height="3" fill="#ff83f4" stroke="#d002bc" /><rect x="811.0" y="0.0" width="12.0" height="3" fill="#35df39" stroke="#03aa10" /><rect x="824.0" y="0.0" width="12.0" height="3" fill="#80c9ff" stroke="#0b6cba" /><rect x="811.0" y="67.5" width="12.0" height="3" fill="#35df39" stroke="#03aa10" /><rect x="837.0" y="67.5" width="12.0" height="3" fill="#fff874" stroke="#eb9c26" /><rect x="824.0" y="157.5" width="12.0" height="3" fill="#80c9ff" stroke="#0b6cba" /><rect x="850.0" y="157.5" width="12.0" height="3" fill="#ff83f4" stroke="#d002bc" /><rect x="837.0" y="202.5" width="12.0" height="3" fill="#fff874" stroke="#eb9c26" /><rect x="850.0" y="202.5" width="12.0" height="3" fill="#ff83f4" stroke="#d002bc" /><rect x="811.0" y="247.5" width="12.0" height="3" fill="#35df39" stroke="#03aa10" /><rect x="824.0" y="247.5" width="12.0" height="3" fill="#80c9ff" stroke="#0b6cba" /><rect x="824.0" y="315.0" width="12.0" height="3" fill="#80c9ff" stroke="#0b6cba" /><rect x="837.0" y="315.0" width="12.0" height="3" fill="#fff874" stroke="#eb9c26" /><rect x="811.0" y="1080.0" width="12.0" height="3" fill="#35df39" stroke="#03aa10" /><rect x="811.0" y="1125.0" width="12.0" height="3" fill="#35df39" stroke="#03aa10" /><rect x="824.0" y="1125.0" width="12.0" height="3" fill="#80c9ff" stroke="#0b6cba" /><rect x="824.0" y="1151.5" width="12.0" height="3" fill="#80c9ff" stroke="#0b6cba" /><rect x="850.0" y="1151.5" width="12.0" height="3" fill="#ff83f4" stroke="#d002bc" /><rect x="824.0" y="1196.5" width="12.0" height="3" fill="#80c9ff" stroke="#0b6cba" /><rect x="837.0" y="1196.5" width="12.0" height="3" fill="#fff874" stroke="#eb9c26" /><rect x="824.0" y="1215.0" width="12.0" height="3" fill="#80c9ff" stroke="#0b6cba" /><rect x="811.0" y="1260.0" width="12.0" height="3" fill="#35df39" stroke="#03aa10" /><rect x="837.0" y="1260.0" width="12.0" height="3" fill="#fff874" stroke="#eb9c26" /><rect x="824.0" y="1305.0" width="12.0" height="3" fill="#80c9ff" stroke="#0b6cba" /><rect x="837.0" y="1305.0" width="12.0" height="3" fill="#fff874" stroke="#eb9c26" /><rect x="837.0" y="1331.5" width="12.0" height="3" fill="#fff874" stroke="#eb9c26" /><rect x="850.0" y="1331.5" width="12.0" height="3" fill="#ff83f4" stroke="#d002bc" /><rect x="837.0" y="1376.5" width="12.0" height="3" fill="#fff874" stroke="#eb9c26" /><rect x="811.0" y="1395.0" width="12.0" height="3" fill="#35df39" stroke="#03aa10" /><rect x="824.0" y="1395.0" width="12.0" height="3" fill="#80c9ff" stroke="#0b6cba" /><rect x="938.0" y="0.0" width="12.0" height="3" fill="#80c9ff" stroke="#0b6cba" /><rect x="951.0" y="0.0" width="12.0" height="3" fill="#fff874" stroke="#eb9c26" /><rect x="938.0" y="45.0" width="12.0" height="3" fill="#80c9ff" stroke="#0b6cba" /><rect x="951.0" y="71.5" width="12.0" height="3" fill="#fff874" stroke="#eb9c26" /><rect x="964.0" y="71.5" width="12.0" height="3" fill="#ff83f4" stroke="#d002bc" /><rect x="964.0" y="116.5" width="12.0" height="3" fill="#ff83f4" stroke="#d002bc" /><rect x="938.0" y="135.0" width="12.0" height="3" fill="#80c9ff" stroke="#0b6cba" /><rect x="951.0" y="135.0" width="12.0" height="3" fill="#fff874" stroke="#eb9c26" /><rect x="938.0" y="206.5" width="12.0" height="3" fill="#80c9ff" stroke="#0b6cba" /><rect x="964.0" y="206.5" width="12.0" height="3" fill="#ff83f4" stroke="#d002bc" /><rect x="938.0" y="251.5" width="12.0" height="3" fill="#80c9ff" stroke="#0b6cba" /><rect x="951.0" y="251.5" width="12.0" height="3" fill="#fff874" stroke="#eb9c26" /><rect x="964.0" y="251.5" width="12.0" height="3" fill="#ff83f4" stroke="#d002bc" /><rect x="938.0" y="296.5" width="12.0" height="3" fill="#80c9ff" stroke="#0b6cba" /><rect x="951.0" y="296.5" width="12.0" height="3" fill="#fff874" stroke="#eb9c26" /><rect x="951.0" y="315.0" width="12.0" height="3" fill="#fff874" stroke="#eb9c26" /><rect x="964.0" y="315.0" width="12.0" height="3" fill="#ff83f4" stroke="#d002bc" /><rect x="925.0" y="360.0" width="12.0" height="3" fill="#35df39" stroke="#03aa10" /><rect x="925.0" y="405.0" width="12.0" height="3" fill="#35df39" stroke="#03aa10" /><rect x="938.0" y="405.0" width="12.0" height="3" fill="#80c9ff" stroke="#0b6cba" /><rect x="938.0" y="431.5" width="12.0" height="3" fill="#80c9ff" stroke="#0b6cba" /><rect x="964.0" y="431.5" width="12.0" height="3" fill="#ff83f4" stroke="#d002bc" /><rect x="938.0" y="476.5" width="12.0" height="3" fill="#80c9ff" stroke="#0b6cba" /><rect x="951.0" y="476.5" width="12.0" height="3" fill="#fff874" stroke="#eb9c26" /><rect x="938.0" y="495.0" width="12.0" height="3" fill="#80c9ff" stroke="#0b6cba" /><rect x="938.0" y="540.0" width="12.0" height="3" fill="#80c9ff" stroke="#0b6cba" /><rect x="964.0" y="540.0" width="12.0" height="3" fill="#ff83f4" stroke="#d002bc" /><rect x="951.0" y="585.0" width="12.0" height="3" fill="#fff874" stroke="#eb9c26" /><rect x="964.0" y="585.0" width="12.0" height="3" fill="#ff83f4" stroke="#d002bc" /><rect x="964.0" y="611.5" width="12.0" height="3" fill="#ff83f4" stroke="#d002bc" /><rect x="938.0" y="656.5" width="12.0" height="3" fill="#80c9ff" stroke="#0b6cba" /><rect x="925.0" y="675.0" width="12.0" height="3" fill="#35df39" stroke="#03aa10" /><rect x="951.0" y="675.0" width="12.0" height="3" fill="#fff874" stroke="#eb9c26" /><rect x="912.0" y="720.0" width="12.0" height="3" fill="#ff3c3c" stroke="#c71f1f" /><rect x="925.0" y="765.0" width="12.0" height="3" fill="#35df39" stroke="#03aa10" /><rect x="938.0" y="765.0" width="12.0" height="3" fill="#80c9ff" stroke="#0b6cba" /><rect x="925.0" y="791.5" width="12.0" height="3" fill="#35df39" stroke="#03aa10" /><rect x="951.0" y="791.5" width="12.0" height="3" fill="#fff874" stroke="#eb9c26" /><rect x="938.0" y="836.5" width="12.0" height="3" fill="#80c9ff" stroke="#0b6cba" /><rect x="951.0" y="836.5" width="12.0" height="3" fill="#fff874" stroke="#eb9c26" /><rect x="925.0" y="855.0" width="12.0" height="3" fill="#35df39" stroke="#03aa10" /><rect x="938.0" y="855.0" width="12.0" height="3" fill="#80c9ff" stroke="#0b6cba" /><rect x="938.0" y="926.5" width="12.0" height="3" fill="#80c9ff" stroke="#0b6cba" /><rect x="951.0" y="926.5" width="12.0" height="3" fill="#fff874" stroke="#eb9c26" /><rect x="964.0" y="926.5" width="12.0" height="3" fill="#ff83f4" stroke="#d002bc" /><rect x="938.0" y="971.5" width="12.0" height="3" fill="#80c9ff" stroke="#0b6cba" /><rect x="951.0" y="971.5" width="12.0" height="3" fill="#fff874" stroke="#eb9c26" /><rect x="938.0" y="1035.0" width="12.0" height="3" fill="#80c9ff" stroke="#0b6cba" /><rect x="964.0" y="1035.0" width="12.0" height="3" fill="#ff83f4" stroke="#d002bc" /><rect x="925.0" y="1080.0" width="12.0" height="3" fill="#35df39" stroke="#03aa10" /><rect x="925.0" y="1125.0" width="12.0" height="3" fill="#35df39" stroke="#03aa10" /><rect x="938.0" y="1125.0" width="12.0" height="3" fill="#80c9ff" stroke="#0b6cba" /><rect x="938.0" y="1151.5" width="12.0" height="3" fill="#80c9ff" stroke="#0b6cba" /><rect x="964.0" y="1151.5" width="12.0" height="3" fill="#ff83f4" stroke="#d002bc" /><rect x="938.0" y="1196.5" width="12.0" height="3" fill="#80c9ff" stroke="#0b6cba" /><rect x="951.0" y="1196.5" width="12.0" height="3" fill="#fff874" stroke="#eb9c26" /><rect x="938.0" y="1215.0" width="12.0" height="3" fill="#80c9ff" stroke="#0b6cba" /><rect x="925.0" y="1260.0" width="12.0" height="3" fill="#35df39" stroke="#03aa10" /><rect x="938.0" y="1260.0" width="12.0" height="3" fill="#80c9ff" stroke="#0b6cba" /><rect x="938.0" y="1305.0" width="12.0" height="3" fill="#80c9ff" stroke="#0b6cba" /><rect x="938.0" y="1331.5" width="12.0" height="3" fill="#80c9ff" stroke="#0b6cba" /><rect x="951.0" y="1331.5" width="12.0" height="3" fill="#fff874" stroke="#eb9c26" /><rect x="938.0" y="1376.5" width="12.0" height="3" fill="#80c9ff" stroke="#0b6cba" /><rect x="912.0" y="1395.0" width="12.0" height="3" fill="#ff3c3c" stroke="#c71f1f" /><rect x="925.0" y="1395.0" width="12.0" height="3" fill="#35df39" stroke="#03aa10" /><rect x="1026.0" y="0.0" width="12.0" height="3" fill="#ff3c3c" stroke="#c71f1f" /><rect x="1052.0" y="0.0" width="12.0" height="3" fill="#80c9ff" stroke="#0b6cba" /><rect x="1039.0" y="45.0" width="12.0" height="3" fill="#35df39" stroke="#03aa10" /><rect x="1039.0" y="71.5" width="12.0" height="3" fill="#35df39" stroke="#03aa10" /><rect x="1052.0" y="71.5" width="12.0" height="3" fill="#80c9ff" stroke="#0b6cba" /><rect x="1052.0" y="116.5" width="12.0" height="3" fill="#80c9ff" stroke="#0b6cba" /><rect x="1065.0" y="135.0" width="12.0" height="3" fill="#fff874" stroke="#eb9c26" /><rect x="1078.0" y="135.0" width="12.0" height="3" fill="#ff83f4" stroke="#d002bc" /><rect x="1052.0" y="206.5" width="12.0" height="3" fill="#80c9ff" stroke="#0b6cba" /><rect x="1065.0" y="206.5" width="12.0" height="3" fill="#fff874" stroke="#eb9c26" /><rect x="1078.0" y="206.5" width="12.0" height="3" fill="#ff83f4" stroke="#d002bc" /><rect x="1052.0" y="251.5" width="12.0" height="3" fill="#80c9ff" stroke="#0b6cba" /><rect x="1078.0" y="251.5" width="12.0" height="3" fill="#ff83f4" stroke="#d002bc" /><rect x="1052.0" y="296.5" width="12.0" height="3" fill="#80c9ff" stroke="#0b6cba" /><rect x="1065.0" y="296.5" width="12.0" height="3" fill="#fff874" stroke="#eb9c26" /><rect x="1039.0" y="341.5" width="12.0" height="3" fill="#35df39" stroke="#03aa10" /><rect x="1065.0" y="341.5" width="12.0" height="3" fill="#fff874" stroke="#eb9c26" /><rect x="1078.0" y="360.0" width="12.0" height="3" fill="#ff83f4" stroke="#d002bc" /><rect x="1026" y="360.0" width="64" height="3" fill="#ff72e7" stroke="#7c7c7c" /><rect x="1065.0" y="382.5" width="12.0" height="3" fill="#fff874" stroke="#eb9c26" /><rect x="1078.0" y="382.5" width="12.0" height="3" fill="#ff83f4" stroke="#d002bc" /><rect x="1052.0" y="450.0" width="12.0" height="3" fill="#80c9ff" stroke="#0b6cba" /><rect x="1065.0" y="450.0" width="12.0" height="3" fill="#fff874" stroke="#eb9c26" /><rect x="1039.0" y="495.0" width="12.0" height="3" fill="#35df39" stroke="#03aa10" /><rect x="1026.0" y="540.0" width="12.0" height="3" fill="#ff3c3c" stroke="#c71f1f" /><rect x="1039.0" y="540.0" width="12.0" height="3" fill="#35df39" stroke="#03aa10" /><rect x="1065.0" y="585.0" width="12.0" height="3" fill="#fff874" stroke="#eb9c26" /><rect x="1078.0" y="585.0" width="12.0" height="3" fill="#ff83f4" stroke="#d002bc" /><rect x="1052.0" y="607.5" width="12.0" height="3" fill="#80c9ff" stroke="#0b6cba" /><rect x="1039.0" y="652.5" width="12.0" height="3" fill="#35df39" stroke="#03aa10" /><rect x="1052.0" y="652.5" width="12.0" height="3" fill="#80c9ff" stroke="#0b6cba" /><rect x="1065.0" y="652.5" width="12.0" height="3" fill="#fff874" stroke="#eb9c26" /><rect x="1026.0" y="720.0" width="12.0" height="162.0" fill="#ff3c3c" stroke="#c71f1f" /><rect x="1039.0" y="720.0" width="12.0" height="162.0" fill="#35df39" stroke="#03aa10" /><rect x="1052.0" y="720.0" width="12.0" height="162.0" fill="#80c9ff" stroke="#0b6cba" /><rect x="1026.0" y="900.0" width="12.0" height="81.0" fill="#ff3c3c" stroke="#c71f1f" /><rect x="1052.0" y="900.0" width="12.0" height="81.0" fill="#80c9ff" stroke="#0b6cba" /><rect x="1039.0" y="990.0" width="12.0" height="81.0" fill="#35df39" stroke="#03aa10" /><rect x="1052.0" y="990.0" width="12.0" height="81.0" fill="#80c9ff" stroke="#0b6cba" /><rect x="1039.0" y="1080.0" width="12.0" height="3" fill="#35df39" stroke="#03aa10" /><rect x="1039.0" y="1125.0" width="12.0" height="3" fill="#35df39" stroke="#03aa10" /><rect x="1052.0" y="1125.0" width="12.0" height="3" fill="#80c9ff" stroke="#0b6cba" /><rect x="1052.0" y="1151.5" width="12.0" height="3" fill="#80c9ff" stroke="#0b6cba" /><rect x="1078.0" y="1151.5" width="12.0" height="3" fill="#ff83f4" stroke="#d002bc" /><rect x="1052.0" y="1196.5" width="12.0" height="3" fill="#80c9ff" stroke="#0b6cba" /><rect x="1065.0" y="1196.5" width="12.0" height="3" fill="#fff874" stroke="#eb9c26" /><rect x="1052.0" y="1215.0" width="12.0" height="3" fill="#80c9ff" stroke="#0b6cba" /><rect x="1039.0" y="1260.0" width="12.0" height="3" fill="#35df39" stroke="#03aa10" /><rect x="1065.0" y="1260.0" width="12.0" height="3" fill="#fff874" stroke="#eb9c26" /><rect x="1052.0" y="1305.0" width="12.0" height="3" fill="#80c9ff" stroke="#0b6cba" /><rect x="1065.0" y="1305.0" width="12.0" height="3" fill="#fff874" stroke="#eb9c26" /><rect x="1065.0" y="1331.5" width="12.0" height="3" fill="#fff874" stroke="#eb9c26" /><rect x="1078.0" y="1331.5" width="12.0" height="3" fill="#ff83f4" stroke="#d002bc" /><rect x="1065.0" y="1376.5" width="12.0" height="3" fill="#fff874" stroke="#eb9c26" /><rect x="1039.0" y="1395.0" width="12.0" height="3" fill="#35df39" stroke="#03aa10" /><rect x="1052.0" y="1395.0" width="12.0" height="3" fill="#80c9ff" stroke="#0b6cba" /><rect x="1166.0" y="0.0" width="12.0" height="3" fill="#80c9ff" stroke="#0b6cba" /><rect x="1179.0" y="0.0" width="12.0" height="3" fill="#fff874" stroke="#eb9c26" /><rect x="1166.0" y="45.0" width="12.0" height="3" fill="#80c9ff" stroke="#0b6cba" /><rect x="1179.0" y="71.5" width="12.0" height="3" fill="#fff874" stroke="#eb9c26" /><rect x="1192.0" y="71.5" width="12.0" height="3" fill="#ff83f4" stroke="#d002bc" /><rect x="1192.0" y="116.5" width="12.0" height="3" fill="#ff83f4" stroke="#d002bc" /><rect x="1166.0" y="135.0" width="12.0" height="3" fill="#80c9ff" stroke="#0b6cba" /><rect x="1179.0" y="135.0" width="12.0" height="3" fill="#fff874" stroke="#eb9c26" /><rect x="1166.0" y="206.5" width="12.0" height="3" fill="#80c9ff" stroke="#0b6cba" /><rect x="1192.0" y="206.5" width="12.0" height="3" fill="#ff83f4" stroke="#d002bc" /><rect x="1166.0" y="251.5" width="12.0" height="3" fill="#80c9ff" stroke="#0b6cba" /><rect x="1179.0" y="251.5" width="12.0" height="3" fill="#fff874" stroke="#eb9c26" /><rect x="1192.0" y="251.5" width="12.0" height="3" fill="#ff83f4" stroke="#d002bc" /><rect x="1166.0" y="296.5" width="12.0" height="3" fill="#80c9ff" stroke="#0b6cba" /><rect x="1179.0" y="296.5" width="12.0" height="3" fill="#fff874" stroke="#eb9c26" /><rect x="1179.0" y="315.0" width="12.0" height="3" fill="#fff874" stroke="#eb9c26" /><rect x="1192.0" y="315.0" width="12.0" height="3" fill="#ff83f4" stroke="#d002bc" /><rect x="1153.0" y="360.0" width="12.0" height="3" fill="#35df39" stroke="#03aa10" /><rect x="1153.0" y="405.0" width="12.0" height="3" fill="#35df39" stroke="#03aa10" /><rect x="1166.0" y="405.0" width="12.0" height="3" fill="#80c9ff" stroke="#0b6cba" /><rect x="1166.0" y="431.5" width="12.0" height="3" fill="#80c9ff" stroke="#0b6cba" /><rect x="1192.0" y="431.5" width="12.0" height="3" fill="#ff83f4" stroke="#d002bc" /><rect x="1166.0" y="476.5" width="12.0" height="3" fill="#80c9ff" stroke="#0b6cba" /><rect x="1179.0" y="476.5" width="12.0" height="3" fill="#fff874" stroke="#eb9c26" /><rect x="1166.0" y="495.0" width="12.0" height="3" fill="#80c9ff" stroke="#0b6cba" /><rect x="1166.0" y="540.0" width="12.0" height="3" fill="#80c9ff" stroke="#0b6cba" /><rect x="1192.0" y="540.0" width="12.0" height="3" fill="#ff83f4" stroke="#d002bc" /><rect x="1179.0" y="585.0" width="12.0" height="3" fill="#fff874" stroke="#eb9c26" /><rect x="1192.0" y="585.0" width="12.0" height="3" fill="#ff83f4" stroke="#d002bc" /><rect x="1192.0" y="611.5" width="12.0" height="3" fill="#ff83f4" stroke="#d002bc" /><rect x="1166.0" y="656.5" width="12.0" height="3" fill="#80c9ff" stroke="#0b6cba" /><rect x="1153.0" y="675.0" width="12.0" height="3" fill="#35df39" stroke="#03aa10" /><rect x="1179.0" y="675.0" width="12.0" height="3" fill="#fff874" stroke="#eb9c26" /><rect x="1140.0" y="720.0" width="12.0" height="3" fill="#ff3c3c" stroke="#c71f1f" /><rect x="1153.0" y="765.0" width="12.0" height="3" fill="#35df39" stroke="#03aa10" /><rect x="1166.0" y="765.0" width="12.0" height="3" fill="#80c9ff" stroke="#0b6cba" /><rect x="1153.0" y="791.5" width="12.0" height="3" fill="#35df39" stroke="#03aa10" /><rect x="1179.0" y="791.5" width="12.0" height="3" fill="#fff874" stroke="#eb9c26" /><rect x="1166.0" y="836.5" width="12.0" height="3" fill="#80c9ff" stroke="#0b6cba" /><rect x="1179.0" y="836.5" width="12.0" height="3" fill="#fff874" stroke="#eb9c26" /><rect x="1153.0" y="855.0" width="12.0" height="3" fill="#35df39" stroke="#03aa10" /><rect x="1166.0" y="855.0" width="12.0" height="3" fill="#80c9ff" stroke="#0b6cba" /><rect x="1166.0" y="926.5" width="12.0" height="3" fill="#80c9ff" stroke="#0b6cba" /><rect x="1179.0" y="926.5" width="12.0" height="3" fill="#fff874" stroke="#eb9c26" /><rect x="1192.0" y="926.5" width="12.0" height="3" fill="#ff83f4" stroke="#d002bc" /><rect x="1179.0" y="971.5" width="12.0" height="3" fill="#fff874" stroke="#eb9c26" /><rect x="1192.0" y="971.5" width="12.0" height="3" fill="#ff83f4" stroke="#d002bc" /><rect x="1166.0" y="1035.0" width="12.0" height="3" fill="#80c9ff" stroke="#0b6cba" /><rect x="1192.0" y="1035.0" width="12.0" height="3" fill="#ff83f4" stroke="#d002bc" /><rect x="1153.0" y="1080.0" width="12.0" height="3" fill="#35df39" stroke="#03aa10" /><rect x="1153.0" y="1125.0" width="12.0" height="3" fill="#35df39" stroke="#03aa10" /><rect x="1166.0" y="1125.0" width="12.0" height="3" fill="#80c9ff" stroke="#0b6cba" /><rect x="1166.0" y="1151.5" width="12.0" height="3" fill="#80c9ff" stroke="#0b6cba" /><rect x="1192.0" y="1151.5" width="12.0" height="3" fill="#ff83f4" stroke="#d002bc" /><rect x="1166.0" y="1196.5" width="12.0" height="3" fill="#80c9ff" stroke="#0b6cba" /><rect x="1179.0" y="1196.5" width="12.0" height="3" fill="#fff874" stroke="#eb9c26" /><rect x="1166.0" y="1215.0" width="12.0" height="3" fill="#80c9ff" stroke="#0b6cba" /><rect x="1153.0" y="1260.0" width="12.0" height="3" fill="#35df39" stroke="#03aa10" /><rect x="1166.0" y="1260.0" width="12.0" height="3" fill="#80c9ff" stroke="#0b6cba" /><rect x="1166.0" y="1305.0" width="12.0" height="3" fill="#80c9ff" stroke="#0b6cba" /><rect x="1166.0" y="1331.5" width="12.0" height="3" fill="#80c9ff" stroke="#0b6cba" /><rect x="1179.0" y="1331.5" width="12.0" height="3" fill="#fff874" stroke="#eb9c26" /><rect x="1166.0" y="1376.5" width="12.0" height="3" fill="#80c9ff" stroke="#0b6cba" /><rect x="1140.0" y="1395.0" width="12.0" height="3" fill="#ff3c3c" stroke="#c71f1f" /><rect x="1153.0" y="1395.0" width="12.0" height="3" fill="#35df39" stroke="#03aa10" /><rect x="1254.0" y="0.0" width="12.0" height="3" fill="#ff3c3c" stroke="#c71f1f" /><rect x="1280.0" y="0.0" width="12.0" height="3" fill="#80c9ff" stroke="#0b6cba" /><rect x="1267.0" y="45.0" width="12.0" height="3" fill="#35df39" stroke="#03aa10" /><rect x="1267.0" y="71.5" width="12.0" height="3" fill="#35df39" stroke="#03aa10" /><rect x="1280.0" y="71.5" width="12.0" height="3" fill="#80c9ff" stroke="#0b6cba" /><rect x="1280.0" y="116.5" width="12.0" height="3" fill="#80c9ff" stroke="#0b6cba" /><rect x="1293.0" y="135.0" width="12.0" height="3" fill="#fff874" stroke="#eb9c26" /><rect x="1306.0" y="135.0" width="12.0" height="3" fill="#ff83f4" stroke="#d002bc" /><rect x="1280.0" y="206.5" width="12.0" height="3" fill="#80c9ff" stroke="#0b6cba" /><rect x="1293.0" y="206.5" width="12.0" height="3" fill="#fff874" stroke="#eb9c26" /><rect x="1306.0" y="206.5" width="12.0" height="3" fill="#ff83f4" stroke="#d002bc" /><rect x="1280.0" y="251.5" width="12.0" height="3" fill="#80c9ff" stroke="#0b6cba" /><rect x="1306.0" y="251.5" width="12.0" height="3" fill="#ff83f4" stroke="#d002bc" /><rect x="1280.0" y="296.5" width="12.0" height="3" fill="#80c9ff" stroke="#0b6cba" /><rect x="1293.0" y="296.5" width="12.0" height="3" fill="#fff874" stroke="#eb9c26" /><rect x="1267.0" y="341.5" width="12.0" height="3" fill="#35df39" stroke="#03aa10" /><rect x="1293.0" y="341.5" width="12.0" height="3" fill="#fff874" stroke="#eb9c26" /><rect x="1306.0" y="360.0" width="12.0" height="3" fill="#ff83f4" stroke="#d002bc" /><rect x="1254" y="360.0" width="64" height="3" fill="#ff72e7" stroke="#7c7c7c" /><rect x="1293.0" y="382.5" width="12.0" height="3" fill="#fff874" stroke="#eb9c26" /><rect x="1306.0" y="382.5" width="12.0" height="3" fill="#ff83f4" stroke="#d002bc" /><rect x="1280.0" y="450.0" width="12.0" height="3" fill="#80c9ff" stroke="#0b6cba" /><rect x="1293.0" y="450.0" width="12.0" height="3" fill="#fff874" stroke="#eb9c26" /><rect x="1267.0" y="495.0" width="12.0" height="3" fill="#35df39" stroke="#03aa10" /><rect x="1254.0" y="540.0" width="12.0" height="3" fill="#ff3c3c" stroke="#c71f1f" /><rect x="1267.0" y="540.0" width="12.0" height="3" fill="#35df39" stroke="#03aa10" /><rect x="1293.0" y="585.0" width="12.0" height="3" fill="#fff874" stroke="#eb9c26" /><rect x="1306.0" y="585.0" width="12.0" height="3" fill="#ff83f4" stroke="#d002bc" /><rect x="1280.0" y="607.5" width="12.0" height="3" fill="#80c9ff" stroke="#0b6cba" /><rect x="1267.0" y="652.5" width="12.0" height="3" fill="#35df39" stroke="#03aa10" /><rect x="1280.0" y="652.5" width="12.0" height="3" fill="#80c9ff" stroke="#0b6cba" /><rect x="1293.0" y="652.5" width="12.0" height="3" fill="#fff874" stroke="#eb9c26" /><rect x="1254.0" y="720.0" width="12.0" height="3" fill="#ff3c3c" stroke="#c71f1f" /><rect x="1267.0" y="720.0" width="12.0" height="3" fill="#35df39" stroke="#03aa10" /><rect x="1280.0" y="720.0" width="12.0" height="3" fill="#80c9ff" stroke="#0b6cba" /></svg>