<?xml version="1.0" encoding="UTF-8"?><svg xmlns="http://www.w3.org/2000/svg" xmlns:xlink="http://www.w3.org/1999/xlink"     width="4046" height="1019.0" viewBox="0 0 4046 1019.0"><defs></defs><rect x="0" y="59.0" width="188" height="960.0" fill="black" /><rect x="0" y="1018.0" width="188" height="1" fill="white" fill-opacity="0.5" /><text x="198" y="1018.0" font-size="14" fill="white" font-family="monospace" dominant-baseline="initial">1</text><rect x="0" y="958.0" width="188" height="1" fill="white" fill-opacity="0.2" /><rect x="0" y="898.0" width="188" height="1" fill="white" fill-opacity="0.2" /><rect x="0" y="838.0" width="188" height="1" fill="white" fill-opacity="0.2" /><rect x="0" y="778.0" width="188" height="1" fill="white" fill-opacity="0.5" /><text x="198" y="778.0" font-size="14" fill="white" font-family="monospace" dominant-baseline="initial">2</text><rect x="0" y="718.0" width="188" height="1" fill="white" fill-opacity="0.2" /><rect x="0" y="658.0" width="188" height="1" fill="white" fill-opacity="0.2" /><rect x="0" y="598.0" width="188" height="1" fill="white" fill-opacity="0.2" /><rect x="0" y="538.0" width="188" height="1" fill="white" fill-opacity="0.5" /><text x="198" y="538.0" font-size="14" fill="white" font-family="monospace" dominant-baseline="initial">3</text><rect x="0" y="478.0" width="188" height="1" fill="white" fill-opacity="0.2" /><rect x="0" y="418.0" width="188" height="1" fill="white" fill-opacity="0.2" /><rect x="0" y="358.0" width="188" height="1" fill="white" fill-opacity="0.2" /><rect x="0" y="298.0" width="188" height="1" fill="white" fill-opacity="0.5" /><text x="198" y="298.0" font-size="14" fill="white" font-family="monospace" dominant-baseline="initial">4</text><rect x="0" y="238.0" width="188" height="1" fill="white" fill-opacity="0.2" /><rect x="0" y="178.0" width="188" height="1" fill="white" fill-opacity="0.2" /><rect x="0" y="118.0" width="188" height="1" fill="white" fill-opacity="0.2" /><rect x="0" y="58.0" width="188" height="1" fill="white" fill-opacity="0.5" /><text x="198" y="58.0" font-size="14" fill="white" font-family="monospace" dominant-baseline="initial">5</text><rect x="0" y="1018.0" width="188" height="1" fill="aqua" fill-opacity="0.75" /><text x="0" y="1014.0" font-size="14" fill="aqua" fill-opacity="0.75" font-family="monospace">Intro</text><rect x="0" y="1018.0" width="188" height="1" fill="lime" fill-opacity="0.75" /><text x="198" y="1005.0" font-size="14" fill="lime" font-family="monospace" dominant-baseline="initial">150</text><rect x="238" y="59.0" width="188" height="960.0" fill="black" /><rect x="238" y="1018.0" width="188" height="1" fill="white" fill-opacity="0.5" /><text x="436" y="1018.0" font-size="14" fill="white" font-family="monospace" dominant-baseline="initial">5</text><rect x="238" y="958.0" width="188" height="1" fill="white" fill-opacity="0.2" /><rect x="238" y="898.0" width="188" height="1" fill="white" fill-opacity="0.2" /><rect x="238" y="838.0" width="188" height="1" fill="white" fill-opacity="0.2" /><rect x="238" y="778.0" width="188" height="1" fill="white" fill-opacity="0.5" /><text x="436" y="778.0" font-size="14" fill="white" font-family="monospace" dominant-baseline="initial">6</text><rect x="238" y="718.0" width="188" height="1" fill="white" fill-opacity="0.2" /><rect x="238" y="658.0" width="188" height="1" fill="white" fill-opacity="0.2" /><rect x="238" y="598.0" width="188" height="1" fill="white" fill-opacity="0.2" /><rect x="238" y="538.0" width="188" height="1" fill="white" fill-opacity="0.5" /><text x="436" y="538.0" font-size="14" fill="white" font-family="monospace" dominant-baseline="initial">7</text><rect x="238" y="478.0" width="188" height="1" fill="white" fill-opacity="0.2" /><rect x="238" y="418.0" width="188" height="1" fill="white" fill-opacity="0.2" /><rect x="238" y="358.0" width="188" height="1" fill="white" fill-opacity="0.2" /><rect x="238" y="298.0" width="188" height="1" fill="white" fill-opacity="0.5" /><text x="436" y="298.0" font-size="14" fill="white" font-family="monospace" dominant-baseline="initial">8</text><rect x="238" y="238.0" width="188" height="1" fill="white" fill-opacity="0.2" /><rect x="238" y="178.0" width="188" height="1" fill="white" fill-opacity="0.2" /><rect x="238" y="118.0" width="188" height="1" fill="white" fill-opacity="0.2" /><rect x="238" y="58.0" width="188" height="1" fill="white" fill-opacity="0.5" /><text x="436" y="58.0" font-size="14" fill="white" font-family="monospace" dominant-baseline="initial">9</text><rect x="476" y="59.0" width="188" height="960.0" fill="black" /><rect x="476" y="1018.0" width="188" height="1" fill="white" fill-opacity="0.5" /><text x="674" y="1018.0" font-size="14" fill="white" font-family="monospace" dominant-baseline="initial">9</text><rect x="476" y="958.0" width="188" height="1" fill="white" fill-opacity="0.2" /><rect x="476" y="898.0" width="188" height="1" fill="white" fill-opacity="0.2" /><rect x="476" y="838.0" width="188" height="1" fill="white" fill-opacity="0.2" /><rect x="476" y="778.0" width="188" height="1" fill="white" fill-opacity="0.5" /><text x="674" y="778.0" font-size="14" fill="white" font-family="monospace" dominant-baseline="initial">10</text><rect x="476" y="718.0" width="188" height="1" fill="white" fill-opacity="0.2" /><rect x="476" y="658.0" width="188" height="1" fill="white" fill-opacity="0.2" /><rect x="476" y="598.0" width="188" height="1" fill="white" fill-opacity="0.2" /><rect x="476" y="538.0" width="188" height="1" fill="white" fill-opacity="0.5" /><text x="674" y="538.0" font-size="14" fill="white" font-family="monospace" dominant-baseline="initial">11</text><rect x="476" y="478.0" width="188" height="1" fill="white" fill-opacity="0.2" /><rect x="476" y="418.0" width="188" height="1" fill="white" fill-opacity="0.2" /><rect x="476" y="358.0" width="188" height="1" fill="white" fill-opacity="0.2" /><rect x="476" y="298.0" width="188" height="1" fill="white" fill-opacity="0.5" /><text x="674" y="298.0" font-size="14" fill="white" font-family="monospace" dominant-baseline="initial">12</text><rect x="476" y="238.0" width="188" height="1" fill="white" fill-opacity="0.2" /><rect x="476" y="178.0" width="188" height="1" fill="white" fill-opacity="0.2" /><rect x="476" y="118.0" width="188" height="1" fill="white" fill-opacity="0.2" /><rect x="476" y="58.0" width="188" height="1" fill="white" fill-opacity="0.5" /><text x="674" y="58.0" font-size="14" fill="white" font-family="monospace" dominant-baseline="initial">13</text><rect x="714" y="59.0" width="188" height="960.0" fill="black" /><rect x="714" y="1018.0" width="188" height="1" fill="white" fill-opacity="0.5" /><text x="912" y="1018.0" font-size="14" fill="white" font-family="monospace" dominant-baseline="initial">13</text><rect x="714" y="958.0" width="188" height="1" fill="white" fill-opacity="0.2" /><rect x="714" y="898.0" width="188" height="1" fill="white" fill-opacity="0.2" /><rect x="714" y="838.0" width="188" height="1" fill="white" fill-opacity="0.2" /><rect x="714" y="778.0" width="188" height="1" fill="white" fill-opacity="0.5" /><text x="912" y="778.0" font-size="14" fill="white" font-family="monospace" dominant-baseline="initial">14</text><rect x="714" y="718.0" width="188" height="1" fill="white" fill-opacity="0.2" /><rect x="714" y="658.0" width="188" height="1" fill="white" fill-opacity="0.2" /><rect x="714" y="598.0" width="188" height="1" fill="white" fill-opacity="0.2" /><rect x="714" y="538.0" width="188" height="1" fill="white" fill-opacity="0.5" /><text x="912" y="538.0" font-size="14" fill="white" font-family="monospace" dominant-baseline="initial">15</text><rect x="714" y="478.0" width="188" height="1" fill="white" fill-opacity="0.2" /><rect x="714" y="418.0" width="188" height="1" fill="white" fill-opacity="0.2" /><rect x="714" y="358.0" width="188" height="1" fill="white" fill-opacity="0.2" /><rect x="714" y="298.0" width="188" height="1" fill="white" fill-opacity="0.5" /><text x="912" y="298.0" font-size="14" fill="white" font-family="monospace" dominant-baseline="initial">16</text><rect x="714" y="238.0" width="188" height="1" fill="white" fill-opacity="0.2" /><rect x="714" y="178.0" width="188" height="1" fill="white" fill-opacity="0.2" /><rect x="714" y="118.0" width="188" height="1" fill="white" fill-opacity="0.2" /><rect x="714" y="58.0" width="188" height="1" fill="white" fill-opacity="0.5" /><text x="912" y="58.0" font-size="14" fill="white" font-family="monospace" dominant-baseline="initial">17</text><rect x="714" y="778.0" width="188" height="1" fill="aqua" fill-opacity="0.75" /><text x="714" y="774.0" font-size="14" fill="aqua" fill-opacity="0.75" font-family="monospace">Phrase A</text><rect x="952" y="59.0" width="188" height="960.0" fill="black" /><rect x="952" y="1018.0" width="188" height="1" fill="white" fill-opacity="0.5" /><text x="1150" y="1018.0" font-size="14" fill="white" font-family="monospace" dominant-baseline="initial">17</text><rect x="952" y="958.0" width="188" height="1" fill="white" fill-opacity="0.2" /><rect x="952" y="898.0" width="188" height="1" fill="white" fill-opacity="0.2" /><rect x="952" y="838.0" width="188" height="1" fill="white" fill-opacity="0.2" /><rect x="952" y="778.0" width="188" height="1" fill="white" fill-opacity="0.5" /><text x="1150" y="778.0" font-size="14" fill="white" font-family="monospace" dominant-baseline="initial">18</text><rect x="952" y="718.0" width="188" height="1" fill="white" fill-opacity="0.2" /><rect x="952" y="658.0" width="188" height="1" fill="white" fill-opacity="0.2" /><rect x="952" y="598.0" width="188" height="1" fill="white" fill-opacity="0.2" /><rect x="952" y="538.0" width="188" height="1" fill="white" fill-opacity="0.5" /><text x="1150" y="538.0" font-size="14" fill="white" font-family="monospace" dominant-baseline="initial">19</text><rect x="952" y="478.0" width="188" height="1" fill="white" fill-opacity="0.2" /><rect x="952" y="418.0" width="188" height="1" fill="white" fill-opacity="0.2" /><rect x="952" y="358.0" width="188" height="1" fill="white" fill-opacity="0.2" /><rect x="952" y="298.0" width="188" height="1" fill="white" fill-opacity="0.5" /><text x="1150" y="298.0" font-size="14" fill="white" font-family="monospace" dominant-baseline="initial">20</text><rect x="952" y="238.0" width="188" height="1" fill="white" fill-opacity="0.2" /><rect x="952" y="178.0" width="188" height="1" fill="white" fill-opacity="0.2" /><rect x="952" y="118.0" width="188" height="1" fill="white" fill-opacity="0.2" /><rect x="952" y="58.0" width="188" height="1" fill="white" fill-opacity="0.5" /><text x="1150" y="58.0" font-size="14" fill="white" font-family="monospace" dominant-baseline="initial">21</text><rect x="1190" y="59.0" width="188" height="960.0" fill="black" /><rect x="1190" y="1018.0" width="188" height="1" fill="white" fill-opacity="0.5" /><text x="1388" y="1018.0" font-size="14" fill="white" font-family="monospace" dominant-baseline="initial">21</text><rect x="1190" y="958.0" width="188" height="1" fill="white" fill-opacity="0.2" /><rect x="1190" y="898.0" width="188" height="1" fill="white" fill-opacity="0.2" /><rect x="1190" y="838.0" width="188" height="1" fill="white" fill-opacity="0.2" /><rect x="1190" y="778.0" width="188" height="1" fill="white" fill-opacity="0.5" /><text x="1388" y="778.0" font-size="14" fill="white" font-family="monospace" dominant-baseline="initial">22</text><rect x="1190" y="718.0" width="188" height="1" fill="white" fill-opacity="0.2" /><rect x="1190" y="658.0" width="188" height="1" fill="white" fill-opacity="0.2" /><rect x="1190" y="598.0" width="188" height="1" fill="white" fill-opacity="0.2" /><rect x="1190" y="538.0" width="188" height="1" fill="white" fill-opacity="0.5" /><text x="1388" y="538.0" font-size="14" fill="white" font-family="monospace" dominant-baseline="initial">23</text><rect x="1190" y="478.0" width="188" height="1" fill="white" fill-opacity="0.2" /><rect x="1190" y="418.0" width="188" height="1" fill="white" fill-opacity="0.2" /><rect x="1190" y="358.0" width="188" height="1" fill="white" fill-opacity="0.2" /><rect x="1190" y="298.0" width="188" height="1" fill="white" fill-opacity="0.5" /><text x="1388" y="298.0" font-size="14" fill="white" font-family="monospace" dominant-baseline="initial">24</text><rect x="1190" y="238.0" width="188" height="1" fill="white" fill-opacity="0.2" /><rect x="1190" y="178.0" width="188" height="1" fill="white" fill-opacity="0.2" /><rect x="1190" y="118.0" width="188" height="1" fill="white" fill-opacity="0.2" /><rect x="1190" y="58.0" width="188" height="1" fill="white" fill-opacity="0.5" /><text x="1388" y="58.0" font-size="14" fill="white" font-family="monospace" dominant-baseline="initial">25</text><rect x="1190" y="778.0" width="188" height="1" fill="aqua" fill-opacity="0.75" /><text x="1190" y="774.0" font-size="14" fill="aqua" fill-opacity="0.75" font-family="monospace">Phrase B</text><rect x="1428" y="59.0" width="188" height="960.0" fill="black" /><rect x="1428" y="1018.0" width="188" height="1" fill="white" fill-opacity="0.5" /><text x="1626" y="1018.0" font-size="14" fill="white" font-family="monospace" dominant-baseline="initial">25</text><rect x="1428" y="958.0" width="188" height="1" fill="white" fill-opacity="0.2" /><rect x="1428" y="898.0" width="188" height="1" fill="white" fill-opacity="0.2" /><rect x="1428" y="838.0" width="188" height="1" fill="white" fill-opacity="0.2" /><rect x="1428" y="778.0" width="188" height="1" fill="white" fill-opacity="0.5" /><text x="1626" y="778.0" font-size="14" fill="white" font-family="monospace" dominant-baseline="initial">26</text><rect x="1428" y="718.0" width="188" height="1" fill="white" fill-opacity="0.2" /><rect x="1428" y="658.0" width="188" height="1" fill="white" fill-opacity="0.2" /><rect x="1428" y="598.0" width="188" height="1" fill="white" fill-opacity="0.2" /><rect x="1428" y="538.0" width="188" height="1" fill="white" fill-opacity="0.5" /><text x="1626" y="538.0" font-size="14" fill="white" font-family="monospace" dominant-baseline="initial">27</text><rect x="1428" y="478.0" width="188" height="1" fill="white" fill-opacity="0.2" /><rect x="1428" y="418.0" width="188" height="1" fill="white" fill-opacity="0.2" /><rect x="1428" y="358.0" width="188" height="1" fill="white" fill-opacity="0.2" /><rect x="1428" y="298.0" width="188" height="1" fill="white" fill-opacity="0.5" /><text x="1626" y="298.0" font-size="14" fill="white" font-family="monospace" dominant-baseline="initial">28</text><rect x="1428" y="238.0" width="188" height="1" fill="white" fill-opacity="0.2" /><rect x="1428" y="178.0" width="188" height="1" fill="white" fill-opacity="0.2" /><rect x="1428" y="118.0" width="188" height="1" fill="white" fill-opacity="0.2" /><rect x="1428" y="58.0" width="188" height="1" fill="white" fill-opacity="0.5" /><text x="1626" y="58.0" font-size="14" fill="white" font-family="monospace" dominant-baseline="initial">29</text><rect x="1666" y="59.0" width="188" height="960.0" fill="black" /><rect x="1666" y="1018.0" width="188" height="1" fill="white" fill-opacity="0.5" /><text x="1864" y="1018.0" font-size="14" fill="white" font-family="monospace" dominant-baseline="initial">29</text><rect x="1666" y="958.0" width="188" height="1" fill="white" fill-opacity="0.2" /><rect x="1666" y="898.0" width="188" height="1" fill="white" fill-opacity="0.2" /><rect x="1666" y="838.0" width="188" height="1" fill="white" fill-opacity="0.2" /><rect x="1666" y="778.0" width="188" height="1" fill="white" fill-opacity="0.5" /><text x="1864" y="778.0" font-size="14" fill="white" font-family="monospace" dominant-baseline="initial">30</text><rect x="1666" y="718.0" width="188" height="1" fill="white" fill-opacity="0.2" /><rect x="1666" y="658.0" width="188" height="1" fill="white" fill-opacity="0.2" /><rect x="1666" y="598.0" width="188" height="1" fill="white" fill-opacity="0.2" /><rect x="1666" y="538.0" width="188" height="1" fill="white" fill-opacity="0.5" /><text x="1864" y="538.0" font-size="14" fill="white" font-family="monospace" dominant-baseline="initial">31</text><rect x="1666" y="478.0" width="188" height="1" fill="white" fill-opacity="0.2" /><rect x="1666" y="418.0" width="188" height="1" fill="white" fill-opacity="0.2" /><rect x="1666" y="358.0" width="188" height="1" fill="white" fill-opacity="0.2" /><rect x="1666" y="298.0" width="188" height="1" fill="white" fill-opacity="0.5" /><text x="1864" y="298.0" font-size="14" fill="white" font-family="monospace" dominant-baseline="initial">32</text><rect x="1666" y="238.0" width="188" height="1" fill="white" fill-opacity="0.2" /><rect x="1666" y="178.0" width="188" height="1" fill="white" fill-opacity="0.2" /><rect x="1666" y="118.0" width="188" height="1" fill="white" fill-opacity="0.2" /><rect x="1666" y="58.0" width="188" height="1" fill="white" fill-opacity="0.5" /><text x="1864" y="58.0" font-size="14" fill="white" font-family="monospace" dominant-baseline="initial">33</text><rect x="1666" y="778.0" width="188" height="1" fill="aqua" fill-opacity="0.75" /><text x="1666" y="774.0" font-size="14" fill="aqua" fill-opacity="0.75" font-family="monospace">Phrase C</text><rect x="1904" y="59.0" width="188" height="960.0" fill="black" /><rect x="1904" y="1018.0" width="188" height="1" fill="white" fill-opacity="0.5" /><text x="2102" y="1018.0" font-size="14" fill="white" font-family="monospace" dominant-baseline="initial">33</text><rect x="1904" y="958.0" width="188" height="1" fill="white" fill-opacity="0.2" /><rect x="1904" y="898.0" width="188" height="1" fill="white" fill-opacity="0.2" /><rect x="1904" y="838.0" width="188" height="1" fill="white" fill-opacity="0.2" /><rect x="1904" y="778.0" width="188" height="1" fill="white" fill-opacity="0.5" /><text x="2102" y="778.0" font-size="14" fill="white" font-family="monospace" dominant-baseline="initial">34</text><rect x="1904" y="718.0" width="188" height="1" fill="white" fill-opacity="0.2" /><rect x="1904" y="658.0" width="188" height="1" fill="white" fill-opacity="0.2" /><rect x="1904" y="598.0" width="188" height="1" fill="white" fill-opacity="0.2" /><rect x="1904" y="538.0" width="188" height="1" fill="white" fill-opacity="0.5" /><text x="2102" y="538.0" font-size="14" fill="white" font-family="monospace" dominant-baseline="initial">35</text><rect x="1904" y="478.0" width="188" height="1" fill="white" fill-opacity="0.2" /><rect x="1904" y="418.0" width="188" height="1" fill="white" fill-opacity="0.2" /><rect x="1904" y="358.0" width="188" height="1" fill="white" fill-opacity="0.2" /><rect x="1904" y="298.0" width="188" height="1" fill="white" fill-opacity="0.5" /><text x="2102" y="298.0" font-size="14" fill="white" font-family="monospace" dominant-baseline="initial">36</text><rect x="1904" y="238.0" width="188" height="1" fill="white" fill-opacity="0.2" /><rect x="1904" y="178.0" width="188" height="1" fill="white" fill-opacity="0.2" /><rect x="1904" y="118.0" width="188" height="1" fill="white" fill-opacity="0.2" /><rect x="1904" y="58.0" width="188" height="1" fill="white" fill-opacity="0.5" /><text x="2102" y="58.0" font-size="14" fill="white" font-family="monospace" dominant-baseline="initial">37</text><rect x="2142" y="59.0" width="188" height="960.0" fill="black" /><rect x="2142" y="1018.0" width="188" height="1" fill="white" fill-opacity="0.5" /><text x="2340" y="1018.0" font-size="14" fill="white" font-family="monospace" dominant-baseline="initial">37</text><rect x="2142" y="958.0" width="188" height="1" fill="white" fill-opacity="0.2" /><rect x="2142" y="898.0" width="188" height="1" fill="white" fill-opacity="0.2" /><rect x="2142" y="838.0" width="188" height="1" fill="white" fill-opacity="0.2" /><rect x="2142" y="778.0" width="188" height="1" fill="white" fill-opacity="0.5" /><text x="2340" y="778.0" font-size="14" fill="white" font-family="monospace" dominant-baseline="initial">38</text><rect x="2142" y="718.0" width="188" height="1" fill="white" fill-opacity="0.2" /><rect x="2142" y="658.0" width="188" height="1" fill="white" fill-opacity="0.2" /><rect x="2142" y="598.0" width="188" height="1" fill="white" fill-opacity="0.2" /><rect x="2142" y="538.0" width="188" height="1" fill="white" fill-opacity="0.5" /><text x="2340" y="538.0" font-size="14" fill="white" font-family="monospace" dominant-baseline="initial">39</text><rect x="2142" y="478.0" width="188" height="1" fill="white" fill-opacity="0.2" /><rect x="2142" y="418.0" width="188" height="1" fill="white" fill-opacity="0.2" /><rect x="2142" y="358.0" width="188" height="1" fill="white" fill-opacity="0.2" /><rect x="2142" y="298.0" width="188" height="1" fill="white" fill-opacity="0.5" /><text x="2340" y="298.0" font-size="14" fill="white" font-family="monospace" dominant-baseline="initial">40</text><rect x="2142" y="238.0" width="188" height="1" fill="white" fill-opacity="0.2" /><rect x="2142" y="178.0" width="188" height="1" fill="white" fill-opacity="0.2" /><rect x="2142" y="118.0" width="188" height="1" fill="white" fill-opacity="0.2" /><rect x="2142" y="58.0" width="188" height="1" fill="white" fill-opacity="0.5" /><text x="2340" y="58.0" font-size="14" fill="white" font-family="monospace" dominant-baseline="initial">41</text><rect x="2142" y="298.0" width="188" height="1" fill="aqua" fill-opacity="0.75" /><text x="2142" y="294.0" font-size="14" fill="aqua" fill-opacity="0.75" font-family="monospace">Special</text><rect x="2380" y="59.0" width="188" height="960.0" fill="black" /><rect x="2380" y="1018.0" width="188" height="1" fill="white" fill-opacity="0.5" /><text x="2578" y="1018.0" font-size="14" fill="white" font-family="monospace" dominant-baseline="initial">41</text><rect x="2380" y="958.0" width="188" height="1" fill="white" fill-opacity="0.2" /><rect x="2380" y="898.0" width="188" height="1" fill="white" fill-opacity="0.2" /><rect x="2380" y="838.0" width="188" height="1" fill="white" fill-opacity="0.2" /><rect x="2380" y="778.0" width="188" height="1" fill="white" fill-opacity="0.5" /><text x="2578" y="778.0" font-size="14" fill="white" font-family="monospace" dominant-baseline="initial">42</text><rect x="2380" y="718.0" width="188" height="1" fill="white" fill-opacity="0.2" /><rect x="2380" y="658.0" width="188" height="1" fill="white" fill-opacity="0.2" /><rect x="2380" y="598.0" width="188" height="1" fill="white" fill-opacity="0.2" /><rect x="2380" y="538.0" width="188" height="1" fill="white" fill-opacity="0.5" /><text x="2578" y="538.0" font-size="14" fill="white" font-family="monospace" dominant-baseline="initial">43</text><rect x="2380" y="478.0" width="188" height="1" fill="white" fill-opacity="0.2" /><rect x="2380" y="418.0" width="188" height="1" fill="white" fill-opacity="0.2" /><rect x="2380" y="358.0" width="188" height="1" fill="white" fill-opacity="0.2" /><rect x="2380" y="298.0" width="188" height="1" fill="white" fill-opacity="0.5" /><text x="2578" y="298.0" font-size="14" fill="white" font-family="monospace" dominant-baseline="initial">44</text><rect x="2380" y="238.0" width="188" height="1" fill="white" fill-opacity="0.2" /><rect x="2380" y="178.0" width="188" height="1" fill="white" fill-opacity="0.2" /><rect x="2380" y="118.0" width="188" height="1" fill="white" fill-opacity="0.2" /><rect x="2380" y="58.0" width="188" height="1" fill="white" fill-opacity="0.5" /><text x="2578" y="58.0" font-size="14" fill="white" font-family="monospace" dominant-baseline="initial">45</text><rect x="2618" y="59.0" width="188" height="960.0" fill="black" /><rect x="2618" y="1018.0" width="188" height="1" fill="white" fill-opacity="0.5" /><text x="2816" y="1018.0" font-size="14" fill="white" font-family="monospace" dominant-baseline="initial">45</text><rect x="2618" y="958.0" width="188" height="1" fill="white" fill-opacity="0.2" /><rect x="2618" y="898.0" width="188" height="1" fill="white" fill-opacity="0.2" /><rect x="2618" y="838.0" width="188" height="1" fill="white" fill-opacity="0.2" /><rect x="2618" y="778.0" width="188" height="1" fill="white" fill-opacity="0.5" /><text x="2816" y="778.0" font-size="14" fill="white" font-family="monospace" dominant-baseline="initial">46</text><rect x="2618" y="718.0" width="188" height="1" fill="white" fill-opacity="0.2" /><rect x="2618" y="658.0" width="188" height="1" fill="white" fill-opacity="0.2" /><rect x="2618" y="598.0" width="188" height="1" fill="white" fill-opacity="0.2" /><rect x="2618" y="538.0" width="188" height="1" fill="white" fill-opacity="0.5" /><text x="2816" y="538.0" font-size="14" fill="white" font-family="monospace" dominant-baseline="initial">47</text><rect x="2618" y="478.0" width="188" height="1" fill="white" fill-opacity="0.2" /><rect x="2618" y="418.0" width="188" height="1" fill="white" fill-opacity="0.2" /><rect x="2618" y="358.0" width="188" height="1" fill="white" fill-opacity="0.2" /><rect x="2618" y="298.0" width="188" height="1" fill="white" fill-opacity="0.5" /><text x="2816" y="298.0" font-size="14" fill="white" font-family="monospace" dominant-baseline="initial">48</text><rect x="2618" y="238.0" width="188" height="1" fill="white" fill-opacity="0.2" /><rect x="2618" y="178.0" width="188" height="1" fill="white" fill-opacity="0.2" /><rect x="2618" y="118.0" width="188" height="1" fill="white" fill-opacity="0.2" /><rect x="2618" y="58.0" width="188" height="1" fill="white" fill-opacity="0.5" /><text x="2816" y="58.0" font-size="14" fill="white" font-family="monospace" dominant-baseline="initial">49</text><rect x="2856" y="59.0" width="188" height="960.0" fill="black" /><rect x="2856" y="1018.0" width="188" height="1" fill="white" fill-opacity="0.5" /><text x="3054" y="1018.0" font-size="14" fill="white" font-family="monospace" dominant-baseline="initial">49</text><rect x="2856" y="958.0" width="188" height="1" fill="white" fill-opacity="0.2" /><rect x="2856" y="898.0" width="188" height="1" fill="white" fill-opacity="0.2" /><rect x="2856" y="838.0" width="188" height="1" fill="white" fill-opacity="0.2" /><rect x="2856" y="778.0" width="188" height="1" fill="white" fill-opacity="0.5" /><text x="3054" y="778.0" font-size="14" fill="white" font-family="monospace" dominant-baseline="initial">50</text><rect x="2856" y="718.0" width="188" height="1" fill="white" fill-opacity="0.2" /><rect x="2856" y="658.0" width="188" height="1" fill="white" fill-opacity="0.2" /><rect x="2856" y="598.0" width="188" height="1" fill="white" fill-opacity="0.2" /><rect x="2856" y="538.0" width="188" height="1" fill="white" fill-opacity="0.5" /><text x="3054" y="538.0" font-size="14" fill="white" font-family="monospace" dominant-baseline="initial">51</text><rect x="2856" y="478.0" width="188" height="1" fill="white" fill-opacity="0.2" /><rect x="2856" y="418.0" width="188" height="1" fill="white" fill-opacity="0.2" /><rect x="2856" y="358.0" width="188" height="1" fill="white" fill-opacity="0.2" /><rect x="2856" y="298.0" width="188" height="1" fill="white" fill-opacity="0.5" /><text x="3054" y="298.0" font-size="14" fill="white" font-family="monospace" dominant-baseline="initial">52</text><rect x="2856" y="238.0" width="188" height="1" fill="white" fill-opacity="0.2" /><rect x="2856" y="178.0" width="188" height="1" fill="white" fill-opacity="0.2" /><rect x="2856" y="118.0" width="188" height="1" fill="white" fill-opacity="0.2" /><rect x="2856" y="58.0" width="188" height="1" fill="white" fill-opacity="0.5" /><text x="3054" y="58.0" font-size="14" fill="white" font-family="monospace" dominant-baseline="initial">53</text><rect x="3094" y="59.0" width="188" height="960.0" fill="black" /><rect x="3094" y="1018.0" width="188" height="1" fill="white" fill-opacity="0.5" /><text x="3292" y="1018.0" font-size="14" fill="white" font-family="monospace" dominant-baseline="initial">53</text><rect x="3094" y="958.0" width="188" height="1" fill="white" fill-opacity="0.2" /><rect x="3094" y="898.0" width="188" height="1" fill="white" fill-opacity="0.2" /><rect x="3094" y="838.0" width="188" height="1" fill="white" fill-opacity="0.2" /><rect x="3094" y="778.0" width="188" height="1" fill="white" fill-opacity="0.5" /><text x="3292" y="778.0" font-size="14" fill="white" font-family="monospace" dominant-baseline="initial">54</text><rect x="3094" y="718.0" width="188" height="1" fill="white" fill-opacity="0.2" /><rect x="3094" y="658.0" width="188" height="1" fill="white" fill-opacity="0.2" /><rect x="3094" y="598.0" width="188" height="1" fill="white" fill-opacity="0.2" /><rect x="3094" y="538.0" width="188" height="1" fill="white" fill-opacity="0.5" /><text x="3292" y="538.0" font-size="14" fill="white" font-family="monospace" dominant-baseline="initial">55</text><rect x="3094" y="478.0" width="188" height="1" fill="white" fill-opacity="0.2" /><rect x="3094" y="418.0" width="188" height="1" fill="white" fill-opacity="0.2" /><rect x="3094" y="358.0" width="188" height="1" fill="white" fill-opacity="0.2" /><rect x="3094" y="298.0" width="188" height="1" fill="white" fill-opacity="0.5" /><text x="3292" y="298.0" font-size="14" fill="white" font-family="monospace" dominant-baseline="initial">56</text><rect x="3094" y="238.0" width="188" height="1" fill="white" fill-opacity="0.2" /><rect x="3094" y="178.0" width="188" height="1" fill="white" fill-opacity="0.2" /><rect x="3094" y="118.0" width="188" height="1" fill="white" fill-opacity="0.2" /><rect x="3094" y="58.0" width="188" height="1" fill="white" fill-opacity="0.5" /><text x="3292" y="58.0" font-size="14" fill="white" font-family="monospace" dominant-baseline="initial">57</text><rect x="3332" y="59.0" width="188" height="960.0" fill="black" /><rect x="3332" y="1018.0" width="188" height="1" fill="white" fill-opacity="0.5" /><text x="3530" y="1018.0" font-size="14" fill="white" font-family="monospace" dominant-baseline="initial">57</text><rect x="3332" y="958.0" width="188" height="1" fill="white" fill-opacity="0.2" /><rect x="3332" y="898.0" width="188" height="1" fill="white" fill-opacity="0.2" /><rect x="3332" y="838.0" width="188" height="1" fill="white" fill-opacity="0.2" /><rect x="3332" y="778.0" width="188" height="1" fill="white" fill-opacity="0.5" /><text x="3530" y="778.0" font-size="14" fill="white" font-family="monospace" dominant-baseline="initial">58</text><rect x="3332" y="718.0" width="188" height="1" fill="white" fill-opacity="0.2" /><rect x="3332" y="658.0" width="188" height="1" fill="white" fill-opacity="0.2" /><rect x="3332" y="598.0" width="188" height="1" fill="white" fill-opacity="0.2" /><rect x="3332" y="538.0" width="188" height="1" fill="white" fill-opacity="0.5" /><text x="3530" y="538.0" font-size="14" fill="white" font-family="monospace" dominant-baseline="initial">59</text><rect x="3332" y="478.0" width="188" height="1" fill="white" fill-opacity="0.2" /><rect x="3332" y="418.0" width="188" height="1" fill="white" fill-opacity="0.2" /><rect x="3332" y="358.0" width="188" height="1" fill="white" fill-opacity="0.2" /><rect x="3332" y="298.0" width="188" height="1" fill="white" fill-opacity="0.5" /><text x="3530" y="298.0" font-size="14" fill="white" font-family="monospace" dominant-baseline="initial">60</text><rect x="3332" y="238.0" width="188" height="1" fill="white" fill-opacity="0.2" /><rect x="3332" y="178.0" width="188" height="1" fill="white" fill-opacity="0.2" /><rect x="3332" y="118.0" width="188" height="1" fill="white" fill-opacity="0.2" /><rect x="3332" y="58.0" width="188" height="1" fill="white" fill-opacity="0.5" /><text x="3530" y="58.0" font-size="14" fill="white" font-family="monospace" dominant-baseline="initial">61</text><rect x="3332" y="298.0" width="188" height="1" fill="aqua" fill-opacity="0.75" /><text x="3332" y="294.0" font-size="14" fill="aqua" fill-opacity="0.75" font-family="monospace">Outro</text><rect x="3570" y="59.0" width="188" height="960.0" fill="black" /><rect x="3570" y="1018.0" width="188" height="1" fill="white" fill-opacity="0.5" /><text x="3768" y="1018.0" font-size="14" fill="white" font-family="monospace" dominant-baseline="initial">61</text><rect x="3570" y="958.0" width="188" height="1" fill="white" fill-opacity="0.2" /><rect x="3570" y="898.0" width="188" height="1" fill="white" fill-opacity="0.2" /><rect x="3570" y="838.0" width="188" height="1" fill="white" fill-opacity="0.2" /><rect x="3570" y="778.0" width="188" height="1" fill="white" fill-opacity="0.5" /><text x="3768" y="778.0" font-size="14" fill="white" font-family="monospace" dominant-baseline="initial">62</text><rect x="3570" y="718.0" width="188" height="1" fill="white" fill-opacity="0.2" /><rect x="3570" y="658.0" width="188" height="1" fill="white" fill-opacity="0.2" /><rect x="3570" y="598.0" width="188" height="1" fill="white" fill-opacity="0.2" /><rect x="3570" y="538.0" width="188" height="1" fill="white" fill-opacity="0.5" /><text x="3768" y="538.0" font-size="14" fill="white" font-family="monospace" dominant-baseline="initial">63</text><rect x="3570" y="478.0" width="188" height="1" fill="white" fill-opacity="0.2" /><rect x="3570" y="418.0" width="188" height="1" fill="white" fill-opacity="0.2" /><rect x="3570" y="358.0" width="188" height="1" fill="white" fill-opacity="0.2" /><rect x="3570" y="298.0" width="188" height="1" fill="white" fill-opacity="0.5" /><text x="3768" y="298.0" font-size="14" fill="white" font-family="monospace" dominant-baseline="initial">64</text><rect x="3570" y="238.0" width="188" height="1" fill="white" fill-opacity="0.2" /><rect x="3570" y="178.0" width="188" height="1" fill="white" fill-opacity="0.2" /><rect x="3570" y="118.0" width="188" height="1" fill="white" fill-opacity="0.2" /><rect x="3570" y="58.0" width="188" height="1" fill="white" fill-opacity="0.5" /><text x="3768" y="58.0" font-size="14" fill="white" font-family="monospace" dominant-baseline="initial">65</text><rect x="3808" y="14.0" width="188" height="1005.0" fill="black" /><rect x="3808" y="1018.0" width="188" height="1" fill="white" fill-opacity="0.5" /><text x="4006" y="1018.0" font-size="14" fill="white" font-family="monospace" dominant-baseline="initial">65</text><rect x="3808" y="958.0" width="188" height="1" fill="white" fill-opacity="0.2" /><rect x="3808" y="898.0" width="188" height="1" fill="white" fill-opacity="0.2" /><rect x="3808" y="838.0" width="188" height="1" fill="white" fill-opacity="0.2" /><rect x="3808" y="778.0" width="188" height="1" fill="white" fill-opacity="0.5" /><text x="4006" y="778.0" font-size="14" fill="white" font-family="monospace" dominant-baseline="initial">66</text><rect x="3808" y="718.0" width="188" height="1" fill="white" fill-opacity="0.2" /><rect x="3808" y="658.0" width="188" height="1" fill="white" fill-opacity="0.2" /><rect x="3808" y="598.0" width="188" height="1" fill="white" fill-opacity="0.2" /><rect x="3808" y="538.0" width="188" height="1" fill="white" fill-opacity="0.5" /><text x="4006" y="538.0" font-size="14" fill="white" font-family="monospace" dominant-baseline="initial">67</text><rect x="3808" y="478.0" width="188" height="1" fill="white" fill-opacity="0.2" /><rect x="3808" y="418.0" width="188" height="1" fill="white" fill-opacity="0.2" /><rect x="3808" y="358.0" width="188" height="1" fill="white" fill-opacity="0.2" /><rect x="3808" y="298.0" width="188" height="1" fill="white" fill-opacity="0.5" /><text x="4006" y="298.0" font-size="14" fill="white" font-family="monospace" dominant-baseline="initial">68</text></svg>