<?xml version="1.0" encoding="UTF-8"?><svg xmlns="http://www.w3.org/2000/svg" xmlns:xlink="http://www.w3.org/1999/xlink"     width="2618" height="1514.0" viewBox="0 0 2618 1514.0"><defs></defs><rect x="0" y="102.0" width="188" height="1412.0" fill="black" /><rect x="0" y="1513.0" width="188" height="1" fill="white" fill-opacity="0.5" /><text x="198" y="1513.0" font-size="14" fill="white" font-family="monospace" dominant-baseline="initial">1</text><rect x="0" y="1425.0" width="188" height="1" fill="white" fill-opacity="0.2" /><rect x="0" y="1336.5" width="188" height="1" fill="white" fill-opacity="0.2" /><rect x="0" y="1248.5" width="188" height="1" fill="white" fill-opacity="0.2" /><rect x="0" y="1160.0" width="188" height="1" fill="white" fill-opacity="0.5" /><text x="198" y="1160.0" font-size="14" fill="white" font-family="monospace" dominant-baseline="initial">2</text><rect x="0" y="1072.0" width="188" height="1" fill="white" fill-opacity="0.2" /><rect x="0" y="983.5" width="188" height="1" fill="white" fill-opacity="0.2" /><rect x="0" y="895.5" width="188" height="1" fill="white" fill-opacity="0.2" /><rect x="0" y="807.0" width="188" height="1" fill="white" fill-opacity="0.5" /><text x="198" y="807.0" font-size="14" fill="white" font-family="monospace" dominant-baseline="initial">3</text><rect x="0" y="719.0" width="188" height="1" fill="white" fill-opacity="0.2" /><rect x="0" y="630.5" width="188" height="1" fill="white" fill-opacity="0.2" /><rect x="0" y="542.5" width="188" height="1" fill="white" fill-opacity="0.2" /><rect x="0" y="454.0" width="188" height="1" fill="white" fill-opacity="0.5" /><text x="198" y="454.0" font-size="14" fill="white" font-family="monospace" dominant-baseline="initial">4</text><rect x="0" y="366.0" width="188" height="1" fill="white" fill-opacity="0.2" /><rect x="0" y="277.5" width="188" height="1" fill="white" fill-opacity="0.2" /><rect x="0" y="189.5" width="188" height="1" fill="white" fill-opacity="0.2" /><rect x="0" y="101.0" width="188" height="1" fill="white" fill-opacity="0.5" /><text x="198" y="101.0" font-size="14" fill="white" font-family="monospace" dominant-baseline="initial">5</text><rect x="0" y="1513.0" width="188" height="1" fill="aqua" fill-opacity="0.75" /><text x="0" y="1509.0" font-size="14" fill="aqua" fill-opacity="0.75" font-family="monospace">Intro</text><rect x="0" y="1513.0" width="188" height="1" fill="lime" fill-opacity="0.75" /><text x="198" y="1500.0" font-size="14" fill="lime" font-family="monospace" dominant-baseline="initial">102</text><rect x="238" y="102.5" width="188" height="1411.5" fill="black" /><rect x="238" y="1513.0" width="188" height="1" fill="white" fill-opacity="0.5" /><text x="436" y="1513.0" font-size="14" fill="white" font-family="monospace" dominant-baseline="initial">5</text><rect x="238" y="1425.0" width="188" height="1" fill="white" fill-opacity="0.2" /><rect x="238" y="1337.0" width="188" height="1" fill="white" fill-opacity="0.2" /><rect x="238" y="1248.5" width="188" height="1" fill="white" fill-opacity="0.2" /><rect x="238" y="1160.5" width="188" height="1" fill="white" fill-opacity="0.5" /><text x="436" y="1160.5" font-size="14" fill="white" font-family="monospace" dominant-baseline="initial">6</text><rect x="238" y="1072.0" width="188" height="1" fill="white" fill-opacity="0.2" /><rect x="238" y="984.0" width="188" height="1" fill="white" fill-opacity="0.2" /><rect x="238" y="895.5" width="188" height="1" fill="white" fill-opacity="0.2" /><rect x="238" y="807.5" width="188" height="1" fill="white" fill-opacity="0.5" /><text x="436" y="807.5" font-size="14" fill="white" font-family="monospace" dominant-baseline="initial">7</text><rect x="238" y="719.0" width="188" height="1" fill="white" fill-opacity="0.2" /><rect x="238" y="631.0" width="188" height="1" fill="white" fill-opacity="0.2" /><rect x="238" y="542.5" width="188" height="1" fill="white" fill-opacity="0.2" /><rect x="238" y="454.5" width="188" height="1" fill="white" fill-opacity="0.5" /><text x="436" y="454.5" font-size="14" fill="white" font-family="monospace" dominant-baseline="initial">8</text><rect x="238" y="366.0" width="188" height="1" fill="white" fill-opacity="0.2" /><rect x="238" y="278.0" width="188" height="1" fill="white" fill-opacity="0.2" /><rect x="238" y="189.5" width="188" height="1" fill="white" fill-opacity="0.2" /><rect x="238" y="101.5" width="188" height="1" fill="white" fill-opacity="0.5" /><text x="436" y="101.5" font-size="14" fill="white" font-family="monospace" dominant-baseline="initial">9</text><rect x="476" y="102.0" width="188" height="1412.0" fill="black" /><rect x="476" y="1513.0" width="188" height="1" fill="white" fill-opacity="0.5" /><text x="674" y="1513.0" font-size="14" fill="white" font-family="monospace" dominant-baseline="initial">9</text><rect x="476" y="1424.5" width="188" height="1" fill="white" fill-opacity="0.2" /><rect x="476" y="1336.5" width="188" height="1" fill="white" fill-opacity="0.2" /><rect x="476" y="1248.5" width="188" height="1" fill="white" fill-opacity="0.2" /><rect x="476" y="1160.0" width="188" height="1" fill="white" fill-opacity="0.5" /><text x="674" y="1160.0" font-size="14" fill="white" font-family="monospace" dominant-baseline="initial">10</text><rect x="476" y="1072.0" width="188" height="1" fill="white" fill-opacity="0.2" /><rect x="476" y="983.5" width="188" height="1" fill="white" fill-opacity="0.2" /><rect x="476" y="895.5" width="188" height="1" fill="white" fill-opacity="0.2" /><rect x="476" y="807.0" width="188" height="1" fill="white" fill-opacity="0.5" /><text x="674" y="807.0" font-size="14" fill="white" font-family="monospace" dominant-baseline="initial">11</text><rect x="476" y="719.0" width="188" height="1" fill="white" fill-opacity="0.2" /><rect x="476" y="630.5" width="188" height="1" fill="white" fill-opacity="0.2" /><rect x="476" y="542.5" width="188" height="1" fill="white" fill-opacity="0.2" /><rect x="476" y="454.0" width="188" height="1" fill="white" fill-opacity="0.5" /><text x="674" y="454.0" font-size="14" fill="white" font-family="monospace" dominant-baseline="initial">12</text><rect x="476" y="366.0" width="188" height="1" fill="white" fill-opacity="0.2" /><rect x="476" y="277.5" width="188" height="1" fill="white" fill-opacity="0.2" /><rect x="476" y="189.5" width="188" height="1" fill="white" fill-opacity="0.2" /><rect x="476" y="101.0" width="188" height="1" fill="white" fill-opacity="0.5" /><text x="674" y="101.0" font-size="14" fill="white" font-family="monospace" dominant-baseline="initial">13</text><rect x="476" y="1160.1000000000004" width="188" height="1" fill="aqua" fill-opacity="0.75" /><text x="476" y="1156.1000000000004" font-size="14" fill="aqua" fill-opacity="0.75" font-family="monospace">Phrase A</text><rect x="714" y="102.5" width="188" height="1411.5" fill="black" /><rect x="714" y="1513.0" width="188" height="1" fill="white" fill-opacity="0.5" /><text x="912" y="1513.0" font-size="14" fill="white" font-family="monospace" dominant-baseline="initial">13</text><rect x="714" y="1425.0" width="188" height="1" fill="white" fill-opacity="0.2" /><rect x="714" y="1336.5" width="188" height="1" fill="white" fill-opacity="0.2" /><rect x="714" y="1248.5" width="188" height="1" fill="white" fill-opacity="0.2" /><rect x="714" y="1160.5" width="188" height="1" fill="white" fill-opacity="0.5" /><text x="912" y="1160.5" font-size="14" fill="white" font-family="monospace" dominant-baseline="initial">14</text><rect x="714" y="1072.0" width="188" height="1" fill="white" fill-opacity="0.2" /><rect x="714" y="984.0" width="188" height="1" fill="white" fill-opacity="0.2" /><rect x="714" y="895.5" width="188" height="1" fill="white" fill-opacity="0.2" /><rect x="714" y="807.5" width="188" height="1" fill="white" fill-opacity="0.5" /><text x="912" y="807.5" font-size="14" fill="white" font-family="monospace" dominant-baseline="initial">15</text><rect x="714" y="719.0" width="188" height="1" fill="white" fill-opacity="0.2" /><rect x="714" y="631.0" width="188" height="1" fill="white" fill-opacity="0.2" /><rect x="714" y="542.5" width="188" height="1" fill="white" fill-opacity="0.2" /><rect x="714" y="454.5" width="188" height="1" fill="white" fill-opacity="0.5" /><text x="912" y="454.5" font-size="14" fill="white" font-family="monospace" dominant-baseline="initial">16</text><rect x="714" y="366.0" width="188" height="1" fill="white" fill-opacity="0.2" /><rect x="714" y="278.0" width="188" height="1" fill="white" fill-opacity="0.2" /><rect x="714" y="189.5" width="188" height="1" fill="white" fill-opacity="0.2" /><rect x="714" y="101.5" width="188" height="1" fill="white" fill-opacity="0.5" /><text x="912" y="101.5" font-size="14" fill="white" font-family="monospace" dominant-baseline="initial">17</text><rect x="714" y="1160.3000000000002" width="188" height="1" fill="aqua" fill-opacity="0.75" /><text x="714" y="1156.3000000000002" font-size="14" fill="aqua" fill-opacity="0.75" font-family="monospace">Phrase B</text><rect x="952" y="102.0" width="188" height="1412.0" fill="black" /><rect x="952" y="1513.0" width="188" height="1" fill="white" fill-opacity="0.5" /><text x="1150" y="1513.0" font-size="14" fill="white" font-family="monospace" dominant-baseline="initial">17</text><rect x="952" y="1424.5" width="188" height="1" fill="white" fill-opacity="0.2" /><rect x="952" y="1336.5" width="188" height="1" fill="white" fill-opacity="0.2" /><rect x="952" y="1248.0" width="188" height="1" fill="white" fill-opacity="0.2" /><rect x="952" y="1160.0" width="188" height="1" fill="white" fill-opacity="0.5" /><text x="1150" y="1160.0" font-size="14" fill="white" font-family="monospace" dominant-baseline="initial">18</text><rect x="952" y="1072.0" width="188" height="1" fill="white" fill-opacity="0.2" /><rect x="952" y="983.5" width="188" height="1" fill="white" fill-opacity="0.2" /><rect x="952" y="895.5" width="188" height="1" fill="white" fill-opacity="0.2" /><rect x="952" y="807.0" width="188" height="1" fill="white" fill-opacity="0.5" /><text x="1150" y="807.0" font-size="14" fill="white" font-family="monospace" dominant-baseline="initial">19</text><rect x="952" y="719.0" width="188" height="1" fill="white" fill-opacity="0.2" /><rect x="952" y="630.5" width="188" height="1" fill="white" fill-opacity="0.2" /><rect x="952" y="542.5" width="188" height="1" fill="white" fill-opacity="0.2" /><rect x="952" y="454.0" width="188" height="1" fill="white" fill-opacity="0.5" /><text x="1150" y="454.0" font-size="14" fill="white" font-family="monospace" dominant-baseline="initial">20</text><rect x="952" y="366.0" width="188" height="1" fill="white" fill-opacity="0.2" /><rect x="952" y="277.5" width="188" height="1" fill="white" fill-opacity="0.2" /><rect x="952" y="189.5" width="188" height="1" fill="white" fill-opacity="0.2" /><rect x="952" y="101.0" width="188" height="1" fill="white" fill-opacity="0.5" /><text x="1150" y="101.0" font-size="14" fill="white" font-family="monospace" dominant-baseline="initial">21</text><rect x="952" y="1160.0" width="188" height="1" fill="aqua" fill-opacity="0.75" /><text x="952" y="1156.0" font-size="14" fill="aqua" fill-opacity="0.75" font-family="monospace">Special</text><rect x="1190" y="102.5" width="188" height="1411.5" fill="black" /><rect x="1190" y="1513.0" width="188" height="1" fill="white" fill-opacity="0.5" /><text x="1388" y="1513.0" font-size="14" fill="white" font-family="monospace" dominant-baseline="initial">21</text><rect x="1190" y="1425.0" width="188" height="1" fill="white" fill-opacity="0.2" /><rect x="1190" y="1336.5" width="188" height="1" fill="white" fill-opacity="0.2" /><rect x="1190" y="1248.5" width="188" height="1" fill="white" fill-opacity="0.2" /><rect x="1190" y="1160.0" width="188" height="1" fill="white" fill-opacity="0.5" /><text x="1388" y="1160.0" font-size="14" fill="white" font-family="monospace" dominant-baseline="initial">22</text><rect x="1190" y="1072.0" width="188" height="1" fill="white" fill-opacity="0.2" /><rect x="1190" y="984.0" width="188" height="1" fill="white" fill-opacity="0.2" /><rect x="1190" y="895.5" width="188" height="1" fill="white" fill-opacity="0.2" /><rect x="1190" y="807.5" width="188" height="1" fill="white" fill-opacity="0.5" /><text x="1388" y="807.5" font-size="14" fill="white" font-family="monospace" dominant-baseline="initial">23</text><rect x="1190" y="719.0" width="188" height="1" fill="white" fill-opacity="0.2" /><rect x="1190" y="631.0" width="188" height="1" fill="white" fill-opacity="0.2" /><rect x="1190" y="542.5" width="188" height="1" fill="white" fill-opacity="0.2" /><rect x="1190" y="454.5" width="188" height="1" fill="white" fill-opacity="0.5" /><text x="1388" y="454.5" font-size="14" fill="white" font-family="monospace" dominant-baseline="initial">24</text><rect x="1190" y="366.0" width="188" height="1" fill="white" fill-opacity="0.2" /><rect x="1190" y="278.0" width="188" height="1" fill="white" fill-opacity="0.2" /><rect x="1190" y="189.5" width="188" height="1" fill="white" fill-opacity="0.2" /><rect x="1190" y="101.5" width="188" height="1" fill="white" fill-opacity="0.5" /><text x="1388" y="101.5" font-size="14" fill="white" font-family="monospace" dominant-baseline="initial">25</text><rect x="1428" y="14.0" width="188" height="1500.0" fill="black" /><rect x="1428" y="1513.0" width="188" height="1" fill="white" fill-opacity="0.5" /><text x="1626" y="1513.0" font-size="14" fill="white" font-family="monospace" dominant-baseline="initial">25</text><rect x="1428" y="1424.5" width="188" height="1" fill="white" fill-opacity="0.2" /><rect x="1428" y="1336.5" width="188" height="1" fill="white" fill-opacity="0.2" /><rect x="1428" y="1248.0" width="188" height="1" fill="white" fill-opacity="0.2" /><rect x="1428" y="1160.0" width="188" height="1" fill="white" fill-opacity="0.2" /><rect x="1428" y="1071.5" width="188" height="1" fill="white" fill-opacity="0.5" /><text x="1626" y="1071.5" font-size="14" fill="white" font-family="monospace" dominant-baseline="initial">26</text><rect x="1428" y="983.5" width="188" height="1" fill="white" fill-opacity="0.2" /><rect x="1428" y="895.5" width="188" height="1" fill="white" fill-opacity="0.2" /><rect x="1428" y="807.0" width="188" height="1" fill="white" fill-opacity="0.2" /><rect x="1428" y="719.0" width="188" height="1" fill="white" fill-opacity="0.5" /><text x="1626" y="719.0" font-size="14" fill="white" font-family="monospace" dominant-baseline="initial">27</text><rect x="1428" y="630.5" width="188" height="1" fill="white" fill-opacity="0.2" /><rect x="1428" y="542.5" width="188" height="1" fill="white" fill-opacity="0.2" /><rect x="1428" y="454.0" width="188" height="1" fill="white" fill-opacity="0.2" /><rect x="1428" y="366.0" width="188" height="1" fill="white" fill-opacity="0.5" /><text x="1626" y="366.0" font-size="14" fill="white" font-family="monospace" dominant-baseline="initial">28</text><rect x="1428" y="277.5" width="188" height="1" fill="white" fill-opacity="0.2" /><rect x="1428" y="189.5" width="188" height="1" fill="white" fill-opacity="0.2" /><rect x="1428" y="101.0" width="188" height="1" fill="white" fill-opacity="0.2" /><rect x="1428" y="13.0" width="188" height="1" fill="white" fill-opacity="0.5" /><text x="1626" y="13.0" font-size="14" fill="white" font-family="monospace" dominant-baseline="initial">29</text><rect x="1428" y="1071.7000000000007" width="188" height="1" fill="aqua" fill-opacity="0.75" /><text x="1428" y="1067.7000000000007" font-size="14" fill="aqua" fill-opacity="0.75" font-family="monospace">Phrase C</text><rect x="1666" y="102.0" width="188" height="1412.0" fill="black" /><rect x="1666" y="1513.0" width="188" height="1" fill="white" fill-opacity="0.5" /><text x="1864" y="1513.0" font-size="14" fill="white" font-family="monospace" dominant-baseline="initial">29</text><rect x="1666" y="1424.5" width="188" height="1" fill="white" fill-opacity="0.2" /><rect x="1666" y="1336.5" width="188" height="1" fill="white" fill-opacity="0.2" /><rect x="1666" y="1248.0" width="188" height="1" fill="white" fill-opacity="0.2" /><rect x="1666" y="1160.0" width="188" height="1" fill="white" fill-opacity="0.5" /><text x="1864" y="1160.0" font-size="14" fill="white" font-family="monospace" dominant-baseline="initial">30</text><rect x="1666" y="1071.5" width="188" height="1" fill="white" fill-opacity="0.2" /><rect x="1666" y="983.5" width="188" height="1" fill="white" fill-opacity="0.2" /><rect x="1666" y="895.5" width="188" height="1" fill="white" fill-opacity="0.2" /><rect x="1666" y="807.0" width="188" height="1" fill="white" fill-opacity="0.5" /><text x="1864" y="807.0" font-size="14" fill="white" font-family="monospace" dominant-baseline="initial">31</text><rect x="1666" y="719.0" width="188" height="1" fill="white" fill-opacity="0.2" /><rect x="1666" y="630.5" width="188" height="1" fill="white" fill-opacity="0.2" /><rect x="1666" y="542.5" width="188" height="1" fill="white" fill-opacity="0.2" /><rect x="1666" y="454.0" width="188" height="1" fill="white" fill-opacity="0.5" /><text x="1864" y="454.0" font-size="14" fill="white" font-family="monospace" dominant-baseline="initial">32</text><rect x="1666" y="366.0" width="188" height="1" fill="white" fill-opacity="0.2" /><rect x="1666" y="277.5" width="188" height="1" fill="white" fill-opacity="0.2" /><rect x="1666" y="189.5" width="188" height="1" fill="white" fill-opacity="0.2" /><rect x="1666" y="101.0" width="188" height="1" fill="white" fill-opacity="0.5" /><text x="1864" y="101.0" font-size="14" fill="white" font-family="monospace" dominant-baseline="initial">33</text><rect x="1904" y="14.0" width="188" height="1500.0" fill="black" /><rect x="1904" y="1513.0" width="188" height="1" fill="white" fill-opacity="0.5" /><text x="2102" y="1513.0" font-size="14" fill="white" font-family="monospace" dominant-baseline="initial">33</text><rect x="1904" y="1425.0" width="188" height="1" fill="white" fill-opacity="0.2" /><rect x="1904" y="1336.5" width="188" height="1" fill="white" fill-opacity="0.2" /><rect x="1904" y="1248.5" width="188" height="1" fill="white" fill-opacity="0.2" /><rect x="1904" y="1160.0" width="188" height="1" fill="white" fill-opacity="0.2" /><rect x="1904" y="1072.0" width="188" height="1" fill="white" fill-opacity="0.5" /><text x="2102" y="1072.0" font-size="14" fill="white" font-family="monospace" dominant-baseline="initial">34</text><rect x="1904" y="983.5" width="188" height="1" fill="white" fill-opacity="0.2" /><rect x="1904" y="895.5" width="188" height="1" fill="white" fill-opacity="0.2" /><rect x="1904" y="807.5" width="188" height="1" fill="white" fill-opacity="0.2" /><rect x="1904" y="719.0" width="188" height="1" fill="white" fill-opacity="0.5" /><text x="2102" y="719.0" font-size="14" fill="white" font-family="monospace" dominant-baseline="initial">35</text><rect x="1904" y="631.0" width="188" height="1" fill="white" fill-opacity="0.2" /><rect x="1904" y="542.5" width="188" height="1" fill="white" fill-opacity="0.2" /><rect x="1904" y="454.5" width="188" height="1" fill="white" fill-opacity="0.2" /><rect x="1904" y="366.0" width="188" height="1" fill="white" fill-opacity="0.5" /><text x="2102" y="366.0" font-size="14" fill="white" font-family="monospace" dominant-baseline="initial">36</text><rect x="1904" y="278.0" width="188" height="1" fill="white" fill-opacity="0.2" /><rect x="1904" y="189.5" width="188" height="1" fill="white" fill-opacity="0.2" /><rect x="1904" y="101.5" width="188" height="1" fill="white" fill-opacity="0.2" /><rect x="1904" y="13.0" width="188" height="1" fill="white" fill-opacity="0.5" /><text x="2102" y="13.0" font-size="14" fill="white" font-family="monospace" dominant-baseline="initial">37</text><rect x="1904" y="1072.050000000001" width="188" height="1" fill="aqua" fill-opacity="0.75" /><text x="1904" y="1068.050000000001" font-size="14" fill="aqua" fill-opacity="0.75" font-family="monospace">Special</text><rect x="2142" y="102.5" width="188" height="1411.5" fill="black" /><rect x="2142" y="1513.0" width="188" height="1" fill="white" fill-opacity="0.5" /><text x="2340" y="1513.0" font-size="14" fill="white" font-family="monospace" dominant-baseline="initial">37</text><rect x="2142" y="1425.0" width="188" height="1" fill="white" fill-opacity="0.2" /><rect x="2142" y="1336.5" width="188" height="1" fill="white" fill-opacity="0.2" /><rect x="2142" y="1248.5" width="188" height="1" fill="white" fill-opacity="0.2" /><rect x="2142" y="1160.0" width="188" height="1" fill="white" fill-opacity="0.5" /><text x="2340" y="1160.0" font-size="14" fill="white" font-family="monospace" dominant-baseline="initial">38</text><rect x="2142" y="1072.0" width="188" height="1" fill="white" fill-opacity="0.2" /><rect x="2142" y="983.5" width="188" height="1" fill="white" fill-opacity="0.2" /><rect x="2142" y="895.5" width="188" height="1" fill="white" fill-opacity="0.2" /><rect x="2142" y="807.5" width="188" height="1" fill="white" fill-opacity="0.5" /><text x="2340" y="807.5" font-size="14" fill="white" font-family="monospace" dominant-baseline="initial">39</text><rect x="2142" y="719.0" width="188" height="1" fill="white" fill-opacity="0.2" /><rect x="2142" y="631.0" width="188" height="1" fill="white" fill-opacity="0.2" /><rect x="2142" y="542.5" width="188" height="1" fill="white" fill-opacity="0.2" /><rect x="2142" y="454.5" width="188" height="1" fill="white" fill-opacity="0.5" /><text x="2340" y="454.5" font-size="14" fill="white" font-family="monospace" dominant-baseline="initial">40</text><rect x="2142" y="366.0" width="188" height="1" fill="white" fill-opacity="0.2" /><rect x="2142" y="278.0" width="188" height="1" fill="white" fill-opacity="0.2" /><rect x="2142" y="189.5" width="188" height="1" fill="white" fill-opacity="0.2" /><rect x="2142" y="101.5" width="188" height="1" fill="white" fill-opacity="0.5" /><text x="2340" y="101.5" font-size="14" fill="white" font-family="monospace" dominant-baseline="initial">41</text><rect x="2380" y="666.0" width="188" height="848.0" fill="black" /><rect x="2380" y="1513.0" width="188" height="1" fill="white" fill-opacity="0.5" /><text x="2578" y="1513.0" font-size="14" fill="white" font-family="monospace" dominant-baseline="initial">41</text><rect x="2380" y="1424.5" width="188" height="1" fill="white" fill-opacity="0.2" /><rect x="2380" y="1336.5" width="188" height="1" fill="white" fill-opacity="0.2" /><rect x="2380" y="1248.0" width="188" height="1" fill="white" fill-opacity="0.2" /><rect x="2380" y="1160.0" width="188" height="1" fill="white" fill-opacity="0.5" /><text x="2578" y="1160.0" font-size="14" fill="white" font-family="monospace" dominant-baseline="initial">42</text><rect x="2380" y="1071.5" width="188" height="1" fill="white" fill-opacity="0.2" /><rect x="2380" y="983.5" width="188" height="1" fill="white" fill-opacity="0.2" /><rect x="2380" y="895.0" width="188" height="1" fill="white" fill-opacity="0.2" /><rect x="2380" y="807.0" width="188" height="1" fill="white" fill-opacity="0.5" /><text x="2578" y="807.0" font-size="14" fill="white" font-family="monospace" dominant-baseline="initial">43</text></svg>