<?xml version="1.0" encoding="UTF-8"?><svg xmlns="http://www.w3.org/2000/svg" xmlns:xlink="http://www.w3.org/1999/xlink"     width="1254" height="1514.0" viewBox="0 0 1254 1514.0"><defs></defs><rect x="0.0" y="353.0" width="12.0" height="3" fill="#ff3c3c" stroke="#c71f1f" /><rect x="26.0" y="375.0" width="12.0" height="3" fill="#80c9ff" stroke="#0b6cba" /><rect x="13.0" y="397.0" width="12.0" height="3" fill="#35df39" stroke="#03aa10" /><rect x="26.0" y="419.0" width="12.0" height="3" fill="#80c9ff" stroke="#0b6cba" /><rect x="39.0" y="441.0" width="12.0" height="3" fill="#fff874" stroke="#eb9c26" /><rect x="26.0" y="463.0" width="12.0" height="3" fill="#80c9ff" stroke="#0b6cba" /><rect x="13.0" y="485.5" width="12.0" height="3" fill="#35df39" stroke="#03aa10" /><rect x="26.0" y="507.5" width="12.0" height="3" fill="#80c9ff" stroke="#0b6cba" /><rect x="0.0" y="551.5" width="12.0" height="3" fill="#ff3c3c" stroke="#c71f1f" /><rect x="26.0" y="551.5" width="12.0" height="3" fill="#80c9ff" stroke="#0b6cba" /><rect x="0.0" y="595.5" width="12.0" height="3" fill="#ff3c3c" stroke="#c71f1f" /><rect x="26.0" y="595.5" width="12.0" height="3" fill="#80c9ff" stroke="#0b6cba" /><rect x="26.0" y="639.5" width="12.0" height="3" fill="#80c9ff" stroke="#0b6cba" /><rect x="13.0" y="662.0" width="12.0" height="3" fill="#35df39" stroke="#03aa10" /><rect x="26.0" y="684.0" width="12.0" height="3" fill="#80c9ff" stroke="#0b6cba" /><rect x="0.0" y="706.0" width="12.0" height="3" fill="#ff3c3c" stroke="#c71f1f" /><rect x="26.0" y="728.0" width="12.0" height="3" fill="#80c9ff" stroke="#0b6cba" /><rect x="13.0" y="750.0" width="12.0" height="3" fill="#35df39" stroke="#03aa10" /><rect x="26.0" y="772.0" width="12.0" height="3" fill="#80c9ff" stroke="#0b6cba" /><rect x="39.0" y="794.0" width="12.0" height="3" fill="#fff874" stroke="#eb9c26" /><rect x="26.0" y="816.0" width="12.0" height="3" fill="#80c9ff" stroke="#0b6cba" /><rect x="13.0" y="838.0" width="12.0" height="3" fill="#35df39" stroke="#03aa10" /><rect x="26.0" y="860.5" width="12.0" height="3" fill="#80c9ff" stroke="#0b6cba" /><rect x="0.0" y="970.5" width="12.0" height="3" fill="#ff3c3c" stroke="#c71f1f" /><rect x="26.0" y="992.5" width="12.0" height="3" fill="#80c9ff" stroke="#0b6cba" /><rect x="13.0" y="1014.5" width="12.0" height="3" fill="#35df39" stroke="#03aa10" /><rect x="26.0" y="1037.0" width="12.0" height="3" fill="#80c9ff" stroke="#0b6cba" /><rect x="0.0" y="1059.0" width="12.0" height="3" fill="#ff3c3c" stroke="#c71f1f" /><rect x="26.0" y="1081.0" width="12.0" height="3" fill="#80c9ff" stroke="#0b6cba" /><rect x="13.0" y="1103.0" width="12.0" height="3" fill="#35df39" stroke="#03aa10" /><rect x="26.0" y="1125.0" width="12.0" height="3" fill="#80c9ff" stroke="#0b6cba" /><rect x="39.0" y="1147.0" width="12.0" height="3" fill="#fff874" stroke="#eb9c26" /><rect x="26.0" y="1169.0" width="12.0" height="3" fill="#80c9ff" stroke="#0b6cba" /><rect x="13.0" y="1191.0" width="12.0" height="3" fill="#35df39" stroke="#03aa10" /><rect x="26.0" y="1213.0" width="12.0" height="3" fill="#80c9ff" stroke="#0b6cba" /><rect x="0.0" y="1257.5" width="12.0" height="3" fill="#ff3c3c" stroke="#c71f1f" /><rect x="26.0" y="1257.5" width="12.0" height="3" fill="#80c9ff" stroke="#0b6cba" /><rect x="0.0" y="1301.5" width="12.0" height="3" fill="#ff3c3c" stroke="#c71f1f" /><rect x="26.0" y="1301.5" width="12.0" height="3" fill="#80c9ff" stroke="#0b6cba" /><rect x="26.0" y="1345.5" width="12.0" height="3" fill="#80c9ff" stroke="#0b6cba" /><rect x="13.0" y="1367.5" width="12.0" height="3" fill="#35df39" stroke="#03aa10" /><rect x="26.0" y="1389.5" width="12.0" height="3" fill="#80c9ff" stroke="#0b6cba" /><rect x="114.0" y="0.0" width="12.0" height="3" fill="#ff3c3c" stroke="#c71f1f" /><rect x="140.0" y="22.0" width="12.0" height="3" fill="#80c9ff" stroke="#0b6cba" /><rect x="127.0" y="44.0" width="12.0" height="3" fill="#35df39" stroke="#03aa10" /><rect x="140.0" y="66.0" width="12.0" height="3" fill="#80c9ff" stroke="#0b6cba" /><rect x="153.0" y="88.0" width="12.0" height="3" fill="#fff874" stroke="#eb9c26" /><rect x="140.0" y="110.0" width="12.0" height="3" fill="#80c9ff" stroke="#0b6cba" /><rect x="127.0" y="132.0" width="12.0" height="3" fill="#35df39" stroke="#03aa10" /><rect x="140.0" y="154.0" width="12.0" height="3" fill="#80c9ff" stroke="#0b6cba" /><rect x="114.0" y="176.0" width="12.0" height="3" fill="#ff3c3c" stroke="#c71f1f" /><rect x="140.0" y="176.0" width="12.0" height="3" fill="#80c9ff" stroke="#0b6cba" /><rect x="114.0" y="220.5" width="12.0" height="3" fill="#ff3c3c" stroke="#c71f1f" /><rect x="114.0" y="242.5" width="12.0" height="3" fill="#ff3c3c" stroke="#c71f1f" /><rect x="140.0" y="242.5" width="12.0" height="3" fill="#80c9ff" stroke="#0b6cba" /><rect x="153.0" y="286.5" width="12.0" height="3" fill="#fff874" stroke="#eb9c26" /><rect x="114.0" y="308.5" width="12.0" height="3" fill="#ff3c3c" stroke="#c71f1f" /><rect x="140.0" y="308.5" width="12.0" height="3" fill="#80c9ff" stroke="#0b6cba" /><rect x="114.0" y="352.5" width="12.0" height="3" fill="#ff3c3c" stroke="#c71f1f" /><rect x="140.0" y="375.0" width="12.0" height="3" fill="#80c9ff" stroke="#0b6cba" /><rect x="127.0" y="397.0" width="12.0" height="3" fill="#35df39" stroke="#03aa10" /><rect x="140.0" y="419.0" width="12.0" height="3" fill="#80c9ff" stroke="#0b6cba" /><rect x="153.0" y="441.0" width="12.0" height="3" fill="#fff874" stroke="#eb9c26" /><rect x="140.0" y="463.0" width="12.0" height="3" fill="#80c9ff" stroke="#0b6cba" /><rect x="127.0" y="485.0" width="12.0" height="3" fill="#35df39" stroke="#03aa10" /><rect x="140.0" y="507.0" width="12.0" height="3" fill="#80c9ff" stroke="#0b6cba" /><rect x="114.0" y="551.0" width="12.0" height="3" fill="#ff3c3c" stroke="#c71f1f" /><rect x="127.0" y="551.0" width="12.0" height="3" fill="#35df39" stroke="#03aa10" /><rect x="114.0" y="573.5" width="12.0" height="3" fill="#ff3c3c" stroke="#c71f1f" /><rect x="127.0" y="573.5" width="12.0" height="3" fill="#35df39" stroke="#03aa10" /><rect x="114.0" y="595.5" width="12.0" height="3" fill="#ff3c3c" stroke="#c71f1f" /><rect x="127.0" y="595.5" width="12.0" height="3" fill="#35df39" stroke="#03aa10" /><rect x="140.0" y="639.5" width="12.0" height="3" fill="#80c9ff" stroke="#0b6cba" /><rect x="127.0" y="661.5" width="12.0" height="3" fill="#35df39" stroke="#03aa10" /><rect x="140.0" y="683.5" width="12.0" height="3" fill="#80c9ff" stroke="#0b6cba" /><rect x="114.0" y="705.5" width="12.0" height="3" fill="#ff3c3c" stroke="#c71f1f" /><rect x="140.0" y="727.5" width="12.0" height="3" fill="#80c9ff" stroke="#0b6cba" /><rect x="127.0" y="750.0" width="12.0" height="3" fill="#35df39" stroke="#03aa10" /><rect x="140.0" y="772.0" width="12.0" height="3" fill="#80c9ff" stroke="#0b6cba" /><rect x="153.0" y="794.0" width="12.0" height="3" fill="#fff874" stroke="#eb9c26" /><rect x="140.0" y="816.0" width="12.0" height="3" fill="#80c9ff" stroke="#0b6cba" /><rect x="127.0" y="838.0" width="12.0" height="3" fill="#35df39" stroke="#03aa10" /><rect x="140.0" y="860.0" width="12.0" height="3" fill="#80c9ff" stroke="#0b6cba" /><rect x="114.0" y="904.0" width="12.0" height="3" fill="#ff3c3c" stroke="#c71f1f" /><rect x="127.0" y="904.0" width="12.0" height="3" fill="#35df39" stroke="#03aa10" /><rect x="114.0" y="926.0" width="12.0" height="3" fill="#ff3c3c" stroke="#c71f1f" /><rect x="127.0" y="926.0" width="12.0" height="3" fill="#35df39" stroke="#03aa10" /><rect x="114.0" y="948.5" width="12.0" height="3" fill="#ff3c3c" stroke="#c71f1f" /><rect x="127.0" y="948.5" width="12.0" height="3" fill="#35df39" stroke="#03aa10" /><rect x="140.0" y="992.5" width="12.0" height="3" fill="#80c9ff" stroke="#0b6cba" /><rect x="127.0" y="1014.5" width="12.0" height="3" fill="#35df39" stroke="#03aa10" /><rect x="140.0" y="1036.5" width="12.0" height="3" fill="#80c9ff" stroke="#0b6cba" /><rect x="114.0" y="1058.5" width="12.0" height="3" fill="#ff3c3c" stroke="#c71f1f" /><rect x="140.0" y="1080.5" width="12.0" height="3" fill="#80c9ff" stroke="#0b6cba" /><rect x="127.0" y="1102.5" width="12.0" height="3" fill="#35df39" stroke="#03aa10" /><rect x="140.0" y="1125.0" width="12.0" height="3" fill="#80c9ff" stroke="#0b6cba" /><rect x="153.0" y="1147.0" width="12.0" height="3" fill="#fff874" stroke="#eb9c26" /><rect x="140.0" y="1169.0" width="12.0" height="3" fill="#80c9ff" stroke="#0b6cba" /><rect x="127.0" y="1191.0" width="12.0" height="3" fill="#35df39" stroke="#03aa10" /><rect x="140.0" y="1213.0" width="12.0" height="3" fill="#80c9ff" stroke="#0b6cba" /><rect x="114.0" y="1257.0" width="12.0" height="3" fill="#ff3c3c" stroke="#c71f1f" /><rect x="127.0" y="1257.0" width="12.0" height="3" fill="#35df39" stroke="#03aa10" /><rect x="114.0" y="1279.0" width="12.0" height="3" fill="#ff3c3c" stroke="#c71f1f" /><rect x="127.0" y="1279.0" width="12.0" height="3" fill="#35df39" stroke="#03aa10" /><rect x="114.0" y="1301.0" width="12.0" height="3" fill="#ff3c3c" stroke="#c71f1f" /><rect x="127.0" y="1301.0" width="12.0" height="3" fill="#35df39" stroke="#03aa10" /><rect x="140.0" y="1345.5" width="12.0" height="3" fill="#80c9ff" stroke="#0b6cba" /><rect x="127.0" y="1367.5" width="12.0" height="3" fill="#35df39" stroke="#03aa10" /><rect x="140.0" y="1389.5" width="12.0" height="3" fill="#80c9ff" stroke="#0b6cba" /><rect x="228.0" y="0.0" width="12.0" height="3" fill="#ff3c3c" stroke="#c71f1f" /><rect x="254.0" y="22.0" width="12.0" height="3" fill="#80c9ff" stroke="#0b6cba" /><rect x="241.0" y="44.0" width="12.0" height="3" fill="#35df39" stroke="#03aa10" /><rect x="254.0" y="66.0" width="12.0" height="3" fill="#80c9ff" stroke="#0b6cba" /><rect x="267.0" y="88.5" width="12.0" height="3" fill="#fff874" stroke="#eb9c26" /><rect x="254.0" y="110.5" width="12.0" height="3" fill="#80c9ff" stroke="#0b6cba" /><rect x="241.0" y="132.5" width="12.0" height="3" fill="#35df39" stroke="#03aa10" /><rect x="254.0" y="154.5" width="12.0" height="3" fill="#80c9ff" stroke="#0b6cba" /><rect x="228.0" y="198.5" width="12.0" height="3" fill="#ff3c3c" stroke="#c71f1f" /><rect x="241.0" y="198.5" width="12.0" height="3" fill="#35df39" stroke="#03aa10" /><rect x="228.0" y="220.5" width="12.0" height="3" fill="#ff3c3c" stroke="#c71f1f" /><rect x="241.0" y="220.5" width="12.0" height="3" fill="#35df39" stroke="#03aa10" /><rect x="228.0" y="242.5" width="12.0" height="3" fill="#ff3c3c" stroke="#c71f1f" /><rect x="241.0" y="242.5" width="12.0" height="3" fill="#35df39" stroke="#03aa10" /><rect x="254.0" y="287.0" width="12.0" height="3" fill="#80c9ff" stroke="#0b6cba" /><rect x="241.0" y="309.0" width="12.0" height="3" fill="#35df39" stroke="#03aa10" /><rect x="254.0" y="331.0" width="12.0" height="3" fill="#80c9ff" stroke="#0b6cba" /><rect x="228.0" y="353.0" width="12.0" height="119.25" fill="#ff3c3c" stroke="#c71f1f" /><rect x="241.0" y="353.0" width="12.0" height="119.25" fill="#35df39" stroke="#03aa10" /><rect x="241.0" y="485.5" width="12.0" height="198.45000000000002" fill="#35df39" stroke="#03aa10" /><rect x="254.0" y="485.5" width="12.0" height="198.45000000000002" fill="#80c9ff" stroke="#0b6cba" /><rect x="267.0" y="706.0" width="12.0" height="119.25" fill="#fff874" stroke="#eb9c26" /><rect x="280.0" y="706.0" width="12.0" height="119.25" fill="#ff83f4" stroke="#d002bc" /><rect x="254.0" y="838.5" width="12.0" height="79.2" fill="#80c9ff" stroke="#0b6cba" /><rect x="267.0" y="838.5" width="12.0" height="79.2" fill="#fff874" stroke="#eb9c26" /><rect x="228.0" y="926.5" width="12.0" height="119.25" fill="#ff3c3c" stroke="#c71f1f" /><rect x="254.0" y="926.5" width="12.0" height="119.25" fill="#80c9ff" stroke="#0b6cba" /><rect x="228.0" y="1059.0" width="12.0" height="118.8" fill="#ff3c3c" stroke="#c71f1f" /><rect x="241.0" y="1059.0" width="12.0" height="118.8" fill="#35df39" stroke="#03aa10" /><rect x="241.0" y="1191.0" width="12.0" height="221.0" fill="#35df39" stroke="#03aa10" /><rect x="254.0" y="1191.0" width="12.0" height="221.0" fill="#80c9ff" stroke="#0b6cba" /><rect x="381.0" y="0.0" width="12.0" height="118.8" fill="#fff874" stroke="#eb9c26" /><rect x="394.0" y="0.0" width="12.0" height="118.8" fill="#ff83f4" stroke="#d002bc" /><rect x="368.0" y="132.0" width="12.0" height="79.65" fill="#80c9ff" stroke="#0b6cba" /><rect x="381.0" y="132.0" width="12.0" height="79.65" fill="#fff874" stroke="#eb9c26" /><rect x="342.0" y="220.5" width="12.0" height="3" fill="#ff3c3c" stroke="#c71f1f" /><rect x="368.0" y="220.5" width="12.0" height="3" fill="#80c9ff" stroke="#0b6cba" /><rect x="355.0" y="264.5" width="12.0" height="3" fill="#35df39" stroke="#03aa10" /><rect x="368.0" y="264.5" width="12.0" height="3" fill="#80c9ff" stroke="#0b6cba" /><rect x="342.0" y="352.5" width="12.0" height="3" fill="#ff3c3c" stroke="#c71f1f" /><rect x="355.0" y="352.5" width="12.0" height="3" fill="#35df39" stroke="#03aa10" /><rect x="342.0" y="419.0" width="12.0" height="3" fill="#ff3c3c" stroke="#c71f1f" /><rect x="355.0" y="419.0" width="12.0" height="3" fill="#35df39" stroke="#03aa10" /><rect x="342.0" y="463.0" width="12.0" height="3" fill="#ff3c3c" stroke="#c71f1f" /><rect x="342.0" y="485.0" width="12.0" height="3" fill="#ff3c3c" stroke="#c71f1f" /><rect x="342.0" y="507.0" width="12.0" height="3" fill="#ff3c3c" stroke="#c71f1f" /><rect x="355.0" y="529.0" width="12.0" height="3" fill="#35df39" stroke="#03aa10" /><rect x="368.0" y="529.0" width="12.0" height="3" fill="#80c9ff" stroke="#0b6cba" /><rect x="355.0" y="595.5" width="12.0" height="3" fill="#35df39" stroke="#03aa10" /><rect x="368.0" y="595.5" width="12.0" height="3" fill="#80c9ff" stroke="#0b6cba" /><rect x="355.0" y="639.5" width="12.0" height="3" fill="#35df39" stroke="#03aa10" /><rect x="355.0" y="661.5" width="12.0" height="3" fill="#35df39" stroke="#03aa10" /><rect x="355.0" y="683.5" width="12.0" height="3" fill="#35df39" stroke="#03aa10" /><rect x="342.0" y="705.5" width="12.0" height="3" fill="#ff3c3c" stroke="#c71f1f" /><rect x="368.0" y="705.5" width="12.0" height="3" fill="#80c9ff" stroke="#0b6cba" /><rect x="342.0" y="772.0" width="12.0" height="3" fill="#ff3c3c" stroke="#c71f1f" /><rect x="368.0" y="772.0" width="12.0" height="3" fill="#80c9ff" stroke="#0b6cba" /><rect x="342.0" y="816.0" width="12.0" height="3" fill="#ff3c3c" stroke="#c71f1f" /><rect x="342.0" y="838.0" width="12.0" height="3" fill="#ff3c3c" stroke="#c71f1f" /><rect x="368.0" y="882.0" width="12.0" height="3" fill="#80c9ff" stroke="#0b6cba" /><rect x="381.0" y="882.0" width="12.0" height="3" fill="#fff874" stroke="#eb9c26" /><rect x="368.0" y="948.5" width="12.0" height="3" fill="#80c9ff" stroke="#0b6cba" /><rect x="381.0" y="948.5" width="12.0" height="3" fill="#fff874" stroke="#eb9c26" /><rect x="355.0" y="992.5" width="12.0" height="3" fill="#35df39" stroke="#03aa10" /><rect x="355.0" y="1014.5" width="12.0" height="3" fill="#35df39" stroke="#03aa10" /><rect x="355.0" y="1036.5" width="12.0" height="3" fill="#35df39" stroke="#03aa10" /><rect x="342.0" y="1058.5" width="12.0" height="3" fill="#ff3c3c" stroke="#c71f1f" /><rect x="355.0" y="1058.5" width="12.0" height="3" fill="#35df39" stroke="#03aa10" /><rect x="342.0" y="1125.0" width="12.0" height="3" fill="#ff3c3c" stroke="#c71f1f" /><rect x="355.0" y="1125.0" width="12.0" height="3" fill="#35df39" stroke="#03aa10" /><rect x="342.0" y="1169.0" width="12.0" height="3" fill="#ff3c3c" stroke="#c71f1f" /><rect x="342.0" y="1191.0" width="12.0" height="3" fill="#ff3c3c" stroke="#c71f1f" /><rect x="342.0" y="1213.0" width="12.0" height="3" fill="#ff3c3c" stroke="#c71f1f" /><rect x="355.0" y="1235.0" width="12.0" height="3" fill="#35df39" stroke="#03aa10" /><rect x="368.0" y="1235.0" width="12.0" height="3" fill="#80c9ff" stroke="#0b6cba" /><rect x="355.0" y="1301.5" width="12.0" height="3" fill="#35df39" stroke="#03aa10" /><rect x="368.0" y="1301.5" width="12.0" height="3" fill="#80c9ff" stroke="#0b6cba" /><rect x="355.0" y="1345.5" width="12.0" height="3" fill="#35df39" stroke="#03aa10" /><rect x="355.0" y="1367.5" width="12.0" height="3" fill="#35df39" stroke="#03aa10" /><rect x="355.0" y="1389.5" width="12.0" height="3" fill="#35df39" stroke="#03aa10" /><rect x="482.0" y="0.0" width="12.0" height="3" fill="#80c9ff" stroke="#0b6cba" /><rect x="495.0" y="0.0" width="12.0" height="3" fill="#fff874" stroke="#eb9c26" /><rect x="482.0" y="66.0" width="12.0" height="3" fill="#80c9ff" stroke="#0b6cba" /><rect x="495.0" y="66.0" width="12.0" height="3" fill="#fff874" stroke="#eb9c26" /><rect x="482.0" y="110.5" width="12.0" height="3" fill="#80c9ff" stroke="#0b6cba" /><rect x="482.0" y="132.5" width="12.0" height="3" fill="#80c9ff" stroke="#0b6cba" /><rect x="482.0" y="154.5" width="12.0" height="3" fill="#80c9ff" stroke="#0b6cba" /><rect x="495.0" y="176.5" width="12.0" height="3" fill="#fff874" stroke="#eb9c26" /><rect x="508.0" y="176.5" width="12.0" height="3" fill="#ff83f4" stroke="#d002bc" /><rect x="495.0" y="242.5" width="12.0" height="3" fill="#fff874" stroke="#eb9c26" /><rect x="508.0" y="242.5" width="12.0" height="3" fill="#ff83f4" stroke="#d002bc" /><rect x="495.0" y="287.0" width="12.0" height="3" fill="#fff874" stroke="#eb9c26" /><rect x="495.0" y="309.0" width="12.0" height="3" fill="#fff874" stroke="#eb9c26" /><rect x="495.0" y="331.0" width="12.0" height="3" fill="#fff874" stroke="#eb9c26" /><rect x="456.0" y="353.0" width="12.0" height="3" fill="#ff3c3c" stroke="#c71f1f" /><rect x="469.0" y="353.0" width="12.0" height="3" fill="#35df39" stroke="#03aa10" /><rect x="495.0" y="441.0" width="12.0" height="3" fill="#fff874" stroke="#eb9c26" /><rect x="508.0" y="441.0" width="12.0" height="3" fill="#ff83f4" stroke="#d002bc" /><rect x="469.0" y="529.5" width="12.0" height="3" fill="#35df39" stroke="#03aa10" /><rect x="495.0" y="529.5" width="12.0" height="3" fill="#fff874" stroke="#eb9c26" /><rect x="482.0" y="617.5" width="12.0" height="3" fill="#80c9ff" stroke="#0b6cba" /><rect x="495.0" y="640.0" width="12.0" height="3" fill="#fff874" stroke="#eb9c26" /><rect x="482.0" y="662.0" width="12.0" height="3" fill="#80c9ff" stroke="#0b6cba" /><rect x="456.0" y="706.0" width="12.0" height="119.25" fill="#ff3c3c" stroke="#c71f1f" /><rect x="469.0" y="706.0" width="12.0" height="119.25" fill="#35df39" stroke="#03aa10" /><rect x="456.0" y="838.5" width="12.0" height="3" fill="#ff3c3c" stroke="#c71f1f" /><rect x="469.0" y="838.5" width="12.0" height="3" fill="#35df39" stroke="#03aa10" /><rect x="456.0" y="860.5" width="12.0" height="3" fill="#ff3c3c" stroke="#c71f1f" /><rect x="469.0" y="860.5" width="12.0" height="3" fill="#35df39" stroke="#03aa10" /><rect x="456.0" y="882.5" width="12.0" height="3" fill="#ff3c3c" stroke="#c71f1f" /><rect x="482.0" y="882.5" width="12.0" height="3" fill="#80c9ff" stroke="#0b6cba" /><rect x="456.0" y="948.5" width="12.0" height="3" fill="#ff3c3c" stroke="#c71f1f" /><rect x="482.0" y="948.5" width="12.0" height="3" fill="#80c9ff" stroke="#0b6cba" /><rect x="495.0" y="992.5" width="12.0" height="3" fill="#fff874" stroke="#eb9c26" /><rect x="482.0" y="1015.0" width="12.0" height="3" fill="#80c9ff" stroke="#0b6cba" /><rect x="456.0" y="1059.0" width="12.0" height="3" fill="#ff3c3c" stroke="#c71f1f" /><rect x="469.0" y="1059.0" width="12.0" height="3" fill="#35df39" stroke="#03aa10" /><rect x="495.0" y="1147.0" width="12.0" height="3" fill="#fff874" stroke="#eb9c26" /><rect x="508.0" y="1147.0" width="12.0" height="3" fill="#ff83f4" stroke="#d002bc" /><rect x="469.0" y="1235.5" width="12.0" height="3" fill="#35df39" stroke="#03aa10" /><rect x="495.0" y="1235.5" width="12.0" height="3" fill="#fff874" stroke="#eb9c26" /><rect x="482.0" y="1323.5" width="12.0" height="3" fill="#80c9ff" stroke="#0b6cba" /><rect x="495.0" y="1345.5" width="12.0" height="3" fill="#fff874" stroke="#eb9c26" /><rect x="482.0" y="1367.5" width="12.0" height="3" fill="#80c9ff" stroke="#0b6cba" /><rect x="570.0" y="0.0" width="12.0" height="3" fill="#ff3c3c" stroke="#c71f1f" /><rect x="583.0" y="0.0" width="12.0" height="3" fill="#35df39" stroke="#03aa10" /><rect x="570.0" y="44.0" width="12.0" height="3" fill="#ff3c3c" stroke="#c71f1f" /><rect x="570.0" y="66.0" width="12.0" height="3" fill="#ff3c3c" stroke="#c71f1f" /><rect x="570.0" y="88.0" width="12.0" height="3" fill="#ff3c3c" stroke="#c71f1f" /><rect x="583.0" y="88.0" width="12.0" height="3" fill="#35df39" stroke="#03aa10" /><rect x="570.0" y="132.0" width="12.0" height="3" fill="#ff3c3c" stroke="#c71f1f" /><rect x="570.0" y="154.0" width="12.0" height="3" fill="#ff3c3c" stroke="#c71f1f" /><rect x="570.0" y="176.5" width="12.0" height="3" fill="#ff3c3c" stroke="#c71f1f" /><rect x="596.0" y="176.5" width="12.0" height="3" fill="#80c9ff" stroke="#0b6cba" /><rect x="570.0" y="242.5" width="12.0" height="3" fill="#ff3c3c" stroke="#c71f1f" /><rect x="596.0" y="242.5" width="12.0" height="3" fill="#80c9ff" stroke="#0b6cba" /><rect x="609.0" y="286.5" width="12.0" height="3" fill="#fff874" stroke="#eb9c26" /><rect x="596.0" y="308.5" width="12.0" height="3" fill="#80c9ff" stroke="#0b6cba" /><rect x="570.0" y="353.0" width="12.0" height="3" fill="#ff3c3c" stroke="#c71f1f" /><rect x="583.0" y="353.0" width="12.0" height="3" fill="#35df39" stroke="#03aa10" /><rect x="570.0" y="397.0" width="12.0" height="3" fill="#ff3c3c" stroke="#c71f1f" /><rect x="583.0" y="397.0" width="12.0" height="3" fill="#35df39" stroke="#03aa10" /><rect x="570.0" y="419.0" width="12.0" height="3" fill="#ff3c3c" stroke="#c71f1f" /><rect x="583.0" y="419.0" width="12.0" height="3" fill="#35df39" stroke="#03aa10" /><rect x="570.0" y="441.0" width="12.0" height="3" fill="#ff3c3c" stroke="#c71f1f" /><rect x="583.0" y="441.0" width="12.0" height="3" fill="#35df39" stroke="#03aa10" /><rect x="570.0" y="485.0" width="12.0" height="3" fill="#ff3c3c" stroke="#c71f1f" /><rect x="583.0" y="507.0" width="12.0" height="3" fill="#35df39" stroke="#03aa10" /><rect x="583.0" y="529.0" width="12.0" height="3" fill="#35df39" stroke="#03aa10" /><rect x="596.0" y="529.0" width="12.0" height="3" fill="#80c9ff" stroke="#0b6cba" /><rect x="583.0" y="595.5" width="12.0" height="3" fill="#35df39" stroke="#03aa10" /><rect x="596.0" y="595.5" width="12.0" height="3" fill="#80c9ff" stroke="#0b6cba" /><rect x="609.0" y="639.5" width="12.0" height="3" fill="#fff874" stroke="#eb9c26" /><rect x="583.0" y="661.5" width="12.0" height="3" fill="#35df39" stroke="#03aa10" /><rect x="596.0" y="661.5" width="12.0" height="3" fill="#80c9ff" stroke="#0b6cba" /><rect x="570.0" y="705.5" width="12.0" height="3" fill="#ff3c3c" stroke="#c71f1f" /><rect x="583.0" y="705.5" width="12.0" height="3" fill="#35df39" stroke="#03aa10" /><rect x="570.0" y="750.0" width="12.0" height="3" fill="#ff3c3c" stroke="#c71f1f" /><rect x="583.0" y="750.0" width="12.0" height="3" fill="#35df39" stroke="#03aa10" /><rect x="570.0" y="772.0" width="12.0" height="3" fill="#ff3c3c" stroke="#c71f1f" /><rect x="583.0" y="772.0" width="12.0" height="3" fill="#35df39" stroke="#03aa10" /><rect x="570.0" y="794.0" width="12.0" height="3" fill="#ff3c3c" stroke="#c71f1f" /><rect x="583.0" y="794.0" width="12.0" height="3" fill="#35df39" stroke="#03aa10" /><rect x="570.0" y="838.0" width="12.0" height="3" fill="#ff3c3c" stroke="#c71f1f" /><rect x="583.0" y="860.0" width="12.0" height="3" fill="#35df39" stroke="#03aa10" /><rect x="583.0" y="882.0" width="12.0" height="3" fill="#35df39" stroke="#03aa10" /><rect x="596.0" y="882.0" width="12.0" height="3" fill="#80c9ff" stroke="#0b6cba" /><rect x="583.0" y="948.5" width="12.0" height="3" fill="#35df39" stroke="#03aa10" /><rect x="596.0" y="948.5" width="12.0" height="3" fill="#80c9ff" stroke="#0b6cba" /><rect x="609.0" y="992.5" width="12.0" height="3" fill="#fff874" stroke="#eb9c26" /><rect x="583.0" y="1014.5" width="12.0" height="3" fill="#35df39" stroke="#03aa10" /><rect x="596.0" y="1014.5" width="12.0" height="3" fill="#80c9ff" stroke="#0b6cba" /><rect x="570.0" y="1058.5" width="12.0" height="3" fill="#ff3c3c" stroke="#c71f1f" /><rect x="583.0" y="1058.5" width="12.0" height="3" fill="#35df39" stroke="#03aa10" /><rect x="570.0" y="1103.0" width="12.0" height="3" fill="#ff3c3c" stroke="#c71f1f" /><rect x="583.0" y="1103.0" width="12.0" height="3" fill="#35df39" stroke="#03aa10" /><rect x="570.0" y="1125.0" width="12.0" height="3" fill="#ff3c3c" stroke="#c71f1f" /><rect x="583.0" y="1125.0" width="12.0" height="3" fill="#35df39" stroke="#03aa10" /><rect x="570.0" y="1147.0" width="12.0" height="3" fill="#ff3c3c" stroke="#c71f1f" /><rect x="583.0" y="1147.0" width="12.0" height="3" fill="#35df39" stroke="#03aa10" /><rect x="570.0" y="1191.0" width="12.0" height="3" fill="#ff3c3c" stroke="#c71f1f" /><rect x="583.0" y="1213.0" width="12.0" height="3" fill="#35df39" stroke="#03aa10" /><rect x="583.0" y="1235.0" width="12.0" height="3" fill="#35df39" stroke="#03aa10" /><rect x="596.0" y="1235.0" width="12.0" height="3" fill="#80c9ff" stroke="#0b6cba" /><rect x="583.0" y="1301.5" width="12.0" height="3" fill="#35df39" stroke="#03aa10" /><rect x="596.0" y="1301.5" width="12.0" height="3" fill="#80c9ff" stroke="#0b6cba" /><rect x="609.0" y="1345.5" width="12.0" height="3" fill="#fff874" stroke="#eb9c26" /><rect x="583.0" y="1367.5" width="12.0" height="3" fill="#35df39" stroke="#03aa10" /><rect x="596.0" y="1367.5" width="12.0" height="3" fill="#80c9ff" stroke="#0b6cba" /><rect x="684.0" y="0.0" width="12.0" height="3" fill="#ff3c3c" stroke="#c71f1f" /><rect x="697.0" y="0.0" width="12.0" height="3" fill="#35df39" stroke="#03aa10" /><rect x="684.0" y="44.0" width="12.0" height="3" fill="#ff3c3c" stroke="#c71f1f" /><rect x="697.0" y="44.0" width="12.0" height="3" fill="#35df39" stroke="#03aa10" /><rect x="684.0" y="66.5" width="12.0" height="3" fill="#ff3c3c" stroke="#c71f1f" /><rect x="697.0" y="66.5" width="12.0" height="3" fill="#35df39" stroke="#03aa10" /><rect x="684.0" y="88.5" width="12.0" height="3" fill="#ff3c3c" stroke="#c71f1f" /><rect x="697.0" y="88.5" width="12.0" height="3" fill="#35df39" stroke="#03aa10" /><rect x="684.0" y="132.5" width="12.0" height="3" fill="#ff3c3c" stroke="#c71f1f" /><rect x="697.0" y="154.5" width="12.0" height="3" fill="#35df39" stroke="#03aa10" /><rect x="697.0" y="176.5" width="12.0" height="3" fill="#35df39" stroke="#03aa10" /><rect x="710.0" y="176.5" width="12.0" height="3" fill="#80c9ff" stroke="#0b6cba" /><rect x="697.0" y="242.5" width="12.0" height="3" fill="#35df39" stroke="#03aa10" /><rect x="710.0" y="242.5" width="12.0" height="3" fill="#80c9ff" stroke="#0b6cba" /><rect x="723.0" y="287.0" width="12.0" height="3" fill="#fff874" stroke="#eb9c26" /><rect x="697.0" y="309.0" width="12.0" height="3" fill="#35df39" stroke="#03aa10" /><rect x="710.0" y="309.0" width="12.0" height="3" fill="#80c9ff" stroke="#0b6cba" /><rect x="697.0" y="441.5" width="12.0" height="3" fill="#35df39" stroke="#03aa10" /><rect x="723.0" y="441.5" width="12.0" height="3" fill="#fff874" stroke="#eb9c26" /><rect x="684.0" y="485.5" width="12.0" height="3" fill="#ff3c3c" stroke="#c71f1f" /><rect x="710.0" y="485.5" width="12.0" height="3" fill="#80c9ff" stroke="#0b6cba" /><rect x="736.0" y="551.5" width="12.0" height="3" fill="#ff83f4" stroke="#d002bc" /><rect x="684" y="551.5" width="64" height="3" fill="#ff72e7" stroke="#7c7c7c" /><rect x="736.0" y="573.5" width="12.0" height="3" fill="#ff83f4" stroke="#d002bc" /><rect x="684" y="573.5" width="64" height="3" fill="#ff72e7" stroke="#7c7c7c" /><rect x="736.0" y="595.5" width="12.0" height="3" fill="#ff83f4" stroke="#d002bc" /><rect x="684" y="595.5" width="64" height="3" fill="#ff72e7" stroke="#7c7c7c" /><rect x="697.0" y="617.5" width="12.0" height="3" fill="#35df39" stroke="#03aa10" /><rect x="710.0" y="617.5" width="12.0" height="3" fill="#80c9ff" stroke="#0b6cba" /><rect x="736.0" y="662.0" width="12.0" height="3" fill="#ff83f4" stroke="#d002bc" /><rect x="684" y="662.0" width="64" height="3" fill="#ff72e7" stroke="#7c7c7c" /><rect x="710.0" y="684.0" width="12.0" height="3" fill="#80c9ff" stroke="#0b6cba" /><rect x="723.0" y="684.0" width="12.0" height="3" fill="#fff874" stroke="#eb9c26" /><rect x="736.0" y="728.0" width="12.0" height="3" fill="#ff83f4" stroke="#d002bc" /><rect x="684" y="728.0" width="64" height="3" fill="#ff72e7" stroke="#7c7c7c" /><rect x="684.0" y="750.0" width="12.0" height="3" fill="#ff3c3c" stroke="#c71f1f" /><rect x="697.0" y="750.0" width="12.0" height="3" fill="#35df39" stroke="#03aa10" /><rect x="697.0" y="794.0" width="12.0" height="3" fill="#35df39" stroke="#03aa10" /><rect x="723.0" y="794.0" width="12.0" height="3" fill="#fff874" stroke="#eb9c26" /><rect x="684.0" y="838.5" width="12.0" height="3" fill="#ff3c3c" stroke="#c71f1f" /><rect x="710.0" y="838.5" width="12.0" height="3" fill="#80c9ff" stroke="#0b6cba" /><rect x="736.0" y="904.5" width="12.0" height="3" fill="#ff83f4" stroke="#d002bc" /><rect x="684" y="904.5" width="64" height="3" fill="#ff72e7" stroke="#7c7c7c" /><rect x="736.0" y="926.5" width="12.0" height="3" fill="#ff83f4" stroke="#d002bc" /><rect x="684" y="926.5" width="64" height="3" fill="#ff72e7" stroke="#7c7c7c" /><rect x="736.0" y="948.5" width="12.0" height="3" fill="#ff83f4" stroke="#d002bc" /><rect x="684" y="948.5" width="64" height="3" fill="#ff72e7" stroke="#7c7c7c" /><rect x="697.0" y="970.5" width="12.0" height="3" fill="#35df39" stroke="#03aa10" /><rect x="710.0" y="970.5" width="12.0" height="3" fill="#80c9ff" stroke="#0b6cba" /><rect x="736.0" y="1015.0" width="12.0" height="3" fill="#ff83f4" stroke="#d002bc" /><rect x="684" y="1015.0" width="64" height="3" fill="#ff72e7" stroke="#7c7c7c" /><rect x="710.0" y="1037.0" width="12.0" height="3" fill="#80c9ff" stroke="#0b6cba" /><rect x="723.0" y="1037.0" width="12.0" height="3" fill="#fff874" stroke="#eb9c26" /><rect x="736.0" y="1081.0" width="12.0" height="3" fill="#ff83f4" stroke="#d002bc" /><rect x="684" y="1081.0" width="64" height="3" fill="#ff72e7" stroke="#7c7c7c" /><rect x="684.0" y="1103.0" width="12.0" height="3" fill="#ff3c3c" stroke="#c71f1f" /><rect x="697.0" y="1103.0" width="12.0" height="3" fill="#35df39" stroke="#03aa10" /><rect x="697.0" y="1147.0" width="12.0" height="3" fill="#35df39" stroke="#03aa10" /><rect x="723.0" y="1147.0" width="12.0" height="3" fill="#fff874" stroke="#eb9c26" /><rect x="684.0" y="1191.5" width="12.0" height="3" fill="#ff3c3c" stroke="#c71f1f" /><rect x="710.0" y="1191.5" width="12.0" height="3" fill="#80c9ff" stroke="#0b6cba" /><rect x="736.0" y="1257.5" width="12.0" height="3" fill="#ff83f4" stroke="#d002bc" /><rect x="684" y="1257.5" width="64" height="3" fill="#ff72e7" stroke="#7c7c7c" /><rect x="736.0" y="1279.5" width="12.0" height="3" fill="#ff83f4" stroke="#d002bc" /><rect x="684" y="1279.5" width="64" height="3" fill="#ff72e7" stroke="#7c7c7c" /><rect x="736.0" y="1301.5" width="12.0" height="3" fill="#ff83f4" stroke="#d002bc" /><rect x="684" y="1301.5" width="64" height="3" fill="#ff72e7" stroke="#7c7c7c" /><rect x="697.0" y="1323.5" width="12.0" height="3" fill="#35df39" stroke="#03aa10" /><rect x="710.0" y="1323.5" width="12.0" height="3" fill="#80c9ff" stroke="#0b6cba" /><rect x="736.0" y="1367.5" width="12.0" height="3" fill="#ff83f4" stroke="#d002bc" /><rect x="684" y="1367.5" width="64" height="3" fill="#ff72e7" stroke="#7c7c7c" /><rect x="710.0" y="1390.0" width="12.0" height="3" fill="#80c9ff" stroke="#0b6cba" /><rect x="723.0" y="1390.0" width="12.0" height="3" fill="#fff874" stroke="#eb9c26" /><rect x="736.0" y="1434.0" width="12.0" height="3" fill="#ff83f4" stroke="#d002bc" /><rect x="684" y="1434.0" width="64" height="3" fill="#ff72e7" stroke="#7c7c7c" /><rect x="684.0" y="1456.0" width="12.0" height="3" fill="#ff3c3c" stroke="#c71f1f" /><rect x="697.0" y="1456.0" width="12.0" height="3" fill="#35df39" stroke="#03aa10" /><rect x="811.0" y="0.0" width="12.0" height="3" fill="#35df39" stroke="#03aa10" /><rect x="837.0" y="0.0" width="12.0" height="3" fill="#fff874" stroke="#eb9c26" /><rect x="798.0" y="44.0" width="12.0" height="3" fill="#ff3c3c" stroke="#c71f1f" /><rect x="824.0" y="44.0" width="12.0" height="3" fill="#80c9ff" stroke="#0b6cba" /><rect x="850.0" y="110.5" width="12.0" height="3" fill="#ff83f4" stroke="#d002bc" /><rect x="798" y="110.5" width="64" height="3" fill="#ff72e7" stroke="#7c7c7c" /><rect x="850.0" y="132.5" width="12.0" height="3" fill="#ff83f4" stroke="#d002bc" /><rect x="798" y="132.5" width="64" height="3" fill="#ff72e7" stroke="#7c7c7c" /><rect x="850.0" y="154.5" width="12.0" height="3" fill="#ff83f4" stroke="#d002bc" /><rect x="798" y="154.5" width="64" height="3" fill="#ff72e7" stroke="#7c7c7c" /><rect x="837.0" y="176.5" width="12.0" height="3" fill="#fff874" stroke="#eb9c26" /><rect x="824.0" y="220.5" width="12.0" height="3" fill="#80c9ff" stroke="#0b6cba" /><rect x="850.0" y="242.5" width="12.0" height="3" fill="#ff83f4" stroke="#d002bc" /><rect x="811.0" y="268.5" width="12.0" height="3" fill="#35df39" stroke="#03aa10" /><rect x="824.0" y="353.0" width="12.0" height="3" fill="#80c9ff" stroke="#0b6cba" /><rect x="837.0" y="353.0" width="12.0" height="3" fill="#fff874" stroke="#eb9c26" /><rect x="811.0" y="452.5" width="12.0" height="3" fill="#35df39" stroke="#03aa10" /><rect x="824.0" y="529.5" width="12.0" height="3" fill="#80c9ff" stroke="#0b6cba" /><rect x="850.0" y="529.5" width="12.0" height="3" fill="#ff83f4" stroke="#d002bc" /><rect x="824.0" y="606.5" width="12.0" height="3" fill="#80c9ff" stroke="#0b6cba" /><rect x="850.0" y="651.0" width="12.0" height="3" fill="#ff83f4" stroke="#d002bc" /><rect x="811.0" y="717.0" width="12.0" height="3" fill="#35df39" stroke="#03aa10" /><rect x="837.0" y="717.0" width="12.0" height="3" fill="#fff874" stroke="#eb9c26" /><rect x="798.0" y="750.0" width="12.0" height="3" fill="#ff3c3c" stroke="#c71f1f" /><rect x="798.0" y="882.5" width="12.0" height="3" fill="#ff3c3c" stroke="#c71f1f" /><rect x="824.0" y="882.5" width="12.0" height="3" fill="#80c9ff" stroke="#0b6cba" /><rect x="811.0" y="959.5" width="12.0" height="3" fill="#35df39" stroke="#03aa10" /><rect x="824.0" y="959.5" width="12.0" height="3" fill="#80c9ff" stroke="#0b6cba" /><rect x="811.0" y="981.5" width="12.0" height="3" fill="#35df39" stroke="#03aa10" /><rect x="798.0" y="1015.0" width="12.0" height="3" fill="#ff3c3c" stroke="#c71f1f" /><rect x="811.0" y="1015.0" width="12.0" height="3" fill="#35df39" stroke="#03aa10" /><rect x="798.0" y="1092.0" width="12.0" height="3" fill="#ff3c3c" stroke="#c71f1f" /><rect x="824.0" y="1092.0" width="12.0" height="3" fill="#80c9ff" stroke="#0b6cba" /><rect x="798.0" y="1147.0" width="12.0" height="3" fill="#ff3c3c" stroke="#c71f1f" /><rect x="811.0" y="1191.5" width="12.0" height="3" fill="#35df39" stroke="#03aa10" /><rect x="824.0" y="1191.5" width="12.0" height="3" fill="#80c9ff" stroke="#0b6cba" /><rect x="811.0" y="1213.5" width="12.0" height="3" fill="#35df39" stroke="#03aa10" /><rect x="824.0" y="1213.5" width="12.0" height="3" fill="#80c9ff" stroke="#0b6cba" /><rect x="811.0" y="1235.5" width="12.0" height="3" fill="#35df39" stroke="#03aa10" /><rect x="798.0" y="1257.5" width="12.0" height="3" fill="#ff3c3c" stroke="#c71f1f" /><rect x="824.0" y="1257.5" width="12.0" height="3" fill="#80c9ff" stroke="#0b6cba" /><rect x="798.0" y="1323.5" width="12.0" height="3" fill="#ff3c3c" stroke="#c71f1f" /><rect x="824.0" y="1367.5" width="12.0" height="3" fill="#80c9ff" stroke="#0b6cba" /><rect x="811.0" y="1390.0" width="12.0" height="3" fill="#35df39" stroke="#03aa10" /><rect x="938.0" y="0.0" width="12.0" height="3" fill="#80c9ff" stroke="#0b6cba" /><rect x="938.0" y="22.0" width="12.0" height="3" fill="#80c9ff" stroke="#0b6cba" /><rect x="925.0" y="44.0" width="12.0" height="3" fill="#35df39" stroke="#03aa10" /><rect x="925.0" y="66.0" width="12.0" height="3" fill="#35df39" stroke="#03aa10" /><rect x="938.0" y="88.0" width="12.0" height="3" fill="#80c9ff" stroke="#0b6cba" /><rect x="938.0" y="110.0" width="12.0" height="3" fill="#80c9ff" stroke="#0b6cba" /><rect x="925.0" y="132.0" width="12.0" height="3" fill="#35df39" stroke="#03aa10" /><rect x="925.0" y="154.5" width="12.0" height="3" fill="#35df39" stroke="#03aa10" /><rect x="912.0" y="176.5" width="12.0" height="3" fill="#ff3c3c" stroke="#c71f1f" /><rect x="912.0" y="209.5" width="12.0" height="3" fill="#ff3c3c" stroke="#c71f1f" /><rect x="925.0" y="209.5" width="12.0" height="3" fill="#35df39" stroke="#03aa10" /><rect x="951.0" y="286.5" width="12.0" height="3" fill="#fff874" stroke="#eb9c26" /><rect x="964.0" y="308.5" width="12.0" height="3" fill="#ff83f4" stroke="#d002bc" /><rect x="912.0" y="441.0" width="12.0" height="3" fill="#ff3c3c" stroke="#c71f1f" /><rect x="925.0" y="441.0" width="12.0" height="3" fill="#35df39" stroke="#03aa10" /><rect x="951.0" y="529.5" width="12.0" height="3" fill="#fff874" stroke="#eb9c26" /><rect x="964.0" y="529.5" width="12.0" height="3" fill="#ff83f4" stroke="#d002bc" /><rect x="925.0" y="617.5" width="12.0" height="3" fill="#35df39" stroke="#03aa10" /><rect x="951.0" y="617.5" width="12.0" height="3" fill="#fff874" stroke="#eb9c26" /><rect x="938.0" y="705.5" width="12.0" height="3" fill="#80c9ff" stroke="#0b6cba" /><rect x="951.0" y="728.0" width="12.0" height="3" fill="#fff874" stroke="#eb9c26" /><rect x="938.0" y="750.0" width="12.0" height="3" fill="#80c9ff" stroke="#0b6cba" /><rect x="912.0" y="794.0" width="12.0" height="119.25" fill="#ff3c3c" stroke="#c71f1f" /><rect x="925.0" y="794.0" width="12.0" height="119.25" fill="#35df39" stroke="#03aa10" /><rect x="912.0" y="926.5" width="12.0" height="3" fill="#ff3c3c" stroke="#c71f1f" /><rect x="925.0" y="926.5" width="12.0" height="3" fill="#35df39" stroke="#03aa10" /><rect x="912.0" y="948.5" width="12.0" height="3" fill="#ff3c3c" stroke="#c71f1f" /><rect x="925.0" y="948.5" width="12.0" height="3" fill="#35df39" stroke="#03aa10" /><rect x="912.0" y="970.5" width="12.0" height="3" fill="#ff3c3c" stroke="#c71f1f" /><rect x="938.0" y="970.5" width="12.0" height="3" fill="#80c9ff" stroke="#0b6cba" /><rect x="912.0" y="1036.5" width="12.0" height="3" fill="#ff3c3c" stroke="#c71f1f" /><rect x="938.0" y="1036.5" width="12.0" height="3" fill="#80c9ff" stroke="#0b6cba" /><rect x="951.0" y="1080.5" width="12.0" height="3" fill="#fff874" stroke="#eb9c26" /><rect x="938.0" y="1103.0" width="12.0" height="3" fill="#80c9ff" stroke="#0b6cba" /><rect x="912.0" y="1147.0" width="12.0" height="3" fill="#ff3c3c" stroke="#c71f1f" /><rect x="925.0" y="1147.0" width="12.0" height="3" fill="#35df39" stroke="#03aa10" /><rect x="951.0" y="1235.0" width="12.0" height="3" fill="#fff874" stroke="#eb9c26" /><rect x="964.0" y="1235.0" width="12.0" height="3" fill="#ff83f4" stroke="#d002bc" /><rect x="925.0" y="1323.5" width="12.0" height="3" fill="#35df39" stroke="#03aa10" /><rect x="951.0" y="1323.5" width="12.0" height="3" fill="#fff874" stroke="#eb9c26" /><rect x="938.0" y="1411.5" width="12.0" height="3" fill="#80c9ff" stroke="#0b6cba" /><rect x="951.0" y="1433.5" width="12.0" height="3" fill="#fff874" stroke="#eb9c26" /><rect x="938.0" y="1455.5" width="12.0" height="3" fill="#80c9ff" stroke="#0b6cba" /><rect x="1026.0" y="0.0" width="12.0" height="3" fill="#ff3c3c" stroke="#c71f1f" /><rect x="1039.0" y="0.0" width="12.0" height="3" fill="#35df39" stroke="#03aa10" /><rect x="1026.0" y="44.0" width="12.0" height="3" fill="#ff3c3c" stroke="#c71f1f" /><rect x="1026.0" y="66.0" width="12.0" height="3" fill="#ff3c3c" stroke="#c71f1f" /><rect x="1026.0" y="88.0" width="12.0" height="3" fill="#ff3c3c" stroke="#c71f1f" /><rect x="1039.0" y="88.0" width="12.0" height="3" fill="#35df39" stroke="#03aa10" /><rect x="1026.0" y="132.0" width="12.0" height="3" fill="#ff3c3c" stroke="#c71f1f" /><rect x="1026.0" y="154.5" width="12.0" height="3" fill="#ff3c3c" stroke="#c71f1f" /><rect x="1026.0" y="176.5" width="12.0" height="3" fill="#ff3c3c" stroke="#c71f1f" /><rect x="1052.0" y="176.5" width="12.0" height="3" fill="#80c9ff" stroke="#0b6cba" /><rect x="1026.0" y="242.5" width="12.0" height="3" fill="#ff3c3c" stroke="#c71f1f" /><rect x="1052.0" y="242.5" width="12.0" height="3" fill="#80c9ff" stroke="#0b6cba" /><rect x="1065.0" y="286.5" width="12.0" height="3" fill="#fff874" stroke="#eb9c26" /><rect x="1052.0" y="308.5" width="12.0" height="3" fill="#80c9ff" stroke="#0b6cba" /><rect x="1026.0" y="353.0" width="12.0" height="3" fill="#ff3c3c" stroke="#c71f1f" /><rect x="1039.0" y="353.0" width="12.0" height="3" fill="#35df39" stroke="#03aa10" /><rect x="1026.0" y="397.0" width="12.0" height="3" fill="#ff3c3c" stroke="#c71f1f" /><rect x="1039.0" y="397.0" width="12.0" height="3" fill="#35df39" stroke="#03aa10" /><rect x="1026.0" y="419.0" width="12.0" height="3" fill="#ff3c3c" stroke="#c71f1f" /><rect x="1039.0" y="419.0" width="12.0" height="3" fill="#35df39" stroke="#03aa10" /><rect x="1026.0" y="441.0" width="12.0" height="3" fill="#ff3c3c" stroke="#c71f1f" /><rect x="1039.0" y="441.0" width="12.0" height="3" fill="#35df39" stroke="#03aa10" /><rect x="1026.0" y="485.0" width="12.0" height="3" fill="#ff3c3c" stroke="#c71f1f" /><rect x="1039.0" y="507.0" width="12.0" height="3" fill="#35df39" stroke="#03aa10" /><rect x="1039.0" y="529.5" width="12.0" height="3" fill="#35df39" stroke="#03aa10" /><rect x="1052.0" y="529.5" width="12.0" height="3" fill="#80c9ff" stroke="#0b6cba" /><rect x="1039.0" y="595.5" width="12.0" height="3" fill="#35df39" stroke="#03aa10" /><rect x="1052.0" y="595.5" width="12.0" height="3" fill="#80c9ff" stroke="#0b6cba" /><rect x="1065.0" y="639.5" width="12.0" height="3" fill="#fff874" stroke="#eb9c26" /><rect x="1039.0" y="661.5" width="12.0" height="3" fill="#35df39" stroke="#03aa10" /><rect x="1052.0" y="661.5" width="12.0" height="3" fill="#80c9ff" stroke="#0b6cba" /><rect x="1026.0" y="705.5" width="12.0" height="3" fill="#ff3c3c" stroke="#c71f1f" /><rect x="1039.0" y="705.5" width="12.0" height="3" fill="#35df39" stroke="#03aa10" /><rect x="1026.0" y="750.0" width="12.0" height="3" fill="#ff3c3c" stroke="#c71f1f" /><rect x="1039.0" y="750.0" width="12.0" height="3" fill="#35df39" stroke="#03aa10" /><rect x="1026.0" y="772.0" width="12.0" height="3" fill="#ff3c3c" stroke="#c71f1f" /><rect x="1039.0" y="772.0" width="12.0" height="3" fill="#35df39" stroke="#03aa10" /><rect x="1026.0" y="794.0" width="12.0" height="3" fill="#ff3c3c" stroke="#c71f1f" /><rect x="1039.0" y="794.0" width="12.0" height="3" fill="#35df39" stroke="#03aa10" /><rect x="1026.0" y="838.0" width="12.0" height="3" fill="#ff3c3c" stroke="#c71f1f" /><rect x="1039.0" y="860.0" width="12.0" height="3" fill="#35df39" stroke="#03aa10" /><rect x="1039.0" y="882.0" width="12.0" height="3" fill="#35df39" stroke="#03aa10" /><rect x="1052.0" y="882.0" width="12.0" height="3" fill="#80c9ff" stroke="#0b6cba" /><rect x="1039.0" y="948.5" width="12.0" height="3" fill="#35df39" stroke="#03aa10" /><rect x="1052.0" y="948.5" width="12.0" height="3" fill="#80c9ff" stroke="#0b6cba" /><rect x="1065.0" y="992.5" width="12.0" height="3" fill="#fff874" stroke="#eb9c26" /><rect x="1039.0" y="1014.5" width="12.0" height="3" fill="#35df39" stroke="#03aa10" /><rect x="1052.0" y="1014.5" width="12.0" height="3" fill="#80c9ff" stroke="#0b6cba" /><rect x="1026.0" y="1058.5" width="12.0" height="3" fill="#ff3c3c" stroke="#c71f1f" /><rect x="1039.0" y="1058.5" width="12.0" height="3" fill="#35df39" stroke="#03aa10" /><rect x="1026.0" y="1103.0" width="12.0" height="3" fill="#ff3c3c" stroke="#c71f1f" /><rect x="1039.0" y="1103.0" width="12.0" height="3" fill="#35df39" stroke="#03aa10" /><rect x="1026.0" y="1125.0" width="12.0" height="3" fill="#ff3c3c" stroke="#c71f1f" /><rect x="1039.0" y="1125.0" width="12.0" height="3" fill="#35df39" stroke="#03aa10" /><rect x="1026.0" y="1147.0" width="12.0" height="3" fill="#ff3c3c" stroke="#c71f1f" /><rect x="1039.0" y="1147.0" width="12.0" height="3" fill="#35df39" stroke="#03aa10" /><rect x="1026.0" y="1191.0" width="12.0" height="3" fill="#ff3c3c" stroke="#c71f1f" /><rect x="1039.0" y="1213.0" width="12.0" height="3" fill="#35df39" stroke="#03aa10" /><rect x="1039.0" y="1235.0" width="12.0" height="3" fill="#35df39" stroke="#03aa10" /><rect x="1052.0" y="1235.0" width="12.0" height="3" fill="#80c9ff" stroke="#0b6cba" /><rect x="1039.0" y="1301.5" width="12.0" height="3" fill="#35df39" stroke="#03aa10" /><rect x="1052.0" y="1301.5" width="12.0" height="3" fill="#80c9ff" stroke="#0b6cba" /><rect x="1065.0" y="1345.5" width="12.0" height="3" fill="#fff874" stroke="#eb9c26" /><rect x="1039.0" y="1367.5" width="12.0" height="3" fill="#35df39" stroke="#03aa10" /><rect x="1052.0" y="1367.5" width="12.0" height="3" fill="#80c9ff" stroke="#0b6cba" /><rect x="1140.0" y="0.0" width="12.0" height="3" fill="#ff3c3c" stroke="#c71f1f" /><rect x="1153.0" y="0.0" width="12.0" height="3" fill="#35df39" stroke="#03aa10" /><rect x="1140.0" y="44.0" width="12.0" height="3" fill="#ff3c3c" stroke="#c71f1f" /><rect x="1153.0" y="44.0" width="12.0" height="3" fill="#35df39" stroke="#03aa10" /><rect x="1140.0" y="66.5" width="12.0" height="3" fill="#ff3c3c" stroke="#c71f1f" /><rect x="1153.0" y="66.5" width="12.0" height="3" fill="#35df39" stroke="#03aa10" /><rect x="1140.0" y="88.5" width="12.0" height="3" fill="#ff3c3c" stroke="#c71f1f" /><rect x="1153.0" y="88.5" width="12.0" height="3" fill="#35df39" stroke="#03aa10" /><rect x="1140.0" y="132.5" width="12.0" height="3" fill="#ff3c3c" stroke="#c71f1f" /><rect x="1153.0" y="154.5" width="12.0" height="3" fill="#35df39" stroke="#03aa10" /><rect x="1153.0" y="176.5" width="12.0" height="3" fill="#35df39" stroke="#03aa10" /><rect x="1166.0" y="176.5" width="12.0" height="3" fill="#80c9ff" stroke="#0b6cba" /><rect x="1153.0" y="243.0" width="12.0" height="3" fill="#35df39" stroke="#03aa10" /><rect x="1166.0" y="243.0" width="12.0" height="3" fill="#80c9ff" stroke="#0b6cba" /><rect x="1179.0" y="287.0" width="12.0" height="3" fill="#fff874" stroke="#eb9c26" /><rect x="1153.0" y="309.0" width="12.0" height="3" fill="#35df39" stroke="#03aa10" /><rect x="1166.0" y="309.0" width="12.0" height="3" fill="#80c9ff" stroke="#0b6cba" /><rect x="1140.0" y="353.0" width="12.0" height="3" fill="#ff3c3c" stroke="#c71f1f" /><rect x="1153.0" y="353.0" width="12.0" height="3" fill="#35df39" stroke="#03aa10" /></svg>