<?xml version="1.0" encoding="UTF-8"?><svg xmlns="http://www.w3.org/2000/svg" xmlns:xlink="http://www.w3.org/1999/xlink"     width="2166" height="1035.5" viewBox="0 0 2166 1035.5"><defs></defs><rect x="0" y="0" width="64" height="1021.5" fill="black" /><rect x="0" y="0.0" width="64" height="1" fill="white" fill-opacity="0.5" /><text x="74" y="14.0" font-size="14" fill="white" font-family="monospace" dominant-baseline="ideographic">1</text><rect x="0" y="64.0" width="64" height="1" fill="white" fill-opacity="0.2" /><rect x="0" y="127.5" width="64" height="1" fill="white" fill-opacity="0.2" /><rect x="0" y="191.5" width="64" height="1" fill="white" fill-opacity="0.2" /><rect x="0" y="255.5" width="64" height="1" fill="white" fill-opacity="0.5" /><text x="74" y="269.5" font-size="14" fill="white" font-family="monospace" dominant-baseline="ideographic">2</text><rect x="0" y="319.0" width="64" height="1" fill="white" fill-opacity="0.2" /><rect x="0" y="383.0" width="64" height="1" fill="white" fill-opacity="0.2" /><rect x="0" y="447.0" width="64" height="1" fill="white" fill-opacity="0.2" /><rect x="0" y="510.5" width="64" height="1" fill="white" fill-opacity="0.5" /><text x="74" y="524.5" font-size="14" fill="white" font-family="monospace" dominant-baseline="ideographic">3</text><rect x="0" y="574.5" width="64" height="1" fill="white" fill-opacity="0.2" /><rect x="0" y="638.5" width="64" height="1" fill="white" fill-opacity="0.2" /><rect x="0" y="702.0" width="64" height="1" fill="white" fill-opacity="0.2" /><rect x="0" y="766.0" width="64" height="1" fill="white" fill-opacity="0.5" /><text x="74" y="780.0" font-size="14" fill="white" font-family="monospace" dominant-baseline="ideographic">4</text><rect x="0" y="830.0" width="64" height="1" fill="white" fill-opacity="0.2" /><rect x="0" y="893.5" width="64" height="1" fill="white" fill-opacity="0.2" /><rect x="0" y="957.5" width="64" height="1" fill="white" fill-opacity="0.2" /><rect x="0" y="1021.5" width="64" height="1" fill="white" fill-opacity="0.5" /><text x="74" y="1035.5" font-size="14" fill="white" font-family="monospace" dominant-baseline="ideographic">5</text><rect x="0" y="0.0" width="64" height="1" fill="aqua" fill-opacity="0.75" /><text x="0" y="14.0" font-size="14" fill="aqua" fill-opacity="0.75" font-family="monospace">Intro</text><rect x="0" y="0.0" width="64" height="1" fill="lime" fill-opacity="0.75" /><text x="74" y="28.0" font-size="14" fill="lime" font-family="monospace" dominant-baseline="ideographic">141</text><rect x="114" y="0" width="64" height="1021.0" fill="black" /><rect x="114" y="0.0" width="64" height="1" fill="white" fill-opacity="0.5" /><text x="188" y="14.0" font-size="14" fill="white" font-family="monospace" dominant-baseline="ideographic">5</text><rect x="114" y="63.5" width="64" height="1" fill="white" fill-opacity="0.2" /><rect x="114" y="127.5" width="64" height="1" fill="white" fill-opacity="0.2" /><rect x="114" y="191.5" width="64" height="1" fill="white" fill-opacity="0.2" /><rect x="114" y="255.0" width="64" height="1" fill="white" fill-opacity="0.5" /><text x="188" y="269.0" font-size="14" fill="white" font-family="monospace" dominant-baseline="ideographic">6</text><rect x="114" y="319.0" width="64" height="1" fill="white" fill-opacity="0.2" /><rect x="114" y="383.0" width="64" height="1" fill="white" fill-opacity="0.2" /><rect x="114" y="446.5" width="64" height="1" fill="white" fill-opacity="0.2" /><rect x="114" y="510.5" width="64" height="1" fill="white" fill-opacity="0.5" /><text x="188" y="524.5" font-size="14" fill="white" font-family="monospace" dominant-baseline="ideographic">7</text><rect x="114" y="574.0" width="64" height="1" fill="white" fill-opacity="0.2" /><rect x="114" y="638.0" width="64" height="1" fill="white" fill-opacity="0.2" /><rect x="114" y="702.0" width="64" height="1" fill="white" fill-opacity="0.2" /><rect x="114" y="765.5" width="64" height="1" fill="white" fill-opacity="0.5" /><text x="188" y="779.5" font-size="14" fill="white" font-family="monospace" dominant-baseline="ideographic">8</text><rect x="114" y="829.5" width="64" height="1" fill="white" fill-opacity="0.2" /><rect x="114" y="893.5" width="64" height="1" fill="white" fill-opacity="0.2" /><rect x="114" y="957.0" width="64" height="1" fill="white" fill-opacity="0.2" /><rect x="114" y="1021.0" width="64" height="1" fill="white" fill-opacity="0.5" /><text x="188" y="1035.0" font-size="14" fill="white" font-family="monospace" dominant-baseline="ideographic">9</text><rect x="228" y="0" width="64" height="1021.5" fill="black" /><rect x="228" y="0.0" width="64" height="1" fill="white" fill-opacity="0.5" /><text x="302" y="14.0" font-size="14" fill="white" font-family="monospace" dominant-baseline="ideographic">9</text><rect x="228" y="64.0" width="64" height="1" fill="white" fill-opacity="0.2" /><rect x="228" y="127.5" width="64" height="1" fill="white" fill-opacity="0.2" /><rect x="228" y="191.5" width="64" height="1" fill="white" fill-opacity="0.2" /><rect x="228" y="255.5" width="64" height="1" fill="white" fill-opacity="0.5" /><text x="302" y="269.5" font-size="14" fill="white" font-family="monospace" dominant-baseline="ideographic">10</text><rect x="228" y="319.0" width="64" height="1" fill="white" fill-opacity="0.2" /><rect x="228" y="383.0" width="64" height="1" fill="white" fill-opacity="0.2" /><rect x="228" y="447.0" width="64" height="1" fill="white" fill-opacity="0.2" /><rect x="228" y="510.5" width="64" height="1" fill="white" fill-opacity="0.5" /><text x="302" y="524.5" font-size="14" fill="white" font-family="monospace" dominant-baseline="ideographic">11</text><rect x="228" y="574.5" width="64" height="1" fill="white" fill-opacity="0.2" /><rect x="228" y="638.5" width="64" height="1" fill="white" fill-opacity="0.2" /><rect x="228" y="702.0" width="64" height="1" fill="white" fill-opacity="0.2" /><rect x="228" y="766.0" width="64" height="1" fill="white" fill-opacity="0.5" /><text x="302" y="780.0" font-size="14" fill="white" font-family="monospace" dominant-baseline="ideographic">12</text><rect x="228" y="830.0" width="64" height="1" fill="white" fill-opacity="0.2" /><rect x="228" y="893.5" width="64" height="1" fill="white" fill-opacity="0.2" /><rect x="228" y="957.5" width="64" height="1" fill="white" fill-opacity="0.2" /><rect x="228" y="1021.5" width="64" height="1" fill="white" fill-opacity="0.5" /><text x="302" y="1035.5" font-size="14" fill="white" font-family="monospace" dominant-baseline="ideographic">13</text><rect x="342" y="0" width="64" height="1021.0" fill="black" /><rect x="342" y="0.0" width="64" height="1" fill="white" fill-opacity="0.5" /><text x="416" y="14.0" font-size="14" fill="white" font-family="monospace" dominant-baseline="ideographic">13</text><rect x="342" y="63.5" width="64" height="1" fill="white" fill-opacity="0.2" /><rect x="342" y="127.5" width="64" height="1" fill="white" fill-opacity="0.2" /><rect x="342" y="191.5" width="64" height="1" fill="white" fill-opacity="0.2" /><rect x="342" y="255.0" width="64" height="1" fill="white" fill-opacity="0.5" /><text x="416" y="269.0" font-size="14" fill="white" font-family="monospace" dominant-baseline="ideographic">14</text><rect x="342" y="319.0" width="64" height="1" fill="white" fill-opacity="0.2" /><rect x="342" y="383.0" width="64" height="1" fill="white" fill-opacity="0.2" /><rect x="342" y="446.5" width="64" height="1" fill="white" fill-opacity="0.2" /><rect x="342" y="510.5" width="64" height="1" fill="white" fill-opacity="0.5" /><text x="416" y="524.5" font-size="14" fill="white" font-family="monospace" dominant-baseline="ideographic">15</text><rect x="342" y="574.5" width="64" height="1" fill="white" fill-opacity="0.2" /><rect x="342" y="638.0" width="64" height="1" fill="white" fill-opacity="0.2" /><rect x="342" y="702.0" width="64" height="1" fill="white" fill-opacity="0.2" /><rect x="342" y="766.0" width="64" height="1" fill="white" fill-opacity="0.5" /><text x="416" y="780.0" font-size="14" fill="white" font-family="monospace" dominant-baseline="ideographic">16</text><rect x="342" y="829.5" width="64" height="1" fill="white" fill-opacity="0.2" /><rect x="342" y="893.5" width="64" height="1" fill="white" fill-opacity="0.2" /><rect x="342" y="957.5" width="64" height="1" fill="white" fill-opacity="0.2" /><rect x="342" y="1021.0" width="64" height="1" fill="white" fill-opacity="0.5" /><text x="416" y="1035.0" font-size="14" fill="white" font-family="monospace" dominant-baseline="ideographic">17</text><rect x="456" y="0" width="64" height="1021.5" fill="black" /><rect x="456" y="0.0" width="64" height="1" fill="white" fill-opacity="0.5" /><text x="530" y="14.0" font-size="14" fill="white" font-family="monospace" dominant-baseline="ideographic">17</text><rect x="456" y="64.0" width="64" height="1" fill="white" fill-opacity="0.2" /><rect x="456" y="128.0" width="64" height="1" fill="white" fill-opacity="0.2" /><rect x="456" y="191.5" width="64" height="1" fill="white" fill-opacity="0.2" /><rect x="456" y="255.5" width="64" height="1" fill="white" fill-opacity="0.5" /><text x="530" y="269.5" font-size="14" fill="white" font-family="monospace" dominant-baseline="ideographic">18</text><rect x="456" y="319.0" width="64" height="1" fill="white" fill-opacity="0.2" /><rect x="456" y="383.0" width="64" height="1" fill="white" fill-opacity="0.2" /><rect x="456" y="447.0" width="64" height="1" fill="white" fill-opacity="0.2" /><rect x="456" y="510.5" width="64" height="1" fill="white" fill-opacity="0.5" /><text x="530" y="524.5" font-size="14" fill="white" font-family="monospace" dominant-baseline="ideographic">19</text><rect x="456" y="574.5" width="64" height="1" fill="white" fill-opacity="0.2" /><rect x="456" y="638.5" width="64" height="1" fill="white" fill-opacity="0.2" /><rect x="456" y="702.0" width="64" height="1" fill="white" fill-opacity="0.2" /><rect x="456" y="766.0" width="64" height="1" fill="white" fill-opacity="0.5" /><text x="530" y="780.0" font-size="14" fill="white" font-family="monospace" dominant-baseline="ideographic">20</text><rect x="456" y="830.0" width="64" height="1" fill="white" fill-opacity="0.2" /><rect x="456" y="893.5" width="64" height="1" fill="white" fill-opacity="0.2" /><rect x="456" y="957.5" width="64" height="1" fill="white" fill-opacity="0.2" /><rect x="456" y="1021.5" width="64" height="1" fill="white" fill-opacity="0.5" /><text x="530" y="1035.5" font-size="14" fill="white" font-family="monospace" dominant-baseline="ideographic">21</text><rect x="570" y="0" width="64" height="1021.0" fill="black" /><rect x="570" y="0.0" width="64" height="1" fill="white" fill-opacity="0.5" /><text x="644" y="14.0" font-size="14" fill="white" font-family="monospace" dominant-baseline="ideographic">21</text><rect x="570" y="63.5" width="64" height="1" fill="white" fill-opacity="0.2" /><rect x="570" y="127.5" width="64" height="1" fill="white" fill-opacity="0.2" /><rect x="570" y="191.5" width="64" height="1" fill="white" fill-opacity="0.2" /><rect x="570" y="255.0" width="64" height="1" fill="white" fill-opacity="0.5" /><text x="644" y="269.0" font-size="14" fill="white" font-family="monospace" dominant-baseline="ideographic">22</text><rect x="570" y="319.0" width="64" height="1" fill="white" fill-opacity="0.2" /><rect x="570" y="383.0" width="64" height="1" fill="white" fill-opacity="0.2" /><rect x="570" y="446.5" width="64" height="1" fill="white" fill-opacity="0.2" /><rect x="570" y="510.5" width="64" height="1" fill="white" fill-opacity="0.5" /><text x="644" y="524.5" font-size="14" fill="white" font-family="monospace" dominant-baseline="ideographic">23</text><rect x="570" y="574.5" width="64" height="1" fill="white" fill-opacity="0.2" /><rect x="570" y="638.0" width="64" height="1" fill="white" fill-opacity="0.2" /><rect x="570" y="702.0" width="64" height="1" fill="white" fill-opacity="0.2" /><rect x="570" y="766.0" width="64" height="1" fill="white" fill-opacity="0.5" /><text x="644" y="780.0" font-size="14" fill="white" font-family="monospace" dominant-baseline="ideographic">24</text><rect x="570" y="829.5" width="64" height="1" fill="white" fill-opacity="0.2" /><rect x="570" y="893.5" width="64" height="1" fill="white" fill-opacity="0.2" /><rect x="570" y="957.5" width="64" height="1" fill="white" fill-opacity="0.2" /><rect x="570" y="1021.0" width="64" height="1" fill="white" fill-opacity="0.5" /><text x="644" y="1035.0" font-size="14" fill="white" font-family="monospace" dominant-baseline="ideographic">25</text><rect x="570" y="255.25" width="64" height="1" fill="aqua" fill-opacity="0.75" /><text x="570" y="269.25" font-size="14" fill="aqua" fill-opacity="0.75" font-family="monospace">Phrase A</text><rect x="684" y="0" width="64" height="1021.5" fill="black" /><rect x="684" y="0.0" width="64" height="1" fill="white" fill-opacity="0.5" /><text x="758" y="14.0" font-size="14" fill="white" font-family="monospace" dominant-baseline="ideographic">25</text><rect x="684" y="64.0" width="64" height="1" fill="white" fill-opacity="0.2" /><rect x="684" y="128.0" width="64" height="1" fill="white" fill-opacity="0.2" /><rect x="684" y="191.5" width="64" height="1" fill="white" fill-opacity="0.2" /><rect x="684" y="255.5" width="64" height="1" fill="white" fill-opacity="0.5" /><text x="758" y="269.5" font-size="14" fill="white" font-family="monospace" dominant-baseline="ideographic">26</text><rect x="684" y="319.5" width="64" height="1" fill="white" fill-opacity="0.2" /><rect x="684" y="383.0" width="64" height="1" fill="white" fill-opacity="0.2" /><rect x="684" y="447.0" width="64" height="1" fill="white" fill-opacity="0.2" /><rect x="684" y="511.0" width="64" height="1" fill="white" fill-opacity="0.5" /><text x="758" y="525.0" font-size="14" fill="white" font-family="monospace" dominant-baseline="ideographic">27</text><rect x="684" y="574.5" width="64" height="1" fill="white" fill-opacity="0.2" /><rect x="684" y="638.5" width="64" height="1" fill="white" fill-opacity="0.2" /><rect x="684" y="702.5" width="64" height="1" fill="white" fill-opacity="0.2" /><rect x="684" y="766.0" width="64" height="1" fill="white" fill-opacity="0.5" /><text x="758" y="780.0" font-size="14" fill="white" font-family="monospace" dominant-baseline="ideographic">28</text><rect x="684" y="830.0" width="64" height="1" fill="white" fill-opacity="0.2" /><rect x="684" y="894.0" width="64" height="1" fill="white" fill-opacity="0.2" /><rect x="684" y="957.5" width="64" height="1" fill="white" fill-opacity="0.2" /><rect x="684" y="1021.5" width="64" height="1" fill="white" fill-opacity="0.5" /><text x="758" y="1035.5" font-size="14" fill="white" font-family="monospace" dominant-baseline="ideographic">29</text><rect x="798" y="0" width="64" height="1021.0" fill="black" /><rect x="798" y="0.0" width="64" height="1" fill="white" fill-opacity="0.5" /><text x="872" y="14.0" font-size="14" fill="white" font-family="monospace" dominant-baseline="ideographic">29</text><rect x="798" y="64.0" width="64" height="1" fill="white" fill-opacity="0.2" /><rect x="798" y="127.5" width="64" height="1" fill="white" fill-opacity="0.2" /><rect x="798" y="191.5" width="64" height="1" fill="white" fill-opacity="0.2" /><rect x="798" y="255.0" width="64" height="1" fill="white" fill-opacity="0.5" /><text x="872" y="269.0" font-size="14" fill="white" font-family="monospace" dominant-baseline="ideographic">30</text><rect x="798" y="319.0" width="64" height="1" fill="white" fill-opacity="0.2" /><rect x="798" y="383.0" width="64" height="1" fill="white" fill-opacity="0.2" /><rect x="798" y="446.5" width="64" height="1" fill="white" fill-opacity="0.2" /><rect x="798" y="510.5" width="64" height="1" fill="white" fill-opacity="0.5" /><text x="872" y="524.5" font-size="14" fill="white" font-family="monospace" dominant-baseline="ideographic">31</text><rect x="798" y="574.5" width="64" height="1" fill="white" fill-opacity="0.2" /><rect x="798" y="638.0" width="64" height="1" fill="white" fill-opacity="0.2" /><rect x="798" y="702.0" width="64" height="1" fill="white" fill-opacity="0.2" /><rect x="798" y="766.0" width="64" height="1" fill="white" fill-opacity="0.5" /><text x="872" y="780.0" font-size="14" fill="white" font-family="monospace" dominant-baseline="ideographic">32</text><rect x="798" y="829.5" width="64" height="1" fill="white" fill-opacity="0.2" /><rect x="798" y="893.5" width="64" height="1" fill="white" fill-opacity="0.2" /><rect x="798" y="957.5" width="64" height="1" fill="white" fill-opacity="0.2" /><rect x="798" y="1021.0" width="64" height="1" fill="white" fill-opacity="0.5" /><text x="872" y="1035.0" font-size="14" fill="white" font-family="monospace" dominant-baseline="ideographic">33</text><rect x="912" y="0" width="64" height="1021.5" fill="black" /><rect x="912" y="0.0" width="64" height="1" fill="white" fill-opacity="0.5" /><text x="986" y="14.0" font-size="14" fill="white" font-family="monospace" dominant-baseline="ideographic">33</text><rect x="912" y="64.0" width="64" height="1" fill="white" fill-opacity="0.2" /><rect x="912" y="128.0" width="64" height="1" fill="white" fill-opacity="0.2" /><rect x="912" y="191.5" width="64" height="1" fill="white" fill-opacity="0.2" /><rect x="912" y="255.5" width="64" height="1" fill="white" fill-opacity="0.5" /><text x="986" y="269.5" font-size="14" fill="white" font-family="monospace" dominant-baseline="ideographic">34</text><rect x="912" y="319.5" width="64" height="1" fill="white" fill-opacity="0.2" /><rect x="912" y="383.0" width="64" height="1" fill="white" fill-opacity="0.2" /><rect x="912" y="447.0" width="64" height="1" fill="white" fill-opacity="0.2" /><rect x="912" y="511.0" width="64" height="1" fill="white" fill-opacity="0.5" /><text x="986" y="525.0" font-size="14" fill="white" font-family="monospace" dominant-baseline="ideographic">35</text><rect x="912" y="574.5" width="64" height="1" fill="white" fill-opacity="0.2" /><rect x="912" y="638.5" width="64" height="1" fill="white" fill-opacity="0.2" /><rect x="912" y="702.5" width="64" height="1" fill="white" fill-opacity="0.2" /><rect x="912" y="766.0" width="64" height="1" fill="white" fill-opacity="0.5" /><text x="986" y="780.0" font-size="14" fill="white" font-family="monospace" dominant-baseline="ideographic">36</text><rect x="912" y="830.0" width="64" height="1" fill="white" fill-opacity="0.2" /><rect x="912" y="894.0" width="64" height="1" fill="white" fill-opacity="0.2" /><rect x="912" y="957.5" width="64" height="1" fill="white" fill-opacity="0.2" /><rect x="912" y="1021.5" width="64" height="1" fill="white" fill-opacity="0.5" /><text x="986" y="1035.5" font-size="14" fill="white" font-family="monospace" dominant-baseline="ideographic">37</text><rect x="1026" y="0" width="64" height="1021.0" fill="black" /><rect x="1026" y="0.0" width="64" height="1" fill="white" fill-opacity="0.5" /><text x="1100" y="14.0" font-size="14" fill="white" font-family="monospace" dominant-baseline="ideographic">37</text><rect x="1026" y="64.0" width="64" height="1" fill="white" fill-opacity="0.2" /><rect x="1026" y="127.5" width="64" height="1" fill="white" fill-opacity="0.2" /><rect x="1026" y="191.5" width="64" height="1" fill="white" fill-opacity="0.2" /><rect x="1026" y="255.5" width="64" height="1" fill="white" fill-opacity="0.5" /><text x="1100" y="269.5" font-size="14" fill="white" font-family="monospace" dominant-baseline="ideographic">38</text><rect x="1026" y="319.0" width="64" height="1" fill="white" fill-opacity="0.2" /><rect x="1026" y="383.0" width="64" height="1" fill="white" fill-opacity="0.2" /><rect x="1026" y="447.0" width="64" height="1" fill="white" fill-opacity="0.2" /><rect x="1026" y="510.5" width="64" height="1" fill="white" fill-opacity="0.5" /><text x="1100" y="524.5" font-size="14" fill="white" font-family="monospace" dominant-baseline="ideographic">39</text><rect x="1026" y="574.5" width="64" height="1" fill="white" fill-opacity="0.2" /><rect x="1026" y="638.5" width="64" height="1" fill="white" fill-opacity="0.2" /><rect x="1026" y="702.0" width="64" height="1" fill="white" fill-opacity="0.2" /><rect x="1026" y="766.0" width="64" height="1" fill="white" fill-opacity="0.5" /><text x="1100" y="780.0" font-size="14" fill="white" font-family="monospace" dominant-baseline="ideographic">40</text><rect x="1026" y="830.0" width="64" height="1" fill="white" fill-opacity="0.2" /><rect x="1026" y="893.5" width="64" height="1" fill="white" fill-opacity="0.2" /><rect x="1026" y="957.5" width="64" height="1" fill="white" fill-opacity="0.2" /><rect x="1026" y="1021.0" width="64" height="1" fill="white" fill-opacity="0.5" /><text x="1100" y="1035.0" font-size="14" fill="white" font-family="monospace" dominant-baseline="ideographic">41</text><rect x="1026" y="255.35000000000036" width="64" height="1" fill="aqua" fill-opacity="0.75" /><text x="1026" y="269.35000000000036" font-size="14" fill="aqua" fill-opacity="0.75" font-family="monospace">Phrase B</text><rect x="1140" y="0" width="64" height="1021.5" fill="black" /><rect x="1140" y="0.0" width="64" height="1" fill="white" fill-opacity="0.5" /><text x="1214" y="14.0" font-size="14" fill="white" font-family="monospace" dominant-baseline="ideographic">41</text><rect x="1140" y="64.0" width="64" height="1" fill="white" fill-opacity="0.2" /><rect x="1140" y="128.0" width="64" height="1" fill="white" fill-opacity="0.2" /><rect x="1140" y="191.5" width="64" height="1" fill="white" fill-opacity="0.2" /><rect x="1140" y="255.5" width="64" height="1" fill="white" fill-opacity="0.5" /><text x="1214" y="269.5" font-size="14" fill="white" font-family="monospace" dominant-baseline="ideographic">42</text><rect x="1140" y="319.5" width="64" height="1" fill="white" fill-opacity="0.2" /><rect x="1140" y="383.0" width="64" height="1" fill="white" fill-opacity="0.2" /><rect x="1140" y="447.0" width="64" height="1" fill="white" fill-opacity="0.2" /><rect x="1140" y="511.0" width="64" height="1" fill="white" fill-opacity="0.5" /><text x="1214" y="525.0" font-size="14" fill="white" font-family="monospace" dominant-baseline="ideographic">43</text><rect x="1140" y="574.5" width="64" height="1" fill="white" fill-opacity="0.2" /><rect x="1140" y="638.5" width="64" height="1" fill="white" fill-opacity="0.2" /><rect x="1140" y="702.5" width="64" height="1" fill="white" fill-opacity="0.2" /><rect x="1140" y="766.0" width="64" height="1" fill="white" fill-opacity="0.5" /><text x="1214" y="780.0" font-size="14" fill="white" font-family="monospace" dominant-baseline="ideographic">44</text><rect x="1140" y="830.0" width="64" height="1" fill="white" fill-opacity="0.2" /><rect x="1140" y="894.0" width="64" height="1" fill="white" fill-opacity="0.2" /><rect x="1140" y="957.5" width="64" height="1" fill="white" fill-opacity="0.2" /><rect x="1140" y="1021.5" width="64" height="1" fill="white" fill-opacity="0.5" /><text x="1214" y="1035.5" font-size="14" fill="white" font-family="monospace" dominant-baseline="ideographic">45</text><rect x="1254" y="0" width="64" height="1021.5" fill="black" /><rect x="1254" y="0.0" width="64" height="1" fill="white" fill-opacity="0.5" /><text x="1328" y="14.0" font-size="14" fill="white" font-family="monospace" dominant-baseline="ideographic">45</text><rect x="1254" y="64.0" width="64" height="1" fill="white" fill-opacity="0.2" /><rect x="1254" y="127.5" width="64" height="1" fill="white" fill-opacity="0.2" /><rect x="1254" y="191.5" width="64" height="1" fill="white" fill-opacity="0.2" /><rect x="1254" y="255.5" width="64" height="1" fill="white" fill-opacity="0.5" /><text x="1328" y="269.5" font-size="14" fill="white" font-family="monospace" dominant-baseline="ideographic">46</text><rect x="1254" y="319.0" width="64" height="1" fill="white" fill-opacity="0.2" /><rect x="1254" y="383.0" width="64" height="1" fill="white" fill-opacity="0.2" /><rect x="1254" y="447.0" width="64" height="1" fill="white" fill-opacity="0.2" /><rect x="1254" y="510.5" width="64" height="1" fill="white" fill-opacity="0.5" /><text x="1328" y="524.5" font-size="14" fill="white" font-family="monospace" dominant-baseline="ideographic">47</text><rect x="1254" y="574.5" width="64" height="1" fill="white" fill-opacity="0.2" /><rect x="1254" y="638.5" width="64" height="1" fill="white" fill-opacity="0.2" /><rect x="1254" y="702.0" width="64" height="1" fill="white" fill-opacity="0.2" /><rect x="1254" y="766.0" width="64" height="1" fill="white" fill-opacity="0.5" /><text x="1328" y="780.0" font-size="14" fill="white" font-family="monospace" dominant-baseline="ideographic">48</text><rect x="1254" y="830.0" width="64" height="1" fill="white" fill-opacity="0.2" /><rect x="1254" y="893.5" width="64" height="1" fill="white" fill-opacity="0.2" /><rect x="1254" y="957.5" width="64" height="1" fill="white" fill-opacity="0.2" /><rect x="1254" y="1021.5" width="64" height="1" fill="white" fill-opacity="0.5" /><text x="1328" y="1035.5" font-size="14" fill="white" font-family="monospace" dominant-baseline="ideographic">49</text><rect x="1254" y="255.39999999999964" width="64" height="1" fill="aqua" fill-opacity="0.75" /><text x="1254" y="269.39999999999964" font-size="14" fill="aqua" fill-opacity="0.75" font-family="monospace">Special</text><rect x="1368" y="0" width="64" height="1021.0" fill="black" /><rect x="1368" y="0.0" width="64" height="1" fill="white" fill-opacity="0.5" /><text x="1442" y="14.0" font-size="14" fill="white" font-family="monospace" dominant-baseline="ideographic">49</text><rect x="1368" y="63.5" width="64" height="1" fill="white" fill-opacity="0.2" /><rect x="1368" y="127.5" width="64" height="1" fill="white" fill-opacity="0.2" /><rect x="1368" y="191.5" width="64" height="1" fill="white" fill-opacity="0.2" /><rect x="1368" y="255.0" width="64" height="1" fill="white" fill-opacity="0.5" /><text x="1442" y="269.0" font-size="14" fill="white" font-family="monospace" dominant-baseline="ideographic">50</text><rect x="1368" y="319.0" width="64" height="1" fill="white" fill-opacity="0.2" /><rect x="1368" y="383.0" width="64" height="1" fill="white" fill-opacity="0.2" /><rect x="1368" y="446.5" width="64" height="1" fill="white" fill-opacity="0.2" /><rect x="1368" y="510.5" width="64" height="1" fill="white" fill-opacity="0.5" /><text x="1442" y="524.5" font-size="14" fill="white" font-family="monospace" dominant-baseline="ideographic">51</text><rect x="1368" y="574.5" width="64" height="1" fill="white" fill-opacity="0.2" /><rect x="1368" y="638.0" width="64" height="1" fill="white" fill-opacity="0.2" /><rect x="1368" y="702.0" width="64" height="1" fill="white" fill-opacity="0.2" /><rect x="1368" y="765.5" width="64" height="1" fill="white" fill-opacity="0.5" /><text x="1442" y="779.5" font-size="14" fill="white" font-family="monospace" dominant-baseline="ideographic">52</text><rect x="1368" y="829.5" width="64" height="1" fill="white" fill-opacity="0.2" /><rect x="1368" y="893.5" width="64" height="1" fill="white" fill-opacity="0.2" /><rect x="1368" y="957.0" width="64" height="1" fill="white" fill-opacity="0.2" /><rect x="1368" y="1021.0" width="64" height="1" fill="white" fill-opacity="0.5" /><text x="1442" y="1035.0" font-size="14" fill="white" font-family="monospace" dominant-baseline="ideographic">53</text><rect x="1482" y="0" width="64" height="1021.5" fill="black" /><rect x="1482" y="0.0" width="64" height="1" fill="white" fill-opacity="0.5" /><text x="1556" y="14.0" font-size="14" fill="white" font-family="monospace" dominant-baseline="ideographic">53</text><rect x="1482" y="64.0" width="64" height="1" fill="white" fill-opacity="0.2" /><rect x="1482" y="127.5" width="64" height="1" fill="white" fill-opacity="0.2" /><rect x="1482" y="191.5" width="64" height="1" fill="white" fill-opacity="0.2" /><rect x="1482" y="255.5" width="64" height="1" fill="white" fill-opacity="0.5" /><text x="1556" y="269.5" font-size="14" fill="white" font-family="monospace" dominant-baseline="ideographic">54</text><rect x="1482" y="319.0" width="64" height="1" fill="white" fill-opacity="0.2" /><rect x="1482" y="383.0" width="64" height="1" fill="white" fill-opacity="0.2" /><rect x="1482" y="447.0" width="64" height="1" fill="white" fill-opacity="0.2" /><rect x="1482" y="510.5" width="64" height="1" fill="white" fill-opacity="0.5" /><text x="1556" y="524.5" font-size="14" fill="white" font-family="monospace" dominant-baseline="ideographic">55</text><rect x="1482" y="574.5" width="64" height="1" fill="white" fill-opacity="0.2" /><rect x="1482" y="638.5" width="64" height="1" fill="white" fill-opacity="0.2" /><rect x="1482" y="702.0" width="64" height="1" fill="white" fill-opacity="0.2" /><rect x="1482" y="766.0" width="64" height="1" fill="white" fill-opacity="0.5" /><text x="1556" y="780.0" font-size="14" fill="white" font-family="monospace" dominant-baseline="ideographic">56</text><rect x="1482" y="830.0" width="64" height="1" fill="white" fill-opacity="0.2" /><rect x="1482" y="893.5" width="64" height="1" fill="white" fill-opacity="0.2" /><rect x="1482" y="957.5" width="64" height="1" fill="white" fill-opacity="0.2" /><rect x="1482" y="1021.5" width="64" height="1" fill="white" fill-opacity="0.5" /><text x="1556" y="1035.5" font-size="14" fill="white" font-family="monospace" dominant-baseline="ideographic">57</text><rect x="1596" y="0" width="64" height="1021.0" fill="black" /><rect x="1596" y="0.0" width="64" height="1" fill="white" fill-opacity="0.5" /><text x="1670" y="14.0" font-size="14" fill="white" font-family="monospace" dominant-baseline="ideographic">57</text><rect x="1596" y="63.5" width="64" height="1" fill="white" fill-opacity="0.2" /><rect x="1596" y="127.5" width="64" height="1" fill="white" fill-opacity="0.2" /><rect x="1596" y="191.5" width="64" height="1" fill="white" fill-opacity="0.2" /><rect x="1596" y="255.0" width="64" height="1" fill="white" fill-opacity="0.5" /><text x="1670" y="269.0" font-size="14" fill="white" font-family="monospace" dominant-baseline="ideographic">58</text><rect x="1596" y="319.0" width="64" height="1" fill="white" fill-opacity="0.2" /><rect x="1596" y="383.0" width="64" height="1" fill="white" fill-opacity="0.2" /><rect x="1596" y="446.5" width="64" height="1" fill="white" fill-opacity="0.2" /><rect x="1596" y="510.5" width="64" height="1" fill="white" fill-opacity="0.5" /><text x="1670" y="524.5" font-size="14" fill="white" font-family="monospace" dominant-baseline="ideographic">59</text><rect x="1596" y="574.5" width="64" height="1" fill="white" fill-opacity="0.2" /><rect x="1596" y="638.0" width="64" height="1" fill="white" fill-opacity="0.2" /><rect x="1596" y="702.0" width="64" height="1" fill="white" fill-opacity="0.2" /><rect x="1596" y="766.0" width="64" height="1" fill="white" fill-opacity="0.5" /><text x="1670" y="780.0" font-size="14" fill="white" font-family="monospace" dominant-baseline="ideographic">60</text><rect x="1596" y="829.5" width="64" height="1" fill="white" fill-opacity="0.2" /><rect x="1596" y="893.5" width="64" height="1" fill="white" fill-opacity="0.2" /><rect x="1596" y="957.5" width="64" height="1" fill="white" fill-opacity="0.2" /><rect x="1596" y="1021.0" width="64" height="1" fill="white" fill-opacity="0.5" /><text x="1670" y="1035.0" font-size="14" fill="white" font-family="monospace" dominant-baseline="ideographic">61</text><rect x="1710" y="0" width="64" height="1021.5" fill="black" /><rect x="1710" y="0.0" width="64" height="1" fill="white" fill-opacity="0.5" /><text x="1784" y="14.0" font-size="14" fill="white" font-family="monospace" dominant-baseline="ideographic">61</text><rect x="1710" y="64.0" width="64" height="1" fill="white" fill-opacity="0.2" /><rect x="1710" y="128.0" width="64" height="1" fill="white" fill-opacity="0.2" /><rect x="1710" y="191.5" width="64" height="1" fill="white" fill-opacity="0.2" /><rect x="1710" y="255.5" width="64" height="1" fill="white" fill-opacity="0.5" /><text x="1784" y="269.5" font-size="14" fill="white" font-family="monospace" dominant-baseline="ideographic">62</text><rect x="1710" y="319.5" width="64" height="1" fill="white" fill-opacity="0.2" /><rect x="1710" y="383.0" width="64" height="1" fill="white" fill-opacity="0.2" /><rect x="1710" y="447.0" width="64" height="1" fill="white" fill-opacity="0.2" /><rect x="1710" y="511.0" width="64" height="1" fill="white" fill-opacity="0.5" /><text x="1784" y="525.0" font-size="14" fill="white" font-family="monospace" dominant-baseline="ideographic">63</text><rect x="1710" y="574.5" width="64" height="1" fill="white" fill-opacity="0.2" /><rect x="1710" y="638.5" width="64" height="1" fill="white" fill-opacity="0.2" /><rect x="1710" y="702.0" width="64" height="1" fill="white" fill-opacity="0.2" /><rect x="1710" y="766.0" width="64" height="1" fill="white" fill-opacity="0.5" /><text x="1784" y="780.0" font-size="14" fill="white" font-family="monospace" dominant-baseline="ideographic">64</text><rect x="1710" y="830.0" width="64" height="1" fill="white" fill-opacity="0.2" /><rect x="1710" y="893.5" width="64" height="1" fill="white" fill-opacity="0.2" /><rect x="1710" y="957.5" width="64" height="1" fill="white" fill-opacity="0.2" /><rect x="1710" y="1021.5" width="64" height="1" fill="white" fill-opacity="0.5" /><text x="1784" y="1035.5" font-size="14" fill="white" font-family="monospace" dominant-baseline="ideographic">65</text><rect x="1710" y="510.7999999999993" width="64" height="1" fill="aqua" fill-opacity="0.75" /><text x="1710" y="524.7999999999993" font-size="14" fill="aqua" fill-opacity="0.75" font-family="monospace">Special</text><rect x="1824" y="0" width="64" height="1021.0" fill="black" /><rect x="1824" y="0.0" width="64" height="1" fill="white" fill-opacity="0.5" /><text x="1898" y="14.0" font-size="14" fill="white" font-family="monospace" dominant-baseline="ideographic">65</text><rect x="1824" y="63.5" width="64" height="1" fill="white" fill-opacity="0.2" /><rect x="1824" y="127.5" width="64" height="1" fill="white" fill-opacity="0.2" /><rect x="1824" y="191.5" width="64" height="1" fill="white" fill-opacity="0.2" /><rect x="1824" y="255.0" width="64" height="1" fill="white" fill-opacity="0.5" /><text x="1898" y="269.0" font-size="14" fill="white" font-family="monospace" dominant-baseline="ideographic">66</text><rect x="1824" y="319.0" width="64" height="1" fill="white" fill-opacity="0.2" /><rect x="1824" y="383.0" width="64" height="1" fill="white" fill-opacity="0.2" /><rect x="1824" y="446.5" width="64" height="1" fill="white" fill-opacity="0.2" /><rect x="1824" y="510.5" width="64" height="1" fill="white" fill-opacity="0.5" /><text x="1898" y="524.5" font-size="14" fill="white" font-family="monospace" dominant-baseline="ideographic">67</text><rect x="1824" y="574.5" width="64" height="1" fill="white" fill-opacity="0.2" /><rect x="1824" y="638.0" width="64" height="1" fill="white" fill-opacity="0.2" /><rect x="1824" y="702.0" width="64" height="1" fill="white" fill-opacity="0.2" /><rect x="1824" y="766.0" width="64" height="1" fill="white" fill-opacity="0.5" /><text x="1898" y="780.0" font-size="14" fill="white" font-family="monospace" dominant-baseline="ideographic">68</text><rect x="1824" y="829.5" width="64" height="1" fill="white" fill-opacity="0.2" /><rect x="1824" y="893.5" width="64" height="1" fill="white" fill-opacity="0.2" /><rect x="1824" y="957.5" width="64" height="1" fill="white" fill-opacity="0.2" /><rect x="1824" y="1021.0" width="64" height="1" fill="white" fill-opacity="0.5" /><text x="1898" y="1035.0" font-size="14" fill="white" font-family="monospace" dominant-baseline="ideographic">69</text><rect x="1938" y="0" width="64" height="1021.5" fill="black" /><rect x="1938" y="0.0" width="64" height="1" fill="white" fill-opacity="0.5" /><text x="2012" y="14.0" font-size="14" fill="white" font-family="monospace" dominant-baseline="ideographic">69</text><rect x="1938" y="64.0" width="64" height="1" fill="white" fill-opacity="0.2" /><rect x="1938" y="128.0" width="64" height="1" fill="white" fill-opacity="0.2" /><rect x="1938" y="191.5" width="64" height="1" fill="white" fill-opacity="0.2" /><rect x="1938" y="255.5" width="64" height="1" fill="white" fill-opacity="0.5" /><text x="2012" y="269.5" font-size="14" fill="white" font-family="monospace" dominant-baseline="ideographic">70</text><rect x="1938" y="319.5" width="64" height="1" fill="white" fill-opacity="0.2" /><rect x="1938" y="383.0" width="64" height="1" fill="white" fill-opacity="0.2" /><rect x="1938" y="447.0" width="64" height="1" fill="white" fill-opacity="0.2" /><rect x="1938" y="511.0" width="64" height="1" fill="white" fill-opacity="0.5" /><text x="2012" y="525.0" font-size="14" fill="white" font-family="monospace" dominant-baseline="ideographic">71</text><rect x="1938" y="574.5" width="64" height="1" fill="white" fill-opacity="0.2" /><rect x="1938" y="638.5" width="64" height="1" fill="white" fill-opacity="0.2" /><rect x="1938" y="702.5" width="64" height="1" fill="white" fill-opacity="0.2" /><rect x="1938" y="766.0" width="64" height="1" fill="white" fill-opacity="0.5" /><text x="2012" y="780.0" font-size="14" fill="white" font-family="monospace" dominant-baseline="ideographic">72</text><rect x="1938" y="830.0" width="64" height="1" fill="white" fill-opacity="0.2" /><rect x="1938" y="894.0" width="64" height="1" fill="white" fill-opacity="0.2" /><rect x="1938" y="957.5" width="64" height="1" fill="white" fill-opacity="0.2" /><rect x="1938" y="1021.5" width="64" height="1" fill="white" fill-opacity="0.5" /><text x="2012" y="1035.5" font-size="14" fill="white" font-family="monospace" dominant-baseline="ideographic">73</text><rect x="2052" y="0" width="64" height="255.0" fill="black" /><rect x="2052" y="0.0" width="64" height="1" fill="white" fill-opacity="0.5" /><text x="2126" y="14.0" font-size="14" fill="white" font-family="monospace" dominant-baseline="ideographic">73</text></svg>