<?xml version="1.0" encoding="UTF-8"?><svg xmlns="http://www.w3.org/2000/svg" xmlns:xlink="http://www.w3.org/1999/xlink"     width="2280" height="856.5" viewBox="0 0 2280 856.5"><defs></defs><rect x="0.0" y="158.0" width="12.0" height="3" fill="#ff3c3c" stroke="#c71f1f" /><rect x="13.0" y="158.0" width="12.0" height="3" fill="#35df39" stroke="#03aa10" /><rect x="39.0" y="210.5" width="12.0" height="3" fill="#fff874" stroke="#eb9c26" /><rect x="39.0" y="263.0" width="12.0" height="3" fill="#fff874" stroke="#eb9c26" /><rect x="26.0" y="289.5" width="12.0" height="3" fill="#80c9ff" stroke="#0b6cba" /><rect x="26.0" y="342.0" width="12.0" height="3" fill="#80c9ff" stroke="#0b6cba" /><rect x="39.0" y="394.5" width="12.0" height="3" fill="#fff874" stroke="#eb9c26" /><rect x="26.0" y="447.5" width="12.0" height="3" fill="#80c9ff" stroke="#0b6cba" /><rect x="13.0" y="500.0" width="12.0" height="3" fill="#35df39" stroke="#03aa10" /><rect x="13.0" y="579.0" width="12.0" height="3" fill="#35df39" stroke="#03aa10" /><rect x="26.0" y="579.0" width="12.0" height="3" fill="#80c9ff" stroke="#0b6cba" /><rect x="26.0" y="605.5" width="12.0" height="3" fill="#80c9ff" stroke="#0b6cba" /><rect x="39.0" y="605.5" width="12.0" height="3" fill="#fff874" stroke="#eb9c26" /><rect x="26.0" y="658.0" width="12.0" height="3" fill="#80c9ff" stroke="#0b6cba" /><rect x="39.0" y="658.0" width="12.0" height="3" fill="#fff874" stroke="#eb9c26" /><rect x="13.0" y="684.0" width="12.0" height="3" fill="#35df39" stroke="#03aa10" /><rect x="26.0" y="684.0" width="12.0" height="3" fill="#80c9ff" stroke="#0b6cba" /><rect x="13.0" y="710.5" width="12.0" height="3" fill="#35df39" stroke="#03aa10" /><rect x="26.0" y="710.5" width="12.0" height="3" fill="#80c9ff" stroke="#0b6cba" /><rect x="13.0" y="763.0" width="12.0" height="3" fill="#35df39" stroke="#03aa10" /><rect x="26.0" y="763.0" width="12.0" height="3" fill="#80c9ff" stroke="#0b6cba" /><rect x="13.0" y="789.5" width="12.0" height="3" fill="#35df39" stroke="#03aa10" /><rect x="26.0" y="789.5" width="12.0" height="3" fill="#80c9ff" stroke="#0b6cba" /><rect x="0.0" y="816.0" width="12.0" height="3" fill="#ff3c3c" stroke="#c71f1f" /><rect x="13.0" y="816.0" width="12.0" height="3" fill="#35df39" stroke="#03aa10" /><rect x="127.0" y="26.5" width="12.0" height="3" fill="#35df39" stroke="#03aa10" /><rect x="140.0" y="26.5" width="12.0" height="3" fill="#80c9ff" stroke="#0b6cba" /><rect x="114.0" y="79.0" width="12.0" height="3" fill="#ff3c3c" stroke="#c71f1f" /><rect x="140.0" y="79.0" width="12.0" height="3" fill="#80c9ff" stroke="#0b6cba" /><rect x="114.0" y="158.0" width="12.0" height="3" fill="#ff3c3c" stroke="#c71f1f" /><rect x="127.0" y="158.0" width="12.0" height="3" fill="#35df39" stroke="#03aa10" /><rect x="153.0" y="210.5" width="12.0" height="3" fill="#fff874" stroke="#eb9c26" /><rect x="153.0" y="263.5" width="12.0" height="3" fill="#fff874" stroke="#eb9c26" /><rect x="140.0" y="289.5" width="12.0" height="3" fill="#80c9ff" stroke="#0b6cba" /><rect x="140.0" y="342.0" width="12.0" height="3" fill="#80c9ff" stroke="#0b6cba" /><rect x="153.0" y="395.0" width="12.0" height="3" fill="#fff874" stroke="#eb9c26" /><rect x="140.0" y="447.5" width="12.0" height="3" fill="#80c9ff" stroke="#0b6cba" /><rect x="140.0" y="474.0" width="12.0" height="3" fill="#80c9ff" stroke="#0b6cba" /><rect x="153.0" y="500.0" width="12.0" height="3" fill="#fff874" stroke="#eb9c26" /><rect x="166.0" y="500.0" width="12.0" height="3" fill="#ff83f4" stroke="#d002bc" /><rect x="140.0" y="605.5" width="12.0" height="3" fill="#80c9ff" stroke="#0b6cba" /><rect x="153.0" y="605.5" width="12.0" height="3" fill="#fff874" stroke="#eb9c26" /><rect x="140.0" y="658.0" width="12.0" height="3" fill="#80c9ff" stroke="#0b6cba" /><rect x="153.0" y="658.0" width="12.0" height="3" fill="#fff874" stroke="#eb9c26" /><rect x="127.0" y="684.5" width="12.0" height="3" fill="#35df39" stroke="#03aa10" /><rect x="153.0" y="684.5" width="12.0" height="3" fill="#fff874" stroke="#eb9c26" /><rect x="127.0" y="710.5" width="12.0" height="3" fill="#35df39" stroke="#03aa10" /><rect x="153.0" y="710.5" width="12.0" height="3" fill="#fff874" stroke="#eb9c26" /><rect x="127.0" y="763.5" width="12.0" height="3" fill="#35df39" stroke="#03aa10" /><rect x="153.0" y="763.5" width="12.0" height="3" fill="#fff874" stroke="#eb9c26" /><rect x="127.0" y="789.5" width="12.0" height="3" fill="#35df39" stroke="#03aa10" /><rect x="153.0" y="789.5" width="12.0" height="3" fill="#fff874" stroke="#eb9c26" /><rect x="166.0" y="816.0" width="12.0" height="3" fill="#ff83f4" stroke="#d002bc" /><rect x="114" y="816.0" width="64" height="3" fill="#ff72e7" stroke="#7c7c7c" /><rect x="241.0" y="26.5" width="12.0" height="3" fill="#35df39" stroke="#03aa10" /><rect x="254.0" y="53.0" width="12.0" height="3" fill="#80c9ff" stroke="#0b6cba" /><rect x="267.0" y="79.0" width="12.0" height="3" fill="#fff874" stroke="#eb9c26" /><rect x="280.0" y="210.5" width="12.0" height="3" fill="#ff83f4" stroke="#d002bc" /><rect x="228" y="210.5" width="64" height="3" fill="#ff72e7" stroke="#7c7c7c" /><rect x="241.0" y="237.0" width="12.0" height="3" fill="#35df39" stroke="#03aa10" /><rect x="228.0" y="263.5" width="12.0" height="3" fill="#ff3c3c" stroke="#c71f1f" /><rect x="254.0" y="289.5" width="12.0" height="3" fill="#80c9ff" stroke="#0b6cba" /><rect x="280.0" y="632.0" width="12.0" height="3" fill="#ff83f4" stroke="#d002bc" /><rect x="228" y="632.0" width="64" height="3" fill="#ff72e7" stroke="#7c7c7c" /><rect x="254.0" y="658.0" width="12.0" height="3" fill="#80c9ff" stroke="#0b6cba" /><rect x="241.0" y="684.5" width="12.0" height="3" fill="#35df39" stroke="#03aa10" /><rect x="267.0" y="710.5" width="12.0" height="3" fill="#fff874" stroke="#eb9c26" /><rect x="394.0" y="210.5" width="12.0" height="3" fill="#ff83f4" stroke="#d002bc" /><rect x="342" y="210.5" width="64" height="3" fill="#ff72e7" stroke="#7c7c7c" /><rect x="355.0" y="236.5" width="12.0" height="3" fill="#35df39" stroke="#03aa10" /><rect x="368.0" y="263.0" width="12.0" height="3" fill="#80c9ff" stroke="#0b6cba" /><rect x="381.0" y="289.5" width="12.0" height="3" fill="#fff874" stroke="#eb9c26" /><rect x="368.0" y="342.0" width="12.0" height="3" fill="#80c9ff" stroke="#0b6cba" /><rect x="355.0" y="368.0" width="12.0" height="3" fill="#35df39" stroke="#03aa10" /><rect x="394.0" y="394.5" width="12.0" height="3" fill="#ff83f4" stroke="#d002bc" /><rect x="342" y="394.5" width="64" height="3" fill="#ff72e7" stroke="#7c7c7c" /><rect x="355.0" y="421.0" width="12.0" height="3" fill="#35df39" stroke="#03aa10" /><rect x="368.0" y="447.0" width="12.0" height="3" fill="#80c9ff" stroke="#0b6cba" /><rect x="381.0" y="473.5" width="12.0" height="3" fill="#fff874" stroke="#eb9c26" /><rect x="394.0" y="500.0" width="12.0" height="3" fill="#ff83f4" stroke="#d002bc" /><rect x="381.0" y="552.5" width="12.0" height="3" fill="#fff874" stroke="#eb9c26" /><rect x="368.0" y="579.0" width="12.0" height="3" fill="#80c9ff" stroke="#0b6cba" /><rect x="355.0" y="605.0" width="12.0" height="3" fill="#35df39" stroke="#03aa10" /><rect x="368.0" y="657.5" width="12.0" height="3" fill="#80c9ff" stroke="#0b6cba" /><rect x="381.0" y="657.5" width="12.0" height="3" fill="#fff874" stroke="#eb9c26" /><rect x="368.0" y="710.5" width="12.0" height="3" fill="#80c9ff" stroke="#0b6cba" /><rect x="381.0" y="710.5" width="12.0" height="3" fill="#fff874" stroke="#eb9c26" /><rect x="355.0" y="736.5" width="12.0" height="3" fill="#35df39" stroke="#03aa10" /><rect x="381.0" y="736.5" width="12.0" height="3" fill="#fff874" stroke="#eb9c26" /><rect x="355.0" y="789.5" width="12.0" height="3" fill="#35df39" stroke="#03aa10" /><rect x="381.0" y="789.5" width="12.0" height="3" fill="#fff874" stroke="#eb9c26" /><rect x="355.0" y="815.5" width="12.0" height="3" fill="#35df39" stroke="#03aa10" /><rect x="368.0" y="815.5" width="12.0" height="3" fill="#80c9ff" stroke="#0b6cba" /><rect x="469.0" y="0.0" width="12.0" height="3" fill="#35df39" stroke="#03aa10" /><rect x="482.0" y="0.0" width="12.0" height="3" fill="#80c9ff" stroke="#0b6cba" /><rect x="469.0" y="52.5" width="12.0" height="3" fill="#35df39" stroke="#03aa10" /><rect x="482.0" y="52.5" width="12.0" height="3" fill="#80c9ff" stroke="#0b6cba" /><rect x="469.0" y="79.0" width="12.0" height="3" fill="#35df39" stroke="#03aa10" /><rect x="482.0" y="79.0" width="12.0" height="3" fill="#80c9ff" stroke="#0b6cba" /><rect x="495.0" y="79.0" width="12.0" height="3" fill="#fff874" stroke="#eb9c26" /><rect x="456.0" y="210.5" width="12.0" height="3" fill="#ff3c3c" stroke="#c71f1f" /><rect x="482.0" y="210.5" width="12.0" height="3" fill="#80c9ff" stroke="#0b6cba" /><rect x="456.0" y="237.0" width="12.0" height="3" fill="#ff3c3c" stroke="#c71f1f" /><rect x="482.0" y="237.0" width="12.0" height="3" fill="#80c9ff" stroke="#0b6cba" /><rect x="456.0" y="263.0" width="12.0" height="3" fill="#ff3c3c" stroke="#c71f1f" /><rect x="469.0" y="263.0" width="12.0" height="3" fill="#35df39" stroke="#03aa10" /><rect x="456.0" y="289.5" width="12.0" height="3" fill="#ff3c3c" stroke="#c71f1f" /><rect x="469.0" y="289.5" width="12.0" height="3" fill="#35df39" stroke="#03aa10" /><rect x="456.0" y="315.5" width="12.0" height="3" fill="#ff3c3c" stroke="#c71f1f" /><rect x="469.0" y="315.5" width="12.0" height="3" fill="#35df39" stroke="#03aa10" /><rect x="456.0" y="342.0" width="12.0" height="3" fill="#ff3c3c" stroke="#c71f1f" /><rect x="469.0" y="342.0" width="12.0" height="3" fill="#35df39" stroke="#03aa10" /><rect x="456.0" y="368.5" width="12.0" height="3" fill="#ff3c3c" stroke="#c71f1f" /><rect x="469.0" y="368.5" width="12.0" height="3" fill="#35df39" stroke="#03aa10" /><rect x="456.0" y="394.5" width="12.0" height="3" fill="#ff3c3c" stroke="#c71f1f" /><rect x="469.0" y="394.5" width="12.0" height="3" fill="#35df39" stroke="#03aa10" /><rect x="456.0" y="421.0" width="12.0" height="3" fill="#ff3c3c" stroke="#c71f1f" /><rect x="469.0" y="421.0" width="12.0" height="3" fill="#35df39" stroke="#03aa10" /><rect x="456.0" y="447.5" width="12.0" height="3" fill="#ff3c3c" stroke="#c71f1f" /><rect x="469.0" y="447.5" width="12.0" height="3" fill="#35df39" stroke="#03aa10" /><rect x="456.0" y="473.5" width="12.0" height="3" fill="#ff3c3c" stroke="#c71f1f" /><rect x="469.0" y="473.5" width="12.0" height="3" fill="#35df39" stroke="#03aa10" /><rect x="456.0" y="500.0" width="12.0" height="3" fill="#ff3c3c" stroke="#c71f1f" /><rect x="469.0" y="500.0" width="12.0" height="3" fill="#35df39" stroke="#03aa10" /><rect x="456.0" y="526.0" width="12.0" height="3" fill="#ff3c3c" stroke="#c71f1f" /><rect x="469.0" y="526.0" width="12.0" height="3" fill="#35df39" stroke="#03aa10" /><rect x="456.0" y="552.5" width="12.0" height="3" fill="#ff3c3c" stroke="#c71f1f" /><rect x="469.0" y="552.5" width="12.0" height="3" fill="#35df39" stroke="#03aa10" /><rect x="456.0" y="579.0" width="12.0" height="3" fill="#ff3c3c" stroke="#c71f1f" /><rect x="469.0" y="579.0" width="12.0" height="3" fill="#35df39" stroke="#03aa10" /><rect x="456.0" y="605.0" width="12.0" height="3" fill="#ff3c3c" stroke="#c71f1f" /><rect x="469.0" y="605.0" width="12.0" height="3" fill="#35df39" stroke="#03aa10" /><rect x="482.0" y="631.5" width="12.0" height="3" fill="#80c9ff" stroke="#0b6cba" /><rect x="495.0" y="631.5" width="12.0" height="3" fill="#fff874" stroke="#eb9c26" /><rect x="482.0" y="658.0" width="12.0" height="3" fill="#80c9ff" stroke="#0b6cba" /><rect x="495.0" y="658.0" width="12.0" height="3" fill="#fff874" stroke="#eb9c26" /><rect x="482.0" y="684.0" width="12.0" height="3" fill="#80c9ff" stroke="#0b6cba" /><rect x="495.0" y="684.0" width="12.0" height="3" fill="#fff874" stroke="#eb9c26" /><rect x="482.0" y="710.5" width="12.0" height="3" fill="#80c9ff" stroke="#0b6cba" /><rect x="495.0" y="710.5" width="12.0" height="3" fill="#fff874" stroke="#eb9c26" /><rect x="469.0" y="737.0" width="12.0" height="3" fill="#35df39" stroke="#03aa10" /><rect x="482.0" y="737.0" width="12.0" height="3" fill="#80c9ff" stroke="#0b6cba" /><rect x="469.0" y="763.0" width="12.0" height="3" fill="#35df39" stroke="#03aa10" /><rect x="482.0" y="763.0" width="12.0" height="3" fill="#80c9ff" stroke="#0b6cba" /><rect x="469.0" y="789.5" width="12.0" height="3" fill="#35df39" stroke="#03aa10" /><rect x="482.0" y="789.5" width="12.0" height="3" fill="#80c9ff" stroke="#0b6cba" /><rect x="469.0" y="815.5" width="12.0" height="3" fill="#35df39" stroke="#03aa10" /><rect x="482.0" y="815.5" width="12.0" height="3" fill="#80c9ff" stroke="#0b6cba" /><rect x="583.0" y="0.0" width="12.0" height="3" fill="#35df39" stroke="#03aa10" /><rect x="596.0" y="0.0" width="12.0" height="3" fill="#80c9ff" stroke="#0b6cba" /><rect x="583.0" y="26.5" width="12.0" height="3" fill="#35df39" stroke="#03aa10" /><rect x="596.0" y="26.5" width="12.0" height="3" fill="#80c9ff" stroke="#0b6cba" /><rect x="583.0" y="52.5" width="12.0" height="3" fill="#35df39" stroke="#03aa10" /><rect x="596.0" y="52.5" width="12.0" height="3" fill="#80c9ff" stroke="#0b6cba" /><rect x="583.0" y="79.0" width="12.0" height="3" fill="#35df39" stroke="#03aa10" /><rect x="596.0" y="79.0" width="12.0" height="3" fill="#80c9ff" stroke="#0b6cba" /><rect x="596.0" y="105.5" width="12.0" height="3" fill="#80c9ff" stroke="#0b6cba" /><rect x="609.0" y="105.5" width="12.0" height="3" fill="#fff874" stroke="#eb9c26" /><rect x="583.0" y="131.5" width="12.0" height="3" fill="#35df39" stroke="#03aa10" /><rect x="596.0" y="131.5" width="12.0" height="3" fill="#80c9ff" stroke="#0b6cba" /><rect x="583.0" y="158.0" width="12.0" height="3" fill="#35df39" stroke="#03aa10" /><rect x="596.0" y="158.0" width="12.0" height="3" fill="#80c9ff" stroke="#0b6cba" /><rect x="583.0" y="184.0" width="12.0" height="3" fill="#35df39" stroke="#03aa10" /><rect x="596.0" y="184.0" width="12.0" height="3" fill="#80c9ff" stroke="#0b6cba" /><rect x="583.0" y="210.5" width="12.0" height="3" fill="#35df39" stroke="#03aa10" /><rect x="596.0" y="210.5" width="12.0" height="3" fill="#80c9ff" stroke="#0b6cba" /><rect x="609.0" y="210.5" width="12.0" height="3" fill="#fff874" stroke="#eb9c26" /><rect x="583.0" y="421.0" width="12.0" height="3" fill="#35df39" stroke="#03aa10" /><rect x="596.0" y="421.0" width="12.0" height="3" fill="#80c9ff" stroke="#0b6cba" /><rect x="570.0" y="605.5" width="12.0" height="3" fill="#ff3c3c" stroke="#c71f1f" /><rect x="583.0" y="605.5" width="12.0" height="3" fill="#35df39" stroke="#03aa10" /><rect x="570.0" y="618.5" width="12.0" height="3" fill="#ff3c3c" stroke="#c71f1f" /><rect x="583.0" y="618.5" width="12.0" height="3" fill="#35df39" stroke="#03aa10" /><rect x="570.0" y="631.5" width="12.0" height="3" fill="#ff3c3c" stroke="#c71f1f" /><rect x="583.0" y="631.5" width="12.0" height="3" fill="#35df39" stroke="#03aa10" /><rect x="583.0" y="816.0" width="12.0" height="3" fill="#35df39" stroke="#03aa10" /><rect x="596.0" y="816.0" width="12.0" height="3" fill="#80c9ff" stroke="#0b6cba" /><rect x="583.0" y="829.0" width="12.0" height="3" fill="#35df39" stroke="#03aa10" /><rect x="596.0" y="829.0" width="12.0" height="3" fill="#80c9ff" stroke="#0b6cba" /><rect x="697.0" y="0.0" width="12.0" height="3" fill="#35df39" stroke="#03aa10" /><rect x="710.0" y="0.0" width="12.0" height="3" fill="#80c9ff" stroke="#0b6cba" /><rect x="697.0" y="184.5" width="12.0" height="3" fill="#35df39" stroke="#03aa10" /><rect x="723.0" y="184.5" width="12.0" height="3" fill="#fff874" stroke="#eb9c26" /><rect x="697.0" y="197.5" width="12.0" height="3" fill="#35df39" stroke="#03aa10" /><rect x="723.0" y="197.5" width="12.0" height="3" fill="#fff874" stroke="#eb9c26" /><rect x="697.0" y="210.5" width="12.0" height="3" fill="#35df39" stroke="#03aa10" /><rect x="723.0" y="210.5" width="12.0" height="3" fill="#fff874" stroke="#eb9c26" /><rect x="697.0" y="263.5" width="12.0" height="3" fill="#35df39" stroke="#03aa10" /><rect x="723.0" y="263.5" width="12.0" height="3" fill="#fff874" stroke="#eb9c26" /><rect x="697.0" y="289.5" width="12.0" height="3" fill="#35df39" stroke="#03aa10" /><rect x="710.0" y="289.5" width="12.0" height="3" fill="#80c9ff" stroke="#0b6cba" /><rect x="697.0" y="316.0" width="12.0" height="3" fill="#35df39" stroke="#03aa10" /><rect x="710.0" y="316.0" width="12.0" height="3" fill="#80c9ff" stroke="#0b6cba" /><rect x="697.0" y="342.0" width="12.0" height="3" fill="#35df39" stroke="#03aa10" /><rect x="710.0" y="342.0" width="12.0" height="3" fill="#80c9ff" stroke="#0b6cba" /><rect x="697.0" y="368.5" width="12.0" height="3" fill="#35df39" stroke="#03aa10" /><rect x="710.0" y="368.5" width="12.0" height="3" fill="#80c9ff" stroke="#0b6cba" /><rect x="697.0" y="395.0" width="12.0" height="3" fill="#35df39" stroke="#03aa10" /><rect x="710.0" y="395.0" width="12.0" height="3" fill="#80c9ff" stroke="#0b6cba" /><rect x="736.0" y="421.0" width="12.0" height="3" fill="#ff83f4" stroke="#d002bc" /><rect x="684" y="421.0" width="64" height="3" fill="#ff72e7" stroke="#7c7c7c" /><rect x="684.0" y="447.5" width="12.0" height="3" fill="#ff3c3c" stroke="#c71f1f" /><rect x="697.0" y="447.5" width="12.0" height="3" fill="#35df39" stroke="#03aa10" /><rect x="684.0" y="474.0" width="12.0" height="3" fill="#ff3c3c" stroke="#c71f1f" /><rect x="697.0" y="474.0" width="12.0" height="3" fill="#35df39" stroke="#03aa10" /><rect x="684.0" y="500.0" width="12.0" height="3" fill="#ff3c3c" stroke="#c71f1f" /><rect x="697.0" y="500.0" width="12.0" height="3" fill="#35df39" stroke="#03aa10" /><rect x="736.0" y="526.5" width="12.0" height="3" fill="#ff83f4" stroke="#d002bc" /><rect x="684" y="526.5" width="64" height="3" fill="#ff72e7" stroke="#7c7c7c" /><rect x="684.0" y="553.0" width="12.0" height="3" fill="#ff3c3c" stroke="#c71f1f" /><rect x="697.0" y="553.0" width="12.0" height="3" fill="#35df39" stroke="#03aa10" /><rect x="736.0" y="579.0" width="12.0" height="3" fill="#ff83f4" stroke="#d002bc" /><rect x="684" y="579.0" width="64" height="3" fill="#ff72e7" stroke="#7c7c7c" /><rect x="684.0" y="605.5" width="12.0" height="3" fill="#ff3c3c" stroke="#c71f1f" /><rect x="697.0" y="605.5" width="12.0" height="3" fill="#35df39" stroke="#03aa10" /><rect x="710.0" y="631.5" width="12.0" height="3" fill="#80c9ff" stroke="#0b6cba" /><rect x="723.0" y="631.5" width="12.0" height="3" fill="#fff874" stroke="#eb9c26" /><rect x="710.0" y="658.0" width="12.0" height="3" fill="#80c9ff" stroke="#0b6cba" /><rect x="723.0" y="658.0" width="12.0" height="3" fill="#fff874" stroke="#eb9c26" /><rect x="736.0" y="684.5" width="12.0" height="3" fill="#ff83f4" stroke="#d002bc" /><rect x="684" y="684.5" width="64" height="3" fill="#ff72e7" stroke="#7c7c7c" /><rect x="710.0" y="710.5" width="12.0" height="3" fill="#80c9ff" stroke="#0b6cba" /><rect x="723.0" y="710.5" width="12.0" height="3" fill="#fff874" stroke="#eb9c26" /><rect x="710.0" y="737.0" width="12.0" height="3" fill="#80c9ff" stroke="#0b6cba" /><rect x="723.0" y="737.0" width="12.0" height="3" fill="#fff874" stroke="#eb9c26" /><rect x="736.0" y="763.5" width="12.0" height="3" fill="#ff83f4" stroke="#d002bc" /><rect x="684" y="763.5" width="64" height="3" fill="#ff72e7" stroke="#7c7c7c" /><rect x="710.0" y="789.5" width="12.0" height="3" fill="#80c9ff" stroke="#0b6cba" /><rect x="723.0" y="789.5" width="12.0" height="3" fill="#fff874" stroke="#eb9c26" /><rect x="710.0" y="816.0" width="12.0" height="3" fill="#80c9ff" stroke="#0b6cba" /><rect x="723.0" y="816.0" width="12.0" height="3" fill="#fff874" stroke="#eb9c26" /><rect x="850.0" y="0.0" width="12.0" height="3" fill="#ff83f4" stroke="#d002bc" /><rect x="850.0" y="26.5" width="12.0" height="3" fill="#ff83f4" stroke="#d002bc" /><rect x="798" y="26.5" width="64" height="3" fill="#ff72e7" stroke="#7c7c7c" /><rect x="850.0" y="53.0" width="12.0" height="3" fill="#ff83f4" stroke="#d002bc" /><rect x="837.0" y="79.0" width="12.0" height="3" fill="#fff874" stroke="#eb9c26" /><rect x="850.0" y="79.0" width="12.0" height="3" fill="#ff83f4" stroke="#d002bc" /><rect x="811.0" y="158.0" width="12.0" height="3" fill="#35df39" stroke="#03aa10" /><rect x="824.0" y="158.0" width="12.0" height="3" fill="#80c9ff" stroke="#0b6cba" /><rect x="811.0" y="184.5" width="12.0" height="3" fill="#35df39" stroke="#03aa10" /><rect x="824.0" y="184.5" width="12.0" height="3" fill="#80c9ff" stroke="#0b6cba" /><rect x="798.0" y="211.0" width="12.0" height="3" fill="#ff3c3c" stroke="#c71f1f" /><rect x="824.0" y="211.0" width="12.0" height="3" fill="#80c9ff" stroke="#0b6cba" /><rect x="798.0" y="263.5" width="12.0" height="3" fill="#ff3c3c" stroke="#c71f1f" /><rect x="811.0" y="263.5" width="12.0" height="3" fill="#35df39" stroke="#03aa10" /><rect x="798.0" y="289.5" width="12.0" height="3" fill="#ff3c3c" stroke="#c71f1f" /><rect x="811.0" y="289.5" width="12.0" height="3" fill="#35df39" stroke="#03aa10" /><rect x="798.0" y="316.0" width="12.0" height="3" fill="#ff3c3c" stroke="#c71f1f" /><rect x="811.0" y="316.0" width="12.0" height="3" fill="#35df39" stroke="#03aa10" /><rect x="850.0" y="342.5" width="12.0" height="3" fill="#ff83f4" stroke="#d002bc" /><rect x="798" y="342.5" width="64" height="3" fill="#ff72e7" stroke="#7c7c7c" /><rect x="798.0" y="368.5" width="12.0" height="3" fill="#ff3c3c" stroke="#c71f1f" /><rect x="811.0" y="368.5" width="12.0" height="3" fill="#35df39" stroke="#03aa10" /><rect x="798.0" y="395.0" width="12.0" height="3" fill="#ff3c3c" stroke="#c71f1f" /><rect x="811.0" y="395.0" width="12.0" height="3" fill="#35df39" stroke="#03aa10" /><rect x="850.0" y="421.5" width="12.0" height="3" fill="#ff83f4" stroke="#d002bc" /><rect x="798" y="421.5" width="64" height="3" fill="#ff72e7" stroke="#7c7c7c" /><rect x="811.0" y="447.5" width="12.0" height="3" fill="#35df39" stroke="#03aa10" /><rect x="824.0" y="447.5" width="12.0" height="3" fill="#80c9ff" stroke="#0b6cba" /><rect x="811.0" y="474.0" width="12.0" height="3" fill="#35df39" stroke="#03aa10" /><rect x="824.0" y="474.0" width="12.0" height="3" fill="#80c9ff" stroke="#0b6cba" /><rect x="811.0" y="500.0" width="12.0" height="3" fill="#35df39" stroke="#03aa10" /><rect x="824.0" y="500.0" width="12.0" height="3" fill="#80c9ff" stroke="#0b6cba" /><rect x="850.0" y="526.5" width="12.0" height="3" fill="#ff83f4" stroke="#d002bc" /><rect x="798" y="526.5" width="64" height="3" fill="#ff72e7" stroke="#7c7c7c" /><rect x="811.0" y="553.0" width="12.0" height="3" fill="#35df39" stroke="#03aa10" /><rect x="824.0" y="553.0" width="12.0" height="3" fill="#80c9ff" stroke="#0b6cba" /><rect x="850.0" y="579.0" width="12.0" height="3" fill="#ff83f4" stroke="#d002bc" /><rect x="798" y="579.0" width="64" height="3" fill="#ff72e7" stroke="#7c7c7c" /><rect x="811.0" y="605.5" width="12.0" height="3" fill="#35df39" stroke="#03aa10" /><rect x="824.0" y="605.5" width="12.0" height="3" fill="#80c9ff" stroke="#0b6cba" /><rect x="798.0" y="632.0" width="12.0" height="210.5" fill="#ff3c3c" stroke="#c71f1f" /><rect x="811.0" y="632.0" width="12.0" height="210.5" fill="#35df39" stroke="#03aa10" /><rect x="824.0" y="632.0" width="12.0" height="210.5" fill="#80c9ff" stroke="#0b6cba" /><rect x="938.0" y="0.0" width="12.0" height="3" fill="#80c9ff" stroke="#0b6cba" /><rect x="925.0" y="79.0" width="12.0" height="3" fill="#35df39" stroke="#03aa10" /><rect x="912.0" y="157.5" width="12.0" height="3" fill="#ff3c3c" stroke="#c71f1f" /><rect x="912.0" y="210.5" width="12.0" height="3" fill="#ff3c3c" stroke="#c71f1f" /><rect x="925.0" y="210.5" width="12.0" height="3" fill="#35df39" stroke="#03aa10" /><rect x="912.0" y="263.0" width="12.0" height="3" fill="#ff3c3c" stroke="#c71f1f" /><rect x="925.0" y="263.0" width="12.0" height="3" fill="#35df39" stroke="#03aa10" /><rect x="912.0" y="315.5" width="12.0" height="3" fill="#ff3c3c" stroke="#c71f1f" /><rect x="925.0" y="315.5" width="12.0" height="3" fill="#35df39" stroke="#03aa10" /><rect x="912.0" y="342.0" width="12.0" height="3" fill="#ff3c3c" stroke="#c71f1f" /><rect x="925.0" y="342.0" width="12.0" height="3" fill="#35df39" stroke="#03aa10" /><rect x="912.0" y="368.5" width="12.0" height="3" fill="#ff3c3c" stroke="#c71f1f" /><rect x="925.0" y="368.5" width="12.0" height="3" fill="#35df39" stroke="#03aa10" /><rect x="938.0" y="394.5" width="12.0" height="3" fill="#80c9ff" stroke="#0b6cba" /><rect x="938.0" y="447.0" width="12.0" height="3" fill="#80c9ff" stroke="#0b6cba" /><rect x="951.0" y="447.0" width="12.0" height="3" fill="#fff874" stroke="#eb9c26" /><rect x="938.0" y="500.0" width="12.0" height="3" fill="#80c9ff" stroke="#0b6cba" /><rect x="951.0" y="500.0" width="12.0" height="3" fill="#fff874" stroke="#eb9c26" /><rect x="925.0" y="526.0" width="12.0" height="3" fill="#35df39" stroke="#03aa10" /><rect x="938.0" y="526.0" width="12.0" height="3" fill="#80c9ff" stroke="#0b6cba" /><rect x="925.0" y="579.0" width="12.0" height="3" fill="#35df39" stroke="#03aa10" /><rect x="938.0" y="579.0" width="12.0" height="3" fill="#80c9ff" stroke="#0b6cba" /><rect x="912.0" y="605.0" width="12.0" height="3" fill="#ff3c3c" stroke="#c71f1f" /><rect x="925.0" y="605.0" width="12.0" height="3" fill="#35df39" stroke="#03aa10" /><rect x="912.0" y="631.5" width="12.0" height="3" fill="#ff3c3c" stroke="#c71f1f" /><rect x="925.0" y="631.5" width="12.0" height="3" fill="#35df39" stroke="#03aa10" /><rect x="1065.0" y="26.5" width="12.0" height="3" fill="#fff874" stroke="#eb9c26" /><rect x="1078.0" y="26.5" width="12.0" height="3" fill="#ff83f4" stroke="#d002bc" /><rect x="1065.0" y="79.0" width="12.0" height="3" fill="#fff874" stroke="#eb9c26" /><rect x="1078.0" y="79.0" width="12.0" height="3" fill="#ff83f4" stroke="#d002bc" /><rect x="1052.0" y="105.0" width="12.0" height="3" fill="#80c9ff" stroke="#0b6cba" /><rect x="1065.0" y="105.0" width="12.0" height="3" fill="#fff874" stroke="#eb9c26" /><rect x="1052.0" y="158.0" width="12.0" height="3" fill="#80c9ff" stroke="#0b6cba" /><rect x="1065.0" y="158.0" width="12.0" height="3" fill="#fff874" stroke="#eb9c26" /><rect x="1078.0" y="184.0" width="12.0" height="3" fill="#ff83f4" stroke="#d002bc" /><rect x="1078.0" y="210.5" width="12.0" height="3" fill="#ff83f4" stroke="#d002bc" /><rect x="1065.0" y="421.0" width="12.0" height="3" fill="#fff874" stroke="#eb9c26" /><rect x="1065.0" y="631.5" width="12.0" height="3" fill="#fff874" stroke="#eb9c26" /><rect x="1065.0" y="658.0" width="12.0" height="3" fill="#fff874" stroke="#eb9c26" /><rect x="1052.0" y="684.0" width="12.0" height="3" fill="#80c9ff" stroke="#0b6cba" /><rect x="1052.0" y="710.5" width="12.0" height="3" fill="#80c9ff" stroke="#0b6cba" /><rect x="1039.0" y="737.0" width="12.0" height="3" fill="#35df39" stroke="#03aa10" /><rect x="1039.0" y="763.0" width="12.0" height="3" fill="#35df39" stroke="#03aa10" /><rect x="1026.0" y="789.5" width="12.0" height="3" fill="#ff3c3c" stroke="#c71f1f" /><rect x="1026.0" y="815.5" width="12.0" height="3" fill="#ff3c3c" stroke="#c71f1f" /><rect x="1153.0" y="0.0" width="12.0" height="3" fill="#35df39" stroke="#03aa10" /><rect x="1153.0" y="26.5" width="12.0" height="3" fill="#35df39" stroke="#03aa10" /><rect x="1140.0" y="52.5" width="12.0" height="3" fill="#ff3c3c" stroke="#c71f1f" /><rect x="1140.0" y="79.0" width="12.0" height="3" fill="#ff3c3c" stroke="#c71f1f" /><rect x="1153.0" y="105.5" width="12.0" height="3" fill="#35df39" stroke="#03aa10" /><rect x="1166.0" y="105.5" width="12.0" height="3" fill="#80c9ff" stroke="#0b6cba" /><rect x="1153.0" y="158.0" width="12.0" height="3" fill="#35df39" stroke="#03aa10" /><rect x="1179.0" y="158.0" width="12.0" height="3" fill="#fff874" stroke="#eb9c26" /><rect x="1153.0" y="210.5" width="12.0" height="3" fill="#35df39" stroke="#03aa10" /><rect x="1179.0" y="210.5" width="12.0" height="3" fill="#fff874" stroke="#eb9c26" /><rect x="1166.0" y="368.5" width="12.0" height="3" fill="#80c9ff" stroke="#0b6cba" /><rect x="1166.0" y="421.0" width="12.0" height="3" fill="#80c9ff" stroke="#0b6cba" /><rect x="1179.0" y="473.5" width="12.0" height="3" fill="#fff874" stroke="#eb9c26" /><rect x="1166.0" y="500.0" width="12.0" height="3" fill="#80c9ff" stroke="#0b6cba" /><rect x="1166.0" y="526.5" width="12.0" height="3" fill="#80c9ff" stroke="#0b6cba" /><rect x="1179.0" y="552.5" width="12.0" height="3" fill="#fff874" stroke="#eb9c26" /><rect x="1166.0" y="579.0" width="12.0" height="3" fill="#80c9ff" stroke="#0b6cba" /><rect x="1153.0" y="605.5" width="12.0" height="3" fill="#35df39" stroke="#03aa10" /><rect x="1140.0" y="631.5" width="12.0" height="3" fill="#ff3c3c" stroke="#c71f1f" /><rect x="1254.0" y="0.0" width="12.0" height="3" fill="#ff3c3c" stroke="#c71f1f" /><rect x="1280.0" y="26.5" width="12.0" height="3" fill="#80c9ff" stroke="#0b6cba" /><rect x="1267.0" y="53.0" width="12.0" height="3" fill="#35df39" stroke="#03aa10" /><rect x="1254.0" y="79.0" width="12.0" height="3" fill="#ff3c3c" stroke="#c71f1f" /><rect x="1280.0" y="105.5" width="12.0" height="3" fill="#80c9ff" stroke="#0b6cba" /><rect x="1267.0" y="131.5" width="12.0" height="3" fill="#35df39" stroke="#03aa10" /><rect x="1254.0" y="158.0" width="12.0" height="3" fill="#ff3c3c" stroke="#c71f1f" /><rect x="1293.0" y="184.5" width="12.0" height="3" fill="#fff874" stroke="#eb9c26" /><rect x="1280.0" y="210.5" width="12.0" height="3" fill="#80c9ff" stroke="#0b6cba" /><rect x="1267.0" y="237.0" width="12.0" height="3" fill="#35df39" stroke="#03aa10" /><rect x="1280.0" y="263.5" width="12.0" height="3" fill="#80c9ff" stroke="#0b6cba" /><rect x="1267.0" y="289.5" width="12.0" height="3" fill="#35df39" stroke="#03aa10" /><rect x="1254.0" y="316.0" width="12.0" height="3" fill="#ff3c3c" stroke="#c71f1f" /><rect x="1293.0" y="342.5" width="12.0" height="3" fill="#fff874" stroke="#eb9c26" /><rect x="1280.0" y="368.5" width="12.0" height="3" fill="#80c9ff" stroke="#0b6cba" /><rect x="1267.0" y="395.0" width="12.0" height="3" fill="#35df39" stroke="#03aa10" /><rect x="1280.0" y="421.0" width="12.0" height="3" fill="#80c9ff" stroke="#0b6cba" /><rect x="1267.0" y="447.5" width="12.0" height="3" fill="#35df39" stroke="#03aa10" /><rect x="1254.0" y="474.0" width="12.0" height="3" fill="#ff3c3c" stroke="#c71f1f" /><rect x="1293.0" y="500.0" width="12.0" height="3" fill="#fff874" stroke="#eb9c26" /><rect x="1280.0" y="526.5" width="12.0" height="3" fill="#80c9ff" stroke="#0b6cba" /><rect x="1267.0" y="553.0" width="12.0" height="3" fill="#35df39" stroke="#03aa10" /><rect x="1293.0" y="579.0" width="12.0" height="3" fill="#fff874" stroke="#eb9c26" /><rect x="1280.0" y="605.5" width="12.0" height="3" fill="#80c9ff" stroke="#0b6cba" /><rect x="1254.0" y="631.5" width="12.0" height="3" fill="#ff3c3c" stroke="#c71f1f" /><rect x="1267.0" y="631.5" width="12.0" height="3" fill="#35df39" stroke="#03aa10" /><rect x="1254.0" y="645.0" width="12.0" height="3" fill="#ff3c3c" stroke="#c71f1f" /><rect x="1267.0" y="645.0" width="12.0" height="3" fill="#35df39" stroke="#03aa10" /><rect x="1254.0" y="658.0" width="12.0" height="3" fill="#ff3c3c" stroke="#c71f1f" /><rect x="1267.0" y="658.0" width="12.0" height="3" fill="#35df39" stroke="#03aa10" /><rect x="1254.0" y="671.0" width="12.0" height="3" fill="#ff3c3c" stroke="#c71f1f" /><rect x="1267.0" y="671.0" width="12.0" height="3" fill="#35df39" stroke="#03aa10" /><rect x="1254.0" y="684.5" width="12.0" height="3" fill="#ff3c3c" stroke="#c71f1f" /><rect x="1267.0" y="684.5" width="12.0" height="3" fill="#35df39" stroke="#03aa10" /><rect x="1381.0" y="26.0" width="12.0" height="3" fill="#35df39" stroke="#03aa10" /><rect x="1407.0" y="52.5" width="12.0" height="3" fill="#fff874" stroke="#eb9c26" /><rect x="1394.0" y="78.5" width="12.0" height="3" fill="#80c9ff" stroke="#0b6cba" /><rect x="1381.0" y="105.0" width="12.0" height="3" fill="#35df39" stroke="#03aa10" /><rect x="1394.0" y="131.5" width="12.0" height="3" fill="#80c9ff" stroke="#0b6cba" /><rect x="1381.0" y="157.5" width="12.0" height="3" fill="#35df39" stroke="#03aa10" /><rect x="1368.0" y="184.0" width="12.0" height="3" fill="#ff3c3c" stroke="#c71f1f" /><rect x="1368.0" y="210.5" width="12.0" height="3" fill="#ff3c3c" stroke="#c71f1f" /><rect x="1381.0" y="210.5" width="12.0" height="3" fill="#35df39" stroke="#03aa10" /><rect x="1368.0" y="223.5" width="12.0" height="3" fill="#ff3c3c" stroke="#c71f1f" /><rect x="1381.0" y="223.5" width="12.0" height="3" fill="#35df39" stroke="#03aa10" /><rect x="1368.0" y="236.5" width="12.0" height="3" fill="#ff3c3c" stroke="#c71f1f" /><rect x="1381.0" y="236.5" width="12.0" height="3" fill="#35df39" stroke="#03aa10" /><rect x="1368.0" y="250.0" width="12.0" height="3" fill="#ff3c3c" stroke="#c71f1f" /><rect x="1381.0" y="250.0" width="12.0" height="3" fill="#35df39" stroke="#03aa10" /><rect x="1368.0" y="263.0" width="12.0" height="3" fill="#ff3c3c" stroke="#c71f1f" /><rect x="1381.0" y="263.0" width="12.0" height="3" fill="#35df39" stroke="#03aa10" /><rect x="1368.0" y="421.0" width="12.0" height="3" fill="#ff3c3c" stroke="#c71f1f" /><rect x="1381.0" y="447.0" width="12.0" height="3" fill="#35df39" stroke="#03aa10" /><rect x="1394.0" y="473.5" width="12.0" height="3" fill="#80c9ff" stroke="#0b6cba" /><rect x="1407.0" y="500.0" width="12.0" height="3" fill="#fff874" stroke="#eb9c26" /><rect x="1420.0" y="526.0" width="12.0" height="3" fill="#ff83f4" stroke="#d002bc" /><rect x="1368" y="526.0" width="64" height="3" fill="#ff72e7" stroke="#7c7c7c" /><rect x="1381.0" y="552.5" width="12.0" height="3" fill="#35df39" stroke="#03aa10" /><rect x="1394.0" y="578.5" width="12.0" height="3" fill="#80c9ff" stroke="#0b6cba" /><rect x="1407.0" y="605.0" width="12.0" height="3" fill="#fff874" stroke="#eb9c26" /><rect x="1420.0" y="631.5" width="12.0" height="3" fill="#ff83f4" stroke="#d002bc" /><rect x="1420.0" y="815.5" width="12.0" height="3" fill="#ff83f4" stroke="#d002bc" /><rect x="1368" y="815.5" width="64" height="3" fill="#ff72e7" stroke="#7c7c7c" /><rect x="1508.0" y="0.0" width="12.0" height="3" fill="#80c9ff" stroke="#0b6cba" /><rect x="1534.0" y="184.0" width="12.0" height="3" fill="#ff83f4" stroke="#d002bc" /><rect x="1482" y="184.0" width="64" height="3" fill="#ff72e7" stroke="#7c7c7c" /><rect x="1495.0" y="210.5" width="12.0" height="3" fill="#35df39" stroke="#03aa10" /><rect x="1534.0" y="394.5" width="12.0" height="3" fill="#ff83f4" stroke="#d002bc" /><rect x="1482" y="394.5" width="64" height="3" fill="#ff72e7" stroke="#7c7c7c" /><rect x="1482.0" y="421.0" width="12.0" height="3" fill="#ff3c3c" stroke="#c71f1f" /><rect x="1534.0" y="579.0" width="12.0" height="3" fill="#ff83f4" stroke="#d002bc" /><rect x="1482" y="579.0" width="64" height="3" fill="#ff72e7" stroke="#7c7c7c" /><rect x="1521.0" y="631.5" width="12.0" height="3" fill="#fff874" stroke="#eb9c26" /><rect x="1521.0" y="736.5" width="12.0" height="3" fill="#fff874" stroke="#eb9c26" /><rect x="1508.0" y="763.0" width="12.0" height="3" fill="#80c9ff" stroke="#0b6cba" /><rect x="1495.0" y="789.5" width="12.0" height="3" fill="#35df39" stroke="#03aa10" /><rect x="1508.0" y="815.5" width="12.0" height="3" fill="#80c9ff" stroke="#0b6cba" /><rect x="1635.0" y="26.5" width="12.0" height="3" fill="#fff874" stroke="#eb9c26" /><rect x="1622.0" y="52.5" width="12.0" height="3" fill="#80c9ff" stroke="#0b6cba" /><rect x="1609.0" y="79.0" width="12.0" height="3" fill="#35df39" stroke="#03aa10" /><rect x="1596.0" y="105.0" width="12.0" height="118.8" fill="#ff3c3c" stroke="#c71f1f" /><rect x="1648.0" y="237.0" width="12.0" height="3" fill="#ff83f4" stroke="#d002bc" /><rect x="1635.0" y="263.0" width="12.0" height="3" fill="#fff874" stroke="#eb9c26" /><rect x="1622.0" y="289.5" width="12.0" height="3" fill="#80c9ff" stroke="#0b6cba" /><rect x="1635.0" y="316.0" width="12.0" height="3" fill="#fff874" stroke="#eb9c26" /><rect x="1622.0" y="342.0" width="12.0" height="3" fill="#80c9ff" stroke="#0b6cba" /><rect x="1609.0" y="368.5" width="12.0" height="3" fill="#35df39" stroke="#03aa10" /><rect x="1622.0" y="394.5" width="12.0" height="3" fill="#80c9ff" stroke="#0b6cba" /><rect x="1609.0" y="421.0" width="12.0" height="3" fill="#35df39" stroke="#03aa10" /><rect x="1622.0" y="447.5" width="12.0" height="3" fill="#80c9ff" stroke="#0b6cba" /><rect x="1635.0" y="473.5" width="12.0" height="3" fill="#fff874" stroke="#eb9c26" /><rect x="1648.0" y="500.0" width="12.0" height="94.5" fill="#ff83f4" stroke="#d002bc" /><rect x="1596.0" y="605.0" width="12.0" height="3" fill="#ff3c3c" stroke="#c71f1f" /><rect x="1609.0" y="605.0" width="12.0" height="3" fill="#35df39" stroke="#03aa10" /><rect x="1596.0" y="618.5" width="12.0" height="3" fill="#ff3c3c" stroke="#c71f1f" /><rect x="1609.0" y="618.5" width="12.0" height="3" fill="#35df39" stroke="#03aa10" /><rect x="1596.0" y="631.5" width="12.0" height="3" fill="#ff3c3c" stroke="#c71f1f" /><rect x="1609.0" y="631.5" width="12.0" height="3" fill="#35df39" stroke="#03aa10" /><rect x="1609.0" y="710.5" width="12.0" height="3" fill="#35df39" stroke="#03aa10" /><rect x="1622.0" y="789.5" width="12.0" height="3" fill="#80c9ff" stroke="#0b6cba" /><rect x="1723.0" y="0.0" width="12.0" height="3" fill="#35df39" stroke="#03aa10" /><rect x="1736.0" y="66.0" width="12.0" height="3" fill="#80c9ff" stroke="#0b6cba" /><rect x="1749.0" y="158.0" width="12.0" height="3" fill="#fff874" stroke="#eb9c26" /><rect x="1736.0" y="210.5" width="12.0" height="3" fill="#80c9ff" stroke="#0b6cba" /><rect x="1736.0" y="237.0" width="12.0" height="3" fill="#80c9ff" stroke="#0b6cba" /><rect x="1736.0" y="289.5" width="12.0" height="3" fill="#80c9ff" stroke="#0b6cba" /><rect x="1736.0" y="316.0" width="12.0" height="3" fill="#80c9ff" stroke="#0b6cba" /><rect x="1736.0" y="368.5" width="12.0" height="3" fill="#80c9ff" stroke="#0b6cba" /><rect x="1749.0" y="395.0" width="12.0" height="3" fill="#fff874" stroke="#eb9c26" /><rect x="1749.0" y="447.5" width="12.0" height="3" fill="#fff874" stroke="#eb9c26" /><rect x="1762.0" y="474.0" width="12.0" height="141.75" fill="#ff83f4" stroke="#d002bc" /><rect x="1710.0" y="631.5" width="12.0" height="3" fill="#ff3c3c" stroke="#c71f1f" /><rect x="1723.0" y="631.5" width="12.0" height="3" fill="#35df39" stroke="#03aa10" /><rect x="1710.0" y="816.0" width="12.0" height="3" fill="#ff3c3c" stroke="#c71f1f" /><rect x="1723.0" y="816.0" width="12.0" height="3" fill="#35df39" stroke="#03aa10" /><rect x="1837.0" y="0.0" width="12.0" height="3" fill="#35df39" stroke="#03aa10" /><rect x="1863.0" y="55.0" width="12.0" height="3" fill="#fff874" stroke="#eb9c26" /><rect x="1850.0" y="81.5" width="12.0" height="3" fill="#80c9ff" stroke="#0b6cba" /><rect x="1837.0" y="107.5" width="12.0" height="3" fill="#35df39" stroke="#03aa10" /><rect x="1863.0" y="134.0" width="12.0" height="3" fill="#fff874" stroke="#eb9c26" /><rect x="1850.0" y="160.5" width="12.0" height="3" fill="#80c9ff" stroke="#0b6cba" /><rect x="1837.0" y="186.5" width="12.0" height="3" fill="#35df39" stroke="#03aa10" /><rect x="1824.0" y="213.0" width="12.0" height="3" fill="#ff3c3c" stroke="#c71f1f" /><rect x="1824.0" y="423.5" width="12.0" height="3" fill="#ff3c3c" stroke="#c71f1f" /><rect x="1850.0" y="449.5" width="12.0" height="3" fill="#80c9ff" stroke="#0b6cba" /><rect x="1837.0" y="476.0" width="12.0" height="3" fill="#35df39" stroke="#03aa10" /><rect x="1824.0" y="502.5" width="12.0" height="3" fill="#ff3c3c" stroke="#c71f1f" /><rect x="1850.0" y="528.5" width="12.0" height="3" fill="#80c9ff" stroke="#0b6cba" /><rect x="1837.0" y="555.0" width="12.0" height="3" fill="#35df39" stroke="#03aa10" /><rect x="1824.0" y="581.5" width="12.0" height="3" fill="#ff3c3c" stroke="#c71f1f" /><rect x="1863.0" y="607.5" width="12.0" height="3" fill="#fff874" stroke="#eb9c26" /><rect x="1850.0" y="634.0" width="12.0" height="3" fill="#80c9ff" stroke="#0b6cba" /><rect x="1837.0" y="660.5" width="12.0" height="3" fill="#35df39" stroke="#03aa10" /><rect x="1850.0" y="686.5" width="12.0" height="3" fill="#80c9ff" stroke="#0b6cba" /><rect x="1837.0" y="713.0" width="12.0" height="3" fill="#35df39" stroke="#03aa10" /><rect x="1824.0" y="739.0" width="12.0" height="3" fill="#ff3c3c" stroke="#c71f1f" /><rect x="1863.0" y="765.5" width="12.0" height="3" fill="#fff874" stroke="#eb9c26" /><rect x="1850.0" y="792.0" width="12.0" height="3" fill="#80c9ff" stroke="#0b6cba" /><rect x="1837.0" y="818.0" width="12.0" height="3" fill="#35df39" stroke="#03aa10" /><rect x="1964.0" y="2.0" width="12.0" height="3" fill="#80c9ff" stroke="#0b6cba" /><rect x="1951.0" y="28.5" width="12.0" height="3" fill="#35df39" stroke="#03aa10" /><rect x="1938.0" y="54.5" width="12.0" height="3" fill="#ff3c3c" stroke="#c71f1f" /><rect x="1977.0" y="81.0" width="12.0" height="3" fill="#fff874" stroke="#eb9c26" /><rect x="1964.0" y="107.0" width="12.0" height="3" fill="#80c9ff" stroke="#0b6cba" /><rect x="1951.0" y="133.5" width="12.0" height="3" fill="#35df39" stroke="#03aa10" /><rect x="1964.0" y="160.0" width="12.0" height="3" fill="#80c9ff" stroke="#0b6cba" /><rect x="1977.0" y="212.5" width="12.0" height="3" fill="#fff874" stroke="#eb9c26" /><rect x="1977.0" y="263.0" width="12.0" height="3" fill="#fff874" stroke="#eb9c26" /><rect x="1964.0" y="289.5" width="12.0" height="3" fill="#80c9ff" stroke="#0b6cba" /><rect x="1964.0" y="342.0" width="12.0" height="3" fill="#80c9ff" stroke="#0b6cba" /><rect x="1977.0" y="394.5" width="12.0" height="3" fill="#fff874" stroke="#eb9c26" /><rect x="1964.0" y="447.0" width="12.0" height="3" fill="#80c9ff" stroke="#0b6cba" /><rect x="1951.0" y="500.0" width="12.0" height="3" fill="#35df39" stroke="#03aa10" /><rect x="1964.0" y="605.0" width="12.0" height="3" fill="#80c9ff" stroke="#0b6cba" /><rect x="1977.0" y="605.0" width="12.0" height="3" fill="#fff874" stroke="#eb9c26" /><rect x="1964.0" y="657.5" width="12.0" height="3" fill="#80c9ff" stroke="#0b6cba" /><rect x="1977.0" y="657.5" width="12.0" height="3" fill="#fff874" stroke="#eb9c26" /><rect x="1964.0" y="684.0" width="12.0" height="3" fill="#80c9ff" stroke="#0b6cba" /><rect x="1977.0" y="684.0" width="12.0" height="3" fill="#fff874" stroke="#eb9c26" /><rect x="1951.0" y="710.5" width="12.0" height="3" fill="#35df39" stroke="#03aa10" /><rect x="1964.0" y="710.5" width="12.0" height="3" fill="#80c9ff" stroke="#0b6cba" /><rect x="1951.0" y="763.0" width="12.0" height="3" fill="#35df39" stroke="#03aa10" /><rect x="1964.0" y="763.0" width="12.0" height="3" fill="#80c9ff" stroke="#0b6cba" /><rect x="1938.0" y="789.5" width="12.0" height="3" fill="#ff3c3c" stroke="#c71f1f" /><rect x="1951.0" y="789.5" width="12.0" height="3" fill="#35df39" stroke="#03aa10" /><rect x="1938.0" y="815.5" width="12.0" height="3" fill="#ff3c3c" stroke="#c71f1f" /><rect x="1951.0" y="815.5" width="12.0" height="3" fill="#35df39" stroke="#03aa10" /><rect x="2052.0" y="26.0" width="12.0" height="3" fill="#ff3c3c" stroke="#c71f1f" /><rect x="2078.0" y="26.0" width="12.0" height="3" fill="#80c9ff" stroke="#0b6cba" /><rect x="2065.0" y="79.0" width="12.0" height="3" fill="#35df39" stroke="#03aa10" /><rect x="2078.0" y="79.0" width="12.0" height="3" fill="#80c9ff" stroke="#0b6cba" /><rect x="2052.0" y="158.0" width="12.0" height="3" fill="#ff3c3c" stroke="#c71f1f" /><rect x="2052.0" y="210.5" width="12.0" height="3" fill="#ff3c3c" stroke="#c71f1f" /><rect x="2078.0" y="236.5" width="12.0" height="3" fill="#80c9ff" stroke="#0b6cba" /><rect x="2065.0" y="263.0" width="12.0" height="3" fill="#35df39" stroke="#03aa10" /><rect x="2052.0" y="289.5" width="12.0" height="3" fill="#ff3c3c" stroke="#c71f1f" /><rect x="2078.0" y="315.5" width="12.0" height="3" fill="#80c9ff" stroke="#0b6cba" /><rect x="2065.0" y="342.0" width="12.0" height="3" fill="#35df39" stroke="#03aa10" /><rect x="2052.0" y="368.5" width="12.0" height="3" fill="#ff3c3c" stroke="#c71f1f" /><rect x="2091.0" y="394.5" width="12.0" height="3" fill="#fff874" stroke="#eb9c26" /><rect x="2078.0" y="421.0" width="12.0" height="3" fill="#80c9ff" stroke="#0b6cba" /><rect x="2065.0" y="447.5" width="12.0" height="3" fill="#35df39" stroke="#03aa10" /><rect x="2078.0" y="473.5" width="12.0" height="3" fill="#80c9ff" stroke="#0b6cba" /><rect x="2065.0" y="500.0" width="12.0" height="3" fill="#35df39" stroke="#03aa10" /><rect x="2052.0" y="526.0" width="12.0" height="3" fill="#ff3c3c" stroke="#c71f1f" /><rect x="2091.0" y="552.5" width="12.0" height="3" fill="#fff874" stroke="#eb9c26" /><rect x="2078.0" y="579.0" width="12.0" height="3" fill="#80c9ff" stroke="#0b6cba" /><rect x="2065.0" y="605.0" width="12.0" height="3" fill="#35df39" stroke="#03aa10" /><rect x="2078.0" y="631.5" width="12.0" height="3" fill="#80c9ff" stroke="#0b6cba" /><rect x="2065.0" y="658.0" width="12.0" height="3" fill="#35df39" stroke="#03aa10" /><rect x="2052.0" y="684.0" width="12.0" height="3" fill="#ff3c3c" stroke="#c71f1f" /><rect x="2091.0" y="710.5" width="12.0" height="3" fill="#fff874" stroke="#eb9c26" /><rect x="2078.0" y="736.5" width="12.0" height="3" fill="#80c9ff" stroke="#0b6cba" /><rect x="2065.0" y="763.0" width="12.0" height="3" fill="#35df39" stroke="#03aa10" /><rect x="2091.0" y="789.5" width="12.0" height="3" fill="#fff874" stroke="#eb9c26" /><rect x="2065.0" y="815.5" width="12.0" height="3" fill="#35df39" stroke="#03aa10" /><rect x="2078.0" y="815.5" width="12.0" height="3" fill="#80c9ff" stroke="#0b6cba" /><rect x="2179.0" y="26.5" width="12.0" height="3" fill="#35df39" stroke="#03aa10" /><rect x="2192.0" y="26.5" width="12.0" height="3" fill="#80c9ff" stroke="#0b6cba" /><rect x="2179.0" y="79.0" width="12.0" height="3" fill="#35df39" stroke="#03aa10" /><rect x="2192.0" y="79.0" width="12.0" height="3" fill="#80c9ff" stroke="#0b6cba" /><rect x="2179.0" y="131.5" width="12.0" height="3" fill="#35df39" stroke="#03aa10" /><rect x="2192.0" y="131.5" width="12.0" height="3" fill="#80c9ff" stroke="#0b6cba" /><rect x="2179.0" y="184.0" width="12.0" height="3" fill="#35df39" stroke="#03aa10" /><rect x="2192.0" y="184.0" width="12.0" height="3" fill="#80c9ff" stroke="#0b6cba" /><rect x="2179.0" y="237.0" width="12.0" height="3" fill="#35df39" stroke="#03aa10" /><rect x="2192.0" y="237.0" width="12.0" height="3" fill="#80c9ff" stroke="#0b6cba" /><rect x="2179.0" y="289.5" width="12.0" height="3" fill="#35df39" stroke="#03aa10" /><rect x="2192.0" y="289.5" width="12.0" height="3" fill="#80c9ff" stroke="#0b6cba" /><rect x="2205.0" y="342.0" width="12.0" height="3" fill="#fff874" stroke="#eb9c26" /><rect x="2218.0" y="342.0" width="12.0" height="3" fill="#ff83f4" stroke="#d002bc" /><rect x="2205.0" y="355.5" width="12.0" height="3" fill="#fff874" stroke="#eb9c26" /><rect x="2218.0" y="355.5" width="12.0" height="3" fill="#ff83f4" stroke="#d002bc" /><rect x="2205.0" y="368.5" width="12.0" height="3" fill="#fff874" stroke="#eb9c26" /><rect x="2218.0" y="368.5" width="12.0" height="3" fill="#ff83f4" stroke="#d002bc" /><rect x="2205.0" y="381.5" width="12.0" height="3" fill="#fff874" stroke="#eb9c26" /><rect x="2218.0" y="381.5" width="12.0" height="3" fill="#ff83f4" stroke="#d002bc" /><rect x="2205.0" y="394.5" width="12.0" height="3" fill="#fff874" stroke="#eb9c26" /><rect x="2218.0" y="394.5" width="12.0" height="3" fill="#ff83f4" stroke="#d002bc" /><rect x="2205.0" y="408.0" width="12.0" height="3" fill="#fff874" stroke="#eb9c26" /><rect x="2218.0" y="408.0" width="12.0" height="3" fill="#ff83f4" stroke="#d002bc" /></svg>