<?xml version="1.0" encoding="UTF-8"?><svg xmlns="http://www.w3.org/2000/svg" xmlns:xlink="http://www.w3.org/1999/xlink"     width="1938" height="931.5" viewBox="0 0 1938 931.5"><defs></defs><rect x="26.0" y="229.5" width="12.0" height="3" fill="#80c9ff" stroke="#0b6cba" /><rect x="0.0" y="258.0" width="12.0" height="3" fill="#ff3c3c" stroke="#c71f1f" /><rect x="0.0" y="272.5" width="12.0" height="3" fill="#ff3c3c" stroke="#c71f1f" /><rect x="0.0" y="286.5" width="12.0" height="3" fill="#ff3c3c" stroke="#c71f1f" /><rect x="0.0" y="301.0" width="12.0" height="3" fill="#ff3c3c" stroke="#c71f1f" /><rect x="13.0" y="315.5" width="12.0" height="3" fill="#35df39" stroke="#03aa10" /><rect x="0.0" y="344.0" width="12.0" height="3" fill="#ff3c3c" stroke="#c71f1f" /><rect x="0.0" y="358.5" width="12.0" height="3" fill="#ff3c3c" stroke="#c71f1f" /><rect x="0.0" y="372.5" width="12.0" height="3" fill="#ff3c3c" stroke="#c71f1f" /><rect x="0.0" y="387.0" width="12.0" height="3" fill="#ff3c3c" stroke="#c71f1f" /><rect x="13.0" y="401.5" width="12.0" height="3" fill="#35df39" stroke="#03aa10" /><rect x="26.0" y="401.5" width="12.0" height="3" fill="#80c9ff" stroke="#0b6cba" /><rect x="0.0" y="430.0" width="12.0" height="3" fill="#ff3c3c" stroke="#c71f1f" /><rect x="0.0" y="444.5" width="12.0" height="3" fill="#ff3c3c" stroke="#c71f1f" /><rect x="0.0" y="458.5" width="12.0" height="3" fill="#ff3c3c" stroke="#c71f1f" /><rect x="0.0" y="473.0" width="12.0" height="3" fill="#ff3c3c" stroke="#c71f1f" /><rect x="26.0" y="487.5" width="12.0" height="3" fill="#80c9ff" stroke="#0b6cba" /><rect x="0.0" y="516.0" width="12.0" height="3" fill="#ff3c3c" stroke="#c71f1f" /><rect x="0.0" y="530.5" width="12.0" height="3" fill="#ff3c3c" stroke="#c71f1f" /><rect x="0.0" y="544.5" width="12.0" height="3" fill="#ff3c3c" stroke="#c71f1f" /><rect x="0.0" y="559.0" width="12.0" height="3" fill="#ff3c3c" stroke="#c71f1f" /><rect x="13.0" y="573.0" width="12.0" height="3" fill="#35df39" stroke="#03aa10" /><rect x="0.0" y="602.0" width="12.0" height="3" fill="#ff3c3c" stroke="#c71f1f" /><rect x="26.0" y="630.5" width="12.0" height="3" fill="#80c9ff" stroke="#0b6cba" /><rect x="0.0" y="659.0" width="12.0" height="3" fill="#ff3c3c" stroke="#c71f1f" /><rect x="13.0" y="688.0" width="12.0" height="3" fill="#35df39" stroke="#03aa10" /><rect x="0.0" y="716.5" width="12.0" height="3" fill="#ff3c3c" stroke="#c71f1f" /><rect x="0.0" y="731.0" width="12.0" height="3" fill="#ff3c3c" stroke="#c71f1f" /><rect x="0.0" y="745.0" width="12.0" height="3" fill="#ff3c3c" stroke="#c71f1f" /><rect x="0.0" y="759.5" width="12.0" height="3" fill="#ff3c3c" stroke="#c71f1f" /><rect x="26.0" y="774.0" width="12.0" height="3" fill="#80c9ff" stroke="#0b6cba" /><rect x="0.0" y="802.5" width="12.0" height="3" fill="#ff3c3c" stroke="#c71f1f" /><rect x="0.0" y="817.0" width="12.0" height="3" fill="#ff3c3c" stroke="#c71f1f" /><rect x="0.0" y="831.0" width="12.0" height="3" fill="#ff3c3c" stroke="#c71f1f" /><rect x="0.0" y="845.5" width="12.0" height="3" fill="#ff3c3c" stroke="#c71f1f" /><rect x="13.0" y="860.0" width="12.0" height="3" fill="#35df39" stroke="#03aa10" /><rect x="26.0" y="860.0" width="12.0" height="3" fill="#80c9ff" stroke="#0b6cba" /><rect x="0.0" y="888.5" width="12.0" height="3" fill="#ff3c3c" stroke="#c71f1f" /><rect x="0.0" y="903.0" width="12.0" height="3" fill="#ff3c3c" stroke="#c71f1f" /><rect x="114.0" y="0.0" width="12.0" height="3" fill="#ff3c3c" stroke="#c71f1f" /><rect x="114.0" y="14.5" width="12.0" height="3" fill="#ff3c3c" stroke="#c71f1f" /><rect x="140.0" y="29.0" width="12.0" height="3" fill="#80c9ff" stroke="#0b6cba" /><rect x="114.0" y="57.5" width="12.0" height="3" fill="#ff3c3c" stroke="#c71f1f" /><rect x="114.0" y="72.0" width="12.0" height="3" fill="#ff3c3c" stroke="#c71f1f" /><rect x="114.0" y="86.0" width="12.0" height="3" fill="#ff3c3c" stroke="#c71f1f" /><rect x="114.0" y="100.5" width="12.0" height="3" fill="#ff3c3c" stroke="#c71f1f" /><rect x="127.0" y="115.0" width="12.0" height="3" fill="#35df39" stroke="#03aa10" /><rect x="140.0" y="115.0" width="12.0" height="3" fill="#80c9ff" stroke="#0b6cba" /><rect x="114.0" y="143.5" width="12.0" height="3" fill="#ff3c3c" stroke="#c71f1f" /><rect x="127.0" y="172.0" width="12.0" height="3" fill="#35df39" stroke="#03aa10" /><rect x="114.0" y="201.0" width="12.0" height="3" fill="#ff3c3c" stroke="#c71f1f" /><rect x="140.0" y="229.5" width="12.0" height="3" fill="#80c9ff" stroke="#0b6cba" /><rect x="114.0" y="258.0" width="12.0" height="3" fill="#ff3c3c" stroke="#c71f1f" /><rect x="114.0" y="272.5" width="12.0" height="3" fill="#ff3c3c" stroke="#c71f1f" /><rect x="114.0" y="287.0" width="12.0" height="3" fill="#ff3c3c" stroke="#c71f1f" /><rect x="114.0" y="301.0" width="12.0" height="3" fill="#ff3c3c" stroke="#c71f1f" /><rect x="127.0" y="315.5" width="12.0" height="3" fill="#35df39" stroke="#03aa10" /><rect x="114.0" y="344.0" width="12.0" height="3" fill="#ff3c3c" stroke="#c71f1f" /><rect x="114.0" y="358.5" width="12.0" height="3" fill="#ff3c3c" stroke="#c71f1f" /><rect x="114.0" y="373.0" width="12.0" height="3" fill="#ff3c3c" stroke="#c71f1f" /><rect x="114.0" y="387.0" width="12.0" height="3" fill="#ff3c3c" stroke="#c71f1f" /><rect x="127.0" y="401.5" width="12.0" height="3" fill="#35df39" stroke="#03aa10" /><rect x="140.0" y="401.5" width="12.0" height="3" fill="#80c9ff" stroke="#0b6cba" /><rect x="114.0" y="430.0" width="12.0" height="3" fill="#ff3c3c" stroke="#c71f1f" /><rect x="114.0" y="444.5" width="12.0" height="3" fill="#ff3c3c" stroke="#c71f1f" /><rect x="114.0" y="459.0" width="12.0" height="3" fill="#ff3c3c" stroke="#c71f1f" /><rect x="114.0" y="473.0" width="12.0" height="3" fill="#ff3c3c" stroke="#c71f1f" /><rect x="140.0" y="487.5" width="12.0" height="3" fill="#80c9ff" stroke="#0b6cba" /><rect x="114.0" y="516.0" width="12.0" height="3" fill="#ff3c3c" stroke="#c71f1f" /><rect x="114.0" y="530.5" width="12.0" height="3" fill="#ff3c3c" stroke="#c71f1f" /><rect x="114.0" y="545.0" width="12.0" height="3" fill="#ff3c3c" stroke="#c71f1f" /><rect x="114.0" y="559.0" width="12.0" height="3" fill="#ff3c3c" stroke="#c71f1f" /><rect x="127.0" y="573.5" width="12.0" height="3" fill="#35df39" stroke="#03aa10" /><rect x="114.0" y="602.0" width="12.0" height="3" fill="#ff3c3c" stroke="#c71f1f" /><rect x="140.0" y="631.0" width="12.0" height="3" fill="#80c9ff" stroke="#0b6cba" /><rect x="114.0" y="659.5" width="12.0" height="3" fill="#ff3c3c" stroke="#c71f1f" /><rect x="127.0" y="688.0" width="12.0" height="3" fill="#35df39" stroke="#03aa10" /><rect x="140.0" y="688.0" width="12.0" height="3" fill="#80c9ff" stroke="#0b6cba" /><rect x="114.0" y="717.0" width="12.0" height="3" fill="#ff3c3c" stroke="#c71f1f" /><rect x="114.0" y="731.0" width="12.0" height="3" fill="#ff3c3c" stroke="#c71f1f" /><rect x="114.0" y="745.5" width="12.0" height="3" fill="#ff3c3c" stroke="#c71f1f" /><rect x="114.0" y="759.5" width="12.0" height="3" fill="#ff3c3c" stroke="#c71f1f" /><rect x="127.0" y="774.0" width="12.0" height="3" fill="#35df39" stroke="#03aa10" /><rect x="140.0" y="774.0" width="12.0" height="3" fill="#80c9ff" stroke="#0b6cba" /><rect x="114.0" y="802.5" width="12.0" height="3" fill="#ff3c3c" stroke="#c71f1f" /><rect x="114.0" y="817.0" width="12.0" height="3" fill="#ff3c3c" stroke="#c71f1f" /><rect x="114.0" y="831.5" width="12.0" height="3" fill="#ff3c3c" stroke="#c71f1f" /><rect x="114.0" y="845.5" width="12.0" height="3" fill="#ff3c3c" stroke="#c71f1f" /><rect x="127.0" y="860.0" width="12.0" height="3" fill="#35df39" stroke="#03aa10" /><rect x="140.0" y="860.0" width="12.0" height="3" fill="#80c9ff" stroke="#0b6cba" /><rect x="114.0" y="888.5" width="12.0" height="3" fill="#ff3c3c" stroke="#c71f1f" /><rect x="114.0" y="903.0" width="12.0" height="3" fill="#ff3c3c" stroke="#c71f1f" /><rect x="254.0" y="0.0" width="12.0" height="3" fill="#80c9ff" stroke="#0b6cba" /><rect x="254.0" y="14.0" width="12.0" height="3" fill="#80c9ff" stroke="#0b6cba" /><rect x="254.0" y="28.5" width="12.0" height="3" fill="#80c9ff" stroke="#0b6cba" /><rect x="254.0" y="43.0" width="12.0" height="3" fill="#80c9ff" stroke="#0b6cba" /><rect x="241.0" y="57.0" width="12.0" height="3" fill="#35df39" stroke="#03aa10" /><rect x="241.0" y="71.5" width="12.0" height="3" fill="#35df39" stroke="#03aa10" /><rect x="241.0" y="86.0" width="12.0" height="3" fill="#35df39" stroke="#03aa10" /><rect x="241.0" y="100.0" width="12.0" height="3" fill="#35df39" stroke="#03aa10" /><rect x="228.0" y="114.5" width="12.0" height="3" fill="#ff3c3c" stroke="#c71f1f" /><rect x="228.0" y="129.0" width="12.0" height="3" fill="#ff3c3c" stroke="#c71f1f" /><rect x="228.0" y="143.0" width="12.0" height="3" fill="#ff3c3c" stroke="#c71f1f" /><rect x="228.0" y="157.5" width="12.0" height="3" fill="#ff3c3c" stroke="#c71f1f" /><rect x="228.0" y="172.0" width="12.0" height="3" fill="#ff3c3c" stroke="#c71f1f" /><rect x="228.0" y="186.0" width="12.0" height="3" fill="#ff3c3c" stroke="#c71f1f" /><rect x="228.0" y="200.5" width="12.0" height="3" fill="#ff3c3c" stroke="#c71f1f" /><rect x="228.0" y="215.0" width="12.0" height="3" fill="#ff3c3c" stroke="#c71f1f" /><rect x="228.0" y="229.0" width="12.0" height="3" fill="#ff3c3c" stroke="#c71f1f" /><rect x="241.0" y="659.0" width="12.0" height="3" fill="#35df39" stroke="#03aa10" /><rect x="228.0" y="688.0" width="12.0" height="3" fill="#ff3c3c" stroke="#c71f1f" /><rect x="254.0" y="731.0" width="12.0" height="3" fill="#80c9ff" stroke="#0b6cba" /><rect x="228.0" y="774.0" width="12.0" height="3" fill="#ff3c3c" stroke="#c71f1f" /><rect x="241.0" y="831.0" width="12.0" height="3" fill="#35df39" stroke="#03aa10" /><rect x="254.0" y="860.0" width="12.0" height="57.0" fill="#80c9ff" stroke="#0b6cba" /><rect x="267.0" y="860.0" width="12.0" height="57.0" fill="#fff874" stroke="#eb9c26" /><rect x="342.0" y="229.5" width="12.0" height="412.65000000000003" fill="#ff3c3c" stroke="#c71f1f" /><rect x="368.0" y="229.5" width="12.0" height="412.65000000000003" fill="#80c9ff" stroke="#0b6cba" /><rect x="368.0" y="0.0" width="12.0" height="165.4562827225131" fill="#80c9ff" stroke="#0b6cba" /><rect x="381.0" y="0.0" width="12.0" height="165.4562827225131" fill="#fff874" stroke="#eb9c26" /><rect x="355.0" y="688.0" width="12.0" height="229.5" fill="#35df39" stroke="#03aa10" /><rect x="381.0" y="688.0" width="12.0" height="229.5" fill="#fff874" stroke="#eb9c26" /><rect x="456.0" y="229.0" width="12.0" height="412.65000000000003" fill="#ff3c3c" stroke="#c71f1f" /><rect x="469.0" y="229.0" width="12.0" height="412.65000000000003" fill="#35df39" stroke="#03aa10" /><rect x="482.0" y="229.0" width="12.0" height="412.65000000000003" fill="#80c9ff" stroke="#0b6cba" /><rect x="456.0" y="687.5" width="12.0" height="3" fill="#ff3c3c" stroke="#c71f1f" /><rect x="469.0" y="730.5" width="12.0" height="3" fill="#35df39" stroke="#03aa10" /><rect x="482.0" y="773.5" width="12.0" height="3" fill="#80c9ff" stroke="#0b6cba" /><rect x="456.0" y="831.0" width="12.0" height="3" fill="#ff3c3c" stroke="#c71f1f" /><rect x="469.0" y="859.5" width="12.0" height="3" fill="#35df39" stroke="#03aa10" /><rect x="482.0" y="888.5" width="12.0" height="3" fill="#80c9ff" stroke="#0b6cba" /><rect x="469.0" y="0.0" width="12.0" height="102.93762268266086" fill="#35df39" stroke="#03aa10" /><rect x="495.0" y="0.0" width="12.0" height="102.93762268266086" fill="#fff874" stroke="#eb9c26" /><rect x="583.0" y="0.0" width="12.0" height="3" fill="#35df39" stroke="#03aa10" /><rect x="596.0" y="0.0" width="12.0" height="3" fill="#80c9ff" stroke="#0b6cba" /><rect x="596.0" y="114.5" width="12.0" height="3" fill="#80c9ff" stroke="#0b6cba" /><rect x="596.0" y="129.0" width="12.0" height="3" fill="#80c9ff" stroke="#0b6cba" /><rect x="596.0" y="143.5" width="12.0" height="3" fill="#80c9ff" stroke="#0b6cba" /><rect x="596.0" y="157.5" width="12.0" height="3" fill="#80c9ff" stroke="#0b6cba" /><rect x="583.0" y="172.0" width="12.0" height="3" fill="#35df39" stroke="#03aa10" /><rect x="583.0" y="186.5" width="12.0" height="3" fill="#35df39" stroke="#03aa10" /><rect x="583.0" y="200.5" width="12.0" height="3" fill="#35df39" stroke="#03aa10" /><rect x="583.0" y="215.0" width="12.0" height="3" fill="#35df39" stroke="#03aa10" /><rect x="583.0" y="229.5" width="12.0" height="3" fill="#35df39" stroke="#03aa10" /><rect x="570.0" y="258.0" width="12.0" height="3" fill="#ff3c3c" stroke="#c71f1f" /><rect x="570.0" y="272.5" width="12.0" height="3" fill="#ff3c3c" stroke="#c71f1f" /><rect x="570.0" y="286.5" width="12.0" height="3" fill="#ff3c3c" stroke="#c71f1f" /><rect x="570.0" y="301.0" width="12.0" height="3" fill="#ff3c3c" stroke="#c71f1f" /><rect x="583.0" y="315.5" width="12.0" height="3" fill="#35df39" stroke="#03aa10" /><rect x="570.0" y="344.0" width="12.0" height="3" fill="#ff3c3c" stroke="#c71f1f" /><rect x="570.0" y="358.5" width="12.0" height="3" fill="#ff3c3c" stroke="#c71f1f" /><rect x="570.0" y="372.5" width="12.0" height="3" fill="#ff3c3c" stroke="#c71f1f" /><rect x="570.0" y="387.0" width="12.0" height="3" fill="#ff3c3c" stroke="#c71f1f" /><rect x="583.0" y="401.5" width="12.0" height="3" fill="#35df39" stroke="#03aa10" /><rect x="596.0" y="401.5" width="12.0" height="3" fill="#80c9ff" stroke="#0b6cba" /><rect x="570.0" y="430.0" width="12.0" height="3" fill="#ff3c3c" stroke="#c71f1f" /><rect x="570.0" y="444.0" width="12.0" height="3" fill="#ff3c3c" stroke="#c71f1f" /><rect x="570.0" y="458.5" width="12.0" height="3" fill="#ff3c3c" stroke="#c71f1f" /><rect x="570.0" y="473.0" width="12.0" height="3" fill="#ff3c3c" stroke="#c71f1f" /><rect x="596.0" y="487.0" width="12.0" height="3" fill="#80c9ff" stroke="#0b6cba" /><rect x="570.0" y="516.0" width="12.0" height="3" fill="#ff3c3c" stroke="#c71f1f" /><rect x="570.0" y="530.0" width="12.0" height="3" fill="#ff3c3c" stroke="#c71f1f" /><rect x="570.0" y="544.5" width="12.0" height="3" fill="#ff3c3c" stroke="#c71f1f" /><rect x="570.0" y="559.0" width="12.0" height="3" fill="#ff3c3c" stroke="#c71f1f" /><rect x="583.0" y="573.0" width="12.0" height="3" fill="#35df39" stroke="#03aa10" /><rect x="570.0" y="602.0" width="12.0" height="3" fill="#ff3c3c" stroke="#c71f1f" /><rect x="596.0" y="630.5" width="12.0" height="3" fill="#80c9ff" stroke="#0b6cba" /><rect x="570.0" y="659.0" width="12.0" height="3" fill="#ff3c3c" stroke="#c71f1f" /><rect x="583.0" y="688.0" width="12.0" height="3" fill="#35df39" stroke="#03aa10" /><rect x="570.0" y="716.5" width="12.0" height="3" fill="#ff3c3c" stroke="#c71f1f" /><rect x="570.0" y="731.0" width="12.0" height="3" fill="#ff3c3c" stroke="#c71f1f" /><rect x="570.0" y="745.0" width="12.0" height="3" fill="#ff3c3c" stroke="#c71f1f" /><rect x="570.0" y="759.5" width="12.0" height="3" fill="#ff3c3c" stroke="#c71f1f" /><rect x="596.0" y="774.0" width="12.0" height="3" fill="#80c9ff" stroke="#0b6cba" /><rect x="570.0" y="802.5" width="12.0" height="3" fill="#ff3c3c" stroke="#c71f1f" /><rect x="570.0" y="817.0" width="12.0" height="3" fill="#ff3c3c" stroke="#c71f1f" /><rect x="570.0" y="831.0" width="12.0" height="3" fill="#ff3c3c" stroke="#c71f1f" /><rect x="570.0" y="845.5" width="12.0" height="3" fill="#ff3c3c" stroke="#c71f1f" /><rect x="583.0" y="860.0" width="12.0" height="3" fill="#35df39" stroke="#03aa10" /><rect x="596.0" y="860.0" width="12.0" height="3" fill="#80c9ff" stroke="#0b6cba" /><rect x="570.0" y="888.5" width="12.0" height="3" fill="#ff3c3c" stroke="#c71f1f" /><rect x="570.0" y="903.0" width="12.0" height="3" fill="#ff3c3c" stroke="#c71f1f" /><rect x="684.0" y="0.0" width="12.0" height="3" fill="#ff3c3c" stroke="#c71f1f" /><rect x="684.0" y="14.5" width="12.0" height="3" fill="#ff3c3c" stroke="#c71f1f" /><rect x="697.0" y="29.0" width="12.0" height="3" fill="#35df39" stroke="#03aa10" /><rect x="710.0" y="29.0" width="12.0" height="3" fill="#80c9ff" stroke="#0b6cba" /><rect x="697.0" y="57.5" width="12.0" height="3" fill="#35df39" stroke="#03aa10" /><rect x="710.0" y="57.5" width="12.0" height="3" fill="#80c9ff" stroke="#0b6cba" /><rect x="684.0" y="86.0" width="12.0" height="3" fill="#ff3c3c" stroke="#c71f1f" /><rect x="684.0" y="100.5" width="12.0" height="3" fill="#ff3c3c" stroke="#c71f1f" /><rect x="697.0" y="115.0" width="12.0" height="3" fill="#35df39" stroke="#03aa10" /><rect x="710.0" y="115.0" width="12.0" height="3" fill="#80c9ff" stroke="#0b6cba" /><rect x="697.0" y="143.5" width="12.0" height="3" fill="#35df39" stroke="#03aa10" /><rect x="710.0" y="143.5" width="12.0" height="3" fill="#80c9ff" stroke="#0b6cba" /><rect x="684.0" y="229.5" width="12.0" height="3" fill="#ff3c3c" stroke="#c71f1f" /><rect x="697.0" y="229.5" width="12.0" height="3" fill="#35df39" stroke="#03aa10" /><rect x="710.0" y="659.5" width="12.0" height="3" fill="#80c9ff" stroke="#0b6cba" /><rect x="710.0" y="673.5" width="12.0" height="3" fill="#80c9ff" stroke="#0b6cba" /><rect x="684.0" y="688.0" width="12.0" height="3" fill="#ff3c3c" stroke="#c71f1f" /><rect x="710.0" y="688.0" width="12.0" height="3" fill="#80c9ff" stroke="#0b6cba" /><rect x="684.0" y="731.0" width="12.0" height="3" fill="#ff3c3c" stroke="#c71f1f" /><rect x="710.0" y="731.0" width="12.0" height="3" fill="#80c9ff" stroke="#0b6cba" /><rect x="684.0" y="774.0" width="12.0" height="3" fill="#ff3c3c" stroke="#c71f1f" /><rect x="710.0" y="774.0" width="12.0" height="3" fill="#80c9ff" stroke="#0b6cba" /><rect x="798.0" y="143.0" width="12.0" height="3" fill="#ff3c3c" stroke="#c71f1f" /><rect x="798.0" y="157.5" width="12.0" height="3" fill="#ff3c3c" stroke="#c71f1f" /><rect x="824.0" y="172.0" width="12.0" height="3" fill="#80c9ff" stroke="#0b6cba" /><rect x="811.0" y="229.0" width="12.0" height="3" fill="#35df39" stroke="#03aa10" /><rect x="824.0" y="229.0" width="12.0" height="3" fill="#80c9ff" stroke="#0b6cba" /><rect x="798.0" y="258.0" width="12.0" height="3" fill="#ff3c3c" stroke="#c71f1f" /><rect x="798.0" y="272.0" width="12.0" height="3" fill="#ff3c3c" stroke="#c71f1f" /><rect x="798.0" y="286.5" width="12.0" height="3" fill="#ff3c3c" stroke="#c71f1f" /><rect x="798.0" y="301.0" width="12.0" height="3" fill="#ff3c3c" stroke="#c71f1f" /><rect x="811.0" y="315.0" width="12.0" height="3" fill="#35df39" stroke="#03aa10" /><rect x="798.0" y="344.0" width="12.0" height="3" fill="#ff3c3c" stroke="#c71f1f" /><rect x="798.0" y="358.0" width="12.0" height="3" fill="#ff3c3c" stroke="#c71f1f" /><rect x="798.0" y="372.5" width="12.0" height="3" fill="#ff3c3c" stroke="#c71f1f" /><rect x="798.0" y="387.0" width="12.0" height="3" fill="#ff3c3c" stroke="#c71f1f" /><rect x="824.0" y="401.0" width="12.0" height="3" fill="#80c9ff" stroke="#0b6cba" /><rect x="798.0" y="430.0" width="12.0" height="3" fill="#ff3c3c" stroke="#c71f1f" /><rect x="798.0" y="444.0" width="12.0" height="3" fill="#ff3c3c" stroke="#c71f1f" /><rect x="798.0" y="458.5" width="12.0" height="3" fill="#ff3c3c" stroke="#c71f1f" /><rect x="798.0" y="473.0" width="12.0" height="3" fill="#ff3c3c" stroke="#c71f1f" /><rect x="811.0" y="487.0" width="12.0" height="3" fill="#35df39" stroke="#03aa10" /><rect x="824.0" y="487.0" width="12.0" height="3" fill="#80c9ff" stroke="#0b6cba" /><rect x="798.0" y="516.0" width="12.0" height="3" fill="#ff3c3c" stroke="#c71f1f" /><rect x="798.0" y="530.0" width="12.0" height="3" fill="#ff3c3c" stroke="#c71f1f" /><rect x="798.0" y="544.5" width="12.0" height="3" fill="#ff3c3c" stroke="#c71f1f" /><rect x="798.0" y="559.0" width="12.0" height="3" fill="#ff3c3c" stroke="#c71f1f" /><rect x="824.0" y="573.0" width="12.0" height="3" fill="#80c9ff" stroke="#0b6cba" /><rect x="798.0" y="602.0" width="12.0" height="3" fill="#ff3c3c" stroke="#c71f1f" /><rect x="811.0" y="630.5" width="12.0" height="3" fill="#35df39" stroke="#03aa10" /><rect x="811.0" y="645.0" width="12.0" height="3" fill="#35df39" stroke="#03aa10" /><rect x="811.0" y="659.0" width="12.0" height="3" fill="#35df39" stroke="#03aa10" /><rect x="811.0" y="673.5" width="12.0" height="3" fill="#35df39" stroke="#03aa10" /><rect x="837.0" y="688.0" width="12.0" height="3" fill="#fff874" stroke="#eb9c26" /><rect x="837.0" y="702.0" width="12.0" height="3" fill="#fff874" stroke="#eb9c26" /><rect x="811.0" y="716.5" width="12.0" height="3" fill="#35df39" stroke="#03aa10" /><rect x="811.0" y="731.0" width="12.0" height="3" fill="#35df39" stroke="#03aa10" /><rect x="811.0" y="745.0" width="12.0" height="3" fill="#35df39" stroke="#03aa10" /><rect x="811.0" y="759.5" width="12.0" height="3" fill="#35df39" stroke="#03aa10" /><rect x="824.0" y="774.0" width="12.0" height="3" fill="#80c9ff" stroke="#0b6cba" /><rect x="824.0" y="788.0" width="12.0" height="3" fill="#80c9ff" stroke="#0b6cba" /><rect x="811.0" y="802.5" width="12.0" height="3" fill="#35df39" stroke="#03aa10" /><rect x="811.0" y="816.5" width="12.0" height="3" fill="#35df39" stroke="#03aa10" /><rect x="811.0" y="831.0" width="12.0" height="3" fill="#35df39" stroke="#03aa10" /><rect x="811.0" y="845.5" width="12.0" height="3" fill="#35df39" stroke="#03aa10" /><rect x="824.0" y="859.5" width="12.0" height="3" fill="#80c9ff" stroke="#0b6cba" /><rect x="824.0" y="874.0" width="12.0" height="3" fill="#80c9ff" stroke="#0b6cba" /><rect x="824.0" y="888.5" width="12.0" height="3" fill="#80c9ff" stroke="#0b6cba" /><rect x="824.0" y="902.5" width="12.0" height="3" fill="#80c9ff" stroke="#0b6cba" /><rect x="938.0" y="0.0" width="12.0" height="3" fill="#80c9ff" stroke="#0b6cba" /><rect x="938.0" y="114.5" width="12.0" height="3" fill="#80c9ff" stroke="#0b6cba" /><rect x="925.0" y="157.5" width="12.0" height="3" fill="#35df39" stroke="#03aa10" /><rect x="912.0" y="200.5" width="12.0" height="3" fill="#ff3c3c" stroke="#c71f1f" /><rect x="912.0" y="229.5" width="12.0" height="3" fill="#ff3c3c" stroke="#c71f1f" /><rect x="912.0" y="243.5" width="12.0" height="3" fill="#ff3c3c" stroke="#c71f1f" /><rect x="912.0" y="258.0" width="12.0" height="3" fill="#ff3c3c" stroke="#c71f1f" /><rect x="912.0" y="272.5" width="12.0" height="3" fill="#ff3c3c" stroke="#c71f1f" /><rect x="912.0" y="286.5" width="12.0" height="3" fill="#ff3c3c" stroke="#c71f1f" /><rect x="925.0" y="301.0" width="12.0" height="3" fill="#35df39" stroke="#03aa10" /><rect x="925.0" y="315.5" width="12.0" height="3" fill="#35df39" stroke="#03aa10" /><rect x="925.0" y="329.5" width="12.0" height="3" fill="#35df39" stroke="#03aa10" /><rect x="938.0" y="344.0" width="12.0" height="3" fill="#80c9ff" stroke="#0b6cba" /><rect x="938.0" y="358.5" width="12.0" height="3" fill="#80c9ff" stroke="#0b6cba" /><rect x="938.0" y="372.5" width="12.0" height="3" fill="#80c9ff" stroke="#0b6cba" /><rect x="938.0" y="387.0" width="12.0" height="3" fill="#80c9ff" stroke="#0b6cba" /><rect x="925.0" y="401.5" width="12.0" height="3" fill="#35df39" stroke="#03aa10" /><rect x="925.0" y="415.5" width="12.0" height="3" fill="#35df39" stroke="#03aa10" /><rect x="925.0" y="430.0" width="12.0" height="3" fill="#35df39" stroke="#03aa10" /><rect x="925.0" y="444.5" width="12.0" height="3" fill="#35df39" stroke="#03aa10" /><rect x="925.0" y="458.5" width="12.0" height="3" fill="#35df39" stroke="#03aa10" /><rect x="925.0" y="473.0" width="12.0" height="3" fill="#35df39" stroke="#03aa10" /><rect x="925.0" y="487.5" width="12.0" height="3" fill="#35df39" stroke="#03aa10" /><rect x="925.0" y="501.5" width="12.0" height="3" fill="#35df39" stroke="#03aa10" /><rect x="938.0" y="516.0" width="12.0" height="3" fill="#80c9ff" stroke="#0b6cba" /><rect x="938.0" y="530.5" width="12.0" height="3" fill="#80c9ff" stroke="#0b6cba" /><rect x="938.0" y="544.5" width="12.0" height="3" fill="#80c9ff" stroke="#0b6cba" /><rect x="938.0" y="559.0" width="12.0" height="3" fill="#80c9ff" stroke="#0b6cba" /><rect x="938.0" y="573.5" width="12.0" height="3" fill="#80c9ff" stroke="#0b6cba" /><rect x="938.0" y="587.5" width="12.0" height="3" fill="#80c9ff" stroke="#0b6cba" /><rect x="938.0" y="602.0" width="12.0" height="3" fill="#80c9ff" stroke="#0b6cba" /><rect x="938.0" y="616.5" width="12.0" height="3" fill="#80c9ff" stroke="#0b6cba" /><rect x="938.0" y="630.5" width="12.0" height="3" fill="#80c9ff" stroke="#0b6cba" /><rect x="912.0" y="688.0" width="12.0" height="3" fill="#ff3c3c" stroke="#c71f1f" /><rect x="925.0" y="688.0" width="12.0" height="3" fill="#35df39" stroke="#03aa10" /><rect x="912.0" y="716.5" width="12.0" height="3" fill="#ff3c3c" stroke="#c71f1f" /><rect x="912.0" y="745.5" width="12.0" height="3" fill="#ff3c3c" stroke="#c71f1f" /><rect x="912.0" y="774.0" width="12.0" height="3" fill="#ff3c3c" stroke="#c71f1f" /><rect x="912.0" y="802.5" width="12.0" height="3" fill="#ff3c3c" stroke="#c71f1f" /><rect x="912.0" y="831.5" width="12.0" height="3" fill="#ff3c3c" stroke="#c71f1f" /><rect x="912.0" y="860.0" width="12.0" height="3" fill="#ff3c3c" stroke="#c71f1f" /><rect x="912.0" y="888.5" width="12.0" height="3" fill="#ff3c3c" stroke="#c71f1f" /><rect x="925.0" y="888.5" width="12.0" height="3" fill="#35df39" stroke="#03aa10" /><rect x="1052.0" y="0.0" width="12.0" height="3" fill="#80c9ff" stroke="#0b6cba" /><rect x="1052.0" y="14.0" width="12.0" height="3" fill="#80c9ff" stroke="#0b6cba" /><rect x="1052.0" y="28.5" width="12.0" height="3" fill="#80c9ff" stroke="#0b6cba" /><rect x="1052.0" y="43.0" width="12.0" height="3" fill="#80c9ff" stroke="#0b6cba" /><rect x="1039.0" y="57.0" width="12.0" height="3" fill="#35df39" stroke="#03aa10" /><rect x="1039.0" y="71.5" width="12.0" height="3" fill="#35df39" stroke="#03aa10" /><rect x="1039.0" y="86.0" width="12.0" height="3" fill="#35df39" stroke="#03aa10" /><rect x="1039.0" y="100.0" width="12.0" height="3" fill="#35df39" stroke="#03aa10" /><rect x="1026.0" y="114.5" width="12.0" height="3" fill="#ff3c3c" stroke="#c71f1f" /><rect x="1026.0" y="128.5" width="12.0" height="3" fill="#ff3c3c" stroke="#c71f1f" /><rect x="1026.0" y="143.0" width="12.0" height="3" fill="#ff3c3c" stroke="#c71f1f" /><rect x="1026.0" y="157.5" width="12.0" height="3" fill="#ff3c3c" stroke="#c71f1f" /><rect x="1026.0" y="171.5" width="12.0" height="3" fill="#ff3c3c" stroke="#c71f1f" /><rect x="1039.0" y="229.0" width="12.0" height="3" fill="#35df39" stroke="#03aa10" /><rect x="1052.0" y="229.0" width="12.0" height="3" fill="#80c9ff" stroke="#0b6cba" /><rect x="1039.0" y="286.5" width="12.0" height="3" fill="#35df39" stroke="#03aa10" /><rect x="1052.0" y="286.5" width="12.0" height="3" fill="#80c9ff" stroke="#0b6cba" /><rect x="1039.0" y="329.5" width="12.0" height="3" fill="#35df39" stroke="#03aa10" /><rect x="1052.0" y="329.5" width="12.0" height="3" fill="#80c9ff" stroke="#0b6cba" /><rect x="1039.0" y="343.5" width="12.0" height="3" fill="#35df39" stroke="#03aa10" /><rect x="1052.0" y="343.5" width="12.0" height="3" fill="#80c9ff" stroke="#0b6cba" /><rect x="1039.0" y="358.0" width="12.0" height="3" fill="#35df39" stroke="#03aa10" /><rect x="1052.0" y="358.0" width="12.0" height="3" fill="#80c9ff" stroke="#0b6cba" /><rect x="1039.0" y="372.5" width="12.0" height="3" fill="#35df39" stroke="#03aa10" /><rect x="1052.0" y="372.5" width="12.0" height="3" fill="#80c9ff" stroke="#0b6cba" /><rect x="1039.0" y="401.0" width="12.0" height="3" fill="#35df39" stroke="#03aa10" /><rect x="1052.0" y="401.0" width="12.0" height="3" fill="#80c9ff" stroke="#0b6cba" /><rect x="1039.0" y="429.5" width="12.0" height="3" fill="#35df39" stroke="#03aa10" /><rect x="1052.0" y="429.5" width="12.0" height="3" fill="#80c9ff" stroke="#0b6cba" /><rect x="1039.0" y="444.0" width="12.0" height="3" fill="#35df39" stroke="#03aa10" /><rect x="1052.0" y="444.0" width="12.0" height="3" fill="#80c9ff" stroke="#0b6cba" /><rect x="1026.0" y="458.5" width="12.0" height="3" fill="#ff3c3c" stroke="#c71f1f" /><rect x="1039.0" y="487.0" width="12.0" height="3" fill="#35df39" stroke="#03aa10" /><rect x="1052.0" y="515.5" width="12.0" height="3" fill="#80c9ff" stroke="#0b6cba" /><rect x="1065.0" y="544.5" width="12.0" height="3" fill="#fff874" stroke="#eb9c26" /><rect x="1052.0" y="601.5" width="12.0" height="3" fill="#80c9ff" stroke="#0b6cba" /><rect x="1052.0" y="616.0" width="12.0" height="3" fill="#80c9ff" stroke="#0b6cba" /><rect x="1052.0" y="630.5" width="12.0" height="3" fill="#80c9ff" stroke="#0b6cba" /><rect x="1026.0" y="659.0" width="12.0" height="3" fill="#ff3c3c" stroke="#c71f1f" /><rect x="1039.0" y="659.0" width="12.0" height="3" fill="#35df39" stroke="#03aa10" /><rect x="1026.0" y="673.5" width="12.0" height="3" fill="#ff3c3c" stroke="#c71f1f" /><rect x="1039.0" y="673.5" width="12.0" height="3" fill="#35df39" stroke="#03aa10" /><rect x="1026.0" y="687.5" width="12.0" height="3" fill="#ff3c3c" stroke="#c71f1f" /><rect x="1039.0" y="687.5" width="12.0" height="3" fill="#35df39" stroke="#03aa10" /><rect x="1026.0" y="745.0" width="12.0" height="3" fill="#ff3c3c" stroke="#c71f1f" /><rect x="1039.0" y="745.0" width="12.0" height="3" fill="#35df39" stroke="#03aa10" /><rect x="1026.0" y="788.0" width="12.0" height="3" fill="#ff3c3c" stroke="#c71f1f" /><rect x="1039.0" y="788.0" width="12.0" height="3" fill="#35df39" stroke="#03aa10" /><rect x="1026.0" y="802.5" width="12.0" height="3" fill="#ff3c3c" stroke="#c71f1f" /><rect x="1039.0" y="802.5" width="12.0" height="3" fill="#35df39" stroke="#03aa10" /><rect x="1026.0" y="816.5" width="12.0" height="3" fill="#ff3c3c" stroke="#c71f1f" /><rect x="1039.0" y="816.5" width="12.0" height="3" fill="#35df39" stroke="#03aa10" /><rect x="1026.0" y="831.0" width="12.0" height="3" fill="#ff3c3c" stroke="#c71f1f" /><rect x="1039.0" y="831.0" width="12.0" height="3" fill="#35df39" stroke="#03aa10" /><rect x="1026.0" y="859.5" width="12.0" height="3" fill="#ff3c3c" stroke="#c71f1f" /><rect x="1039.0" y="859.5" width="12.0" height="3" fill="#35df39" stroke="#03aa10" /><rect x="1026.0" y="888.5" width="12.0" height="3" fill="#ff3c3c" stroke="#c71f1f" /><rect x="1039.0" y="888.5" width="12.0" height="3" fill="#35df39" stroke="#03aa10" /><rect x="1026.0" y="902.5" width="12.0" height="3" fill="#ff3c3c" stroke="#c71f1f" /><rect x="1039.0" y="902.5" width="12.0" height="3" fill="#35df39" stroke="#03aa10" /><rect x="1166.0" y="0.0" width="12.0" height="3" fill="#80c9ff" stroke="#0b6cba" /><rect x="1153.0" y="28.5" width="12.0" height="3" fill="#35df39" stroke="#03aa10" /><rect x="1153.0" y="57.5" width="12.0" height="3" fill="#35df39" stroke="#03aa10" /><rect x="1179.0" y="86.0" width="12.0" height="3" fill="#fff874" stroke="#eb9c26" /><rect x="1166.0" y="229.5" width="12.0" height="3" fill="#80c9ff" stroke="#0b6cba" /><rect x="1166.0" y="243.5" width="12.0" height="3" fill="#80c9ff" stroke="#0b6cba" /><rect x="1166.0" y="258.0" width="12.0" height="3" fill="#80c9ff" stroke="#0b6cba" /><rect x="1166.0" y="272.5" width="12.0" height="3" fill="#80c9ff" stroke="#0b6cba" /><rect x="1166.0" y="286.5" width="12.0" height="3" fill="#80c9ff" stroke="#0b6cba" /><rect x="1166.0" y="301.0" width="12.0" height="3" fill="#80c9ff" stroke="#0b6cba" /><rect x="1153.0" y="315.0" width="12.0" height="3" fill="#35df39" stroke="#03aa10" /><rect x="1153.0" y="329.5" width="12.0" height="3" fill="#35df39" stroke="#03aa10" /><rect x="1153.0" y="344.0" width="12.0" height="3" fill="#35df39" stroke="#03aa10" /><rect x="1153.0" y="358.0" width="12.0" height="3" fill="#35df39" stroke="#03aa10" /><rect x="1153.0" y="372.5" width="12.0" height="3" fill="#35df39" stroke="#03aa10" /><rect x="1153.0" y="387.0" width="12.0" height="3" fill="#35df39" stroke="#03aa10" /><rect x="1166.0" y="401.0" width="12.0" height="3" fill="#80c9ff" stroke="#0b6cba" /><rect x="1166.0" y="415.5" width="12.0" height="3" fill="#80c9ff" stroke="#0b6cba" /><rect x="1166.0" y="430.0" width="12.0" height="3" fill="#80c9ff" stroke="#0b6cba" /><rect x="1166.0" y="444.0" width="12.0" height="3" fill="#80c9ff" stroke="#0b6cba" /><rect x="1166.0" y="458.5" width="12.0" height="3" fill="#80c9ff" stroke="#0b6cba" /><rect x="1166.0" y="473.0" width="12.0" height="3" fill="#80c9ff" stroke="#0b6cba" /><rect x="1166.0" y="487.0" width="12.0" height="3" fill="#80c9ff" stroke="#0b6cba" /><rect x="1166.0" y="501.5" width="12.0" height="3" fill="#80c9ff" stroke="#0b6cba" /><rect x="1166.0" y="516.0" width="12.0" height="3" fill="#80c9ff" stroke="#0b6cba" /><rect x="1166.0" y="530.0" width="12.0" height="3" fill="#80c9ff" stroke="#0b6cba" /><rect x="1153.0" y="544.5" width="12.0" height="3" fill="#35df39" stroke="#03aa10" /><rect x="1153.0" y="559.0" width="12.0" height="3" fill="#35df39" stroke="#03aa10" /><rect x="1153.0" y="573.0" width="12.0" height="3" fill="#35df39" stroke="#03aa10" /><rect x="1153.0" y="587.5" width="12.0" height="3" fill="#35df39" stroke="#03aa10" /><rect x="1153.0" y="602.0" width="12.0" height="3" fill="#35df39" stroke="#03aa10" /><rect x="1153.0" y="616.0" width="12.0" height="3" fill="#35df39" stroke="#03aa10" /><rect x="1166.0" y="630.5" width="12.0" height="3" fill="#80c9ff" stroke="#0b6cba" /><rect x="1166.0" y="645.0" width="12.0" height="3" fill="#80c9ff" stroke="#0b6cba" /><rect x="1166.0" y="659.0" width="12.0" height="3" fill="#80c9ff" stroke="#0b6cba" /><rect x="1166.0" y="673.5" width="12.0" height="3" fill="#80c9ff" stroke="#0b6cba" /><rect x="1166.0" y="688.0" width="12.0" height="3" fill="#80c9ff" stroke="#0b6cba" /><rect x="1140.0" y="831.0" width="12.0" height="3" fill="#ff3c3c" stroke="#c71f1f" /><rect x="1166.0" y="860.0" width="12.0" height="3" fill="#80c9ff" stroke="#0b6cba" /><rect x="1153.0" y="888.5" width="12.0" height="3" fill="#35df39" stroke="#03aa10" /><rect x="1254.0" y="29.0" width="12.0" height="3" fill="#ff3c3c" stroke="#c71f1f" /><rect x="1267.0" y="57.5" width="12.0" height="3" fill="#35df39" stroke="#03aa10" /><rect x="1280.0" y="86.0" width="12.0" height="3" fill="#80c9ff" stroke="#0b6cba" /><rect x="1267.0" y="115.0" width="12.0" height="3" fill="#35df39" stroke="#03aa10" /><rect x="1267.0" y="129.0" width="12.0" height="3" fill="#35df39" stroke="#03aa10" /><rect x="1280.0" y="143.5" width="12.0" height="3" fill="#80c9ff" stroke="#0b6cba" /><rect x="1280.0" y="158.0" width="12.0" height="3" fill="#80c9ff" stroke="#0b6cba" /><rect x="1293.0" y="172.0" width="12.0" height="3" fill="#fff874" stroke="#eb9c26" /><rect x="1267.0" y="287.0" width="12.0" height="3" fill="#35df39" stroke="#03aa10" /><rect x="1280.0" y="287.0" width="12.0" height="3" fill="#80c9ff" stroke="#0b6cba" /><rect x="1267.0" y="330.0" width="12.0" height="3" fill="#35df39" stroke="#03aa10" /><rect x="1280.0" y="330.0" width="12.0" height="3" fill="#80c9ff" stroke="#0b6cba" /><rect x="1267.0" y="344.0" width="12.0" height="3" fill="#35df39" stroke="#03aa10" /><rect x="1280.0" y="344.0" width="12.0" height="3" fill="#80c9ff" stroke="#0b6cba" /><rect x="1267.0" y="358.5" width="12.0" height="3" fill="#35df39" stroke="#03aa10" /><rect x="1280.0" y="358.5" width="12.0" height="3" fill="#80c9ff" stroke="#0b6cba" /><rect x="1267.0" y="373.0" width="12.0" height="3" fill="#35df39" stroke="#03aa10" /><rect x="1280.0" y="373.0" width="12.0" height="3" fill="#80c9ff" stroke="#0b6cba" /><rect x="1267.0" y="401.5" width="12.0" height="3" fill="#35df39" stroke="#03aa10" /><rect x="1280.0" y="401.5" width="12.0" height="3" fill="#80c9ff" stroke="#0b6cba" /><rect x="1254.0" y="430.0" width="12.0" height="3" fill="#ff3c3c" stroke="#c71f1f" /><rect x="1267.0" y="430.0" width="12.0" height="3" fill="#35df39" stroke="#03aa10" /><rect x="1254.0" y="487.5" width="12.0" height="3" fill="#ff3c3c" stroke="#c71f1f" /><rect x="1267.0" y="487.5" width="12.0" height="3" fill="#35df39" stroke="#03aa10" /><rect x="1254.0" y="516.0" width="12.0" height="3" fill="#ff3c3c" stroke="#c71f1f" /><rect x="1267.0" y="516.0" width="12.0" height="3" fill="#35df39" stroke="#03aa10" /><rect x="1254.0" y="544.5" width="12.0" height="3" fill="#ff3c3c" stroke="#c71f1f" /><rect x="1267.0" y="544.5" width="12.0" height="3" fill="#35df39" stroke="#03aa10" /><rect x="1254.0" y="573.5" width="12.0" height="3" fill="#ff3c3c" stroke="#c71f1f" /><rect x="1267.0" y="573.5" width="12.0" height="3" fill="#35df39" stroke="#03aa10" /><rect x="1254.0" y="587.5" width="12.0" height="3" fill="#ff3c3c" stroke="#c71f1f" /><rect x="1267.0" y="587.5" width="12.0" height="3" fill="#35df39" stroke="#03aa10" /><rect x="1254.0" y="602.0" width="12.0" height="3" fill="#ff3c3c" stroke="#c71f1f" /><rect x="1267.0" y="602.0" width="12.0" height="3" fill="#35df39" stroke="#03aa10" /><rect x="1254.0" y="630.5" width="12.0" height="3" fill="#ff3c3c" stroke="#c71f1f" /><rect x="1267.0" y="630.5" width="12.0" height="3" fill="#35df39" stroke="#03aa10" /><rect x="1254.0" y="659.5" width="12.0" height="3" fill="#ff3c3c" stroke="#c71f1f" /><rect x="1267.0" y="659.5" width="12.0" height="3" fill="#35df39" stroke="#03aa10" /><rect x="1254.0" y="673.5" width="12.0" height="3" fill="#ff3c3c" stroke="#c71f1f" /><rect x="1267.0" y="673.5" width="12.0" height="3" fill="#35df39" stroke="#03aa10" /><rect x="1267.0" y="688.0" width="12.0" height="3" fill="#35df39" stroke="#03aa10" /><rect x="1280.0" y="688.0" width="12.0" height="3" fill="#80c9ff" stroke="#0b6cba" /><rect x="1267.0" y="745.5" width="12.0" height="3" fill="#35df39" stroke="#03aa10" /><rect x="1280.0" y="745.5" width="12.0" height="3" fill="#80c9ff" stroke="#0b6cba" /><rect x="1267.0" y="788.5" width="12.0" height="3" fill="#35df39" stroke="#03aa10" /><rect x="1280.0" y="788.5" width="12.0" height="3" fill="#80c9ff" stroke="#0b6cba" /><rect x="1267.0" y="802.5" width="12.0" height="3" fill="#35df39" stroke="#03aa10" /><rect x="1280.0" y="802.5" width="12.0" height="3" fill="#80c9ff" stroke="#0b6cba" /><rect x="1267.0" y="817.0" width="12.0" height="3" fill="#35df39" stroke="#03aa10" /><rect x="1280.0" y="817.0" width="12.0" height="3" fill="#80c9ff" stroke="#0b6cba" /><rect x="1267.0" y="831.5" width="12.0" height="3" fill="#35df39" stroke="#03aa10" /><rect x="1280.0" y="831.5" width="12.0" height="3" fill="#80c9ff" stroke="#0b6cba" /><rect x="1267.0" y="860.0" width="12.0" height="3" fill="#35df39" stroke="#03aa10" /><rect x="1280.0" y="860.0" width="12.0" height="3" fill="#80c9ff" stroke="#0b6cba" /><rect x="1267.0" y="888.5" width="12.0" height="3" fill="#35df39" stroke="#03aa10" /><rect x="1280.0" y="888.5" width="12.0" height="3" fill="#80c9ff" stroke="#0b6cba" /><rect x="1267.0" y="903.0" width="12.0" height="3" fill="#35df39" stroke="#03aa10" /><rect x="1280.0" y="903.0" width="12.0" height="3" fill="#80c9ff" stroke="#0b6cba" /><rect x="1368.0" y="0.0" width="12.0" height="3" fill="#ff3c3c" stroke="#c71f1f" /><rect x="1381.0" y="0.0" width="12.0" height="3" fill="#35df39" stroke="#03aa10" /><rect x="1368.0" y="57.0" width="12.0" height="3" fill="#ff3c3c" stroke="#c71f1f" /><rect x="1381.0" y="57.0" width="12.0" height="3" fill="#35df39" stroke="#03aa10" /><rect x="1368.0" y="100.0" width="12.0" height="3" fill="#ff3c3c" stroke="#c71f1f" /><rect x="1381.0" y="100.0" width="12.0" height="3" fill="#35df39" stroke="#03aa10" /><rect x="1368.0" y="114.5" width="12.0" height="3" fill="#ff3c3c" stroke="#c71f1f" /><rect x="1381.0" y="114.5" width="12.0" height="3" fill="#35df39" stroke="#03aa10" /><rect x="1368.0" y="129.0" width="12.0" height="3" fill="#ff3c3c" stroke="#c71f1f" /><rect x="1381.0" y="129.0" width="12.0" height="3" fill="#35df39" stroke="#03aa10" /><rect x="1368.0" y="143.0" width="12.0" height="3" fill="#ff3c3c" stroke="#c71f1f" /><rect x="1381.0" y="143.0" width="12.0" height="3" fill="#35df39" stroke="#03aa10" /><rect x="1368.0" y="172.0" width="12.0" height="3" fill="#ff3c3c" stroke="#c71f1f" /><rect x="1381.0" y="172.0" width="12.0" height="3" fill="#35df39" stroke="#03aa10" /><rect x="1368.0" y="200.5" width="12.0" height="3" fill="#ff3c3c" stroke="#c71f1f" /><rect x="1381.0" y="200.5" width="12.0" height="3" fill="#35df39" stroke="#03aa10" /><rect x="1368.0" y="215.0" width="12.0" height="3" fill="#ff3c3c" stroke="#c71f1f" /><rect x="1381.0" y="215.0" width="12.0" height="3" fill="#35df39" stroke="#03aa10" /><rect x="1394.0" y="229.0" width="12.0" height="3" fill="#80c9ff" stroke="#0b6cba" /><rect x="1368.0" y="286.5" width="12.0" height="3" fill="#ff3c3c" stroke="#c71f1f" /><rect x="1394.0" y="315.0" width="12.0" height="3" fill="#80c9ff" stroke="#0b6cba" /><rect x="1381.0" y="372.5" width="12.0" height="3" fill="#35df39" stroke="#03aa10" /><rect x="1407.0" y="401.0" width="12.0" height="3" fill="#fff874" stroke="#eb9c26" /><rect x="1368.0" y="458.5" width="12.0" height="3" fill="#ff3c3c" stroke="#c71f1f" /><rect x="1394.0" y="487.0" width="12.0" height="3" fill="#80c9ff" stroke="#0b6cba" /><rect x="1368.0" y="544.5" width="12.0" height="3" fill="#ff3c3c" stroke="#c71f1f" /><rect x="1381.0" y="573.0" width="12.0" height="3" fill="#35df39" stroke="#03aa10" /><rect x="1368.0" y="602.0" width="12.0" height="3" fill="#ff3c3c" stroke="#c71f1f" /><rect x="1394.0" y="630.5" width="12.0" height="3" fill="#80c9ff" stroke="#0b6cba" /><rect x="1368.0" y="659.0" width="12.0" height="3" fill="#ff3c3c" stroke="#c71f1f" /><rect x="1407.0" y="687.5" width="12.0" height="3" fill="#fff874" stroke="#eb9c26" /><rect x="1394.0" y="716.5" width="12.0" height="3" fill="#80c9ff" stroke="#0b6cba" /><rect x="1381.0" y="745.0" width="12.0" height="3" fill="#35df39" stroke="#03aa10" /><rect x="1407.0" y="773.5" width="12.0" height="3" fill="#fff874" stroke="#eb9c26" /><rect x="1394.0" y="802.5" width="12.0" height="3" fill="#80c9ff" stroke="#0b6cba" /><rect x="1381.0" y="831.0" width="12.0" height="3" fill="#35df39" stroke="#03aa10" /><rect x="1407.0" y="859.5" width="12.0" height="3" fill="#fff874" stroke="#eb9c26" /><rect x="1394.0" y="888.5" width="12.0" height="3" fill="#80c9ff" stroke="#0b6cba" /><rect x="1495.0" y="0.0" width="12.0" height="3" fill="#35df39" stroke="#03aa10" /><rect x="1521.0" y="28.5" width="12.0" height="3" fill="#fff874" stroke="#eb9c26" /><rect x="1508.0" y="57.5" width="12.0" height="3" fill="#80c9ff" stroke="#0b6cba" /><rect x="1495.0" y="86.0" width="12.0" height="3" fill="#35df39" stroke="#03aa10" /><rect x="1521.0" y="114.5" width="12.0" height="3" fill="#fff874" stroke="#eb9c26" /><rect x="1508.0" y="143.5" width="12.0" height="3" fill="#80c9ff" stroke="#0b6cba" /><rect x="1495.0" y="172.0" width="12.0" height="3" fill="#35df39" stroke="#03aa10" /><rect x="1508.0" y="200.5" width="12.0" height="3" fill="#80c9ff" stroke="#0b6cba" /><rect x="1521.0" y="229.5" width="12.0" height="154.8" fill="#fff874" stroke="#eb9c26" /><rect x="1495.0" y="401.5" width="12.0" height="3" fill="#35df39" stroke="#03aa10" /><rect x="1508.0" y="401.5" width="12.0" height="3" fill="#80c9ff" stroke="#0b6cba" /><rect x="1521.0" y="430.0" width="12.0" height="129.15" fill="#fff874" stroke="#eb9c26" /><rect x="1508.0" y="573.5" width="12.0" height="3" fill="#80c9ff" stroke="#0b6cba" /><rect x="1521.0" y="630.5" width="12.0" height="3" fill="#fff874" stroke="#eb9c26" /><rect x="1495.0" y="688.0" width="12.0" height="3" fill="#35df39" stroke="#03aa10" /><rect x="1508.0" y="688.0" width="12.0" height="3" fill="#80c9ff" stroke="#0b6cba" /><rect x="1508.0" y="774.0" width="12.0" height="3" fill="#80c9ff" stroke="#0b6cba" /><rect x="1521.0" y="774.0" width="12.0" height="3" fill="#fff874" stroke="#eb9c26" /><rect x="1508.0" y="860.0" width="12.0" height="57.0" fill="#80c9ff" stroke="#0b6cba" /><rect x="1635.0" y="115.0" width="12.0" height="3" fill="#fff874" stroke="#eb9c26" /><rect x="1609.0" y="158.0" width="12.0" height="3" fill="#35df39" stroke="#03aa10" /><rect x="1596.0" y="201.0" width="12.0" height="3" fill="#ff3c3c" stroke="#c71f1f" /><rect x="1622.0" y="229.5" width="12.0" height="3" fill="#80c9ff" stroke="#0b6cba" /><rect x="1609.0" y="272.5" width="12.0" height="3" fill="#35df39" stroke="#03aa10" /><rect x="1596.0" y="315.5" width="12.0" height="232.20000000000002" fill="#ff3c3c" stroke="#c71f1f" /><rect x="1609.0" y="573.5" width="12.0" height="3" fill="#35df39" stroke="#03aa10" /><rect x="1596.0" y="631.0" width="12.0" height="3" fill="#ff3c3c" stroke="#c71f1f" /><rect x="1609.0" y="688.0" width="12.0" height="180.9" fill="#35df39" stroke="#03aa10" /><rect x="1622.0" y="688.0" width="12.0" height="180.9" fill="#80c9ff" stroke="#0b6cba" /><rect x="1596.0" y="889.0" width="12.0" height="3" fill="#ff3c3c" stroke="#c71f1f" /><rect x="1609.0" y="903.0" width="12.0" height="3" fill="#35df39" stroke="#03aa10" /><rect x="1622.0" y="0.0" width="12.0" height="69.20058139534883" fill="#80c9ff" stroke="#0b6cba" /><rect x="1736.0" y="0.0" width="12.0" height="103.05" fill="#80c9ff" stroke="#0b6cba" /><rect x="1736.0" y="114.5" width="12.0" height="103.05" fill="#80c9ff" stroke="#0b6cba" /><rect x="1749.0" y="114.5" width="12.0" height="103.05" fill="#fff874" stroke="#eb9c26" /><rect x="1736.0" y="229.0" width="12.0" height="3" fill="#80c9ff" stroke="#0b6cba" /><rect x="1710.0" y="258.0" width="12.0" height="3" fill="#ff3c3c" stroke="#c71f1f" /><rect x="1710.0" y="272.0" width="12.0" height="3" fill="#ff3c3c" stroke="#c71f1f" /><rect x="1710.0" y="286.5" width="12.0" height="3" fill="#ff3c3c" stroke="#c71f1f" /><rect x="1710.0" y="301.0" width="12.0" height="3" fill="#ff3c3c" stroke="#c71f1f" /><rect x="1723.0" y="315.0" width="12.0" height="3" fill="#35df39" stroke="#03aa10" /><rect x="1710.0" y="344.0" width="12.0" height="3" fill="#ff3c3c" stroke="#c71f1f" /><rect x="1710.0" y="358.0" width="12.0" height="3" fill="#ff3c3c" stroke="#c71f1f" /><rect x="1710.0" y="372.5" width="12.0" height="3" fill="#ff3c3c" stroke="#c71f1f" /><rect x="1710.0" y="387.0" width="12.0" height="3" fill="#ff3c3c" stroke="#c71f1f" /><rect x="1723.0" y="401.0" width="12.0" height="3" fill="#35df39" stroke="#03aa10" /><rect x="1736.0" y="401.0" width="12.0" height="3" fill="#80c9ff" stroke="#0b6cba" /><rect x="1710.0" y="430.0" width="12.0" height="3" fill="#ff3c3c" stroke="#c71f1f" /><rect x="1710.0" y="444.0" width="12.0" height="3" fill="#ff3c3c" stroke="#c71f1f" /><rect x="1710.0" y="458.5" width="12.0" height="3" fill="#ff3c3c" stroke="#c71f1f" /><rect x="1710.0" y="473.0" width="12.0" height="3" fill="#ff3c3c" stroke="#c71f1f" /><rect x="1736.0" y="487.0" width="12.0" height="3" fill="#80c9ff" stroke="#0b6cba" /><rect x="1710.0" y="516.0" width="12.0" height="3" fill="#ff3c3c" stroke="#c71f1f" /><rect x="1710.0" y="530.0" width="12.0" height="3" fill="#ff3c3c" stroke="#c71f1f" /><rect x="1710.0" y="544.5" width="12.0" height="3" fill="#ff3c3c" stroke="#c71f1f" /><rect x="1710.0" y="559.0" width="12.0" height="3" fill="#ff3c3c" stroke="#c71f1f" /><rect x="1723.0" y="573.0" width="12.0" height="3" fill="#35df39" stroke="#03aa10" /><rect x="1710.0" y="602.0" width="12.0" height="3" fill="#ff3c3c" stroke="#c71f1f" /><rect x="1736.0" y="630.5" width="12.0" height="3" fill="#80c9ff" stroke="#0b6cba" /><rect x="1710.0" y="659.0" width="12.0" height="3" fill="#ff3c3c" stroke="#c71f1f" /><rect x="1723.0" y="688.0" width="12.0" height="3" fill="#35df39" stroke="#03aa10" /><rect x="1710.0" y="716.5" width="12.0" height="3" fill="#ff3c3c" stroke="#c71f1f" /><rect x="1710.0" y="731.0" width="12.0" height="3" fill="#ff3c3c" stroke="#c71f1f" /><rect x="1710.0" y="745.0" width="12.0" height="3" fill="#ff3c3c" stroke="#c71f1f" /><rect x="1710.0" y="759.5" width="12.0" height="3" fill="#ff3c3c" stroke="#c71f1f" /><rect x="1736.0" y="774.0" width="12.0" height="3" fill="#80c9ff" stroke="#0b6cba" /><rect x="1710.0" y="802.5" width="12.0" height="3" fill="#ff3c3c" stroke="#c71f1f" /><rect x="1710.0" y="817.0" width="12.0" height="3" fill="#ff3c3c" stroke="#c71f1f" /><rect x="1710.0" y="831.0" width="12.0" height="3" fill="#ff3c3c" stroke="#c71f1f" /><rect x="1710.0" y="845.5" width="12.0" height="3" fill="#ff3c3c" stroke="#c71f1f" /><rect x="1723.0" y="860.0" width="12.0" height="3" fill="#35df39" stroke="#03aa10" /><rect x="1736.0" y="860.0" width="12.0" height="3" fill="#80c9ff" stroke="#0b6cba" /><rect x="1710.0" y="888.5" width="12.0" height="3" fill="#ff3c3c" stroke="#c71f1f" /><rect x="1710.0" y="903.0" width="12.0" height="3" fill="#ff3c3c" stroke="#c71f1f" /><rect x="1824.0" y="0.0" width="12.0" height="3" fill="#ff3c3c" stroke="#c71f1f" /><rect x="1824.0" y="14.5" width="12.0" height="3" fill="#ff3c3c" stroke="#c71f1f" /><rect x="1850.0" y="29.0" width="12.0" height="3" fill="#80c9ff" stroke="#0b6cba" /><rect x="1824.0" y="57.5" width="12.0" height="3" fill="#ff3c3c" stroke="#c71f1f" /><rect x="1824.0" y="72.0" width="12.0" height="3" fill="#ff3c3c" stroke="#c71f1f" /><rect x="1824.0" y="86.0" width="12.0" height="3" fill="#ff3c3c" stroke="#c71f1f" /><rect x="1824.0" y="100.5" width="12.0" height="3" fill="#ff3c3c" stroke="#c71f1f" /><rect x="1837.0" y="115.0" width="12.0" height="3" fill="#35df39" stroke="#03aa10" /><rect x="1850.0" y="115.0" width="12.0" height="3" fill="#80c9ff" stroke="#0b6cba" /><rect x="1824.0" y="143.5" width="12.0" height="3" fill="#ff3c3c" stroke="#c71f1f" /><rect x="1837.0" y="172.0" width="12.0" height="3" fill="#35df39" stroke="#03aa10" /><rect x="1824.0" y="201.0" width="12.0" height="3" fill="#ff3c3c" stroke="#c71f1f" /></svg>