<?xml version="1.0" encoding="UTF-8"?><svg xmlns="http://www.w3.org/2000/svg" xmlns:xlink="http://www.w3.org/1999/xlink"     width="1824" height="1184.0" viewBox="0 0 1824 1184.0"><defs></defs><rect x="0" y="0" width="64" height="1152.0" fill="black" /><rect x="0" y="0.0" width="64" height="1" fill="white" fill-opacity="0.5" /><text x="74" y="14.0" font-size="14" fill="white" font-family="monospace" dominant-baseline="ideographic">1</text><rect x="0" y="72.0" width="64" height="1" fill="white" fill-opacity="0.2" /><rect x="0" y="144.0" width="64" height="1" fill="white" fill-opacity="0.2" /><rect x="0" y="216.0" width="64" height="1" fill="white" fill-opacity="0.2" /><rect x="0" y="288.0" width="64" height="1" fill="white" fill-opacity="0.5" /><text x="74" y="302.0" font-size="14" fill="white" font-family="monospace" dominant-baseline="ideographic">2</text><rect x="0" y="360.0" width="64" height="1" fill="white" fill-opacity="0.2" /><rect x="0" y="432.0" width="64" height="1" fill="white" fill-opacity="0.2" /><rect x="0" y="504.0" width="64" height="1" fill="white" fill-opacity="0.2" /><rect x="0" y="576.0" width="64" height="1" fill="white" fill-opacity="0.5" /><text x="74" y="590.0" font-size="14" fill="white" font-family="monospace" dominant-baseline="ideographic">3</text><rect x="0" y="648.0" width="64" height="1" fill="white" fill-opacity="0.2" /><rect x="0" y="720.0" width="64" height="1" fill="white" fill-opacity="0.2" /><rect x="0" y="792.0" width="64" height="1" fill="white" fill-opacity="0.2" /><rect x="0" y="864.0" width="64" height="1" fill="white" fill-opacity="0.5" /><text x="74" y="878.0" font-size="14" fill="white" font-family="monospace" dominant-baseline="ideographic">4</text><rect x="0" y="936.0" width="64" height="1" fill="white" fill-opacity="0.2" /><rect x="0" y="1008.0" width="64" height="1" fill="white" fill-opacity="0.2" /><rect x="0" y="1080.0" width="64" height="1" fill="white" fill-opacity="0.2" /><rect x="0" y="1152.0" width="64" height="1" fill="white" fill-opacity="0.5" /><text x="74" y="1166.0" font-size="14" fill="white" font-family="monospace" dominant-baseline="ideographic">5</text><rect x="0" y="0.0" width="64" height="1" fill="aqua" fill-opacity="0.75" /><text x="0" y="14.0" font-size="14" fill="aqua" fill-opacity="0.75" font-family="monospace">Intro</text><rect x="0" y="0.0" width="64" height="1" fill="lime" fill-opacity="0.75" /><text x="74" y="28.0" font-size="14" fill="lime" font-family="monospace" dominant-baseline="ideographic">125</text><rect x="114" y="0" width="64" height="1152.0" fill="black" /><rect x="114" y="0.0" width="64" height="1" fill="white" fill-opacity="0.5" /><text x="188" y="14.0" font-size="14" fill="white" font-family="monospace" dominant-baseline="ideographic">5</text><rect x="114" y="72.0" width="64" height="1" fill="white" fill-opacity="0.2" /><rect x="114" y="144.0" width="64" height="1" fill="white" fill-opacity="0.2" /><rect x="114" y="216.0" width="64" height="1" fill="white" fill-opacity="0.2" /><rect x="114" y="288.0" width="64" height="1" fill="white" fill-opacity="0.5" /><text x="188" y="302.0" font-size="14" fill="white" font-family="monospace" dominant-baseline="ideographic">6</text><rect x="114" y="360.0" width="64" height="1" fill="white" fill-opacity="0.2" /><rect x="114" y="432.0" width="64" height="1" fill="white" fill-opacity="0.2" /><rect x="114" y="504.0" width="64" height="1" fill="white" fill-opacity="0.2" /><rect x="114" y="576.0" width="64" height="1" fill="white" fill-opacity="0.5" /><text x="188" y="590.0" font-size="14" fill="white" font-family="monospace" dominant-baseline="ideographic">7</text><rect x="114" y="648.0" width="64" height="1" fill="white" fill-opacity="0.2" /><rect x="114" y="720.0" width="64" height="1" fill="white" fill-opacity="0.2" /><rect x="114" y="792.0" width="64" height="1" fill="white" fill-opacity="0.2" /><rect x="114" y="864.0" width="64" height="1" fill="white" fill-opacity="0.5" /><text x="188" y="878.0" font-size="14" fill="white" font-family="monospace" dominant-baseline="ideographic">8</text><rect x="114" y="936.0" width="64" height="1" fill="white" fill-opacity="0.2" /><rect x="114" y="1008.0" width="64" height="1" fill="white" fill-opacity="0.2" /><rect x="114" y="1080.0" width="64" height="1" fill="white" fill-opacity="0.2" /><rect x="114" y="1152.0" width="64" height="1" fill="white" fill-opacity="0.5" /><text x="188" y="1166.0" font-size="14" fill="white" font-family="monospace" dominant-baseline="ideographic">9</text><rect x="228" y="0" width="64" height="1152.0" fill="black" /><rect x="228" y="0.0" width="64" height="1" fill="white" fill-opacity="0.5" /><text x="302" y="14.0" font-size="14" fill="white" font-family="monospace" dominant-baseline="ideographic">9</text><rect x="228" y="72.0" width="64" height="1" fill="white" fill-opacity="0.2" /><rect x="228" y="144.0" width="64" height="1" fill="white" fill-opacity="0.2" /><rect x="228" y="216.0" width="64" height="1" fill="white" fill-opacity="0.2" /><rect x="228" y="288.0" width="64" height="1" fill="white" fill-opacity="0.5" /><text x="302" y="302.0" font-size="14" fill="white" font-family="monospace" dominant-baseline="ideographic">10</text><rect x="228" y="360.0" width="64" height="1" fill="white" fill-opacity="0.2" /><rect x="228" y="432.0" width="64" height="1" fill="white" fill-opacity="0.2" /><rect x="228" y="504.0" width="64" height="1" fill="white" fill-opacity="0.2" /><rect x="228" y="576.0" width="64" height="1" fill="white" fill-opacity="0.5" /><text x="302" y="590.0" font-size="14" fill="white" font-family="monospace" dominant-baseline="ideographic">11</text><rect x="228" y="648.0" width="64" height="1" fill="white" fill-opacity="0.2" /><rect x="228" y="720.0" width="64" height="1" fill="white" fill-opacity="0.2" /><rect x="228" y="792.0" width="64" height="1" fill="white" fill-opacity="0.2" /><rect x="228" y="864.0" width="64" height="1" fill="white" fill-opacity="0.5" /><text x="302" y="878.0" font-size="14" fill="white" font-family="monospace" dominant-baseline="ideographic">12</text><rect x="228" y="936.0" width="64" height="1" fill="white" fill-opacity="0.2" /><rect x="228" y="1008.0" width="64" height="1" fill="white" fill-opacity="0.2" /><rect x="228" y="1080.0" width="64" height="1" fill="white" fill-opacity="0.2" /><rect x="228" y="1152.0" width="64" height="1" fill="white" fill-opacity="0.5" /><text x="302" y="1166.0" font-size="14" fill="white" font-family="monospace" dominant-baseline="ideographic">13</text><rect x="228" y="576.0" width="64" height="1" fill="aqua" fill-opacity="0.75" /><text x="228" y="590.0" font-size="14" fill="aqua" fill-opacity="0.75" font-family="monospace">Phrase A</text><rect x="342" y="0" width="64" height="1152.0" fill="black" /><rect x="342" y="0.0" width="64" height="1" fill="white" fill-opacity="0.5" /><text x="416" y="14.0" font-size="14" fill="white" font-family="monospace" dominant-baseline="ideographic">13</text><rect x="342" y="72.0" width="64" height="1" fill="white" fill-opacity="0.2" /><rect x="342" y="144.0" width="64" height="1" fill="white" fill-opacity="0.2" /><rect x="342" y="216.0" width="64" height="1" fill="white" fill-opacity="0.2" /><rect x="342" y="288.0" width="64" height="1" fill="white" fill-opacity="0.5" /><text x="416" y="302.0" font-size="14" fill="white" font-family="monospace" dominant-baseline="ideographic">14</text><rect x="342" y="360.0" width="64" height="1" fill="white" fill-opacity="0.2" /><rect x="342" y="432.0" width="64" height="1" fill="white" fill-opacity="0.2" /><rect x="342" y="504.0" width="64" height="1" fill="white" fill-opacity="0.2" /><rect x="342" y="576.0" width="64" height="1" fill="white" fill-opacity="0.5" /><text x="416" y="590.0" font-size="14" fill="white" font-family="monospace" dominant-baseline="ideographic">15</text><rect x="342" y="648.0" width="64" height="1" fill="white" fill-opacity="0.2" /><rect x="342" y="720.0" width="64" height="1" fill="white" fill-opacity="0.2" /><rect x="342" y="792.0" width="64" height="1" fill="white" fill-opacity="0.2" /><rect x="342" y="864.0" width="64" height="1" fill="white" fill-opacity="0.5" /><text x="416" y="878.0" font-size="14" fill="white" font-family="monospace" dominant-baseline="ideographic">16</text><rect x="342" y="936.0" width="64" height="1" fill="white" fill-opacity="0.2" /><rect x="342" y="1008.0" width="64" height="1" fill="white" fill-opacity="0.2" /><rect x="342" y="1080.0" width="64" height="1" fill="white" fill-opacity="0.2" /><rect x="342" y="1152.0" width="64" height="1" fill="white" fill-opacity="0.5" /><text x="416" y="1166.0" font-size="14" fill="white" font-family="monospace" dominant-baseline="ideographic">17</text><rect x="456" y="0" width="64" height="1152.0" fill="black" /><rect x="456" y="0.0" width="64" height="1" fill="white" fill-opacity="0.5" /><text x="530" y="14.0" font-size="14" fill="white" font-family="monospace" dominant-baseline="ideographic">17</text><rect x="456" y="72.0" width="64" height="1" fill="white" fill-opacity="0.2" /><rect x="456" y="144.0" width="64" height="1" fill="white" fill-opacity="0.2" /><rect x="456" y="216.0" width="64" height="1" fill="white" fill-opacity="0.2" /><rect x="456" y="288.0" width="64" height="1" fill="white" fill-opacity="0.5" /><text x="530" y="302.0" font-size="14" fill="white" font-family="monospace" dominant-baseline="ideographic">18</text><rect x="456" y="360.0" width="64" height="1" fill="white" fill-opacity="0.2" /><rect x="456" y="432.0" width="64" height="1" fill="white" fill-opacity="0.2" /><rect x="456" y="504.0" width="64" height="1" fill="white" fill-opacity="0.2" /><rect x="456" y="576.0" width="64" height="1" fill="white" fill-opacity="0.5" /><text x="530" y="590.0" font-size="14" fill="white" font-family="monospace" dominant-baseline="ideographic">19</text><rect x="456" y="648.0" width="64" height="1" fill="white" fill-opacity="0.2" /><rect x="456" y="720.0" width="64" height="1" fill="white" fill-opacity="0.2" /><rect x="456" y="792.0" width="64" height="1" fill="white" fill-opacity="0.2" /><rect x="456" y="864.0" width="64" height="1" fill="white" fill-opacity="0.5" /><text x="530" y="878.0" font-size="14" fill="white" font-family="monospace" dominant-baseline="ideographic">20</text><rect x="456" y="936.0" width="64" height="1" fill="white" fill-opacity="0.2" /><rect x="456" y="1008.0" width="64" height="1" fill="white" fill-opacity="0.2" /><rect x="456" y="1080.0" width="64" height="1" fill="white" fill-opacity="0.2" /><rect x="456" y="1152.0" width="64" height="1" fill="white" fill-opacity="0.5" /><text x="530" y="1166.0" font-size="14" fill="white" font-family="monospace" dominant-baseline="ideographic">21</text><rect x="456" y="576.0" width="64" height="1" fill="aqua" fill-opacity="0.75" /><text x="456" y="590.0" font-size="14" fill="aqua" fill-opacity="0.75" font-family="monospace">Phrase B</text><rect x="570" y="0" width="64" height="1152.0" fill="black" /><rect x="570" y="0.0" width="64" height="1" fill="white" fill-opacity="0.5" /><text x="644" y="14.0" font-size="14" fill="white" font-family="monospace" dominant-baseline="ideographic">21</text><rect x="570" y="72.0" width="64" height="1" fill="white" fill-opacity="0.2" /><rect x="570" y="144.0" width="64" height="1" fill="white" fill-opacity="0.2" /><rect x="570" y="216.0" width="64" height="1" fill="white" fill-opacity="0.2" /><rect x="570" y="288.0" width="64" height="1" fill="white" fill-opacity="0.5" /><text x="644" y="302.0" font-size="14" fill="white" font-family="monospace" dominant-baseline="ideographic">22</text><rect x="570" y="360.0" width="64" height="1" fill="white" fill-opacity="0.2" /><rect x="570" y="432.0" width="64" height="1" fill="white" fill-opacity="0.2" /><rect x="570" y="504.0" width="64" height="1" fill="white" fill-opacity="0.2" /><rect x="570" y="576.0" width="64" height="1" fill="white" fill-opacity="0.5" /><text x="644" y="590.0" font-size="14" fill="white" font-family="monospace" dominant-baseline="ideographic">23</text><rect x="570" y="648.0" width="64" height="1" fill="white" fill-opacity="0.2" /><rect x="570" y="720.0" width="64" height="1" fill="white" fill-opacity="0.2" /><rect x="570" y="792.0" width="64" height="1" fill="white" fill-opacity="0.2" /><rect x="570" y="864.0" width="64" height="1" fill="white" fill-opacity="0.5" /><text x="644" y="878.0" font-size="14" fill="white" font-family="monospace" dominant-baseline="ideographic">24</text><rect x="570" y="936.0" width="64" height="1" fill="white" fill-opacity="0.2" /><rect x="570" y="1008.0" width="64" height="1" fill="white" fill-opacity="0.2" /><rect x="570" y="1080.0" width="64" height="1" fill="white" fill-opacity="0.2" /><rect x="570" y="1152.0" width="64" height="1" fill="white" fill-opacity="0.5" /><text x="644" y="1166.0" font-size="14" fill="white" font-family="monospace" dominant-baseline="ideographic">25</text><rect x="684" y="0" width="64" height="1152.0" fill="black" /><rect x="684" y="0.0" width="64" height="1" fill="white" fill-opacity="0.5" /><text x="758" y="14.0" font-size="14" fill="white" font-family="monospace" dominant-baseline="ideographic">25</text><rect x="684" y="72.0" width="64" height="1" fill="white" fill-opacity="0.2" /><rect x="684" y="144.0" width="64" height="1" fill="white" fill-opacity="0.2" /><rect x="684" y="216.0" width="64" height="1" fill="white" fill-opacity="0.2" /><rect x="684" y="288.0" width="64" height="1" fill="white" fill-opacity="0.5" /><text x="758" y="302.0" font-size="14" fill="white" font-family="monospace" dominant-baseline="ideographic">26</text><rect x="684" y="360.0" width="64" height="1" fill="white" fill-opacity="0.2" /><rect x="684" y="432.0" width="64" height="1" fill="white" fill-opacity="0.2" /><rect x="684" y="504.0" width="64" height="1" fill="white" fill-opacity="0.2" /><rect x="684" y="576.0" width="64" height="1" fill="white" fill-opacity="0.5" /><text x="758" y="590.0" font-size="14" fill="white" font-family="monospace" dominant-baseline="ideographic">27</text><rect x="684" y="648.0" width="64" height="1" fill="white" fill-opacity="0.2" /><rect x="684" y="720.0" width="64" height="1" fill="white" fill-opacity="0.2" /><rect x="684" y="792.0" width="64" height="1" fill="white" fill-opacity="0.2" /><rect x="684" y="864.0" width="64" height="1" fill="white" fill-opacity="0.5" /><text x="758" y="878.0" font-size="14" fill="white" font-family="monospace" dominant-baseline="ideographic">28</text><rect x="684" y="936.0" width="64" height="1" fill="white" fill-opacity="0.2" /><rect x="684" y="1008.0" width="64" height="1" fill="white" fill-opacity="0.2" /><rect x="684" y="1080.0" width="64" height="1" fill="white" fill-opacity="0.2" /><rect x="684" y="1152.0" width="64" height="1" fill="white" fill-opacity="0.5" /><text x="758" y="1166.0" font-size="14" fill="white" font-family="monospace" dominant-baseline="ideographic">29</text><rect x="684" y="576.0" width="64" height="1" fill="aqua" fill-opacity="0.75" /><text x="684" y="590.0" font-size="14" fill="aqua" fill-opacity="0.75" font-family="monospace">Phrase C</text><rect x="798" y="0" width="64" height="1152.0" fill="black" /><rect x="798" y="0.0" width="64" height="1" fill="white" fill-opacity="0.5" /><text x="872" y="14.0" font-size="14" fill="white" font-family="monospace" dominant-baseline="ideographic">29</text><rect x="798" y="72.0" width="64" height="1" fill="white" fill-opacity="0.2" /><rect x="798" y="144.0" width="64" height="1" fill="white" fill-opacity="0.2" /><rect x="798" y="216.0" width="64" height="1" fill="white" fill-opacity="0.2" /><rect x="798" y="288.0" width="64" height="1" fill="white" fill-opacity="0.5" /><text x="872" y="302.0" font-size="14" fill="white" font-family="monospace" dominant-baseline="ideographic">30</text><rect x="798" y="360.0" width="64" height="1" fill="white" fill-opacity="0.2" /><rect x="798" y="432.0" width="64" height="1" fill="white" fill-opacity="0.2" /><rect x="798" y="504.0" width="64" height="1" fill="white" fill-opacity="0.2" /><rect x="798" y="576.0" width="64" height="1" fill="white" fill-opacity="0.5" /><text x="872" y="590.0" font-size="14" fill="white" font-family="monospace" dominant-baseline="ideographic">31</text><rect x="798" y="648.0" width="64" height="1" fill="white" fill-opacity="0.2" /><rect x="798" y="720.0" width="64" height="1" fill="white" fill-opacity="0.2" /><rect x="798" y="792.0" width="64" height="1" fill="white" fill-opacity="0.2" /><rect x="798" y="864.0" width="64" height="1" fill="white" fill-opacity="0.5" /><text x="872" y="878.0" font-size="14" fill="white" font-family="monospace" dominant-baseline="ideographic">32</text><rect x="798" y="936.0" width="64" height="1" fill="white" fill-opacity="0.2" /><rect x="798" y="1008.0" width="64" height="1" fill="white" fill-opacity="0.2" /><rect x="798" y="1080.0" width="64" height="1" fill="white" fill-opacity="0.2" /><rect x="798" y="1152.0" width="64" height="1" fill="white" fill-opacity="0.5" /><text x="872" y="1166.0" font-size="14" fill="white" font-family="monospace" dominant-baseline="ideographic">33</text><rect x="912" y="0" width="64" height="1152.0" fill="black" /><rect x="912" y="0.0" width="64" height="1" fill="white" fill-opacity="0.5" /><text x="986" y="14.0" font-size="14" fill="white" font-family="monospace" dominant-baseline="ideographic">33</text><rect x="912" y="72.0" width="64" height="1" fill="white" fill-opacity="0.2" /><rect x="912" y="144.0" width="64" height="1" fill="white" fill-opacity="0.2" /><rect x="912" y="216.0" width="64" height="1" fill="white" fill-opacity="0.2" /><rect x="912" y="288.0" width="64" height="1" fill="white" fill-opacity="0.5" /><text x="986" y="302.0" font-size="14" fill="white" font-family="monospace" dominant-baseline="ideographic">34</text><rect x="912" y="360.0" width="64" height="1" fill="white" fill-opacity="0.2" /><rect x="912" y="432.0" width="64" height="1" fill="white" fill-opacity="0.2" /><rect x="912" y="504.0" width="64" height="1" fill="white" fill-opacity="0.2" /><rect x="912" y="576.0" width="64" height="1" fill="white" fill-opacity="0.5" /><text x="986" y="590.0" font-size="14" fill="white" font-family="monospace" dominant-baseline="ideographic">35</text><rect x="912" y="648.0" width="64" height="1" fill="white" fill-opacity="0.2" /><rect x="912" y="720.0" width="64" height="1" fill="white" fill-opacity="0.2" /><rect x="912" y="792.0" width="64" height="1" fill="white" fill-opacity="0.2" /><rect x="912" y="864.0" width="64" height="1" fill="white" fill-opacity="0.5" /><text x="986" y="878.0" font-size="14" fill="white" font-family="monospace" dominant-baseline="ideographic">36</text><rect x="912" y="936.0" width="64" height="1" fill="white" fill-opacity="0.2" /><rect x="912" y="1008.0" width="64" height="1" fill="white" fill-opacity="0.2" /><rect x="912" y="1080.0" width="64" height="1" fill="white" fill-opacity="0.2" /><rect x="912" y="1152.0" width="64" height="1" fill="white" fill-opacity="0.5" /><text x="986" y="1166.0" font-size="14" fill="white" font-family="monospace" dominant-baseline="ideographic">37</text><rect x="912" y="576.0" width="64" height="1" fill="aqua" fill-opacity="0.75" /><text x="912" y="590.0" font-size="14" fill="aqua" fill-opacity="0.75" font-family="monospace">Special</text><rect x="1026" y="0" width="64" height="1152.0" fill="black" /><rect x="1026" y="0.0" width="64" height="1" fill="white" fill-opacity="0.5" /><text x="1100" y="14.0" font-size="14" fill="white" font-family="monospace" dominant-baseline="ideographic">37</text><rect x="1026" y="72.0" width="64" height="1" fill="white" fill-opacity="0.2" /><rect x="1026" y="144.0" width="64" height="1" fill="white" fill-opacity="0.2" /><rect x="1026" y="216.0" width="64" height="1" fill="white" fill-opacity="0.2" /><rect x="1026" y="288.0" width="64" height="1" fill="white" fill-opacity="0.5" /><text x="1100" y="302.0" font-size="14" fill="white" font-family="monospace" dominant-baseline="ideographic">38</text><rect x="1026" y="360.0" width="64" height="1" fill="white" fill-opacity="0.2" /><rect x="1026" y="432.0" width="64" height="1" fill="white" fill-opacity="0.2" /><rect x="1026" y="504.0" width="64" height="1" fill="white" fill-opacity="0.2" /><rect x="1026" y="576.0" width="64" height="1" fill="white" fill-opacity="0.5" /><text x="1100" y="590.0" font-size="14" fill="white" font-family="monospace" dominant-baseline="ideographic">39</text><rect x="1026" y="648.0" width="64" height="1" fill="white" fill-opacity="0.2" /><rect x="1026" y="720.0" width="64" height="1" fill="white" fill-opacity="0.2" /><rect x="1026" y="792.0" width="64" height="1" fill="white" fill-opacity="0.2" /><rect x="1026" y="864.0" width="64" height="1" fill="white" fill-opacity="0.5" /><text x="1100" y="878.0" font-size="14" fill="white" font-family="monospace" dominant-baseline="ideographic">40</text><rect x="1026" y="936.0" width="64" height="1" fill="white" fill-opacity="0.2" /><rect x="1026" y="1008.0" width="64" height="1" fill="white" fill-opacity="0.2" /><rect x="1026" y="1080.0" width="64" height="1" fill="white" fill-opacity="0.2" /><rect x="1026" y="1152.0" width="64" height="1" fill="white" fill-opacity="0.5" /><text x="1100" y="1166.0" font-size="14" fill="white" font-family="monospace" dominant-baseline="ideographic">41</text><rect x="1026" y="576.0" width="64" height="1" fill="aqua" fill-opacity="0.75" /><text x="1026" y="590.0" font-size="14" fill="aqua" fill-opacity="0.75" font-family="monospace">Phrase D</text><rect x="1140" y="0" width="64" height="1152.0" fill="black" /><rect x="1140" y="0.0" width="64" height="1" fill="white" fill-opacity="0.5" /><text x="1214" y="14.0" font-size="14" fill="white" font-family="monospace" dominant-baseline="ideographic">41</text><rect x="1140" y="72.0" width="64" height="1" fill="white" fill-opacity="0.2" /><rect x="1140" y="144.0" width="64" height="1" fill="white" fill-opacity="0.2" /><rect x="1140" y="216.0" width="64" height="1" fill="white" fill-opacity="0.2" /><rect x="1140" y="288.0" width="64" height="1" fill="white" fill-opacity="0.5" /><text x="1214" y="302.0" font-size="14" fill="white" font-family="monospace" dominant-baseline="ideographic">42</text><rect x="1140" y="360.0" width="64" height="1" fill="white" fill-opacity="0.2" /><rect x="1140" y="432.0" width="64" height="1" fill="white" fill-opacity="0.2" /><rect x="1140" y="504.0" width="64" height="1" fill="white" fill-opacity="0.2" /><rect x="1140" y="576.0" width="64" height="1" fill="white" fill-opacity="0.5" /><text x="1214" y="590.0" font-size="14" fill="white" font-family="monospace" dominant-baseline="ideographic">43</text><rect x="1140" y="648.0" width="64" height="1" fill="white" fill-opacity="0.2" /><rect x="1140" y="720.0" width="64" height="1" fill="white" fill-opacity="0.2" /><rect x="1140" y="792.0" width="64" height="1" fill="white" fill-opacity="0.2" /><rect x="1140" y="864.0" width="64" height="1" fill="white" fill-opacity="0.5" /><text x="1214" y="878.0" font-size="14" fill="white" font-family="monospace" dominant-baseline="ideographic">44</text><rect x="1140" y="936.0" width="64" height="1" fill="white" fill-opacity="0.2" /><rect x="1140" y="1008.0" width="64" height="1" fill="white" fill-opacity="0.2" /><rect x="1140" y="1080.0" width="64" height="1" fill="white" fill-opacity="0.2" /><rect x="1140" y="1152.0" width="64" height="1" fill="white" fill-opacity="0.5" /><text x="1214" y="1166.0" font-size="14" fill="white" font-family="monospace" dominant-baseline="ideographic">45</text><rect x="1254" y="0" width="64" height="1152.0" fill="black" /><rect x="1254" y="0.0" width="64" height="1" fill="white" fill-opacity="0.5" /><text x="1328" y="14.0" font-size="14" fill="white" font-family="monospace" dominant-baseline="ideographic">45</text><rect x="1254" y="72.0" width="64" height="1" fill="white" fill-opacity="0.2" /><rect x="1254" y="144.0" width="64" height="1" fill="white" fill-opacity="0.2" /><rect x="1254" y="216.0" width="64" height="1" fill="white" fill-opacity="0.2" /><rect x="1254" y="288.0" width="64" height="1" fill="white" fill-opacity="0.5" /><text x="1328" y="302.0" font-size="14" fill="white" font-family="monospace" dominant-baseline="ideographic">46</text><rect x="1254" y="360.0" width="64" height="1" fill="white" fill-opacity="0.2" /><rect x="1254" y="432.0" width="64" height="1" fill="white" fill-opacity="0.2" /><rect x="1254" y="504.0" width="64" height="1" fill="white" fill-opacity="0.2" /><rect x="1254" y="576.0" width="64" height="1" fill="white" fill-opacity="0.5" /><text x="1328" y="590.0" font-size="14" fill="white" font-family="monospace" dominant-baseline="ideographic">47</text><rect x="1254" y="648.0" width="64" height="1" fill="white" fill-opacity="0.2" /><rect x="1254" y="720.0" width="64" height="1" fill="white" fill-opacity="0.2" /><rect x="1254" y="792.0" width="64" height="1" fill="white" fill-opacity="0.2" /><rect x="1254" y="864.0" width="64" height="1" fill="white" fill-opacity="0.5" /><text x="1328" y="878.0" font-size="14" fill="white" font-family="monospace" dominant-baseline="ideographic">48</text><rect x="1254" y="936.0" width="64" height="1" fill="white" fill-opacity="0.2" /><rect x="1254" y="1008.0" width="64" height="1" fill="white" fill-opacity="0.2" /><rect x="1254" y="1080.0" width="64" height="1" fill="white" fill-opacity="0.2" /><rect x="1254" y="1152.0" width="64" height="1" fill="white" fill-opacity="0.5" /><text x="1328" y="1166.0" font-size="14" fill="white" font-family="monospace" dominant-baseline="ideographic">49</text><rect x="1254" y="576.0" width="64" height="1" fill="aqua" fill-opacity="0.75" /><text x="1254" y="590.0" font-size="14" fill="aqua" fill-opacity="0.75" font-family="monospace">Special</text><rect x="1368" y="0" width="64" height="1152.0" fill="black" /><rect x="1368" y="0.0" width="64" height="1" fill="white" fill-opacity="0.5" /><text x="1442" y="14.0" font-size="14" fill="white" font-family="monospace" dominant-baseline="ideographic">49</text><rect x="1368" y="72.0" width="64" height="1" fill="white" fill-opacity="0.2" /><rect x="1368" y="144.0" width="64" height="1" fill="white" fill-opacity="0.2" /><rect x="1368" y="216.0" width="64" height="1" fill="white" fill-opacity="0.2" /><rect x="1368" y="288.0" width="64" height="1" fill="white" fill-opacity="0.5" /><text x="1442" y="302.0" font-size="14" fill="white" font-family="monospace" dominant-baseline="ideographic">50</text><rect x="1368" y="360.0" width="64" height="1" fill="white" fill-opacity="0.2" /><rect x="1368" y="432.0" width="64" height="1" fill="white" fill-opacity="0.2" /><rect x="1368" y="504.0" width="64" height="1" fill="white" fill-opacity="0.2" /><rect x="1368" y="576.0" width="64" height="1" fill="white" fill-opacity="0.5" /><text x="1442" y="590.0" font-size="14" fill="white" font-family="monospace" dominant-baseline="ideographic">51</text><rect x="1368" y="648.0" width="64" height="1" fill="white" fill-opacity="0.2" /><rect x="1368" y="720.0" width="64" height="1" fill="white" fill-opacity="0.2" /><rect x="1368" y="792.0" width="64" height="1" fill="white" fill-opacity="0.2" /><rect x="1368" y="864.0" width="64" height="1" fill="white" fill-opacity="0.5" /><text x="1442" y="878.0" font-size="14" fill="white" font-family="monospace" dominant-baseline="ideographic">52</text><rect x="1368" y="936.0" width="64" height="1" fill="white" fill-opacity="0.2" /><rect x="1368" y="1008.0" width="64" height="1" fill="white" fill-opacity="0.2" /><rect x="1368" y="1080.0" width="64" height="1" fill="white" fill-opacity="0.2" /><rect x="1368" y="1152.0" width="64" height="1" fill="white" fill-opacity="0.5" /><text x="1442" y="1166.0" font-size="14" fill="white" font-family="monospace" dominant-baseline="ideographic">53</text><rect x="1482" y="0" width="64" height="1152.0" fill="black" /><rect x="1482" y="0.0" width="64" height="1" fill="white" fill-opacity="0.5" /><text x="1556" y="14.0" font-size="14" fill="white" font-family="monospace" dominant-baseline="ideographic">53</text><rect x="1482" y="72.0" width="64" height="1" fill="white" fill-opacity="0.2" /><rect x="1482" y="144.0" width="64" height="1" fill="white" fill-opacity="0.2" /><rect x="1482" y="216.0" width="64" height="1" fill="white" fill-opacity="0.2" /><rect x="1482" y="288.0" width="64" height="1" fill="white" fill-opacity="0.5" /><text x="1556" y="302.0" font-size="14" fill="white" font-family="monospace" dominant-baseline="ideographic">54</text><rect x="1482" y="360.0" width="64" height="1" fill="white" fill-opacity="0.2" /><rect x="1482" y="432.0" width="64" height="1" fill="white" fill-opacity="0.2" /><rect x="1482" y="504.0" width="64" height="1" fill="white" fill-opacity="0.2" /><rect x="1482" y="576.0" width="64" height="1" fill="white" fill-opacity="0.5" /><text x="1556" y="590.0" font-size="14" fill="white" font-family="monospace" dominant-baseline="ideographic">55</text><rect x="1482" y="648.0" width="64" height="1" fill="white" fill-opacity="0.2" /><rect x="1482" y="720.0" width="64" height="1" fill="white" fill-opacity="0.2" /><rect x="1482" y="792.0" width="64" height="1" fill="white" fill-opacity="0.2" /><rect x="1482" y="864.0" width="64" height="1" fill="white" fill-opacity="0.5" /><text x="1556" y="878.0" font-size="14" fill="white" font-family="monospace" dominant-baseline="ideographic">56</text><rect x="1482" y="936.0" width="64" height="1" fill="white" fill-opacity="0.2" /><rect x="1482" y="1008.0" width="64" height="1" fill="white" fill-opacity="0.2" /><rect x="1482" y="1080.0" width="64" height="1" fill="white" fill-opacity="0.2" /><rect x="1482" y="1152.0" width="64" height="1" fill="white" fill-opacity="0.5" /><text x="1556" y="1166.0" font-size="14" fill="white" font-family="monospace" dominant-baseline="ideographic">57</text><rect x="1482" y="576.0" width="64" height="1" fill="aqua" fill-opacity="0.75" /><text x="1482" y="590.0" font-size="14" fill="aqua" fill-opacity="0.75" font-family="monospace">Special</text><rect x="1596" y="0" width="64" height="1152.0" fill="black" /><rect x="1596" y="0.0" width="64" height="1" fill="white" fill-opacity="0.5" /><text x="1670" y="14.0" font-size="14" fill="white" font-family="monospace" dominant-baseline="ideographic">57</text><rect x="1596" y="72.0" width="64" height="1" fill="white" fill-opacity="0.2" /><rect x="1596" y="144.0" width="64" height="1" fill="white" fill-opacity="0.2" /><rect x="1596" y="216.0" width="64" height="1" fill="white" fill-opacity="0.2" /><rect x="1596" y="288.0" width="64" height="1" fill="white" fill-opacity="0.5" /><text x="1670" y="302.0" font-size="14" fill="white" font-family="monospace" dominant-baseline="ideographic">58</text><rect x="1596" y="360.0" width="64" height="1" fill="white" fill-opacity="0.2" /><rect x="1596" y="432.0" width="64" height="1" fill="white" fill-opacity="0.2" /><rect x="1596" y="504.0" width="64" height="1" fill="white" fill-opacity="0.2" /><rect x="1596" y="576.0" width="64" height="1" fill="white" fill-opacity="0.5" /><text x="1670" y="590.0" font-size="14" fill="white" font-family="monospace" dominant-baseline="ideographic">59</text><rect x="1596" y="648.0" width="64" height="1" fill="white" fill-opacity="0.2" /><rect x="1596" y="720.0" width="64" height="1" fill="white" fill-opacity="0.2" /><rect x="1596" y="792.0" width="64" height="1" fill="white" fill-opacity="0.2" /><rect x="1596" y="864.0" width="64" height="1" fill="white" fill-opacity="0.5" /><text x="1670" y="878.0" font-size="14" fill="white" font-family="monospace" dominant-baseline="ideographic">60</text><rect x="1596" y="936.0" width="64" height="1" fill="white" fill-opacity="0.2" /><rect x="1596" y="1008.0" width="64" height="1" fill="white" fill-opacity="0.2" /><rect x="1596" y="1080.0" width="64" height="1" fill="white" fill-opacity="0.2" /><rect x="1596" y="1152.0" width="64" height="1" fill="white" fill-opacity="0.5" /><text x="1670" y="1166.0" font-size="14" fill="white" font-family="monospace" dominant-baseline="ideographic">61</text><rect x="1710" y="0" width="64" height="1170.0" fill="black" /><rect x="1710" y="0.0" width="64" height="1" fill="white" fill-opacity="0.5" /><text x="1784" y="14.0" font-size="14" fill="white" font-family="monospace" dominant-baseline="ideographic">61</text><rect x="1710" y="72.0" width="64" height="1" fill="white" fill-opacity="0.2" /><rect x="1710" y="144.0" width="64" height="1" fill="white" fill-opacity="0.2" /><rect x="1710" y="216.0" width="64" height="1" fill="white" fill-opacity="0.2" /><rect x="1710" y="288.0" width="64" height="1" fill="white" fill-opacity="0.5" /><text x="1784" y="302.0" font-size="14" fill="white" font-family="monospace" dominant-baseline="ideographic">62</text><rect x="1710" y="360.0" width="64" height="1" fill="white" fill-opacity="0.2" /><rect x="1710" y="432.0" width="64" height="1" fill="white" fill-opacity="0.2" /><rect x="1710" y="504.0" width="64" height="1" fill="white" fill-opacity="0.2" /><rect x="1710" y="576.0" width="64" height="1" fill="white" fill-opacity="0.5" /><text x="1784" y="590.0" font-size="14" fill="white" font-family="monospace" dominant-baseline="ideographic">63</text><rect x="1710" y="648.0" width="64" height="1" fill="white" fill-opacity="0.2" /><rect x="1710" y="720.0" width="64" height="1" fill="white" fill-opacity="0.2" /><rect x="1710" y="792.0" width="64" height="1" fill="white" fill-opacity="0.2" /><rect x="1710" y="864.0" width="64" height="1" fill="white" fill-opacity="0.5" /><text x="1784" y="878.0" font-size="14" fill="white" font-family="monospace" dominant-baseline="ideographic">64</text></svg>