<?xml version="1.0" encoding="UTF-8"?><svg xmlns="http://www.w3.org/2000/svg" xmlns:xlink="http://www.w3.org/1999/xlink"     width="3808" height="1263.5" viewBox="0 0 3808 1263.5"><defs></defs><rect x="0" y="14.0" width="188" height="1249.5" fill="black" /><rect x="0" y="1262.5" width="188" height="1" fill="white" fill-opacity="0.5" /><text x="198" y="1262.5" font-size="14" fill="white" font-family="monospace" dominant-baseline="initial">1</text><rect x="0" y="1172.5" width="188" height="1" fill="white" fill-opacity="0.2" /><rect x="0" y="1082.5" width="188" height="1" fill="white" fill-opacity="0.2" /><rect x="0" y="992.5" width="188" height="1" fill="white" fill-opacity="0.2" /><rect x="0" y="902.5" width="188" height="1" fill="white" fill-opacity="0.5" /><text x="198" y="902.5" font-size="14" fill="white" font-family="monospace" dominant-baseline="initial">2</text><rect x="0" y="812.5" width="188" height="1" fill="white" fill-opacity="0.2" /><rect x="0" y="722.5" width="188" height="1" fill="white" fill-opacity="0.2" /><rect x="0" y="632.5" width="188" height="1" fill="white" fill-opacity="0.2" /><rect x="0" y="542.5" width="188" height="1" fill="white" fill-opacity="0.5" /><text x="198" y="542.5" font-size="14" fill="white" font-family="monospace" dominant-baseline="initial">3</text><rect x="0" y="489.5" width="188" height="1" fill="white" fill-opacity="0.2" /><rect x="0" y="436.5" width="188" height="1" fill="white" fill-opacity="0.2" /><rect x="0" y="383.5" width="188" height="1" fill="white" fill-opacity="0.2" /><rect x="0" y="330.5" width="188" height="1" fill="white" fill-opacity="0.2" /><rect x="0" y="278.0" width="188" height="1" fill="white" fill-opacity="0.5" /><text x="198" y="278.0" font-size="14" fill="white" font-family="monospace" dominant-baseline="initial">4</text><rect x="0" y="225.0" width="188" height="1" fill="white" fill-opacity="0.2" /><rect x="0" y="172.0" width="188" height="1" fill="white" fill-opacity="0.2" /><rect x="0" y="119.0" width="188" height="1" fill="white" fill-opacity="0.2" /><rect x="0" y="66.0" width="188" height="1" fill="white" fill-opacity="0.2" /><rect x="0" y="13.0" width="188" height="1" fill="white" fill-opacity="0.5" /><text x="198" y="13.0" font-size="14" fill="white" font-family="monospace" dominant-baseline="initial">5</text><rect x="0" y="1262.5" width="188" height="1" fill="aqua" fill-opacity="0.75" /><text x="0" y="1258.5" font-size="14" fill="aqua" fill-opacity="0.75" font-family="monospace">Intro</text><rect x="0" y="1262.5" width="188" height="1" fill="lime" fill-opacity="0.75" /><text x="198" y="1249.5" font-size="14" fill="lime" font-family="monospace" dominant-baseline="initial">100</text><rect x="0" y="542.5" width="188" height="1" fill="lime" fill-opacity="0.75" /><text x="198" y="529.5" font-size="14" fill="lime" font-family="monospace" dominant-baseline="initial">170</text><rect x="238" y="310.5" width="188" height="953.0" fill="black" /><rect x="238" y="1262.5" width="188" height="1" fill="white" fill-opacity="0.5" /><text x="436" y="1262.5" font-size="14" fill="white" font-family="monospace" dominant-baseline="initial">5</text><rect x="238" y="1209.5" width="188" height="1" fill="white" fill-opacity="0.2" /><rect x="238" y="1156.5" width="188" height="1" fill="white" fill-opacity="0.2" /><rect x="238" y="1104.0" width="188" height="1" fill="white" fill-opacity="0.2" /><rect x="238" y="1051.0" width="188" height="1" fill="white" fill-opacity="0.2" /><rect x="238" y="998.0" width="188" height="1" fill="white" fill-opacity="0.5" /><text x="436" y="998.0" font-size="14" fill="white" font-family="monospace" dominant-baseline="initial">6</text><rect x="238" y="945.0" width="188" height="1" fill="white" fill-opacity="0.2" /><rect x="238" y="892.0" width="188" height="1" fill="white" fill-opacity="0.2" /><rect x="238" y="839.0" width="188" height="1" fill="white" fill-opacity="0.2" /><rect x="238" y="786.0" width="188" height="1" fill="white" fill-opacity="0.2" /><rect x="238" y="733.0" width="188" height="1" fill="white" fill-opacity="0.5" /><text x="436" y="733.0" font-size="14" fill="white" font-family="monospace" dominant-baseline="initial">7</text><rect x="238" y="680.0" width="188" height="1" fill="white" fill-opacity="0.2" /><rect x="238" y="627.5" width="188" height="1" fill="white" fill-opacity="0.2" /><rect x="238" y="574.5" width="188" height="1" fill="white" fill-opacity="0.5" /><text x="436" y="574.5" font-size="14" fill="white" font-family="monospace" dominant-baseline="initial">8</text><rect x="238" y="521.5" width="188" height="1" fill="white" fill-opacity="0.2" /><rect x="238" y="468.5" width="188" height="1" fill="white" fill-opacity="0.2" /><rect x="238" y="415.5" width="188" height="1" fill="white" fill-opacity="0.2" /><rect x="238" y="362.5" width="188" height="1" fill="white" fill-opacity="0.2" /><rect x="238" y="309.5" width="188" height="1" fill="white" fill-opacity="0.5" /><text x="436" y="309.5" font-size="14" fill="white" font-family="monospace" dominant-baseline="initial">9</text><rect x="476" y="522.5" width="188" height="741.0" fill="black" /><rect x="476" y="1262.5" width="188" height="1" fill="white" fill-opacity="0.5" /><text x="674" y="1262.5" font-size="14" fill="white" font-family="monospace" dominant-baseline="initial">9</text><rect x="476" y="1209.5" width="188" height="1" fill="white" fill-opacity="0.2" /><rect x="476" y="1157.0" width="188" height="1" fill="white" fill-opacity="0.2" /><rect x="476" y="1104.0" width="188" height="1" fill="white" fill-opacity="0.2" /><rect x="476" y="1051.0" width="188" height="1" fill="white" fill-opacity="0.2" /><rect x="476" y="998.0" width="188" height="1" fill="white" fill-opacity="0.5" /><text x="674" y="998.0" font-size="14" fill="white" font-family="monospace" dominant-baseline="initial">10</text><rect x="476" y="945.0" width="188" height="1" fill="white" fill-opacity="0.2" /><rect x="476" y="892.0" width="188" height="1" fill="white" fill-opacity="0.2" /><rect x="476" y="839.0" width="188" height="1" fill="white" fill-opacity="0.2" /><rect x="476" y="786.0" width="188" height="1" fill="white" fill-opacity="0.2" /><rect x="476" y="733.0" width="188" height="1" fill="white" fill-opacity="0.5" /><text x="674" y="733.0" font-size="14" fill="white" font-family="monospace" dominant-baseline="initial">11</text><rect x="476" y="680.5" width="188" height="1" fill="white" fill-opacity="0.2" /><rect x="476" y="627.5" width="188" height="1" fill="white" fill-opacity="0.5" /><text x="674" y="627.5" font-size="14" fill="white" font-family="monospace" dominant-baseline="initial">12</text><rect x="476" y="574.5" width="188" height="1" fill="white" fill-opacity="0.2" /><rect x="476" y="521.5" width="188" height="1" fill="white" fill-opacity="0.5" /><text x="674" y="521.5" font-size="14" fill="white" font-family="monospace" dominant-baseline="initial">13</text><rect x="714" y="575.0" width="188" height="688.5" fill="black" /><rect x="714" y="1262.5" width="188" height="1" fill="white" fill-opacity="0.5" /><text x="912" y="1262.5" font-size="14" fill="white" font-family="monospace" dominant-baseline="initial">13</text><rect x="714" y="1209.5" width="188" height="1" fill="white" fill-opacity="0.2" /><rect x="714" y="1156.5" width="188" height="1" fill="white" fill-opacity="0.2" /><rect x="714" y="1103.5" width="188" height="1" fill="white" fill-opacity="0.5" /><text x="912" y="1103.5" font-size="14" fill="white" font-family="monospace" dominant-baseline="initial">14</text><rect x="714" y="1050.5" width="188" height="1" fill="white" fill-opacity="0.2" /><rect x="714" y="998.0" width="188" height="1" fill="white" fill-opacity="0.2" /><rect x="714" y="945.0" width="188" height="1" fill="white" fill-opacity="0.5" /><text x="912" y="945.0" font-size="14" fill="white" font-family="monospace" dominant-baseline="initial">15</text><rect x="714" y="892.0" width="188" height="1" fill="white" fill-opacity="0.2" /><rect x="714" y="839.0" width="188" height="1" fill="white" fill-opacity="0.2" /><rect x="714" y="786.0" width="188" height="1" fill="white" fill-opacity="0.5" /><text x="912" y="786.0" font-size="14" fill="white" font-family="monospace" dominant-baseline="initial">16</text><rect x="714" y="733.0" width="188" height="1" fill="white" fill-opacity="0.2" /><rect x="714" y="680.0" width="188" height="1" fill="white" fill-opacity="0.2" /><rect x="714" y="627.0" width="188" height="1" fill="white" fill-opacity="0.2" /><rect x="714" y="574.0" width="188" height="1" fill="white" fill-opacity="0.5" /><text x="912" y="574.0" font-size="14" fill="white" font-family="monospace" dominant-baseline="initial">17</text><rect x="714" y="1262.4" width="188" height="1" fill="aqua" fill-opacity="0.75" /><text x="714" y="1258.4" font-size="14" fill="aqua" fill-opacity="0.75" font-family="monospace">Phrase A</text><rect x="952" y="575.5" width="188" height="688.0" fill="black" /><rect x="952" y="1262.5" width="188" height="1" fill="white" fill-opacity="0.5" /><text x="1150" y="1262.5" font-size="14" fill="white" font-family="monospace" dominant-baseline="initial">17</text><rect x="952" y="1210.0" width="188" height="1" fill="white" fill-opacity="0.2" /><rect x="952" y="1157.0" width="188" height="1" fill="white" fill-opacity="0.2" /><rect x="952" y="1104.0" width="188" height="1" fill="white" fill-opacity="0.2" /><rect x="952" y="1051.0" width="188" height="1" fill="white" fill-opacity="0.5" /><text x="1150" y="1051.0" font-size="14" fill="white" font-family="monospace" dominant-baseline="initial">18</text><rect x="952" y="998.0" width="188" height="1" fill="white" fill-opacity="0.2" /><rect x="952" y="945.0" width="188" height="1" fill="white" fill-opacity="0.2" /><rect x="952" y="892.0" width="188" height="1" fill="white" fill-opacity="0.5" /><text x="1150" y="892.0" font-size="14" fill="white" font-family="monospace" dominant-baseline="initial">19</text><rect x="952" y="839.0" width="188" height="1" fill="white" fill-opacity="0.2" /><rect x="952" y="786.5" width="188" height="1" fill="white" fill-opacity="0.2" /><rect x="952" y="733.5" width="188" height="1" fill="white" fill-opacity="0.5" /><text x="1150" y="733.5" font-size="14" fill="white" font-family="monospace" dominant-baseline="initial">20</text><rect x="952" y="680.5" width="188" height="1" fill="white" fill-opacity="0.2" /><rect x="952" y="627.5" width="188" height="1" fill="white" fill-opacity="0.2" /><rect x="952" y="574.5" width="188" height="1" fill="white" fill-opacity="0.5" /><text x="1150" y="574.5" font-size="14" fill="white" font-family="monospace" dominant-baseline="initial">21</text><rect x="1190" y="416.5" width="188" height="847.0" fill="black" /><rect x="1190" y="1262.5" width="188" height="1" fill="white" fill-opacity="0.5" /><text x="1388" y="1262.5" font-size="14" fill="white" font-family="monospace" dominant-baseline="initial">21</text><rect x="1190" y="1209.5" width="188" height="1" fill="white" fill-opacity="0.2" /><rect x="1190" y="1156.5" width="188" height="1" fill="white" fill-opacity="0.2" /><rect x="1190" y="1103.5" width="188" height="1" fill="white" fill-opacity="0.2" /><rect x="1190" y="1050.5" width="188" height="1" fill="white" fill-opacity="0.5" /><text x="1388" y="1050.5" font-size="14" fill="white" font-family="monospace" dominant-baseline="initial">22</text><rect x="1190" y="998.0" width="188" height="1" fill="white" fill-opacity="0.2" /><rect x="1190" y="945.0" width="188" height="1" fill="white" fill-opacity="0.2" /><rect x="1190" y="892.0" width="188" height="1" fill="white" fill-opacity="0.2" /><rect x="1190" y="839.0" width="188" height="1" fill="white" fill-opacity="0.5" /><text x="1388" y="839.0" font-size="14" fill="white" font-family="monospace" dominant-baseline="initial">23</text><rect x="1190" y="786.0" width="188" height="1" fill="white" fill-opacity="0.2" /><rect x="1190" y="733.0" width="188" height="1" fill="white" fill-opacity="0.2" /><rect x="1190" y="680.0" width="188" height="1" fill="white" fill-opacity="0.2" /><rect x="1190" y="627.0" width="188" height="1" fill="white" fill-opacity="0.5" /><text x="1388" y="627.0" font-size="14" fill="white" font-family="monospace" dominant-baseline="initial">24</text><rect x="1190" y="574.5" width="188" height="1" fill="white" fill-opacity="0.2" /><rect x="1190" y="521.5" width="188" height="1" fill="white" fill-opacity="0.2" /><rect x="1190" y="468.5" width="188" height="1" fill="white" fill-opacity="0.2" /><rect x="1190" y="415.5" width="188" height="1" fill="white" fill-opacity="0.5" /><text x="1388" y="415.5" font-size="14" fill="white" font-family="monospace" dominant-baseline="initial">25</text><rect x="1428" y="416.5" width="188" height="847.0" fill="black" /><rect x="1428" y="1262.5" width="188" height="1" fill="white" fill-opacity="0.5" /><text x="1626" y="1262.5" font-size="14" fill="white" font-family="monospace" dominant-baseline="initial">25</text><rect x="1428" y="1209.5" width="188" height="1" fill="white" fill-opacity="0.2" /><rect x="1428" y="1156.5" width="188" height="1" fill="white" fill-opacity="0.2" /><rect x="1428" y="1103.5" width="188" height="1" fill="white" fill-opacity="0.2" /><rect x="1428" y="1050.5" width="188" height="1" fill="white" fill-opacity="0.5" /><text x="1626" y="1050.5" font-size="14" fill="white" font-family="monospace" dominant-baseline="initial">26</text><rect x="1428" y="997.5" width="188" height="1" fill="white" fill-opacity="0.2" /><rect x="1428" y="945.0" width="188" height="1" fill="white" fill-opacity="0.2" /><rect x="1428" y="892.0" width="188" height="1" fill="white" fill-opacity="0.2" /><rect x="1428" y="839.0" width="188" height="1" fill="white" fill-opacity="0.5" /><text x="1626" y="839.0" font-size="14" fill="white" font-family="monospace" dominant-baseline="initial">27</text><rect x="1428" y="786.0" width="188" height="1" fill="white" fill-opacity="0.2" /><rect x="1428" y="733.0" width="188" height="1" fill="white" fill-opacity="0.2" /><rect x="1428" y="680.0" width="188" height="1" fill="white" fill-opacity="0.2" /><rect x="1428" y="627.0" width="188" height="1" fill="white" fill-opacity="0.5" /><text x="1626" y="627.0" font-size="14" fill="white" font-family="monospace" dominant-baseline="initial">28</text><rect x="1428" y="574.0" width="188" height="1" fill="white" fill-opacity="0.2" /><rect x="1428" y="521.5" width="188" height="1" fill="white" fill-opacity="0.2" /><rect x="1428" y="468.5" width="188" height="1" fill="white" fill-opacity="0.2" /><rect x="1428" y="415.5" width="188" height="1" fill="white" fill-opacity="0.5" /><text x="1626" y="415.5" font-size="14" fill="white" font-family="monospace" dominant-baseline="initial">29</text><rect x="1666" y="310.5" width="188" height="953.0" fill="black" /><rect x="1666" y="1262.5" width="188" height="1" fill="white" fill-opacity="0.5" /><text x="1864" y="1262.5" font-size="14" fill="white" font-family="monospace" dominant-baseline="initial">29</text><rect x="1666" y="1209.5" width="188" height="1" fill="white" fill-opacity="0.2" /><rect x="1666" y="1156.5" width="188" height="1" fill="white" fill-opacity="0.2" /><rect x="1666" y="1103.5" width="188" height="1" fill="white" fill-opacity="0.2" /><rect x="1666" y="1050.5" width="188" height="1" fill="white" fill-opacity="0.5" /><text x="1864" y="1050.5" font-size="14" fill="white" font-family="monospace" dominant-baseline="initial">30</text><rect x="1666" y="997.5" width="188" height="1" fill="white" fill-opacity="0.2" /><rect x="1666" y="944.5" width="188" height="1" fill="white" fill-opacity="0.2" /><rect x="1666" y="892.0" width="188" height="1" fill="white" fill-opacity="0.2" /><rect x="1666" y="839.0" width="188" height="1" fill="white" fill-opacity="0.5" /><text x="1864" y="839.0" font-size="14" fill="white" font-family="monospace" dominant-baseline="initial">31</text><rect x="1666" y="786.0" width="188" height="1" fill="white" fill-opacity="0.2" /><rect x="1666" y="733.0" width="188" height="1" fill="white" fill-opacity="0.2" /><rect x="1666" y="680.0" width="188" height="1" fill="white" fill-opacity="0.2" /><rect x="1666" y="627.0" width="188" height="1" fill="white" fill-opacity="0.5" /><text x="1864" y="627.0" font-size="14" fill="white" font-family="monospace" dominant-baseline="initial">32</text><rect x="1666" y="574.0" width="188" height="1" fill="white" fill-opacity="0.2" /><rect x="1666" y="521.0" width="188" height="1" fill="white" fill-opacity="0.2" /><rect x="1666" y="468.5" width="188" height="1" fill="white" fill-opacity="0.2" /><rect x="1666" y="415.5" width="188" height="1" fill="white" fill-opacity="0.2" /><rect x="1666" y="362.5" width="188" height="1" fill="white" fill-opacity="0.2" /><rect x="1666" y="309.5" width="188" height="1" fill="white" fill-opacity="0.5" /><text x="1864" y="309.5" font-size="14" fill="white" font-family="monospace" dominant-baseline="initial">33</text><rect x="1666" y="1262.4000000000005" width="188" height="1" fill="aqua" fill-opacity="0.75" /><text x="1666" y="1258.4000000000005" font-size="14" fill="aqua" fill-opacity="0.75" font-family="monospace">Special</text><rect x="1904" y="310.5" width="188" height="953.0" fill="black" /><rect x="1904" y="1262.5" width="188" height="1" fill="white" fill-opacity="0.5" /><text x="2102" y="1262.5" font-size="14" fill="white" font-family="monospace" dominant-baseline="initial">33</text><rect x="1904" y="1209.5" width="188" height="1" fill="white" fill-opacity="0.2" /><rect x="1904" y="1156.5" width="188" height="1" fill="white" fill-opacity="0.2" /><rect x="1904" y="1103.5" width="188" height="1" fill="white" fill-opacity="0.2" /><rect x="1904" y="1050.5" width="188" height="1" fill="white" fill-opacity="0.5" /><text x="2102" y="1050.5" font-size="14" fill="white" font-family="monospace" dominant-baseline="initial">34</text><rect x="1904" y="997.5" width="188" height="1" fill="white" fill-opacity="0.2" /><rect x="1904" y="945.0" width="188" height="1" fill="white" fill-opacity="0.2" /><rect x="1904" y="892.0" width="188" height="1" fill="white" fill-opacity="0.2" /><rect x="1904" y="839.0" width="188" height="1" fill="white" fill-opacity="0.5" /><text x="2102" y="839.0" font-size="14" fill="white" font-family="monospace" dominant-baseline="initial">35</text><rect x="1904" y="786.0" width="188" height="1" fill="white" fill-opacity="0.2" /><rect x="1904" y="733.0" width="188" height="1" fill="white" fill-opacity="0.2" /><rect x="1904" y="680.0" width="188" height="1" fill="white" fill-opacity="0.2" /><rect x="1904" y="627.0" width="188" height="1" fill="white" fill-opacity="0.5" /><text x="2102" y="627.0" font-size="14" fill="white" font-family="monospace" dominant-baseline="initial">36</text><rect x="1904" y="574.0" width="188" height="1" fill="white" fill-opacity="0.2" /><rect x="1904" y="521.5" width="188" height="1" fill="white" fill-opacity="0.2" /><rect x="1904" y="468.5" width="188" height="1" fill="white" fill-opacity="0.2" /><rect x="1904" y="415.5" width="188" height="1" fill="white" fill-opacity="0.2" /><rect x="1904" y="362.5" width="188" height="1" fill="white" fill-opacity="0.2" /><rect x="1904" y="309.5" width="188" height="1" fill="white" fill-opacity="0.5" /><text x="2102" y="309.5" font-size="14" fill="white" font-family="monospace" dominant-baseline="initial">37</text><rect x="2142" y="257.5" width="188" height="1006.0" fill="black" /><rect x="2142" y="1262.5" width="188" height="1" fill="white" fill-opacity="0.5" /><text x="2340" y="1262.5" font-size="14" fill="white" font-family="monospace" dominant-baseline="initial">37</text><rect x="2142" y="1209.5" width="188" height="1" fill="white" fill-opacity="0.2" /><rect x="2142" y="1156.5" width="188" height="1" fill="white" fill-opacity="0.2" /><rect x="2142" y="1103.5" width="188" height="1" fill="white" fill-opacity="0.2" /><rect x="2142" y="1050.5" width="188" height="1" fill="white" fill-opacity="0.5" /><text x="2340" y="1050.5" font-size="14" fill="white" font-family="monospace" dominant-baseline="initial">38</text><rect x="2142" y="998.0" width="188" height="1" fill="white" fill-opacity="0.2" /><rect x="2142" y="945.0" width="188" height="1" fill="white" fill-opacity="0.2" /><rect x="2142" y="892.0" width="188" height="1" fill="white" fill-opacity="0.2" /><rect x="2142" y="839.0" width="188" height="1" fill="white" fill-opacity="0.2" /><rect x="2142" y="786.0" width="188" height="1" fill="white" fill-opacity="0.5" /><text x="2340" y="786.0" font-size="14" fill="white" font-family="monospace" dominant-baseline="initial">39</text><rect x="2142" y="733.0" width="188" height="1" fill="white" fill-opacity="0.2" /><rect x="2142" y="680.0" width="188" height="1" fill="white" fill-opacity="0.2" /><rect x="2142" y="627.0" width="188" height="1" fill="white" fill-opacity="0.2" /><rect x="2142" y="574.5" width="188" height="1" fill="white" fill-opacity="0.2" /><rect x="2142" y="521.5" width="188" height="1" fill="white" fill-opacity="0.5" /><text x="2340" y="521.5" font-size="14" fill="white" font-family="monospace" dominant-baseline="initial">40</text><rect x="2142" y="468.5" width="188" height="1" fill="white" fill-opacity="0.2" /><rect x="2142" y="415.5" width="188" height="1" fill="white" fill-opacity="0.2" /><rect x="2142" y="362.5" width="188" height="1" fill="white" fill-opacity="0.2" /><rect x="2142" y="309.5" width="188" height="1" fill="white" fill-opacity="0.2" /><rect x="2142" y="256.5" width="188" height="1" fill="white" fill-opacity="0.5" /><text x="2340" y="256.5" font-size="14" fill="white" font-family="monospace" dominant-baseline="initial">41</text><rect x="2142" y="1050.7000000000007" width="188" height="1" fill="aqua" fill-opacity="0.75" /><text x="2142" y="1046.7000000000007" font-size="14" fill="aqua" fill-opacity="0.75" font-family="monospace">Phrase B</text><rect x="2380" y="363.5" width="188" height="900.0" fill="black" /><rect x="2380" y="1262.5" width="188" height="1" fill="white" fill-opacity="0.5" /><text x="2578" y="1262.5" font-size="14" fill="white" font-family="monospace" dominant-baseline="initial">41</text><rect x="2380" y="1209.5" width="188" height="1" fill="white" fill-opacity="0.2" /><rect x="2380" y="1156.5" width="188" height="1" fill="white" fill-opacity="0.5" /><text x="2578" y="1156.5" font-size="14" fill="white" font-family="monospace" dominant-baseline="initial">42</text><rect x="2380" y="1104.0" width="188" height="1" fill="white" fill-opacity="0.2" /><rect x="2380" y="1051.0" width="188" height="1" fill="white" fill-opacity="0.2" /><rect x="2380" y="998.0" width="188" height="1" fill="white" fill-opacity="0.2" /><rect x="2380" y="945.0" width="188" height="1" fill="white" fill-opacity="0.2" /><rect x="2380" y="892.0" width="188" height="1" fill="white" fill-opacity="0.5" /><text x="2578" y="892.0" font-size="14" fill="white" font-family="monospace" dominant-baseline="initial">43</text><rect x="2380" y="839.0" width="188" height="1" fill="white" fill-opacity="0.2" /><rect x="2380" y="786.0" width="188" height="1" fill="white" fill-opacity="0.2" /><rect x="2380" y="733.0" width="188" height="1" fill="white" fill-opacity="0.2" /><rect x="2380" y="680.5" width="188" height="1" fill="white" fill-opacity="0.2" /><rect x="2380" y="627.5" width="188" height="1" fill="white" fill-opacity="0.5" /><text x="2578" y="627.5" font-size="14" fill="white" font-family="monospace" dominant-baseline="initial">44</text><rect x="2380" y="574.5" width="188" height="1" fill="white" fill-opacity="0.2" /><rect x="2380" y="521.5" width="188" height="1" fill="white" fill-opacity="0.2" /><rect x="2380" y="468.5" width="188" height="1" fill="white" fill-opacity="0.2" /><rect x="2380" y="415.5" width="188" height="1" fill="white" fill-opacity="0.2" /><rect x="2380" y="362.5" width="188" height="1" fill="white" fill-opacity="0.5" /><text x="2578" y="362.5" font-size="14" fill="white" font-family="monospace" dominant-baseline="initial">45</text><rect x="2618" y="310.5" width="188" height="953.0" fill="black" /><rect x="2618" y="1262.5" width="188" height="1" fill="white" fill-opacity="0.5" /><text x="2816" y="1262.5" font-size="14" fill="white" font-family="monospace" dominant-baseline="initial">45</text><rect x="2618" y="1209.5" width="188" height="1" fill="white" fill-opacity="0.5" /><text x="2816" y="1209.5" font-size="14" fill="white" font-family="monospace" dominant-baseline="initial">46</text><rect x="2618" y="1134.5" width="188" height="1" fill="white" fill-opacity="0.2" /><rect x="2618" y="1059.5" width="188" height="1" fill="white" fill-opacity="0.2" /><rect x="2618" y="984.5" width="188" height="1" fill="white" fill-opacity="0.2" /><rect x="2618" y="909.5" width="188" height="1" fill="white" fill-opacity="0.5" /><text x="2816" y="909.5" font-size="14" fill="white" font-family="monospace" dominant-baseline="initial">47</text><rect x="2618" y="834.5" width="188" height="1" fill="white" fill-opacity="0.2" /><rect x="2618" y="759.5" width="188" height="1" fill="white" fill-opacity="0.2" /><rect x="2618" y="684.5" width="188" height="1" fill="white" fill-opacity="0.2" /><rect x="2618" y="609.5" width="188" height="1" fill="white" fill-opacity="0.5" /><text x="2816" y="609.5" font-size="14" fill="white" font-family="monospace" dominant-baseline="initial">48</text><rect x="2618" y="534.5" width="188" height="1" fill="white" fill-opacity="0.2" /><rect x="2618" y="459.5" width="188" height="1" fill="white" fill-opacity="0.2" /><rect x="2618" y="384.5" width="188" height="1" fill="white" fill-opacity="0.2" /><rect x="2618" y="309.5" width="188" height="1" fill="white" fill-opacity="0.5" /><text x="2816" y="309.5" font-size="14" fill="white" font-family="monospace" dominant-baseline="initial">49</text><rect x="2618" y="1209.5" width="188" height="1" fill="lime" fill-opacity="0.75" /><text x="2816" y="1196.5" font-size="14" fill="lime" font-family="monospace" dominant-baseline="initial">120</text><rect x="2856" y="63.5" width="188" height="1200.0" fill="black" /><rect x="2856" y="1262.5" width="188" height="1" fill="white" fill-opacity="0.5" /><text x="3054" y="1262.5" font-size="14" fill="white" font-family="monospace" dominant-baseline="initial">49</text><rect x="2856" y="1187.5" width="188" height="1" fill="white" fill-opacity="0.2" /><rect x="2856" y="1112.5" width="188" height="1" fill="white" fill-opacity="0.2" /><rect x="2856" y="1037.5" width="188" height="1" fill="white" fill-opacity="0.2" /><rect x="2856" y="962.5" width="188" height="1" fill="white" fill-opacity="0.5" /><text x="3054" y="962.5" font-size="14" fill="white" font-family="monospace" dominant-baseline="initial">50</text><rect x="2856" y="887.5" width="188" height="1" fill="white" fill-opacity="0.2" /><rect x="2856" y="812.5" width="188" height="1" fill="white" fill-opacity="0.2" /><rect x="2856" y="737.5" width="188" height="1" fill="white" fill-opacity="0.2" /><rect x="2856" y="662.5" width="188" height="1" fill="white" fill-opacity="0.5" /><text x="3054" y="662.5" font-size="14" fill="white" font-family="monospace" dominant-baseline="initial">51</text><rect x="2856" y="587.5" width="188" height="1" fill="white" fill-opacity="0.2" /><rect x="2856" y="512.5" width="188" height="1" fill="white" fill-opacity="0.2" /><rect x="2856" y="437.5" width="188" height="1" fill="white" fill-opacity="0.2" /><rect x="2856" y="362.5" width="188" height="1" fill="white" fill-opacity="0.5" /><text x="3054" y="362.5" font-size="14" fill="white" font-family="monospace" dominant-baseline="initial">52</text><rect x="2856" y="287.5" width="188" height="1" fill="white" fill-opacity="0.2" /><rect x="2856" y="212.5" width="188" height="1" fill="white" fill-opacity="0.2" /><rect x="2856" y="137.5" width="188" height="1" fill="white" fill-opacity="0.2" /><rect x="2856" y="62.5" width="188" height="1" fill="white" fill-opacity="0.5" /><text x="3054" y="62.5" font-size="14" fill="white" font-family="monospace" dominant-baseline="initial">53</text><rect x="2856" y="962.6499999999996" width="188" height="1" fill="aqua" fill-opacity="0.75" /><text x="2856" y="958.6499999999996" font-size="14" fill="aqua" fill-opacity="0.75" font-family="monospace">Phrase C</text><rect x="3094" y="91.5" width="188" height="1172.0" fill="black" /><rect x="3094" y="1262.5" width="188" height="1" fill="white" fill-opacity="0.5" /><text x="3292" y="1262.5" font-size="14" fill="white" font-family="monospace" dominant-baseline="initial">53</text><rect x="3094" y="1187.5" width="188" height="1" fill="white" fill-opacity="0.2" /><rect x="3094" y="1112.5" width="188" height="1" fill="white" fill-opacity="0.2" /><rect x="3094" y="1037.5" width="188" height="1" fill="white" fill-opacity="0.2" /><rect x="3094" y="962.5" width="188" height="1" fill="white" fill-opacity="0.5" /><text x="3292" y="962.5" font-size="14" fill="white" font-family="monospace" dominant-baseline="initial">54</text><rect x="3094" y="887.5" width="188" height="1" fill="white" fill-opacity="0.2" /><rect x="3094" y="812.5" width="188" height="1" fill="white" fill-opacity="0.2" /><rect x="3094" y="737.5" width="188" height="1" fill="white" fill-opacity="0.2" /><rect x="3094" y="662.5" width="188" height="1" fill="white" fill-opacity="0.5" /><text x="3292" y="662.5" font-size="14" fill="white" font-family="monospace" dominant-baseline="initial">55</text><rect x="3094" y="587.5" width="188" height="1" fill="white" fill-opacity="0.2" /><rect x="3094" y="512.5" width="188" height="1" fill="white" fill-opacity="0.2" /><rect x="3094" y="437.5" width="188" height="1" fill="white" fill-opacity="0.2" /><rect x="3094" y="362.5" width="188" height="1" fill="white" fill-opacity="0.5" /><text x="3292" y="362.5" font-size="14" fill="white" font-family="monospace" dominant-baseline="initial">56</text><rect x="3094" y="287.5" width="188" height="1" fill="white" fill-opacity="0.2" /><rect x="3094" y="212.5" width="188" height="1" fill="white" fill-opacity="0.2" /><rect x="3094" y="143.0" width="188" height="1" fill="white" fill-opacity="0.2" /><rect x="3094" y="90.5" width="188" height="1" fill="white" fill-opacity="0.5" /><text x="3292" y="90.5" font-size="14" fill="white" font-family="monospace" dominant-baseline="initial">57</text><rect x="3094" y="156.5" width="188" height="1" fill="lime" fill-opacity="0.75" /><text x="3292" y="157.5" font-size="14" fill="lime" font-family="monospace" dominant-baseline="initial">170</text><rect x="3332" y="204.5" width="188" height="1059.0" fill="black" /><rect x="3332" y="1262.5" width="188" height="1" fill="white" fill-opacity="0.5" /><text x="3530" y="1262.5" font-size="14" fill="white" font-family="monospace" dominant-baseline="initial">57</text><rect x="3332" y="1209.5" width="188" height="1" fill="white" fill-opacity="0.2" /><rect x="3332" y="1156.5" width="188" height="1" fill="white" fill-opacity="0.2" /><rect x="3332" y="1103.5" width="188" height="1" fill="white" fill-opacity="0.2" /><rect x="3332" y="1050.5" width="188" height="1" fill="white" fill-opacity="0.2" /><rect x="3332" y="997.5" width="188" height="1" fill="white" fill-opacity="0.5" /><text x="3530" y="997.5" font-size="14" fill="white" font-family="monospace" dominant-baseline="initial">58</text><rect x="3332" y="944.5" width="188" height="1" fill="white" fill-opacity="0.2" /><rect x="3332" y="891.5" width="188" height="1" fill="white" fill-opacity="0.2" /><rect x="3332" y="838.5" width="188" height="1" fill="white" fill-opacity="0.2" /><rect x="3332" y="786.0" width="188" height="1" fill="white" fill-opacity="0.2" /><rect x="3332" y="733.0" width="188" height="1" fill="white" fill-opacity="0.5" /><text x="3530" y="733.0" font-size="14" fill="white" font-family="monospace" dominant-baseline="initial">59</text><rect x="3332" y="680.0" width="188" height="1" fill="white" fill-opacity="0.2" /><rect x="3332" y="627.0" width="188" height="1" fill="white" fill-opacity="0.2" /><rect x="3332" y="574.0" width="188" height="1" fill="white" fill-opacity="0.2" /><rect x="3332" y="521.0" width="188" height="1" fill="white" fill-opacity="0.2" /><rect x="3332" y="468.0" width="188" height="1" fill="white" fill-opacity="0.5" /><text x="3530" y="468.0" font-size="14" fill="white" font-family="monospace" dominant-baseline="initial">60</text><rect x="3332" y="415.0" width="188" height="1" fill="white" fill-opacity="0.2" /><rect x="3332" y="362.5" width="188" height="1" fill="white" fill-opacity="0.2" /><rect x="3332" y="309.5" width="188" height="1" fill="white" fill-opacity="0.2" /><rect x="3332" y="256.5" width="188" height="1" fill="white" fill-opacity="0.2" /><rect x="3332" y="203.5" width="188" height="1" fill="white" fill-opacity="0.5" /><text x="3530" y="203.5" font-size="14" fill="white" font-family="monospace" dominant-baseline="initial">61</text><rect x="3332" y="1262.25" width="188" height="1" fill="aqua" fill-opacity="0.75" /><text x="3332" y="1258.25" font-size="14" fill="aqua" fill-opacity="0.75" font-family="monospace">Special</text><rect x="3570" y="933.5" width="188" height="330.0" fill="black" /><rect x="3570" y="1262.5" width="188" height="1" fill="white" fill-opacity="0.5" /><text x="3768" y="1262.5" font-size="14" fill="white" font-family="monospace" dominant-baseline="initial">61</text></svg>