<?xml version="1.0" encoding="UTF-8"?><svg xmlns="http://www.w3.org/2000/svg" xmlns:xlink="http://www.w3.org/1999/xlink"     width="1824" height="1263.5" viewBox="0 0 1824 1263.5"><defs></defs><rect x="0" y="0" width="64" height="1249.5" fill="black" /><rect x="0" y="0.0" width="64" height="1" fill="white" fill-opacity="0.5" /><text x="74" y="14.0" font-size="14" fill="white" font-family="monospace" dominant-baseline="ideographic">1</text><rect x="0" y="90.0" width="64" height="1" fill="white" fill-opacity="0.2" /><rect x="0" y="180.0" width="64" height="1" fill="white" fill-opacity="0.2" /><rect x="0" y="270.0" width="64" height="1" fill="white" fill-opacity="0.2" /><rect x="0" y="360.0" width="64" height="1" fill="white" fill-opacity="0.5" /><text x="74" y="374.0" font-size="14" fill="white" font-family="monospace" dominant-baseline="ideographic">2</text><rect x="0" y="450.0" width="64" height="1" fill="white" fill-opacity="0.2" /><rect x="0" y="540.0" width="64" height="1" fill="white" fill-opacity="0.2" /><rect x="0" y="630.0" width="64" height="1" fill="white" fill-opacity="0.2" /><rect x="0" y="720.0" width="64" height="1" fill="white" fill-opacity="0.5" /><text x="74" y="734.0" font-size="14" fill="white" font-family="monospace" dominant-baseline="ideographic">3</text><rect x="0" y="773.0" width="64" height="1" fill="white" fill-opacity="0.2" /><rect x="0" y="826.0" width="64" height="1" fill="white" fill-opacity="0.2" /><rect x="0" y="879.0" width="64" height="1" fill="white" fill-opacity="0.2" /><rect x="0" y="932.0" width="64" height="1" fill="white" fill-opacity="0.2" /><rect x="0" y="984.5" width="64" height="1" fill="white" fill-opacity="0.5" /><text x="74" y="998.5" font-size="14" fill="white" font-family="monospace" dominant-baseline="ideographic">4</text><rect x="0" y="1037.5" width="64" height="1" fill="white" fill-opacity="0.2" /><rect x="0" y="1090.5" width="64" height="1" fill="white" fill-opacity="0.2" /><rect x="0" y="1143.5" width="64" height="1" fill="white" fill-opacity="0.2" /><rect x="0" y="1196.5" width="64" height="1" fill="white" fill-opacity="0.2" /><rect x="0" y="1249.5" width="64" height="1" fill="white" fill-opacity="0.5" /><text x="74" y="1263.5" font-size="14" fill="white" font-family="monospace" dominant-baseline="ideographic">5</text><rect x="0" y="0.0" width="64" height="1" fill="aqua" fill-opacity="0.75" /><text x="0" y="14.0" font-size="14" fill="aqua" fill-opacity="0.75" font-family="monospace">Intro</text><rect x="0" y="0.0" width="64" height="1" fill="lime" fill-opacity="0.75" /><text x="74" y="28.0" font-size="14" fill="lime" font-family="monospace" dominant-baseline="ideographic">100</text><rect x="0" y="720.0" width="64" height="1" fill="lime" fill-opacity="0.75" /><text x="74" y="748.0" font-size="14" fill="lime" font-family="monospace" dominant-baseline="ideographic">170</text><rect x="114" y="0" width="64" height="953.0" fill="black" /><rect x="114" y="0.0" width="64" height="1" fill="white" fill-opacity="0.5" /><text x="188" y="14.0" font-size="14" fill="white" font-family="monospace" dominant-baseline="ideographic">5</text><rect x="114" y="53.0" width="64" height="1" fill="white" fill-opacity="0.2" /><rect x="114" y="106.0" width="64" height="1" fill="white" fill-opacity="0.2" /><rect x="114" y="158.5" width="64" height="1" fill="white" fill-opacity="0.2" /><rect x="114" y="211.5" width="64" height="1" fill="white" fill-opacity="0.2" /><rect x="114" y="264.5" width="64" height="1" fill="white" fill-opacity="0.5" /><text x="188" y="278.5" font-size="14" fill="white" font-family="monospace" dominant-baseline="ideographic">6</text><rect x="114" y="317.5" width="64" height="1" fill="white" fill-opacity="0.2" /><rect x="114" y="370.5" width="64" height="1" fill="white" fill-opacity="0.2" /><rect x="114" y="423.5" width="64" height="1" fill="white" fill-opacity="0.2" /><rect x="114" y="476.5" width="64" height="1" fill="white" fill-opacity="0.2" /><rect x="114" y="529.5" width="64" height="1" fill="white" fill-opacity="0.5" /><text x="188" y="543.5" font-size="14" fill="white" font-family="monospace" dominant-baseline="ideographic">7</text><rect x="114" y="582.5" width="64" height="1" fill="white" fill-opacity="0.2" /><rect x="114" y="635.0" width="64" height="1" fill="white" fill-opacity="0.2" /><rect x="114" y="688.0" width="64" height="1" fill="white" fill-opacity="0.5" /><text x="188" y="702.0" font-size="14" fill="white" font-family="monospace" dominant-baseline="ideographic">8</text><rect x="114" y="741.0" width="64" height="1" fill="white" fill-opacity="0.2" /><rect x="114" y="794.0" width="64" height="1" fill="white" fill-opacity="0.2" /><rect x="114" y="847.0" width="64" height="1" fill="white" fill-opacity="0.2" /><rect x="114" y="900.0" width="64" height="1" fill="white" fill-opacity="0.2" /><rect x="114" y="953.0" width="64" height="1" fill="white" fill-opacity="0.5" /><text x="188" y="967.0" font-size="14" fill="white" font-family="monospace" dominant-baseline="ideographic">9</text><rect x="228" y="0" width="64" height="741.0" fill="black" /><rect x="228" y="0.0" width="64" height="1" fill="white" fill-opacity="0.5" /><text x="302" y="14.0" font-size="14" fill="white" font-family="monospace" dominant-baseline="ideographic">9</text><rect x="228" y="53.0" width="64" height="1" fill="white" fill-opacity="0.2" /><rect x="228" y="105.5" width="64" height="1" fill="white" fill-opacity="0.2" /><rect x="228" y="158.5" width="64" height="1" fill="white" fill-opacity="0.2" /><rect x="228" y="211.5" width="64" height="1" fill="white" fill-opacity="0.2" /><rect x="228" y="264.5" width="64" height="1" fill="white" fill-opacity="0.5" /><text x="302" y="278.5" font-size="14" fill="white" font-family="monospace" dominant-baseline="ideographic">10</text><rect x="228" y="317.5" width="64" height="1" fill="white" fill-opacity="0.2" /><rect x="228" y="370.5" width="64" height="1" fill="white" fill-opacity="0.2" /><rect x="228" y="423.5" width="64" height="1" fill="white" fill-opacity="0.2" /><rect x="228" y="476.5" width="64" height="1" fill="white" fill-opacity="0.2" /><rect x="228" y="529.5" width="64" height="1" fill="white" fill-opacity="0.5" /><text x="302" y="543.5" font-size="14" fill="white" font-family="monospace" dominant-baseline="ideographic">11</text><rect x="228" y="582.0" width="64" height="1" fill="white" fill-opacity="0.2" /><rect x="228" y="635.0" width="64" height="1" fill="white" fill-opacity="0.5" /><text x="302" y="649.0" font-size="14" fill="white" font-family="monospace" dominant-baseline="ideographic">12</text><rect x="228" y="688.0" width="64" height="1" fill="white" fill-opacity="0.2" /><rect x="228" y="741.0" width="64" height="1" fill="white" fill-opacity="0.5" /><text x="302" y="755.0" font-size="14" fill="white" font-family="monospace" dominant-baseline="ideographic">13</text><rect x="342" y="0" width="64" height="688.5" fill="black" /><rect x="342" y="0.0" width="64" height="1" fill="white" fill-opacity="0.5" /><text x="416" y="14.0" font-size="14" fill="white" font-family="monospace" dominant-baseline="ideographic">13</text><rect x="342" y="53.0" width="64" height="1" fill="white" fill-opacity="0.2" /><rect x="342" y="106.0" width="64" height="1" fill="white" fill-opacity="0.2" /><rect x="342" y="159.0" width="64" height="1" fill="white" fill-opacity="0.5" /><text x="416" y="173.0" font-size="14" fill="white" font-family="monospace" dominant-baseline="ideographic">14</text><rect x="342" y="212.0" width="64" height="1" fill="white" fill-opacity="0.2" /><rect x="342" y="264.5" width="64" height="1" fill="white" fill-opacity="0.2" /><rect x="342" y="317.5" width="64" height="1" fill="white" fill-opacity="0.5" /><text x="416" y="331.5" font-size="14" fill="white" font-family="monospace" dominant-baseline="ideographic">15</text><rect x="342" y="370.5" width="64" height="1" fill="white" fill-opacity="0.2" /><rect x="342" y="423.5" width="64" height="1" fill="white" fill-opacity="0.2" /><rect x="342" y="476.5" width="64" height="1" fill="white" fill-opacity="0.5" /><text x="416" y="490.5" font-size="14" fill="white" font-family="monospace" dominant-baseline="ideographic">16</text><rect x="342" y="529.5" width="64" height="1" fill="white" fill-opacity="0.2" /><rect x="342" y="582.5" width="64" height="1" fill="white" fill-opacity="0.2" /><rect x="342" y="635.5" width="64" height="1" fill="white" fill-opacity="0.2" /><rect x="342" y="688.5" width="64" height="1" fill="white" fill-opacity="0.5" /><text x="416" y="702.5" font-size="14" fill="white" font-family="monospace" dominant-baseline="ideographic">17</text><rect x="342" y="0.09999999999990905" width="64" height="1" fill="aqua" fill-opacity="0.75" /><text x="342" y="14.099999999999909" font-size="14" fill="aqua" fill-opacity="0.75" font-family="monospace">Phrase A</text><rect x="456" y="0" width="64" height="688.0" fill="black" /><rect x="456" y="0.0" width="64" height="1" fill="white" fill-opacity="0.5" /><text x="530" y="14.0" font-size="14" fill="white" font-family="monospace" dominant-baseline="ideographic">17</text><rect x="456" y="52.5" width="64" height="1" fill="white" fill-opacity="0.2" /><rect x="456" y="105.5" width="64" height="1" fill="white" fill-opacity="0.2" /><rect x="456" y="158.5" width="64" height="1" fill="white" fill-opacity="0.2" /><rect x="456" y="211.5" width="64" height="1" fill="white" fill-opacity="0.5" /><text x="530" y="225.5" font-size="14" fill="white" font-family="monospace" dominant-baseline="ideographic">18</text><rect x="456" y="264.5" width="64" height="1" fill="white" fill-opacity="0.2" /><rect x="456" y="317.5" width="64" height="1" fill="white" fill-opacity="0.2" /><rect x="456" y="370.5" width="64" height="1" fill="white" fill-opacity="0.5" /><text x="530" y="384.5" font-size="14" fill="white" font-family="monospace" dominant-baseline="ideographic">19</text><rect x="456" y="423.5" width="64" height="1" fill="white" fill-opacity="0.2" /><rect x="456" y="476.0" width="64" height="1" fill="white" fill-opacity="0.2" /><rect x="456" y="529.0" width="64" height="1" fill="white" fill-opacity="0.5" /><text x="530" y="543.0" font-size="14" fill="white" font-family="monospace" dominant-baseline="ideographic">20</text><rect x="456" y="582.0" width="64" height="1" fill="white" fill-opacity="0.2" /><rect x="456" y="635.0" width="64" height="1" fill="white" fill-opacity="0.2" /><rect x="456" y="688.0" width="64" height="1" fill="white" fill-opacity="0.5" /><text x="530" y="702.0" font-size="14" fill="white" font-family="monospace" dominant-baseline="ideographic">21</text><rect x="570" y="0" width="64" height="847.0" fill="black" /><rect x="570" y="0.0" width="64" height="1" fill="white" fill-opacity="0.5" /><text x="644" y="14.0" font-size="14" fill="white" font-family="monospace" dominant-baseline="ideographic">21</text><rect x="570" y="53.0" width="64" height="1" fill="white" fill-opacity="0.2" /><rect x="570" y="106.0" width="64" height="1" fill="white" fill-opacity="0.2" /><rect x="570" y="159.0" width="64" height="1" fill="white" fill-opacity="0.2" /><rect x="570" y="212.0" width="64" height="1" fill="white" fill-opacity="0.5" /><text x="644" y="226.0" font-size="14" fill="white" font-family="monospace" dominant-baseline="ideographic">22</text><rect x="570" y="264.5" width="64" height="1" fill="white" fill-opacity="0.2" /><rect x="570" y="317.5" width="64" height="1" fill="white" fill-opacity="0.2" /><rect x="570" y="370.5" width="64" height="1" fill="white" fill-opacity="0.2" /><rect x="570" y="423.5" width="64" height="1" fill="white" fill-opacity="0.5" /><text x="644" y="437.5" font-size="14" fill="white" font-family="monospace" dominant-baseline="ideographic">23</text><rect x="570" y="476.5" width="64" height="1" fill="white" fill-opacity="0.2" /><rect x="570" y="529.5" width="64" height="1" fill="white" fill-opacity="0.2" /><rect x="570" y="582.5" width="64" height="1" fill="white" fill-opacity="0.2" /><rect x="570" y="635.5" width="64" height="1" fill="white" fill-opacity="0.5" /><text x="644" y="649.5" font-size="14" fill="white" font-family="monospace" dominant-baseline="ideographic">24</text><rect x="570" y="688.0" width="64" height="1" fill="white" fill-opacity="0.2" /><rect x="570" y="741.0" width="64" height="1" fill="white" fill-opacity="0.2" /><rect x="570" y="794.0" width="64" height="1" fill="white" fill-opacity="0.2" /><rect x="570" y="847.0" width="64" height="1" fill="white" fill-opacity="0.5" /><text x="644" y="861.0" font-size="14" fill="white" font-family="monospace" dominant-baseline="ideographic">25</text><rect x="684" y="0" width="64" height="847.0" fill="black" /><rect x="684" y="0.0" width="64" height="1" fill="white" fill-opacity="0.5" /><text x="758" y="14.0" font-size="14" fill="white" font-family="monospace" dominant-baseline="ideographic">25</text><rect x="684" y="53.0" width="64" height="1" fill="white" fill-opacity="0.2" /><rect x="684" y="106.0" width="64" height="1" fill="white" fill-opacity="0.2" /><rect x="684" y="159.0" width="64" height="1" fill="white" fill-opacity="0.2" /><rect x="684" y="212.0" width="64" height="1" fill="white" fill-opacity="0.5" /><text x="758" y="226.0" font-size="14" fill="white" font-family="monospace" dominant-baseline="ideographic">26</text><rect x="684" y="265.0" width="64" height="1" fill="white" fill-opacity="0.2" /><rect x="684" y="317.5" width="64" height="1" fill="white" fill-opacity="0.2" /><rect x="684" y="370.5" width="64" height="1" fill="white" fill-opacity="0.2" /><rect x="684" y="423.5" width="64" height="1" fill="white" fill-opacity="0.5" /><text x="758" y="437.5" font-size="14" fill="white" font-family="monospace" dominant-baseline="ideographic">27</text><rect x="684" y="476.5" width="64" height="1" fill="white" fill-opacity="0.2" /><rect x="684" y="529.5" width="64" height="1" fill="white" fill-opacity="0.2" /><rect x="684" y="582.5" width="64" height="1" fill="white" fill-opacity="0.2" /><rect x="684" y="635.5" width="64" height="1" fill="white" fill-opacity="0.5" /><text x="758" y="649.5" font-size="14" fill="white" font-family="monospace" dominant-baseline="ideographic">28</text><rect x="684" y="688.5" width="64" height="1" fill="white" fill-opacity="0.2" /><rect x="684" y="741.0" width="64" height="1" fill="white" fill-opacity="0.2" /><rect x="684" y="794.0" width="64" height="1" fill="white" fill-opacity="0.2" /><rect x="684" y="847.0" width="64" height="1" fill="white" fill-opacity="0.5" /><text x="758" y="861.0" font-size="14" fill="white" font-family="monospace" dominant-baseline="ideographic">29</text><rect x="798" y="0" width="64" height="953.0" fill="black" /><rect x="798" y="0.0" width="64" height="1" fill="white" fill-opacity="0.5" /><text x="872" y="14.0" font-size="14" fill="white" font-family="monospace" dominant-baseline="ideographic">29</text><rect x="798" y="53.0" width="64" height="1" fill="white" fill-opacity="0.2" /><rect x="798" y="106.0" width="64" height="1" fill="white" fill-opacity="0.2" /><rect x="798" y="159.0" width="64" height="1" fill="white" fill-opacity="0.2" /><rect x="798" y="212.0" width="64" height="1" fill="white" fill-opacity="0.5" /><text x="872" y="226.0" font-size="14" fill="white" font-family="monospace" dominant-baseline="ideographic">30</text><rect x="798" y="265.0" width="64" height="1" fill="white" fill-opacity="0.2" /><rect x="798" y="318.0" width="64" height="1" fill="white" fill-opacity="0.2" /><rect x="798" y="370.5" width="64" height="1" fill="white" fill-opacity="0.2" /><rect x="798" y="423.5" width="64" height="1" fill="white" fill-opacity="0.5" /><text x="872" y="437.5" font-size="14" fill="white" font-family="monospace" dominant-baseline="ideographic">31</text><rect x="798" y="476.5" width="64" height="1" fill="white" fill-opacity="0.2" /><rect x="798" y="529.5" width="64" height="1" fill="white" fill-opacity="0.2" /><rect x="798" y="582.5" width="64" height="1" fill="white" fill-opacity="0.2" /><rect x="798" y="635.5" width="64" height="1" fill="white" fill-opacity="0.5" /><text x="872" y="649.5" font-size="14" fill="white" font-family="monospace" dominant-baseline="ideographic">32</text><rect x="798" y="688.5" width="64" height="1" fill="white" fill-opacity="0.2" /><rect x="798" y="741.5" width="64" height="1" fill="white" fill-opacity="0.2" /><rect x="798" y="794.0" width="64" height="1" fill="white" fill-opacity="0.2" /><rect x="798" y="847.0" width="64" height="1" fill="white" fill-opacity="0.2" /><rect x="798" y="900.0" width="64" height="1" fill="white" fill-opacity="0.2" /><rect x="798" y="953.0" width="64" height="1" fill="white" fill-opacity="0.5" /><text x="872" y="967.0" font-size="14" fill="white" font-family="monospace" dominant-baseline="ideographic">33</text><rect x="798" y="0.0999999999994543" width="64" height="1" fill="aqua" fill-opacity="0.75" /><text x="798" y="14.099999999999454" font-size="14" fill="aqua" fill-opacity="0.75" font-family="monospace">Special</text><rect x="912" y="0" width="64" height="953.0" fill="black" /><rect x="912" y="0.0" width="64" height="1" fill="white" fill-opacity="0.5" /><text x="986" y="14.0" font-size="14" fill="white" font-family="monospace" dominant-baseline="ideographic">33</text><rect x="912" y="53.0" width="64" height="1" fill="white" fill-opacity="0.2" /><rect x="912" y="106.0" width="64" height="1" fill="white" fill-opacity="0.2" /><rect x="912" y="159.0" width="64" height="1" fill="white" fill-opacity="0.2" /><rect x="912" y="212.0" width="64" height="1" fill="white" fill-opacity="0.5" /><text x="986" y="226.0" font-size="14" fill="white" font-family="monospace" dominant-baseline="ideographic">34</text><rect x="912" y="265.0" width="64" height="1" fill="white" fill-opacity="0.2" /><rect x="912" y="317.5" width="64" height="1" fill="white" fill-opacity="0.2" /><rect x="912" y="370.5" width="64" height="1" fill="white" fill-opacity="0.2" /><rect x="912" y="423.5" width="64" height="1" fill="white" fill-opacity="0.5" /><text x="986" y="437.5" font-size="14" fill="white" font-family="monospace" dominant-baseline="ideographic">35</text><rect x="912" y="476.5" width="64" height="1" fill="white" fill-opacity="0.2" /><rect x="912" y="529.5" width="64" height="1" fill="white" fill-opacity="0.2" /><rect x="912" y="582.5" width="64" height="1" fill="white" fill-opacity="0.2" /><rect x="912" y="635.5" width="64" height="1" fill="white" fill-opacity="0.5" /><text x="986" y="649.5" font-size="14" fill="white" font-family="monospace" dominant-baseline="ideographic">36</text><rect x="912" y="688.5" width="64" height="1" fill="white" fill-opacity="0.2" /><rect x="912" y="741.0" width="64" height="1" fill="white" fill-opacity="0.2" /><rect x="912" y="794.0" width="64" height="1" fill="white" fill-opacity="0.2" /><rect x="912" y="847.0" width="64" height="1" fill="white" fill-opacity="0.2" /><rect x="912" y="900.0" width="64" height="1" fill="white" fill-opacity="0.2" /><rect x="912" y="953.0" width="64" height="1" fill="white" fill-opacity="0.5" /><text x="986" y="967.0" font-size="14" fill="white" font-family="monospace" dominant-baseline="ideographic">37</text><rect x="1026" y="0" width="64" height="1006.0" fill="black" /><rect x="1026" y="0.0" width="64" height="1" fill="white" fill-opacity="0.5" /><text x="1100" y="14.0" font-size="14" fill="white" font-family="monospace" dominant-baseline="ideographic">37</text><rect x="1026" y="53.0" width="64" height="1" fill="white" fill-opacity="0.2" /><rect x="1026" y="106.0" width="64" height="1" fill="white" fill-opacity="0.2" /><rect x="1026" y="159.0" width="64" height="1" fill="white" fill-opacity="0.2" /><rect x="1026" y="212.0" width="64" height="1" fill="white" fill-opacity="0.5" /><text x="1100" y="226.0" font-size="14" fill="white" font-family="monospace" dominant-baseline="ideographic">38</text><rect x="1026" y="264.5" width="64" height="1" fill="white" fill-opacity="0.2" /><rect x="1026" y="317.5" width="64" height="1" fill="white" fill-opacity="0.2" /><rect x="1026" y="370.5" width="64" height="1" fill="white" fill-opacity="0.2" /><rect x="1026" y="423.5" width="64" height="1" fill="white" fill-opacity="0.2" /><rect x="1026" y="476.5" width="64" height="1" fill="white" fill-opacity="0.5" /><text x="1100" y="490.5" font-size="14" fill="white" font-family="monospace" dominant-baseline="ideographic">39</text><rect x="1026" y="529.5" width="64" height="1" fill="white" fill-opacity="0.2" /><rect x="1026" y="582.5" width="64" height="1" fill="white" fill-opacity="0.2" /><rect x="1026" y="635.5" width="64" height="1" fill="white" fill-opacity="0.2" /><rect x="1026" y="688.0" width="64" height="1" fill="white" fill-opacity="0.2" /><rect x="1026" y="741.0" width="64" height="1" fill="white" fill-opacity="0.5" /><text x="1100" y="755.0" font-size="14" fill="white" font-family="monospace" dominant-baseline="ideographic">40</text><rect x="1026" y="794.0" width="64" height="1" fill="white" fill-opacity="0.2" /><rect x="1026" y="847.0" width="64" height="1" fill="white" fill-opacity="0.2" /><rect x="1026" y="900.0" width="64" height="1" fill="white" fill-opacity="0.2" /><rect x="1026" y="953.0" width="64" height="1" fill="white" fill-opacity="0.2" /><rect x="1026" y="1006.0" width="64" height="1" fill="white" fill-opacity="0.5" /><text x="1100" y="1020.0" font-size="14" fill="white" font-family="monospace" dominant-baseline="ideographic">41</text><rect x="1026" y="211.79999999999927" width="64" height="1" fill="aqua" fill-opacity="0.75" /><text x="1026" y="225.79999999999927" font-size="14" fill="aqua" fill-opacity="0.75" font-family="monospace">Phrase B</text><rect x="1140" y="0" width="64" height="900.0" fill="black" /><rect x="1140" y="0.0" width="64" height="1" fill="white" fill-opacity="0.5" /><text x="1214" y="14.0" font-size="14" fill="white" font-family="monospace" dominant-baseline="ideographic">41</text><rect x="1140" y="53.0" width="64" height="1" fill="white" fill-opacity="0.2" /><rect x="1140" y="106.0" width="64" height="1" fill="white" fill-opacity="0.5" /><text x="1214" y="120.0" font-size="14" fill="white" font-family="monospace" dominant-baseline="ideographic">42</text><rect x="1140" y="158.5" width="64" height="1" fill="white" fill-opacity="0.2" /><rect x="1140" y="211.5" width="64" height="1" fill="white" fill-opacity="0.2" /><rect x="1140" y="264.5" width="64" height="1" fill="white" fill-opacity="0.2" /><rect x="1140" y="317.5" width="64" height="1" fill="white" fill-opacity="0.2" /><rect x="1140" y="370.5" width="64" height="1" fill="white" fill-opacity="0.5" /><text x="1214" y="384.5" font-size="14" fill="white" font-family="monospace" dominant-baseline="ideographic">43</text><rect x="1140" y="423.5" width="64" height="1" fill="white" fill-opacity="0.2" /><rect x="1140" y="476.5" width="64" height="1" fill="white" fill-opacity="0.2" /><rect x="1140" y="529.5" width="64" height="1" fill="white" fill-opacity="0.2" /><rect x="1140" y="582.0" width="64" height="1" fill="white" fill-opacity="0.2" /><rect x="1140" y="635.0" width="64" height="1" fill="white" fill-opacity="0.5" /><text x="1214" y="649.0" font-size="14" fill="white" font-family="monospace" dominant-baseline="ideographic">44</text><rect x="1140" y="688.0" width="64" height="1" fill="white" fill-opacity="0.2" /><rect x="1140" y="741.0" width="64" height="1" fill="white" fill-opacity="0.2" /><rect x="1140" y="794.0" width="64" height="1" fill="white" fill-opacity="0.2" /><rect x="1140" y="847.0" width="64" height="1" fill="white" fill-opacity="0.2" /><rect x="1140" y="900.0" width="64" height="1" fill="white" fill-opacity="0.5" /><text x="1214" y="914.0" font-size="14" fill="white" font-family="monospace" dominant-baseline="ideographic">45</text><rect x="1254" y="0" width="64" height="953.0" fill="black" /><rect x="1254" y="0.0" width="64" height="1" fill="white" fill-opacity="0.5" /><text x="1328" y="14.0" font-size="14" fill="white" font-family="monospace" dominant-baseline="ideographic">45</text><rect x="1254" y="53.0" width="64" height="1" fill="white" fill-opacity="0.5" /><text x="1328" y="67.0" font-size="14" fill="white" font-family="monospace" dominant-baseline="ideographic">46</text><rect x="1254" y="128.0" width="64" height="1" fill="white" fill-opacity="0.2" /><rect x="1254" y="203.0" width="64" height="1" fill="white" fill-opacity="0.2" /><rect x="1254" y="278.0" width="64" height="1" fill="white" fill-opacity="0.2" /><rect x="1254" y="353.0" width="64" height="1" fill="white" fill-opacity="0.5" /><text x="1328" y="367.0" font-size="14" fill="white" font-family="monospace" dominant-baseline="ideographic">47</text><rect x="1254" y="428.0" width="64" height="1" fill="white" fill-opacity="0.2" /><rect x="1254" y="503.0" width="64" height="1" fill="white" fill-opacity="0.2" /><rect x="1254" y="578.0" width="64" height="1" fill="white" fill-opacity="0.2" /><rect x="1254" y="653.0" width="64" height="1" fill="white" fill-opacity="0.5" /><text x="1328" y="667.0" font-size="14" fill="white" font-family="monospace" dominant-baseline="ideographic">48</text><rect x="1254" y="728.0" width="64" height="1" fill="white" fill-opacity="0.2" /><rect x="1254" y="803.0" width="64" height="1" fill="white" fill-opacity="0.2" /><rect x="1254" y="878.0" width="64" height="1" fill="white" fill-opacity="0.2" /><rect x="1254" y="953.0" width="64" height="1" fill="white" fill-opacity="0.5" /><text x="1328" y="967.0" font-size="14" fill="white" font-family="monospace" dominant-baseline="ideographic">49</text><rect x="1254" y="53.0" width="64" height="1" fill="lime" fill-opacity="0.75" /><text x="1328" y="81.0" font-size="14" fill="lime" font-family="monospace" dominant-baseline="ideographic">120</text><rect x="1368" y="0" width="64" height="1200.0" fill="black" /><rect x="1368" y="0.0" width="64" height="1" fill="white" fill-opacity="0.5" /><text x="1442" y="14.0" font-size="14" fill="white" font-family="monospace" dominant-baseline="ideographic">49</text><rect x="1368" y="75.0" width="64" height="1" fill="white" fill-opacity="0.2" /><rect x="1368" y="150.0" width="64" height="1" fill="white" fill-opacity="0.2" /><rect x="1368" y="225.0" width="64" height="1" fill="white" fill-opacity="0.2" /><rect x="1368" y="300.0" width="64" height="1" fill="white" fill-opacity="0.5" /><text x="1442" y="314.0" font-size="14" fill="white" font-family="monospace" dominant-baseline="ideographic">50</text><rect x="1368" y="375.0" width="64" height="1" fill="white" fill-opacity="0.2" /><rect x="1368" y="450.0" width="64" height="1" fill="white" fill-opacity="0.2" /><rect x="1368" y="525.0" width="64" height="1" fill="white" fill-opacity="0.2" /><rect x="1368" y="600.0" width="64" height="1" fill="white" fill-opacity="0.5" /><text x="1442" y="614.0" font-size="14" fill="white" font-family="monospace" dominant-baseline="ideographic">51</text><rect x="1368" y="675.0" width="64" height="1" fill="white" fill-opacity="0.2" /><rect x="1368" y="750.0" width="64" height="1" fill="white" fill-opacity="0.2" /><rect x="1368" y="825.0" width="64" height="1" fill="white" fill-opacity="0.2" /><rect x="1368" y="900.0" width="64" height="1" fill="white" fill-opacity="0.5" /><text x="1442" y="914.0" font-size="14" fill="white" font-family="monospace" dominant-baseline="ideographic">52</text><rect x="1368" y="975.0" width="64" height="1" fill="white" fill-opacity="0.2" /><rect x="1368" y="1050.0" width="64" height="1" fill="white" fill-opacity="0.2" /><rect x="1368" y="1125.0" width="64" height="1" fill="white" fill-opacity="0.2" /><rect x="1368" y="1200.0" width="64" height="1" fill="white" fill-opacity="0.5" /><text x="1442" y="1214.0" font-size="14" fill="white" font-family="monospace" dominant-baseline="ideographic">53</text><rect x="1368" y="299.85000000000036" width="64" height="1" fill="aqua" fill-opacity="0.75" /><text x="1368" y="313.85000000000036" font-size="14" fill="aqua" fill-opacity="0.75" font-family="monospace">Phrase C</text><rect x="1482" y="0" width="64" height="1172.0" fill="black" /><rect x="1482" y="0.0" width="64" height="1" fill="white" fill-opacity="0.5" /><text x="1556" y="14.0" font-size="14" fill="white" font-family="monospace" dominant-baseline="ideographic">53</text><rect x="1482" y="75.0" width="64" height="1" fill="white" fill-opacity="0.2" /><rect x="1482" y="150.0" width="64" height="1" fill="white" fill-opacity="0.2" /><rect x="1482" y="225.0" width="64" height="1" fill="white" fill-opacity="0.2" /><rect x="1482" y="300.0" width="64" height="1" fill="white" fill-opacity="0.5" /><text x="1556" y="314.0" font-size="14" fill="white" font-family="monospace" dominant-baseline="ideographic">54</text><rect x="1482" y="375.0" width="64" height="1" fill="white" fill-opacity="0.2" /><rect x="1482" y="450.0" width="64" height="1" fill="white" fill-opacity="0.2" /><rect x="1482" y="525.0" width="64" height="1" fill="white" fill-opacity="0.2" /><rect x="1482" y="600.0" width="64" height="1" fill="white" fill-opacity="0.5" /><text x="1556" y="614.0" font-size="14" fill="white" font-family="monospace" dominant-baseline="ideographic">55</text><rect x="1482" y="675.0" width="64" height="1" fill="white" fill-opacity="0.2" /><rect x="1482" y="750.0" width="64" height="1" fill="white" fill-opacity="0.2" /><rect x="1482" y="825.0" width="64" height="1" fill="white" fill-opacity="0.2" /><rect x="1482" y="900.0" width="64" height="1" fill="white" fill-opacity="0.5" /><text x="1556" y="914.0" font-size="14" fill="white" font-family="monospace" dominant-baseline="ideographic">56</text><rect x="1482" y="975.0" width="64" height="1" fill="white" fill-opacity="0.2" /><rect x="1482" y="1050.0" width="64" height="1" fill="white" fill-opacity="0.2" /><rect x="1482" y="1119.5" width="64" height="1" fill="white" fill-opacity="0.2" /><rect x="1482" y="1172.0" width="64" height="1" fill="white" fill-opacity="0.5" /><text x="1556" y="1186.0" font-size="14" fill="white" font-family="monospace" dominant-baseline="ideographic">57</text><rect x="1482" y="1106.0" width="64" height="1" fill="lime" fill-opacity="0.75" /><text x="1556" y="1120.0" font-size="14" fill="lime" font-family="monospace" dominant-baseline="ideographic">170</text><rect x="1596" y="0" width="64" height="1059.0" fill="black" /><rect x="1596" y="0.0" width="64" height="1" fill="white" fill-opacity="0.5" /><text x="1670" y="14.0" font-size="14" fill="white" font-family="monospace" dominant-baseline="ideographic">57</text><rect x="1596" y="53.0" width="64" height="1" fill="white" fill-opacity="0.2" /><rect x="1596" y="106.0" width="64" height="1" fill="white" fill-opacity="0.2" /><rect x="1596" y="159.0" width="64" height="1" fill="white" fill-opacity="0.2" /><rect x="1596" y="212.0" width="64" height="1" fill="white" fill-opacity="0.2" /><rect x="1596" y="265.0" width="64" height="1" fill="white" fill-opacity="0.5" /><text x="1670" y="279.0" font-size="14" fill="white" font-family="monospace" dominant-baseline="ideographic">58</text><rect x="1596" y="318.0" width="64" height="1" fill="white" fill-opacity="0.2" /><rect x="1596" y="371.0" width="64" height="1" fill="white" fill-opacity="0.2" /><rect x="1596" y="424.0" width="64" height="1" fill="white" fill-opacity="0.2" /><rect x="1596" y="476.5" width="64" height="1" fill="white" fill-opacity="0.2" /><rect x="1596" y="529.5" width="64" height="1" fill="white" fill-opacity="0.5" /><text x="1670" y="543.5" font-size="14" fill="white" font-family="monospace" dominant-baseline="ideographic">59</text><rect x="1596" y="582.5" width="64" height="1" fill="white" fill-opacity="0.2" /><rect x="1596" y="635.5" width="64" height="1" fill="white" fill-opacity="0.2" /><rect x="1596" y="688.5" width="64" height="1" fill="white" fill-opacity="0.2" /><rect x="1596" y="741.5" width="64" height="1" fill="white" fill-opacity="0.2" /><rect x="1596" y="794.5" width="64" height="1" fill="white" fill-opacity="0.5" /><text x="1670" y="808.5" font-size="14" fill="white" font-family="monospace" dominant-baseline="ideographic">60</text><rect x="1596" y="847.5" width="64" height="1" fill="white" fill-opacity="0.2" /><rect x="1596" y="900.0" width="64" height="1" fill="white" fill-opacity="0.2" /><rect x="1596" y="953.0" width="64" height="1" fill="white" fill-opacity="0.2" /><rect x="1596" y="1006.0" width="64" height="1" fill="white" fill-opacity="0.2" /><rect x="1596" y="1059.0" width="64" height="1" fill="white" fill-opacity="0.5" /><text x="1670" y="1073.0" font-size="14" fill="white" font-family="monospace" dominant-baseline="ideographic">61</text><rect x="1596" y="0.25" width="64" height="1" fill="aqua" fill-opacity="0.75" /><text x="1596" y="14.25" font-size="14" fill="aqua" fill-opacity="0.75" font-family="monospace">Special</text><rect x="1710" y="0" width="64" height="330.0" fill="black" /><rect x="1710" y="0.0" width="64" height="1" fill="white" fill-opacity="0.5" /><text x="1784" y="14.0" font-size="14" fill="white" font-family="monospace" dominant-baseline="ideographic">61</text></svg>