<?xml version="1.0" encoding="UTF-8"?><svg xmlns="http://www.w3.org/2000/svg" xmlns:xlink="http://www.w3.org/1999/xlink"     width="4998" height="633.5" viewBox="0 0 4998 633.5"><defs></defs><rect x="0" y="14.0" width="188" height="619.5" fill="black" /><rect x="0" y="632.5" width="188" height="1" fill="white" fill-opacity="0.5" /><text x="198" y="632.5" font-size="14" fill="white" font-family="monospace" dominant-baseline="initial">1</text><rect x="0" y="583.0" width="188" height="1" fill="white" fill-opacity="0.2" /><rect x="0" y="545.0" width="188" height="1" fill="white" fill-opacity="0.2" /><rect x="0" y="507.0" width="188" height="1" fill="white" fill-opacity="0.2" /><rect x="0" y="469.0" width="188" height="1" fill="white" fill-opacity="0.5" /><text x="198" y="469.0" font-size="14" fill="white" font-family="monospace" dominant-baseline="initial">2</text><rect x="0" y="431.0" width="188" height="1" fill="white" fill-opacity="0.2" /><rect x="0" y="393.0" width="188" height="1" fill="white" fill-opacity="0.2" /><rect x="0" y="355.0" width="188" height="1" fill="white" fill-opacity="0.2" /><rect x="0" y="317.0" width="188" height="1" fill="white" fill-opacity="0.5" /><text x="198" y="317.0" font-size="14" fill="white" font-family="monospace" dominant-baseline="initial">3</text><rect x="0" y="279.0" width="188" height="1" fill="white" fill-opacity="0.2" /><rect x="0" y="241.0" width="188" height="1" fill="white" fill-opacity="0.2" /><rect x="0" y="203.0" width="188" height="1" fill="white" fill-opacity="0.2" /><rect x="0" y="165.0" width="188" height="1" fill="white" fill-opacity="0.5" /><text x="198" y="165.0" font-size="14" fill="white" font-family="monospace" dominant-baseline="initial">4</text><rect x="0" y="127.0" width="188" height="1" fill="white" fill-opacity="0.2" /><rect x="0" y="89.0" width="188" height="1" fill="white" fill-opacity="0.2" /><rect x="0" y="51.0" width="188" height="1" fill="white" fill-opacity="0.2" /><rect x="0" y="13.0" width="188" height="1" fill="white" fill-opacity="0.5" /><text x="198" y="13.0" font-size="14" fill="white" font-family="monospace" dominant-baseline="initial">5</text><rect x="0" y="632.5" width="188" height="1" fill="aqua" fill-opacity="0.75" /><text x="0" y="628.5" font-size="14" fill="aqua" fill-opacity="0.75" font-family="monospace">Phrase A</text><rect x="0" y="632.5" width="188" height="1" fill="lime" fill-opacity="0.75" /><text x="198" y="619.5" font-size="14" fill="lime" font-family="monospace" dominant-baseline="initial">119</text><rect x="0" y="609.0" width="188" height="1" fill="lime" fill-opacity="0.75" /><text x="198" y="610.0" font-size="14" fill="lime" font-family="monospace" dominant-baseline="initial">237</text><rect x="238" y="26.0" width="188" height="607.5" fill="black" /><rect x="238" y="632.5" width="188" height="1" fill="white" fill-opacity="0.5" /><text x="436" y="632.5" font-size="14" fill="white" font-family="monospace" dominant-baseline="initial">5</text><rect x="238" y="594.5" width="188" height="1" fill="white" fill-opacity="0.2" /><rect x="238" y="556.5" width="188" height="1" fill="white" fill-opacity="0.2" /><rect x="238" y="518.5" width="188" height="1" fill="white" fill-opacity="0.2" /><rect x="238" y="481.0" width="188" height="1" fill="white" fill-opacity="0.5" /><text x="436" y="481.0" font-size="14" fill="white" font-family="monospace" dominant-baseline="initial">6</text><rect x="238" y="443.0" width="188" height="1" fill="white" fill-opacity="0.2" /><rect x="238" y="405.0" width="188" height="1" fill="white" fill-opacity="0.2" /><rect x="238" y="367.0" width="188" height="1" fill="white" fill-opacity="0.2" /><rect x="238" y="329.0" width="188" height="1" fill="white" fill-opacity="0.5" /><text x="436" y="329.0" font-size="14" fill="white" font-family="monospace" dominant-baseline="initial">7</text><rect x="238" y="291.0" width="188" height="1" fill="white" fill-opacity="0.2" /><rect x="238" y="253.0" width="188" height="1" fill="white" fill-opacity="0.2" /><rect x="238" y="215.0" width="188" height="1" fill="white" fill-opacity="0.2" /><rect x="238" y="177.0" width="188" height="1" fill="white" fill-opacity="0.5" /><text x="436" y="177.0" font-size="14" fill="white" font-family="monospace" dominant-baseline="initial">8</text><rect x="238" y="139.0" width="188" height="1" fill="white" fill-opacity="0.2" /><rect x="238" y="101.0" width="188" height="1" fill="white" fill-opacity="0.2" /><rect x="238" y="63.0" width="188" height="1" fill="white" fill-opacity="0.2" /><rect x="238" y="25.0" width="188" height="1" fill="white" fill-opacity="0.5" /><text x="436" y="25.0" font-size="14" fill="white" font-family="monospace" dominant-baseline="initial">9</text><rect x="476" y="26.0" width="188" height="607.5" fill="black" /><rect x="476" y="632.5" width="188" height="1" fill="white" fill-opacity="0.5" /><text x="674" y="632.5" font-size="14" fill="white" font-family="monospace" dominant-baseline="initial">9</text><rect x="476" y="594.5" width="188" height="1" fill="white" fill-opacity="0.2" /><rect x="476" y="556.5" width="188" height="1" fill="white" fill-opacity="0.2" /><rect x="476" y="518.5" width="188" height="1" fill="white" fill-opacity="0.2" /><rect x="476" y="480.5" width="188" height="1" fill="white" fill-opacity="0.5" /><text x="674" y="480.5" font-size="14" fill="white" font-family="monospace" dominant-baseline="initial">10</text><rect x="476" y="442.5" width="188" height="1" fill="white" fill-opacity="0.2" /><rect x="476" y="404.5" width="188" height="1" fill="white" fill-opacity="0.2" /><rect x="476" y="366.5" width="188" height="1" fill="white" fill-opacity="0.2" /><rect x="476" y="329.0" width="188" height="1" fill="white" fill-opacity="0.5" /><text x="674" y="329.0" font-size="14" fill="white" font-family="monospace" dominant-baseline="initial">11</text><rect x="476" y="291.0" width="188" height="1" fill="white" fill-opacity="0.2" /><rect x="476" y="253.0" width="188" height="1" fill="white" fill-opacity="0.2" /><rect x="476" y="215.0" width="188" height="1" fill="white" fill-opacity="0.2" /><rect x="476" y="177.0" width="188" height="1" fill="white" fill-opacity="0.5" /><text x="674" y="177.0" font-size="14" fill="white" font-family="monospace" dominant-baseline="initial">12</text><rect x="476" y="139.0" width="188" height="1" fill="white" fill-opacity="0.2" /><rect x="476" y="101.0" width="188" height="1" fill="white" fill-opacity="0.2" /><rect x="476" y="63.0" width="188" height="1" fill="white" fill-opacity="0.2" /><rect x="476" y="25.0" width="188" height="1" fill="white" fill-opacity="0.5" /><text x="674" y="25.0" font-size="14" fill="white" font-family="monospace" dominant-baseline="initial">13</text><rect x="714" y="26.0" width="188" height="607.5" fill="black" /><rect x="714" y="632.5" width="188" height="1" fill="white" fill-opacity="0.5" /><text x="912" y="632.5" font-size="14" fill="white" font-family="monospace" dominant-baseline="initial">13</text><rect x="714" y="594.5" width="188" height="1" fill="white" fill-opacity="0.2" /><rect x="714" y="556.5" width="188" height="1" fill="white" fill-opacity="0.2" /><rect x="714" y="518.5" width="188" height="1" fill="white" fill-opacity="0.2" /><rect x="714" y="480.5" width="188" height="1" fill="white" fill-opacity="0.5" /><text x="912" y="480.5" font-size="14" fill="white" font-family="monospace" dominant-baseline="initial">14</text><rect x="714" y="442.5" width="188" height="1" fill="white" fill-opacity="0.2" /><rect x="714" y="404.5" width="188" height="1" fill="white" fill-opacity="0.2" /><rect x="714" y="366.5" width="188" height="1" fill="white" fill-opacity="0.2" /><rect x="714" y="328.5" width="188" height="1" fill="white" fill-opacity="0.5" /><text x="912" y="328.5" font-size="14" fill="white" font-family="monospace" dominant-baseline="initial">15</text><rect x="714" y="290.5" width="188" height="1" fill="white" fill-opacity="0.2" /><rect x="714" y="252.5" width="188" height="1" fill="white" fill-opacity="0.2" /><rect x="714" y="215.0" width="188" height="1" fill="white" fill-opacity="0.2" /><rect x="714" y="177.0" width="188" height="1" fill="white" fill-opacity="0.5" /><text x="912" y="177.0" font-size="14" fill="white" font-family="monospace" dominant-baseline="initial">16</text><rect x="714" y="139.0" width="188" height="1" fill="white" fill-opacity="0.2" /><rect x="714" y="101.0" width="188" height="1" fill="white" fill-opacity="0.2" /><rect x="714" y="63.0" width="188" height="1" fill="white" fill-opacity="0.2" /><rect x="714" y="25.0" width="188" height="1" fill="white" fill-opacity="0.5" /><text x="912" y="25.0" font-size="14" fill="white" font-family="monospace" dominant-baseline="initial">17</text><rect x="952" y="26.0" width="188" height="607.5" fill="black" /><rect x="952" y="632.5" width="188" height="1" fill="white" fill-opacity="0.5" /><text x="1150" y="632.5" font-size="14" fill="white" font-family="monospace" dominant-baseline="initial">17</text><rect x="952" y="594.5" width="188" height="1" fill="white" fill-opacity="0.2" /><rect x="952" y="556.5" width="188" height="1" fill="white" fill-opacity="0.2" /><rect x="952" y="518.5" width="188" height="1" fill="white" fill-opacity="0.2" /><rect x="952" y="480.5" width="188" height="1" fill="white" fill-opacity="0.5" /><text x="1150" y="480.5" font-size="14" fill="white" font-family="monospace" dominant-baseline="initial">18</text><rect x="952" y="442.5" width="188" height="1" fill="white" fill-opacity="0.2" /><rect x="952" y="404.5" width="188" height="1" fill="white" fill-opacity="0.2" /><rect x="952" y="366.5" width="188" height="1" fill="white" fill-opacity="0.2" /><rect x="952" y="328.5" width="188" height="1" fill="white" fill-opacity="0.5" /><text x="1150" y="328.5" font-size="14" fill="white" font-family="monospace" dominant-baseline="initial">19</text><rect x="952" y="290.5" width="188" height="1" fill="white" fill-opacity="0.2" /><rect x="952" y="252.5" width="188" height="1" fill="white" fill-opacity="0.2" /><rect x="952" y="214.5" width="188" height="1" fill="white" fill-opacity="0.2" /><rect x="952" y="176.5" width="188" height="1" fill="white" fill-opacity="0.5" /><text x="1150" y="176.5" font-size="14" fill="white" font-family="monospace" dominant-baseline="initial">20</text><rect x="952" y="138.5" width="188" height="1" fill="white" fill-opacity="0.2" /><rect x="952" y="101.0" width="188" height="1" fill="white" fill-opacity="0.2" /><rect x="952" y="63.0" width="188" height="1" fill="white" fill-opacity="0.2" /><rect x="952" y="25.0" width="188" height="1" fill="white" fill-opacity="0.5" /><text x="1150" y="25.0" font-size="14" fill="white" font-family="monospace" dominant-baseline="initial">21</text><rect x="952" y="480.5500000000002" width="188" height="1" fill="aqua" fill-opacity="0.75" /><text x="952" y="476.5500000000002" font-size="14" fill="aqua" fill-opacity="0.75" font-family="monospace">Phrase B</text><rect x="1190" y="25.5" width="188" height="608.0" fill="black" /><rect x="1190" y="632.5" width="188" height="1" fill="white" fill-opacity="0.5" /><text x="1388" y="632.5" font-size="14" fill="white" font-family="monospace" dominant-baseline="initial">21</text><rect x="1190" y="594.5" width="188" height="1" fill="white" fill-opacity="0.2" /><rect x="1190" y="556.5" width="188" height="1" fill="white" fill-opacity="0.2" /><rect x="1190" y="518.5" width="188" height="1" fill="white" fill-opacity="0.2" /><rect x="1190" y="480.5" width="188" height="1" fill="white" fill-opacity="0.5" /><text x="1388" y="480.5" font-size="14" fill="white" font-family="monospace" dominant-baseline="initial">22</text><rect x="1190" y="442.5" width="188" height="1" fill="white" fill-opacity="0.2" /><rect x="1190" y="404.5" width="188" height="1" fill="white" fill-opacity="0.2" /><rect x="1190" y="366.5" width="188" height="1" fill="white" fill-opacity="0.2" /><rect x="1190" y="328.5" width="188" height="1" fill="white" fill-opacity="0.5" /><text x="1388" y="328.5" font-size="14" fill="white" font-family="monospace" dominant-baseline="initial">23</text><rect x="1190" y="290.5" width="188" height="1" fill="white" fill-opacity="0.2" /><rect x="1190" y="252.5" width="188" height="1" fill="white" fill-opacity="0.2" /><rect x="1190" y="214.5" width="188" height="1" fill="white" fill-opacity="0.2" /><rect x="1190" y="176.5" width="188" height="1" fill="white" fill-opacity="0.5" /><text x="1388" y="176.5" font-size="14" fill="white" font-family="monospace" dominant-baseline="initial">24</text><rect x="1190" y="138.5" width="188" height="1" fill="white" fill-opacity="0.2" /><rect x="1190" y="100.5" width="188" height="1" fill="white" fill-opacity="0.2" /><rect x="1190" y="62.5" width="188" height="1" fill="white" fill-opacity="0.2" /><rect x="1190" y="24.5" width="188" height="1" fill="white" fill-opacity="0.5" /><text x="1388" y="24.5" font-size="14" fill="white" font-family="monospace" dominant-baseline="initial">25</text><rect x="1428" y="26.0" width="188" height="607.5" fill="black" /><rect x="1428" y="632.5" width="188" height="1" fill="white" fill-opacity="0.5" /><text x="1626" y="632.5" font-size="14" fill="white" font-family="monospace" dominant-baseline="initial">25</text><rect x="1428" y="595.0" width="188" height="1" fill="white" fill-opacity="0.2" /><rect x="1428" y="557.0" width="188" height="1" fill="white" fill-opacity="0.2" /><rect x="1428" y="519.0" width="188" height="1" fill="white" fill-opacity="0.2" /><rect x="1428" y="481.0" width="188" height="1" fill="white" fill-opacity="0.5" /><text x="1626" y="481.0" font-size="14" fill="white" font-family="monospace" dominant-baseline="initial">26</text><rect x="1428" y="443.0" width="188" height="1" fill="white" fill-opacity="0.2" /><rect x="1428" y="405.0" width="188" height="1" fill="white" fill-opacity="0.2" /><rect x="1428" y="367.0" width="188" height="1" fill="white" fill-opacity="0.2" /><rect x="1428" y="329.0" width="188" height="1" fill="white" fill-opacity="0.5" /><text x="1626" y="329.0" font-size="14" fill="white" font-family="monospace" dominant-baseline="initial">27</text><rect x="1428" y="291.0" width="188" height="1" fill="white" fill-opacity="0.2" /><rect x="1428" y="253.0" width="188" height="1" fill="white" fill-opacity="0.2" /><rect x="1428" y="215.0" width="188" height="1" fill="white" fill-opacity="0.2" /><rect x="1428" y="177.0" width="188" height="1" fill="white" fill-opacity="0.5" /><text x="1626" y="177.0" font-size="14" fill="white" font-family="monospace" dominant-baseline="initial">28</text><rect x="1428" y="139.0" width="188" height="1" fill="white" fill-opacity="0.2" /><rect x="1428" y="101.0" width="188" height="1" fill="white" fill-opacity="0.2" /><rect x="1428" y="63.0" width="188" height="1" fill="white" fill-opacity="0.2" /><rect x="1428" y="25.0" width="188" height="1" fill="white" fill-opacity="0.5" /><text x="1626" y="25.0" font-size="14" fill="white" font-family="monospace" dominant-baseline="initial">29</text><rect x="1428" y="480.9000000000001" width="188" height="1" fill="aqua" fill-opacity="0.75" /><text x="1428" y="476.9000000000001" font-size="14" fill="aqua" fill-opacity="0.75" font-family="monospace">Phrase A</text><rect x="1666" y="26.0" width="188" height="607.5" fill="black" /><rect x="1666" y="632.5" width="188" height="1" fill="white" fill-opacity="0.5" /><text x="1864" y="632.5" font-size="14" fill="white" font-family="monospace" dominant-baseline="initial">29</text><rect x="1666" y="594.5" width="188" height="1" fill="white" fill-opacity="0.2" /><rect x="1666" y="556.5" width="188" height="1" fill="white" fill-opacity="0.2" /><rect x="1666" y="518.5" width="188" height="1" fill="white" fill-opacity="0.2" /><rect x="1666" y="480.5" width="188" height="1" fill="white" fill-opacity="0.5" /><text x="1864" y="480.5" font-size="14" fill="white" font-family="monospace" dominant-baseline="initial">30</text><rect x="1666" y="443.0" width="188" height="1" fill="white" fill-opacity="0.2" /><rect x="1666" y="405.0" width="188" height="1" fill="white" fill-opacity="0.2" /><rect x="1666" y="367.0" width="188" height="1" fill="white" fill-opacity="0.2" /><rect x="1666" y="329.0" width="188" height="1" fill="white" fill-opacity="0.5" /><text x="1864" y="329.0" font-size="14" fill="white" font-family="monospace" dominant-baseline="initial">31</text><rect x="1666" y="291.0" width="188" height="1" fill="white" fill-opacity="0.2" /><rect x="1666" y="253.0" width="188" height="1" fill="white" fill-opacity="0.2" /><rect x="1666" y="215.0" width="188" height="1" fill="white" fill-opacity="0.2" /><rect x="1666" y="177.0" width="188" height="1" fill="white" fill-opacity="0.5" /><text x="1864" y="177.0" font-size="14" fill="white" font-family="monospace" dominant-baseline="initial">32</text><rect x="1666" y="139.0" width="188" height="1" fill="white" fill-opacity="0.2" /><rect x="1666" y="101.0" width="188" height="1" fill="white" fill-opacity="0.2" /><rect x="1666" y="63.0" width="188" height="1" fill="white" fill-opacity="0.2" /><rect x="1666" y="25.0" width="188" height="1" fill="white" fill-opacity="0.5" /><text x="1864" y="25.0" font-size="14" fill="white" font-family="monospace" dominant-baseline="initial">33</text><rect x="1904" y="26.0" width="188" height="607.5" fill="black" /><rect x="1904" y="632.5" width="188" height="1" fill="white" fill-opacity="0.5" /><text x="2102" y="632.5" font-size="14" fill="white" font-family="monospace" dominant-baseline="initial">33</text><rect x="1904" y="594.5" width="188" height="1" fill="white" fill-opacity="0.2" /><rect x="1904" y="556.5" width="188" height="1" fill="white" fill-opacity="0.2" /><rect x="1904" y="518.5" width="188" height="1" fill="white" fill-opacity="0.2" /><rect x="1904" y="480.5" width="188" height="1" fill="white" fill-opacity="0.5" /><text x="2102" y="480.5" font-size="14" fill="white" font-family="monospace" dominant-baseline="initial">34</text><rect x="1904" y="442.5" width="188" height="1" fill="white" fill-opacity="0.2" /><rect x="1904" y="404.5" width="188" height="1" fill="white" fill-opacity="0.2" /><rect x="1904" y="366.5" width="188" height="1" fill="white" fill-opacity="0.2" /><rect x="1904" y="329.0" width="188" height="1" fill="white" fill-opacity="0.5" /><text x="2102" y="329.0" font-size="14" fill="white" font-family="monospace" dominant-baseline="initial">35</text><rect x="1904" y="291.0" width="188" height="1" fill="white" fill-opacity="0.2" /><rect x="1904" y="253.0" width="188" height="1" fill="white" fill-opacity="0.2" /><rect x="1904" y="215.0" width="188" height="1" fill="white" fill-opacity="0.2" /><rect x="1904" y="177.0" width="188" height="1" fill="white" fill-opacity="0.5" /><text x="2102" y="177.0" font-size="14" fill="white" font-family="monospace" dominant-baseline="initial">36</text><rect x="1904" y="139.0" width="188" height="1" fill="white" fill-opacity="0.2" /><rect x="1904" y="101.0" width="188" height="1" fill="white" fill-opacity="0.2" /><rect x="1904" y="63.0" width="188" height="1" fill="white" fill-opacity="0.2" /><rect x="1904" y="25.0" width="188" height="1" fill="white" fill-opacity="0.5" /><text x="2102" y="25.0" font-size="14" fill="white" font-family="monospace" dominant-baseline="initial">37</text><rect x="1904" y="480.60000000000036" width="188" height="1" fill="aqua" fill-opacity="0.75" /><text x="1904" y="476.60000000000036" font-size="14" fill="aqua" fill-opacity="0.75" font-family="monospace">Special</text><rect x="2142" y="26.0" width="188" height="607.5" fill="black" /><rect x="2142" y="632.5" width="188" height="1" fill="white" fill-opacity="0.5" /><text x="2340" y="632.5" font-size="14" fill="white" font-family="monospace" dominant-baseline="initial">37</text><rect x="2142" y="594.5" width="188" height="1" fill="white" fill-opacity="0.2" /><rect x="2142" y="556.5" width="188" height="1" fill="white" fill-opacity="0.2" /><rect x="2142" y="518.5" width="188" height="1" fill="white" fill-opacity="0.2" /><rect x="2142" y="480.5" width="188" height="1" fill="white" fill-opacity="0.5" /><text x="2340" y="480.5" font-size="14" fill="white" font-family="monospace" dominant-baseline="initial">38</text><rect x="2142" y="442.5" width="188" height="1" fill="white" fill-opacity="0.2" /><rect x="2142" y="404.5" width="188" height="1" fill="white" fill-opacity="0.2" /><rect x="2142" y="366.5" width="188" height="1" fill="white" fill-opacity="0.2" /><rect x="2142" y="328.5" width="188" height="1" fill="white" fill-opacity="0.5" /><text x="2340" y="328.5" font-size="14" fill="white" font-family="monospace" dominant-baseline="initial">39</text><rect x="2142" y="290.5" width="188" height="1" fill="white" fill-opacity="0.2" /><rect x="2142" y="252.5" width="188" height="1" fill="white" fill-opacity="0.2" /><rect x="2142" y="215.0" width="188" height="1" fill="white" fill-opacity="0.2" /><rect x="2142" y="177.0" width="188" height="1" fill="white" fill-opacity="0.5" /><text x="2340" y="177.0" font-size="14" fill="white" font-family="monospace" dominant-baseline="initial">40</text><rect x="2142" y="139.0" width="188" height="1" fill="white" fill-opacity="0.2" /><rect x="2142" y="101.0" width="188" height="1" fill="white" fill-opacity="0.2" /><rect x="2142" y="63.0" width="188" height="1" fill="white" fill-opacity="0.2" /><rect x="2142" y="25.0" width="188" height="1" fill="white" fill-opacity="0.5" /><text x="2340" y="25.0" font-size="14" fill="white" font-family="monospace" dominant-baseline="initial">41</text><rect x="2380" y="26.0" width="188" height="607.5" fill="black" /><rect x="2380" y="632.5" width="188" height="1" fill="white" fill-opacity="0.5" /><text x="2578" y="632.5" font-size="14" fill="white" font-family="monospace" dominant-baseline="initial">41</text><rect x="2380" y="594.5" width="188" height="1" fill="white" fill-opacity="0.2" /><rect x="2380" y="556.5" width="188" height="1" fill="white" fill-opacity="0.2" /><rect x="2380" y="518.5" width="188" height="1" fill="white" fill-opacity="0.2" /><rect x="2380" y="480.5" width="188" height="1" fill="white" fill-opacity="0.5" /><text x="2578" y="480.5" font-size="14" fill="white" font-family="monospace" dominant-baseline="initial">42</text><rect x="2380" y="442.5" width="188" height="1" fill="white" fill-opacity="0.2" /><rect x="2380" y="404.5" width="188" height="1" fill="white" fill-opacity="0.2" /><rect x="2380" y="366.5" width="188" height="1" fill="white" fill-opacity="0.2" /><rect x="2380" y="328.5" width="188" height="1" fill="white" fill-opacity="0.5" /><text x="2578" y="328.5" font-size="14" fill="white" font-family="monospace" dominant-baseline="initial">43</text><rect x="2380" y="290.5" width="188" height="1" fill="white" fill-opacity="0.2" /><rect x="2380" y="252.5" width="188" height="1" fill="white" fill-opacity="0.2" /><rect x="2380" y="214.5" width="188" height="1" fill="white" fill-opacity="0.2" /><rect x="2380" y="176.5" width="188" height="1" fill="white" fill-opacity="0.5" /><text x="2578" y="176.5" font-size="14" fill="white" font-family="monospace" dominant-baseline="initial">44</text><rect x="2380" y="138.5" width="188" height="1" fill="white" fill-opacity="0.2" /><rect x="2380" y="101.0" width="188" height="1" fill="white" fill-opacity="0.2" /><rect x="2380" y="63.0" width="188" height="1" fill="white" fill-opacity="0.2" /><rect x="2380" y="25.0" width="188" height="1" fill="white" fill-opacity="0.5" /><text x="2578" y="25.0" font-size="14" fill="white" font-family="monospace" dominant-baseline="initial">45</text><rect x="2380" y="480.4500000000007" width="188" height="1" fill="aqua" fill-opacity="0.75" /><text x="2380" y="476.4500000000007" font-size="14" fill="aqua" fill-opacity="0.75" font-family="monospace">Solo</text><rect x="2618" y="25.5" width="188" height="608.0" fill="black" /><rect x="2618" y="632.5" width="188" height="1" fill="white" fill-opacity="0.5" /><text x="2816" y="632.5" font-size="14" fill="white" font-family="monospace" dominant-baseline="initial">45</text><rect x="2618" y="594.5" width="188" height="1" fill="white" fill-opacity="0.2" /><rect x="2618" y="556.5" width="188" height="1" fill="white" fill-opacity="0.2" /><rect x="2618" y="518.5" width="188" height="1" fill="white" fill-opacity="0.2" /><rect x="2618" y="480.5" width="188" height="1" fill="white" fill-opacity="0.5" /><text x="2816" y="480.5" font-size="14" fill="white" font-family="monospace" dominant-baseline="initial">46</text><rect x="2618" y="442.5" width="188" height="1" fill="white" fill-opacity="0.2" /><rect x="2618" y="404.5" width="188" height="1" fill="white" fill-opacity="0.2" /><rect x="2618" y="366.5" width="188" height="1" fill="white" fill-opacity="0.2" /><rect x="2618" y="328.5" width="188" height="1" fill="white" fill-opacity="0.5" /><text x="2816" y="328.5" font-size="14" fill="white" font-family="monospace" dominant-baseline="initial">47</text><rect x="2618" y="290.5" width="188" height="1" fill="white" fill-opacity="0.2" /><rect x="2618" y="252.5" width="188" height="1" fill="white" fill-opacity="0.2" /><rect x="2618" y="214.5" width="188" height="1" fill="white" fill-opacity="0.2" /><rect x="2618" y="176.5" width="188" height="1" fill="white" fill-opacity="0.5" /><text x="2816" y="176.5" font-size="14" fill="white" font-family="monospace" dominant-baseline="initial">48</text><rect x="2618" y="138.5" width="188" height="1" fill="white" fill-opacity="0.2" /><rect x="2618" y="100.5" width="188" height="1" fill="white" fill-opacity="0.2" /><rect x="2618" y="62.5" width="188" height="1" fill="white" fill-opacity="0.2" /><rect x="2618" y="24.5" width="188" height="1" fill="white" fill-opacity="0.5" /><text x="2816" y="24.5" font-size="14" fill="white" font-family="monospace" dominant-baseline="initial">49</text><rect x="2856" y="26.0" width="188" height="607.5" fill="black" /><rect x="2856" y="632.5" width="188" height="1" fill="white" fill-opacity="0.5" /><text x="3054" y="632.5" font-size="14" fill="white" font-family="monospace" dominant-baseline="initial">49</text><rect x="2856" y="595.0" width="188" height="1" fill="white" fill-opacity="0.2" /><rect x="2856" y="557.0" width="188" height="1" fill="white" fill-opacity="0.2" /><rect x="2856" y="519.0" width="188" height="1" fill="white" fill-opacity="0.2" /><rect x="2856" y="481.0" width="188" height="1" fill="white" fill-opacity="0.5" /><text x="3054" y="481.0" font-size="14" fill="white" font-family="monospace" dominant-baseline="initial">50</text><rect x="2856" y="443.0" width="188" height="1" fill="white" fill-opacity="0.2" /><rect x="2856" y="405.0" width="188" height="1" fill="white" fill-opacity="0.2" /><rect x="2856" y="367.0" width="188" height="1" fill="white" fill-opacity="0.2" /><rect x="2856" y="329.0" width="188" height="1" fill="white" fill-opacity="0.5" /><text x="3054" y="329.0" font-size="14" fill="white" font-family="monospace" dominant-baseline="initial">51</text><rect x="2856" y="291.0" width="188" height="1" fill="white" fill-opacity="0.2" /><rect x="2856" y="253.0" width="188" height="1" fill="white" fill-opacity="0.2" /><rect x="2856" y="215.0" width="188" height="1" fill="white" fill-opacity="0.2" /><rect x="2856" y="177.0" width="188" height="1" fill="white" fill-opacity="0.5" /><text x="3054" y="177.0" font-size="14" fill="white" font-family="monospace" dominant-baseline="initial">52</text><rect x="2856" y="139.0" width="188" height="1" fill="white" fill-opacity="0.2" /><rect x="2856" y="101.0" width="188" height="1" fill="white" fill-opacity="0.2" /><rect x="2856" y="63.0" width="188" height="1" fill="white" fill-opacity="0.2" /><rect x="2856" y="25.0" width="188" height="1" fill="white" fill-opacity="0.5" /><text x="3054" y="25.0" font-size="14" fill="white" font-family="monospace" dominant-baseline="initial">53</text><rect x="3094" y="26.0" width="188" height="607.5" fill="black" /><rect x="3094" y="632.5" width="188" height="1" fill="white" fill-opacity="0.5" /><text x="3292" y="632.5" font-size="14" fill="white" font-family="monospace" dominant-baseline="initial">53</text><rect x="3094" y="594.5" width="188" height="1" fill="white" fill-opacity="0.2" /><rect x="3094" y="556.5" width="188" height="1" fill="white" fill-opacity="0.2" /><rect x="3094" y="518.5" width="188" height="1" fill="white" fill-opacity="0.2" /><rect x="3094" y="480.5" width="188" height="1" fill="white" fill-opacity="0.5" /><text x="3292" y="480.5" font-size="14" fill="white" font-family="monospace" dominant-baseline="initial">54</text><rect x="3094" y="443.0" width="188" height="1" fill="white" fill-opacity="0.2" /><rect x="3094" y="405.0" width="188" height="1" fill="white" fill-opacity="0.2" /><rect x="3094" y="367.0" width="188" height="1" fill="white" fill-opacity="0.2" /><rect x="3094" y="329.0" width="188" height="1" fill="white" fill-opacity="0.5" /><text x="3292" y="329.0" font-size="14" fill="white" font-family="monospace" dominant-baseline="initial">55</text><rect x="3094" y="291.0" width="188" height="1" fill="white" fill-opacity="0.2" /><rect x="3094" y="253.0" width="188" height="1" fill="white" fill-opacity="0.2" /><rect x="3094" y="215.0" width="188" height="1" fill="white" fill-opacity="0.2" /><rect x="3094" y="177.0" width="188" height="1" fill="white" fill-opacity="0.5" /><text x="3292" y="177.0" font-size="14" fill="white" font-family="monospace" dominant-baseline="initial">56</text><rect x="3094" y="139.0" width="188" height="1" fill="white" fill-opacity="0.2" /><rect x="3094" y="101.0" width="188" height="1" fill="white" fill-opacity="0.2" /><rect x="3094" y="63.0" width="188" height="1" fill="white" fill-opacity="0.2" /><rect x="3094" y="25.0" width="188" height="1" fill="white" fill-opacity="0.5" /><text x="3292" y="25.0" font-size="14" fill="white" font-family="monospace" dominant-baseline="initial">57</text><rect x="3332" y="26.0" width="188" height="607.5" fill="black" /><rect x="3332" y="632.5" width="188" height="1" fill="white" fill-opacity="0.5" /><text x="3530" y="632.5" font-size="14" fill="white" font-family="monospace" dominant-baseline="initial">57</text><rect x="3332" y="594.5" width="188" height="1" fill="white" fill-opacity="0.2" /><rect x="3332" y="556.5" width="188" height="1" fill="white" fill-opacity="0.2" /><rect x="3332" y="518.5" width="188" height="1" fill="white" fill-opacity="0.2" /><rect x="3332" y="480.5" width="188" height="1" fill="white" fill-opacity="0.5" /><text x="3530" y="480.5" font-size="14" fill="white" font-family="monospace" dominant-baseline="initial">58</text><rect x="3332" y="442.5" width="188" height="1" fill="white" fill-opacity="0.2" /><rect x="3332" y="404.5" width="188" height="1" fill="white" fill-opacity="0.2" /><rect x="3332" y="366.5" width="188" height="1" fill="white" fill-opacity="0.2" /><rect x="3332" y="329.0" width="188" height="1" fill="white" fill-opacity="0.5" /><text x="3530" y="329.0" font-size="14" fill="white" font-family="monospace" dominant-baseline="initial">59</text><rect x="3332" y="291.0" width="188" height="1" fill="white" fill-opacity="0.2" /><rect x="3332" y="253.0" width="188" height="1" fill="white" fill-opacity="0.2" /><rect x="3332" y="215.0" width="188" height="1" fill="white" fill-opacity="0.2" /><rect x="3332" y="177.0" width="188" height="1" fill="white" fill-opacity="0.5" /><text x="3530" y="177.0" font-size="14" fill="white" font-family="monospace" dominant-baseline="initial">60</text><rect x="3332" y="139.0" width="188" height="1" fill="white" fill-opacity="0.2" /><rect x="3332" y="101.0" width="188" height="1" fill="white" fill-opacity="0.2" /><rect x="3332" y="63.0" width="188" height="1" fill="white" fill-opacity="0.2" /><rect x="3332" y="25.0" width="188" height="1" fill="white" fill-opacity="0.5" /><text x="3530" y="25.0" font-size="14" fill="white" font-family="monospace" dominant-baseline="initial">61</text><rect x="3332" y="176.89999999999964" width="188" height="1" fill="aqua" fill-opacity="0.75" /><text x="3332" y="172.89999999999964" font-size="14" fill="aqua" fill-opacity="0.75" font-family="monospace">Phrase A</text><rect x="3570" y="26.0" width="188" height="607.5" fill="black" /><rect x="3570" y="632.5" width="188" height="1" fill="white" fill-opacity="0.5" /><text x="3768" y="632.5" font-size="14" fill="white" font-family="monospace" dominant-baseline="initial">61</text><rect x="3570" y="594.5" width="188" height="1" fill="white" fill-opacity="0.2" /><rect x="3570" y="556.5" width="188" height="1" fill="white" fill-opacity="0.2" /><rect x="3570" y="518.5" width="188" height="1" fill="white" fill-opacity="0.2" /><rect x="3570" y="480.5" width="188" height="1" fill="white" fill-opacity="0.5" /><text x="3768" y="480.5" font-size="14" fill="white" font-family="monospace" dominant-baseline="initial">62</text><rect x="3570" y="442.5" width="188" height="1" fill="white" fill-opacity="0.2" /><rect x="3570" y="404.5" width="188" height="1" fill="white" fill-opacity="0.2" /><rect x="3570" y="366.5" width="188" height="1" fill="white" fill-opacity="0.2" /><rect x="3570" y="328.5" width="188" height="1" fill="white" fill-opacity="0.5" /><text x="3768" y="328.5" font-size="14" fill="white" font-family="monospace" dominant-baseline="initial">63</text><rect x="3570" y="290.5" width="188" height="1" fill="white" fill-opacity="0.2" /><rect x="3570" y="252.5" width="188" height="1" fill="white" fill-opacity="0.2" /><rect x="3570" y="215.0" width="188" height="1" fill="white" fill-opacity="0.2" /><rect x="3570" y="177.0" width="188" height="1" fill="white" fill-opacity="0.5" /><text x="3768" y="177.0" font-size="14" fill="white" font-family="monospace" dominant-baseline="initial">64</text><rect x="3570" y="139.0" width="188" height="1" fill="white" fill-opacity="0.2" /><rect x="3570" y="101.0" width="188" height="1" fill="white" fill-opacity="0.2" /><rect x="3570" y="63.0" width="188" height="1" fill="white" fill-opacity="0.2" /><rect x="3570" y="25.0" width="188" height="1" fill="white" fill-opacity="0.5" /><text x="3768" y="25.0" font-size="14" fill="white" font-family="monospace" dominant-baseline="initial">65</text><rect x="3808" y="26.0" width="188" height="607.5" fill="black" /><rect x="3808" y="632.5" width="188" height="1" fill="white" fill-opacity="0.5" /><text x="4006" y="632.5" font-size="14" fill="white" font-family="monospace" dominant-baseline="initial">65</text><rect x="3808" y="594.5" width="188" height="1" fill="white" fill-opacity="0.2" /><rect x="3808" y="556.5" width="188" height="1" fill="white" fill-opacity="0.2" /><rect x="3808" y="518.5" width="188" height="1" fill="white" fill-opacity="0.2" /><rect x="3808" y="480.5" width="188" height="1" fill="white" fill-opacity="0.5" /><text x="4006" y="480.5" font-size="14" fill="white" font-family="monospace" dominant-baseline="initial">66</text><rect x="3808" y="442.5" width="188" height="1" fill="white" fill-opacity="0.2" /><rect x="3808" y="404.5" width="188" height="1" fill="white" fill-opacity="0.2" /><rect x="3808" y="366.5" width="188" height="1" fill="white" fill-opacity="0.2" /><rect x="3808" y="328.5" width="188" height="1" fill="white" fill-opacity="0.5" /><text x="4006" y="328.5" font-size="14" fill="white" font-family="monospace" dominant-baseline="initial">67</text><rect x="3808" y="290.5" width="188" height="1" fill="white" fill-opacity="0.2" /><rect x="3808" y="252.5" width="188" height="1" fill="white" fill-opacity="0.2" /><rect x="3808" y="214.5" width="188" height="1" fill="white" fill-opacity="0.2" /><rect x="3808" y="176.5" width="188" height="1" fill="white" fill-opacity="0.5" /><text x="4006" y="176.5" font-size="14" fill="white" font-family="monospace" dominant-baseline="initial">68</text><rect x="3808" y="138.5" width="188" height="1" fill="white" fill-opacity="0.2" /><rect x="3808" y="101.0" width="188" height="1" fill="white" fill-opacity="0.2" /><rect x="3808" y="63.0" width="188" height="1" fill="white" fill-opacity="0.2" /><rect x="3808" y="25.0" width="188" height="1" fill="white" fill-opacity="0.5" /><text x="4006" y="25.0" font-size="14" fill="white" font-family="monospace" dominant-baseline="initial">69</text><rect x="4046" y="25.5" width="188" height="608.0" fill="black" /><rect x="4046" y="632.5" width="188" height="1" fill="white" fill-opacity="0.5" /><text x="4244" y="632.5" font-size="14" fill="white" font-family="monospace" dominant-baseline="initial">69</text><rect x="4046" y="594.5" width="188" height="1" fill="white" fill-opacity="0.2" /><rect x="4046" y="556.5" width="188" height="1" fill="white" fill-opacity="0.2" /><rect x="4046" y="518.5" width="188" height="1" fill="white" fill-opacity="0.2" /><rect x="4046" y="480.5" width="188" height="1" fill="white" fill-opacity="0.5" /><text x="4244" y="480.5" font-size="14" fill="white" font-family="monospace" dominant-baseline="initial">70</text><rect x="4046" y="442.5" width="188" height="1" fill="white" fill-opacity="0.2" /><rect x="4046" y="404.5" width="188" height="1" fill="white" fill-opacity="0.2" /><rect x="4046" y="366.5" width="188" height="1" fill="white" fill-opacity="0.2" /><rect x="4046" y="328.5" width="188" height="1" fill="white" fill-opacity="0.5" /><text x="4244" y="328.5" font-size="14" fill="white" font-family="monospace" dominant-baseline="initial">71</text><rect x="4046" y="290.5" width="188" height="1" fill="white" fill-opacity="0.2" /><rect x="4046" y="252.5" width="188" height="1" fill="white" fill-opacity="0.2" /><rect x="4046" y="214.5" width="188" height="1" fill="white" fill-opacity="0.2" /><rect x="4046" y="176.5" width="188" height="1" fill="white" fill-opacity="0.5" /><text x="4244" y="176.5" font-size="14" fill="white" font-family="monospace" dominant-baseline="initial">72</text><rect x="4046" y="138.5" width="188" height="1" fill="white" fill-opacity="0.2" /><rect x="4046" y="100.5" width="188" height="1" fill="white" fill-opacity="0.2" /><rect x="4046" y="62.5" width="188" height="1" fill="white" fill-opacity="0.2" /><rect x="4046" y="24.5" width="188" height="1" fill="white" fill-opacity="0.5" /><text x="4244" y="24.5" font-size="14" fill="white" font-family="monospace" dominant-baseline="initial">73</text><rect x="4046" y="632.3000000000011" width="188" height="1" fill="aqua" fill-opacity="0.75" /><text x="4046" y="628.3000000000011" font-size="14" fill="aqua" fill-opacity="0.75" font-family="monospace">Special</text><rect x="4284" y="26.0" width="188" height="607.5" fill="black" /><rect x="4284" y="632.5" width="188" height="1" fill="white" fill-opacity="0.5" /><text x="4482" y="632.5" font-size="14" fill="white" font-family="monospace" dominant-baseline="initial">73</text><rect x="4284" y="594.5" width="188" height="1" fill="white" fill-opacity="0.2" /><rect x="4284" y="557.0" width="188" height="1" fill="white" fill-opacity="0.2" /><rect x="4284" y="519.0" width="188" height="1" fill="white" fill-opacity="0.2" /><rect x="4284" y="481.0" width="188" height="1" fill="white" fill-opacity="0.5" /><text x="4482" y="481.0" font-size="14" fill="white" font-family="monospace" dominant-baseline="initial">74</text><rect x="4284" y="443.0" width="188" height="1" fill="white" fill-opacity="0.2" /><rect x="4284" y="405.0" width="188" height="1" fill="white" fill-opacity="0.2" /><rect x="4284" y="367.0" width="188" height="1" fill="white" fill-opacity="0.2" /><rect x="4284" y="329.0" width="188" height="1" fill="white" fill-opacity="0.5" /><text x="4482" y="329.0" font-size="14" fill="white" font-family="monospace" dominant-baseline="initial">75</text><rect x="4284" y="291.0" width="188" height="1" fill="white" fill-opacity="0.2" /><rect x="4284" y="253.0" width="188" height="1" fill="white" fill-opacity="0.2" /><rect x="4284" y="215.0" width="188" height="1" fill="white" fill-opacity="0.2" /><rect x="4284" y="177.0" width="188" height="1" fill="white" fill-opacity="0.5" /><text x="4482" y="177.0" font-size="14" fill="white" font-family="monospace" dominant-baseline="initial">76</text><rect x="4284" y="139.0" width="188" height="1" fill="white" fill-opacity="0.2" /><rect x="4284" y="101.0" width="188" height="1" fill="white" fill-opacity="0.2" /><rect x="4284" y="63.0" width="188" height="1" fill="white" fill-opacity="0.2" /><rect x="4284" y="25.0" width="188" height="1" fill="white" fill-opacity="0.5" /><text x="4482" y="25.0" font-size="14" fill="white" font-family="monospace" dominant-baseline="initial">77</text><rect x="4522" y="26.0" width="188" height="607.5" fill="black" /><rect x="4522" y="632.5" width="188" height="1" fill="white" fill-opacity="0.5" /><text x="4720" y="632.5" font-size="14" fill="white" font-family="monospace" dominant-baseline="initial">77</text><rect x="4522" y="594.5" width="188" height="1" fill="white" fill-opacity="0.2" /><rect x="4522" y="556.5" width="188" height="1" fill="white" fill-opacity="0.2" /><rect x="4522" y="518.5" width="188" height="1" fill="white" fill-opacity="0.2" /><rect x="4522" y="480.5" width="188" height="1" fill="white" fill-opacity="0.5" /><text x="4720" y="480.5" font-size="14" fill="white" font-family="monospace" dominant-baseline="initial">78</text><rect x="4522" y="443.0" width="188" height="1" fill="white" fill-opacity="0.2" /><rect x="4522" y="405.0" width="188" height="1" fill="white" fill-opacity="0.2" /><rect x="4522" y="367.0" width="188" height="1" fill="white" fill-opacity="0.2" /><rect x="4522" y="329.0" width="188" height="1" fill="white" fill-opacity="0.5" /><text x="4720" y="329.0" font-size="14" fill="white" font-family="monospace" dominant-baseline="initial">79</text><rect x="4522" y="291.0" width="188" height="1" fill="white" fill-opacity="0.2" /><rect x="4522" y="253.0" width="188" height="1" fill="white" fill-opacity="0.2" /><rect x="4522" y="215.0" width="188" height="1" fill="white" fill-opacity="0.2" /><rect x="4522" y="177.0" width="188" height="1" fill="white" fill-opacity="0.5" /><text x="4720" y="177.0" font-size="14" fill="white" font-family="monospace" dominant-baseline="initial">80</text><rect x="4522" y="139.0" width="188" height="1" fill="white" fill-opacity="0.2" /><rect x="4522" y="101.0" width="188" height="1" fill="white" fill-opacity="0.2" /><rect x="4522" y="63.0" width="188" height="1" fill="white" fill-opacity="0.2" /><rect x="4522" y="25.0" width="188" height="1" fill="white" fill-opacity="0.5" /><text x="4720" y="25.0" font-size="14" fill="white" font-family="monospace" dominant-baseline="initial">81</text><rect x="4760" y="136.5" width="188" height="497.0" fill="black" /><rect x="4760" y="632.5" width="188" height="1" fill="white" fill-opacity="0.5" /><text x="4958" y="632.5" font-size="14" fill="white" font-family="monospace" dominant-baseline="initial">81</text><rect x="4760" y="594.5" width="188" height="1" fill="white" fill-opacity="0.2" /><rect x="4760" y="556.5" width="188" height="1" fill="white" fill-opacity="0.2" /><rect x="4760" y="518.5" width="188" height="1" fill="white" fill-opacity="0.2" /><rect x="4760" y="480.5" width="188" height="1" fill="white" fill-opacity="0.5" /><text x="4958" y="480.5" font-size="14" fill="white" font-family="monospace" dominant-baseline="initial">82</text></svg>