<?xml version="1.0" encoding="UTF-8"?><svg xmlns="http://www.w3.org/2000/svg" xmlns:xlink="http://www.w3.org/1999/xlink"     width="2736" height="764.0" viewBox="0 0 2736 764.0"><defs></defs><rect x="0.0" y="375.0" width="12.0" height="3" fill="#ff3c3c" stroke="#c71f1f" /><rect x="13.0" y="375.0" width="12.0" height="3" fill="#35df39" stroke="#03aa10" /><rect x="0.0" y="422.0" width="12.0" height="3" fill="#ff3c3c" stroke="#c71f1f" /><rect x="26.0" y="422.0" width="12.0" height="3" fill="#80c9ff" stroke="#0b6cba" /><rect x="0.0" y="469.0" width="12.0" height="3" fill="#ff3c3c" stroke="#c71f1f" /><rect x="13.0" y="469.0" width="12.0" height="3" fill="#35df39" stroke="#03aa10" /><rect x="127.0" y="0.0" width="12.0" height="3" fill="#35df39" stroke="#03aa10" /><rect x="140.0" y="0.0" width="12.0" height="3" fill="#80c9ff" stroke="#0b6cba" /><rect x="127.0" y="47.0" width="12.0" height="3" fill="#35df39" stroke="#03aa10" /><rect x="140.0" y="47.0" width="12.0" height="3" fill="#80c9ff" stroke="#0b6cba" /><rect x="153.0" y="47.0" width="12.0" height="3" fill="#fff874" stroke="#eb9c26" /><rect x="127.0" y="94.0" width="12.0" height="3" fill="#35df39" stroke="#03aa10" /><rect x="140.0" y="94.0" width="12.0" height="3" fill="#80c9ff" stroke="#0b6cba" /><rect x="140.0" y="281.5" width="12.0" height="3" fill="#80c9ff" stroke="#0b6cba" /><rect x="153.0" y="281.5" width="12.0" height="3" fill="#fff874" stroke="#eb9c26" /><rect x="166.0" y="281.5" width="12.0" height="3" fill="#ff83f4" stroke="#d002bc" /><rect x="114.0" y="453.0" width="12.0" height="3" fill="#ff3c3c" stroke="#c71f1f" /><rect x="114.0" y="469.0" width="12.0" height="3" fill="#ff3c3c" stroke="#c71f1f" /><rect x="127.0" y="469.0" width="12.0" height="3" fill="#35df39" stroke="#03aa10" /><rect x="127.0" y="500.0" width="12.0" height="3" fill="#35df39" stroke="#03aa10" /><rect x="127.0" y="515.5" width="12.0" height="3" fill="#35df39" stroke="#03aa10" /><rect x="140.0" y="515.5" width="12.0" height="3" fill="#80c9ff" stroke="#0b6cba" /><rect x="127.0" y="547.0" width="12.0" height="3" fill="#35df39" stroke="#03aa10" /><rect x="140.0" y="562.5" width="12.0" height="3" fill="#80c9ff" stroke="#0b6cba" /><rect x="153.0" y="562.5" width="12.0" height="3" fill="#fff874" stroke="#eb9c26" /><rect x="127.0" y="594.0" width="12.0" height="3" fill="#35df39" stroke="#03aa10" /><rect x="140.0" y="609.5" width="12.0" height="3" fill="#80c9ff" stroke="#0b6cba" /><rect x="127.0" y="640.5" width="12.0" height="3" fill="#35df39" stroke="#03aa10" /><rect x="140.0" y="640.5" width="12.0" height="3" fill="#80c9ff" stroke="#0b6cba" /><rect x="254.0" y="0.0" width="12.0" height="3" fill="#80c9ff" stroke="#0b6cba" /><rect x="280.0" y="0.0" width="12.0" height="3" fill="#ff83f4" stroke="#d002bc" /><rect x="254.0" y="47.0" width="12.0" height="3" fill="#80c9ff" stroke="#0b6cba" /><rect x="267.0" y="47.0" width="12.0" height="3" fill="#fff874" stroke="#eb9c26" /><rect x="254.0" y="94.0" width="12.0" height="3" fill="#80c9ff" stroke="#0b6cba" /><rect x="241.0" y="140.5" width="12.0" height="3" fill="#35df39" stroke="#03aa10" /><rect x="267.0" y="140.5" width="12.0" height="3" fill="#fff874" stroke="#eb9c26" /><rect x="254.0" y="234.5" width="12.0" height="3" fill="#80c9ff" stroke="#0b6cba" /><rect x="267.0" y="234.5" width="12.0" height="3" fill="#fff874" stroke="#eb9c26" /><rect x="254.0" y="281.5" width="12.0" height="3" fill="#80c9ff" stroke="#0b6cba" /><rect x="280.0" y="281.5" width="12.0" height="3" fill="#ff83f4" stroke="#d002bc" /><rect x="267.0" y="328.0" width="12.0" height="365.85" fill="#fff874" stroke="#eb9c26" /><rect x="280.0" y="328.0" width="12.0" height="365.85" fill="#ff83f4" stroke="#d002bc" /><rect x="254.0" y="734.5" width="12.0" height="3" fill="#80c9ff" stroke="#0b6cba" /><rect x="394.0" y="375.0" width="12.0" height="3" fill="#ff83f4" stroke="#d002bc" /><rect x="342" y="375.0" width="64" height="3" fill="#ff72e7" stroke="#7c7c7c" /><rect x="394.0" y="422.0" width="12.0" height="3" fill="#ff83f4" stroke="#d002bc" /><rect x="342" y="422.0" width="64" height="3" fill="#ff72e7" stroke="#7c7c7c" /><rect x="368.0" y="469.0" width="12.0" height="3" fill="#80c9ff" stroke="#0b6cba" /><rect x="381.0" y="469.0" width="12.0" height="3" fill="#fff874" stroke="#eb9c26" /><rect x="381.0" y="547.0" width="12.0" height="3" fill="#fff874" stroke="#eb9c26" /><rect x="394.0" y="562.5" width="12.0" height="3" fill="#ff83f4" stroke="#d002bc" /><rect x="342" y="562.5" width="64" height="3" fill="#ff72e7" stroke="#7c7c7c" /><rect x="342.0" y="594.0" width="12.0" height="3" fill="#ff3c3c" stroke="#c71f1f" /><rect x="394.0" y="609.5" width="12.0" height="3" fill="#ff83f4" stroke="#d002bc" /><rect x="342" y="609.5" width="64" height="3" fill="#ff72e7" stroke="#7c7c7c" /><rect x="355.0" y="656.5" width="12.0" height="3" fill="#35df39" stroke="#03aa10" /><rect x="381.0" y="656.5" width="12.0" height="3" fill="#fff874" stroke="#eb9c26" /><rect x="394.0" y="703.0" width="12.0" height="3" fill="#ff83f4" stroke="#d002bc" /><rect x="342" y="703.0" width="64" height="3" fill="#ff72e7" stroke="#7c7c7c" /><rect x="381.0" y="734.5" width="12.0" height="3" fill="#fff874" stroke="#eb9c26" /><rect x="508.0" y="0.0" width="12.0" height="3" fill="#ff83f4" stroke="#d002bc" /><rect x="456" y="0.0" width="64" height="3" fill="#ff72e7" stroke="#7c7c7c" /><rect x="508.0" y="47.0" width="12.0" height="3" fill="#ff83f4" stroke="#d002bc" /><rect x="456" y="47.0" width="64" height="3" fill="#ff72e7" stroke="#7c7c7c" /><rect x="482.0" y="94.0" width="12.0" height="3" fill="#80c9ff" stroke="#0b6cba" /><rect x="508.0" y="94.0" width="12.0" height="3" fill="#ff83f4" stroke="#d002bc" /><rect x="508.0" y="172.0" width="12.0" height="3" fill="#ff83f4" stroke="#d002bc" /><rect x="508.0" y="187.5" width="12.0" height="3" fill="#ff83f4" stroke="#d002bc" /><rect x="456" y="187.5" width="64" height="3" fill="#ff72e7" stroke="#7c7c7c" /><rect x="508.0" y="234.5" width="12.0" height="3" fill="#ff83f4" stroke="#d002bc" /><rect x="456" y="234.5" width="64" height="3" fill="#ff72e7" stroke="#7c7c7c" /><rect x="469.0" y="281.5" width="12.0" height="3" fill="#35df39" stroke="#03aa10" /><rect x="495.0" y="281.5" width="12.0" height="3" fill="#fff874" stroke="#eb9c26" /><rect x="508.0" y="375.0" width="12.0" height="3" fill="#ff83f4" stroke="#d002bc" /><rect x="456" y="375.0" width="64" height="3" fill="#ff72e7" stroke="#7c7c7c" /><rect x="508.0" y="422.0" width="12.0" height="3" fill="#ff83f4" stroke="#d002bc" /><rect x="456" y="422.0" width="64" height="3" fill="#ff72e7" stroke="#7c7c7c" /><rect x="495.0" y="469.0" width="12.0" height="3" fill="#fff874" stroke="#eb9c26" /><rect x="508.0" y="469.0" width="12.0" height="3" fill="#ff83f4" stroke="#d002bc" /><rect x="508.0" y="547.0" width="12.0" height="3" fill="#ff83f4" stroke="#d002bc" /><rect x="508.0" y="594.0" width="12.0" height="3" fill="#ff83f4" stroke="#d002bc" /><rect x="456" y="594.0" width="64" height="3" fill="#ff72e7" stroke="#7c7c7c" /><rect x="469.0" y="609.5" width="12.0" height="3" fill="#35df39" stroke="#03aa10" /><rect x="482.0" y="609.5" width="12.0" height="3" fill="#80c9ff" stroke="#0b6cba" /><rect x="495.0" y="609.5" width="12.0" height="3" fill="#fff874" stroke="#eb9c26" /><rect x="469.0" y="656.5" width="12.0" height="3" fill="#35df39" stroke="#03aa10" /><rect x="482.0" y="656.5" width="12.0" height="3" fill="#80c9ff" stroke="#0b6cba" /><rect x="495.0" y="656.5" width="12.0" height="3" fill="#fff874" stroke="#eb9c26" /><rect x="508.0" y="703.0" width="12.0" height="3" fill="#ff83f4" stroke="#d002bc" /><rect x="456" y="703.0" width="64" height="3" fill="#ff72e7" stroke="#7c7c7c" /><rect x="508.0" y="734.5" width="12.0" height="3" fill="#ff83f4" stroke="#d002bc" /><rect x="456" y="734.5" width="64" height="3" fill="#ff72e7" stroke="#7c7c7c" /><rect x="570.0" y="0.0" width="12.0" height="3" fill="#ff3c3c" stroke="#c71f1f" /><rect x="596.0" y="0.0" width="12.0" height="3" fill="#80c9ff" stroke="#0b6cba" /><rect x="570.0" y="31.5" width="12.0" height="3" fill="#ff3c3c" stroke="#c71f1f" /><rect x="596.0" y="31.5" width="12.0" height="3" fill="#80c9ff" stroke="#0b6cba" /><rect x="570.0" y="47.0" width="12.0" height="3" fill="#ff3c3c" stroke="#c71f1f" /><rect x="596.0" y="47.0" width="12.0" height="3" fill="#80c9ff" stroke="#0b6cba" /><rect x="570.0" y="94.0" width="12.0" height="3" fill="#ff3c3c" stroke="#c71f1f" /><rect x="596.0" y="94.0" width="12.0" height="3" fill="#80c9ff" stroke="#0b6cba" /><rect x="570.0" y="140.5" width="12.0" height="3" fill="#ff3c3c" stroke="#c71f1f" /><rect x="570.0" y="172.0" width="12.0" height="3" fill="#ff3c3c" stroke="#c71f1f" /><rect x="583.0" y="187.5" width="12.0" height="3" fill="#35df39" stroke="#03aa10" /><rect x="596.0" y="187.5" width="12.0" height="3" fill="#80c9ff" stroke="#0b6cba" /><rect x="583.0" y="219.0" width="12.0" height="3" fill="#35df39" stroke="#03aa10" /><rect x="583.0" y="234.5" width="12.0" height="3" fill="#35df39" stroke="#03aa10" /><rect x="596.0" y="234.5" width="12.0" height="3" fill="#80c9ff" stroke="#0b6cba" /><rect x="583.0" y="265.5" width="12.0" height="3" fill="#35df39" stroke="#03aa10" /><rect x="583.0" y="281.5" width="12.0" height="3" fill="#35df39" stroke="#03aa10" /><rect x="596.0" y="281.5" width="12.0" height="3" fill="#80c9ff" stroke="#0b6cba" /><rect x="622.0" y="375.0" width="12.0" height="3" fill="#ff83f4" stroke="#d002bc" /><rect x="570" y="375.0" width="64" height="3" fill="#ff72e7" stroke="#7c7c7c" /><rect x="622.0" y="422.0" width="12.0" height="3" fill="#ff83f4" stroke="#d002bc" /><rect x="570" y="422.0" width="64" height="3" fill="#ff72e7" stroke="#7c7c7c" /><rect x="596.0" y="469.0" width="12.0" height="3" fill="#80c9ff" stroke="#0b6cba" /><rect x="609.0" y="469.0" width="12.0" height="3" fill="#fff874" stroke="#eb9c26" /><rect x="609.0" y="547.0" width="12.0" height="3" fill="#fff874" stroke="#eb9c26" /><rect x="622.0" y="562.5" width="12.0" height="3" fill="#ff83f4" stroke="#d002bc" /><rect x="570" y="562.5" width="64" height="3" fill="#ff72e7" stroke="#7c7c7c" /><rect x="570.0" y="594.0" width="12.0" height="3" fill="#ff3c3c" stroke="#c71f1f" /><rect x="622.0" y="609.5" width="12.0" height="3" fill="#ff83f4" stroke="#d002bc" /><rect x="570" y="609.5" width="64" height="3" fill="#ff72e7" stroke="#7c7c7c" /><rect x="583.0" y="656.5" width="12.0" height="3" fill="#35df39" stroke="#03aa10" /><rect x="609.0" y="656.5" width="12.0" height="3" fill="#fff874" stroke="#eb9c26" /><rect x="622.0" y="703.0" width="12.0" height="3" fill="#ff83f4" stroke="#d002bc" /><rect x="570" y="703.0" width="64" height="3" fill="#ff72e7" stroke="#7c7c7c" /><rect x="609.0" y="734.5" width="12.0" height="3" fill="#fff874" stroke="#eb9c26" /><rect x="736.0" y="0.0" width="12.0" height="3" fill="#ff83f4" stroke="#d002bc" /><rect x="684" y="0.0" width="64" height="3" fill="#ff72e7" stroke="#7c7c7c" /><rect x="736.0" y="47.0" width="12.0" height="3" fill="#ff83f4" stroke="#d002bc" /><rect x="684" y="47.0" width="64" height="3" fill="#ff72e7" stroke="#7c7c7c" /><rect x="710.0" y="94.0" width="12.0" height="3" fill="#80c9ff" stroke="#0b6cba" /><rect x="736.0" y="94.0" width="12.0" height="3" fill="#ff83f4" stroke="#d002bc" /><rect x="736.0" y="187.5" width="12.0" height="3" fill="#ff83f4" stroke="#d002bc" /><rect x="684" y="187.5" width="64" height="3" fill="#ff72e7" stroke="#7c7c7c" /><rect x="736.0" y="234.5" width="12.0" height="3" fill="#ff83f4" stroke="#d002bc" /><rect x="684" y="234.5" width="64" height="3" fill="#ff72e7" stroke="#7c7c7c" /><rect x="684.0" y="281.5" width="12.0" height="3" fill="#ff3c3c" stroke="#c71f1f" /><rect x="710.0" y="281.5" width="12.0" height="3" fill="#80c9ff" stroke="#0b6cba" /><rect x="697.0" y="375.0" width="12.0" height="3" fill="#35df39" stroke="#03aa10" /><rect x="723.0" y="375.0" width="12.0" height="3" fill="#fff874" stroke="#eb9c26" /><rect x="697.0" y="406.5" width="12.0" height="3" fill="#35df39" stroke="#03aa10" /><rect x="710.0" y="406.5" width="12.0" height="3" fill="#80c9ff" stroke="#0b6cba" /><rect x="697.0" y="422.0" width="12.0" height="3" fill="#35df39" stroke="#03aa10" /><rect x="723.0" y="422.0" width="12.0" height="3" fill="#fff874" stroke="#eb9c26" /><rect x="697.0" y="469.0" width="12.0" height="3" fill="#35df39" stroke="#03aa10" /><rect x="723.0" y="469.0" width="12.0" height="3" fill="#fff874" stroke="#eb9c26" /><rect x="697.0" y="515.5" width="12.0" height="3" fill="#35df39" stroke="#03aa10" /><rect x="723.0" y="547.0" width="12.0" height="3" fill="#fff874" stroke="#eb9c26" /><rect x="697.0" y="562.5" width="12.0" height="3" fill="#35df39" stroke="#03aa10" /><rect x="723.0" y="562.5" width="12.0" height="3" fill="#fff874" stroke="#eb9c26" /><rect x="697.0" y="594.0" width="12.0" height="3" fill="#35df39" stroke="#03aa10" /><rect x="710.0" y="594.0" width="12.0" height="3" fill="#80c9ff" stroke="#0b6cba" /><rect x="697.0" y="609.5" width="12.0" height="3" fill="#35df39" stroke="#03aa10" /><rect x="723.0" y="609.5" width="12.0" height="3" fill="#fff874" stroke="#eb9c26" /><rect x="697.0" y="656.5" width="12.0" height="3" fill="#35df39" stroke="#03aa10" /><rect x="723.0" y="656.5" width="12.0" height="3" fill="#fff874" stroke="#eb9c26" /><rect x="697.0" y="703.0" width="12.0" height="3" fill="#35df39" stroke="#03aa10" /><rect x="723.0" y="734.5" width="12.0" height="3" fill="#fff874" stroke="#eb9c26" /><rect x="811.0" y="0.0" width="12.0" height="3" fill="#35df39" stroke="#03aa10" /><rect x="837.0" y="0.0" width="12.0" height="3" fill="#fff874" stroke="#eb9c26" /><rect x="811.0" y="31.5" width="12.0" height="3" fill="#35df39" stroke="#03aa10" /><rect x="824.0" y="31.5" width="12.0" height="3" fill="#80c9ff" stroke="#0b6cba" /><rect x="811.0" y="47.0" width="12.0" height="3" fill="#35df39" stroke="#03aa10" /><rect x="837.0" y="47.0" width="12.0" height="3" fill="#fff874" stroke="#eb9c26" /><rect x="798.0" y="94.0" width="12.0" height="3" fill="#ff3c3c" stroke="#c71f1f" /><rect x="824.0" y="94.0" width="12.0" height="3" fill="#80c9ff" stroke="#0b6cba" /><rect x="798.0" y="140.5" width="12.0" height="3" fill="#ff3c3c" stroke="#c71f1f" /><rect x="824.0" y="140.5" width="12.0" height="3" fill="#80c9ff" stroke="#0b6cba" /><rect x="811.0" y="187.5" width="12.0" height="3" fill="#35df39" stroke="#03aa10" /><rect x="824.0" y="187.5" width="12.0" height="3" fill="#80c9ff" stroke="#0b6cba" /><rect x="798.0" y="234.5" width="12.0" height="3" fill="#ff3c3c" stroke="#c71f1f" /><rect x="811.0" y="234.5" width="12.0" height="3" fill="#35df39" stroke="#03aa10" /><rect x="811.0" y="328.0" width="12.0" height="3" fill="#35df39" stroke="#03aa10" /><rect x="824.0" y="328.0" width="12.0" height="3" fill="#80c9ff" stroke="#0b6cba" /><rect x="837.0" y="375.0" width="12.0" height="3" fill="#fff874" stroke="#eb9c26" /><rect x="837.0" y="406.5" width="12.0" height="3" fill="#fff874" stroke="#eb9c26" /><rect x="850.0" y="406.5" width="12.0" height="3" fill="#ff83f4" stroke="#d002bc" /><rect x="837.0" y="422.0" width="12.0" height="3" fill="#fff874" stroke="#eb9c26" /><rect x="837.0" y="453.0" width="12.0" height="3" fill="#fff874" stroke="#eb9c26" /><rect x="850.0" y="453.0" width="12.0" height="3" fill="#ff83f4" stroke="#d002bc" /><rect x="837.0" y="469.0" width="12.0" height="3" fill="#fff874" stroke="#eb9c26" /><rect x="824.0" y="500.0" width="12.0" height="3" fill="#80c9ff" stroke="#0b6cba" /><rect x="798.0" y="515.5" width="12.0" height="3" fill="#ff3c3c" stroke="#c71f1f" /><rect x="811.0" y="515.5" width="12.0" height="3" fill="#35df39" stroke="#03aa10" /><rect x="811.0" y="562.5" width="12.0" height="3" fill="#35df39" stroke="#03aa10" /><rect x="824.0" y="562.5" width="12.0" height="3" fill="#80c9ff" stroke="#0b6cba" /><rect x="824.0" y="594.0" width="12.0" height="3" fill="#80c9ff" stroke="#0b6cba" /><rect x="811.0" y="609.5" width="12.0" height="3" fill="#35df39" stroke="#03aa10" /><rect x="824.0" y="640.5" width="12.0" height="3" fill="#80c9ff" stroke="#0b6cba" /><rect x="811.0" y="687.5" width="12.0" height="3" fill="#35df39" stroke="#03aa10" /><rect x="824.0" y="687.5" width="12.0" height="3" fill="#80c9ff" stroke="#0b6cba" /><rect x="798.0" y="703.0" width="12.0" height="3" fill="#ff3c3c" stroke="#c71f1f" /><rect x="811.0" y="734.5" width="12.0" height="3" fill="#35df39" stroke="#03aa10" /><rect x="824.0" y="734.5" width="12.0" height="3" fill="#80c9ff" stroke="#0b6cba" /><rect x="938.0" y="31.5" width="12.0" height="3" fill="#80c9ff" stroke="#0b6cba" /><rect x="925.0" y="47.0" width="12.0" height="3" fill="#35df39" stroke="#03aa10" /><rect x="938.0" y="78.0" width="12.0" height="3" fill="#80c9ff" stroke="#0b6cba" /><rect x="912.0" y="94.0" width="12.0" height="3" fill="#ff3c3c" stroke="#c71f1f" /><rect x="925.0" y="125.0" width="12.0" height="3" fill="#35df39" stroke="#03aa10" /><rect x="925.0" y="140.5" width="12.0" height="3" fill="#35df39" stroke="#03aa10" /><rect x="938.0" y="140.5" width="12.0" height="3" fill="#80c9ff" stroke="#0b6cba" /><rect x="925.0" y="172.0" width="12.0" height="3" fill="#35df39" stroke="#03aa10" /><rect x="938.0" y="187.5" width="12.0" height="3" fill="#80c9ff" stroke="#0b6cba" /><rect x="951.0" y="187.5" width="12.0" height="3" fill="#fff874" stroke="#eb9c26" /><rect x="951.0" y="219.0" width="12.0" height="3" fill="#fff874" stroke="#eb9c26" /><rect x="938.0" y="234.5" width="12.0" height="3" fill="#80c9ff" stroke="#0b6cba" /><rect x="951.0" y="265.5" width="12.0" height="3" fill="#fff874" stroke="#eb9c26" /><rect x="938.0" y="312.5" width="12.0" height="3" fill="#80c9ff" stroke="#0b6cba" /><rect x="951.0" y="312.5" width="12.0" height="3" fill="#fff874" stroke="#eb9c26" /><rect x="925.0" y="328.0" width="12.0" height="3" fill="#35df39" stroke="#03aa10" /><rect x="938.0" y="359.5" width="12.0" height="3" fill="#80c9ff" stroke="#0b6cba" /><rect x="951.0" y="359.5" width="12.0" height="3" fill="#fff874" stroke="#eb9c26" /><rect x="912.0" y="375.0" width="12.0" height="3" fill="#ff3c3c" stroke="#c71f1f" /><rect x="938.0" y="375.0" width="12.0" height="3" fill="#80c9ff" stroke="#0b6cba" /><rect x="925.0" y="422.0" width="12.0" height="3" fill="#35df39" stroke="#03aa10" /><rect x="938.0" y="422.0" width="12.0" height="3" fill="#80c9ff" stroke="#0b6cba" /><rect x="925.0" y="469.0" width="12.0" height="3" fill="#35df39" stroke="#03aa10" /><rect x="951.0" y="469.0" width="12.0" height="3" fill="#fff874" stroke="#eb9c26" /><rect x="938.0" y="562.5" width="12.0" height="3" fill="#80c9ff" stroke="#0b6cba" /><rect x="951.0" y="562.5" width="12.0" height="3" fill="#fff874" stroke="#eb9c26" /><rect x="964.0" y="562.5" width="12.0" height="3" fill="#ff83f4" stroke="#d002bc" /><rect x="938.0" y="594.0" width="12.0" height="3" fill="#80c9ff" stroke="#0b6cba" /><rect x="951.0" y="594.0" width="12.0" height="3" fill="#fff874" stroke="#eb9c26" /><rect x="964.0" y="594.0" width="12.0" height="3" fill="#ff83f4" stroke="#d002bc" /><rect x="938.0" y="640.5" width="12.0" height="3" fill="#80c9ff" stroke="#0b6cba" /><rect x="951.0" y="640.5" width="12.0" height="3" fill="#fff874" stroke="#eb9c26" /><rect x="964.0" y="640.5" width="12.0" height="3" fill="#ff83f4" stroke="#d002bc" /><rect x="938.0" y="687.5" width="12.0" height="3" fill="#80c9ff" stroke="#0b6cba" /><rect x="951.0" y="687.5" width="12.0" height="3" fill="#fff874" stroke="#eb9c26" /><rect x="964.0" y="687.5" width="12.0" height="3" fill="#ff83f4" stroke="#d002bc" /><rect x="1039.0" y="0.0" width="12.0" height="3" fill="#35df39" stroke="#03aa10" /><rect x="1052.0" y="0.0" width="12.0" height="3" fill="#80c9ff" stroke="#0b6cba" /><rect x="1065.0" y="0.0" width="12.0" height="3" fill="#fff874" stroke="#eb9c26" /><rect x="1039.0" y="31.5" width="12.0" height="3" fill="#35df39" stroke="#03aa10" /><rect x="1052.0" y="31.5" width="12.0" height="3" fill="#80c9ff" stroke="#0b6cba" /><rect x="1065.0" y="31.5" width="12.0" height="3" fill="#fff874" stroke="#eb9c26" /><rect x="1039.0" y="78.0" width="12.0" height="3" fill="#35df39" stroke="#03aa10" /><rect x="1052.0" y="78.0" width="12.0" height="3" fill="#80c9ff" stroke="#0b6cba" /><rect x="1065.0" y="78.0" width="12.0" height="3" fill="#fff874" stroke="#eb9c26" /><rect x="1039.0" y="125.0" width="12.0" height="3" fill="#35df39" stroke="#03aa10" /><rect x="1052.0" y="125.0" width="12.0" height="3" fill="#80c9ff" stroke="#0b6cba" /><rect x="1065.0" y="125.0" width="12.0" height="3" fill="#fff874" stroke="#eb9c26" /><rect x="1026.0" y="187.5" width="12.0" height="3" fill="#ff3c3c" stroke="#c71f1f" /><rect x="1026.0" y="234.5" width="12.0" height="3" fill="#ff3c3c" stroke="#c71f1f" /><rect x="1039.0" y="234.5" width="12.0" height="3" fill="#35df39" stroke="#03aa10" /><rect x="1026.0" y="281.5" width="12.0" height="3" fill="#ff3c3c" stroke="#c71f1f" /><rect x="1052.0" y="281.5" width="12.0" height="3" fill="#80c9ff" stroke="#0b6cba" /><rect x="1026.0" y="328.0" width="12.0" height="3" fill="#ff3c3c" stroke="#c71f1f" /><rect x="1039.0" y="328.0" width="12.0" height="3" fill="#35df39" stroke="#03aa10" /><rect x="1039.0" y="375.0" width="12.0" height="3" fill="#35df39" stroke="#03aa10" /><rect x="1039.0" y="422.0" width="12.0" height="3" fill="#35df39" stroke="#03aa10" /><rect x="1052.0" y="422.0" width="12.0" height="3" fill="#80c9ff" stroke="#0b6cba" /><rect x="1039.0" y="469.0" width="12.0" height="3" fill="#35df39" stroke="#03aa10" /><rect x="1065.0" y="469.0" width="12.0" height="3" fill="#fff874" stroke="#eb9c26" /><rect x="1052.0" y="515.5" width="12.0" height="3" fill="#80c9ff" stroke="#0b6cba" /><rect x="1078.0" y="515.5" width="12.0" height="3" fill="#ff83f4" stroke="#d002bc" /><rect x="1065.0" y="562.5" width="12.0" height="187.5" fill="#fff874" stroke="#eb9c26" /><rect x="1078.0" y="562.5" width="12.0" height="187.5" fill="#ff83f4" stroke="#d002bc" /><rect x="1166.0" y="0.0" width="12.0" height="168.75" fill="#80c9ff" stroke="#0b6cba" /><rect x="1179.0" y="0.0" width="12.0" height="168.75" fill="#fff874" stroke="#eb9c26" /><rect x="1153.0" y="187.5" width="12.0" height="168.75" fill="#35df39" stroke="#03aa10" /><rect x="1166.0" y="187.5" width="12.0" height="168.75" fill="#80c9ff" stroke="#0b6cba" /><rect x="1140.0" y="375.0" width="12.0" height="168.75" fill="#ff3c3c" stroke="#c71f1f" /><rect x="1166.0" y="375.0" width="12.0" height="168.75" fill="#80c9ff" stroke="#0b6cba" /><rect x="1140.0" y="562.5" width="12.0" height="3" fill="#ff3c3c" stroke="#c71f1f" /><rect x="1153.0" y="562.5" width="12.0" height="3" fill="#35df39" stroke="#03aa10" /><rect x="1140.0" y="594.0" width="12.0" height="3" fill="#ff3c3c" stroke="#c71f1f" /><rect x="1140.0" y="609.5" width="12.0" height="3" fill="#ff3c3c" stroke="#c71f1f" /><rect x="1153.0" y="609.5" width="12.0" height="3" fill="#35df39" stroke="#03aa10" /><rect x="1140.0" y="656.5" width="12.0" height="3" fill="#ff3c3c" stroke="#c71f1f" /><rect x="1153.0" y="656.5" width="12.0" height="3" fill="#35df39" stroke="#03aa10" /><rect x="1140.0" y="687.5" width="12.0" height="3" fill="#ff3c3c" stroke="#c71f1f" /><rect x="1140.0" y="703.0" width="12.0" height="3" fill="#ff3c3c" stroke="#c71f1f" /><rect x="1153.0" y="703.0" width="12.0" height="3" fill="#35df39" stroke="#03aa10" /><rect x="1140.0" y="734.5" width="12.0" height="3" fill="#ff3c3c" stroke="#c71f1f" /><rect x="1254.0" y="0.0" width="12.0" height="3" fill="#ff3c3c" stroke="#c71f1f" /><rect x="1280.0" y="0.0" width="12.0" height="3" fill="#80c9ff" stroke="#0b6cba" /><rect x="1254.0" y="31.5" width="12.0" height="3" fill="#ff3c3c" stroke="#c71f1f" /><rect x="1254.0" y="47.0" width="12.0" height="3" fill="#ff3c3c" stroke="#c71f1f" /><rect x="1280.0" y="47.0" width="12.0" height="3" fill="#80c9ff" stroke="#0b6cba" /><rect x="1254.0" y="94.0" width="12.0" height="3" fill="#ff3c3c" stroke="#c71f1f" /><rect x="1280.0" y="94.0" width="12.0" height="3" fill="#80c9ff" stroke="#0b6cba" /><rect x="1254.0" y="125.0" width="12.0" height="3" fill="#ff3c3c" stroke="#c71f1f" /><rect x="1254.0" y="140.5" width="12.0" height="3" fill="#ff3c3c" stroke="#c71f1f" /><rect x="1280.0" y="140.5" width="12.0" height="3" fill="#80c9ff" stroke="#0b6cba" /><rect x="1254.0" y="172.0" width="12.0" height="3" fill="#ff3c3c" stroke="#c71f1f" /><rect x="1267.0" y="187.5" width="12.0" height="3" fill="#35df39" stroke="#03aa10" /><rect x="1280.0" y="187.5" width="12.0" height="3" fill="#80c9ff" stroke="#0b6cba" /><rect x="1267.0" y="219.0" width="12.0" height="3" fill="#35df39" stroke="#03aa10" /><rect x="1267.0" y="234.5" width="12.0" height="3" fill="#35df39" stroke="#03aa10" /><rect x="1280.0" y="234.5" width="12.0" height="3" fill="#80c9ff" stroke="#0b6cba" /><rect x="1267.0" y="281.5" width="12.0" height="3" fill="#35df39" stroke="#03aa10" /><rect x="1280.0" y="281.5" width="12.0" height="3" fill="#80c9ff" stroke="#0b6cba" /><rect x="1267.0" y="312.5" width="12.0" height="3" fill="#35df39" stroke="#03aa10" /><rect x="1267.0" y="328.0" width="12.0" height="3" fill="#35df39" stroke="#03aa10" /><rect x="1280.0" y="328.0" width="12.0" height="3" fill="#80c9ff" stroke="#0b6cba" /><rect x="1267.0" y="359.5" width="12.0" height="3" fill="#35df39" stroke="#03aa10" /><rect x="1267.0" y="375.0" width="12.0" height="3" fill="#35df39" stroke="#03aa10" /><rect x="1293.0" y="375.0" width="12.0" height="3" fill="#fff874" stroke="#eb9c26" /><rect x="1267.0" y="406.5" width="12.0" height="3" fill="#35df39" stroke="#03aa10" /><rect x="1267.0" y="422.0" width="12.0" height="3" fill="#35df39" stroke="#03aa10" /><rect x="1293.0" y="422.0" width="12.0" height="3" fill="#fff874" stroke="#eb9c26" /><rect x="1267.0" y="469.0" width="12.0" height="3" fill="#35df39" stroke="#03aa10" /><rect x="1293.0" y="469.0" width="12.0" height="3" fill="#fff874" stroke="#eb9c26" /><rect x="1267.0" y="500.0" width="12.0" height="3" fill="#35df39" stroke="#03aa10" /><rect x="1267.0" y="515.5" width="12.0" height="3" fill="#35df39" stroke="#03aa10" /><rect x="1293.0" y="515.5" width="12.0" height="3" fill="#fff874" stroke="#eb9c26" /><rect x="1267.0" y="547.0" width="12.0" height="3" fill="#35df39" stroke="#03aa10" /><rect x="1254.0" y="562.5" width="12.0" height="3" fill="#ff3c3c" stroke="#c71f1f" /><rect x="1267.0" y="594.0" width="12.0" height="3" fill="#35df39" stroke="#03aa10" /><rect x="1267.0" y="609.5" width="12.0" height="3" fill="#35df39" stroke="#03aa10" /><rect x="1280.0" y="609.5" width="12.0" height="3" fill="#80c9ff" stroke="#0b6cba" /><rect x="1280.0" y="640.5" width="12.0" height="3" fill="#80c9ff" stroke="#0b6cba" /><rect x="1293.0" y="656.5" width="12.0" height="3" fill="#fff874" stroke="#eb9c26" /><rect x="1306.0" y="687.5" width="12.0" height="3" fill="#ff83f4" stroke="#d002bc" /><rect x="1254" y="687.5" width="64" height="3" fill="#ff72e7" stroke="#7c7c7c" /><rect x="1293.0" y="703.0" width="12.0" height="3" fill="#fff874" stroke="#eb9c26" /><rect x="1306.0" y="703.0" width="12.0" height="3" fill="#ff83f4" stroke="#d002bc" /><rect x="1280.0" y="734.5" width="12.0" height="3" fill="#80c9ff" stroke="#0b6cba" /><rect x="1293.0" y="734.5" width="12.0" height="3" fill="#fff874" stroke="#eb9c26" /><rect x="1407.0" y="125.0" width="12.0" height="3" fill="#fff874" stroke="#eb9c26" /><rect x="1394.0" y="140.5" width="12.0" height="3" fill="#80c9ff" stroke="#0b6cba" /><rect x="1407.0" y="172.0" width="12.0" height="3" fill="#fff874" stroke="#eb9c26" /><rect x="1394.0" y="187.5" width="12.0" height="211.05" fill="#80c9ff" stroke="#0b6cba" /><rect x="1420.0" y="187.5" width="12.0" height="211.05" fill="#ff83f4" stroke="#d002bc" /><rect x="1394.0" y="422.0" width="12.0" height="3" fill="#80c9ff" stroke="#0b6cba" /><rect x="1407.0" y="422.0" width="12.0" height="3" fill="#fff874" stroke="#eb9c26" /><rect x="1368.0" y="562.5" width="12.0" height="3" fill="#ff3c3c" stroke="#c71f1f" /><rect x="1381.0" y="562.5" width="12.0" height="3" fill="#35df39" stroke="#03aa10" /><rect x="1368.0" y="656.5" width="12.0" height="3" fill="#ff3c3c" stroke="#c71f1f" /><rect x="1394.0" y="656.5" width="12.0" height="3" fill="#80c9ff" stroke="#0b6cba" /><rect x="1495.0" y="0.0" width="12.0" height="3" fill="#35df39" stroke="#03aa10" /><rect x="1508.0" y="0.0" width="12.0" height="3" fill="#80c9ff" stroke="#0b6cba" /><rect x="1495.0" y="94.0" width="12.0" height="3" fill="#35df39" stroke="#03aa10" /><rect x="1521.0" y="94.0" width="12.0" height="3" fill="#fff874" stroke="#eb9c26" /><rect x="1482.0" y="187.5" width="12.0" height="3" fill="#ff3c3c" stroke="#c71f1f" /><rect x="1508.0" y="187.5" width="12.0" height="3" fill="#80c9ff" stroke="#0b6cba" /><rect x="1495.0" y="234.5" width="12.0" height="3" fill="#35df39" stroke="#03aa10" /><rect x="1508.0" y="234.5" width="12.0" height="3" fill="#80c9ff" stroke="#0b6cba" /><rect x="1508.0" y="281.5" width="12.0" height="3" fill="#80c9ff" stroke="#0b6cba" /><rect x="1521.0" y="281.5" width="12.0" height="3" fill="#fff874" stroke="#eb9c26" /><rect x="1508.0" y="328.0" width="12.0" height="3" fill="#80c9ff" stroke="#0b6cba" /><rect x="1534.0" y="328.0" width="12.0" height="3" fill="#ff83f4" stroke="#d002bc" /><rect x="1521.0" y="422.0" width="12.0" height="3" fill="#fff874" stroke="#eb9c26" /><rect x="1508.0" y="469.0" width="12.0" height="3" fill="#80c9ff" stroke="#0b6cba" /><rect x="1521.0" y="515.5" width="12.0" height="3" fill="#fff874" stroke="#eb9c26" /><rect x="1521.0" y="562.5" width="12.0" height="3" fill="#fff874" stroke="#eb9c26" /><rect x="1534.0" y="562.5" width="12.0" height="3" fill="#ff83f4" stroke="#d002bc" /><rect x="1521.0" y="640.5" width="12.0" height="3" fill="#fff874" stroke="#eb9c26" /><rect x="1508.0" y="656.5" width="12.0" height="3" fill="#80c9ff" stroke="#0b6cba" /><rect x="1521.0" y="656.5" width="12.0" height="3" fill="#fff874" stroke="#eb9c26" /><rect x="1508.0" y="734.5" width="12.0" height="3" fill="#80c9ff" stroke="#0b6cba" /><rect x="1609.0" y="0.0" width="12.0" height="3" fill="#35df39" stroke="#03aa10" /><rect x="1622.0" y="0.0" width="12.0" height="3" fill="#80c9ff" stroke="#0b6cba" /><rect x="1609.0" y="47.0" width="12.0" height="3" fill="#35df39" stroke="#03aa10" /><rect x="1596.0" y="94.0" width="12.0" height="3" fill="#ff3c3c" stroke="#c71f1f" /><rect x="1609.0" y="94.0" width="12.0" height="3" fill="#35df39" stroke="#03aa10" /><rect x="1622.0" y="140.5" width="12.0" height="3" fill="#80c9ff" stroke="#0b6cba" /><rect x="1622.0" y="172.0" width="12.0" height="3" fill="#80c9ff" stroke="#0b6cba" /><rect x="1609.0" y="187.5" width="12.0" height="3" fill="#35df39" stroke="#03aa10" /><rect x="1622.0" y="187.5" width="12.0" height="3" fill="#80c9ff" stroke="#0b6cba" /><rect x="1596.0" y="281.5" width="12.0" height="3" fill="#ff3c3c" stroke="#c71f1f" /><rect x="1609.0" y="281.5" width="12.0" height="3" fill="#35df39" stroke="#03aa10" /><rect x="1609.0" y="375.0" width="12.0" height="3" fill="#35df39" stroke="#03aa10" /><rect x="1635.0" y="375.0" width="12.0" height="3" fill="#fff874" stroke="#eb9c26" /><rect x="1596.0" y="469.0" width="12.0" height="3" fill="#ff3c3c" stroke="#c71f1f" /><rect x="1622.0" y="469.0" width="12.0" height="3" fill="#80c9ff" stroke="#0b6cba" /><rect x="1596.0" y="562.5" width="12.0" height="3" fill="#ff3c3c" stroke="#c71f1f" /><rect x="1609.0" y="562.5" width="12.0" height="3" fill="#35df39" stroke="#03aa10" /><rect x="1596.0" y="656.5" width="12.0" height="3" fill="#ff3c3c" stroke="#c71f1f" /><rect x="1622.0" y="656.5" width="12.0" height="3" fill="#80c9ff" stroke="#0b6cba" /><rect x="1723.0" y="0.0" width="12.0" height="3" fill="#35df39" stroke="#03aa10" /><rect x="1736.0" y="0.0" width="12.0" height="3" fill="#80c9ff" stroke="#0b6cba" /><rect x="1723.0" y="94.0" width="12.0" height="3" fill="#35df39" stroke="#03aa10" /><rect x="1749.0" y="94.0" width="12.0" height="3" fill="#fff874" stroke="#eb9c26" /><rect x="1710.0" y="187.5" width="12.0" height="3" fill="#ff3c3c" stroke="#c71f1f" /><rect x="1736.0" y="187.5" width="12.0" height="3" fill="#80c9ff" stroke="#0b6cba" /><rect x="1723.0" y="234.5" width="12.0" height="3" fill="#35df39" stroke="#03aa10" /><rect x="1736.0" y="234.5" width="12.0" height="3" fill="#80c9ff" stroke="#0b6cba" /><rect x="1736.0" y="281.5" width="12.0" height="3" fill="#80c9ff" stroke="#0b6cba" /><rect x="1749.0" y="281.5" width="12.0" height="3" fill="#fff874" stroke="#eb9c26" /><rect x="1736.0" y="328.0" width="12.0" height="3" fill="#80c9ff" stroke="#0b6cba" /><rect x="1762.0" y="328.0" width="12.0" height="3" fill="#ff83f4" stroke="#d002bc" /><rect x="1749.0" y="422.0" width="12.0" height="3" fill="#fff874" stroke="#eb9c26" /><rect x="1736.0" y="469.0" width="12.0" height="3" fill="#80c9ff" stroke="#0b6cba" /><rect x="1749.0" y="515.5" width="12.0" height="3" fill="#fff874" stroke="#eb9c26" /><rect x="1749.0" y="562.5" width="12.0" height="3" fill="#fff874" stroke="#eb9c26" /><rect x="1762.0" y="562.5" width="12.0" height="3" fill="#ff83f4" stroke="#d002bc" /><rect x="1749.0" y="640.5" width="12.0" height="3" fill="#fff874" stroke="#eb9c26" /><rect x="1736.0" y="656.5" width="12.0" height="3" fill="#80c9ff" stroke="#0b6cba" /><rect x="1749.0" y="656.5" width="12.0" height="3" fill="#fff874" stroke="#eb9c26" /><rect x="1749.0" y="734.5" width="12.0" height="3" fill="#fff874" stroke="#eb9c26" /><rect x="1863.0" y="0.0" width="12.0" height="3" fill="#fff874" stroke="#eb9c26" /><rect x="1876.0" y="0.0" width="12.0" height="3" fill="#ff83f4" stroke="#d002bc" /><rect x="1850.0" y="47.0" width="12.0" height="3" fill="#80c9ff" stroke="#0b6cba" /><rect x="1863.0" y="47.0" width="12.0" height="3" fill="#fff874" stroke="#eb9c26" /><rect x="1837.0" y="94.0" width="12.0" height="3" fill="#35df39" stroke="#03aa10" /><rect x="1850.0" y="94.0" width="12.0" height="3" fill="#80c9ff" stroke="#0b6cba" /><rect x="1850.0" y="140.5" width="12.0" height="3" fill="#80c9ff" stroke="#0b6cba" /><rect x="1863.0" y="140.5" width="12.0" height="3" fill="#fff874" stroke="#eb9c26" /><rect x="1837.0" y="187.5" width="12.0" height="3" fill="#35df39" stroke="#03aa10" /><rect x="1837.0" y="234.5" width="12.0" height="3" fill="#35df39" stroke="#03aa10" /><rect x="1850.0" y="234.5" width="12.0" height="3" fill="#80c9ff" stroke="#0b6cba" /><rect x="1837.0" y="265.5" width="12.0" height="3" fill="#35df39" stroke="#03aa10" /><rect x="1850.0" y="281.5" width="12.0" height="3" fill="#80c9ff" stroke="#0b6cba" /><rect x="1863.0" y="312.5" width="12.0" height="3" fill="#fff874" stroke="#eb9c26" /><rect x="1850.0" y="328.0" width="12.0" height="3" fill="#80c9ff" stroke="#0b6cba" /><rect x="1863.0" y="328.0" width="12.0" height="3" fill="#fff874" stroke="#eb9c26" /><rect x="1863.0" y="359.5" width="12.0" height="3" fill="#fff874" stroke="#eb9c26" /><rect x="1876.0" y="359.5" width="12.0" height="3" fill="#ff83f4" stroke="#d002bc" /><rect x="1863.0" y="547.0" width="12.0" height="3" fill="#fff874" stroke="#eb9c26" /><rect x="1863.0" y="562.5" width="12.0" height="3" fill="#fff874" stroke="#eb9c26" /><rect x="1876.0" y="562.5" width="12.0" height="3" fill="#ff83f4" stroke="#d002bc" /><rect x="1863.0" y="594.0" width="12.0" height="3" fill="#fff874" stroke="#eb9c26" /><rect x="1850.0" y="609.5" width="12.0" height="3" fill="#80c9ff" stroke="#0b6cba" /><rect x="1863.0" y="609.5" width="12.0" height="3" fill="#fff874" stroke="#eb9c26" /><rect x="1850.0" y="640.5" width="12.0" height="3" fill="#80c9ff" stroke="#0b6cba" /><rect x="1837.0" y="656.5" width="12.0" height="3" fill="#35df39" stroke="#03aa10" /><rect x="1837.0" y="672.0" width="12.0" height="3" fill="#35df39" stroke="#03aa10" /><rect x="1837.0" y="687.5" width="12.0" height="3" fill="#35df39" stroke="#03aa10" /><rect x="1824.0" y="703.0" width="12.0" height="3" fill="#ff3c3c" stroke="#c71f1f" /><rect x="1824.0" y="719.0" width="12.0" height="3" fill="#ff3c3c" stroke="#c71f1f" /><rect x="1824.0" y="734.5" width="12.0" height="3" fill="#ff3c3c" stroke="#c71f1f" /><rect x="1938.0" y="0.0" width="12.0" height="3" fill="#ff3c3c" stroke="#c71f1f" /><rect x="1951.0" y="0.0" width="12.0" height="3" fill="#35df39" stroke="#03aa10" /><rect x="1951.0" y="47.0" width="12.0" height="3" fill="#35df39" stroke="#03aa10" /><rect x="1938.0" y="78.0" width="12.0" height="3" fill="#ff3c3c" stroke="#c71f1f" /><rect x="1964.0" y="94.0" width="12.0" height="3" fill="#80c9ff" stroke="#0b6cba" /><rect x="1951.0" y="125.0" width="12.0" height="3" fill="#35df39" stroke="#03aa10" /><rect x="1977.0" y="140.5" width="12.0" height="3" fill="#fff874" stroke="#eb9c26" /><rect x="1964.0" y="172.0" width="12.0" height="3" fill="#80c9ff" stroke="#0b6cba" /><rect x="1964.0" y="187.5" width="12.0" height="3" fill="#80c9ff" stroke="#0b6cba" /><rect x="1977.0" y="187.5" width="12.0" height="3" fill="#fff874" stroke="#eb9c26" /><rect x="1990.0" y="265.5" width="12.0" height="3" fill="#ff83f4" stroke="#d002bc" /><rect x="1964.0" y="281.5" width="12.0" height="3" fill="#80c9ff" stroke="#0b6cba" /><rect x="1977.0" y="281.5" width="12.0" height="3" fill="#fff874" stroke="#eb9c26" /><rect x="1990.0" y="281.5" width="12.0" height="3" fill="#ff83f4" stroke="#d002bc" /><rect x="1990.0" y="328.0" width="12.0" height="3" fill="#ff83f4" stroke="#d002bc" /><rect x="1977.0" y="344.0" width="12.0" height="3" fill="#fff874" stroke="#eb9c26" /><rect x="1964.0" y="359.5" width="12.0" height="3" fill="#80c9ff" stroke="#0b6cba" /><rect x="1951.0" y="375.0" width="12.0" height="3" fill="#35df39" stroke="#03aa10" /><rect x="1951.0" y="406.5" width="12.0" height="3" fill="#35df39" stroke="#03aa10" /><rect x="1964.0" y="406.5" width="12.0" height="3" fill="#80c9ff" stroke="#0b6cba" /><rect x="1964.0" y="422.0" width="12.0" height="3" fill="#80c9ff" stroke="#0b6cba" /><rect x="1964.0" y="453.0" width="12.0" height="3" fill="#80c9ff" stroke="#0b6cba" /><rect x="1977.0" y="453.0" width="12.0" height="3" fill="#fff874" stroke="#eb9c26" /><rect x="1990.0" y="469.0" width="12.0" height="3" fill="#ff83f4" stroke="#d002bc" /><rect x="1964.0" y="515.5" width="12.0" height="3" fill="#80c9ff" stroke="#0b6cba" /><rect x="1977.0" y="562.5" width="12.0" height="3" fill="#fff874" stroke="#eb9c26" /><rect x="1990.0" y="562.5" width="12.0" height="3" fill="#ff83f4" stroke="#d002bc" /><rect x="1977.0" y="625.0" width="12.0" height="3" fill="#fff874" stroke="#eb9c26" /><rect x="1964.0" y="640.5" width="12.0" height="3" fill="#80c9ff" stroke="#0b6cba" /><rect x="1977.0" y="656.5" width="12.0" height="3" fill="#fff874" stroke="#eb9c26" /><rect x="1964.0" y="687.5" width="12.0" height="3" fill="#80c9ff" stroke="#0b6cba" /><rect x="1951.0" y="703.0" width="12.0" height="3" fill="#35df39" stroke="#03aa10" /><rect x="1938.0" y="734.5" width="12.0" height="3" fill="#ff3c3c" stroke="#c71f1f" /><rect x="2065.0" y="0.0" width="12.0" height="3" fill="#35df39" stroke="#03aa10" /><rect x="2078.0" y="0.0" width="12.0" height="3" fill="#80c9ff" stroke="#0b6cba" /><rect x="2078.0" y="31.5" width="12.0" height="3" fill="#80c9ff" stroke="#0b6cba" /><rect x="2065.0" y="47.0" width="12.0" height="3" fill="#35df39" stroke="#03aa10" /><rect x="2052.0" y="78.0" width="12.0" height="3" fill="#ff3c3c" stroke="#c71f1f" /><rect x="2065.0" y="78.0" width="12.0" height="3" fill="#35df39" stroke="#03aa10" /><rect x="2065.0" y="125.0" width="12.0" height="3" fill="#35df39" stroke="#03aa10" /><rect x="2078.0" y="125.0" width="12.0" height="3" fill="#80c9ff" stroke="#0b6cba" /><rect x="2065.0" y="140.5" width="12.0" height="3" fill="#35df39" stroke="#03aa10" /><rect x="2052.0" y="187.5" width="12.0" height="168.75" fill="#ff3c3c" stroke="#c71f1f" /><rect x="2065.0" y="187.5" width="12.0" height="168.75" fill="#35df39" stroke="#03aa10" /><rect x="2052.0" y="375.0" width="12.0" height="3" fill="#ff3c3c" stroke="#c71f1f" /><rect x="2052.0" y="562.5" width="12.0" height="3" fill="#ff3c3c" stroke="#c71f1f" /><rect x="2065.0" y="562.5" width="12.0" height="3" fill="#35df39" stroke="#03aa10" /><rect x="2065.0" y="609.5" width="12.0" height="3" fill="#35df39" stroke="#03aa10" /><rect x="2078.0" y="609.5" width="12.0" height="3" fill="#80c9ff" stroke="#0b6cba" /><rect x="2078.0" y="656.5" width="12.0" height="3" fill="#80c9ff" stroke="#0b6cba" /><rect x="2091.0" y="656.5" width="12.0" height="3" fill="#fff874" stroke="#eb9c26" /><rect x="2091.0" y="703.0" width="12.0" height="3" fill="#fff874" stroke="#eb9c26" /><rect x="2104.0" y="703.0" width="12.0" height="3" fill="#ff83f4" stroke="#d002bc" /><rect x="2218.0" y="47.0" width="12.0" height="3" fill="#ff83f4" stroke="#d002bc" /><rect x="2218.0" y="62.5" width="12.0" height="3" fill="#ff83f4" stroke="#d002bc" /><rect x="2205.0" y="78.0" width="12.0" height="3" fill="#fff874" stroke="#eb9c26" /><rect x="2218.0" y="78.0" width="12.0" height="3" fill="#ff83f4" stroke="#d002bc" /><rect x="2205.0" y="94.0" width="12.0" height="3" fill="#fff874" stroke="#eb9c26" /><rect x="2218.0" y="94.0" width="12.0" height="3" fill="#ff83f4" stroke="#d002bc" /><rect x="2179.0" y="187.5" width="12.0" height="126.45" fill="#35df39" stroke="#03aa10" /><rect x="2192.0" y="187.5" width="12.0" height="126.45" fill="#80c9ff" stroke="#0b6cba" /><rect x="2166.0" y="328.0" width="12.0" height="3" fill="#ff3c3c" stroke="#c71f1f" /><rect x="2179.0" y="359.5" width="12.0" height="3" fill="#35df39" stroke="#03aa10" /><rect x="2179.0" y="375.0" width="12.0" height="3" fill="#35df39" stroke="#03aa10" /><rect x="2192.0" y="375.0" width="12.0" height="3" fill="#80c9ff" stroke="#0b6cba" /><rect x="2166.0" y="422.0" width="12.0" height="3" fill="#ff3c3c" stroke="#c71f1f" /><rect x="2179.0" y="422.0" width="12.0" height="3" fill="#35df39" stroke="#03aa10" /><rect x="2166.0" y="469.0" width="12.0" height="3" fill="#ff3c3c" stroke="#c71f1f" /><rect x="2179.0" y="515.5" width="12.0" height="3" fill="#35df39" stroke="#03aa10" /><rect x="2205.0" y="515.5" width="12.0" height="3" fill="#fff874" stroke="#eb9c26" /><rect x="2205.0" y="562.5" width="12.0" height="3" fill="#fff874" stroke="#eb9c26" /><rect x="2218.0" y="562.5" width="12.0" height="3" fill="#ff83f4" stroke="#d002bc" /><rect x="2205.0" y="609.5" width="12.0" height="3" fill="#fff874" stroke="#eb9c26" /><rect x="2192.0" y="656.5" width="12.0" height="3" fill="#80c9ff" stroke="#0b6cba" /><rect x="2205.0" y="656.5" width="12.0" height="3" fill="#fff874" stroke="#eb9c26" /><rect x="2192.0" y="703.0" width="12.0" height="3" fill="#80c9ff" stroke="#0b6cba" /><rect x="2293.0" y="0.0" width="12.0" height="3" fill="#35df39" stroke="#03aa10" /><rect x="2306.0" y="0.0" width="12.0" height="3" fill="#80c9ff" stroke="#0b6cba" /><rect x="2293.0" y="47.0" width="12.0" height="3" fill="#35df39" stroke="#03aa10" /><rect x="2280.0" y="94.0" width="12.0" height="3" fill="#ff3c3c" stroke="#c71f1f" /><rect x="2293.0" y="94.0" width="12.0" height="3" fill="#35df39" stroke="#03aa10" /><rect x="2306.0" y="94.0" width="12.0" height="3" fill="#80c9ff" stroke="#0b6cba" /><rect x="2280.0" y="187.5" width="12.0" height="3" fill="#ff3c3c" stroke="#c71f1f" /><rect x="2293.0" y="187.5" width="12.0" height="3" fill="#35df39" stroke="#03aa10" /><rect x="2280.0" y="281.5" width="12.0" height="3" fill="#ff3c3c" stroke="#c71f1f" /><rect x="2306.0" y="281.5" width="12.0" height="3" fill="#80c9ff" stroke="#0b6cba" /><rect x="2293.0" y="375.0" width="12.0" height="3" fill="#35df39" stroke="#03aa10" /><rect x="2306.0" y="375.0" width="12.0" height="3" fill="#80c9ff" stroke="#0b6cba" /><rect x="2293.0" y="469.0" width="12.0" height="3" fill="#35df39" stroke="#03aa10" /><rect x="2319.0" y="469.0" width="12.0" height="3" fill="#fff874" stroke="#eb9c26" /><rect x="2280.0" y="562.5" width="12.0" height="3" fill="#ff3c3c" stroke="#c71f1f" /><rect x="2306.0" y="562.5" width="12.0" height="3" fill="#80c9ff" stroke="#0b6cba" /><rect x="2293.0" y="609.5" width="12.0" height="3" fill="#35df39" stroke="#03aa10" /><rect x="2306.0" y="609.5" width="12.0" height="3" fill="#80c9ff" stroke="#0b6cba" /><rect x="2306.0" y="656.5" width="12.0" height="3" fill="#80c9ff" stroke="#0b6cba" /><rect x="2319.0" y="656.5" width="12.0" height="3" fill="#fff874" stroke="#eb9c26" /><rect x="2306.0" y="703.0" width="12.0" height="3" fill="#80c9ff" stroke="#0b6cba" /><rect x="2332.0" y="703.0" width="12.0" height="3" fill="#ff83f4" stroke="#d002bc" /><rect x="2433.0" y="47.0" width="12.0" height="3" fill="#fff874" stroke="#eb9c26" /><rect x="2420.0" y="94.0" width="12.0" height="3" fill="#80c9ff" stroke="#0b6cba" /><rect x="2433.0" y="140.5" width="12.0" height="3" fill="#fff874" stroke="#eb9c26" /><rect x="2433.0" y="187.5" width="12.0" height="3" fill="#fff874" stroke="#eb9c26" /><rect x="2446.0" y="187.5" width="12.0" height="3" fill="#ff83f4" stroke="#d002bc" /><rect x="2433.0" y="265.5" width="12.0" height="3" fill="#fff874" stroke="#eb9c26" /><rect x="2420.0" y="281.5" width="12.0" height="3" fill="#80c9ff" stroke="#0b6cba" /><rect x="2433.0" y="281.5" width="12.0" height="3" fill="#fff874" stroke="#eb9c26" /><rect x="2433.0" y="359.5" width="12.0" height="3" fill="#fff874" stroke="#eb9c26" /><rect x="2433.0" y="375.0" width="12.0" height="3" fill="#fff874" stroke="#eb9c26" /><rect x="2446.0" y="375.0" width="12.0" height="3" fill="#ff83f4" stroke="#d002bc" /><rect x="2420.0" y="422.0" width="12.0" height="3" fill="#80c9ff" stroke="#0b6cba" /><rect x="2433.0" y="422.0" width="12.0" height="3" fill="#fff874" stroke="#eb9c26" /><rect x="2407.0" y="469.0" width="12.0" height="3" fill="#35df39" stroke="#03aa10" /><rect x="2420.0" y="469.0" width="12.0" height="3" fill="#80c9ff" stroke="#0b6cba" /><rect x="2420.0" y="515.5" width="12.0" height="3" fill="#80c9ff" stroke="#0b6cba" /><rect x="2433.0" y="515.5" width="12.0" height="3" fill="#fff874" stroke="#eb9c26" /><rect x="2394.0" y="562.5" width="12.0" height="3" fill="#ff3c3c" stroke="#c71f1f" /><rect x="2394.0" y="594.0" width="12.0" height="3" fill="#ff3c3c" stroke="#c71f1f" /><rect x="2407.0" y="594.0" width="12.0" height="3" fill="#35df39" stroke="#03aa10" /><rect x="2407.0" y="609.5" width="12.0" height="3" fill="#35df39" stroke="#03aa10" /><rect x="2420.0" y="609.5" width="12.0" height="3" fill="#80c9ff" stroke="#0b6cba" /><rect x="2420.0" y="640.5" width="12.0" height="3" fill="#80c9ff" stroke="#0b6cba" /><rect x="2433.0" y="656.5" width="12.0" height="3" fill="#fff874" stroke="#eb9c26" /><rect x="2420.0" y="687.5" width="12.0" height="3" fill="#80c9ff" stroke="#0b6cba" /><rect x="2407.0" y="703.0" width="12.0" height="3" fill="#35df39" stroke="#03aa10" /><rect x="2420.0" y="703.0" width="12.0" height="3" fill="#80c9ff" stroke="#0b6cba" /><rect x="2394.0" y="734.5" width="12.0" height="3" fill="#ff3c3c" stroke="#c71f1f" /><rect x="2508.0" y="0.0" width="12.0" height="3" fill="#ff3c3c" stroke="#c71f1f" /><rect x="2521.0" y="0.0" width="12.0" height="3" fill="#35df39" stroke="#03aa10" /><rect x="2521.0" y="31.5" width="12.0" height="3" fill="#35df39" stroke="#03aa10" /><rect x="2534.0" y="31.5" width="12.0" height="3" fill="#80c9ff" stroke="#0b6cba" /><rect x="2560.0" y="140.5" width="12.0" height="3" fill="#ff83f4" stroke="#d002bc" /><rect x="2547.0" y="172.0" width="12.0" height="3" fill="#fff874" stroke="#eb9c26" /><rect x="2560.0" y="172.0" width="12.0" height="3" fill="#ff83f4" stroke="#d002bc" /><rect x="2534.0" y="187.5" width="12.0" height="3" fill="#80c9ff" stroke="#0b6cba" /><rect x="2547.0" y="187.5" width="12.0" height="3" fill="#fff874" stroke="#eb9c26" /><rect x="2521.0" y="219.0" width="12.0" height="3" fill="#35df39" stroke="#03aa10" /><rect x="2534.0" y="234.5" width="12.0" height="3" fill="#80c9ff" stroke="#0b6cba" /><rect x="2534.0" y="281.5" width="12.0" height="3" fill="#80c9ff" stroke="#0b6cba" /><rect x="2547.0" y="281.5" width="12.0" height="3" fill="#fff874" stroke="#eb9c26" /><rect x="2534.0" y="328.0" width="12.0" height="3" fill="#80c9ff" stroke="#0b6cba" /><rect x="2560.0" y="328.0" width="12.0" height="3" fill="#ff83f4" stroke="#d002bc" /><rect x="2534.0" y="422.0" width="12.0" height="3" fill="#80c9ff" stroke="#0b6cba" /><rect x="2547.0" y="422.0" width="12.0" height="3" fill="#fff874" stroke="#eb9c26" /><rect x="2521.0" y="469.0" width="12.0" height="3" fill="#35df39" stroke="#03aa10" /><rect x="2547.0" y="469.0" width="12.0" height="3" fill="#fff874" stroke="#eb9c26" /><rect x="2508.0" y="515.5" width="12.0" height="3" fill="#ff3c3c" stroke="#c71f1f" /><rect x="2534.0" y="515.5" width="12.0" height="3" fill="#80c9ff" stroke="#0b6cba" /><rect x="2521.0" y="562.5" width="12.0" height="187.5" fill="#35df39" stroke="#03aa10" /><rect x="2534.0" y="562.5" width="12.0" height="187.5" fill="#80c9ff" stroke="#0b6cba" /><rect x="2547.0" y="562.5" width="12.0" height="187.5" fill="#fff874" stroke="#eb9c26" /><rect x="2622.0" y="500.0" width="12.0" height="3" fill="#ff3c3c" stroke="#c71f1f" /><rect x="2635.0" y="500.0" width="12.0" height="3" fill="#35df39" stroke="#03aa10" /><rect x="2635.0" y="0.0" width="12.0" height="327.27272727272725" fill="#35df39" stroke="#03aa10" /><rect x="2648.0" y="0.0" width="12.0" height="327.27272727272725" fill="#80c9ff" stroke="#0b6cba" /><rect x="2661.0" y="0.0" width="12.0" height="327.27272727272725" fill="#fff874" stroke="#eb9c26" /></svg>