<?xml version="1.0" encoding="UTF-8"?><svg xmlns="http://www.w3.org/2000/svg" xmlns:xlink="http://www.w3.org/1999/xlink"     width="2280" height="1125.0" viewBox="0 0 2280 1125.0"><defs></defs><rect x="0" y="0" width="64" height="889.0" fill="black" /><rect x="0" y="0.0" width="64" height="1" fill="white" fill-opacity="0.5" /><text x="74" y="14.0" font-size="14" fill="white" font-family="monospace" dominant-baseline="ideographic">1</text><rect x="0" y="55.5" width="64" height="1" fill="white" fill-opacity="0.2" /><rect x="0" y="111.0" width="64" height="1" fill="white" fill-opacity="0.2" /><rect x="0" y="166.5" width="64" height="1" fill="white" fill-opacity="0.2" /><rect x="0" y="222.0" width="64" height="1" fill="white" fill-opacity="0.5" /><text x="74" y="236.0" font-size="14" fill="white" font-family="monospace" dominant-baseline="ideographic">2</text><rect x="0" y="278.0" width="64" height="1" fill="white" fill-opacity="0.2" /><rect x="0" y="333.5" width="64" height="1" fill="white" fill-opacity="0.2" /><rect x="0" y="389.0" width="64" height="1" fill="white" fill-opacity="0.2" /><rect x="0" y="444.5" width="64" height="1" fill="white" fill-opacity="0.5" /><text x="74" y="458.5" font-size="14" fill="white" font-family="monospace" dominant-baseline="ideographic">3</text><rect x="0" y="500.0" width="64" height="1" fill="white" fill-opacity="0.2" /><rect x="0" y="555.5" width="64" height="1" fill="white" fill-opacity="0.2" /><rect x="0" y="611.0" width="64" height="1" fill="white" fill-opacity="0.2" /><rect x="0" y="666.5" width="64" height="1" fill="white" fill-opacity="0.5" /><text x="74" y="680.5" font-size="14" fill="white" font-family="monospace" dominant-baseline="ideographic">4</text><rect x="0" y="722.0" width="64" height="1" fill="white" fill-opacity="0.2" /><rect x="0" y="778.0" width="64" height="1" fill="white" fill-opacity="0.2" /><rect x="0" y="833.5" width="64" height="1" fill="white" fill-opacity="0.2" /><rect x="0" y="889.0" width="64" height="1" fill="white" fill-opacity="0.5" /><text x="74" y="903.0" font-size="14" fill="white" font-family="monospace" dominant-baseline="ideographic">5</text><rect x="0" y="0.0" width="64" height="1" fill="aqua" fill-opacity="0.75" /><text x="0" y="14.0" font-size="14" fill="aqua" fill-opacity="0.75" font-family="monospace">Special</text><rect x="0" y="0.0" width="64" height="1" fill="lime" fill-opacity="0.75" /><text x="74" y="28.0" font-size="14" fill="lime" font-family="monospace" dominant-baseline="ideographic">162</text><rect x="114" y="0" width="64" height="889.0" fill="black" /><rect x="114" y="0.0" width="64" height="1" fill="white" fill-opacity="0.5" /><text x="188" y="14.0" font-size="14" fill="white" font-family="monospace" dominant-baseline="ideographic">5</text><rect x="114" y="55.5" width="64" height="1" fill="white" fill-opacity="0.2" /><rect x="114" y="111.0" width="64" height="1" fill="white" fill-opacity="0.2" /><rect x="114" y="166.5" width="64" height="1" fill="white" fill-opacity="0.2" /><rect x="114" y="222.0" width="64" height="1" fill="white" fill-opacity="0.5" /><text x="188" y="236.0" font-size="14" fill="white" font-family="monospace" dominant-baseline="ideographic">6</text><rect x="114" y="277.5" width="64" height="1" fill="white" fill-opacity="0.2" /><rect x="114" y="333.0" width="64" height="1" fill="white" fill-opacity="0.2" /><rect x="114" y="389.0" width="64" height="1" fill="white" fill-opacity="0.2" /><rect x="114" y="444.5" width="64" height="1" fill="white" fill-opacity="0.5" /><text x="188" y="458.5" font-size="14" fill="white" font-family="monospace" dominant-baseline="ideographic">7</text><rect x="114" y="500.0" width="64" height="1" fill="white" fill-opacity="0.2" /><rect x="114" y="555.5" width="64" height="1" fill="white" fill-opacity="0.2" /><rect x="114" y="611.0" width="64" height="1" fill="white" fill-opacity="0.2" /><rect x="114" y="666.5" width="64" height="1" fill="white" fill-opacity="0.5" /><text x="188" y="680.5" font-size="14" fill="white" font-family="monospace" dominant-baseline="ideographic">8</text><rect x="114" y="722.0" width="64" height="1" fill="white" fill-opacity="0.2" /><rect x="114" y="777.5" width="64" height="1" fill="white" fill-opacity="0.2" /><rect x="114" y="833.0" width="64" height="1" fill="white" fill-opacity="0.2" /><rect x="114" y="889.0" width="64" height="1" fill="white" fill-opacity="0.5" /><text x="188" y="903.0" font-size="14" fill="white" font-family="monospace" dominant-baseline="ideographic">9</text><rect x="228" y="0" width="64" height="888.5" fill="black" /><rect x="228" y="0.0" width="64" height="1" fill="white" fill-opacity="0.5" /><text x="302" y="14.0" font-size="14" fill="white" font-family="monospace" dominant-baseline="ideographic">9</text><rect x="228" y="55.5" width="64" height="1" fill="white" fill-opacity="0.2" /><rect x="228" y="111.0" width="64" height="1" fill="white" fill-opacity="0.2" /><rect x="228" y="166.5" width="64" height="1" fill="white" fill-opacity="0.2" /><rect x="228" y="222.0" width="64" height="1" fill="white" fill-opacity="0.5" /><text x="302" y="236.0" font-size="14" fill="white" font-family="monospace" dominant-baseline="ideographic">10</text><rect x="228" y="277.5" width="64" height="1" fill="white" fill-opacity="0.2" /><rect x="228" y="333.0" width="64" height="1" fill="white" fill-opacity="0.2" /><rect x="228" y="388.5" width="64" height="1" fill="white" fill-opacity="0.2" /><rect x="228" y="444.0" width="64" height="1" fill="white" fill-opacity="0.5" /><text x="302" y="458.0" font-size="14" fill="white" font-family="monospace" dominant-baseline="ideographic">11</text><rect x="228" y="500.0" width="64" height="1" fill="white" fill-opacity="0.2" /><rect x="228" y="555.5" width="64" height="1" fill="white" fill-opacity="0.2" /><rect x="228" y="611.0" width="64" height="1" fill="white" fill-opacity="0.2" /><rect x="228" y="666.5" width="64" height="1" fill="white" fill-opacity="0.5" /><text x="302" y="680.5" font-size="14" fill="white" font-family="monospace" dominant-baseline="ideographic">12</text><rect x="228" y="722.0" width="64" height="1" fill="white" fill-opacity="0.2" /><rect x="228" y="777.5" width="64" height="1" fill="white" fill-opacity="0.2" /><rect x="228" y="833.0" width="64" height="1" fill="white" fill-opacity="0.2" /><rect x="228" y="888.5" width="64" height="1" fill="white" fill-opacity="0.5" /><text x="302" y="902.5" font-size="14" fill="white" font-family="monospace" dominant-baseline="ideographic">13</text><rect x="228" y="221.94999999999982" width="64" height="1" fill="aqua" fill-opacity="0.75" /><text x="228" y="235.94999999999982" font-size="14" fill="aqua" fill-opacity="0.75" font-family="monospace">Phrase A</text><rect x="342" y="0" width="64" height="889.0" fill="black" /><rect x="342" y="0.0" width="64" height="1" fill="white" fill-opacity="0.5" /><text x="416" y="14.0" font-size="14" fill="white" font-family="monospace" dominant-baseline="ideographic">13</text><rect x="342" y="55.5" width="64" height="1" fill="white" fill-opacity="0.2" /><rect x="342" y="111.5" width="64" height="1" fill="white" fill-opacity="0.2" /><rect x="342" y="167.0" width="64" height="1" fill="white" fill-opacity="0.2" /><rect x="342" y="222.5" width="64" height="1" fill="white" fill-opacity="0.5" /><text x="416" y="236.5" font-size="14" fill="white" font-family="monospace" dominant-baseline="ideographic">14</text><rect x="342" y="278.0" width="64" height="1" fill="white" fill-opacity="0.2" /><rect x="342" y="333.5" width="64" height="1" fill="white" fill-opacity="0.2" /><rect x="342" y="389.0" width="64" height="1" fill="white" fill-opacity="0.2" /><rect x="342" y="444.5" width="64" height="1" fill="white" fill-opacity="0.5" /><text x="416" y="458.5" font-size="14" fill="white" font-family="monospace" dominant-baseline="ideographic">15</text><rect x="342" y="500.0" width="64" height="1" fill="white" fill-opacity="0.2" /><rect x="342" y="555.5" width="64" height="1" fill="white" fill-opacity="0.2" /><rect x="342" y="611.5" width="64" height="1" fill="white" fill-opacity="0.2" /><rect x="342" y="667.0" width="64" height="1" fill="white" fill-opacity="0.5" /><text x="416" y="681.0" font-size="14" fill="white" font-family="monospace" dominant-baseline="ideographic">16</text><rect x="342" y="722.5" width="64" height="1" fill="white" fill-opacity="0.2" /><rect x="342" y="778.0" width="64" height="1" fill="white" fill-opacity="0.2" /><rect x="342" y="833.5" width="64" height="1" fill="white" fill-opacity="0.2" /><rect x="342" y="889.0" width="64" height="1" fill="white" fill-opacity="0.5" /><text x="416" y="903.0" font-size="14" fill="white" font-family="monospace" dominant-baseline="ideographic">17</text><rect x="456" y="0" width="64" height="889.0" fill="black" /><rect x="456" y="0.0" width="64" height="1" fill="white" fill-opacity="0.5" /><text x="530" y="14.0" font-size="14" fill="white" font-family="monospace" dominant-baseline="ideographic">17</text><rect x="456" y="55.5" width="64" height="1" fill="white" fill-opacity="0.2" /><rect x="456" y="111.0" width="64" height="1" fill="white" fill-opacity="0.2" /><rect x="456" y="166.5" width="64" height="1" fill="white" fill-opacity="0.2" /><rect x="456" y="222.5" width="64" height="1" fill="white" fill-opacity="0.5" /><text x="530" y="236.5" font-size="14" fill="white" font-family="monospace" dominant-baseline="ideographic">18</text><rect x="456" y="278.0" width="64" height="1" fill="white" fill-opacity="0.2" /><rect x="456" y="333.5" width="64" height="1" fill="white" fill-opacity="0.2" /><rect x="456" y="389.0" width="64" height="1" fill="white" fill-opacity="0.2" /><rect x="456" y="444.5" width="64" height="1" fill="white" fill-opacity="0.5" /><text x="530" y="458.5" font-size="14" fill="white" font-family="monospace" dominant-baseline="ideographic">19</text><rect x="456" y="500.0" width="64" height="1" fill="white" fill-opacity="0.2" /><rect x="456" y="555.5" width="64" height="1" fill="white" fill-opacity="0.2" /><rect x="456" y="611.0" width="64" height="1" fill="white" fill-opacity="0.2" /><rect x="456" y="666.5" width="64" height="1" fill="white" fill-opacity="0.5" /><text x="530" y="680.5" font-size="14" fill="white" font-family="monospace" dominant-baseline="ideographic">20</text><rect x="456" y="722.5" width="64" height="1" fill="white" fill-opacity="0.2" /><rect x="456" y="778.0" width="64" height="1" fill="white" fill-opacity="0.2" /><rect x="456" y="833.5" width="64" height="1" fill="white" fill-opacity="0.2" /><rect x="456" y="889.0" width="64" height="1" fill="white" fill-opacity="0.5" /><text x="530" y="903.0" font-size="14" fill="white" font-family="monospace" dominant-baseline="ideographic">21</text><rect x="456" y="444.5499999999997" width="64" height="1" fill="aqua" fill-opacity="0.75" /><text x="456" y="458.5499999999997" font-size="14" fill="aqua" fill-opacity="0.75" font-family="monospace">Phrase B</text><rect x="570" y="0" width="64" height="889.0" fill="black" /><rect x="570" y="0.0" width="64" height="1" fill="white" fill-opacity="0.5" /><text x="644" y="14.0" font-size="14" fill="white" font-family="monospace" dominant-baseline="ideographic">21</text><rect x="570" y="55.5" width="64" height="1" fill="white" fill-opacity="0.2" /><rect x="570" y="111.0" width="64" height="1" fill="white" fill-opacity="0.2" /><rect x="570" y="166.5" width="64" height="1" fill="white" fill-opacity="0.2" /><rect x="570" y="222.0" width="64" height="1" fill="white" fill-opacity="0.5" /><text x="644" y="236.0" font-size="14" fill="white" font-family="monospace" dominant-baseline="ideographic">22</text><rect x="570" y="277.5" width="64" height="1" fill="white" fill-opacity="0.2" /><rect x="570" y="333.5" width="64" height="1" fill="white" fill-opacity="0.2" /><rect x="570" y="389.0" width="64" height="1" fill="white" fill-opacity="0.2" /><rect x="570" y="444.5" width="64" height="1" fill="white" fill-opacity="0.5" /><text x="644" y="458.5" font-size="14" fill="white" font-family="monospace" dominant-baseline="ideographic">23</text><rect x="570" y="500.0" width="64" height="1" fill="white" fill-opacity="0.2" /><rect x="570" y="555.5" width="64" height="1" fill="white" fill-opacity="0.2" /><rect x="570" y="611.0" width="64" height="1" fill="white" fill-opacity="0.2" /><rect x="570" y="666.5" width="64" height="1" fill="white" fill-opacity="0.5" /><text x="644" y="680.5" font-size="14" fill="white" font-family="monospace" dominant-baseline="ideographic">24</text><rect x="570" y="722.0" width="64" height="1" fill="white" fill-opacity="0.2" /><rect x="570" y="777.5" width="64" height="1" fill="white" fill-opacity="0.2" /><rect x="570" y="833.5" width="64" height="1" fill="white" fill-opacity="0.2" /><rect x="570" y="889.0" width="64" height="1" fill="white" fill-opacity="0.5" /><text x="644" y="903.0" font-size="14" fill="white" font-family="monospace" dominant-baseline="ideographic">25</text><rect x="684" y="0" width="64" height="1000.0" fill="black" /><rect x="684" y="0.0" width="64" height="1" fill="white" fill-opacity="0.5" /><text x="758" y="14.0" font-size="14" fill="white" font-family="monospace" dominant-baseline="ideographic">25</text><rect x="684" y="55.5" width="64" height="1" fill="white" fill-opacity="0.2" /><rect x="684" y="111.0" width="64" height="1" fill="white" fill-opacity="0.2" /><rect x="684" y="166.5" width="64" height="1" fill="white" fill-opacity="0.2" /><rect x="684" y="222.0" width="64" height="1" fill="white" fill-opacity="0.5" /><text x="758" y="236.0" font-size="14" fill="white" font-family="monospace" dominant-baseline="ideographic">26</text><rect x="684" y="277.5" width="64" height="1" fill="white" fill-opacity="0.2" /><rect x="684" y="333.0" width="64" height="1" fill="white" fill-opacity="0.2" /><rect x="684" y="388.5" width="64" height="1" fill="white" fill-opacity="0.2" /><rect x="684" y="444.5" width="64" height="1" fill="white" fill-opacity="0.5" /><text x="758" y="458.5" font-size="14" fill="white" font-family="monospace" dominant-baseline="ideographic">27</text><rect x="684" y="500.0" width="64" height="1" fill="white" fill-opacity="0.2" /><rect x="684" y="555.5" width="64" height="1" fill="white" fill-opacity="0.2" /><rect x="684" y="611.0" width="64" height="1" fill="white" fill-opacity="0.2" /><rect x="684" y="666.5" width="64" height="1" fill="white" fill-opacity="0.2" /><rect x="684" y="722.0" width="64" height="1" fill="white" fill-opacity="0.5" /><text x="758" y="736.0" font-size="14" fill="white" font-family="monospace" dominant-baseline="ideographic">28</text><rect x="684" y="777.5" width="64" height="1" fill="white" fill-opacity="0.2" /><rect x="684" y="833.0" width="64" height="1" fill="white" fill-opacity="0.2" /><rect x="684" y="888.5" width="64" height="1" fill="white" fill-opacity="0.2" /><rect x="684" y="944.5" width="64" height="1" fill="white" fill-opacity="0.2" /><rect x="684" y="1000.0" width="64" height="1" fill="white" fill-opacity="0.5" /><text x="758" y="1014.0" font-size="14" fill="white" font-family="monospace" dominant-baseline="ideographic">29</text><rect x="684" y="444.1999999999998" width="64" height="1" fill="aqua" fill-opacity="0.75" /><text x="684" y="458.1999999999998" font-size="14" fill="aqua" fill-opacity="0.75" font-family="monospace">Phrase C</text><rect x="798" y="0" width="64" height="1111.0" fill="black" /><rect x="798" y="0.0" width="64" height="1" fill="white" fill-opacity="0.5" /><text x="872" y="14.0" font-size="14" fill="white" font-family="monospace" dominant-baseline="ideographic">29</text><rect x="798" y="55.5" width="64" height="1" fill="white" fill-opacity="0.2" /><rect x="798" y="111.0" width="64" height="1" fill="white" fill-opacity="0.2" /><rect x="798" y="166.5" width="64" height="1" fill="white" fill-opacity="0.2" /><rect x="798" y="222.0" width="64" height="1" fill="white" fill-opacity="0.2" /><rect x="798" y="277.5" width="64" height="1" fill="white" fill-opacity="0.5" /><text x="872" y="291.5" font-size="14" fill="white" font-family="monospace" dominant-baseline="ideographic">30</text><rect x="798" y="333.0" width="64" height="1" fill="white" fill-opacity="0.2" /><rect x="798" y="388.5" width="64" height="1" fill="white" fill-opacity="0.2" /><rect x="798" y="444.5" width="64" height="1" fill="white" fill-opacity="0.2" /><rect x="798" y="500.0" width="64" height="1" fill="white" fill-opacity="0.2" /><rect x="798" y="555.5" width="64" height="1" fill="white" fill-opacity="0.5" /><text x="872" y="569.5" font-size="14" fill="white" font-family="monospace" dominant-baseline="ideographic">31</text><rect x="798" y="611.0" width="64" height="1" fill="white" fill-opacity="0.2" /><rect x="798" y="666.5" width="64" height="1" fill="white" fill-opacity="0.2" /><rect x="798" y="722.0" width="64" height="1" fill="white" fill-opacity="0.2" /><rect x="798" y="777.5" width="64" height="1" fill="white" fill-opacity="0.2" /><rect x="798" y="833.0" width="64" height="1" fill="white" fill-opacity="0.5" /><text x="872" y="847.0" font-size="14" fill="white" font-family="monospace" dominant-baseline="ideographic">32</text><rect x="798" y="888.5" width="64" height="1" fill="white" fill-opacity="0.2" /><rect x="798" y="944.5" width="64" height="1" fill="white" fill-opacity="0.2" /><rect x="798" y="1000.0" width="64" height="1" fill="white" fill-opacity="0.2" /><rect x="798" y="1055.5" width="64" height="1" fill="white" fill-opacity="0.2" /><rect x="798" y="1111.0" width="64" height="1" fill="white" fill-opacity="0.5" /><text x="872" y="1125.0" font-size="14" fill="white" font-family="monospace" dominant-baseline="ideographic">33</text><rect x="912" y="0" width="64" height="1000.0" fill="black" /><rect x="912" y="0.0" width="64" height="1" fill="white" fill-opacity="0.5" /><text x="986" y="14.0" font-size="14" fill="white" font-family="monospace" dominant-baseline="ideographic">33</text><rect x="912" y="55.5" width="64" height="1" fill="white" fill-opacity="0.2" /><rect x="912" y="111.0" width="64" height="1" fill="white" fill-opacity="0.2" /><rect x="912" y="166.5" width="64" height="1" fill="white" fill-opacity="0.2" /><rect x="912" y="222.0" width="64" height="1" fill="white" fill-opacity="0.2" /><rect x="912" y="277.5" width="64" height="1" fill="white" fill-opacity="0.5" /><text x="986" y="291.5" font-size="14" fill="white" font-family="monospace" dominant-baseline="ideographic">34</text><rect x="912" y="333.5" width="64" height="1" fill="white" fill-opacity="0.2" /><rect x="912" y="389.0" width="64" height="1" fill="white" fill-opacity="0.2" /><rect x="912" y="444.5" width="64" height="1" fill="white" fill-opacity="0.2" /><rect x="912" y="500.0" width="64" height="1" fill="white" fill-opacity="0.2" /><rect x="912" y="555.5" width="64" height="1" fill="white" fill-opacity="0.5" /><text x="986" y="569.5" font-size="14" fill="white" font-family="monospace" dominant-baseline="ideographic">35</text><rect x="912" y="611.0" width="64" height="1" fill="white" fill-opacity="0.2" /><rect x="912" y="666.5" width="64" height="1" fill="white" fill-opacity="0.2" /><rect x="912" y="722.0" width="64" height="1" fill="white" fill-opacity="0.2" /><rect x="912" y="777.5" width="64" height="1" fill="white" fill-opacity="0.5" /><text x="986" y="791.5" font-size="14" fill="white" font-family="monospace" dominant-baseline="ideographic">36</text><rect x="912" y="833.5" width="64" height="1" fill="white" fill-opacity="0.2" /><rect x="912" y="889.0" width="64" height="1" fill="white" fill-opacity="0.2" /><rect x="912" y="944.5" width="64" height="1" fill="white" fill-opacity="0.2" /><rect x="912" y="1000.0" width="64" height="1" fill="white" fill-opacity="0.5" /><text x="986" y="1014.0" font-size="14" fill="white" font-family="monospace" dominant-baseline="ideographic">37</text><rect x="912" y="555.4499999999998" width="64" height="1" fill="aqua" fill-opacity="0.75" /><text x="912" y="569.4499999999998" font-size="14" fill="aqua" fill-opacity="0.75" font-family="monospace">Phrase D</text><rect x="1026" y="0" width="64" height="889.0" fill="black" /><rect x="1026" y="0.0" width="64" height="1" fill="white" fill-opacity="0.5" /><text x="1100" y="14.0" font-size="14" fill="white" font-family="monospace" dominant-baseline="ideographic">37</text><rect x="1026" y="55.5" width="64" height="1" fill="white" fill-opacity="0.2" /><rect x="1026" y="111.0" width="64" height="1" fill="white" fill-opacity="0.2" /><rect x="1026" y="166.5" width="64" height="1" fill="white" fill-opacity="0.2" /><rect x="1026" y="222.0" width="64" height="1" fill="white" fill-opacity="0.5" /><text x="1100" y="236.0" font-size="14" fill="white" font-family="monospace" dominant-baseline="ideographic">38</text><rect x="1026" y="277.5" width="64" height="1" fill="white" fill-opacity="0.2" /><rect x="1026" y="333.5" width="64" height="1" fill="white" fill-opacity="0.2" /><rect x="1026" y="389.0" width="64" height="1" fill="white" fill-opacity="0.2" /><rect x="1026" y="444.5" width="64" height="1" fill="white" fill-opacity="0.5" /><text x="1100" y="458.5" font-size="14" fill="white" font-family="monospace" dominant-baseline="ideographic">39</text><rect x="1026" y="500.0" width="64" height="1" fill="white" fill-opacity="0.2" /><rect x="1026" y="555.5" width="64" height="1" fill="white" fill-opacity="0.2" /><rect x="1026" y="611.0" width="64" height="1" fill="white" fill-opacity="0.2" /><rect x="1026" y="666.5" width="64" height="1" fill="white" fill-opacity="0.5" /><text x="1100" y="680.5" font-size="14" fill="white" font-family="monospace" dominant-baseline="ideographic">40</text><rect x="1026" y="722.0" width="64" height="1" fill="white" fill-opacity="0.2" /><rect x="1026" y="777.5" width="64" height="1" fill="white" fill-opacity="0.2" /><rect x="1026" y="833.5" width="64" height="1" fill="white" fill-opacity="0.2" /><rect x="1026" y="889.0" width="64" height="1" fill="white" fill-opacity="0.5" /><text x="1100" y="903.0" font-size="14" fill="white" font-family="monospace" dominant-baseline="ideographic">41</text><rect x="1140" y="0" width="64" height="888.5" fill="black" /><rect x="1140" y="0.0" width="64" height="1" fill="white" fill-opacity="0.5" /><text x="1214" y="14.0" font-size="14" fill="white" font-family="monospace" dominant-baseline="ideographic">41</text><rect x="1140" y="55.5" width="64" height="1" fill="white" fill-opacity="0.2" /><rect x="1140" y="111.0" width="64" height="1" fill="white" fill-opacity="0.2" /><rect x="1140" y="166.5" width="64" height="1" fill="white" fill-opacity="0.2" /><rect x="1140" y="222.0" width="64" height="1" fill="white" fill-opacity="0.5" /><text x="1214" y="236.0" font-size="14" fill="white" font-family="monospace" dominant-baseline="ideographic">42</text><rect x="1140" y="277.5" width="64" height="1" fill="white" fill-opacity="0.2" /><rect x="1140" y="333.0" width="64" height="1" fill="white" fill-opacity="0.2" /><rect x="1140" y="388.5" width="64" height="1" fill="white" fill-opacity="0.2" /><rect x="1140" y="444.5" width="64" height="1" fill="white" fill-opacity="0.5" /><text x="1214" y="458.5" font-size="14" fill="white" font-family="monospace" dominant-baseline="ideographic">43</text><rect x="1140" y="500.0" width="64" height="1" fill="white" fill-opacity="0.2" /><rect x="1140" y="555.5" width="64" height="1" fill="white" fill-opacity="0.2" /><rect x="1140" y="611.0" width="64" height="1" fill="white" fill-opacity="0.2" /><rect x="1140" y="666.5" width="64" height="1" fill="white" fill-opacity="0.5" /><text x="1214" y="680.5" font-size="14" fill="white" font-family="monospace" dominant-baseline="ideographic">44</text><rect x="1140" y="722.0" width="64" height="1" fill="white" fill-opacity="0.2" /><rect x="1140" y="777.5" width="64" height="1" fill="white" fill-opacity="0.2" /><rect x="1140" y="833.0" width="64" height="1" fill="white" fill-opacity="0.2" /><rect x="1140" y="888.5" width="64" height="1" fill="white" fill-opacity="0.5" /><text x="1214" y="902.5" font-size="14" fill="white" font-family="monospace" dominant-baseline="ideographic">45</text><rect x="1140" y="444.25" width="64" height="1" fill="aqua" fill-opacity="0.75" /><text x="1140" y="458.25" font-size="14" fill="aqua" fill-opacity="0.75" font-family="monospace">Phrase E</text><rect x="1254" y="0" width="64" height="889.0" fill="black" /><rect x="1254" y="0.0" width="64" height="1" fill="white" fill-opacity="0.5" /><text x="1328" y="14.0" font-size="14" fill="white" font-family="monospace" dominant-baseline="ideographic">45</text><rect x="1254" y="56.0" width="64" height="1" fill="white" fill-opacity="0.2" /><rect x="1254" y="111.5" width="64" height="1" fill="white" fill-opacity="0.2" /><rect x="1254" y="167.0" width="64" height="1" fill="white" fill-opacity="0.2" /><rect x="1254" y="222.5" width="64" height="1" fill="white" fill-opacity="0.5" /><text x="1328" y="236.5" font-size="14" fill="white" font-family="monospace" dominant-baseline="ideographic">46</text><rect x="1254" y="278.0" width="64" height="1" fill="white" fill-opacity="0.2" /><rect x="1254" y="333.5" width="64" height="1" fill="white" fill-opacity="0.2" /><rect x="1254" y="389.0" width="64" height="1" fill="white" fill-opacity="0.2" /><rect x="1254" y="444.5" width="64" height="1" fill="white" fill-opacity="0.5" /><text x="1328" y="458.5" font-size="14" fill="white" font-family="monospace" dominant-baseline="ideographic">47</text><rect x="1254" y="500.0" width="64" height="1" fill="white" fill-opacity="0.2" /><rect x="1254" y="556.0" width="64" height="1" fill="white" fill-opacity="0.2" /><rect x="1254" y="611.5" width="64" height="1" fill="white" fill-opacity="0.2" /><rect x="1254" y="667.0" width="64" height="1" fill="white" fill-opacity="0.5" /><text x="1328" y="681.0" font-size="14" fill="white" font-family="monospace" dominant-baseline="ideographic">48</text><rect x="1254" y="722.5" width="64" height="1" fill="white" fill-opacity="0.2" /><rect x="1254" y="778.0" width="64" height="1" fill="white" fill-opacity="0.2" /><rect x="1254" y="833.5" width="64" height="1" fill="white" fill-opacity="0.2" /><rect x="1254" y="889.0" width="64" height="1" fill="white" fill-opacity="0.5" /><text x="1328" y="903.0" font-size="14" fill="white" font-family="monospace" dominant-baseline="ideographic">49</text><rect x="1368" y="0" width="64" height="924.5" fill="black" /><rect x="1368" y="0.0" width="64" height="1" fill="white" fill-opacity="0.5" /><text x="1442" y="14.0" font-size="14" fill="white" font-family="monospace" dominant-baseline="ideographic">49</text><rect x="1368" y="55.5" width="64" height="1" fill="white" fill-opacity="0.2" /><rect x="1368" y="111.0" width="64" height="1" fill="white" fill-opacity="0.2" /><rect x="1368" y="167.0" width="64" height="1" fill="white" fill-opacity="0.2" /><rect x="1368" y="222.5" width="64" height="1" fill="white" fill-opacity="0.5" /><text x="1442" y="236.5" font-size="14" fill="white" font-family="monospace" dominant-baseline="ideographic">50</text><rect x="1368" y="278.5" width="64" height="1" fill="white" fill-opacity="0.2" /><rect x="1368" y="335.0" width="64" height="1" fill="white" fill-opacity="0.2" /><rect x="1368" y="392.5" width="64" height="1" fill="white" fill-opacity="0.2" /><rect x="1368" y="451.0" width="64" height="1" fill="white" fill-opacity="0.5" /><text x="1442" y="465.0" font-size="14" fill="white" font-family="monospace" dominant-baseline="ideographic">51</text><rect x="1368" y="510.0" width="64" height="1" fill="white" fill-opacity="0.2" /><rect x="1368" y="569.5" width="64" height="1" fill="white" fill-opacity="0.2" /><rect x="1368" y="628.5" width="64" height="1" fill="white" fill-opacity="0.2" /><rect x="1368" y="688.0" width="64" height="1" fill="white" fill-opacity="0.5" /><text x="1442" y="702.0" font-size="14" fill="white" font-family="monospace" dominant-baseline="ideographic">52</text><rect x="1368" y="747.0" width="64" height="1" fill="white" fill-opacity="0.2" /><rect x="1368" y="806.0" width="64" height="1" fill="white" fill-opacity="0.2" /><rect x="1368" y="865.5" width="64" height="1" fill="white" fill-opacity="0.2" /><rect x="1368" y="924.5" width="64" height="1" fill="white" fill-opacity="0.5" /><text x="1442" y="938.5" font-size="14" fill="white" font-family="monospace" dominant-baseline="ideographic">53</text><rect x="1368" y="451.0" width="64" height="1" fill="aqua" fill-opacity="0.75" /><text x="1368" y="465.0" font-size="14" fill="aqua" fill-opacity="0.75" font-family="monospace">Phrase F</text><rect x="1368" y="222.5" width="64" height="1" fill="lime" fill-opacity="0.75" /><text x="1442" y="250.5" font-size="14" fill="lime" font-family="monospace" dominant-baseline="ideographic">160</text><rect x="1368" y="335.0" width="64" height="1" fill="lime" fill-opacity="0.75" /><text x="1442" y="349.0" font-size="14" fill="lime" font-family="monospace" dominant-baseline="ideographic">156</text><rect x="1368" y="392.5" width="64" height="1" fill="lime" fill-opacity="0.75" /><text x="1442" y="406.5" font-size="14" fill="lime" font-family="monospace" dominant-baseline="ideographic">154</text><rect x="1368" y="451.0" width="64" height="1" fill="lime" fill-opacity="0.75" /><text x="1442" y="479.0" font-size="14" fill="lime" font-family="monospace" dominant-baseline="ideographic">152</text><rect x="1482" y="0" width="64" height="947.5" fill="black" /><rect x="1482" y="0.0" width="64" height="1" fill="white" fill-opacity="0.5" /><text x="1556" y="14.0" font-size="14" fill="white" font-family="monospace" dominant-baseline="ideographic">53</text><rect x="1482" y="59.5" width="64" height="1" fill="white" fill-opacity="0.2" /><rect x="1482" y="118.5" width="64" height="1" fill="white" fill-opacity="0.2" /><rect x="1482" y="178.0" width="64" height="1" fill="white" fill-opacity="0.2" /><rect x="1482" y="237.0" width="64" height="1" fill="white" fill-opacity="0.5" /><text x="1556" y="251.0" font-size="14" fill="white" font-family="monospace" dominant-baseline="ideographic">54</text><rect x="1482" y="296.0" width="64" height="1" fill="white" fill-opacity="0.2" /><rect x="1482" y="355.5" width="64" height="1" fill="white" fill-opacity="0.2" /><rect x="1482" y="414.5" width="64" height="1" fill="white" fill-opacity="0.2" /><rect x="1482" y="474.0" width="64" height="1" fill="white" fill-opacity="0.5" /><text x="1556" y="488.0" font-size="14" fill="white" font-family="monospace" dominant-baseline="ideographic">55</text><rect x="1482" y="533.0" width="64" height="1" fill="white" fill-opacity="0.2" /><rect x="1482" y="592.0" width="64" height="1" fill="white" fill-opacity="0.2" /><rect x="1482" y="651.5" width="64" height="1" fill="white" fill-opacity="0.2" /><rect x="1482" y="710.5" width="64" height="1" fill="white" fill-opacity="0.5" /><text x="1556" y="724.5" font-size="14" fill="white" font-family="monospace" dominant-baseline="ideographic">56</text><rect x="1482" y="770.0" width="64" height="1" fill="white" fill-opacity="0.2" /><rect x="1482" y="829.0" width="64" height="1" fill="white" fill-opacity="0.2" /><rect x="1482" y="888.5" width="64" height="1" fill="white" fill-opacity="0.2" /><rect x="1482" y="947.5" width="64" height="1" fill="white" fill-opacity="0.5" /><text x="1556" y="961.5" font-size="14" fill="white" font-family="monospace" dominant-baseline="ideographic">57</text><rect x="1596" y="0" width="64" height="897.5" fill="black" /><rect x="1596" y="0.0" width="64" height="1" fill="white" fill-opacity="0.5" /><text x="1670" y="14.0" font-size="14" fill="white" font-family="monospace" dominant-baseline="ideographic">57</text><rect x="1596" y="57.0" width="64" height="1" fill="white" fill-opacity="0.2" /><rect x="1596" y="114.0" width="64" height="1" fill="white" fill-opacity="0.2" /><rect x="1596" y="171.0" width="64" height="1" fill="white" fill-opacity="0.2" /><rect x="1596" y="228.0" width="64" height="1" fill="white" fill-opacity="0.5" /><text x="1670" y="242.0" font-size="14" fill="white" font-family="monospace" dominant-baseline="ideographic">58</text><rect x="1596" y="284.0" width="64" height="1" fill="white" fill-opacity="0.2" /><rect x="1596" y="340.5" width="64" height="1" fill="white" fill-opacity="0.2" /><rect x="1596" y="396.5" width="64" height="1" fill="white" fill-opacity="0.2" /><rect x="1596" y="453.0" width="64" height="1" fill="white" fill-opacity="0.5" /><text x="1670" y="467.0" font-size="14" fill="white" font-family="monospace" dominant-baseline="ideographic">59</text><rect x="1596" y="508.5" width="64" height="1" fill="white" fill-opacity="0.2" /><rect x="1596" y="564.0" width="64" height="1" fill="white" fill-opacity="0.2" /><rect x="1596" y="619.5" width="64" height="1" fill="white" fill-opacity="0.2" /><rect x="1596" y="675.0" width="64" height="1" fill="white" fill-opacity="0.5" /><text x="1670" y="689.0" font-size="14" fill="white" font-family="monospace" dominant-baseline="ideographic">60</text><rect x="1596" y="730.5" width="64" height="1" fill="white" fill-opacity="0.2" /><rect x="1596" y="786.0" width="64" height="1" fill="white" fill-opacity="0.2" /><rect x="1596" y="841.5" width="64" height="1" fill="white" fill-opacity="0.2" /><rect x="1596" y="897.5" width="64" height="1" fill="white" fill-opacity="0.5" /><text x="1670" y="911.5" font-size="14" fill="white" font-family="monospace" dominant-baseline="ideographic">61</text><rect x="1596" y="452.7999999999993" width="64" height="1" fill="aqua" fill-opacity="0.75" /><text x="1596" y="466.7999999999993" font-size="14" fill="aqua" fill-opacity="0.75" font-family="monospace">Special</text><rect x="1596" y="0.0" width="64" height="1" fill="lime" fill-opacity="0.75" /><text x="1670" y="28.0" font-size="14" fill="lime" font-family="monospace" dominant-baseline="ideographic">158</text><rect x="1596" y="228.0" width="64" height="1" fill="lime" fill-opacity="0.75" /><text x="1670" y="256.0" font-size="14" fill="lime" font-family="monospace" dominant-baseline="ideographic">160</text><rect x="1596" y="453.0" width="64" height="1" fill="lime" fill-opacity="0.75" /><text x="1670" y="481.0" font-size="14" fill="lime" font-family="monospace" dominant-baseline="ideographic">162</text><rect x="1710" y="0" width="64" height="790.5" fill="black" /><rect x="1710" y="0.0" width="64" height="1" fill="white" fill-opacity="0.5" /><text x="1784" y="14.0" font-size="14" fill="white" font-family="monospace" dominant-baseline="ideographic">61</text><rect x="1710" y="55.5" width="64" height="1" fill="white" fill-opacity="0.2" /><rect x="1710" y="111.0" width="64" height="1" fill="white" fill-opacity="0.2" /><rect x="1710" y="166.5" width="64" height="1" fill="white" fill-opacity="0.2" /><rect x="1710" y="222.0" width="64" height="1" fill="white" fill-opacity="0.5" /><text x="1784" y="236.0" font-size="14" fill="white" font-family="monospace" dominant-baseline="ideographic">62</text><rect x="1710" y="277.5" width="64" height="1" fill="white" fill-opacity="0.2" /><rect x="1710" y="333.0" width="64" height="1" fill="white" fill-opacity="0.2" /><rect x="1710" y="388.5" width="64" height="1" fill="white" fill-opacity="0.2" /><rect x="1710" y="444.0" width="64" height="1" fill="white" fill-opacity="0.5" /><text x="1784" y="458.0" font-size="14" fill="white" font-family="monospace" dominant-baseline="ideographic">63</text><rect x="1710" y="502.0" width="64" height="1" fill="white" fill-opacity="0.2" /><rect x="1710" y="559.5" width="64" height="1" fill="white" fill-opacity="0.2" /><rect x="1710" y="617.5" width="64" height="1" fill="white" fill-opacity="0.5" /><text x="1784" y="631.5" font-size="14" fill="white" font-family="monospace" dominant-baseline="ideographic">64</text><rect x="1710" y="675.0" width="64" height="1" fill="white" fill-opacity="0.2" /><rect x="1710" y="732.5" width="64" height="1" fill="white" fill-opacity="0.2" /><rect x="1710" y="790.5" width="64" height="1" fill="white" fill-opacity="0.5" /><text x="1784" y="804.5" font-size="14" fill="white" font-family="monospace" dominant-baseline="ideographic">65</text><rect x="1710" y="444.0" width="64" height="1" fill="lime" fill-opacity="0.75" /><text x="1784" y="472.0" font-size="14" fill="lime" font-family="monospace" dominant-baseline="ideographic">156</text><rect x="1824" y="0" width="64" height="788.5" fill="black" /><rect x="1824" y="0.0" width="64" height="1" fill="white" fill-opacity="0.5" /><text x="1898" y="14.0" font-size="14" fill="white" font-family="monospace" dominant-baseline="ideographic">65</text><rect x="1824" y="57.5" width="64" height="1" fill="white" fill-opacity="0.2" /><rect x="1824" y="115.5" width="64" height="1" fill="white" fill-opacity="0.2" /><rect x="1824" y="173.0" width="64" height="1" fill="white" fill-opacity="0.5" /><text x="1898" y="187.0" font-size="14" fill="white" font-family="monospace" dominant-baseline="ideographic">66</text><rect x="1824" y="230.0" width="64" height="1" fill="white" fill-opacity="0.2" /><rect x="1824" y="287.0" width="64" height="1" fill="white" fill-opacity="0.2" /><rect x="1824" y="344.0" width="64" height="1" fill="white" fill-opacity="0.5" /><text x="1898" y="358.0" font-size="14" fill="white" font-family="monospace" dominant-baseline="ideographic">67</text><rect x="1824" y="399.5" width="64" height="1" fill="white" fill-opacity="0.2" /><rect x="1824" y="455.0" width="64" height="1" fill="white" fill-opacity="0.2" /><rect x="1824" y="510.5" width="64" height="1" fill="white" fill-opacity="0.2" /><rect x="1824" y="566.0" width="64" height="1" fill="white" fill-opacity="0.5" /><text x="1898" y="580.0" font-size="14" fill="white" font-family="monospace" dominant-baseline="ideographic">68</text><rect x="1824" y="621.5" width="64" height="1" fill="white" fill-opacity="0.2" /><rect x="1824" y="677.0" width="64" height="1" fill="white" fill-opacity="0.2" /><rect x="1824" y="732.5" width="64" height="1" fill="white" fill-opacity="0.2" /><rect x="1824" y="788.5" width="64" height="1" fill="white" fill-opacity="0.5" /><text x="1898" y="802.5" font-size="14" fill="white" font-family="monospace" dominant-baseline="ideographic">69</text><rect x="1824" y="173.0" width="64" height="1" fill="lime" fill-opacity="0.75" /><text x="1898" y="201.0" font-size="14" fill="lime" font-family="monospace" dominant-baseline="ideographic">158</text><rect x="1824" y="344.0" width="64" height="1" fill="lime" fill-opacity="0.75" /><text x="1898" y="372.0" font-size="14" fill="lime" font-family="monospace" dominant-baseline="ideographic">162</text><rect x="1938" y="0" width="64" height="888.5" fill="black" /><rect x="1938" y="0.0" width="64" height="1" fill="white" fill-opacity="0.5" /><text x="2012" y="14.0" font-size="14" fill="white" font-family="monospace" dominant-baseline="ideographic">69</text><rect x="1938" y="55.5" width="64" height="1" fill="white" fill-opacity="0.2" /><rect x="1938" y="111.0" width="64" height="1" fill="white" fill-opacity="0.2" /><rect x="1938" y="166.5" width="64" height="1" fill="white" fill-opacity="0.2" /><rect x="1938" y="222.0" width="64" height="1" fill="white" fill-opacity="0.5" /><text x="2012" y="236.0" font-size="14" fill="white" font-family="monospace" dominant-baseline="ideographic">70</text><rect x="1938" y="277.5" width="64" height="1" fill="white" fill-opacity="0.2" /><rect x="1938" y="333.0" width="64" height="1" fill="white" fill-opacity="0.2" /><rect x="1938" y="388.5" width="64" height="1" fill="white" fill-opacity="0.2" /><rect x="1938" y="444.0" width="64" height="1" fill="white" fill-opacity="0.5" /><text x="2012" y="458.0" font-size="14" fill="white" font-family="monospace" dominant-baseline="ideographic">71</text><rect x="1938" y="500.0" width="64" height="1" fill="white" fill-opacity="0.2" /><rect x="1938" y="555.5" width="64" height="1" fill="white" fill-opacity="0.2" /><rect x="1938" y="611.0" width="64" height="1" fill="white" fill-opacity="0.2" /><rect x="1938" y="666.5" width="64" height="1" fill="white" fill-opacity="0.5" /><text x="2012" y="680.5" font-size="14" fill="white" font-family="monospace" dominant-baseline="ideographic">72</text><rect x="1938" y="722.0" width="64" height="1" fill="white" fill-opacity="0.2" /><rect x="1938" y="777.5" width="64" height="1" fill="white" fill-opacity="0.2" /><rect x="1938" y="833.0" width="64" height="1" fill="white" fill-opacity="0.2" /><rect x="1938" y="888.5" width="64" height="1" fill="white" fill-opacity="0.5" /><text x="2012" y="902.5" font-size="14" fill="white" font-family="monospace" dominant-baseline="ideographic">73</text><rect x="1938" y="444.25" width="64" height="1" fill="aqua" fill-opacity="0.75" /><text x="1938" y="458.25" font-size="14" fill="aqua" fill-opacity="0.75" font-family="monospace">Special</text><rect x="2052" y="0" width="64" height="889.0" fill="black" /><rect x="2052" y="0.0" width="64" height="1" fill="white" fill-opacity="0.5" /><text x="2126" y="14.0" font-size="14" fill="white" font-family="monospace" dominant-baseline="ideographic">73</text><rect x="2052" y="55.5" width="64" height="1" fill="white" fill-opacity="0.2" /><rect x="2052" y="111.5" width="64" height="1" fill="white" fill-opacity="0.2" /><rect x="2052" y="167.0" width="64" height="1" fill="white" fill-opacity="0.2" /><rect x="2052" y="222.5" width="64" height="1" fill="white" fill-opacity="0.5" /><text x="2126" y="236.5" font-size="14" fill="white" font-family="monospace" dominant-baseline="ideographic">74</text><rect x="2052" y="278.0" width="64" height="1" fill="white" fill-opacity="0.2" /><rect x="2052" y="333.5" width="64" height="1" fill="white" fill-opacity="0.2" /><rect x="2052" y="389.0" width="64" height="1" fill="white" fill-opacity="0.2" /><rect x="2052" y="444.5" width="64" height="1" fill="white" fill-opacity="0.5" /><text x="2126" y="458.5" font-size="14" fill="white" font-family="monospace" dominant-baseline="ideographic">75</text><rect x="2052" y="500.0" width="64" height="1" fill="white" fill-opacity="0.2" /><rect x="2052" y="555.5" width="64" height="1" fill="white" fill-opacity="0.2" /><rect x="2052" y="611.5" width="64" height="1" fill="white" fill-opacity="0.2" /><rect x="2052" y="667.0" width="64" height="1" fill="white" fill-opacity="0.5" /><text x="2126" y="681.0" font-size="14" fill="white" font-family="monospace" dominant-baseline="ideographic">76</text><rect x="2052" y="722.5" width="64" height="1" fill="white" fill-opacity="0.2" /><rect x="2052" y="778.0" width="64" height="1" fill="white" fill-opacity="0.2" /><rect x="2052" y="833.5" width="64" height="1" fill="white" fill-opacity="0.2" /><rect x="2052" y="889.0" width="64" height="1" fill="white" fill-opacity="0.5" /><text x="2126" y="903.0" font-size="14" fill="white" font-family="monospace" dominant-baseline="ideographic">77</text><rect x="2166" y="0" width="64" height="850.0" fill="black" /><rect x="2166" y="0.0" width="64" height="1" fill="white" fill-opacity="0.5" /><text x="2240" y="14.0" font-size="14" fill="white" font-family="monospace" dominant-baseline="ideographic">77</text><rect x="2166" y="55.5" width="64" height="1" fill="white" fill-opacity="0.2" /><rect x="2166" y="111.0" width="64" height="1" fill="white" fill-opacity="0.2" /><rect x="2166" y="166.5" width="64" height="1" fill="white" fill-opacity="0.2" /><rect x="2166" y="222.5" width="64" height="1" fill="white" fill-opacity="0.5" /><text x="2240" y="236.5" font-size="14" fill="white" font-family="monospace" dominant-baseline="ideographic">78</text><rect x="2166" y="278.0" width="64" height="1" fill="white" fill-opacity="0.2" /><rect x="2166" y="333.5" width="64" height="1" fill="white" fill-opacity="0.2" /><rect x="2166" y="389.0" width="64" height="1" fill="white" fill-opacity="0.2" /><rect x="2166" y="444.5" width="64" height="1" fill="white" fill-opacity="0.5" /><text x="2240" y="458.5" font-size="14" fill="white" font-family="monospace" dominant-baseline="ideographic">79</text><rect x="2166" y="500.0" width="64" height="1" fill="white" fill-opacity="0.2" /><rect x="2166" y="555.5" width="64" height="1" fill="white" fill-opacity="0.2" /><rect x="2166" y="611.0" width="64" height="1" fill="white" fill-opacity="0.2" /><rect x="2166" y="666.5" width="64" height="1" fill="white" fill-opacity="0.5" /><text x="2240" y="680.5" font-size="14" fill="white" font-family="monospace" dominant-baseline="ideographic">80</text></svg>