<?xml version="1.0" encoding="UTF-8"?><svg xmlns="http://www.w3.org/2000/svg" xmlns:xlink="http://www.w3.org/1999/xlink"     width="4284" height="925.5" viewBox="0 0 4284 925.5"><defs></defs><rect x="0" y="14.0" width="188" height="911.5" fill="black" /><rect x="0" y="924.5" width="188" height="1" fill="white" fill-opacity="0.5" /><text x="198" y="924.5" font-size="14" fill="white" font-family="monospace" dominant-baseline="initial">1</text><rect x="0" y="867.5" width="188" height="1" fill="white" fill-opacity="0.2" /><rect x="0" y="810.5" width="188" height="1" fill="white" fill-opacity="0.2" /><rect x="0" y="753.5" width="188" height="1" fill="white" fill-opacity="0.2" /><rect x="0" y="696.5" width="188" height="1" fill="white" fill-opacity="0.5" /><text x="198" y="696.5" font-size="14" fill="white" font-family="monospace" dominant-baseline="initial">2</text><rect x="0" y="639.5" width="188" height="1" fill="white" fill-opacity="0.2" /><rect x="0" y="582.5" width="188" height="1" fill="white" fill-opacity="0.2" /><rect x="0" y="526.0" width="188" height="1" fill="white" fill-opacity="0.2" /><rect x="0" y="469.0" width="188" height="1" fill="white" fill-opacity="0.5" /><text x="198" y="469.0" font-size="14" fill="white" font-family="monospace" dominant-baseline="initial">3</text><rect x="0" y="412.0" width="188" height="1" fill="white" fill-opacity="0.2" /><rect x="0" y="355.0" width="188" height="1" fill="white" fill-opacity="0.2" /><rect x="0" y="298.0" width="188" height="1" fill="white" fill-opacity="0.2" /><rect x="0" y="241.0" width="188" height="1" fill="white" fill-opacity="0.5" /><text x="198" y="241.0" font-size="14" fill="white" font-family="monospace" dominant-baseline="initial">4</text><rect x="0" y="184.0" width="188" height="1" fill="white" fill-opacity="0.2" /><rect x="0" y="127.0" width="188" height="1" fill="white" fill-opacity="0.2" /><rect x="0" y="70.0" width="188" height="1" fill="white" fill-opacity="0.2" /><rect x="0" y="13.0" width="188" height="1" fill="white" fill-opacity="0.5" /><text x="198" y="13.0" font-size="14" fill="white" font-family="monospace" dominant-baseline="initial">5</text><rect x="0" y="924.5" width="188" height="1" fill="aqua" fill-opacity="0.75" /><text x="0" y="920.5" font-size="14" fill="aqua" fill-opacity="0.75" font-family="monospace">Intro</text><rect x="0" y="924.5" width="188" height="1" fill="lime" fill-opacity="0.75" /><text x="198" y="911.5" font-size="14" fill="lime" font-family="monospace" dominant-baseline="initial">158</text><rect x="238" y="14.0" width="188" height="911.5" fill="black" /><rect x="238" y="924.5" width="188" height="1" fill="white" fill-opacity="0.5" /><text x="436" y="924.5" font-size="14" fill="white" font-family="monospace" dominant-baseline="initial">5</text><rect x="238" y="867.5" width="188" height="1" fill="white" fill-opacity="0.2" /><rect x="238" y="810.5" width="188" height="1" fill="white" fill-opacity="0.2" /><rect x="238" y="753.5" width="188" height="1" fill="white" fill-opacity="0.2" /><rect x="238" y="697.0" width="188" height="1" fill="white" fill-opacity="0.5" /><text x="436" y="697.0" font-size="14" fill="white" font-family="monospace" dominant-baseline="initial">6</text><rect x="238" y="640.0" width="188" height="1" fill="white" fill-opacity="0.2" /><rect x="238" y="583.0" width="188" height="1" fill="white" fill-opacity="0.2" /><rect x="238" y="526.0" width="188" height="1" fill="white" fill-opacity="0.2" /><rect x="238" y="469.0" width="188" height="1" fill="white" fill-opacity="0.5" /><text x="436" y="469.0" font-size="14" fill="white" font-family="monospace" dominant-baseline="initial">7</text><rect x="238" y="412.0" width="188" height="1" fill="white" fill-opacity="0.2" /><rect x="238" y="355.0" width="188" height="1" fill="white" fill-opacity="0.2" /><rect x="238" y="298.0" width="188" height="1" fill="white" fill-opacity="0.2" /><rect x="238" y="241.0" width="188" height="1" fill="white" fill-opacity="0.5" /><text x="436" y="241.0" font-size="14" fill="white" font-family="monospace" dominant-baseline="initial">8</text><rect x="238" y="184.0" width="188" height="1" fill="white" fill-opacity="0.2" /><rect x="238" y="127.0" width="188" height="1" fill="white" fill-opacity="0.2" /><rect x="238" y="70.0" width="188" height="1" fill="white" fill-opacity="0.2" /><rect x="238" y="13.0" width="188" height="1" fill="white" fill-opacity="0.5" /><text x="436" y="13.0" font-size="14" fill="white" font-family="monospace" dominant-baseline="initial">9</text><rect x="238" y="696.75" width="188" height="1" fill="aqua" fill-opacity="0.75" /><text x="238" y="692.75" font-size="14" fill="aqua" fill-opacity="0.75" font-family="monospace">Phrase A</text><rect x="476" y="14.5" width="188" height="911.0" fill="black" /><rect x="476" y="924.5" width="188" height="1" fill="white" fill-opacity="0.5" /><text x="674" y="924.5" font-size="14" fill="white" font-family="monospace" dominant-baseline="initial">9</text><rect x="476" y="868.0" width="188" height="1" fill="white" fill-opacity="0.2" /><rect x="476" y="811.0" width="188" height="1" fill="white" fill-opacity="0.2" /><rect x="476" y="754.0" width="188" height="1" fill="white" fill-opacity="0.2" /><rect x="476" y="697.0" width="188" height="1" fill="white" fill-opacity="0.5" /><text x="674" y="697.0" font-size="14" fill="white" font-family="monospace" dominant-baseline="initial">10</text><rect x="476" y="640.0" width="188" height="1" fill="white" fill-opacity="0.2" /><rect x="476" y="583.0" width="188" height="1" fill="white" fill-opacity="0.2" /><rect x="476" y="526.0" width="188" height="1" fill="white" fill-opacity="0.2" /><rect x="476" y="469.0" width="188" height="1" fill="white" fill-opacity="0.5" /><text x="674" y="469.0" font-size="14" fill="white" font-family="monospace" dominant-baseline="initial">11</text><rect x="476" y="412.0" width="188" height="1" fill="white" fill-opacity="0.2" /><rect x="476" y="355.0" width="188" height="1" fill="white" fill-opacity="0.2" /><rect x="476" y="298.0" width="188" height="1" fill="white" fill-opacity="0.2" /><rect x="476" y="241.0" width="188" height="1" fill="white" fill-opacity="0.5" /><text x="674" y="241.0" font-size="14" fill="white" font-family="monospace" dominant-baseline="initial">12</text><rect x="476" y="184.0" width="188" height="1" fill="white" fill-opacity="0.2" /><rect x="476" y="127.5" width="188" height="1" fill="white" fill-opacity="0.2" /><rect x="476" y="70.5" width="188" height="1" fill="white" fill-opacity="0.2" /><rect x="476" y="13.5" width="188" height="1" fill="white" fill-opacity="0.5" /><text x="674" y="13.5" font-size="14" fill="white" font-family="monospace" dominant-baseline="initial">13</text><rect x="714" y="14.0" width="188" height="911.5" fill="black" /><rect x="714" y="924.5" width="188" height="1" fill="white" fill-opacity="0.5" /><text x="912" y="924.5" font-size="14" fill="white" font-family="monospace" dominant-baseline="initial">13</text><rect x="714" y="867.5" width="188" height="1" fill="white" fill-opacity="0.2" /><rect x="714" y="810.5" width="188" height="1" fill="white" fill-opacity="0.2" /><rect x="714" y="753.5" width="188" height="1" fill="white" fill-opacity="0.2" /><rect x="714" y="696.5" width="188" height="1" fill="white" fill-opacity="0.5" /><text x="912" y="696.5" font-size="14" fill="white" font-family="monospace" dominant-baseline="initial">14</text><rect x="714" y="639.5" width="188" height="1" fill="white" fill-opacity="0.2" /><rect x="714" y="582.5" width="188" height="1" fill="white" fill-opacity="0.2" /><rect x="714" y="525.5" width="188" height="1" fill="white" fill-opacity="0.2" /><rect x="714" y="468.5" width="188" height="1" fill="white" fill-opacity="0.5" /><text x="912" y="468.5" font-size="14" fill="white" font-family="monospace" dominant-baseline="initial">15</text><rect x="714" y="411.5" width="188" height="1" fill="white" fill-opacity="0.2" /><rect x="714" y="354.5" width="188" height="1" fill="white" fill-opacity="0.2" /><rect x="714" y="297.5" width="188" height="1" fill="white" fill-opacity="0.2" /><rect x="714" y="241.0" width="188" height="1" fill="white" fill-opacity="0.5" /><text x="912" y="241.0" font-size="14" fill="white" font-family="monospace" dominant-baseline="initial">16</text><rect x="714" y="184.0" width="188" height="1" fill="white" fill-opacity="0.2" /><rect x="714" y="127.0" width="188" height="1" fill="white" fill-opacity="0.2" /><rect x="714" y="70.0" width="188" height="1" fill="white" fill-opacity="0.2" /><rect x="714" y="13.0" width="188" height="1" fill="white" fill-opacity="0.5" /><text x="912" y="13.0" font-size="14" fill="white" font-family="monospace" dominant-baseline="initial">17</text><rect x="714" y="696.4500000000003" width="188" height="1" fill="aqua" fill-opacity="0.75" /><text x="714" y="692.4500000000003" font-size="14" fill="aqua" fill-opacity="0.75" font-family="monospace">Phrase B</text><rect x="952" y="14.0" width="188" height="911.5" fill="black" /><rect x="952" y="924.5" width="188" height="1" fill="white" fill-opacity="0.5" /><text x="1150" y="924.5" font-size="14" fill="white" font-family="monospace" dominant-baseline="initial">17</text><rect x="952" y="867.5" width="188" height="1" fill="white" fill-opacity="0.2" /><rect x="952" y="810.5" width="188" height="1" fill="white" fill-opacity="0.2" /><rect x="952" y="753.5" width="188" height="1" fill="white" fill-opacity="0.2" /><rect x="952" y="696.5" width="188" height="1" fill="white" fill-opacity="0.5" /><text x="1150" y="696.5" font-size="14" fill="white" font-family="monospace" dominant-baseline="initial">18</text><rect x="952" y="639.5" width="188" height="1" fill="white" fill-opacity="0.2" /><rect x="952" y="582.5" width="188" height="1" fill="white" fill-opacity="0.2" /><rect x="952" y="525.5" width="188" height="1" fill="white" fill-opacity="0.2" /><rect x="952" y="468.5" width="188" height="1" fill="white" fill-opacity="0.5" /><text x="1150" y="468.5" font-size="14" fill="white" font-family="monospace" dominant-baseline="initial">19</text><rect x="952" y="412.0" width="188" height="1" fill="white" fill-opacity="0.2" /><rect x="952" y="355.0" width="188" height="1" fill="white" fill-opacity="0.2" /><rect x="952" y="298.0" width="188" height="1" fill="white" fill-opacity="0.2" /><rect x="952" y="241.0" width="188" height="1" fill="white" fill-opacity="0.5" /><text x="1150" y="241.0" font-size="14" fill="white" font-family="monospace" dominant-baseline="initial">20</text><rect x="952" y="184.0" width="188" height="1" fill="white" fill-opacity="0.2" /><rect x="952" y="127.0" width="188" height="1" fill="white" fill-opacity="0.2" /><rect x="952" y="70.0" width="188" height="1" fill="white" fill-opacity="0.2" /><rect x="952" y="13.0" width="188" height="1" fill="white" fill-opacity="0.5" /><text x="1150" y="13.0" font-size="14" fill="white" font-family="monospace" dominant-baseline="initial">21</text><rect x="1190" y="14.0" width="188" height="911.5" fill="black" /><rect x="1190" y="924.5" width="188" height="1" fill="white" fill-opacity="0.5" /><text x="1388" y="924.5" font-size="14" fill="white" font-family="monospace" dominant-baseline="initial">21</text><rect x="1190" y="867.5" width="188" height="1" fill="white" fill-opacity="0.2" /><rect x="1190" y="810.5" width="188" height="1" fill="white" fill-opacity="0.2" /><rect x="1190" y="753.5" width="188" height="1" fill="white" fill-opacity="0.2" /><rect x="1190" y="696.5" width="188" height="1" fill="white" fill-opacity="0.5" /><text x="1388" y="696.5" font-size="14" fill="white" font-family="monospace" dominant-baseline="initial">22</text><rect x="1190" y="639.5" width="188" height="1" fill="white" fill-opacity="0.2" /><rect x="1190" y="583.0" width="188" height="1" fill="white" fill-opacity="0.2" /><rect x="1190" y="526.0" width="188" height="1" fill="white" fill-opacity="0.2" /><rect x="1190" y="469.0" width="188" height="1" fill="white" fill-opacity="0.5" /><text x="1388" y="469.0" font-size="14" fill="white" font-family="monospace" dominant-baseline="initial">23</text><rect x="1190" y="412.0" width="188" height="1" fill="white" fill-opacity="0.2" /><rect x="1190" y="355.0" width="188" height="1" fill="white" fill-opacity="0.2" /><rect x="1190" y="298.0" width="188" height="1" fill="white" fill-opacity="0.2" /><rect x="1190" y="241.0" width="188" height="1" fill="white" fill-opacity="0.5" /><text x="1388" y="241.0" font-size="14" fill="white" font-family="monospace" dominant-baseline="initial">24</text><rect x="1190" y="184.0" width="188" height="1" fill="white" fill-opacity="0.2" /><rect x="1190" y="127.0" width="188" height="1" fill="white" fill-opacity="0.2" /><rect x="1190" y="70.0" width="188" height="1" fill="white" fill-opacity="0.2" /><rect x="1190" y="13.0" width="188" height="1" fill="white" fill-opacity="0.5" /><text x="1388" y="13.0" font-size="14" fill="white" font-family="monospace" dominant-baseline="initial">25</text><rect x="1190" y="696.6500000000005" width="188" height="1" fill="aqua" fill-opacity="0.75" /><text x="1190" y="692.6500000000005" font-size="14" fill="aqua" fill-opacity="0.75" font-family="monospace">Phrase A</text><rect x="1428" y="14.5" width="188" height="911.0" fill="black" /><rect x="1428" y="924.5" width="188" height="1" fill="white" fill-opacity="0.5" /><text x="1626" y="924.5" font-size="14" fill="white" font-family="monospace" dominant-baseline="initial">25</text><rect x="1428" y="867.5" width="188" height="1" fill="white" fill-opacity="0.2" /><rect x="1428" y="810.5" width="188" height="1" fill="white" fill-opacity="0.2" /><rect x="1428" y="754.0" width="188" height="1" fill="white" fill-opacity="0.2" /><rect x="1428" y="697.0" width="188" height="1" fill="white" fill-opacity="0.5" /><text x="1626" y="697.0" font-size="14" fill="white" font-family="monospace" dominant-baseline="initial">26</text><rect x="1428" y="640.0" width="188" height="1" fill="white" fill-opacity="0.2" /><rect x="1428" y="583.0" width="188" height="1" fill="white" fill-opacity="0.2" /><rect x="1428" y="526.0" width="188" height="1" fill="white" fill-opacity="0.2" /><rect x="1428" y="469.0" width="188" height="1" fill="white" fill-opacity="0.5" /><text x="1626" y="469.0" font-size="14" fill="white" font-family="monospace" dominant-baseline="initial">27</text><rect x="1428" y="412.0" width="188" height="1" fill="white" fill-opacity="0.2" /><rect x="1428" y="355.0" width="188" height="1" fill="white" fill-opacity="0.2" /><rect x="1428" y="298.0" width="188" height="1" fill="white" fill-opacity="0.2" /><rect x="1428" y="241.0" width="188" height="1" fill="white" fill-opacity="0.5" /><text x="1626" y="241.0" font-size="14" fill="white" font-family="monospace" dominant-baseline="initial">28</text><rect x="1428" y="184.0" width="188" height="1" fill="white" fill-opacity="0.2" /><rect x="1428" y="127.0" width="188" height="1" fill="white" fill-opacity="0.2" /><rect x="1428" y="70.0" width="188" height="1" fill="white" fill-opacity="0.2" /><rect x="1428" y="13.5" width="188" height="1" fill="white" fill-opacity="0.5" /><text x="1626" y="13.5" font-size="14" fill="white" font-family="monospace" dominant-baseline="initial">29</text><rect x="1428" y="696.75" width="188" height="1" fill="aqua" fill-opacity="0.75" /><text x="1428" y="692.75" font-size="14" fill="aqua" fill-opacity="0.75" font-family="monospace">Phrase C</text><rect x="1666" y="14.0" width="188" height="911.5" fill="black" /><rect x="1666" y="924.5" width="188" height="1" fill="white" fill-opacity="0.5" /><text x="1864" y="924.5" font-size="14" fill="white" font-family="monospace" dominant-baseline="initial">29</text><rect x="1666" y="867.5" width="188" height="1" fill="white" fill-opacity="0.2" /><rect x="1666" y="810.5" width="188" height="1" fill="white" fill-opacity="0.2" /><rect x="1666" y="753.5" width="188" height="1" fill="white" fill-opacity="0.2" /><rect x="1666" y="696.5" width="188" height="1" fill="white" fill-opacity="0.5" /><text x="1864" y="696.5" font-size="14" fill="white" font-family="monospace" dominant-baseline="initial">30</text><rect x="1666" y="639.5" width="188" height="1" fill="white" fill-opacity="0.2" /><rect x="1666" y="582.5" width="188" height="1" fill="white" fill-opacity="0.2" /><rect x="1666" y="525.5" width="188" height="1" fill="white" fill-opacity="0.2" /><rect x="1666" y="468.5" width="188" height="1" fill="white" fill-opacity="0.5" /><text x="1864" y="468.5" font-size="14" fill="white" font-family="monospace" dominant-baseline="initial">31</text><rect x="1666" y="411.5" width="188" height="1" fill="white" fill-opacity="0.2" /><rect x="1666" y="354.5" width="188" height="1" fill="white" fill-opacity="0.2" /><rect x="1666" y="297.5" width="188" height="1" fill="white" fill-opacity="0.2" /><rect x="1666" y="240.5" width="188" height="1" fill="white" fill-opacity="0.5" /><text x="1864" y="240.5" font-size="14" fill="white" font-family="monospace" dominant-baseline="initial">32</text><rect x="1666" y="184.0" width="188" height="1" fill="white" fill-opacity="0.2" /><rect x="1666" y="127.0" width="188" height="1" fill="white" fill-opacity="0.2" /><rect x="1666" y="70.0" width="188" height="1" fill="white" fill-opacity="0.2" /><rect x="1666" y="13.0" width="188" height="1" fill="white" fill-opacity="0.5" /><text x="1864" y="13.0" font-size="14" fill="white" font-family="monospace" dominant-baseline="initial">33</text><rect x="1666" y="240.65000000000055" width="188" height="1" fill="aqua" fill-opacity="0.75" /><text x="1666" y="236.65000000000055" font-size="14" fill="aqua" fill-opacity="0.75" font-family="monospace">Special</text><rect x="1904" y="14.0" width="188" height="911.5" fill="black" /><rect x="1904" y="924.5" width="188" height="1" fill="white" fill-opacity="0.5" /><text x="2102" y="924.5" font-size="14" fill="white" font-family="monospace" dominant-baseline="initial">33</text><rect x="1904" y="867.5" width="188" height="1" fill="white" fill-opacity="0.2" /><rect x="1904" y="810.5" width="188" height="1" fill="white" fill-opacity="0.2" /><rect x="1904" y="753.5" width="188" height="1" fill="white" fill-opacity="0.2" /><rect x="1904" y="696.5" width="188" height="1" fill="white" fill-opacity="0.5" /><text x="2102" y="696.5" font-size="14" fill="white" font-family="monospace" dominant-baseline="initial">34</text><rect x="1904" y="639.5" width="188" height="1" fill="white" fill-opacity="0.2" /><rect x="1904" y="582.5" width="188" height="1" fill="white" fill-opacity="0.2" /><rect x="1904" y="525.5" width="188" height="1" fill="white" fill-opacity="0.2" /><rect x="1904" y="468.5" width="188" height="1" fill="white" fill-opacity="0.5" /><text x="2102" y="468.5" font-size="14" fill="white" font-family="monospace" dominant-baseline="initial">35</text><rect x="1904" y="411.5" width="188" height="1" fill="white" fill-opacity="0.2" /><rect x="1904" y="355.0" width="188" height="1" fill="white" fill-opacity="0.2" /><rect x="1904" y="298.0" width="188" height="1" fill="white" fill-opacity="0.2" /><rect x="1904" y="241.0" width="188" height="1" fill="white" fill-opacity="0.5" /><text x="2102" y="241.0" font-size="14" fill="white" font-family="monospace" dominant-baseline="initial">36</text><rect x="1904" y="184.0" width="188" height="1" fill="white" fill-opacity="0.2" /><rect x="1904" y="127.0" width="188" height="1" fill="white" fill-opacity="0.2" /><rect x="1904" y="70.0" width="188" height="1" fill="white" fill-opacity="0.2" /><rect x="1904" y="13.0" width="188" height="1" fill="white" fill-opacity="0.5" /><text x="2102" y="13.0" font-size="14" fill="white" font-family="monospace" dominant-baseline="initial">37</text><rect x="2142" y="14.0" width="188" height="911.5" fill="black" /><rect x="2142" y="924.5" width="188" height="1" fill="white" fill-opacity="0.5" /><text x="2340" y="924.5" font-size="14" fill="white" font-family="monospace" dominant-baseline="initial">37</text><rect x="2142" y="867.5" width="188" height="1" fill="white" fill-opacity="0.2" /><rect x="2142" y="810.5" width="188" height="1" fill="white" fill-opacity="0.2" /><rect x="2142" y="753.5" width="188" height="1" fill="white" fill-opacity="0.2" /><rect x="2142" y="696.5" width="188" height="1" fill="white" fill-opacity="0.5" /><text x="2340" y="696.5" font-size="14" fill="white" font-family="monospace" dominant-baseline="initial">38</text><rect x="2142" y="639.5" width="188" height="1" fill="white" fill-opacity="0.2" /><rect x="2142" y="582.5" width="188" height="1" fill="white" fill-opacity="0.2" /><rect x="2142" y="526.0" width="188" height="1" fill="white" fill-opacity="0.2" /><rect x="2142" y="469.0" width="188" height="1" fill="white" fill-opacity="0.5" /><text x="2340" y="469.0" font-size="14" fill="white" font-family="monospace" dominant-baseline="initial">39</text><rect x="2142" y="412.0" width="188" height="1" fill="white" fill-opacity="0.2" /><rect x="2142" y="355.0" width="188" height="1" fill="white" fill-opacity="0.2" /><rect x="2142" y="298.0" width="188" height="1" fill="white" fill-opacity="0.2" /><rect x="2142" y="241.0" width="188" height="1" fill="white" fill-opacity="0.5" /><text x="2340" y="241.0" font-size="14" fill="white" font-family="monospace" dominant-baseline="initial">40</text><rect x="2142" y="184.0" width="188" height="1" fill="white" fill-opacity="0.2" /><rect x="2142" y="127.0" width="188" height="1" fill="white" fill-opacity="0.2" /><rect x="2142" y="70.0" width="188" height="1" fill="white" fill-opacity="0.2" /><rect x="2142" y="13.0" width="188" height="1" fill="white" fill-opacity="0.5" /><text x="2340" y="13.0" font-size="14" fill="white" font-family="monospace" dominant-baseline="initial">41</text><rect x="2380" y="14.0" width="188" height="911.5" fill="black" /><rect x="2380" y="924.5" width="188" height="1" fill="white" fill-opacity="0.5" /><text x="2578" y="924.5" font-size="14" fill="white" font-family="monospace" dominant-baseline="initial">41</text><rect x="2380" y="867.5" width="188" height="1" fill="white" fill-opacity="0.2" /><rect x="2380" y="810.5" width="188" height="1" fill="white" fill-opacity="0.2" /><rect x="2380" y="753.5" width="188" height="1" fill="white" fill-opacity="0.2" /><rect x="2380" y="696.5" width="188" height="1" fill="white" fill-opacity="0.5" /><text x="2578" y="696.5" font-size="14" fill="white" font-family="monospace" dominant-baseline="initial">42</text><rect x="2380" y="640.0" width="188" height="1" fill="white" fill-opacity="0.2" /><rect x="2380" y="583.0" width="188" height="1" fill="white" fill-opacity="0.2" /><rect x="2380" y="526.0" width="188" height="1" fill="white" fill-opacity="0.2" /><rect x="2380" y="469.0" width="188" height="1" fill="white" fill-opacity="0.5" /><text x="2578" y="469.0" font-size="14" fill="white" font-family="monospace" dominant-baseline="initial">43</text><rect x="2380" y="412.0" width="188" height="1" fill="white" fill-opacity="0.2" /><rect x="2380" y="355.0" width="188" height="1" fill="white" fill-opacity="0.2" /><rect x="2380" y="298.0" width="188" height="1" fill="white" fill-opacity="0.2" /><rect x="2380" y="241.0" width="188" height="1" fill="white" fill-opacity="0.5" /><text x="2578" y="241.0" font-size="14" fill="white" font-family="monospace" dominant-baseline="initial">44</text><rect x="2380" y="184.0" width="188" height="1" fill="white" fill-opacity="0.2" /><rect x="2380" y="127.0" width="188" height="1" fill="white" fill-opacity="0.2" /><rect x="2380" y="70.0" width="188" height="1" fill="white" fill-opacity="0.2" /><rect x="2380" y="13.0" width="188" height="1" fill="white" fill-opacity="0.5" /><text x="2578" y="13.0" font-size="14" fill="white" font-family="monospace" dominant-baseline="initial">45</text><rect x="2380" y="241.10000000000036" width="188" height="1" fill="aqua" fill-opacity="0.75" /><text x="2380" y="237.10000000000036" font-size="14" fill="aqua" fill-opacity="0.75" font-family="monospace">Phrase D</text><rect x="2618" y="14.5" width="188" height="911.0" fill="black" /><rect x="2618" y="924.5" width="188" height="1" fill="white" fill-opacity="0.5" /><text x="2816" y="924.5" font-size="14" fill="white" font-family="monospace" dominant-baseline="initial">45</text><rect x="2618" y="867.5" width="188" height="1" fill="white" fill-opacity="0.2" /><rect x="2618" y="811.0" width="188" height="1" fill="white" fill-opacity="0.2" /><rect x="2618" y="754.0" width="188" height="1" fill="white" fill-opacity="0.2" /><rect x="2618" y="697.0" width="188" height="1" fill="white" fill-opacity="0.5" /><text x="2816" y="697.0" font-size="14" fill="white" font-family="monospace" dominant-baseline="initial">46</text><rect x="2618" y="640.0" width="188" height="1" fill="white" fill-opacity="0.2" /><rect x="2618" y="583.0" width="188" height="1" fill="white" fill-opacity="0.2" /><rect x="2618" y="526.0" width="188" height="1" fill="white" fill-opacity="0.2" /><rect x="2618" y="469.0" width="188" height="1" fill="white" fill-opacity="0.5" /><text x="2816" y="469.0" font-size="14" fill="white" font-family="monospace" dominant-baseline="initial">47</text><rect x="2618" y="412.0" width="188" height="1" fill="white" fill-opacity="0.2" /><rect x="2618" y="355.0" width="188" height="1" fill="white" fill-opacity="0.2" /><rect x="2618" y="298.0" width="188" height="1" fill="white" fill-opacity="0.2" /><rect x="2618" y="241.0" width="188" height="1" fill="white" fill-opacity="0.5" /><text x="2816" y="241.0" font-size="14" fill="white" font-family="monospace" dominant-baseline="initial">48</text><rect x="2618" y="184.0" width="188" height="1" fill="white" fill-opacity="0.2" /><rect x="2618" y="127.0" width="188" height="1" fill="white" fill-opacity="0.2" /><rect x="2618" y="70.5" width="188" height="1" fill="white" fill-opacity="0.2" /><rect x="2618" y="13.5" width="188" height="1" fill="white" fill-opacity="0.5" /><text x="2816" y="13.5" font-size="14" fill="white" font-family="monospace" dominant-baseline="initial">49</text><rect x="2856" y="14.0" width="188" height="911.5" fill="black" /><rect x="2856" y="924.5" width="188" height="1" fill="white" fill-opacity="0.5" /><text x="3054" y="924.5" font-size="14" fill="white" font-family="monospace" dominant-baseline="initial">49</text><rect x="2856" y="867.5" width="188" height="1" fill="white" fill-opacity="0.2" /><rect x="2856" y="810.5" width="188" height="1" fill="white" fill-opacity="0.2" /><rect x="2856" y="753.5" width="188" height="1" fill="white" fill-opacity="0.2" /><rect x="2856" y="696.5" width="188" height="1" fill="white" fill-opacity="0.5" /><text x="3054" y="696.5" font-size="14" fill="white" font-family="monospace" dominant-baseline="initial">50</text><rect x="2856" y="639.5" width="188" height="1" fill="white" fill-opacity="0.2" /><rect x="2856" y="582.5" width="188" height="1" fill="white" fill-opacity="0.2" /><rect x="2856" y="525.5" width="188" height="1" fill="white" fill-opacity="0.2" /><rect x="2856" y="468.5" width="188" height="1" fill="white" fill-opacity="0.5" /><text x="3054" y="468.5" font-size="14" fill="white" font-family="monospace" dominant-baseline="initial">51</text><rect x="2856" y="411.5" width="188" height="1" fill="white" fill-opacity="0.2" /><rect x="2856" y="354.5" width="188" height="1" fill="white" fill-opacity="0.2" /><rect x="2856" y="297.5" width="188" height="1" fill="white" fill-opacity="0.2" /><rect x="2856" y="241.0" width="188" height="1" fill="white" fill-opacity="0.5" /><text x="3054" y="241.0" font-size="14" fill="white" font-family="monospace" dominant-baseline="initial">52</text><rect x="2856" y="184.0" width="188" height="1" fill="white" fill-opacity="0.2" /><rect x="2856" y="127.0" width="188" height="1" fill="white" fill-opacity="0.2" /><rect x="2856" y="70.0" width="188" height="1" fill="white" fill-opacity="0.2" /><rect x="2856" y="13.0" width="188" height="1" fill="white" fill-opacity="0.5" /><text x="3054" y="13.0" font-size="14" fill="white" font-family="monospace" dominant-baseline="initial">53</text><rect x="2856" y="696.5" width="188" height="1" fill="aqua" fill-opacity="0.75" /><text x="2856" y="692.5" font-size="14" fill="aqua" fill-opacity="0.75" font-family="monospace">Special</text><rect x="3094" y="14.0" width="188" height="911.5" fill="black" /><rect x="3094" y="924.5" width="188" height="1" fill="white" fill-opacity="0.5" /><text x="3292" y="924.5" font-size="14" fill="white" font-family="monospace" dominant-baseline="initial">53</text><rect x="3094" y="867.5" width="188" height="1" fill="white" fill-opacity="0.2" /><rect x="3094" y="810.5" width="188" height="1" fill="white" fill-opacity="0.2" /><rect x="3094" y="753.5" width="188" height="1" fill="white" fill-opacity="0.2" /><rect x="3094" y="696.5" width="188" height="1" fill="white" fill-opacity="0.5" /><text x="3292" y="696.5" font-size="14" fill="white" font-family="monospace" dominant-baseline="initial">54</text><rect x="3094" y="639.5" width="188" height="1" fill="white" fill-opacity="0.2" /><rect x="3094" y="582.5" width="188" height="1" fill="white" fill-opacity="0.2" /><rect x="3094" y="525.5" width="188" height="1" fill="white" fill-opacity="0.2" /><rect x="3094" y="468.5" width="188" height="1" fill="white" fill-opacity="0.5" /><text x="3292" y="468.5" font-size="14" fill="white" font-family="monospace" dominant-baseline="initial">55</text><rect x="3094" y="412.0" width="188" height="1" fill="white" fill-opacity="0.2" /><rect x="3094" y="355.0" width="188" height="1" fill="white" fill-opacity="0.2" /><rect x="3094" y="298.0" width="188" height="1" fill="white" fill-opacity="0.2" /><rect x="3094" y="241.0" width="188" height="1" fill="white" fill-opacity="0.5" /><text x="3292" y="241.0" font-size="14" fill="white" font-family="monospace" dominant-baseline="initial">56</text><rect x="3094" y="184.0" width="188" height="1" fill="white" fill-opacity="0.2" /><rect x="3094" y="127.0" width="188" height="1" fill="white" fill-opacity="0.2" /><rect x="3094" y="70.0" width="188" height="1" fill="white" fill-opacity="0.2" /><rect x="3094" y="13.0" width="188" height="1" fill="white" fill-opacity="0.5" /><text x="3292" y="13.0" font-size="14" fill="white" font-family="monospace" dominant-baseline="initial">57</text><rect x="3332" y="14.0" width="188" height="911.5" fill="black" /><rect x="3332" y="924.5" width="188" height="1" fill="white" fill-opacity="0.5" /><text x="3530" y="924.5" font-size="14" fill="white" font-family="monospace" dominant-baseline="initial">57</text><rect x="3332" y="867.5" width="188" height="1" fill="white" fill-opacity="0.2" /><rect x="3332" y="810.5" width="188" height="1" fill="white" fill-opacity="0.2" /><rect x="3332" y="753.5" width="188" height="1" fill="white" fill-opacity="0.2" /><rect x="3332" y="696.5" width="188" height="1" fill="white" fill-opacity="0.5" /><text x="3530" y="696.5" font-size="14" fill="white" font-family="monospace" dominant-baseline="initial">58</text><rect x="3332" y="639.5" width="188" height="1" fill="white" fill-opacity="0.2" /><rect x="3332" y="583.0" width="188" height="1" fill="white" fill-opacity="0.2" /><rect x="3332" y="526.0" width="188" height="1" fill="white" fill-opacity="0.2" /><rect x="3332" y="469.0" width="188" height="1" fill="white" fill-opacity="0.5" /><text x="3530" y="469.0" font-size="14" fill="white" font-family="monospace" dominant-baseline="initial">59</text><rect x="3332" y="412.0" width="188" height="1" fill="white" fill-opacity="0.2" /><rect x="3332" y="355.0" width="188" height="1" fill="white" fill-opacity="0.2" /><rect x="3332" y="298.0" width="188" height="1" fill="white" fill-opacity="0.2" /><rect x="3332" y="241.0" width="188" height="1" fill="white" fill-opacity="0.5" /><text x="3530" y="241.0" font-size="14" fill="white" font-family="monospace" dominant-baseline="initial">60</text><rect x="3332" y="184.0" width="188" height="1" fill="white" fill-opacity="0.2" /><rect x="3332" y="127.0" width="188" height="1" fill="white" fill-opacity="0.2" /><rect x="3332" y="70.0" width="188" height="1" fill="white" fill-opacity="0.2" /><rect x="3332" y="13.0" width="188" height="1" fill="white" fill-opacity="0.5" /><text x="3530" y="13.0" font-size="14" fill="white" font-family="monospace" dominant-baseline="initial">61</text><rect x="3570" y="14.5" width="188" height="911.0" fill="black" /><rect x="3570" y="924.5" width="188" height="1" fill="white" fill-opacity="0.5" /><text x="3768" y="924.5" font-size="14" fill="white" font-family="monospace" dominant-baseline="initial">61</text><rect x="3570" y="867.5" width="188" height="1" fill="white" fill-opacity="0.2" /><rect x="3570" y="810.5" width="188" height="1" fill="white" fill-opacity="0.2" /><rect x="3570" y="754.0" width="188" height="1" fill="white" fill-opacity="0.2" /><rect x="3570" y="697.0" width="188" height="1" fill="white" fill-opacity="0.5" /><text x="3768" y="697.0" font-size="14" fill="white" font-family="monospace" dominant-baseline="initial">62</text><rect x="3570" y="640.0" width="188" height="1" fill="white" fill-opacity="0.2" /><rect x="3570" y="583.0" width="188" height="1" fill="white" fill-opacity="0.2" /><rect x="3570" y="526.0" width="188" height="1" fill="white" fill-opacity="0.2" /><rect x="3570" y="469.0" width="188" height="1" fill="white" fill-opacity="0.5" /><text x="3768" y="469.0" font-size="14" fill="white" font-family="monospace" dominant-baseline="initial">63</text><rect x="3570" y="412.0" width="188" height="1" fill="white" fill-opacity="0.2" /><rect x="3570" y="355.0" width="188" height="1" fill="white" fill-opacity="0.2" /><rect x="3570" y="298.0" width="188" height="1" fill="white" fill-opacity="0.2" /><rect x="3570" y="241.0" width="188" height="1" fill="white" fill-opacity="0.5" /><text x="3768" y="241.0" font-size="14" fill="white" font-family="monospace" dominant-baseline="initial">64</text><rect x="3570" y="184.0" width="188" height="1" fill="white" fill-opacity="0.2" /><rect x="3570" y="127.0" width="188" height="1" fill="white" fill-opacity="0.2" /><rect x="3570" y="70.0" width="188" height="1" fill="white" fill-opacity="0.2" /><rect x="3570" y="13.5" width="188" height="1" fill="white" fill-opacity="0.5" /><text x="3768" y="13.5" font-size="14" fill="white" font-family="monospace" dominant-baseline="initial">65</text><rect x="3808" y="14.0" width="188" height="911.5" fill="black" /><rect x="3808" y="924.5" width="188" height="1" fill="white" fill-opacity="0.5" /><text x="4006" y="924.5" font-size="14" fill="white" font-family="monospace" dominant-baseline="initial">65</text><rect x="3808" y="867.5" width="188" height="1" fill="white" fill-opacity="0.2" /><rect x="3808" y="810.5" width="188" height="1" fill="white" fill-opacity="0.2" /><rect x="3808" y="753.5" width="188" height="1" fill="white" fill-opacity="0.2" /><rect x="3808" y="696.5" width="188" height="1" fill="white" fill-opacity="0.5" /><text x="4006" y="696.5" font-size="14" fill="white" font-family="monospace" dominant-baseline="initial">66</text><rect x="3808" y="639.5" width="188" height="1" fill="white" fill-opacity="0.2" /><rect x="3808" y="582.5" width="188" height="1" fill="white" fill-opacity="0.2" /><rect x="3808" y="525.5" width="188" height="1" fill="white" fill-opacity="0.2" /><rect x="3808" y="468.5" width="188" height="1" fill="white" fill-opacity="0.5" /><text x="4006" y="468.5" font-size="14" fill="white" font-family="monospace" dominant-baseline="initial">67</text><rect x="3808" y="411.5" width="188" height="1" fill="white" fill-opacity="0.2" /><rect x="3808" y="354.5" width="188" height="1" fill="white" fill-opacity="0.2" /><rect x="3808" y="297.5" width="188" height="1" fill="white" fill-opacity="0.2" /><rect x="3808" y="240.5" width="188" height="1" fill="white" fill-opacity="0.5" /><text x="4006" y="240.5" font-size="14" fill="white" font-family="monospace" dominant-baseline="initial">68</text><rect x="3808" y="183.5" width="188" height="1" fill="white" fill-opacity="0.2" /><rect x="3808" y="127.0" width="188" height="1" fill="white" fill-opacity="0.2" /><rect x="3808" y="70.0" width="188" height="1" fill="white" fill-opacity="0.2" /><rect x="3808" y="13.0" width="188" height="1" fill="white" fill-opacity="0.5" /><text x="4006" y="13.0" font-size="14" fill="white" font-family="monospace" dominant-baseline="initial">69</text><rect x="3808" y="696.4000000000015" width="188" height="1" fill="aqua" fill-opacity="0.75" /><text x="3808" y="692.4000000000015" font-size="14" fill="aqua" fill-opacity="0.75" font-family="monospace">Phrase A</text><rect x="4046" y="314.0" width="188" height="611.5" fill="black" /><rect x="4046" y="924.5" width="188" height="1" fill="white" fill-opacity="0.5" /><text x="4244" y="924.5" font-size="14" fill="white" font-family="monospace" dominant-baseline="initial">69</text><rect x="4046" y="867.5" width="188" height="1" fill="white" fill-opacity="0.2" /><rect x="4046" y="810.5" width="188" height="1" fill="white" fill-opacity="0.2" /><rect x="4046" y="753.5" width="188" height="1" fill="white" fill-opacity="0.2" /><rect x="4046" y="696.5" width="188" height="1" fill="white" fill-opacity="0.5" /><text x="4244" y="696.5" font-size="14" fill="white" font-family="monospace" dominant-baseline="initial">70</text><rect x="4046" y="639.5" width="188" height="1" fill="white" fill-opacity="0.2" /><rect x="4046" y="582.5" width="188" height="1" fill="white" fill-opacity="0.2" /><rect x="4046" y="525.5" width="188" height="1" fill="white" fill-opacity="0.2" /><rect x="4046" y="468.5" width="188" height="1" fill="white" fill-opacity="0.5" /><text x="4244" y="468.5" font-size="14" fill="white" font-family="monospace" dominant-baseline="initial">71</text></svg>