<?xml version="1.0" encoding="UTF-8"?><svg xmlns="http://www.w3.org/2000/svg" xmlns:xlink="http://www.w3.org/1999/xlink"     width="4522" height="1275.5" viewBox="0 0 4522 1275.5"><defs></defs><rect x="0" y="340.5" width="188" height="935.0" fill="black" /><rect x="0" y="1274.5" width="188" height="1" fill="white" fill-opacity="0.5" /><text x="198" y="1274.5" font-size="14" fill="white" font-family="monospace" dominant-baseline="initial">1</text><rect x="0" y="1216.0" width="188" height="1" fill="white" fill-opacity="0.2" /><rect x="0" y="1157.5" width="188" height="1" fill="white" fill-opacity="0.2" /><rect x="0" y="1099.0" width="188" height="1" fill="white" fill-opacity="0.2" /><rect x="0" y="1040.5" width="188" height="1" fill="white" fill-opacity="0.5" /><text x="198" y="1040.5" font-size="14" fill="white" font-family="monospace" dominant-baseline="initial">2</text><rect x="0" y="982.5" width="188" height="1" fill="white" fill-opacity="0.2" /><rect x="0" y="924.0" width="188" height="1" fill="white" fill-opacity="0.2" /><rect x="0" y="865.5" width="188" height="1" fill="white" fill-opacity="0.2" /><rect x="0" y="807.0" width="188" height="1" fill="white" fill-opacity="0.5" /><text x="198" y="807.0" font-size="14" fill="white" font-family="monospace" dominant-baseline="initial">3</text><rect x="0" y="748.5" width="188" height="1" fill="white" fill-opacity="0.2" /><rect x="0" y="690.0" width="188" height="1" fill="white" fill-opacity="0.2" /><rect x="0" y="631.5" width="188" height="1" fill="white" fill-opacity="0.2" /><rect x="0" y="573.0" width="188" height="1" fill="white" fill-opacity="0.5" /><text x="198" y="573.0" font-size="14" fill="white" font-family="monospace" dominant-baseline="initial">4</text><rect x="0" y="515.0" width="188" height="1" fill="white" fill-opacity="0.2" /><rect x="0" y="456.5" width="188" height="1" fill="white" fill-opacity="0.2" /><rect x="0" y="398.0" width="188" height="1" fill="white" fill-opacity="0.2" /><rect x="0" y="339.5" width="188" height="1" fill="white" fill-opacity="0.5" /><text x="198" y="339.5" font-size="14" fill="white" font-family="monospace" dominant-baseline="initial">5</text><rect x="0" y="1274.5" width="188" height="1" fill="aqua" fill-opacity="0.75" /><text x="0" y="1270.5" font-size="14" fill="aqua" fill-opacity="0.75" font-family="monospace">Intro</text><rect x="0" y="1274.5" width="188" height="1" fill="lime" fill-opacity="0.75" /><text x="198" y="1261.5" font-size="14" fill="lime" font-family="monospace" dominant-baseline="initial">154</text><rect x="238" y="340.5" width="188" height="935.0" fill="black" /><rect x="238" y="1274.5" width="188" height="1" fill="white" fill-opacity="0.5" /><text x="436" y="1274.5" font-size="14" fill="white" font-family="monospace" dominant-baseline="initial">5</text><rect x="238" y="1216.0" width="188" height="1" fill="white" fill-opacity="0.2" /><rect x="238" y="1157.5" width="188" height="1" fill="white" fill-opacity="0.2" /><rect x="238" y="1099.0" width="188" height="1" fill="white" fill-opacity="0.2" /><rect x="238" y="1040.5" width="188" height="1" fill="white" fill-opacity="0.5" /><text x="436" y="1040.5" font-size="14" fill="white" font-family="monospace" dominant-baseline="initial">6</text><rect x="238" y="982.0" width="188" height="1" fill="white" fill-opacity="0.2" /><rect x="238" y="924.0" width="188" height="1" fill="white" fill-opacity="0.2" /><rect x="238" y="865.5" width="188" height="1" fill="white" fill-opacity="0.2" /><rect x="238" y="807.0" width="188" height="1" fill="white" fill-opacity="0.5" /><text x="436" y="807.0" font-size="14" fill="white" font-family="monospace" dominant-baseline="initial">7</text><rect x="238" y="748.5" width="188" height="1" fill="white" fill-opacity="0.2" /><rect x="238" y="690.0" width="188" height="1" fill="white" fill-opacity="0.2" /><rect x="238" y="631.5" width="188" height="1" fill="white" fill-opacity="0.2" /><rect x="238" y="573.0" width="188" height="1" fill="white" fill-opacity="0.5" /><text x="436" y="573.0" font-size="14" fill="white" font-family="monospace" dominant-baseline="initial">8</text><rect x="238" y="514.5" width="188" height="1" fill="white" fill-opacity="0.2" /><rect x="238" y="456.5" width="188" height="1" fill="white" fill-opacity="0.2" /><rect x="238" y="398.0" width="188" height="1" fill="white" fill-opacity="0.2" /><rect x="238" y="339.5" width="188" height="1" fill="white" fill-opacity="0.5" /><text x="436" y="339.5" font-size="14" fill="white" font-family="monospace" dominant-baseline="initial">9</text><rect x="476" y="340.5" width="188" height="935.0" fill="black" /><rect x="476" y="1274.5" width="188" height="1" fill="white" fill-opacity="0.5" /><text x="674" y="1274.5" font-size="14" fill="white" font-family="monospace" dominant-baseline="initial">9</text><rect x="476" y="1216.0" width="188" height="1" fill="white" fill-opacity="0.2" /><rect x="476" y="1157.5" width="188" height="1" fill="white" fill-opacity="0.2" /><rect x="476" y="1099.0" width="188" height="1" fill="white" fill-opacity="0.2" /><rect x="476" y="1040.5" width="188" height="1" fill="white" fill-opacity="0.5" /><text x="674" y="1040.5" font-size="14" fill="white" font-family="monospace" dominant-baseline="initial">10</text><rect x="476" y="982.0" width="188" height="1" fill="white" fill-opacity="0.2" /><rect x="476" y="923.5" width="188" height="1" fill="white" fill-opacity="0.2" /><rect x="476" y="865.5" width="188" height="1" fill="white" fill-opacity="0.2" /><rect x="476" y="807.0" width="188" height="1" fill="white" fill-opacity="0.5" /><text x="674" y="807.0" font-size="14" fill="white" font-family="monospace" dominant-baseline="initial">11</text><rect x="476" y="748.5" width="188" height="1" fill="white" fill-opacity="0.2" /><rect x="476" y="690.0" width="188" height="1" fill="white" fill-opacity="0.2" /><rect x="476" y="631.5" width="188" height="1" fill="white" fill-opacity="0.2" /><rect x="476" y="573.0" width="188" height="1" fill="white" fill-opacity="0.5" /><text x="674" y="573.0" font-size="14" fill="white" font-family="monospace" dominant-baseline="initial">12</text><rect x="476" y="514.5" width="188" height="1" fill="white" fill-opacity="0.2" /><rect x="476" y="456.0" width="188" height="1" fill="white" fill-opacity="0.2" /><rect x="476" y="397.5" width="188" height="1" fill="white" fill-opacity="0.2" /><rect x="476" y="339.5" width="188" height="1" fill="white" fill-opacity="0.5" /><text x="674" y="339.5" font-size="14" fill="white" font-family="monospace" dominant-baseline="initial">13</text><rect x="714" y="340.0" width="188" height="935.5" fill="black" /><rect x="714" y="1274.5" width="188" height="1" fill="white" fill-opacity="0.5" /><text x="912" y="1274.5" font-size="14" fill="white" font-family="monospace" dominant-baseline="initial">13</text><rect x="714" y="1216.0" width="188" height="1" fill="white" fill-opacity="0.2" /><rect x="714" y="1157.5" width="188" height="1" fill="white" fill-opacity="0.2" /><rect x="714" y="1099.0" width="188" height="1" fill="white" fill-opacity="0.2" /><rect x="714" y="1040.5" width="188" height="1" fill="white" fill-opacity="0.5" /><text x="912" y="1040.5" font-size="14" fill="white" font-family="monospace" dominant-baseline="initial">14</text><rect x="714" y="982.0" width="188" height="1" fill="white" fill-opacity="0.2" /><rect x="714" y="923.5" width="188" height="1" fill="white" fill-opacity="0.2" /><rect x="714" y="865.0" width="188" height="1" fill="white" fill-opacity="0.2" /><rect x="714" y="807.0" width="188" height="1" fill="white" fill-opacity="0.5" /><text x="912" y="807.0" font-size="14" fill="white" font-family="monospace" dominant-baseline="initial">15</text><rect x="714" y="748.5" width="188" height="1" fill="white" fill-opacity="0.2" /><rect x="714" y="690.0" width="188" height="1" fill="white" fill-opacity="0.2" /><rect x="714" y="631.5" width="188" height="1" fill="white" fill-opacity="0.2" /><rect x="714" y="573.0" width="188" height="1" fill="white" fill-opacity="0.5" /><text x="912" y="573.0" font-size="14" fill="white" font-family="monospace" dominant-baseline="initial">16</text><rect x="714" y="514.5" width="188" height="1" fill="white" fill-opacity="0.2" /><rect x="714" y="456.0" width="188" height="1" fill="white" fill-opacity="0.2" /><rect x="714" y="397.5" width="188" height="1" fill="white" fill-opacity="0.2" /><rect x="714" y="339.0" width="188" height="1" fill="white" fill-opacity="0.5" /><text x="912" y="339.0" font-size="14" fill="white" font-family="monospace" dominant-baseline="initial">17</text><rect x="714" y="1274.35" width="188" height="1" fill="aqua" fill-opacity="0.75" /><text x="714" y="1270.35" font-size="14" fill="aqua" fill-opacity="0.75" font-family="monospace">Phrase A</text><rect x="952" y="340.5" width="188" height="935.0" fill="black" /><rect x="952" y="1274.5" width="188" height="1" fill="white" fill-opacity="0.5" /><text x="1150" y="1274.5" font-size="14" fill="white" font-family="monospace" dominant-baseline="initial">17</text><rect x="952" y="1216.5" width="188" height="1" fill="white" fill-opacity="0.2" /><rect x="952" y="1158.0" width="188" height="1" fill="white" fill-opacity="0.2" /><rect x="952" y="1099.5" width="188" height="1" fill="white" fill-opacity="0.2" /><rect x="952" y="1041.0" width="188" height="1" fill="white" fill-opacity="0.5" /><text x="1150" y="1041.0" font-size="14" fill="white" font-family="monospace" dominant-baseline="initial">18</text><rect x="952" y="982.5" width="188" height="1" fill="white" fill-opacity="0.2" /><rect x="952" y="924.0" width="188" height="1" fill="white" fill-opacity="0.2" /><rect x="952" y="865.5" width="188" height="1" fill="white" fill-opacity="0.2" /><rect x="952" y="807.0" width="188" height="1" fill="white" fill-opacity="0.5" /><text x="1150" y="807.0" font-size="14" fill="white" font-family="monospace" dominant-baseline="initial">19</text><rect x="952" y="749.0" width="188" height="1" fill="white" fill-opacity="0.2" /><rect x="952" y="690.5" width="188" height="1" fill="white" fill-opacity="0.2" /><rect x="952" y="632.0" width="188" height="1" fill="white" fill-opacity="0.2" /><rect x="952" y="573.5" width="188" height="1" fill="white" fill-opacity="0.5" /><text x="1150" y="573.5" font-size="14" fill="white" font-family="monospace" dominant-baseline="initial">20</text><rect x="952" y="515.0" width="188" height="1" fill="white" fill-opacity="0.2" /><rect x="952" y="456.5" width="188" height="1" fill="white" fill-opacity="0.2" /><rect x="952" y="398.0" width="188" height="1" fill="white" fill-opacity="0.2" /><rect x="952" y="339.5" width="188" height="1" fill="white" fill-opacity="0.5" /><text x="1150" y="339.5" font-size="14" fill="white" font-family="monospace" dominant-baseline="initial">21</text><rect x="1190" y="340.5" width="188" height="935.0" fill="black" /><rect x="1190" y="1274.5" width="188" height="1" fill="white" fill-opacity="0.5" /><text x="1388" y="1274.5" font-size="14" fill="white" font-family="monospace" dominant-baseline="initial">21</text><rect x="1190" y="1216.0" width="188" height="1" fill="white" fill-opacity="0.2" /><rect x="1190" y="1158.0" width="188" height="1" fill="white" fill-opacity="0.2" /><rect x="1190" y="1099.5" width="188" height="1" fill="white" fill-opacity="0.2" /><rect x="1190" y="1041.0" width="188" height="1" fill="white" fill-opacity="0.5" /><text x="1388" y="1041.0" font-size="14" fill="white" font-family="monospace" dominant-baseline="initial">22</text><rect x="1190" y="982.5" width="188" height="1" fill="white" fill-opacity="0.2" /><rect x="1190" y="924.0" width="188" height="1" fill="white" fill-opacity="0.2" /><rect x="1190" y="865.5" width="188" height="1" fill="white" fill-opacity="0.2" /><rect x="1190" y="807.0" width="188" height="1" fill="white" fill-opacity="0.5" /><text x="1388" y="807.0" font-size="14" fill="white" font-family="monospace" dominant-baseline="initial">23</text><rect x="1190" y="748.5" width="188" height="1" fill="white" fill-opacity="0.2" /><rect x="1190" y="690.5" width="188" height="1" fill="white" fill-opacity="0.2" /><rect x="1190" y="632.0" width="188" height="1" fill="white" fill-opacity="0.2" /><rect x="1190" y="573.5" width="188" height="1" fill="white" fill-opacity="0.5" /><text x="1388" y="573.5" font-size="14" fill="white" font-family="monospace" dominant-baseline="initial">24</text><rect x="1190" y="515.0" width="188" height="1" fill="white" fill-opacity="0.2" /><rect x="1190" y="456.5" width="188" height="1" fill="white" fill-opacity="0.2" /><rect x="1190" y="398.0" width="188" height="1" fill="white" fill-opacity="0.2" /><rect x="1190" y="339.5" width="188" height="1" fill="white" fill-opacity="0.5" /><text x="1388" y="339.5" font-size="14" fill="white" font-family="monospace" dominant-baseline="initial">25</text><rect x="1190" y="1274.6500000000005" width="188" height="1" fill="aqua" fill-opacity="0.75" /><text x="1190" y="1270.6500000000005" font-size="14" fill="aqua" fill-opacity="0.75" font-family="monospace">Phrase B</text><rect x="1428" y="340.5" width="188" height="935.0" fill="black" /><rect x="1428" y="1274.5" width="188" height="1" fill="white" fill-opacity="0.5" /><text x="1626" y="1274.5" font-size="14" fill="white" font-family="monospace" dominant-baseline="initial">25</text><rect x="1428" y="1216.0" width="188" height="1" fill="white" fill-opacity="0.2" /><rect x="1428" y="1157.5" width="188" height="1" fill="white" fill-opacity="0.2" /><rect x="1428" y="1099.5" width="188" height="1" fill="white" fill-opacity="0.2" /><rect x="1428" y="1041.0" width="188" height="1" fill="white" fill-opacity="0.5" /><text x="1626" y="1041.0" font-size="14" fill="white" font-family="monospace" dominant-baseline="initial">26</text><rect x="1428" y="982.5" width="188" height="1" fill="white" fill-opacity="0.2" /><rect x="1428" y="924.0" width="188" height="1" fill="white" fill-opacity="0.2" /><rect x="1428" y="865.5" width="188" height="1" fill="white" fill-opacity="0.2" /><rect x="1428" y="807.0" width="188" height="1" fill="white" fill-opacity="0.5" /><text x="1626" y="807.0" font-size="14" fill="white" font-family="monospace" dominant-baseline="initial">27</text><rect x="1428" y="748.5" width="188" height="1" fill="white" fill-opacity="0.2" /><rect x="1428" y="690.0" width="188" height="1" fill="white" fill-opacity="0.2" /><rect x="1428" y="632.0" width="188" height="1" fill="white" fill-opacity="0.2" /><rect x="1428" y="573.5" width="188" height="1" fill="white" fill-opacity="0.5" /><text x="1626" y="573.5" font-size="14" fill="white" font-family="monospace" dominant-baseline="initial">28</text><rect x="1428" y="515.0" width="188" height="1" fill="white" fill-opacity="0.2" /><rect x="1428" y="456.5" width="188" height="1" fill="white" fill-opacity="0.2" /><rect x="1428" y="398.0" width="188" height="1" fill="white" fill-opacity="0.2" /><rect x="1428" y="339.5" width="188" height="1" fill="white" fill-opacity="0.5" /><text x="1626" y="339.5" font-size="14" fill="white" font-family="monospace" dominant-baseline="initial">29</text><rect x="1666" y="340.5" width="188" height="935.0" fill="black" /><rect x="1666" y="1274.5" width="188" height="1" fill="white" fill-opacity="0.5" /><text x="1864" y="1274.5" font-size="14" fill="white" font-family="monospace" dominant-baseline="initial">29</text><rect x="1666" y="1216.0" width="188" height="1" fill="white" fill-opacity="0.2" /><rect x="1666" y="1157.5" width="188" height="1" fill="white" fill-opacity="0.2" /><rect x="1666" y="1099.0" width="188" height="1" fill="white" fill-opacity="0.2" /><rect x="1666" y="1041.0" width="188" height="1" fill="white" fill-opacity="0.5" /><text x="1864" y="1041.0" font-size="14" fill="white" font-family="monospace" dominant-baseline="initial">30</text><rect x="1666" y="982.5" width="188" height="1" fill="white" fill-opacity="0.2" /><rect x="1666" y="924.0" width="188" height="1" fill="white" fill-opacity="0.2" /><rect x="1666" y="865.5" width="188" height="1" fill="white" fill-opacity="0.2" /><rect x="1666" y="807.0" width="188" height="1" fill="white" fill-opacity="0.5" /><text x="1864" y="807.0" font-size="14" fill="white" font-family="monospace" dominant-baseline="initial">31</text><rect x="1666" y="748.5" width="188" height="1" fill="white" fill-opacity="0.2" /><rect x="1666" y="690.0" width="188" height="1" fill="white" fill-opacity="0.2" /><rect x="1666" y="631.5" width="188" height="1" fill="white" fill-opacity="0.2" /><rect x="1666" y="573.5" width="188" height="1" fill="white" fill-opacity="0.5" /><text x="1864" y="573.5" font-size="14" fill="white" font-family="monospace" dominant-baseline="initial">32</text><rect x="1666" y="515.0" width="188" height="1" fill="white" fill-opacity="0.2" /><rect x="1666" y="456.5" width="188" height="1" fill="white" fill-opacity="0.2" /><rect x="1666" y="398.0" width="188" height="1" fill="white" fill-opacity="0.2" /><rect x="1666" y="339.5" width="188" height="1" fill="white" fill-opacity="0.5" /><text x="1864" y="339.5" font-size="14" fill="white" font-family="monospace" dominant-baseline="initial">33</text><rect x="1666" y="1274.6000000000004" width="188" height="1" fill="aqua" fill-opacity="0.75" /><text x="1666" y="1270.6000000000004" font-size="14" fill="aqua" fill-opacity="0.75" font-family="monospace">Phrase C</text><rect x="1904" y="340.5" width="188" height="935.0" fill="black" /><rect x="1904" y="1274.5" width="188" height="1" fill="white" fill-opacity="0.5" /><text x="2102" y="1274.5" font-size="14" fill="white" font-family="monospace" dominant-baseline="initial">33</text><rect x="1904" y="1216.0" width="188" height="1" fill="white" fill-opacity="0.2" /><rect x="1904" y="1157.5" width="188" height="1" fill="white" fill-opacity="0.2" /><rect x="1904" y="1099.0" width="188" height="1" fill="white" fill-opacity="0.2" /><rect x="1904" y="1040.5" width="188" height="1" fill="white" fill-opacity="0.5" /><text x="2102" y="1040.5" font-size="14" fill="white" font-family="monospace" dominant-baseline="initial">34</text><rect x="1904" y="982.5" width="188" height="1" fill="white" fill-opacity="0.2" /><rect x="1904" y="924.0" width="188" height="1" fill="white" fill-opacity="0.2" /><rect x="1904" y="865.5" width="188" height="1" fill="white" fill-opacity="0.2" /><rect x="1904" y="807.0" width="188" height="1" fill="white" fill-opacity="0.5" /><text x="2102" y="807.0" font-size="14" fill="white" font-family="monospace" dominant-baseline="initial">35</text><rect x="1904" y="748.5" width="188" height="1" fill="white" fill-opacity="0.2" /><rect x="1904" y="690.0" width="188" height="1" fill="white" fill-opacity="0.2" /><rect x="1904" y="631.5" width="188" height="1" fill="white" fill-opacity="0.2" /><rect x="1904" y="573.0" width="188" height="1" fill="white" fill-opacity="0.5" /><text x="2102" y="573.0" font-size="14" fill="white" font-family="monospace" dominant-baseline="initial">36</text><rect x="1904" y="514.5" width="188" height="1" fill="white" fill-opacity="0.2" /><rect x="1904" y="456.5" width="188" height="1" fill="white" fill-opacity="0.2" /><rect x="1904" y="398.0" width="188" height="1" fill="white" fill-opacity="0.2" /><rect x="1904" y="339.5" width="188" height="1" fill="white" fill-opacity="0.5" /><text x="2102" y="339.5" font-size="14" fill="white" font-family="monospace" dominant-baseline="initial">37</text><rect x="2142" y="340.5" width="188" height="935.0" fill="black" /><rect x="2142" y="1274.5" width="188" height="1" fill="white" fill-opacity="0.5" /><text x="2340" y="1274.5" font-size="14" fill="white" font-family="monospace" dominant-baseline="initial">37</text><rect x="2142" y="1216.0" width="188" height="1" fill="white" fill-opacity="0.2" /><rect x="2142" y="1157.5" width="188" height="1" fill="white" fill-opacity="0.2" /><rect x="2142" y="1099.0" width="188" height="1" fill="white" fill-opacity="0.2" /><rect x="2142" y="1040.5" width="188" height="1" fill="white" fill-opacity="0.5" /><text x="2340" y="1040.5" font-size="14" fill="white" font-family="monospace" dominant-baseline="initial">38</text><rect x="2142" y="982.0" width="188" height="1" fill="white" fill-opacity="0.2" /><rect x="2142" y="924.0" width="188" height="1" fill="white" fill-opacity="0.2" /><rect x="2142" y="865.5" width="188" height="1" fill="white" fill-opacity="0.2" /><rect x="2142" y="807.0" width="188" height="1" fill="white" fill-opacity="0.5" /><text x="2340" y="807.0" font-size="14" fill="white" font-family="monospace" dominant-baseline="initial">39</text><rect x="2142" y="748.5" width="188" height="1" fill="white" fill-opacity="0.2" /><rect x="2142" y="690.0" width="188" height="1" fill="white" fill-opacity="0.2" /><rect x="2142" y="631.5" width="188" height="1" fill="white" fill-opacity="0.2" /><rect x="2142" y="573.0" width="188" height="1" fill="white" fill-opacity="0.5" /><text x="2340" y="573.0" font-size="14" fill="white" font-family="monospace" dominant-baseline="initial">40</text><rect x="2142" y="514.5" width="188" height="1" fill="white" fill-opacity="0.2" /><rect x="2142" y="456.0" width="188" height="1" fill="white" fill-opacity="0.2" /><rect x="2142" y="398.0" width="188" height="1" fill="white" fill-opacity="0.2" /><rect x="2142" y="339.5" width="188" height="1" fill="white" fill-opacity="0.5" /><text x="2340" y="339.5" font-size="14" fill="white" font-family="monospace" dominant-baseline="initial">41</text><rect x="2142" y="1274.3999999999996" width="188" height="1" fill="aqua" fill-opacity="0.75" /><text x="2142" y="1270.3999999999996" font-size="14" fill="aqua" fill-opacity="0.75" font-family="monospace">Special</text><rect x="2380" y="340.5" width="188" height="935.0" fill="black" /><rect x="2380" y="1274.5" width="188" height="1" fill="white" fill-opacity="0.5" /><text x="2578" y="1274.5" font-size="14" fill="white" font-family="monospace" dominant-baseline="initial">41</text><rect x="2380" y="1216.0" width="188" height="1" fill="white" fill-opacity="0.2" /><rect x="2380" y="1157.5" width="188" height="1" fill="white" fill-opacity="0.2" /><rect x="2380" y="1099.0" width="188" height="1" fill="white" fill-opacity="0.2" /><rect x="2380" y="1040.5" width="188" height="1" fill="white" fill-opacity="0.5" /><text x="2578" y="1040.5" font-size="14" fill="white" font-family="monospace" dominant-baseline="initial">42</text><rect x="2380" y="982.0" width="188" height="1" fill="white" fill-opacity="0.2" /><rect x="2380" y="923.5" width="188" height="1" fill="white" fill-opacity="0.2" /><rect x="2380" y="865.5" width="188" height="1" fill="white" fill-opacity="0.2" /><rect x="2380" y="807.0" width="188" height="1" fill="white" fill-opacity="0.5" /><text x="2578" y="807.0" font-size="14" fill="white" font-family="monospace" dominant-baseline="initial">43</text><rect x="2380" y="748.5" width="188" height="1" fill="white" fill-opacity="0.2" /><rect x="2380" y="690.0" width="188" height="1" fill="white" fill-opacity="0.2" /><rect x="2380" y="631.5" width="188" height="1" fill="white" fill-opacity="0.2" /><rect x="2380" y="573.0" width="188" height="1" fill="white" fill-opacity="0.5" /><text x="2578" y="573.0" font-size="14" fill="white" font-family="monospace" dominant-baseline="initial">44</text><rect x="2380" y="514.5" width="188" height="1" fill="white" fill-opacity="0.2" /><rect x="2380" y="456.0" width="188" height="1" fill="white" fill-opacity="0.2" /><rect x="2380" y="397.5" width="188" height="1" fill="white" fill-opacity="0.2" /><rect x="2380" y="339.5" width="188" height="1" fill="white" fill-opacity="0.5" /><text x="2578" y="339.5" font-size="14" fill="white" font-family="monospace" dominant-baseline="initial">45</text><rect x="2618" y="340.0" width="188" height="935.5" fill="black" /><rect x="2618" y="1274.5" width="188" height="1" fill="white" fill-opacity="0.5" /><text x="2816" y="1274.5" font-size="14" fill="white" font-family="monospace" dominant-baseline="initial">45</text><rect x="2618" y="1216.0" width="188" height="1" fill="white" fill-opacity="0.2" /><rect x="2618" y="1157.5" width="188" height="1" fill="white" fill-opacity="0.2" /><rect x="2618" y="1099.0" width="188" height="1" fill="white" fill-opacity="0.2" /><rect x="2618" y="1040.5" width="188" height="1" fill="white" fill-opacity="0.5" /><text x="2816" y="1040.5" font-size="14" fill="white" font-family="monospace" dominant-baseline="initial">46</text><rect x="2618" y="982.0" width="188" height="1" fill="white" fill-opacity="0.2" /><rect x="2618" y="923.5" width="188" height="1" fill="white" fill-opacity="0.2" /><rect x="2618" y="865.0" width="188" height="1" fill="white" fill-opacity="0.2" /><rect x="2618" y="807.0" width="188" height="1" fill="white" fill-opacity="0.5" /><text x="2816" y="807.0" font-size="14" fill="white" font-family="monospace" dominant-baseline="initial">47</text><rect x="2618" y="748.5" width="188" height="1" fill="white" fill-opacity="0.2" /><rect x="2618" y="690.0" width="188" height="1" fill="white" fill-opacity="0.2" /><rect x="2618" y="631.5" width="188" height="1" fill="white" fill-opacity="0.2" /><rect x="2618" y="573.0" width="188" height="1" fill="white" fill-opacity="0.5" /><text x="2816" y="573.0" font-size="14" fill="white" font-family="monospace" dominant-baseline="initial">48</text><rect x="2618" y="514.5" width="188" height="1" fill="white" fill-opacity="0.2" /><rect x="2618" y="456.0" width="188" height="1" fill="white" fill-opacity="0.2" /><rect x="2618" y="397.5" width="188" height="1" fill="white" fill-opacity="0.2" /><rect x="2618" y="339.0" width="188" height="1" fill="white" fill-opacity="0.5" /><text x="2816" y="339.0" font-size="14" fill="white" font-family="monospace" dominant-baseline="initial">49</text><rect x="2618" y="1274.3500000000004" width="188" height="1" fill="aqua" fill-opacity="0.75" /><text x="2618" y="1270.3500000000004" font-size="14" fill="aqua" fill-opacity="0.75" font-family="monospace">Special</text><rect x="2856" y="340.5" width="188" height="935.0" fill="black" /><rect x="2856" y="1274.5" width="188" height="1" fill="white" fill-opacity="0.5" /><text x="3054" y="1274.5" font-size="14" fill="white" font-family="monospace" dominant-baseline="initial">49</text><rect x="2856" y="1216.5" width="188" height="1" fill="white" fill-opacity="0.2" /><rect x="2856" y="1158.0" width="188" height="1" fill="white" fill-opacity="0.2" /><rect x="2856" y="1099.5" width="188" height="1" fill="white" fill-opacity="0.2" /><rect x="2856" y="1041.0" width="188" height="1" fill="white" fill-opacity="0.5" /><text x="3054" y="1041.0" font-size="14" fill="white" font-family="monospace" dominant-baseline="initial">50</text><rect x="2856" y="982.5" width="188" height="1" fill="white" fill-opacity="0.2" /><rect x="2856" y="924.0" width="188" height="1" fill="white" fill-opacity="0.2" /><rect x="2856" y="865.5" width="188" height="1" fill="white" fill-opacity="0.2" /><rect x="2856" y="807.0" width="188" height="1" fill="white" fill-opacity="0.5" /><text x="3054" y="807.0" font-size="14" fill="white" font-family="monospace" dominant-baseline="initial">51</text><rect x="2856" y="749.0" width="188" height="1" fill="white" fill-opacity="0.2" /><rect x="2856" y="690.5" width="188" height="1" fill="white" fill-opacity="0.2" /><rect x="2856" y="632.0" width="188" height="1" fill="white" fill-opacity="0.2" /><rect x="2856" y="573.5" width="188" height="1" fill="white" fill-opacity="0.5" /><text x="3054" y="573.5" font-size="14" fill="white" font-family="monospace" dominant-baseline="initial">52</text><rect x="2856" y="515.0" width="188" height="1" fill="white" fill-opacity="0.2" /><rect x="2856" y="456.5" width="188" height="1" fill="white" fill-opacity="0.2" /><rect x="2856" y="398.0" width="188" height="1" fill="white" fill-opacity="0.2" /><rect x="2856" y="339.5" width="188" height="1" fill="white" fill-opacity="0.5" /><text x="3054" y="339.5" font-size="14" fill="white" font-family="monospace" dominant-baseline="initial">53</text><rect x="3094" y="340.5" width="188" height="935.0" fill="black" /><rect x="3094" y="1274.5" width="188" height="1" fill="white" fill-opacity="0.5" /><text x="3292" y="1274.5" font-size="14" fill="white" font-family="monospace" dominant-baseline="initial">53</text><rect x="3094" y="1216.0" width="188" height="1" fill="white" fill-opacity="0.2" /><rect x="3094" y="1158.0" width="188" height="1" fill="white" fill-opacity="0.2" /><rect x="3094" y="1099.5" width="188" height="1" fill="white" fill-opacity="0.2" /><rect x="3094" y="1041.0" width="188" height="1" fill="white" fill-opacity="0.5" /><text x="3292" y="1041.0" font-size="14" fill="white" font-family="monospace" dominant-baseline="initial">54</text><rect x="3094" y="982.5" width="188" height="1" fill="white" fill-opacity="0.2" /><rect x="3094" y="924.0" width="188" height="1" fill="white" fill-opacity="0.2" /><rect x="3094" y="865.5" width="188" height="1" fill="white" fill-opacity="0.2" /><rect x="3094" y="807.0" width="188" height="1" fill="white" fill-opacity="0.5" /><text x="3292" y="807.0" font-size="14" fill="white" font-family="monospace" dominant-baseline="initial">55</text><rect x="3094" y="748.5" width="188" height="1" fill="white" fill-opacity="0.2" /><rect x="3094" y="690.5" width="188" height="1" fill="white" fill-opacity="0.2" /><rect x="3094" y="632.0" width="188" height="1" fill="white" fill-opacity="0.2" /><rect x="3094" y="573.5" width="188" height="1" fill="white" fill-opacity="0.5" /><text x="3292" y="573.5" font-size="14" fill="white" font-family="monospace" dominant-baseline="initial">56</text><rect x="3094" y="515.0" width="188" height="1" fill="white" fill-opacity="0.2" /><rect x="3094" y="456.5" width="188" height="1" fill="white" fill-opacity="0.2" /><rect x="3094" y="398.0" width="188" height="1" fill="white" fill-opacity="0.2" /><rect x="3094" y="339.5" width="188" height="1" fill="white" fill-opacity="0.5" /><text x="3292" y="339.5" font-size="14" fill="white" font-family="monospace" dominant-baseline="initial">57</text><rect x="3094" y="807.1000000000004" width="188" height="1" fill="aqua" fill-opacity="0.75" /><text x="3094" y="803.1000000000004" font-size="14" fill="aqua" fill-opacity="0.75" font-family="monospace">Phrase D</text><rect x="3332" y="340.5" width="188" height="935.0" fill="black" /><rect x="3332" y="1274.5" width="188" height="1" fill="white" fill-opacity="0.5" /><text x="3530" y="1274.5" font-size="14" fill="white" font-family="monospace" dominant-baseline="initial">57</text><rect x="3332" y="1216.0" width="188" height="1" fill="white" fill-opacity="0.2" /><rect x="3332" y="1157.5" width="188" height="1" fill="white" fill-opacity="0.2" /><rect x="3332" y="1099.5" width="188" height="1" fill="white" fill-opacity="0.2" /><rect x="3332" y="1041.0" width="188" height="1" fill="white" fill-opacity="0.5" /><text x="3530" y="1041.0" font-size="14" fill="white" font-family="monospace" dominant-baseline="initial">58</text><rect x="3332" y="982.5" width="188" height="1" fill="white" fill-opacity="0.2" /><rect x="3332" y="924.0" width="188" height="1" fill="white" fill-opacity="0.2" /><rect x="3332" y="865.5" width="188" height="1" fill="white" fill-opacity="0.2" /><rect x="3332" y="807.0" width="188" height="1" fill="white" fill-opacity="0.5" /><text x="3530" y="807.0" font-size="14" fill="white" font-family="monospace" dominant-baseline="initial">59</text><rect x="3332" y="748.5" width="188" height="1" fill="white" fill-opacity="0.2" /><rect x="3332" y="690.0" width="188" height="1" fill="white" fill-opacity="0.2" /><rect x="3332" y="631.5" width="188" height="1" fill="white" fill-opacity="0.2" /><rect x="3332" y="573.5" width="188" height="1" fill="white" fill-opacity="0.5" /><text x="3530" y="573.5" font-size="14" fill="white" font-family="monospace" dominant-baseline="initial">60</text><rect x="3332" y="515.0" width="188" height="1" fill="white" fill-opacity="0.2" /><rect x="3332" y="456.5" width="188" height="1" fill="white" fill-opacity="0.2" /><rect x="3332" y="398.0" width="188" height="1" fill="white" fill-opacity="0.2" /><rect x="3332" y="339.5" width="188" height="1" fill="white" fill-opacity="0.5" /><text x="3530" y="339.5" font-size="14" fill="white" font-family="monospace" dominant-baseline="initial">61</text><rect x="3570" y="340.5" width="188" height="935.0" fill="black" /><rect x="3570" y="1274.5" width="188" height="1" fill="white" fill-opacity="0.5" /><text x="3768" y="1274.5" font-size="14" fill="white" font-family="monospace" dominant-baseline="initial">61</text><rect x="3570" y="1216.0" width="188" height="1" fill="white" fill-opacity="0.2" /><rect x="3570" y="1157.5" width="188" height="1" fill="white" fill-opacity="0.2" /><rect x="3570" y="1099.0" width="188" height="1" fill="white" fill-opacity="0.2" /><rect x="3570" y="1041.0" width="188" height="1" fill="white" fill-opacity="0.5" /><text x="3768" y="1041.0" font-size="14" fill="white" font-family="monospace" dominant-baseline="initial">62</text><rect x="3570" y="982.5" width="188" height="1" fill="white" fill-opacity="0.2" /><rect x="3570" y="924.0" width="188" height="1" fill="white" fill-opacity="0.2" /><rect x="3570" y="865.5" width="188" height="1" fill="white" fill-opacity="0.2" /><rect x="3570" y="807.0" width="188" height="1" fill="white" fill-opacity="0.5" /><text x="3768" y="807.0" font-size="14" fill="white" font-family="monospace" dominant-baseline="initial">63</text><rect x="3570" y="748.5" width="188" height="1" fill="white" fill-opacity="0.2" /><rect x="3570" y="690.0" width="188" height="1" fill="white" fill-opacity="0.2" /><rect x="3570" y="631.5" width="188" height="1" fill="white" fill-opacity="0.2" /><rect x="3570" y="573.0" width="188" height="1" fill="white" fill-opacity="0.5" /><text x="3768" y="573.0" font-size="14" fill="white" font-family="monospace" dominant-baseline="initial">64</text><rect x="3570" y="515.0" width="188" height="1" fill="white" fill-opacity="0.2" /><rect x="3570" y="456.5" width="188" height="1" fill="white" fill-opacity="0.2" /><rect x="3570" y="398.0" width="188" height="1" fill="white" fill-opacity="0.2" /><rect x="3570" y="339.5" width="188" height="1" fill="white" fill-opacity="0.5" /><text x="3768" y="339.5" font-size="14" fill="white" font-family="monospace" dominant-baseline="initial">65</text><rect x="3570" y="807.0500000000011" width="188" height="1" fill="aqua" fill-opacity="0.75" /><text x="3570" y="803.0500000000011" font-size="14" fill="aqua" fill-opacity="0.75" font-family="monospace">Special</text><rect x="3808" y="340.5" width="188" height="935.0" fill="black" /><rect x="3808" y="1274.5" width="188" height="1" fill="white" fill-opacity="0.5" /><text x="4006" y="1274.5" font-size="14" fill="white" font-family="monospace" dominant-baseline="initial">65</text><rect x="3808" y="1216.0" width="188" height="1" fill="white" fill-opacity="0.2" /><rect x="3808" y="1157.5" width="188" height="1" fill="white" fill-opacity="0.2" /><rect x="3808" y="1099.0" width="188" height="1" fill="white" fill-opacity="0.2" /><rect x="3808" y="1040.5" width="188" height="1" fill="white" fill-opacity="0.5" /><text x="4006" y="1040.5" font-size="14" fill="white" font-family="monospace" dominant-baseline="initial">66</text><rect x="3808" y="982.5" width="188" height="1" fill="white" fill-opacity="0.2" /><rect x="3808" y="924.0" width="188" height="1" fill="white" fill-opacity="0.2" /><rect x="3808" y="865.5" width="188" height="1" fill="white" fill-opacity="0.2" /><rect x="3808" y="807.0" width="188" height="1" fill="white" fill-opacity="0.5" /><text x="4006" y="807.0" font-size="14" fill="white" font-family="monospace" dominant-baseline="initial">67</text><rect x="3808" y="748.5" width="188" height="1" fill="white" fill-opacity="0.2" /><rect x="3808" y="690.0" width="188" height="1" fill="white" fill-opacity="0.2" /><rect x="3808" y="631.5" width="188" height="1" fill="white" fill-opacity="0.2" /><rect x="3808" y="573.0" width="188" height="1" fill="white" fill-opacity="0.5" /><text x="4006" y="573.0" font-size="14" fill="white" font-family="monospace" dominant-baseline="initial">68</text><rect x="3808" y="514.5" width="188" height="1" fill="white" fill-opacity="0.2" /><rect x="3808" y="456.5" width="188" height="1" fill="white" fill-opacity="0.2" /><rect x="3808" y="398.0" width="188" height="1" fill="white" fill-opacity="0.2" /><rect x="3808" y="339.5" width="188" height="1" fill="white" fill-opacity="0.5" /><text x="4006" y="339.5" font-size="14" fill="white" font-family="monospace" dominant-baseline="initial">69</text><rect x="4046" y="340.5" width="188" height="935.0" fill="black" /><rect x="4046" y="1274.5" width="188" height="1" fill="white" fill-opacity="0.5" /><text x="4244" y="1274.5" font-size="14" fill="white" font-family="monospace" dominant-baseline="initial">69</text><rect x="4046" y="1216.0" width="188" height="1" fill="white" fill-opacity="0.2" /><rect x="4046" y="1157.5" width="188" height="1" fill="white" fill-opacity="0.2" /><rect x="4046" y="1099.0" width="188" height="1" fill="white" fill-opacity="0.2" /><rect x="4046" y="1040.5" width="188" height="1" fill="white" fill-opacity="0.5" /><text x="4244" y="1040.5" font-size="14" fill="white" font-family="monospace" dominant-baseline="initial">70</text><rect x="4046" y="982.0" width="188" height="1" fill="white" fill-opacity="0.2" /><rect x="4046" y="924.0" width="188" height="1" fill="white" fill-opacity="0.2" /><rect x="4046" y="865.5" width="188" height="1" fill="white" fill-opacity="0.2" /><rect x="4046" y="807.0" width="188" height="1" fill="white" fill-opacity="0.5" /><text x="4244" y="807.0" font-size="14" fill="white" font-family="monospace" dominant-baseline="initial">71</text><rect x="4046" y="748.5" width="188" height="1" fill="white" fill-opacity="0.2" /><rect x="4046" y="690.0" width="188" height="1" fill="white" fill-opacity="0.2" /><rect x="4046" y="631.5" width="188" height="1" fill="white" fill-opacity="0.2" /><rect x="4046" y="573.0" width="188" height="1" fill="white" fill-opacity="0.5" /><text x="4244" y="573.0" font-size="14" fill="white" font-family="monospace" dominant-baseline="initial">72</text><rect x="4046" y="514.5" width="188" height="1" fill="white" fill-opacity="0.2" /><rect x="4046" y="456.0" width="188" height="1" fill="white" fill-opacity="0.2" /><rect x="4046" y="398.0" width="188" height="1" fill="white" fill-opacity="0.2" /><rect x="4046" y="339.5" width="188" height="1" fill="white" fill-opacity="0.5" /><text x="4244" y="339.5" font-size="14" fill="white" font-family="monospace" dominant-baseline="initial">73</text><rect x="4284" y="14.0" width="188" height="1261.5" fill="black" /><rect x="4284" y="1274.5" width="188" height="1" fill="white" fill-opacity="0.5" /><text x="4482" y="1274.5" font-size="14" fill="white" font-family="monospace" dominant-baseline="initial">73</text></svg>